<?xml version="1.0" encoding="UTF-8" standalone="no"?>
<!DOCTYPE svg PUBLIC "-//W3C//DTD SVG 1.1//EN"
 "http://www.w3.org/Graphics/SVG/1.1/DTD/svg11.dtd">
<!-- Generated by graphviz version 2.49.3 (20211027.1534)
 -->
<!-- Title: include/IBM_EIS/authenticate.h Pages: 1 -->
<svg width="648pt" height="252pt"
 viewBox="0.00 0.00 648.00 252.00" xmlns="http://www.w3.org/2000/svg" xmlns:xlink="http://www.w3.org/1999/xlink">
<g id="graph0" class="graph" transform="scale(1 1) rotate(0) translate(4 248)">
<title>include/IBM_EIS/authenticate.h</title>
<!-- Node1 -->
<g id="node1" class="node">
<title>Node1</title>
<g id="a_node1"><a xlink:title=" ">
<polygon fill="#bfbfbf" stroke="black" points="180,-224.5 180,-243.5 333,-243.5 333,-224.5 180,-224.5"/>
<text text-anchor="middle" x="256.5" y="-231.5" font-family="Helvetica,sans-Serif" font-size="10.00">include/IBM_EIS/authenticate.h</text>
</a>
</g>
</g>
<!-- Node2 -->
<g id="node2" class="node">
<title>Node2</title>
<g id="a_node2"><a xlink:title=" ">
<polygon fill="none" stroke="#bfbfbf" points="0,-56.5 0,-75.5 59,-75.5 59,-56.5 0,-56.5"/>
<text text-anchor="middle" x="29.5" y="-63.5" font-family="Helvetica,sans-Serif" font-size="10.00">curl/curl.h</text>
</a>
</g>
</g>
<!-- Node1&#45;&gt;Node2 -->
<g id="edge1" class="edge">
<title>Node1&#45;&gt;Node2</title>
<path fill="none" stroke="midnightblue" d="M222.01,-224.5C196.94,-217.29 162.91,-205.35 136.5,-188 93.71,-159.89 57.53,-110.33 40.3,-84.21"/>
<polygon fill="midnightblue" stroke="midnightblue" points="43.19,-82.24 34.83,-75.74 37.31,-86.04 43.19,-82.24"/>
</g>
<!-- Node3 -->
<g id="node3" class="node">
<title>Node3</title>
<g id="a_node3"><a xlink:title=" ">
<polygon fill="none" stroke="#bfbfbf" points="209,-56.5 209,-75.5 292,-75.5 292,-56.5 209,-56.5"/>
<text text-anchor="middle" x="250.5" y="-63.5" font-family="Helvetica,sans-Serif" font-size="10.00">cjson/cJSON.h</text>
</a>
</g>
</g>
<!-- Node1&#45;&gt;Node3 -->
<g id="edge2" class="edge">
<title>Node1&#45;&gt;Node3</title>
<path fill="none" stroke="midnightblue" d="M255.97,-224.36C254.93,-206.91 252.61,-166.22 251.5,-132 251,-116.47 250.75,-98.85 250.62,-85.87"/>
<polygon fill="midnightblue" stroke="midnightblue" points="254.12,-85.81 250.54,-75.83 247.12,-85.86 254.12,-85.81"/>
</g>
<!-- Node4 -->
<g id="node4" class="node">
<title>Node4</title>
<g id="a_node4"><a xlink:title=" ">
<polygon fill="none" stroke="#bfbfbf" points="597,-0.5 597,-19.5 640,-19.5 640,-0.5 597,-0.5"/>
<text text-anchor="middle" x="618.5" y="-7.5" font-family="Helvetica,sans-Serif" font-size="10.00">time.h</text>
</a>
</g>
</g>
<!-- Node1&#45;&gt;Node4 -->
<g id="edge3" class="edge">
<title>Node1&#45;&gt;Node4</title>
<path fill="none" stroke="midnightblue" d="M290.02,-224.39C353.87,-206.49 494.33,-159.83 581.5,-76 595.22,-62.8 605.36,-43.4 611.52,-29.23"/>
<polygon fill="midnightblue" stroke="midnightblue" points="614.92,-30.18 615.45,-19.6 608.43,-27.54 614.92,-30.18"/>
</g>
<!-- Node5 -->
<g id="node5" class="node">
<title>Node5</title>
<g id="a_node5"><a xlink:href="log_8h.html" target="_top" xlink:title=" ">
<polygon fill="none" stroke="black" points="535,-56.5 535,-75.5 572,-75.5 572,-56.5 535,-56.5"/>
<text text-anchor="middle" x="553.5" y="-63.5" font-family="Helvetica,sans-Serif" font-size="10.00">log.h</text>
</a>
</g>
</g>
<!-- Node1&#45;&gt;Node5 -->
<g id="edge4" class="edge">
<title>Node1&#45;&gt;Node5</title>
<path fill="none" stroke="midnightblue" d="M272.05,-224.31C320.67,-197.14 470.06,-113.64 529.11,-80.63"/>
<polygon fill="midnightblue" stroke="midnightblue" points="531.08,-83.54 538.1,-75.61 527.67,-77.43 531.08,-83.54"/>
</g>
<!-- Node9 -->
<g id="node9" class="node">
<title>Node9</title>
<g id="a_node9"><a xlink:href="http_8h.html" target="_top" xlink:title=" ">
<polygon fill="none" stroke="black" points="146,-168.5 146,-187.5 187,-187.5 187,-168.5 146,-168.5"/>
<text text-anchor="middle" x="166.5" y="-175.5" font-family="Helvetica,sans-Serif" font-size="10.00">http.h</text>
</a>
</g>
</g>
<!-- Node1&#45;&gt;Node9 -->
<g id="edge9" class="edge">
<title>Node1&#45;&gt;Node9</title>
<path fill="none" stroke="midnightblue" d="M242.04,-224.32C228,-215.9 206.45,-202.97 189.96,-193.07"/>
<polygon fill="midnightblue" stroke="midnightblue" points="191.3,-189.8 180.92,-187.65 187.7,-195.8 191.3,-189.8"/>
</g>
<!-- Node12 -->
<g id="node12" class="node">
<title>Node12</title>
<g id="a_node12"><a xlink:href="utils_8h.html" target="_top" xlink:title=" ">
<polygon fill="none" stroke="black" points="260.5,-112.5 260.5,-131.5 302.5,-131.5 302.5,-112.5 260.5,-112.5"/>
<text text-anchor="middle" x="281.5" y="-119.5" font-family="Helvetica,sans-Serif" font-size="10.00">utils.h</text>
</a>
</g>
</g>
<!-- Node1&#45;&gt;Node12 -->
<g id="edge22" class="edge">
<title>Node1&#45;&gt;Node12</title>
<path fill="none" stroke="midnightblue" d="M258.46,-224.37C262.5,-206.62 271.8,-165.67 277.27,-141.6"/>
<polygon fill="midnightblue" stroke="midnightblue" points="280.74,-142.12 279.55,-131.59 273.92,-140.57 280.74,-142.12"/>
</g>
<!-- Node5&#45;&gt;Node4 -->
<g id="edge8" class="edge">
<title>Node5&#45;&gt;Node4</title>
<path fill="none" stroke="midnightblue" d="M563.94,-56.32C573.65,-48.26 588.32,-36.08 600,-26.37"/>
<polygon fill="midnightblue" stroke="midnightblue" points="602.41,-28.92 607.87,-19.83 597.94,-23.53 602.41,-28.92"/>
</g>
<!-- Node6 -->
<g id="node6" class="node">
<title>Node6</title>
<g id="a_node6"><a xlink:title=" ">
<polygon fill="none" stroke="#bfbfbf" points="465,-0.5 465,-19.5 510,-19.5 510,-0.5 465,-0.5"/>
<text text-anchor="middle" x="487.5" y="-7.5" font-family="Helvetica,sans-Serif" font-size="10.00">stdio.h</text>
</a>
</g>
</g>
<!-- Node5&#45;&gt;Node6 -->
<g id="edge5" class="edge">
<title>Node5&#45;&gt;Node6</title>
<path fill="none" stroke="midnightblue" d="M542.9,-56.32C533.04,-48.26 518.15,-36.08 506.28,-26.37"/>
<polygon fill="midnightblue" stroke="midnightblue" points="508.25,-23.46 498.3,-19.83 503.82,-28.88 508.25,-23.46"/>
</g>
<!-- Node7 -->
<g id="node7" class="node">
<title>Node7</title>
<g id="a_node7"><a xlink:title=" ">
<polygon fill="none" stroke="#bfbfbf" points="528,-0.5 528,-19.5 579,-19.5 579,-0.5 528,-0.5"/>
<text text-anchor="middle" x="553.5" y="-7.5" font-family="Helvetica,sans-Serif" font-size="10.00">stdarg.h</text>
</a>
</g>
</g>
<!-- Node5&#45;&gt;Node7 -->
<g id="edge6" class="edge">
<title>Node5&#45;&gt;Node7</title>
<path fill="none" stroke="midnightblue" d="M553.5,-56.08C553.5,-49.01 553.5,-38.86 553.5,-29.99"/>
<polygon fill="midnightblue" stroke="midnightblue" points="557,-29.75 553.5,-19.75 550,-29.75 557,-29.75"/>
</g>
<!-- Node8 -->
<g id="node8" class="node">
<title>Node8</title>
<g id="a_node8"><a xlink:title=" ">
<polygon fill="none" stroke="#bfbfbf" points="390.5,-0.5 390.5,-19.5 446.5,-19.5 446.5,-0.5 390.5,-0.5"/>
<text text-anchor="middle" x="418.5" y="-7.5" font-family="Helvetica,sans-Serif" font-size="10.00">stdbool.h</text>
</a>
</g>
</g>
<!-- Node5&#45;&gt;Node8 -->
<g id="edge7" class="edge">
<title>Node5&#45;&gt;Node8</title>
<path fill="none" stroke="midnightblue" d="M534.73,-57.49C512.63,-48.65 475.61,-33.84 449.29,-23.32"/>
<polygon fill="midnightblue" stroke="midnightblue" points="450.36,-19.98 439.78,-19.51 447.76,-26.48 450.36,-19.98"/>
</g>
<!-- Node9&#45;&gt;Node2 -->
<g id="edge12" class="edge">
<title>Node9&#45;&gt;Node2</title>
<path fill="none" stroke="midnightblue" d="M155.75,-168.37C132.54,-149.73 77.49,-105.53 48.35,-82.13"/>
<polygon fill="midnightblue" stroke="midnightblue" points="50.19,-79.12 40.2,-75.59 45.81,-84.58 50.19,-79.12"/>
</g>
<!-- Node10 -->
<g id="node10" class="node">
<title>Node10</title>
<g id="a_node10"><a xlink:title=" ">
<polygon fill="none" stroke="#bfbfbf" points="77,-56.5 77,-75.5 124,-75.5 124,-56.5 77,-56.5"/>
<text text-anchor="middle" x="100.5" y="-63.5" font-family="Helvetica,sans-Serif" font-size="10.00">stdlib.h</text>
</a>
</g>
</g>
<!-- Node9&#45;&gt;Node10 -->
<g id="edge10" class="edge">
<title>Node9&#45;&gt;Node10</title>
<path fill="none" stroke="midnightblue" d="M161.32,-168.37C150.48,-150.3 125.21,-108.18 110.88,-84.31"/>
<polygon fill="midnightblue" stroke="midnightblue" points="113.8,-82.37 105.65,-75.59 107.8,-85.97 113.8,-82.37"/>
</g>
<!-- Node11 -->
<g id="node11" class="node">
<title>Node11</title>
<g id="a_node11"><a xlink:title=" ">
<polygon fill="none" stroke="#bfbfbf" points="142.5,-56.5 142.5,-75.5 190.5,-75.5 190.5,-56.5 142.5,-56.5"/>
<text text-anchor="middle" x="166.5" y="-63.5" font-family="Helvetica,sans-Serif" font-size="10.00">string.h</text>
</a>
</g>
</g>
<!-- Node9&#45;&gt;Node11 -->
<g id="edge11" class="edge">
<title>Node9&#45;&gt;Node11</title>
<path fill="none" stroke="midnightblue" d="M166.5,-168.37C166.5,-150.62 166.5,-109.67 166.5,-85.6"/>
<polygon fill="midnightblue" stroke="midnightblue" points="170,-85.59 166.5,-75.59 163,-85.59 170,-85.59"/>
</g>
<!-- Node9&#45;&gt;Node12 -->
<g id="edge13" class="edge">
<title>Node9&#45;&gt;Node12</title>
<path fill="none" stroke="midnightblue" d="M184.72,-168.44C203.4,-159.68 232.66,-145.94 254.12,-135.86"/>
<polygon fill="midnightblue" stroke="midnightblue" points="255.8,-138.93 263.36,-131.52 252.82,-132.6 255.8,-138.93"/>
</g>
<!-- Node12&#45;&gt;Node2 -->
<g id="edge16" class="edge">
<title>Node12&#45;&gt;Node2</title>
<path fill="none" stroke="midnightblue" d="M260.2,-116.71C223.33,-109.24 145.01,-93.19 69.5,-76.41"/>
<polygon fill="midnightblue" stroke="midnightblue" points="69.88,-72.91 59.35,-74.15 68.35,-79.74 69.88,-72.91"/>
</g>
<!-- Node12&#45;&gt;Node3 -->
<g id="edge17" class="edge">
<title>Node12&#45;&gt;Node3</title>
<path fill="none" stroke="midnightblue" d="M276.38,-112.08C272.09,-104.61 265.84,-93.72 260.56,-84.52"/>
<polygon fill="midnightblue" stroke="midnightblue" points="263.54,-82.68 255.52,-75.75 257.47,-86.17 263.54,-82.68"/>
</g>
<!-- Node12&#45;&gt;Node5 -->
<g id="edge21" class="edge">
<title>Node12&#45;&gt;Node5</title>
<path fill="none" stroke="midnightblue" d="M302.58,-118.05C343.57,-112.11 436.97,-97.61 525.04,-75.82"/>
<polygon fill="midnightblue" stroke="midnightblue" points="526.07,-79.17 534.92,-73.34 524.37,-72.38 526.07,-79.17"/>
</g>
<!-- Node12&#45;&gt;Node10 -->
<g id="edge14" class="edge">
<title>Node12&#45;&gt;Node10</title>
<path fill="none" stroke="midnightblue" d="M260.38,-114.7C229.27,-105.42 170.82,-87.98 133.86,-76.95"/>
<polygon fill="midnightblue" stroke="midnightblue" points="134.64,-73.53 124.05,-74.03 132.64,-80.24 134.64,-73.53"/>
</g>
<!-- Node12&#45;&gt;Node11 -->
<g id="edge15" class="edge">
<title>Node12&#45;&gt;Node11</title>
<path fill="none" stroke="midnightblue" d="M263.28,-112.44C244.6,-103.68 215.34,-89.94 193.88,-79.86"/>
<polygon fill="midnightblue" stroke="midnightblue" points="195.18,-76.6 184.64,-75.52 192.2,-82.93 195.18,-76.6"/>
</g>
<!-- Node13 -->
<g id="node13" class="node">
<title>Node13</title>
<g id="a_node13"><a xlink:title=" ">
<polygon fill="none" stroke="#bfbfbf" points="310,-56.5 310,-75.5 369,-75.5 369,-56.5 310,-56.5"/>
<text text-anchor="middle" x="339.5" y="-63.5" font-family="Helvetica,sans-Serif" font-size="10.00">sys/stat.h</text>
</a>
</g>
</g>
<!-- Node12&#45;&gt;Node13 -->
<g id="edge18" class="edge">
<title>Node12&#45;&gt;Node13</title>
<path fill="none" stroke="midnightblue" d="M290.82,-112.32C299.39,-104.34 312.31,-92.31 322.69,-82.65"/>
<polygon fill="midnightblue" stroke="midnightblue" points="325.08,-85.21 330.01,-75.83 320.31,-80.09 325.08,-85.21"/>
</g>
<!-- Node14 -->
<g id="node14" class="node">
<title>Node14</title>
<g id="a_node14"><a xlink:title=" ">
<polygon fill="none" stroke="#bfbfbf" points="387,-56.5 387,-75.5 452,-75.5 452,-56.5 387,-56.5"/>
<text text-anchor="middle" x="419.5" y="-63.5" font-family="Helvetica,sans-Serif" font-size="10.00">sys/types.h</text>
</a>
</g>
</g>
<!-- Node12&#45;&gt;Node14 -->
<g id="edge19" class="edge">
<title>Node12&#45;&gt;Node14</title>
<path fill="none" stroke="midnightblue" d="M302.76,-112.68C325.55,-103.76 361.98,-89.51 388.08,-79.29"/>
<polygon fill="midnightblue" stroke="midnightblue" points="389.49,-82.5 397.53,-75.6 386.94,-75.98 389.49,-82.5"/>
</g>
<!-- Node15 -->
<g id="node15" class="node">
<title>Node15</title>
<g id="a_node15"><a xlink:title=" ">
<polygon fill="none" stroke="#bfbfbf" points="470.5,-56.5 470.5,-75.5 516.5,-75.5 516.5,-56.5 470.5,-56.5"/>
<text text-anchor="middle" x="493.5" y="-63.5" font-family="Helvetica,sans-Serif" font-size="10.00">errno.h</text>
</a>
</g>
</g>
<!-- Node12&#45;&gt;Node15 -->
<g id="edge20" class="edge">
<title>Node12&#45;&gt;Node15</title>
<path fill="none" stroke="midnightblue" d="M302.61,-115.93C334.65,-108.2 397.66,-92.81 460.74,-76.15"/>
<polygon fill="midnightblue" stroke="midnightblue" points="461.68,-79.52 470.45,-73.57 459.89,-72.75 461.68,-79.52"/>
</g>
</g>
</svg>
