<?xml version="1.0" encoding="UTF-8" standalone="no"?>
<!DOCTYPE svg PUBLIC "-//W3C//DTD SVG 1.1//EN"
 "http://www.w3.org/Graphics/SVG/1.1/DTD/svg11.dtd">
<!-- Generated by graphviz version 2.49.3 (20211027.1534)
 -->
<!-- Title: src/IBM_EIS/authenticate.c Pages: 1 -->
<svg width="525pt" height="196pt"
 viewBox="0.00 0.00 525.00 196.00" xmlns="http://www.w3.org/2000/svg" xmlns:xlink="http://www.w3.org/1999/xlink">
<g id="graph0" class="graph" transform="scale(1 1) rotate(0) translate(4 192)">
<title>src/IBM_EIS/authenticate.c</title>
<!-- Node1 -->
<g id="node1" class="node">
<title>Node1</title>
<g id="a_node1"><a xlink:title=" ">
<polygon fill="#bfbfbf" stroke="black" points="50.5,-168.5 50.5,-187.5 186.5,-187.5 186.5,-168.5 50.5,-168.5"/>
<text text-anchor="middle" x="118.5" y="-175.5" font-family="Helvetica,sans-Serif" font-size="10.00">src/IBM_EIS/authenticate.c</text>
</a>
</g>
</g>
<!-- Node2 -->
<g id="node2" class="node">
<title>Node2</title>
<g id="a_node2"><a xlink:href="_i_b_m___e_i_s_2authenticate_8h.html" target="_top" xlink:title=" ">
<polygon fill="none" stroke="black" points="59,-112.5 59,-131.5 178,-131.5 178,-112.5 59,-112.5"/>
<text text-anchor="middle" x="118.5" y="-119.5" font-family="Helvetica,sans-Serif" font-size="10.00">IBM_EIS/authenticate.h</text>
</a>
</g>
</g>
<!-- Node1&#45;&gt;Node2 -->
<g id="edge1" class="edge">
<title>Node1&#45;&gt;Node2</title>
<path fill="none" stroke="midnightblue" d="M118.5,-168.08C118.5,-161.01 118.5,-150.86 118.5,-141.99"/>
<polygon fill="midnightblue" stroke="midnightblue" points="122,-141.75 118.5,-131.75 115,-141.75 122,-141.75"/>
</g>
<!-- Node3 -->
<g id="node3" class="node">
<title>Node3</title>
<g id="a_node3"><a xlink:title=" ">
<polygon fill="none" stroke="#bfbfbf" points="0,-0.5 0,-19.5 59,-19.5 59,-0.5 0,-0.5"/>
<text text-anchor="middle" x="29.5" y="-7.5" font-family="Helvetica,sans-Serif" font-size="10.00">curl/curl.h</text>
</a>
</g>
</g>
<!-- Node2&#45;&gt;Node3 -->
<g id="edge2" class="edge">
<title>Node2&#45;&gt;Node3</title>
<path fill="none" stroke="midnightblue" d="M111.52,-112.37C96.76,-94.14 62.21,-51.43 42.99,-27.68"/>
<polygon fill="midnightblue" stroke="midnightblue" points="45.46,-25.16 36.45,-19.59 40.02,-29.57 45.46,-25.16"/>
</g>
<!-- Node4 -->
<g id="node4" class="node">
<title>Node4</title>
<g id="a_node4"><a xlink:title=" ">
<polygon fill="none" stroke="#bfbfbf" points="77,-0.5 77,-19.5 160,-19.5 160,-0.5 77,-0.5"/>
<text text-anchor="middle" x="118.5" y="-7.5" font-family="Helvetica,sans-Serif" font-size="10.00">cjson/cJSON.h</text>
</a>
</g>
</g>
<!-- Node2&#45;&gt;Node4 -->
<g id="edge3" class="edge">
<title>Node2&#45;&gt;Node4</title>
<path fill="none" stroke="midnightblue" d="M118.5,-112.37C118.5,-94.62 118.5,-53.67 118.5,-29.6"/>
<polygon fill="midnightblue" stroke="midnightblue" points="122,-29.59 118.5,-19.59 115,-29.59 122,-29.59"/>
</g>
<!-- Node5 -->
<g id="node5" class="node">
<title>Node5</title>
<g id="a_node5"><a xlink:href="utils_8h.html" target="_top" xlink:title=" ">
<polygon fill="none" stroke="black" points="217.5,-56.5 217.5,-75.5 259.5,-75.5 259.5,-56.5 217.5,-56.5"/>
<text text-anchor="middle" x="238.5" y="-63.5" font-family="Helvetica,sans-Serif" font-size="10.00">utils.h</text>
</a>
</g>
</g>
<!-- Node2&#45;&gt;Node5 -->
<g id="edge4" class="edge">
<title>Node2&#45;&gt;Node5</title>
<path fill="none" stroke="midnightblue" d="M137.51,-112.44C157.09,-103.64 187.81,-89.81 210.23,-79.72"/>
<polygon fill="midnightblue" stroke="midnightblue" points="211.89,-82.81 219.57,-75.52 209.02,-76.43 211.89,-82.81"/>
</g>
<!-- Node5&#45;&gt;Node3 -->
<g id="edge7" class="edge">
<title>Node5&#45;&gt;Node3</title>
<path fill="none" stroke="midnightblue" d="M217.31,-59.53C182.55,-50.54 112.91,-32.55 68.89,-21.18"/>
<polygon fill="midnightblue" stroke="midnightblue" points="69.65,-17.76 59.1,-18.65 67.9,-24.54 69.65,-17.76"/>
</g>
<!-- Node5&#45;&gt;Node4 -->
<g id="edge8" class="edge">
<title>Node5&#45;&gt;Node4</title>
<path fill="none" stroke="midnightblue" d="M219.49,-56.44C199.91,-47.64 169.19,-33.81 146.77,-23.72"/>
<polygon fill="midnightblue" stroke="midnightblue" points="147.98,-20.43 137.43,-19.52 145.11,-26.81 147.98,-20.43"/>
</g>
<!-- Node6 -->
<g id="node6" class="node">
<title>Node6</title>
<g id="a_node6"><a xlink:title=" ">
<polygon fill="none" stroke="#bfbfbf" points="470,-0.5 470,-19.5 517,-19.5 517,-0.5 470,-0.5"/>
<text text-anchor="middle" x="493.5" y="-7.5" font-family="Helvetica,sans-Serif" font-size="10.00">stdlib.h</text>
</a>
</g>
</g>
<!-- Node5&#45;&gt;Node6 -->
<g id="edge5" class="edge">
<title>Node5&#45;&gt;Node6</title>
<path fill="none" stroke="midnightblue" d="M259.72,-61.18C297.73,-54.24 380.1,-38.74 459.58,-20.09"/>
<polygon fill="midnightblue" stroke="midnightblue" points="460.83,-23.39 469.76,-17.68 459.22,-16.58 460.83,-23.39"/>
</g>
<!-- Node7 -->
<g id="node7" class="node">
<title>Node7</title>
<g id="a_node7"><a xlink:title=" ">
<polygon fill="none" stroke="#bfbfbf" points="178.5,-0.5 178.5,-19.5 226.5,-19.5 226.5,-0.5 178.5,-0.5"/>
<text text-anchor="middle" x="202.5" y="-7.5" font-family="Helvetica,sans-Serif" font-size="10.00">string.h</text>
</a>
</g>
</g>
<!-- Node5&#45;&gt;Node7 -->
<g id="edge6" class="edge">
<title>Node5&#45;&gt;Node7</title>
<path fill="none" stroke="midnightblue" d="M232.56,-56.08C227.52,-48.53 220.16,-37.49 213.99,-28.23"/>
<polygon fill="midnightblue" stroke="midnightblue" points="216.79,-26.13 208.33,-19.75 210.97,-30.01 216.79,-26.13"/>
</g>
<!-- Node8 -->
<g id="node8" class="node">
<title>Node8</title>
<g id="a_node8"><a xlink:title=" ">
<polygon fill="none" stroke="#bfbfbf" points="245,-0.5 245,-19.5 304,-19.5 304,-0.5 245,-0.5"/>
<text text-anchor="middle" x="274.5" y="-7.5" font-family="Helvetica,sans-Serif" font-size="10.00">sys/stat.h</text>
</a>
</g>
</g>
<!-- Node5&#45;&gt;Node8 -->
<g id="edge9" class="edge">
<title>Node5&#45;&gt;Node8</title>
<path fill="none" stroke="midnightblue" d="M244.44,-56.08C249.48,-48.53 256.84,-37.49 263.01,-28.23"/>
<polygon fill="midnightblue" stroke="midnightblue" points="266.03,-30.01 268.67,-19.75 260.21,-26.13 266.03,-30.01"/>
</g>
<!-- Node9 -->
<g id="node9" class="node">
<title>Node9</title>
<g id="a_node9"><a xlink:title=" ">
<polygon fill="none" stroke="#bfbfbf" points="322,-0.5 322,-19.5 387,-19.5 387,-0.5 322,-0.5"/>
<text text-anchor="middle" x="354.5" y="-7.5" font-family="Helvetica,sans-Serif" font-size="10.00">sys/types.h</text>
</a>
</g>
</g>
<!-- Node5&#45;&gt;Node9 -->
<g id="edge10" class="edge">
<title>Node5&#45;&gt;Node9</title>
<path fill="none" stroke="midnightblue" d="M256.88,-56.44C275.72,-47.68 305.23,-33.94 326.88,-23.86"/>
<polygon fill="midnightblue" stroke="midnightblue" points="328.62,-26.91 336.21,-19.52 325.66,-20.56 328.62,-26.91"/>
</g>
<!-- Node10 -->
<g id="node10" class="node">
<title>Node10</title>
<g id="a_node10"><a xlink:title=" ">
<polygon fill="none" stroke="#bfbfbf" points="405.5,-0.5 405.5,-19.5 451.5,-19.5 451.5,-0.5 405.5,-0.5"/>
<text text-anchor="middle" x="428.5" y="-7.5" font-family="Helvetica,sans-Serif" font-size="10.00">errno.h</text>
</a>
</g>
</g>
<!-- Node5&#45;&gt;Node10 -->
<g id="edge11" class="edge">
<title>Node5&#45;&gt;Node10</title>
<path fill="none" stroke="midnightblue" d="M259.56,-59.01C292.46,-49.66 356.34,-31.51 395.43,-20.4"/>
<polygon fill="midnightblue" stroke="midnightblue" points="396.61,-23.7 405.28,-17.6 394.7,-16.97 396.61,-23.7"/>
</g>
</g>
</svg>
