<?xml version="1.0" encoding="UTF-8" standalone="no"?>
<!DOCTYPE svg PUBLIC "-//W3C//DTD SVG 1.1//EN"
 "http://www.w3.org/Graphics/SVG/1.1/DTD/svg11.dtd">
<!-- Generated by graphviz version 2.49.3 (20211027.1534)
 -->
<!-- Title: src/IBM_EIS/authenticate.c Pages: 1 -->
<svg width="778pt" height="308pt"
 viewBox="0.00 0.00 778.00 308.00" xmlns="http://www.w3.org/2000/svg" xmlns:xlink="http://www.w3.org/1999/xlink">
<g id="graph0" class="graph" transform="scale(1 1) rotate(0) translate(4 304)">
<title>src/IBM_EIS/authenticate.c</title>
<!-- Node1 -->
<g id="node1" class="node">
<title>Node1</title>
<g id="a_node1"><a xlink:title=" ">
<polygon fill="#bfbfbf" stroke="black" points="216.5,-280.5 216.5,-299.5 352.5,-299.5 352.5,-280.5 216.5,-280.5"/>
<text text-anchor="middle" x="284.5" y="-287.5" font-family="Helvetica,sans-Serif" font-size="10.00">src/IBM_EIS/authenticate.c</text>
</a>
</g>
</g>
<!-- Node2 -->
<g id="node2" class="node">
<title>Node2</title>
<g id="a_node2"><a xlink:href="_i_b_m___e_i_s_2authenticate_8h.html" target="_top" xlink:title=" ">
<polygon fill="none" stroke="black" points="225,-224.5 225,-243.5 344,-243.5 344,-224.5 225,-224.5"/>
<text text-anchor="middle" x="284.5" y="-231.5" font-family="Helvetica,sans-Serif" font-size="10.00">IBM_EIS/authenticate.h</text>
</a>
</g>
</g>
<!-- Node1&#45;&gt;Node2 -->
<g id="edge1" class="edge">
<title>Node1&#45;&gt;Node2</title>
<path fill="none" stroke="midnightblue" d="M284.5,-280.08C284.5,-273.01 284.5,-262.86 284.5,-253.99"/>
<polygon fill="midnightblue" stroke="midnightblue" points="288,-253.75 284.5,-243.75 281,-253.75 288,-253.75"/>
</g>
<!-- Node3 -->
<g id="node3" class="node">
<title>Node3</title>
<g id="a_node3"><a xlink:title=" ">
<polygon fill="none" stroke="#bfbfbf" points="0,-56.5 0,-75.5 59,-75.5 59,-56.5 0,-56.5"/>
<text text-anchor="middle" x="29.5" y="-63.5" font-family="Helvetica,sans-Serif" font-size="10.00">curl/curl.h</text>
</a>
</g>
</g>
<!-- Node2&#45;&gt;Node3 -->
<g id="edge2" class="edge">
<title>Node2&#45;&gt;Node3</title>
<path fill="none" stroke="midnightblue" d="M234.56,-224.43C204.56,-217.72 166.5,-206.37 136.5,-188 92.62,-161.14 56.68,-110.63 39.83,-84.17"/>
<polygon fill="midnightblue" stroke="midnightblue" points="42.76,-82.24 34.51,-75.59 36.81,-85.93 42.76,-82.24"/>
</g>
<!-- Node4 -->
<g id="node4" class="node">
<title>Node4</title>
<g id="a_node4"><a xlink:title=" ">
<polygon fill="none" stroke="#bfbfbf" points="209,-56.5 209,-75.5 292,-75.5 292,-56.5 209,-56.5"/>
<text text-anchor="middle" x="250.5" y="-63.5" font-family="Helvetica,sans-Serif" font-size="10.00">cjson/cJSON.h</text>
</a>
</g>
</g>
<!-- Node2&#45;&gt;Node4 -->
<g id="edge3" class="edge">
<title>Node2&#45;&gt;Node4</title>
<path fill="none" stroke="midnightblue" d="M282.67,-224.08C277.32,-197.95 261.6,-121.21 254.3,-85.58"/>
<polygon fill="midnightblue" stroke="midnightblue" points="257.69,-84.66 252.25,-75.57 250.83,-86.07 257.69,-84.66"/>
</g>
<!-- Node5 -->
<g id="node5" class="node">
<title>Node5</title>
<g id="a_node5"><a xlink:title=" ">
<polygon fill="none" stroke="#bfbfbf" points="727,-0.5 727,-19.5 770,-19.5 770,-0.5 727,-0.5"/>
<text text-anchor="middle" x="748.5" y="-7.5" font-family="Helvetica,sans-Serif" font-size="10.00">time.h</text>
</a>
</g>
</g>
<!-- Node2&#45;&gt;Node5 -->
<g id="edge4" class="edge">
<title>Node2&#45;&gt;Node5</title>
<path fill="none" stroke="midnightblue" d="M344.04,-224.76C433.33,-209.66 603,-169.99 711.5,-76 726.03,-63.41 736.13,-43.64 742.06,-29.21"/>
<polygon fill="midnightblue" stroke="midnightblue" points="745.35,-30.41 745.65,-19.82 738.81,-27.91 745.35,-30.41"/>
</g>
<!-- Node6 -->
<g id="node6" class="node">
<title>Node6</title>
<g id="a_node6"><a xlink:href="log_8h.html" target="_top" xlink:title=" ">
<polygon fill="none" stroke="black" points="665,-56.5 665,-75.5 702,-75.5 702,-56.5 665,-56.5"/>
<text text-anchor="middle" x="683.5" y="-63.5" font-family="Helvetica,sans-Serif" font-size="10.00">log.h</text>
</a>
</g>
</g>
<!-- Node2&#45;&gt;Node6 -->
<g id="edge5" class="edge">
<title>Node2&#45;&gt;Node6</title>
<path fill="none" stroke="midnightblue" d="M305.11,-224.42C371.39,-196.85 579.15,-110.41 655.23,-78.76"/>
<polygon fill="midnightblue" stroke="midnightblue" points="656.76,-81.91 664.65,-74.84 654.07,-75.45 656.76,-81.91"/>
</g>
<!-- Node10 -->
<g id="node10" class="node">
<title>Node10</title>
<g id="a_node10"><a xlink:href="http_8h.html" target="_top" xlink:title=" ">
<polygon fill="none" stroke="black" points="146,-168.5 146,-187.5 187,-187.5 187,-168.5 146,-168.5"/>
<text text-anchor="middle" x="166.5" y="-175.5" font-family="Helvetica,sans-Serif" font-size="10.00">http.h</text>
</a>
</g>
</g>
<!-- Node2&#45;&gt;Node10 -->
<g id="edge10" class="edge">
<title>Node2&#45;&gt;Node10</title>
<path fill="none" stroke="midnightblue" d="M265.8,-224.44C246.56,-215.64 216.35,-201.81 194.3,-191.72"/>
<polygon fill="midnightblue" stroke="midnightblue" points="195.66,-188.5 185.11,-187.52 192.75,-194.86 195.66,-188.5"/>
</g>
<!-- Node13 -->
<g id="node13" class="node">
<title>Node13</title>
<g id="a_node13"><a xlink:href="utils_8h.html" target="_top" xlink:title=" ">
<polygon fill="none" stroke="black" points="308.5,-112.5 308.5,-131.5 350.5,-131.5 350.5,-112.5 308.5,-112.5"/>
<text text-anchor="middle" x="329.5" y="-119.5" font-family="Helvetica,sans-Serif" font-size="10.00">utils.h</text>
</a>
</g>
</g>
<!-- Node2&#45;&gt;Node13 -->
<g id="edge25" class="edge">
<title>Node2&#45;&gt;Node13</title>
<path fill="none" stroke="midnightblue" d="M288.03,-224.37C295.36,-206.46 312.35,-164.92 322.16,-140.95"/>
<polygon fill="midnightblue" stroke="midnightblue" points="325.44,-142.17 325.99,-131.59 318.96,-139.52 325.44,-142.17"/>
</g>
<!-- Node6&#45;&gt;Node5 -->
<g id="edge9" class="edge">
<title>Node6&#45;&gt;Node5</title>
<path fill="none" stroke="midnightblue" d="M693.94,-56.32C703.65,-48.26 718.32,-36.08 730,-26.37"/>
<polygon fill="midnightblue" stroke="midnightblue" points="732.41,-28.92 737.87,-19.83 727.94,-23.53 732.41,-28.92"/>
</g>
<!-- Node7 -->
<g id="node7" class="node">
<title>Node7</title>
<g id="a_node7"><a xlink:title=" ">
<polygon fill="none" stroke="#bfbfbf" points="595,-0.5 595,-19.5 640,-19.5 640,-0.5 595,-0.5"/>
<text text-anchor="middle" x="617.5" y="-7.5" font-family="Helvetica,sans-Serif" font-size="10.00">stdio.h</text>
</a>
</g>
</g>
<!-- Node6&#45;&gt;Node7 -->
<g id="edge6" class="edge">
<title>Node6&#45;&gt;Node7</title>
<path fill="none" stroke="midnightblue" d="M672.9,-56.32C663.04,-48.26 648.15,-36.08 636.28,-26.37"/>
<polygon fill="midnightblue" stroke="midnightblue" points="638.25,-23.46 628.3,-19.83 633.82,-28.88 638.25,-23.46"/>
</g>
<!-- Node8 -->
<g id="node8" class="node">
<title>Node8</title>
<g id="a_node8"><a xlink:title=" ">
<polygon fill="none" stroke="#bfbfbf" points="658,-0.5 658,-19.5 709,-19.5 709,-0.5 658,-0.5"/>
<text text-anchor="middle" x="683.5" y="-7.5" font-family="Helvetica,sans-Serif" font-size="10.00">stdarg.h</text>
</a>
</g>
</g>
<!-- Node6&#45;&gt;Node8 -->
<g id="edge7" class="edge">
<title>Node6&#45;&gt;Node8</title>
<path fill="none" stroke="midnightblue" d="M683.5,-56.08C683.5,-49.01 683.5,-38.86 683.5,-29.99"/>
<polygon fill="midnightblue" stroke="midnightblue" points="687,-29.75 683.5,-19.75 680,-29.75 687,-29.75"/>
</g>
<!-- Node9 -->
<g id="node9" class="node">
<title>Node9</title>
<g id="a_node9"><a xlink:title=" ">
<polygon fill="none" stroke="#bfbfbf" points="520.5,-0.5 520.5,-19.5 576.5,-19.5 576.5,-0.5 520.5,-0.5"/>
<text text-anchor="middle" x="548.5" y="-7.5" font-family="Helvetica,sans-Serif" font-size="10.00">stdbool.h</text>
</a>
</g>
</g>
<!-- Node6&#45;&gt;Node9 -->
<g id="edge8" class="edge">
<title>Node6&#45;&gt;Node9</title>
<path fill="none" stroke="midnightblue" d="M664.73,-57.49C642.63,-48.65 605.61,-33.84 579.29,-23.32"/>
<polygon fill="midnightblue" stroke="midnightblue" points="580.36,-19.98 569.78,-19.51 577.76,-26.48 580.36,-19.98"/>
</g>
<!-- Node10&#45;&gt;Node3 -->
<g id="edge13" class="edge">
<title>Node10&#45;&gt;Node3</title>
<path fill="none" stroke="midnightblue" d="M155.75,-168.37C132.54,-149.73 77.49,-105.53 48.35,-82.13"/>
<polygon fill="midnightblue" stroke="midnightblue" points="50.19,-79.12 40.2,-75.59 45.81,-84.58 50.19,-79.12"/>
</g>
<!-- Node11 -->
<g id="node11" class="node">
<title>Node11</title>
<g id="a_node11"><a xlink:title=" ">
<polygon fill="none" stroke="#bfbfbf" points="77,-56.5 77,-75.5 124,-75.5 124,-56.5 77,-56.5"/>
<text text-anchor="middle" x="100.5" y="-63.5" font-family="Helvetica,sans-Serif" font-size="10.00">stdlib.h</text>
</a>
</g>
</g>
<!-- Node10&#45;&gt;Node11 -->
<g id="edge11" class="edge">
<title>Node10&#45;&gt;Node11</title>
<path fill="none" stroke="midnightblue" d="M161.32,-168.37C150.48,-150.3 125.21,-108.18 110.88,-84.31"/>
<polygon fill="midnightblue" stroke="midnightblue" points="113.8,-82.37 105.65,-75.59 107.8,-85.97 113.8,-82.37"/>
</g>
<!-- Node12 -->
<g id="node12" class="node">
<title>Node12</title>
<g id="a_node12"><a xlink:title=" ">
<polygon fill="none" stroke="#bfbfbf" points="142.5,-56.5 142.5,-75.5 190.5,-75.5 190.5,-56.5 142.5,-56.5"/>
<text text-anchor="middle" x="166.5" y="-63.5" font-family="Helvetica,sans-Serif" font-size="10.00">string.h</text>
</a>
</g>
</g>
<!-- Node10&#45;&gt;Node12 -->
<g id="edge12" class="edge">
<title>Node10&#45;&gt;Node12</title>
<path fill="none" stroke="midnightblue" d="M166.5,-168.37C166.5,-150.62 166.5,-109.67 166.5,-85.6"/>
<polygon fill="midnightblue" stroke="midnightblue" points="170,-85.59 166.5,-75.59 163,-85.59 170,-85.59"/>
</g>
<!-- Node10&#45;&gt;Node13 -->
<g id="edge14" class="edge">
<title>Node10&#45;&gt;Node13</title>
<path fill="none" stroke="midnightblue" d="M187.14,-170.16C215.33,-160.82 266.06,-144.02 298.73,-133.19"/>
<polygon fill="midnightblue" stroke="midnightblue" points="299.86,-136.51 308.25,-130.04 297.66,-129.86 299.86,-136.51"/>
</g>
<!-- Node13&#45;&gt;Node3 -->
<g id="edge17" class="edge">
<title>Node13&#45;&gt;Node3</title>
<path fill="none" stroke="midnightblue" d="M308.36,-117.83C265.24,-111.26 163.83,-95.32 69.34,-76.28"/>
<polygon fill="midnightblue" stroke="midnightblue" points="69.83,-72.81 59.33,-74.25 68.43,-79.67 69.83,-72.81"/>
</g>
<!-- Node13&#45;&gt;Node4 -->
<g id="edge19" class="edge">
<title>Node13&#45;&gt;Node4</title>
<path fill="none" stroke="midnightblue" d="M316.81,-112.32C304.6,-103.98 285.92,-91.21 271.5,-81.35"/>
<polygon fill="midnightblue" stroke="midnightblue" points="273.39,-78.41 263.16,-75.65 269.44,-84.19 273.39,-78.41"/>
</g>
<!-- Node13&#45;&gt;Node6 -->
<g id="edge24" class="edge">
<title>Node13&#45;&gt;Node6</title>
<path fill="none" stroke="midnightblue" d="M350.71,-119.36C401.57,-115.15 534.6,-102.55 654.84,-75.75"/>
<polygon fill="midnightblue" stroke="midnightblue" points="655.97,-79.09 664.95,-73.46 654.42,-72.26 655.97,-79.09"/>
</g>
<!-- Node13&#45;&gt;Node11 -->
<g id="edge15" class="edge">
<title>Node13&#45;&gt;Node11</title>
<path fill="none" stroke="midnightblue" d="M308.26,-116.42C273.84,-108.93 203.52,-93.38 134.05,-76.06"/>
<polygon fill="midnightblue" stroke="midnightblue" points="134.81,-72.64 124.26,-73.6 133.11,-79.43 134.81,-72.64"/>
</g>
<!-- Node13&#45;&gt;Node12 -->
<g id="edge16" class="edge">
<title>Node13&#45;&gt;Node12</title>
<path fill="none" stroke="midnightblue" d="M308.19,-113.94C280.74,-104.85 232.71,-88.93 200.26,-78.19"/>
<polygon fill="midnightblue" stroke="midnightblue" points="201.33,-74.85 190.73,-75.03 199.13,-81.5 201.33,-74.85"/>
</g>
<!-- Node14 -->
<g id="node14" class="node">
<title>Node14</title>
<g id="a_node14"><a xlink:title=" ">
<polygon fill="none" stroke="#bfbfbf" points="598.5,-56.5 598.5,-75.5 646.5,-75.5 646.5,-56.5 598.5,-56.5"/>
<text text-anchor="middle" x="622.5" y="-63.5" font-family="Helvetica,sans-Serif" font-size="10.00">stdint.h</text>
</a>
</g>
</g>
<!-- Node13&#45;&gt;Node14 -->
<g id="edge18" class="edge">
<title>Node13&#45;&gt;Node14</title>
<path fill="none" stroke="midnightblue" d="M350.53,-118.05C393.41,-111.9 494.2,-96.68 588.44,-76.06"/>
<polygon fill="midnightblue" stroke="midnightblue" points="589.41,-79.43 598.42,-73.85 587.89,-72.6 589.41,-79.43"/>
</g>
<!-- Node15 -->
<g id="node15" class="node">
<title>Node15</title>
<g id="a_node15"><a xlink:title=" ">
<polygon fill="none" stroke="#bfbfbf" points="310,-56.5 310,-75.5 369,-75.5 369,-56.5 310,-56.5"/>
<text text-anchor="middle" x="339.5" y="-63.5" font-family="Helvetica,sans-Serif" font-size="10.00">sys/stat.h</text>
</a>
</g>
</g>
<!-- Node13&#45;&gt;Node15 -->
<g id="edge20" class="edge">
<title>Node13&#45;&gt;Node15</title>
<path fill="none" stroke="midnightblue" d="M331.15,-112.08C332.48,-104.93 334.38,-94.64 336.04,-85.69"/>
<polygon fill="midnightblue" stroke="midnightblue" points="339.5,-86.22 337.88,-75.75 332.62,-84.95 339.5,-86.22"/>
</g>
<!-- Node16 -->
<g id="node16" class="node">
<title>Node16</title>
<g id="a_node16"><a xlink:title=" ">
<polygon fill="none" stroke="#bfbfbf" points="387,-56.5 387,-75.5 452,-75.5 452,-56.5 387,-56.5"/>
<text text-anchor="middle" x="419.5" y="-63.5" font-family="Helvetica,sans-Serif" font-size="10.00">sys/types.h</text>
</a>
</g>
</g>
<!-- Node13&#45;&gt;Node16 -->
<g id="edge21" class="edge">
<title>Node13&#45;&gt;Node16</title>
<path fill="none" stroke="midnightblue" d="M343.96,-112.32C358,-103.9 379.55,-90.97 396.04,-81.07"/>
<polygon fill="midnightblue" stroke="midnightblue" points="398.3,-83.8 405.08,-75.65 394.7,-77.8 398.3,-83.8"/>
</g>
<!-- Node17 -->
<g id="node17" class="node">
<title>Node17</title>
<g id="a_node17"><a xlink:title=" ">
<polygon fill="none" stroke="#bfbfbf" points="470.5,-56.5 470.5,-75.5 516.5,-75.5 516.5,-56.5 470.5,-56.5"/>
<text text-anchor="middle" x="493.5" y="-63.5" font-family="Helvetica,sans-Serif" font-size="10.00">errno.h</text>
</a>
</g>
</g>
<!-- Node13&#45;&gt;Node17 -->
<g id="edge22" class="edge">
<title>Node13&#45;&gt;Node17</title>
<path fill="none" stroke="midnightblue" d="M350.6,-114.05C378.52,-104.86 427.99,-88.57 460.77,-77.78"/>
<polygon fill="midnightblue" stroke="midnightblue" points="461.96,-81.07 470.36,-74.62 459.77,-74.42 461.96,-81.07"/>
</g>
<!-- Node18 -->
<g id="node18" class="node">
<title>Node18</title>
<g id="a_node18"><a xlink:title=" ">
<polygon fill="none" stroke="#bfbfbf" points="534.5,-56.5 534.5,-75.5 580.5,-75.5 580.5,-56.5 534.5,-56.5"/>
<text text-anchor="middle" x="557.5" y="-63.5" font-family="Helvetica,sans-Serif" font-size="10.00">math.h</text>
</a>
</g>
</g>
<!-- Node13&#45;&gt;Node18 -->
<g id="edge23" class="edge">
<title>Node13&#45;&gt;Node18</title>
<path fill="none" stroke="midnightblue" d="M350.75,-116.47C385.2,-109.06 455.54,-93.62 524.72,-76.11"/>
<polygon fill="midnightblue" stroke="midnightblue" points="525.64,-79.48 534.46,-73.62 523.91,-72.7 525.64,-79.48"/>
</g>
</g>
</svg>
