<?xml version="1.0" encoding="UTF-8" standalone="no"?>
<!DOCTYPE svg PUBLIC "-//W3C//DTD SVG 1.1//EN"
 "http://www.w3.org/Graphics/SVG/1.1/DTD/svg11.dtd">
<!-- Generated by graphviz version 2.49.3 (20211027.1534)
 -->
<!-- Title: include/IBM_EIS/authenticate.h Pages: 1 -->
<svg width="832pt" height="252pt"
 viewBox="0.00 0.00 831.50 252.00" xmlns="http://www.w3.org/2000/svg" xmlns:xlink="http://www.w3.org/1999/xlink">
<g id="graph0" class="graph" transform="scale(1 1) rotate(0) translate(4 248)">
<title>include/IBM_EIS/authenticate.h</title>
<!-- Node1 -->
<g id="node1" class="node">
<title>Node1</title>
<g id="a_node1"><a xlink:title=" ">
<polygon fill="#bfbfbf" stroke="black" points="198,-224.5 198,-243.5 351,-243.5 351,-224.5 198,-224.5"/>
<text text-anchor="middle" x="274.5" y="-231.5" font-family="Helvetica,sans-Serif" font-size="10.00">include/IBM_EIS/authenticate.h</text>
</a>
</g>
</g>
<!-- Node2 -->
<g id="node2" class="node">
<title>Node2</title>
<g id="a_node2"><a xlink:title=" ">
<polygon fill="none" stroke="#bfbfbf" points="0,-56.5 0,-75.5 59,-75.5 59,-56.5 0,-56.5"/>
<text text-anchor="middle" x="29.5" y="-63.5" font-family="Helvetica,sans-Serif" font-size="10.00">curl/curl.h</text>
</a>
</g>
</g>
<!-- Node1&#45;&gt;Node2 -->
<g id="edge1" class="edge">
<title>Node1&#45;&gt;Node2</title>
<path fill="none" stroke="midnightblue" d="M230.48,-224.44C202.13,-217.58 165.33,-206.05 136.5,-188 92.89,-160.7 56.83,-110.38 39.9,-84.06"/>
<polygon fill="midnightblue" stroke="midnightblue" points="42.83,-82.14 34.55,-75.54 36.9,-85.87 42.83,-82.14"/>
</g>
<!-- Node3 -->
<g id="node3" class="node">
<title>Node3</title>
<g id="a_node3"><a xlink:title=" ">
<polygon fill="none" stroke="#bfbfbf" points="209,-56.5 209,-75.5 292,-75.5 292,-56.5 209,-56.5"/>
<text text-anchor="middle" x="250.5" y="-63.5" font-family="Helvetica,sans-Serif" font-size="10.00">cjson/cJSON.h</text>
</a>
</g>
</g>
<!-- Node1&#45;&gt;Node3 -->
<g id="edge2" class="edge">
<title>Node1&#45;&gt;Node3</title>
<path fill="none" stroke="midnightblue" d="M273.21,-224.08C269.43,-197.95 258.34,-121.21 253.19,-85.58"/>
<polygon fill="midnightblue" stroke="midnightblue" points="256.63,-84.96 251.74,-75.57 249.71,-85.97 256.63,-84.96"/>
</g>
<!-- Node4 -->
<g id="node4" class="node">
<title>Node4</title>
<g id="a_node4"><a xlink:title=" ">
<polygon fill="none" stroke="#bfbfbf" points="574,-0.5 574,-19.5 617,-19.5 617,-0.5 574,-0.5"/>
<text text-anchor="middle" x="595.5" y="-7.5" font-family="Helvetica,sans-Serif" font-size="10.00">time.h</text>
</a>
</g>
</g>
<!-- Node1&#45;&gt;Node4 -->
<g id="edge3" class="edge">
<title>Node1&#45;&gt;Node4</title>
<path fill="none" stroke="midnightblue" d="M323.75,-224.44C396.27,-208.96 529.84,-168.86 591.5,-76 600.48,-62.47 600.65,-43.67 599.06,-29.76"/>
<polygon fill="midnightblue" stroke="midnightblue" points="602.51,-29.21 597.54,-19.86 595.59,-30.27 602.51,-29.21"/>
</g>
<!-- Node5 -->
<g id="node5" class="node">
<title>Node5</title>
<g id="a_node5"><a xlink:href="log_8h.html" target="_top" xlink:title=" ">
<polygon fill="none" stroke="black" points="639,-56.5 639,-75.5 676,-75.5 676,-56.5 639,-56.5"/>
<text text-anchor="middle" x="657.5" y="-63.5" font-family="Helvetica,sans-Serif" font-size="10.00">log.h</text>
</a>
</g>
</g>
<!-- Node1&#45;&gt;Node5 -->
<g id="edge4" class="edge">
<title>Node1&#45;&gt;Node5</title>
<path fill="none" stroke="midnightblue" d="M351.17,-232.79C441.68,-230.94 584.93,-222.44 624.5,-188 654.1,-162.23 658.38,-112.76 658.32,-85.74"/>
<polygon fill="midnightblue" stroke="midnightblue" points="661.82,-85.59 658.09,-75.67 654.82,-85.75 661.82,-85.59"/>
</g>
<!-- Node9 -->
<g id="node9" class="node">
<title>Node9</title>
<g id="a_node9"><a xlink:href="http_8h.html" target="_top" xlink:title=" ">
<polygon fill="none" stroke="black" points="146,-168.5 146,-187.5 187,-187.5 187,-168.5 146,-168.5"/>
<text text-anchor="middle" x="166.5" y="-175.5" font-family="Helvetica,sans-Serif" font-size="10.00">http.h</text>
</a>
</g>
</g>
<!-- Node1&#45;&gt;Node9 -->
<g id="edge9" class="edge">
<title>Node1&#45;&gt;Node9</title>
<path fill="none" stroke="midnightblue" d="M257.15,-224.32C239.83,-215.66 212.98,-202.24 193,-192.25"/>
<polygon fill="midnightblue" stroke="midnightblue" points="194.32,-189 183.81,-187.65 191.19,-195.26 194.32,-189"/>
</g>
<!-- Node12 -->
<g id="node12" class="node">
<title>Node12</title>
<g id="a_node12"><a xlink:href="utils_8h.html" target="_top" xlink:title=" ">
<polygon fill="none" stroke="black" points="278.5,-112.5 278.5,-131.5 320.5,-131.5 320.5,-112.5 278.5,-112.5"/>
<text text-anchor="middle" x="299.5" y="-119.5" font-family="Helvetica,sans-Serif" font-size="10.00">utils.h</text>
</a>
</g>
</g>
<!-- Node1&#45;&gt;Node12 -->
<g id="edge23" class="edge">
<title>Node1&#45;&gt;Node12</title>
<path fill="none" stroke="midnightblue" d="M276.46,-224.37C280.5,-206.62 289.8,-165.67 295.27,-141.6"/>
<polygon fill="midnightblue" stroke="midnightblue" points="298.74,-142.12 297.55,-131.59 291.92,-140.57 298.74,-142.12"/>
</g>
<!-- Node5&#45;&gt;Node4 -->
<g id="edge8" class="edge">
<title>Node5&#45;&gt;Node4</title>
<path fill="none" stroke="midnightblue" d="M647.54,-56.32C638.37,-48.34 624.56,-36.31 613.47,-26.65"/>
<polygon fill="midnightblue" stroke="midnightblue" points="615.48,-23.76 605.64,-19.83 610.88,-29.04 615.48,-23.76"/>
</g>
<!-- Node6 -->
<g id="node6" class="node">
<title>Node6</title>
<g id="a_node6"><a xlink:title=" ">
<polygon fill="none" stroke="#bfbfbf" points="635,-0.5 635,-19.5 680,-19.5 680,-0.5 635,-0.5"/>
<text text-anchor="middle" x="657.5" y="-7.5" font-family="Helvetica,sans-Serif" font-size="10.00">stdio.h</text>
</a>
</g>
</g>
<!-- Node5&#45;&gt;Node6 -->
<g id="edge5" class="edge">
<title>Node5&#45;&gt;Node6</title>
<path fill="none" stroke="midnightblue" d="M657.5,-56.08C657.5,-49.01 657.5,-38.86 657.5,-29.99"/>
<polygon fill="midnightblue" stroke="midnightblue" points="661,-29.75 657.5,-19.75 654,-29.75 661,-29.75"/>
</g>
<!-- Node7 -->
<g id="node7" class="node">
<title>Node7</title>
<g id="a_node7"><a xlink:title=" ">
<polygon fill="none" stroke="#bfbfbf" points="698,-0.5 698,-19.5 749,-19.5 749,-0.5 698,-0.5"/>
<text text-anchor="middle" x="723.5" y="-7.5" font-family="Helvetica,sans-Serif" font-size="10.00">stdarg.h</text>
</a>
</g>
</g>
<!-- Node5&#45;&gt;Node7 -->
<g id="edge6" class="edge">
<title>Node5&#45;&gt;Node7</title>
<path fill="none" stroke="midnightblue" d="M668.1,-56.32C677.96,-48.26 692.85,-36.08 704.72,-26.37"/>
<polygon fill="midnightblue" stroke="midnightblue" points="707.18,-28.88 712.7,-19.83 702.75,-23.46 707.18,-28.88"/>
</g>
<!-- Node8 -->
<g id="node8" class="node">
<title>Node8</title>
<g id="a_node8"><a xlink:title=" ">
<polygon fill="none" stroke="#bfbfbf" points="767.5,-0.5 767.5,-19.5 823.5,-19.5 823.5,-0.5 767.5,-0.5"/>
<text text-anchor="middle" x="795.5" y="-7.5" font-family="Helvetica,sans-Serif" font-size="10.00">stdbool.h</text>
</a>
</g>
</g>
<!-- Node5&#45;&gt;Node8 -->
<g id="edge7" class="edge">
<title>Node5&#45;&gt;Node8</title>
<path fill="none" stroke="midnightblue" d="M676.11,-57.72C698.65,-48.9 736.97,-33.9 764.1,-23.29"/>
<polygon fill="midnightblue" stroke="midnightblue" points="765.51,-26.49 773.55,-19.59 762.96,-19.97 765.51,-26.49"/>
</g>
<!-- Node9&#45;&gt;Node2 -->
<g id="edge12" class="edge">
<title>Node9&#45;&gt;Node2</title>
<path fill="none" stroke="midnightblue" d="M155.75,-168.37C132.54,-149.73 77.49,-105.53 48.35,-82.13"/>
<polygon fill="midnightblue" stroke="midnightblue" points="50.19,-79.12 40.2,-75.59 45.81,-84.58 50.19,-79.12"/>
</g>
<!-- Node10 -->
<g id="node10" class="node">
<title>Node10</title>
<g id="a_node10"><a xlink:title=" ">
<polygon fill="none" stroke="#bfbfbf" points="77,-56.5 77,-75.5 124,-75.5 124,-56.5 77,-56.5"/>
<text text-anchor="middle" x="100.5" y="-63.5" font-family="Helvetica,sans-Serif" font-size="10.00">stdlib.h</text>
</a>
</g>
</g>
<!-- Node9&#45;&gt;Node10 -->
<g id="edge10" class="edge">
<title>Node9&#45;&gt;Node10</title>
<path fill="none" stroke="midnightblue" d="M161.32,-168.37C150.48,-150.3 125.21,-108.18 110.88,-84.31"/>
<polygon fill="midnightblue" stroke="midnightblue" points="113.8,-82.37 105.65,-75.59 107.8,-85.97 113.8,-82.37"/>
</g>
<!-- Node11 -->
<g id="node11" class="node">
<title>Node11</title>
<g id="a_node11"><a xlink:title=" ">
<polygon fill="none" stroke="#bfbfbf" points="142.5,-56.5 142.5,-75.5 190.5,-75.5 190.5,-56.5 142.5,-56.5"/>
<text text-anchor="middle" x="166.5" y="-63.5" font-family="Helvetica,sans-Serif" font-size="10.00">string.h</text>
</a>
</g>
</g>
<!-- Node9&#45;&gt;Node11 -->
<g id="edge11" class="edge">
<title>Node9&#45;&gt;Node11</title>
<path fill="none" stroke="midnightblue" d="M166.5,-168.37C166.5,-150.62 166.5,-109.67 166.5,-85.6"/>
<polygon fill="midnightblue" stroke="midnightblue" points="170,-85.59 166.5,-75.59 163,-85.59 170,-85.59"/>
</g>
<!-- Node9&#45;&gt;Node12 -->
<g id="edge13" class="edge">
<title>Node9&#45;&gt;Node12</title>
<path fill="none" stroke="midnightblue" d="M187.28,-168.56C209.21,-159.66 244,-145.54 269.03,-135.37"/>
<polygon fill="midnightblue" stroke="midnightblue" points="270.48,-138.56 278.43,-131.56 267.84,-132.08 270.48,-138.56"/>
</g>
<!-- Node12&#45;&gt;Node2 -->
<g id="edge16" class="edge">
<title>Node12&#45;&gt;Node2</title>
<path fill="none" stroke="midnightblue" d="M278.33,-117.19C239.02,-110.06 151.89,-93.96 69.15,-76.3"/>
<polygon fill="midnightblue" stroke="midnightblue" points="69.86,-72.87 59.34,-74.19 68.39,-79.71 69.86,-72.87"/>
</g>
<!-- Node12&#45;&gt;Node3 -->
<g id="edge18" class="edge">
<title>Node12&#45;&gt;Node3</title>
<path fill="none" stroke="midnightblue" d="M291.41,-112.08C284.34,-104.3 273.91,-92.8 265.35,-83.37"/>
<polygon fill="midnightblue" stroke="midnightblue" points="267.75,-80.8 258.44,-75.75 262.57,-85.51 267.75,-80.8"/>
</g>
<!-- Node12&#45;&gt;Node5 -->
<g id="edge22" class="edge">
<title>Node12&#45;&gt;Node5</title>
<path fill="none" stroke="midnightblue" d="M320.56,-117.82C381.59,-108.62 558.68,-81.91 628.61,-71.36"/>
<polygon fill="midnightblue" stroke="midnightblue" points="629.51,-74.76 638.88,-69.81 628.47,-67.84 629.51,-74.76"/>
</g>
<!-- Node12&#45;&gt;Node10 -->
<g id="edge14" class="edge">
<title>Node12&#45;&gt;Node10</title>
<path fill="none" stroke="midnightblue" d="M278.27,-115.26C248.37,-107.16 191.88,-91.87 133.97,-76.13"/>
<polygon fill="midnightblue" stroke="midnightblue" points="134.86,-72.74 124.29,-73.49 133.02,-79.49 134.86,-72.74"/>
</g>
<!-- Node12&#45;&gt;Node11 -->
<g id="edge15" class="edge">
<title>Node12&#45;&gt;Node11</title>
<path fill="none" stroke="midnightblue" d="M278.43,-112.44C256.44,-103.52 221.77,-89.44 196.84,-79.32"/>
<polygon fill="midnightblue" stroke="midnightblue" points="198.06,-76.04 187.48,-75.52 195.42,-82.52 198.06,-76.04"/>
</g>
<!-- Node13 -->
<g id="node13" class="node">
<title>Node13</title>
<g id="a_node13"><a xlink:title=" ">
<polygon fill="none" stroke="#bfbfbf" points="534.5,-56.5 534.5,-75.5 582.5,-75.5 582.5,-56.5 534.5,-56.5"/>
<text text-anchor="middle" x="558.5" y="-63.5" font-family="Helvetica,sans-Serif" font-size="10.00">stdint.h</text>
</a>
</g>
</g>
<!-- Node12&#45;&gt;Node13 -->
<g id="edge17" class="edge">
<title>Node12&#45;&gt;Node13</title>
<path fill="none" stroke="midnightblue" d="M320.79,-117.27C359.42,-110.4 443.8,-94.89 524.57,-76.09"/>
<polygon fill="midnightblue" stroke="midnightblue" points="525.46,-79.48 534.4,-73.78 523.86,-72.66 525.46,-79.48"/>
</g>
<!-- Node14 -->
<g id="node14" class="node">
<title>Node14</title>
<g id="a_node14"><a xlink:title=" ">
<polygon fill="none" stroke="#bfbfbf" points="310,-56.5 310,-75.5 369,-75.5 369,-56.5 310,-56.5"/>
<text text-anchor="middle" x="339.5" y="-63.5" font-family="Helvetica,sans-Serif" font-size="10.00">sys/stat.h</text>
</a>
</g>
</g>
<!-- Node12&#45;&gt;Node14 -->
<g id="edge19" class="edge">
<title>Node12&#45;&gt;Node14</title>
<path fill="none" stroke="midnightblue" d="M306.11,-112.08C311.76,-104.46 320.04,-93.26 326.95,-83.94"/>
<polygon fill="midnightblue" stroke="midnightblue" points="329.88,-85.87 333.02,-75.75 324.25,-81.7 329.88,-85.87"/>
</g>
<!-- Node15 -->
<g id="node15" class="node">
<title>Node15</title>
<g id="a_node15"><a xlink:title=" ">
<polygon fill="none" stroke="#bfbfbf" points="387,-56.5 387,-75.5 452,-75.5 452,-56.5 387,-56.5"/>
<text text-anchor="middle" x="419.5" y="-63.5" font-family="Helvetica,sans-Serif" font-size="10.00">sys/types.h</text>
</a>
</g>
</g>
<!-- Node12&#45;&gt;Node15 -->
<g id="edge20" class="edge">
<title>Node12&#45;&gt;Node15</title>
<path fill="none" stroke="midnightblue" d="M318.51,-112.44C338.09,-103.64 368.81,-89.81 391.23,-79.72"/>
<polygon fill="midnightblue" stroke="midnightblue" points="392.89,-82.81 400.57,-75.52 390.02,-76.43 392.89,-82.81"/>
</g>
<!-- Node16 -->
<g id="node16" class="node">
<title>Node16</title>
<g id="a_node16"><a xlink:title=" ">
<polygon fill="none" stroke="#bfbfbf" points="470.5,-56.5 470.5,-75.5 516.5,-75.5 516.5,-56.5 470.5,-56.5"/>
<text text-anchor="middle" x="493.5" y="-63.5" font-family="Helvetica,sans-Serif" font-size="10.00">errno.h</text>
</a>
</g>
</g>
<!-- Node12&#45;&gt;Node16 -->
<g id="edge21" class="edge">
<title>Node12&#45;&gt;Node16</title>
<path fill="none" stroke="midnightblue" d="M320.73,-115.12C350,-107.02 404.63,-91.88 460.69,-76.22"/>
<polygon fill="midnightblue" stroke="midnightblue" points="461.74,-79.56 470.43,-73.5 459.86,-72.82 461.74,-79.56"/>
</g>
</g>
</svg>
