<?xml version="1.0" encoding="UTF-8" standalone="no"?>
<!DOCTYPE svg PUBLIC "-//W3C//DTD SVG 1.1//EN"
 "http://www.w3.org/Graphics/SVG/1.1/DTD/svg11.dtd">
<!-- Generated by graphviz version 2.49.3 (20211027.1534)
 -->
<!-- Title: include/IBM_EIS/authenticate.h Pages: 1 -->
<svg width="592pt" height="196pt"
 viewBox="0.00 0.00 591.78 196.00" xmlns="http://www.w3.org/2000/svg" xmlns:xlink="http://www.w3.org/1999/xlink">
<g id="graph0" class="graph" transform="scale(1 1) rotate(0) translate(4 192)">
<title>include/IBM_EIS/authenticate.h</title>
<!-- Node1 -->
<g id="node1" class="node">
<title>Node1</title>
<g id="a_node1"><a xlink:title=" ">
<polygon fill="#bfbfbf" stroke="black" points="54.28,-168.5 54.28,-187.5 207.28,-187.5 207.28,-168.5 54.28,-168.5"/>
<text text-anchor="middle" x="130.78" y="-175.5" font-family="Helvetica,sans-Serif" font-size="10.00">include/IBM_EIS/authenticate.h</text>
</a>
</g>
</g>
<!-- Node2 -->
<g id="node2" class="node">
<title>Node2</title>
<g id="a_node2"><a xlink:title=" ">
<polygon fill="none" stroke="#bfbfbf" points="12.28,-56.5 12.28,-75.5 71.28,-75.5 71.28,-56.5 12.28,-56.5"/>
<text text-anchor="middle" x="41.78" y="-63.5" font-family="Helvetica,sans-Serif" font-size="10.00">curl/curl.h</text>
</a>
</g>
</g>
<!-- Node1&#45;&gt;Node2 -->
<g id="edge1" class="edge">
<title>Node1&#45;&gt;Node2</title>
<path fill="none" stroke="midnightblue" d="M123.8,-168.37C109.05,-150.14 74.49,-107.43 55.28,-83.68"/>
<polygon fill="midnightblue" stroke="midnightblue" points="57.75,-81.16 48.73,-75.59 52.3,-85.57 57.75,-81.16"/>
</g>
<!-- Node3 -->
<g id="node3" class="node">
<title>Node3</title>
<g id="a_node3"><a xlink:title=" ">
<polygon fill="none" stroke="#bfbfbf" points="89.28,-56.5 89.28,-75.5 172.28,-75.5 172.28,-56.5 89.28,-56.5"/>
<text text-anchor="middle" x="130.78" y="-63.5" font-family="Helvetica,sans-Serif" font-size="10.00">cjson/cJSON.h</text>
</a>
</g>
</g>
<!-- Node1&#45;&gt;Node3 -->
<g id="edge2" class="edge">
<title>Node1&#45;&gt;Node3</title>
<path fill="none" stroke="midnightblue" d="M130.78,-168.37C130.78,-150.62 130.78,-109.67 130.78,-85.6"/>
<polygon fill="midnightblue" stroke="midnightblue" points="134.28,-85.59 130.78,-75.59 127.28,-85.59 134.28,-85.59"/>
</g>
<!-- Node4 -->
<g id="node4" class="node">
<title>Node4</title>
<g id="a_node4"><a xlink:title=" ">
<polygon fill="none" stroke="#bfbfbf" points="11.28,-0.5 11.28,-19.5 54.28,-19.5 54.28,-0.5 11.28,-0.5"/>
<text text-anchor="middle" x="32.78" y="-7.5" font-family="Helvetica,sans-Serif" font-size="10.00">time.h</text>
</a>
</g>
</g>
<!-- Node1&#45;&gt;Node4 -->
<g id="edge3" class="edge">
<title>Node1&#45;&gt;Node4</title>
<path fill="none" stroke="midnightblue" d="M111.01,-168.42C81.08,-154.2 25.38,-122.61 2.78,-76 -5.13,-59.67 5.74,-40.82 16.55,-27.64"/>
<polygon fill="midnightblue" stroke="midnightblue" points="19.41,-29.68 23.44,-19.88 14.18,-25.03 19.41,-29.68"/>
</g>
<!-- Node5 -->
<g id="node5" class="node">
<title>Node5</title>
<g id="a_node5"><a xlink:href="log_8h.html" target="_top" xlink:title=" ">
<polygon fill="none" stroke="black" points="190.28,-56.5 190.28,-75.5 227.28,-75.5 227.28,-56.5 190.28,-56.5"/>
<text text-anchor="middle" x="208.78" y="-63.5" font-family="Helvetica,sans-Serif" font-size="10.00">log.h</text>
</a>
</g>
</g>
<!-- Node1&#45;&gt;Node5 -->
<g id="edge4" class="edge">
<title>Node1&#45;&gt;Node5</title>
<path fill="none" stroke="midnightblue" d="M136.9,-168.37C149.78,-150.22 179.85,-107.8 196.74,-83.99"/>
<polygon fill="midnightblue" stroke="midnightblue" points="199.76,-85.77 202.69,-75.59 194.05,-81.72 199.76,-85.77"/>
</g>
<!-- Node9 -->
<g id="node9" class="node">
<title>Node9</title>
<g id="a_node9"><a xlink:href="utils_8h.html" target="_top" xlink:title=" ">
<polygon fill="none" stroke="black" points="253.78,-112.5 253.78,-131.5 295.78,-131.5 295.78,-112.5 253.78,-112.5"/>
<text text-anchor="middle" x="274.78" y="-119.5" font-family="Helvetica,sans-Serif" font-size="10.00">utils.h</text>
</a>
</g>
</g>
<!-- Node1&#45;&gt;Node9 -->
<g id="edge9" class="edge">
<title>Node1&#45;&gt;Node9</title>
<path fill="none" stroke="midnightblue" d="M153.6,-168.44C178.04,-159.28 216.96,-144.68 244.07,-134.52"/>
<polygon fill="midnightblue" stroke="midnightblue" points="245.35,-137.78 253.48,-130.99 242.89,-131.22 245.35,-137.78"/>
</g>
<!-- Node5&#45;&gt;Node4 -->
<g id="edge8" class="edge">
<title>Node5&#45;&gt;Node4</title>
<path fill="none" stroke="midnightblue" d="M190.22,-58.73C187.39,-57.8 184.52,-56.87 181.78,-56 141.35,-43.16 94.48,-29.14 64.26,-20.22"/>
<polygon fill="midnightblue" stroke="midnightblue" points="64.89,-16.76 54.31,-17.29 62.91,-23.48 64.89,-16.76"/>
</g>
<!-- Node6 -->
<g id="node6" class="node">
<title>Node6</title>
<g id="a_node6"><a xlink:title=" ">
<polygon fill="none" stroke="#bfbfbf" points="120.28,-0.5 120.28,-19.5 165.28,-19.5 165.28,-0.5 120.28,-0.5"/>
<text text-anchor="middle" x="142.78" y="-7.5" font-family="Helvetica,sans-Serif" font-size="10.00">stdio.h</text>
</a>
</g>
</g>
<!-- Node5&#45;&gt;Node6 -->
<g id="edge5" class="edge">
<title>Node5&#45;&gt;Node6</title>
<path fill="none" stroke="midnightblue" d="M198.18,-56.32C188.33,-48.26 173.43,-36.08 161.57,-26.37"/>
<polygon fill="midnightblue" stroke="midnightblue" points="163.54,-23.46 153.58,-19.83 159.1,-28.88 163.54,-23.46"/>
</g>
<!-- Node7 -->
<g id="node7" class="node">
<title>Node7</title>
<g id="a_node7"><a xlink:title=" ">
<polygon fill="none" stroke="#bfbfbf" points="183.28,-0.5 183.28,-19.5 234.28,-19.5 234.28,-0.5 183.28,-0.5"/>
<text text-anchor="middle" x="208.78" y="-7.5" font-family="Helvetica,sans-Serif" font-size="10.00">stdarg.h</text>
</a>
</g>
</g>
<!-- Node5&#45;&gt;Node7 -->
<g id="edge6" class="edge">
<title>Node5&#45;&gt;Node7</title>
<path fill="none" stroke="midnightblue" d="M208.78,-56.08C208.78,-49.01 208.78,-38.86 208.78,-29.99"/>
<polygon fill="midnightblue" stroke="midnightblue" points="212.28,-29.75 208.78,-19.75 205.28,-29.75 212.28,-29.75"/>
</g>
<!-- Node8 -->
<g id="node8" class="node">
<title>Node8</title>
<g id="a_node8"><a xlink:title=" ">
<polygon fill="none" stroke="#bfbfbf" points="252.78,-0.5 252.78,-19.5 308.78,-19.5 308.78,-0.5 252.78,-0.5"/>
<text text-anchor="middle" x="280.78" y="-7.5" font-family="Helvetica,sans-Serif" font-size="10.00">stdbool.h</text>
</a>
</g>
</g>
<!-- Node5&#45;&gt;Node8 -->
<g id="edge7" class="edge">
<title>Node5&#45;&gt;Node8</title>
<path fill="none" stroke="midnightblue" d="M220.35,-56.32C231.2,-48.18 247.66,-35.84 260.67,-26.09"/>
<polygon fill="midnightblue" stroke="midnightblue" points="263.11,-28.63 269.01,-19.83 258.91,-23.03 263.11,-28.63"/>
</g>
<!-- Node9&#45;&gt;Node2 -->
<g id="edge12" class="edge">
<title>Node9&#45;&gt;Node2</title>
<path fill="none" stroke="midnightblue" d="M253.7,-116.11C214.71,-107.08 130.81,-87.63 81.07,-76.11"/>
<polygon fill="midnightblue" stroke="midnightblue" points="81.84,-72.69 71.3,-73.84 80.26,-79.51 81.84,-72.69"/>
</g>
<!-- Node9&#45;&gt;Node3 -->
<g id="edge13" class="edge">
<title>Node9&#45;&gt;Node3</title>
<path fill="none" stroke="midnightblue" d="M253.54,-113.03C229.71,-104.1 190.79,-89.5 163.16,-79.14"/>
<polygon fill="midnightblue" stroke="midnightblue" points="164.14,-75.77 153.55,-75.54 161.68,-82.32 164.14,-75.77"/>
</g>
<!-- Node9&#45;&gt;Node5 -->
<g id="edge17" class="edge">
<title>Node9&#45;&gt;Node5</title>
<path fill="none" stroke="midnightblue" d="M264.18,-112.32C254.33,-104.26 239.43,-92.08 227.57,-82.37"/>
<polygon fill="midnightblue" stroke="midnightblue" points="229.54,-79.46 219.58,-75.83 225.1,-84.88 229.54,-79.46"/>
</g>
<!-- Node10 -->
<g id="node10" class="node">
<title>Node10</title>
<g id="a_node10"><a xlink:title=" ">
<polygon fill="none" stroke="#bfbfbf" points="470.28,-56.5 470.28,-75.5 517.28,-75.5 517.28,-56.5 470.28,-56.5"/>
<text text-anchor="middle" x="493.78" y="-63.5" font-family="Helvetica,sans-Serif" font-size="10.00">stdlib.h</text>
</a>
</g>
</g>
<!-- Node9&#45;&gt;Node10 -->
<g id="edge10" class="edge">
<title>Node9&#45;&gt;Node10</title>
<path fill="none" stroke="midnightblue" d="M296.03,-116.07C328.94,-108.39 394.45,-92.92 459.93,-76.16"/>
<polygon fill="midnightblue" stroke="midnightblue" points="461.2,-79.45 470.01,-73.57 459.46,-72.67 461.2,-79.45"/>
</g>
<!-- Node11 -->
<g id="node11" class="node">
<title>Node11</title>
<g id="a_node11"><a xlink:title=" ">
<polygon fill="none" stroke="#bfbfbf" points="535.78,-56.5 535.78,-75.5 583.78,-75.5 583.78,-56.5 535.78,-56.5"/>
<text text-anchor="middle" x="559.78" y="-63.5" font-family="Helvetica,sans-Serif" font-size="10.00">string.h</text>
</a>
</g>
</g>
<!-- Node9&#45;&gt;Node11 -->
<g id="edge11" class="edge">
<title>Node9&#45;&gt;Node11</title>
<path fill="none" stroke="midnightblue" d="M295.82,-117.9C337.71,-111.58 434.67,-96.26 525.76,-76.06"/>
<polygon fill="midnightblue" stroke="midnightblue" points="526.7,-79.44 535.7,-73.84 525.17,-72.61 526.7,-79.44"/>
</g>
<!-- Node12 -->
<g id="node12" class="node">
<title>Node12</title>
<g id="a_node12"><a xlink:title=" ">
<polygon fill="none" stroke="#bfbfbf" points="245.28,-56.5 245.28,-75.5 304.28,-75.5 304.28,-56.5 245.28,-56.5"/>
<text text-anchor="middle" x="274.78" y="-63.5" font-family="Helvetica,sans-Serif" font-size="10.00">sys/stat.h</text>
</a>
</g>
</g>
<!-- Node9&#45;&gt;Node12 -->
<g id="edge14" class="edge">
<title>Node9&#45;&gt;Node12</title>
<path fill="none" stroke="midnightblue" d="M274.78,-112.08C274.78,-105.01 274.78,-94.86 274.78,-85.99"/>
<polygon fill="midnightblue" stroke="midnightblue" points="278.28,-85.75 274.78,-75.75 271.28,-85.75 278.28,-85.75"/>
</g>
<!-- Node13 -->
<g id="node13" class="node">
<title>Node13</title>
<g id="a_node13"><a xlink:title=" ">
<polygon fill="none" stroke="#bfbfbf" points="322.28,-56.5 322.28,-75.5 387.28,-75.5 387.28,-56.5 322.28,-56.5"/>
<text text-anchor="middle" x="354.78" y="-63.5" font-family="Helvetica,sans-Serif" font-size="10.00">sys/types.h</text>
</a>
</g>
</g>
<!-- Node9&#45;&gt;Node13 -->
<g id="edge15" class="edge">
<title>Node9&#45;&gt;Node13</title>
<path fill="none" stroke="midnightblue" d="M287.64,-112.32C300,-103.98 318.91,-91.21 333.52,-81.35"/>
<polygon fill="midnightblue" stroke="midnightblue" points="335.63,-84.15 341.96,-75.65 331.72,-78.35 335.63,-84.15"/>
</g>
<!-- Node14 -->
<g id="node14" class="node">
<title>Node14</title>
<g id="a_node14"><a xlink:title=" ">
<polygon fill="none" stroke="#bfbfbf" points="405.78,-56.5 405.78,-75.5 451.78,-75.5 451.78,-56.5 405.78,-56.5"/>
<text text-anchor="middle" x="428.78" y="-63.5" font-family="Helvetica,sans-Serif" font-size="10.00">errno.h</text>
</a>
</g>
</g>
<!-- Node9&#45;&gt;Node14 -->
<g id="edge16" class="edge">
<title>Node9&#45;&gt;Node14</title>
<path fill="none" stroke="midnightblue" d="M295.87,-113.6C321.7,-104.55 365.74,-89.1 396,-78.49"/>
<polygon fill="midnightblue" stroke="midnightblue" points="397.41,-81.71 405.69,-75.1 395.1,-75.1 397.41,-81.71"/>
</g>
</g>
</svg>
