<?xml version="1.0" encoding="UTF-8" standalone="no"?>
<!DOCTYPE svg PUBLIC "-//W3C//DTD SVG 1.1//EN"
 "http://www.w3.org/Graphics/SVG/1.1/DTD/svg11.dtd">
<!-- Generated by graphviz version 2.49.3 (20211027.1534)
 -->
<!-- Title: include/Ubidots/authenticate.h Pages: 1 -->
<svg width="805pt" height="252pt"
 viewBox="0.00 0.00 805.01 252.00" xmlns="http://www.w3.org/2000/svg" xmlns:xlink="http://www.w3.org/1999/xlink">
<g id="graph0" class="graph" transform="scale(1 1) rotate(0) translate(4 248)">
<title>include/Ubidots/authenticate.h</title>
<!-- Node1 -->
<g id="node1" class="node">
<title>Node1</title>
<g id="a_node1"><a xlink:title=" ">
<polygon fill="#bfbfbf" stroke="black" points="4.51,-224.5 4.51,-243.5 152.51,-243.5 152.51,-224.5 4.51,-224.5"/>
<text text-anchor="middle" x="78.51" y="-231.5" font-family="Helvetica,sans-Serif" font-size="10.00">include/Ubidots/authenticate.h</text>
</a>
</g>
</g>
<!-- Node2 -->
<g id="node2" class="node">
<title>Node2</title>
<g id="a_node2"><a xlink:title=" ">
<polygon fill="none" stroke="#bfbfbf" points="260.01,-0.5 260.01,-19.5 305.01,-19.5 305.01,-0.5 260.01,-0.5"/>
<text text-anchor="middle" x="282.51" y="-7.5" font-family="Helvetica,sans-Serif" font-size="10.00">stdio.h</text>
</a>
</g>
</g>
<!-- Node1&#45;&gt;Node2 -->
<g id="edge1" class="edge">
<title>Node1&#45;&gt;Node2</title>
<path fill="none" stroke="midnightblue" d="M69.9,-224.19C43.72,-196.38 -30.44,-109.13 14.51,-56 44.32,-20.77 185.05,-13.11 249.78,-11.45"/>
<polygon fill="midnightblue" stroke="midnightblue" points="249.94,-14.95 259.86,-11.23 249.78,-7.95 249.94,-14.95"/>
</g>
<!-- Node3 -->
<g id="node3" class="node">
<title>Node3</title>
<g id="a_node3"><a xlink:title=" ">
<polygon fill="none" stroke="#bfbfbf" points="24.01,-56.5 24.01,-75.5 71.01,-75.5 71.01,-56.5 24.01,-56.5"/>
<text text-anchor="middle" x="47.51" y="-63.5" font-family="Helvetica,sans-Serif" font-size="10.00">stdlib.h</text>
</a>
</g>
</g>
<!-- Node1&#45;&gt;Node3 -->
<g id="edge2" class="edge">
<title>Node1&#45;&gt;Node3</title>
<path fill="none" stroke="midnightblue" d="M75.41,-224.49C72.25,-215.52 67.41,-200.93 64.51,-188 56.5,-152.25 51.56,-109.65 49.19,-85.73"/>
<polygon fill="midnightblue" stroke="midnightblue" points="52.66,-85.22 48.24,-75.59 45.69,-85.88 52.66,-85.22"/>
</g>
<!-- Node4 -->
<g id="node4" class="node">
<title>Node4</title>
<g id="a_node4"><a xlink:title=" ">
<polygon fill="none" stroke="#bfbfbf" points="89.51,-56.5 89.51,-75.5 137.51,-75.5 137.51,-56.5 89.51,-56.5"/>
<text text-anchor="middle" x="113.51" y="-63.5" font-family="Helvetica,sans-Serif" font-size="10.00">string.h</text>
</a>
</g>
</g>
<!-- Node1&#45;&gt;Node4 -->
<g id="edge3" class="edge">
<title>Node1&#45;&gt;Node4</title>
<path fill="none" stroke="midnightblue" d="M80.4,-224.08C85.9,-197.95 102.08,-121.21 109.6,-85.58"/>
<polygon fill="midnightblue" stroke="midnightblue" points="113.07,-86.08 111.71,-75.57 106.22,-84.63 113.07,-86.08"/>
</g>
<!-- Node5 -->
<g id="node5" class="node">
<title>Node5</title>
<g id="a_node5"><a xlink:href="log_8h.html" target="_top" xlink:title=" ">
<polygon fill="none" stroke="black" points="689.01,-56.5 689.01,-75.5 726.01,-75.5 726.01,-56.5 689.01,-56.5"/>
<text text-anchor="middle" x="707.51" y="-63.5" font-family="Helvetica,sans-Serif" font-size="10.00">log.h</text>
</a>
</g>
</g>
<!-- Node1&#45;&gt;Node5 -->
<g id="edge4" class="edge">
<title>Node1&#45;&gt;Node5</title>
<path fill="none" stroke="midnightblue" d="M114.71,-224.45C207.27,-202.41 460.17,-140.97 679.23,-76.25"/>
<polygon fill="midnightblue" stroke="midnightblue" points="680.38,-79.56 688.97,-73.36 678.39,-72.85 680.38,-79.56"/>
</g>
<!-- Node9 -->
<g id="node9" class="node">
<title>Node9</title>
<g id="a_node9"><a xlink:href="http_8h.html" target="_top" xlink:title=" ">
<polygon fill="none" stroke="black" points="134.01,-168.5 134.01,-187.5 175.01,-187.5 175.01,-168.5 134.01,-168.5"/>
<text text-anchor="middle" x="154.51" y="-175.5" font-family="Helvetica,sans-Serif" font-size="10.00">http.h</text>
</a>
</g>
</g>
<!-- Node1&#45;&gt;Node9 -->
<g id="edge9" class="edge">
<title>Node1&#45;&gt;Node9</title>
<path fill="none" stroke="midnightblue" d="M90.72,-224.32C102.29,-216.11 119.89,-203.6 133.67,-193.81"/>
<polygon fill="midnightblue" stroke="midnightblue" points="135.96,-196.48 142.08,-187.83 131.9,-190.77 135.96,-196.48"/>
</g>
<!-- Node5&#45;&gt;Node2 -->
<g id="edge5" class="edge">
<title>Node5&#45;&gt;Node2</title>
<path fill="none" stroke="midnightblue" d="M688.77,-58.2C686.03,-57.36 683.22,-56.6 680.51,-56 547.09,-26.56 384.02,-15.8 315.41,-12.39"/>
<polygon fill="midnightblue" stroke="midnightblue" points="315.38,-8.89 305.23,-11.91 315.05,-15.88 315.38,-8.89"/>
</g>
<!-- Node6 -->
<g id="node6" class="node">
<title>Node6</title>
<g id="a_node6"><a xlink:title=" ">
<polygon fill="none" stroke="#bfbfbf" points="610.01,-0.5 610.01,-19.5 661.01,-19.5 661.01,-0.5 610.01,-0.5"/>
<text text-anchor="middle" x="635.51" y="-7.5" font-family="Helvetica,sans-Serif" font-size="10.00">stdarg.h</text>
</a>
</g>
</g>
<!-- Node5&#45;&gt;Node6 -->
<g id="edge6" class="edge">
<title>Node5&#45;&gt;Node6</title>
<path fill="none" stroke="midnightblue" d="M695.95,-56.32C685.09,-48.18 668.63,-35.84 655.63,-26.09"/>
<polygon fill="midnightblue" stroke="midnightblue" points="657.39,-23.03 647.29,-19.83 653.19,-28.63 657.39,-23.03"/>
</g>
<!-- Node7 -->
<g id="node7" class="node">
<title>Node7</title>
<g id="a_node7"><a xlink:title=" ">
<polygon fill="none" stroke="#bfbfbf" points="679.51,-0.5 679.51,-19.5 735.51,-19.5 735.51,-0.5 679.51,-0.5"/>
<text text-anchor="middle" x="707.51" y="-7.5" font-family="Helvetica,sans-Serif" font-size="10.00">stdbool.h</text>
</a>
</g>
</g>
<!-- Node5&#45;&gt;Node7 -->
<g id="edge7" class="edge">
<title>Node5&#45;&gt;Node7</title>
<path fill="none" stroke="midnightblue" d="M707.51,-56.08C707.51,-49.01 707.51,-38.86 707.51,-29.99"/>
<polygon fill="midnightblue" stroke="midnightblue" points="711.01,-29.75 707.51,-19.75 704.01,-29.75 711.01,-29.75"/>
</g>
<!-- Node8 -->
<g id="node8" class="node">
<title>Node8</title>
<g id="a_node8"><a xlink:title=" ">
<polygon fill="none" stroke="#bfbfbf" points="754.01,-0.5 754.01,-19.5 797.01,-19.5 797.01,-0.5 754.01,-0.5"/>
<text text-anchor="middle" x="775.51" y="-7.5" font-family="Helvetica,sans-Serif" font-size="10.00">time.h</text>
</a>
</g>
</g>
<!-- Node5&#45;&gt;Node8 -->
<g id="edge8" class="edge">
<title>Node5&#45;&gt;Node8</title>
<path fill="none" stroke="midnightblue" d="M718.44,-56.32C728.69,-48.18 744.23,-35.84 756.51,-26.09"/>
<polygon fill="midnightblue" stroke="midnightblue" points="758.73,-28.79 764.39,-19.83 754.38,-23.31 758.73,-28.79"/>
</g>
<!-- Node9&#45;&gt;Node3 -->
<g id="edge10" class="edge">
<title>Node9&#45;&gt;Node3</title>
<path fill="none" stroke="midnightblue" d="M146.12,-168.37C128.22,-149.97 86.1,-106.67 63.13,-83.05"/>
<polygon fill="midnightblue" stroke="midnightblue" points="65.35,-80.32 55.87,-75.59 60.33,-85.2 65.35,-80.32"/>
</g>
<!-- Node9&#45;&gt;Node4 -->
<g id="edge11" class="edge">
<title>Node9&#45;&gt;Node4</title>
<path fill="none" stroke="midnightblue" d="M151.27,-168.16C146.68,-155.65 138.01,-132.06 130.51,-112 127.22,-103.19 123.54,-93.42 120.44,-85.24"/>
<polygon fill="midnightblue" stroke="midnightblue" points="123.61,-83.73 116.79,-75.62 117.06,-86.21 123.61,-83.73"/>
</g>
<!-- Node10 -->
<g id="node10" class="node">
<title>Node10</title>
<g id="a_node10"><a xlink:title=" ">
<polygon fill="none" stroke="#bfbfbf" points="156.01,-56.5 156.01,-75.5 215.01,-75.5 215.01,-56.5 156.01,-56.5"/>
<text text-anchor="middle" x="185.51" y="-63.5" font-family="Helvetica,sans-Serif" font-size="10.00">curl/curl.h</text>
</a>
</g>
</g>
<!-- Node9&#45;&gt;Node10 -->
<g id="edge12" class="edge">
<title>Node9&#45;&gt;Node10</title>
<path fill="none" stroke="midnightblue" d="M157.32,-168.41C160.23,-159.38 164.87,-144.74 168.51,-132 172.93,-116.56 177.51,-98.93 180.81,-85.93"/>
<polygon fill="midnightblue" stroke="midnightblue" points="184.29,-86.42 183.33,-75.87 177.5,-84.71 184.29,-86.42"/>
</g>
<!-- Node11 -->
<g id="node11" class="node">
<title>Node11</title>
<g id="a_node11"><a xlink:href="utils_8h.html" target="_top" xlink:title=" ">
<polygon fill="none" stroke="black" points="318.51,-112.5 318.51,-131.5 360.51,-131.5 360.51,-112.5 318.51,-112.5"/>
<text text-anchor="middle" x="339.51" y="-119.5" font-family="Helvetica,sans-Serif" font-size="10.00">utils.h</text>
</a>
</g>
</g>
<!-- Node9&#45;&gt;Node11 -->
<g id="edge13" class="edge">
<title>Node9&#45;&gt;Node11</title>
<path fill="none" stroke="midnightblue" d="M175.02,-171.01C207.35,-161.58 270.4,-143.17 308.35,-132.1"/>
<polygon fill="midnightblue" stroke="midnightblue" points="309.73,-135.34 318.35,-129.18 307.77,-128.62 309.73,-135.34"/>
</g>
<!-- Node11&#45;&gt;Node3 -->
<g id="edge14" class="edge">
<title>Node11&#45;&gt;Node3</title>
<path fill="none" stroke="midnightblue" d="M318.23,-118C275.32,-111.79 175.21,-96.58 81.2,-75.97"/>
<polygon fill="midnightblue" stroke="midnightblue" points="81.76,-72.51 71.24,-73.76 80.24,-79.34 81.76,-72.51"/>
</g>
<!-- Node11&#45;&gt;Node4 -->
<g id="edge15" class="edge">
<title>Node11&#45;&gt;Node4</title>
<path fill="none" stroke="midnightblue" d="M318.44,-116.27C283.05,-108.28 209.47,-91.46 147.51,-76 147.41,-75.98 147.31,-75.95 147.21,-75.92"/>
<polygon fill="midnightblue" stroke="midnightblue" points="148.19,-72.56 137.64,-73.48 146.46,-79.34 148.19,-72.56"/>
</g>
<!-- Node11&#45;&gt;Node5 -->
<g id="edge23" class="edge">
<title>Node11&#45;&gt;Node5</title>
<path fill="none" stroke="midnightblue" d="M360.52,-119.63C412.95,-115.91 553.82,-104.11 679.01,-75.99"/>
<polygon fill="midnightblue" stroke="midnightblue" points="679.79,-79.4 688.76,-73.76 678.23,-72.58 679.79,-79.4"/>
</g>
<!-- Node11&#45;&gt;Node10 -->
<g id="edge16" class="edge">
<title>Node11&#45;&gt;Node10</title>
<path fill="none" stroke="midnightblue" d="M318.42,-113.6C292.96,-104.68 249.81,-89.55 219.6,-78.95"/>
<polygon fill="midnightblue" stroke="midnightblue" points="220.49,-75.56 209.9,-75.55 218.18,-82.16 220.49,-75.56"/>
</g>
<!-- Node12 -->
<g id="node12" class="node">
<title>Node12</title>
<g id="a_node12"><a xlink:title=" ">
<polygon fill="none" stroke="#bfbfbf" points="444.51,-56.5 444.51,-75.5 492.51,-75.5 492.51,-56.5 444.51,-56.5"/>
<text text-anchor="middle" x="468.51" y="-63.5" font-family="Helvetica,sans-Serif" font-size="10.00">stdint.h</text>
</a>
</g>
</g>
<!-- Node11&#45;&gt;Node12 -->
<g id="edge17" class="edge">
<title>Node11&#45;&gt;Node12</title>
<path fill="none" stroke="midnightblue" d="M359.95,-112.44C381.18,-103.56 414.61,-89.56 438.77,-79.45"/>
<polygon fill="midnightblue" stroke="midnightblue" points="440.3,-82.61 448.17,-75.52 437.59,-76.15 440.3,-82.61"/>
</g>
<!-- Node13 -->
<g id="node13" class="node">
<title>Node13</title>
<g id="a_node13"><a xlink:title=" ">
<polygon fill="none" stroke="#bfbfbf" points="511.01,-56.5 511.01,-75.5 594.01,-75.5 594.01,-56.5 511.01,-56.5"/>
<text text-anchor="middle" x="552.51" y="-63.5" font-family="Helvetica,sans-Serif" font-size="10.00">cjson/cJSON.h</text>
</a>
</g>
</g>
<!-- Node11&#45;&gt;Node13 -->
<g id="edge18" class="edge">
<title>Node11&#45;&gt;Node13</title>
<path fill="none" stroke="midnightblue" d="M360.72,-115.62C395.15,-106.89 463.92,-89.46 509.07,-78.01"/>
<polygon fill="midnightblue" stroke="midnightblue" points="510.05,-81.38 518.88,-75.53 508.33,-74.59 510.05,-81.38"/>
</g>
<!-- Node14 -->
<g id="node14" class="node">
<title>Node14</title>
<g id="a_node14"><a xlink:title=" ">
<polygon fill="none" stroke="#bfbfbf" points="612.01,-56.5 612.01,-75.5 671.01,-75.5 671.01,-56.5 612.01,-56.5"/>
<text text-anchor="middle" x="641.51" y="-63.5" font-family="Helvetica,sans-Serif" font-size="10.00">sys/stat.h</text>
</a>
</g>
</g>
<!-- Node11&#45;&gt;Node14 -->
<g id="edge19" class="edge">
<title>Node11&#45;&gt;Node14</title>
<path fill="none" stroke="midnightblue" d="M360.82,-117.84C404.27,-111.3 506.45,-95.4 601.61,-76.29"/>
<polygon fill="midnightblue" stroke="midnightblue" points="602.58,-79.67 611.68,-74.25 601.19,-72.81 602.58,-79.67"/>
</g>
<!-- Node15 -->
<g id="node15" class="node">
<title>Node15</title>
<g id="a_node15"><a xlink:title=" ">
<polygon fill="none" stroke="#bfbfbf" points="233.01,-56.5 233.01,-75.5 298.01,-75.5 298.01,-56.5 233.01,-56.5"/>
<text text-anchor="middle" x="265.51" y="-63.5" font-family="Helvetica,sans-Serif" font-size="10.00">sys/types.h</text>
</a>
</g>
</g>
<!-- Node11&#45;&gt;Node15 -->
<g id="edge20" class="edge">
<title>Node11&#45;&gt;Node15</title>
<path fill="none" stroke="midnightblue" d="M327.62,-112.32C316.36,-104.11 299.23,-91.6 285.8,-81.81"/>
<polygon fill="midnightblue" stroke="midnightblue" points="287.76,-78.9 277.62,-75.83 283.63,-84.56 287.76,-78.9"/>
</g>
<!-- Node16 -->
<g id="node16" class="node">
<title>Node16</title>
<g id="a_node16"><a xlink:title=" ">
<polygon fill="none" stroke="#bfbfbf" points="316.51,-56.5 316.51,-75.5 362.51,-75.5 362.51,-56.5 316.51,-56.5"/>
<text text-anchor="middle" x="339.51" y="-63.5" font-family="Helvetica,sans-Serif" font-size="10.00">errno.h</text>
</a>
</g>
</g>
<!-- Node11&#45;&gt;Node16 -->
<g id="edge21" class="edge">
<title>Node11&#45;&gt;Node16</title>
<path fill="none" stroke="midnightblue" d="M339.51,-112.08C339.51,-105.01 339.51,-94.86 339.51,-85.99"/>
<polygon fill="midnightblue" stroke="midnightblue" points="343.01,-85.75 339.51,-75.75 336.01,-85.75 343.01,-85.75"/>
</g>
<!-- Node17 -->
<g id="node17" class="node">
<title>Node17</title>
<g id="a_node17"><a xlink:title=" ">
<polygon fill="none" stroke="#bfbfbf" points="380.51,-56.5 380.51,-75.5 426.51,-75.5 426.51,-56.5 380.51,-56.5"/>
<text text-anchor="middle" x="403.51" y="-63.5" font-family="Helvetica,sans-Serif" font-size="10.00">math.h</text>
</a>
</g>
</g>
<!-- Node11&#45;&gt;Node17 -->
<g id="edge22" class="edge">
<title>Node11&#45;&gt;Node17</title>
<path fill="none" stroke="midnightblue" d="M349.8,-112.32C359.35,-104.26 373.79,-92.08 385.3,-82.37"/>
<polygon fill="midnightblue" stroke="midnightblue" points="387.66,-84.96 393.04,-75.83 383.14,-79.61 387.66,-84.96"/>
</g>
</g>
</svg>
