<?xml version="1.0" encoding="UTF-8" standalone="no"?>
<!DOCTYPE svg PUBLIC "-//W3C//DTD SVG 1.1//EN"
 "http://www.w3.org/Graphics/SVG/1.1/DTD/svg11.dtd">
<!-- Generated by graphviz version 2.49.3 (20211027.1534)
 -->
<!-- Title: src/Ubidots/authenticate.c Pages: 1 -->
<svg width="742pt" height="308pt"
 viewBox="0.00 0.00 741.77 308.00" xmlns="http://www.w3.org/2000/svg" xmlns:xlink="http://www.w3.org/1999/xlink">
<g id="graph0" class="graph" transform="scale(1 1) rotate(0) translate(4 304)">
<title>src/Ubidots/authenticate.c</title>
<!-- Node1 -->
<g id="node1" class="node">
<title>Node1</title>
<g id="a_node1"><a xlink:title=" ">
<polygon fill="#bfbfbf" stroke="black" points="12.77,-280.5 12.77,-299.5 143.77,-299.5 143.77,-280.5 12.77,-280.5"/>
<text text-anchor="middle" x="78.27" y="-287.5" font-family="Helvetica,sans-Serif" font-size="10.00">src/Ubidots/authenticate.c</text>
</a>
</g>
</g>
<!-- Node2 -->
<g id="node2" class="node">
<title>Node2</title>
<g id="a_node2"><a xlink:href="_ubidots_2authenticate_8h.html" target="_top" xlink:title=" ">
<polygon fill="none" stroke="black" points="21.27,-224.5 21.27,-243.5 135.27,-243.5 135.27,-224.5 21.27,-224.5"/>
<text text-anchor="middle" x="78.27" y="-231.5" font-family="Helvetica,sans-Serif" font-size="10.00">Ubidots/authenticate.h</text>
</a>
</g>
</g>
<!-- Node1&#45;&gt;Node2 -->
<g id="edge1" class="edge">
<title>Node1&#45;&gt;Node2</title>
<path fill="none" stroke="midnightblue" d="M78.27,-280.08C78.27,-273.01 78.27,-262.86 78.27,-253.99"/>
<polygon fill="midnightblue" stroke="midnightblue" points="81.77,-253.75 78.27,-243.75 74.77,-253.75 81.77,-253.75"/>
</g>
<!-- Node3 -->
<g id="node3" class="node">
<title>Node3</title>
<g id="a_node3"><a xlink:title=" ">
<polygon fill="none" stroke="#bfbfbf" points="228.77,-0.5 228.77,-19.5 273.77,-19.5 273.77,-0.5 228.77,-0.5"/>
<text text-anchor="middle" x="251.27" y="-7.5" font-family="Helvetica,sans-Serif" font-size="10.00">stdio.h</text>
</a>
</g>
</g>
<!-- Node2&#45;&gt;Node3 -->
<g id="edge2" class="edge">
<title>Node2&#45;&gt;Node3</title>
<path fill="none" stroke="midnightblue" d="M69.7,-224.23C43.66,-196.54 -30.12,-109.61 14.27,-56 39.79,-25.18 159.28,-15.3 218.22,-12.27"/>
<polygon fill="midnightblue" stroke="midnightblue" points="218.66,-15.75 228.48,-11.78 218.33,-8.76 218.66,-15.75"/>
</g>
<!-- Node4 -->
<g id="node4" class="node">
<title>Node4</title>
<g id="a_node4"><a xlink:title=" ">
<polygon fill="none" stroke="#bfbfbf" points="23.77,-56.5 23.77,-75.5 70.77,-75.5 70.77,-56.5 23.77,-56.5"/>
<text text-anchor="middle" x="47.27" y="-63.5" font-family="Helvetica,sans-Serif" font-size="10.00">stdlib.h</text>
</a>
</g>
</g>
<!-- Node2&#45;&gt;Node4 -->
<g id="edge3" class="edge">
<title>Node2&#45;&gt;Node4</title>
<path fill="none" stroke="midnightblue" d="M75.16,-224.49C72,-215.52 67.17,-200.93 64.27,-188 56.25,-152.25 51.31,-109.65 48.95,-85.73"/>
<polygon fill="midnightblue" stroke="midnightblue" points="52.42,-85.22 47.99,-75.59 45.45,-85.88 52.42,-85.22"/>
</g>
<!-- Node5 -->
<g id="node5" class="node">
<title>Node5</title>
<g id="a_node5"><a xlink:title=" ">
<polygon fill="none" stroke="#bfbfbf" points="89.27,-56.5 89.27,-75.5 137.27,-75.5 137.27,-56.5 89.27,-56.5"/>
<text text-anchor="middle" x="113.27" y="-63.5" font-family="Helvetica,sans-Serif" font-size="10.00">string.h</text>
</a>
</g>
</g>
<!-- Node2&#45;&gt;Node5 -->
<g id="edge4" class="edge">
<title>Node2&#45;&gt;Node5</title>
<path fill="none" stroke="midnightblue" d="M80.15,-224.08C85.66,-197.95 101.84,-121.21 109.35,-85.58"/>
<polygon fill="midnightblue" stroke="midnightblue" points="112.82,-86.08 111.46,-75.57 105.97,-84.63 112.82,-86.08"/>
</g>
<!-- Node6 -->
<g id="node6" class="node">
<title>Node6</title>
<g id="a_node6"><a xlink:href="log_8h.html" target="_top" xlink:title=" ">
<polygon fill="none" stroke="black" points="625.77,-56.5 625.77,-75.5 662.77,-75.5 662.77,-56.5 625.77,-56.5"/>
<text text-anchor="middle" x="644.27" y="-63.5" font-family="Helvetica,sans-Serif" font-size="10.00">log.h</text>
</a>
</g>
</g>
<!-- Node2&#45;&gt;Node6 -->
<g id="edge5" class="edge">
<title>Node2&#45;&gt;Node6</title>
<path fill="none" stroke="midnightblue" d="M108.69,-224.43C189.47,-201.62 416.24,-137.16 615.83,-76.07"/>
<polygon fill="midnightblue" stroke="midnightblue" points="617.08,-79.35 625.61,-73.07 615.03,-72.66 617.08,-79.35"/>
</g>
<!-- Node10 -->
<g id="node10" class="node">
<title>Node10</title>
<g id="a_node10"><a xlink:href="http_8h.html" target="_top" xlink:title=" ">
<polygon fill="none" stroke="black" points="133.77,-168.5 133.77,-187.5 174.77,-187.5 174.77,-168.5 133.77,-168.5"/>
<text text-anchor="middle" x="154.27" y="-175.5" font-family="Helvetica,sans-Serif" font-size="10.00">http.h</text>
</a>
</g>
</g>
<!-- Node2&#45;&gt;Node10 -->
<g id="edge10" class="edge">
<title>Node2&#45;&gt;Node10</title>
<path fill="none" stroke="midnightblue" d="M90.48,-224.32C102.04,-216.11 119.64,-203.6 133.43,-193.81"/>
<polygon fill="midnightblue" stroke="midnightblue" points="135.71,-196.48 141.83,-187.83 131.66,-190.77 135.71,-196.48"/>
</g>
<!-- Node6&#45;&gt;Node3 -->
<g id="edge6" class="edge">
<title>Node6&#45;&gt;Node3</title>
<path fill="none" stroke="midnightblue" d="M625.73,-58.5C622.6,-57.56 619.36,-56.68 616.27,-56 495.73,-29.45 349.1,-17.34 284.52,-13"/>
<polygon fill="midnightblue" stroke="midnightblue" points="284.36,-9.48 274.16,-12.32 283.91,-16.46 284.36,-9.48"/>
</g>
<!-- Node7 -->
<g id="node7" class="node">
<title>Node7</title>
<g id="a_node7"><a xlink:title=" ">
<polygon fill="none" stroke="#bfbfbf" points="546.77,-0.5 546.77,-19.5 597.77,-19.5 597.77,-0.5 546.77,-0.5"/>
<text text-anchor="middle" x="572.27" y="-7.5" font-family="Helvetica,sans-Serif" font-size="10.00">stdarg.h</text>
</a>
</g>
</g>
<!-- Node6&#45;&gt;Node7 -->
<g id="edge7" class="edge">
<title>Node6&#45;&gt;Node7</title>
<path fill="none" stroke="midnightblue" d="M632.7,-56.32C621.85,-48.18 605.39,-35.84 592.38,-26.09"/>
<polygon fill="midnightblue" stroke="midnightblue" points="594.15,-23.03 584.05,-19.83 589.95,-28.63 594.15,-23.03"/>
</g>
<!-- Node8 -->
<g id="node8" class="node">
<title>Node8</title>
<g id="a_node8"><a xlink:title=" ">
<polygon fill="none" stroke="#bfbfbf" points="616.27,-0.5 616.27,-19.5 672.27,-19.5 672.27,-0.5 616.27,-0.5"/>
<text text-anchor="middle" x="644.27" y="-7.5" font-family="Helvetica,sans-Serif" font-size="10.00">stdbool.h</text>
</a>
</g>
</g>
<!-- Node6&#45;&gt;Node8 -->
<g id="edge8" class="edge">
<title>Node6&#45;&gt;Node8</title>
<path fill="none" stroke="midnightblue" d="M644.27,-56.08C644.27,-49.01 644.27,-38.86 644.27,-29.99"/>
<polygon fill="midnightblue" stroke="midnightblue" points="647.77,-29.75 644.27,-19.75 640.77,-29.75 647.77,-29.75"/>
</g>
<!-- Node9 -->
<g id="node9" class="node">
<title>Node9</title>
<g id="a_node9"><a xlink:title=" ">
<polygon fill="none" stroke="#bfbfbf" points="690.77,-0.5 690.77,-19.5 733.77,-19.5 733.77,-0.5 690.77,-0.5"/>
<text text-anchor="middle" x="712.27" y="-7.5" font-family="Helvetica,sans-Serif" font-size="10.00">time.h</text>
</a>
</g>
</g>
<!-- Node6&#45;&gt;Node9 -->
<g id="edge9" class="edge">
<title>Node6&#45;&gt;Node9</title>
<path fill="none" stroke="midnightblue" d="M655.19,-56.32C665.44,-48.18 680.99,-35.84 693.27,-26.09"/>
<polygon fill="midnightblue" stroke="midnightblue" points="695.49,-28.79 701.14,-19.83 691.14,-23.31 695.49,-28.79"/>
</g>
<!-- Node10&#45;&gt;Node4 -->
<g id="edge11" class="edge">
<title>Node10&#45;&gt;Node4</title>
<path fill="none" stroke="midnightblue" d="M145.87,-168.37C127.98,-149.97 85.86,-106.67 62.88,-83.05"/>
<polygon fill="midnightblue" stroke="midnightblue" points="65.11,-80.32 55.62,-75.59 60.09,-85.2 65.11,-80.32"/>
</g>
<!-- Node10&#45;&gt;Node5 -->
<g id="edge12" class="edge">
<title>Node10&#45;&gt;Node5</title>
<path fill="none" stroke="midnightblue" d="M151.03,-168.16C146.44,-155.65 137.76,-132.06 130.27,-112 126.98,-103.19 123.29,-93.42 120.19,-85.24"/>
<polygon fill="midnightblue" stroke="midnightblue" points="123.36,-83.73 116.55,-75.62 116.82,-86.21 123.36,-83.73"/>
</g>
<!-- Node11 -->
<g id="node11" class="node">
<title>Node11</title>
<g id="a_node11"><a xlink:title=" ">
<polygon fill="none" stroke="#bfbfbf" points="155.77,-56.5 155.77,-75.5 214.77,-75.5 214.77,-56.5 155.77,-56.5"/>
<text text-anchor="middle" x="185.27" y="-63.5" font-family="Helvetica,sans-Serif" font-size="10.00">curl/curl.h</text>
</a>
</g>
</g>
<!-- Node10&#45;&gt;Node11 -->
<g id="edge13" class="edge">
<title>Node10&#45;&gt;Node11</title>
<path fill="none" stroke="midnightblue" d="M157.07,-168.41C159.98,-159.38 164.62,-144.74 168.27,-132 172.69,-116.56 177.27,-98.93 180.56,-85.93"/>
<polygon fill="midnightblue" stroke="midnightblue" points="184.05,-86.42 183.09,-75.87 177.26,-84.71 184.05,-86.42"/>
</g>
<!-- Node12 -->
<g id="node12" class="node">
<title>Node12</title>
<g id="a_node12"><a xlink:href="utils_8h.html" target="_top" xlink:title=" ">
<polygon fill="none" stroke="black" points="278.27,-112.5 278.27,-131.5 320.27,-131.5 320.27,-112.5 278.27,-112.5"/>
<text text-anchor="middle" x="299.27" y="-119.5" font-family="Helvetica,sans-Serif" font-size="10.00">utils.h</text>
</a>
</g>
</g>
<!-- Node10&#45;&gt;Node12 -->
<g id="edge14" class="edge">
<title>Node10&#45;&gt;Node12</title>
<path fill="none" stroke="midnightblue" d="M175.04,-169.26C199.56,-160.13 240.54,-144.87 268.69,-134.39"/>
<polygon fill="midnightblue" stroke="midnightblue" points="269.91,-137.67 278.06,-130.9 267.47,-131.11 269.91,-137.67"/>
</g>
<!-- Node12&#45;&gt;Node4 -->
<g id="edge15" class="edge">
<title>Node12&#45;&gt;Node4</title>
<path fill="none" stroke="midnightblue" d="M278.03,-117.1C240.4,-110.1 159.39,-94.57 81.05,-76.06"/>
<polygon fill="midnightblue" stroke="midnightblue" points="81.55,-72.58 71.01,-73.67 79.93,-79.39 81.55,-72.58"/>
</g>
<!-- Node12&#45;&gt;Node5 -->
<g id="edge16" class="edge">
<title>Node12&#45;&gt;Node5</title>
<path fill="none" stroke="midnightblue" d="M277.93,-114.81C245.87,-105.5 184.98,-87.82 146.9,-76.77"/>
<polygon fill="midnightblue" stroke="midnightblue" points="147.86,-73.4 137.28,-73.97 145.91,-80.12 147.86,-73.4"/>
</g>
<!-- Node12&#45;&gt;Node6 -->
<g id="edge23" class="edge">
<title>Node12&#45;&gt;Node6</title>
<path fill="none" stroke="midnightblue" d="M320.64,-119.23C370.66,-114.82 499.27,-101.95 615.91,-75.7"/>
<polygon fill="midnightblue" stroke="midnightblue" points="616.75,-79.09 625.71,-73.45 615.19,-72.27 616.75,-79.09"/>
</g>
<!-- Node12&#45;&gt;Node11 -->
<g id="edge17" class="edge">
<title>Node12&#45;&gt;Node11</title>
<path fill="none" stroke="midnightblue" d="M281.2,-112.44C262.69,-103.68 233.69,-89.94 212.41,-79.86"/>
<polygon fill="midnightblue" stroke="midnightblue" points="213.78,-76.63 203.25,-75.52 210.79,-82.96 213.78,-76.63"/>
</g>
<!-- Node13 -->
<g id="node13" class="node">
<title>Node13</title>
<g id="a_node13"><a xlink:title=" ">
<polygon fill="none" stroke="#bfbfbf" points="233.27,-56.5 233.27,-75.5 281.27,-75.5 281.27,-56.5 233.27,-56.5"/>
<text text-anchor="middle" x="257.27" y="-63.5" font-family="Helvetica,sans-Serif" font-size="10.00">stdint.h</text>
</a>
</g>
</g>
<!-- Node12&#45;&gt;Node13 -->
<g id="edge18" class="edge">
<title>Node12&#45;&gt;Node13</title>
<path fill="none" stroke="midnightblue" d="M292.33,-112.08C286.34,-104.38 277.52,-93.03 270.22,-83.65"/>
<polygon fill="midnightblue" stroke="midnightblue" points="272.98,-81.5 264.07,-75.75 267.45,-85.79 272.98,-81.5"/>
</g>
<!-- Node14 -->
<g id="node14" class="node">
<title>Node14</title>
<g id="a_node14"><a xlink:title=" ">
<polygon fill="none" stroke="#bfbfbf" points="299.77,-56.5 299.77,-75.5 382.77,-75.5 382.77,-56.5 299.77,-56.5"/>
<text text-anchor="middle" x="341.27" y="-63.5" font-family="Helvetica,sans-Serif" font-size="10.00">cjson/cJSON.h</text>
</a>
</g>
</g>
<!-- Node12&#45;&gt;Node14 -->
<g id="edge19" class="edge">
<title>Node12&#45;&gt;Node14</title>
<path fill="none" stroke="midnightblue" d="M306.2,-112.08C312.2,-104.38 321.02,-93.03 328.32,-83.65"/>
<polygon fill="midnightblue" stroke="midnightblue" points="331.08,-85.79 334.46,-75.75 325.56,-81.5 331.08,-85.79"/>
</g>
<!-- Node15 -->
<g id="node15" class="node">
<title>Node15</title>
<g id="a_node15"><a xlink:title=" ">
<polygon fill="none" stroke="#bfbfbf" points="400.77,-56.5 400.77,-75.5 459.77,-75.5 459.77,-56.5 400.77,-56.5"/>
<text text-anchor="middle" x="430.27" y="-63.5" font-family="Helvetica,sans-Serif" font-size="10.00">sys/stat.h</text>
</a>
</g>
</g>
<!-- Node12&#45;&gt;Node15 -->
<g id="edge20" class="edge">
<title>Node12&#45;&gt;Node15</title>
<path fill="none" stroke="midnightblue" d="M320.02,-112.44C341.58,-103.56 375.53,-89.56 400.06,-79.45"/>
<polygon fill="midnightblue" stroke="midnightblue" points="401.7,-82.56 409.61,-75.52 399.03,-76.09 401.7,-82.56"/>
</g>
<!-- Node16 -->
<g id="node16" class="node">
<title>Node16</title>
<g id="a_node16"><a xlink:title=" ">
<polygon fill="none" stroke="#bfbfbf" points="477.77,-56.5 477.77,-75.5 542.77,-75.5 542.77,-56.5 477.77,-56.5"/>
<text text-anchor="middle" x="510.27" y="-63.5" font-family="Helvetica,sans-Serif" font-size="10.00">sys/types.h</text>
</a>
</g>
</g>
<!-- Node12&#45;&gt;Node16 -->
<g id="edge21" class="edge">
<title>Node12&#45;&gt;Node16</title>
<path fill="none" stroke="midnightblue" d="M320.27,-115.62C354.58,-106.85 423.28,-89.26 467.99,-77.82"/>
<polygon fill="midnightblue" stroke="midnightblue" points="468.88,-81.21 477.7,-75.34 467.14,-74.42 468.88,-81.21"/>
</g>
<!-- Node17 -->
<g id="node17" class="node">
<title>Node17</title>
<g id="a_node17"><a xlink:title=" ">
<polygon fill="none" stroke="#bfbfbf" points="561.27,-56.5 561.27,-75.5 607.27,-75.5 607.27,-56.5 561.27,-56.5"/>
<text text-anchor="middle" x="584.27" y="-63.5" font-family="Helvetica,sans-Serif" font-size="10.00">errno.h</text>
</a>
</g>
</g>
<!-- Node12&#45;&gt;Node17 -->
<g id="edge22" class="edge">
<title>Node12&#45;&gt;Node17</title>
<path fill="none" stroke="midnightblue" d="M320.4,-117.96C362.48,-111.75 459.86,-96.63 551.3,-76.03"/>
<polygon fill="midnightblue" stroke="midnightblue" points="552.29,-79.4 561.26,-73.76 550.74,-72.57 552.29,-79.4"/>
</g>
</g>
</svg>
