<?xml version="1.0" encoding="UTF-8" standalone="no"?>
<!DOCTYPE svg PUBLIC "-//W3C//DTD SVG 1.1//EN"
 "http://www.w3.org/Graphics/SVG/1.1/DTD/svg11.dtd">
<!-- Generated by graphviz version 2.49.3 (20211027.1534)
 -->
<!-- Title: src/Ubidots/authenticate.c Pages: 1 -->
<svg width="674pt" height="308pt"
 viewBox="0.00 0.00 674.41 308.00" xmlns="http://www.w3.org/2000/svg" xmlns:xlink="http://www.w3.org/1999/xlink">
<g id="graph0" class="graph" transform="scale(1 1) rotate(0) translate(4 304)">
<title>src/Ubidots/authenticate.c</title>
<!-- Node1 -->
<g id="node1" class="node">
<title>Node1</title>
<g id="a_node1"><a xlink:title=" ">
<polygon fill="#bfbfbf" stroke="black" points="12.41,-280.5 12.41,-299.5 143.41,-299.5 143.41,-280.5 12.41,-280.5"/>
<text text-anchor="middle" x="77.91" y="-287.5" font-family="Helvetica,sans-Serif" font-size="10.00">src/Ubidots/authenticate.c</text>
</a>
</g>
</g>
<!-- Node2 -->
<g id="node2" class="node">
<title>Node2</title>
<g id="a_node2"><a xlink:href="_ubidots_2authenticate_8h.html" target="_top" xlink:title=" ">
<polygon fill="none" stroke="black" points="20.91,-224.5 20.91,-243.5 134.91,-243.5 134.91,-224.5 20.91,-224.5"/>
<text text-anchor="middle" x="77.91" y="-231.5" font-family="Helvetica,sans-Serif" font-size="10.00">Ubidots/authenticate.h</text>
</a>
</g>
</g>
<!-- Node1&#45;&gt;Node2 -->
<g id="edge1" class="edge">
<title>Node1&#45;&gt;Node2</title>
<path fill="none" stroke="midnightblue" d="M77.91,-280.08C77.91,-273.01 77.91,-262.86 77.91,-253.99"/>
<polygon fill="midnightblue" stroke="midnightblue" points="81.41,-253.75 77.91,-243.75 74.41,-253.75 81.41,-253.75"/>
</g>
<!-- Node3 -->
<g id="node3" class="node">
<title>Node3</title>
<g id="a_node3"><a xlink:title=" ">
<polygon fill="none" stroke="#bfbfbf" points="194.41,-0.5 194.41,-19.5 239.41,-19.5 239.41,-0.5 194.41,-0.5"/>
<text text-anchor="middle" x="216.91" y="-7.5" font-family="Helvetica,sans-Serif" font-size="10.00">stdio.h</text>
</a>
</g>
</g>
<!-- Node2&#45;&gt;Node3 -->
<g id="edge2" class="edge">
<title>Node2&#45;&gt;Node3</title>
<path fill="none" stroke="midnightblue" d="M69.41,-224.29C43.58,-196.77 -29.65,-110.28 13.91,-56 34.89,-29.86 132.26,-17.96 184.14,-13.4"/>
<polygon fill="midnightblue" stroke="midnightblue" points="184.51,-16.88 194.18,-12.56 183.92,-9.91 184.51,-16.88"/>
</g>
<!-- Node4 -->
<g id="node4" class="node">
<title>Node4</title>
<g id="a_node4"><a xlink:title=" ">
<polygon fill="none" stroke="#bfbfbf" points="23.41,-56.5 23.41,-75.5 70.41,-75.5 70.41,-56.5 23.41,-56.5"/>
<text text-anchor="middle" x="46.91" y="-63.5" font-family="Helvetica,sans-Serif" font-size="10.00">stdlib.h</text>
</a>
</g>
</g>
<!-- Node2&#45;&gt;Node4 -->
<g id="edge3" class="edge">
<title>Node2&#45;&gt;Node4</title>
<path fill="none" stroke="midnightblue" d="M74.81,-224.49C71.65,-215.52 66.81,-200.93 63.91,-188 55.89,-152.25 50.96,-109.65 48.59,-85.73"/>
<polygon fill="midnightblue" stroke="midnightblue" points="52.06,-85.22 47.64,-75.59 45.09,-85.88 52.06,-85.22"/>
</g>
<!-- Node5 -->
<g id="node5" class="node">
<title>Node5</title>
<g id="a_node5"><a xlink:title=" ">
<polygon fill="none" stroke="#bfbfbf" points="88.91,-56.5 88.91,-75.5 136.91,-75.5 136.91,-56.5 88.91,-56.5"/>
<text text-anchor="middle" x="112.91" y="-63.5" font-family="Helvetica,sans-Serif" font-size="10.00">string.h</text>
</a>
</g>
</g>
<!-- Node2&#45;&gt;Node5 -->
<g id="edge4" class="edge">
<title>Node2&#45;&gt;Node5</title>
<path fill="none" stroke="midnightblue" d="M79.79,-224.08C85.3,-197.95 101.48,-121.21 108.99,-85.58"/>
<polygon fill="midnightblue" stroke="midnightblue" points="112.47,-86.08 111.1,-75.57 105.62,-84.63 112.47,-86.08"/>
</g>
<!-- Node6 -->
<g id="node6" class="node">
<title>Node6</title>
<g id="a_node6"><a xlink:href="log_8h.html" target="_top" xlink:title=" ">
<polygon fill="none" stroke="black" points="558.41,-56.5 558.41,-75.5 595.41,-75.5 595.41,-56.5 558.41,-56.5"/>
<text text-anchor="middle" x="576.91" y="-63.5" font-family="Helvetica,sans-Serif" font-size="10.00">log.h</text>
</a>
</g>
</g>
<!-- Node2&#45;&gt;Node6 -->
<g id="edge5" class="edge">
<title>Node2&#45;&gt;Node6</title>
<path fill="none" stroke="midnightblue" d="M103.49,-224.5C173.13,-201.35 372.12,-135.2 548.6,-76.43"/>
<polygon fill="midnightblue" stroke="midnightblue" points="549.94,-79.68 558.32,-73.2 547.73,-73.04 549.94,-79.68"/>
</g>
<!-- Node10 -->
<g id="node10" class="node">
<title>Node10</title>
<g id="a_node10"><a xlink:href="http_8h.html" target="_top" xlink:title=" ">
<polygon fill="none" stroke="black" points="133.41,-168.5 133.41,-187.5 174.41,-187.5 174.41,-168.5 133.41,-168.5"/>
<text text-anchor="middle" x="153.91" y="-175.5" font-family="Helvetica,sans-Serif" font-size="10.00">http.h</text>
</a>
</g>
</g>
<!-- Node2&#45;&gt;Node10 -->
<g id="edge10" class="edge">
<title>Node2&#45;&gt;Node10</title>
<path fill="none" stroke="midnightblue" d="M90.12,-224.32C101.69,-216.11 119.29,-203.6 133.07,-193.81"/>
<polygon fill="midnightblue" stroke="midnightblue" points="135.35,-196.48 141.48,-187.83 131.3,-190.77 135.35,-196.48"/>
</g>
<!-- Node6&#45;&gt;Node3 -->
<g id="edge6" class="edge">
<title>Node6&#45;&gt;Node3</title>
<path fill="none" stroke="midnightblue" d="M558.16,-58.25C555.41,-57.41 552.61,-56.63 549.91,-56 441.62,-30.87 310.04,-18.22 249.84,-13.39"/>
<polygon fill="midnightblue" stroke="midnightblue" points="250.03,-9.9 239.79,-12.61 249.48,-16.87 250.03,-9.9"/>
</g>
<!-- Node7 -->
<g id="node7" class="node">
<title>Node7</title>
<g id="a_node7"><a xlink:title=" ">
<polygon fill="none" stroke="#bfbfbf" points="479.41,-0.5 479.41,-19.5 530.41,-19.5 530.41,-0.5 479.41,-0.5"/>
<text text-anchor="middle" x="504.91" y="-7.5" font-family="Helvetica,sans-Serif" font-size="10.00">stdarg.h</text>
</a>
</g>
</g>
<!-- Node6&#45;&gt;Node7 -->
<g id="edge7" class="edge">
<title>Node6&#45;&gt;Node7</title>
<path fill="none" stroke="midnightblue" d="M565.34,-56.32C554.49,-48.18 538.03,-35.84 525.03,-26.09"/>
<polygon fill="midnightblue" stroke="midnightblue" points="526.79,-23.03 516.69,-19.83 522.59,-28.63 526.79,-23.03"/>
</g>
<!-- Node8 -->
<g id="node8" class="node">
<title>Node8</title>
<g id="a_node8"><a xlink:title=" ">
<polygon fill="none" stroke="#bfbfbf" points="548.91,-0.5 548.91,-19.5 604.91,-19.5 604.91,-0.5 548.91,-0.5"/>
<text text-anchor="middle" x="576.91" y="-7.5" font-family="Helvetica,sans-Serif" font-size="10.00">stdbool.h</text>
</a>
</g>
</g>
<!-- Node6&#45;&gt;Node8 -->
<g id="edge8" class="edge">
<title>Node6&#45;&gt;Node8</title>
<path fill="none" stroke="midnightblue" d="M576.91,-56.08C576.91,-49.01 576.91,-38.86 576.91,-29.99"/>
<polygon fill="midnightblue" stroke="midnightblue" points="580.41,-29.75 576.91,-19.75 573.41,-29.75 580.41,-29.75"/>
</g>
<!-- Node9 -->
<g id="node9" class="node">
<title>Node9</title>
<g id="a_node9"><a xlink:title=" ">
<polygon fill="none" stroke="#bfbfbf" points="623.41,-0.5 623.41,-19.5 666.41,-19.5 666.41,-0.5 623.41,-0.5"/>
<text text-anchor="middle" x="644.91" y="-7.5" font-family="Helvetica,sans-Serif" font-size="10.00">time.h</text>
</a>
</g>
</g>
<!-- Node6&#45;&gt;Node9 -->
<g id="edge9" class="edge">
<title>Node6&#45;&gt;Node9</title>
<path fill="none" stroke="midnightblue" d="M587.84,-56.32C598.09,-48.18 613.63,-35.84 625.91,-26.09"/>
<polygon fill="midnightblue" stroke="midnightblue" points="628.13,-28.79 633.79,-19.83 623.78,-23.31 628.13,-28.79"/>
</g>
<!-- Node10&#45;&gt;Node4 -->
<g id="edge11" class="edge">
<title>Node10&#45;&gt;Node4</title>
<path fill="none" stroke="midnightblue" d="M145.51,-168.37C127.62,-149.97 85.5,-106.67 62.53,-83.05"/>
<polygon fill="midnightblue" stroke="midnightblue" points="64.75,-80.32 55.27,-75.59 59.73,-85.2 64.75,-80.32"/>
</g>
<!-- Node10&#45;&gt;Node5 -->
<g id="edge12" class="edge">
<title>Node10&#45;&gt;Node5</title>
<path fill="none" stroke="midnightblue" d="M150.67,-168.16C146.08,-155.65 137.4,-132.06 129.91,-112 126.62,-103.19 122.93,-93.42 119.84,-85.24"/>
<polygon fill="midnightblue" stroke="midnightblue" points="123.01,-83.73 116.19,-75.62 116.46,-86.21 123.01,-83.73"/>
</g>
<!-- Node11 -->
<g id="node11" class="node">
<title>Node11</title>
<g id="a_node11"><a xlink:title=" ">
<polygon fill="none" stroke="#bfbfbf" points="155.41,-56.5 155.41,-75.5 214.41,-75.5 214.41,-56.5 155.41,-56.5"/>
<text text-anchor="middle" x="184.91" y="-63.5" font-family="Helvetica,sans-Serif" font-size="10.00">curl/curl.h</text>
</a>
</g>
</g>
<!-- Node10&#45;&gt;Node11 -->
<g id="edge13" class="edge">
<title>Node10&#45;&gt;Node11</title>
<path fill="none" stroke="midnightblue" d="M156.71,-168.41C159.63,-159.38 164.26,-144.74 167.91,-132 172.33,-116.56 176.91,-98.93 180.2,-85.93"/>
<polygon fill="midnightblue" stroke="midnightblue" points="183.69,-86.42 182.73,-75.87 176.9,-84.71 183.69,-86.42"/>
</g>
<!-- Node12 -->
<g id="node12" class="node">
<title>Node12</title>
<g id="a_node12"><a xlink:href="utils_8h.html" target="_top" xlink:title=" ">
<polygon fill="none" stroke="black" points="234.91,-112.5 234.91,-131.5 276.91,-131.5 276.91,-112.5 234.91,-112.5"/>
<text text-anchor="middle" x="255.91" y="-119.5" font-family="Helvetica,sans-Serif" font-size="10.00">utils.h</text>
</a>
</g>
</g>
<!-- Node10&#45;&gt;Node12 -->
<g id="edge14" class="edge">
<title>Node10&#45;&gt;Node12</title>
<path fill="none" stroke="midnightblue" d="M170.3,-168.32C186.58,-159.7 211.78,-146.36 230.63,-136.39"/>
<polygon fill="midnightblue" stroke="midnightblue" points="232.36,-139.43 239.56,-131.65 229.09,-133.24 232.36,-139.43"/>
</g>
<!-- Node12&#45;&gt;Node4 -->
<g id="edge15" class="edge">
<title>Node12&#45;&gt;Node4</title>
<path fill="none" stroke="midnightblue" d="M234.75,-115.71C203.35,-107.82 142.33,-92.41 80.6,-76.15"/>
<polygon fill="midnightblue" stroke="midnightblue" points="81.25,-72.7 70.69,-73.53 79.47,-79.47 81.25,-72.7"/>
</g>
<!-- Node12&#45;&gt;Node5 -->
<g id="edge16" class="edge">
<title>Node12&#45;&gt;Node5</title>
<path fill="none" stroke="midnightblue" d="M234.81,-113.03C211.15,-104.1 172.5,-89.5 145.07,-79.14"/>
<polygon fill="midnightblue" stroke="midnightblue" points="146.11,-75.79 135.52,-75.54 143.63,-82.34 146.11,-75.79"/>
</g>
<!-- Node12&#45;&gt;Node6 -->
<g id="edge22" class="edge">
<title>Node12&#45;&gt;Node6</title>
<path fill="none" stroke="midnightblue" d="M277.18,-119C324.46,-114.28 441.87,-101.12 548.22,-76.09"/>
<polygon fill="midnightblue" stroke="midnightblue" points="549.24,-79.44 558.15,-73.71 547.61,-72.64 549.24,-79.44"/>
</g>
<!-- Node12&#45;&gt;Node11 -->
<g id="edge17" class="edge">
<title>Node12&#45;&gt;Node11</title>
<path fill="none" stroke="midnightblue" d="M244.5,-112.32C233.8,-104.18 217.57,-91.84 204.75,-82.09"/>
<polygon fill="midnightblue" stroke="midnightblue" points="206.6,-79.1 196.53,-75.83 202.37,-84.67 206.6,-79.1"/>
</g>
<!-- Node13 -->
<g id="node13" class="node">
<title>Node13</title>
<g id="a_node13"><a xlink:title=" ">
<polygon fill="none" stroke="#bfbfbf" points="297.41,-56.5 297.41,-75.5 380.41,-75.5 380.41,-56.5 297.41,-56.5"/>
<text text-anchor="middle" x="338.91" y="-63.5" font-family="Helvetica,sans-Serif" font-size="10.00">cjson/cJSON.h</text>
</a>
</g>
</g>
<!-- Node12&#45;&gt;Node13 -->
<g id="edge18" class="edge">
<title>Node12&#45;&gt;Node13</title>
<path fill="none" stroke="midnightblue" d="M269.25,-112.32C282.07,-103.98 301.7,-91.21 316.85,-81.35"/>
<polygon fill="midnightblue" stroke="midnightblue" points="319.14,-84.04 325.61,-75.65 315.32,-78.17 319.14,-84.04"/>
</g>
<!-- Node14 -->
<g id="node14" class="node">
<title>Node14</title>
<g id="a_node14"><a xlink:title=" ">
<polygon fill="none" stroke="#bfbfbf" points="398.41,-56.5 398.41,-75.5 457.41,-75.5 457.41,-56.5 398.41,-56.5"/>
<text text-anchor="middle" x="427.91" y="-63.5" font-family="Helvetica,sans-Serif" font-size="10.00">sys/stat.h</text>
</a>
</g>
</g>
<!-- Node12&#45;&gt;Node14 -->
<g id="edge19" class="edge">
<title>Node12&#45;&gt;Node14</title>
<path fill="none" stroke="midnightblue" d="M277,-114.38C305.33,-105.48 356.13,-89.54 390.9,-78.62"/>
<polygon fill="midnightblue" stroke="midnightblue" points="392.2,-81.88 400.69,-75.55 390.1,-75.2 392.2,-81.88"/>
</g>
<!-- Node15 -->
<g id="node15" class="node">
<title>Node15</title>
<g id="a_node15"><a xlink:title=" ">
<polygon fill="none" stroke="#bfbfbf" points="475.41,-56.5 475.41,-75.5 540.41,-75.5 540.41,-56.5 475.41,-56.5"/>
<text text-anchor="middle" x="507.91" y="-63.5" font-family="Helvetica,sans-Serif" font-size="10.00">sys/types.h</text>
</a>
</g>
</g>
<!-- Node12&#45;&gt;Node15 -->
<g id="edge20" class="edge">
<title>Node12&#45;&gt;Node15</title>
<path fill="none" stroke="midnightblue" d="M277.18,-116.51C313.62,-108.8 390.55,-92.49 465.2,-76.36"/>
<polygon fill="midnightblue" stroke="midnightblue" points="466.21,-79.72 475.24,-74.19 464.73,-72.88 466.21,-79.72"/>
</g>
<!-- Node16 -->
<g id="node16" class="node">
<title>Node16</title>
<g id="a_node16"><a xlink:title=" ">
<polygon fill="none" stroke="#bfbfbf" points="232.91,-56.5 232.91,-75.5 278.91,-75.5 278.91,-56.5 232.91,-56.5"/>
<text text-anchor="middle" x="255.91" y="-63.5" font-family="Helvetica,sans-Serif" font-size="10.00">errno.h</text>
</a>
</g>
</g>
<!-- Node12&#45;&gt;Node16 -->
<g id="edge21" class="edge">
<title>Node12&#45;&gt;Node16</title>
<path fill="none" stroke="midnightblue" d="M255.91,-112.08C255.91,-105.01 255.91,-94.86 255.91,-85.99"/>
<polygon fill="midnightblue" stroke="midnightblue" points="259.41,-85.75 255.91,-75.75 252.41,-85.75 259.41,-85.75"/>
</g>
</g>
</svg>
