<?xml version="1.0" encoding="UTF-8" standalone="no"?>
<!DOCTYPE svg PUBLIC "-//W3C//DTD SVG 1.1//EN"
 "http://www.w3.org/Graphics/SVG/1.1/DTD/svg11.dtd">
<!-- Generated by graphviz version 2.43.0 (0)
 -->
<!-- Title: include/Ubidots/authenticate.h Pages: 1 -->
<svg width="347pt" height="192pt"
 viewBox="0.00 0.00 346.50 192.00" xmlns="http://www.w3.org/2000/svg" xmlns:xlink="http://www.w3.org/1999/xlink">
<g id="graph0" class="graph" transform="scale(1 1) rotate(0) translate(4 188)">
<title>include/Ubidots/authenticate.h</title>
<!-- Node1 -->
<g id="node1" class="node">
<title>Node1</title>
<g id="a_node1"><a xlink:title=" ">
<polygon fill="#999999" stroke="#666666" points="268.5,-184 102.5,-184 102.5,-165 268.5,-165 268.5,-184"/>
<text text-anchor="middle" x="185.5" y="-172" font-family="Helvetica,sans-Serif" font-size="10.00">include/Ubidots/authenticate.h</text>
</a>
</g>
</g>
<!-- Node2 -->
<g id="node2" class="node">
<title>Node2</title>
<g id="a_node2"><a xlink:href="devices_8h.html" target="_top" xlink:title=" ">
<polygon fill="white" stroke="#666666" points="176.5,-129 34.5,-129 34.5,-110 176.5,-110 176.5,-129"/>
<text text-anchor="middle" x="105.5" y="-117" font-family="Helvetica,sans-Serif" font-size="10.00">include/Ubidots/devices.h</text>
</a>
</g>
</g>
<!-- Node1&#45;&gt;Node2 -->
<g id="edge1" class="edge">
<title>Node1&#45;&gt;Node2</title>
<path fill="none" stroke="#63b8ff" d="M164.25,-159.42C149.74,-149.81 130.96,-137.37 118.59,-129.17"/>
<polygon fill="#63b8ff" stroke="#63b8ff" points="162.38,-162.38 172.65,-164.98 166.24,-156.54 162.38,-162.38"/>
</g>
<!-- Node6 -->
<g id="node6" class="node">
<title>Node6</title>
<g id="a_node6"><a xlink:href="_ubidots_2authenticate_8c.html" target="_top" xlink:title=" ">
<polygon fill="white" stroke="#666666" points="338.5,-129 194.5,-129 194.5,-110 338.5,-110 338.5,-129"/>
<text text-anchor="middle" x="266.5" y="-117" font-family="Helvetica,sans-Serif" font-size="10.00">src/Ubidots/authenticate.c</text>
</a>
</g>
</g>
<!-- Node1&#45;&gt;Node6 -->
<g id="edge5" class="edge">
<title>Node1&#45;&gt;Node6</title>
<path fill="none" stroke="#63b8ff" d="M207.01,-159.42C221.71,-149.81 240.72,-137.37 253.25,-129.17"/>
<polygon fill="#63b8ff" stroke="#63b8ff" points="204.97,-156.58 198.51,-164.98 208.8,-162.44 204.97,-156.58"/>
</g>
<!-- Node3 -->
<g id="node3" class="node">
<title>Node3</title>
<g id="a_node3"><a xlink:href="main_8h.html" target="_top" xlink:title=" ">
<polygon fill="white" stroke="#666666" points="89,-74 0,-74 0,-55 89,-55 89,-74"/>
<text text-anchor="middle" x="44.5" y="-62" font-family="Helvetica,sans-Serif" font-size="10.00">include/main.h</text>
</a>
</g>
</g>
<!-- Node2&#45;&gt;Node3 -->
<g id="edge2" class="edge">
<title>Node2&#45;&gt;Node3</title>
<path fill="none" stroke="#63b8ff" d="M88.03,-103.32C77.16,-93.87 63.56,-82.06 54.48,-74.17"/>
<polygon fill="#63b8ff" stroke="#63b8ff" points="85.85,-106.07 95.7,-109.98 90.45,-100.78 85.85,-106.07"/>
</g>
<!-- Node5 -->
<g id="node5" class="node">
<title>Node5</title>
<g id="a_node5"><a xlink:href="devices_8c.html" target="_top" xlink:title=" ">
<polygon fill="white" stroke="#666666" points="226.5,-74 106.5,-74 106.5,-55 226.5,-55 226.5,-74"/>
<text text-anchor="middle" x="166.5" y="-62" font-family="Helvetica,sans-Serif" font-size="10.00">src/Ubidots/devices.c</text>
</a>
</g>
</g>
<!-- Node2&#45;&gt;Node5 -->
<g id="edge4" class="edge">
<title>Node2&#45;&gt;Node5</title>
<path fill="none" stroke="#63b8ff" d="M122.97,-103.32C133.84,-93.87 147.44,-82.06 156.52,-74.17"/>
<polygon fill="#63b8ff" stroke="#63b8ff" points="120.55,-100.78 115.3,-109.98 125.15,-106.07 120.55,-100.78"/>
</g>
<!-- Node4 -->
<g id="node4" class="node">
<title>Node4</title>
<g id="a_node4"><a xlink:href="main_8c.html" target="_top" xlink:title=" ">
<polygon fill="white" stroke="#666666" points="78,-19 11,-19 11,0 78,0 78,-19"/>
<text text-anchor="middle" x="44.5" y="-7" font-family="Helvetica,sans-Serif" font-size="10.00">src/main.c</text>
</a>
</g>
</g>
<!-- Node3&#45;&gt;Node4 -->
<g id="edge3" class="edge">
<title>Node3&#45;&gt;Node4</title>
<path fill="none" stroke="#63b8ff" d="M44.5,-44.66C44.5,-35.93 44.5,-25.99 44.5,-19.09"/>
<polygon fill="#63b8ff" stroke="#63b8ff" points="41,-44.75 44.5,-54.75 48,-44.75 41,-44.75"/>
</g>
</g>
</svg>
