<?xml version="1.0" encoding="UTF-8" standalone="no"?>
<!DOCTYPE svg PUBLIC "-//W3C//DTD SVG 1.1//EN"
 "http://www.w3.org/Graphics/SVG/1.1/DTD/svg11.dtd">
<!-- Generated by graphviz version 2.43.0 (0)
 -->
<!-- Title: include/Ubidots/authenticate.h Pages: 1 -->
<svg width="938pt" height="247pt"
 viewBox="0.00 0.00 938.21 247.00" xmlns="http://www.w3.org/2000/svg" xmlns:xlink="http://www.w3.org/1999/xlink">
<g id="graph0" class="graph" transform="scale(1 1) rotate(0) translate(4 243)">
<title>include/Ubidots/authenticate.h</title>
<!-- Node1 -->
<g id="node1" class="node">
<title>Node1</title>
<g id="a_node1"><a xlink:title=" ">
<polygon fill="#999999" stroke="#666666" points="169.21,-239 3.21,-239 3.21,-220 169.21,-220 169.21,-239"/>
<text text-anchor="middle" x="86.21" y="-227" font-family="Helvetica,sans-Serif" font-size="10.00">include/Ubidots/authenticate.h</text>
</a>
</g>
</g>
<!-- Node2 -->
<g id="node2" class="node">
<title>Node2</title>
<g id="a_node2"><a xlink:title=" ">
<polygon fill="#e0e0e0" stroke="#999999" points="365.21,-19 315.21,-19 315.21,0 365.21,0 365.21,-19"/>
<text text-anchor="middle" x="340.21" y="-7" font-family="Helvetica,sans-Serif" font-size="10.00">stdio.h</text>
</a>
</g>
</g>
<!-- Node1&#45;&gt;Node2 -->
<g id="edge1" class="edge">
<title>Node1&#45;&gt;Node2</title>
<path fill="none" stroke="#63b8ff" d="M76.93,-219.89C48.7,-192.69 -31.47,-107.33 14.21,-55 51.6,-12.15 228.07,-9.04 304.63,-9.77"/>
<polygon fill="#63b8ff" stroke="#63b8ff" points="304.7,-13.27 314.74,-9.89 304.79,-6.27 304.7,-13.27"/>
</g>
<!-- Node3 -->
<g id="node3" class="node">
<title>Node3</title>
<g id="a_node3"><a xlink:title=" ">
<polygon fill="#e0e0e0" stroke="#999999" points="76.71,-74 23.71,-74 23.71,-55 76.71,-55 76.71,-74"/>
<text text-anchor="middle" x="50.21" y="-62" font-family="Helvetica,sans-Serif" font-size="10.00">stdlib.h</text>
</a>
</g>
</g>
<!-- Node1&#45;&gt;Node3 -->
<g id="edge2" class="edge">
<title>Node1&#45;&gt;Node3</title>
<path fill="none" stroke="#63b8ff" d="M84.27,-219.74C78.63,-194.2 62.12,-119.43 54.34,-84.23"/>
<polygon fill="#63b8ff" stroke="#63b8ff" points="57.72,-83.32 52.15,-74.31 50.89,-84.83 57.72,-83.32"/>
</g>
<!-- Node4 -->
<g id="node4" class="node">
<title>Node4</title>
<g id="a_node4"><a xlink:title=" ">
<polygon fill="#e0e0e0" stroke="#999999" points="147.71,-74 94.71,-74 94.71,-55 147.71,-55 147.71,-74"/>
<text text-anchor="middle" x="121.21" y="-62" font-family="Helvetica,sans-Serif" font-size="10.00">string.h</text>
</a>
</g>
</g>
<!-- Node1&#45;&gt;Node4 -->
<g id="edge3" class="edge">
<title>Node1&#45;&gt;Node4</title>
<path fill="none" stroke="#63b8ff" d="M88.09,-219.74C93.57,-194.2 109.63,-119.43 117.18,-84.23"/>
<polygon fill="#63b8ff" stroke="#63b8ff" points="120.64,-84.82 119.31,-74.31 113.79,-83.35 120.64,-84.82"/>
</g>
<!-- Node5 -->
<g id="node5" class="node">
<title>Node5</title>
<g id="a_node5"><a xlink:href="log_8h.html" target="_top" xlink:title=" ">
<polygon fill="white" stroke="#666666" points="853.71,-74 812.71,-74 812.71,-55 853.71,-55 853.71,-74"/>
<text text-anchor="middle" x="833.21" y="-62" font-family="Helvetica,sans-Serif" font-size="10.00">log.h</text>
</a>
</g>
</g>
<!-- Node1&#45;&gt;Node5 -->
<g id="edge4" class="edge">
<title>Node1&#45;&gt;Node5</title>
<path fill="none" stroke="#63b8ff" d="M131.42,-219.97C243.65,-198.53 544.02,-139.58 802.7,-74.25"/>
<polygon fill="#63b8ff" stroke="#63b8ff" points="803.83,-77.57 812.66,-71.72 802.11,-70.79 803.83,-77.57"/>
</g>
<!-- Node9 -->
<g id="node9" class="node">
<title>Node9</title>
<g id="a_node9"><a xlink:href="http_8h.html" target="_top" xlink:title=" ">
<polygon fill="white" stroke="#666666" points="184.71,-184 139.71,-184 139.71,-165 184.71,-165 184.71,-184"/>
<text text-anchor="middle" x="162.21" y="-172" font-family="Helvetica,sans-Serif" font-size="10.00">http.h</text>
</a>
</g>
</g>
<!-- Node1&#45;&gt;Node9 -->
<g id="edge9" class="edge">
<title>Node1&#45;&gt;Node9</title>
<path fill="none" stroke="#63b8ff" d="M98.42,-219.98C109.98,-211.92 127.58,-199.65 141.37,-190.03"/>
<polygon fill="#63b8ff" stroke="#63b8ff" points="143.57,-192.76 149.77,-184.17 139.57,-187.02 143.57,-192.76"/>
</g>
<!-- Node5&#45;&gt;Node2 -->
<g id="edge5" class="edge">
<title>Node5&#45;&gt;Node2</title>
<path fill="none" stroke="#63b8ff" d="M812.41,-56.89C809.67,-56.17 806.88,-55.52 804.21,-55 646.16,-24.54 453.61,-14.55 375.58,-11.61"/>
<polygon fill="#63b8ff" stroke="#63b8ff" points="375.46,-8.1 365.34,-11.24 375.21,-15.1 375.46,-8.1"/>
</g>
<!-- Node6 -->
<g id="node6" class="node">
<title>Node6</title>
<g id="a_node6"><a xlink:title=" ">
<polygon fill="#e0e0e0" stroke="#999999" points="784.21,-19 728.21,-19 728.21,0 784.21,0 784.21,-19"/>
<text text-anchor="middle" x="756.21" y="-7" font-family="Helvetica,sans-Serif" font-size="10.00">stdarg.h</text>
</a>
</g>
</g>
<!-- Node5&#45;&gt;Node6 -->
<g id="edge6" class="edge">
<title>Node5&#45;&gt;Node6</title>
<path fill="none" stroke="#63b8ff" d="M820.83,-54.98C809.12,-46.92 791.29,-34.65 777.32,-25.03"/>
<polygon fill="#63b8ff" stroke="#63b8ff" points="779.02,-21.96 768.8,-19.17 775.05,-27.72 779.02,-21.96"/>
</g>
<!-- Node7 -->
<g id="node7" class="node">
<title>Node7</title>
<g id="a_node7"><a xlink:title=" ">
<polygon fill="#e0e0e0" stroke="#999999" points="864.21,-19 802.21,-19 802.21,0 864.21,0 864.21,-19"/>
<text text-anchor="middle" x="833.21" y="-7" font-family="Helvetica,sans-Serif" font-size="10.00">stdbool.h</text>
</a>
</g>
</g>
<!-- Node5&#45;&gt;Node7 -->
<g id="edge7" class="edge">
<title>Node5&#45;&gt;Node7</title>
<path fill="none" stroke="#63b8ff" d="M833.21,-54.75C833.21,-47.8 833.21,-37.85 833.21,-29.13"/>
<polygon fill="#63b8ff" stroke="#63b8ff" points="836.71,-29.09 833.21,-19.09 829.71,-29.09 836.71,-29.09"/>
</g>
<!-- Node8 -->
<g id="node8" class="node">
<title>Node8</title>
<g id="a_node8"><a xlink:title=" ">
<polygon fill="#e0e0e0" stroke="#999999" points="930.21,-19 882.21,-19 882.21,0 930.21,0 930.21,-19"/>
<text text-anchor="middle" x="906.21" y="-7" font-family="Helvetica,sans-Serif" font-size="10.00">time.h</text>
</a>
</g>
</g>
<!-- Node5&#45;&gt;Node8 -->
<g id="edge8" class="edge">
<title>Node5&#45;&gt;Node8</title>
<path fill="none" stroke="#63b8ff" d="M844.93,-54.98C855.94,-47 872.63,-34.88 885.81,-25.31"/>
<polygon fill="#63b8ff" stroke="#63b8ff" points="888.23,-27.88 894.26,-19.17 884.11,-22.21 888.23,-27.88"/>
</g>
<!-- Node9&#45;&gt;Node3 -->
<g id="edge10" class="edge">
<title>Node9&#45;&gt;Node3</title>
<path fill="none" stroke="#63b8ff" d="M153.04,-164.66C134.08,-146.38 90.32,-104.18 66.45,-81.17"/>
<polygon fill="#63b8ff" stroke="#63b8ff" points="68.81,-78.58 59.18,-74.16 63.95,-83.62 68.81,-78.58"/>
</g>
<!-- Node9&#45;&gt;Node4 -->
<g id="edge11" class="edge">
<title>Node9&#45;&gt;Node4</title>
<path fill="none" stroke="#63b8ff" d="M158.95,-164.87C154.35,-152.65 145.66,-129.61 138.21,-110 134.9,-101.29 131.21,-91.63 128.11,-83.54"/>
<polygon fill="#63b8ff" stroke="#63b8ff" points="131.32,-82.12 124.47,-74.03 124.78,-84.62 131.32,-82.12"/>
</g>
<!-- Node10 -->
<g id="node10" class="node">
<title>Node10</title>
<g id="a_node10"><a xlink:title=" ">
<polygon fill="#e0e0e0" stroke="#999999" points="230.71,-74 165.71,-74 165.71,-55 230.71,-55 230.71,-74"/>
<text text-anchor="middle" x="198.21" y="-62" font-family="Helvetica,sans-Serif" font-size="10.00">curl/curl.h</text>
</a>
</g>
</g>
<!-- Node9&#45;&gt;Node10 -->
<g id="edge12" class="edge">
<title>Node9&#45;&gt;Node10</title>
<path fill="none" stroke="#63b8ff" d="M165.15,-164.66C171.01,-147.09 184.22,-107.45 192.05,-83.95"/>
<polygon fill="#63b8ff" stroke="#63b8ff" points="195.48,-84.75 195.32,-74.16 188.84,-82.54 195.48,-84.75"/>
</g>
<!-- Node11 -->
<g id="node11" class="node">
<title>Node11</title>
<g id="a_node11"><a xlink:href="utils_8h.html" target="_top" xlink:title=" ">
<polygon fill="white" stroke="#666666" points="448.71,-129 401.71,-129 401.71,-110 448.71,-110 448.71,-129"/>
<text text-anchor="middle" x="425.21" y="-117" font-family="Helvetica,sans-Serif" font-size="10.00">utils.h</text>
</a>
</g>
</g>
<!-- Node9&#45;&gt;Node11 -->
<g id="edge13" class="edge">
<title>Node9&#45;&gt;Node11</title>
<path fill="none" stroke="#63b8ff" d="M185.08,-168.89C231.58,-159.52 337.28,-138.22 391.6,-127.27"/>
<polygon fill="#63b8ff" stroke="#63b8ff" points="392.32,-130.7 401.43,-125.29 390.94,-123.83 392.32,-130.7"/>
</g>
<!-- Node11&#45;&gt;Node3 -->
<g id="edge14" class="edge">
<title>Node11&#45;&gt;Node3</title>
<path fill="none" stroke="#63b8ff" d="M401.65,-116.24C347.78,-110.89 211.31,-96.35 86.95,-73.95"/>
<polygon fill="#63b8ff" stroke="#63b8ff" points="87.34,-70.47 76.88,-72.12 86.09,-77.35 87.34,-70.47"/>
</g>
<!-- Node11&#45;&gt;Node4 -->
<g id="edge15" class="edge">
<title>Node11&#45;&gt;Node4</title>
<path fill="none" stroke="#63b8ff" d="M401.45,-115.1C356.12,-108.51 254,-93.09 157.79,-73.99"/>
<polygon fill="#63b8ff" stroke="#63b8ff" points="158.39,-70.54 147.9,-72.01 157.02,-77.41 158.39,-70.54"/>
</g>
<!-- Node11&#45;&gt;Node5 -->
<g id="edge23" class="edge">
<title>Node11&#45;&gt;Node5</title>
<path fill="none" stroke="#63b8ff" d="M448.93,-117.11C507.54,-113.37 663.89,-101.62 802.46,-74.06"/>
<polygon fill="#63b8ff" stroke="#63b8ff" points="803.29,-77.47 812.4,-72.05 801.91,-70.6 803.29,-77.47"/>
</g>
<!-- Node11&#45;&gt;Node10 -->
<g id="edge16" class="edge">
<title>Node11&#45;&gt;Node10</title>
<path fill="none" stroke="#63b8ff" d="M401.34,-112.93C363.27,-104.04 288.26,-86.52 240.81,-75.45"/>
<polygon fill="#63b8ff" stroke="#63b8ff" points="241.37,-71.98 230.84,-73.12 239.78,-78.8 241.37,-71.98"/>
</g>
<!-- Node12 -->
<g id="node12" class="node">
<title>Node12</title>
<g id="a_node12"><a xlink:title=" ">
<polygon fill="#e0e0e0" stroke="#999999" points="794.71,-74 741.71,-74 741.71,-55 794.71,-55 794.71,-74"/>
<text text-anchor="middle" x="768.21" y="-62" font-family="Helvetica,sans-Serif" font-size="10.00">stdint.h</text>
</a>
</g>
</g>
<!-- Node11&#45;&gt;Node12 -->
<g id="edge17" class="edge">
<title>Node11&#45;&gt;Node12</title>
<path fill="none" stroke="#63b8ff" d="M448.9,-115.85C499.21,-110.07 620.52,-95.25 731.49,-74.18"/>
<polygon fill="#63b8ff" stroke="#63b8ff" points="732.35,-77.58 741.51,-72.26 731.03,-70.71 732.35,-77.58"/>
</g>
<!-- Node13 -->
<g id="node13" class="node">
<title>Node13</title>
<g id="a_node13"><a xlink:title=" ">
<polygon fill="#e0e0e0" stroke="#999999" points="331.71,-74 248.71,-74 248.71,-55 331.71,-55 331.71,-74"/>
<text text-anchor="middle" x="290.21" y="-62" font-family="Helvetica,sans-Serif" font-size="10.00">cjson/cJSON.h</text>
</a>
</g>
</g>
<!-- Node11&#45;&gt;Node13 -->
<g id="edge18" class="edge">
<title>Node11&#45;&gt;Node13</title>
<path fill="none" stroke="#63b8ff" d="M403.52,-109.98C381.41,-101.3 346.88,-87.75 321.75,-77.88"/>
<polygon fill="#63b8ff" stroke="#63b8ff" points="322.88,-74.57 312.29,-74.17 320.32,-81.08 322.88,-74.57"/>
</g>
<!-- Node14 -->
<g id="node14" class="node">
<title>Node14</title>
<g id="a_node14"><a xlink:title=" ">
<polygon fill="#e0e0e0" stroke="#999999" points="414.21,-74 350.21,-74 350.21,-55 414.21,-55 414.21,-74"/>
<text text-anchor="middle" x="382.21" y="-62" font-family="Helvetica,sans-Serif" font-size="10.00">sys/stat.h</text>
</a>
</g>
</g>
<!-- Node11&#45;&gt;Node14 -->
<g id="edge19" class="edge">
<title>Node11&#45;&gt;Node14</title>
<path fill="none" stroke="#63b8ff" d="M418.1,-109.75C412.03,-102.26 403.12,-91.28 395.7,-82.13"/>
<polygon fill="#63b8ff" stroke="#63b8ff" points="398.19,-79.65 389.17,-74.09 392.76,-84.06 398.19,-79.65"/>
</g>
<!-- Node15 -->
<g id="node15" class="node">
<title>Node15</title>
<g id="a_node15"><a xlink:title=" ">
<polygon fill="#e0e0e0" stroke="#999999" points="504.21,-74 432.21,-74 432.21,-55 504.21,-55 504.21,-74"/>
<text text-anchor="middle" x="468.21" y="-62" font-family="Helvetica,sans-Serif" font-size="10.00">sys/types.h</text>
</a>
</g>
</g>
<!-- Node11&#45;&gt;Node15 -->
<g id="edge20" class="edge">
<title>Node11&#45;&gt;Node15</title>
<path fill="none" stroke="#63b8ff" d="M432.31,-109.75C438.38,-102.26 447.29,-91.28 454.72,-82.13"/>
<polygon fill="#63b8ff" stroke="#63b8ff" points="457.65,-84.06 461.24,-74.09 452.22,-79.65 457.65,-84.06"/>
</g>
<!-- Node16 -->
<g id="node16" class="node">
<title>Node16</title>
<g id="a_node16"><a xlink:title=" ">
<polygon fill="#e0e0e0" stroke="#999999" points="573.71,-74 522.71,-74 522.71,-55 573.71,-55 573.71,-74"/>
<text text-anchor="middle" x="548.21" y="-62" font-family="Helvetica,sans-Serif" font-size="10.00">errno.h</text>
</a>
</g>
</g>
<!-- Node11&#45;&gt;Node16 -->
<g id="edge21" class="edge">
<title>Node11&#45;&gt;Node16</title>
<path fill="none" stroke="#63b8ff" d="M444.97,-109.98C464.93,-101.38 496.01,-87.99 518.85,-78.15"/>
<polygon fill="#63b8ff" stroke="#63b8ff" points="520.28,-81.34 528.08,-74.17 517.51,-74.91 520.28,-81.34"/>
</g>
<!-- Node17 -->
<g id="node17" class="node">
<title>Node17</title>
<g id="a_node17"><a xlink:title=" ">
<polygon fill="#e0e0e0" stroke="#999999" points="642.71,-74 591.71,-74 591.71,-55 642.71,-55 642.71,-74"/>
<text text-anchor="middle" x="617.21" y="-62" font-family="Helvetica,sans-Serif" font-size="10.00">math.h</text>
</a>
</g>
</g>
<!-- Node11&#45;&gt;Node17 -->
<g id="edge22" class="edge">
<title>Node11&#45;&gt;Node17</title>
<path fill="none" stroke="#63b8ff" d="M448.75,-112C482.02,-102.82 543.07,-85.97 581.82,-75.27"/>
<polygon fill="#63b8ff" stroke="#63b8ff" points="582.93,-78.59 591.63,-72.56 581.06,-71.85 582.93,-78.59"/>
</g>
<!-- Node18 -->
<g id="node18" class="node">
<title>Node18</title>
<g id="a_node18"><a xlink:title=" ">
<polygon fill="#e0e0e0" stroke="#999999" points="723.71,-74 660.71,-74 660.71,-55 723.71,-55 723.71,-74"/>
<text text-anchor="middle" x="692.21" y="-62" font-family="Helvetica,sans-Serif" font-size="10.00">libpq&#45;fe.h</text>
</a>
</g>
</g>
<!-- Node11&#45;&gt;Node18 -->
<g id="edge24" class="edge">
<title>Node11&#45;&gt;Node18</title>
<path fill="none" stroke="#63b8ff" d="M448.76,-114.01C488.33,-106.44 570.89,-90.53 650.19,-74.39"/>
<polygon fill="#63b8ff" stroke="#63b8ff" points="651.24,-77.75 660.34,-72.32 649.84,-70.89 651.24,-77.75"/>
</g>
</g>
</svg>
