<?xml version="1.0" encoding="UTF-8" standalone="no"?>
<!DOCTYPE svg PUBLIC "-//W3C//DTD SVG 1.1//EN"
 "http://www.w3.org/Graphics/SVG/1.1/DTD/svg11.dtd">
<!-- Generated by graphviz version 2.49.3 (20211027.1534)
 -->
<!-- Title: src/Ubidots/authenticate.c Pages: 1 -->
<svg width="185pt" height="140pt"
 viewBox="0.00 0.00 184.50 140.00" xmlns="http://www.w3.org/2000/svg" xmlns:xlink="http://www.w3.org/1999/xlink">
<g id="graph0" class="graph" transform="scale(1 1) rotate(0) translate(4 136)">
<title>src/Ubidots/authenticate.c</title>
<!-- Node1 -->
<g id="node1" class="node">
<title>Node1</title>
<g id="a_node1"><a xlink:title=" ">
<polygon fill="#bfbfbf" stroke="black" points="21,-112.5 21,-131.5 152,-131.5 152,-112.5 21,-112.5"/>
<text text-anchor="middle" x="86.5" y="-119.5" font-family="Helvetica,sans-Serif" font-size="10.00">src/Ubidots/authenticate.c</text>
</a>
</g>
</g>
<!-- Node2 -->
<g id="node2" class="node">
<title>Node2</title>
<g id="a_node2"><a xlink:href="_ubidots_2authenticate_8h.html" target="_top" xlink:title=" ">
<polygon fill="none" stroke="black" points="29.5,-56.5 29.5,-75.5 143.5,-75.5 143.5,-56.5 29.5,-56.5"/>
<text text-anchor="middle" x="86.5" y="-63.5" font-family="Helvetica,sans-Serif" font-size="10.00">Ubidots/authenticate.h</text>
</a>
</g>
</g>
<!-- Node1&#45;&gt;Node2 -->
<g id="edge1" class="edge">
<title>Node1&#45;&gt;Node2</title>
<path fill="none" stroke="midnightblue" d="M86.5,-112.08C86.5,-105.01 86.5,-94.86 86.5,-85.99"/>
<polygon fill="midnightblue" stroke="midnightblue" points="90,-85.75 86.5,-75.75 83,-85.75 90,-85.75"/>
</g>
<!-- Node3 -->
<g id="node3" class="node">
<title>Node3</title>
<g id="a_node3"><a xlink:title=" ">
<polygon fill="none" stroke="#bfbfbf" points="0,-0.5 0,-19.5 45,-19.5 45,-0.5 0,-0.5"/>
<text text-anchor="middle" x="22.5" y="-7.5" font-family="Helvetica,sans-Serif" font-size="10.00">stdio.h</text>
</a>
</g>
</g>
<!-- Node2&#45;&gt;Node3 -->
<g id="edge2" class="edge">
<title>Node2&#45;&gt;Node3</title>
<path fill="none" stroke="midnightblue" d="M76.22,-56.32C66.66,-48.26 52.22,-36.08 40.72,-26.37"/>
<polygon fill="midnightblue" stroke="midnightblue" points="42.87,-23.61 32.97,-19.83 38.36,-28.96 42.87,-23.61"/>
</g>
<!-- Node4 -->
<g id="node4" class="node">
<title>Node4</title>
<g id="a_node4"><a xlink:title=" ">
<polygon fill="none" stroke="#bfbfbf" points="63,-0.5 63,-19.5 110,-19.5 110,-0.5 63,-0.5"/>
<text text-anchor="middle" x="86.5" y="-7.5" font-family="Helvetica,sans-Serif" font-size="10.00">stdlib.h</text>
</a>
</g>
</g>
<!-- Node2&#45;&gt;Node4 -->
<g id="edge3" class="edge">
<title>Node2&#45;&gt;Node4</title>
<path fill="none" stroke="midnightblue" d="M86.5,-56.08C86.5,-49.01 86.5,-38.86 86.5,-29.99"/>
<polygon fill="midnightblue" stroke="midnightblue" points="90,-29.75 86.5,-19.75 83,-29.75 90,-29.75"/>
</g>
<!-- Node5 -->
<g id="node5" class="node">
<title>Node5</title>
<g id="a_node5"><a xlink:title=" ">
<polygon fill="none" stroke="#bfbfbf" points="128.5,-0.5 128.5,-19.5 176.5,-19.5 176.5,-0.5 128.5,-0.5"/>
<text text-anchor="middle" x="152.5" y="-7.5" font-family="Helvetica,sans-Serif" font-size="10.00">string.h</text>
</a>
</g>
</g>
<!-- Node2&#45;&gt;Node5 -->
<g id="edge4" class="edge">
<title>Node2&#45;&gt;Node5</title>
<path fill="none" stroke="midnightblue" d="M97.1,-56.32C106.96,-48.26 121.85,-36.08 133.72,-26.37"/>
<polygon fill="midnightblue" stroke="midnightblue" points="136.18,-28.88 141.7,-19.83 131.75,-23.46 136.18,-28.88"/>
</g>
</g>
</svg>
