<?xml version="1.0" encoding="UTF-8" standalone="no"?>
<!DOCTYPE svg PUBLIC "-//W3C//DTD SVG 1.1//EN"
 "http://www.w3.org/Graphics/SVG/1.1/DTD/svg11.dtd">
<!-- Generated by graphviz version 2.43.0 (0)
 -->
<!-- Title: include/WillyWeather/authenticate.h Pages: 1 -->
<svg width="1101pt" height="357pt"
 viewBox="0.00 0.00 1101.00 357.00" xmlns="http://www.w3.org/2000/svg" xmlns:xlink="http://www.w3.org/1999/xlink">
<g id="graph0" class="graph" transform="scale(1 1) rotate(0) translate(4 353)">
<title>include/WillyWeather/authenticate.h</title>
<!-- Node1 -->
<g id="node1" class="node">
<title>Node1</title>
<g id="a_node1"><a xlink:title=" ">
<polygon fill="#999999" stroke="#666666" points="934,-349 814,-349 814,-319 934,-319 934,-349"/>
<text text-anchor="start" x="822" y="-337" font-family="Helvetica,sans-Serif" font-size="10.00">include/WillyWeather</text>
<text text-anchor="middle" x="874" y="-326" font-family="Helvetica,sans-Serif" font-size="10.00">/authenticate.h</text>
</a>
</g>
</g>
<!-- Node2 -->
<g id="node2" class="node">
<title>Node2</title>
<g id="a_node2"><a xlink:href="location_8h.html" target="_top" xlink:title=" ">
<polygon fill="white" stroke="#666666" points="795,-283 675,-283 675,-253 795,-253 795,-283"/>
<text text-anchor="start" x="683" y="-271" font-family="Helvetica,sans-Serif" font-size="10.00">include/WillyWeather</text>
<text text-anchor="middle" x="735" y="-260" font-family="Helvetica,sans-Serif" font-size="10.00">/location.h</text>
</a>
</g>
</g>
<!-- Node1&#45;&gt;Node2 -->
<g id="edge1" class="edge">
<title>Node1&#45;&gt;Node2</title>
<path fill="none" stroke="#63b8ff" d="M834.14,-314.65C812.28,-304.58 785.61,-292.3 765.43,-283.01"/>
<polygon fill="#63b8ff" stroke="#63b8ff" points="832.95,-317.95 843.5,-318.95 835.88,-311.59 832.95,-317.95"/>
</g>
<!-- Node4 -->
<g id="node4" class="node">
<title>Node4</title>
<g id="a_node4"><a xlink:href="main_8h.html" target="_top" xlink:title=" ">
<polygon fill="white" stroke="#666666" points="645.5,-79.5 556.5,-79.5 556.5,-60.5 645.5,-60.5 645.5,-79.5"/>
<text text-anchor="middle" x="601" y="-67.5" font-family="Helvetica,sans-Serif" font-size="10.00">include/main.h</text>
</a>
</g>
</g>
<!-- Node1&#45;&gt;Node4 -->
<g id="edge24" class="edge">
<title>Node1&#45;&gt;Node4</title>
<path fill="none" stroke="#63b8ff" d="M874.58,-308.9C874.24,-264.93 866.9,-171.56 814,-121 790.18,-98.23 700.81,-83.36 645.68,-76.14"/>
<polygon fill="#63b8ff" stroke="#63b8ff" points="871.08,-308.95 874.53,-318.96 878.08,-308.98 871.08,-308.95"/>
</g>
<!-- Node9 -->
<g id="node9" class="node">
<title>Node9</title>
<g id="a_node9"><a xlink:href="tide_8h.html" target="_top" xlink:title=" ">
<polygon fill="white" stroke="#666666" points="1003,-217 883,-217 883,-187 1003,-187 1003,-217"/>
<text text-anchor="start" x="891" y="-205" font-family="Helvetica,sans-Serif" font-size="10.00">include/WillyWeather</text>
<text text-anchor="middle" x="943" y="-194" font-family="Helvetica,sans-Serif" font-size="10.00">/tide.h</text>
</a>
</g>
</g>
<!-- Node1&#45;&gt;Node9 -->
<g id="edge23" class="edge">
<title>Node1&#45;&gt;Node9</title>
<path fill="none" stroke="#63b8ff" d="M884.26,-309.66C891.55,-293.51 901.82,-271.67 912,-253 918.75,-240.63 927.23,-227.06 933.61,-217.19"/>
<polygon fill="#63b8ff" stroke="#63b8ff" points="881.01,-308.33 880.13,-318.89 887.4,-311.19 881.01,-308.33"/>
</g>
<!-- Node18 -->
<g id="node18" class="node">
<title>Node18</title>
<g id="a_node18"><a xlink:href="_willy_weather_2authenticate_8c.html" target="_top" xlink:title=" ">
<polygon fill="white" stroke="#666666" points="1093,-277.5 921,-277.5 921,-258.5 1093,-258.5 1093,-277.5"/>
<text text-anchor="middle" x="1007" y="-265.5" font-family="Helvetica,sans-Serif" font-size="10.00">src/WillyWeather/authenticate.c</text>
</a>
</g>
</g>
<!-- Node1&#45;&gt;Node18 -->
<g id="edge25" class="edge">
<title>Node1&#45;&gt;Node18</title>
<path fill="none" stroke="#63b8ff" d="M912.53,-314.46C937.86,-302.27 969.8,-286.9 989.3,-277.52"/>
<polygon fill="#63b8ff" stroke="#63b8ff" points="910.68,-311.46 903.19,-318.95 913.72,-317.77 910.68,-311.46"/>
</g>
<!-- Node3 -->
<g id="node3" class="node">
<title>Node3</title>
<g id="a_node3"><a xlink:href="harvest__areas_8h.html" target="_top" xlink:title=" ">
<polygon fill="white" stroke="#666666" points="132.5,-151 9.5,-151 9.5,-121 132.5,-121 132.5,-151"/>
<text text-anchor="start" x="17.5" y="-139" font-family="Helvetica,sans-Serif" font-size="10.00">include/FoodAuthority</text>
<text text-anchor="middle" x="71" y="-128" font-family="Helvetica,sans-Serif" font-size="10.00">/harvest_areas.h</text>
</a>
</g>
</g>
<!-- Node2&#45;&gt;Node3 -->
<g id="edge2" class="edge">
<title>Node2&#45;&gt;Node3</title>
<path fill="none" stroke="#63b8ff" d="M664.64,-261.27C586.31,-254.12 456.2,-239.97 346,-217 261.55,-199.4 165.25,-168.91 111.96,-151.09"/>
<polygon fill="#63b8ff" stroke="#63b8ff" points="664.6,-264.78 674.88,-262.19 665.23,-257.81 664.6,-264.78"/>
</g>
<!-- Node7 -->
<g id="node7" class="node">
<title>Node7</title>
<g id="a_node7"><a xlink:href="precipitation_8h.html" target="_top" xlink:title=" ">
<polygon fill="white" stroke="#666666" points="811,-217 691,-217 691,-187 811,-187 811,-217"/>
<text text-anchor="start" x="699" y="-205" font-family="Helvetica,sans-Serif" font-size="10.00">include/WillyWeather</text>
<text text-anchor="middle" x="751" y="-194" font-family="Helvetica,sans-Serif" font-size="10.00">/precipitation.h</text>
</a>
</g>
</g>
<!-- Node2&#45;&gt;Node7 -->
<g id="edge6" class="edge">
<title>Node2&#45;&gt;Node7</title>
<path fill="none" stroke="#63b8ff" d="M741.04,-242.83C743.21,-234.17 745.58,-224.7 747.46,-217.16"/>
<polygon fill="#63b8ff" stroke="#63b8ff" points="737.58,-242.25 738.55,-252.8 744.37,-243.94 737.58,-242.25"/>
</g>
<!-- Node2&#45;&gt;Node9 -->
<g id="edge9" class="edge">
<title>Node2&#45;&gt;Node9</title>
<path fill="none" stroke="#63b8ff" d="M790.29,-249.99C823.75,-239.69 865.92,-226.72 897.46,-217.01"/>
<polygon fill="#63b8ff" stroke="#63b8ff" points="789.17,-246.67 780.65,-252.95 791.23,-253.36 789.17,-246.67"/>
</g>
<!-- Node11 -->
<g id="node11" class="node">
<title>Node11</title>
<g id="a_node11"><a xlink:href="transform_8h.html" target="_top" xlink:title=" ">
<polygon fill="white" stroke="#666666" points="467,-211.5 355,-211.5 355,-192.5 467,-192.5 467,-211.5"/>
<text text-anchor="middle" x="411" y="-199.5" font-family="Helvetica,sans-Serif" font-size="10.00">include/transform.h</text>
</a>
</g>
</g>
<!-- Node2&#45;&gt;Node11 -->
<g id="edge12" class="edge">
<title>Node2&#45;&gt;Node11</title>
<path fill="none" stroke="#63b8ff" d="M664.79,-253.13C600.74,-240.48 508.12,-222.18 454.28,-211.55"/>
<polygon fill="#63b8ff" stroke="#63b8ff" points="664.33,-256.61 674.82,-255.11 665.69,-249.74 664.33,-256.61"/>
</g>
<!-- Node17 -->
<g id="node17" class="node">
<title>Node17</title>
<g id="a_node17"><a xlink:href="location_8c.html" target="_top" xlink:title=" ">
<polygon fill="white" stroke="#666666" points="673.5,-211.5 524.5,-211.5 524.5,-192.5 673.5,-192.5 673.5,-211.5"/>
<text text-anchor="middle" x="599" y="-199.5" font-family="Helvetica,sans-Serif" font-size="10.00">src/WillyWeather/location.c</text>
</a>
</g>
</g>
<!-- Node2&#45;&gt;Node17 -->
<g id="edge22" class="edge">
<title>Node2&#45;&gt;Node17</title>
<path fill="none" stroke="#63b8ff" d="M695.94,-248.62C669.99,-236.41 637.12,-220.94 617.1,-211.52"/>
<polygon fill="#63b8ff" stroke="#63b8ff" points="694.62,-251.86 705.15,-252.95 697.6,-245.53 694.62,-251.86"/>
</g>
<!-- Node3&#45;&gt;Node4 -->
<g id="edge3" class="edge">
<title>Node3&#45;&gt;Node4</title>
<path fill="none" stroke="#63b8ff" d="M142.6,-121.04C323.13,-96.18 372.79,-115.68 548,-85 555.97,-83.6 564.49,-81.59 572.31,-79.53"/>
<polygon fill="#63b8ff" stroke="#63b8ff" points="141.92,-117.6 132.51,-122.46 142.89,-124.53 141.92,-117.6"/>
</g>
<!-- Node6 -->
<g id="node6" class="node">
<title>Node6</title>
<g id="a_node6"><a xlink:href="harvest__areas_8c.html" target="_top" xlink:title=" ">
<polygon fill="white" stroke="#666666" points="142,-85 0,-85 0,-55 142,-55 142,-85"/>
<text text-anchor="start" x="8" y="-73" font-family="Helvetica,sans-Serif" font-size="10.00">src/FoodAuthority/harvest</text>
<text text-anchor="middle" x="71" y="-62" font-family="Helvetica,sans-Serif" font-size="10.00">_areas.c</text>
</a>
</g>
</g>
<!-- Node3&#45;&gt;Node6 -->
<g id="edge5" class="edge">
<title>Node3&#45;&gt;Node6</title>
<path fill="none" stroke="#63b8ff" d="M71,-110.54C71,-101.96 71,-92.61 71,-85.16"/>
<polygon fill="#63b8ff" stroke="#63b8ff" points="67.5,-110.8 71,-120.8 74.5,-110.8 67.5,-110.8"/>
</g>
<!-- Node5 -->
<g id="node5" class="node">
<title>Node5</title>
<g id="a_node5"><a xlink:href="main_8c.html" target="_top" xlink:title=" ">
<polygon fill="white" stroke="#666666" points="634.5,-19 567.5,-19 567.5,0 634.5,0 634.5,-19"/>
<text text-anchor="middle" x="601" y="-7" font-family="Helvetica,sans-Serif" font-size="10.00">src/main.c</text>
</a>
</g>
</g>
<!-- Node4&#45;&gt;Node5 -->
<g id="edge4" class="edge">
<title>Node4&#45;&gt;Node5</title>
<path fill="none" stroke="#63b8ff" d="M601,-50.16C601,-39.74 601,-27.3 601,-19.17"/>
<polygon fill="#63b8ff" stroke="#63b8ff" points="597.5,-50.37 601,-60.37 604.5,-50.37 597.5,-50.37"/>
</g>
<!-- Node7&#45;&gt;Node4 -->
<g id="edge7" class="edge">
<title>Node7&#45;&gt;Node4</title>
<path fill="none" stroke="#63b8ff" d="M777.21,-180.01C794.88,-163.29 812.54,-139.69 798,-121 779.48,-97.19 697.8,-82.88 645.61,-76"/>
<polygon fill="#63b8ff" stroke="#63b8ff" points="774.84,-177.43 769.73,-186.71 779.52,-182.64 774.84,-177.43"/>
</g>
<!-- Node8 -->
<g id="node8" class="node">
<title>Node8</title>
<g id="a_node8"><a xlink:href="precipitation_8c.html" target="_top" xlink:title=" ">
<polygon fill="white" stroke="#666666" points="789,-145.5 617,-145.5 617,-126.5 789,-126.5 789,-145.5"/>
<text text-anchor="middle" x="703" y="-133.5" font-family="Helvetica,sans-Serif" font-size="10.00">src/WillyWeather/precipitation.c</text>
</a>
</g>
</g>
<!-- Node7&#45;&gt;Node8 -->
<g id="edge8" class="edge">
<title>Node7&#45;&gt;Node8</title>
<path fill="none" stroke="#63b8ff" d="M734.21,-178.61C725.74,-167.32 715.96,-154.28 709.63,-145.84"/>
<polygon fill="#63b8ff" stroke="#63b8ff" points="731.55,-180.9 740.35,-186.8 737.15,-176.7 731.55,-180.9"/>
</g>
<!-- Node9&#45;&gt;Node4 -->
<g id="edge10" class="edge">
<title>Node9&#45;&gt;Node4</title>
<path fill="none" stroke="#63b8ff" d="M928.33,-178.41C915.09,-159.95 893.91,-134.75 869,-121 797.73,-81.66 701.25,-72.61 645.61,-70.91"/>
<polygon fill="#63b8ff" stroke="#63b8ff" points="925.6,-180.62 934.17,-186.85 931.35,-176.63 925.6,-180.62"/>
</g>
<!-- Node10 -->
<g id="node10" class="node">
<title>Node10</title>
<g id="a_node10"><a xlink:href="tide_8c.html" target="_top" xlink:title=" ">
<polygon fill="white" stroke="#666666" points="1050.5,-145.5 921.5,-145.5 921.5,-126.5 1050.5,-126.5 1050.5,-145.5"/>
<text text-anchor="middle" x="986" y="-133.5" font-family="Helvetica,sans-Serif" font-size="10.00">src/WillyWeather/tide.c</text>
</a>
</g>
</g>
<!-- Node9&#45;&gt;Node10 -->
<g id="edge11" class="edge">
<title>Node9&#45;&gt;Node10</title>
<path fill="none" stroke="#63b8ff" d="M958.27,-178.28C965.8,-167.07 974.45,-154.19 980.06,-145.84"/>
<polygon fill="#63b8ff" stroke="#63b8ff" points="955.21,-176.54 952.54,-186.8 961.03,-180.45 955.21,-176.54"/>
</g>
<!-- Node11&#45;&gt;Node3 -->
<g id="edge16" class="edge">
<title>Node11&#45;&gt;Node3</title>
<path fill="none" stroke="#63b8ff" d="M354.17,-190.62C299.71,-180.63 215.19,-165.02 142,-151 138.92,-150.41 135.76,-149.8 132.57,-149.18"/>
<polygon fill="#63b8ff" stroke="#63b8ff" points="353.85,-194.12 364.32,-192.48 355.11,-187.24 353.85,-194.12"/>
</g>
<!-- Node11&#45;&gt;Node4 -->
<g id="edge20" class="edge">
<title>Node11&#45;&gt;Node4</title>
<path fill="none" stroke="#63b8ff" d="M477.2,-193.62C508.68,-187.03 544.85,-174.57 570,-151 590.87,-131.45 597.87,-96.22 600.07,-79.83"/>
<polygon fill="#63b8ff" stroke="#63b8ff" points="476.31,-190.22 467.16,-195.55 477.64,-197.09 476.31,-190.22"/>
</g>
<!-- Node12 -->
<g id="node12" class="node">
<title>Node12</title>
<g id="a_node12"><a xlink:href="historical__weather_8h.html" target="_top" xlink:title=" ">
<polygon fill="white" stroke="#666666" points="561,-151 435,-151 435,-121 561,-121 561,-151"/>
<text text-anchor="start" x="443" y="-139" font-family="Helvetica,sans-Serif" font-size="10.00">include/BOM/historical</text>
<text text-anchor="middle" x="498" y="-128" font-family="Helvetica,sans-Serif" font-size="10.00">_weather.h</text>
</a>
</g>
</g>
<!-- Node11&#45;&gt;Node12 -->
<g id="edge13" class="edge">
<title>Node11&#45;&gt;Node12</title>
<path fill="none" stroke="#63b8ff" d="M430.96,-186.32C445.33,-175.74 464.62,-161.56 478.81,-151.12"/>
<polygon fill="#63b8ff" stroke="#63b8ff" points="428.71,-183.62 422.73,-192.37 432.86,-189.26 428.71,-183.62"/>
</g>
<!-- Node14 -->
<g id="node14" class="node">
<title>Node14</title>
<g id="a_node14"><a xlink:href="timeseries_8h.html" target="_top" xlink:title=" ">
<polygon fill="white" stroke="#666666" points="309,-145.5 151,-145.5 151,-126.5 309,-126.5 309,-145.5"/>
<text text-anchor="middle" x="230" y="-133.5" font-family="Helvetica,sans-Serif" font-size="10.00">include/IBM_EIS/timeseries.h</text>
</a>
</g>
</g>
<!-- Node11&#45;&gt;Node14 -->
<g id="edge17" class="edge">
<title>Node11&#45;&gt;Node14</title>
<path fill="none" stroke="#63b8ff" d="M377.07,-189C341.32,-176.36 285.93,-156.78 254.31,-145.6"/>
<polygon fill="#63b8ff" stroke="#63b8ff" points="375.99,-192.33 386.59,-192.37 378.33,-185.74 375.99,-192.33"/>
</g>
<!-- Node16 -->
<g id="node16" class="node">
<title>Node16</title>
<g id="a_node16"><a xlink:href="transform_8c.html" target="_top" xlink:title=" ">
<polygon fill="white" stroke="#666666" points="417,-145.5 327,-145.5 327,-126.5 417,-126.5 417,-145.5"/>
<text text-anchor="middle" x="372" y="-133.5" font-family="Helvetica,sans-Serif" font-size="10.00">src/transform.c</text>
</a>
</g>
</g>
<!-- Node11&#45;&gt;Node16 -->
<g id="edge21" class="edge">
<title>Node11&#45;&gt;Node16</title>
<path fill="none" stroke="#63b8ff" d="M400.37,-183.55C392.94,-171.36 383.34,-155.61 377.43,-145.91"/>
<polygon fill="#63b8ff" stroke="#63b8ff" points="397.55,-185.65 405.74,-192.37 403.53,-182.01 397.55,-185.65"/>
</g>
<!-- Node12&#45;&gt;Node4 -->
<g id="edge14" class="edge">
<title>Node12&#45;&gt;Node4</title>
<path fill="none" stroke="#63b8ff" d="M529.14,-115.65C548.54,-103.6 572.53,-88.69 587.29,-79.52"/>
<polygon fill="#63b8ff" stroke="#63b8ff" points="527.25,-112.7 520.6,-120.95 530.94,-118.65 527.25,-112.7"/>
</g>
<!-- Node13 -->
<g id="node13" class="node">
<title>Node13</title>
<g id="a_node13"><a xlink:href="historical__weather_8c.html" target="_top" xlink:title=" ">
<polygon fill="white" stroke="#666666" points="538.5,-85 433.5,-85 433.5,-55 538.5,-55 538.5,-85"/>
<text text-anchor="start" x="441.5" y="-73" font-family="Helvetica,sans-Serif" font-size="10.00">src/BOM/historical</text>
<text text-anchor="middle" x="486" y="-62" font-family="Helvetica,sans-Serif" font-size="10.00">_weather.c</text>
</a>
</g>
</g>
<!-- Node12&#45;&gt;Node13 -->
<g id="edge15" class="edge">
<title>Node12&#45;&gt;Node13</title>
<path fill="none" stroke="#63b8ff" d="M493.47,-110.83C491.84,-102.17 490.07,-92.7 488.66,-85.16"/>
<polygon fill="#63b8ff" stroke="#63b8ff" points="490.05,-111.61 495.34,-120.8 496.93,-110.32 490.05,-111.61"/>
</g>
<!-- Node14&#45;&gt;Node4 -->
<g id="edge18" class="edge">
<title>Node14&#45;&gt;Node4</title>
<path fill="none" stroke="#63b8ff" d="M293.49,-124.88C301.74,-123.57 310.07,-122.25 318,-121 420.2,-104.87 446.74,-106.24 548,-85 555.45,-83.44 563.42,-81.48 570.86,-79.54"/>
<polygon fill="#63b8ff" stroke="#63b8ff" points="292.84,-121.44 283.51,-126.46 293.94,-128.35 292.84,-121.44"/>
</g>
<!-- Node15 -->
<g id="node15" class="node">
<title>Node15</title>
<g id="a_node15"><a xlink:href="timeseries_8c.html" target="_top" xlink:title=" ">
<polygon fill="white" stroke="#666666" points="298,-79.5 162,-79.5 162,-60.5 298,-60.5 298,-79.5"/>
<text text-anchor="middle" x="230" y="-67.5" font-family="Helvetica,sans-Serif" font-size="10.00">src/IBM_EIS/timeseries.c</text>
</a>
</g>
</g>
<!-- Node14&#45;&gt;Node15 -->
<g id="edge19" class="edge">
<title>Node14&#45;&gt;Node15</title>
<path fill="none" stroke="#63b8ff" d="M230,-116.08C230,-104.13 230,-89.22 230,-79.91"/>
<polygon fill="#63b8ff" stroke="#63b8ff" points="226.5,-116.37 230,-126.37 233.5,-116.37 226.5,-116.37"/>
</g>
</g>
</svg>
