<?xml version="1.0" encoding="UTF-8" standalone="no"?>
<!DOCTYPE svg PUBLIC "-//W3C//DTD SVG 1.1//EN"
 "http://www.w3.org/Graphics/SVG/1.1/DTD/svg11.dtd">
<!-- Generated by graphviz version 2.49.3 (20211027.1534)
 -->
<!-- Title: include/WillyWeather/authenticate.h Pages: 1 -->
<svg width="495pt" height="285pt"
 viewBox="0.00 0.00 495.00 285.00" xmlns="http://www.w3.org/2000/svg" xmlns:xlink="http://www.w3.org/1999/xlink">
<g id="graph0" class="graph" transform="scale(1 1) rotate(0) translate(4 281)">
<title>include/WillyWeather/authenticate.h</title>
<!-- Node1 -->
<g id="node1" class="node">
<title>Node1</title>
<g id="a_node1"><a xlink:title=" ">
<polygon fill="#bfbfbf" stroke="black" points="211,-246.5 211,-276.5 318,-276.5 318,-246.5 211,-246.5"/>
<text text-anchor="start" x="219" y="-264.5" font-family="Helvetica,sans-Serif" font-size="10.00">include/WillyWeather</text>
<text text-anchor="middle" x="264.5" y="-253.5" font-family="Helvetica,sans-Serif" font-size="10.00">/authenticate.h</text>
</a>
</g>
</g>
<!-- Node2 -->
<g id="node2" class="node">
<title>Node2</title>
<g id="a_node2"><a xlink:href="location_8h.html" target="_top" xlink:title=" ">
<polygon fill="none" stroke="black" points="170,-179.5 170,-209.5 277,-209.5 277,-179.5 170,-179.5"/>
<text text-anchor="start" x="178" y="-197.5" font-family="Helvetica,sans-Serif" font-size="10.00">include/WillyWeather</text>
<text text-anchor="middle" x="223.5" y="-186.5" font-family="Helvetica,sans-Serif" font-size="10.00">/location.h</text>
</a>
</g>
</g>
<!-- Node1&#45;&gt;Node2 -->
<g id="edge1" class="edge">
<title>Node1&#45;&gt;Node2</title>
<path fill="none" stroke="midnightblue" d="M250.22,-237.87C244.29,-228.46 237.59,-217.83 232.38,-209.58"/>
<polygon fill="midnightblue" stroke="midnightblue" points="247.31,-239.81 255.6,-246.4 253.23,-236.07 247.31,-239.81"/>
</g>
<!-- Node4 -->
<g id="node4" class="node">
<title>Node4</title>
<g id="a_node4"><a xlink:href="main_8h.html" target="_top" xlink:title=" ">
<polygon fill="none" stroke="black" points="0,-56.5 0,-75.5 79,-75.5 79,-56.5 0,-56.5"/>
<text text-anchor="middle" x="39.5" y="-63.5" font-family="Helvetica,sans-Serif" font-size="10.00">include/main.h</text>
</a>
</g>
</g>
<!-- Node1&#45;&gt;Node4 -->
<g id="edge11" class="edge">
<title>Node1&#45;&gt;Node4</title>
<path fill="none" stroke="midnightblue" d="M201.04,-249.32C143.05,-235.37 60.57,-205.29 21.5,-143 7.95,-121.4 24.01,-90.54 33.5,-75.67"/>
<polygon fill="midnightblue" stroke="midnightblue" points="200.31,-252.74 210.84,-251.58 201.88,-245.92 200.31,-252.74"/>
</g>
<!-- Node7 -->
<g id="node7" class="node">
<title>Node7</title>
<g id="a_node7"><a xlink:href="tide_8h.html" target="_top" xlink:title=" ">
<polygon fill="none" stroke="black" points="309,-112.5 309,-142.5 416,-142.5 416,-112.5 309,-112.5"/>
<text text-anchor="start" x="317" y="-130.5" font-family="Helvetica,sans-Serif" font-size="10.00">include/WillyWeather</text>
<text text-anchor="middle" x="362.5" y="-119.5" font-family="Helvetica,sans-Serif" font-size="10.00">/tide.h</text>
</a>
</g>
</g>
<!-- Node1&#45;&gt;Node7 -->
<g id="edge10" class="edge">
<title>Node1&#45;&gt;Node7</title>
<path fill="none" stroke="midnightblue" d="M281.01,-237.94C293.03,-221.55 309.72,-198.86 324.5,-179 333.67,-166.68 344.18,-152.73 351.81,-142.62"/>
<polygon fill="midnightblue" stroke="midnightblue" points="277.95,-236.2 274.86,-246.33 283.59,-240.34 277.95,-236.2"/>
</g>
<!-- Node10 -->
<g id="node10" class="node">
<title>Node10</title>
<g id="a_node10"><a xlink:href="_willy_weather_2authenticate_8c.html" target="_top" xlink:title=" ">
<polygon fill="none" stroke="black" points="334,-185 334,-204 487,-204 487,-185 334,-185"/>
<text text-anchor="middle" x="410.5" y="-192" font-family="Helvetica,sans-Serif" font-size="10.00">src/WillyWeather/authenticate.c</text>
</a>
</g>
</g>
<!-- Node1&#45;&gt;Node10 -->
<g id="edge12" class="edge">
<title>Node1&#45;&gt;Node10</title>
<path fill="none" stroke="midnightblue" d="M305.39,-242.3C333.55,-229.76 369.66,-213.68 391.39,-204.01"/>
<polygon fill="midnightblue" stroke="midnightblue" points="303.89,-239.13 296.18,-246.4 306.74,-245.53 303.89,-239.13"/>
</g>
<!-- Node3 -->
<g id="node3" class="node">
<title>Node3</title>
<g id="a_node3"><a xlink:href="precipitation_8h.html" target="_top" xlink:title=" ">
<polygon fill="none" stroke="black" points="31,-112.5 31,-142.5 138,-142.5 138,-112.5 31,-112.5"/>
<text text-anchor="start" x="39" y="-130.5" font-family="Helvetica,sans-Serif" font-size="10.00">include/WillyWeather</text>
<text text-anchor="middle" x="84.5" y="-119.5" font-family="Helvetica,sans-Serif" font-size="10.00">/precipitation.h</text>
</a>
</g>
</g>
<!-- Node2&#45;&gt;Node3 -->
<g id="edge2" class="edge">
<title>Node2&#45;&gt;Node3</title>
<path fill="none" stroke="midnightblue" d="M184.22,-175.13C162.13,-164.8 134.99,-152.11 114.6,-142.58"/>
<polygon fill="midnightblue" stroke="midnightblue" points="182.8,-178.33 193.34,-179.4 185.76,-171.99 182.8,-178.33"/>
</g>
<!-- Node2&#45;&gt;Node7 -->
<g id="edge6" class="edge">
<title>Node2&#45;&gt;Node7</title>
<path fill="none" stroke="midnightblue" d="M262.78,-175.13C284.87,-164.8 312.01,-152.11 332.4,-142.58"/>
<polygon fill="midnightblue" stroke="midnightblue" points="261.24,-171.99 253.66,-179.4 264.2,-178.33 261.24,-171.99"/>
</g>
<!-- Node9 -->
<g id="node9" class="node">
<title>Node9</title>
<g id="a_node9"><a xlink:href="location_8c.html" target="_top" xlink:title=" ">
<polygon fill="none" stroke="black" points="156.5,-118 156.5,-137 290.5,-137 290.5,-118 156.5,-118"/>
<text text-anchor="middle" x="223.5" y="-125" font-family="Helvetica,sans-Serif" font-size="10.00">src/WillyWeather/location.c</text>
</a>
</g>
</g>
<!-- Node2&#45;&gt;Node9 -->
<g id="edge9" class="edge">
<title>Node2&#45;&gt;Node9</title>
<path fill="none" stroke="midnightblue" d="M223.5,-169.25C223.5,-158.02 223.5,-145.38 223.5,-137.19"/>
<polygon fill="midnightblue" stroke="midnightblue" points="220,-169.4 223.5,-179.4 227,-169.4 220,-169.4"/>
</g>
<!-- Node3&#45;&gt;Node4 -->
<g id="edge3" class="edge">
<title>Node3&#45;&gt;Node4</title>
<path fill="none" stroke="midnightblue" d="M67.79,-104.4C60.23,-94.41 51.74,-83.18 46.05,-75.66"/>
<polygon fill="midnightblue" stroke="midnightblue" points="65.01,-106.53 73.84,-112.4 70.6,-102.31 65.01,-106.53"/>
</g>
<!-- Node6 -->
<g id="node6" class="node">
<title>Node6</title>
<g id="a_node6"><a xlink:href="precipitation_8c.html" target="_top" xlink:title=" ">
<polygon fill="none" stroke="black" points="97.5,-56.5 97.5,-75.5 249.5,-75.5 249.5,-56.5 97.5,-56.5"/>
<text text-anchor="middle" x="173.5" y="-63.5" font-family="Helvetica,sans-Serif" font-size="10.00">src/WillyWeather/precipitation.c</text>
</a>
</g>
</g>
<!-- Node3&#45;&gt;Node6 -->
<g id="edge5" class="edge">
<title>Node3&#45;&gt;Node6</title>
<path fill="none" stroke="midnightblue" d="M114,-106.78C129.78,-96.23 148.4,-83.78 160.55,-75.66"/>
<polygon fill="midnightblue" stroke="midnightblue" points="111.96,-103.93 105.59,-112.4 115.85,-109.75 111.96,-103.93"/>
</g>
<!-- Node5 -->
<g id="node5" class="node">
<title>Node5</title>
<g id="a_node5"><a xlink:href="main_8c.html" target="_top" xlink:title=" ">
<polygon fill="none" stroke="black" points="8.5,-0.5 8.5,-19.5 70.5,-19.5 70.5,-0.5 8.5,-0.5"/>
<text text-anchor="middle" x="39.5" y="-7.5" font-family="Helvetica,sans-Serif" font-size="10.00">src/main.c</text>
</a>
</g>
</g>
<!-- Node4&#45;&gt;Node5 -->
<g id="edge4" class="edge">
<title>Node4&#45;&gt;Node5</title>
<path fill="none" stroke="midnightblue" d="M39.5,-45.8C39.5,-36.91 39.5,-26.78 39.5,-19.75"/>
<polygon fill="midnightblue" stroke="midnightblue" points="36,-46.08 39.5,-56.08 43,-46.08 36,-46.08"/>
</g>
<!-- Node7&#45;&gt;Node4 -->
<g id="edge7" class="edge">
<title>Node7&#45;&gt;Node4</title>
<path fill="none" stroke="midnightblue" d="M298.95,-111.96C204.54,-93.26 179.06,-92.04 88.5,-76 85.43,-75.46 82.26,-74.89 79.07,-74.31"/>
<polygon fill="midnightblue" stroke="midnightblue" points="298.44,-115.43 308.93,-113.95 299.81,-108.56 298.44,-115.43"/>
</g>
<!-- Node8 -->
<g id="node8" class="node">
<title>Node8</title>
<g id="a_node8"><a xlink:href="tide_8c.html" target="_top" xlink:title=" ">
<polygon fill="none" stroke="black" points="304.5,-56.5 304.5,-75.5 420.5,-75.5 420.5,-56.5 304.5,-56.5"/>
<text text-anchor="middle" x="362.5" y="-63.5" font-family="Helvetica,sans-Serif" font-size="10.00">src/WillyWeather/tide.c</text>
</a>
</g>
</g>
<!-- Node7&#45;&gt;Node8 -->
<g id="edge8" class="edge">
<title>Node7&#45;&gt;Node8</title>
<path fill="none" stroke="midnightblue" d="M362.5,-102.29C362.5,-92.86 362.5,-82.65 362.5,-75.66"/>
<polygon fill="midnightblue" stroke="midnightblue" points="359,-102.4 362.5,-112.4 366,-102.4 359,-102.4"/>
</g>
</g>
</svg>
