<?xml version="1.0" encoding="UTF-8" standalone="no"?>
<!DOCTYPE svg PUBLIC "-//W3C//DTD SVG 1.1//EN"
 "http://www.w3.org/Graphics/SVG/1.1/DTD/svg11.dtd">
<!-- Generated by graphviz version 2.43.0 (0)
 -->
<!-- Title: include/WillyWeather/authenticate.h Pages: 1 -->
<svg width="851pt" height="258pt"
 viewBox="0.00 0.00 850.52 258.00" xmlns="http://www.w3.org/2000/svg" xmlns:xlink="http://www.w3.org/1999/xlink">
<g id="graph0" class="graph" transform="scale(1 1) rotate(0) translate(4 254)">
<title>include/WillyWeather/authenticate.h</title>
<!-- Node1 -->
<g id="node1" class="node">
<title>Node1</title>
<g id="a_node1"><a xlink:title=" ">
<polygon fill="#999999" stroke="#666666" points="277.02,-250 157.02,-250 157.02,-220 277.02,-220 277.02,-250"/>
<text text-anchor="start" x="165.02" y="-238" font-family="Helvetica,sans-Serif" font-size="10.00">include/WillyWeather</text>
<text text-anchor="middle" x="217.02" y="-227" font-family="Helvetica,sans-Serif" font-size="10.00">/authenticate.h</text>
</a>
</g>
</g>
<!-- Node2 -->
<g id="node2" class="node">
<title>Node2</title>
<g id="a_node2"><a xlink:title=" ">
<polygon fill="#e0e0e0" stroke="#999999" points="771.52,-74 718.52,-74 718.52,-55 771.52,-55 771.52,-74"/>
<text text-anchor="middle" x="745.02" y="-62" font-family="Helvetica,sans-Serif" font-size="10.00">string.h</text>
</a>
</g>
</g>
<!-- Node1&#45;&gt;Node2 -->
<g id="edge1" class="edge">
<title>Node1&#45;&gt;Node2</title>
<path fill="none" stroke="#63b8ff" d="M277.25,-225.26C327.79,-217.1 401.53,-203.29 464.02,-184 560.81,-154.12 669.88,-102.72 718.81,-78.65"/>
<polygon fill="#63b8ff" stroke="#63b8ff" points="720.63,-81.65 728.04,-74.08 717.53,-75.38 720.63,-81.65"/>
</g>
<!-- Node3 -->
<g id="node3" class="node">
<title>Node3</title>
<g id="a_node3"><a xlink:title=" ">
<polygon fill="#e0e0e0" stroke="#999999" points="842.52,-74 789.52,-74 789.52,-55 842.52,-55 842.52,-74"/>
<text text-anchor="middle" x="816.02" y="-62" font-family="Helvetica,sans-Serif" font-size="10.00">stdlib.h</text>
</a>
</g>
</g>
<!-- Node1&#45;&gt;Node3 -->
<g id="edge2" class="edge">
<title>Node1&#45;&gt;Node3</title>
<path fill="none" stroke="#63b8ff" d="M277.18,-226.85C335.56,-219.12 426.34,-205.02 503.02,-184 610.91,-154.43 733.54,-102.32 787.73,-78.29"/>
<polygon fill="#63b8ff" stroke="#63b8ff" points="789.33,-81.41 797.03,-74.14 786.47,-75.02 789.33,-81.41"/>
</g>
<!-- Node4 -->
<g id="node4" class="node">
<title>Node4</title>
<g id="a_node4"><a xlink:title=" ">
<polygon fill="#e0e0e0" stroke="#999999" points="52.02,-19 2.02,-19 2.02,0 52.02,0 52.02,-19"/>
<text text-anchor="middle" x="27.02" y="-7" font-family="Helvetica,sans-Serif" font-size="10.00">stdio.h</text>
</a>
</g>
</g>
<!-- Node1&#45;&gt;Node4 -->
<g id="edge3" class="edge">
<title>Node1&#45;&gt;Node4</title>
<path fill="none" stroke="#63b8ff" d="M181.49,-219.83C130.95,-197.47 40.29,-148.73 3.02,-74 -4.58,-58.75 4.07,-40.46 13.03,-27.44"/>
<polygon fill="#63b8ff" stroke="#63b8ff" points="15.89,-29.46 19.09,-19.36 10.29,-25.26 15.89,-29.46"/>
</g>
<!-- Node5 -->
<g id="node5" class="node">
<title>Node5</title>
<g id="a_node5"><a xlink:title=" ">
<polygon fill="#e0e0e0" stroke="#999999" points="95.52,-74 12.52,-74 12.52,-55 95.52,-55 95.52,-74"/>
<text text-anchor="middle" x="54.02" y="-62" font-family="Helvetica,sans-Serif" font-size="10.00">cjson/cJSON.h</text>
</a>
</g>
</g>
<!-- Node1&#45;&gt;Node5 -->
<g id="edge4" class="edge">
<title>Node1&#45;&gt;Node5</title>
<path fill="none" stroke="#63b8ff" d="M203.41,-219.92C173.36,-188.86 101.52,-114.6 69.68,-81.68"/>
<polygon fill="#63b8ff" stroke="#63b8ff" points="71.96,-79.01 62.49,-74.25 66.93,-83.88 71.96,-79.01"/>
</g>
<!-- Node6 -->
<g id="node6" class="node">
<title>Node6</title>
<g id="a_node6"><a xlink:title=" ">
<polygon fill="#e0e0e0" stroke="#999999" points="178.52,-74 113.52,-74 113.52,-55 178.52,-55 178.52,-74"/>
<text text-anchor="middle" x="146.02" y="-62" font-family="Helvetica,sans-Serif" font-size="10.00">curl/curl.h</text>
</a>
</g>
</g>
<!-- Node1&#45;&gt;Node6 -->
<g id="edge5" class="edge">
<title>Node1&#45;&gt;Node6</title>
<path fill="none" stroke="#63b8ff" d="M211.09,-219.92C198.28,-189.52 168.03,-117.73 153.75,-83.83"/>
<polygon fill="#63b8ff" stroke="#63b8ff" points="156.82,-82.11 149.71,-74.25 150.37,-84.83 156.82,-82.11"/>
</g>
<!-- Node7 -->
<g id="node7" class="node">
<title>Node7</title>
<g id="a_node7"><a xlink:href="log_8h.html" target="_top" xlink:title=" ">
<polygon fill="white" stroke="#666666" points="237.52,-74 196.52,-74 196.52,-55 237.52,-55 237.52,-74"/>
<text text-anchor="middle" x="217.02" y="-62" font-family="Helvetica,sans-Serif" font-size="10.00">log.h</text>
</a>
</g>
</g>
<!-- Node1&#45;&gt;Node7 -->
<g id="edge6" class="edge">
<title>Node1&#45;&gt;Node7</title>
<path fill="none" stroke="#63b8ff" d="M217.02,-219.92C217.02,-189.65 217.02,-118.35 217.02,-84.27"/>
<polygon fill="#63b8ff" stroke="#63b8ff" points="220.52,-84.25 217.02,-74.25 213.52,-84.25 220.52,-84.25"/>
</g>
<!-- Node11 -->
<g id="node11" class="node">
<title>Node11</title>
<g id="a_node11"><a xlink:href="http_8h.html" target="_top" xlink:title=" ">
<polygon fill="white" stroke="#666666" points="454.52,-184 409.52,-184 409.52,-165 454.52,-165 454.52,-184"/>
<text text-anchor="middle" x="432.02" y="-172" font-family="Helvetica,sans-Serif" font-size="10.00">http.h</text>
</a>
</g>
</g>
<!-- Node1&#45;&gt;Node11 -->
<g id="edge11" class="edge">
<title>Node1&#45;&gt;Node11</title>
<path fill="none" stroke="#63b8ff" d="M268.52,-219.99C309.17,-208.93 364.63,-193.84 399.37,-184.38"/>
<polygon fill="#63b8ff" stroke="#63b8ff" points="400.72,-187.64 409.45,-181.64 398.88,-180.89 400.72,-187.64"/>
</g>
<!-- Node7&#45;&gt;Node4 -->
<g id="edge7" class="edge">
<title>Node7&#45;&gt;Node4</title>
<path fill="none" stroke="#63b8ff" d="M196.37,-57.63C193.24,-56.75 190.05,-55.85 187.02,-55 144.07,-42.94 94.58,-29.2 62.15,-20.22"/>
<polygon fill="#63b8ff" stroke="#63b8ff" points="62.82,-16.77 52.25,-17.48 60.96,-23.52 62.82,-16.77"/>
</g>
<!-- Node8 -->
<g id="node8" class="node">
<title>Node8</title>
<g id="a_node8"><a xlink:title=" ">
<polygon fill="#e0e0e0" stroke="#999999" points="168.02,-19 112.02,-19 112.02,0 168.02,0 168.02,-19"/>
<text text-anchor="middle" x="140.02" y="-7" font-family="Helvetica,sans-Serif" font-size="10.00">stdarg.h</text>
</a>
</g>
</g>
<!-- Node7&#45;&gt;Node8 -->
<g id="edge8" class="edge">
<title>Node7&#45;&gt;Node8</title>
<path fill="none" stroke="#63b8ff" d="M204.65,-54.98C192.94,-46.92 175.1,-34.65 161.14,-25.03"/>
<polygon fill="#63b8ff" stroke="#63b8ff" points="162.84,-21.96 152.62,-19.17 158.87,-27.72 162.84,-21.96"/>
</g>
<!-- Node9 -->
<g id="node9" class="node">
<title>Node9</title>
<g id="a_node9"><a xlink:title=" ">
<polygon fill="#e0e0e0" stroke="#999999" points="248.02,-19 186.02,-19 186.02,0 248.02,0 248.02,-19"/>
<text text-anchor="middle" x="217.02" y="-7" font-family="Helvetica,sans-Serif" font-size="10.00">stdbool.h</text>
</a>
</g>
</g>
<!-- Node7&#45;&gt;Node9 -->
<g id="edge9" class="edge">
<title>Node7&#45;&gt;Node9</title>
<path fill="none" stroke="#63b8ff" d="M217.02,-54.75C217.02,-47.8 217.02,-37.85 217.02,-29.13"/>
<polygon fill="#63b8ff" stroke="#63b8ff" points="220.52,-29.09 217.02,-19.09 213.52,-29.09 220.52,-29.09"/>
</g>
<!-- Node10 -->
<g id="node10" class="node">
<title>Node10</title>
<g id="a_node10"><a xlink:title=" ">
<polygon fill="#e0e0e0" stroke="#999999" points="314.02,-19 266.02,-19 266.02,0 314.02,0 314.02,-19"/>
<text text-anchor="middle" x="290.02" y="-7" font-family="Helvetica,sans-Serif" font-size="10.00">time.h</text>
</a>
</g>
</g>
<!-- Node7&#45;&gt;Node10 -->
<g id="edge10" class="edge">
<title>Node7&#45;&gt;Node10</title>
<path fill="none" stroke="#63b8ff" d="M228.75,-54.98C239.76,-47 256.45,-34.88 269.63,-25.31"/>
<polygon fill="#63b8ff" stroke="#63b8ff" points="272.05,-27.88 278.08,-19.17 267.93,-22.21 272.05,-27.88"/>
</g>
<!-- Node11&#45;&gt;Node2 -->
<g id="edge13" class="edge">
<title>Node11&#45;&gt;Node2</title>
<path fill="none" stroke="#63b8ff" d="M451.6,-164.8C481.05,-151.88 538.7,-127.3 589.02,-110 629.4,-96.12 676.66,-83.07 708.49,-74.74"/>
<polygon fill="#63b8ff" stroke="#63b8ff" points="709.46,-78.11 718.26,-72.21 707.7,-71.33 709.46,-78.11"/>
</g>
<!-- Node11&#45;&gt;Node3 -->
<g id="edge12" class="edge">
<title>Node11&#45;&gt;Node3</title>
<path fill="none" stroke="#63b8ff" d="M454.61,-167.15C518.54,-149.17 701.17,-97.8 779.56,-75.76"/>
<polygon fill="#63b8ff" stroke="#63b8ff" points="780.79,-79.05 789.47,-72.97 778.89,-72.31 780.79,-79.05"/>
</g>
<!-- Node11&#45;&gt;Node6 -->
<g id="edge14" class="edge">
<title>Node11&#45;&gt;Node6</title>
<path fill="none" stroke="#63b8ff" d="M409.1,-164.84C358.36,-145.68 236.4,-99.63 178.11,-77.62"/>
<polygon fill="#63b8ff" stroke="#63b8ff" points="179.25,-74.31 168.66,-74.05 176.78,-80.85 179.25,-74.31"/>
</g>
<!-- Node12 -->
<g id="node12" class="node">
<title>Node12</title>
<g id="a_node12"><a xlink:href="utils_8h.html" target="_top" xlink:title=" ">
<polygon fill="white" stroke="#666666" points="455.52,-129 408.52,-129 408.52,-110 455.52,-110 455.52,-129"/>
<text text-anchor="middle" x="432.02" y="-117" font-family="Helvetica,sans-Serif" font-size="10.00">utils.h</text>
</a>
</g>
</g>
<!-- Node11&#45;&gt;Node12 -->
<g id="edge15" class="edge">
<title>Node11&#45;&gt;Node12</title>
<path fill="none" stroke="#63b8ff" d="M432.02,-164.75C432.02,-157.8 432.02,-147.85 432.02,-139.13"/>
<polygon fill="#63b8ff" stroke="#63b8ff" points="435.52,-139.09 432.02,-129.09 428.52,-139.09 435.52,-139.09"/>
</g>
<!-- Node12&#45;&gt;Node2 -->
<g id="edge17" class="edge">
<title>Node12&#45;&gt;Node2</title>
<path fill="none" stroke="#63b8ff" d="M455.57,-115.38C502.07,-109.07 609.15,-93.86 708.43,-74.2"/>
<polygon fill="#63b8ff" stroke="#63b8ff" points="709.2,-77.61 718.32,-72.22 707.83,-70.75 709.2,-77.61"/>
</g>
<!-- Node12&#45;&gt;Node3 -->
<g id="edge16" class="edge">
<title>Node12&#45;&gt;Node3</title>
<path fill="none" stroke="#63b8ff" d="M455.86,-116.38C511.1,-111.29 652.28,-97.14 779.43,-74.12"/>
<polygon fill="#63b8ff" stroke="#63b8ff" points="780.13,-77.55 789.34,-72.31 778.87,-70.67 780.13,-77.55"/>
</g>
<!-- Node12&#45;&gt;Node5 -->
<g id="edge20" class="edge">
<title>Node12&#45;&gt;Node5</title>
<path fill="none" stroke="#63b8ff" d="M408.52,-115.59C356.08,-109.03 225.34,-92.35 105.8,-74.23"/>
<polygon fill="#63b8ff" stroke="#63b8ff" points="106.16,-70.75 95.75,-72.7 105.11,-77.67 106.16,-70.75"/>
</g>
<!-- Node12&#45;&gt;Node6 -->
<g id="edge18" class="edge">
<title>Node12&#45;&gt;Node6</title>
<path fill="none" stroke="#63b8ff" d="M408.34,-114.4C366.19,-107.06 275.17,-91.01 188.66,-74.28"/>
<polygon fill="#63b8ff" stroke="#63b8ff" points="189.17,-70.82 178.68,-72.35 187.83,-77.69 189.17,-70.82"/>
</g>
<!-- Node12&#45;&gt;Node7 -->
<g id="edge25" class="edge">
<title>Node12&#45;&gt;Node7</title>
<path fill="none" stroke="#63b8ff" d="M408.29,-113.11C374.74,-105.43 311.3,-90.64 247.48,-74.03"/>
<polygon fill="#63b8ff" stroke="#63b8ff" points="248.21,-70.61 237.65,-71.46 246.44,-77.38 248.21,-70.61"/>
</g>
<!-- Node13 -->
<g id="node13" class="node">
<title>Node13</title>
<g id="a_node13"><a xlink:title=" ">
<polygon fill="#e0e0e0" stroke="#999999" points="458.52,-74 405.52,-74 405.52,-55 458.52,-55 458.52,-74"/>
<text text-anchor="middle" x="432.02" y="-62" font-family="Helvetica,sans-Serif" font-size="10.00">stdint.h</text>
</a>
</g>
</g>
<!-- Node12&#45;&gt;Node13 -->
<g id="edge19" class="edge">
<title>Node12&#45;&gt;Node13</title>
<path fill="none" stroke="#63b8ff" d="M432.02,-109.75C432.02,-102.8 432.02,-92.85 432.02,-84.13"/>
<polygon fill="#63b8ff" stroke="#63b8ff" points="435.52,-84.09 432.02,-74.09 428.52,-84.09 435.52,-84.09"/>
</g>
<!-- Node14 -->
<g id="node14" class="node">
<title>Node14</title>
<g id="a_node14"><a xlink:title=" ">
<polygon fill="#e0e0e0" stroke="#999999" points="541.02,-74 477.02,-74 477.02,-55 541.02,-55 541.02,-74"/>
<text text-anchor="middle" x="509.02" y="-62" font-family="Helvetica,sans-Serif" font-size="10.00">sys/stat.h</text>
</a>
</g>
</g>
<!-- Node12&#45;&gt;Node14 -->
<g id="edge21" class="edge">
<title>Node12&#45;&gt;Node14</title>
<path fill="none" stroke="#63b8ff" d="M444.4,-109.98C456.11,-101.92 473.94,-89.65 487.91,-80.03"/>
<polygon fill="#63b8ff" stroke="#63b8ff" points="490.18,-82.72 496.43,-74.17 486.21,-76.96 490.18,-82.72"/>
</g>
<!-- Node15 -->
<g id="node15" class="node">
<title>Node15</title>
<g id="a_node15"><a xlink:title=" ">
<polygon fill="#e0e0e0" stroke="#999999" points="631.02,-74 559.02,-74 559.02,-55 631.02,-55 631.02,-74"/>
<text text-anchor="middle" x="595.02" y="-62" font-family="Helvetica,sans-Serif" font-size="10.00">sys/types.h</text>
</a>
</g>
</g>
<!-- Node12&#45;&gt;Node15 -->
<g id="edge22" class="edge">
<title>Node12&#45;&gt;Node15</title>
<path fill="none" stroke="#63b8ff" d="M455.73,-110.79C482.89,-101.96 527.72,-87.38 559.16,-77.16"/>
<polygon fill="#63b8ff" stroke="#63b8ff" points="560.44,-80.43 568.86,-74.01 558.27,-73.77 560.44,-80.43"/>
</g>
<!-- Node16 -->
<g id="node16" class="node">
<title>Node16</title>
<g id="a_node16"><a xlink:title=" ">
<polygon fill="#e0e0e0" stroke="#999999" points="700.52,-74 649.52,-74 649.52,-55 700.52,-55 700.52,-74"/>
<text text-anchor="middle" x="675.02" y="-62" font-family="Helvetica,sans-Serif" font-size="10.00">errno.h</text>
</a>
</g>
</g>
<!-- Node12&#45;&gt;Node16 -->
<g id="edge23" class="edge">
<title>Node12&#45;&gt;Node16</title>
<path fill="none" stroke="#63b8ff" d="M455.78,-113.64C492.79,-106.02 566.71,-90.61 639.62,-74.04"/>
<polygon fill="#63b8ff" stroke="#63b8ff" points="640.46,-77.44 649.43,-71.8 638.9,-70.61 640.46,-77.44"/>
</g>
<!-- Node17 -->
<g id="node17" class="node">
<title>Node17</title>
<g id="a_node17"><a xlink:title=" ">
<polygon fill="#e0e0e0" stroke="#999999" points="306.52,-74 255.52,-74 255.52,-55 306.52,-55 306.52,-74"/>
<text text-anchor="middle" x="281.02" y="-62" font-family="Helvetica,sans-Serif" font-size="10.00">math.h</text>
</a>
</g>
</g>
<!-- Node12&#45;&gt;Node17 -->
<g id="edge24" class="edge">
<title>Node12&#45;&gt;Node17</title>
<path fill="none" stroke="#63b8ff" d="M408.43,-110.22C383.35,-101.42 343.46,-87.42 315,-77.43"/>
<polygon fill="#63b8ff" stroke="#63b8ff" points="316.05,-74.08 305.45,-74.07 313.73,-80.69 316.05,-74.08"/>
</g>
<!-- Node18 -->
<g id="node18" class="node">
<title>Node18</title>
<g id="a_node18"><a xlink:title=" ">
<polygon fill="#e0e0e0" stroke="#999999" points="387.52,-74 324.52,-74 324.52,-55 387.52,-55 387.52,-74"/>
<text text-anchor="middle" x="356.02" y="-62" font-family="Helvetica,sans-Serif" font-size="10.00">libpq&#45;fe.h</text>
</a>
</g>
</g>
<!-- Node12&#45;&gt;Node18 -->
<g id="edge26" class="edge">
<title>Node12&#45;&gt;Node18</title>
<path fill="none" stroke="#63b8ff" d="M419.81,-109.98C408.25,-101.92 390.65,-89.65 376.86,-80.03"/>
<polygon fill="#63b8ff" stroke="#63b8ff" points="378.66,-77.02 368.46,-74.17 374.66,-82.76 378.66,-77.02"/>
</g>
</g>
</svg>
