<?xml version="1.0" encoding="UTF-8" standalone="no"?>
<!DOCTYPE svg PUBLIC "-//W3C//DTD SVG 1.1//EN"
 "http://www.w3.org/Graphics/SVG/1.1/DTD/svg11.dtd">
<!-- Generated by graphviz version 2.49.3 (20211027.1534)
 -->
<!-- Title: include/WillyWeather/authenticate.h Pages: 1 -->
<svg width="1019pt" height="363pt"
 viewBox="0.00 0.00 1018.50 363.00" xmlns="http://www.w3.org/2000/svg" xmlns:xlink="http://www.w3.org/1999/xlink">
<g id="graph0" class="graph" transform="scale(1 1) rotate(0) translate(4 359)">
<title>include/WillyWeather/authenticate.h</title>
<!-- Node1 -->
<g id="node1" class="node">
<title>Node1</title>
<g id="a_node1"><a xlink:title=" ">
<polygon fill="#bfbfbf" stroke="black" points="756.5,-324.5 756.5,-354.5 863.5,-354.5 863.5,-324.5 756.5,-324.5"/>
<text text-anchor="start" x="764.5" y="-342.5" font-family="Helvetica,sans-Serif" font-size="10.00">include/WillyWeather</text>
<text text-anchor="middle" x="810" y="-331.5" font-family="Helvetica,sans-Serif" font-size="10.00">/authenticate.h</text>
</a>
</g>
</g>
<!-- Node2 -->
<g id="node2" class="node">
<title>Node2</title>
<g id="a_node2"><a xlink:href="location_8h.html" target="_top" xlink:title=" ">
<polygon fill="none" stroke="black" points="625.5,-257.5 625.5,-287.5 732.5,-287.5 732.5,-257.5 625.5,-257.5"/>
<text text-anchor="start" x="633.5" y="-275.5" font-family="Helvetica,sans-Serif" font-size="10.00">include/WillyWeather</text>
<text text-anchor="middle" x="679" y="-264.5" font-family="Helvetica,sans-Serif" font-size="10.00">/location.h</text>
</a>
</g>
</g>
<!-- Node1&#45;&gt;Node2 -->
<g id="edge1" class="edge">
<title>Node1&#45;&gt;Node2</title>
<path fill="none" stroke="midnightblue" d="M772.42,-319.85C751.71,-309.58 726.41,-297.03 707.37,-287.58"/>
<polygon fill="midnightblue" stroke="midnightblue" points="771.06,-323.09 781.57,-324.4 774.17,-316.82 771.06,-323.09"/>
</g>
<!-- Node4 -->
<g id="node4" class="node">
<title>Node4</title>
<g id="a_node4"><a xlink:href="main_8h.html" target="_top" xlink:title=" ">
<polygon fill="none" stroke="black" points="515.5,-62 515.5,-81 594.5,-81 594.5,-62 515.5,-62"/>
<text text-anchor="middle" x="555" y="-69" font-family="Helvetica,sans-Serif" font-size="10.00">include/main.h</text>
</a>
</g>
</g>
<!-- Node1&#45;&gt;Node4 -->
<g id="edge24" class="edge">
<title>Node1&#45;&gt;Node4</title>
<path fill="none" stroke="midnightblue" d="M810.6,-314.13C810.3,-269.64 803,-175.05 750,-123 708.46,-82.2 638.46,-73.11 594.6,-71.74"/>
<polygon fill="midnightblue" stroke="midnightblue" points="807.1,-314.29 810.55,-324.31 814.1,-314.32 807.1,-314.29"/>
</g>
<!-- Node9 -->
<g id="node9" class="node">
<title>Node9</title>
<g id="a_node9"><a xlink:href="tide_8h.html" target="_top" xlink:title=" ">
<polygon fill="none" stroke="black" points="819.5,-190.5 819.5,-220.5 926.5,-220.5 926.5,-190.5 819.5,-190.5"/>
<text text-anchor="start" x="827.5" y="-208.5" font-family="Helvetica,sans-Serif" font-size="10.00">include/WillyWeather</text>
<text text-anchor="middle" x="873" y="-197.5" font-family="Helvetica,sans-Serif" font-size="10.00">/tide.h</text>
</a>
</g>
</g>
<!-- Node1&#45;&gt;Node9 -->
<g id="edge23" class="edge">
<title>Node1&#45;&gt;Node9</title>
<path fill="none" stroke="midnightblue" d="M821.16,-315.12C834.25,-287.68 855.54,-243.09 866.31,-220.52"/>
<polygon fill="midnightblue" stroke="midnightblue" points="817.89,-313.84 816.74,-324.37 824.21,-316.86 817.89,-313.84"/>
</g>
<!-- Node18 -->
<g id="node18" class="node">
<title>Node18</title>
<g id="a_node18"><a xlink:href="_willy_weather_2authenticate_8c.html" target="_top" xlink:title=" ">
<polygon fill="none" stroke="black" points="857.5,-263 857.5,-282 1010.5,-282 1010.5,-263 857.5,-263"/>
<text text-anchor="middle" x="934" y="-270" font-family="Helvetica,sans-Serif" font-size="10.00">src/WillyWeather/authenticate.c</text>
</a>
</g>
</g>
<!-- Node1&#45;&gt;Node18 -->
<g id="edge25" class="edge">
<title>Node1&#45;&gt;Node18</title>
<path fill="none" stroke="midnightblue" d="M845.98,-319.64C869.71,-307.2 899.64,-291.51 917.77,-282.01"/>
<polygon fill="midnightblue" stroke="midnightblue" points="844.14,-316.65 836.91,-324.4 847.39,-322.85 844.14,-316.65"/>
</g>
<!-- Node3 -->
<g id="node3" class="node">
<title>Node3</title>
<g id="a_node3"><a xlink:href="harvest__areas_8h.html" target="_top" xlink:title=" ">
<polygon fill="none" stroke="black" points="9,-123.5 9,-153.5 119,-153.5 119,-123.5 9,-123.5"/>
<text text-anchor="start" x="17" y="-141.5" font-family="Helvetica,sans-Serif" font-size="10.00">include/FoodAuthority</text>
<text text-anchor="middle" x="64" y="-130.5" font-family="Helvetica,sans-Serif" font-size="10.00">/harvest_areas.h</text>
</a>
</g>
</g>
<!-- Node2&#45;&gt;Node3 -->
<g id="edge2" class="edge">
<title>Node2&#45;&gt;Node3</title>
<path fill="none" stroke="midnightblue" d="M615.21,-265.64C543.52,-258.31 423.97,-243.88 323,-221 243.01,-202.87 152.1,-171.73 102.07,-153.65"/>
<polygon fill="midnightblue" stroke="midnightblue" points="615.13,-269.15 625.43,-266.67 615.83,-262.18 615.13,-269.15"/>
</g>
<!-- Node7 -->
<g id="node7" class="node">
<title>Node7</title>
<g id="a_node7"><a xlink:href="precipitation_8h.html" target="_top" xlink:title=" ">
<polygon fill="none" stroke="black" points="640.5,-190.5 640.5,-220.5 747.5,-220.5 747.5,-190.5 640.5,-190.5"/>
<text text-anchor="start" x="648.5" y="-208.5" font-family="Helvetica,sans-Serif" font-size="10.00">include/WillyWeather</text>
<text text-anchor="middle" x="694" y="-197.5" font-family="Helvetica,sans-Serif" font-size="10.00">/precipitation.h</text>
</a>
</g>
</g>
<!-- Node2&#45;&gt;Node7 -->
<g id="edge6" class="edge">
<title>Node2&#45;&gt;Node7</title>
<path fill="none" stroke="midnightblue" d="M684.56,-247.4C686.65,-238.37 688.94,-228.41 690.75,-220.58"/>
<polygon fill="midnightblue" stroke="midnightblue" points="681.09,-246.87 682.25,-257.4 687.91,-248.44 681.09,-246.87"/>
</g>
<!-- Node2&#45;&gt;Node9 -->
<g id="edge9" class="edge">
<title>Node2&#45;&gt;Node9</title>
<path fill="none" stroke="midnightblue" d="M730.96,-254.09C762.27,-243.6 801.64,-230.41 830.99,-220.58"/>
<polygon fill="midnightblue" stroke="midnightblue" points="729.47,-250.9 721.1,-257.4 731.69,-257.54 729.47,-250.9"/>
</g>
<!-- Node11 -->
<g id="node11" class="node">
<title>Node11</title>
<g id="a_node11"><a xlink:href="transform_8h.html" target="_top" xlink:title=" ">
<polygon fill="none" stroke="black" points="331.5,-196 331.5,-215 430.5,-215 430.5,-196 331.5,-196"/>
<text text-anchor="middle" x="381" y="-203" font-family="Helvetica,sans-Serif" font-size="10.00">include/transform.h</text>
</a>
</g>
</g>
<!-- Node2&#45;&gt;Node11 -->
<g id="edge12" class="edge">
<title>Node2&#45;&gt;Node11</title>
<path fill="none" stroke="midnightblue" d="M615.41,-257.63C556.3,-244.74 470.13,-225.94 420.4,-215.09"/>
<polygon fill="midnightblue" stroke="midnightblue" points="614.86,-261.09 625.38,-259.8 616.36,-254.25 614.86,-261.09"/>
</g>
<!-- Node17 -->
<g id="node17" class="node">
<title>Node17</title>
<g id="a_node17"><a xlink:href="location_8c.html" target="_top" xlink:title=" ">
<polygon fill="none" stroke="black" points="488,-196 488,-215 622,-215 622,-196 488,-196"/>
<text text-anchor="middle" x="555" y="-203" font-family="Helvetica,sans-Serif" font-size="10.00">src/WillyWeather/location.c</text>
</a>
</g>
</g>
<!-- Node2&#45;&gt;Node17 -->
<g id="edge22" class="edge">
<title>Node2&#45;&gt;Node17</title>
<path fill="none" stroke="midnightblue" d="M643.02,-252.64C619.29,-240.2 589.36,-224.51 571.23,-215.01"/>
<polygon fill="midnightblue" stroke="midnightblue" points="641.61,-255.85 652.09,-257.4 644.86,-249.65 641.61,-255.85"/>
</g>
<!-- Node3&#45;&gt;Node4 -->
<g id="edge3" class="edge">
<title>Node3&#45;&gt;Node4</title>
<path fill="none" stroke="midnightblue" d="M128.99,-122.99C296.87,-97.12 344.13,-119 507,-87 514.52,-85.52 522.54,-83.35 529.83,-81.13"/>
<polygon fill="midnightblue" stroke="midnightblue" points="128.4,-119.54 119.07,-124.55 129.49,-126.45 128.4,-119.54"/>
</g>
<!-- Node6 -->
<g id="node6" class="node">
<title>Node6</title>
<g id="a_node6"><a xlink:href="harvest__areas_8c.html" target="_top" xlink:title=" ">
<polygon fill="none" stroke="black" points="0,-56.5 0,-86.5 128,-86.5 128,-56.5 0,-56.5"/>
<text text-anchor="start" x="8" y="-74.5" font-family="Helvetica,sans-Serif" font-size="10.00">src/FoodAuthority/harvest</text>
<text text-anchor="middle" x="64" y="-63.5" font-family="Helvetica,sans-Serif" font-size="10.00">_areas.c</text>
</a>
</g>
</g>
<!-- Node3&#45;&gt;Node6 -->
<g id="edge5" class="edge">
<title>Node3&#45;&gt;Node6</title>
<path fill="none" stroke="midnightblue" d="M64,-113.11C64,-104.15 64,-94.32 64,-86.58"/>
<polygon fill="midnightblue" stroke="midnightblue" points="60.5,-113.4 64,-123.4 67.5,-113.4 60.5,-113.4"/>
</g>
<!-- Node5 -->
<g id="node5" class="node">
<title>Node5</title>
<g id="a_node5"><a xlink:href="main_8c.html" target="_top" xlink:title=" ">
<polygon fill="none" stroke="black" points="524,-0.5 524,-19.5 586,-19.5 586,-0.5 524,-0.5"/>
<text text-anchor="middle" x="555" y="-7.5" font-family="Helvetica,sans-Serif" font-size="10.00">src/main.c</text>
</a>
</g>
</g>
<!-- Node4&#45;&gt;Node5 -->
<g id="edge4" class="edge">
<title>Node4&#45;&gt;Node5</title>
<path fill="none" stroke="midnightblue" d="M555,-51.82C555,-41 555,-27.9 555,-19.51"/>
<polygon fill="midnightblue" stroke="midnightblue" points="551.5,-51.98 555,-61.98 558.5,-51.98 551.5,-51.98"/>
</g>
<!-- Node7&#45;&gt;Node4 -->
<g id="edge7" class="edge">
<title>Node7&#45;&gt;Node4</title>
<path fill="none" stroke="midnightblue" d="M717.05,-182.95C732.63,-165.74 748.02,-141.53 734,-123 717.24,-100.86 642.2,-85.67 594.76,-78.09"/>
<polygon fill="midnightblue" stroke="midnightblue" points="714.38,-180.68 709.98,-190.32 719.43,-185.53 714.38,-180.68"/>
</g>
<!-- Node8 -->
<g id="node8" class="node">
<title>Node8</title>
<g id="a_node8"><a xlink:href="precipitation_8c.html" target="_top" xlink:title=" ">
<polygon fill="none" stroke="black" points="573,-129 573,-148 725,-148 725,-129 573,-129"/>
<text text-anchor="middle" x="649" y="-136" font-family="Helvetica,sans-Serif" font-size="10.00">src/WillyWeather/precipitation.c</text>
</a>
</g>
</g>
<!-- Node7&#45;&gt;Node8 -->
<g id="edge8" class="edge">
<title>Node7&#45;&gt;Node8</title>
<path fill="none" stroke="midnightblue" d="M678.41,-181.97C670.35,-170.33 660.98,-156.8 655.02,-148.19"/>
<polygon fill="midnightblue" stroke="midnightblue" points="675.67,-184.17 684.24,-190.4 681.42,-180.18 675.67,-184.17"/>
</g>
<!-- Node9&#45;&gt;Node4 -->
<g id="edge10" class="edge">
<title>Node9&#45;&gt;Node4</title>
<path fill="none" stroke="midnightblue" d="M860.19,-181.9C848.33,-163.12 828.94,-137.27 805,-123 738.62,-83.45 646.58,-74.35 594.7,-72.57"/>
<polygon fill="midnightblue" stroke="midnightblue" points="857.21,-183.73 865.39,-190.46 863.19,-180.1 857.21,-183.73"/>
</g>
<!-- Node10 -->
<g id="node10" class="node">
<title>Node10</title>
<g id="a_node10"><a xlink:href="tide_8c.html" target="_top" xlink:title=" ">
<polygon fill="none" stroke="black" points="857,-129 857,-148 973,-148 973,-129 857,-129"/>
<text text-anchor="middle" x="915" y="-136" font-family="Helvetica,sans-Serif" font-size="10.00">src/WillyWeather/tide.c</text>
</a>
</g>
</g>
<!-- Node9&#45;&gt;Node10 -->
<g id="edge11" class="edge">
<title>Node9&#45;&gt;Node10</title>
<path fill="none" stroke="midnightblue" d="M887.55,-181.97C895.08,-170.33 903.82,-156.8 909.38,-148.19"/>
<polygon fill="midnightblue" stroke="midnightblue" points="884.6,-180.1 882.11,-190.4 890.48,-183.9 884.6,-180.1"/>
</g>
<!-- Node11&#45;&gt;Node3 -->
<g id="edge16" class="edge">
<title>Node11&#45;&gt;Node3</title>
<path fill="none" stroke="midnightblue" d="M326.72,-194.09C275.43,-184.15 196.38,-168.57 128,-154 125.1,-153.38 122.13,-152.74 119.14,-152.09"/>
<polygon fill="midnightblue" stroke="midnightblue" points="326.11,-197.53 336.6,-196 327.44,-190.66 326.11,-197.53"/>
</g>
<!-- Node11&#45;&gt;Node4 -->
<g id="edge20" class="edge">
<title>Node11&#45;&gt;Node4</title>
<path fill="none" stroke="midnightblue" d="M440.85,-196.03C469.85,-189.11 503.25,-176.6 526,-154 546.46,-133.68 552.54,-98 554.3,-81.42"/>
<polygon fill="midnightblue" stroke="midnightblue" points="439.8,-192.67 430.79,-198.25 441.31,-199.51 439.8,-192.67"/>
</g>
<!-- Node12 -->
<g id="node12" class="node">
<title>Node12</title>
<g id="a_node12"><a xlink:href="historical__weather_8h.html" target="_top" xlink:title=" ">
<polygon fill="none" stroke="black" points="401.5,-123.5 401.5,-153.5 516.5,-153.5 516.5,-123.5 401.5,-123.5"/>
<text text-anchor="start" x="409.5" y="-141.5" font-family="Helvetica,sans-Serif" font-size="10.00">include/BOM/historical</text>
<text text-anchor="middle" x="459" y="-130.5" font-family="Helvetica,sans-Serif" font-size="10.00">_weather.h</text>
</a>
</g>
</g>
<!-- Node11&#45;&gt;Node12 -->
<g id="edge13" class="edge">
<title>Node11&#45;&gt;Node12</title>
<path fill="none" stroke="midnightblue" d="M399.32,-189.24C412.26,-178.45 429.48,-164.1 442.09,-153.59"/>
<polygon fill="midnightblue" stroke="midnightblue" points="396.96,-186.64 391.52,-195.73 401.44,-192.02 396.96,-186.64"/>
</g>
<!-- Node14 -->
<g id="node14" class="node">
<title>Node14</title>
<g id="a_node14"><a xlink:href="timeseries_8h.html" target="_top" xlink:title=" ">
<polygon fill="none" stroke="black" points="137.5,-129 137.5,-148 282.5,-148 282.5,-129 137.5,-129"/>
<text text-anchor="middle" x="210" y="-136" font-family="Helvetica,sans-Serif" font-size="10.00">include/IBM_EIS/timeseries.h</text>
</a>
</g>
</g>
<!-- Node11&#45;&gt;Node14 -->
<g id="edge17" class="edge">
<title>Node11&#45;&gt;Node14</title>
<path fill="none" stroke="midnightblue" d="M348.83,-192.27C314.89,-179.37 262.29,-159.38 232.53,-148.06"/>
<polygon fill="midnightblue" stroke="midnightblue" points="347.7,-195.59 358.29,-195.87 350.19,-189.04 347.7,-195.59"/>
</g>
<!-- Node16 -->
<g id="node16" class="node">
<title>Node16</title>
<g id="a_node16"><a xlink:href="transform_8c.html" target="_top" xlink:title=" ">
<polygon fill="none" stroke="black" points="301,-129 301,-148 383,-148 383,-129 301,-129"/>
<text text-anchor="middle" x="342" y="-136" font-family="Helvetica,sans-Serif" font-size="10.00">src/transform.c</text>
</a>
</g>
</g>
<!-- Node11&#45;&gt;Node16 -->
<g id="edge21" class="edge">
<title>Node11&#45;&gt;Node16</title>
<path fill="none" stroke="midnightblue" d="M370.52,-187.03C362.97,-174.45 353.1,-158.01 347.18,-148.13"/>
<polygon fill="midnightblue" stroke="midnightblue" points="367.59,-188.96 375.74,-195.73 373.6,-185.36 367.59,-188.96"/>
</g>
<!-- Node12&#45;&gt;Node4 -->
<g id="edge14" class="edge">
<title>Node12&#45;&gt;Node4</title>
<path fill="none" stroke="midnightblue" d="M488.33,-117.64C506.45,-105.37 528.77,-90.26 542.44,-81.01"/>
<polygon fill="midnightblue" stroke="midnightblue" points="486.15,-114.89 479.83,-123.4 490.07,-120.69 486.15,-114.89"/>
</g>
<!-- Node13 -->
<g id="node13" class="node">
<title>Node13</title>
<g id="a_node13"><a xlink:href="historical__weather_8c.html" target="_top" xlink:title=" ">
<polygon fill="none" stroke="black" points="400,-56.5 400,-86.5 498,-86.5 498,-56.5 400,-56.5"/>
<text text-anchor="start" x="408" y="-74.5" font-family="Helvetica,sans-Serif" font-size="10.00">src/BOM/historical</text>
<text text-anchor="middle" x="449" y="-63.5" font-family="Helvetica,sans-Serif" font-size="10.00">_weather.c</text>
</a>
</g>
</g>
<!-- Node12&#45;&gt;Node13 -->
<g id="edge15" class="edge">
<title>Node12&#45;&gt;Node13</title>
<path fill="none" stroke="midnightblue" d="M455.29,-113.4C453.9,-104.37 452.37,-94.41 451.17,-86.58"/>
<polygon fill="midnightblue" stroke="midnightblue" points="451.85,-114.04 456.83,-123.4 458.77,-112.98 451.85,-114.04"/>
</g>
<!-- Node14&#45;&gt;Node4 -->
<g id="edge18" class="edge">
<title>Node14&#45;&gt;Node4</title>
<path fill="none" stroke="midnightblue" d="M267.58,-127.25C275.77,-125.81 284.1,-124.36 292,-123 387.48,-106.56 412.66,-109.05 507,-87 514.21,-85.32 521.92,-83.15 529.01,-81.01"/>
<polygon fill="midnightblue" stroke="midnightblue" points="266.92,-123.81 257.68,-128.99 268.14,-130.71 266.92,-123.81"/>
</g>
<!-- Node15 -->
<g id="node15" class="node">
<title>Node15</title>
<g id="a_node15"><a xlink:href="timeseries_8c.html" target="_top" xlink:title=" ">
<polygon fill="none" stroke="black" points="146,-62 146,-81 274,-81 274,-62 146,-62"/>
<text text-anchor="middle" x="210" y="-69" font-family="Helvetica,sans-Serif" font-size="10.00">src/IBM_EIS/timeseries.c</text>
</a>
</g>
</g>
<!-- Node14&#45;&gt;Node15 -->
<g id="edge19" class="edge">
<title>Node14&#45;&gt;Node15</title>
<path fill="none" stroke="midnightblue" d="M210,-118.54C210,-106.17 210,-90.62 210,-81.13"/>
<polygon fill="midnightblue" stroke="midnightblue" points="206.5,-118.73 210,-128.73 213.5,-118.73 206.5,-118.73"/>
</g>
</g>
</svg>
