<?xml version="1.0" encoding="UTF-8" standalone="no"?>
<!DOCTYPE svg PUBLIC "-//W3C//DTD SVG 1.1//EN"
 "http://www.w3.org/Graphics/SVG/1.1/DTD/svg11.dtd">
<!-- Generated by graphviz version 2.49.3 (20211027.1534)
 -->
<!-- Title: include/WillyWeather/authenticate.h Pages: 1 -->
<svg width="722pt" height="263pt"
 viewBox="0.00 0.00 722.42 263.00" xmlns="http://www.w3.org/2000/svg" xmlns:xlink="http://www.w3.org/1999/xlink">
<g id="graph0" class="graph" transform="scale(1 1) rotate(0) translate(4 259)">
<title>include/WillyWeather/authenticate.h</title>
<!-- Node1 -->
<g id="node1" class="node">
<title>Node1</title>
<g id="a_node1"><a xlink:title=" ">
<polygon fill="#bfbfbf" stroke="black" points="155.42,-224.5 155.42,-254.5 262.42,-254.5 262.42,-224.5 155.42,-224.5"/>
<text text-anchor="start" x="163.42" y="-242.5" font-family="Helvetica,sans-Serif" font-size="10.00">include/WillyWeather</text>
<text text-anchor="middle" x="208.92" y="-231.5" font-family="Helvetica,sans-Serif" font-size="10.00">/authenticate.h</text>
</a>
</g>
</g>
<!-- Node2 -->
<g id="node2" class="node">
<title>Node2</title>
<g id="a_node2"><a xlink:title=" ">
<polygon fill="none" stroke="#bfbfbf" points="600.92,-56.5 600.92,-75.5 648.92,-75.5 648.92,-56.5 600.92,-56.5"/>
<text text-anchor="middle" x="624.92" y="-63.5" font-family="Helvetica,sans-Serif" font-size="10.00">string.h</text>
</a>
</g>
</g>
<!-- Node1&#45;&gt;Node2 -->
<g id="edge1" class="edge">
<title>Node1&#45;&gt;Node2</title>
<path fill="none" stroke="midnightblue" d="M262.77,-226.12C298.55,-217.19 346.24,-203.94 386.92,-188 468.8,-155.92 560.03,-104.93 601.79,-80.68"/>
<polygon fill="midnightblue" stroke="midnightblue" points="603.75,-83.59 610.61,-75.52 600.21,-77.55 603.75,-83.59"/>
</g>
<!-- Node3 -->
<g id="node3" class="node">
<title>Node3</title>
<g id="a_node3"><a xlink:title=" ">
<polygon fill="none" stroke="#bfbfbf" points="667.42,-56.5 667.42,-75.5 714.42,-75.5 714.42,-56.5 667.42,-56.5"/>
<text text-anchor="middle" x="690.92" y="-63.5" font-family="Helvetica,sans-Serif" font-size="10.00">stdlib.h</text>
</a>
</g>
</g>
<!-- Node1&#45;&gt;Node3 -->
<g id="edge2" class="edge">
<title>Node1&#45;&gt;Node3</title>
<path fill="none" stroke="midnightblue" d="M262.67,-228.7C306.22,-220.06 368.85,-206.05 421.92,-188 514.48,-156.53 618.6,-104.7 665.55,-80.38"/>
<polygon fill="midnightblue" stroke="midnightblue" points="667.43,-83.35 674.68,-75.63 664.19,-77.14 667.43,-83.35"/>
</g>
<!-- Node4 -->
<g id="node4" class="node">
<title>Node4</title>
<g id="a_node4"><a xlink:title=" ">
<polygon fill="none" stroke="#bfbfbf" points="5.42,-0.5 5.42,-19.5 50.42,-19.5 50.42,-0.5 5.42,-0.5"/>
<text text-anchor="middle" x="27.92" y="-7.5" font-family="Helvetica,sans-Serif" font-size="10.00">stdio.h</text>
</a>
</g>
</g>
<!-- Node1&#45;&gt;Node4 -->
<g id="edge3" class="edge">
<title>Node1&#45;&gt;Node4</title>
<path fill="none" stroke="midnightblue" d="M176.27,-224.33C127.88,-201.3 38.96,-150.66 2.92,-76 -4.77,-60.08 4.49,-41.13 13.84,-27.82"/>
<polygon fill="midnightblue" stroke="midnightblue" points="16.82,-29.67 20.12,-19.6 11.26,-25.42 16.82,-29.67"/>
</g>
<!-- Node5 -->
<g id="node5" class="node">
<title>Node5</title>
<g id="a_node5"><a xlink:title=" ">
<polygon fill="none" stroke="#bfbfbf" points="12.42,-56.5 12.42,-75.5 95.42,-75.5 95.42,-56.5 12.42,-56.5"/>
<text text-anchor="middle" x="53.92" y="-63.5" font-family="Helvetica,sans-Serif" font-size="10.00">cjson/cJSON.h</text>
</a>
</g>
</g>
<!-- Node1&#45;&gt;Node5 -->
<g id="edge4" class="edge">
<title>Node1&#45;&gt;Node5</title>
<path fill="none" stroke="midnightblue" d="M196.24,-224.47C167.71,-192.9 98.63,-116.47 68.44,-83.07"/>
<polygon fill="midnightblue" stroke="midnightblue" points="70.96,-80.63 61.66,-75.56 65.76,-85.33 70.96,-80.63"/>
</g>
<!-- Node6 -->
<g id="node6" class="node">
<title>Node6</title>
<g id="a_node6"><a xlink:title=" ">
<polygon fill="none" stroke="#bfbfbf" points="113.42,-56.5 113.42,-75.5 172.42,-75.5 172.42,-56.5 113.42,-56.5"/>
<text text-anchor="middle" x="142.92" y="-63.5" font-family="Helvetica,sans-Serif" font-size="10.00">curl/curl.h</text>
</a>
</g>
</g>
<!-- Node1&#45;&gt;Node6 -->
<g id="edge5" class="edge">
<title>Node1&#45;&gt;Node6</title>
<path fill="none" stroke="midnightblue" d="M203.52,-224.47C191.63,-193.57 163.2,-119.69 149.94,-85.25"/>
<polygon fill="midnightblue" stroke="midnightblue" points="153.07,-83.64 146.21,-75.56 146.54,-86.15 153.07,-83.64"/>
</g>
<!-- Node7 -->
<g id="node7" class="node">
<title>Node7</title>
<g id="a_node7"><a xlink:href="log_8h.html" target="_top" xlink:title=" ">
<polygon fill="none" stroke="black" points="190.42,-56.5 190.42,-75.5 227.42,-75.5 227.42,-56.5 190.42,-56.5"/>
<text text-anchor="middle" x="208.92" y="-63.5" font-family="Helvetica,sans-Serif" font-size="10.00">log.h</text>
</a>
</g>
</g>
<!-- Node1&#45;&gt;Node7 -->
<g id="edge6" class="edge">
<title>Node1&#45;&gt;Node7</title>
<path fill="none" stroke="midnightblue" d="M208.92,-224.47C208.92,-193.7 208.92,-120.33 208.92,-85.7"/>
<polygon fill="midnightblue" stroke="midnightblue" points="212.42,-85.56 208.92,-75.56 205.42,-85.56 212.42,-85.56"/>
</g>
<!-- Node11 -->
<g id="node11" class="node">
<title>Node11</title>
<g id="a_node11"><a xlink:href="http_8h.html" target="_top" xlink:title=" ">
<polygon fill="none" stroke="black" points="336.42,-168.5 336.42,-187.5 377.42,-187.5 377.42,-168.5 336.42,-168.5"/>
<text text-anchor="middle" x="356.92" y="-175.5" font-family="Helvetica,sans-Serif" font-size="10.00">http.h</text>
</a>
</g>
</g>
<!-- Node1&#45;&gt;Node11 -->
<g id="edge11" class="edge">
<title>Node1&#45;&gt;Node11</title>
<path fill="none" stroke="midnightblue" d="M243.99,-224.4C269.24,-214.25 302.93,-200.71 326.92,-191.06"/>
<polygon fill="midnightblue" stroke="midnightblue" points="328.27,-194.29 336.24,-187.31 325.66,-187.8 328.27,-194.29"/>
</g>
<!-- Node7&#45;&gt;Node4 -->
<g id="edge7" class="edge">
<title>Node7&#45;&gt;Node4</title>
<path fill="none" stroke="midnightblue" d="M190.26,-58.93C187.15,-57.94 183.95,-56.93 180.92,-56 139.43,-43.23 91.38,-29.23 60.36,-20.29"/>
<polygon fill="midnightblue" stroke="midnightblue" points="61.1,-16.86 50.53,-17.46 59.17,-23.59 61.1,-16.86"/>
</g>
<!-- Node8 -->
<g id="node8" class="node">
<title>Node8</title>
<g id="a_node8"><a xlink:title=" ">
<polygon fill="none" stroke="#bfbfbf" points="248.42,-0.5 248.42,-19.5 299.42,-19.5 299.42,-0.5 248.42,-0.5"/>
<text text-anchor="middle" x="273.92" y="-7.5" font-family="Helvetica,sans-Serif" font-size="10.00">stdarg.h</text>
</a>
</g>
</g>
<!-- Node7&#45;&gt;Node8 -->
<g id="edge8" class="edge">
<title>Node7&#45;&gt;Node8</title>
<path fill="none" stroke="midnightblue" d="M219.36,-56.32C229.07,-48.26 243.73,-36.08 255.42,-26.37"/>
<polygon fill="midnightblue" stroke="midnightblue" points="257.83,-28.92 263.29,-19.83 253.36,-23.53 257.83,-28.92"/>
</g>
<!-- Node9 -->
<g id="node9" class="node">
<title>Node9</title>
<g id="a_node9"><a xlink:title=" ">
<polygon fill="none" stroke="#bfbfbf" points="112.92,-0.5 112.92,-19.5 168.92,-19.5 168.92,-0.5 112.92,-0.5"/>
<text text-anchor="middle" x="140.92" y="-7.5" font-family="Helvetica,sans-Serif" font-size="10.00">stdbool.h</text>
</a>
</g>
</g>
<!-- Node7&#45;&gt;Node9 -->
<g id="edge9" class="edge">
<title>Node7&#45;&gt;Node9</title>
<path fill="none" stroke="midnightblue" d="M197.99,-56.32C187.74,-48.18 172.2,-35.84 159.92,-26.09"/>
<polygon fill="midnightblue" stroke="midnightblue" points="162.05,-23.31 152.04,-19.83 157.7,-28.79 162.05,-23.31"/>
</g>
<!-- Node10 -->
<g id="node10" class="node">
<title>Node10</title>
<g id="a_node10"><a xlink:title=" ">
<polygon fill="none" stroke="#bfbfbf" points="187.42,-0.5 187.42,-19.5 230.42,-19.5 230.42,-0.5 187.42,-0.5"/>
<text text-anchor="middle" x="208.92" y="-7.5" font-family="Helvetica,sans-Serif" font-size="10.00">time.h</text>
</a>
</g>
</g>
<!-- Node7&#45;&gt;Node10 -->
<g id="edge10" class="edge">
<title>Node7&#45;&gt;Node10</title>
<path fill="none" stroke="midnightblue" d="M208.92,-56.08C208.92,-49.01 208.92,-38.86 208.92,-29.99"/>
<polygon fill="midnightblue" stroke="midnightblue" points="212.42,-29.75 208.92,-19.75 205.42,-29.75 212.42,-29.75"/>
</g>
<!-- Node11&#45;&gt;Node2 -->
<g id="edge13" class="edge">
<title>Node11&#45;&gt;Node2</title>
<path fill="none" stroke="midnightblue" d="M373.79,-168.43C399.7,-155.42 451.01,-130.28 495.92,-112 527.73,-99.05 564.82,-86.36 591.04,-77.77"/>
<polygon fill="midnightblue" stroke="midnightblue" points="592.44,-81 600.87,-74.58 590.28,-74.34 592.44,-81"/>
</g>
<!-- Node11&#45;&gt;Node3 -->
<g id="edge12" class="edge">
<title>Node11&#45;&gt;Node3</title>
<path fill="none" stroke="midnightblue" d="M377.56,-170.2C433.57,-151.76 588.78,-100.64 657.48,-78.01"/>
<polygon fill="midnightblue" stroke="midnightblue" points="658.94,-81.22 667.34,-74.76 656.75,-74.57 658.94,-81.22"/>
</g>
<!-- Node11&#45;&gt;Node6 -->
<g id="edge14" class="edge">
<title>Node11&#45;&gt;Node6</title>
<path fill="none" stroke="midnightblue" d="M340.13,-168.37C302.86,-149.21 213.02,-103.04 168.63,-80.22"/>
<polygon fill="midnightblue" stroke="midnightblue" points="170.13,-77.05 159.63,-75.59 166.93,-83.28 170.13,-77.05"/>
</g>
<!-- Node12 -->
<g id="node12" class="node">
<title>Node12</title>
<g id="a_node12"><a xlink:href="utils_8h.html" target="_top" xlink:title=" ">
<polygon fill="none" stroke="black" points="335.92,-112.5 335.92,-131.5 377.92,-131.5 377.92,-112.5 335.92,-112.5"/>
<text text-anchor="middle" x="356.92" y="-119.5" font-family="Helvetica,sans-Serif" font-size="10.00">utils.h</text>
</a>
</g>
</g>
<!-- Node11&#45;&gt;Node12 -->
<g id="edge15" class="edge">
<title>Node11&#45;&gt;Node12</title>
<path fill="none" stroke="midnightblue" d="M356.92,-168.08C356.92,-161.01 356.92,-150.86 356.92,-141.99"/>
<polygon fill="midnightblue" stroke="midnightblue" points="360.42,-141.75 356.92,-131.75 353.42,-141.75 360.42,-141.75"/>
</g>
<!-- Node12&#45;&gt;Node2 -->
<g id="edge17" class="edge">
<title>Node12&#45;&gt;Node2</title>
<path fill="none" stroke="midnightblue" d="M378.1,-117.51C417.85,-110.83 506.52,-95.38 590.83,-76.11"/>
<polygon fill="midnightblue" stroke="midnightblue" points="591.87,-79.46 600.82,-73.8 590.29,-72.64 591.87,-79.46"/>
</g>
<!-- Node12&#45;&gt;Node3 -->
<g id="edge16" class="edge">
<title>Node12&#45;&gt;Node3</title>
<path fill="none" stroke="midnightblue" d="M378.24,-118.69C426.26,-113.3 546.66,-98.75 657.23,-75.92"/>
<polygon fill="midnightblue" stroke="midnightblue" points="658.14,-79.3 667.21,-73.83 656.7,-72.45 658.14,-79.3"/>
</g>
<!-- Node12&#45;&gt;Node5 -->
<g id="edge20" class="edge">
<title>Node12&#45;&gt;Node5</title>
<path fill="none" stroke="midnightblue" d="M335.59,-117.22C293.58,-109.78 196.89,-92.62 105.61,-76.3"/>
<polygon fill="midnightblue" stroke="midnightblue" points="106.12,-72.84 95.66,-74.52 104.89,-79.73 106.12,-72.84"/>
</g>
<!-- Node12&#45;&gt;Node6 -->
<g id="edge18" class="edge">
<title>Node12&#45;&gt;Node6</title>
<path fill="none" stroke="midnightblue" d="M335.62,-115.62C299.94,-106.62 227.58,-88.36 182.39,-76.96"/>
<polygon fill="midnightblue" stroke="midnightblue" points="183.18,-73.55 172.63,-74.5 181.47,-80.34 183.18,-73.55"/>
</g>
<!-- Node12&#45;&gt;Node7 -->
<g id="edge25" class="edge">
<title>Node12&#45;&gt;Node7</title>
<path fill="none" stroke="midnightblue" d="M335.71,-113.26C309.83,-103.82 265.97,-87.82 237.22,-77.33"/>
<polygon fill="midnightblue" stroke="midnightblue" points="238.34,-74.01 227.74,-73.87 235.94,-80.58 238.34,-74.01"/>
</g>
<!-- Node13 -->
<g id="node13" class="node">
<title>Node13</title>
<g id="a_node13"><a xlink:title=" ">
<polygon fill="none" stroke="#bfbfbf" points="456.92,-56.5 456.92,-75.5 504.92,-75.5 504.92,-56.5 456.92,-56.5"/>
<text text-anchor="middle" x="480.92" y="-63.5" font-family="Helvetica,sans-Serif" font-size="10.00">stdint.h</text>
</a>
</g>
</g>
<!-- Node12&#45;&gt;Node13 -->
<g id="edge19" class="edge">
<title>Node12&#45;&gt;Node13</title>
<path fill="none" stroke="midnightblue" d="M376.57,-112.44C396.88,-103.6 428.82,-89.69 452.02,-79.59"/>
<polygon fill="midnightblue" stroke="midnightblue" points="453.59,-82.72 461.36,-75.52 450.8,-76.3 453.59,-82.72"/>
</g>
<!-- Node14 -->
<g id="node14" class="node">
<title>Node14</title>
<g id="a_node14"><a xlink:title=" ">
<polygon fill="none" stroke="#bfbfbf" points="523.42,-56.5 523.42,-75.5 582.42,-75.5 582.42,-56.5 523.42,-56.5"/>
<text text-anchor="middle" x="552.92" y="-63.5" font-family="Helvetica,sans-Serif" font-size="10.00">sys/stat.h</text>
</a>
</g>
</g>
<!-- Node12&#45;&gt;Node14 -->
<g id="edge21" class="edge">
<title>Node12&#45;&gt;Node14</title>
<path fill="none" stroke="midnightblue" d="M378.27,-115.12C410.65,-106.2 472.7,-89.1 513.45,-77.87"/>
<polygon fill="midnightblue" stroke="midnightblue" points="514.61,-81.18 523.32,-75.15 512.75,-74.44 514.61,-81.18"/>
</g>
<!-- Node15 -->
<g id="node15" class="node">
<title>Node15</title>
<g id="a_node15"><a xlink:title=" ">
<polygon fill="none" stroke="#bfbfbf" points="245.42,-56.5 245.42,-75.5 310.42,-75.5 310.42,-56.5 245.42,-56.5"/>
<text text-anchor="middle" x="277.92" y="-63.5" font-family="Helvetica,sans-Serif" font-size="10.00">sys/types.h</text>
</a>
</g>
</g>
<!-- Node12&#45;&gt;Node15 -->
<g id="edge22" class="edge">
<title>Node12&#45;&gt;Node15</title>
<path fill="none" stroke="midnightblue" d="M344.23,-112.32C332.02,-103.98 313.34,-91.21 298.92,-81.35"/>
<polygon fill="midnightblue" stroke="midnightblue" points="300.81,-78.41 290.58,-75.65 296.86,-84.19 300.81,-78.41"/>
</g>
<!-- Node16 -->
<g id="node16" class="node">
<title>Node16</title>
<g id="a_node16"><a xlink:title=" ">
<polygon fill="none" stroke="#bfbfbf" points="328.92,-56.5 328.92,-75.5 374.92,-75.5 374.92,-56.5 328.92,-56.5"/>
<text text-anchor="middle" x="351.92" y="-63.5" font-family="Helvetica,sans-Serif" font-size="10.00">errno.h</text>
</a>
</g>
</g>
<!-- Node12&#45;&gt;Node16 -->
<g id="edge23" class="edge">
<title>Node12&#45;&gt;Node16</title>
<path fill="none" stroke="midnightblue" d="M356.09,-112.08C355.44,-105.01 354.5,-94.86 353.68,-85.99"/>
<polygon fill="midnightblue" stroke="midnightblue" points="357.14,-85.39 352.73,-75.75 350.17,-86.03 357.14,-85.39"/>
</g>
<!-- Node17 -->
<g id="node17" class="node">
<title>Node17</title>
<g id="a_node17"><a xlink:title=" ">
<polygon fill="none" stroke="#bfbfbf" points="392.92,-56.5 392.92,-75.5 438.92,-75.5 438.92,-56.5 392.92,-56.5"/>
<text text-anchor="middle" x="415.92" y="-63.5" font-family="Helvetica,sans-Serif" font-size="10.00">math.h</text>
</a>
</g>
</g>
<!-- Node12&#45;&gt;Node17 -->
<g id="edge24" class="edge">
<title>Node12&#45;&gt;Node17</title>
<path fill="none" stroke="midnightblue" d="M366.4,-112.32C375.12,-104.34 388.26,-92.31 398.82,-82.65"/>
<polygon fill="midnightblue" stroke="midnightblue" points="401.25,-85.17 406.27,-75.83 396.53,-80 401.25,-85.17"/>
</g>
</g>
</svg>
