<?xml version="1.0" encoding="UTF-8" standalone="no"?>
<!DOCTYPE svg PUBLIC "-//W3C//DTD SVG 1.1//EN"
 "http://www.w3.org/Graphics/SVG/1.1/DTD/svg11.dtd">
<!-- Generated by graphviz version 2.49.3 (20211027.1534)
 -->
<!-- Title: include/WillyWeather/authenticate.h Pages: 1 -->
<svg width="482pt" height="285pt"
 viewBox="0.00 0.00 481.50 285.00" xmlns="http://www.w3.org/2000/svg" xmlns:xlink="http://www.w3.org/1999/xlink">
<g id="graph0" class="graph" transform="scale(1 1) rotate(0) translate(4 281)">
<title>include/WillyWeather/authenticate.h</title>
<!-- Node1 -->
<g id="node1" class="node">
<title>Node1</title>
<g id="a_node1"><a xlink:title=" ">
<polygon fill="#bfbfbf" stroke="black" points="190.5,-246.5 190.5,-276.5 297.5,-276.5 297.5,-246.5 190.5,-246.5"/>
<text text-anchor="start" x="198.5" y="-264.5" font-family="Helvetica,sans-Serif" font-size="10.00">include/WillyWeather</text>
<text text-anchor="middle" x="244" y="-253.5" font-family="Helvetica,sans-Serif" font-size="10.00">/authenticate.h</text>
</a>
</g>
</g>
<!-- Node2 -->
<g id="node2" class="node">
<title>Node2</title>
<g id="a_node2"><a xlink:href="location_8h.html" target="_top" xlink:title=" ">
<polygon fill="none" stroke="black" points="143.5,-179.5 143.5,-209.5 250.5,-209.5 250.5,-179.5 143.5,-179.5"/>
<text text-anchor="start" x="151.5" y="-197.5" font-family="Helvetica,sans-Serif" font-size="10.00">include/WillyWeather</text>
<text text-anchor="middle" x="197" y="-186.5" font-family="Helvetica,sans-Serif" font-size="10.00">/location.h</text>
</a>
</g>
</g>
<!-- Node1&#45;&gt;Node2 -->
<g id="edge1" class="edge">
<title>Node1&#45;&gt;Node2</title>
<path fill="none" stroke="midnightblue" d="M227.84,-238.16C220.99,-228.68 213.21,-217.92 207.18,-209.58"/>
<polygon fill="midnightblue" stroke="midnightblue" points="225.11,-240.34 233.8,-246.4 230.78,-236.24 225.11,-240.34"/>
</g>
<!-- Node3 -->
<g id="node3" class="node">
<title>Node3</title>
<g id="a_node3"><a xlink:href="tide_8h.html" target="_top" xlink:title=" ">
<polygon fill="none" stroke="black" points="4.5,-112.5 4.5,-142.5 111.5,-142.5 111.5,-112.5 4.5,-112.5"/>
<text text-anchor="start" x="12.5" y="-130.5" font-family="Helvetica,sans-Serif" font-size="10.00">include/WillyWeather</text>
<text text-anchor="middle" x="58" y="-119.5" font-family="Helvetica,sans-Serif" font-size="10.00">/tide.h</text>
</a>
</g>
</g>
<!-- Node1&#45;&gt;Node3 -->
<g id="edge7" class="edge">
<title>Node1&#45;&gt;Node3</title>
<path fill="none" stroke="midnightblue" d="M194.35,-242.57C174.61,-234.23 152.3,-223.21 134,-210 107.02,-190.52 81.99,-160.43 68.46,-142.77"/>
<polygon fill="midnightblue" stroke="midnightblue" points="193.22,-245.89 203.8,-246.44 195.87,-239.41 193.22,-245.89"/>
</g>
<!-- Node4 -->
<g id="node4" class="node">
<title>Node4</title>
<g id="a_node4"><a xlink:href="main_8h.html" target="_top" xlink:title=" ">
<polygon fill="none" stroke="black" points="192.5,-56.5 192.5,-75.5 271.5,-75.5 271.5,-56.5 192.5,-56.5"/>
<text text-anchor="middle" x="232" y="-63.5" font-family="Helvetica,sans-Serif" font-size="10.00">include/main.h</text>
</a>
</g>
</g>
<!-- Node1&#45;&gt;Node4 -->
<g id="edge8" class="edge">
<title>Node1&#45;&gt;Node4</title>
<path fill="none" stroke="midnightblue" d="M256.47,-236.9C270.51,-206.99 289.36,-154.26 273,-112 267.12,-96.82 253.48,-83.62 243.54,-75.51"/>
<polygon fill="midnightblue" stroke="midnightblue" points="253.21,-235.6 251.95,-246.12 259.49,-238.68 253.21,-235.6"/>
</g>
<!-- Node8 -->
<g id="node8" class="node">
<title>Node8</title>
<g id="a_node8"><a xlink:href="_willy_weather_2authenticate_8c.html" target="_top" xlink:title=" ">
<polygon fill="none" stroke="black" points="320.5,-185 320.5,-204 473.5,-204 473.5,-185 320.5,-185"/>
<text text-anchor="middle" x="397" y="-192" font-family="Helvetica,sans-Serif" font-size="10.00">src/WillyWeather/authenticate.c</text>
</a>
</g>
</g>
<!-- Node1&#45;&gt;Node8 -->
<g id="edge9" class="edge">
<title>Node1&#45;&gt;Node8</title>
<path fill="none" stroke="midnightblue" d="M286.47,-242.46C316.03,-229.9 354.1,-213.72 376.98,-204.01"/>
<polygon fill="midnightblue" stroke="midnightblue" points="285.03,-239.26 277.2,-246.4 287.77,-245.71 285.03,-239.26"/>
</g>
<!-- Node2&#45;&gt;Node3 -->
<g id="edge2" class="edge">
<title>Node2&#45;&gt;Node3</title>
<path fill="none" stroke="midnightblue" d="M157.72,-175.13C135.63,-164.8 108.49,-152.11 88.1,-142.58"/>
<polygon fill="midnightblue" stroke="midnightblue" points="156.3,-178.33 166.84,-179.4 159.26,-171.99 156.3,-178.33"/>
</g>
<!-- Node7 -->
<g id="node7" class="node">
<title>Node7</title>
<g id="a_node7"><a xlink:href="location_8c.html" target="_top" xlink:title=" ">
<polygon fill="none" stroke="black" points="130,-118 130,-137 264,-137 264,-118 130,-118"/>
<text text-anchor="middle" x="197" y="-125" font-family="Helvetica,sans-Serif" font-size="10.00">src/WillyWeather/location.c</text>
</a>
</g>
</g>
<!-- Node2&#45;&gt;Node7 -->
<g id="edge6" class="edge">
<title>Node2&#45;&gt;Node7</title>
<path fill="none" stroke="midnightblue" d="M197,-169.25C197,-158.02 197,-145.38 197,-137.19"/>
<polygon fill="midnightblue" stroke="midnightblue" points="193.5,-169.4 197,-179.4 200.5,-169.4 193.5,-169.4"/>
</g>
<!-- Node3&#45;&gt;Node4 -->
<g id="edge3" class="edge">
<title>Node3&#45;&gt;Node4</title>
<path fill="none" stroke="midnightblue" d="M108.96,-109.08C141.19,-98.05 181.43,-84.29 206.94,-75.57"/>
<polygon fill="midnightblue" stroke="midnightblue" points="107.57,-105.85 99.24,-112.4 109.83,-112.48 107.57,-105.85"/>
</g>
<!-- Node6 -->
<g id="node6" class="node">
<title>Node6</title>
<g id="a_node6"><a xlink:href="tide_8c.html" target="_top" xlink:title=" ">
<polygon fill="none" stroke="black" points="0,-56.5 0,-75.5 116,-75.5 116,-56.5 0,-56.5"/>
<text text-anchor="middle" x="58" y="-63.5" font-family="Helvetica,sans-Serif" font-size="10.00">src/WillyWeather/tide.c</text>
</a>
</g>
</g>
<!-- Node3&#45;&gt;Node6 -->
<g id="edge5" class="edge">
<title>Node3&#45;&gt;Node6</title>
<path fill="none" stroke="midnightblue" d="M58,-102.29C58,-92.86 58,-82.65 58,-75.66"/>
<polygon fill="midnightblue" stroke="midnightblue" points="54.5,-102.4 58,-112.4 61.5,-102.4 54.5,-102.4"/>
</g>
<!-- Node5 -->
<g id="node5" class="node">
<title>Node5</title>
<g id="a_node5"><a xlink:href="main_8c.html" target="_top" xlink:title=" ">
<polygon fill="none" stroke="black" points="201,-0.5 201,-19.5 263,-19.5 263,-0.5 201,-0.5"/>
<text text-anchor="middle" x="232" y="-7.5" font-family="Helvetica,sans-Serif" font-size="10.00">src/main.c</text>
</a>
</g>
</g>
<!-- Node4&#45;&gt;Node5 -->
<g id="edge4" class="edge">
<title>Node4&#45;&gt;Node5</title>
<path fill="none" stroke="midnightblue" d="M232,-45.8C232,-36.91 232,-26.78 232,-19.75"/>
<polygon fill="midnightblue" stroke="midnightblue" points="228.5,-46.08 232,-56.08 235.5,-46.08 228.5,-46.08"/>
</g>
</g>
</svg>
