<?xml version="1.0" encoding="UTF-8" standalone="no"?>
<!DOCTYPE svg PUBLIC "-//W3C//DTD SVG 1.1//EN"
 "http://www.w3.org/Graphics/SVG/1.1/DTD/svg11.dtd">
<!-- Generated by graphviz version 2.49.3 (20211027.1534)
 -->
<!-- Title: include/WillyWeather/authenticate.h Pages: 1 -->
<svg width="1019pt" height="363pt"
 viewBox="0.00 0.00 1018.50 363.00" xmlns="http://www.w3.org/2000/svg" xmlns:xlink="http://www.w3.org/1999/xlink">
<g id="graph0" class="graph" transform="scale(1 1) rotate(0) translate(4 359)">
<title>include/WillyWeather/authenticate.h</title>
<!-- Node1 -->
<g id="node1" class="node">
<title>Node1</title>
<g id="a_node1"><a xlink:title=" ">
<polygon fill="#bfbfbf" stroke="black" points="753.5,-324.5 753.5,-354.5 860.5,-354.5 860.5,-324.5 753.5,-324.5"/>
<text text-anchor="start" x="761.5" y="-342.5" font-family="Helvetica,sans-Serif" font-size="10.00">include/WillyWeather</text>
<text text-anchor="middle" x="807" y="-331.5" font-family="Helvetica,sans-Serif" font-size="10.00">/authenticate.h</text>
</a>
</g>
</g>
<!-- Node2 -->
<g id="node2" class="node">
<title>Node2</title>
<g id="a_node2"><a xlink:href="location_8h.html" target="_top" xlink:title=" ">
<polygon fill="none" stroke="black" points="401.5,-257.5 401.5,-287.5 508.5,-287.5 508.5,-257.5 401.5,-257.5"/>
<text text-anchor="start" x="409.5" y="-275.5" font-family="Helvetica,sans-Serif" font-size="10.00">include/WillyWeather</text>
<text text-anchor="middle" x="455" y="-264.5" font-family="Helvetica,sans-Serif" font-size="10.00">/location.h</text>
</a>
</g>
</g>
<!-- Node1&#45;&gt;Node2 -->
<g id="edge1" class="edge">
<title>Node1&#45;&gt;Node2</title>
<path fill="none" stroke="midnightblue" d="M743.12,-326.7C675.98,-314.31 571.53,-295.02 508.55,-283.39"/>
<polygon fill="midnightblue" stroke="midnightblue" points="742.69,-330.18 753.16,-328.56 743.96,-323.3 742.69,-330.18"/>
</g>
<!-- Node4 -->
<g id="node4" class="node">
<title>Node4</title>
<g id="a_node4"><a xlink:href="main_8h.html" target="_top" xlink:title=" ">
<polygon fill="none" stroke="black" points="475.5,-62 475.5,-81 554.5,-81 554.5,-62 475.5,-62"/>
<text text-anchor="middle" x="515" y="-69" font-family="Helvetica,sans-Serif" font-size="10.00">include/main.h</text>
</a>
</g>
</g>
<!-- Node1&#45;&gt;Node4 -->
<g id="edge21" class="edge">
<title>Node1&#45;&gt;Node4</title>
<path fill="none" stroke="midnightblue" d="M816.24,-314.88C831.56,-271.32 856.23,-177.81 810,-123 777.8,-84.82 627.59,-75.5 554.78,-73.23"/>
<polygon fill="midnightblue" stroke="midnightblue" points="812.93,-313.75 812.78,-324.34 819.5,-316.16 812.93,-313.75"/>
</g>
<!-- Node9 -->
<g id="node9" class="node">
<title>Node9</title>
<g id="a_node9"><a xlink:href="tide_8h.html" target="_top" xlink:title=" ">
<polygon fill="none" stroke="black" points="624.5,-190.5 624.5,-220.5 731.5,-220.5 731.5,-190.5 624.5,-190.5"/>
<text text-anchor="start" x="632.5" y="-208.5" font-family="Helvetica,sans-Serif" font-size="10.00">include/WillyWeather</text>
<text text-anchor="middle" x="678" y="-197.5" font-family="Helvetica,sans-Serif" font-size="10.00">/tide.h</text>
</a>
</g>
</g>
<!-- Node1&#45;&gt;Node9 -->
<g id="edge20" class="edge">
<title>Node1&#45;&gt;Node9</title>
<path fill="none" stroke="midnightblue" d="M785.89,-316.9C759.26,-289.65 714.24,-243.58 691.71,-220.52"/>
<polygon fill="midnightblue" stroke="midnightblue" points="783.7,-319.67 793.19,-324.37 788.71,-314.78 783.7,-319.67"/>
</g>
<!-- Node16 -->
<g id="node16" class="node">
<title>Node16</title>
<g id="a_node16"><a xlink:href="_willy_weather_2authenticate_8c.html" target="_top" xlink:title=" ">
<polygon fill="none" stroke="black" points="857.5,-263 857.5,-282 1010.5,-282 1010.5,-263 857.5,-263"/>
<text text-anchor="middle" x="934" y="-270" font-family="Helvetica,sans-Serif" font-size="10.00">src/WillyWeather/authenticate.c</text>
</a>
</g>
</g>
<!-- Node1&#45;&gt;Node16 -->
<g id="edge22" class="edge">
<title>Node1&#45;&gt;Node16</title>
<path fill="none" stroke="midnightblue" d="M843.53,-319.8C867.88,-307.34 898.72,-291.56 917.38,-282.01"/>
<polygon fill="midnightblue" stroke="midnightblue" points="841.86,-316.72 834.56,-324.4 845.05,-322.96 841.86,-316.72"/>
</g>
<!-- Node3 -->
<g id="node3" class="node">
<title>Node3</title>
<g id="a_node3"><a xlink:href="harvest__areas_8h.html" target="_top" xlink:title=" ">
<polygon fill="none" stroke="black" points="9,-123.5 9,-153.5 119,-153.5 119,-123.5 9,-123.5"/>
<text text-anchor="start" x="17" y="-141.5" font-family="Helvetica,sans-Serif" font-size="10.00">include/FoodAuthority</text>
<text text-anchor="middle" x="64" y="-130.5" font-family="Helvetica,sans-Serif" font-size="10.00">/harvest_areas.h</text>
</a>
</g>
</g>
<!-- Node2&#45;&gt;Node3 -->
<g id="edge2" class="edge">
<title>Node2&#45;&gt;Node3</title>
<path fill="none" stroke="midnightblue" d="M391.38,-254.45C365.31,-246.17 335.36,-234.97 310,-221 290.6,-210.32 290.89,-199.74 271,-190 264.07,-186.6 178.09,-166.15 119.15,-152.34"/>
<polygon fill="midnightblue" stroke="midnightblue" points="390.58,-257.86 401.17,-257.47 392.65,-251.18 390.58,-257.86"/>
</g>
<!-- Node7 -->
<g id="node7" class="node">
<title>Node7</title>
<g id="a_node7"><a xlink:href="precipitation_8h.html" target="_top" xlink:title=" ">
<polygon fill="none" stroke="black" points="461.5,-190.5 461.5,-220.5 568.5,-220.5 568.5,-190.5 461.5,-190.5"/>
<text text-anchor="start" x="469.5" y="-208.5" font-family="Helvetica,sans-Serif" font-size="10.00">include/WillyWeather</text>
<text text-anchor="middle" x="515" y="-197.5" font-family="Helvetica,sans-Serif" font-size="10.00">/precipitation.h</text>
</a>
</g>
</g>
<!-- Node2&#45;&gt;Node7 -->
<g id="edge6" class="edge">
<title>Node2&#45;&gt;Node7</title>
<path fill="none" stroke="midnightblue" d="M474.82,-250.02C483.76,-240.34 494.07,-229.17 502.01,-220.58"/>
<polygon fill="midnightblue" stroke="midnightblue" points="472.23,-247.67 468.02,-257.4 477.37,-252.42 472.23,-247.67"/>
</g>
<!-- Node2&#45;&gt;Node9 -->
<g id="edge9" class="edge">
<title>Node2&#45;&gt;Node9</title>
<path fill="none" stroke="midnightblue" d="M513.05,-254.58C549.27,-244.02 595.35,-230.59 629.59,-220.61"/>
<polygon fill="midnightblue" stroke="midnightblue" points="511.73,-251.32 503.11,-257.48 513.69,-258.04 511.73,-251.32"/>
</g>
<!-- Node11 -->
<g id="node11" class="node">
<title>Node11</title>
<g id="a_node11"><a xlink:href="transform_8h.html" target="_top" xlink:title=" ">
<polygon fill="none" stroke="black" points="318.5,-196 318.5,-215 417.5,-215 417.5,-196 318.5,-196"/>
<text text-anchor="middle" x="368" y="-203" font-family="Helvetica,sans-Serif" font-size="10.00">include/transform.h</text>
</a>
</g>
</g>
<!-- Node2&#45;&gt;Node11 -->
<g id="edge12" class="edge">
<title>Node2&#45;&gt;Node11</title>
<path fill="none" stroke="midnightblue" d="M428.02,-251.34C411.78,-239.21 391.94,-224.39 379.64,-215.19"/>
<polygon fill="midnightblue" stroke="midnightblue" points="426.02,-254.21 436.12,-257.4 430.21,-248.61 426.02,-254.21"/>
</g>
<!-- Node15 -->
<g id="node15" class="node">
<title>Node15</title>
<g id="a_node15"><a xlink:href="location_8c.html" target="_top" xlink:title=" ">
<polygon fill="none" stroke="black" points="128,-196 128,-215 262,-215 262,-196 128,-196"/>
<text text-anchor="middle" x="195" y="-203" font-family="Helvetica,sans-Serif" font-size="10.00">src/WillyWeather/location.c</text>
</a>
</g>
</g>
<!-- Node2&#45;&gt;Node15 -->
<g id="edge19" class="edge">
<title>Node2&#45;&gt;Node15</title>
<path fill="none" stroke="midnightblue" d="M391.46,-255.62C340.24,-242.81 270.19,-225.3 229.05,-215.01"/>
<polygon fill="midnightblue" stroke="midnightblue" points="390.89,-259.08 401.44,-258.11 392.59,-252.29 390.89,-259.08"/>
</g>
<!-- Node3&#45;&gt;Node4 -->
<g id="edge3" class="edge">
<title>Node3&#45;&gt;Node4</title>
<path fill="none" stroke="midnightblue" d="M129.01,-122.92C261.39,-99.73 406.65,-83.54 475.26,-76.45"/>
<polygon fill="midnightblue" stroke="midnightblue" points="128.33,-119.49 119.09,-124.68 129.55,-126.38 128.33,-119.49"/>
</g>
<!-- Node6 -->
<g id="node6" class="node">
<title>Node6</title>
<g id="a_node6"><a xlink:href="harvest__areas_8c.html" target="_top" xlink:title=" ">
<polygon fill="none" stroke="black" points="0,-56.5 0,-86.5 128,-86.5 128,-56.5 0,-56.5"/>
<text text-anchor="start" x="8" y="-74.5" font-family="Helvetica,sans-Serif" font-size="10.00">src/FoodAuthority/harvest</text>
<text text-anchor="middle" x="64" y="-63.5" font-family="Helvetica,sans-Serif" font-size="10.00">_areas.c</text>
</a>
</g>
</g>
<!-- Node3&#45;&gt;Node6 -->
<g id="edge5" class="edge">
<title>Node3&#45;&gt;Node6</title>
<path fill="none" stroke="midnightblue" d="M64,-113.11C64,-104.15 64,-94.32 64,-86.58"/>
<polygon fill="midnightblue" stroke="midnightblue" points="60.5,-113.4 64,-123.4 67.5,-113.4 60.5,-113.4"/>
</g>
<!-- Node5 -->
<g id="node5" class="node">
<title>Node5</title>
<g id="a_node5"><a xlink:href="main_8c.html" target="_top" xlink:title=" ">
<polygon fill="none" stroke="black" points="484,-0.5 484,-19.5 546,-19.5 546,-0.5 484,-0.5"/>
<text text-anchor="middle" x="515" y="-7.5" font-family="Helvetica,sans-Serif" font-size="10.00">src/main.c</text>
</a>
</g>
</g>
<!-- Node4&#45;&gt;Node5 -->
<g id="edge4" class="edge">
<title>Node4&#45;&gt;Node5</title>
<path fill="none" stroke="midnightblue" d="M515,-51.82C515,-41 515,-27.9 515,-19.51"/>
<polygon fill="midnightblue" stroke="midnightblue" points="511.5,-51.98 515,-61.98 518.5,-51.98 511.5,-51.98"/>
</g>
<!-- Node7&#45;&gt;Node4 -->
<g id="edge7" class="edge">
<title>Node7&#45;&gt;Node4</title>
<path fill="none" stroke="midnightblue" d="M565.4,-185.75C579.05,-178.08 592.2,-167.71 600,-154 606.81,-142.03 606.81,-134.97 600,-123 587.94,-101.82 563.11,-88.59 543.38,-81.02"/>
<polygon fill="midnightblue" stroke="midnightblue" points="563.67,-182.7 556.4,-190.4 566.89,-188.91 563.67,-182.7"/>
</g>
<!-- Node8 -->
<g id="node8" class="node">
<title>Node8</title>
<g id="a_node8"><a xlink:href="precipitation_8c.html" target="_top" xlink:title=" ">
<polygon fill="none" stroke="black" points="439,-129 439,-148 591,-148 591,-129 439,-129"/>
<text text-anchor="middle" x="515" y="-136" font-family="Helvetica,sans-Serif" font-size="10.00">src/WillyWeather/precipitation.c</text>
</a>
</g>
</g>
<!-- Node7&#45;&gt;Node8 -->
<g id="edge8" class="edge">
<title>Node7&#45;&gt;Node8</title>
<path fill="none" stroke="midnightblue" d="M515,-180.25C515,-169.02 515,-156.38 515,-148.19"/>
<polygon fill="midnightblue" stroke="midnightblue" points="511.5,-180.4 515,-190.4 518.5,-180.4 511.5,-180.4"/>
</g>
<!-- Node9&#45;&gt;Node4 -->
<g id="edge10" class="edge">
<title>Node9&#45;&gt;Node4</title>
<path fill="none" stroke="midnightblue" d="M664.67,-181.63C653.45,-163.9 636.05,-139.62 616,-123 592.91,-103.86 561.34,-89.56 539.68,-81.15"/>
<polygon fill="midnightblue" stroke="midnightblue" points="661.74,-183.55 669.96,-190.24 667.71,-179.88 661.74,-183.55"/>
</g>
<!-- Node10 -->
<g id="node10" class="node">
<title>Node10</title>
<g id="a_node10"><a xlink:href="tide_8c.html" target="_top" xlink:title=" ">
<polygon fill="none" stroke="black" points="685,-129 685,-148 801,-148 801,-129 685,-129"/>
<text text-anchor="middle" x="743" y="-136" font-family="Helvetica,sans-Serif" font-size="10.00">src/WillyWeather/tide.c</text>
</a>
</g>
</g>
<!-- Node9&#45;&gt;Node10 -->
<g id="edge11" class="edge">
<title>Node9&#45;&gt;Node10</title>
<path fill="none" stroke="midnightblue" d="M699.5,-183C711.37,-171.13 725.45,-157.05 734.31,-148.19"/>
<polygon fill="midnightblue" stroke="midnightblue" points="696.7,-180.85 692.1,-190.4 701.65,-185.8 696.7,-180.85"/>
</g>
<!-- Node11&#45;&gt;Node3 -->
<g id="edge13" class="edge">
<title>Node11&#45;&gt;Node3</title>
<path fill="none" stroke="midnightblue" d="M320.75,-193.68C315.11,-192.42 309.43,-191.17 304,-190 225.95,-173.18 206.05,-170.82 128,-154 125.1,-153.38 122.14,-152.73 119.14,-152.07"/>
<polygon fill="midnightblue" stroke="midnightblue" points="320.28,-197.16 330.8,-195.93 321.81,-190.33 320.28,-197.16"/>
</g>
<!-- Node11&#45;&gt;Node4 -->
<g id="edge17" class="edge">
<title>Node11&#45;&gt;Node4</title>
<path fill="none" stroke="midnightblue" d="M378.42,-187.08C389.59,-169.43 408.62,-142.07 430,-123 450.24,-104.95 477.88,-89.94 496.07,-81.1"/>
<polygon fill="midnightblue" stroke="midnightblue" points="375.33,-185.43 373.06,-195.78 381.29,-189.1 375.33,-185.43"/>
</g>
<!-- Node12 -->
<g id="node12" class="node">
<title>Node12</title>
<g id="a_node12"><a xlink:href="timeseries_8h.html" target="_top" xlink:title=" ">
<polygon fill="none" stroke="black" points="137.5,-129 137.5,-148 282.5,-148 282.5,-129 137.5,-129"/>
<text text-anchor="middle" x="210" y="-136" font-family="Helvetica,sans-Serif" font-size="10.00">include/IBM_EIS/timeseries.h</text>
</a>
</g>
</g>
<!-- Node11&#45;&gt;Node12 -->
<g id="edge14" class="edge">
<title>Node11&#45;&gt;Node12</title>
<path fill="none" stroke="midnightblue" d="M337.49,-191.95C306.21,-179.08 258.38,-159.4 231.07,-148.17"/>
<polygon fill="midnightblue" stroke="midnightblue" points="336.44,-195.3 347.02,-195.87 339.1,-188.83 336.44,-195.3"/>
</g>
<!-- Node14 -->
<g id="node14" class="node">
<title>Node14</title>
<g id="a_node14"><a xlink:href="transform_8c.html" target="_top" xlink:title=" ">
<polygon fill="none" stroke="black" points="301,-129 301,-148 383,-148 383,-129 301,-129"/>
<text text-anchor="middle" x="342" y="-136" font-family="Helvetica,sans-Serif" font-size="10.00">src/transform.c</text>
</a>
</g>
</g>
<!-- Node11&#45;&gt;Node14 -->
<g id="edge18" class="edge">
<title>Node11&#45;&gt;Node14</title>
<path fill="none" stroke="midnightblue" d="M360.72,-186.29C355.72,-173.81 349.33,-157.81 345.45,-148.13"/>
<polygon fill="midnightblue" stroke="midnightblue" points="357.53,-187.75 364.49,-195.73 364.03,-185.15 357.53,-187.75"/>
</g>
<!-- Node12&#45;&gt;Node4 -->
<g id="edge15" class="edge">
<title>Node12&#45;&gt;Node4</title>
<path fill="none" stroke="midnightblue" d="M260.22,-126.8C320.42,-113.97 420.07,-92.73 475.21,-80.98"/>
<polygon fill="midnightblue" stroke="midnightblue" points="259.24,-123.43 250.19,-128.94 260.7,-130.27 259.24,-123.43"/>
</g>
<!-- Node13 -->
<g id="node13" class="node">
<title>Node13</title>
<g id="a_node13"><a xlink:href="timeseries_8c.html" target="_top" xlink:title=" ">
<polygon fill="none" stroke="black" points="146,-62 146,-81 274,-81 274,-62 146,-62"/>
<text text-anchor="middle" x="210" y="-69" font-family="Helvetica,sans-Serif" font-size="10.00">src/IBM_EIS/timeseries.c</text>
</a>
</g>
</g>
<!-- Node12&#45;&gt;Node13 -->
<g id="edge16" class="edge">
<title>Node12&#45;&gt;Node13</title>
<path fill="none" stroke="midnightblue" d="M210,-118.54C210,-106.17 210,-90.62 210,-81.13"/>
<polygon fill="midnightblue" stroke="midnightblue" points="206.5,-118.73 210,-128.73 213.5,-118.73 206.5,-118.73"/>
</g>
</g>
</svg>
