<?xml version="1.0" encoding="UTF-8" standalone="no"?>
<!DOCTYPE svg PUBLIC "-//W3C//DTD SVG 1.1//EN"
 "http://www.w3.org/Graphics/SVG/1.1/DTD/svg11.dtd">
<!-- Generated by graphviz version 2.43.0 (0)
 -->
<!-- Title: src/WillyWeather/authenticate.c Pages: 1 -->
<svg width="851pt" height="302pt"
 viewBox="0.00 0.00 850.59 302.00" xmlns="http://www.w3.org/2000/svg" xmlns:xlink="http://www.w3.org/1999/xlink">
<g id="graph0" class="graph" transform="scale(1 1) rotate(0) translate(4 298)">
<title>src/WillyWeather/authenticate.c</title>
<!-- Node1 -->
<g id="node1" class="node">
<title>Node1</title>
<g id="a_node1"><a xlink:title=" ">
<polygon fill="#999999" stroke="#666666" points="303.09,-294 131.09,-294 131.09,-275 303.09,-275 303.09,-294"/>
<text text-anchor="middle" x="217.09" y="-282" font-family="Helvetica,sans-Serif" font-size="10.00">src/WillyWeather/authenticate.c</text>
</a>
</g>
</g>
<!-- Node2 -->
<g id="node2" class="node">
<title>Node2</title>
<g id="a_node2"><a xlink:href="_willy_weather_2authenticate_8h.html" target="_top" xlink:title=" ">
<polygon fill="white" stroke="#666666" points="294.59,-239 139.59,-239 139.59,-220 294.59,-220 294.59,-239"/>
<text text-anchor="middle" x="217.09" y="-227" font-family="Helvetica,sans-Serif" font-size="10.00">WillyWeather/authenticate.h</text>
</a>
</g>
</g>
<!-- Node1&#45;&gt;Node2 -->
<g id="edge1" class="edge">
<title>Node1&#45;&gt;Node2</title>
<path fill="none" stroke="#63b8ff" d="M217.09,-274.75C217.09,-267.8 217.09,-257.85 217.09,-249.13"/>
<polygon fill="#63b8ff" stroke="#63b8ff" points="220.59,-249.09 217.09,-239.09 213.59,-249.09 220.59,-249.09"/>
</g>
<!-- Node3 -->
<g id="node3" class="node">
<title>Node3</title>
<g id="a_node3"><a xlink:title=" ">
<polygon fill="#e0e0e0" stroke="#999999" points="771.59,-74 718.59,-74 718.59,-55 771.59,-55 771.59,-74"/>
<text text-anchor="middle" x="745.09" y="-62" font-family="Helvetica,sans-Serif" font-size="10.00">string.h</text>
</a>
</g>
</g>
<!-- Node2&#45;&gt;Node3 -->
<g id="edge2" class="edge">
<title>Node2&#45;&gt;Node3</title>
<path fill="none" stroke="#63b8ff" d="M287.79,-219.99C337.71,-212.96 405.82,-201.3 464.09,-184 561.43,-155.09 670.64,-102.99 719.29,-78.67"/>
<polygon fill="#63b8ff" stroke="#63b8ff" points="721.11,-81.68 728.47,-74.06 717.96,-75.42 721.11,-81.68"/>
</g>
<!-- Node4 -->
<g id="node4" class="node">
<title>Node4</title>
<g id="a_node4"><a xlink:title=" ">
<polygon fill="#e0e0e0" stroke="#999999" points="842.59,-74 789.59,-74 789.59,-55 842.59,-55 842.59,-74"/>
<text text-anchor="middle" x="816.09" y="-62" font-family="Helvetica,sans-Serif" font-size="10.00">stdlib.h</text>
</a>
</g>
</g>
<!-- Node2&#45;&gt;Node4 -->
<g id="edge3" class="edge">
<title>Node2&#45;&gt;Node4</title>
<path fill="none" stroke="#63b8ff" d="M294.67,-221.08C353.39,-214.38 435.67,-202.65 506.09,-184 613.58,-155.53 735.18,-102.64 788.53,-78.33"/>
<polygon fill="#63b8ff" stroke="#63b8ff" points="790.05,-81.48 797.68,-74.13 787.13,-75.12 790.05,-81.48"/>
</g>
<!-- Node5 -->
<g id="node5" class="node">
<title>Node5</title>
<g id="a_node5"><a xlink:title=" ">
<polygon fill="#e0e0e0" stroke="#999999" points="52.09,-19 2.09,-19 2.09,0 52.09,0 52.09,-19"/>
<text text-anchor="middle" x="27.09" y="-7" font-family="Helvetica,sans-Serif" font-size="10.00">stdio.h</text>
</a>
</g>
</g>
<!-- Node2&#45;&gt;Node5 -->
<g id="edge4" class="edge">
<title>Node2&#45;&gt;Node5</title>
<path fill="none" stroke="#63b8ff" d="M193.31,-219.94C146.51,-201.63 43.48,-153.71 3.09,-74 -4.61,-58.8 4.05,-40.5 13.04,-27.47"/>
<polygon fill="#63b8ff" stroke="#63b8ff" points="15.91,-29.48 19.12,-19.38 10.32,-25.27 15.91,-29.48"/>
</g>
<!-- Node6 -->
<g id="node6" class="node">
<title>Node6</title>
<g id="a_node6"><a xlink:title=" ">
<polygon fill="#e0e0e0" stroke="#999999" points="95.59,-74 12.59,-74 12.59,-55 95.59,-55 95.59,-74"/>
<text text-anchor="middle" x="54.09" y="-62" font-family="Helvetica,sans-Serif" font-size="10.00">cjson/cJSON.h</text>
</a>
</g>
</g>
<!-- Node2&#45;&gt;Node6 -->
<g id="edge5" class="edge">
<title>Node2&#45;&gt;Node6</title>
<path fill="none" stroke="#63b8ff" d="M208.33,-219.74C182.13,-193.53 104.1,-115.51 70.16,-81.57"/>
<polygon fill="#63b8ff" stroke="#63b8ff" points="72.44,-78.9 62.9,-74.31 67.49,-83.85 72.44,-78.9"/>
</g>
<!-- Node7 -->
<g id="node7" class="node">
<title>Node7</title>
<g id="a_node7"><a xlink:title=" ">
<polygon fill="#e0e0e0" stroke="#999999" points="178.59,-74 113.59,-74 113.59,-55 178.59,-55 178.59,-74"/>
<text text-anchor="middle" x="146.09" y="-62" font-family="Helvetica,sans-Serif" font-size="10.00">curl/curl.h</text>
</a>
</g>
</g>
<!-- Node2&#45;&gt;Node7 -->
<g id="edge6" class="edge">
<title>Node2&#45;&gt;Node7</title>
<path fill="none" stroke="#63b8ff" d="M213.27,-219.74C202.1,-194.09 169.3,-118.78 154.05,-83.78"/>
<polygon fill="#63b8ff" stroke="#63b8ff" points="157.13,-82.08 149.93,-74.31 150.71,-84.87 157.13,-82.08"/>
</g>
<!-- Node8 -->
<g id="node8" class="node">
<title>Node8</title>
<g id="a_node8"><a xlink:href="log_8h.html" target="_top" xlink:title=" ">
<polygon fill="white" stroke="#666666" points="237.59,-74 196.59,-74 196.59,-55 237.59,-55 237.59,-74"/>
<text text-anchor="middle" x="217.09" y="-62" font-family="Helvetica,sans-Serif" font-size="10.00">log.h</text>
</a>
</g>
</g>
<!-- Node2&#45;&gt;Node8 -->
<g id="edge7" class="edge">
<title>Node2&#45;&gt;Node8</title>
<path fill="none" stroke="#63b8ff" d="M217.09,-219.74C217.09,-194.31 217.09,-120.08 217.09,-84.69"/>
<polygon fill="#63b8ff" stroke="#63b8ff" points="220.59,-84.31 217.09,-74.31 213.59,-84.31 220.59,-84.31"/>
</g>
<!-- Node12 -->
<g id="node12" class="node">
<title>Node12</title>
<g id="a_node12"><a xlink:href="http_8h.html" target="_top" xlink:title=" ">
<polygon fill="white" stroke="#666666" points="454.59,-184 409.59,-184 409.59,-165 454.59,-165 454.59,-184"/>
<text text-anchor="middle" x="432.09" y="-172" font-family="Helvetica,sans-Serif" font-size="10.00">http.h</text>
</a>
</g>
</g>
<!-- Node2&#45;&gt;Node12 -->
<g id="edge12" class="edge">
<title>Node2&#45;&gt;Node12</title>
<path fill="none" stroke="#63b8ff" d="M251.63,-219.98C292.47,-209.92 359.91,-193.29 399.76,-183.47"/>
<polygon fill="#63b8ff" stroke="#63b8ff" points="400.63,-186.86 409.5,-181.07 398.96,-180.06 400.63,-186.86"/>
</g>
<!-- Node8&#45;&gt;Node5 -->
<g id="edge8" class="edge">
<title>Node8&#45;&gt;Node5</title>
<path fill="none" stroke="#63b8ff" d="M196.44,-57.63C193.31,-56.75 190.11,-55.85 187.09,-55 144.13,-42.94 94.64,-29.2 62.22,-20.22"/>
<polygon fill="#63b8ff" stroke="#63b8ff" points="62.89,-16.77 52.32,-17.48 61.02,-23.52 62.89,-16.77"/>
</g>
<!-- Node9 -->
<g id="node9" class="node">
<title>Node9</title>
<g id="a_node9"><a xlink:title=" ">
<polygon fill="#e0e0e0" stroke="#999999" points="168.09,-19 112.09,-19 112.09,0 168.09,0 168.09,-19"/>
<text text-anchor="middle" x="140.09" y="-7" font-family="Helvetica,sans-Serif" font-size="10.00">stdarg.h</text>
</a>
</g>
</g>
<!-- Node8&#45;&gt;Node9 -->
<g id="edge9" class="edge">
<title>Node8&#45;&gt;Node9</title>
<path fill="none" stroke="#63b8ff" d="M204.72,-54.98C193,-46.92 175.17,-34.65 161.2,-25.03"/>
<polygon fill="#63b8ff" stroke="#63b8ff" points="162.91,-21.96 152.69,-19.17 158.94,-27.72 162.91,-21.96"/>
</g>
<!-- Node10 -->
<g id="node10" class="node">
<title>Node10</title>
<g id="a_node10"><a xlink:title=" ">
<polygon fill="#e0e0e0" stroke="#999999" points="248.09,-19 186.09,-19 186.09,0 248.09,0 248.09,-19"/>
<text text-anchor="middle" x="217.09" y="-7" font-family="Helvetica,sans-Serif" font-size="10.00">stdbool.h</text>
</a>
</g>
</g>
<!-- Node8&#45;&gt;Node10 -->
<g id="edge10" class="edge">
<title>Node8&#45;&gt;Node10</title>
<path fill="none" stroke="#63b8ff" d="M217.09,-54.75C217.09,-47.8 217.09,-37.85 217.09,-29.13"/>
<polygon fill="#63b8ff" stroke="#63b8ff" points="220.59,-29.09 217.09,-19.09 213.59,-29.09 220.59,-29.09"/>
</g>
<!-- Node11 -->
<g id="node11" class="node">
<title>Node11</title>
<g id="a_node11"><a xlink:title=" ">
<polygon fill="#e0e0e0" stroke="#999999" points="314.09,-19 266.09,-19 266.09,0 314.09,0 314.09,-19"/>
<text text-anchor="middle" x="290.09" y="-7" font-family="Helvetica,sans-Serif" font-size="10.00">time.h</text>
</a>
</g>
</g>
<!-- Node8&#45;&gt;Node11 -->
<g id="edge11" class="edge">
<title>Node8&#45;&gt;Node11</title>
<path fill="none" stroke="#63b8ff" d="M228.82,-54.98C239.82,-47 256.51,-34.88 269.7,-25.31"/>
<polygon fill="#63b8ff" stroke="#63b8ff" points="272.11,-27.88 278.15,-19.17 268,-22.21 272.11,-27.88"/>
</g>
<!-- Node12&#45;&gt;Node3 -->
<g id="edge14" class="edge">
<title>Node12&#45;&gt;Node3</title>
<path fill="none" stroke="#63b8ff" d="M451.66,-164.8C481.12,-151.88 538.76,-127.3 589.09,-110 629.47,-96.12 676.73,-83.07 708.56,-74.74"/>
<polygon fill="#63b8ff" stroke="#63b8ff" points="709.53,-78.11 718.33,-72.21 707.77,-71.33 709.53,-78.11"/>
</g>
<!-- Node12&#45;&gt;Node4 -->
<g id="edge13" class="edge">
<title>Node12&#45;&gt;Node4</title>
<path fill="none" stroke="#63b8ff" d="M454.68,-167.15C518.61,-149.17 701.24,-97.8 779.63,-75.76"/>
<polygon fill="#63b8ff" stroke="#63b8ff" points="780.85,-79.05 789.53,-72.97 778.96,-72.31 780.85,-79.05"/>
</g>
<!-- Node12&#45;&gt;Node7 -->
<g id="edge15" class="edge">
<title>Node12&#45;&gt;Node7</title>
<path fill="none" stroke="#63b8ff" d="M409.17,-164.84C358.42,-145.68 236.47,-99.63 178.18,-77.62"/>
<polygon fill="#63b8ff" stroke="#63b8ff" points="179.32,-74.31 168.72,-74.05 176.84,-80.85 179.32,-74.31"/>
</g>
<!-- Node13 -->
<g id="node13" class="node">
<title>Node13</title>
<g id="a_node13"><a xlink:href="utils_8h.html" target="_top" xlink:title=" ">
<polygon fill="white" stroke="#666666" points="455.59,-129 408.59,-129 408.59,-110 455.59,-110 455.59,-129"/>
<text text-anchor="middle" x="432.09" y="-117" font-family="Helvetica,sans-Serif" font-size="10.00">utils.h</text>
</a>
</g>
</g>
<!-- Node12&#45;&gt;Node13 -->
<g id="edge16" class="edge">
<title>Node12&#45;&gt;Node13</title>
<path fill="none" stroke="#63b8ff" d="M432.09,-164.75C432.09,-157.8 432.09,-147.85 432.09,-139.13"/>
<polygon fill="#63b8ff" stroke="#63b8ff" points="435.59,-139.09 432.09,-129.09 428.59,-139.09 435.59,-139.09"/>
</g>
<!-- Node13&#45;&gt;Node3 -->
<g id="edge18" class="edge">
<title>Node13&#45;&gt;Node3</title>
<path fill="none" stroke="#63b8ff" d="M455.64,-115.38C502.14,-109.07 609.21,-93.86 708.5,-74.2"/>
<polygon fill="#63b8ff" stroke="#63b8ff" points="709.27,-77.61 718.39,-72.22 707.89,-70.75 709.27,-77.61"/>
</g>
<!-- Node13&#45;&gt;Node4 -->
<g id="edge17" class="edge">
<title>Node13&#45;&gt;Node4</title>
<path fill="none" stroke="#63b8ff" d="M455.93,-116.38C511.17,-111.29 652.34,-97.14 779.5,-74.12"/>
<polygon fill="#63b8ff" stroke="#63b8ff" points="780.2,-77.55 789.4,-72.31 778.94,-70.67 780.2,-77.55"/>
</g>
<!-- Node13&#45;&gt;Node6 -->
<g id="edge21" class="edge">
<title>Node13&#45;&gt;Node6</title>
<path fill="none" stroke="#63b8ff" d="M408.59,-115.59C356.15,-109.03 225.4,-92.35 105.87,-74.23"/>
<polygon fill="#63b8ff" stroke="#63b8ff" points="106.23,-70.75 95.82,-72.7 105.18,-77.67 106.23,-70.75"/>
</g>
<!-- Node13&#45;&gt;Node7 -->
<g id="edge19" class="edge">
<title>Node13&#45;&gt;Node7</title>
<path fill="none" stroke="#63b8ff" d="M408.4,-114.4C366.26,-107.06 275.23,-91.01 188.73,-74.28"/>
<polygon fill="#63b8ff" stroke="#63b8ff" points="189.23,-70.82 178.75,-72.35 187.9,-77.69 189.23,-70.82"/>
</g>
<!-- Node13&#45;&gt;Node8 -->
<g id="edge26" class="edge">
<title>Node13&#45;&gt;Node8</title>
<path fill="none" stroke="#63b8ff" d="M408.36,-113.11C374.81,-105.43 311.37,-90.64 247.55,-74.03"/>
<polygon fill="#63b8ff" stroke="#63b8ff" points="248.28,-70.61 237.72,-71.46 246.51,-77.38 248.28,-70.61"/>
</g>
<!-- Node14 -->
<g id="node14" class="node">
<title>Node14</title>
<g id="a_node14"><a xlink:title=" ">
<polygon fill="#e0e0e0" stroke="#999999" points="458.59,-74 405.59,-74 405.59,-55 458.59,-55 458.59,-74"/>
<text text-anchor="middle" x="432.09" y="-62" font-family="Helvetica,sans-Serif" font-size="10.00">stdint.h</text>
</a>
</g>
</g>
<!-- Node13&#45;&gt;Node14 -->
<g id="edge20" class="edge">
<title>Node13&#45;&gt;Node14</title>
<path fill="none" stroke="#63b8ff" d="M432.09,-109.75C432.09,-102.8 432.09,-92.85 432.09,-84.13"/>
<polygon fill="#63b8ff" stroke="#63b8ff" points="435.59,-84.09 432.09,-74.09 428.59,-84.09 435.59,-84.09"/>
</g>
<!-- Node15 -->
<g id="node15" class="node">
<title>Node15</title>
<g id="a_node15"><a xlink:title=" ">
<polygon fill="#e0e0e0" stroke="#999999" points="541.09,-74 477.09,-74 477.09,-55 541.09,-55 541.09,-74"/>
<text text-anchor="middle" x="509.09" y="-62" font-family="Helvetica,sans-Serif" font-size="10.00">sys/stat.h</text>
</a>
</g>
</g>
<!-- Node13&#45;&gt;Node15 -->
<g id="edge22" class="edge">
<title>Node13&#45;&gt;Node15</title>
<path fill="none" stroke="#63b8ff" d="M444.46,-109.98C456.18,-101.92 474.01,-89.65 487.98,-80.03"/>
<polygon fill="#63b8ff" stroke="#63b8ff" points="490.24,-82.72 496.49,-74.17 486.27,-76.96 490.24,-82.72"/>
</g>
<!-- Node16 -->
<g id="node16" class="node">
<title>Node16</title>
<g id="a_node16"><a xlink:title=" ">
<polygon fill="#e0e0e0" stroke="#999999" points="631.09,-74 559.09,-74 559.09,-55 631.09,-55 631.09,-74"/>
<text text-anchor="middle" x="595.09" y="-62" font-family="Helvetica,sans-Serif" font-size="10.00">sys/types.h</text>
</a>
</g>
</g>
<!-- Node13&#45;&gt;Node16 -->
<g id="edge23" class="edge">
<title>Node13&#45;&gt;Node16</title>
<path fill="none" stroke="#63b8ff" d="M455.79,-110.79C482.96,-101.96 527.79,-87.38 559.23,-77.16"/>
<polygon fill="#63b8ff" stroke="#63b8ff" points="560.5,-80.43 568.93,-74.01 558.34,-73.77 560.5,-80.43"/>
</g>
<!-- Node17 -->
<g id="node17" class="node">
<title>Node17</title>
<g id="a_node17"><a xlink:title=" ">
<polygon fill="#e0e0e0" stroke="#999999" points="700.59,-74 649.59,-74 649.59,-55 700.59,-55 700.59,-74"/>
<text text-anchor="middle" x="675.09" y="-62" font-family="Helvetica,sans-Serif" font-size="10.00">errno.h</text>
</a>
</g>
</g>
<!-- Node13&#45;&gt;Node17 -->
<g id="edge24" class="edge">
<title>Node13&#45;&gt;Node17</title>
<path fill="none" stroke="#63b8ff" d="M455.85,-113.64C492.86,-106.02 566.78,-90.61 639.69,-74.04"/>
<polygon fill="#63b8ff" stroke="#63b8ff" points="640.53,-77.44 649.5,-71.8 638.97,-70.61 640.53,-77.44"/>
</g>
<!-- Node18 -->
<g id="node18" class="node">
<title>Node18</title>
<g id="a_node18"><a xlink:title=" ">
<polygon fill="#e0e0e0" stroke="#999999" points="306.59,-74 255.59,-74 255.59,-55 306.59,-55 306.59,-74"/>
<text text-anchor="middle" x="281.09" y="-62" font-family="Helvetica,sans-Serif" font-size="10.00">math.h</text>
</a>
</g>
</g>
<!-- Node13&#45;&gt;Node18 -->
<g id="edge25" class="edge">
<title>Node13&#45;&gt;Node18</title>
<path fill="none" stroke="#63b8ff" d="M408.5,-110.22C383.42,-101.42 343.53,-87.42 315.07,-77.43"/>
<polygon fill="#63b8ff" stroke="#63b8ff" points="316.11,-74.08 305.52,-74.07 313.8,-80.69 316.11,-74.08"/>
</g>
<!-- Node19 -->
<g id="node19" class="node">
<title>Node19</title>
<g id="a_node19"><a xlink:title=" ">
<polygon fill="#e0e0e0" stroke="#999999" points="387.59,-74 324.59,-74 324.59,-55 387.59,-55 387.59,-74"/>
<text text-anchor="middle" x="356.09" y="-62" font-family="Helvetica,sans-Serif" font-size="10.00">libpq&#45;fe.h</text>
</a>
</g>
</g>
<!-- Node13&#45;&gt;Node19 -->
<g id="edge27" class="edge">
<title>Node13&#45;&gt;Node19</title>
<path fill="none" stroke="#63b8ff" d="M419.88,-109.98C408.32,-101.92 390.72,-89.65 376.93,-80.03"/>
<polygon fill="#63b8ff" stroke="#63b8ff" points="378.73,-77.02 368.52,-74.17 374.72,-82.76 378.73,-77.02"/>
</g>
</g>
</svg>
