<?xml version="1.0" encoding="UTF-8" standalone="no"?>
<!DOCTYPE svg PUBLIC "-//W3C//DTD SVG 1.1//EN"
 "http://www.w3.org/Graphics/SVG/1.1/DTD/svg11.dtd">
<!-- Generated by graphviz version 2.49.3 (20211027.1534)
 -->
<!-- Title: src/WillyWeather/authenticate.c Pages: 1 -->
<svg width="722pt" height="308pt"
 viewBox="0.00 0.00 722.49 308.00" xmlns="http://www.w3.org/2000/svg" xmlns:xlink="http://www.w3.org/1999/xlink">
<g id="graph0" class="graph" transform="scale(1 1) rotate(0) translate(4 304)">
<title>src/WillyWeather/authenticate.c</title>
<!-- Node1 -->
<g id="node1" class="node">
<title>Node1</title>
<g id="a_node1"><a xlink:title=" ">
<polygon fill="#bfbfbf" stroke="black" points="132.49,-280.5 132.49,-299.5 285.49,-299.5 285.49,-280.5 132.49,-280.5"/>
<text text-anchor="middle" x="208.99" y="-287.5" font-family="Helvetica,sans-Serif" font-size="10.00">src/WillyWeather/authenticate.c</text>
</a>
</g>
</g>
<!-- Node2 -->
<g id="node2" class="node">
<title>Node2</title>
<g id="a_node2"><a xlink:href="_willy_weather_2authenticate_8h.html" target="_top" xlink:title=" ">
<polygon fill="none" stroke="black" points="140.49,-224.5 140.49,-243.5 277.49,-243.5 277.49,-224.5 140.49,-224.5"/>
<text text-anchor="middle" x="208.99" y="-231.5" font-family="Helvetica,sans-Serif" font-size="10.00">WillyWeather/authenticate.h</text>
</a>
</g>
</g>
<!-- Node1&#45;&gt;Node2 -->
<g id="edge1" class="edge">
<title>Node1&#45;&gt;Node2</title>
<path fill="none" stroke="midnightblue" d="M208.99,-280.08C208.99,-273.01 208.99,-262.86 208.99,-253.99"/>
<polygon fill="midnightblue" stroke="midnightblue" points="212.49,-253.75 208.99,-243.75 205.49,-253.75 212.49,-253.75"/>
</g>
<!-- Node3 -->
<g id="node3" class="node">
<title>Node3</title>
<g id="a_node3"><a xlink:title=" ">
<polygon fill="none" stroke="#bfbfbf" points="600.99,-56.5 600.99,-75.5 648.99,-75.5 648.99,-56.5 600.99,-56.5"/>
<text text-anchor="middle" x="624.99" y="-63.5" font-family="Helvetica,sans-Serif" font-size="10.00">string.h</text>
</a>
</g>
</g>
<!-- Node2&#45;&gt;Node3 -->
<g id="edge2" class="edge">
<title>Node2&#45;&gt;Node3</title>
<path fill="none" stroke="midnightblue" d="M254.46,-224.43C290.94,-216.86 343.12,-204.46 386.99,-188 469.53,-157.03 560.79,-105.29 602.25,-80.74"/>
<polygon fill="midnightblue" stroke="midnightblue" points="604.21,-83.65 611.01,-75.52 600.63,-77.63 604.21,-83.65"/>
</g>
<!-- Node4 -->
<g id="node4" class="node">
<title>Node4</title>
<g id="a_node4"><a xlink:title=" ">
<polygon fill="none" stroke="#bfbfbf" points="667.49,-56.5 667.49,-75.5 714.49,-75.5 714.49,-56.5 667.49,-56.5"/>
<text text-anchor="middle" x="690.99" y="-63.5" font-family="Helvetica,sans-Serif" font-size="10.00">stdlib.h</text>
</a>
</g>
</g>
<!-- Node2&#45;&gt;Node4 -->
<g id="edge3" class="edge">
<title>Node2&#45;&gt;Node4</title>
<path fill="none" stroke="midnightblue" d="M267.2,-224.47C311.2,-217.16 372.75,-205.09 424.99,-188 517.28,-157.81 620.25,-105.13 666.35,-80.46"/>
<polygon fill="midnightblue" stroke="midnightblue" points="668.15,-83.47 675.3,-75.64 664.83,-77.3 668.15,-83.47"/>
</g>
<!-- Node5 -->
<g id="node5" class="node">
<title>Node5</title>
<g id="a_node5"><a xlink:title=" ">
<polygon fill="none" stroke="#bfbfbf" points="5.49,-0.5 5.49,-19.5 50.49,-19.5 50.49,-0.5 5.49,-0.5"/>
<text text-anchor="middle" x="27.99" y="-7.5" font-family="Helvetica,sans-Serif" font-size="10.00">stdio.h</text>
</a>
</g>
</g>
<!-- Node2&#45;&gt;Node5 -->
<g id="edge4" class="edge">
<title>Node2&#45;&gt;Node5</title>
<path fill="none" stroke="midnightblue" d="M187.43,-224.5C142.98,-205.62 42.04,-155.51 2.99,-76 -4.8,-60.13 4.47,-41.18 13.85,-27.85"/>
<polygon fill="midnightblue" stroke="midnightblue" points="16.85,-29.69 20.15,-19.62 11.29,-25.43 16.85,-29.69"/>
</g>
<!-- Node6 -->
<g id="node6" class="node">
<title>Node6</title>
<g id="a_node6"><a xlink:title=" ">
<polygon fill="none" stroke="#bfbfbf" points="12.49,-56.5 12.49,-75.5 95.49,-75.5 95.49,-56.5 12.49,-56.5"/>
<text text-anchor="middle" x="53.99" y="-63.5" font-family="Helvetica,sans-Serif" font-size="10.00">cjson/cJSON.h</text>
</a>
</g>
</g>
<!-- Node2&#45;&gt;Node6 -->
<g id="edge5" class="edge">
<title>Node2&#45;&gt;Node6</title>
<path fill="none" stroke="midnightblue" d="M200.66,-224.08C175.63,-197.27 100.86,-117.19 68.82,-82.89"/>
<polygon fill="midnightblue" stroke="midnightblue" points="71.38,-80.49 61.99,-75.57 66.26,-85.27 71.38,-80.49"/>
</g>
<!-- Node7 -->
<g id="node7" class="node">
<title>Node7</title>
<g id="a_node7"><a xlink:title=" ">
<polygon fill="none" stroke="#bfbfbf" points="113.49,-56.5 113.49,-75.5 172.49,-75.5 172.49,-56.5 113.49,-56.5"/>
<text text-anchor="middle" x="142.99" y="-63.5" font-family="Helvetica,sans-Serif" font-size="10.00">curl/curl.h</text>
</a>
</g>
</g>
<!-- Node2&#45;&gt;Node7 -->
<g id="edge6" class="edge">
<title>Node2&#45;&gt;Node7</title>
<path fill="none" stroke="midnightblue" d="M205.44,-224.08C195.01,-197.83 164.28,-120.55 150.2,-85.12"/>
<polygon fill="midnightblue" stroke="midnightblue" points="153.35,-83.57 146.4,-75.57 146.84,-86.15 153.35,-83.57"/>
</g>
<!-- Node8 -->
<g id="node8" class="node">
<title>Node8</title>
<g id="a_node8"><a xlink:href="log_8h.html" target="_top" xlink:title=" ">
<polygon fill="none" stroke="black" points="190.49,-56.5 190.49,-75.5 227.49,-75.5 227.49,-56.5 190.49,-56.5"/>
<text text-anchor="middle" x="208.99" y="-63.5" font-family="Helvetica,sans-Serif" font-size="10.00">log.h</text>
</a>
</g>
</g>
<!-- Node2&#45;&gt;Node8 -->
<g id="edge7" class="edge">
<title>Node2&#45;&gt;Node8</title>
<path fill="none" stroke="midnightblue" d="M208.99,-224.08C208.99,-197.95 208.99,-121.21 208.99,-85.58"/>
<polygon fill="midnightblue" stroke="midnightblue" points="212.49,-85.57 208.99,-75.57 205.49,-85.57 212.49,-85.57"/>
</g>
<!-- Node12 -->
<g id="node12" class="node">
<title>Node12</title>
<g id="a_node12"><a xlink:href="http_8h.html" target="_top" xlink:title=" ">
<polygon fill="none" stroke="black" points="336.49,-168.5 336.49,-187.5 377.49,-187.5 377.49,-168.5 336.49,-168.5"/>
<text text-anchor="middle" x="356.99" y="-175.5" font-family="Helvetica,sans-Serif" font-size="10.00">http.h</text>
</a>
</g>
</g>
<!-- Node2&#45;&gt;Node12 -->
<g id="edge12" class="edge">
<title>Node2&#45;&gt;Node12</title>
<path fill="none" stroke="midnightblue" d="M232.44,-224.44C257.85,-215.17 298.49,-200.35 326.39,-190.17"/>
<polygon fill="midnightblue" stroke="midnightblue" points="327.85,-193.36 336.04,-186.64 325.45,-186.78 327.85,-193.36"/>
</g>
<!-- Node8&#45;&gt;Node5 -->
<g id="edge8" class="edge">
<title>Node8&#45;&gt;Node5</title>
<path fill="none" stroke="midnightblue" d="M190.34,-58.93C187.22,-57.94 184.02,-56.93 180.99,-56 139.5,-43.23 91.45,-29.23 60.43,-20.29"/>
<polygon fill="midnightblue" stroke="midnightblue" points="61.18,-16.86 50.6,-17.46 59.24,-23.59 61.18,-16.86"/>
</g>
<!-- Node9 -->
<g id="node9" class="node">
<title>Node9</title>
<g id="a_node9"><a xlink:title=" ">
<polygon fill="none" stroke="#bfbfbf" points="248.49,-0.5 248.49,-19.5 299.49,-19.5 299.49,-0.5 248.49,-0.5"/>
<text text-anchor="middle" x="273.99" y="-7.5" font-family="Helvetica,sans-Serif" font-size="10.00">stdarg.h</text>
</a>
</g>
</g>
<!-- Node8&#45;&gt;Node9 -->
<g id="edge9" class="edge">
<title>Node8&#45;&gt;Node9</title>
<path fill="none" stroke="midnightblue" d="M219.44,-56.32C229.14,-48.26 243.81,-36.08 255.49,-26.37"/>
<polygon fill="midnightblue" stroke="midnightblue" points="257.9,-28.92 263.36,-19.83 253.43,-23.53 257.9,-28.92"/>
</g>
<!-- Node10 -->
<g id="node10" class="node">
<title>Node10</title>
<g id="a_node10"><a xlink:title=" ">
<polygon fill="none" stroke="#bfbfbf" points="112.99,-0.5 112.99,-19.5 168.99,-19.5 168.99,-0.5 112.99,-0.5"/>
<text text-anchor="middle" x="140.99" y="-7.5" font-family="Helvetica,sans-Serif" font-size="10.00">stdbool.h</text>
</a>
</g>
</g>
<!-- Node8&#45;&gt;Node10 -->
<g id="edge10" class="edge">
<title>Node8&#45;&gt;Node10</title>
<path fill="none" stroke="midnightblue" d="M198.07,-56.32C187.82,-48.18 172.27,-35.84 159.99,-26.09"/>
<polygon fill="midnightblue" stroke="midnightblue" points="162.12,-23.31 152.12,-19.83 157.77,-28.79 162.12,-23.31"/>
</g>
<!-- Node11 -->
<g id="node11" class="node">
<title>Node11</title>
<g id="a_node11"><a xlink:title=" ">
<polygon fill="none" stroke="#bfbfbf" points="187.49,-0.5 187.49,-19.5 230.49,-19.5 230.49,-0.5 187.49,-0.5"/>
<text text-anchor="middle" x="208.99" y="-7.5" font-family="Helvetica,sans-Serif" font-size="10.00">time.h</text>
</a>
</g>
</g>
<!-- Node8&#45;&gt;Node11 -->
<g id="edge11" class="edge">
<title>Node8&#45;&gt;Node11</title>
<path fill="none" stroke="midnightblue" d="M208.99,-56.08C208.99,-49.01 208.99,-38.86 208.99,-29.99"/>
<polygon fill="midnightblue" stroke="midnightblue" points="212.49,-29.75 208.99,-19.75 205.49,-29.75 212.49,-29.75"/>
</g>
<!-- Node12&#45;&gt;Node3 -->
<g id="edge14" class="edge">
<title>Node12&#45;&gt;Node3</title>
<path fill="none" stroke="midnightblue" d="M373.86,-168.43C399.77,-155.42 451.08,-130.28 495.99,-112 527.8,-99.05 564.89,-86.36 591.11,-77.77"/>
<polygon fill="midnightblue" stroke="midnightblue" points="592.52,-81 600.95,-74.58 590.35,-74.34 592.52,-81"/>
</g>
<!-- Node12&#45;&gt;Node4 -->
<g id="edge13" class="edge">
<title>Node12&#45;&gt;Node4</title>
<path fill="none" stroke="midnightblue" d="M377.63,-170.2C433.64,-151.76 588.86,-100.64 657.55,-78.01"/>
<polygon fill="midnightblue" stroke="midnightblue" points="659.01,-81.22 667.42,-74.76 656.82,-74.57 659.01,-81.22"/>
</g>
<!-- Node12&#45;&gt;Node7 -->
<g id="edge15" class="edge">
<title>Node12&#45;&gt;Node7</title>
<path fill="none" stroke="midnightblue" d="M340.2,-168.37C302.93,-149.21 213.1,-103.04 168.71,-80.22"/>
<polygon fill="midnightblue" stroke="midnightblue" points="170.2,-77.05 159.71,-75.59 167,-83.28 170.2,-77.05"/>
</g>
<!-- Node13 -->
<g id="node13" class="node">
<title>Node13</title>
<g id="a_node13"><a xlink:href="utils_8h.html" target="_top" xlink:title=" ">
<polygon fill="none" stroke="black" points="335.99,-112.5 335.99,-131.5 377.99,-131.5 377.99,-112.5 335.99,-112.5"/>
<text text-anchor="middle" x="356.99" y="-119.5" font-family="Helvetica,sans-Serif" font-size="10.00">utils.h</text>
</a>
</g>
</g>
<!-- Node12&#45;&gt;Node13 -->
<g id="edge16" class="edge">
<title>Node12&#45;&gt;Node13</title>
<path fill="none" stroke="midnightblue" d="M356.99,-168.08C356.99,-161.01 356.99,-150.86 356.99,-141.99"/>
<polygon fill="midnightblue" stroke="midnightblue" points="360.49,-141.75 356.99,-131.75 353.49,-141.75 360.49,-141.75"/>
</g>
<!-- Node13&#45;&gt;Node3 -->
<g id="edge18" class="edge">
<title>Node13&#45;&gt;Node3</title>
<path fill="none" stroke="midnightblue" d="M378.17,-117.51C417.92,-110.83 506.59,-95.38 590.9,-76.11"/>
<polygon fill="midnightblue" stroke="midnightblue" points="591.94,-79.46 600.9,-73.8 590.36,-72.64 591.94,-79.46"/>
</g>
<!-- Node13&#45;&gt;Node4 -->
<g id="edge17" class="edge">
<title>Node13&#45;&gt;Node4</title>
<path fill="none" stroke="midnightblue" d="M378.31,-118.69C426.33,-113.3 546.73,-98.75 657.3,-75.92"/>
<polygon fill="midnightblue" stroke="midnightblue" points="658.21,-79.3 667.28,-73.83 656.78,-72.45 658.21,-79.3"/>
</g>
<!-- Node13&#45;&gt;Node6 -->
<g id="edge21" class="edge">
<title>Node13&#45;&gt;Node6</title>
<path fill="none" stroke="midnightblue" d="M335.67,-117.22C293.65,-109.78 196.97,-92.62 105.69,-76.3"/>
<polygon fill="midnightblue" stroke="midnightblue" points="106.19,-72.84 95.73,-74.52 104.96,-79.73 106.19,-72.84"/>
</g>
<!-- Node13&#45;&gt;Node7 -->
<g id="edge19" class="edge">
<title>Node13&#45;&gt;Node7</title>
<path fill="none" stroke="midnightblue" d="M335.69,-115.62C300.01,-106.62 227.65,-88.36 182.46,-76.96"/>
<polygon fill="midnightblue" stroke="midnightblue" points="183.25,-73.55 172.7,-74.5 181.54,-80.34 183.25,-73.55"/>
</g>
<!-- Node13&#45;&gt;Node8 -->
<g id="edge26" class="edge">
<title>Node13&#45;&gt;Node8</title>
<path fill="none" stroke="midnightblue" d="M335.79,-113.26C309.9,-103.82 266.04,-87.82 237.3,-77.33"/>
<polygon fill="midnightblue" stroke="midnightblue" points="238.41,-74.01 227.81,-73.87 236.01,-80.58 238.41,-74.01"/>
</g>
<!-- Node14 -->
<g id="node14" class="node">
<title>Node14</title>
<g id="a_node14"><a xlink:title=" ">
<polygon fill="none" stroke="#bfbfbf" points="456.99,-56.5 456.99,-75.5 504.99,-75.5 504.99,-56.5 456.99,-56.5"/>
<text text-anchor="middle" x="480.99" y="-63.5" font-family="Helvetica,sans-Serif" font-size="10.00">stdint.h</text>
</a>
</g>
</g>
<!-- Node13&#45;&gt;Node14 -->
<g id="edge20" class="edge">
<title>Node13&#45;&gt;Node14</title>
<path fill="none" stroke="midnightblue" d="M376.64,-112.44C396.96,-103.6 428.89,-89.69 452.09,-79.59"/>
<polygon fill="midnightblue" stroke="midnightblue" points="453.66,-82.72 461.44,-75.52 450.87,-76.3 453.66,-82.72"/>
</g>
<!-- Node15 -->
<g id="node15" class="node">
<title>Node15</title>
<g id="a_node15"><a xlink:title=" ">
<polygon fill="none" stroke="#bfbfbf" points="523.49,-56.5 523.49,-75.5 582.49,-75.5 582.49,-56.5 523.49,-56.5"/>
<text text-anchor="middle" x="552.99" y="-63.5" font-family="Helvetica,sans-Serif" font-size="10.00">sys/stat.h</text>
</a>
</g>
</g>
<!-- Node13&#45;&gt;Node15 -->
<g id="edge22" class="edge">
<title>Node13&#45;&gt;Node15</title>
<path fill="none" stroke="midnightblue" d="M378.34,-115.12C410.72,-106.2 472.78,-89.1 513.53,-77.87"/>
<polygon fill="midnightblue" stroke="midnightblue" points="514.68,-81.18 523.4,-75.15 512.82,-74.44 514.68,-81.18"/>
</g>
<!-- Node16 -->
<g id="node16" class="node">
<title>Node16</title>
<g id="a_node16"><a xlink:title=" ">
<polygon fill="none" stroke="#bfbfbf" points="245.49,-56.5 245.49,-75.5 310.49,-75.5 310.49,-56.5 245.49,-56.5"/>
<text text-anchor="middle" x="277.99" y="-63.5" font-family="Helvetica,sans-Serif" font-size="10.00">sys/types.h</text>
</a>
</g>
</g>
<!-- Node13&#45;&gt;Node16 -->
<g id="edge23" class="edge">
<title>Node13&#45;&gt;Node16</title>
<path fill="none" stroke="midnightblue" d="M344.3,-112.32C332.09,-103.98 313.41,-91.21 298.99,-81.35"/>
<polygon fill="midnightblue" stroke="midnightblue" points="300.88,-78.41 290.65,-75.65 296.93,-84.19 300.88,-78.41"/>
</g>
<!-- Node17 -->
<g id="node17" class="node">
<title>Node17</title>
<g id="a_node17"><a xlink:title=" ">
<polygon fill="none" stroke="#bfbfbf" points="328.99,-56.5 328.99,-75.5 374.99,-75.5 374.99,-56.5 328.99,-56.5"/>
<text text-anchor="middle" x="351.99" y="-63.5" font-family="Helvetica,sans-Serif" font-size="10.00">errno.h</text>
</a>
</g>
</g>
<!-- Node13&#45;&gt;Node17 -->
<g id="edge24" class="edge">
<title>Node13&#45;&gt;Node17</title>
<path fill="none" stroke="midnightblue" d="M356.17,-112.08C355.51,-105.01 354.57,-94.86 353.75,-85.99"/>
<polygon fill="midnightblue" stroke="midnightblue" points="357.21,-85.39 352.8,-75.75 350.24,-86.03 357.21,-85.39"/>
</g>
<!-- Node18 -->
<g id="node18" class="node">
<title>Node18</title>
<g id="a_node18"><a xlink:title=" ">
<polygon fill="none" stroke="#bfbfbf" points="392.99,-56.5 392.99,-75.5 438.99,-75.5 438.99,-56.5 392.99,-56.5"/>
<text text-anchor="middle" x="415.99" y="-63.5" font-family="Helvetica,sans-Serif" font-size="10.00">math.h</text>
</a>
</g>
</g>
<!-- Node13&#45;&gt;Node18 -->
<g id="edge25" class="edge">
<title>Node13&#45;&gt;Node18</title>
<path fill="none" stroke="midnightblue" d="M366.47,-112.32C375.19,-104.34 388.34,-92.31 398.89,-82.65"/>
<polygon fill="midnightblue" stroke="midnightblue" points="401.33,-85.17 406.34,-75.83 396.6,-80 401.33,-85.17"/>
</g>
</g>
</svg>
