<?xml version="1.0" encoding="UTF-8" standalone="no"?>
<!DOCTYPE svg PUBLIC "-//W3C//DTD SVG 1.1//EN"
 "http://www.w3.org/Graphics/SVG/1.1/DTD/svg11.dtd">
<!-- Generated by graphviz version 2.49.3 (20211027.1534)
 -->
<!-- Title: src/WillyWeather/authenticate.c Pages: 1 -->
<svg width="653pt" height="308pt"
 viewBox="0.00 0.00 652.50 308.00" xmlns="http://www.w3.org/2000/svg" xmlns:xlink="http://www.w3.org/1999/xlink">
<g id="graph0" class="graph" transform="scale(1 1) rotate(0) translate(4 304)">
<title>src/WillyWeather/authenticate.c</title>
<!-- Node1 -->
<g id="node1" class="node">
<title>Node1</title>
<g id="a_node1"><a xlink:title=" ">
<polygon fill="#bfbfbf" stroke="black" points="321.5,-280.5 321.5,-299.5 474.5,-299.5 474.5,-280.5 321.5,-280.5"/>
<text text-anchor="middle" x="398" y="-287.5" font-family="Helvetica,sans-Serif" font-size="10.00">src/WillyWeather/authenticate.c</text>
</a>
</g>
</g>
<!-- Node2 -->
<g id="node2" class="node">
<title>Node2</title>
<g id="a_node2"><a xlink:href="_willy_weather_2authenticate_8h.html" target="_top" xlink:title=" ">
<polygon fill="none" stroke="black" points="329.5,-224.5 329.5,-243.5 466.5,-243.5 466.5,-224.5 329.5,-224.5"/>
<text text-anchor="middle" x="398" y="-231.5" font-family="Helvetica,sans-Serif" font-size="10.00">WillyWeather/authenticate.h</text>
</a>
</g>
</g>
<!-- Node1&#45;&gt;Node2 -->
<g id="edge1" class="edge">
<title>Node1&#45;&gt;Node2</title>
<path fill="none" stroke="midnightblue" d="M398,-280.08C398,-273.01 398,-262.86 398,-253.99"/>
<polygon fill="midnightblue" stroke="midnightblue" points="401.5,-253.75 398,-243.75 394.5,-253.75 401.5,-253.75"/>
</g>
<!-- Node3 -->
<g id="node3" class="node">
<title>Node3</title>
<g id="a_node3"><a xlink:title=" ">
<polygon fill="none" stroke="#bfbfbf" points="0,-56.5 0,-75.5 48,-75.5 48,-56.5 0,-56.5"/>
<text text-anchor="middle" x="24" y="-63.5" font-family="Helvetica,sans-Serif" font-size="10.00">string.h</text>
</a>
</g>
</g>
<!-- Node2&#45;&gt;Node3 -->
<g id="edge2" class="edge">
<title>Node2&#45;&gt;Node3</title>
<path fill="none" stroke="midnightblue" d="M355.83,-224.43C322.34,-216.9 274.7,-204.55 235,-188 161.34,-157.29 81.45,-105.98 44.67,-81.22"/>
<polygon fill="midnightblue" stroke="midnightblue" points="46.51,-78.25 36.27,-75.53 42.58,-84.04 46.51,-78.25"/>
</g>
<!-- Node4 -->
<g id="node4" class="node">
<title>Node4</title>
<g id="a_node4"><a xlink:title=" ">
<polygon fill="none" stroke="#bfbfbf" points="66.5,-56.5 66.5,-75.5 113.5,-75.5 113.5,-56.5 66.5,-56.5"/>
<text text-anchor="middle" x="90" y="-63.5" font-family="Helvetica,sans-Serif" font-size="10.00">stdlib.h</text>
</a>
</g>
</g>
<!-- Node2&#45;&gt;Node4 -->
<g id="edge3" class="edge">
<title>Node2&#45;&gt;Node4</title>
<path fill="none" stroke="midnightblue" d="M367.62,-224.44C341.56,-216.56 303.35,-203.72 272,-188 208.76,-156.28 141.08,-106.57 108.99,-81.91"/>
<polygon fill="midnightblue" stroke="midnightblue" points="110.96,-79.01 100.91,-75.65 106.67,-84.54 110.96,-79.01"/>
</g>
<!-- Node5 -->
<g id="node5" class="node">
<title>Node5</title>
<g id="a_node5"><a xlink:title=" ">
<polygon fill="none" stroke="#bfbfbf" points="599.5,-0.5 599.5,-19.5 644.5,-19.5 644.5,-0.5 599.5,-0.5"/>
<text text-anchor="middle" x="622" y="-7.5" font-family="Helvetica,sans-Serif" font-size="10.00">stdio.h</text>
</a>
</g>
</g>
<!-- Node2&#45;&gt;Node5 -->
<g id="edge4" class="edge">
<title>Node2&#45;&gt;Node5</title>
<path fill="none" stroke="midnightblue" d="M412.14,-224.35C425.85,-215.73 447.01,-201.83 464,-188 519.58,-142.76 534.48,-131.35 580,-76 592.36,-60.97 604.18,-42.14 612.11,-28.62"/>
<polygon fill="midnightblue" stroke="midnightblue" points="615.21,-30.26 617.15,-19.85 609.14,-26.77 615.21,-30.26"/>
</g>
<!-- Node6 -->
<g id="node6" class="node">
<title>Node6</title>
<g id="a_node6"><a xlink:title=" ">
<polygon fill="none" stroke="#bfbfbf" points="356.5,-56.5 356.5,-75.5 439.5,-75.5 439.5,-56.5 356.5,-56.5"/>
<text text-anchor="middle" x="398" y="-63.5" font-family="Helvetica,sans-Serif" font-size="10.00">cjson/cJSON.h</text>
</a>
</g>
</g>
<!-- Node2&#45;&gt;Node6 -->
<g id="edge5" class="edge">
<title>Node2&#45;&gt;Node6</title>
<path fill="none" stroke="midnightblue" d="M398,-224.08C398,-197.95 398,-121.21 398,-85.58"/>
<polygon fill="midnightblue" stroke="midnightblue" points="401.5,-85.57 398,-75.57 394.5,-85.57 401.5,-85.57"/>
</g>
<!-- Node7 -->
<g id="node7" class="node">
<title>Node7</title>
<g id="a_node7"><a xlink:title=" ">
<polygon fill="none" stroke="#bfbfbf" points="457.5,-56.5 457.5,-75.5 516.5,-75.5 516.5,-56.5 457.5,-56.5"/>
<text text-anchor="middle" x="487" y="-63.5" font-family="Helvetica,sans-Serif" font-size="10.00">curl/curl.h</text>
</a>
</g>
</g>
<!-- Node2&#45;&gt;Node7 -->
<g id="edge6" class="edge">
<title>Node2&#45;&gt;Node7</title>
<path fill="none" stroke="midnightblue" d="M402.79,-224.08C416.92,-197.72 458.65,-119.88 477.53,-84.66"/>
<polygon fill="midnightblue" stroke="midnightblue" points="480.77,-86.04 482.41,-75.57 474.6,-82.73 480.77,-86.04"/>
</g>
<!-- Node8 -->
<g id="node8" class="node">
<title>Node8</title>
<g id="a_node8"><a xlink:href="log_8h.html" target="_top" xlink:title=" ">
<polygon fill="none" stroke="black" points="534.5,-56.5 534.5,-75.5 571.5,-75.5 571.5,-56.5 534.5,-56.5"/>
<text text-anchor="middle" x="553" y="-63.5" font-family="Helvetica,sans-Serif" font-size="10.00">log.h</text>
</a>
</g>
</g>
<!-- Node2&#45;&gt;Node8 -->
<g id="edge7" class="edge">
<title>Node2&#45;&gt;Node8</title>
<path fill="none" stroke="midnightblue" d="M406.28,-224.41C414.97,-215.39 429.01,-200.75 441,-188 476.11,-150.67 516.88,-106.38 538.23,-83.12"/>
<polygon fill="midnightblue" stroke="midnightblue" points="540.99,-85.29 545.17,-75.55 535.83,-80.56 540.99,-85.29"/>
</g>
<!-- Node12 -->
<g id="node12" class="node">
<title>Node12</title>
<g id="a_node12"><a xlink:href="http_8h.html" target="_top" xlink:title=" ">
<polygon fill="none" stroke="black" points="281.5,-168.5 281.5,-187.5 322.5,-187.5 322.5,-168.5 281.5,-168.5"/>
<text text-anchor="middle" x="302" y="-175.5" font-family="Helvetica,sans-Serif" font-size="10.00">http.h</text>
</a>
</g>
</g>
<!-- Node2&#45;&gt;Node12 -->
<g id="edge12" class="edge">
<title>Node2&#45;&gt;Node12</title>
<path fill="none" stroke="midnightblue" d="M382.58,-224.32C367.46,-215.82 344.18,-202.73 326.53,-192.8"/>
<polygon fill="midnightblue" stroke="midnightblue" points="327.82,-189.51 317.39,-187.65 324.39,-195.61 327.82,-189.51"/>
</g>
<!-- Node8&#45;&gt;Node5 -->
<g id="edge8" class="edge">
<title>Node8&#45;&gt;Node5</title>
<path fill="none" stroke="midnightblue" d="M564.09,-56.32C574.49,-48.18 590.26,-35.84 602.72,-26.09"/>
<polygon fill="midnightblue" stroke="midnightblue" points="604.99,-28.75 610.71,-19.83 600.68,-23.24 604.99,-28.75"/>
</g>
<!-- Node9 -->
<g id="node9" class="node">
<title>Node9</title>
<g id="a_node9"><a xlink:title=" ">
<polygon fill="none" stroke="#bfbfbf" points="455.5,-0.5 455.5,-19.5 506.5,-19.5 506.5,-0.5 455.5,-0.5"/>
<text text-anchor="middle" x="481" y="-7.5" font-family="Helvetica,sans-Serif" font-size="10.00">stdarg.h</text>
</a>
</g>
</g>
<!-- Node8&#45;&gt;Node9 -->
<g id="edge9" class="edge">
<title>Node8&#45;&gt;Node9</title>
<path fill="none" stroke="midnightblue" d="M541.43,-56.32C530.58,-48.18 514.12,-35.84 501.12,-26.09"/>
<polygon fill="midnightblue" stroke="midnightblue" points="502.88,-23.03 492.78,-19.83 498.68,-28.63 502.88,-23.03"/>
</g>
<!-- Node10 -->
<g id="node10" class="node">
<title>Node10</title>
<g id="a_node10"><a xlink:title=" ">
<polygon fill="none" stroke="#bfbfbf" points="525,-0.5 525,-19.5 581,-19.5 581,-0.5 525,-0.5"/>
<text text-anchor="middle" x="553" y="-7.5" font-family="Helvetica,sans-Serif" font-size="10.00">stdbool.h</text>
</a>
</g>
</g>
<!-- Node8&#45;&gt;Node10 -->
<g id="edge10" class="edge">
<title>Node8&#45;&gt;Node10</title>
<path fill="none" stroke="midnightblue" d="M553,-56.08C553,-49.01 553,-38.86 553,-29.99"/>
<polygon fill="midnightblue" stroke="midnightblue" points="556.5,-29.75 553,-19.75 549.5,-29.75 556.5,-29.75"/>
</g>
<!-- Node11 -->
<g id="node11" class="node">
<title>Node11</title>
<g id="a_node11"><a xlink:title=" ">
<polygon fill="none" stroke="#bfbfbf" points="394.5,-0.5 394.5,-19.5 437.5,-19.5 437.5,-0.5 394.5,-0.5"/>
<text text-anchor="middle" x="416" y="-7.5" font-family="Helvetica,sans-Serif" font-size="10.00">time.h</text>
</a>
</g>
</g>
<!-- Node8&#45;&gt;Node11 -->
<g id="edge11" class="edge">
<title>Node8&#45;&gt;Node11</title>
<path fill="none" stroke="midnightblue" d="M534.24,-57.6C511.79,-48.76 473.87,-33.81 447.03,-23.23"/>
<polygon fill="midnightblue" stroke="midnightblue" points="448.28,-19.96 437.69,-19.55 445.71,-26.47 448.28,-19.96"/>
</g>
<!-- Node12&#45;&gt;Node3 -->
<g id="edge14" class="edge">
<title>Node12&#45;&gt;Node3</title>
<path fill="none" stroke="midnightblue" d="M281.1,-168.73C232.62,-149.55 112.27,-101.93 55.1,-79.31"/>
<polygon fill="midnightblue" stroke="midnightblue" points="56.11,-75.94 45.52,-75.52 53.53,-82.45 56.11,-75.94"/>
</g>
<!-- Node12&#45;&gt;Node4 -->
<g id="edge13" class="edge">
<title>Node12&#45;&gt;Node4</title>
<path fill="none" stroke="midnightblue" d="M291.13,-168.31C274.01,-154.91 239.38,-129 207,-112 179.86,-97.74 147.16,-85.55 123.24,-77.47"/>
<polygon fill="midnightblue" stroke="midnightblue" points="124.16,-74.09 113.56,-74.26 121.95,-80.73 124.16,-74.09"/>
</g>
<!-- Node12&#45;&gt;Node7 -->
<g id="edge15" class="edge">
<title>Node12&#45;&gt;Node7</title>
<path fill="none" stroke="midnightblue" d="M316.52,-168.37C348.4,-149.41 424.77,-104 463.55,-80.94"/>
<polygon fill="midnightblue" stroke="midnightblue" points="465.74,-83.71 472.55,-75.59 462.17,-77.69 465.74,-83.71"/>
</g>
<!-- Node13 -->
<g id="node13" class="node">
<title>Node13</title>
<g id="a_node13"><a xlink:href="utils_8h.html" target="_top" xlink:title=" ">
<polygon fill="none" stroke="black" points="281,-112.5 281,-131.5 323,-131.5 323,-112.5 281,-112.5"/>
<text text-anchor="middle" x="302" y="-119.5" font-family="Helvetica,sans-Serif" font-size="10.00">utils.h</text>
</a>
</g>
</g>
<!-- Node12&#45;&gt;Node13 -->
<g id="edge16" class="edge">
<title>Node12&#45;&gt;Node13</title>
<path fill="none" stroke="midnightblue" d="M302,-168.08C302,-161.01 302,-150.86 302,-141.99"/>
<polygon fill="midnightblue" stroke="midnightblue" points="305.5,-141.75 302,-131.75 298.5,-141.75 305.5,-141.75"/>
</g>
<!-- Node13&#45;&gt;Node3 -->
<g id="edge18" class="edge">
<title>Node13&#45;&gt;Node3</title>
<path fill="none" stroke="midnightblue" d="M280.9,-117.74C239.88,-111.28 146.31,-95.89 58,-76.07"/>
<polygon fill="midnightblue" stroke="midnightblue" points="58.62,-72.62 48.09,-73.82 57.07,-79.45 58.62,-72.62"/>
</g>
<!-- Node13&#45;&gt;Node4 -->
<g id="edge17" class="edge">
<title>Node13&#45;&gt;Node4</title>
<path fill="none" stroke="midnightblue" d="M280.75,-115.8C248.83,-107.97 186.37,-92.51 123.47,-76.08"/>
<polygon fill="midnightblue" stroke="midnightblue" points="124.34,-72.69 113.78,-73.55 122.56,-79.46 124.34,-72.69"/>
</g>
<!-- Node13&#45;&gt;Node6 -->
<g id="edge20" class="edge">
<title>Node13&#45;&gt;Node6</title>
<path fill="none" stroke="midnightblue" d="M317.42,-112.32C332.54,-103.82 355.82,-90.73 373.47,-80.8"/>
<polygon fill="midnightblue" stroke="midnightblue" points="375.61,-83.61 382.61,-75.65 372.18,-77.51 375.61,-83.61"/>
</g>
<!-- Node13&#45;&gt;Node7 -->
<g id="edge19" class="edge">
<title>Node13&#45;&gt;Node7</title>
<path fill="none" stroke="midnightblue" d="M323.22,-114.81C353.63,-105.93 410.11,-89.44 448.12,-78.35"/>
<polygon fill="midnightblue" stroke="midnightblue" points="449.22,-81.67 457.84,-75.51 447.26,-74.95 449.22,-81.67"/>
</g>
<!-- Node13&#45;&gt;Node8 -->
<g id="edge24" class="edge">
<title>Node13&#45;&gt;Node8</title>
<path fill="none" stroke="midnightblue" d="M323.09,-117.56C361.32,-111.14 444.76,-96.35 524.68,-75.83"/>
<polygon fill="midnightblue" stroke="midnightblue" points="525.61,-79.2 534.41,-73.3 523.85,-72.43 525.61,-79.2"/>
</g>
<!-- Node14 -->
<g id="node14" class="node">
<title>Node14</title>
<g id="a_node14"><a xlink:title=" ">
<polygon fill="none" stroke="#bfbfbf" points="196.5,-56.5 196.5,-75.5 255.5,-75.5 255.5,-56.5 196.5,-56.5"/>
<text text-anchor="middle" x="226" y="-63.5" font-family="Helvetica,sans-Serif" font-size="10.00">sys/stat.h</text>
</a>
</g>
</g>
<!-- Node13&#45;&gt;Node14 -->
<g id="edge21" class="edge">
<title>Node13&#45;&gt;Node14</title>
<path fill="none" stroke="midnightblue" d="M289.79,-112.32C278.22,-104.11 260.62,-91.6 246.84,-81.81"/>
<polygon fill="midnightblue" stroke="midnightblue" points="248.61,-78.77 238.43,-75.83 244.56,-84.48 248.61,-78.77"/>
</g>
<!-- Node15 -->
<g id="node15" class="node">
<title>Node15</title>
<g id="a_node15"><a xlink:title=" ">
<polygon fill="none" stroke="#bfbfbf" points="273.5,-56.5 273.5,-75.5 338.5,-75.5 338.5,-56.5 273.5,-56.5"/>
<text text-anchor="middle" x="306" y="-63.5" font-family="Helvetica,sans-Serif" font-size="10.00">sys/types.h</text>
</a>
</g>
</g>
<!-- Node13&#45;&gt;Node15 -->
<g id="edge22" class="edge">
<title>Node13&#45;&gt;Node15</title>
<path fill="none" stroke="midnightblue" d="M302.66,-112.08C303.18,-105.01 303.94,-94.86 304.59,-85.99"/>
<polygon fill="midnightblue" stroke="midnightblue" points="308.1,-85.98 305.35,-75.75 301.12,-85.47 308.1,-85.98"/>
</g>
<!-- Node16 -->
<g id="node16" class="node">
<title>Node16</title>
<g id="a_node16"><a xlink:title=" ">
<polygon fill="none" stroke="#bfbfbf" points="132,-56.5 132,-75.5 178,-75.5 178,-56.5 132,-56.5"/>
<text text-anchor="middle" x="155" y="-63.5" font-family="Helvetica,sans-Serif" font-size="10.00">errno.h</text>
</a>
</g>
</g>
<!-- Node13&#45;&gt;Node16 -->
<g id="edge23" class="edge">
<title>Node13&#45;&gt;Node16</title>
<path fill="none" stroke="midnightblue" d="M280.94,-113.26C256.65,-104.34 216.42,-89.56 187.98,-79.11"/>
<polygon fill="midnightblue" stroke="midnightblue" points="189.05,-75.78 178.45,-75.62 186.63,-82.35 189.05,-75.78"/>
</g>
</g>
</svg>
