<?xml version="1.0" encoding="UTF-8" standalone="no"?>
<!DOCTYPE svg PUBLIC "-//W3C//DTD SVG 1.1//EN"
 "http://www.w3.org/Graphics/SVG/1.1/DTD/svg11.dtd">
<!-- Generated by graphviz version 2.49.3 (20211027.1534)
 -->
<!-- Title: include/WillyWeather/authenticate.h Pages: 1 -->
<svg width="692pt" height="263pt"
 viewBox="0.00 0.00 692.00 263.00" xmlns="http://www.w3.org/2000/svg" xmlns:xlink="http://www.w3.org/1999/xlink">
<g id="graph0" class="graph" transform="scale(1 1) rotate(0) translate(4 259)">
<title>include/WillyWeather/authenticate.h</title>
<!-- Node1 -->
<g id="node1" class="node">
<title>Node1</title>
<g id="a_node1"><a xlink:title=" ">
<polygon fill="#bfbfbf" stroke="black" points="178,-224.5 178,-254.5 285,-254.5 285,-224.5 178,-224.5"/>
<text text-anchor="start" x="186" y="-242.5" font-family="Helvetica,sans-Serif" font-size="10.00">include/WillyWeather</text>
<text text-anchor="middle" x="231.5" y="-231.5" font-family="Helvetica,sans-Serif" font-size="10.00">/authenticate.h</text>
</a>
</g>
</g>
<!-- Node2 -->
<g id="node2" class="node">
<title>Node2</title>
<g id="a_node2"><a xlink:title=" ">
<polygon fill="none" stroke="#bfbfbf" points="570.5,-56.5 570.5,-75.5 618.5,-75.5 618.5,-56.5 570.5,-56.5"/>
<text text-anchor="middle" x="594.5" y="-63.5" font-family="Helvetica,sans-Serif" font-size="10.00">string.h</text>
</a>
</g>
</g>
<!-- Node1&#45;&gt;Node2 -->
<g id="edge1" class="edge">
<title>Node1&#45;&gt;Node2</title>
<path fill="none" stroke="midnightblue" d="M285.06,-227.17C320.21,-218.73 366.69,-205.61 405.5,-188 471.98,-157.83 542.4,-107 575.37,-81.92"/>
<polygon fill="midnightblue" stroke="midnightblue" points="577.85,-84.43 583.65,-75.56 573.58,-78.88 577.85,-84.43"/>
</g>
<!-- Node3 -->
<g id="node3" class="node">
<title>Node3</title>
<g id="a_node3"><a xlink:title=" ">
<polygon fill="none" stroke="#bfbfbf" points="637,-56.5 637,-75.5 684,-75.5 684,-56.5 637,-56.5"/>
<text text-anchor="middle" x="660.5" y="-63.5" font-family="Helvetica,sans-Serif" font-size="10.00">stdlib.h</text>
</a>
</g>
</g>
<!-- Node1&#45;&gt;Node3 -->
<g id="edge2" class="edge">
<title>Node1&#45;&gt;Node3</title>
<path fill="none" stroke="midnightblue" d="M285.41,-229.34C327.89,-221.17 388.13,-207.49 438.5,-188 515.87,-158.07 599.99,-106.39 638.73,-81.38"/>
<polygon fill="midnightblue" stroke="midnightblue" points="641.1,-84.02 647.57,-75.63 637.28,-78.15 641.1,-84.02"/>
</g>
<!-- Node4 -->
<g id="node4" class="node">
<title>Node4</title>
<g id="a_node4"><a xlink:title=" ">
<polygon fill="none" stroke="#bfbfbf" points="0,-0.5 0,-19.5 45,-19.5 45,-0.5 0,-0.5"/>
<text text-anchor="middle" x="22.5" y="-7.5" font-family="Helvetica,sans-Serif" font-size="10.00">stdio.h</text>
</a>
</g>
</g>
<!-- Node1&#45;&gt;Node4 -->
<g id="edge3" class="edge">
<title>Node1&#45;&gt;Node4</title>
<path fill="none" stroke="midnightblue" d="M205.25,-224.43C162.64,-200.14 78.93,-146.13 36.5,-76 28,-61.96 24.63,-43.46 23.3,-29.79"/>
<polygon fill="midnightblue" stroke="midnightblue" points="26.78,-29.38 22.61,-19.65 19.8,-29.86 26.78,-29.38"/>
</g>
<!-- Node5 -->
<g id="node5" class="node">
<title>Node5</title>
<g id="a_node5"><a xlink:title=" ">
<polygon fill="none" stroke="#bfbfbf" points="46,-56.5 46,-75.5 129,-75.5 129,-56.5 46,-56.5"/>
<text text-anchor="middle" x="87.5" y="-63.5" font-family="Helvetica,sans-Serif" font-size="10.00">cjson/cJSON.h</text>
</a>
</g>
</g>
<!-- Node1&#45;&gt;Node5 -->
<g id="edge4" class="edge">
<title>Node1&#45;&gt;Node5</title>
<path fill="none" stroke="midnightblue" d="M219.72,-224.47C193.33,-193.03 129.58,-117.12 101.35,-83.5"/>
<polygon fill="midnightblue" stroke="midnightblue" points="103.8,-80.97 94.69,-75.56 98.44,-85.47 103.8,-80.97"/>
</g>
<!-- Node6 -->
<g id="node6" class="node">
<title>Node6</title>
<g id="a_node6"><a xlink:title=" ">
<polygon fill="none" stroke="#bfbfbf" points="202,-56.5 202,-75.5 261,-75.5 261,-56.5 202,-56.5"/>
<text text-anchor="middle" x="231.5" y="-63.5" font-family="Helvetica,sans-Serif" font-size="10.00">curl/curl.h</text>
</a>
</g>
</g>
<!-- Node1&#45;&gt;Node6 -->
<g id="edge5" class="edge">
<title>Node1&#45;&gt;Node6</title>
<path fill="none" stroke="midnightblue" d="M231.5,-224.47C231.5,-193.7 231.5,-120.33 231.5,-85.7"/>
<polygon fill="midnightblue" stroke="midnightblue" points="235,-85.56 231.5,-75.56 228,-85.56 235,-85.56"/>
</g>
<!-- Node7 -->
<g id="node7" class="node">
<title>Node7</title>
<g id="a_node7"><a xlink:href="log_8h.html" target="_top" xlink:title=" ">
<polygon fill="none" stroke="black" points="147,-56.5 147,-75.5 184,-75.5 184,-56.5 147,-56.5"/>
<text text-anchor="middle" x="165.5" y="-63.5" font-family="Helvetica,sans-Serif" font-size="10.00">log.h</text>
</a>
</g>
</g>
<!-- Node1&#45;&gt;Node7 -->
<g id="edge6" class="edge">
<title>Node1&#45;&gt;Node7</title>
<path fill="none" stroke="midnightblue" d="M226.1,-224.47C214.21,-193.57 185.78,-119.69 172.52,-85.25"/>
<polygon fill="midnightblue" stroke="midnightblue" points="175.65,-83.64 168.79,-75.56 169.12,-86.15 175.65,-83.64"/>
</g>
<!-- Node11 -->
<g id="node11" class="node">
<title>Node11</title>
<g id="a_node11"><a xlink:href="http_8h.html" target="_top" xlink:title=" ">
<polygon fill="none" stroke="black" points="355,-168.5 355,-187.5 396,-187.5 396,-168.5 355,-168.5"/>
<text text-anchor="middle" x="375.5" y="-175.5" font-family="Helvetica,sans-Serif" font-size="10.00">http.h</text>
</a>
</g>
</g>
<!-- Node1&#45;&gt;Node11 -->
<g id="edge11" class="edge">
<title>Node1&#45;&gt;Node11</title>
<path fill="none" stroke="midnightblue" d="M265.63,-224.4C289.93,-214.36 322.29,-200.99 345.59,-191.36"/>
<polygon fill="midnightblue" stroke="midnightblue" points="347.06,-194.54 354.97,-187.48 344.39,-188.07 347.06,-194.54"/>
</g>
<!-- Node7&#45;&gt;Node4 -->
<g id="edge7" class="edge">
<title>Node7&#45;&gt;Node4</title>
<path fill="none" stroke="midnightblue" d="M146.81,-57.94C123.51,-49.14 83.31,-33.96 54.95,-23.25"/>
<polygon fill="midnightblue" stroke="midnightblue" points="56.05,-19.93 45.46,-19.67 53.57,-26.48 56.05,-19.93"/>
</g>
<!-- Node8 -->
<g id="node8" class="node">
<title>Node8</title>
<g id="a_node8"><a xlink:title=" ">
<polygon fill="none" stroke="#bfbfbf" points="68,-0.5 68,-19.5 119,-19.5 119,-0.5 68,-0.5"/>
<text text-anchor="middle" x="93.5" y="-7.5" font-family="Helvetica,sans-Serif" font-size="10.00">stdarg.h</text>
</a>
</g>
</g>
<!-- Node7&#45;&gt;Node8 -->
<g id="edge8" class="edge">
<title>Node7&#45;&gt;Node8</title>
<path fill="none" stroke="midnightblue" d="M153.93,-56.32C143.08,-48.18 126.62,-35.84 113.62,-26.09"/>
<polygon fill="midnightblue" stroke="midnightblue" points="115.38,-23.03 105.28,-19.83 111.18,-28.63 115.38,-23.03"/>
</g>
<!-- Node9 -->
<g id="node9" class="node">
<title>Node9</title>
<g id="a_node9"><a xlink:title=" ">
<polygon fill="none" stroke="#bfbfbf" points="137.5,-0.5 137.5,-19.5 193.5,-19.5 193.5,-0.5 137.5,-0.5"/>
<text text-anchor="middle" x="165.5" y="-7.5" font-family="Helvetica,sans-Serif" font-size="10.00">stdbool.h</text>
</a>
</g>
</g>
<!-- Node7&#45;&gt;Node9 -->
<g id="edge9" class="edge">
<title>Node7&#45;&gt;Node9</title>
<path fill="none" stroke="midnightblue" d="M165.5,-56.08C165.5,-49.01 165.5,-38.86 165.5,-29.99"/>
<polygon fill="midnightblue" stroke="midnightblue" points="169,-29.75 165.5,-19.75 162,-29.75 169,-29.75"/>
</g>
<!-- Node10 -->
<g id="node10" class="node">
<title>Node10</title>
<g id="a_node10"><a xlink:title=" ">
<polygon fill="none" stroke="#bfbfbf" points="212,-0.5 212,-19.5 255,-19.5 255,-0.5 212,-0.5"/>
<text text-anchor="middle" x="233.5" y="-7.5" font-family="Helvetica,sans-Serif" font-size="10.00">time.h</text>
</a>
</g>
</g>
<!-- Node7&#45;&gt;Node10 -->
<g id="edge10" class="edge">
<title>Node7&#45;&gt;Node10</title>
<path fill="none" stroke="midnightblue" d="M176.43,-56.32C186.67,-48.18 202.22,-35.84 214.5,-26.09"/>
<polygon fill="midnightblue" stroke="midnightblue" points="216.72,-28.79 222.38,-19.83 212.37,-23.31 216.72,-28.79"/>
</g>
<!-- Node11&#45;&gt;Node2 -->
<g id="edge13" class="edge">
<title>Node11&#45;&gt;Node2</title>
<path fill="none" stroke="midnightblue" d="M390.19,-168.38C412.3,-155.53 455.59,-130.84 493.5,-112 516.99,-100.32 544.18,-88.29 564.42,-79.61"/>
<polygon fill="midnightblue" stroke="midnightblue" points="565.93,-82.77 573.76,-75.63 563.19,-76.33 565.93,-82.77"/>
</g>
<!-- Node11&#45;&gt;Node3 -->
<g id="edge12" class="edge">
<title>Node11&#45;&gt;Node3</title>
<path fill="none" stroke="midnightblue" d="M396.46,-168.91C445.92,-149.82 570.14,-101.88 628.84,-79.22"/>
<polygon fill="midnightblue" stroke="midnightblue" points="630.27,-82.42 638.34,-75.55 627.75,-75.89 630.27,-82.42"/>
</g>
<!-- Node11&#45;&gt;Node6 -->
<g id="edge14" class="edge">
<title>Node11&#45;&gt;Node6</title>
<path fill="none" stroke="midnightblue" d="M364.2,-168.37C339.7,-149.65 281.44,-105.15 250.92,-81.83"/>
<polygon fill="midnightblue" stroke="midnightblue" points="252.82,-78.88 242.75,-75.59 248.57,-84.44 252.82,-78.88"/>
</g>
<!-- Node12 -->
<g id="node12" class="node">
<title>Node12</title>
<g id="a_node12"><a xlink:href="utils_8h.html" target="_top" xlink:title=" ">
<polygon fill="none" stroke="black" points="354.5,-112.5 354.5,-131.5 396.5,-131.5 396.5,-112.5 354.5,-112.5"/>
<text text-anchor="middle" x="375.5" y="-119.5" font-family="Helvetica,sans-Serif" font-size="10.00">utils.h</text>
</a>
</g>
</g>
<!-- Node11&#45;&gt;Node12 -->
<g id="edge15" class="edge">
<title>Node11&#45;&gt;Node12</title>
<path fill="none" stroke="midnightblue" d="M375.5,-168.08C375.5,-161.01 375.5,-150.86 375.5,-141.99"/>
<polygon fill="midnightblue" stroke="midnightblue" points="379,-141.75 375.5,-131.75 372,-141.75 379,-141.75"/>
</g>
<!-- Node12&#45;&gt;Node2 -->
<g id="edge17" class="edge">
<title>Node12&#45;&gt;Node2</title>
<path fill="none" stroke="midnightblue" d="M396.75,-116.07C429.66,-108.39 495.16,-92.92 560.34,-76.24"/>
<polygon fill="midnightblue" stroke="midnightblue" points="561.56,-79.55 570.37,-73.67 559.81,-72.77 561.56,-79.55"/>
</g>
<!-- Node12&#45;&gt;Node3 -->
<g id="edge16" class="edge">
<title>Node12&#45;&gt;Node3</title>
<path fill="none" stroke="midnightblue" d="M396.54,-117.9C438.42,-111.58 535.38,-96.26 626.8,-75.98"/>
<polygon fill="midnightblue" stroke="midnightblue" points="627.78,-79.35 636.77,-73.74 626.25,-72.52 627.78,-79.35"/>
</g>
<!-- Node12&#45;&gt;Node5 -->
<g id="edge20" class="edge">
<title>Node12&#45;&gt;Node5</title>
<path fill="none" stroke="midnightblue" d="M354.32,-117.03C309.32,-108.59 203.04,-88.66 139.02,-76.66"/>
<polygon fill="midnightblue" stroke="midnightblue" points="139.6,-73.21 129.13,-74.81 138.31,-80.09 139.6,-73.21"/>
</g>
<!-- Node12&#45;&gt;Node6 -->
<g id="edge18" class="edge">
<title>Node12&#45;&gt;Node6</title>
<path fill="none" stroke="midnightblue" d="M354.25,-113.03C330.42,-104.1 291.5,-89.5 263.88,-79.14"/>
<polygon fill="midnightblue" stroke="midnightblue" points="264.85,-75.77 254.26,-75.54 262.4,-82.32 264.85,-75.77"/>
</g>
<!-- Node12&#45;&gt;Node7 -->
<g id="edge24" class="edge">
<title>Node12&#45;&gt;Node7</title>
<path fill="none" stroke="midnightblue" d="M354.36,-116.27C321.97,-108.91 257.93,-93.96 193.97,-75.98"/>
<polygon fill="midnightblue" stroke="midnightblue" points="194.7,-72.54 184.12,-73.18 192.79,-79.28 194.7,-72.54"/>
</g>
<!-- Node13 -->
<g id="node13" class="node">
<title>Node13</title>
<g id="a_node13"><a xlink:title=" ">
<polygon fill="none" stroke="#bfbfbf" points="279.5,-56.5 279.5,-75.5 327.5,-75.5 327.5,-56.5 279.5,-56.5"/>
<text text-anchor="middle" x="303.5" y="-63.5" font-family="Helvetica,sans-Serif" font-size="10.00">stdint.h</text>
</a>
</g>
</g>
<!-- Node12&#45;&gt;Node13 -->
<g id="edge19" class="edge">
<title>Node12&#45;&gt;Node13</title>
<path fill="none" stroke="midnightblue" d="M363.93,-112.32C353.08,-104.18 336.62,-91.84 323.62,-82.09"/>
<polygon fill="midnightblue" stroke="midnightblue" points="325.38,-79.03 315.28,-75.83 321.18,-84.63 325.38,-79.03"/>
</g>
<!-- Node14 -->
<g id="node14" class="node">
<title>Node14</title>
<g id="a_node14"><a xlink:title=" ">
<polygon fill="none" stroke="#bfbfbf" points="346,-56.5 346,-75.5 405,-75.5 405,-56.5 346,-56.5"/>
<text text-anchor="middle" x="375.5" y="-63.5" font-family="Helvetica,sans-Serif" font-size="10.00">sys/stat.h</text>
</a>
</g>
</g>
<!-- Node12&#45;&gt;Node14 -->
<g id="edge21" class="edge">
<title>Node12&#45;&gt;Node14</title>
<path fill="none" stroke="midnightblue" d="M375.5,-112.08C375.5,-105.01 375.5,-94.86 375.5,-85.99"/>
<polygon fill="midnightblue" stroke="midnightblue" points="379,-85.75 375.5,-75.75 372,-85.75 379,-85.75"/>
</g>
<!-- Node15 -->
<g id="node15" class="node">
<title>Node15</title>
<g id="a_node15"><a xlink:title=" ">
<polygon fill="none" stroke="#bfbfbf" points="423,-56.5 423,-75.5 488,-75.5 488,-56.5 423,-56.5"/>
<text text-anchor="middle" x="455.5" y="-63.5" font-family="Helvetica,sans-Serif" font-size="10.00">sys/types.h</text>
</a>
</g>
</g>
<!-- Node12&#45;&gt;Node15 -->
<g id="edge22" class="edge">
<title>Node12&#45;&gt;Node15</title>
<path fill="none" stroke="midnightblue" d="M388.35,-112.32C400.72,-103.98 419.63,-91.21 434.24,-81.35"/>
<polygon fill="midnightblue" stroke="midnightblue" points="436.35,-84.15 442.68,-75.65 432.43,-78.35 436.35,-84.15"/>
</g>
<!-- Node16 -->
<g id="node16" class="node">
<title>Node16</title>
<g id="a_node16"><a xlink:title=" ">
<polygon fill="none" stroke="#bfbfbf" points="506.5,-56.5 506.5,-75.5 552.5,-75.5 552.5,-56.5 506.5,-56.5"/>
<text text-anchor="middle" x="529.5" y="-63.5" font-family="Helvetica,sans-Serif" font-size="10.00">errno.h</text>
</a>
</g>
</g>
<!-- Node12&#45;&gt;Node16 -->
<g id="edge23" class="edge">
<title>Node12&#45;&gt;Node16</title>
<path fill="none" stroke="midnightblue" d="M396.59,-113.6C422.42,-104.55 466.46,-89.1 496.72,-78.49"/>
<polygon fill="midnightblue" stroke="midnightblue" points="498.13,-81.71 506.41,-75.1 495.81,-75.1 498.13,-81.71"/>
</g>
</g>
</svg>
