<?xml version="1.0" encoding="UTF-8" standalone="no"?>
<!DOCTYPE svg PUBLIC "-//W3C//DTD SVG 1.1//EN"
 "http://www.w3.org/Graphics/SVG/1.1/DTD/svg11.dtd">
<!-- Generated by graphviz version 2.49.3 (20211027.1534)
 -->
<!-- Title: include/WillyWeather/authenticate.h Pages: 1 -->
<svg width="561pt" height="296pt"
 viewBox="0.00 0.00 561.19 296.00" xmlns="http://www.w3.org/2000/svg" xmlns:xlink="http://www.w3.org/1999/xlink">
<g id="graph0" class="graph" transform="scale(1 1) rotate(0) translate(4 292)">
<title>include/WillyWeather/authenticate.h</title>
<!-- Node1 -->
<g id="node1" class="node">
<title>Node1</title>
<g id="a_node1"><a xlink:title=" ">
<polygon fill="#bfbfbf" stroke="black" points="266.69,-257.5 266.69,-287.5 373.69,-287.5 373.69,-257.5 266.69,-257.5"/>
<text text-anchor="start" x="274.69" y="-275.5" font-family="Helvetica,sans-Serif" font-size="10.00">include/WillyWeather</text>
<text text-anchor="middle" x="320.19" y="-264.5" font-family="Helvetica,sans-Serif" font-size="10.00">/authenticate.h</text>
</a>
</g>
</g>
<!-- Node2 -->
<g id="node2" class="node">
<title>Node2</title>
<g id="a_node2"><a xlink:href="location_8h.html" target="_top" xlink:title=" ">
<polygon fill="none" stroke="black" points="225.69,-190.5 225.69,-220.5 332.69,-220.5 332.69,-190.5 225.69,-190.5"/>
<text text-anchor="start" x="233.69" y="-208.5" font-family="Helvetica,sans-Serif" font-size="10.00">include/WillyWeather</text>
<text text-anchor="middle" x="279.19" y="-197.5" font-family="Helvetica,sans-Serif" font-size="10.00">/location.h</text>
</a>
</g>
</g>
<!-- Node1&#45;&gt;Node2 -->
<g id="edge1" class="edge">
<title>Node1&#45;&gt;Node2</title>
<path fill="none" stroke="midnightblue" d="M305.91,-248.87C299.98,-239.46 293.27,-228.83 288.07,-220.58"/>
<polygon fill="midnightblue" stroke="midnightblue" points="302.99,-250.81 311.29,-257.4 308.92,-247.07 302.99,-250.81"/>
</g>
<!-- Node4 -->
<g id="node4" class="node">
<title>Node4</title>
<g id="a_node4"><a xlink:href="main_8h.html" target="_top" xlink:title=" ">
<polygon fill="none" stroke="black" points="163.69,-62 163.69,-81 242.69,-81 242.69,-62 163.69,-62"/>
<text text-anchor="middle" x="203.19" y="-69" font-family="Helvetica,sans-Serif" font-size="10.00">include/main.h</text>
</a>
</g>
</g>
<!-- Node1&#45;&gt;Node4 -->
<g id="edge14" class="edge">
<title>Node1&#45;&gt;Node4</title>
<path fill="none" stroke="midnightblue" d="M256.47,-268.12C182.21,-260.38 62.5,-235.2 6.19,-154 -1.67,-142.68 -2.26,-133.88 6.19,-123 7.45,-121.37 112.54,-95.04 168.69,-81.06"/>
<polygon fill="midnightblue" stroke="midnightblue" points="256.35,-271.63 266.64,-269.11 257.02,-264.66 256.35,-271.63"/>
</g>
<!-- Node9 -->
<g id="node9" class="node">
<title>Node9</title>
<g id="a_node9"><a xlink:href="tide_8h.html" target="_top" xlink:title=" ">
<polygon fill="none" stroke="black" points="420.69,-123.5 420.69,-153.5 527.69,-153.5 527.69,-123.5 420.69,-123.5"/>
<text text-anchor="start" x="428.69" y="-141.5" font-family="Helvetica,sans-Serif" font-size="10.00">include/WillyWeather</text>
<text text-anchor="middle" x="474.19" y="-130.5" font-family="Helvetica,sans-Serif" font-size="10.00">/tide.h</text>
</a>
</g>
</g>
<!-- Node1&#45;&gt;Node9 -->
<g id="edge13" class="edge">
<title>Node1&#45;&gt;Node9</title>
<path fill="none" stroke="midnightblue" d="M333.36,-248.28C344.22,-230.67 360.93,-206.71 380.19,-190 397.82,-174.7 420.86,-162.23 439.72,-153.51"/>
<polygon fill="midnightblue" stroke="midnightblue" points="330.08,-246.95 327.95,-257.33 336.09,-250.54 330.08,-246.95"/>
</g>
<!-- Node12 -->
<g id="node12" class="node">
<title>Node12</title>
<g id="a_node12"><a xlink:href="_willy_weather_2authenticate_8c.html" target="_top" xlink:title=" ">
<polygon fill="none" stroke="black" points="389.69,-196 389.69,-215 542.69,-215 542.69,-196 389.69,-196"/>
<text text-anchor="middle" x="466.19" y="-203" font-family="Helvetica,sans-Serif" font-size="10.00">src/WillyWeather/authenticate.c</text>
</a>
</g>
</g>
<!-- Node1&#45;&gt;Node12 -->
<g id="edge15" class="edge">
<title>Node1&#45;&gt;Node12</title>
<path fill="none" stroke="midnightblue" d="M361.08,-253.3C389.23,-240.76 425.35,-224.68 447.08,-215.01"/>
<polygon fill="midnightblue" stroke="midnightblue" points="359.58,-250.13 351.87,-257.4 362.43,-256.53 359.58,-250.13"/>
</g>
<!-- Node3 -->
<g id="node3" class="node">
<title>Node3</title>
<g id="a_node3"><a xlink:href="harvest__areas_8h.html" target="_top" xlink:title=" ">
<polygon fill="none" stroke="black" points="15.19,-123.5 15.19,-153.5 125.19,-153.5 125.19,-123.5 15.19,-123.5"/>
<text text-anchor="start" x="23.19" y="-141.5" font-family="Helvetica,sans-Serif" font-size="10.00">include/FoodAuthority</text>
<text text-anchor="middle" x="70.19" y="-130.5" font-family="Helvetica,sans-Serif" font-size="10.00">/harvest_areas.h</text>
</a>
</g>
</g>
<!-- Node2&#45;&gt;Node3 -->
<g id="edge2" class="edge">
<title>Node2&#45;&gt;Node3</title>
<path fill="none" stroke="midnightblue" d="M224.35,-187.44C190.47,-176.91 147.51,-163.55 115.56,-153.61"/>
<polygon fill="midnightblue" stroke="midnightblue" points="223.51,-190.85 234.09,-190.48 225.58,-184.16 223.51,-190.85"/>
</g>
<!-- Node7 -->
<g id="node7" class="node">
<title>Node7</title>
<g id="a_node7"><a xlink:href="precipitation_8h.html" target="_top" xlink:title=" ">
<polygon fill="none" stroke="black" points="295.69,-123.5 295.69,-153.5 402.69,-153.5 402.69,-123.5 295.69,-123.5"/>
<text text-anchor="start" x="303.69" y="-141.5" font-family="Helvetica,sans-Serif" font-size="10.00">include/WillyWeather</text>
<text text-anchor="middle" x="349.19" y="-130.5" font-family="Helvetica,sans-Serif" font-size="10.00">/precipitation.h</text>
</a>
</g>
</g>
<!-- Node2&#45;&gt;Node7 -->
<g id="edge6" class="edge">
<title>Node2&#45;&gt;Node7</title>
<path fill="none" stroke="midnightblue" d="M302,-183.31C312.5,-173.56 324.68,-162.26 334.03,-153.58"/>
<polygon fill="midnightblue" stroke="midnightblue" points="299.32,-181.03 294.38,-190.4 304.08,-186.16 299.32,-181.03"/>
</g>
<!-- Node2&#45;&gt;Node9 -->
<g id="edge9" class="edge">
<title>Node2&#45;&gt;Node9</title>
<path fill="none" stroke="midnightblue" d="M331,-187.23C362.55,-176.71 402.33,-163.45 431.96,-153.58"/>
<polygon fill="midnightblue" stroke="midnightblue" points="329.88,-183.91 321.5,-190.4 332.09,-190.55 329.88,-183.91"/>
</g>
<!-- Node11 -->
<g id="node11" class="node">
<title>Node11</title>
<g id="a_node11"><a xlink:href="location_8c.html" target="_top" xlink:title=" ">
<polygon fill="none" stroke="black" points="143.19,-129 143.19,-148 277.19,-148 277.19,-129 143.19,-129"/>
<text text-anchor="middle" x="210.19" y="-136" font-family="Helvetica,sans-Serif" font-size="10.00">src/WillyWeather/location.c</text>
</a>
</g>
</g>
<!-- Node2&#45;&gt;Node11 -->
<g id="edge12" class="edge">
<title>Node2&#45;&gt;Node11</title>
<path fill="none" stroke="midnightblue" d="M256.72,-183.34C244.05,-171.4 228.91,-157.14 219.42,-148.19"/>
<polygon fill="midnightblue" stroke="midnightblue" points="254.54,-186.09 264.21,-190.4 259.34,-180.99 254.54,-186.09"/>
</g>
<!-- Node3&#45;&gt;Node4 -->
<g id="edge3" class="edge">
<title>Node3&#45;&gt;Node4</title>
<path fill="none" stroke="midnightblue" d="M108.11,-118.97C133.66,-106.48 166.16,-90.6 185.78,-81.01"/>
<polygon fill="midnightblue" stroke="midnightblue" points="106.49,-115.86 99.05,-123.4 109.57,-122.15 106.49,-115.86"/>
</g>
<!-- Node6 -->
<g id="node6" class="node">
<title>Node6</title>
<g id="a_node6"><a xlink:href="harvest__areas_8c.html" target="_top" xlink:title=" ">
<polygon fill="none" stroke="black" points="6.19,-56.5 6.19,-86.5 134.19,-86.5 134.19,-56.5 6.19,-56.5"/>
<text text-anchor="start" x="14.19" y="-74.5" font-family="Helvetica,sans-Serif" font-size="10.00">src/FoodAuthority/harvest</text>
<text text-anchor="middle" x="70.19" y="-63.5" font-family="Helvetica,sans-Serif" font-size="10.00">_areas.c</text>
</a>
</g>
</g>
<!-- Node3&#45;&gt;Node6 -->
<g id="edge5" class="edge">
<title>Node3&#45;&gt;Node6</title>
<path fill="none" stroke="midnightblue" d="M70.19,-113.11C70.19,-104.15 70.19,-94.32 70.19,-86.58"/>
<polygon fill="midnightblue" stroke="midnightblue" points="66.69,-113.4 70.19,-123.4 73.69,-113.4 66.69,-113.4"/>
</g>
<!-- Node5 -->
<g id="node5" class="node">
<title>Node5</title>
<g id="a_node5"><a xlink:href="main_8c.html" target="_top" xlink:title=" ">
<polygon fill="none" stroke="black" points="172.19,-0.5 172.19,-19.5 234.19,-19.5 234.19,-0.5 172.19,-0.5"/>
<text text-anchor="middle" x="203.19" y="-7.5" font-family="Helvetica,sans-Serif" font-size="10.00">src/main.c</text>
</a>
</g>
</g>
<!-- Node4&#45;&gt;Node5 -->
<g id="edge4" class="edge">
<title>Node4&#45;&gt;Node5</title>
<path fill="none" stroke="midnightblue" d="M203.19,-51.82C203.19,-41 203.19,-27.9 203.19,-19.51"/>
<polygon fill="midnightblue" stroke="midnightblue" points="199.69,-51.98 203.19,-61.98 206.69,-51.98 199.69,-51.98"/>
</g>
<!-- Node7&#45;&gt;Node4 -->
<g id="edge7" class="edge">
<title>Node7&#45;&gt;Node4</title>
<path fill="none" stroke="midnightblue" d="M308.3,-119.3C280.14,-106.76 244.03,-90.68 222.29,-81.01"/>
<polygon fill="midnightblue" stroke="midnightblue" points="306.95,-122.53 317.51,-123.4 309.79,-116.13 306.95,-122.53"/>
</g>
<!-- Node8 -->
<g id="node8" class="node">
<title>Node8</title>
<g id="a_node8"><a xlink:href="precipitation_8c.html" target="_top" xlink:title=" ">
<polygon fill="none" stroke="black" points="267.19,-62 267.19,-81 419.19,-81 419.19,-62 267.19,-62"/>
<text text-anchor="middle" x="343.19" y="-69" font-family="Helvetica,sans-Serif" font-size="10.00">src/WillyWeather/precipitation.c</text>
</a>
</g>
</g>
<!-- Node7&#45;&gt;Node8 -->
<g id="edge8" class="edge">
<title>Node7&#45;&gt;Node8</title>
<path fill="none" stroke="midnightblue" d="M346.95,-113.25C345.91,-102.02 344.74,-89.38 343.99,-81.19"/>
<polygon fill="midnightblue" stroke="midnightblue" points="343.48,-113.76 347.88,-123.4 350.45,-113.12 343.48,-113.76"/>
</g>
<!-- Node9&#45;&gt;Node4 -->
<g id="edge10" class="edge">
<title>Node9&#45;&gt;Node4</title>
<path fill="none" stroke="midnightblue" d="M410.47,-122.81C357.59,-110.58 286.63,-94.07 258.19,-87 250.62,-85.12 242.48,-83.02 234.85,-81.01"/>
<polygon fill="midnightblue" stroke="midnightblue" points="409.92,-126.28 420.45,-125.12 411.5,-119.46 409.92,-126.28"/>
</g>
<!-- Node10 -->
<g id="node10" class="node">
<title>Node10</title>
<g id="a_node10"><a xlink:href="tide_8c.html" target="_top" xlink:title=" ">
<polygon fill="none" stroke="black" points="437.19,-62 437.19,-81 553.19,-81 553.19,-62 437.19,-62"/>
<text text-anchor="middle" x="495.19" y="-69" font-family="Helvetica,sans-Serif" font-size="10.00">src/WillyWeather/tide.c</text>
</a>
</g>
</g>
<!-- Node9&#45;&gt;Node10 -->
<g id="edge11" class="edge">
<title>Node9&#45;&gt;Node10</title>
<path fill="none" stroke="midnightblue" d="M481.91,-113.6C485.57,-102.28 489.71,-89.46 492.38,-81.19"/>
<polygon fill="midnightblue" stroke="midnightblue" points="478.49,-112.8 478.74,-123.4 485.15,-114.96 478.49,-112.8"/>
</g>
</g>
</svg>
