<?xml version="1.0" encoding="UTF-8" standalone="no"?>
<!DOCTYPE svg PUBLIC "-//W3C//DTD SVG 1.1//EN"
 "http://www.w3.org/Graphics/SVG/1.1/DTD/svg11.dtd">
<!-- Generated by graphviz version 2.49.3 (20211027.1534)
 -->
<!-- Title: src/Ubidots/devices.c Pages: 1 -->
<svg width="588pt" height="196pt"
 viewBox="0.00 0.00 588.00 196.00" xmlns="http://www.w3.org/2000/svg" xmlns:xlink="http://www.w3.org/1999/xlink">
<g id="graph0" class="graph" transform="scale(1 1) rotate(0) translate(4 192)">
<title>src/Ubidots/devices.c</title>
<!-- Node1 -->
<g id="node1" class="node">
<title>Node1</title>
<g id="a_node1"><a xlink:title=" ">
<polygon fill="#bfbfbf" stroke="black" points="193,-168.5 193,-187.5 304,-187.5 304,-168.5 193,-168.5"/>
<text text-anchor="middle" x="248.5" y="-175.5" font-family="Helvetica,sans-Serif" font-size="10.00">src/Ubidots/devices.c</text>
</a>
</g>
</g>
<!-- Node2 -->
<g id="node2" class="node">
<title>Node2</title>
<g id="a_node2"><a xlink:href="devices_8h.html" target="_top" xlink:title=" ">
<polygon fill="none" stroke="black" points="201,-112.5 201,-131.5 296,-131.5 296,-112.5 201,-112.5"/>
<text text-anchor="middle" x="248.5" y="-119.5" font-family="Helvetica,sans-Serif" font-size="10.00">Ubidots/devices.h</text>
</a>
</g>
</g>
<!-- Node1&#45;&gt;Node2 -->
<g id="edge1" class="edge">
<title>Node1&#45;&gt;Node2</title>
<path fill="none" stroke="midnightblue" d="M248.5,-168.08C248.5,-161.01 248.5,-150.86 248.5,-141.99"/>
<polygon fill="midnightblue" stroke="midnightblue" points="252,-141.75 248.5,-131.75 245,-141.75 252,-141.75"/>
</g>
<!-- Node3 -->
<g id="node3" class="node">
<title>Node3</title>
<g id="a_node3"><a xlink:title=" ">
<polygon fill="none" stroke="#bfbfbf" points="63.5,-0.5 63.5,-19.5 111.5,-19.5 111.5,-0.5 63.5,-0.5"/>
<text text-anchor="middle" x="87.5" y="-7.5" font-family="Helvetica,sans-Serif" font-size="10.00">string.h</text>
</a>
</g>
</g>
<!-- Node2&#45;&gt;Node3 -->
<g id="edge2" class="edge">
<title>Node2&#45;&gt;Node3</title>
<path fill="none" stroke="midnightblue" d="M236.85,-112.4C219.66,-99.78 186.43,-75.61 157.5,-56 141.86,-45.39 123.92,-33.88 110.12,-25.15"/>
<polygon fill="midnightblue" stroke="midnightblue" points="111.64,-21.97 101.31,-19.6 107.91,-27.89 111.64,-21.97"/>
</g>
<!-- Node4 -->
<g id="node4" class="node">
<title>Node4</title>
<g id="a_node4"><a xlink:title=" ">
<polygon fill="none" stroke="#bfbfbf" points="350.5,-56.5 350.5,-75.5 396.5,-75.5 396.5,-56.5 350.5,-56.5"/>
<text text-anchor="middle" x="373.5" y="-63.5" font-family="Helvetica,sans-Serif" font-size="10.00">math.h</text>
</a>
</g>
</g>
<!-- Node2&#45;&gt;Node4 -->
<g id="edge3" class="edge">
<title>Node2&#45;&gt;Node4</title>
<path fill="none" stroke="midnightblue" d="M268.31,-112.44C288.79,-103.6 320.98,-89.69 344.36,-79.59"/>
<polygon fill="midnightblue" stroke="midnightblue" points="345.99,-82.7 353.79,-75.52 343.22,-76.27 345.99,-82.7"/>
</g>
<!-- Node5 -->
<g id="node5" class="node">
<title>Node5</title>
<g id="a_node5"><a xlink:title=" ">
<polygon fill="none" stroke="#bfbfbf" points="195,-0.5 195,-19.5 254,-19.5 254,-0.5 195,-0.5"/>
<text text-anchor="middle" x="224.5" y="-7.5" font-family="Helvetica,sans-Serif" font-size="10.00">curl/curl.h</text>
</a>
</g>
</g>
<!-- Node2&#45;&gt;Node5 -->
<g id="edge4" class="edge">
<title>Node2&#45;&gt;Node5</title>
<path fill="none" stroke="midnightblue" d="M246.62,-112.37C242.74,-94.62 233.81,-53.67 228.56,-29.6"/>
<polygon fill="midnightblue" stroke="midnightblue" points="231.93,-28.62 226.37,-19.59 225.09,-30.11 231.93,-28.62"/>
</g>
<!-- Node6 -->
<g id="node6" class="node">
<title>Node6</title>
<g id="a_node6"><a xlink:title=" ">
<polygon fill="none" stroke="#bfbfbf" points="497,-0.5 497,-19.5 580,-19.5 580,-0.5 497,-0.5"/>
<text text-anchor="middle" x="538.5" y="-7.5" font-family="Helvetica,sans-Serif" font-size="10.00">cjson/cJSON.h</text>
</a>
</g>
</g>
<!-- Node2&#45;&gt;Node6 -->
<g id="edge5" class="edge">
<title>Node2&#45;&gt;Node6</title>
<path fill="none" stroke="midnightblue" d="M258.04,-112.41C274.09,-98.43 308,-70.85 341.5,-56 367.15,-44.63 437.68,-29.89 486.97,-20.44"/>
<polygon fill="midnightblue" stroke="midnightblue" points="487.67,-23.87 496.84,-18.57 486.36,-17 487.67,-23.87"/>
</g>
<!-- Node7 -->
<g id="node7" class="node">
<title>Node7</title>
<g id="a_node7"><a xlink:href="_ubidots_2authenticate_8h.html" target="_top" xlink:title=" ">
<polygon fill="none" stroke="black" points="34.5,-56.5 34.5,-75.5 148.5,-75.5 148.5,-56.5 34.5,-56.5"/>
<text text-anchor="middle" x="91.5" y="-63.5" font-family="Helvetica,sans-Serif" font-size="10.00">Ubidots/authenticate.h</text>
</a>
</g>
</g>
<!-- Node2&#45;&gt;Node7 -->
<g id="edge6" class="edge">
<title>Node2&#45;&gt;Node7</title>
<path fill="none" stroke="midnightblue" d="M223.62,-112.44C197.21,-103.36 155.28,-88.94 125.76,-78.78"/>
<polygon fill="midnightblue" stroke="midnightblue" points="126.86,-75.46 116.26,-75.52 124.58,-82.08 126.86,-75.46"/>
</g>
<!-- Node10 -->
<g id="node10" class="node">
<title>Node10</title>
<g id="a_node10"><a xlink:href="utils_8h.html" target="_top" xlink:title=" ">
<polygon fill="none" stroke="black" points="252.5,-56.5 252.5,-75.5 294.5,-75.5 294.5,-56.5 252.5,-56.5"/>
<text text-anchor="middle" x="273.5" y="-63.5" font-family="Helvetica,sans-Serif" font-size="10.00">utils.h</text>
</a>
</g>
</g>
<!-- Node2&#45;&gt;Node10 -->
<g id="edge10" class="edge">
<title>Node2&#45;&gt;Node10</title>
<path fill="none" stroke="midnightblue" d="M252.63,-112.08C256.01,-104.77 260.92,-94.18 265.12,-85.1"/>
<polygon fill="midnightblue" stroke="midnightblue" points="268.42,-86.3 269.45,-75.75 262.07,-83.36 268.42,-86.3"/>
</g>
<!-- Node7&#45;&gt;Node3 -->
<g id="edge9" class="edge">
<title>Node7&#45;&gt;Node3</title>
<path fill="none" stroke="midnightblue" d="M90.84,-56.08C90.32,-49.01 89.56,-38.86 88.91,-29.99"/>
<polygon fill="midnightblue" stroke="midnightblue" points="92.38,-29.47 88.15,-19.75 85.4,-29.98 92.38,-29.47"/>
</g>
<!-- Node8 -->
<g id="node8" class="node">
<title>Node8</title>
<g id="a_node8"><a xlink:title=" ">
<polygon fill="none" stroke="#bfbfbf" points="0,-0.5 0,-19.5 45,-19.5 45,-0.5 0,-0.5"/>
<text text-anchor="middle" x="22.5" y="-7.5" font-family="Helvetica,sans-Serif" font-size="10.00">stdio.h</text>
</a>
</g>
</g>
<!-- Node7&#45;&gt;Node8 -->
<g id="edge7" class="edge">
<title>Node7&#45;&gt;Node8</title>
<path fill="none" stroke="midnightblue" d="M80.41,-56.32C70.01,-48.18 54.24,-35.84 41.78,-26.09"/>
<polygon fill="midnightblue" stroke="midnightblue" points="43.82,-23.24 33.79,-19.83 39.51,-28.75 43.82,-23.24"/>
</g>
<!-- Node9 -->
<g id="node9" class="node">
<title>Node9</title>
<g id="a_node9"><a xlink:title=" ">
<polygon fill="none" stroke="#bfbfbf" points="130,-0.5 130,-19.5 177,-19.5 177,-0.5 130,-0.5"/>
<text text-anchor="middle" x="153.5" y="-7.5" font-family="Helvetica,sans-Serif" font-size="10.00">stdlib.h</text>
</a>
</g>
</g>
<!-- Node7&#45;&gt;Node9 -->
<g id="edge8" class="edge">
<title>Node7&#45;&gt;Node9</title>
<path fill="none" stroke="midnightblue" d="M101.46,-56.32C110.63,-48.34 124.44,-36.31 135.53,-26.65"/>
<polygon fill="midnightblue" stroke="midnightblue" points="138.12,-29.04 143.36,-19.83 133.52,-23.76 138.12,-29.04"/>
</g>
<!-- Node10&#45;&gt;Node3 -->
<g id="edge12" class="edge">
<title>Node10&#45;&gt;Node3</title>
<path fill="none" stroke="midnightblue" d="M252.16,-58.81C220.1,-49.5 159.21,-31.82 121.14,-20.77"/>
<polygon fill="midnightblue" stroke="midnightblue" points="122.09,-17.4 111.51,-17.97 120.14,-24.12 122.09,-17.4"/>
</g>
<!-- Node10&#45;&gt;Node5 -->
<g id="edge13" class="edge">
<title>Node10&#45;&gt;Node5</title>
<path fill="none" stroke="midnightblue" d="M265.41,-56.08C258.34,-48.3 247.91,-36.8 239.35,-27.37"/>
<polygon fill="midnightblue" stroke="midnightblue" points="241.75,-24.8 232.44,-19.75 236.57,-29.51 241.75,-24.8"/>
</g>
<!-- Node10&#45;&gt;Node6 -->
<g id="edge14" class="edge">
<title>Node10&#45;&gt;Node6</title>
<path fill="none" stroke="midnightblue" d="M294.55,-59.37C299.14,-58.21 303.97,-57.02 308.5,-56 369.5,-42.2 440.18,-28.75 486.91,-20.2"/>
<polygon fill="midnightblue" stroke="midnightblue" points="487.59,-23.64 496.8,-18.4 486.33,-16.75 487.59,-23.64"/>
</g>
<!-- Node10&#45;&gt;Node9 -->
<g id="edge11" class="edge">
<title>Node10&#45;&gt;Node9</title>
<path fill="none" stroke="midnightblue" d="M254.49,-56.44C234.91,-47.64 204.19,-33.81 181.77,-23.72"/>
<polygon fill="midnightblue" stroke="midnightblue" points="182.98,-20.43 172.43,-19.52 180.11,-26.81 182.98,-20.43"/>
</g>
<!-- Node11 -->
<g id="node11" class="node">
<title>Node11</title>
<g id="a_node11"><a xlink:title=" ">
<polygon fill="none" stroke="#bfbfbf" points="272,-0.5 272,-19.5 331,-19.5 331,-0.5 272,-0.5"/>
<text text-anchor="middle" x="301.5" y="-7.5" font-family="Helvetica,sans-Serif" font-size="10.00">sys/stat.h</text>
</a>
</g>
</g>
<!-- Node10&#45;&gt;Node11 -->
<g id="edge15" class="edge">
<title>Node10&#45;&gt;Node11</title>
<path fill="none" stroke="midnightblue" d="M278.12,-56.08C281.96,-48.69 287.52,-37.95 292.26,-28.81"/>
<polygon fill="midnightblue" stroke="midnightblue" points="295.47,-30.24 296.96,-19.75 289.25,-27.02 295.47,-30.24"/>
</g>
<!-- Node12 -->
<g id="node12" class="node">
<title>Node12</title>
<g id="a_node12"><a xlink:title=" ">
<polygon fill="none" stroke="#bfbfbf" points="349,-0.5 349,-19.5 414,-19.5 414,-0.5 349,-0.5"/>
<text text-anchor="middle" x="381.5" y="-7.5" font-family="Helvetica,sans-Serif" font-size="10.00">sys/types.h</text>
</a>
</g>
</g>
<!-- Node10&#45;&gt;Node12 -->
<g id="edge16" class="edge">
<title>Node10&#45;&gt;Node12</title>
<path fill="none" stroke="midnightblue" d="M290.85,-56.32C308.17,-47.66 335.02,-34.24 355,-24.25"/>
<polygon fill="midnightblue" stroke="midnightblue" points="356.81,-27.26 364.19,-19.65 353.68,-21 356.81,-27.26"/>
</g>
<!-- Node13 -->
<g id="node13" class="node">
<title>Node13</title>
<g id="a_node13"><a xlink:title=" ">
<polygon fill="none" stroke="#bfbfbf" points="432.5,-0.5 432.5,-19.5 478.5,-19.5 478.5,-0.5 432.5,-0.5"/>
<text text-anchor="middle" x="455.5" y="-7.5" font-family="Helvetica,sans-Serif" font-size="10.00">errno.h</text>
</a>
</g>
</g>
<!-- Node10&#45;&gt;Node13 -->
<g id="edge17" class="edge">
<title>Node10&#45;&gt;Node13</title>
<path fill="none" stroke="midnightblue" d="M294.73,-58.7C326.19,-49.37 385.44,-31.79 422.56,-20.77"/>
<polygon fill="midnightblue" stroke="midnightblue" points="423.81,-24.05 432.4,-17.85 421.82,-17.34 423.81,-24.05"/>
</g>
</g>
</svg>
