<?xml version="1.0" encoding="UTF-8" standalone="no"?>
<!DOCTYPE svg PUBLIC "-//W3C//DTD SVG 1.1//EN"
 "http://www.w3.org/Graphics/SVG/1.1/DTD/svg11.dtd">
<!-- Generated by graphviz version 2.49.3 (20211027.1534)
 -->
<!-- Title: src/Ubidots/devices.c Pages: 1 -->
<svg width="650pt" height="364pt"
 viewBox="0.00 0.00 650.00 364.00" xmlns="http://www.w3.org/2000/svg" xmlns:xlink="http://www.w3.org/1999/xlink">
<g id="graph0" class="graph" transform="scale(1 1) rotate(0) translate(4 360)">
<title>src/Ubidots/devices.c</title>
<!-- Node1 -->
<g id="node1" class="node">
<title>Node1</title>
<g id="a_node1"><a xlink:title=" ">
<polygon fill="#bfbfbf" stroke="black" points="252,-336.5 252,-355.5 363,-355.5 363,-336.5 252,-336.5"/>
<text text-anchor="middle" x="307.5" y="-343.5" font-family="Helvetica,sans-Serif" font-size="10.00">src/Ubidots/devices.c</text>
</a>
</g>
</g>
<!-- Node2 -->
<g id="node2" class="node">
<title>Node2</title>
<g id="a_node2"><a xlink:href="devices_8h.html" target="_top" xlink:title=" ">
<polygon fill="none" stroke="black" points="260,-280.5 260,-299.5 355,-299.5 355,-280.5 260,-280.5"/>
<text text-anchor="middle" x="307.5" y="-287.5" font-family="Helvetica,sans-Serif" font-size="10.00">Ubidots/devices.h</text>
</a>
</g>
</g>
<!-- Node1&#45;&gt;Node2 -->
<g id="edge1" class="edge">
<title>Node1&#45;&gt;Node2</title>
<path fill="none" stroke="midnightblue" d="M307.5,-336.08C307.5,-329.01 307.5,-318.86 307.5,-309.99"/>
<polygon fill="midnightblue" stroke="midnightblue" points="311,-309.75 307.5,-299.75 304,-309.75 311,-309.75"/>
</g>
<!-- Node3 -->
<g id="node3" class="node">
<title>Node3</title>
<g id="a_node3"><a xlink:title=" ">
<polygon fill="none" stroke="#bfbfbf" points="125.5,-56.5 125.5,-75.5 173.5,-75.5 173.5,-56.5 125.5,-56.5"/>
<text text-anchor="middle" x="149.5" y="-63.5" font-family="Helvetica,sans-Serif" font-size="10.00">string.h</text>
</a>
</g>
</g>
<!-- Node2&#45;&gt;Node3 -->
<g id="edge2" class="edge">
<title>Node2&#45;&gt;Node3</title>
<path fill="none" stroke="midnightblue" d="M301.31,-280.3C277.76,-247.22 193.56,-128.91 161.77,-84.24"/>
<polygon fill="midnightblue" stroke="midnightblue" points="164.47,-82 155.82,-75.88 158.77,-86.06 164.47,-82"/>
</g>
<!-- Node4 -->
<g id="node4" class="node">
<title>Node4</title>
<g id="a_node4"><a xlink:title=" ">
<polygon fill="none" stroke="#bfbfbf" points="480.5,-224.5 480.5,-243.5 526.5,-243.5 526.5,-224.5 480.5,-224.5"/>
<text text-anchor="middle" x="503.5" y="-231.5" font-family="Helvetica,sans-Serif" font-size="10.00">math.h</text>
</a>
</g>
</g>
<!-- Node2&#45;&gt;Node4 -->
<g id="edge3" class="edge">
<title>Node2&#45;&gt;Node4</title>
<path fill="none" stroke="midnightblue" d="M338.56,-280.44C374.57,-270.52 433.69,-254.23 470.51,-244.09"/>
<polygon fill="midnightblue" stroke="midnightblue" points="471.55,-247.43 480.26,-241.4 469.69,-240.68 471.55,-247.43"/>
</g>
<!-- Node5 -->
<g id="node5" class="node">
<title>Node5</title>
<g id="a_node5"><a xlink:title=" ">
<polygon fill="none" stroke="#bfbfbf" points="482,-56.5 482,-75.5 541,-75.5 541,-56.5 482,-56.5"/>
<text text-anchor="middle" x="511.5" y="-63.5" font-family="Helvetica,sans-Serif" font-size="10.00">curl/curl.h</text>
</a>
</g>
</g>
<!-- Node2&#45;&gt;Node5 -->
<g id="edge4" class="edge">
<title>Node2&#45;&gt;Node5</title>
<path fill="none" stroke="midnightblue" d="M312.27,-280.36C327.67,-253.04 378.53,-167.09 438.5,-112 452.26,-99.36 470.07,-88.3 484.66,-80.3"/>
<polygon fill="midnightblue" stroke="midnightblue" points="486.51,-83.28 493.7,-75.51 483.23,-77.1 486.51,-83.28"/>
</g>
<!-- Node6 -->
<g id="node6" class="node">
<title>Node6</title>
<g id="a_node6"><a xlink:title=" ">
<polygon fill="none" stroke="#bfbfbf" points="559,-56.5 559,-75.5 642,-75.5 642,-56.5 559,-56.5"/>
<text text-anchor="middle" x="600.5" y="-63.5" font-family="Helvetica,sans-Serif" font-size="10.00">cjson/cJSON.h</text>
</a>
</g>
</g>
<!-- Node2&#45;&gt;Node6 -->
<g id="edge5" class="edge">
<title>Node2&#45;&gt;Node6</title>
<path fill="none" stroke="midnightblue" d="M318.99,-280.3C363.48,-246.59 524.78,-124.37 581.01,-81.77"/>
<polygon fill="midnightblue" stroke="midnightblue" points="583.24,-84.47 589.09,-75.64 579.01,-78.89 583.24,-84.47"/>
</g>
<!-- Node7 -->
<g id="node7" class="node">
<title>Node7</title>
<g id="a_node7"><a xlink:href="log_8h.html" target="_top" xlink:title=" ">
<polygon fill="none" stroke="black" points="70,-56.5 70,-75.5 107,-75.5 107,-56.5 70,-56.5"/>
<text text-anchor="middle" x="88.5" y="-63.5" font-family="Helvetica,sans-Serif" font-size="10.00">log.h</text>
</a>
</g>
</g>
<!-- Node2&#45;&gt;Node7 -->
<g id="edge6" class="edge">
<title>Node2&#45;&gt;Node7</title>
<path fill="none" stroke="midnightblue" d="M259.84,-287.16C196.26,-283.59 88.85,-273.27 64.5,-244 25.87,-197.56 59.92,-119.33 78.41,-84.56"/>
<polygon fill="midnightblue" stroke="midnightblue" points="81.58,-86.06 83.35,-75.61 75.45,-82.68 81.58,-86.06"/>
</g>
<!-- Node12 -->
<g id="node12" class="node">
<title>Node12</title>
<g id="a_node12"><a xlink:href="_ubidots_2authenticate_8h.html" target="_top" xlink:title=" ">
<polygon fill="none" stroke="black" points="73.5,-224.5 73.5,-243.5 187.5,-243.5 187.5,-224.5 73.5,-224.5"/>
<text text-anchor="middle" x="130.5" y="-231.5" font-family="Helvetica,sans-Serif" font-size="10.00">Ubidots/authenticate.h</text>
</a>
</g>
</g>
<!-- Node2&#45;&gt;Node12 -->
<g id="edge11" class="edge">
<title>Node2&#45;&gt;Node12</title>
<path fill="none" stroke="midnightblue" d="M279.45,-280.44C249.42,-271.28 201.59,-256.69 168.26,-246.52"/>
<polygon fill="midnightblue" stroke="midnightblue" points="169,-243.09 158.41,-243.52 166.96,-249.78 169,-243.09"/>
</g>
<!-- Node14 -->
<g id="node14" class="node">
<title>Node14</title>
<g id="a_node14"><a xlink:href="http_8h.html" target="_top" xlink:title=" ">
<polygon fill="none" stroke="black" points="258,-168.5 258,-187.5 299,-187.5 299,-168.5 258,-168.5"/>
<text text-anchor="middle" x="278.5" y="-175.5" font-family="Helvetica,sans-Serif" font-size="10.00">http.h</text>
</a>
</g>
</g>
<!-- Node2&#45;&gt;Node14 -->
<g id="edge29" class="edge">
<title>Node2&#45;&gt;Node14</title>
<path fill="none" stroke="midnightblue" d="M305.22,-280.37C300.52,-262.54 289.65,-221.3 283.32,-197.27"/>
<polygon fill="midnightblue" stroke="midnightblue" points="286.7,-196.37 280.77,-187.59 279.93,-198.15 286.7,-196.37"/>
</g>
<!-- Node15 -->
<g id="node15" class="node">
<title>Node15</title>
<g id="a_node15"><a xlink:href="utils_8h.html" target="_top" xlink:title=" ">
<polygon fill="none" stroke="black" points="306.5,-112.5 306.5,-131.5 348.5,-131.5 348.5,-112.5 306.5,-112.5"/>
<text text-anchor="middle" x="327.5" y="-119.5" font-family="Helvetica,sans-Serif" font-size="10.00">utils.h</text>
</a>
</g>
</g>
<!-- Node2&#45;&gt;Node15 -->
<g id="edge30" class="edge">
<title>Node2&#45;&gt;Node15</title>
<path fill="none" stroke="midnightblue" d="M308.58,-280.08C311.72,-253.95 320.97,-177.21 325.26,-141.58"/>
<polygon fill="midnightblue" stroke="midnightblue" points="328.75,-141.92 326.47,-131.57 321.8,-141.08 328.75,-141.92"/>
</g>
<!-- Node8 -->
<g id="node8" class="node">
<title>Node8</title>
<g id="a_node8"><a xlink:title=" ">
<polygon fill="none" stroke="#bfbfbf" points="0,-0.5 0,-19.5 45,-19.5 45,-0.5 0,-0.5"/>
<text text-anchor="middle" x="22.5" y="-7.5" font-family="Helvetica,sans-Serif" font-size="10.00">stdio.h</text>
</a>
</g>
</g>
<!-- Node7&#45;&gt;Node8 -->
<g id="edge7" class="edge">
<title>Node7&#45;&gt;Node8</title>
<path fill="none" stroke="midnightblue" d="M77.9,-56.32C68.04,-48.26 53.15,-36.08 41.28,-26.37"/>
<polygon fill="midnightblue" stroke="midnightblue" points="43.25,-23.46 33.3,-19.83 38.82,-28.88 43.25,-23.46"/>
</g>
<!-- Node9 -->
<g id="node9" class="node">
<title>Node9</title>
<g id="a_node9"><a xlink:title=" ">
<polygon fill="none" stroke="#bfbfbf" points="63,-0.5 63,-19.5 114,-19.5 114,-0.5 63,-0.5"/>
<text text-anchor="middle" x="88.5" y="-7.5" font-family="Helvetica,sans-Serif" font-size="10.00">stdarg.h</text>
</a>
</g>
</g>
<!-- Node7&#45;&gt;Node9 -->
<g id="edge8" class="edge">
<title>Node7&#45;&gt;Node9</title>
<path fill="none" stroke="midnightblue" d="M88.5,-56.08C88.5,-49.01 88.5,-38.86 88.5,-29.99"/>
<polygon fill="midnightblue" stroke="midnightblue" points="92,-29.75 88.5,-19.75 85,-29.75 92,-29.75"/>
</g>
<!-- Node10 -->
<g id="node10" class="node">
<title>Node10</title>
<g id="a_node10"><a xlink:title=" ">
<polygon fill="none" stroke="#bfbfbf" points="132.5,-0.5 132.5,-19.5 188.5,-19.5 188.5,-0.5 132.5,-0.5"/>
<text text-anchor="middle" x="160.5" y="-7.5" font-family="Helvetica,sans-Serif" font-size="10.00">stdbool.h</text>
</a>
</g>
</g>
<!-- Node7&#45;&gt;Node10 -->
<g id="edge9" class="edge">
<title>Node7&#45;&gt;Node10</title>
<path fill="none" stroke="midnightblue" d="M100.07,-56.32C110.92,-48.18 127.38,-35.84 140.38,-26.09"/>
<polygon fill="midnightblue" stroke="midnightblue" points="142.82,-28.63 148.72,-19.83 138.62,-23.03 142.82,-28.63"/>
</g>
<!-- Node11 -->
<g id="node11" class="node">
<title>Node11</title>
<g id="a_node11"><a xlink:title=" ">
<polygon fill="none" stroke="#bfbfbf" points="207,-0.5 207,-19.5 250,-19.5 250,-0.5 207,-0.5"/>
<text text-anchor="middle" x="228.5" y="-7.5" font-family="Helvetica,sans-Serif" font-size="10.00">time.h</text>
</a>
</g>
</g>
<!-- Node7&#45;&gt;Node11 -->
<g id="edge10" class="edge">
<title>Node7&#45;&gt;Node11</title>
<path fill="none" stroke="midnightblue" d="M107.09,-57.83C130.01,-48.99 169.32,-33.83 196.99,-23.15"/>
<polygon fill="midnightblue" stroke="midnightblue" points="198.53,-26.31 206.6,-19.45 196.01,-19.78 198.53,-26.31"/>
</g>
<!-- Node12&#45;&gt;Node3 -->
<g id="edge14" class="edge">
<title>Node12&#45;&gt;Node3</title>
<path fill="none" stroke="midnightblue" d="M131.52,-224.08C134.51,-197.95 143.3,-121.21 147.37,-85.58"/>
<polygon fill="midnightblue" stroke="midnightblue" points="150.86,-85.9 148.52,-75.57 143.9,-85.11 150.86,-85.9"/>
</g>
<!-- Node12&#45;&gt;Node7 -->
<g id="edge15" class="edge">
<title>Node12&#45;&gt;Node7</title>
<path fill="none" stroke="midnightblue" d="M128.24,-224.08C121.63,-197.95 102.22,-121.21 93.2,-85.58"/>
<polygon fill="midnightblue" stroke="midnightblue" points="96.51,-84.4 90.67,-75.57 89.73,-86.12 96.51,-84.4"/>
</g>
<!-- Node12&#45;&gt;Node8 -->
<g id="edge12" class="edge">
<title>Node12&#45;&gt;Node8</title>
<path fill="none" stroke="midnightblue" d="M126.27,-224.3C110.27,-191.42 53.34,-74.39 31.3,-29.09"/>
<polygon fill="midnightblue" stroke="midnightblue" points="34.34,-27.34 26.82,-19.88 28.05,-30.41 34.34,-27.34"/>
</g>
<!-- Node13 -->
<g id="node13" class="node">
<title>Node13</title>
<g id="a_node13"><a xlink:title=" ">
<polygon fill="none" stroke="#bfbfbf" points="192,-56.5 192,-75.5 239,-75.5 239,-56.5 192,-56.5"/>
<text text-anchor="middle" x="215.5" y="-63.5" font-family="Helvetica,sans-Serif" font-size="10.00">stdlib.h</text>
</a>
</g>
</g>
<!-- Node12&#45;&gt;Node13 -->
<g id="edge13" class="edge">
<title>Node12&#45;&gt;Node13</title>
<path fill="none" stroke="midnightblue" d="M135.07,-224.08C148.57,-197.72 188.42,-119.88 206.46,-84.66"/>
<polygon fill="midnightblue" stroke="midnightblue" points="209.67,-86.06 211.11,-75.57 203.44,-82.87 209.67,-86.06"/>
</g>
<!-- Node12&#45;&gt;Node14 -->
<g id="edge16" class="edge">
<title>Node12&#45;&gt;Node14</title>
<path fill="none" stroke="midnightblue" d="M153.95,-224.44C179.36,-215.17 219.99,-200.35 247.9,-190.17"/>
<polygon fill="midnightblue" stroke="midnightblue" points="249.36,-193.36 257.55,-186.64 246.96,-186.78 249.36,-193.36"/>
</g>
<!-- Node14&#45;&gt;Node3 -->
<g id="edge18" class="edge">
<title>Node14&#45;&gt;Node3</title>
<path fill="none" stroke="midnightblue" d="M268.38,-168.37C246.52,-149.73 194.69,-105.53 167.25,-82.13"/>
<polygon fill="midnightblue" stroke="midnightblue" points="169.46,-79.42 159.58,-75.59 164.91,-84.74 169.46,-79.42"/>
</g>
<!-- Node14&#45;&gt;Node5 -->
<g id="edge19" class="edge">
<title>Node14&#45;&gt;Node5</title>
<path fill="none" stroke="midnightblue" d="M293.27,-168.48C315.96,-155.55 360.93,-130.5 400.5,-112 426.43,-99.88 456.56,-87.78 478.88,-79.19"/>
<polygon fill="midnightblue" stroke="midnightblue" points="480.15,-82.45 488.24,-75.62 477.65,-75.91 480.15,-82.45"/>
</g>
<!-- Node14&#45;&gt;Node13 -->
<g id="edge17" class="edge">
<title>Node14&#45;&gt;Node13</title>
<path fill="none" stroke="midnightblue" d="M276.32,-168.14C272.91,-155.2 265.52,-130.64 254.5,-112 248.27,-101.45 239.45,-91.03 231.77,-82.87"/>
<polygon fill="midnightblue" stroke="midnightblue" points="234.11,-80.26 224.62,-75.55 229.1,-85.15 234.11,-80.26"/>
</g>
<!-- Node14&#45;&gt;Node15 -->
<g id="edge20" class="edge">
<title>Node14&#45;&gt;Node15</title>
<path fill="none" stroke="midnightblue" d="M286.59,-168.08C293.66,-160.3 304.09,-148.8 312.65,-139.37"/>
<polygon fill="midnightblue" stroke="midnightblue" points="315.43,-141.51 319.56,-131.75 310.25,-136.8 315.43,-141.51"/>
</g>
<!-- Node15&#45;&gt;Node3 -->
<g id="edge22" class="edge">
<title>Node15&#45;&gt;Node3</title>
<path fill="none" stroke="midnightblue" d="M306.38,-114.59C275.99,-105.37 219.61,-88.27 183.36,-77.27"/>
<polygon fill="midnightblue" stroke="midnightblue" points="184.3,-73.9 173.71,-74.35 182.27,-80.6 184.3,-73.9"/>
</g>
<!-- Node15&#45;&gt;Node5 -->
<g id="edge23" class="edge">
<title>Node15&#45;&gt;Node5</title>
<path fill="none" stroke="midnightblue" d="M348.61,-114.81C378.85,-105.93 435.02,-89.44 472.83,-78.35"/>
<polygon fill="midnightblue" stroke="midnightblue" points="473.89,-81.69 482.5,-75.51 471.92,-74.97 473.89,-81.69"/>
</g>
<!-- Node15&#45;&gt;Node6 -->
<g id="edge24" class="edge">
<title>Node15&#45;&gt;Node6</title>
<path fill="none" stroke="midnightblue" d="M348.92,-116.76C391.58,-108.32 488.22,-89.21 548.53,-77.28"/>
<polygon fill="midnightblue" stroke="midnightblue" points="549.49,-80.66 558.62,-75.28 548.13,-73.79 549.49,-80.66"/>
</g>
<!-- Node15&#45;&gt;Node7 -->
<g id="edge28" class="edge">
<title>Node15&#45;&gt;Node7</title>
<path fill="none" stroke="midnightblue" d="M306.37,-117.22C269.82,-110.54 192.31,-95.68 117.2,-75.95"/>
<polygon fill="midnightblue" stroke="midnightblue" points="117.66,-72.46 107.1,-73.27 115.86,-79.22 117.66,-72.46"/>
</g>
<!-- Node15&#45;&gt;Node13 -->
<g id="edge21" class="edge">
<title>Node15&#45;&gt;Node13</title>
<path fill="none" stroke="midnightblue" d="M309.51,-112.32C291.46,-103.62 263.45,-90.12 242.7,-80.11"/>
<polygon fill="midnightblue" stroke="midnightblue" points="243.98,-76.84 233.45,-75.65 240.94,-83.15 243.98,-76.84"/>
</g>
<!-- Node16 -->
<g id="node16" class="node">
<title>Node16</title>
<g id="a_node16"><a xlink:title=" ">
<polygon fill="none" stroke="#bfbfbf" points="322,-56.5 322,-75.5 381,-75.5 381,-56.5 322,-56.5"/>
<text text-anchor="middle" x="351.5" y="-63.5" font-family="Helvetica,sans-Serif" font-size="10.00">sys/stat.h</text>
</a>
</g>
</g>
<!-- Node15&#45;&gt;Node16 -->
<g id="edge25" class="edge">
<title>Node15&#45;&gt;Node16</title>
<path fill="none" stroke="midnightblue" d="M331.46,-112.08C334.71,-104.77 339.42,-94.18 343.45,-85.1"/>
<polygon fill="midnightblue" stroke="midnightblue" points="346.75,-86.31 347.61,-75.75 340.35,-83.47 346.75,-86.31"/>
</g>
<!-- Node17 -->
<g id="node17" class="node">
<title>Node17</title>
<g id="a_node17"><a xlink:title=" ">
<polygon fill="none" stroke="#bfbfbf" points="399,-56.5 399,-75.5 464,-75.5 464,-56.5 399,-56.5"/>
<text text-anchor="middle" x="431.5" y="-63.5" font-family="Helvetica,sans-Serif" font-size="10.00">sys/types.h</text>
</a>
</g>
</g>
<!-- Node15&#45;&gt;Node17 -->
<g id="edge26" class="edge">
<title>Node15&#45;&gt;Node17</title>
<path fill="none" stroke="midnightblue" d="M344.21,-112.32C360.81,-103.7 386.5,-90.36 405.72,-80.39"/>
<polygon fill="midnightblue" stroke="midnightblue" points="407.57,-83.37 414.83,-75.65 404.34,-77.16 407.57,-83.37"/>
</g>
<!-- Node18 -->
<g id="node18" class="node">
<title>Node18</title>
<g id="a_node18"><a xlink:title=" ">
<polygon fill="none" stroke="#bfbfbf" points="257.5,-56.5 257.5,-75.5 303.5,-75.5 303.5,-56.5 257.5,-56.5"/>
<text text-anchor="middle" x="280.5" y="-63.5" font-family="Helvetica,sans-Serif" font-size="10.00">errno.h</text>
</a>
</g>
</g>
<!-- Node15&#45;&gt;Node18 -->
<g id="edge27" class="edge">
<title>Node15&#45;&gt;Node18</title>
<path fill="none" stroke="midnightblue" d="M319.74,-112.08C312.96,-104.3 302.96,-92.8 294.74,-83.37"/>
<polygon fill="midnightblue" stroke="midnightblue" points="297.32,-81 288.12,-75.75 292.04,-85.59 297.32,-81"/>
</g>
</g>
</svg>
