<?xml version="1.0" encoding="UTF-8" standalone="no"?>
<!DOCTYPE svg PUBLIC "-//W3C//DTD SVG 1.1//EN"
 "http://www.w3.org/Graphics/SVG/1.1/DTD/svg11.dtd">
<!-- Generated by graphviz version 2.49.3 (20211027.1534)
 -->
<!-- Title: include/Ubidots/devices.h Pages: 1 -->
<svg width="751pt" height="308pt"
 viewBox="0.00 0.00 750.50 308.00" xmlns="http://www.w3.org/2000/svg" xmlns:xlink="http://www.w3.org/1999/xlink">
<g id="graph0" class="graph" transform="scale(1 1) rotate(0) translate(4 304)">
<title>include/Ubidots/devices.h</title>
<!-- Node1 -->
<g id="node1" class="node">
<title>Node1</title>
<g id="a_node1"><a xlink:title=" ">
<polygon fill="#bfbfbf" stroke="black" points="471.5,-280.5 471.5,-299.5 599.5,-299.5 599.5,-280.5 471.5,-280.5"/>
<text text-anchor="middle" x="535.5" y="-287.5" font-family="Helvetica,sans-Serif" font-size="10.00">include/Ubidots/devices.h</text>
</a>
</g>
</g>
<!-- Node2 -->
<g id="node2" class="node">
<title>Node2</title>
<g id="a_node2"><a xlink:title=" ">
<polygon fill="none" stroke="#bfbfbf" points="481.5,-56.5 481.5,-75.5 529.5,-75.5 529.5,-56.5 481.5,-56.5"/>
<text text-anchor="middle" x="505.5" y="-63.5" font-family="Helvetica,sans-Serif" font-size="10.00">string.h</text>
</a>
</g>
</g>
<!-- Node1&#45;&gt;Node2 -->
<g id="edge1" class="edge">
<title>Node1&#45;&gt;Node2</title>
<path fill="none" stroke="midnightblue" d="M536.31,-280.43C538.02,-260.56 541.36,-209.82 535.5,-168 531.91,-142.37 526.9,-136.8 519.5,-112 516.86,-103.17 513.84,-93.4 511.27,-85.22"/>
<polygon fill="midnightblue" stroke="midnightblue" points="514.59,-84.09 508.24,-75.61 507.91,-86.2 514.59,-84.09"/>
</g>
<!-- Node3 -->
<g id="node3" class="node">
<title>Node3</title>
<g id="a_node3"><a xlink:title=" ">
<polygon fill="none" stroke="#bfbfbf" points="696.5,-224.5 696.5,-243.5 742.5,-243.5 742.5,-224.5 696.5,-224.5"/>
<text text-anchor="middle" x="719.5" y="-231.5" font-family="Helvetica,sans-Serif" font-size="10.00">math.h</text>
</a>
</g>
</g>
<!-- Node1&#45;&gt;Node3 -->
<g id="edge2" class="edge">
<title>Node1&#45;&gt;Node3</title>
<path fill="none" stroke="midnightblue" d="M564.66,-280.44C597.86,-270.7 651.98,-254.82 686.65,-244.64"/>
<polygon fill="midnightblue" stroke="midnightblue" points="687.7,-247.98 696.31,-241.81 685.73,-241.26 687.7,-247.98"/>
</g>
<!-- Node4 -->
<g id="node4" class="node">
<title>Node4</title>
<g id="a_node4"><a xlink:title=" ">
<polygon fill="none" stroke="#bfbfbf" points="649,-56.5 649,-75.5 708,-75.5 708,-56.5 649,-56.5"/>
<text text-anchor="middle" x="678.5" y="-63.5" font-family="Helvetica,sans-Serif" font-size="10.00">curl/curl.h</text>
</a>
</g>
</g>
<!-- Node1&#45;&gt;Node4 -->
<g id="edge3" class="edge">
<title>Node1&#45;&gt;Node4</title>
<path fill="none" stroke="midnightblue" d="M542.28,-280.18C549.1,-271.21 559.82,-256.84 568.5,-244 607.24,-186.68 649.48,-116.24 668.38,-84.26"/>
<polygon fill="midnightblue" stroke="midnightblue" points="671.4,-86.01 673.46,-75.62 665.37,-82.46 671.4,-86.01"/>
</g>
<!-- Node5 -->
<g id="node5" class="node">
<title>Node5</title>
<g id="a_node5"><a xlink:title=" ">
<polygon fill="none" stroke="#bfbfbf" points="548,-56.5 548,-75.5 631,-75.5 631,-56.5 548,-56.5"/>
<text text-anchor="middle" x="589.5" y="-63.5" font-family="Helvetica,sans-Serif" font-size="10.00">cjson/cJSON.h</text>
</a>
</g>
</g>
<!-- Node1&#45;&gt;Node5 -->
<g id="edge4" class="edge">
<title>Node1&#45;&gt;Node5</title>
<path fill="none" stroke="midnightblue" d="M539.3,-280.17C543.05,-271.2 548.76,-256.83 552.5,-244 569.01,-187.36 581.22,-118.5 586.54,-85.88"/>
<polygon fill="midnightblue" stroke="midnightblue" points="590.07,-86.02 588.19,-75.59 583.15,-84.91 590.07,-86.02"/>
</g>
<!-- Node6 -->
<g id="node6" class="node">
<title>Node6</title>
<g id="a_node6"><a xlink:href="log_8h.html" target="_top" xlink:title=" ">
<polygon fill="none" stroke="black" points="70,-56.5 70,-75.5 107,-75.5 107,-56.5 70,-56.5"/>
<text text-anchor="middle" x="88.5" y="-63.5" font-family="Helvetica,sans-Serif" font-size="10.00">log.h</text>
</a>
</g>
</g>
<!-- Node1&#45;&gt;Node6 -->
<g id="edge5" class="edge">
<title>Node1&#45;&gt;Node6</title>
<path fill="none" stroke="midnightblue" d="M478.54,-280.44C440.87,-273.53 390.96,-261.95 349.5,-244 266.13,-207.9 253.34,-183.5 178.5,-132 153.94,-115.1 126.2,-94.89 108.09,-81.54"/>
<polygon fill="midnightblue" stroke="midnightblue" points="110.15,-78.71 100.03,-75.59 105.99,-84.34 110.15,-78.71"/>
</g>
<!-- Node11 -->
<g id="node11" class="node">
<title>Node11</title>
<g id="a_node11"><a xlink:href="_ubidots_2authenticate_8h.html" target="_top" xlink:title=" ">
<polygon fill="none" stroke="black" points="374.5,-224.5 374.5,-243.5 488.5,-243.5 488.5,-224.5 374.5,-224.5"/>
<text text-anchor="middle" x="431.5" y="-231.5" font-family="Helvetica,sans-Serif" font-size="10.00">Ubidots/authenticate.h</text>
</a>
</g>
</g>
<!-- Node1&#45;&gt;Node11 -->
<g id="edge10" class="edge">
<title>Node1&#45;&gt;Node11</title>
<path fill="none" stroke="midnightblue" d="M518.79,-280.32C502.19,-271.7 476.5,-258.36 457.28,-248.39"/>
<polygon fill="midnightblue" stroke="midnightblue" points="458.66,-245.16 448.17,-243.65 455.43,-251.37 458.66,-245.16"/>
</g>
<!-- Node13 -->
<g id="node13" class="node">
<title>Node13</title>
<g id="a_node13"><a xlink:href="http_8h.html" target="_top" xlink:title=" ">
<polygon fill="none" stroke="black" points="485,-168.5 485,-187.5 526,-187.5 526,-168.5 485,-168.5"/>
<text text-anchor="middle" x="505.5" y="-175.5" font-family="Helvetica,sans-Serif" font-size="10.00">http.h</text>
</a>
</g>
</g>
<!-- Node1&#45;&gt;Node13 -->
<g id="edge29" class="edge">
<title>Node1&#45;&gt;Node13</title>
<path fill="none" stroke="midnightblue" d="M533.15,-280.37C528.28,-262.54 517.04,-221.3 510.48,-197.27"/>
<polygon fill="midnightblue" stroke="midnightblue" points="513.85,-196.32 507.84,-187.59 507.1,-198.16 513.85,-196.32"/>
</g>
<!-- Node14 -->
<g id="node14" class="node">
<title>Node14</title>
<g id="a_node14"><a xlink:href="utils_8h.html" target="_top" xlink:title=" ">
<polygon fill="none" stroke="black" points="328.5,-112.5 328.5,-131.5 370.5,-131.5 370.5,-112.5 328.5,-112.5"/>
<text text-anchor="middle" x="349.5" y="-119.5" font-family="Helvetica,sans-Serif" font-size="10.00">utils.h</text>
</a>
</g>
</g>
<!-- Node1&#45;&gt;Node14 -->
<g id="edge30" class="edge">
<title>Node1&#45;&gt;Node14</title>
<path fill="none" stroke="midnightblue" d="M476.47,-280.48C433.45,-273.01 380.23,-260.73 365.5,-244 340.5,-215.6 342.59,-167.94 346.14,-141.71"/>
<polygon fill="midnightblue" stroke="midnightblue" points="349.64,-142.03 347.73,-131.61 342.72,-140.95 349.64,-142.03"/>
</g>
<!-- Node7 -->
<g id="node7" class="node">
<title>Node7</title>
<g id="a_node7"><a xlink:title=" ">
<polygon fill="none" stroke="#bfbfbf" points="0,-0.5 0,-19.5 45,-19.5 45,-0.5 0,-0.5"/>
<text text-anchor="middle" x="22.5" y="-7.5" font-family="Helvetica,sans-Serif" font-size="10.00">stdio.h</text>
</a>
</g>
</g>
<!-- Node6&#45;&gt;Node7 -->
<g id="edge6" class="edge">
<title>Node6&#45;&gt;Node7</title>
<path fill="none" stroke="midnightblue" d="M77.9,-56.32C68.04,-48.26 53.15,-36.08 41.28,-26.37"/>
<polygon fill="midnightblue" stroke="midnightblue" points="43.25,-23.46 33.3,-19.83 38.82,-28.88 43.25,-23.46"/>
</g>
<!-- Node8 -->
<g id="node8" class="node">
<title>Node8</title>
<g id="a_node8"><a xlink:title=" ">
<polygon fill="none" stroke="#bfbfbf" points="63,-0.5 63,-19.5 114,-19.5 114,-0.5 63,-0.5"/>
<text text-anchor="middle" x="88.5" y="-7.5" font-family="Helvetica,sans-Serif" font-size="10.00">stdarg.h</text>
</a>
</g>
</g>
<!-- Node6&#45;&gt;Node8 -->
<g id="edge7" class="edge">
<title>Node6&#45;&gt;Node8</title>
<path fill="none" stroke="midnightblue" d="M88.5,-56.08C88.5,-49.01 88.5,-38.86 88.5,-29.99"/>
<polygon fill="midnightblue" stroke="midnightblue" points="92,-29.75 88.5,-19.75 85,-29.75 92,-29.75"/>
</g>
<!-- Node9 -->
<g id="node9" class="node">
<title>Node9</title>
<g id="a_node9"><a xlink:title=" ">
<polygon fill="none" stroke="#bfbfbf" points="132.5,-0.5 132.5,-19.5 188.5,-19.5 188.5,-0.5 132.5,-0.5"/>
<text text-anchor="middle" x="160.5" y="-7.5" font-family="Helvetica,sans-Serif" font-size="10.00">stdbool.h</text>
</a>
</g>
</g>
<!-- Node6&#45;&gt;Node9 -->
<g id="edge8" class="edge">
<title>Node6&#45;&gt;Node9</title>
<path fill="none" stroke="midnightblue" d="M100.07,-56.32C110.92,-48.18 127.38,-35.84 140.38,-26.09"/>
<polygon fill="midnightblue" stroke="midnightblue" points="142.82,-28.63 148.72,-19.83 138.62,-23.03 142.82,-28.63"/>
</g>
<!-- Node10 -->
<g id="node10" class="node">
<title>Node10</title>
<g id="a_node10"><a xlink:title=" ">
<polygon fill="none" stroke="#bfbfbf" points="207,-0.5 207,-19.5 250,-19.5 250,-0.5 207,-0.5"/>
<text text-anchor="middle" x="228.5" y="-7.5" font-family="Helvetica,sans-Serif" font-size="10.00">time.h</text>
</a>
</g>
</g>
<!-- Node6&#45;&gt;Node10 -->
<g id="edge9" class="edge">
<title>Node6&#45;&gt;Node10</title>
<path fill="none" stroke="midnightblue" d="M107.09,-57.83C130.01,-48.99 169.32,-33.83 196.99,-23.15"/>
<polygon fill="midnightblue" stroke="midnightblue" points="198.53,-26.31 206.6,-19.45 196.01,-19.78 198.53,-26.31"/>
</g>
<!-- Node11&#45;&gt;Node2 -->
<g id="edge13" class="edge">
<title>Node11&#45;&gt;Node2</title>
<path fill="none" stroke="midnightblue" d="M435.48,-224.08C447.18,-197.83 481.63,-120.55 497.42,-85.12"/>
<polygon fill="midnightblue" stroke="midnightblue" points="500.81,-86.13 501.68,-75.57 494.41,-83.28 500.81,-86.13"/>
</g>
<!-- Node11&#45;&gt;Node6 -->
<g id="edge14" class="edge">
<title>Node11&#45;&gt;Node6</title>
<path fill="none" stroke="midnightblue" d="M413.54,-224.31C357.05,-196.97 182.72,-112.6 115.41,-80.02"/>
<polygon fill="midnightblue" stroke="midnightblue" points="116.81,-76.81 106.28,-75.61 113.76,-83.11 116.81,-76.81"/>
</g>
<!-- Node11&#45;&gt;Node7 -->
<g id="edge11" class="edge">
<title>Node11&#45;&gt;Node7</title>
<path fill="none" stroke="midnightblue" d="M387.38,-224.47C312.05,-207.9 157.38,-164.9 60.5,-76 46.24,-62.91 35.76,-43.22 29.46,-28.94"/>
<polygon fill="midnightblue" stroke="midnightblue" points="32.68,-27.57 25.62,-19.67 26.22,-30.25 32.68,-27.57"/>
</g>
<!-- Node12 -->
<g id="node12" class="node">
<title>Node12</title>
<g id="a_node12"><a xlink:title=" ">
<polygon fill="none" stroke="#bfbfbf" points="416,-56.5 416,-75.5 463,-75.5 463,-56.5 416,-56.5"/>
<text text-anchor="middle" x="439.5" y="-63.5" font-family="Helvetica,sans-Serif" font-size="10.00">stdlib.h</text>
</a>
</g>
</g>
<!-- Node11&#45;&gt;Node12 -->
<g id="edge12" class="edge">
<title>Node11&#45;&gt;Node12</title>
<path fill="none" stroke="midnightblue" d="M431.93,-224.08C433.19,-197.95 436.89,-121.21 438.6,-85.58"/>
<polygon fill="midnightblue" stroke="midnightblue" points="442.1,-85.73 439.09,-75.57 435.11,-85.39 442.1,-85.73"/>
</g>
<!-- Node11&#45;&gt;Node13 -->
<g id="edge15" class="edge">
<title>Node11&#45;&gt;Node13</title>
<path fill="none" stroke="midnightblue" d="M443.39,-224.32C454.65,-216.11 471.79,-203.6 485.21,-193.81"/>
<polygon fill="midnightblue" stroke="midnightblue" points="487.38,-196.56 493.39,-187.83 483.25,-190.9 487.38,-196.56"/>
</g>
<!-- Node13&#45;&gt;Node2 -->
<g id="edge17" class="edge">
<title>Node13&#45;&gt;Node2</title>
<path fill="none" stroke="midnightblue" d="M505.5,-168.37C505.5,-150.62 505.5,-109.67 505.5,-85.6"/>
<polygon fill="midnightblue" stroke="midnightblue" points="509,-85.59 505.5,-75.59 502,-85.59 509,-85.59"/>
</g>
<!-- Node13&#45;&gt;Node4 -->
<g id="edge18" class="edge">
<title>Node13&#45;&gt;Node4</title>
<path fill="none" stroke="midnightblue" d="M519.08,-168.37C548.76,-149.49 619.7,-104.38 656.11,-81.24"/>
<polygon fill="midnightblue" stroke="midnightblue" points="658.43,-83.91 664.99,-75.59 654.67,-78 658.43,-83.91"/>
</g>
<!-- Node13&#45;&gt;Node12 -->
<g id="edge16" class="edge">
<title>Node13&#45;&gt;Node12</title>
<path fill="none" stroke="midnightblue" d="M500.32,-168.37C489.48,-150.3 464.21,-108.18 449.88,-84.31"/>
<polygon fill="midnightblue" stroke="midnightblue" points="452.8,-82.37 444.65,-75.59 446.8,-85.97 452.8,-82.37"/>
</g>
<!-- Node13&#45;&gt;Node14 -->
<g id="edge19" class="edge">
<title>Node13&#45;&gt;Node14</title>
<path fill="none" stroke="midnightblue" d="M484.78,-169.83C458.05,-160.58 411.31,-144.4 380.38,-133.69"/>
<polygon fill="midnightblue" stroke="midnightblue" points="381.15,-130.25 370.55,-130.29 378.86,-136.87 381.15,-130.25"/>
</g>
<!-- Node14&#45;&gt;Node2 -->
<g id="edge21" class="edge">
<title>Node14&#45;&gt;Node2</title>
<path fill="none" stroke="midnightblue" d="M370.54,-113.72C396.58,-104.7 441.24,-89.24 472.02,-78.59"/>
<polygon fill="midnightblue" stroke="midnightblue" points="473.17,-81.89 481.48,-75.32 470.88,-75.28 473.17,-81.89"/>
</g>
<!-- Node14&#45;&gt;Node4 -->
<g id="edge22" class="edge">
<title>Node14&#45;&gt;Node4</title>
<path fill="none" stroke="midnightblue" d="M370.78,-118.3C417.53,-112.23 532.89,-96.6 638.79,-76.22"/>
<polygon fill="midnightblue" stroke="midnightblue" points="639.53,-79.64 648.68,-74.3 638.19,-72.77 639.53,-79.64"/>
</g>
<!-- Node14&#45;&gt;Node5 -->
<g id="edge24" class="edge">
<title>Node14&#45;&gt;Node5</title>
<path fill="none" stroke="midnightblue" d="M370.8,-116.21C408.87,-107.64 489.48,-89.51 541.48,-77.81"/>
<polygon fill="midnightblue" stroke="midnightblue" points="542.49,-81.17 551.48,-75.56 540.95,-74.34 542.49,-81.17"/>
</g>
<!-- Node14&#45;&gt;Node6 -->
<g id="edge28" class="edge">
<title>Node14&#45;&gt;Node6</title>
<path fill="none" stroke="midnightblue" d="M328.32,-117.89C288.58,-111.84 200.03,-97.42 117.11,-76.17"/>
<polygon fill="midnightblue" stroke="midnightblue" points="117.85,-72.75 107.29,-73.61 116.08,-79.52 117.85,-72.75"/>
</g>
<!-- Node14&#45;&gt;Node12 -->
<g id="edge20" class="edge">
<title>Node14&#45;&gt;Node12</title>
<path fill="none" stroke="midnightblue" d="M363.96,-112.32C378,-103.9 399.55,-90.97 416.04,-81.07"/>
<polygon fill="midnightblue" stroke="midnightblue" points="418.3,-83.8 425.08,-75.65 414.7,-77.8 418.3,-83.8"/>
</g>
<!-- Node15 -->
<g id="node15" class="node">
<title>Node15</title>
<g id="a_node15"><a xlink:title=" ">
<polygon fill="none" stroke="#bfbfbf" points="349.5,-56.5 349.5,-75.5 397.5,-75.5 397.5,-56.5 349.5,-56.5"/>
<text text-anchor="middle" x="373.5" y="-63.5" font-family="Helvetica,sans-Serif" font-size="10.00">stdint.h</text>
</a>
</g>
</g>
<!-- Node14&#45;&gt;Node15 -->
<g id="edge23" class="edge">
<title>Node14&#45;&gt;Node15</title>
<path fill="none" stroke="midnightblue" d="M353.46,-112.08C356.71,-104.77 361.42,-94.18 365.45,-85.1"/>
<polygon fill="midnightblue" stroke="midnightblue" points="368.75,-86.31 369.61,-75.75 362.35,-83.47 368.75,-86.31"/>
</g>
<!-- Node16 -->
<g id="node16" class="node">
<title>Node16</title>
<g id="a_node16"><a xlink:title=" ">
<polygon fill="none" stroke="#bfbfbf" points="125,-56.5 125,-75.5 184,-75.5 184,-56.5 125,-56.5"/>
<text text-anchor="middle" x="154.5" y="-63.5" font-family="Helvetica,sans-Serif" font-size="10.00">sys/stat.h</text>
</a>
</g>
</g>
<!-- Node14&#45;&gt;Node16 -->
<g id="edge25" class="edge">
<title>Node14&#45;&gt;Node16</title>
<path fill="none" stroke="midnightblue" d="M328.26,-115.12C296.14,-106.22 234.65,-89.2 194.11,-77.97"/>
<polygon fill="midnightblue" stroke="midnightblue" points="194.85,-74.54 184.28,-75.25 192.99,-81.29 194.85,-74.54"/>
</g>
<!-- Node17 -->
<g id="node17" class="node">
<title>Node17</title>
<g id="a_node17"><a xlink:title=" ">
<polygon fill="none" stroke="#bfbfbf" points="202,-56.5 202,-75.5 267,-75.5 267,-56.5 202,-56.5"/>
<text text-anchor="middle" x="234.5" y="-63.5" font-family="Helvetica,sans-Serif" font-size="10.00">sys/types.h</text>
</a>
</g>
</g>
<!-- Node14&#45;&gt;Node17 -->
<g id="edge26" class="edge">
<title>Node14&#45;&gt;Node17</title>
<path fill="none" stroke="midnightblue" d="M331.28,-112.44C312.6,-103.68 283.34,-89.94 261.88,-79.86"/>
<polygon fill="midnightblue" stroke="midnightblue" points="263.18,-76.6 252.64,-75.52 260.2,-82.93 263.18,-76.6"/>
</g>
<!-- Node18 -->
<g id="node18" class="node">
<title>Node18</title>
<g id="a_node18"><a xlink:title=" ">
<polygon fill="none" stroke="#bfbfbf" points="285.5,-56.5 285.5,-75.5 331.5,-75.5 331.5,-56.5 285.5,-56.5"/>
<text text-anchor="middle" x="308.5" y="-63.5" font-family="Helvetica,sans-Serif" font-size="10.00">errno.h</text>
</a>
</g>
</g>
<!-- Node14&#45;&gt;Node18 -->
<g id="edge27" class="edge">
<title>Node14&#45;&gt;Node18</title>
<path fill="none" stroke="midnightblue" d="M342.73,-112.08C336.94,-104.46 328.44,-93.26 321.36,-83.94"/>
<polygon fill="midnightblue" stroke="midnightblue" points="323.98,-81.6 315.14,-75.75 318.4,-85.83 323.98,-81.6"/>
</g>
</g>
</svg>
