<?xml version="1.0" encoding="UTF-8" standalone="no"?>
<!DOCTYPE svg PUBLIC "-//W3C//DTD SVG 1.1//EN"
 "http://www.w3.org/Graphics/SVG/1.1/DTD/svg11.dtd">
<!-- Generated by graphviz version 2.49.3 (20211027.1534)
 -->
<!-- Title: src/Ubidots/devices.c Pages: 1 -->
<svg width="828pt" height="364pt"
 viewBox="0.00 0.00 828.00 364.00" xmlns="http://www.w3.org/2000/svg" xmlns:xlink="http://www.w3.org/1999/xlink">
<g id="graph0" class="graph" transform="scale(1 1) rotate(0) translate(4 360)">
<title>src/Ubidots/devices.c</title>
<!-- Node1 -->
<g id="node1" class="node">
<title>Node1</title>
<g id="a_node1"><a xlink:title=" ">
<polygon fill="#bfbfbf" stroke="black" points="502,-336.5 502,-355.5 613,-355.5 613,-336.5 502,-336.5"/>
<text text-anchor="middle" x="557.5" y="-343.5" font-family="Helvetica,sans-Serif" font-size="10.00">src/Ubidots/devices.c</text>
</a>
</g>
</g>
<!-- Node2 -->
<g id="node2" class="node">
<title>Node2</title>
<g id="a_node2"><a xlink:href="devices_8h.html" target="_top" xlink:title=" ">
<polygon fill="none" stroke="black" points="510,-280.5 510,-299.5 605,-299.5 605,-280.5 510,-280.5"/>
<text text-anchor="middle" x="557.5" y="-287.5" font-family="Helvetica,sans-Serif" font-size="10.00">Ubidots/devices.h</text>
</a>
</g>
</g>
<!-- Node1&#45;&gt;Node2 -->
<g id="edge1" class="edge">
<title>Node1&#45;&gt;Node2</title>
<path fill="none" stroke="midnightblue" d="M557.5,-336.08C557.5,-329.01 557.5,-318.86 557.5,-309.99"/>
<polygon fill="midnightblue" stroke="midnightblue" points="561,-309.75 557.5,-299.75 554,-309.75 561,-309.75"/>
</g>
<!-- Node3 -->
<g id="node3" class="node">
<title>Node3</title>
<g id="a_node3"><a xlink:title=" ">
<polygon fill="none" stroke="#bfbfbf" points="134.5,-56.5 134.5,-75.5 182.5,-75.5 182.5,-56.5 134.5,-56.5"/>
<text text-anchor="middle" x="158.5" y="-63.5" font-family="Helvetica,sans-Serif" font-size="10.00">string.h</text>
</a>
</g>
</g>
<!-- Node2&#45;&gt;Node3 -->
<g id="edge2" class="edge">
<title>Node2&#45;&gt;Node3</title>
<path fill="none" stroke="midnightblue" d="M529.65,-280.38C504.88,-272.29 467.97,-259.18 437.5,-244 334.94,-192.92 222.58,-113.8 178.14,-81.49"/>
<polygon fill="midnightblue" stroke="midnightblue" points="180.09,-78.58 169.95,-75.5 175.96,-84.23 180.09,-78.58"/>
</g>
<!-- Node4 -->
<g id="node4" class="node">
<title>Node4</title>
<g id="a_node4"><a xlink:title=" ">
<polygon fill="none" stroke="#bfbfbf" points="595.5,-56.5 595.5,-75.5 641.5,-75.5 641.5,-56.5 595.5,-56.5"/>
<text text-anchor="middle" x="618.5" y="-63.5" font-family="Helvetica,sans-Serif" font-size="10.00">math.h</text>
</a>
</g>
</g>
<!-- Node2&#45;&gt;Node4 -->
<g id="edge3" class="edge">
<title>Node2&#45;&gt;Node4</title>
<path fill="none" stroke="midnightblue" d="M567.42,-280.45C576.36,-272.11 589.06,-258.6 595.5,-244 619.21,-190.23 620.41,-118.99 619.44,-85.67"/>
<polygon fill="midnightblue" stroke="midnightblue" points="622.94,-85.42 619.04,-75.56 615.94,-85.69 622.94,-85.42"/>
</g>
<!-- Node5 -->
<g id="node5" class="node">
<title>Node5</title>
<g id="a_node5"><a xlink:title=" ">
<polygon fill="none" stroke="#bfbfbf" points="761,-56.5 761,-75.5 820,-75.5 820,-56.5 761,-56.5"/>
<text text-anchor="middle" x="790.5" y="-63.5" font-family="Helvetica,sans-Serif" font-size="10.00">curl/curl.h</text>
</a>
</g>
</g>
<!-- Node2&#45;&gt;Node5 -->
<g id="edge4" class="edge">
<title>Node2&#45;&gt;Node5</title>
<path fill="none" stroke="midnightblue" d="M575.41,-280.42C591.48,-272.26 615.29,-259.03 633.5,-244 695.18,-193.1 753.85,-117.24 778.41,-83.83"/>
<polygon fill="midnightblue" stroke="midnightblue" points="781.36,-85.74 784.41,-75.59 775.7,-81.62 781.36,-85.74"/>
</g>
<!-- Node6 -->
<g id="node6" class="node">
<title>Node6</title>
<g id="a_node6"><a xlink:title=" ">
<polygon fill="none" stroke="#bfbfbf" points="660,-56.5 660,-75.5 743,-75.5 743,-56.5 660,-56.5"/>
<text text-anchor="middle" x="701.5" y="-63.5" font-family="Helvetica,sans-Serif" font-size="10.00">cjson/cJSON.h</text>
</a>
</g>
</g>
<!-- Node2&#45;&gt;Node6 -->
<g id="edge5" class="edge">
<title>Node2&#45;&gt;Node6</title>
<path fill="none" stroke="midnightblue" d="M571.08,-280.32C583.13,-272.1 600.62,-258.83 612.5,-244 653.64,-192.65 682.99,-119.21 695.2,-85.36"/>
<polygon fill="midnightblue" stroke="midnightblue" points="698.53,-86.44 698.56,-75.85 691.93,-84.11 698.53,-86.44"/>
</g>
<!-- Node7 -->
<g id="node7" class="node">
<title>Node7</title>
<g id="a_node7"><a xlink:href="log_8h.html" target="_top" xlink:title=" ">
<polygon fill="none" stroke="black" points="79,-56.5 79,-75.5 116,-75.5 116,-56.5 79,-56.5"/>
<text text-anchor="middle" x="97.5" y="-63.5" font-family="Helvetica,sans-Serif" font-size="10.00">log.h</text>
</a>
</g>
</g>
<!-- Node2&#45;&gt;Node7 -->
<g id="edge6" class="edge">
<title>Node2&#45;&gt;Node7</title>
<path fill="none" stroke="midnightblue" d="M516.66,-280.48C483.95,-272.94 437.28,-260.57 398.5,-244 286.65,-196.22 165.25,-114.62 117.96,-81.56"/>
<polygon fill="midnightblue" stroke="midnightblue" points="119.71,-78.51 109.51,-75.61 115.68,-84.23 119.71,-78.51"/>
</g>
<!-- Node12 -->
<g id="node12" class="node">
<title>Node12</title>
<g id="a_node12"><a xlink:href="_ubidots_2authenticate_8h.html" target="_top" xlink:title=" ">
<polygon fill="none" stroke="black" points="458.5,-224.5 458.5,-243.5 572.5,-243.5 572.5,-224.5 458.5,-224.5"/>
<text text-anchor="middle" x="515.5" y="-231.5" font-family="Helvetica,sans-Serif" font-size="10.00">Ubidots/authenticate.h</text>
</a>
</g>
</g>
<!-- Node2&#45;&gt;Node12 -->
<g id="edge11" class="edge">
<title>Node2&#45;&gt;Node12</title>
<path fill="none" stroke="midnightblue" d="M550.56,-280.08C544.57,-272.38 535.75,-261.03 528.45,-251.65"/>
<polygon fill="midnightblue" stroke="midnightblue" points="531.21,-249.5 522.31,-243.75 525.68,-253.79 531.21,-249.5"/>
</g>
<!-- Node14 -->
<g id="node14" class="node">
<title>Node14</title>
<g id="a_node14"><a xlink:href="http_8h.html" target="_top" xlink:title=" ">
<polygon fill="none" stroke="black" points="530,-168.5 530,-187.5 571,-187.5 571,-168.5 530,-168.5"/>
<text text-anchor="middle" x="550.5" y="-175.5" font-family="Helvetica,sans-Serif" font-size="10.00">http.h</text>
</a>
</g>
</g>
<!-- Node2&#45;&gt;Node14 -->
<g id="edge31" class="edge">
<title>Node2&#45;&gt;Node14</title>
<path fill="none" stroke="midnightblue" d="M564.6,-280.27C573.77,-267.88 587.86,-244.45 581.5,-224 578.27,-213.62 571.72,-203.52 565.48,-195.53"/>
<polygon fill="midnightblue" stroke="midnightblue" points="568.08,-193.19 558.98,-187.77 562.71,-197.68 568.08,-193.19"/>
</g>
<!-- Node15 -->
<g id="node15" class="node">
<title>Node15</title>
<g id="a_node15"><a xlink:href="utils_8h.html" target="_top" xlink:title=" ">
<polygon fill="none" stroke="black" points="427.5,-112.5 427.5,-131.5 469.5,-131.5 469.5,-112.5 427.5,-112.5"/>
<text text-anchor="middle" x="448.5" y="-119.5" font-family="Helvetica,sans-Serif" font-size="10.00">utils.h</text>
</a>
</g>
</g>
<!-- Node2&#45;&gt;Node15 -->
<g id="edge32" class="edge">
<title>Node2&#45;&gt;Node15</title>
<path fill="none" stroke="midnightblue" d="M509.96,-281.52C487.69,-275.38 463.1,-264.23 449.5,-244 428.66,-213.02 436.27,-166.75 442.88,-141.34"/>
<polygon fill="midnightblue" stroke="midnightblue" points="446.29,-142.12 445.65,-131.55 439.56,-140.22 446.29,-142.12"/>
</g>
<!-- Node8 -->
<g id="node8" class="node">
<title>Node8</title>
<g id="a_node8"><a xlink:title=" ">
<polygon fill="none" stroke="#bfbfbf" points="342,-0.5 342,-19.5 387,-19.5 387,-0.5 342,-0.5"/>
<text text-anchor="middle" x="364.5" y="-7.5" font-family="Helvetica,sans-Serif" font-size="10.00">stdio.h</text>
</a>
</g>
</g>
<!-- Node7&#45;&gt;Node8 -->
<g id="edge7" class="edge">
<title>Node7&#45;&gt;Node8</title>
<path fill="none" stroke="midnightblue" d="M116.08,-58.67C119.21,-57.71 122.43,-56.78 125.5,-56 198.4,-37.5 285.56,-22.96 331.84,-15.82"/>
<polygon fill="midnightblue" stroke="midnightblue" points="332.53,-19.26 341.89,-14.29 331.48,-12.34 332.53,-19.26"/>
</g>
<!-- Node9 -->
<g id="node9" class="node">
<title>Node9</title>
<g id="a_node9"><a xlink:title=" ">
<polygon fill="none" stroke="#bfbfbf" points="0,-0.5 0,-19.5 51,-19.5 51,-0.5 0,-0.5"/>
<text text-anchor="middle" x="25.5" y="-7.5" font-family="Helvetica,sans-Serif" font-size="10.00">stdarg.h</text>
</a>
</g>
</g>
<!-- Node7&#45;&gt;Node9 -->
<g id="edge8" class="edge">
<title>Node7&#45;&gt;Node9</title>
<path fill="none" stroke="midnightblue" d="M85.93,-56.32C75.08,-48.18 58.62,-35.84 45.62,-26.09"/>
<polygon fill="midnightblue" stroke="midnightblue" points="47.38,-23.03 37.28,-19.83 43.18,-28.63 47.38,-23.03"/>
</g>
<!-- Node10 -->
<g id="node10" class="node">
<title>Node10</title>
<g id="a_node10"><a xlink:title=" ">
<polygon fill="none" stroke="#bfbfbf" points="69.5,-0.5 69.5,-19.5 125.5,-19.5 125.5,-0.5 69.5,-0.5"/>
<text text-anchor="middle" x="97.5" y="-7.5" font-family="Helvetica,sans-Serif" font-size="10.00">stdbool.h</text>
</a>
</g>
</g>
<!-- Node7&#45;&gt;Node10 -->
<g id="edge9" class="edge">
<title>Node7&#45;&gt;Node10</title>
<path fill="none" stroke="midnightblue" d="M97.5,-56.08C97.5,-49.01 97.5,-38.86 97.5,-29.99"/>
<polygon fill="midnightblue" stroke="midnightblue" points="101,-29.75 97.5,-19.75 94,-29.75 101,-29.75"/>
</g>
<!-- Node11 -->
<g id="node11" class="node">
<title>Node11</title>
<g id="a_node11"><a xlink:title=" ">
<polygon fill="none" stroke="#bfbfbf" points="144,-0.5 144,-19.5 187,-19.5 187,-0.5 144,-0.5"/>
<text text-anchor="middle" x="165.5" y="-7.5" font-family="Helvetica,sans-Serif" font-size="10.00">time.h</text>
</a>
</g>
</g>
<!-- Node7&#45;&gt;Node11 -->
<g id="edge10" class="edge">
<title>Node7&#45;&gt;Node11</title>
<path fill="none" stroke="midnightblue" d="M108.43,-56.32C118.67,-48.18 134.22,-35.84 146.5,-26.09"/>
<polygon fill="midnightblue" stroke="midnightblue" points="148.72,-28.79 154.38,-19.83 144.37,-23.31 148.72,-28.79"/>
</g>
<!-- Node12&#45;&gt;Node3 -->
<g id="edge14" class="edge">
<title>Node12&#45;&gt;Node3</title>
<path fill="none" stroke="midnightblue" d="M502.7,-224.3C470.59,-202.78 383.51,-146.32 304.5,-112 284.32,-103.23 228.98,-86.93 192.52,-76.54"/>
<polygon fill="midnightblue" stroke="midnightblue" points="193.36,-73.14 182.79,-73.78 191.45,-79.87 193.36,-73.14"/>
</g>
<!-- Node12&#45;&gt;Node7 -->
<g id="edge15" class="edge">
<title>Node12&#45;&gt;Node7</title>
<path fill="none" stroke="midnightblue" d="M493.91,-224.42C424.15,-196.72 204.81,-109.61 126.03,-78.33"/>
<polygon fill="midnightblue" stroke="midnightblue" points="126.88,-74.9 116.29,-74.46 124.29,-81.41 126.88,-74.9"/>
</g>
<!-- Node12&#45;&gt;Node8 -->
<g id="edge12" class="edge">
<title>Node12&#45;&gt;Node8</title>
<path fill="none" stroke="midnightblue" d="M516.59,-224.42C519.62,-196.54 525.36,-107.36 482.5,-56 461.42,-30.74 424.5,-19.63 397.56,-14.76"/>
<polygon fill="midnightblue" stroke="midnightblue" points="397.85,-11.26 387.42,-13.13 396.74,-18.17 397.85,-11.26"/>
</g>
<!-- Node13 -->
<g id="node13" class="node">
<title>Node13</title>
<g id="a_node13"><a xlink:title=" ">
<polygon fill="none" stroke="#bfbfbf" points="530,-56.5 530,-75.5 577,-75.5 577,-56.5 530,-56.5"/>
<text text-anchor="middle" x="553.5" y="-63.5" font-family="Helvetica,sans-Serif" font-size="10.00">stdlib.h</text>
</a>
</g>
</g>
<!-- Node12&#45;&gt;Node13 -->
<g id="edge13" class="edge">
<title>Node12&#45;&gt;Node13</title>
<path fill="none" stroke="midnightblue" d="M537.31,-224.45C552.44,-217.22 571.45,-205.26 580.5,-188 598.23,-154.15 578.39,-109.06 564.55,-84.59"/>
<polygon fill="midnightblue" stroke="midnightblue" points="567.41,-82.55 559.29,-75.74 561.39,-86.12 567.41,-82.55"/>
</g>
<!-- Node12&#45;&gt;Node14 -->
<g id="edge16" class="edge">
<title>Node12&#45;&gt;Node14</title>
<path fill="none" stroke="midnightblue" d="M521.28,-224.08C526.17,-216.53 533.33,-205.49 539.33,-196.23"/>
<polygon fill="midnightblue" stroke="midnightblue" points="542.33,-198.05 544.83,-187.75 536.45,-194.24 542.33,-198.05"/>
</g>
<!-- Node14&#45;&gt;Node3 -->
<g id="edge18" class="edge">
<title>Node14&#45;&gt;Node3</title>
<path fill="none" stroke="midnightblue" d="M529.9,-170.04C503.91,-161.25 457.86,-145.61 418.5,-132 393.13,-123.22 387.35,-119.24 361.5,-112 290.18,-92.03 268.34,-93.96 192.63,-76.15"/>
<polygon fill="midnightblue" stroke="midnightblue" points="193.15,-72.67 182.61,-73.75 191.52,-79.48 193.15,-72.67"/>
</g>
<!-- Node14&#45;&gt;Node5 -->
<g id="edge19" class="edge">
<title>Node14&#45;&gt;Node5</title>
<path fill="none" stroke="midnightblue" d="M569.33,-168.37C611.39,-149.09 713.15,-102.45 762.6,-79.79"/>
<polygon fill="midnightblue" stroke="midnightblue" points="764.12,-82.94 771.76,-75.59 761.21,-76.58 764.12,-82.94"/>
</g>
<!-- Node14&#45;&gt;Node13 -->
<g id="edge17" class="edge">
<title>Node14&#45;&gt;Node13</title>
<path fill="none" stroke="midnightblue" d="M550.74,-168.37C551.22,-150.62 552.34,-109.67 552.99,-85.6"/>
<polygon fill="midnightblue" stroke="midnightblue" points="556.49,-85.68 553.27,-75.59 549.49,-85.49 556.49,-85.68"/>
</g>
<!-- Node14&#45;&gt;Node15 -->
<g id="edge20" class="edge">
<title>Node14&#45;&gt;Node15</title>
<path fill="none" stroke="midnightblue" d="M534.11,-168.32C517.83,-159.7 492.63,-146.36 473.78,-136.39"/>
<polygon fill="midnightblue" stroke="midnightblue" points="475.32,-133.24 464.85,-131.65 472.05,-139.43 475.32,-133.24"/>
</g>
<!-- Node15&#45;&gt;Node3 -->
<g id="edge22" class="edge">
<title>Node15&#45;&gt;Node3</title>
<path fill="none" stroke="midnightblue" d="M427.37,-116.01C421.3,-114.64 414.65,-113.2 408.5,-112 315.64,-93.87 288.72,-96.68 192.44,-76.02"/>
<polygon fill="midnightblue" stroke="midnightblue" points="193.1,-72.58 182.58,-73.87 191.61,-79.42 193.1,-72.58"/>
</g>
<!-- Node15&#45;&gt;Node4 -->
<g id="edge29" class="edge">
<title>Node15&#45;&gt;Node4</title>
<path fill="none" stroke="midnightblue" d="M469.69,-114.27C498.85,-105.01 551.63,-88.24 585.86,-77.37"/>
<polygon fill="midnightblue" stroke="midnightblue" points="586.94,-80.7 595.41,-74.33 584.82,-74.03 586.94,-80.7"/>
</g>
<!-- Node15&#45;&gt;Node5 -->
<g id="edge23" class="edge">
<title>Node15&#45;&gt;Node5</title>
<path fill="none" stroke="midnightblue" d="M469.61,-118.51C517.75,-112.69 639.51,-97.22 750.65,-76.23"/>
<polygon fill="midnightblue" stroke="midnightblue" points="751.52,-79.63 760.68,-74.32 750.2,-72.75 751.52,-79.63"/>
</g>
<!-- Node15&#45;&gt;Node6 -->
<g id="edge25" class="edge">
<title>Node15&#45;&gt;Node6</title>
<path fill="none" stroke="midnightblue" d="M469.64,-116.49C509.33,-108.02 595.99,-89.52 651.39,-77.69"/>
<polygon fill="midnightblue" stroke="midnightblue" points="652.31,-81.08 661.36,-75.57 650.85,-74.23 652.31,-81.08"/>
</g>
<!-- Node15&#45;&gt;Node7 -->
<g id="edge30" class="edge">
<title>Node15&#45;&gt;Node7</title>
<path fill="none" stroke="midnightblue" d="M427.49,-119.34C377.09,-115.09 245.3,-102.39 126.07,-75.74"/>
<polygon fill="midnightblue" stroke="midnightblue" points="126.58,-72.26 116.05,-73.46 125.03,-79.09 126.58,-72.26"/>
</g>
<!-- Node15&#45;&gt;Node13 -->
<g id="edge21" class="edge">
<title>Node15&#45;&gt;Node13</title>
<path fill="none" stroke="midnightblue" d="M465.37,-112.32C482.21,-103.66 508.31,-90.24 527.74,-80.25"/>
<polygon fill="midnightblue" stroke="midnightblue" points="529.38,-83.34 536.67,-75.65 526.18,-77.12 529.38,-83.34"/>
</g>
<!-- Node16 -->
<g id="node16" class="node">
<title>Node16</title>
<g id="a_node16"><a xlink:title=" ">
<polygon fill="none" stroke="#bfbfbf" points="200.5,-56.5 200.5,-75.5 248.5,-75.5 248.5,-56.5 200.5,-56.5"/>
<text text-anchor="middle" x="224.5" y="-63.5" font-family="Helvetica,sans-Serif" font-size="10.00">stdint.h</text>
</a>
</g>
</g>
<!-- Node15&#45;&gt;Node16 -->
<g id="edge24" class="edge">
<title>Node15&#45;&gt;Node16</title>
<path fill="none" stroke="midnightblue" d="M427.24,-116.25C393.57,-108.66 325.68,-93.15 258.52,-76.19"/>
<polygon fill="midnightblue" stroke="midnightblue" points="259.18,-72.75 248.62,-73.68 257.46,-79.54 259.18,-72.75"/>
</g>
<!-- Node17 -->
<g id="node17" class="node">
<title>Node17</title>
<g id="a_node17"><a xlink:title=" ">
<polygon fill="none" stroke="#bfbfbf" points="267,-56.5 267,-75.5 326,-75.5 326,-56.5 267,-56.5"/>
<text text-anchor="middle" x="296.5" y="-63.5" font-family="Helvetica,sans-Serif" font-size="10.00">sys/stat.h</text>
</a>
</g>
</g>
<!-- Node15&#45;&gt;Node17 -->
<g id="edge26" class="edge">
<title>Node15&#45;&gt;Node17</title>
<path fill="none" stroke="midnightblue" d="M427.37,-113.49C402.15,-104.53 359.7,-89.45 330,-78.9"/>
<polygon fill="midnightblue" stroke="midnightblue" points="331.05,-75.56 320.46,-75.51 328.71,-82.16 331.05,-75.56"/>
</g>
<!-- Node18 -->
<g id="node18" class="node">
<title>Node18</title>
<g id="a_node18"><a xlink:title=" ">
<polygon fill="none" stroke="#bfbfbf" points="344,-56.5 344,-75.5 409,-75.5 409,-56.5 344,-56.5"/>
<text text-anchor="middle" x="376.5" y="-63.5" font-family="Helvetica,sans-Serif" font-size="10.00">sys/types.h</text>
</a>
</g>
</g>
<!-- Node15&#45;&gt;Node18 -->
<g id="edge27" class="edge">
<title>Node15&#45;&gt;Node18</title>
<path fill="none" stroke="midnightblue" d="M436.93,-112.32C426.08,-104.18 409.62,-91.84 396.62,-82.09"/>
<polygon fill="midnightblue" stroke="midnightblue" points="398.38,-79.03 388.28,-75.83 394.18,-84.63 398.38,-79.03"/>
</g>
<!-- Node19 -->
<g id="node19" class="node">
<title>Node19</title>
<g id="a_node19"><a xlink:title=" ">
<polygon fill="none" stroke="#bfbfbf" points="427.5,-56.5 427.5,-75.5 473.5,-75.5 473.5,-56.5 427.5,-56.5"/>
<text text-anchor="middle" x="450.5" y="-63.5" font-family="Helvetica,sans-Serif" font-size="10.00">errno.h</text>
</a>
</g>
</g>
<!-- Node15&#45;&gt;Node19 -->
<g id="edge28" class="edge">
<title>Node15&#45;&gt;Node19</title>
<path fill="none" stroke="midnightblue" d="M448.83,-112.08C449.09,-105.01 449.47,-94.86 449.8,-85.99"/>
<polygon fill="midnightblue" stroke="midnightblue" points="453.3,-85.87 450.18,-75.75 446.31,-85.61 453.3,-85.87"/>
</g>
</g>
</svg>
