<?xml version="1.0" encoding="UTF-8" standalone="no"?>
<!DOCTYPE svg PUBLIC "-//W3C//DTD SVG 1.1//EN"
 "http://www.w3.org/Graphics/SVG/1.1/DTD/svg11.dtd">
<!-- Generated by graphviz version 2.49.3 (20211027.1534)
 -->
<!-- Title: src/Ubidots/devices.c Pages: 1 -->
<svg width="630pt" height="252pt"
 viewBox="0.00 0.00 630.00 252.00" xmlns="http://www.w3.org/2000/svg" xmlns:xlink="http://www.w3.org/1999/xlink">
<g id="graph0" class="graph" transform="scale(1 1) rotate(0) translate(4 248)">
<title>src/Ubidots/devices.c</title>
<!-- Node1 -->
<g id="node1" class="node">
<title>Node1</title>
<g id="a_node1"><a xlink:title=" ">
<polygon fill="#bfbfbf" stroke="black" points="207,-224.5 207,-243.5 318,-243.5 318,-224.5 207,-224.5"/>
<text text-anchor="middle" x="262.5" y="-231.5" font-family="Helvetica,sans-Serif" font-size="10.00">src/Ubidots/devices.c</text>
</a>
</g>
</g>
<!-- Node2 -->
<g id="node2" class="node">
<title>Node2</title>
<g id="a_node2"><a xlink:href="devices_8h.html" target="_top" xlink:title=" ">
<polygon fill="none" stroke="black" points="215,-168.5 215,-187.5 310,-187.5 310,-168.5 215,-168.5"/>
<text text-anchor="middle" x="262.5" y="-175.5" font-family="Helvetica,sans-Serif" font-size="10.00">Ubidots/devices.h</text>
</a>
</g>
</g>
<!-- Node1&#45;&gt;Node2 -->
<g id="edge1" class="edge">
<title>Node1&#45;&gt;Node2</title>
<path fill="none" stroke="midnightblue" d="M262.5,-224.08C262.5,-217.01 262.5,-206.86 262.5,-197.99"/>
<polygon fill="midnightblue" stroke="midnightblue" points="266,-197.75 262.5,-187.75 259,-197.75 266,-197.75"/>
</g>
<!-- Node3 -->
<g id="node3" class="node">
<title>Node3</title>
<g id="a_node3"><a xlink:title=" ">
<polygon fill="none" stroke="#bfbfbf" points="50.5,-56.5 50.5,-75.5 98.5,-75.5 98.5,-56.5 50.5,-56.5"/>
<text text-anchor="middle" x="74.5" y="-63.5" font-family="Helvetica,sans-Serif" font-size="10.00">string.h</text>
</a>
</g>
</g>
<!-- Node2&#45;&gt;Node3 -->
<g id="edge2" class="edge">
<title>Node2&#45;&gt;Node3</title>
<path fill="none" stroke="midnightblue" d="M214.83,-172.32C164.72,-166.29 90.8,-153.9 73.5,-132 63.24,-119.01 65.06,-99.58 68.49,-85.35"/>
<polygon fill="midnightblue" stroke="midnightblue" points="71.88,-86.24 71.25,-75.67 65.14,-84.32 71.88,-86.24"/>
</g>
<!-- Node4 -->
<g id="node4" class="node">
<title>Node4</title>
<g id="a_node4"><a xlink:title=" ">
<polygon fill="none" stroke="#bfbfbf" points="388.5,-112.5 388.5,-131.5 434.5,-131.5 434.5,-112.5 388.5,-112.5"/>
<text text-anchor="middle" x="411.5" y="-119.5" font-family="Helvetica,sans-Serif" font-size="10.00">math.h</text>
</a>
</g>
</g>
<!-- Node2&#45;&gt;Node4 -->
<g id="edge3" class="edge">
<title>Node2&#45;&gt;Node4</title>
<path fill="none" stroke="midnightblue" d="M286.11,-168.44C311.1,-159.39 350.74,-145.02 378.75,-134.87"/>
<polygon fill="midnightblue" stroke="midnightblue" points="380.28,-138.04 388.49,-131.34 377.9,-131.46 380.28,-138.04"/>
</g>
<!-- Node5 -->
<g id="node5" class="node">
<title>Node5</title>
<g id="a_node5"><a xlink:title=" ">
<polygon fill="none" stroke="#bfbfbf" points="237,-56.5 237,-75.5 296,-75.5 296,-56.5 237,-56.5"/>
<text text-anchor="middle" x="266.5" y="-63.5" font-family="Helvetica,sans-Serif" font-size="10.00">curl/curl.h</text>
</a>
</g>
</g>
<!-- Node2&#45;&gt;Node5 -->
<g id="edge4" class="edge">
<title>Node2&#45;&gt;Node5</title>
<path fill="none" stroke="midnightblue" d="M262.81,-168.37C263.46,-150.62 264.95,-109.67 265.82,-85.6"/>
<polygon fill="midnightblue" stroke="midnightblue" points="269.32,-85.71 266.19,-75.59 262.33,-85.46 269.32,-85.71"/>
</g>
<!-- Node6 -->
<g id="node6" class="node">
<title>Node6</title>
<g id="a_node6"><a xlink:title=" ">
<polygon fill="none" stroke="#bfbfbf" points="539,-56.5 539,-75.5 622,-75.5 622,-56.5 539,-56.5"/>
<text text-anchor="middle" x="580.5" y="-63.5" font-family="Helvetica,sans-Serif" font-size="10.00">cjson/cJSON.h</text>
</a>
</g>
</g>
<!-- Node2&#45;&gt;Node6 -->
<g id="edge5" class="edge">
<title>Node2&#45;&gt;Node6</title>
<path fill="none" stroke="midnightblue" d="M277.46,-168.37C306.57,-151.63 368.91,-116.03 379.5,-112 406.31,-101.8 478.47,-86.71 528.6,-76.86"/>
<polygon fill="midnightblue" stroke="midnightblue" points="529.48,-80.26 538.63,-74.91 528.14,-73.39 529.48,-80.26"/>
</g>
<!-- Node7 -->
<g id="node7" class="node">
<title>Node7</title>
<g id="a_node7"><a xlink:href="log_8h.html" target="_top" xlink:title=" ">
<polygon fill="none" stroke="black" points="117,-56.5 117,-75.5 154,-75.5 154,-56.5 117,-56.5"/>
<text text-anchor="middle" x="135.5" y="-63.5" font-family="Helvetica,sans-Serif" font-size="10.00">log.h</text>
</a>
</g>
</g>
<!-- Node2&#45;&gt;Node7 -->
<g id="edge6" class="edge">
<title>Node2&#45;&gt;Node7</title>
<path fill="none" stroke="midnightblue" d="M256.15,-168.32C246.27,-155.16 226.2,-129.83 205.5,-112 191.63,-100.05 174.33,-88.9 160.4,-80.69"/>
<polygon fill="midnightblue" stroke="midnightblue" points="161.8,-77.45 151.38,-75.5 158.31,-83.52 161.8,-77.45"/>
</g>
<!-- Node12 -->
<g id="node12" class="node">
<title>Node12</title>
<g id="a_node12"><a xlink:href="_ubidots_2authenticate_8h.html" target="_top" xlink:title=" ">
<polygon fill="none" stroke="black" points="82.5,-112.5 82.5,-131.5 196.5,-131.5 196.5,-112.5 82.5,-112.5"/>
<text text-anchor="middle" x="139.5" y="-119.5" font-family="Helvetica,sans-Serif" font-size="10.00">Ubidots/authenticate.h</text>
</a>
</g>
</g>
<!-- Node2&#45;&gt;Node12 -->
<g id="edge11" class="edge">
<title>Node2&#45;&gt;Node12</title>
<path fill="none" stroke="midnightblue" d="M243.01,-168.44C222.86,-159.6 191.18,-145.69 168.17,-135.59"/>
<polygon fill="midnightblue" stroke="midnightblue" points="169.46,-132.33 158.9,-131.52 166.65,-138.74 169.46,-132.33"/>
</g>
<!-- Node14 -->
<g id="node14" class="node">
<title>Node14</title>
<g id="a_node14"><a xlink:href="utils_8h.html" target="_top" xlink:title=" ">
<polygon fill="none" stroke="black" points="290.5,-112.5 290.5,-131.5 332.5,-131.5 332.5,-112.5 290.5,-112.5"/>
<text text-anchor="middle" x="311.5" y="-119.5" font-family="Helvetica,sans-Serif" font-size="10.00">utils.h</text>
</a>
</g>
</g>
<!-- Node2&#45;&gt;Node14 -->
<g id="edge16" class="edge">
<title>Node2&#45;&gt;Node14</title>
<path fill="none" stroke="midnightblue" d="M270.59,-168.08C277.66,-160.3 288.09,-148.8 296.65,-139.37"/>
<polygon fill="midnightblue" stroke="midnightblue" points="299.43,-141.51 303.56,-131.75 294.25,-136.8 299.43,-141.51"/>
</g>
<!-- Node8 -->
<g id="node8" class="node">
<title>Node8</title>
<g id="a_node8"><a xlink:title=" ">
<polygon fill="none" stroke="#bfbfbf" points="0,-0.5 0,-19.5 45,-19.5 45,-0.5 0,-0.5"/>
<text text-anchor="middle" x="22.5" y="-7.5" font-family="Helvetica,sans-Serif" font-size="10.00">stdio.h</text>
</a>
</g>
</g>
<!-- Node7&#45;&gt;Node8 -->
<g id="edge7" class="edge">
<title>Node7&#45;&gt;Node8</title>
<path fill="none" stroke="midnightblue" d="M117.59,-56.44C99.25,-47.68 70.49,-33.94 49.41,-23.86"/>
<polygon fill="midnightblue" stroke="midnightblue" points="50.85,-20.67 40.32,-19.52 47.83,-26.99 50.85,-20.67"/>
</g>
<!-- Node9 -->
<g id="node9" class="node">
<title>Node9</title>
<g id="a_node9"><a xlink:title=" ">
<polygon fill="none" stroke="#bfbfbf" points="63,-0.5 63,-19.5 114,-19.5 114,-0.5 63,-0.5"/>
<text text-anchor="middle" x="88.5" y="-7.5" font-family="Helvetica,sans-Serif" font-size="10.00">stdarg.h</text>
</a>
</g>
</g>
<!-- Node7&#45;&gt;Node9 -->
<g id="edge8" class="edge">
<title>Node7&#45;&gt;Node9</title>
<path fill="none" stroke="midnightblue" d="M127.74,-56.08C120.96,-48.3 110.96,-36.8 102.74,-27.37"/>
<polygon fill="midnightblue" stroke="midnightblue" points="105.32,-25 96.12,-19.75 100.04,-29.59 105.32,-25"/>
</g>
<!-- Node10 -->
<g id="node10" class="node">
<title>Node10</title>
<g id="a_node10"><a xlink:title=" ">
<polygon fill="none" stroke="#bfbfbf" points="132.5,-0.5 132.5,-19.5 188.5,-19.5 188.5,-0.5 132.5,-0.5"/>
<text text-anchor="middle" x="160.5" y="-7.5" font-family="Helvetica,sans-Serif" font-size="10.00">stdbool.h</text>
</a>
</g>
</g>
<!-- Node7&#45;&gt;Node10 -->
<g id="edge9" class="edge">
<title>Node7&#45;&gt;Node10</title>
<path fill="none" stroke="midnightblue" d="M139.63,-56.08C143.01,-48.77 147.92,-38.18 152.12,-29.1"/>
<polygon fill="midnightblue" stroke="midnightblue" points="155.42,-30.3 156.45,-19.75 149.07,-27.36 155.42,-30.3"/>
</g>
<!-- Node11 -->
<g id="node11" class="node">
<title>Node11</title>
<g id="a_node11"><a xlink:title=" ">
<polygon fill="none" stroke="#bfbfbf" points="207,-0.5 207,-19.5 250,-19.5 250,-0.5 207,-0.5"/>
<text text-anchor="middle" x="228.5" y="-7.5" font-family="Helvetica,sans-Serif" font-size="10.00">time.h</text>
</a>
</g>
</g>
<!-- Node7&#45;&gt;Node11 -->
<g id="edge10" class="edge">
<title>Node7&#45;&gt;Node11</title>
<path fill="none" stroke="midnightblue" d="M150.44,-56.32C165.09,-47.82 187.63,-34.73 204.74,-24.8"/>
<polygon fill="midnightblue" stroke="midnightblue" points="206.7,-27.7 213.6,-19.65 203.19,-21.65 206.7,-27.7"/>
</g>
<!-- Node12&#45;&gt;Node3 -->
<g id="edge14" class="edge">
<title>Node12&#45;&gt;Node3</title>
<path fill="none" stroke="midnightblue" d="M129.06,-112.32C119.35,-104.26 104.68,-92.08 93,-82.37"/>
<polygon fill="midnightblue" stroke="midnightblue" points="95.06,-79.53 85.13,-75.83 90.59,-84.92 95.06,-79.53"/>
</g>
<!-- Node12&#45;&gt;Node7 -->
<g id="edge15" class="edge">
<title>Node12&#45;&gt;Node7</title>
<path fill="none" stroke="midnightblue" d="M138.84,-112.08C138.32,-105.01 137.56,-94.86 136.91,-85.99"/>
<polygon fill="midnightblue" stroke="midnightblue" points="140.38,-85.47 136.15,-75.75 133.4,-85.98 140.38,-85.47"/>
</g>
<!-- Node12&#45;&gt;Node8 -->
<g id="edge12" class="edge">
<title>Node12&#45;&gt;Node8</title>
<path fill="none" stroke="midnightblue" d="M103.21,-112.41C82.43,-105.74 57.41,-94.42 41.5,-76 30.34,-63.08 25.73,-43.91 23.83,-29.73"/>
<polygon fill="midnightblue" stroke="midnightblue" points="27.3,-29.25 22.81,-19.65 20.33,-29.95 27.3,-29.25"/>
</g>
<!-- Node13 -->
<g id="node13" class="node">
<title>Node13</title>
<g id="a_node13"><a xlink:title=" ">
<polygon fill="none" stroke="#bfbfbf" points="172,-56.5 172,-75.5 219,-75.5 219,-56.5 172,-56.5"/>
<text text-anchor="middle" x="195.5" y="-63.5" font-family="Helvetica,sans-Serif" font-size="10.00">stdlib.h</text>
</a>
</g>
</g>
<!-- Node12&#45;&gt;Node13 -->
<g id="edge13" class="edge">
<title>Node12&#45;&gt;Node13</title>
<path fill="none" stroke="midnightblue" d="M148.5,-112.32C156.69,-104.42 169.01,-92.55 178.97,-82.94"/>
<polygon fill="midnightblue" stroke="midnightblue" points="181.57,-85.29 186.34,-75.83 176.71,-80.26 181.57,-85.29"/>
</g>
<!-- Node14&#45;&gt;Node3 -->
<g id="edge18" class="edge">
<title>Node14&#45;&gt;Node3</title>
<path fill="none" stroke="midnightblue" d="M290.28,-116.68C254.71,-109.36 180.61,-93.78 108.34,-76.11"/>
<polygon fill="midnightblue" stroke="midnightblue" points="109.16,-72.71 98.61,-73.72 107.49,-79.51 109.16,-72.71"/>
</g>
<!-- Node14&#45;&gt;Node5 -->
<g id="edge19" class="edge">
<title>Node14&#45;&gt;Node5</title>
<path fill="none" stroke="midnightblue" d="M304.07,-112.08C297.65,-104.38 288.19,-93.03 280.38,-83.65"/>
<polygon fill="midnightblue" stroke="midnightblue" points="282.88,-81.19 273.79,-75.75 277.51,-85.67 282.88,-81.19"/>
</g>
<!-- Node14&#45;&gt;Node6 -->
<g id="edge20" class="edge">
<title>Node14&#45;&gt;Node6</title>
<path fill="none" stroke="midnightblue" d="M332.55,-115.36C337.13,-114.2 341.97,-113.02 346.5,-112 380.39,-104.39 470.5,-87.4 528.49,-76.61"/>
<polygon fill="midnightblue" stroke="midnightblue" points="529.38,-80.01 538.57,-74.74 528.1,-73.13 529.38,-80.01"/>
</g>
<!-- Node14&#45;&gt;Node7 -->
<g id="edge24" class="edge">
<title>Node14&#45;&gt;Node7</title>
<path fill="none" stroke="midnightblue" d="M290.22,-114.78C263.01,-106.78 214.21,-92.29 163.82,-76.36"/>
<polygon fill="midnightblue" stroke="midnightblue" points="164.66,-72.96 154.07,-73.27 162.54,-79.63 164.66,-72.96"/>
</g>
<!-- Node14&#45;&gt;Node13 -->
<g id="edge17" class="edge">
<title>Node14&#45;&gt;Node13</title>
<path fill="none" stroke="midnightblue" d="M293.12,-112.44C274.28,-103.68 244.77,-89.94 223.12,-79.86"/>
<polygon fill="midnightblue" stroke="midnightblue" points="224.34,-76.56 213.79,-75.52 221.38,-82.91 224.34,-76.56"/>
</g>
<!-- Node15 -->
<g id="node15" class="node">
<title>Node15</title>
<g id="a_node15"><a xlink:title=" ">
<polygon fill="none" stroke="#bfbfbf" points="314,-56.5 314,-75.5 373,-75.5 373,-56.5 314,-56.5"/>
<text text-anchor="middle" x="343.5" y="-63.5" font-family="Helvetica,sans-Serif" font-size="10.00">sys/stat.h</text>
</a>
</g>
</g>
<!-- Node14&#45;&gt;Node15 -->
<g id="edge21" class="edge">
<title>Node14&#45;&gt;Node15</title>
<path fill="none" stroke="midnightblue" d="M316.78,-112.08C321.21,-104.61 327.66,-93.72 333.12,-84.52"/>
<polygon fill="midnightblue" stroke="midnightblue" points="336.23,-86.14 338.31,-75.75 330.21,-82.57 336.23,-86.14"/>
</g>
<!-- Node16 -->
<g id="node16" class="node">
<title>Node16</title>
<g id="a_node16"><a xlink:title=" ">
<polygon fill="none" stroke="#bfbfbf" points="391,-56.5 391,-75.5 456,-75.5 456,-56.5 391,-56.5"/>
<text text-anchor="middle" x="423.5" y="-63.5" font-family="Helvetica,sans-Serif" font-size="10.00">sys/types.h</text>
</a>
</g>
</g>
<!-- Node14&#45;&gt;Node16 -->
<g id="edge22" class="edge">
<title>Node14&#45;&gt;Node16</title>
<path fill="none" stroke="midnightblue" d="M329.49,-112.32C347.54,-103.62 375.55,-90.12 396.3,-80.11"/>
<polygon fill="midnightblue" stroke="midnightblue" points="398.06,-83.15 405.55,-75.65 395.02,-76.84 398.06,-83.15"/>
</g>
<!-- Node17 -->
<g id="node17" class="node">
<title>Node17</title>
<g id="a_node17"><a xlink:title=" ">
<polygon fill="none" stroke="#bfbfbf" points="474.5,-56.5 474.5,-75.5 520.5,-75.5 520.5,-56.5 474.5,-56.5"/>
<text text-anchor="middle" x="497.5" y="-63.5" font-family="Helvetica,sans-Serif" font-size="10.00">errno.h</text>
</a>
</g>
</g>
<!-- Node14&#45;&gt;Node17 -->
<g id="edge23" class="edge">
<title>Node14&#45;&gt;Node17</title>
<path fill="none" stroke="midnightblue" d="M332.84,-114.81C365.02,-105.46 426.26,-87.68 464.31,-76.64"/>
<polygon fill="midnightblue" stroke="midnightblue" points="465.75,-79.86 474.38,-73.71 463.8,-73.14 465.75,-79.86"/>
</g>
</g>
</svg>
