<?xml version="1.0" encoding="UTF-8" standalone="no"?>
<!DOCTYPE svg PUBLIC "-//W3C//DTD SVG 1.1//EN"
 "http://www.w3.org/Graphics/SVG/1.1/DTD/svg11.dtd">
<!-- Generated by graphviz version 2.43.0 (0)
 -->
<!-- Title: include/Ubidots/devices.h Pages: 1 -->
<svg width="877pt" height="302pt"
 viewBox="0.00 0.00 877.00 302.00" xmlns="http://www.w3.org/2000/svg" xmlns:xlink="http://www.w3.org/1999/xlink">
<g id="graph0" class="graph" transform="scale(1 1) rotate(0) translate(4 298)">
<title>include/Ubidots/devices.h</title>
<!-- Node1 -->
<g id="node1" class="node">
<title>Node1</title>
<g id="a_node1"><a xlink:title=" ">
<polygon fill="#999999" stroke="#666666" points="575.5,-294 433.5,-294 433.5,-275 575.5,-275 575.5,-294"/>
<text text-anchor="middle" x="504.5" y="-282" font-family="Helvetica,sans-Serif" font-size="10.00">include/Ubidots/devices.h</text>
</a>
</g>
</g>
<!-- Node2 -->
<g id="node2" class="node">
<title>Node2</title>
<g id="a_node2"><a xlink:title=" ">
<polygon fill="#e0e0e0" stroke="#999999" points="53,-74 0,-74 0,-55 53,-55 53,-74"/>
<text text-anchor="middle" x="26.5" y="-62" font-family="Helvetica,sans-Serif" font-size="10.00">string.h</text>
</a>
</g>
</g>
<!-- Node1&#45;&gt;Node2 -->
<g id="edge1" class="edge">
<title>Node1&#45;&gt;Node2</title>
<path fill="none" stroke="#63b8ff" d="M471.8,-274.97C442.65,-266.97 399.07,-254 362.5,-239 240.45,-188.94 102.99,-110.58 49.51,-79.18"/>
<polygon fill="#63b8ff" stroke="#63b8ff" points="51.2,-76.11 40.8,-74.05 47.64,-82.14 51.2,-76.11"/>
</g>
<!-- Node3 -->
<g id="node3" class="node">
<title>Node3</title>
<g id="a_node3"><a xlink:title=" ">
<polygon fill="#e0e0e0" stroke="#999999" points="685,-74 634,-74 634,-55 685,-55 685,-74"/>
<text text-anchor="middle" x="659.5" y="-62" font-family="Helvetica,sans-Serif" font-size="10.00">math.h</text>
</a>
</g>
</g>
<!-- Node1&#45;&gt;Node3 -->
<g id="edge2" class="edge">
<title>Node1&#45;&gt;Node3</title>
<path fill="none" stroke="#63b8ff" d="M513.43,-274.68C522.06,-265.97 535.29,-252.08 545.5,-239 587.91,-184.68 630.57,-114.71 649.44,-82.77"/>
<polygon fill="#63b8ff" stroke="#63b8ff" points="652.46,-84.54 654.51,-74.14 646.43,-80.99 652.46,-84.54"/>
</g>
<!-- Node4 -->
<g id="node4" class="node">
<title>Node4</title>
<g id="a_node4"><a xlink:title=" ">
<polygon fill="#e0e0e0" stroke="#999999" points="768,-74 703,-74 703,-55 768,-55 768,-74"/>
<text text-anchor="middle" x="735.5" y="-62" font-family="Helvetica,sans-Serif" font-size="10.00">curl/curl.h</text>
</a>
</g>
</g>
<!-- Node1&#45;&gt;Node4 -->
<g id="edge3" class="edge">
<title>Node1&#45;&gt;Node4</title>
<path fill="none" stroke="#63b8ff" d="M517.59,-274.88C530.27,-266.32 549.83,-252.55 565.5,-239 627.29,-185.58 692.89,-113.67 721.17,-81.84"/>
<polygon fill="#63b8ff" stroke="#63b8ff" points="723.83,-84.11 727.83,-74.3 718.58,-79.48 723.83,-84.11"/>
</g>
<!-- Node5 -->
<g id="node5" class="node">
<title>Node5</title>
<g id="a_node5"><a xlink:title=" ">
<polygon fill="#e0e0e0" stroke="#999999" points="869,-74 786,-74 786,-55 869,-55 869,-74"/>
<text text-anchor="middle" x="827.5" y="-62" font-family="Helvetica,sans-Serif" font-size="10.00">cjson/cJSON.h</text>
</a>
</g>
</g>
<!-- Node1&#45;&gt;Node5 -->
<g id="edge4" class="edge">
<title>Node1&#45;&gt;Node5</title>
<path fill="none" stroke="#63b8ff" d="M522.28,-274.99C539.56,-266.51 566.37,-252.8 588.5,-239 674.25,-185.53 769.63,-111.55 808.98,-80.34"/>
<polygon fill="#63b8ff" stroke="#63b8ff" points="811.28,-82.98 816.92,-74.02 806.92,-77.51 811.28,-82.98"/>
</g>
<!-- Node6 -->
<g id="node6" class="node">
<title>Node6</title>
<g id="a_node6"><a xlink:href="log_8h.html" target="_top" xlink:title=" ">
<polygon fill="white" stroke="#666666" points="506,-74 465,-74 465,-55 506,-55 506,-74"/>
<text text-anchor="middle" x="485.5" y="-62" font-family="Helvetica,sans-Serif" font-size="10.00">log.h</text>
</a>
</g>
</g>
<!-- Node1&#45;&gt;Node6 -->
<g id="edge5" class="edge">
<title>Node1&#45;&gt;Node6</title>
<path fill="none" stroke="#63b8ff" d="M511.65,-274.97C518.27,-266.48 527.65,-252.75 531.5,-239 533.77,-230.87 532.72,-228.36 531.5,-220 524.09,-169.17 503.66,-111.8 492.69,-83.4"/>
<polygon fill="#63b8ff" stroke="#63b8ff" points="495.91,-82.04 488.99,-74.01 489.4,-84.6 495.91,-82.04"/>
</g>
<!-- Node11 -->
<g id="node11" class="node">
<title>Node11</title>
<g id="a_node11"><a xlink:href="_ubidots_2authenticate_8h.html" target="_top" xlink:title=" ">
<polygon fill="white" stroke="#666666" points="522.5,-239 394.5,-239 394.5,-220 522.5,-220 522.5,-239"/>
<text text-anchor="middle" x="458.5" y="-227" font-family="Helvetica,sans-Serif" font-size="10.00">Ubidots/authenticate.h</text>
</a>
</g>
</g>
<!-- Node1&#45;&gt;Node11 -->
<g id="edge10" class="edge">
<title>Node1&#45;&gt;Node11</title>
<path fill="none" stroke="#63b8ff" d="M496.9,-274.75C490.34,-267.18 480.68,-256.05 472.69,-246.84"/>
<polygon fill="#63b8ff" stroke="#63b8ff" points="475.15,-244.35 465.95,-239.09 469.87,-248.94 475.15,-244.35"/>
</g>
<!-- Node13 -->
<g id="node13" class="node">
<title>Node13</title>
<g id="a_node13"><a xlink:href="http_8h.html" target="_top" xlink:title=" ">
<polygon fill="white" stroke="#666666" points="430,-184 385,-184 385,-165 430,-165 430,-184"/>
<text text-anchor="middle" x="407.5" y="-172" font-family="Helvetica,sans-Serif" font-size="10.00">http.h</text>
</a>
</g>
</g>
<!-- Node1&#45;&gt;Node13 -->
<g id="edge31" class="edge">
<title>Node1&#45;&gt;Node13</title>
<path fill="none" stroke="#63b8ff" d="M442.29,-275C420.67,-268.73 398.57,-257.85 385.5,-239 375.77,-224.98 384.34,-206.25 393.47,-192.78"/>
<polygon fill="#63b8ff" stroke="#63b8ff" points="396.53,-194.52 399.67,-184.4 390.91,-190.36 396.53,-194.52"/>
</g>
<!-- Node14 -->
<g id="node14" class="node">
<title>Node14</title>
<g id="a_node14"><a xlink:href="utils_8h.html" target="_top" xlink:title=" ">
<polygon fill="white" stroke="#666666" points="430,-129 383,-129 383,-110 430,-110 430,-129"/>
<text text-anchor="middle" x="406.5" y="-117" font-family="Helvetica,sans-Serif" font-size="10.00">utils.h</text>
</a>
</g>
</g>
<!-- Node1&#45;&gt;Node14 -->
<g id="edge32" class="edge">
<title>Node1&#45;&gt;Node14</title>
<path fill="none" stroke="#63b8ff" d="M433.34,-274.95C411.53,-268.6 389.79,-257.69 376.5,-239 357.44,-212.2 366.89,-196.45 376.5,-165 379.59,-154.9 385.82,-145.02 391.81,-137.15"/>
<polygon fill="#63b8ff" stroke="#63b8ff" points="394.68,-139.16 398.29,-129.2 389.26,-134.74 394.68,-139.16"/>
</g>
<!-- Node7 -->
<g id="node7" class="node">
<title>Node7</title>
<g id="a_node7"><a xlink:title=" ">
<polygon fill="#e0e0e0" stroke="#999999" points="577.5,-19 527.5,-19 527.5,0 577.5,0 577.5,-19"/>
<text text-anchor="middle" x="552.5" y="-7" font-family="Helvetica,sans-Serif" font-size="10.00">stdio.h</text>
</a>
</g>
</g>
<!-- Node6&#45;&gt;Node7 -->
<g id="edge6" class="edge">
<title>Node6&#45;&gt;Node7</title>
<path fill="none" stroke="#63b8ff" d="M496.26,-54.98C506.27,-47.07 521.39,-35.11 533.43,-25.58"/>
<polygon fill="#63b8ff" stroke="#63b8ff" points="535.87,-28.12 541.54,-19.17 531.53,-22.63 535.87,-28.12"/>
</g>
<!-- Node8 -->
<g id="node8" class="node">
<title>Node8</title>
<g id="a_node8"><a xlink:title=" ">
<polygon fill="#e0e0e0" stroke="#999999" points="363.5,-19 307.5,-19 307.5,0 363.5,0 363.5,-19"/>
<text text-anchor="middle" x="335.5" y="-7" font-family="Helvetica,sans-Serif" font-size="10.00">stdarg.h</text>
</a>
</g>
</g>
<!-- Node6&#45;&gt;Node8 -->
<g id="edge7" class="edge">
<title>Node6&#45;&gt;Node8</title>
<path fill="none" stroke="#63b8ff" d="M464.96,-56.24C440.3,-47.53 398.62,-32.8 369.22,-22.41"/>
<polygon fill="#63b8ff" stroke="#63b8ff" points="370.36,-19.1 359.76,-19.07 368.03,-25.7 370.36,-19.1"/>
</g>
<!-- Node9 -->
<g id="node9" class="node">
<title>Node9</title>
<g id="a_node9"><a xlink:title=" ">
<polygon fill="#e0e0e0" stroke="#999999" points="443.5,-19 381.5,-19 381.5,0 443.5,0 443.5,-19"/>
<text text-anchor="middle" x="412.5" y="-7" font-family="Helvetica,sans-Serif" font-size="10.00">stdbool.h</text>
</a>
</g>
</g>
<!-- Node6&#45;&gt;Node9 -->
<g id="edge8" class="edge">
<title>Node6&#45;&gt;Node9</title>
<path fill="none" stroke="#63b8ff" d="M473.77,-54.98C462.77,-47 446.08,-34.88 432.9,-25.31"/>
<polygon fill="#63b8ff" stroke="#63b8ff" points="434.59,-22.21 424.44,-19.17 430.48,-27.88 434.59,-22.21"/>
</g>
<!-- Node10 -->
<g id="node10" class="node">
<title>Node10</title>
<g id="a_node10"><a xlink:title=" ">
<polygon fill="#e0e0e0" stroke="#999999" points="509.5,-19 461.5,-19 461.5,0 509.5,0 509.5,-19"/>
<text text-anchor="middle" x="485.5" y="-7" font-family="Helvetica,sans-Serif" font-size="10.00">time.h</text>
</a>
</g>
</g>
<!-- Node6&#45;&gt;Node10 -->
<g id="edge9" class="edge">
<title>Node6&#45;&gt;Node10</title>
<path fill="none" stroke="#63b8ff" d="M485.5,-54.75C485.5,-47.8 485.5,-37.85 485.5,-29.13"/>
<polygon fill="#63b8ff" stroke="#63b8ff" points="489,-29.09 485.5,-19.09 482,-29.09 489,-29.09"/>
</g>
<!-- Node11&#45;&gt;Node2 -->
<g id="edge13" class="edge">
<title>Node11&#45;&gt;Node2</title>
<path fill="none" stroke="#63b8ff" d="M435.88,-219.97C364.23,-192.93 142.08,-109.11 58.62,-77.62"/>
<polygon fill="#63b8ff" stroke="#63b8ff" points="59.75,-74.3 49.15,-74.05 57.27,-80.85 59.75,-74.3"/>
</g>
<!-- Node11&#45;&gt;Node6 -->
<g id="edge14" class="edge">
<title>Node11&#45;&gt;Node6</title>
<path fill="none" stroke="#63b8ff" d="M459.95,-219.74C464.18,-194.2 476.57,-119.43 482.4,-84.23"/>
<polygon fill="#63b8ff" stroke="#63b8ff" points="485.86,-84.74 484.04,-74.31 478.95,-83.6 485.86,-84.74"/>
</g>
<!-- Node11&#45;&gt;Node7 -->
<g id="edge11" class="edge">
<title>Node11&#45;&gt;Node7</title>
<path fill="none" stroke="#63b8ff" d="M463.06,-219.72C467.63,-210.8 474.8,-196.56 480.5,-184 505.94,-127.98 532.99,-60.29 545.46,-28.56"/>
<polygon fill="#63b8ff" stroke="#63b8ff" points="548.72,-29.84 549.1,-19.25 542.2,-27.29 548.72,-29.84"/>
</g>
<!-- Node12 -->
<g id="node12" class="node">
<title>Node12</title>
<g id="a_node12"><a xlink:title=" ">
<polygon fill="#e0e0e0" stroke="#999999" points="616,-74 563,-74 563,-55 616,-55 616,-74"/>
<text text-anchor="middle" x="589.5" y="-62" font-family="Helvetica,sans-Serif" font-size="10.00">stdlib.h</text>
</a>
</g>
</g>
<!-- Node11&#45;&gt;Node12 -->
<g id="edge12" class="edge">
<title>Node11&#45;&gt;Node12</title>
<path fill="none" stroke="#63b8ff" d="M489.39,-219.91C508.76,-213.06 532.94,-201.65 548.5,-184 573.96,-155.11 583.81,-109.56 587.47,-84.17"/>
<polygon fill="#63b8ff" stroke="#63b8ff" points="590.97,-84.42 588.75,-74.06 584.02,-83.54 590.97,-84.42"/>
</g>
<!-- Node11&#45;&gt;Node13 -->
<g id="edge15" class="edge">
<title>Node11&#45;&gt;Node13</title>
<path fill="none" stroke="#63b8ff" d="M450.08,-219.75C442.73,-212.11 431.87,-200.82 422.96,-191.56"/>
<polygon fill="#63b8ff" stroke="#63b8ff" points="425.22,-188.87 415.76,-184.09 420.18,-193.72 425.22,-188.87"/>
</g>
<!-- Node13&#45;&gt;Node2 -->
<g id="edge17" class="edge">
<title>Node13&#45;&gt;Node2</title>
<path fill="none" stroke="#63b8ff" d="M389.3,-164.91C360.16,-151.47 300.98,-125.41 248.5,-110 170.71,-87.16 146.6,-91.32 63.13,-74.03"/>
<polygon fill="#63b8ff" stroke="#63b8ff" points="63.72,-70.58 53.21,-71.93 62.27,-77.43 63.72,-70.58"/>
</g>
<!-- Node13&#45;&gt;Node4 -->
<g id="edge18" class="edge">
<title>Node13&#45;&gt;Node4</title>
<path fill="none" stroke="#63b8ff" d="M430.04,-166.08C486.08,-147.63 632,-99.58 699.85,-77.24"/>
<polygon fill="#63b8ff" stroke="#63b8ff" points="701.26,-80.46 709.66,-74.01 699.07,-73.81 701.26,-80.46"/>
</g>
<!-- Node13&#45;&gt;Node12 -->
<g id="edge16" class="edge">
<title>Node13&#45;&gt;Node12</title>
<path fill="none" stroke="#63b8ff" d="M422.09,-164.84C453.58,-146.16 528.17,-101.9 566.25,-79.3"/>
<polygon fill="#63b8ff" stroke="#63b8ff" points="568.28,-82.16 575.1,-74.05 564.71,-76.14 568.28,-82.16"/>
</g>
<!-- Node13&#45;&gt;Node14 -->
<g id="edge19" class="edge">
<title>Node13&#45;&gt;Node14</title>
<path fill="none" stroke="#63b8ff" d="M407.33,-164.75C407.2,-157.8 407.02,-147.85 406.85,-139.13"/>
<polygon fill="#63b8ff" stroke="#63b8ff" points="410.35,-139.02 406.66,-129.09 403.35,-139.15 410.35,-139.02"/>
</g>
<!-- Node14&#45;&gt;Node2 -->
<g id="edge21" class="edge">
<title>Node14&#45;&gt;Node2</title>
<path fill="none" stroke="#63b8ff" d="M382.72,-115.75C318.45,-108.26 141.46,-87.31 63.49,-73.95"/>
<polygon fill="#63b8ff" stroke="#63b8ff" points="63.63,-70.42 53.17,-72.12 62.41,-77.31 63.63,-70.42"/>
</g>
<!-- Node14&#45;&gt;Node3 -->
<g id="edge28" class="edge">
<title>Node14&#45;&gt;Node3</title>
<path fill="none" stroke="#63b8ff" d="M430.23,-114.04C468.85,-106.7 547.9,-91.35 624.15,-74.23"/>
<polygon fill="#63b8ff" stroke="#63b8ff" points="624.93,-77.65 633.91,-72.03 623.38,-70.82 624.93,-77.65"/>
</g>
<!-- Node14&#45;&gt;Node4 -->
<g id="edge22" class="edge">
<title>Node14&#45;&gt;Node4</title>
<path fill="none" stroke="#63b8ff" d="M430.09,-115.27C477.8,-108.65 589.4,-92.72 692.87,-74.22"/>
<polygon fill="#63b8ff" stroke="#63b8ff" points="693.63,-77.64 702.86,-72.42 692.39,-70.75 693.63,-77.64"/>
</g>
<!-- Node14&#45;&gt;Node5 -->
<g id="edge24" class="edge">
<title>Node14&#45;&gt;Node5</title>
<path fill="none" stroke="#63b8ff" d="M430.43,-116.04C488.04,-110.03 639.23,-93.75 775.58,-74.22"/>
<polygon fill="#63b8ff" stroke="#63b8ff" points="776.38,-77.64 785.78,-72.75 775.38,-70.71 776.38,-77.64"/>
</g>
<!-- Node14&#45;&gt;Node6 -->
<g id="edge29" class="edge">
<title>Node14&#45;&gt;Node6</title>
<path fill="none" stroke="#63b8ff" d="M419.19,-109.98C431.33,-101.84 449.86,-89.41 464.25,-79.76"/>
<polygon fill="#63b8ff" stroke="#63b8ff" points="466.22,-82.65 472.58,-74.17 462.32,-76.84 466.22,-82.65"/>
</g>
<!-- Node14&#45;&gt;Node12 -->
<g id="edge20" class="edge">
<title>Node14&#45;&gt;Node12</title>
<path fill="none" stroke="#63b8ff" d="M430.05,-111.68C461.2,-102.66 516.41,-86.67 552.99,-76.07"/>
<polygon fill="#63b8ff" stroke="#63b8ff" points="554.15,-79.38 562.78,-73.24 552.2,-72.66 554.15,-79.38"/>
</g>
<!-- Node15 -->
<g id="node15" class="node">
<title>Node15</title>
<g id="a_node15"><a xlink:title=" ">
<polygon fill="#e0e0e0" stroke="#999999" points="447,-74 394,-74 394,-55 447,-55 447,-74"/>
<text text-anchor="middle" x="420.5" y="-62" font-family="Helvetica,sans-Serif" font-size="10.00">stdint.h</text>
</a>
</g>
</g>
<!-- Node14&#45;&gt;Node15 -->
<g id="edge23" class="edge">
<title>Node14&#45;&gt;Node15</title>
<path fill="none" stroke="#63b8ff" d="M408.81,-109.75C410.67,-102.72 413.34,-92.62 415.65,-83.84"/>
<polygon fill="#63b8ff" stroke="#63b8ff" points="419.06,-84.65 418.23,-74.09 412.29,-82.86 419.06,-84.65"/>
</g>
<!-- Node16 -->
<g id="node16" class="node">
<title>Node16</title>
<g id="a_node16"><a xlink:title=" ">
<polygon fill="#e0e0e0" stroke="#999999" points="135.5,-74 71.5,-74 71.5,-55 135.5,-55 135.5,-74"/>
<text text-anchor="middle" x="103.5" y="-62" font-family="Helvetica,sans-Serif" font-size="10.00">sys/stat.h</text>
</a>
</g>
</g>
<!-- Node14&#45;&gt;Node16 -->
<g id="edge25" class="edge">
<title>Node14&#45;&gt;Node16</title>
<path fill="none" stroke="#63b8ff" d="M382.96,-114.8C338.59,-107.75 239.33,-91.69 145.63,-74.16"/>
<polygon fill="#63b8ff" stroke="#63b8ff" points="146.18,-70.7 135.71,-72.29 144.89,-77.58 146.18,-70.7"/>
</g>
<!-- Node17 -->
<g id="node17" class="node">
<title>Node17</title>
<g id="a_node17"><a xlink:title=" ">
<polygon fill="#e0e0e0" stroke="#999999" points="225.5,-74 153.5,-74 153.5,-55 225.5,-55 225.5,-74"/>
<text text-anchor="middle" x="189.5" y="-62" font-family="Helvetica,sans-Serif" font-size="10.00">sys/types.h</text>
</a>
</g>
</g>
<!-- Node14&#45;&gt;Node17 -->
<g id="edge26" class="edge">
<title>Node14&#45;&gt;Node17</title>
<path fill="none" stroke="#63b8ff" d="M382.86,-112.73C347.33,-104.05 279.49,-87.48 234.37,-76.46"/>
<polygon fill="#63b8ff" stroke="#63b8ff" points="235.09,-73.03 224.54,-74.06 233.43,-79.83 235.09,-73.03"/>
</g>
<!-- Node18 -->
<g id="node18" class="node">
<title>Node18</title>
<g id="a_node18"><a xlink:title=" ">
<polygon fill="#e0e0e0" stroke="#999999" points="295,-74 244,-74 244,-55 295,-55 295,-74"/>
<text text-anchor="middle" x="269.5" y="-62" font-family="Helvetica,sans-Serif" font-size="10.00">errno.h</text>
</a>
</g>
</g>
<!-- Node14&#45;&gt;Node18 -->
<g id="edge27" class="edge">
<title>Node14&#45;&gt;Node18</title>
<path fill="none" stroke="#63b8ff" d="M384.49,-109.98C362.05,-101.3 327.02,-87.75 301.51,-77.88"/>
<polygon fill="#63b8ff" stroke="#63b8ff" points="302.5,-74.51 291.91,-74.17 299.98,-81.04 302.5,-74.51"/>
</g>
<!-- Node19 -->
<g id="node19" class="node">
<title>Node19</title>
<g id="a_node19"><a xlink:title=" ">
<polygon fill="#e0e0e0" stroke="#999999" points="376,-74 313,-74 313,-55 376,-55 376,-74"/>
<text text-anchor="middle" x="344.5" y="-62" font-family="Helvetica,sans-Serif" font-size="10.00">libpq&#45;fe.h</text>
</a>
</g>
</g>
<!-- Node14&#45;&gt;Node19 -->
<g id="edge30" class="edge">
<title>Node14&#45;&gt;Node19</title>
<path fill="none" stroke="#63b8ff" d="M396.54,-109.98C387.37,-102.15 373.56,-90.34 362.47,-80.86"/>
<polygon fill="#63b8ff" stroke="#63b8ff" points="364.52,-78.01 354.64,-74.17 359.97,-83.33 364.52,-78.01"/>
</g>
</g>
</svg>
