<?xml version="1.0" encoding="UTF-8" standalone="no"?>
<!DOCTYPE svg PUBLIC "-//W3C//DTD SVG 1.1//EN"
 "http://www.w3.org/Graphics/SVG/1.1/DTD/svg11.dtd">
<!-- Generated by graphviz version 2.49.3 (20211027.1534)
 -->
<!-- Title: include Pages: 1 -->
<svg width="264pt" height="220pt"
 viewBox="0.00 0.00 264.00 220.00" xmlns="http://www.w3.org/2000/svg" xmlns:xlink="http://www.w3.org/1999/xlink">
<g id="graph0" class="graph" transform="scale(1 1) rotate(0) translate(4 216)">
<title>include</title>
<g id="clust1" class="cluster">
<title>clusterdir_d44c64559bbebec7f509842c48db8b23</title>
<g id="a_clust1"><a xlink:href="dir_d44c64559bbebec7f509842c48db8b23.html" target="_top">
<polygon fill="#eeeeff" stroke="black" points="8,-8 8,-204 248,-204 248,-8 8,-8"/>
</a>
</g>
</g>
<!-- dir_d44c64559bbebec7f509842c48db8b23 -->
<g id="node1" class="node">
<title>dir_d44c64559bbebec7f509842c48db8b23</title>
<text text-anchor="middle" x="140" y="-175.5" font-family="Helvetica,sans-Serif" font-size="10.00">include</text>
</g>
<!-- dir_96b38e25f21e2e9b69a9d7bd73c709d0 -->
<g id="node3" class="node">
<title>dir_96b38e25f21e2e9b69a9d7bd73c709d0</title>
<g id="a_node3"><a xlink:href="dir_96b38e25f21e2e9b69a9d7bd73c709d0.html" target="_top" xlink:title="FoodAuthority">
<polygon fill="white" stroke="black" points="93.5,-124 16.5,-124 16.5,-88 93.5,-88 93.5,-124"/>
<text text-anchor="middle" x="55" y="-103.5" font-family="Helvetica,sans-Serif" font-size="10.00">FoodAuthority</text>
</a>
</g>
</g>
<!-- dir_d44c64559bbebec7f509842c48db8b23&#45;&gt;dir_96b38e25f21e2e9b69a9d7bd73c709d0 -->
<g id="edge5" class="edge">
<title>dir_d44c64559bbebec7f509842c48db8b23&#45;&gt;dir_96b38e25f21e2e9b69a9d7bd73c709d0</title>
<path fill="none" stroke="black" d="M118.99,-159.7C108.28,-150.88 95.11,-140.03 83.5,-130.47"/>
<polygon fill="black" stroke="black" points="85.71,-127.76 75.77,-124.1 81.26,-133.16 85.71,-127.76"/>
<g id="a_edge5&#45;headlabel"><a xlink:href="dir_000000_000002.html" target="_top" xlink:title="3">
<text text-anchor="middle" x="90.29" y="-125.35" font-family="Helvetica,sans-Serif" font-size="10.00">3</text>
</a>
</g>
</g>
<!-- dir_437e5c816725a9ecfd3972f435d51417 -->
<g id="node4" class="node">
<title>dir_437e5c816725a9ecfd3972f435d51417</title>
<g id="a_node4"><a xlink:href="dir_437e5c816725a9ecfd3972f435d51417.html" target="_top" xlink:title="IBM_EIS">
<polygon fill="white" stroke="black" points="168,-124 112,-124 112,-88 168,-88 168,-124"/>
<text text-anchor="middle" x="140" y="-103.5" font-family="Helvetica,sans-Serif" font-size="10.00">IBM_EIS</text>
</a>
</g>
</g>
<!-- dir_d44c64559bbebec7f509842c48db8b23&#45;&gt;dir_437e5c816725a9ecfd3972f435d51417 -->
<g id="edge4" class="edge">
<title>dir_d44c64559bbebec7f509842c48db8b23&#45;&gt;dir_437e5c816725a9ecfd3972f435d51417</title>
<path fill="none" stroke="black" d="M140,-159.7C140,-151.98 140,-142.71 140,-134.11"/>
<polygon fill="black" stroke="black" points="143.5,-134.1 140,-124.1 136.5,-134.1 143.5,-134.1"/>
<g id="a_edge4&#45;headlabel"><a xlink:href="dir_000000_000003.html" target="_top" xlink:title="2">
<text text-anchor="middle" x="146.34" y="-135.2" font-family="Helvetica,sans-Serif" font-size="10.00">2</text>
</a>
</g>
</g>
<!-- dir_27d6a9a3bd4382de9ff402649d185650 -->
<g id="node5" class="node">
<title>dir_27d6a9a3bd4382de9ff402649d185650</title>
<g id="a_node5"><a xlink:href="dir_27d6a9a3bd4382de9ff402649d185650.html" target="_top" xlink:title="Ubidots">
<polygon fill="white" stroke="black" points="240,-124 186,-124 186,-88 240,-88 240,-124"/>
<text text-anchor="middle" x="213" y="-103.5" font-family="Helvetica,sans-Serif" font-size="10.00">Ubidots</text>
</a>
</g>
</g>
<!-- dir_d44c64559bbebec7f509842c48db8b23&#45;&gt;dir_27d6a9a3bd4382de9ff402649d185650 -->
<g id="edge3" class="edge">
<title>dir_d44c64559bbebec7f509842c48db8b23&#45;&gt;dir_27d6a9a3bd4382de9ff402649d185650</title>
<path fill="none" stroke="black" d="M158.04,-159.7C167.06,-151.05 178.12,-140.45 187.94,-131.03"/>
<polygon fill="black" stroke="black" points="190.37,-133.55 195.16,-124.1 185.52,-128.5 190.37,-133.55"/>
<g id="a_edge3&#45;headlabel"><a xlink:href="dir_000000_000004.html" target="_top" xlink:title="1">
<text text-anchor="middle" x="189.74" y="-135.59" font-family="Helvetica,sans-Serif" font-size="10.00">1</text>
</a>
</g>
</g>
<!-- dir_fe989704db714b4572d9eabbbeeb86b1 -->
<g id="node2" class="node">
<title>dir_fe989704db714b4572d9eabbbeeb86b1</title>
<g id="a_node2"><a xlink:href="dir_fe989704db714b4572d9eabbbeeb86b1.html" target="_top" xlink:title="BOM">
<polygon fill="white" stroke="black" points="76,-52 22,-52 22,-16 76,-16 76,-52"/>
<text text-anchor="middle" x="49" y="-31.5" font-family="Helvetica,sans-Serif" font-size="10.00">BOM</text>
</a>
</g>
</g>
<!-- dir_96b38e25f21e2e9b69a9d7bd73c709d0&#45;&gt;dir_fe989704db714b4572d9eabbbeeb86b1 -->
<g id="edge2" class="edge">
<title>dir_96b38e25f21e2e9b69a9d7bd73c709d0&#45;&gt;dir_fe989704db714b4572d9eabbbeeb86b1</title>
<path fill="none" stroke="black" d="M53.52,-87.7C52.86,-79.98 52.06,-70.71 51.32,-62.11"/>
<polygon fill="black" stroke="black" points="54.81,-61.77 50.47,-52.1 47.83,-62.37 54.81,-61.77"/>
<g id="a_edge2&#45;headlabel"><a xlink:href="dir_000002_000001.html" target="_top" xlink:title="1">
<text text-anchor="middle" x="57.94" y="-62.61" font-family="Helvetica,sans-Serif" font-size="10.00">1</text>
</a>
</g>
</g>
<!-- dir_526511df6d4a33c97e43e57d3602e3da -->
<g id="node6" class="node">
<title>dir_526511df6d4a33c97e43e57d3602e3da</title>
<g id="a_node6"><a xlink:href="dir_526511df6d4a33c97e43e57d3602e3da.html" target="_top" xlink:title="WillyWeather">
<polygon fill="white" stroke="black" points="167.5,-52 94.5,-52 94.5,-16 167.5,-16 167.5,-52"/>
<text text-anchor="middle" x="131" y="-31.5" font-family="Helvetica,sans-Serif" font-size="10.00">WillyWeather</text>
</a>
</g>
</g>
<!-- dir_96b38e25f21e2e9b69a9d7bd73c709d0&#45;&gt;dir_526511df6d4a33c97e43e57d3602e3da -->
<g id="edge1" class="edge">
<title>dir_96b38e25f21e2e9b69a9d7bd73c709d0&#45;&gt;dir_526511df6d4a33c97e43e57d3602e3da</title>
<path fill="none" stroke="black" d="M73.79,-87.7C83.17,-79.05 94.68,-68.45 104.91,-59.03"/>
<polygon fill="black" stroke="black" points="107.45,-61.45 112.43,-52.1 102.7,-56.3 107.45,-61.45"/>
<g id="a_edge1&#45;headlabel"><a xlink:href="dir_000002_000005.html" target="_top" xlink:title="1">
<text text-anchor="middle" x="106.72" y="-63.48" font-family="Helvetica,sans-Serif" font-size="10.00">1</text>
</a>
</g>
</g>
</g>
</svg>
