<?xml version="1.0" encoding="UTF-8" standalone="no"?>
<!DOCTYPE svg PUBLIC "-//W3C//DTD SVG 1.1//EN"
 "http://www.w3.org/Graphics/SVG/1.1/DTD/svg11.dtd">
<!-- Generated by graphviz version 2.49.3 (20211027.1534)
 -->
<!-- Title: include Pages: 1 -->
<svg width="356pt" height="148pt"
 viewBox="0.00 0.00 356.00 148.00" xmlns="http://www.w3.org/2000/svg" xmlns:xlink="http://www.w3.org/1999/xlink">
<g id="graph0" class="graph" transform="scale(1 1) rotate(0) translate(4 144)">
<title>include</title>
<g id="clust1" class="cluster">
<title>clusterdir_d44c64559bbebec7f509842c48db8b23</title>
<g id="a_clust1"><a xlink:href="dir_d44c64559bbebec7f509842c48db8b23.html" target="_top">
<polygon fill="#eeeeff" stroke="black" points="8,-8 8,-132 340,-132 340,-8 8,-8"/>
</a>
</g>
</g>
<!-- dir_d44c64559bbebec7f509842c48db8b23 -->
<g id="node1" class="node">
<title>dir_d44c64559bbebec7f509842c48db8b23</title>
<text text-anchor="middle" x="176" y="-103.5" font-family="Helvetica,sans-Serif" font-size="10.00">include</text>
</g>
<!-- dir_96b38e25f21e2e9b69a9d7bd73c709d0 -->
<g id="node2" class="node">
<title>dir_96b38e25f21e2e9b69a9d7bd73c709d0</title>
<g id="a_node2"><a xlink:href="dir_96b38e25f21e2e9b69a9d7bd73c709d0.html" target="_top" xlink:title="FoodAuthority">
<polygon fill="white" stroke="black" points="93.5,-52 16.5,-52 16.5,-16 93.5,-16 93.5,-52"/>
<text text-anchor="middle" x="55" y="-31.5" font-family="Helvetica,sans-Serif" font-size="10.00">FoodAuthority</text>
</a>
</g>
</g>
<!-- dir_d44c64559bbebec7f509842c48db8b23&#45;&gt;dir_96b38e25f21e2e9b69a9d7bd73c709d0 -->
<g id="edge4" class="edge">
<title>dir_d44c64559bbebec7f509842c48db8b23&#45;&gt;dir_96b38e25f21e2e9b69a9d7bd73c709d0</title>
<path fill="none" stroke="black" d="M148.85,-89.29C132.59,-79.89 111.66,-67.78 93.69,-57.38"/>
<polygon fill="black" stroke="black" points="95.01,-54.11 84.61,-52.13 91.51,-60.16 95.01,-54.11"/>
<g id="a_edge4&#45;headlabel"><a xlink:href="dir_000000_000001.html" target="_top" xlink:title="1">
<text text-anchor="middle" x="99.55" y="-50.95" font-family="Helvetica,sans-Serif" font-size="10.00">1</text>
</a>
</g>
</g>
<!-- dir_437e5c816725a9ecfd3972f435d51417 -->
<g id="node3" class="node">
<title>dir_437e5c816725a9ecfd3972f435d51417</title>
<g id="a_node3"><a xlink:href="dir_437e5c816725a9ecfd3972f435d51417.html" target="_top" xlink:title="IBM_EIS">
<polygon fill="white" stroke="black" points="168,-52 112,-52 112,-16 168,-16 168,-52"/>
<text text-anchor="middle" x="140" y="-31.5" font-family="Helvetica,sans-Serif" font-size="10.00">IBM_EIS</text>
</a>
</g>
</g>
<!-- dir_d44c64559bbebec7f509842c48db8b23&#45;&gt;dir_437e5c816725a9ecfd3972f435d51417 -->
<g id="edge2" class="edge">
<title>dir_d44c64559bbebec7f509842c48db8b23&#45;&gt;dir_437e5c816725a9ecfd3972f435d51417</title>
<path fill="none" stroke="black" d="M167.1,-87.7C163,-79.73 158.05,-70.1 153.51,-61.26"/>
<polygon fill="black" stroke="black" points="156.48,-59.4 148.8,-52.1 150.26,-62.6 156.48,-59.4"/>
<g id="a_edge2&#45;headlabel"><a xlink:href="dir_000000_000002.html" target="_top" xlink:title="2">
<text text-anchor="middle" x="160.65" y="-58.79" font-family="Helvetica,sans-Serif" font-size="10.00">2</text>
</a>
</g>
</g>
<!-- dir_27d6a9a3bd4382de9ff402649d185650 -->
<g id="node4" class="node">
<title>dir_27d6a9a3bd4382de9ff402649d185650</title>
<g id="a_node4"><a xlink:href="dir_27d6a9a3bd4382de9ff402649d185650.html" target="_top" xlink:title="Ubidots">
<polygon fill="white" stroke="black" points="240,-52 186,-52 186,-16 240,-16 240,-52"/>
<text text-anchor="middle" x="213" y="-31.5" font-family="Helvetica,sans-Serif" font-size="10.00">Ubidots</text>
</a>
</g>
</g>
<!-- dir_d44c64559bbebec7f509842c48db8b23&#45;&gt;dir_27d6a9a3bd4382de9ff402649d185650 -->
<g id="edge1" class="edge">
<title>dir_d44c64559bbebec7f509842c48db8b23&#45;&gt;dir_27d6a9a3bd4382de9ff402649d185650</title>
<path fill="none" stroke="black" d="M185.15,-87.7C189.4,-79.64 194.56,-69.89 199.27,-60.98"/>
<polygon fill="black" stroke="black" points="202.38,-62.58 203.96,-52.1 196.19,-59.31 202.38,-62.58"/>
<g id="a_edge1&#45;headlabel"><a xlink:href="dir_000000_000003.html" target="_top" xlink:title="1">
<text text-anchor="middle" x="203.21" y="-64.59" font-family="Helvetica,sans-Serif" font-size="10.00">1</text>
</a>
</g>
</g>
<!-- dir_526511df6d4a33c97e43e57d3602e3da -->
<g id="node5" class="node">
<title>dir_526511df6d4a33c97e43e57d3602e3da</title>
<g id="a_node5"><a xlink:href="dir_526511df6d4a33c97e43e57d3602e3da.html" target="_top" xlink:title="WillyWeather">
<polygon fill="white" stroke="black" points="331.5,-52 258.5,-52 258.5,-16 331.5,-16 331.5,-52"/>
<text text-anchor="middle" x="295" y="-31.5" font-family="Helvetica,sans-Serif" font-size="10.00">WillyWeather</text>
</a>
</g>
</g>
<!-- dir_d44c64559bbebec7f509842c48db8b23&#45;&gt;dir_526511df6d4a33c97e43e57d3602e3da -->
<g id="edge3" class="edge">
<title>dir_d44c64559bbebec7f509842c48db8b23&#45;&gt;dir_526511df6d4a33c97e43e57d3602e3da</title>
<path fill="none" stroke="black" d="M203,-89.12C219,-79.7 239.53,-67.63 257.13,-57.28"/>
<polygon fill="black" stroke="black" points="259.18,-60.13 266.02,-52.04 255.63,-54.1 259.18,-60.13"/>
<g id="a_edge3&#45;headlabel"><a xlink:href="dir_000000_000004.html" target="_top" xlink:title="2">
<text text-anchor="middle" x="257.52" y="-61.9" font-family="Helvetica,sans-Serif" font-size="10.00">2</text>
</a>
</g>
</g>
</g>
</svg>
