<?xml version="1.0" encoding="UTF-8" standalone="no"?>
<!DOCTYPE svg PUBLIC "-//W3C//DTD SVG 1.1//EN"
 "http://www.w3.org/Graphics/SVG/1.1/DTD/svg11.dtd">
<!-- Generated by graphviz version 2.49.3 (20211027.1534)
 -->
<!-- Title: include/FoodAuthority Pages: 1 -->
<svg width="186pt" height="167pt"
 viewBox="0.00 0.00 186.00 167.00" xmlns="http://www.w3.org/2000/svg" xmlns:xlink="http://www.w3.org/1999/xlink">
<g id="graph0" class="graph" transform="scale(1 1) rotate(0) translate(4 163)">
<title>include/FoodAuthority</title>
<g id="clust1" class="cluster">
<title>clusterdir_d44c64559bbebec7f509842c48db8b23</title>
<g id="a_clust1"><a xlink:href="dir_d44c64559bbebec7f509842c48db8b23.html" target="_top" xlink:title="include">
<polygon fill="#ddddee" stroke="black" points="8,-8 8,-151 170,-151 170,-8 8,-8"/>
<text text-anchor="middle" x="89" y="-139" font-family="Helvetica,sans-Serif" font-size="10.00">include</text>
</a>
</g>
</g>
<!-- dir_526511df6d4a33c97e43e57d3602e3da -->
<g id="node1" class="node">
<title>dir_526511df6d4a33c97e43e57d3602e3da</title>
<g id="a_node1"><a xlink:href="dir_526511df6d4a33c97e43e57d3602e3da.html" target="_top" xlink:title="WillyWeather">
<polygon fill="none" stroke="black" points="89.5,-52 16.5,-52 16.5,-16 89.5,-16 89.5,-52"/>
<text text-anchor="middle" x="53" y="-31.5" font-family="Helvetica,sans-Serif" font-size="10.00">WillyWeather</text>
</a>
</g>
</g>
<!-- dir_fe989704db714b4572d9eabbbeeb86b1 -->
<g id="node2" class="node">
<title>dir_fe989704db714b4572d9eabbbeeb86b1</title>
<g id="a_node2"><a xlink:href="dir_fe989704db714b4572d9eabbbeeb86b1.html" target="_top" xlink:title="BOM">
<polygon fill="none" stroke="black" points="162,-52 108,-52 108,-16 162,-16 162,-52"/>
<text text-anchor="middle" x="135" y="-31.5" font-family="Helvetica,sans-Serif" font-size="10.00">BOM</text>
</a>
</g>
</g>
<!-- dir_96b38e25f21e2e9b69a9d7bd73c709d0 -->
<g id="node3" class="node">
<title>dir_96b38e25f21e2e9b69a9d7bd73c709d0</title>
<g id="a_node3"><a xlink:href="dir_96b38e25f21e2e9b69a9d7bd73c709d0.html" target="_top" xlink:title="FoodAuthority">
<polygon fill="#eeeeff" stroke="black" points="127.5,-124 50.5,-124 50.5,-88 127.5,-88 127.5,-124"/>
<text text-anchor="middle" x="89" y="-103.5" font-family="Helvetica,sans-Serif" font-size="10.00">FoodAuthority</text>
</a>
</g>
</g>
<!-- dir_96b38e25f21e2e9b69a9d7bd73c709d0&#45;&gt;dir_526511df6d4a33c97e43e57d3602e3da -->
<g id="edge1" class="edge">
<title>dir_96b38e25f21e2e9b69a9d7bd73c709d0&#45;&gt;dir_526511df6d4a33c97e43e57d3602e3da</title>
<path fill="none" stroke="black" d="M80.1,-87.7C76,-79.73 71.05,-70.1 66.51,-61.26"/>
<polygon fill="black" stroke="black" points="69.48,-59.4 61.8,-52.1 63.26,-62.6 69.48,-59.4"/>
<g id="a_edge1&#45;headlabel"><a xlink:href="dir_000002_000005.html" target="_top" xlink:title="1">
<text text-anchor="middle" x="73.65" y="-58.79" font-family="Helvetica,sans-Serif" font-size="10.00">1</text>
</a>
</g>
</g>
<!-- dir_96b38e25f21e2e9b69a9d7bd73c709d0&#45;&gt;dir_fe989704db714b4572d9eabbbeeb86b1 -->
<g id="edge2" class="edge">
<title>dir_96b38e25f21e2e9b69a9d7bd73c709d0&#45;&gt;dir_fe989704db714b4572d9eabbbeeb86b1</title>
<path fill="none" stroke="black" d="M100.37,-87.7C105.72,-79.56 112.2,-69.69 118.11,-60.7"/>
<polygon fill="black" stroke="black" points="121.19,-62.38 123.76,-52.1 115.34,-58.54 121.19,-62.38"/>
<g id="a_edge2&#45;headlabel"><a xlink:href="dir_000002_000001.html" target="_top" xlink:title="1">
<text text-anchor="middle" x="121.59" y="-64.45" font-family="Helvetica,sans-Serif" font-size="10.00">1</text>
</a>
</g>
</g>
</g>
</svg>
