<?xml version="1.0" encoding="UTF-8" standalone="no"?>
<!DOCTYPE svg PUBLIC "-//W3C//DTD SVG 1.1//EN"
 "http://www.w3.org/Graphics/SVG/1.1/DTD/svg11.dtd">
<!-- Generated by graphviz version 2.49.3 (20211027.1534)
 -->
<!-- Title: src Pages: 1 -->
<svg width="428pt" height="132pt"
 viewBox="0.00 0.00 428.00 132.00" xmlns="http://www.w3.org/2000/svg" xmlns:xlink="http://www.w3.org/1999/xlink">
<g id="graph0" class="graph" transform="scale(1 1) rotate(0) translate(4 128)">
<title>src</title>
<g id="clust1" class="cluster">
<title>clusterdir_68267d1309a1af8e8297ef4c3efbcdba</title>
<g id="a_clust1"><a xlink:href="dir_68267d1309a1af8e8297ef4c3efbcdba.html" target="_top">
<polygon fill="#eeeeff" stroke="black" points="8,-64 8,-116 412,-116 412,-64 8,-64"/>
</a>
</g>
</g>
<!-- dir_68267d1309a1af8e8297ef4c3efbcdba -->
<g id="node1" class="node">
<title>dir_68267d1309a1af8e8297ef4c3efbcdba</title>
<text text-anchor="middle" x="377" y="-87.5" font-family="Helvetica,sans-Serif" font-size="10.00">src</text>
</g>
<!-- dir_f9f80afd5d15e9172994f4290d3fffae -->
<g id="node2" class="node">
<title>dir_f9f80afd5d15e9172994f4290d3fffae</title>
<g id="a_node2"><a xlink:href="dir_f9f80afd5d15e9172994f4290d3fffae.html" target="_top" xlink:title="FoodAuthority">
<polygon fill="white" stroke="black" points="331.5,-108 254.5,-108 254.5,-72 331.5,-72 331.5,-108"/>
<text text-anchor="middle" x="293" y="-87.5" font-family="Helvetica,sans-Serif" font-size="10.00">FoodAuthority</text>
</a>
</g>
</g>
<!-- dir_d44c64559bbebec7f509842c48db8b23 -->
<g id="node6" class="node">
<title>dir_d44c64559bbebec7f509842c48db8b23</title>
<g id="a_node6"><a xlink:href="dir_d44c64559bbebec7f509842c48db8b23.html" target="_top" xlink:title="include">
<polygon fill="none" stroke="red" points="198,-36 144,-36 144,0 198,0 198,-36"/>
<text text-anchor="middle" x="171" y="-15.5" font-family="Helvetica,sans-Serif" font-size="10.00">include</text>
</a>
</g>
</g>
<!-- dir_f9f80afd5d15e9172994f4290d3fffae&#45;&gt;dir_d44c64559bbebec7f509842c48db8b23 -->
<g id="edge4" class="edge">
<title>dir_f9f80afd5d15e9172994f4290d3fffae&#45;&gt;dir_d44c64559bbebec7f509842c48db8b23</title>
<path fill="none" stroke="black" d="M263.16,-71.88C246.22,-62.16 224.89,-49.92 207.03,-39.67"/>
<polygon fill="black" stroke="black" points="208.45,-36.46 198.04,-34.51 204.97,-42.53 208.45,-36.46"/>
<g id="a_edge4&#45;headlabel"><a xlink:href="dir_000006_000000.html" target="_top" xlink:title="1">
<text text-anchor="middle" x="212.99" y="-33.28" font-family="Helvetica,sans-Serif" font-size="10.00">1</text>
</a>
</g>
</g>
<!-- dir_9d00df1f3b7db6bf065bf923b2f99f1b -->
<g id="node3" class="node">
<title>dir_9d00df1f3b7db6bf065bf923b2f99f1b</title>
<g id="a_node3"><a xlink:href="dir_9d00df1f3b7db6bf065bf923b2f99f1b.html" target="_top" xlink:title="IBM_EIS">
<polygon fill="white" stroke="black" points="236,-108 180,-108 180,-72 236,-72 236,-108"/>
<text text-anchor="middle" x="208" y="-87.5" font-family="Helvetica,sans-Serif" font-size="10.00">IBM_EIS</text>
</a>
</g>
</g>
<!-- dir_9d00df1f3b7db6bf065bf923b2f99f1b&#45;&gt;dir_d44c64559bbebec7f509842c48db8b23 -->
<g id="edge3" class="edge">
<title>dir_9d00df1f3b7db6bf065bf923b2f99f1b&#45;&gt;dir_d44c64559bbebec7f509842c48db8b23</title>
<path fill="none" stroke="black" d="M198.85,-71.7C194.6,-63.64 189.44,-53.89 184.73,-44.98"/>
<polygon fill="black" stroke="black" points="187.81,-43.31 180.04,-36.1 181.62,-46.58 187.81,-43.31"/>
<g id="a_edge3&#45;headlabel"><a xlink:href="dir_000007_000000.html" target="_top" xlink:title="2">
<text text-anchor="middle" x="192" y="-42.66" font-family="Helvetica,sans-Serif" font-size="10.00">2</text>
</a>
</g>
</g>
<!-- dir_3a801996b4f2a9b44630e6fe1c26572b -->
<g id="node4" class="node">
<title>dir_3a801996b4f2a9b44630e6fe1c26572b</title>
<g id="a_node4"><a xlink:href="dir_3a801996b4f2a9b44630e6fe1c26572b.html" target="_top" xlink:title="Ubidots">
<polygon fill="white" stroke="black" points="162,-108 108,-108 108,-72 162,-72 162,-108"/>
<text text-anchor="middle" x="135" y="-87.5" font-family="Helvetica,sans-Serif" font-size="10.00">Ubidots</text>
</a>
</g>
</g>
<!-- dir_3a801996b4f2a9b44630e6fe1c26572b&#45;&gt;dir_d44c64559bbebec7f509842c48db8b23 -->
<g id="edge1" class="edge">
<title>dir_3a801996b4f2a9b44630e6fe1c26572b&#45;&gt;dir_d44c64559bbebec7f509842c48db8b23</title>
<path fill="none" stroke="black" d="M143.9,-71.7C148,-63.73 152.95,-54.1 157.49,-45.26"/>
<polygon fill="black" stroke="black" points="160.74,-46.6 162.2,-36.1 154.52,-43.4 160.74,-46.6"/>
<g id="a_edge1&#45;headlabel"><a xlink:href="dir_000008_000000.html" target="_top" xlink:title="1">
<text text-anchor="middle" x="161.62" y="-48.59" font-family="Helvetica,sans-Serif" font-size="10.00">1</text>
</a>
</g>
</g>
<!-- dir_45f09f16d23eb05e0a5eb01b1b9e44e3 -->
<g id="node5" class="node">
<title>dir_45f09f16d23eb05e0a5eb01b1b9e44e3</title>
<g id="a_node5"><a xlink:href="dir_45f09f16d23eb05e0a5eb01b1b9e44e3.html" target="_top" xlink:title="WillyWeather">
<polygon fill="white" stroke="black" points="89.5,-108 16.5,-108 16.5,-72 89.5,-72 89.5,-108"/>
<text text-anchor="middle" x="53" y="-87.5" font-family="Helvetica,sans-Serif" font-size="10.00">WillyWeather</text>
</a>
</g>
</g>
<!-- dir_45f09f16d23eb05e0a5eb01b1b9e44e3&#45;&gt;dir_d44c64559bbebec7f509842c48db8b23 -->
<g id="edge2" class="edge">
<title>dir_45f09f16d23eb05e0a5eb01b1b9e44e3&#45;&gt;dir_d44c64559bbebec7f509842c48db8b23</title>
<path fill="none" stroke="black" d="M81.87,-71.88C97.76,-62.45 117.63,-50.66 134.58,-40.61"/>
<polygon fill="black" stroke="black" points="136.83,-43.34 143.65,-35.23 133.26,-37.32 136.83,-43.34"/>
<g id="a_edge2&#45;headlabel"><a xlink:href="dir_000009_000000.html" target="_top" xlink:title="3">
<text text-anchor="middle" x="135.19" y="-45.11" font-family="Helvetica,sans-Serif" font-size="10.00">3</text>
</a>
</g>
</g>
</g>
</svg>
