<?xml version="1.0" encoding="UTF-8" standalone="no"?>
<!DOCTYPE svg PUBLIC "-//W3C//DTD SVG 1.1//EN"
 "http://www.w3.org/Graphics/SVG/1.1/DTD/svg11.dtd">
<!-- Generated by graphviz version 2.49.3 (20211027.1534)
 -->
<!-- Title: src Pages: 1 -->
<svg width="500pt" height="132pt"
 viewBox="0.00 0.00 500.00 132.00" xmlns="http://www.w3.org/2000/svg" xmlns:xlink="http://www.w3.org/1999/xlink">
<g id="graph0" class="graph" transform="scale(1 1) rotate(0) translate(4 128)">
<title>src</title>
<g id="clust1" class="cluster">
<title>clusterdir_68267d1309a1af8e8297ef4c3efbcdba</title>
<g id="a_clust1"><a xlink:href="dir_68267d1309a1af8e8297ef4c3efbcdba.html" target="_top">
<polygon fill="#eeeeff" stroke="black" points="8,-64 8,-116 484,-116 484,-64 8,-64"/>
</a>
</g>
</g>
<!-- dir_68267d1309a1af8e8297ef4c3efbcdba -->
<g id="node1" class="node">
<title>dir_68267d1309a1af8e8297ef4c3efbcdba</title>
<text text-anchor="middle" x="449" y="-87.5" font-family="Helvetica,sans-Serif" font-size="10.00">src</text>
</g>
<!-- dir_5c1a389c19f5e1aef93d90d0120de696 -->
<g id="node2" class="node">
<title>dir_5c1a389c19f5e1aef93d90d0120de696</title>
<g id="a_node2"><a xlink:href="dir_5c1a389c19f5e1aef93d90d0120de696.html" target="_top" xlink:title="BOM">
<polygon fill="white" stroke="black" points="404,-108 350,-108 350,-72 404,-72 404,-108"/>
<text text-anchor="middle" x="377" y="-87.5" font-family="Helvetica,sans-Serif" font-size="10.00">BOM</text>
</a>
</g>
</g>
<!-- dir_d44c64559bbebec7f509842c48db8b23 -->
<g id="node7" class="node">
<title>dir_d44c64559bbebec7f509842c48db8b23</title>
<g id="a_node7"><a xlink:href="dir_d44c64559bbebec7f509842c48db8b23.html" target="_top" xlink:title="include">
<polygon fill="none" stroke="red" points="235,-36 181,-36 181,0 235,0 235,-36"/>
<text text-anchor="middle" x="208" y="-15.5" font-family="Helvetica,sans-Serif" font-size="10.00">include</text>
</a>
</g>
</g>
<!-- dir_5c1a389c19f5e1aef93d90d0120de696&#45;&gt;dir_d44c64559bbebec7f509842c48db8b23 -->
<g id="edge3" class="edge">
<title>dir_5c1a389c19f5e1aef93d90d0120de696&#45;&gt;dir_d44c64559bbebec7f509842c48db8b23</title>
<path fill="none" stroke="black" d="M354.36,-71.86C350.05,-69.02 345.49,-66.26 341,-64 310.02,-48.39 272.38,-36.23 245.06,-28.51"/>
<polygon fill="black" stroke="black" points="245.7,-25.05 235.13,-25.77 243.84,-31.8 245.7,-25.05"/>
<g id="a_edge3&#45;headlabel"><a xlink:href="dir_000007_000000.html" target="_top" xlink:title="2">
<text text-anchor="middle" x="249.92" y="-20.77" font-family="Helvetica,sans-Serif" font-size="10.00">2</text>
</a>
</g>
</g>
<!-- dir_f9f80afd5d15e9172994f4290d3fffae -->
<g id="node3" class="node">
<title>dir_f9f80afd5d15e9172994f4290d3fffae</title>
<g id="a_node3"><a xlink:href="dir_f9f80afd5d15e9172994f4290d3fffae.html" target="_top" xlink:title="FoodAuthority">
<polygon fill="white" stroke="black" points="331.5,-108 254.5,-108 254.5,-72 331.5,-72 331.5,-108"/>
<text text-anchor="middle" x="293" y="-87.5" font-family="Helvetica,sans-Serif" font-size="10.00">FoodAuthority</text>
</a>
</g>
</g>
<!-- dir_f9f80afd5d15e9172994f4290d3fffae&#45;&gt;dir_d44c64559bbebec7f509842c48db8b23 -->
<g id="edge5" class="edge">
<title>dir_f9f80afd5d15e9172994f4290d3fffae&#45;&gt;dir_d44c64559bbebec7f509842c48db8b23</title>
<path fill="none" stroke="black" d="M271.99,-71.7C261.28,-62.88 248.11,-52.03 236.5,-42.47"/>
<polygon fill="black" stroke="black" points="238.71,-39.76 228.77,-36.1 234.26,-45.16 238.71,-39.76"/>
<g id="a_edge5&#45;headlabel"><a xlink:href="dir_000008_000000.html" target="_top" xlink:title="2">
<text text-anchor="middle" x="243.29" y="-37.35" font-family="Helvetica,sans-Serif" font-size="10.00">2</text>
</a>
</g>
</g>
<!-- dir_9d00df1f3b7db6bf065bf923b2f99f1b -->
<g id="node4" class="node">
<title>dir_9d00df1f3b7db6bf065bf923b2f99f1b</title>
<g id="a_node4"><a xlink:href="dir_9d00df1f3b7db6bf065bf923b2f99f1b.html" target="_top" xlink:title="IBM_EIS">
<polygon fill="white" stroke="black" points="236,-108 180,-108 180,-72 236,-72 236,-108"/>
<text text-anchor="middle" x="208" y="-87.5" font-family="Helvetica,sans-Serif" font-size="10.00">IBM_EIS</text>
</a>
</g>
</g>
<!-- dir_9d00df1f3b7db6bf065bf923b2f99f1b&#45;&gt;dir_d44c64559bbebec7f509842c48db8b23 -->
<g id="edge4" class="edge">
<title>dir_9d00df1f3b7db6bf065bf923b2f99f1b&#45;&gt;dir_d44c64559bbebec7f509842c48db8b23</title>
<path fill="none" stroke="black" d="M208,-71.7C208,-63.98 208,-54.71 208,-46.11"/>
<polygon fill="black" stroke="black" points="211.5,-46.1 208,-36.1 204.5,-46.1 211.5,-46.1"/>
<g id="a_edge4&#45;headlabel"><a xlink:href="dir_000009_000000.html" target="_top" xlink:title="2">
<text text-anchor="middle" x="214.34" y="-47.2" font-family="Helvetica,sans-Serif" font-size="10.00">2</text>
</a>
</g>
</g>
<!-- dir_3a801996b4f2a9b44630e6fe1c26572b -->
<g id="node5" class="node">
<title>dir_3a801996b4f2a9b44630e6fe1c26572b</title>
<g id="a_node5"><a xlink:href="dir_3a801996b4f2a9b44630e6fe1c26572b.html" target="_top" xlink:title="Ubidots">
<polygon fill="white" stroke="black" points="162,-108 108,-108 108,-72 162,-72 162,-108"/>
<text text-anchor="middle" x="135" y="-87.5" font-family="Helvetica,sans-Serif" font-size="10.00">Ubidots</text>
</a>
</g>
</g>
<!-- dir_3a801996b4f2a9b44630e6fe1c26572b&#45;&gt;dir_d44c64559bbebec7f509842c48db8b23 -->
<g id="edge1" class="edge">
<title>dir_3a801996b4f2a9b44630e6fe1c26572b&#45;&gt;dir_d44c64559bbebec7f509842c48db8b23</title>
<path fill="none" stroke="black" d="M153.04,-71.7C162.06,-63.05 173.12,-52.45 182.94,-43.03"/>
<polygon fill="black" stroke="black" points="185.37,-45.55 190.16,-36.1 180.52,-40.5 185.37,-45.55"/>
<g id="a_edge1&#45;headlabel"><a xlink:href="dir_000010_000000.html" target="_top" xlink:title="2">
<text text-anchor="middle" x="184.74" y="-47.59" font-family="Helvetica,sans-Serif" font-size="10.00">2</text>
</a>
</g>
</g>
<!-- dir_45f09f16d23eb05e0a5eb01b1b9e44e3 -->
<g id="node6" class="node">
<title>dir_45f09f16d23eb05e0a5eb01b1b9e44e3</title>
<g id="a_node6"><a xlink:href="dir_45f09f16d23eb05e0a5eb01b1b9e44e3.html" target="_top" xlink:title="WillyWeather">
<polygon fill="white" stroke="black" points="89.5,-108 16.5,-108 16.5,-72 89.5,-72 89.5,-108"/>
<text text-anchor="middle" x="53" y="-87.5" font-family="Helvetica,sans-Serif" font-size="10.00">WillyWeather</text>
</a>
</g>
</g>
<!-- dir_45f09f16d23eb05e0a5eb01b1b9e44e3&#45;&gt;dir_d44c64559bbebec7f509842c48db8b23 -->
<g id="edge2" class="edge">
<title>dir_45f09f16d23eb05e0a5eb01b1b9e44e3&#45;&gt;dir_d44c64559bbebec7f509842c48db8b23</title>
<path fill="none" stroke="black" d="M83.45,-71.87C88.59,-69.14 93.91,-66.42 99,-64 122.72,-52.7 150.05,-41.42 171.41,-32.98"/>
<polygon fill="black" stroke="black" points="172.74,-36.22 180.77,-29.31 170.19,-29.7 172.74,-36.22"/>
<g id="a_edge2&#45;headlabel"><a xlink:href="dir_000011_000000.html" target="_top" xlink:title="4">
<text text-anchor="middle" x="170.43" y="-37.67" font-family="Helvetica,sans-Serif" font-size="10.00">4</text>
</a>
</g>
</g>
</g>
</svg>
