<?xml version="1.0" encoding="UTF-8" standalone="no"?>
<!DOCTYPE svg PUBLIC "-//W3C//DTD SVG 1.1//EN"
 "http://www.w3.org/Graphics/SVG/1.1/DTD/svg11.dtd">
<!-- Generated by graphviz version 2.43.0 (0)
 -->
<!-- Title: include Pages: 1 -->
<svg width="312pt" height="169pt"
 viewBox="0.00 0.00 312.00 169.00" xmlns="http://www.w3.org/2000/svg" xmlns:xlink="http://www.w3.org/1999/xlink">
<g id="graph0" class="graph" transform="scale(1 1) rotate(0) translate(4 165)">
<title>include</title>
<g id="clust1" class="cluster">
<title>clusterdir_d44c64559bbebec7f509842c48db8b23</title>
<g id="a_clust1"><a xlink:href="dir_d44c64559bbebec7f509842c48db8b23.html" target="_top">
<polygon fill="#edf0f7" stroke="#404040" stroke-width="2" points="8,-8 8,-153 296,-153 296,-8 8,-8"/>
</a>
</g>
</g>
<!-- dir_d44c64559bbebec7f509842c48db8b23 -->
<g id="node1" class="node">
<title>dir_d44c64559bbebec7f509842c48db8b23</title>
<text text-anchor="middle" x="168" y="-133" font-family="Helvetica,sans-Serif" font-size="10.00">include</text>
</g>
<!-- dir_fe989704db714b4572d9eabbbeeb86b1 -->
<g id="node2" class="node">
<title>dir_fe989704db714b4572d9eabbbeeb86b1</title>
<g id="a_node2"><a xlink:href="dir_fe989704db714b4572d9eabbbeeb86b1.html" target="_top" xlink:title="BOM">
<polygon fill="#a2b4d6" stroke="#404040" points="77,-35 37,-35 37,-16 77,-16 77,-35"/>
<text text-anchor="middle" x="57" y="-23" font-family="Helvetica,sans-Serif" font-size="10.00">BOM</text>
</a>
</g>
</g>
<!-- dir_d44c64559bbebec7f509842c48db8b23&#45;&gt;dir_fe989704db714b4572d9eabbbeeb86b1 -->
<g id="edge5" class="edge">
<title>dir_d44c64559bbebec7f509842c48db8b23&#45;&gt;dir_fe989704db714b4572d9eabbbeeb86b1</title>
<path fill="none" stroke="#63b8ff" d="M142,-134.82C109.05,-133.64 53.41,-126.02 27,-90 16.26,-75.34 28.19,-56.22 40.04,-42.81"/>
<polygon fill="#63b8ff" stroke="#63b8ff" points="42.85,-44.94 47.21,-35.29 37.78,-40.12 42.85,-44.94"/>
<g id="a_edge5&#45;headlabel"><a xlink:href="dir_000006_000000.html" target="_top" xlink:title="4">
<text text-anchor="middle" x="42.42" y="-47" font-family="Helvetica,sans-Serif" font-size="10.00" fill="#63b8ff">4</text>
</a>
</g>
</g>
<!-- dir_96b38e25f21e2e9b69a9d7bd73c709d0 -->
<g id="node3" class="node">
<title>dir_96b38e25f21e2e9b69a9d7bd73c709d0</title>
<g id="a_node3"><a xlink:href="dir_96b38e25f21e2e9b69a9d7bd73c709d0.html" target="_top" xlink:title="FoodAuthority">
<polygon fill="#a2b4d6" stroke="#404040" points="121.5,-90 36.5,-90 36.5,-71 121.5,-71 121.5,-90"/>
<text text-anchor="middle" x="79" y="-78" font-family="Helvetica,sans-Serif" font-size="10.00">FoodAuthority</text>
</a>
</g>
</g>
<!-- dir_d44c64559bbebec7f509842c48db8b23&#45;&gt;dir_96b38e25f21e2e9b69a9d7bd73c709d0 -->
<g id="edge4" class="edge">
<title>dir_d44c64559bbebec7f509842c48db8b23&#45;&gt;dir_96b38e25f21e2e9b69a9d7bd73c709d0</title>
<path fill="none" stroke="#63b8ff" d="M153.7,-125.98C139.9,-117.77 118.76,-105.18 102.49,-95.49"/>
<polygon fill="#63b8ff" stroke="#63b8ff" points="103.94,-92.28 93.56,-90.17 100.36,-98.29 103.94,-92.28"/>
<g id="a_edge4&#45;headlabel"><a xlink:href="dir_000006_000002.html" target="_top" xlink:title="3">
<text text-anchor="middle" x="108.48" y="-89.18" font-family="Helvetica,sans-Serif" font-size="10.00" fill="#63b8ff">3</text>
</a>
</g>
</g>
<!-- dir_437e5c816725a9ecfd3972f435d51417 -->
<g id="node4" class="node">
<title>dir_437e5c816725a9ecfd3972f435d51417</title>
<g id="a_node4"><a xlink:href="dir_437e5c816725a9ecfd3972f435d51417.html" target="_top" xlink:title="IBM_EIS">
<polygon fill="#a2b4d6" stroke="#404040" points="196,-90 140,-90 140,-71 196,-71 196,-90"/>
<text text-anchor="middle" x="168" y="-78" font-family="Helvetica,sans-Serif" font-size="10.00">IBM_EIS</text>
</a>
</g>
</g>
<!-- dir_d44c64559bbebec7f509842c48db8b23&#45;&gt;dir_437e5c816725a9ecfd3972f435d51417 -->
<g id="edge2" class="edge">
<title>dir_d44c64559bbebec7f509842c48db8b23&#45;&gt;dir_437e5c816725a9ecfd3972f435d51417</title>
<path fill="none" stroke="#63b8ff" d="M168,-125.75C168,-118.8 168,-108.85 168,-100.13"/>
<polygon fill="#63b8ff" stroke="#63b8ff" points="171.5,-100.09 168,-90.09 164.5,-100.09 171.5,-100.09"/>
<g id="a_edge2&#45;headlabel"><a xlink:href="dir_000006_000004.html" target="_top" xlink:title="2">
<text text-anchor="middle" x="174.34" y="-101.18" font-family="Helvetica,sans-Serif" font-size="10.00" fill="#63b8ff">2</text>
</a>
</g>
</g>
<!-- dir_27d6a9a3bd4382de9ff402649d185650 -->
<g id="node5" class="node">
<title>dir_27d6a9a3bd4382de9ff402649d185650</title>
<g id="a_node5"><a xlink:href="dir_27d6a9a3bd4382de9ff402649d185650.html" target="_top" xlink:title="Ubidots">
<polygon fill="#a2b4d6" stroke="#404040" points="268,-90 214,-90 214,-71 268,-71 268,-90"/>
<text text-anchor="middle" x="241" y="-78" font-family="Helvetica,sans-Serif" font-size="10.00">Ubidots</text>
</a>
</g>
</g>
<!-- dir_d44c64559bbebec7f509842c48db8b23&#45;&gt;dir_27d6a9a3bd4382de9ff402649d185650 -->
<g id="edge1" class="edge">
<title>dir_d44c64559bbebec7f509842c48db8b23&#45;&gt;dir_27d6a9a3bd4382de9ff402649d185650</title>
<path fill="none" stroke="#63b8ff" d="M179.73,-125.98C190.73,-118 207.42,-105.88 220.6,-96.31"/>
<polygon fill="#63b8ff" stroke="#63b8ff" points="223.02,-98.88 229.06,-90.17 218.91,-93.21 223.02,-98.88"/>
<g id="a_edge1&#45;headlabel"><a xlink:href="dir_000006_000008.html" target="_top" xlink:title="1">
<text text-anchor="middle" x="221.78" y="-100.79" font-family="Helvetica,sans-Serif" font-size="10.00" fill="#63b8ff">1</text>
</a>
</g>
</g>
<!-- dir_526511df6d4a33c97e43e57d3602e3da -->
<g id="node6" class="node">
<title>dir_526511df6d4a33c97e43e57d3602e3da</title>
<g id="a_node6"><a xlink:href="dir_526511df6d4a33c97e43e57d3602e3da.html" target="_top" xlink:title="WillyWeather">
<polygon fill="#a2b4d6" stroke="#404040" points="232,-35 150,-35 150,-16 232,-16 232,-35"/>
<text text-anchor="middle" x="191" y="-23" font-family="Helvetica,sans-Serif" font-size="10.00">WillyWeather</text>
</a>
</g>
</g>
<!-- dir_d44c64559bbebec7f509842c48db8b23&#45;&gt;dir_526511df6d4a33c97e43e57d3602e3da -->
<g id="edge3" class="edge">
<title>dir_d44c64559bbebec7f509842c48db8b23&#45;&gt;dir_526511df6d4a33c97e43e57d3602e3da</title>
<path fill="none" stroke="#63b8ff" d="M194.31,-131.95C220.27,-127.87 258.65,-117.32 277,-90 292.44,-67.02 260.7,-49.27 231.51,-38.45"/>
<polygon fill="#63b8ff" stroke="#63b8ff" points="232.38,-35.04 221.78,-35.04 230.07,-41.65 232.38,-35.04"/>
<g id="a_edge3&#45;headlabel"><a xlink:href="dir_000006_000010.html" target="_top" xlink:title="5">
<text text-anchor="middle" x="236.71" y="-31.05" font-family="Helvetica,sans-Serif" font-size="10.00" fill="#63b8ff">5</text>
</a>
</g>
</g>
<!-- dir_96b38e25f21e2e9b69a9d7bd73c709d0&#45;&gt;dir_fe989704db714b4572d9eabbbeeb86b1 -->
<g id="edge7" class="edge">
<title>dir_96b38e25f21e2e9b69a9d7bd73c709d0&#45;&gt;dir_fe989704db714b4572d9eabbbeeb86b1</title>
<path fill="none" stroke="#63b8ff" d="M75.37,-70.75C72.42,-63.65 68.17,-53.4 64.49,-44.56"/>
<polygon fill="#63b8ff" stroke="#63b8ff" points="67.63,-42.98 60.57,-35.09 61.17,-45.67 67.63,-42.98"/>
<g id="a_edge7&#45;headlabel"><a xlink:href="dir_000002_000000.html" target="_top" xlink:title="1">
<text text-anchor="middle" x="71.63" y="-42.71" font-family="Helvetica,sans-Serif" font-size="10.00" fill="#63b8ff">1</text>
</a>
</g>
</g>
<!-- dir_96b38e25f21e2e9b69a9d7bd73c709d0&#45;&gt;dir_526511df6d4a33c97e43e57d3602e3da -->
<g id="edge6" class="edge">
<title>dir_96b38e25f21e2e9b69a9d7bd73c709d0&#45;&gt;dir_526511df6d4a33c97e43e57d3602e3da</title>
<path fill="none" stroke="#63b8ff" d="M96.99,-70.98C114.93,-62.5 142.72,-49.35 163.43,-39.54"/>
<polygon fill="#63b8ff" stroke="#63b8ff" points="165.14,-42.61 172.68,-35.17 162.14,-36.28 165.14,-42.61"/>
<g id="a_edge6&#45;headlabel"><a xlink:href="dir_000002_000010.html" target="_top" xlink:title="1">
<text text-anchor="middle" x="163.1" y="-44.22" font-family="Helvetica,sans-Serif" font-size="10.00" fill="#63b8ff">1</text>
</a>
</g>
</g>
</g>
</svg>
