<?xml version="1.0" encoding="UTF-8" standalone="no"?>
<!DOCTYPE svg PUBLIC "-//W3C//DTD SVG 1.1//EN"
 "http://www.w3.org/Graphics/SVG/1.1/DTD/svg11.dtd">
<!-- Generated by graphviz version 2.49.3 (20211027.1534)
 -->
<!-- Title: src Pages: 1 -->
<svg width="433pt" height="132pt"
 viewBox="0.00 0.00 433.00 132.00" xmlns="http://www.w3.org/2000/svg" xmlns:xlink="http://www.w3.org/1999/xlink">
<g id="graph0" class="graph" transform="scale(1 1) rotate(0) translate(4 128)">
<title>src</title>
<g id="clust1" class="cluster">
<title>clusterdir_68267d1309a1af8e8297ef4c3efbcdba</title>
<g id="a_clust1"><a xlink:href="dir_68267d1309a1af8e8297ef4c3efbcdba.html" target="_top">
<polygon fill="#eeeeff" stroke="black" points="8,-64 8,-116 417,-116 417,-64 8,-64"/>
</a>
</g>
</g>
<!-- dir_68267d1309a1af8e8297ef4c3efbcdba -->
<g id="node1" class="node">
<title>dir_68267d1309a1af8e8297ef4c3efbcdba</title>
<text text-anchor="middle" x="382" y="-87.5" font-family="Helvetica,sans-Serif" font-size="10.00">src</text>
</g>
<!-- dir_f9f80afd5d15e9172994f4290d3fffae -->
<g id="node2" class="node">
<title>dir_f9f80afd5d15e9172994f4290d3fffae</title>
<g id="a_node2"><a xlink:href="dir_f9f80afd5d15e9172994f4290d3fffae.html" target="_top" xlink:title="FoodAuthority">
<polygon fill="white" stroke="black" points="336.5,-108 259.5,-108 259.5,-72 336.5,-72 336.5,-108"/>
<text text-anchor="middle" x="298" y="-87.5" font-family="Helvetica,sans-Serif" font-size="10.00">FoodAuthority</text>
</a>
</g>
</g>
<!-- dir_d44c64559bbebec7f509842c48db8b23 -->
<g id="node6" class="node">
<title>dir_d44c64559bbebec7f509842c48db8b23</title>
<g id="a_node6"><a xlink:href="dir_d44c64559bbebec7f509842c48db8b23.html" target="_top" xlink:title="include">
<polygon fill="none" stroke="red" points="200,-36 146,-36 146,0 200,0 200,-36"/>
<text text-anchor="middle" x="173" y="-15.5" font-family="Helvetica,sans-Serif" font-size="10.00">include</text>
</a>
</g>
</g>
<!-- dir_f9f80afd5d15e9172994f4290d3fffae&#45;&gt;dir_d44c64559bbebec7f509842c48db8b23 -->
<g id="edge4" class="edge">
<title>dir_f9f80afd5d15e9172994f4290d3fffae&#45;&gt;dir_d44c64559bbebec7f509842c48db8b23</title>
<path fill="none" stroke="black" d="M267.42,-71.88C249.78,-62 227.5,-49.52 209.02,-39.17"/>
<polygon fill="black" stroke="black" points="210.72,-36.11 200.28,-34.28 207.3,-42.22 210.72,-36.11"/>
<g id="a_edge4&#45;headlabel"><a xlink:href="dir_000006_000000.html" target="_top" xlink:title="1">
<text text-anchor="middle" x="215.24" y="-32.89" font-family="Helvetica,sans-Serif" font-size="10.00">1</text>
</a>
</g>
</g>
<!-- dir_44f0cff651bfacf9dac7794ee108383a -->
<g id="node3" class="node">
<title>dir_44f0cff651bfacf9dac7794ee108383a</title>
<g id="a_node3"><a xlink:href="dir_44f0cff651bfacf9dac7794ee108383a.html" target="_top" xlink:title="IBM_EMS">
<polygon fill="white" stroke="black" points="241.5,-108 180.5,-108 180.5,-72 241.5,-72 241.5,-108"/>
<text text-anchor="middle" x="211" y="-87.5" font-family="Helvetica,sans-Serif" font-size="10.00">IBM_EMS</text>
</a>
</g>
</g>
<!-- dir_44f0cff651bfacf9dac7794ee108383a&#45;&gt;dir_d44c64559bbebec7f509842c48db8b23 -->
<g id="edge2" class="edge">
<title>dir_44f0cff651bfacf9dac7794ee108383a&#45;&gt;dir_d44c64559bbebec7f509842c48db8b23</title>
<path fill="none" stroke="black" d="M201.61,-71.7C197.24,-63.64 191.94,-53.89 187.1,-44.98"/>
<polygon fill="black" stroke="black" points="190.13,-43.22 182.29,-36.1 183.98,-46.56 190.13,-43.22"/>
<g id="a_edge2&#45;headlabel"><a xlink:href="dir_000007_000000.html" target="_top" xlink:title="2">
<text text-anchor="middle" x="194.34" y="-42.53" font-family="Helvetica,sans-Serif" font-size="10.00">2</text>
</a>
</g>
</g>
<!-- dir_3a801996b4f2a9b44630e6fe1c26572b -->
<g id="node4" class="node">
<title>dir_3a801996b4f2a9b44630e6fe1c26572b</title>
<g id="a_node4"><a xlink:href="dir_3a801996b4f2a9b44630e6fe1c26572b.html" target="_top" xlink:title="Ubidots">
<polygon fill="white" stroke="black" points="162,-108 108,-108 108,-72 162,-72 162,-108"/>
<text text-anchor="middle" x="135" y="-87.5" font-family="Helvetica,sans-Serif" font-size="10.00">Ubidots</text>
</a>
</g>
</g>
<!-- dir_3a801996b4f2a9b44630e6fe1c26572b&#45;&gt;dir_d44c64559bbebec7f509842c48db8b23 -->
<g id="edge1" class="edge">
<title>dir_3a801996b4f2a9b44630e6fe1c26572b&#45;&gt;dir_d44c64559bbebec7f509842c48db8b23</title>
<path fill="none" stroke="black" d="M144.39,-71.7C148.76,-63.64 154.06,-53.89 158.9,-44.98"/>
<polygon fill="black" stroke="black" points="162.02,-46.56 163.71,-36.1 155.87,-43.22 162.02,-46.56"/>
<g id="a_edge1&#45;headlabel"><a xlink:href="dir_000008_000000.html" target="_top" xlink:title="1">
<text text-anchor="middle" x="162.8" y="-48.58" font-family="Helvetica,sans-Serif" font-size="10.00">1</text>
</a>
</g>
</g>
<!-- dir_45f09f16d23eb05e0a5eb01b1b9e44e3 -->
<g id="node5" class="node">
<title>dir_45f09f16d23eb05e0a5eb01b1b9e44e3</title>
<g id="a_node5"><a xlink:href="dir_45f09f16d23eb05e0a5eb01b1b9e44e3.html" target="_top" xlink:title="WillyWeather">
<polygon fill="white" stroke="black" points="89.5,-108 16.5,-108 16.5,-72 89.5,-72 89.5,-108"/>
<text text-anchor="middle" x="53" y="-87.5" font-family="Helvetica,sans-Serif" font-size="10.00">WillyWeather</text>
</a>
</g>
</g>
<!-- dir_45f09f16d23eb05e0a5eb01b1b9e44e3&#45;&gt;dir_d44c64559bbebec7f509842c48db8b23 -->
<g id="edge3" class="edge">
<title>dir_45f09f16d23eb05e0a5eb01b1b9e44e3&#45;&gt;dir_d44c64559bbebec7f509842c48db8b23</title>
<path fill="none" stroke="black" d="M82.36,-71.88C98.9,-62.23 119.69,-50.1 137.19,-39.89"/>
<polygon fill="black" stroke="black" points="139.13,-42.81 146,-34.75 135.6,-36.77 139.13,-42.81"/>
<g id="a_edge3&#45;headlabel"><a xlink:href="dir_000009_000000.html" target="_top" xlink:title="1">
<text text-anchor="middle" x="137.45" y="-44.58" font-family="Helvetica,sans-Serif" font-size="10.00">1</text>
</a>
</g>
</g>
</g>
</svg>
