<?xml version="1.0" encoding="UTF-8" standalone="no"?>
<!DOCTYPE svg PUBLIC "-//W3C//DTD SVG 1.1//EN"
 "http://www.w3.org/Graphics/SVG/1.1/DTD/svg11.dtd">
<!-- Generated by graphviz version 2.43.0 (0)
 -->
<!-- Title: src Pages: 1 -->
<svg width="480pt" height="98pt"
 viewBox="0.00 0.00 480.00 98.00" xmlns="http://www.w3.org/2000/svg" xmlns:xlink="http://www.w3.org/1999/xlink">
<g id="graph0" class="graph" transform="scale(1 1) rotate(0) translate(4 94)">
<title>src</title>
<g id="clust1" class="cluster">
<title>clusterdir_68267d1309a1af8e8297ef4c3efbcdba</title>
<g id="a_clust1"><a xlink:href="dir_68267d1309a1af8e8297ef4c3efbcdba.html" target="_top">
<polygon fill="#edf0f7" stroke="#404040" stroke-width="2" points="8,-47 8,-82 464,-82 464,-47 8,-47"/>
</a>
</g>
</g>
<!-- dir_68267d1309a1af8e8297ef4c3efbcdba -->
<g id="node1" class="node">
<title>dir_68267d1309a1af8e8297ef4c3efbcdba</title>
<text text-anchor="middle" x="440" y="-62" font-family="Helvetica,sans-Serif" font-size="10.00">src</text>
</g>
<!-- dir_d44c64559bbebec7f509842c48db8b23 -->
<g id="node7" class="node">
<title>dir_d44c64559bbebec7f509842c48db8b23</title>
<g id="a_node7"><a xlink:href="dir_d44c64559bbebec7f509842c48db8b23.html" target="_top" xlink:title="include">
<polygon fill="#edf0f7" stroke="red" points="286,-19 234,-19 234,0 286,0 286,-19"/>
<text text-anchor="middle" x="260" y="-7" font-family="Helvetica,sans-Serif" font-size="10.00">include</text>
</a>
</g>
</g>
<!-- dir_68267d1309a1af8e8297ef4c3efbcdba&#45;&gt;dir_d44c64559bbebec7f509842c48db8b23 -->
<g id="edge1" class="edge">
<title>dir_68267d1309a1af8e8297ef4c3efbcdba&#45;&gt;dir_d44c64559bbebec7f509842c48db8b23</title>
<path fill="none" stroke="#63b8ff" d="M428.78,-54.88C424.63,-52.03 419.77,-49.06 415,-47 376.23,-30.27 328.55,-20.51 296.39,-15.36"/>
<polygon fill="#63b8ff" stroke="#63b8ff" points="296.53,-11.84 286.11,-13.79 295.47,-18.76 296.53,-11.84"/>
<g id="a_edge1&#45;headlabel"><a xlink:href="dir_000007_000006.html" target="_top" xlink:title="18">
<text text-anchor="middle" x="300.51" y="-7.08" font-family="Helvetica,sans-Serif" font-size="10.00" fill="#63b8ff">18</text>
</a>
</g>
</g>
<!-- dir_5c1a389c19f5e1aef93d90d0120de696 -->
<g id="node2" class="node">
<title>dir_5c1a389c19f5e1aef93d90d0120de696</title>
<g id="a_node2"><a xlink:href="dir_5c1a389c19f5e1aef93d90d0120de696.html" target="_top" xlink:title="BOM">
<polygon fill="#a2b4d6" stroke="#404040" points="406,-74 366,-74 366,-55 406,-55 406,-74"/>
<text text-anchor="middle" x="386" y="-62" font-family="Helvetica,sans-Serif" font-size="10.00">BOM</text>
</a>
</g>
</g>
<!-- dir_5c1a389c19f5e1aef93d90d0120de696&#45;&gt;dir_d44c64559bbebec7f509842c48db8b23 -->
<g id="edge2" class="edge">
<title>dir_5c1a389c19f5e1aef93d90d0120de696&#45;&gt;dir_d44c64559bbebec7f509842c48db8b23</title>
<path fill="none" stroke="#63b8ff" d="M372.08,-54.99C367.37,-52.27 362.03,-49.36 357,-47 337.12,-37.67 314.14,-28.94 295.54,-22.36"/>
<polygon fill="#63b8ff" stroke="#63b8ff" points="296.58,-19.01 285.98,-19.03 294.27,-25.62 296.58,-19.01"/>
<g id="a_edge2&#45;headlabel"><a xlink:href="dir_000001_000006.html" target="_top" xlink:title="2">
<text text-anchor="middle" x="300.91" y="-15.02" font-family="Helvetica,sans-Serif" font-size="10.00" fill="#63b8ff">2</text>
</a>
</g>
</g>
<!-- dir_f9f80afd5d15e9172994f4290d3fffae -->
<g id="node3" class="node">
<title>dir_f9f80afd5d15e9172994f4290d3fffae</title>
<g id="a_node3"><a xlink:href="dir_f9f80afd5d15e9172994f4290d3fffae.html" target="_top" xlink:title="FoodAuthority">
<polygon fill="#a2b4d6" stroke="#404040" points="347.5,-74 262.5,-74 262.5,-55 347.5,-55 347.5,-74"/>
<text text-anchor="middle" x="305" y="-62" font-family="Helvetica,sans-Serif" font-size="10.00">FoodAuthority</text>
</a>
</g>
</g>
<!-- dir_f9f80afd5d15e9172994f4290d3fffae&#45;&gt;dir_d44c64559bbebec7f509842c48db8b23 -->
<g id="edge3" class="edge">
<title>dir_f9f80afd5d15e9172994f4290d3fffae&#45;&gt;dir_d44c64559bbebec7f509842c48db8b23</title>
<path fill="none" stroke="#63b8ff" d="M297.57,-54.75C291.15,-47.18 281.69,-36.05 273.88,-26.84"/>
<polygon fill="#63b8ff" stroke="#63b8ff" points="276.43,-24.45 267.29,-19.09 271.1,-28.98 276.43,-24.45"/>
<g id="a_edge3&#45;headlabel"><a xlink:href="dir_000003_000006.html" target="_top" xlink:title="2">
<text text-anchor="middle" x="280.92" y="-22.85" font-family="Helvetica,sans-Serif" font-size="10.00" fill="#63b8ff">2</text>
</a>
</g>
</g>
<!-- dir_9d00df1f3b7db6bf065bf923b2f99f1b -->
<g id="node4" class="node">
<title>dir_9d00df1f3b7db6bf065bf923b2f99f1b</title>
<g id="a_node4"><a xlink:href="dir_9d00df1f3b7db6bf065bf923b2f99f1b.html" target="_top" xlink:title="IBM_EIS">
<polygon fill="#a2b4d6" stroke="#404040" points="244,-74 188,-74 188,-55 244,-55 244,-74"/>
<text text-anchor="middle" x="216" y="-62" font-family="Helvetica,sans-Serif" font-size="10.00">IBM_EIS</text>
</a>
</g>
</g>
<!-- dir_9d00df1f3b7db6bf065bf923b2f99f1b&#45;&gt;dir_d44c64559bbebec7f509842c48db8b23 -->
<g id="edge4" class="edge">
<title>dir_9d00df1f3b7db6bf065bf923b2f99f1b&#45;&gt;dir_d44c64559bbebec7f509842c48db8b23</title>
<path fill="none" stroke="#63b8ff" d="M223.27,-54.75C229.54,-47.18 238.79,-36.05 246.43,-26.84"/>
<polygon fill="#63b8ff" stroke="#63b8ff" points="249.17,-29.02 252.87,-19.09 243.79,-24.55 249.17,-29.02"/>
<g id="a_edge4&#45;headlabel"><a xlink:href="dir_000005_000006.html" target="_top" xlink:title="2">
<text text-anchor="middle" x="249.06" y="-31.1" font-family="Helvetica,sans-Serif" font-size="10.00" fill="#63b8ff">2</text>
</a>
</g>
</g>
<!-- dir_3a801996b4f2a9b44630e6fe1c26572b -->
<g id="node5" class="node">
<title>dir_3a801996b4f2a9b44630e6fe1c26572b</title>
<g id="a_node5"><a xlink:href="dir_3a801996b4f2a9b44630e6fe1c26572b.html" target="_top" xlink:title="Ubidots">
<polygon fill="#a2b4d6" stroke="#404040" points="170,-74 116,-74 116,-55 170,-55 170,-74"/>
<text text-anchor="middle" x="143" y="-62" font-family="Helvetica,sans-Serif" font-size="10.00">Ubidots</text>
</a>
</g>
</g>
<!-- dir_3a801996b4f2a9b44630e6fe1c26572b&#45;&gt;dir_d44c64559bbebec7f509842c48db8b23 -->
<g id="edge5" class="edge">
<title>dir_3a801996b4f2a9b44630e6fe1c26572b&#45;&gt;dir_d44c64559bbebec7f509842c48db8b23</title>
<path fill="none" stroke="#63b8ff" d="M161.67,-54.91C167.24,-52.36 173.37,-49.56 179,-47 196.39,-39.1 215.92,-30.29 231.44,-23.32"/>
<polygon fill="#63b8ff" stroke="#63b8ff" points="233.31,-26.31 241,-19.02 230.44,-19.93 233.31,-26.31"/>
<g id="a_edge5&#45;headlabel"><a xlink:href="dir_000009_000006.html" target="_top" xlink:title="2">
<text text-anchor="middle" x="231.2" y="-27.87" font-family="Helvetica,sans-Serif" font-size="10.00" fill="#63b8ff">2</text>
</a>
</g>
</g>
<!-- dir_45f09f16d23eb05e0a5eb01b1b9e44e3 -->
<g id="node6" class="node">
<title>dir_45f09f16d23eb05e0a5eb01b1b9e44e3</title>
<g id="a_node6"><a xlink:href="dir_45f09f16d23eb05e0a5eb01b1b9e44e3.html" target="_top" xlink:title="WillyWeather">
<polygon fill="#a2b4d6" stroke="#404040" points="98,-74 16,-74 16,-55 98,-55 98,-74"/>
<text text-anchor="middle" x="57" y="-62" font-family="Helvetica,sans-Serif" font-size="10.00">WillyWeather</text>
</a>
</g>
</g>
<!-- dir_45f09f16d23eb05e0a5eb01b1b9e44e3&#45;&gt;dir_d44c64559bbebec7f509842c48db8b23 -->
<g id="edge6" class="edge">
<title>dir_45f09f16d23eb05e0a5eb01b1b9e44e3&#45;&gt;dir_d44c64559bbebec7f509842c48db8b23</title>
<path fill="none" stroke="#63b8ff" d="M81.54,-54.94C89.61,-52.25 98.65,-49.37 107,-47 146.65,-35.75 192.73,-25.08 223.88,-18.21"/>
<polygon fill="#63b8ff" stroke="#63b8ff" points="224.82,-21.59 233.84,-16.03 223.32,-14.75 224.82,-21.59"/>
<g id="a_edge6&#45;headlabel"><a xlink:href="dir_000011_000006.html" target="_top" xlink:title="4">
<text text-anchor="middle" x="221.91" y="-22.63" font-family="Helvetica,sans-Serif" font-size="10.00" fill="#63b8ff">4</text>
</a>
</g>
</g>
</g>
</svg>
