<?xml version="1.0" encoding="UTF-8" standalone="no"?>
<!DOCTYPE svg PUBLIC "-//W3C//DTD SVG 1.1//EN"
 "http://www.w3.org/Graphics/SVG/1.1/DTD/svg11.dtd">
<!-- Generated by graphviz version 2.49.3 (20211027.1534)
 -->
<!-- Title: include Pages: 1 -->
<svg width="361pt" height="148pt"
 viewBox="0.00 0.00 361.00 148.00" xmlns="http://www.w3.org/2000/svg" xmlns:xlink="http://www.w3.org/1999/xlink">
<g id="graph0" class="graph" transform="scale(1 1) rotate(0) translate(4 144)">
<title>include</title>
<g id="clust1" class="cluster">
<title>clusterdir_d44c64559bbebec7f509842c48db8b23</title>
<g id="a_clust1"><a xlink:href="dir_d44c64559bbebec7f509842c48db8b23.html" target="_top">
<polygon fill="#eeeeff" stroke="black" points="8,-8 8,-132 345,-132 345,-8 8,-8"/>
</a>
</g>
</g>
<!-- dir_d44c64559bbebec7f509842c48db8b23 -->
<g id="node1" class="node">
<title>dir_d44c64559bbebec7f509842c48db8b23</title>
<text text-anchor="middle" x="180" y="-103.5" font-family="Helvetica,sans-Serif" font-size="10.00">include</text>
</g>
<!-- dir_96b38e25f21e2e9b69a9d7bd73c709d0 -->
<g id="node2" class="node">
<title>dir_96b38e25f21e2e9b69a9d7bd73c709d0</title>
<g id="a_node2"><a xlink:href="dir_96b38e25f21e2e9b69a9d7bd73c709d0.html" target="_top" xlink:title="FoodAuthority">
<polygon fill="white" stroke="black" points="93.5,-52 16.5,-52 16.5,-16 93.5,-16 93.5,-52"/>
<text text-anchor="middle" x="55" y="-31.5" font-family="Helvetica,sans-Serif" font-size="10.00">FoodAuthority</text>
</a>
</g>
</g>
<!-- dir_d44c64559bbebec7f509842c48db8b23&#45;&gt;dir_96b38e25f21e2e9b69a9d7bd73c709d0 -->
<g id="edge3" class="edge">
<title>dir_d44c64559bbebec7f509842c48db8b23&#45;&gt;dir_96b38e25f21e2e9b69a9d7bd73c709d0</title>
<path fill="none" stroke="black" d="M152.88,-89.81C135.77,-80.23 113.39,-67.7 94.34,-57.03"/>
<polygon fill="black" stroke="black" points="96.02,-53.96 85.58,-52.13 92.6,-60.07 96.02,-53.96"/>
<g id="a_edge3&#45;headlabel"><a xlink:href="dir_000000_000001.html" target="_top" xlink:title="1">
<text text-anchor="middle" x="100.54" y="-50.74" font-family="Helvetica,sans-Serif" font-size="10.00">1</text>
</a>
</g>
</g>
<!-- dir_9b8fd3d69110b266c7af2370f625b617 -->
<g id="node3" class="node">
<title>dir_9b8fd3d69110b266c7af2370f625b617</title>
<g id="a_node3"><a xlink:href="dir_9b8fd3d69110b266c7af2370f625b617.html" target="_top" xlink:title="IBM_EMS">
<polygon fill="white" stroke="black" points="172.5,-52 111.5,-52 111.5,-16 172.5,-16 172.5,-52"/>
<text text-anchor="middle" x="142" y="-31.5" font-family="Helvetica,sans-Serif" font-size="10.00">IBM_EMS</text>
</a>
</g>
</g>
<!-- dir_d44c64559bbebec7f509842c48db8b23&#45;&gt;dir_9b8fd3d69110b266c7af2370f625b617 -->
<g id="edge4" class="edge">
<title>dir_d44c64559bbebec7f509842c48db8b23&#45;&gt;dir_9b8fd3d69110b266c7af2370f625b617</title>
<path fill="none" stroke="black" d="M170.61,-87.7C166.24,-79.64 160.94,-69.89 156.1,-60.98"/>
<polygon fill="black" stroke="black" points="159.13,-59.22 151.29,-52.1 152.98,-62.56 159.13,-59.22"/>
<g id="a_edge4&#45;headlabel"><a xlink:href="dir_000000_000002.html" target="_top" xlink:title="1">
<text text-anchor="middle" x="163.34" y="-58.53" font-family="Helvetica,sans-Serif" font-size="10.00">1</text>
</a>
</g>
</g>
<!-- dir_27d6a9a3bd4382de9ff402649d185650 -->
<g id="node4" class="node">
<title>dir_27d6a9a3bd4382de9ff402649d185650</title>
<g id="a_node4"><a xlink:href="dir_27d6a9a3bd4382de9ff402649d185650.html" target="_top" xlink:title="Ubidots">
<polygon fill="white" stroke="black" points="245,-52 191,-52 191,-16 245,-16 245,-52"/>
<text text-anchor="middle" x="218" y="-31.5" font-family="Helvetica,sans-Serif" font-size="10.00">Ubidots</text>
</a>
</g>
</g>
<!-- dir_d44c64559bbebec7f509842c48db8b23&#45;&gt;dir_27d6a9a3bd4382de9ff402649d185650 -->
<g id="edge1" class="edge">
<title>dir_d44c64559bbebec7f509842c48db8b23&#45;&gt;dir_27d6a9a3bd4382de9ff402649d185650</title>
<path fill="none" stroke="black" d="M189.39,-87.7C193.76,-79.64 199.06,-69.89 203.9,-60.98"/>
<polygon fill="black" stroke="black" points="207.02,-62.56 208.71,-52.1 200.87,-59.22 207.02,-62.56"/>
<g id="a_edge1&#45;headlabel"><a xlink:href="dir_000000_000003.html" target="_top" xlink:title="1">
<text text-anchor="middle" x="207.8" y="-64.58" font-family="Helvetica,sans-Serif" font-size="10.00">1</text>
</a>
</g>
</g>
<!-- dir_526511df6d4a33c97e43e57d3602e3da -->
<g id="node5" class="node">
<title>dir_526511df6d4a33c97e43e57d3602e3da</title>
<g id="a_node5"><a xlink:href="dir_526511df6d4a33c97e43e57d3602e3da.html" target="_top" xlink:title="WillyWeather">
<polygon fill="white" stroke="black" points="336.5,-52 263.5,-52 263.5,-16 336.5,-16 336.5,-52"/>
<text text-anchor="middle" x="300" y="-31.5" font-family="Helvetica,sans-Serif" font-size="10.00">WillyWeather</text>
</a>
</g>
</g>
<!-- dir_d44c64559bbebec7f509842c48db8b23&#45;&gt;dir_526511df6d4a33c97e43e57d3602e3da -->
<g id="edge2" class="edge">
<title>dir_d44c64559bbebec7f509842c48db8b23&#45;&gt;dir_526511df6d4a33c97e43e57d3602e3da</title>
<path fill="none" stroke="black" d="M207.23,-89.12C223.36,-79.7 244.06,-67.63 261.81,-57.28"/>
<polygon fill="black" stroke="black" points="263.91,-60.11 270.78,-52.04 260.38,-54.06 263.91,-60.11"/>
<g id="a_edge2&#45;headlabel"><a xlink:href="dir_000000_000004.html" target="_top" xlink:title="1">
<text text-anchor="middle" x="262.23" y="-61.87" font-family="Helvetica,sans-Serif" font-size="10.00">1</text>
</a>
</g>
</g>
</g>
</svg>
