<?xml version="1.0" encoding="UTF-8" standalone="no"?>
<!DOCTYPE svg PUBLIC "-//W3C//DTD SVG 1.1//EN"
 "http://www.w3.org/Graphics/SVG/1.1/DTD/svg11.dtd">
<!-- Generated by graphviz version 2.49.3 (20211027.1534)
 -->
<!-- Title: include Pages: 1 -->
<svg width="428pt" height="148pt"
 viewBox="0.00 0.00 428.00 148.00" xmlns="http://www.w3.org/2000/svg" xmlns:xlink="http://www.w3.org/1999/xlink">
<g id="graph0" class="graph" transform="scale(1 1) rotate(0) translate(4 144)">
<title>include</title>
<g id="clust1" class="cluster">
<title>clusterdir_d44c64559bbebec7f509842c48db8b23</title>
<g id="a_clust1"><a xlink:href="dir_d44c64559bbebec7f509842c48db8b23.html" target="_top">
<polygon fill="#eeeeff" stroke="black" points="8,-8 8,-132 412,-132 412,-8 8,-8"/>
</a>
</g>
</g>
<!-- dir_d44c64559bbebec7f509842c48db8b23 -->
<g id="node1" class="node">
<title>dir_d44c64559bbebec7f509842c48db8b23</title>
<text text-anchor="middle" x="212" y="-103.5" font-family="Helvetica,sans-Serif" font-size="10.00">include</text>
</g>
<!-- dir_fe989704db714b4572d9eabbbeeb86b1 -->
<g id="node2" class="node">
<title>dir_fe989704db714b4572d9eabbbeeb86b1</title>
<g id="a_node2"><a xlink:href="dir_fe989704db714b4572d9eabbbeeb86b1.html" target="_top" xlink:title="BOM">
<polygon fill="white" stroke="black" points="70,-52 16,-52 16,-16 70,-16 70,-52"/>
<text text-anchor="middle" x="43" y="-31.5" font-family="Helvetica,sans-Serif" font-size="10.00">BOM</text>
</a>
</g>
</g>
<!-- dir_d44c64559bbebec7f509842c48db8b23&#45;&gt;dir_fe989704db714b4572d9eabbbeeb86b1 -->
<g id="edge5" class="edge">
<title>dir_d44c64559bbebec7f509842c48db8b23&#45;&gt;dir_fe989704db714b4572d9eabbbeeb86b1</title>
<path fill="none" stroke="black" d="M184.79,-94.52C157.99,-84.1 115.96,-67.47 80,-52 79.8,-51.91 79.59,-51.83 79.39,-51.74"/>
<polygon fill="black" stroke="black" points="80.57,-48.43 70.01,-47.59 77.74,-54.84 80.57,-48.43"/>
<g id="a_edge5&#45;headlabel"><a xlink:href="dir_000000_000001.html" target="_top" xlink:title="2">
<text text-anchor="middle" x="85.01" y="-44.79" font-family="Helvetica,sans-Serif" font-size="10.00">2</text>
</a>
</g>
</g>
<!-- dir_96b38e25f21e2e9b69a9d7bd73c709d0 -->
<g id="node3" class="node">
<title>dir_96b38e25f21e2e9b69a9d7bd73c709d0</title>
<g id="a_node3"><a xlink:href="dir_96b38e25f21e2e9b69a9d7bd73c709d0.html" target="_top" xlink:title="FoodAuthority">
<polygon fill="white" stroke="black" points="165.5,-52 88.5,-52 88.5,-16 165.5,-16 165.5,-52"/>
<text text-anchor="middle" x="127" y="-31.5" font-family="Helvetica,sans-Serif" font-size="10.00">FoodAuthority</text>
</a>
</g>
</g>
<!-- dir_d44c64559bbebec7f509842c48db8b23&#45;&gt;dir_96b38e25f21e2e9b69a9d7bd73c709d0 -->
<g id="edge4" class="edge">
<title>dir_d44c64559bbebec7f509842c48db8b23&#45;&gt;dir_96b38e25f21e2e9b69a9d7bd73c709d0</title>
<path fill="none" stroke="black" d="M190.99,-87.7C180.28,-78.88 167.11,-68.03 155.5,-58.47"/>
<polygon fill="black" stroke="black" points="157.71,-55.76 147.77,-52.1 153.26,-61.16 157.71,-55.76"/>
<g id="a_edge4&#45;headlabel"><a xlink:href="dir_000000_000002.html" target="_top" xlink:title="2">
<text text-anchor="middle" x="162.29" y="-53.35" font-family="Helvetica,sans-Serif" font-size="10.00">2</text>
</a>
</g>
</g>
<!-- dir_437e5c816725a9ecfd3972f435d51417 -->
<g id="node4" class="node">
<title>dir_437e5c816725a9ecfd3972f435d51417</title>
<g id="a_node4"><a xlink:href="dir_437e5c816725a9ecfd3972f435d51417.html" target="_top" xlink:title="IBM_EIS">
<polygon fill="white" stroke="black" points="240,-52 184,-52 184,-16 240,-16 240,-52"/>
<text text-anchor="middle" x="212" y="-31.5" font-family="Helvetica,sans-Serif" font-size="10.00">IBM_EIS</text>
</a>
</g>
</g>
<!-- dir_d44c64559bbebec7f509842c48db8b23&#45;&gt;dir_437e5c816725a9ecfd3972f435d51417 -->
<g id="edge2" class="edge">
<title>dir_d44c64559bbebec7f509842c48db8b23&#45;&gt;dir_437e5c816725a9ecfd3972f435d51417</title>
<path fill="none" stroke="black" d="M212,-87.7C212,-79.98 212,-70.71 212,-62.11"/>
<polygon fill="black" stroke="black" points="215.5,-62.1 212,-52.1 208.5,-62.1 215.5,-62.1"/>
<g id="a_edge2&#45;headlabel"><a xlink:href="dir_000000_000003.html" target="_top" xlink:title="2">
<text text-anchor="middle" x="218.34" y="-63.2" font-family="Helvetica,sans-Serif" font-size="10.00">2</text>
</a>
</g>
</g>
<!-- dir_27d6a9a3bd4382de9ff402649d185650 -->
<g id="node5" class="node">
<title>dir_27d6a9a3bd4382de9ff402649d185650</title>
<g id="a_node5"><a xlink:href="dir_27d6a9a3bd4382de9ff402649d185650.html" target="_top" xlink:title="Ubidots">
<polygon fill="white" stroke="black" points="312,-52 258,-52 258,-16 312,-16 312,-52"/>
<text text-anchor="middle" x="285" y="-31.5" font-family="Helvetica,sans-Serif" font-size="10.00">Ubidots</text>
</a>
</g>
</g>
<!-- dir_d44c64559bbebec7f509842c48db8b23&#45;&gt;dir_27d6a9a3bd4382de9ff402649d185650 -->
<g id="edge1" class="edge">
<title>dir_d44c64559bbebec7f509842c48db8b23&#45;&gt;dir_27d6a9a3bd4382de9ff402649d185650</title>
<path fill="none" stroke="black" d="M230.04,-87.7C239.06,-79.05 250.12,-68.45 259.94,-59.03"/>
<polygon fill="black" stroke="black" points="262.37,-61.55 267.16,-52.1 257.52,-56.5 262.37,-61.55"/>
<g id="a_edge1&#45;headlabel"><a xlink:href="dir_000000_000004.html" target="_top" xlink:title="1">
<text text-anchor="middle" x="261.74" y="-63.59" font-family="Helvetica,sans-Serif" font-size="10.00">1</text>
</a>
</g>
</g>
<!-- dir_526511df6d4a33c97e43e57d3602e3da -->
<g id="node6" class="node">
<title>dir_526511df6d4a33c97e43e57d3602e3da</title>
<g id="a_node6"><a xlink:href="dir_526511df6d4a33c97e43e57d3602e3da.html" target="_top" xlink:title="WillyWeather">
<polygon fill="white" stroke="black" points="403.5,-52 330.5,-52 330.5,-16 403.5,-16 403.5,-52"/>
<text text-anchor="middle" x="367" y="-31.5" font-family="Helvetica,sans-Serif" font-size="10.00">WillyWeather</text>
</a>
</g>
</g>
<!-- dir_d44c64559bbebec7f509842c48db8b23&#45;&gt;dir_526511df6d4a33c97e43e57d3602e3da -->
<g id="edge3" class="edge">
<title>dir_d44c64559bbebec7f509842c48db8b23&#45;&gt;dir_526511df6d4a33c97e43e57d3602e3da</title>
<path fill="none" stroke="black" d="M239.35,-92.65C261.98,-82.43 294.59,-67.7 321.19,-55.69"/>
<polygon fill="black" stroke="black" points="322.65,-58.87 330.32,-51.57 319.77,-52.49 322.65,-58.87"/>
<g id="a_edge3&#45;headlabel"><a xlink:href="dir_000000_000005.html" target="_top" xlink:title="3">
<text text-anchor="middle" x="320.54" y="-60.44" font-family="Helvetica,sans-Serif" font-size="10.00">3</text>
</a>
</g>
</g>
</g>
</svg>
