<?xml version="1.0" encoding="UTF-8" standalone="no"?>
<!DOCTYPE svg PUBLIC "-//W3C//DTD SVG 1.1//EN"
 "http://www.w3.org/Graphics/SVG/1.1/DTD/svg11.dtd">
<!-- Generated by graphviz version 2.49.3 (20211027.1534)
 -->
<!-- Title: src/FoodAuthority/food_auth.c Pages: 1 -->
<svg width="525pt" height="218pt"
 viewBox="0.00 0.00 525.00 218.00" xmlns="http://www.w3.org/2000/svg" xmlns:xlink="http://www.w3.org/1999/xlink">
<g id="graph0" class="graph" transform="scale(1 1) rotate(0) translate(4 214)">
<title>src/FoodAuthority/food_auth.c</title>
<!-- Node1 -->
<g id="node1" class="node">
<title>Node1</title>
<g id="a_node1"><a xlink:title=" ">
<polygon fill="#bfbfbf" stroke="black" points="120,-179.5 120,-209.5 235,-209.5 235,-179.5 120,-179.5"/>
<text text-anchor="start" x="128" y="-197.5" font-family="Helvetica,sans-Serif" font-size="10.00">src/FoodAuthority/food</text>
<text text-anchor="middle" x="177.5" y="-186.5" font-family="Helvetica,sans-Serif" font-size="10.00">_auth.c</text>
</a>
</g>
</g>
<!-- Node2 -->
<g id="node2" class="node">
<title>Node2</title>
<g id="a_node2"><a xlink:href="food__auth_8h.html" target="_top" xlink:title=" ">
<polygon fill="none" stroke="black" points="128.5,-112.5 128.5,-142.5 226.5,-142.5 226.5,-112.5 128.5,-112.5"/>
<text text-anchor="start" x="136.5" y="-130.5" font-family="Helvetica,sans-Serif" font-size="10.00">FoodAuthority/food</text>
<text text-anchor="middle" x="177.5" y="-119.5" font-family="Helvetica,sans-Serif" font-size="10.00">_auth.h</text>
</a>
</g>
</g>
<!-- Node1&#45;&gt;Node2 -->
<g id="edge1" class="edge">
<title>Node1&#45;&gt;Node2</title>
<path fill="none" stroke="midnightblue" d="M177.5,-179.4C177.5,-171.64 177.5,-161.81 177.5,-152.86"/>
<polygon fill="midnightblue" stroke="midnightblue" points="181,-152.58 177.5,-142.58 174,-152.58 181,-152.58"/>
</g>
<!-- Node3 -->
<g id="node3" class="node">
<title>Node3</title>
<g id="a_node3"><a xlink:title=" ">
<polygon fill="none" stroke="#bfbfbf" points="0,-0.5 0,-19.5 59,-19.5 59,-0.5 0,-0.5"/>
<text text-anchor="middle" x="29.5" y="-7.5" font-family="Helvetica,sans-Serif" font-size="10.00">curl/curl.h</text>
</a>
</g>
</g>
<!-- Node2&#45;&gt;Node3 -->
<g id="edge2" class="edge">
<title>Node2&#45;&gt;Node3</title>
<path fill="none" stroke="midnightblue" d="M159.35,-112.34C131.23,-90.39 77.39,-48.37 48.66,-25.95"/>
<polygon fill="midnightblue" stroke="midnightblue" points="50.65,-23.06 40.61,-19.67 46.34,-28.58 50.65,-23.06"/>
</g>
<!-- Node4 -->
<g id="node4" class="node">
<title>Node4</title>
<g id="a_node4"><a xlink:title=" ">
<polygon fill="none" stroke="#bfbfbf" points="77,-0.5 77,-19.5 160,-19.5 160,-0.5 77,-0.5"/>
<text text-anchor="middle" x="118.5" y="-7.5" font-family="Helvetica,sans-Serif" font-size="10.00">cjson/cJSON.h</text>
</a>
</g>
</g>
<!-- Node2&#45;&gt;Node4 -->
<g id="edge3" class="edge">
<title>Node2&#45;&gt;Node4</title>
<path fill="none" stroke="midnightblue" d="M170.27,-112.34C159.49,-91.24 139.24,-51.6 127.52,-28.65"/>
<polygon fill="midnightblue" stroke="midnightblue" points="130.59,-26.98 122.93,-19.67 124.36,-30.17 130.59,-26.98"/>
</g>
<!-- Node5 -->
<g id="node5" class="node">
<title>Node5</title>
<g id="a_node5"><a xlink:title=" ">
<polygon fill="none" stroke="#bfbfbf" points="242,-56.5 242,-75.5 285,-75.5 285,-56.5 242,-56.5"/>
<text text-anchor="middle" x="263.5" y="-63.5" font-family="Helvetica,sans-Serif" font-size="10.00">time.h</text>
</a>
</g>
</g>
<!-- Node2&#45;&gt;Node5 -->
<g id="edge4" class="edge">
<title>Node2&#45;&gt;Node5</title>
<path fill="none" stroke="midnightblue" d="M197.88,-112.4C211.41,-103.04 229.11,-90.79 242.72,-81.38"/>
<polygon fill="midnightblue" stroke="midnightblue" points="244.75,-84.23 250.99,-75.66 240.77,-78.47 244.75,-84.23"/>
</g>
<!-- Node6 -->
<g id="node6" class="node">
<title>Node6</title>
<g id="a_node6"><a xlink:href="utils_8h.html" target="_top" xlink:title=" ">
<polygon fill="none" stroke="black" points="181.5,-56.5 181.5,-75.5 223.5,-75.5 223.5,-56.5 181.5,-56.5"/>
<text text-anchor="middle" x="202.5" y="-63.5" font-family="Helvetica,sans-Serif" font-size="10.00">utils.h</text>
</a>
</g>
</g>
<!-- Node2&#45;&gt;Node6 -->
<g id="edge5" class="edge">
<title>Node2&#45;&gt;Node6</title>
<path fill="none" stroke="midnightblue" d="M183.42,-112.4C186.87,-104.2 191.25,-93.78 194.94,-84.99"/>
<polygon fill="midnightblue" stroke="midnightblue" points="198.22,-86.23 198.86,-75.66 191.76,-83.52 198.22,-86.23"/>
</g>
<!-- Node6&#45;&gt;Node3 -->
<g id="edge8" class="edge">
<title>Node6&#45;&gt;Node3</title>
<path fill="none" stroke="midnightblue" d="M181.29,-58.38C152.79,-49.48 101.7,-33.54 66.72,-22.62"/>
<polygon fill="midnightblue" stroke="midnightblue" points="67.47,-19.18 56.88,-19.55 65.38,-25.87 67.47,-19.18"/>
</g>
<!-- Node6&#45;&gt;Node4 -->
<g id="edge9" class="edge">
<title>Node6&#45;&gt;Node4</title>
<path fill="none" stroke="midnightblue" d="M189,-56.32C175.9,-47.9 155.79,-34.97 140.39,-25.07"/>
<polygon fill="midnightblue" stroke="midnightblue" points="142.27,-22.12 131.96,-19.65 138.48,-28.01 142.27,-22.12"/>
</g>
<!-- Node7 -->
<g id="node7" class="node">
<title>Node7</title>
<g id="a_node7"><a xlink:title=" ">
<polygon fill="none" stroke="#bfbfbf" points="470,-0.5 470,-19.5 517,-19.5 517,-0.5 470,-0.5"/>
<text text-anchor="middle" x="493.5" y="-7.5" font-family="Helvetica,sans-Serif" font-size="10.00">stdlib.h</text>
</a>
</g>
</g>
<!-- Node6&#45;&gt;Node7 -->
<g id="edge6" class="edge">
<title>Node6&#45;&gt;Node7</title>
<path fill="none" stroke="midnightblue" d="M223.75,-58.45C227,-57.56 230.33,-56.71 233.5,-56 330.07,-34.41 358.85,-41.02 459.78,-19.93"/>
<polygon fill="midnightblue" stroke="midnightblue" points="460.73,-23.31 469.78,-17.8 459.27,-16.46 460.73,-23.31"/>
</g>
<!-- Node8 -->
<g id="node8" class="node">
<title>Node8</title>
<g id="a_node8"><a xlink:title=" ">
<polygon fill="none" stroke="#bfbfbf" points="178.5,-0.5 178.5,-19.5 226.5,-19.5 226.5,-0.5 178.5,-0.5"/>
<text text-anchor="middle" x="202.5" y="-7.5" font-family="Helvetica,sans-Serif" font-size="10.00">string.h</text>
</a>
</g>
</g>
<!-- Node6&#45;&gt;Node8 -->
<g id="edge7" class="edge">
<title>Node6&#45;&gt;Node8</title>
<path fill="none" stroke="midnightblue" d="M202.5,-56.08C202.5,-49.01 202.5,-38.86 202.5,-29.99"/>
<polygon fill="midnightblue" stroke="midnightblue" points="206,-29.75 202.5,-19.75 199,-29.75 206,-29.75"/>
</g>
<!-- Node9 -->
<g id="node9" class="node">
<title>Node9</title>
<g id="a_node9"><a xlink:title=" ">
<polygon fill="none" stroke="#bfbfbf" points="245,-0.5 245,-19.5 304,-19.5 304,-0.5 245,-0.5"/>
<text text-anchor="middle" x="274.5" y="-7.5" font-family="Helvetica,sans-Serif" font-size="10.00">sys/stat.h</text>
</a>
</g>
</g>
<!-- Node6&#45;&gt;Node9 -->
<g id="edge10" class="edge">
<title>Node6&#45;&gt;Node9</title>
<path fill="none" stroke="midnightblue" d="M214.07,-56.32C224.92,-48.18 241.38,-35.84 254.38,-26.09"/>
<polygon fill="midnightblue" stroke="midnightblue" points="256.82,-28.63 262.72,-19.83 252.62,-23.03 256.82,-28.63"/>
</g>
<!-- Node10 -->
<g id="node10" class="node">
<title>Node10</title>
<g id="a_node10"><a xlink:title=" ">
<polygon fill="none" stroke="#bfbfbf" points="322,-0.5 322,-19.5 387,-19.5 387,-0.5 322,-0.5"/>
<text text-anchor="middle" x="354.5" y="-7.5" font-family="Helvetica,sans-Serif" font-size="10.00">sys/types.h</text>
</a>
</g>
</g>
<!-- Node6&#45;&gt;Node10 -->
<g id="edge11" class="edge">
<title>Node6&#45;&gt;Node10</title>
<path fill="none" stroke="midnightblue" d="M223.63,-57.49C248.85,-48.53 291.3,-33.45 321,-22.9"/>
<polygon fill="midnightblue" stroke="midnightblue" points="322.29,-26.16 330.54,-19.51 319.95,-19.56 322.29,-26.16"/>
</g>
<!-- Node11 -->
<g id="node11" class="node">
<title>Node11</title>
<g id="a_node11"><a xlink:title=" ">
<polygon fill="none" stroke="#bfbfbf" points="405.5,-0.5 405.5,-19.5 451.5,-19.5 451.5,-0.5 405.5,-0.5"/>
<text text-anchor="middle" x="428.5" y="-7.5" font-family="Helvetica,sans-Serif" font-size="10.00">errno.h</text>
</a>
</g>
</g>
<!-- Node6&#45;&gt;Node11 -->
<g id="edge12" class="edge">
<title>Node6&#45;&gt;Node11</title>
<path fill="none" stroke="midnightblue" d="M223.8,-58.62C227.04,-57.71 230.35,-56.8 233.5,-56 302.3,-38.44 322.8,-38.05 395.37,-20.16"/>
<polygon fill="midnightblue" stroke="midnightblue" points="396.61,-23.46 405.47,-17.65 394.92,-16.67 396.61,-23.46"/>
</g>
</g>
</svg>
