<?xml version="1.0" encoding="UTF-8" standalone="no"?>
<!DOCTYPE svg PUBLIC "-//W3C//DTD SVG 1.1//EN"
 "http://www.w3.org/Graphics/SVG/1.1/DTD/svg11.dtd">
<!-- Generated by graphviz version 2.49.3 (20211027.1534)
 -->
<!-- Title: include/FoodAuthority/food_auth.h Pages: 1 -->
<svg width="300pt" height="151pt"
 viewBox="0.00 0.00 299.50 151.00" xmlns="http://www.w3.org/2000/svg" xmlns:xlink="http://www.w3.org/1999/xlink">
<g id="graph0" class="graph" transform="scale(1 1) rotate(0) translate(4 147)">
<title>include/FoodAuthority/food_auth.h</title>
<!-- Node1 -->
<g id="node1" class="node">
<title>Node1</title>
<g id="a_node1"><a xlink:title=" ">
<polygon fill="#bfbfbf" stroke="black" points="38.5,-112.5 38.5,-142.5 148.5,-142.5 148.5,-112.5 38.5,-112.5"/>
<text text-anchor="start" x="46.5" y="-130.5" font-family="Helvetica,sans-Serif" font-size="10.00">include/FoodAuthority</text>
<text text-anchor="middle" x="93.5" y="-119.5" font-family="Helvetica,sans-Serif" font-size="10.00">/food_auth.h</text>
</a>
</g>
</g>
<!-- Node2 -->
<g id="node2" class="node">
<title>Node2</title>
<g id="a_node2"><a xlink:title=" ">
<polygon fill="none" stroke="#bfbfbf" points="0,-0.5 0,-19.5 59,-19.5 59,-0.5 0,-0.5"/>
<text text-anchor="middle" x="29.5" y="-7.5" font-family="Helvetica,sans-Serif" font-size="10.00">curl/curl.h</text>
</a>
</g>
</g>
<!-- Node1&#45;&gt;Node2 -->
<g id="edge1" class="edge">
<title>Node1&#45;&gt;Node2</title>
<path fill="none" stroke="midnightblue" d="M85.65,-112.34C73.96,-91.24 52,-51.6 39.28,-28.65"/>
<polygon fill="midnightblue" stroke="midnightblue" points="42.21,-26.72 34.3,-19.67 36.09,-30.11 42.21,-26.72"/>
</g>
<!-- Node3 -->
<g id="node3" class="node">
<title>Node3</title>
<g id="a_node3"><a xlink:title=" ">
<polygon fill="none" stroke="#bfbfbf" points="77,-0.5 77,-19.5 160,-19.5 160,-0.5 77,-0.5"/>
<text text-anchor="middle" x="118.5" y="-7.5" font-family="Helvetica,sans-Serif" font-size="10.00">cjson/cJSON.h</text>
</a>
</g>
</g>
<!-- Node1&#45;&gt;Node3 -->
<g id="edge2" class="edge">
<title>Node1&#45;&gt;Node3</title>
<path fill="none" stroke="midnightblue" d="M96.57,-112.34C101.07,-91.53 109.48,-52.66 114.48,-29.58"/>
<polygon fill="midnightblue" stroke="midnightblue" points="117.93,-30.18 116.62,-19.67 111.09,-28.7 117.93,-30.18"/>
</g>
<!-- Node4 -->
<g id="node4" class="node">
<title>Node4</title>
<g id="a_node4"><a xlink:href="utils_8h.html" target="_top" xlink:title=" ">
<polygon fill="none" stroke="black" points="121.5,-56.5 121.5,-75.5 163.5,-75.5 163.5,-56.5 121.5,-56.5"/>
<text text-anchor="middle" x="142.5" y="-63.5" font-family="Helvetica,sans-Serif" font-size="10.00">utils.h</text>
</a>
</g>
</g>
<!-- Node1&#45;&gt;Node4 -->
<g id="edge3" class="edge">
<title>Node1&#45;&gt;Node4</title>
<path fill="none" stroke="midnightblue" d="M105.11,-112.4C112.23,-103.75 121.38,-92.64 128.85,-83.58"/>
<polygon fill="midnightblue" stroke="midnightblue" points="131.71,-85.6 135.37,-75.66 126.31,-81.15 131.71,-85.6"/>
</g>
<!-- Node4&#45;&gt;Node2 -->
<g id="edge6" class="edge">
<title>Node4&#45;&gt;Node2</title>
<path fill="none" stroke="midnightblue" d="M124.59,-56.44C106.25,-47.68 77.49,-33.94 56.41,-23.86"/>
<polygon fill="midnightblue" stroke="midnightblue" points="57.85,-20.67 47.32,-19.52 54.83,-26.99 57.85,-20.67"/>
</g>
<!-- Node4&#45;&gt;Node3 -->
<g id="edge7" class="edge">
<title>Node4&#45;&gt;Node3</title>
<path fill="none" stroke="midnightblue" d="M138.54,-56.08C135.29,-48.77 130.58,-38.18 126.55,-29.1"/>
<polygon fill="midnightblue" stroke="midnightblue" points="129.65,-27.47 122.39,-19.75 123.25,-30.31 129.65,-27.47"/>
</g>
<!-- Node5 -->
<g id="node5" class="node">
<title>Node5</title>
<g id="a_node5"><a xlink:title=" ">
<polygon fill="none" stroke="#bfbfbf" points="178,-0.5 178,-19.5 225,-19.5 225,-0.5 178,-0.5"/>
<text text-anchor="middle" x="201.5" y="-7.5" font-family="Helvetica,sans-Serif" font-size="10.00">stdlib.h</text>
</a>
</g>
</g>
<!-- Node4&#45;&gt;Node5 -->
<g id="edge4" class="edge">
<title>Node4&#45;&gt;Node5</title>
<path fill="none" stroke="midnightblue" d="M151.98,-56.32C160.7,-48.34 173.84,-36.31 184.4,-26.65"/>
<polygon fill="midnightblue" stroke="midnightblue" points="186.83,-29.17 191.85,-19.83 182.11,-24 186.83,-29.17"/>
</g>
<!-- Node6 -->
<g id="node6" class="node">
<title>Node6</title>
<g id="a_node6"><a xlink:title=" ">
<polygon fill="none" stroke="#bfbfbf" points="243.5,-0.5 243.5,-19.5 291.5,-19.5 291.5,-0.5 243.5,-0.5"/>
<text text-anchor="middle" x="267.5" y="-7.5" font-family="Helvetica,sans-Serif" font-size="10.00">string.h</text>
</a>
</g>
</g>
<!-- Node4&#45;&gt;Node6 -->
<g id="edge5" class="edge">
<title>Node4&#45;&gt;Node6</title>
<path fill="none" stroke="midnightblue" d="M162.31,-56.44C182.79,-47.6 214.98,-33.69 238.36,-23.59"/>
<polygon fill="midnightblue" stroke="midnightblue" points="239.99,-26.7 247.79,-19.52 237.22,-20.27 239.99,-26.7"/>
</g>
</g>
</svg>
