<?xml version="1.0" encoding="UTF-8" standalone="no"?>
<!DOCTYPE svg PUBLIC "-//W3C//DTD SVG 1.1//EN"
 "http://www.w3.org/Graphics/SVG/1.1/DTD/svg11.dtd">
<!-- Generated by graphviz version 2.43.0 (0)
 -->
<!-- Title: include/WillyWeather/forecast.h Pages: 1 -->
<svg width="435pt" height="214pt"
 viewBox="0.00 0.00 434.50 214.00" xmlns="http://www.w3.org/2000/svg" xmlns:xlink="http://www.w3.org/1999/xlink">
<g id="graph0" class="graph" transform="scale(1 1) rotate(0) translate(4 210)">
<title>include/WillyWeather/forecast.h</title>
<!-- Node1 -->
<g id="node1" class="node">
<title>Node1</title>
<g id="a_node1"><a xlink:title=" ">
<polygon fill="#999999" stroke="#666666" points="289,-206 169,-206 169,-176 289,-176 289,-206"/>
<text text-anchor="start" x="177" y="-194" font-family="Helvetica,sans-Serif" font-size="10.00">include/WillyWeather</text>
<text text-anchor="middle" x="229" y="-183" font-family="Helvetica,sans-Serif" font-size="10.00">/forecast.h</text>
</a>
</g>
</g>
<!-- Node2 -->
<g id="node2" class="node">
<title>Node2</title>
<g id="a_node2"><a xlink:href="precipitation_8h.html" target="_top" xlink:title=" ">
<polygon fill="white" stroke="#666666" points="220,-140 100,-140 100,-110 220,-110 220,-140"/>
<text text-anchor="start" x="108" y="-128" font-family="Helvetica,sans-Serif" font-size="10.00">include/WillyWeather</text>
<text text-anchor="middle" x="160" y="-117" font-family="Helvetica,sans-Serif" font-size="10.00">/precipitation.h</text>
</a>
</g>
</g>
<!-- Node1&#45;&gt;Node2 -->
<g id="edge1" class="edge">
<title>Node1&#45;&gt;Node2</title>
<path fill="none" stroke="#63b8ff" d="M206.28,-168.92C196.1,-159.49 184.37,-148.61 175.27,-140.16"/>
<polygon fill="#63b8ff" stroke="#63b8ff" points="203.97,-171.56 213.69,-175.8 208.74,-166.43 203.97,-171.56"/>
</g>
<!-- Node6 -->
<g id="node6" class="node">
<title>Node6</title>
<g id="a_node6"><a xlink:href="tide_8h.html" target="_top" xlink:title=" ">
<polygon fill="white" stroke="#666666" points="358,-140 238,-140 238,-110 358,-110 358,-140"/>
<text text-anchor="start" x="246" y="-128" font-family="Helvetica,sans-Serif" font-size="10.00">include/WillyWeather</text>
<text text-anchor="middle" x="298" y="-117" font-family="Helvetica,sans-Serif" font-size="10.00">/tide.h</text>
</a>
</g>
</g>
<!-- Node1&#45;&gt;Node6 -->
<g id="edge5" class="edge">
<title>Node1&#45;&gt;Node6</title>
<path fill="none" stroke="#63b8ff" d="M251.72,-168.92C261.9,-159.49 273.63,-148.61 282.73,-140.16"/>
<polygon fill="#63b8ff" stroke="#63b8ff" points="249.26,-166.43 244.31,-175.8 254.03,-171.56 249.26,-166.43"/>
</g>
<!-- Node3 -->
<g id="node3" class="node">
<title>Node3</title>
<g id="a_node3"><a xlink:href="main_8h.html" target="_top" xlink:title=" ">
<polygon fill="white" stroke="#666666" points="279.5,-74 190.5,-74 190.5,-55 279.5,-55 279.5,-74"/>
<text text-anchor="middle" x="235" y="-62" font-family="Helvetica,sans-Serif" font-size="10.00">include/main.h</text>
</a>
</g>
</g>
<!-- Node2&#45;&gt;Node3 -->
<g id="edge2" class="edge">
<title>Node2&#45;&gt;Node3</title>
<path fill="none" stroke="#63b8ff" d="M186.24,-103.53C199.09,-93.51 213.87,-81.98 223.76,-74.27"/>
<polygon fill="#63b8ff" stroke="#63b8ff" points="183.89,-100.93 178.16,-109.84 188.19,-106.45 183.89,-100.93"/>
</g>
<!-- Node5 -->
<g id="node5" class="node">
<title>Node5</title>
<g id="a_node5"><a xlink:href="precipitation_8c.html" target="_top" xlink:title=" ">
<polygon fill="white" stroke="#666666" points="172,-74 0,-74 0,-55 172,-55 172,-74"/>
<text text-anchor="middle" x="86" y="-62" font-family="Helvetica,sans-Serif" font-size="10.00">src/WillyWeather/precipitation.c</text>
</a>
</g>
</g>
<!-- Node2&#45;&gt;Node5 -->
<g id="edge4" class="edge">
<title>Node2&#45;&gt;Node5</title>
<path fill="none" stroke="#63b8ff" d="M134.11,-103.53C121.43,-93.51 106.85,-81.98 97.09,-74.27"/>
<polygon fill="#63b8ff" stroke="#63b8ff" points="132.07,-106.38 142.09,-109.84 136.41,-100.89 132.07,-106.38"/>
</g>
<!-- Node4 -->
<g id="node4" class="node">
<title>Node4</title>
<g id="a_node4"><a xlink:href="main_8c.html" target="_top" xlink:title=" ">
<polygon fill="white" stroke="#666666" points="268.5,-19 201.5,-19 201.5,0 268.5,0 268.5,-19"/>
<text text-anchor="middle" x="235" y="-7" font-family="Helvetica,sans-Serif" font-size="10.00">src/main.c</text>
</a>
</g>
</g>
<!-- Node3&#45;&gt;Node4 -->
<g id="edge3" class="edge">
<title>Node3&#45;&gt;Node4</title>
<path fill="none" stroke="#63b8ff" d="M235,-44.66C235,-35.93 235,-25.99 235,-19.09"/>
<polygon fill="#63b8ff" stroke="#63b8ff" points="231.5,-44.75 235,-54.75 238.5,-44.75 231.5,-44.75"/>
</g>
<!-- Node6&#45;&gt;Node3 -->
<g id="edge6" class="edge">
<title>Node6&#45;&gt;Node3</title>
<path fill="none" stroke="#63b8ff" d="M275.34,-102.96C264.7,-93.07 252.59,-81.83 244.44,-74.27"/>
<polygon fill="#63b8ff" stroke="#63b8ff" points="273.04,-105.6 282.75,-109.84 277.8,-100.47 273.04,-105.6"/>
</g>
<!-- Node7 -->
<g id="node7" class="node">
<title>Node7</title>
<g id="a_node7"><a xlink:href="tide_8c.html" target="_top" xlink:title=" ">
<polygon fill="white" stroke="#666666" points="426.5,-74 297.5,-74 297.5,-55 426.5,-55 426.5,-74"/>
<text text-anchor="middle" x="362" y="-62" font-family="Helvetica,sans-Serif" font-size="10.00">src/WillyWeather/tide.c</text>
</a>
</g>
</g>
<!-- Node6&#45;&gt;Node7 -->
<g id="edge7" class="edge">
<title>Node6&#45;&gt;Node7</title>
<path fill="none" stroke="#63b8ff" d="M321.02,-102.96C331.83,-93.07 344.13,-81.83 352.41,-74.27"/>
<polygon fill="#63b8ff" stroke="#63b8ff" points="318.51,-100.51 313.49,-109.84 323.24,-105.68 318.51,-100.51"/>
</g>
</g>
</svg>
