<?xml version="1.0" encoding="UTF-8" standalone="no"?>
<!DOCTYPE svg PUBLIC "-//W3C//DTD SVG 1.1//EN"
 "http://www.w3.org/Graphics/SVG/1.1/DTD/svg11.dtd">
<!-- Generated by graphviz version 2.49.3 (20211027.1534)
 -->
<!-- Title: include/ftp.h Pages: 1 -->
<svg width="518pt" height="274pt"
 viewBox="0.00 0.00 517.50 274.00" xmlns="http://www.w3.org/2000/svg" xmlns:xlink="http://www.w3.org/1999/xlink">
<g id="graph0" class="graph" transform="scale(1 1) rotate(0) translate(4 270)">
<title>include/ftp.h</title>
<!-- Node1 -->
<g id="node1" class="node">
<title>Node1</title>
<g id="a_node1"><a xlink:title=" ">
<polygon fill="#bfbfbf" stroke="black" points="291,-246.5 291,-265.5 360,-265.5 360,-246.5 291,-246.5"/>
<text text-anchor="middle" x="325.5" y="-253.5" font-family="Helvetica,sans-Serif" font-size="10.00">include/ftp.h</text>
</a>
</g>
</g>
<!-- Node2 -->
<g id="node2" class="node">
<title>Node2</title>
<g id="a_node2"><a xlink:href="historical__weather_8h.html" target="_top" xlink:title=" ">
<polygon fill="none" stroke="black" points="0,-123.5 0,-153.5 115,-153.5 115,-123.5 0,-123.5"/>
<text text-anchor="start" x="8" y="-141.5" font-family="Helvetica,sans-Serif" font-size="10.00">include/BOM/historical</text>
<text text-anchor="middle" x="57.5" y="-130.5" font-family="Helvetica,sans-Serif" font-size="10.00">_weather.h</text>
</a>
</g>
</g>
<!-- Node1&#45;&gt;Node2 -->
<g id="edge1" class="edge">
<title>Node1&#45;&gt;Node2</title>
<path fill="none" stroke="midnightblue" d="M280.74,-247.93C245.29,-241.23 195.14,-229.28 154.5,-210 123.09,-195.1 91.38,-169.64 73.13,-153.74"/>
<polygon fill="midnightblue" stroke="midnightblue" points="280.31,-251.41 290.78,-249.76 281.57,-244.52 280.31,-251.41"/>
</g>
<!-- Node3 -->
<g id="node3" class="node">
<title>Node3</title>
<g id="a_node3"><a xlink:href="main_8h.html" target="_top" xlink:title=" ">
<polygon fill="none" stroke="black" points="155,-62 155,-81 234,-81 234,-62 155,-62"/>
<text text-anchor="middle" x="194.5" y="-69" font-family="Helvetica,sans-Serif" font-size="10.00">include/main.h</text>
</a>
</g>
</g>
<!-- Node1&#45;&gt;Node3 -->
<g id="edge12" class="edge">
<title>Node1&#45;&gt;Node3</title>
<path fill="none" stroke="midnightblue" d="M347.45,-240.21C382.05,-215.11 442.22,-162.99 410.5,-123 404.98,-116.04 295.22,-92.88 234.34,-80.49"/>
<polygon fill="midnightblue" stroke="midnightblue" points="345.03,-237.64 338.87,-246.27 349.06,-243.36 345.03,-237.64"/>
</g>
<!-- Node6 -->
<g id="node6" class="node">
<title>Node6</title>
<g id="a_node6"><a xlink:href="stations_8h.html" target="_top" xlink:title=" ">
<polygon fill="none" stroke="black" points="163.5,-190.5 163.5,-209.5 281.5,-209.5 281.5,-190.5 163.5,-190.5"/>
<text text-anchor="middle" x="222.5" y="-197.5" font-family="Helvetica,sans-Serif" font-size="10.00">include/BOM/stations.h</text>
</a>
</g>
</g>
<!-- Node1&#45;&gt;Node6 -->
<g id="edge5" class="edge">
<title>Node1&#45;&gt;Node6</title>
<path fill="none" stroke="midnightblue" d="M299.92,-241.59C280.88,-231.61 255.44,-218.27 239.01,-209.65"/>
<polygon fill="midnightblue" stroke="midnightblue" points="298.47,-244.78 308.95,-246.32 301.72,-238.58 298.47,-244.78"/>
</g>
<!-- Node10 -->
<g id="node10" class="node">
<title>Node10</title>
<g id="a_node10"><a xlink:href="ftp_8c.html" target="_top" xlink:title=" ">
<polygon fill="none" stroke="black" points="457.5,-190.5 457.5,-209.5 509.5,-209.5 509.5,-190.5 457.5,-190.5"/>
<text text-anchor="middle" x="483.5" y="-197.5" font-family="Helvetica,sans-Serif" font-size="10.00">src/ftp.c</text>
</a>
</g>
</g>
<!-- Node1&#45;&gt;Node10 -->
<g id="edge13" class="edge">
<title>Node1&#45;&gt;Node10</title>
<path fill="none" stroke="midnightblue" d="M360.11,-243.17C389.86,-233 432.05,-218.59 458.58,-209.52"/>
<polygon fill="midnightblue" stroke="midnightblue" points="358.87,-239.9 350.54,-246.44 361.13,-246.52 358.87,-239.9"/>
</g>
<!-- Node2&#45;&gt;Node3 -->
<g id="edge2" class="edge">
<title>Node2&#45;&gt;Node3</title>
<path fill="none" stroke="midnightblue" d="M96.56,-118.97C122.88,-106.48 156.36,-90.6 176.57,-81.01"/>
<polygon fill="midnightblue" stroke="midnightblue" points="94.76,-115.95 87.23,-123.4 97.76,-122.27 94.76,-115.95"/>
</g>
<!-- Node5 -->
<g id="node5" class="node">
<title>Node5</title>
<g id="a_node5"><a xlink:href="historical__weather_8c.html" target="_top" xlink:title=" ">
<polygon fill="none" stroke="black" points="8.5,-56.5 8.5,-86.5 106.5,-86.5 106.5,-56.5 8.5,-56.5"/>
<text text-anchor="start" x="16.5" y="-74.5" font-family="Helvetica,sans-Serif" font-size="10.00">src/BOM/historical</text>
<text text-anchor="middle" x="57.5" y="-63.5" font-family="Helvetica,sans-Serif" font-size="10.00">_weather.c</text>
</a>
</g>
</g>
<!-- Node2&#45;&gt;Node5 -->
<g id="edge4" class="edge">
<title>Node2&#45;&gt;Node5</title>
<path fill="none" stroke="midnightblue" d="M57.5,-113.11C57.5,-104.15 57.5,-94.32 57.5,-86.58"/>
<polygon fill="midnightblue" stroke="midnightblue" points="54,-113.4 57.5,-123.4 61,-113.4 54,-113.4"/>
</g>
<!-- Node4 -->
<g id="node4" class="node">
<title>Node4</title>
<g id="a_node4"><a xlink:href="main_8c.html" target="_top" xlink:title=" ">
<polygon fill="none" stroke="black" points="163.5,-0.5 163.5,-19.5 225.5,-19.5 225.5,-0.5 163.5,-0.5"/>
<text text-anchor="middle" x="194.5" y="-7.5" font-family="Helvetica,sans-Serif" font-size="10.00">src/main.c</text>
</a>
</g>
</g>
<!-- Node3&#45;&gt;Node4 -->
<g id="edge3" class="edge">
<title>Node3&#45;&gt;Node4</title>
<path fill="none" stroke="midnightblue" d="M194.5,-51.82C194.5,-41 194.5,-27.9 194.5,-19.51"/>
<polygon fill="midnightblue" stroke="midnightblue" points="191,-51.98 194.5,-61.98 198,-51.98 191,-51.98"/>
</g>
<!-- Node6&#45;&gt;Node2 -->
<g id="edge6" class="edge">
<title>Node6&#45;&gt;Node2</title>
<path fill="none" stroke="midnightblue" d="M189.15,-186.98C162.33,-177.3 124.59,-163.69 96.39,-153.52"/>
<polygon fill="midnightblue" stroke="midnightblue" points="188.27,-190.38 198.86,-190.48 190.64,-183.79 188.27,-190.38"/>
</g>
<!-- Node6&#45;&gt;Node3 -->
<g id="edge10" class="edge">
<title>Node6&#45;&gt;Node3</title>
<path fill="none" stroke="midnightblue" d="M194.21,-185.38C182.11,-177.93 169.23,-167.46 162.5,-154 149.72,-128.44 172.97,-96.47 186.22,-81.29"/>
<polygon fill="midnightblue" stroke="midnightblue" points="192.78,-188.59 203.2,-190.48 196.23,-182.5 192.78,-188.59"/>
</g>
<!-- Node7 -->
<g id="node7" class="node">
<title>Node7</title>
<g id="a_node7"><a xlink:href="harvest__areas_8h.html" target="_top" xlink:title=" ">
<polygon fill="none" stroke="black" points="291.5,-123.5 291.5,-153.5 401.5,-153.5 401.5,-123.5 291.5,-123.5"/>
<text text-anchor="start" x="299.5" y="-141.5" font-family="Helvetica,sans-Serif" font-size="10.00">include/FoodAuthority</text>
<text text-anchor="middle" x="346.5" y="-130.5" font-family="Helvetica,sans-Serif" font-size="10.00">/harvest_areas.h</text>
</a>
</g>
</g>
<!-- Node6&#45;&gt;Node7 -->
<g id="edge7" class="edge">
<title>Node6&#45;&gt;Node7</title>
<path fill="none" stroke="midnightblue" d="M249.45,-186.07C269.46,-176.47 296.74,-163.38 317.28,-153.52"/>
<polygon fill="midnightblue" stroke="midnightblue" points="247.77,-182.99 240.27,-190.48 250.8,-189.3 247.77,-182.99"/>
</g>
<!-- Node9 -->
<g id="node9" class="node">
<title>Node9</title>
<g id="a_node9"><a xlink:href="stations_8c.html" target="_top" xlink:title=" ">
<polygon fill="none" stroke="black" points="172,-129 172,-148 273,-148 273,-129 172,-129"/>
<text text-anchor="middle" x="222.5" y="-136" font-family="Helvetica,sans-Serif" font-size="10.00">src/BOM/stations.c</text>
</a>
</g>
</g>
<!-- Node6&#45;&gt;Node9 -->
<g id="edge11" class="edge">
<title>Node6&#45;&gt;Node9</title>
<path fill="none" stroke="midnightblue" d="M222.5,-180.32C222.5,-169.5 222.5,-156.4 222.5,-148.01"/>
<polygon fill="midnightblue" stroke="midnightblue" points="219,-180.48 222.5,-190.48 226,-180.48 219,-180.48"/>
</g>
<!-- Node7&#45;&gt;Node3 -->
<g id="edge8" class="edge">
<title>Node7&#45;&gt;Node3</title>
<path fill="none" stroke="midnightblue" d="M304.31,-119.46C274.94,-106.9 237.12,-90.72 214.39,-81.01"/>
<polygon fill="midnightblue" stroke="midnightblue" points="302.95,-122.68 313.52,-123.4 305.7,-116.25 302.95,-122.68"/>
</g>
<!-- Node8 -->
<g id="node8" class="node">
<title>Node8</title>
<g id="a_node8"><a xlink:href="harvest__areas_8c.html" target="_top" xlink:title=" ">
<polygon fill="none" stroke="black" points="282.5,-56.5 282.5,-86.5 410.5,-86.5 410.5,-56.5 282.5,-56.5"/>
<text text-anchor="start" x="290.5" y="-74.5" font-family="Helvetica,sans-Serif" font-size="10.00">src/FoodAuthority/harvest</text>
<text text-anchor="middle" x="346.5" y="-63.5" font-family="Helvetica,sans-Serif" font-size="10.00">_areas.c</text>
</a>
</g>
</g>
<!-- Node7&#45;&gt;Node8 -->
<g id="edge9" class="edge">
<title>Node7&#45;&gt;Node8</title>
<path fill="none" stroke="midnightblue" d="M346.5,-113.11C346.5,-104.15 346.5,-94.32 346.5,-86.58"/>
<polygon fill="midnightblue" stroke="midnightblue" points="343,-113.4 346.5,-123.4 350,-113.4 343,-113.4"/>
</g>
</g>
</svg>
