<?xml version="1.0" encoding="UTF-8" standalone="no"?>
<!DOCTYPE svg PUBLIC "-//W3C//DTD SVG 1.1//EN"
 "http://www.w3.org/Graphics/SVG/1.1/DTD/svg11.dtd">
<!-- Generated by graphviz version 2.49.3 (20211027.1534)
 -->
<!-- Title: include/ftp.h Pages: 1 -->
<svg width="644pt" height="341pt"
 viewBox="0.00 0.00 643.71 341.00" xmlns="http://www.w3.org/2000/svg" xmlns:xlink="http://www.w3.org/1999/xlink">
<g id="graph0" class="graph" transform="scale(1 1) rotate(0) translate(4 337)">
<title>include/ftp.h</title>
<!-- Node1 -->
<g id="node1" class="node">
<title>Node1</title>
<g id="a_node1"><a xlink:title=" ">
<polygon fill="#bfbfbf" stroke="black" points="109.21,-313.5 109.21,-332.5 178.21,-332.5 178.21,-313.5 109.21,-313.5"/>
<text text-anchor="middle" x="143.71" y="-320.5" font-family="Helvetica,sans-Serif" font-size="10.00">include/ftp.h</text>
</a>
</g>
</g>
<!-- Node2 -->
<g id="node2" class="node">
<title>Node2</title>
<g id="a_node2"><a xlink:href="historical__weather_8h.html" target="_top" xlink:title=" ">
<polygon fill="none" stroke="black" points="43.21,-190.5 43.21,-220.5 158.21,-220.5 158.21,-190.5 43.21,-190.5"/>
<text text-anchor="start" x="51.21" y="-208.5" font-family="Helvetica,sans-Serif" font-size="10.00">include/BOM/historical</text>
<text text-anchor="middle" x="100.71" y="-197.5" font-family="Helvetica,sans-Serif" font-size="10.00">_weather.h</text>
</a>
</g>
</g>
<!-- Node1&#45;&gt;Node2 -->
<g id="edge1" class="edge">
<title>Node1&#45;&gt;Node2</title>
<path fill="none" stroke="midnightblue" d="M133.15,-304.43C128.57,-296.29 123.42,-286.37 119.71,-277 112.21,-258.02 106.63,-235.03 103.52,-220.58"/>
<polygon fill="midnightblue" stroke="midnightblue" points="130.26,-306.44 138.32,-313.32 136.31,-302.92 130.26,-306.44"/>
</g>
<!-- Node3 -->
<g id="node3" class="node">
<title>Node3</title>
<g id="a_node3"><a xlink:href="main_8h.html" target="_top" xlink:title=" ">
<polygon fill="none" stroke="black" points="166.21,-62 166.21,-81 245.21,-81 245.21,-62 166.21,-62"/>
<text text-anchor="middle" x="205.71" y="-69" font-family="Helvetica,sans-Serif" font-size="10.00">include/main.h</text>
</a>
</g>
</g>
<!-- Node1&#45;&gt;Node3 -->
<g id="edge19" class="edge">
<title>Node1&#45;&gt;Node3</title>
<path fill="none" stroke="midnightblue" d="M121.61,-307.72C72.59,-274.29 -37.05,-188.84 13.71,-123 32.18,-99.05 115.56,-84.2 166.18,-77.23"/>
<polygon fill="midnightblue" stroke="midnightblue" points="119.75,-310.68 130.01,-313.34 123.65,-304.87 119.75,-310.68"/>
</g>
<!-- Node6 -->
<g id="node6" class="node">
<title>Node6</title>
<g id="a_node6"><a xlink:href="stations_8h.html" target="_top" xlink:title=" ">
<polygon fill="none" stroke="black" points="128.71,-257.5 128.71,-276.5 246.71,-276.5 246.71,-257.5 128.71,-257.5"/>
<text text-anchor="middle" x="187.71" y="-264.5" font-family="Helvetica,sans-Serif" font-size="10.00">include/BOM/stations.h</text>
</a>
</g>
</g>
<!-- Node1&#45;&gt;Node6 -->
<g id="edge5" class="edge">
<title>Node1&#45;&gt;Node6</title>
<path fill="none" stroke="midnightblue" d="M157.45,-305.14C165.11,-295.74 174.35,-284.4 180.58,-276.75"/>
<polygon fill="midnightblue" stroke="midnightblue" points="154.58,-303.12 150.98,-313.08 160.01,-307.54 154.58,-303.12"/>
</g>
<!-- Node14 -->
<g id="node14" class="node">
<title>Node14</title>
<g id="a_node14"><a xlink:href="ftp_8c.html" target="_top" xlink:title=" ">
<polygon fill="none" stroke="black" points="264.71,-257.5 264.71,-276.5 316.71,-276.5 316.71,-257.5 264.71,-257.5"/>
<text text-anchor="middle" x="290.71" y="-264.5" font-family="Helvetica,sans-Serif" font-size="10.00">src/ftp.c</text>
</a>
</g>
</g>
<!-- Node1&#45;&gt;Node14 -->
<g id="edge20" class="edge">
<title>Node1&#45;&gt;Node14</title>
<path fill="none" stroke="midnightblue" d="M176.64,-309.91C204.27,-299.75 243.06,-285.51 267.53,-276.52"/>
<polygon fill="midnightblue" stroke="midnightblue" points="175.19,-306.71 167.01,-313.44 177.6,-313.28 175.19,-306.71"/>
</g>
<!-- Node2&#45;&gt;Node3 -->
<g id="edge2" class="edge">
<title>Node2&#45;&gt;Node3</title>
<path fill="none" stroke="midnightblue" d="M118.41,-182.26C142.03,-152.56 182.77,-101.35 198.87,-81.1"/>
<polygon fill="midnightblue" stroke="midnightblue" points="115.44,-180.37 111.95,-190.37 120.91,-184.73 115.44,-180.37"/>
</g>
<!-- Node5 -->
<g id="node5" class="node">
<title>Node5</title>
<g id="a_node5"><a xlink:href="historical__weather_8c.html" target="_top" xlink:title=" ">
<polygon fill="none" stroke="black" points="22.71,-123.5 22.71,-153.5 120.71,-153.5 120.71,-123.5 22.71,-123.5"/>
<text text-anchor="start" x="30.71" y="-141.5" font-family="Helvetica,sans-Serif" font-size="10.00">src/BOM/historical</text>
<text text-anchor="middle" x="71.71" y="-130.5" font-family="Helvetica,sans-Serif" font-size="10.00">_weather.c</text>
</a>
</g>
</g>
<!-- Node2&#45;&gt;Node5 -->
<g id="edge4" class="edge">
<title>Node2&#45;&gt;Node5</title>
<path fill="none" stroke="midnightblue" d="M90.22,-180.99C86.13,-171.8 81.56,-161.58 77.99,-153.58"/>
<polygon fill="midnightblue" stroke="midnightblue" points="87.15,-182.69 94.42,-190.4 93.54,-179.84 87.15,-182.69"/>
</g>
<!-- Node4 -->
<g id="node4" class="node">
<title>Node4</title>
<g id="a_node4"><a xlink:href="main_8c.html" target="_top" xlink:title=" ">
<polygon fill="none" stroke="black" points="174.71,-0.5 174.71,-19.5 236.71,-19.5 236.71,-0.5 174.71,-0.5"/>
<text text-anchor="middle" x="205.71" y="-7.5" font-family="Helvetica,sans-Serif" font-size="10.00">src/main.c</text>
</a>
</g>
</g>
<!-- Node3&#45;&gt;Node4 -->
<g id="edge3" class="edge">
<title>Node3&#45;&gt;Node4</title>
<path fill="none" stroke="midnightblue" d="M205.71,-51.82C205.71,-41 205.71,-27.9 205.71,-19.51"/>
<polygon fill="midnightblue" stroke="midnightblue" points="202.21,-51.98 205.71,-61.98 209.21,-51.98 202.21,-51.98"/>
</g>
<!-- Node6&#45;&gt;Node2 -->
<g id="edge6" class="edge">
<title>Node6&#45;&gt;Node2</title>
<path fill="none" stroke="midnightblue" d="M166.86,-251.74C153.03,-242.28 134.97,-229.93 121.22,-220.52"/>
<polygon fill="midnightblue" stroke="midnightblue" points="165.02,-254.72 175.25,-257.48 168.97,-248.94 165.02,-254.72"/>
</g>
<!-- Node6&#45;&gt;Node3 -->
<g id="edge10" class="edge">
<title>Node6&#45;&gt;Node3</title>
<path fill="none" stroke="midnightblue" d="M189.45,-247.29C193.25,-206.53 202.13,-111.01 204.88,-81.41"/>
<polygon fill="midnightblue" stroke="midnightblue" points="185.95,-247.15 188.51,-257.44 192.92,-247.8 185.95,-247.15"/>
</g>
<!-- Node7 -->
<g id="node7" class="node">
<title>Node7</title>
<g id="a_node7"><a xlink:href="harvest__areas_8h.html" target="_top" xlink:title=" ">
<polygon fill="none" stroke="black" points="516.71,-123.5 516.71,-153.5 626.71,-153.5 626.71,-123.5 516.71,-123.5"/>
<text text-anchor="start" x="524.71" y="-141.5" font-family="Helvetica,sans-Serif" font-size="10.00">include/FoodAuthority</text>
<text text-anchor="middle" x="571.71" y="-130.5" font-family="Helvetica,sans-Serif" font-size="10.00">/harvest_areas.h</text>
</a>
</g>
</g>
<!-- Node6&#45;&gt;Node7 -->
<g id="edge7" class="edge">
<title>Node6&#45;&gt;Node7</title>
<path fill="none" stroke="midnightblue" d="M252.65,-255.88C322.28,-244.82 425.23,-227.76 442.71,-221 485.95,-204.28 530.36,-172.33 554.13,-153.79"/>
<polygon fill="midnightblue" stroke="midnightblue" points="251.96,-252.44 242.64,-257.47 253.06,-259.36 251.96,-252.44"/>
</g>
<!-- Node9 -->
<g id="node9" class="node">
<title>Node9</title>
<g id="a_node9"><a xlink:href="transform_8h.html" target="_top" xlink:title=" ">
<polygon fill="none" stroke="black" points="334.21,-196 334.21,-215 433.21,-215 433.21,-196 334.21,-196"/>
<text text-anchor="middle" x="383.71" y="-203" font-family="Helvetica,sans-Serif" font-size="10.00">include/transform.h</text>
</a>
</g>
</g>
<!-- Node6&#45;&gt;Node9 -->
<g id="edge11" class="edge">
<title>Node6&#45;&gt;Node9</title>
<path fill="none" stroke="midnightblue" d="M225.5,-254.53C263.59,-242.96 321.5,-225.38 355.68,-215.01"/>
<polygon fill="midnightblue" stroke="midnightblue" points="224.35,-251.22 215.8,-257.48 226.38,-257.92 224.35,-251.22"/>
</g>
<!-- Node13 -->
<g id="node13" class="node">
<title>Node13</title>
<g id="a_node13"><a xlink:href="stations_8c.html" target="_top" xlink:title=" ">
<polygon fill="none" stroke="black" points="215.21,-196 215.21,-215 316.21,-215 316.21,-196 215.21,-196"/>
<text text-anchor="middle" x="265.71" y="-203" font-family="Helvetica,sans-Serif" font-size="10.00">src/BOM/stations.c</text>
</a>
</g>
</g>
<!-- Node6&#45;&gt;Node13 -->
<g id="edge18" class="edge">
<title>Node6&#45;&gt;Node13</title>
<path fill="none" stroke="midnightblue" d="M206.99,-251.29C221.95,-239.88 242.17,-224.46 254.56,-215.01"/>
<polygon fill="midnightblue" stroke="midnightblue" points="204.72,-248.63 198.89,-257.48 208.96,-254.19 204.72,-248.63"/>
</g>
<!-- Node7&#45;&gt;Node3 -->
<g id="edge8" class="edge">
<title>Node7&#45;&gt;Node3</title>
<path fill="none" stroke="midnightblue" d="M506.66,-122.86C407,-103.47 301.42,-86.88 245.42,-78.4"/>
<polygon fill="midnightblue" stroke="midnightblue" points="506.11,-126.32 516.6,-124.8 507.46,-119.45 506.11,-126.32"/>
</g>
<!-- Node8 -->
<g id="node8" class="node">
<title>Node8</title>
<g id="a_node8"><a xlink:href="harvest__areas_8c.html" target="_top" xlink:title=" ">
<polygon fill="none" stroke="black" points="507.71,-56.5 507.71,-86.5 635.71,-86.5 635.71,-56.5 507.71,-56.5"/>
<text text-anchor="start" x="515.71" y="-74.5" font-family="Helvetica,sans-Serif" font-size="10.00">src/FoodAuthority/harvest</text>
<text text-anchor="middle" x="571.71" y="-63.5" font-family="Helvetica,sans-Serif" font-size="10.00">_areas.c</text>
</a>
</g>
</g>
<!-- Node7&#45;&gt;Node8 -->
<g id="edge9" class="edge">
<title>Node7&#45;&gt;Node8</title>
<path fill="none" stroke="midnightblue" d="M571.71,-113.11C571.71,-104.15 571.71,-94.32 571.71,-86.58"/>
<polygon fill="midnightblue" stroke="midnightblue" points="568.21,-113.4 571.71,-123.4 575.21,-113.4 568.21,-113.4"/>
</g>
<!-- Node9&#45;&gt;Node3 -->
<g id="edge16" class="edge">
<title>Node9&#45;&gt;Node3</title>
<path fill="none" stroke="midnightblue" d="M341.76,-193.23C306.09,-182.97 258.4,-167.42 243.71,-154 221.58,-133.78 211.27,-98.05 207.5,-81.44"/>
<polygon fill="midnightblue" stroke="midnightblue" points="340.88,-196.62 351.46,-195.98 342.79,-189.89 340.88,-196.62"/>
</g>
<!-- Node9&#45;&gt;Node7 -->
<g id="edge12" class="edge">
<title>Node9&#45;&gt;Node7</title>
<path fill="none" stroke="midnightblue" d="M418.45,-192.49C450.32,-181.47 497.55,-165.14 531.14,-153.53"/>
<polygon fill="midnightblue" stroke="midnightblue" points="416.99,-189.29 408.68,-195.87 419.27,-195.91 416.99,-189.29"/>
</g>
<!-- Node10 -->
<g id="node10" class="node">
<title>Node10</title>
<g id="a_node10"><a xlink:href="timeseries_8h.html" target="_top" xlink:title=" ">
<polygon fill="none" stroke="black" points="353.21,-129 353.21,-148 498.21,-148 498.21,-129 353.21,-129"/>
<text text-anchor="middle" x="425.71" y="-136" font-family="Helvetica,sans-Serif" font-size="10.00">include/IBM_EIS/timeseries.h</text>
</a>
</g>
</g>
<!-- Node9&#45;&gt;Node10 -->
<g id="edge13" class="edge">
<title>Node9&#45;&gt;Node10</title>
<path fill="none" stroke="midnightblue" d="M395,-187.03C403.13,-174.45 413.75,-158.01 420.14,-148.13"/>
<polygon fill="midnightblue" stroke="midnightblue" points="391.86,-185.44 389.38,-195.73 397.74,-189.23 391.86,-185.44"/>
</g>
<!-- Node12 -->
<g id="node12" class="node">
<title>Node12</title>
<g id="a_node12"><a xlink:href="transform_8c.html" target="_top" xlink:title=" ">
<polygon fill="none" stroke="black" points="252.71,-129 252.71,-148 334.71,-148 334.71,-129 252.71,-129"/>
<text text-anchor="middle" x="293.71" y="-136" font-family="Helvetica,sans-Serif" font-size="10.00">src/transform.c</text>
</a>
</g>
</g>
<!-- Node9&#45;&gt;Node12 -->
<g id="edge17" class="edge">
<title>Node9&#45;&gt;Node12</title>
<path fill="none" stroke="midnightblue" d="M363.04,-189.57C345.27,-176.74 320.28,-158.69 305.66,-148.13"/>
<polygon fill="midnightblue" stroke="midnightblue" points="361.42,-192.72 371.58,-195.73 365.52,-187.04 361.42,-192.72"/>
</g>
<!-- Node10&#45;&gt;Node3 -->
<g id="edge14" class="edge">
<title>Node10&#45;&gt;Node3</title>
<path fill="none" stroke="midnightblue" d="M386.82,-126.01C343.28,-113.15 273.72,-92.59 234.7,-81.06"/>
<polygon fill="midnightblue" stroke="midnightblue" points="385.92,-129.39 396.5,-128.87 387.9,-122.68 385.92,-129.39"/>
</g>
<!-- Node11 -->
<g id="node11" class="node">
<title>Node11</title>
<g id="a_node11"><a xlink:href="timeseries_8c.html" target="_top" xlink:title=" ">
<polygon fill="none" stroke="black" points="361.71,-62 361.71,-81 489.71,-81 489.71,-62 361.71,-62"/>
<text text-anchor="middle" x="425.71" y="-69" font-family="Helvetica,sans-Serif" font-size="10.00">src/IBM_EIS/timeseries.c</text>
</a>
</g>
</g>
<!-- Node10&#45;&gt;Node11 -->
<g id="edge15" class="edge">
<title>Node10&#45;&gt;Node11</title>
<path fill="none" stroke="midnightblue" d="M425.71,-118.54C425.71,-106.17 425.71,-90.62 425.71,-81.13"/>
<polygon fill="midnightblue" stroke="midnightblue" points="422.21,-118.73 425.71,-128.73 429.21,-118.73 422.21,-118.73"/>
</g>
</g>
</svg>
