<?xml version="1.0" encoding="UTF-8" standalone="no"?>
<!DOCTYPE svg PUBLIC "-//W3C//DTD SVG 1.1//EN"
 "http://www.w3.org/Graphics/SVG/1.1/DTD/svg11.dtd">
<!-- Generated by graphviz version 2.49.3 (20211027.1534)
 -->
<!-- Title: include/ftp.h Pages: 1 -->
<svg width="647pt" height="196pt"
 viewBox="0.00 0.00 647.00 196.00" xmlns="http://www.w3.org/2000/svg" xmlns:xlink="http://www.w3.org/1999/xlink">
<g id="graph0" class="graph" transform="scale(1 1) rotate(0) translate(4 192)">
<title>include/ftp.h</title>
<!-- Node1 -->
<g id="node1" class="node">
<title>Node1</title>
<g id="a_node1"><a xlink:title=" ">
<polygon fill="#bfbfbf" stroke="black" points="127,-168.5 127,-187.5 196,-187.5 196,-168.5 127,-168.5"/>
<text text-anchor="middle" x="161.5" y="-175.5" font-family="Helvetica,sans-Serif" font-size="10.00">include/ftp.h</text>
</a>
</g>
</g>
<!-- Node2 -->
<g id="node2" class="node">
<title>Node2</title>
<g id="a_node2"><a xlink:title=" ">
<polygon fill="none" stroke="#bfbfbf" points="0,-56.5 0,-75.5 47,-75.5 47,-56.5 0,-56.5"/>
<text text-anchor="middle" x="23.5" y="-63.5" font-family="Helvetica,sans-Serif" font-size="10.00">stdlib.h</text>
</a>
</g>
</g>
<!-- Node1&#45;&gt;Node2 -->
<g id="edge1" class="edge">
<title>Node1&#45;&gt;Node2</title>
<path fill="none" stroke="midnightblue" d="M150.67,-168.37C127.19,-149.65 71.36,-105.15 42.11,-81.83"/>
<polygon fill="midnightblue" stroke="midnightblue" points="44.28,-79.09 34.28,-75.59 39.92,-84.56 44.28,-79.09"/>
</g>
<!-- Node3 -->
<g id="node3" class="node">
<title>Node3</title>
<g id="a_node3"><a xlink:title=" ">
<polygon fill="none" stroke="#bfbfbf" points="65.5,-56.5 65.5,-75.5 113.5,-75.5 113.5,-56.5 65.5,-56.5"/>
<text text-anchor="middle" x="89.5" y="-63.5" font-family="Helvetica,sans-Serif" font-size="10.00">string.h</text>
</a>
</g>
</g>
<!-- Node1&#45;&gt;Node3 -->
<g id="edge2" class="edge">
<title>Node1&#45;&gt;Node3</title>
<path fill="none" stroke="midnightblue" d="M155.85,-168.37C143.97,-150.22 116.21,-107.8 100.62,-83.99"/>
<polygon fill="midnightblue" stroke="midnightblue" points="103.53,-82.04 95.12,-75.59 97.67,-85.88 103.53,-82.04"/>
</g>
<!-- Node4 -->
<g id="node4" class="node">
<title>Node4</title>
<g id="a_node4"><a xlink:title=" ">
<polygon fill="none" stroke="#bfbfbf" points="132,-56.5 132,-75.5 191,-75.5 191,-56.5 132,-56.5"/>
<text text-anchor="middle" x="161.5" y="-63.5" font-family="Helvetica,sans-Serif" font-size="10.00">curl/curl.h</text>
</a>
</g>
</g>
<!-- Node1&#45;&gt;Node4 -->
<g id="edge3" class="edge">
<title>Node1&#45;&gt;Node4</title>
<path fill="none" stroke="midnightblue" d="M161.5,-168.37C161.5,-150.62 161.5,-109.67 161.5,-85.6"/>
<polygon fill="midnightblue" stroke="midnightblue" points="165,-85.59 161.5,-75.59 158,-85.59 165,-85.59"/>
</g>
<!-- Node5 -->
<g id="node5" class="node">
<title>Node5</title>
<g id="a_node5"><a xlink:title=" ">
<polygon fill="none" stroke="#bfbfbf" points="209.5,-56.5 209.5,-75.5 255.5,-75.5 255.5,-56.5 209.5,-56.5"/>
<text text-anchor="middle" x="232.5" y="-63.5" font-family="Helvetica,sans-Serif" font-size="10.00">errno.h</text>
</a>
</g>
</g>
<!-- Node1&#45;&gt;Node5 -->
<g id="edge4" class="edge">
<title>Node1&#45;&gt;Node5</title>
<path fill="none" stroke="midnightblue" d="M167.07,-168.37C178.74,-150.3 205.92,-108.18 221.33,-84.31"/>
<polygon fill="midnightblue" stroke="midnightblue" points="224.47,-85.89 226.95,-75.59 218.59,-82.1 224.47,-85.89"/>
</g>
<!-- Node6 -->
<g id="node6" class="node">
<title>Node6</title>
<g id="a_node6"><a xlink:href="utils_8h.html" target="_top" xlink:title=" ">
<polygon fill="none" stroke="black" points="262.5,-112.5 262.5,-131.5 304.5,-131.5 304.5,-112.5 262.5,-112.5"/>
<text text-anchor="middle" x="283.5" y="-119.5" font-family="Helvetica,sans-Serif" font-size="10.00">utils.h</text>
</a>
</g>
</g>
<!-- Node1&#45;&gt;Node6 -->
<g id="edge5" class="edge">
<title>Node1&#45;&gt;Node6</title>
<path fill="none" stroke="midnightblue" d="M180.83,-168.44C200.82,-159.6 232.24,-145.69 255.06,-135.59"/>
<polygon fill="midnightblue" stroke="midnightblue" points="256.53,-138.76 264.26,-131.52 253.7,-132.36 256.53,-138.76"/>
</g>
<!-- Node6&#45;&gt;Node2 -->
<g id="edge6" class="edge">
<title>Node6&#45;&gt;Node2</title>
<path fill="none" stroke="midnightblue" d="M262.43,-117.34C223.77,-110.51 138.77,-94.98 57.17,-76.02"/>
<polygon fill="midnightblue" stroke="midnightblue" points="57.78,-72.57 47.24,-73.69 56.18,-79.38 57.78,-72.57"/>
</g>
<!-- Node6&#45;&gt;Node3 -->
<g id="edge7" class="edge">
<title>Node6&#45;&gt;Node3</title>
<path fill="none" stroke="midnightblue" d="M262.37,-115.12C228.94,-105.81 163.56,-87.62 123.48,-76.46"/>
<polygon fill="midnightblue" stroke="midnightblue" points="124.2,-73.03 113.63,-73.72 122.33,-79.77 124.2,-73.03"/>
</g>
<!-- Node6&#45;&gt;Node4 -->
<g id="edge8" class="edge">
<title>Node6&#45;&gt;Node4</title>
<path fill="none" stroke="midnightblue" d="M264.17,-112.44C244.18,-103.6 212.76,-89.69 189.94,-79.59"/>
<polygon fill="midnightblue" stroke="midnightblue" points="191.3,-76.36 180.74,-75.52 188.47,-82.76 191.3,-76.36"/>
</g>
<!-- Node6&#45;&gt;Node5 -->
<g id="edge13" class="edge">
<title>Node6&#45;&gt;Node5</title>
<path fill="none" stroke="midnightblue" d="M275.08,-112.08C267.65,-104.22 256.65,-92.57 247.69,-83.08"/>
<polygon fill="midnightblue" stroke="midnightblue" points="250.18,-80.62 240.76,-75.75 245.09,-85.42 250.18,-80.62"/>
</g>
<!-- Node7 -->
<g id="node7" class="node">
<title>Node7</title>
<g id="a_node7"><a xlink:title=" ">
<polygon fill="none" stroke="#bfbfbf" points="489.5,-56.5 489.5,-75.5 537.5,-75.5 537.5,-56.5 489.5,-56.5"/>
<text text-anchor="middle" x="513.5" y="-63.5" font-family="Helvetica,sans-Serif" font-size="10.00">stdint.h</text>
</a>
</g>
</g>
<!-- Node6&#45;&gt;Node7 -->
<g id="edge9" class="edge">
<title>Node6&#45;&gt;Node7</title>
<path fill="none" stroke="midnightblue" d="M304.56,-116.49C339.05,-109.04 409.94,-93.46 479.57,-76.16"/>
<polygon fill="midnightblue" stroke="midnightblue" points="480.53,-79.52 489.38,-73.7 478.83,-72.73 480.53,-79.52"/>
</g>
<!-- Node8 -->
<g id="node8" class="node">
<title>Node8</title>
<g id="a_node8"><a xlink:title=" ">
<polygon fill="none" stroke="#bfbfbf" points="556,-56.5 556,-75.5 639,-75.5 639,-56.5 556,-56.5"/>
<text text-anchor="middle" x="597.5" y="-63.5" font-family="Helvetica,sans-Serif" font-size="10.00">cjson/cJSON.h</text>
</a>
</g>
</g>
<!-- Node6&#45;&gt;Node8 -->
<g id="edge10" class="edge">
<title>Node6&#45;&gt;Node8</title>
<path fill="none" stroke="midnightblue" d="M304.64,-117.42C347.83,-110.1 449.54,-92.82 545.85,-76.11"/>
<polygon fill="midnightblue" stroke="midnightblue" points="546.5,-79.55 555.75,-74.39 545.3,-72.65 546.5,-79.55"/>
</g>
<!-- Node9 -->
<g id="node9" class="node">
<title>Node9</title>
<g id="a_node9"><a xlink:title=" ">
<polygon fill="none" stroke="#bfbfbf" points="274,-56.5 274,-75.5 333,-75.5 333,-56.5 274,-56.5"/>
<text text-anchor="middle" x="303.5" y="-63.5" font-family="Helvetica,sans-Serif" font-size="10.00">sys/stat.h</text>
</a>
</g>
</g>
<!-- Node6&#45;&gt;Node9 -->
<g id="edge11" class="edge">
<title>Node6&#45;&gt;Node9</title>
<path fill="none" stroke="midnightblue" d="M286.8,-112.08C289.48,-104.85 293.35,-94.41 296.69,-85.4"/>
<polygon fill="midnightblue" stroke="midnightblue" points="300.07,-86.34 300.26,-75.75 293.5,-83.91 300.07,-86.34"/>
</g>
<!-- Node10 -->
<g id="node10" class="node">
<title>Node10</title>
<g id="a_node10"><a xlink:title=" ">
<polygon fill="none" stroke="#bfbfbf" points="351,-56.5 351,-75.5 416,-75.5 416,-56.5 351,-56.5"/>
<text text-anchor="middle" x="383.5" y="-63.5" font-family="Helvetica,sans-Serif" font-size="10.00">sys/types.h</text>
</a>
</g>
</g>
<!-- Node6&#45;&gt;Node10 -->
<g id="edge12" class="edge">
<title>Node6&#45;&gt;Node10</title>
<path fill="none" stroke="midnightblue" d="M299.57,-112.32C315.46,-103.74 340.01,-90.49 358.46,-80.52"/>
<polygon fill="midnightblue" stroke="midnightblue" points="360.34,-83.49 367.47,-75.65 357.01,-77.33 360.34,-83.49"/>
</g>
<!-- Node11 -->
<g id="node11" class="node">
<title>Node11</title>
<g id="a_node11"><a xlink:href="log_8h.html" target="_top" xlink:title=" ">
<polygon fill="none" stroke="black" points="434,-56.5 434,-75.5 471,-75.5 471,-56.5 434,-56.5"/>
<text text-anchor="middle" x="452.5" y="-63.5" font-family="Helvetica,sans-Serif" font-size="10.00">log.h</text>
</a>
</g>
</g>
<!-- Node6&#45;&gt;Node11 -->
<g id="edge14" class="edge">
<title>Node6&#45;&gt;Node11</title>
<path fill="none" stroke="midnightblue" d="M304.7,-114.39C330.75,-106.24 376.52,-91.86 424.33,-76.35"/>
<polygon fill="midnightblue" stroke="midnightblue" points="425.49,-79.65 433.92,-73.23 423.33,-73 425.49,-79.65"/>
</g>
<!-- Node12 -->
<g id="node12" class="node">
<title>Node12</title>
<g id="a_node12"><a xlink:title=" ">
<polygon fill="none" stroke="#bfbfbf" points="328,-0.5 328,-19.5 373,-19.5 373,-0.5 328,-0.5"/>
<text text-anchor="middle" x="350.5" y="-7.5" font-family="Helvetica,sans-Serif" font-size="10.00">stdio.h</text>
</a>
</g>
</g>
<!-- Node11&#45;&gt;Node12 -->
<g id="edge15" class="edge">
<title>Node11&#45;&gt;Node12</title>
<path fill="none" stroke="midnightblue" d="M436.11,-56.32C419.83,-47.7 394.63,-34.36 375.78,-24.39"/>
<polygon fill="midnightblue" stroke="midnightblue" points="377.32,-21.24 366.85,-19.65 374.05,-27.43 377.32,-21.24"/>
</g>
<!-- Node13 -->
<g id="node13" class="node">
<title>Node13</title>
<g id="a_node13"><a xlink:title=" ">
<polygon fill="none" stroke="#bfbfbf" points="391,-0.5 391,-19.5 442,-19.5 442,-0.5 391,-0.5"/>
<text text-anchor="middle" x="416.5" y="-7.5" font-family="Helvetica,sans-Serif" font-size="10.00">stdarg.h</text>
</a>
</g>
</g>
<!-- Node11&#45;&gt;Node13 -->
<g id="edge16" class="edge">
<title>Node11&#45;&gt;Node13</title>
<path fill="none" stroke="midnightblue" d="M446.56,-56.08C441.52,-48.53 434.16,-37.49 427.99,-28.23"/>
<polygon fill="midnightblue" stroke="midnightblue" points="430.79,-26.13 422.33,-19.75 424.97,-30.01 430.79,-26.13"/>
</g>
<!-- Node14 -->
<g id="node14" class="node">
<title>Node14</title>
<g id="a_node14"><a xlink:title=" ">
<polygon fill="none" stroke="#bfbfbf" points="460.5,-0.5 460.5,-19.5 516.5,-19.5 516.5,-0.5 460.5,-0.5"/>
<text text-anchor="middle" x="488.5" y="-7.5" font-family="Helvetica,sans-Serif" font-size="10.00">stdbool.h</text>
</a>
</g>
</g>
<!-- Node11&#45;&gt;Node14 -->
<g id="edge17" class="edge">
<title>Node11&#45;&gt;Node14</title>
<path fill="none" stroke="midnightblue" d="M458.44,-56.08C463.48,-48.53 470.84,-37.49 477.01,-28.23"/>
<polygon fill="midnightblue" stroke="midnightblue" points="480.03,-30.01 482.67,-19.75 474.21,-26.13 480.03,-30.01"/>
</g>
<!-- Node15 -->
<g id="node15" class="node">
<title>Node15</title>
<g id="a_node15"><a xlink:title=" ">
<polygon fill="none" stroke="#bfbfbf" points="535,-0.5 535,-19.5 578,-19.5 578,-0.5 535,-0.5"/>
<text text-anchor="middle" x="556.5" y="-7.5" font-family="Helvetica,sans-Serif" font-size="10.00">time.h</text>
</a>
</g>
</g>
<!-- Node11&#45;&gt;Node15 -->
<g id="edge18" class="edge">
<title>Node11&#45;&gt;Node15</title>
<path fill="none" stroke="midnightblue" d="M469.21,-56.32C485.81,-47.7 511.5,-34.36 530.72,-24.39"/>
<polygon fill="midnightblue" stroke="midnightblue" points="532.57,-27.37 539.83,-19.65 529.34,-21.16 532.57,-27.37"/>
</g>
</g>
</svg>
