<?xml version="1.0" encoding="UTF-8" standalone="no"?>
<!DOCTYPE svg PUBLIC "-//W3C//DTD SVG 1.1//EN"
 "http://www.w3.org/Graphics/SVG/1.1/DTD/svg11.dtd">
<!-- Generated by graphviz version 2.43.0 (0)
 -->
<!-- Title: include/ftp.h Pages: 1 -->
<svg width="838pt" height="192pt"
 viewBox="0.00 0.00 838.00 192.00" xmlns="http://www.w3.org/2000/svg" xmlns:xlink="http://www.w3.org/1999/xlink">
<g id="graph0" class="graph" transform="scale(1 1) rotate(0) translate(4 188)">
<title>include/ftp.h</title>
<!-- Node1 -->
<g id="node1" class="node">
<title>Node1</title>
<g id="a_node1"><a xlink:title=" ">
<polygon fill="#999999" stroke="#666666" points="213,-184 136,-184 136,-165 213,-165 213,-184"/>
<text text-anchor="middle" x="174.5" y="-172" font-family="Helvetica,sans-Serif" font-size="10.00">include/ftp.h</text>
</a>
</g>
</g>
<!-- Node2 -->
<g id="node2" class="node">
<title>Node2</title>
<g id="a_node2"><a xlink:title=" ">
<polygon fill="#e0e0e0" stroke="#999999" points="53,-74 0,-74 0,-55 53,-55 53,-74"/>
<text text-anchor="middle" x="26.5" y="-62" font-family="Helvetica,sans-Serif" font-size="10.00">stdlib.h</text>
</a>
</g>
</g>
<!-- Node1&#45;&gt;Node2 -->
<g id="edge1" class="edge">
<title>Node1&#45;&gt;Node2</title>
<path fill="none" stroke="#63b8ff" d="M162.64,-164.84C137.42,-146.44 78.21,-103.23 46.83,-80.34"/>
<polygon fill="#63b8ff" stroke="#63b8ff" points="48.56,-77.26 38.42,-74.2 44.43,-82.92 48.56,-77.26"/>
</g>
<!-- Node3 -->
<g id="node3" class="node">
<title>Node3</title>
<g id="a_node3"><a xlink:title=" ">
<polygon fill="#e0e0e0" stroke="#999999" points="124,-74 71,-74 71,-55 124,-55 124,-74"/>
<text text-anchor="middle" x="97.5" y="-62" font-family="Helvetica,sans-Serif" font-size="10.00">string.h</text>
</a>
</g>
</g>
<!-- Node1&#45;&gt;Node3 -->
<g id="edge2" class="edge">
<title>Node1&#45;&gt;Node3</title>
<path fill="none" stroke="#63b8ff" d="M168.2,-164.66C155.39,-146.69 126.12,-105.64 109.54,-82.38"/>
<polygon fill="#63b8ff" stroke="#63b8ff" points="112.33,-80.27 103.67,-74.16 106.63,-84.33 112.33,-80.27"/>
</g>
<!-- Node4 -->
<g id="node4" class="node">
<title>Node4</title>
<g id="a_node4"><a xlink:title=" ">
<polygon fill="#e0e0e0" stroke="#999999" points="207,-74 142,-74 142,-55 207,-55 207,-74"/>
<text text-anchor="middle" x="174.5" y="-62" font-family="Helvetica,sans-Serif" font-size="10.00">curl/curl.h</text>
</a>
</g>
</g>
<!-- Node1&#45;&gt;Node4 -->
<g id="edge3" class="edge">
<title>Node1&#45;&gt;Node4</title>
<path fill="none" stroke="#63b8ff" d="M174.5,-164.66C174.5,-147.17 174.5,-107.8 174.5,-84.27"/>
<polygon fill="#63b8ff" stroke="#63b8ff" points="178,-84.16 174.5,-74.16 171,-84.16 178,-84.16"/>
</g>
<!-- Node5 -->
<g id="node5" class="node">
<title>Node5</title>
<g id="a_node5"><a xlink:title=" ">
<polygon fill="#e0e0e0" stroke="#999999" points="276,-74 225,-74 225,-55 276,-55 276,-74"/>
<text text-anchor="middle" x="250.5" y="-62" font-family="Helvetica,sans-Serif" font-size="10.00">errno.h</text>
</a>
</g>
</g>
<!-- Node1&#45;&gt;Node5 -->
<g id="edge4" class="edge">
<title>Node1&#45;&gt;Node5</title>
<path fill="none" stroke="#63b8ff" d="M180.72,-164.66C193.36,-146.69 222.25,-105.64 238.62,-82.38"/>
<polygon fill="#63b8ff" stroke="#63b8ff" points="241.51,-84.35 244.41,-74.16 235.79,-80.32 241.51,-84.35"/>
</g>
<!-- Node6 -->
<g id="node6" class="node">
<title>Node6</title>
<g id="a_node6"><a xlink:href="utils_8h.html" target="_top" xlink:title=" ">
<polygon fill="white" stroke="#666666" points="373,-129 326,-129 326,-110 373,-110 373,-129"/>
<text text-anchor="middle" x="349.5" y="-117" font-family="Helvetica,sans-Serif" font-size="10.00">utils.h</text>
</a>
</g>
</g>
<!-- Node1&#45;&gt;Node6 -->
<g id="edge5" class="edge">
<title>Node1&#45;&gt;Node6</title>
<path fill="none" stroke="#63b8ff" d="M202.62,-164.98C233.61,-155.6 283.43,-140.51 316.32,-130.55"/>
<polygon fill="#63b8ff" stroke="#63b8ff" points="317.39,-133.88 325.94,-127.63 315.36,-127.18 317.39,-133.88"/>
</g>
<!-- Node6&#45;&gt;Node2 -->
<g id="edge6" class="edge">
<title>Node6&#45;&gt;Node2</title>
<path fill="none" stroke="#63b8ff" d="M325.86,-115.54C278.05,-109.41 166.29,-94.32 63.15,-74.2"/>
<polygon fill="#63b8ff" stroke="#63b8ff" points="63.69,-70.73 53.2,-72.23 62.33,-77.6 63.69,-70.73"/>
</g>
<!-- Node6&#45;&gt;Node3 -->
<g id="edge7" class="edge">
<title>Node6&#45;&gt;Node3</title>
<path fill="none" stroke="#63b8ff" d="M326,-113.97C287.83,-106.55 209.77,-91.11 134.37,-74.36"/>
<polygon fill="#63b8ff" stroke="#63b8ff" points="134.75,-70.86 124.23,-72.1 133.23,-77.69 134.75,-70.86"/>
</g>
<!-- Node6&#45;&gt;Node4 -->
<g id="edge8" class="edge">
<title>Node6&#45;&gt;Node4</title>
<path fill="none" stroke="#63b8ff" d="M325.9,-111.35C296.77,-102.53 246.88,-87.42 212.37,-76.97"/>
<polygon fill="#63b8ff" stroke="#63b8ff" points="213.22,-73.57 202.64,-74.02 211.19,-80.27 213.22,-73.57"/>
</g>
<!-- Node6&#45;&gt;Node5 -->
<g id="edge13" class="edge">
<title>Node6&#45;&gt;Node5</title>
<path fill="none" stroke="#63b8ff" d="M333.59,-109.98C317.95,-101.61 293.84,-88.7 275.62,-78.95"/>
<polygon fill="#63b8ff" stroke="#63b8ff" points="277.16,-75.8 266.7,-74.17 273.86,-81.98 277.16,-75.8"/>
</g>
<!-- Node7 -->
<g id="node7" class="node">
<title>Node7</title>
<g id="a_node7"><a xlink:title=" ">
<polygon fill="#e0e0e0" stroke="#999999" points="487,-74 434,-74 434,-55 487,-55 487,-74"/>
<text text-anchor="middle" x="460.5" y="-62" font-family="Helvetica,sans-Serif" font-size="10.00">stdint.h</text>
</a>
</g>
</g>
<!-- Node6&#45;&gt;Node7 -->
<g id="edge9" class="edge">
<title>Node6&#45;&gt;Node7</title>
<path fill="none" stroke="#63b8ff" d="M367.33,-109.98C385.11,-101.5 412.65,-88.35 433.18,-78.54"/>
<polygon fill="#63b8ff" stroke="#63b8ff" points="434.83,-81.64 442.34,-74.17 431.81,-75.32 434.83,-81.64"/>
</g>
<!-- Node8 -->
<g id="node8" class="node">
<title>Node8</title>
<g id="a_node8"><a xlink:title=" ">
<polygon fill="#e0e0e0" stroke="#999999" points="588,-74 505,-74 505,-55 588,-55 588,-74"/>
<text text-anchor="middle" x="546.5" y="-62" font-family="Helvetica,sans-Serif" font-size="10.00">cjson/cJSON.h</text>
</a>
</g>
</g>
<!-- Node6&#45;&gt;Node8 -->
<g id="edge10" class="edge">
<title>Node6&#45;&gt;Node8</title>
<path fill="none" stroke="#63b8ff" d="M373.26,-112.11C405.9,-103.33 465.11,-87.4 505.11,-76.63"/>
<polygon fill="#63b8ff" stroke="#63b8ff" points="506.1,-79.99 514.84,-74.02 504.28,-73.23 506.1,-79.99"/>
</g>
<!-- Node9 -->
<g id="node9" class="node">
<title>Node9</title>
<g id="a_node9"><a xlink:title=" ">
<polygon fill="#e0e0e0" stroke="#999999" points="670.5,-74 606.5,-74 606.5,-55 670.5,-55 670.5,-74"/>
<text text-anchor="middle" x="638.5" y="-62" font-family="Helvetica,sans-Serif" font-size="10.00">sys/stat.h</text>
</a>
</g>
</g>
<!-- Node6&#45;&gt;Node9 -->
<g id="edge11" class="edge">
<title>Node6&#45;&gt;Node9</title>
<path fill="none" stroke="#63b8ff" d="M373.13,-114.48C415.69,-107.19 508.25,-91.12 596.4,-74.17"/>
<polygon fill="#63b8ff" stroke="#63b8ff" points="597.13,-77.6 606.29,-72.26 595.81,-70.72 597.13,-77.6"/>
</g>
<!-- Node10 -->
<g id="node10" class="node">
<title>Node10</title>
<g id="a_node10"><a xlink:title=" ">
<polygon fill="#e0e0e0" stroke="#999999" points="760.5,-74 688.5,-74 688.5,-55 760.5,-55 760.5,-74"/>
<text text-anchor="middle" x="724.5" y="-62" font-family="Helvetica,sans-Serif" font-size="10.00">sys/types.h</text>
</a>
</g>
</g>
<!-- Node6&#45;&gt;Node10 -->
<g id="edge12" class="edge">
<title>Node6&#45;&gt;Node10</title>
<path fill="none" stroke="#63b8ff" d="M373.17,-115.74C425.98,-109.5 557.61,-93.42 678.05,-74.16"/>
<polygon fill="#63b8ff" stroke="#63b8ff" points="678.86,-77.58 688.18,-72.53 677.75,-70.67 678.86,-77.58"/>
</g>
<!-- Node11 -->
<g id="node11" class="node">
<title>Node11</title>
<g id="a_node11"><a xlink:title=" ">
<polygon fill="#e0e0e0" stroke="#999999" points="830,-74 779,-74 779,-55 830,-55 830,-74"/>
<text text-anchor="middle" x="804.5" y="-62" font-family="Helvetica,sans-Serif" font-size="10.00">math.h</text>
</a>
</g>
</g>
<!-- Node6&#45;&gt;Node11 -->
<g id="edge14" class="edge">
<title>Node6&#45;&gt;Node11</title>
<path fill="none" stroke="#63b8ff" d="M373.33,-117.09C436.26,-113.12 612.18,-100.52 768.69,-73.89"/>
<polygon fill="#63b8ff" stroke="#63b8ff" points="769.71,-77.27 778.97,-72.12 768.52,-70.37 769.71,-77.27"/>
</g>
<!-- Node12 -->
<g id="node12" class="node">
<title>Node12</title>
<g id="a_node12"><a xlink:href="log_8h.html" target="_top" xlink:title=" ">
<polygon fill="white" stroke="#666666" points="335,-74 294,-74 294,-55 335,-55 335,-74"/>
<text text-anchor="middle" x="314.5" y="-62" font-family="Helvetica,sans-Serif" font-size="10.00">log.h</text>
</a>
</g>
</g>
<!-- Node6&#45;&gt;Node12 -->
<g id="edge15" class="edge">
<title>Node6&#45;&gt;Node12</title>
<path fill="none" stroke="#63b8ff" d="M343.72,-109.75C338.88,-102.42 331.82,-91.73 325.86,-82.7"/>
<polygon fill="#63b8ff" stroke="#63b8ff" points="328.6,-80.5 320.17,-74.09 322.76,-84.36 328.6,-80.5"/>
</g>
<!-- Node17 -->
<g id="node17" class="node">
<title>Node17</title>
<g id="a_node17"><a xlink:title=" ">
<polygon fill="#e0e0e0" stroke="#999999" points="416,-74 353,-74 353,-55 416,-55 416,-74"/>
<text text-anchor="middle" x="384.5" y="-62" font-family="Helvetica,sans-Serif" font-size="10.00">libpq&#45;fe.h</text>
</a>
</g>
</g>
<!-- Node6&#45;&gt;Node17 -->
<g id="edge20" class="edge">
<title>Node6&#45;&gt;Node17</title>
<path fill="none" stroke="#63b8ff" d="M355.28,-109.75C360.12,-102.42 367.18,-91.73 373.14,-82.7"/>
<polygon fill="#63b8ff" stroke="#63b8ff" points="376.24,-84.36 378.83,-74.09 370.4,-80.5 376.24,-84.36"/>
</g>
<!-- Node13 -->
<g id="node13" class="node">
<title>Node13</title>
<g id="a_node13"><a xlink:title=" ">
<polygon fill="#e0e0e0" stroke="#999999" points="229.5,-19 179.5,-19 179.5,0 229.5,0 229.5,-19"/>
<text text-anchor="middle" x="204.5" y="-7" font-family="Helvetica,sans-Serif" font-size="10.00">stdio.h</text>
</a>
</g>
</g>
<!-- Node12&#45;&gt;Node13 -->
<g id="edge16" class="edge">
<title>Node12&#45;&gt;Node13</title>
<path fill="none" stroke="#63b8ff" d="M296.83,-54.98C279.21,-46.5 251.92,-33.35 231.57,-23.54"/>
<polygon fill="#63b8ff" stroke="#63b8ff" points="233.02,-20.36 222.49,-19.17 229.98,-26.66 233.02,-20.36"/>
</g>
<!-- Node14 -->
<g id="node14" class="node">
<title>Node14</title>
<g id="a_node14"><a xlink:title=" ">
<polygon fill="#e0e0e0" stroke="#999999" points="303.5,-19 247.5,-19 247.5,0 303.5,0 303.5,-19"/>
<text text-anchor="middle" x="275.5" y="-7" font-family="Helvetica,sans-Serif" font-size="10.00">stdarg.h</text>
</a>
</g>
</g>
<!-- Node12&#45;&gt;Node14 -->
<g id="edge17" class="edge">
<title>Node12&#45;&gt;Node14</title>
<path fill="none" stroke="#63b8ff" d="M308.06,-54.75C302.61,-47.34 294.64,-36.5 287.94,-27.41"/>
<polygon fill="#63b8ff" stroke="#63b8ff" points="290.57,-25.07 281.82,-19.09 284.93,-29.22 290.57,-25.07"/>
</g>
<!-- Node15 -->
<g id="node15" class="node">
<title>Node15</title>
<g id="a_node15"><a xlink:title=" ">
<polygon fill="#e0e0e0" stroke="#999999" points="383.5,-19 321.5,-19 321.5,0 383.5,0 383.5,-19"/>
<text text-anchor="middle" x="352.5" y="-7" font-family="Helvetica,sans-Serif" font-size="10.00">stdbool.h</text>
</a>
</g>
</g>
<!-- Node12&#45;&gt;Node15 -->
<g id="edge18" class="edge">
<title>Node12&#45;&gt;Node15</title>
<path fill="none" stroke="#63b8ff" d="M320.77,-54.75C326.09,-47.34 333.86,-36.5 340.38,-27.41"/>
<polygon fill="#63b8ff" stroke="#63b8ff" points="343.36,-29.26 346.34,-19.09 337.67,-25.18 343.36,-29.26"/>
</g>
<!-- Node16 -->
<g id="node16" class="node">
<title>Node16</title>
<g id="a_node16"><a xlink:title=" ">
<polygon fill="#e0e0e0" stroke="#999999" points="449.5,-19 401.5,-19 401.5,0 449.5,0 449.5,-19"/>
<text text-anchor="middle" x="425.5" y="-7" font-family="Helvetica,sans-Serif" font-size="10.00">time.h</text>
</a>
</g>
</g>
<!-- Node12&#45;&gt;Node16 -->
<g id="edge19" class="edge">
<title>Node12&#45;&gt;Node16</title>
<path fill="none" stroke="#63b8ff" d="M332.33,-54.98C350.11,-46.5 377.65,-33.35 398.18,-23.54"/>
<polygon fill="#63b8ff" stroke="#63b8ff" points="399.83,-26.64 407.34,-19.17 396.81,-20.32 399.83,-26.64"/>
</g>
</g>
</svg>
