<?xml version="1.0" encoding="UTF-8" standalone="no"?>
<!DOCTYPE svg PUBLIC "-//W3C//DTD SVG 1.1//EN"
 "http://www.w3.org/Graphics/SVG/1.1/DTD/svg11.dtd">
<!-- Generated by graphviz version 2.49.3 (20211027.1534)
 -->
<!-- Title: include/ftp.h Pages: 1 -->
<svg width="747pt" height="330pt"
 viewBox="0.00 0.00 747.00 330.00" xmlns="http://www.w3.org/2000/svg" xmlns:xlink="http://www.w3.org/1999/xlink">
<g id="graph0" class="graph" transform="scale(1 1) rotate(0) translate(4 326)">
<title>include/ftp.h</title>
<!-- Node1 -->
<g id="node1" class="node">
<title>Node1</title>
<g id="a_node1"><a xlink:title=" ">
<polygon fill="#bfbfbf" stroke="black" points="605.5,-302.5 605.5,-321.5 674.5,-321.5 674.5,-302.5 605.5,-302.5"/>
<text text-anchor="middle" x="640" y="-309.5" font-family="Helvetica,sans-Serif" font-size="10.00">include/ftp.h</text>
</a>
</g>
</g>
<!-- Node2 -->
<g id="node2" class="node">
<title>Node2</title>
<g id="a_node2"><a xlink:href="historical__weather_8h.html" target="_top" xlink:title=" ">
<polygon fill="none" stroke="black" points="477.5,-123.5 477.5,-153.5 592.5,-153.5 592.5,-123.5 477.5,-123.5"/>
<text text-anchor="start" x="485.5" y="-141.5" font-family="Helvetica,sans-Serif" font-size="10.00">include/BOM/historical</text>
<text text-anchor="middle" x="535" y="-130.5" font-family="Helvetica,sans-Serif" font-size="10.00">_weather.h</text>
</a>
</g>
</g>
<!-- Node1&#45;&gt;Node2 -->
<g id="edge1" class="edge">
<title>Node1&#45;&gt;Node2</title>
<path fill="none" stroke="midnightblue" d="M629.24,-293.43C608.39,-259.36 562.82,-184.94 543.71,-153.72"/>
<polygon fill="midnightblue" stroke="midnightblue" points="626.44,-295.56 634.65,-302.26 632.41,-291.9 626.44,-295.56"/>
</g>
<!-- Node3 -->
<g id="node3" class="node">
<title>Node3</title>
<g id="a_node3"><a xlink:href="main_8h.html" target="_top" xlink:title=" ">
<polygon fill="none" stroke="black" points="380.5,-62 380.5,-81 459.5,-81 459.5,-62 380.5,-62"/>
<text text-anchor="middle" x="420" y="-69" font-family="Helvetica,sans-Serif" font-size="10.00">include/main.h</text>
</a>
</g>
</g>
<!-- Node1&#45;&gt;Node3 -->
<g id="edge20" class="edge">
<title>Node1&#45;&gt;Node3</title>
<path fill="none" stroke="midnightblue" d="M642.1,-292.07C645.14,-254.59 646.22,-170.48 602,-123 599.4,-120.2 503.99,-94.68 452.38,-81.03"/>
<polygon fill="midnightblue" stroke="midnightblue" points="638.61,-291.82 641.14,-302.11 645.58,-292.49 638.61,-291.82"/>
</g>
<!-- Node6 -->
<g id="node6" class="node">
<title>Node6</title>
<g id="a_node6"><a xlink:href="stations_8h.html" target="_top" xlink:title=" ">
<polygon fill="none" stroke="black" points="351,-246.5 351,-265.5 469,-265.5 469,-246.5 351,-246.5"/>
<text text-anchor="middle" x="410" y="-253.5" font-family="Helvetica,sans-Serif" font-size="10.00">include/BOM/stations.h</text>
</a>
</g>
</g>
<!-- Node1&#45;&gt;Node6 -->
<g id="edge5" class="edge">
<title>Node1&#45;&gt;Node6</title>
<path fill="none" stroke="midnightblue" d="M595.06,-300.45C551.64,-290.26 486.69,-275 446.4,-265.55"/>
<polygon fill="midnightblue" stroke="midnightblue" points="594.53,-303.92 605.07,-302.8 596.13,-297.11 594.53,-303.92"/>
</g>
<!-- Node14 -->
<g id="node14" class="node">
<title>Node14</title>
<g id="a_node14"><a xlink:href="ftp_8c.html" target="_top" xlink:title=" ">
<polygon fill="none" stroke="black" points="687,-246.5 687,-265.5 739,-265.5 739,-246.5 687,-246.5"/>
<text text-anchor="middle" x="713" y="-253.5" font-family="Helvetica,sans-Serif" font-size="10.00">src/ftp.c</text>
</a>
</g>
</g>
<!-- Node1&#45;&gt;Node14 -->
<g id="edge21" class="edge">
<title>Node1&#45;&gt;Node14</title>
<path fill="none" stroke="midnightblue" d="M660.14,-296.1C673.28,-286.38 689.98,-274.03 701.06,-265.83"/>
<polygon fill="midnightblue" stroke="midnightblue" points="657.69,-293.56 651.73,-302.32 661.85,-299.19 657.69,-293.56"/>
</g>
<!-- Node2&#45;&gt;Node3 -->
<g id="edge2" class="edge">
<title>Node2&#45;&gt;Node3</title>
<path fill="none" stroke="midnightblue" d="M501.34,-118.47C479.38,-106.06 451.8,-90.47 435.05,-81.01"/>
<polygon fill="midnightblue" stroke="midnightblue" points="499.62,-121.52 510.05,-123.4 503.06,-115.43 499.62,-121.52"/>
</g>
<!-- Node5 -->
<g id="node5" class="node">
<title>Node5</title>
<g id="a_node5"><a xlink:href="historical__weather_8c.html" target="_top" xlink:title=" ">
<polygon fill="none" stroke="black" points="486,-56.5 486,-86.5 584,-86.5 584,-56.5 486,-56.5"/>
<text text-anchor="start" x="494" y="-74.5" font-family="Helvetica,sans-Serif" font-size="10.00">src/BOM/historical</text>
<text text-anchor="middle" x="535" y="-63.5" font-family="Helvetica,sans-Serif" font-size="10.00">_weather.c</text>
</a>
</g>
</g>
<!-- Node2&#45;&gt;Node5 -->
<g id="edge4" class="edge">
<title>Node2&#45;&gt;Node5</title>
<path fill="none" stroke="midnightblue" d="M535,-113.11C535,-104.15 535,-94.32 535,-86.58"/>
<polygon fill="midnightblue" stroke="midnightblue" points="531.5,-113.4 535,-123.4 538.5,-113.4 531.5,-113.4"/>
</g>
<!-- Node4 -->
<g id="node4" class="node">
<title>Node4</title>
<g id="a_node4"><a xlink:href="main_8c.html" target="_top" xlink:title=" ">
<polygon fill="none" stroke="black" points="389,-0.5 389,-19.5 451,-19.5 451,-0.5 389,-0.5"/>
<text text-anchor="middle" x="420" y="-7.5" font-family="Helvetica,sans-Serif" font-size="10.00">src/main.c</text>
</a>
</g>
</g>
<!-- Node3&#45;&gt;Node4 -->
<g id="edge3" class="edge">
<title>Node3&#45;&gt;Node4</title>
<path fill="none" stroke="midnightblue" d="M420,-51.82C420,-41 420,-27.9 420,-19.51"/>
<polygon fill="midnightblue" stroke="midnightblue" points="416.5,-51.98 420,-61.98 423.5,-51.98 416.5,-51.98"/>
</g>
<!-- Node6&#45;&gt;Node2 -->
<g id="edge6" class="edge">
<title>Node6&#45;&gt;Node2</title>
<path fill="none" stroke="midnightblue" d="M428.67,-239.7C438.95,-231.13 451.85,-220.17 463,-210 483.81,-191.02 506.92,-168.03 521.21,-153.58"/>
<polygon fill="midnightblue" stroke="midnightblue" points="426.22,-237.18 420.75,-246.25 430.69,-242.57 426.22,-237.18"/>
</g>
<!-- Node6&#45;&gt;Node3 -->
<g id="edge10" class="edge">
<title>Node6&#45;&gt;Node3</title>
<path fill="none" stroke="midnightblue" d="M419.93,-237.3C423.9,-229.24 428,-219.41 430,-210 440.14,-162.24 427.77,-103.28 422.32,-81.3"/>
<polygon fill="midnightblue" stroke="midnightblue" points="416.69,-235.93 415.13,-246.41 422.89,-239.19 416.69,-235.93"/>
</g>
<!-- Node7 -->
<g id="node7" class="node">
<title>Node7</title>
<g id="a_node7"><a xlink:href="harvest__areas_8h.html" target="_top" xlink:title=" ">
<polygon fill="none" stroke="black" points="9,-123.5 9,-153.5 119,-153.5 119,-123.5 9,-123.5"/>
<text text-anchor="start" x="17" y="-141.5" font-family="Helvetica,sans-Serif" font-size="10.00">include/FoodAuthority</text>
<text text-anchor="middle" x="64" y="-130.5" font-family="Helvetica,sans-Serif" font-size="10.00">/harvest_areas.h</text>
</a>
</g>
</g>
<!-- Node6&#45;&gt;Node7 -->
<g id="edge7" class="edge">
<title>Node6&#45;&gt;Node7</title>
<path fill="none" stroke="midnightblue" d="M381.73,-242.24C362.31,-233.39 335.98,-221.22 313,-210 295.49,-201.46 292.27,-196.77 274,-190 259.5,-184.62 176.45,-165.2 119.24,-152.07"/>
<polygon fill="midnightblue" stroke="midnightblue" points="380.38,-245.47 390.94,-246.42 383.28,-239.1 380.38,-245.47"/>
</g>
<!-- Node9 -->
<g id="node9" class="node">
<title>Node9</title>
<g id="a_node9"><a xlink:href="transform_8h.html" target="_top" xlink:title=" ">
<polygon fill="none" stroke="black" points="321.5,-190.5 321.5,-209.5 420.5,-209.5 420.5,-190.5 321.5,-190.5"/>
<text text-anchor="middle" x="371" y="-197.5" font-family="Helvetica,sans-Serif" font-size="10.00">include/transform.h</text>
</a>
</g>
</g>
<!-- Node6&#45;&gt;Node9 -->
<g id="edge11" class="edge">
<title>Node6&#45;&gt;Node9</title>
<path fill="none" stroke="midnightblue" d="M397.62,-237.86C390.86,-228.5 382.79,-217.33 377.32,-209.75"/>
<polygon fill="midnightblue" stroke="midnightblue" points="394.87,-240.03 403.56,-246.08 400.54,-235.93 394.87,-240.03"/>
</g>
<!-- Node13 -->
<g id="node13" class="node">
<title>Node13</title>
<g id="a_node13"><a xlink:href="stations_8c.html" target="_top" xlink:title=" ">
<polygon fill="none" stroke="black" points="163.5,-190.5 163.5,-209.5 264.5,-209.5 264.5,-190.5 163.5,-190.5"/>
<text text-anchor="middle" x="214" y="-197.5" font-family="Helvetica,sans-Serif" font-size="10.00">src/BOM/stations.c</text>
</a>
</g>
</g>
<!-- Node6&#45;&gt;Node13 -->
<g id="edge19" class="edge">
<title>Node6&#45;&gt;Node13</title>
<path fill="none" stroke="midnightblue" d="M368.98,-243.7C331.99,-233.51 278.4,-218.74 244.91,-209.52"/>
<polygon fill="midnightblue" stroke="midnightblue" points="368.37,-247.16 378.94,-246.44 370.23,-240.41 368.37,-247.16"/>
</g>
<!-- Node7&#45;&gt;Node3 -->
<g id="edge8" class="edge">
<title>Node7&#45;&gt;Node3</title>
<path fill="none" stroke="midnightblue" d="M128.97,-122.86C224.79,-103.93 325.76,-87.36 380.21,-78.72"/>
<polygon fill="midnightblue" stroke="midnightblue" points="128.24,-119.44 119.12,-124.82 129.61,-126.3 128.24,-119.44"/>
</g>
<!-- Node8 -->
<g id="node8" class="node">
<title>Node8</title>
<g id="a_node8"><a xlink:href="harvest__areas_8c.html" target="_top" xlink:title=" ">
<polygon fill="none" stroke="black" points="0,-56.5 0,-86.5 128,-86.5 128,-56.5 0,-56.5"/>
<text text-anchor="start" x="8" y="-74.5" font-family="Helvetica,sans-Serif" font-size="10.00">src/FoodAuthority/harvest</text>
<text text-anchor="middle" x="64" y="-63.5" font-family="Helvetica,sans-Serif" font-size="10.00">_areas.c</text>
</a>
</g>
</g>
<!-- Node7&#45;&gt;Node8 -->
<g id="edge9" class="edge">
<title>Node7&#45;&gt;Node8</title>
<path fill="none" stroke="midnightblue" d="M64,-113.11C64,-104.15 64,-94.32 64,-86.58"/>
<polygon fill="midnightblue" stroke="midnightblue" points="60.5,-113.4 64,-123.4 67.5,-113.4 60.5,-113.4"/>
</g>
<!-- Node9&#45;&gt;Node2 -->
<g id="edge12" class="edge">
<title>Node9&#45;&gt;Node2</title>
<path fill="none" stroke="midnightblue" d="M404.14,-186.98C430.81,-177.3 468.32,-163.69 496.35,-153.52"/>
<polygon fill="midnightblue" stroke="midnightblue" points="402.7,-183.77 394.5,-190.48 405.09,-190.35 402.7,-183.77"/>
</g>
<!-- Node9&#45;&gt;Node3 -->
<g id="edge17" class="edge">
<title>Node9&#45;&gt;Node3</title>
<path fill="none" stroke="midnightblue" d="M379.7,-181.49C383.66,-173.24 388.28,-163.21 392,-154 402.53,-127.92 412.7,-96.19 417.35,-81.18"/>
<polygon fill="midnightblue" stroke="midnightblue" points="376.54,-179.97 375.3,-190.49 382.83,-183.04 376.54,-179.97"/>
</g>
<!-- Node9&#45;&gt;Node7 -->
<g id="edge13" class="edge">
<title>Node9&#45;&gt;Node7</title>
<path fill="none" stroke="midnightblue" d="M311.7,-188.7C262.42,-179.97 190.51,-166.86 128,-154 125.1,-153.4 122.13,-152.78 119.13,-152.14"/>
<polygon fill="midnightblue" stroke="midnightblue" points="311.1,-192.14 321.56,-190.44 312.32,-185.25 311.1,-192.14"/>
</g>
<!-- Node10 -->
<g id="node10" class="node">
<title>Node10</title>
<g id="a_node10"><a xlink:href="timeseries_8h.html" target="_top" xlink:title=" ">
<polygon fill="none" stroke="black" points="137.5,-129 137.5,-148 282.5,-148 282.5,-129 137.5,-129"/>
<text text-anchor="middle" x="210" y="-136" font-family="Helvetica,sans-Serif" font-size="10.00">include/IBM_EIS/timeseries.h</text>
</a>
</g>
</g>
<!-- Node9&#45;&gt;Node10 -->
<g id="edge14" class="edge">
<title>Node9&#45;&gt;Node10</title>
<path fill="none" stroke="midnightblue" d="M338.35,-186.93C307.06,-175.37 260.62,-158.21 233.02,-148.01"/>
<polygon fill="midnightblue" stroke="midnightblue" points="337.34,-190.29 347.93,-190.48 339.77,-183.73 337.34,-190.29"/>
</g>
<!-- Node12 -->
<g id="node12" class="node">
<title>Node12</title>
<g id="a_node12"><a xlink:href="transform_8c.html" target="_top" xlink:title=" ">
<polygon fill="none" stroke="black" points="301,-129 301,-148 383,-148 383,-129 301,-129"/>
<text text-anchor="middle" x="342" y="-136" font-family="Helvetica,sans-Serif" font-size="10.00">src/transform.c</text>
</a>
</g>
</g>
<!-- Node9&#45;&gt;Node12 -->
<g id="edge18" class="edge">
<title>Node9&#45;&gt;Node12</title>
<path fill="none" stroke="midnightblue" d="M362.39,-181.33C357.03,-170.33 350.37,-156.66 346.15,-148.01"/>
<polygon fill="midnightblue" stroke="midnightblue" points="359.32,-183.02 366.85,-190.48 365.61,-179.95 359.32,-183.02"/>
</g>
<!-- Node10&#45;&gt;Node3 -->
<g id="edge15" class="edge">
<title>Node10&#45;&gt;Node3</title>
<path fill="none" stroke="midnightblue" d="M247.65,-125.85C289.24,-112.97 355.24,-92.55 392.33,-81.06"/>
<polygon fill="midnightblue" stroke="midnightblue" points="246.4,-122.57 237.89,-128.87 248.47,-129.26 246.4,-122.57"/>
</g>
<!-- Node11 -->
<g id="node11" class="node">
<title>Node11</title>
<g id="a_node11"><a xlink:href="timeseries_8c.html" target="_top" xlink:title=" ">
<polygon fill="none" stroke="black" points="146,-62 146,-81 274,-81 274,-62 146,-62"/>
<text text-anchor="middle" x="210" y="-69" font-family="Helvetica,sans-Serif" font-size="10.00">src/IBM_EIS/timeseries.c</text>
</a>
</g>
</g>
<!-- Node10&#45;&gt;Node11 -->
<g id="edge16" class="edge">
<title>Node10&#45;&gt;Node11</title>
<path fill="none" stroke="midnightblue" d="M210,-118.54C210,-106.17 210,-90.62 210,-81.13"/>
<polygon fill="midnightblue" stroke="midnightblue" points="206.5,-118.73 210,-128.73 213.5,-118.73 206.5,-118.73"/>
</g>
</g>
</svg>
