<?xml version="1.0" encoding="UTF-8" standalone="no"?>
<!DOCTYPE svg PUBLIC "-//W3C//DTD SVG 1.1//EN"
 "http://www.w3.org/Graphics/SVG/1.1/DTD/svg11.dtd">
<!-- Generated by graphviz version 2.49.3 (20211027.1534)
 -->
<!-- Title: src/ftp.c Pages: 1 -->
<svg width="687pt" height="252pt"
 viewBox="0.00 0.00 687.00 252.00" xmlns="http://www.w3.org/2000/svg" xmlns:xlink="http://www.w3.org/1999/xlink">
<g id="graph0" class="graph" transform="scale(1 1) rotate(0) translate(4 248)">
<title>src/ftp.c</title>
<!-- Node1 -->
<g id="node1" class="node">
<title>Node1</title>
<g id="a_node1"><a xlink:title=" ">
<polygon fill="#bfbfbf" stroke="black" points="127.5,-224.5 127.5,-243.5 179.5,-243.5 179.5,-224.5 127.5,-224.5"/>
<text text-anchor="middle" x="153.5" y="-231.5" font-family="Helvetica,sans-Serif" font-size="10.00">src/ftp.c</text>
</a>
</g>
</g>
<!-- Node2 -->
<g id="node2" class="node">
<title>Node2</title>
<g id="a_node2"><a xlink:href="ftp_8h.html" target="_top" xlink:title=" ">
<polygon fill="none" stroke="black" points="136,-168.5 136,-187.5 171,-187.5 171,-168.5 136,-168.5"/>
<text text-anchor="middle" x="153.5" y="-175.5" font-family="Helvetica,sans-Serif" font-size="10.00">ftp.h</text>
</a>
</g>
</g>
<!-- Node1&#45;&gt;Node2 -->
<g id="edge1" class="edge">
<title>Node1&#45;&gt;Node2</title>
<path fill="none" stroke="midnightblue" d="M153.5,-224.08C153.5,-217.01 153.5,-206.86 153.5,-197.99"/>
<polygon fill="midnightblue" stroke="midnightblue" points="157,-197.75 153.5,-187.75 150,-197.75 157,-197.75"/>
</g>
<!-- Node3 -->
<g id="node3" class="node">
<title>Node3</title>
<g id="a_node3"><a xlink:title=" ">
<polygon fill="none" stroke="#bfbfbf" points="0,-56.5 0,-75.5 47,-75.5 47,-56.5 0,-56.5"/>
<text text-anchor="middle" x="23.5" y="-63.5" font-family="Helvetica,sans-Serif" font-size="10.00">stdlib.h</text>
</a>
</g>
</g>
<!-- Node2&#45;&gt;Node3 -->
<g id="edge2" class="edge">
<title>Node2&#45;&gt;Node3</title>
<path fill="none" stroke="midnightblue" d="M143.3,-168.37C121.28,-149.73 69.04,-105.53 41.39,-82.13"/>
<polygon fill="midnightblue" stroke="midnightblue" points="43.55,-79.38 33.65,-75.59 39.03,-84.72 43.55,-79.38"/>
</g>
<!-- Node4 -->
<g id="node4" class="node">
<title>Node4</title>
<g id="a_node4"><a xlink:title=" ">
<polygon fill="none" stroke="#bfbfbf" points="65.5,-56.5 65.5,-75.5 113.5,-75.5 113.5,-56.5 65.5,-56.5"/>
<text text-anchor="middle" x="89.5" y="-63.5" font-family="Helvetica,sans-Serif" font-size="10.00">string.h</text>
</a>
</g>
</g>
<!-- Node2&#45;&gt;Node4 -->
<g id="edge3" class="edge">
<title>Node2&#45;&gt;Node4</title>
<path fill="none" stroke="midnightblue" d="M148.48,-168.37C137.96,-150.3 113.46,-108.18 99.57,-84.31"/>
<polygon fill="midnightblue" stroke="midnightblue" points="102.55,-82.47 94.5,-75.59 96.5,-86 102.55,-82.47"/>
</g>
<!-- Node5 -->
<g id="node5" class="node">
<title>Node5</title>
<g id="a_node5"><a xlink:title=" ">
<polygon fill="none" stroke="#bfbfbf" points="132,-56.5 132,-75.5 191,-75.5 191,-56.5 132,-56.5"/>
<text text-anchor="middle" x="161.5" y="-63.5" font-family="Helvetica,sans-Serif" font-size="10.00">curl/curl.h</text>
</a>
</g>
</g>
<!-- Node2&#45;&gt;Node5 -->
<g id="edge4" class="edge">
<title>Node2&#45;&gt;Node5</title>
<path fill="none" stroke="midnightblue" d="M154.13,-168.37C155.42,-150.62 158.4,-109.67 160.15,-85.6"/>
<polygon fill="midnightblue" stroke="midnightblue" points="163.64,-85.82 160.88,-75.59 156.66,-85.31 163.64,-85.82"/>
</g>
<!-- Node6 -->
<g id="node6" class="node">
<title>Node6</title>
<g id="a_node6"><a xlink:title=" ">
<polygon fill="none" stroke="#bfbfbf" points="209.5,-56.5 209.5,-75.5 255.5,-75.5 255.5,-56.5 209.5,-56.5"/>
<text text-anchor="middle" x="232.5" y="-63.5" font-family="Helvetica,sans-Serif" font-size="10.00">errno.h</text>
</a>
</g>
</g>
<!-- Node2&#45;&gt;Node6 -->
<g id="edge5" class="edge">
<title>Node2&#45;&gt;Node6</title>
<path fill="none" stroke="midnightblue" d="M159.7,-168.37C172.74,-150.22 203.2,-107.8 220.3,-83.99"/>
<polygon fill="midnightblue" stroke="midnightblue" points="223.34,-85.76 226.33,-75.59 217.65,-81.67 223.34,-85.76"/>
</g>
<!-- Node7 -->
<g id="node7" class="node">
<title>Node7</title>
<g id="a_node7"><a xlink:href="utils_8h.html" target="_top" xlink:title=" ">
<polygon fill="none" stroke="black" points="219.5,-112.5 219.5,-131.5 261.5,-131.5 261.5,-112.5 219.5,-112.5"/>
<text text-anchor="middle" x="240.5" y="-119.5" font-family="Helvetica,sans-Serif" font-size="10.00">utils.h</text>
</a>
</g>
</g>
<!-- Node2&#45;&gt;Node7 -->
<g id="edge6" class="edge">
<title>Node2&#45;&gt;Node7</title>
<path fill="none" stroke="midnightblue" d="M167.48,-168.32C181.05,-159.9 201.88,-146.97 217.82,-137.07"/>
<polygon fill="midnightblue" stroke="midnightblue" points="219.91,-139.9 226.56,-131.65 216.21,-133.95 219.91,-139.9"/>
</g>
<!-- Node7&#45;&gt;Node3 -->
<g id="edge7" class="edge">
<title>Node7&#45;&gt;Node3</title>
<path fill="none" stroke="midnightblue" d="M219.48,-116.05C186.93,-108.34 122.14,-92.84 57.26,-76.14"/>
<polygon fill="midnightblue" stroke="midnightblue" points="57.83,-72.68 47.27,-73.56 56.08,-79.45 57.83,-72.68"/>
</g>
<!-- Node7&#45;&gt;Node4 -->
<g id="edge8" class="edge">
<title>Node7&#45;&gt;Node4</title>
<path fill="none" stroke="midnightblue" d="M219.19,-113.38C194.13,-104.42 152.26,-89.44 122.89,-78.94"/>
<polygon fill="midnightblue" stroke="midnightblue" points="124.04,-75.64 113.45,-75.56 121.68,-82.23 124.04,-75.64"/>
</g>
<!-- Node7&#45;&gt;Node5 -->
<g id="edge9" class="edge">
<title>Node7&#45;&gt;Node5</title>
<path fill="none" stroke="midnightblue" d="M227.81,-112.32C215.6,-103.98 196.92,-91.21 182.5,-81.35"/>
<polygon fill="midnightblue" stroke="midnightblue" points="184.39,-78.41 174.16,-75.65 180.44,-84.19 184.39,-78.41"/>
</g>
<!-- Node7&#45;&gt;Node6 -->
<g id="edge13" class="edge">
<title>Node7&#45;&gt;Node6</title>
<path fill="none" stroke="midnightblue" d="M239.18,-112.08C238.12,-104.93 236.59,-94.64 235.27,-85.69"/>
<polygon fill="midnightblue" stroke="midnightblue" points="238.72,-85.13 233.8,-75.75 231.8,-86.16 238.72,-85.13"/>
</g>
<!-- Node8 -->
<g id="node8" class="node">
<title>Node8</title>
<g id="a_node8"><a xlink:title=" ">
<polygon fill="none" stroke="#bfbfbf" points="274,-56.5 274,-75.5 357,-75.5 357,-56.5 274,-56.5"/>
<text text-anchor="middle" x="315.5" y="-63.5" font-family="Helvetica,sans-Serif" font-size="10.00">cjson/cJSON.h</text>
</a>
</g>
</g>
<!-- Node7&#45;&gt;Node8 -->
<g id="edge10" class="edge">
<title>Node7&#45;&gt;Node8</title>
<path fill="none" stroke="midnightblue" d="M252.55,-112.32C263.96,-104.11 281.33,-91.6 294.93,-81.81"/>
<polygon fill="midnightblue" stroke="midnightblue" points="297.16,-84.52 303.23,-75.83 293.07,-78.84 297.16,-84.52"/>
</g>
<!-- Node9 -->
<g id="node9" class="node">
<title>Node9</title>
<g id="a_node9"><a xlink:title=" ">
<polygon fill="none" stroke="#bfbfbf" points="375,-56.5 375,-75.5 434,-75.5 434,-56.5 375,-56.5"/>
<text text-anchor="middle" x="404.5" y="-63.5" font-family="Helvetica,sans-Serif" font-size="10.00">sys/stat.h</text>
</a>
</g>
</g>
<!-- Node7&#45;&gt;Node9 -->
<g id="edge11" class="edge">
<title>Node7&#45;&gt;Node9</title>
<path fill="none" stroke="midnightblue" d="M261.6,-114.05C288.73,-105.12 336.23,-89.48 368.97,-78.7"/>
<polygon fill="midnightblue" stroke="midnightblue" points="370.21,-81.97 378.62,-75.52 368.02,-75.33 370.21,-81.97"/>
</g>
<!-- Node10 -->
<g id="node10" class="node">
<title>Node10</title>
<g id="a_node10"><a xlink:title=" ">
<polygon fill="none" stroke="#bfbfbf" points="452,-56.5 452,-75.5 517,-75.5 517,-56.5 452,-56.5"/>
<text text-anchor="middle" x="484.5" y="-63.5" font-family="Helvetica,sans-Serif" font-size="10.00">sys/types.h</text>
</a>
</g>
</g>
<!-- Node7&#45;&gt;Node10 -->
<g id="edge12" class="edge">
<title>Node7&#45;&gt;Node10</title>
<path fill="none" stroke="midnightblue" d="M261.73,-116.3C301.73,-107.45 388.97,-88.14 441.63,-76.49"/>
<polygon fill="midnightblue" stroke="midnightblue" points="442.66,-79.84 451.67,-74.27 441.15,-73.01 442.66,-79.84"/>
</g>
<!-- Node11 -->
<g id="node11" class="node">
<title>Node11</title>
<g id="a_node11"><a xlink:href="log_8h.html" target="_top" xlink:title=" ">
<polygon fill="none" stroke="black" points="535,-56.5 535,-75.5 572,-75.5 572,-56.5 535,-56.5"/>
<text text-anchor="middle" x="553.5" y="-63.5" font-family="Helvetica,sans-Serif" font-size="10.00">log.h</text>
</a>
</g>
</g>
<!-- Node7&#45;&gt;Node11 -->
<g id="edge14" class="edge">
<title>Node7&#45;&gt;Node11</title>
<path fill="none" stroke="midnightblue" d="M261.55,-118.9C307.72,-114.03 421.42,-100.66 524.77,-76.11"/>
<polygon fill="midnightblue" stroke="midnightblue" points="525.84,-79.45 534.73,-73.7 524.19,-72.65 525.84,-79.45"/>
</g>
<!-- Node12 -->
<g id="node12" class="node">
<title>Node12</title>
<g id="a_node12"><a xlink:title=" ">
<polygon fill="none" stroke="#bfbfbf" points="429,-0.5 429,-19.5 474,-19.5 474,-0.5 429,-0.5"/>
<text text-anchor="middle" x="451.5" y="-7.5" font-family="Helvetica,sans-Serif" font-size="10.00">stdio.h</text>
</a>
</g>
</g>
<!-- Node11&#45;&gt;Node12 -->
<g id="edge15" class="edge">
<title>Node11&#45;&gt;Node12</title>
<path fill="none" stroke="midnightblue" d="M537.11,-56.32C520.83,-47.7 495.63,-34.36 476.78,-24.39"/>
<polygon fill="midnightblue" stroke="midnightblue" points="478.32,-21.24 467.85,-19.65 475.05,-27.43 478.32,-21.24"/>
</g>
<!-- Node13 -->
<g id="node13" class="node">
<title>Node13</title>
<g id="a_node13"><a xlink:title=" ">
<polygon fill="none" stroke="#bfbfbf" points="492,-0.5 492,-19.5 543,-19.5 543,-0.5 492,-0.5"/>
<text text-anchor="middle" x="517.5" y="-7.5" font-family="Helvetica,sans-Serif" font-size="10.00">stdarg.h</text>
</a>
</g>
</g>
<!-- Node11&#45;&gt;Node13 -->
<g id="edge16" class="edge">
<title>Node11&#45;&gt;Node13</title>
<path fill="none" stroke="midnightblue" d="M547.56,-56.08C542.52,-48.53 535.16,-37.49 528.99,-28.23"/>
<polygon fill="midnightblue" stroke="midnightblue" points="531.79,-26.13 523.33,-19.75 525.97,-30.01 531.79,-26.13"/>
</g>
<!-- Node14 -->
<g id="node14" class="node">
<title>Node14</title>
<g id="a_node14"><a xlink:title=" ">
<polygon fill="none" stroke="#bfbfbf" points="561.5,-0.5 561.5,-19.5 617.5,-19.5 617.5,-0.5 561.5,-0.5"/>
<text text-anchor="middle" x="589.5" y="-7.5" font-family="Helvetica,sans-Serif" font-size="10.00">stdbool.h</text>
</a>
</g>
</g>
<!-- Node11&#45;&gt;Node14 -->
<g id="edge17" class="edge">
<title>Node11&#45;&gt;Node14</title>
<path fill="none" stroke="midnightblue" d="M559.44,-56.08C564.48,-48.53 571.84,-37.49 578.01,-28.23"/>
<polygon fill="midnightblue" stroke="midnightblue" points="581.03,-30.01 583.67,-19.75 575.21,-26.13 581.03,-30.01"/>
</g>
<!-- Node15 -->
<g id="node15" class="node">
<title>Node15</title>
<g id="a_node15"><a xlink:title=" ">
<polygon fill="none" stroke="#bfbfbf" points="636,-0.5 636,-19.5 679,-19.5 679,-0.5 636,-0.5"/>
<text text-anchor="middle" x="657.5" y="-7.5" font-family="Helvetica,sans-Serif" font-size="10.00">time.h</text>
</a>
</g>
</g>
<!-- Node11&#45;&gt;Node15 -->
<g id="edge18" class="edge">
<title>Node11&#45;&gt;Node15</title>
<path fill="none" stroke="midnightblue" d="M570.21,-56.32C586.81,-47.7 612.5,-34.36 631.72,-24.39"/>
<polygon fill="midnightblue" stroke="midnightblue" points="633.57,-27.37 640.83,-19.65 630.34,-21.16 633.57,-27.37"/>
</g>
</g>
</svg>
