<?xml version="1.0" encoding="UTF-8" standalone="no"?>
<!DOCTYPE svg PUBLIC "-//W3C//DTD SVG 1.1//EN"
 "http://www.w3.org/Graphics/SVG/1.1/DTD/svg11.dtd">
<!-- Generated by graphviz version 2.49.3 (20211027.1534)
 -->
<!-- Title: include/ftp.h Pages: 1 -->
<svg width="818pt" height="196pt"
 viewBox="0.00 0.00 818.00 196.00" xmlns="http://www.w3.org/2000/svg" xmlns:xlink="http://www.w3.org/1999/xlink">
<g id="graph0" class="graph" transform="scale(1 1) rotate(0) translate(4 192)">
<title>include/ftp.h</title>
<!-- Node1 -->
<g id="node1" class="node">
<title>Node1</title>
<g id="a_node1"><a xlink:title=" ">
<polygon fill="#bfbfbf" stroke="black" points="127,-168.5 127,-187.5 196,-187.5 196,-168.5 127,-168.5"/>
<text text-anchor="middle" x="161.5" y="-175.5" font-family="Helvetica,sans-Serif" font-size="10.00">include/ftp.h</text>
</a>
</g>
</g>
<!-- Node2 -->
<g id="node2" class="node">
<title>Node2</title>
<g id="a_node2"><a xlink:title=" ">
<polygon fill="none" stroke="#bfbfbf" points="0,-56.5 0,-75.5 47,-75.5 47,-56.5 0,-56.5"/>
<text text-anchor="middle" x="23.5" y="-63.5" font-family="Helvetica,sans-Serif" font-size="10.00">stdlib.h</text>
</a>
</g>
</g>
<!-- Node1&#45;&gt;Node2 -->
<g id="edge1" class="edge">
<title>Node1&#45;&gt;Node2</title>
<path fill="none" stroke="midnightblue" d="M150.67,-168.37C127.19,-149.65 71.36,-105.15 42.11,-81.83"/>
<polygon fill="midnightblue" stroke="midnightblue" points="44.28,-79.09 34.28,-75.59 39.92,-84.56 44.28,-79.09"/>
</g>
<!-- Node3 -->
<g id="node3" class="node">
<title>Node3</title>
<g id="a_node3"><a xlink:title=" ">
<polygon fill="none" stroke="#bfbfbf" points="65.5,-56.5 65.5,-75.5 113.5,-75.5 113.5,-56.5 65.5,-56.5"/>
<text text-anchor="middle" x="89.5" y="-63.5" font-family="Helvetica,sans-Serif" font-size="10.00">string.h</text>
</a>
</g>
</g>
<!-- Node1&#45;&gt;Node3 -->
<g id="edge2" class="edge">
<title>Node1&#45;&gt;Node3</title>
<path fill="none" stroke="midnightblue" d="M155.85,-168.37C143.97,-150.22 116.21,-107.8 100.62,-83.99"/>
<polygon fill="midnightblue" stroke="midnightblue" points="103.53,-82.04 95.12,-75.59 97.67,-85.88 103.53,-82.04"/>
</g>
<!-- Node4 -->
<g id="node4" class="node">
<title>Node4</title>
<g id="a_node4"><a xlink:title=" ">
<polygon fill="none" stroke="#bfbfbf" points="132,-56.5 132,-75.5 191,-75.5 191,-56.5 132,-56.5"/>
<text text-anchor="middle" x="161.5" y="-63.5" font-family="Helvetica,sans-Serif" font-size="10.00">curl/curl.h</text>
</a>
</g>
</g>
<!-- Node1&#45;&gt;Node4 -->
<g id="edge3" class="edge">
<title>Node1&#45;&gt;Node4</title>
<path fill="none" stroke="midnightblue" d="M161.5,-168.37C161.5,-150.62 161.5,-109.67 161.5,-85.6"/>
<polygon fill="midnightblue" stroke="midnightblue" points="165,-85.59 161.5,-75.59 158,-85.59 165,-85.59"/>
</g>
<!-- Node5 -->
<g id="node5" class="node">
<title>Node5</title>
<g id="a_node5"><a xlink:title=" ">
<polygon fill="none" stroke="#bfbfbf" points="209.5,-56.5 209.5,-75.5 255.5,-75.5 255.5,-56.5 209.5,-56.5"/>
<text text-anchor="middle" x="232.5" y="-63.5" font-family="Helvetica,sans-Serif" font-size="10.00">errno.h</text>
</a>
</g>
</g>
<!-- Node1&#45;&gt;Node5 -->
<g id="edge4" class="edge">
<title>Node1&#45;&gt;Node5</title>
<path fill="none" stroke="midnightblue" d="M167.07,-168.37C178.74,-150.3 205.92,-108.18 221.33,-84.31"/>
<polygon fill="midnightblue" stroke="midnightblue" points="224.47,-85.89 226.95,-75.59 218.59,-82.1 224.47,-85.89"/>
</g>
<!-- Node6 -->
<g id="node6" class="node">
<title>Node6</title>
<g id="a_node6"><a xlink:href="utils_8h.html" target="_top" xlink:title=" ">
<polygon fill="none" stroke="black" points="276.5,-112.5 276.5,-131.5 318.5,-131.5 318.5,-112.5 276.5,-112.5"/>
<text text-anchor="middle" x="297.5" y="-119.5" font-family="Helvetica,sans-Serif" font-size="10.00">utils.h</text>
</a>
</g>
</g>
<!-- Node1&#45;&gt;Node6 -->
<g id="edge5" class="edge">
<title>Node1&#45;&gt;Node6</title>
<path fill="none" stroke="midnightblue" d="M183.05,-168.44C205.66,-159.46 241.41,-145.27 266.93,-135.14"/>
<polygon fill="midnightblue" stroke="midnightblue" points="268.5,-138.28 276.5,-131.34 265.91,-131.78 268.5,-138.28"/>
</g>
<!-- Node6&#45;&gt;Node2 -->
<g id="edge6" class="edge">
<title>Node6&#45;&gt;Node2</title>
<path fill="none" stroke="midnightblue" d="M276.43,-117.66C235.9,-111.11 144.14,-95.67 57.01,-75.96"/>
<polygon fill="midnightblue" stroke="midnightblue" points="57.76,-72.54 47.23,-73.72 56.2,-79.36 57.76,-72.54"/>
</g>
<!-- Node6&#45;&gt;Node3 -->
<g id="edge7" class="edge">
<title>Node6&#45;&gt;Node3</title>
<path fill="none" stroke="midnightblue" d="M276.46,-115.7C245.24,-107.8 184.57,-92.37 123.45,-76.22"/>
<polygon fill="midnightblue" stroke="midnightblue" points="124.2,-72.8 113.64,-73.63 122.41,-79.57 124.2,-72.8"/>
</g>
<!-- Node6&#45;&gt;Node4 -->
<g id="edge8" class="edge">
<title>Node6&#45;&gt;Node4</title>
<path fill="none" stroke="midnightblue" d="M276.25,-112.56C253.83,-103.66 218.26,-89.54 192.66,-79.37"/>
<polygon fill="midnightblue" stroke="midnightblue" points="193.64,-75.99 183.05,-75.56 191.05,-82.5 193.64,-75.99"/>
</g>
<!-- Node6&#45;&gt;Node5 -->
<g id="edge13" class="edge">
<title>Node6&#45;&gt;Node5</title>
<path fill="none" stroke="midnightblue" d="M287.06,-112.32C277.35,-104.26 262.68,-92.08 251,-82.37"/>
<polygon fill="midnightblue" stroke="midnightblue" points="253.06,-79.53 243.13,-75.83 248.59,-84.92 253.06,-79.53"/>
</g>
<!-- Node7 -->
<g id="node7" class="node">
<title>Node7</title>
<g id="a_node7"><a xlink:title=" ">
<polygon fill="none" stroke="#bfbfbf" points="273.5,-56.5 273.5,-75.5 321.5,-75.5 321.5,-56.5 273.5,-56.5"/>
<text text-anchor="middle" x="297.5" y="-63.5" font-family="Helvetica,sans-Serif" font-size="10.00">stdint.h</text>
</a>
</g>
</g>
<!-- Node6&#45;&gt;Node7 -->
<g id="edge9" class="edge">
<title>Node6&#45;&gt;Node7</title>
<path fill="none" stroke="midnightblue" d="M297.5,-112.08C297.5,-105.01 297.5,-94.86 297.5,-85.99"/>
<polygon fill="midnightblue" stroke="midnightblue" points="301,-85.75 297.5,-75.75 294,-85.75 301,-85.75"/>
</g>
<!-- Node8 -->
<g id="node8" class="node">
<title>Node8</title>
<g id="a_node8"><a xlink:title=" ">
<polygon fill="none" stroke="#bfbfbf" points="340,-56.5 340,-75.5 423,-75.5 423,-56.5 340,-56.5"/>
<text text-anchor="middle" x="381.5" y="-63.5" font-family="Helvetica,sans-Serif" font-size="10.00">cjson/cJSON.h</text>
</a>
</g>
</g>
<!-- Node6&#45;&gt;Node8 -->
<g id="edge10" class="edge">
<title>Node6&#45;&gt;Node8</title>
<path fill="none" stroke="midnightblue" d="M311,-112.32C324.1,-103.9 344.21,-90.97 359.61,-81.07"/>
<polygon fill="midnightblue" stroke="midnightblue" points="361.52,-84.01 368.04,-75.65 357.73,-78.12 361.52,-84.01"/>
</g>
<!-- Node9 -->
<g id="node9" class="node">
<title>Node9</title>
<g id="a_node9"><a xlink:title=" ">
<polygon fill="none" stroke="#bfbfbf" points="441,-56.5 441,-75.5 500,-75.5 500,-56.5 441,-56.5"/>
<text text-anchor="middle" x="470.5" y="-63.5" font-family="Helvetica,sans-Serif" font-size="10.00">sys/stat.h</text>
</a>
</g>
</g>
<!-- Node6&#45;&gt;Node9 -->
<g id="edge11" class="edge">
<title>Node6&#45;&gt;Node9</title>
<path fill="none" stroke="midnightblue" d="M318.71,-114.38C347.21,-105.48 398.3,-89.54 433.28,-78.62"/>
<polygon fill="midnightblue" stroke="midnightblue" points="434.62,-81.87 443.12,-75.55 432.53,-75.18 434.62,-81.87"/>
</g>
<!-- Node10 -->
<g id="node10" class="node">
<title>Node10</title>
<g id="a_node10"><a xlink:title=" ">
<polygon fill="none" stroke="#bfbfbf" points="518,-56.5 518,-75.5 583,-75.5 583,-56.5 518,-56.5"/>
<text text-anchor="middle" x="550.5" y="-63.5" font-family="Helvetica,sans-Serif" font-size="10.00">sys/types.h</text>
</a>
</g>
</g>
<!-- Node6&#45;&gt;Node10 -->
<g id="edge12" class="edge">
<title>Node6&#45;&gt;Node10</title>
<path fill="none" stroke="midnightblue" d="M318.77,-116.47C355.19,-108.71 432.1,-92.33 507.76,-76.16"/>
<polygon fill="midnightblue" stroke="midnightblue" points="508.89,-79.49 517.94,-73.98 507.43,-72.65 508.89,-79.49"/>
</g>
<!-- Node11 -->
<g id="node11" class="node">
<title>Node11</title>
<g id="a_node11"><a xlink:title=" ">
<polygon fill="none" stroke="#bfbfbf" points="601.5,-56.5 601.5,-75.5 647.5,-75.5 647.5,-56.5 601.5,-56.5"/>
<text text-anchor="middle" x="624.5" y="-63.5" font-family="Helvetica,sans-Serif" font-size="10.00">math.h</text>
</a>
</g>
</g>
<!-- Node6&#45;&gt;Node11 -->
<g id="edge14" class="edge">
<title>Node6&#45;&gt;Node11</title>
<path fill="none" stroke="midnightblue" d="M318.68,-118.6C365.78,-113.09 482.85,-98.41 591.04,-75.86"/>
<polygon fill="midnightblue" stroke="midnightblue" points="592.08,-79.22 601.14,-73.72 590.64,-72.37 592.08,-79.22"/>
</g>
<!-- Node12 -->
<g id="node12" class="node">
<title>Node12</title>
<g id="a_node12"><a xlink:href="log_8h.html" target="_top" xlink:title=" ">
<polygon fill="none" stroke="black" points="666,-56.5 666,-75.5 703,-75.5 703,-56.5 666,-56.5"/>
<text text-anchor="middle" x="684.5" y="-63.5" font-family="Helvetica,sans-Serif" font-size="10.00">log.h</text>
</a>
</g>
</g>
<!-- Node6&#45;&gt;Node12 -->
<g id="edge15" class="edge">
<title>Node6&#45;&gt;Node12</title>
<path fill="none" stroke="midnightblue" d="M318.78,-119.72C373.32,-116.15 522.63,-104.55 655.98,-75.69"/>
<polygon fill="midnightblue" stroke="midnightblue" points="656.94,-79.06 665.96,-73.49 655.44,-72.23 656.94,-79.06"/>
</g>
<!-- Node13 -->
<g id="node13" class="node">
<title>Node13</title>
<g id="a_node13"><a xlink:title=" ">
<polygon fill="none" stroke="#bfbfbf" points="560,-0.5 560,-19.5 605,-19.5 605,-0.5 560,-0.5"/>
<text text-anchor="middle" x="582.5" y="-7.5" font-family="Helvetica,sans-Serif" font-size="10.00">stdio.h</text>
</a>
</g>
</g>
<!-- Node12&#45;&gt;Node13 -->
<g id="edge16" class="edge">
<title>Node12&#45;&gt;Node13</title>
<path fill="none" stroke="midnightblue" d="M668.11,-56.32C651.83,-47.7 626.63,-34.36 607.78,-24.39"/>
<polygon fill="midnightblue" stroke="midnightblue" points="609.32,-21.24 598.85,-19.65 606.05,-27.43 609.32,-21.24"/>
</g>
<!-- Node14 -->
<g id="node14" class="node">
<title>Node14</title>
<g id="a_node14"><a xlink:title=" ">
<polygon fill="none" stroke="#bfbfbf" points="623,-0.5 623,-19.5 674,-19.5 674,-0.5 623,-0.5"/>
<text text-anchor="middle" x="648.5" y="-7.5" font-family="Helvetica,sans-Serif" font-size="10.00">stdarg.h</text>
</a>
</g>
</g>
<!-- Node12&#45;&gt;Node14 -->
<g id="edge17" class="edge">
<title>Node12&#45;&gt;Node14</title>
<path fill="none" stroke="midnightblue" d="M678.56,-56.08C673.52,-48.53 666.16,-37.49 659.99,-28.23"/>
<polygon fill="midnightblue" stroke="midnightblue" points="662.79,-26.13 654.33,-19.75 656.97,-30.01 662.79,-26.13"/>
</g>
<!-- Node15 -->
<g id="node15" class="node">
<title>Node15</title>
<g id="a_node15"><a xlink:title=" ">
<polygon fill="none" stroke="#bfbfbf" points="692.5,-0.5 692.5,-19.5 748.5,-19.5 748.5,-0.5 692.5,-0.5"/>
<text text-anchor="middle" x="720.5" y="-7.5" font-family="Helvetica,sans-Serif" font-size="10.00">stdbool.h</text>
</a>
</g>
</g>
<!-- Node12&#45;&gt;Node15 -->
<g id="edge18" class="edge">
<title>Node12&#45;&gt;Node15</title>
<path fill="none" stroke="midnightblue" d="M690.44,-56.08C695.48,-48.53 702.84,-37.49 709.01,-28.23"/>
<polygon fill="midnightblue" stroke="midnightblue" points="712.03,-30.01 714.67,-19.75 706.21,-26.13 712.03,-30.01"/>
</g>
<!-- Node16 -->
<g id="node16" class="node">
<title>Node16</title>
<g id="a_node16"><a xlink:title=" ">
<polygon fill="none" stroke="#bfbfbf" points="767,-0.5 767,-19.5 810,-19.5 810,-0.5 767,-0.5"/>
<text text-anchor="middle" x="788.5" y="-7.5" font-family="Helvetica,sans-Serif" font-size="10.00">time.h</text>
</a>
</g>
</g>
<!-- Node12&#45;&gt;Node16 -->
<g id="edge19" class="edge">
<title>Node12&#45;&gt;Node16</title>
<path fill="none" stroke="midnightblue" d="M701.21,-56.32C717.81,-47.7 743.5,-34.36 762.72,-24.39"/>
<polygon fill="midnightblue" stroke="midnightblue" points="764.57,-27.37 771.83,-19.65 761.34,-21.16 764.57,-27.37"/>
</g>
</g>
</svg>
