<?xml version="1.0" encoding="UTF-8" standalone="no"?>
<!DOCTYPE svg PUBLIC "-//W3C//DTD SVG 1.1//EN"
 "http://www.w3.org/Graphics/SVG/1.1/DTD/svg11.dtd">
<!-- Generated by graphviz version 2.49.3 (20211027.1534)
 -->
<!-- Title: include/ftp.h Pages: 1 -->
<svg width="310pt" height="274pt"
 viewBox="0.00 0.00 310.00 274.00" xmlns="http://www.w3.org/2000/svg" xmlns:xlink="http://www.w3.org/1999/xlink">
<g id="graph0" class="graph" transform="scale(1 1) rotate(0) translate(4 270)">
<title>include/ftp.h</title>
<!-- Node1 -->
<g id="node1" class="node">
<title>Node1</title>
<g id="a_node1"><a xlink:title=" ">
<polygon fill="#bfbfbf" stroke="black" points="127,-246.5 127,-265.5 196,-265.5 196,-246.5 127,-246.5"/>
<text text-anchor="middle" x="161.5" y="-253.5" font-family="Helvetica,sans-Serif" font-size="10.00">include/ftp.h</text>
</a>
</g>
</g>
<!-- Node2 -->
<g id="node2" class="node">
<title>Node2</title>
<g id="a_node2"><a xlink:href="historical__weather_8h.html" target="_top" xlink:title=" ">
<polygon fill="none" stroke="black" points="187,-123.5 187,-153.5 302,-153.5 302,-123.5 187,-123.5"/>
<text text-anchor="start" x="195" y="-141.5" font-family="Helvetica,sans-Serif" font-size="10.00">include/BOM/historical</text>
<text text-anchor="middle" x="244.5" y="-130.5" font-family="Helvetica,sans-Serif" font-size="10.00">_weather.h</text>
</a>
</g>
</g>
<!-- Node1&#45;&gt;Node2 -->
<g id="edge1" class="edge">
<title>Node1&#45;&gt;Node2</title>
<path fill="none" stroke="midnightblue" d="M173.76,-237.94C190.22,-215.04 219.14,-174.79 234.41,-153.55"/>
<polygon fill="midnightblue" stroke="midnightblue" points="170.73,-236.16 167.74,-246.32 176.42,-240.24 170.73,-236.16"/>
</g>
<!-- Node3 -->
<g id="node3" class="node">
<title>Node3</title>
<g id="a_node3"><a xlink:href="main_8h.html" target="_top" xlink:title=" ">
<polygon fill="none" stroke="black" points="0,-62 0,-81 79,-81 79,-62 0,-62"/>
<text text-anchor="middle" x="39.5" y="-69" font-family="Helvetica,sans-Serif" font-size="10.00">include/main.h</text>
</a>
</g>
</g>
<!-- Node1&#45;&gt;Node3 -->
<g id="edge9" class="edge">
<title>Node1&#45;&gt;Node3</title>
<path fill="none" stroke="midnightblue" d="M117.19,-247.94C93.78,-241.86 66.64,-230.64 50.5,-210 19.81,-170.76 31.73,-104.52 37.28,-81.05"/>
<polygon fill="midnightblue" stroke="midnightblue" points="116.41,-251.35 126.95,-250.24 118.02,-244.54 116.41,-251.35"/>
</g>
<!-- Node6 -->
<g id="node6" class="node">
<title>Node6</title>
<g id="a_node6"><a xlink:href="stations_8h.html" target="_top" xlink:title=" ">
<polygon fill="none" stroke="black" points="59.5,-190.5 59.5,-209.5 177.5,-209.5 177.5,-190.5 59.5,-190.5"/>
<text text-anchor="middle" x="118.5" y="-197.5" font-family="Helvetica,sans-Serif" font-size="10.00">include/BOM/stations.h</text>
</a>
</g>
</g>
<!-- Node1&#45;&gt;Node6 -->
<g id="edge5" class="edge">
<title>Node1&#45;&gt;Node6</title>
<path fill="none" stroke="midnightblue" d="M148.08,-238.14C140.59,-228.74 131.56,-217.4 125.47,-209.75"/>
<polygon fill="midnightblue" stroke="midnightblue" points="145.43,-240.44 154.4,-246.08 150.91,-236.08 145.43,-240.44"/>
</g>
<!-- Node8 -->
<g id="node8" class="node">
<title>Node8</title>
<g id="a_node8"><a xlink:href="ftp_8c.html" target="_top" xlink:title=" ">
<polygon fill="none" stroke="black" points="233.5,-190.5 233.5,-209.5 285.5,-209.5 285.5,-190.5 233.5,-190.5"/>
<text text-anchor="middle" x="259.5" y="-197.5" font-family="Helvetica,sans-Serif" font-size="10.00">src/ftp.c</text>
</a>
</g>
</g>
<!-- Node1&#45;&gt;Node8 -->
<g id="edge10" class="edge">
<title>Node1&#45;&gt;Node8</title>
<path fill="none" stroke="midnightblue" d="M186.09,-241.45C204.18,-231.48 228.23,-218.23 243.79,-209.65"/>
<polygon fill="midnightblue" stroke="midnightblue" points="184.31,-238.43 177.25,-246.32 187.69,-244.56 184.31,-238.43"/>
</g>
<!-- Node2&#45;&gt;Node3 -->
<g id="edge2" class="edge">
<title>Node2&#45;&gt;Node3</title>
<path fill="none" stroke="midnightblue" d="M190.66,-120.43C150.69,-107.75 97.85,-91 66.4,-81.03"/>
<polygon fill="midnightblue" stroke="midnightblue" points="189.68,-123.79 200.27,-123.48 191.8,-117.12 189.68,-123.79"/>
</g>
<!-- Node5 -->
<g id="node5" class="node">
<title>Node5</title>
<g id="a_node5"><a xlink:href="historical__weather_8c.html" target="_top" xlink:title=" ">
<polygon fill="none" stroke="black" points="195.5,-56.5 195.5,-86.5 293.5,-86.5 293.5,-56.5 195.5,-56.5"/>
<text text-anchor="start" x="203.5" y="-74.5" font-family="Helvetica,sans-Serif" font-size="10.00">src/BOM/historical</text>
<text text-anchor="middle" x="244.5" y="-63.5" font-family="Helvetica,sans-Serif" font-size="10.00">_weather.c</text>
</a>
</g>
</g>
<!-- Node2&#45;&gt;Node5 -->
<g id="edge4" class="edge">
<title>Node2&#45;&gt;Node5</title>
<path fill="none" stroke="midnightblue" d="M244.5,-113.11C244.5,-104.15 244.5,-94.32 244.5,-86.58"/>
<polygon fill="midnightblue" stroke="midnightblue" points="241,-113.4 244.5,-123.4 248,-113.4 241,-113.4"/>
</g>
<!-- Node4 -->
<g id="node4" class="node">
<title>Node4</title>
<g id="a_node4"><a xlink:href="main_8c.html" target="_top" xlink:title=" ">
<polygon fill="none" stroke="black" points="8.5,-0.5 8.5,-19.5 70.5,-19.5 70.5,-0.5 8.5,-0.5"/>
<text text-anchor="middle" x="39.5" y="-7.5" font-family="Helvetica,sans-Serif" font-size="10.00">src/main.c</text>
</a>
</g>
</g>
<!-- Node3&#45;&gt;Node4 -->
<g id="edge3" class="edge">
<title>Node3&#45;&gt;Node4</title>
<path fill="none" stroke="midnightblue" d="M39.5,-51.82C39.5,-41 39.5,-27.9 39.5,-19.51"/>
<polygon fill="midnightblue" stroke="midnightblue" points="36,-51.98 39.5,-61.98 43,-51.98 36,-51.98"/>
</g>
<!-- Node6&#45;&gt;Node2 -->
<g id="edge6" class="edge">
<title>Node6&#45;&gt;Node2</title>
<path fill="none" stroke="midnightblue" d="M145.61,-186.2C165.97,-176.58 193.84,-163.42 214.8,-153.52"/>
<polygon fill="midnightblue" stroke="midnightblue" points="144.1,-183.04 136.55,-190.48 147.09,-189.37 144.1,-183.04"/>
</g>
<!-- Node6&#45;&gt;Node3 -->
<g id="edge7" class="edge">
<title>Node6&#45;&gt;Node3</title>
<path fill="none" stroke="midnightblue" d="M92.29,-185.07C80.29,-177.42 66.89,-166.86 58.5,-154 43.33,-130.76 40.22,-96.83 39.62,-81.1"/>
<polygon fill="midnightblue" stroke="midnightblue" points="90.72,-188.21 101.1,-190.35 94.32,-182.21 90.72,-188.21"/>
</g>
<!-- Node7 -->
<g id="node7" class="node">
<title>Node7</title>
<g id="a_node7"><a xlink:href="stations_8c.html" target="_top" xlink:title=" ">
<polygon fill="none" stroke="black" points="68,-129 68,-148 169,-148 169,-129 68,-129"/>
<text text-anchor="middle" x="118.5" y="-136" font-family="Helvetica,sans-Serif" font-size="10.00">src/BOM/stations.c</text>
</a>
</g>
</g>
<!-- Node6&#45;&gt;Node7 -->
<g id="edge8" class="edge">
<title>Node6&#45;&gt;Node7</title>
<path fill="none" stroke="midnightblue" d="M118.5,-180.32C118.5,-169.5 118.5,-156.4 118.5,-148.01"/>
<polygon fill="midnightblue" stroke="midnightblue" points="115,-180.48 118.5,-190.48 122,-180.48 115,-180.48"/>
</g>
</g>
</svg>
