<?xml version="1.0" encoding="UTF-8" standalone="no"?>
<!DOCTYPE svg PUBLIC "-//W3C//DTD SVG 1.1//EN"
 "http://www.w3.org/Graphics/SVG/1.1/DTD/svg11.dtd">
<!-- Generated by graphviz version 2.43.0 (0)
 -->
<!-- Title: include/ftp.h Pages: 1 -->
<svg width="795pt" height="324pt"
 viewBox="0.00 0.00 794.50 324.00" xmlns="http://www.w3.org/2000/svg" xmlns:xlink="http://www.w3.org/1999/xlink">
<g id="graph0" class="graph" transform="scale(1 1) rotate(0) translate(4 320)">
<title>include/ftp.h</title>
<!-- Node1 -->
<g id="node1" class="node">
<title>Node1</title>
<g id="a_node1"><a xlink:title=" ">
<polygon fill="#999999" stroke="#666666" points="722.5,-316 645.5,-316 645.5,-297 722.5,-297 722.5,-316"/>
<text text-anchor="middle" x="684" y="-304" font-family="Helvetica,sans-Serif" font-size="10.00">include/ftp.h</text>
</a>
</g>
</g>
<!-- Node2 -->
<g id="node2" class="node">
<title>Node2</title>
<g id="a_node2"><a xlink:href="historical__weather_8h.html" target="_top" xlink:title=" ">
<polygon fill="white" stroke="#666666" points="637,-151 511,-151 511,-121 637,-121 637,-151"/>
<text text-anchor="start" x="519" y="-139" font-family="Helvetica,sans-Serif" font-size="10.00">include/BOM/historical</text>
<text text-anchor="middle" x="574" y="-128" font-family="Helvetica,sans-Serif" font-size="10.00">_weather.h</text>
</a>
</g>
</g>
<!-- Node1&#45;&gt;Node2 -->
<g id="edge1" class="edge">
<title>Node1&#45;&gt;Node2</title>
<path fill="none" stroke="#63b8ff" d="M672.75,-288.26C650.96,-254.89 603.4,-182.04 583.29,-151.22"/>
<polygon fill="#63b8ff" stroke="#63b8ff" points="670,-290.45 678.39,-296.91 675.86,-286.63 670,-290.45"/>
</g>
<!-- Node3 -->
<g id="node3" class="node">
<title>Node3</title>
<g id="a_node3"><a xlink:href="main_8h.html" target="_top" xlink:title=" ">
<polygon fill="white" stroke="#666666" points="496.5,-79.5 407.5,-79.5 407.5,-60.5 496.5,-60.5 496.5,-79.5"/>
<text text-anchor="middle" x="452" y="-67.5" font-family="Helvetica,sans-Serif" font-size="10.00">include/main.h</text>
</a>
</g>
</g>
<!-- Node1&#45;&gt;Node3 -->
<g id="edge20" class="edge">
<title>Node1&#45;&gt;Node3</title>
<path fill="none" stroke="#63b8ff" d="M686.09,-286.36C689.01,-249.22 689.75,-166.95 646,-121 640.53,-115.25 544.27,-92.29 489.44,-79.58"/>
<polygon fill="#63b8ff" stroke="#63b8ff" points="682.57,-286.45 685.12,-296.74 689.54,-287.11 682.57,-286.45"/>
</g>
<!-- Node6 -->
<g id="node6" class="node">
<title>Node6</title>
<g id="a_node6"><a xlink:href="stations_8h.html" target="_top" xlink:title=" ">
<polygon fill="white" stroke="#666666" points="505.5,-261 376.5,-261 376.5,-242 505.5,-242 505.5,-261"/>
<text text-anchor="middle" x="441" y="-249" font-family="Helvetica,sans-Serif" font-size="10.00">include/BOM/stations.h</text>
</a>
</g>
</g>
<!-- Node1&#45;&gt;Node6 -->
<g id="edge5" class="edge">
<title>Node1&#45;&gt;Node6</title>
<path fill="none" stroke="#63b8ff" d="M635.54,-294.93C589.91,-284.98 522.43,-270.26 480.13,-261.03"/>
<polygon fill="#63b8ff" stroke="#63b8ff" points="634.98,-298.39 645.5,-297.1 636.47,-291.55 634.98,-298.39"/>
</g>
<!-- Node14 -->
<g id="node14" class="node">
<title>Node14</title>
<g id="a_node14"><a xlink:href="ftp_8c.html" target="_top" xlink:title=" ">
<polygon fill="white" stroke="#666666" points="786.5,-261 731.5,-261 731.5,-242 786.5,-242 786.5,-261"/>
<text text-anchor="middle" x="759" y="-249" font-family="Helvetica,sans-Serif" font-size="10.00">src/ftp.c</text>
</a>
</g>
</g>
<!-- Node1&#45;&gt;Node14 -->
<g id="edge21" class="edge">
<title>Node1&#45;&gt;Node14</title>
<path fill="none" stroke="#63b8ff" d="M704.31,-291.15C717.86,-281.57 735.24,-269.29 746.73,-261.17"/>
<polygon fill="#63b8ff" stroke="#63b8ff" points="702.2,-288.36 696.05,-296.98 706.24,-294.07 702.2,-288.36"/>
</g>
<!-- Node2&#45;&gt;Node3 -->
<g id="edge2" class="edge">
<title>Node2&#45;&gt;Node3</title>
<path fill="none" stroke="#63b8ff" d="M538.35,-116.3C515.17,-104.14 486.04,-88.86 468.24,-79.52"/>
<polygon fill="#63b8ff" stroke="#63b8ff" points="536.75,-119.41 547.23,-120.95 540,-113.21 536.75,-119.41"/>
</g>
<!-- Node5 -->
<g id="node5" class="node">
<title>Node5</title>
<g id="a_node5"><a xlink:href="historical__weather_8c.html" target="_top" xlink:title=" ">
<polygon fill="white" stroke="#666666" points="626.5,-85 521.5,-85 521.5,-55 626.5,-55 626.5,-85"/>
<text text-anchor="start" x="529.5" y="-73" font-family="Helvetica,sans-Serif" font-size="10.00">src/BOM/historical</text>
<text text-anchor="middle" x="574" y="-62" font-family="Helvetica,sans-Serif" font-size="10.00">_weather.c</text>
</a>
</g>
</g>
<!-- Node2&#45;&gt;Node5 -->
<g id="edge4" class="edge">
<title>Node2&#45;&gt;Node5</title>
<path fill="none" stroke="#63b8ff" d="M574,-110.54C574,-101.96 574,-92.61 574,-85.16"/>
<polygon fill="#63b8ff" stroke="#63b8ff" points="570.5,-110.8 574,-120.8 577.5,-110.8 570.5,-110.8"/>
</g>
<!-- Node4 -->
<g id="node4" class="node">
<title>Node4</title>
<g id="a_node4"><a xlink:href="main_8c.html" target="_top" xlink:title=" ">
<polygon fill="white" stroke="#666666" points="485.5,-19 418.5,-19 418.5,0 485.5,0 485.5,-19"/>
<text text-anchor="middle" x="452" y="-7" font-family="Helvetica,sans-Serif" font-size="10.00">src/main.c</text>
</a>
</g>
</g>
<!-- Node3&#45;&gt;Node4 -->
<g id="edge3" class="edge">
<title>Node3&#45;&gt;Node4</title>
<path fill="none" stroke="#63b8ff" d="M452,-50.16C452,-39.74 452,-27.3 452,-19.17"/>
<polygon fill="#63b8ff" stroke="#63b8ff" points="448.5,-50.37 452,-60.37 455.5,-50.37 448.5,-50.37"/>
</g>
<!-- Node6&#45;&gt;Node2 -->
<g id="edge6" class="edge">
<title>Node6&#45;&gt;Node2</title>
<path fill="none" stroke="#63b8ff" d="M460.34,-235.59C471.24,-227.07 485.02,-216.11 497,-206 518.95,-187.47 543.54,-165.15 558.9,-151.02"/>
<polygon fill="#63b8ff" stroke="#63b8ff" points="458.06,-232.93 452.31,-241.83 462.36,-238.45 458.06,-232.93"/>
</g>
<!-- Node6&#45;&gt;Node3 -->
<g id="edge10" class="edge">
<title>Node6&#45;&gt;Node3</title>
<path fill="none" stroke="#63b8ff" d="M452.42,-233.15C456.98,-225.22 461.69,-215.49 464,-206 475.34,-159.36 460.99,-101.33 454.69,-79.67"/>
<polygon fill="#63b8ff" stroke="#63b8ff" points="449.36,-231.45 447.1,-241.8 455.32,-235.11 449.36,-231.45"/>
</g>
<!-- Node7 -->
<g id="node7" class="node">
<title>Node7</title>
<g id="a_node7"><a xlink:href="harvest__areas_8h.html" target="_top" xlink:title=" ">
<polygon fill="white" stroke="#666666" points="132.5,-151 9.5,-151 9.5,-121 132.5,-121 132.5,-151"/>
<text text-anchor="start" x="17.5" y="-139" font-family="Helvetica,sans-Serif" font-size="10.00">include/FoodAuthority</text>
<text text-anchor="middle" x="71" y="-128" font-family="Helvetica,sans-Serif" font-size="10.00">/harvest_areas.h</text>
</a>
</g>
</g>
<!-- Node6&#45;&gt;Node7 -->
<g id="edge7" class="edge">
<title>Node6&#45;&gt;Node7</title>
<path fill="none" stroke="#63b8ff" d="M409.8,-238.19C388.32,-229.55 359.23,-217.54 334,-206 316.83,-198.15 313.79,-193.32 296,-187 280.66,-181.55 193.88,-162.82 132.71,-149.9"/>
<polygon fill="#63b8ff" stroke="#63b8ff" points="408.5,-241.44 419.09,-241.9 411.1,-234.94 408.5,-241.44"/>
</g>
<!-- Node9 -->
<g id="node9" class="node">
<title>Node9</title>
<g id="a_node9"><a xlink:href="transform_8h.html" target="_top" xlink:title=" ">
<polygon fill="white" stroke="#666666" points="455,-206 343,-206 343,-187 455,-187 455,-206"/>
<text text-anchor="middle" x="399" y="-194" font-family="Helvetica,sans-Serif" font-size="10.00">include/transform.h</text>
</a>
</g>
</g>
<!-- Node6&#45;&gt;Node9 -->
<g id="edge11" class="edge">
<title>Node6&#45;&gt;Node9</title>
<path fill="none" stroke="#63b8ff" d="M427.67,-233.67C420.39,-224.5 411.7,-213.52 405.81,-206.09"/>
<polygon fill="#63b8ff" stroke="#63b8ff" points="425.11,-236.08 434.06,-241.75 430.6,-231.74 425.11,-236.08"/>
</g>
<!-- Node13 -->
<g id="node13" class="node">
<title>Node13</title>
<g id="a_node13"><a xlink:href="stations_8c.html" target="_top" xlink:title=" ">
<polygon fill="white" stroke="#666666" points="286.5,-206 179.5,-206 179.5,-187 286.5,-187 286.5,-206"/>
<text text-anchor="middle" x="233" y="-194" font-family="Helvetica,sans-Serif" font-size="10.00">src/BOM/stations.c</text>
</a>
</g>
</g>
<!-- Node6&#45;&gt;Node13 -->
<g id="edge19" class="edge">
<title>Node6&#45;&gt;Node13</title>
<path fill="none" stroke="#63b8ff" d="M397.59,-239.44C358.65,-229.52 302.31,-215.16 266.68,-206.08"/>
<polygon fill="#63b8ff" stroke="#63b8ff" points="397.03,-242.91 407.58,-241.98 398.76,-236.12 397.03,-242.91"/>
</g>
<!-- Node7&#45;&gt;Node3 -->
<g id="edge8" class="edge">
<title>Node7&#45;&gt;Node3</title>
<path fill="none" stroke="#63b8ff" d="M142.59,-120.93C243.26,-103.02 348.86,-86.59 407.25,-77.72"/>
<polygon fill="#63b8ff" stroke="#63b8ff" points="141.78,-117.52 132.55,-122.73 143.01,-124.41 141.78,-117.52"/>
</g>
<!-- Node8 -->
<g id="node8" class="node">
<title>Node8</title>
<g id="a_node8"><a xlink:href="harvest__areas_8c.html" target="_top" xlink:title=" ">
<polygon fill="white" stroke="#666666" points="142,-85 0,-85 0,-55 142,-55 142,-85"/>
<text text-anchor="start" x="8" y="-73" font-family="Helvetica,sans-Serif" font-size="10.00">src/FoodAuthority/harvest</text>
<text text-anchor="middle" x="71" y="-62" font-family="Helvetica,sans-Serif" font-size="10.00">_areas.c</text>
</a>
</g>
</g>
<!-- Node7&#45;&gt;Node8 -->
<g id="edge9" class="edge">
<title>Node7&#45;&gt;Node8</title>
<path fill="none" stroke="#63b8ff" d="M71,-110.54C71,-101.96 71,-92.61 71,-85.16"/>
<polygon fill="#63b8ff" stroke="#63b8ff" points="67.5,-110.8 71,-120.8 74.5,-110.8 67.5,-110.8"/>
</g>
<!-- Node9&#45;&gt;Node2 -->
<g id="edge12" class="edge">
<title>Node9&#45;&gt;Node2</title>
<path fill="none" stroke="#63b8ff" d="M434.28,-183.71C462.48,-174.28 502.08,-161.04 531.93,-151.06"/>
<polygon fill="#63b8ff" stroke="#63b8ff" points="432.82,-180.5 424.45,-186.99 435.04,-187.14 432.82,-180.5"/>
</g>
<!-- Node9&#45;&gt;Node3 -->
<g id="edge17" class="edge">
<title>Node9&#45;&gt;Node3</title>
<path fill="none" stroke="#63b8ff" d="M410.61,-178.47C415.78,-170.39 421.67,-160.45 426,-151 437.44,-126.04 446.1,-94.6 449.89,-79.65"/>
<polygon fill="#63b8ff" stroke="#63b8ff" points="407.59,-176.69 405,-186.96 413.43,-180.55 407.59,-176.69"/>
</g>
<!-- Node9&#45;&gt;Node7 -->
<g id="edge13" class="edge">
<title>Node9&#45;&gt;Node7</title>
<path fill="none" stroke="#63b8ff" d="M337.65,-185.29C285.54,-176.52 208.79,-163.37 142,-151 138.91,-150.43 135.75,-149.83 132.56,-149.23"/>
<polygon fill="#63b8ff" stroke="#63b8ff" points="337.3,-188.78 347.74,-186.98 338.46,-181.88 337.3,-188.78"/>
</g>
<!-- Node10 -->
<g id="node10" class="node">
<title>Node10</title>
<g id="a_node10"><a xlink:href="timeseries_8h.html" target="_top" xlink:title=" ">
<polygon fill="white" stroke="#666666" points="309,-145.5 151,-145.5 151,-126.5 309,-126.5 309,-145.5"/>
<text text-anchor="middle" x="230" y="-133.5" font-family="Helvetica,sans-Serif" font-size="10.00">include/IBM_EIS/timeseries.h</text>
</a>
</g>
</g>
<!-- Node9&#45;&gt;Node10 -->
<g id="edge14" class="edge">
<title>Node9&#45;&gt;Node10</title>
<path fill="none" stroke="#63b8ff" d="M364.83,-183.67C332.14,-172.36 283.65,-155.57 254.6,-145.52"/>
<polygon fill="#63b8ff" stroke="#63b8ff" points="363.83,-187.03 374.43,-186.99 366.12,-180.41 363.83,-187.03"/>
</g>
<!-- Node12 -->
<g id="node12" class="node">
<title>Node12</title>
<g id="a_node12"><a xlink:href="transform_8c.html" target="_top" xlink:title=" ">
<polygon fill="white" stroke="#666666" points="417,-145.5 327,-145.5 327,-126.5 417,-126.5 417,-145.5"/>
<text text-anchor="middle" x="372" y="-133.5" font-family="Helvetica,sans-Serif" font-size="10.00">src/transform.c</text>
</a>
</g>
</g>
<!-- Node9&#45;&gt;Node12 -->
<g id="edge18" class="edge">
<title>Node9&#45;&gt;Node12</title>
<path fill="none" stroke="#63b8ff" d="M390.76,-177.65C385.87,-167.04 379.87,-154.06 376,-145.67"/>
<polygon fill="#63b8ff" stroke="#63b8ff" points="387.65,-179.26 395.02,-186.87 394,-176.32 387.65,-179.26"/>
</g>
<!-- Node10&#45;&gt;Node3 -->
<g id="edge15" class="edge">
<title>Node10&#45;&gt;Node3</title>
<path fill="none" stroke="#63b8ff" d="M269.67,-123.56C313.42,-110.95 382.82,-90.94 422.18,-79.6"/>
<polygon fill="#63b8ff" stroke="#63b8ff" points="268.58,-120.24 259.94,-126.37 270.52,-126.96 268.58,-120.24"/>
</g>
<!-- Node11 -->
<g id="node11" class="node">
<title>Node11</title>
<g id="a_node11"><a xlink:href="timeseries_8c.html" target="_top" xlink:title=" ">
<polygon fill="white" stroke="#666666" points="298,-79.5 162,-79.5 162,-60.5 298,-60.5 298,-79.5"/>
<text text-anchor="middle" x="230" y="-67.5" font-family="Helvetica,sans-Serif" font-size="10.00">src/IBM_EIS/timeseries.c</text>
</a>
</g>
</g>
<!-- Node10&#45;&gt;Node11 -->
<g id="edge16" class="edge">
<title>Node10&#45;&gt;Node11</title>
<path fill="none" stroke="#63b8ff" d="M230,-116.08C230,-104.13 230,-89.22 230,-79.91"/>
<polygon fill="#63b8ff" stroke="#63b8ff" points="226.5,-116.37 230,-126.37 233.5,-116.37 226.5,-116.37"/>
</g>
</g>
</svg>
