<?xml version="1.0" encoding="UTF-8" standalone="no"?>
<!DOCTYPE svg PUBLIC "-//W3C//DTD SVG 1.1//EN"
 "http://www.w3.org/Graphics/SVG/1.1/DTD/svg11.dtd">
<!-- Generated by graphviz version 2.49.3 (20211027.1534)
 -->
<!-- Title: include/FoodAuthority/harvest_areas.h Pages: 1 -->
<svg width="647pt" height="330pt"
 viewBox="0.00 0.00 646.50 330.00" xmlns="http://www.w3.org/2000/svg" xmlns:xlink="http://www.w3.org/1999/xlink">
<g id="graph0" class="graph" transform="scale(1 1) rotate(0) translate(4 326)">
<title>include/FoodAuthority/harvest_areas.h</title>
<!-- Node1 -->
<g id="node1" class="node">
<title>Node1</title>
<g id="a_node1"><a xlink:title=" ">
<polygon fill="#bfbfbf" stroke="black" points="342.5,-291.5 342.5,-321.5 452.5,-321.5 452.5,-291.5 342.5,-291.5"/>
<text text-anchor="start" x="350.5" y="-309.5" font-family="Helvetica,sans-Serif" font-size="10.00">include/FoodAuthority</text>
<text text-anchor="middle" x="397.5" y="-298.5" font-family="Helvetica,sans-Serif" font-size="10.00">/harvest_areas.h</text>
</a>
</g>
</g>
<!-- Node2 -->
<g id="node2" class="node">
<title>Node2</title>
<g id="a_node2"><a xlink:title=" ">
<polygon fill="none" stroke="#bfbfbf" points="0,-56.5 0,-75.5 59,-75.5 59,-56.5 0,-56.5"/>
<text text-anchor="middle" x="29.5" y="-63.5" font-family="Helvetica,sans-Serif" font-size="10.00">curl/curl.h</text>
</a>
</g>
</g>
<!-- Node1&#45;&gt;Node2 -->
<g id="edge1" class="edge">
<title>Node1&#45;&gt;Node2</title>
<path fill="none" stroke="midnightblue" d="M353.61,-291.47C327.62,-282.47 294.42,-269.72 266.5,-255 181.1,-210 159.93,-195.8 87.5,-132 70.56,-117.07 53.65,-97.45 42.5,-83.68"/>
<polygon fill="midnightblue" stroke="midnightblue" points="45.02,-81.24 36.06,-75.59 39.55,-85.6 45.02,-81.24"/>
</g>
<!-- Node3 -->
<g id="node3" class="node">
<title>Node3</title>
<g id="a_node3"><a xlink:title=" ">
<polygon fill="none" stroke="#bfbfbf" points="527,-56.5 527,-75.5 610,-75.5 610,-56.5 527,-56.5"/>
<text text-anchor="middle" x="568.5" y="-63.5" font-family="Helvetica,sans-Serif" font-size="10.00">cjson/cJSON.h</text>
</a>
</g>
</g>
<!-- Node1&#45;&gt;Node3 -->
<g id="edge2" class="edge">
<title>Node1&#45;&gt;Node3</title>
<path fill="none" stroke="midnightblue" d="M429.71,-291.4C446.5,-282.79 466.41,-270.46 480.5,-255 527.59,-203.32 553.85,-122 563.8,-85.64"/>
<polygon fill="midnightblue" stroke="midnightblue" points="567.31,-86.08 566.47,-75.52 560.54,-84.3 567.31,-86.08"/>
</g>
<!-- Node4 -->
<g id="node4" class="node">
<title>Node4</title>
<g id="a_node4"><a xlink:title=" ">
<polygon fill="none" stroke="#bfbfbf" points="534,-0.5 534,-19.5 577,-19.5 577,-0.5 534,-0.5"/>
<text text-anchor="middle" x="555.5" y="-7.5" font-family="Helvetica,sans-Serif" font-size="10.00">time.h</text>
</a>
</g>
</g>
<!-- Node1&#45;&gt;Node4 -->
<g id="edge3" class="edge">
<title>Node1&#45;&gt;Node4</title>
<path fill="none" stroke="midnightblue" d="M452.79,-300.61C523.94,-290.93 638.5,-262.4 638.5,-179 638.5,-179 638.5,-179 638.5,-121 638.5,-90.9 637.02,-80.48 619.5,-56 610.09,-42.85 595.58,-32.19 582.76,-24.56"/>
<polygon fill="midnightblue" stroke="midnightblue" points="584.25,-21.38 573.81,-19.54 580.82,-27.49 584.25,-21.38"/>
</g>
<!-- Node5 -->
<g id="node5" class="node">
<title>Node5</title>
<g id="a_node5"><a xlink:href="log_8h.html" target="_top" xlink:title=" ">
<polygon fill="none" stroke="black" points="433,-56.5 433,-75.5 470,-75.5 470,-56.5 433,-56.5"/>
<text text-anchor="middle" x="451.5" y="-63.5" font-family="Helvetica,sans-Serif" font-size="10.00">log.h</text>
</a>
</g>
</g>
<!-- Node1&#45;&gt;Node5 -->
<g id="edge4" class="edge">
<title>Node1&#45;&gt;Node5</title>
<path fill="none" stroke="midnightblue" d="M425.98,-291.35C439.71,-282.86 454.84,-270.66 462.5,-255 490.12,-198.56 470.07,-120.9 458.36,-85.69"/>
<polygon fill="midnightblue" stroke="midnightblue" points="461.52,-84.13 454.92,-75.84 454.91,-86.43 461.52,-84.13"/>
</g>
<!-- Node9 -->
<g id="node9" class="node">
<title>Node9</title>
<g id="a_node9"><a xlink:href="harvest__area_8h.html" target="_top" xlink:title=" ">
<polygon fill="none" stroke="black" points="341.5,-224.5 341.5,-254.5 453.5,-254.5 453.5,-224.5 341.5,-224.5"/>
<text text-anchor="start" x="349.5" y="-242.5" font-family="Helvetica,sans-Serif" font-size="10.00">FoodAuthority/harvest</text>
<text text-anchor="middle" x="397.5" y="-231.5" font-family="Helvetica,sans-Serif" font-size="10.00">_area.h</text>
</a>
</g>
</g>
<!-- Node1&#45;&gt;Node9 -->
<g id="edge9" class="edge">
<title>Node1&#45;&gt;Node9</title>
<path fill="none" stroke="midnightblue" d="M397.5,-291.4C397.5,-283.64 397.5,-273.81 397.5,-264.86"/>
<polygon fill="midnightblue" stroke="midnightblue" points="401,-264.58 397.5,-254.58 394,-264.58 401,-264.58"/>
</g>
<!-- Node10 -->
<g id="node10" class="node">
<title>Node10</title>
<g id="a_node10"><a xlink:href="http_8h.html" target="_top" xlink:title=" ">
<polygon fill="none" stroke="black" points="232,-168.5 232,-187.5 273,-187.5 273,-168.5 232,-168.5"/>
<text text-anchor="middle" x="252.5" y="-175.5" font-family="Helvetica,sans-Serif" font-size="10.00">http.h</text>
</a>
</g>
</g>
<!-- Node1&#45;&gt;Node10 -->
<g id="edge28" class="edge">
<title>Node1&#45;&gt;Node10</title>
<path fill="none" stroke="midnightblue" d="M353.05,-291.43C332.73,-283.29 309.46,-271.36 292.5,-255 275.77,-238.87 264.59,-214.21 258.39,-197.38"/>
<polygon fill="midnightblue" stroke="midnightblue" points="261.6,-195.95 255.04,-187.63 254.98,-198.22 261.6,-195.95"/>
</g>
<!-- Node13 -->
<g id="node13" class="node">
<title>Node13</title>
<g id="a_node13"><a xlink:href="utils_8h.html" target="_top" xlink:title=" ">
<polygon fill="none" stroke="black" points="281.5,-112.5 281.5,-131.5 323.5,-131.5 323.5,-112.5 281.5,-112.5"/>
<text text-anchor="middle" x="302.5" y="-119.5" font-family="Helvetica,sans-Serif" font-size="10.00">utils.h</text>
</a>
</g>
</g>
<!-- Node1&#45;&gt;Node13 -->
<g id="edge29" class="edge">
<title>Node1&#45;&gt;Node13</title>
<path fill="none" stroke="midnightblue" d="M371.72,-291.41C358.07,-282.66 342.17,-270.19 332.5,-255 309.86,-219.44 304.22,-168.91 302.87,-141.84"/>
<polygon fill="midnightblue" stroke="midnightblue" points="306.37,-141.66 302.52,-131.79 299.37,-141.91 306.37,-141.66"/>
</g>
<!-- Node5&#45;&gt;Node4 -->
<g id="edge8" class="edge">
<title>Node5&#45;&gt;Node4</title>
<path fill="none" stroke="midnightblue" d="M468.21,-56.32C484.81,-47.7 510.5,-34.36 529.72,-24.39"/>
<polygon fill="midnightblue" stroke="midnightblue" points="531.57,-27.37 538.83,-19.65 528.34,-21.16 531.57,-27.37"/>
</g>
<!-- Node6 -->
<g id="node6" class="node">
<title>Node6</title>
<g id="a_node6"><a xlink:title=" ">
<polygon fill="none" stroke="#bfbfbf" points="327,-0.5 327,-19.5 372,-19.5 372,-0.5 327,-0.5"/>
<text text-anchor="middle" x="349.5" y="-7.5" font-family="Helvetica,sans-Serif" font-size="10.00">stdio.h</text>
</a>
</g>
</g>
<!-- Node5&#45;&gt;Node6 -->
<g id="edge5" class="edge">
<title>Node5&#45;&gt;Node6</title>
<path fill="none" stroke="midnightblue" d="M435.11,-56.32C418.83,-47.7 393.63,-34.36 374.78,-24.39"/>
<polygon fill="midnightblue" stroke="midnightblue" points="376.32,-21.24 365.85,-19.65 373.05,-27.43 376.32,-21.24"/>
</g>
<!-- Node7 -->
<g id="node7" class="node">
<title>Node7</title>
<g id="a_node7"><a xlink:title=" ">
<polygon fill="none" stroke="#bfbfbf" points="390,-0.5 390,-19.5 441,-19.5 441,-0.5 390,-0.5"/>
<text text-anchor="middle" x="415.5" y="-7.5" font-family="Helvetica,sans-Serif" font-size="10.00">stdarg.h</text>
</a>
</g>
</g>
<!-- Node5&#45;&gt;Node7 -->
<g id="edge6" class="edge">
<title>Node5&#45;&gt;Node7</title>
<path fill="none" stroke="midnightblue" d="M445.56,-56.08C440.52,-48.53 433.16,-37.49 426.99,-28.23"/>
<polygon fill="midnightblue" stroke="midnightblue" points="429.79,-26.13 421.33,-19.75 423.97,-30.01 429.79,-26.13"/>
</g>
<!-- Node8 -->
<g id="node8" class="node">
<title>Node8</title>
<g id="a_node8"><a xlink:title=" ">
<polygon fill="none" stroke="#bfbfbf" points="459.5,-0.5 459.5,-19.5 515.5,-19.5 515.5,-0.5 459.5,-0.5"/>
<text text-anchor="middle" x="487.5" y="-7.5" font-family="Helvetica,sans-Serif" font-size="10.00">stdbool.h</text>
</a>
</g>
</g>
<!-- Node5&#45;&gt;Node8 -->
<g id="edge7" class="edge">
<title>Node5&#45;&gt;Node8</title>
<path fill="none" stroke="midnightblue" d="M457.44,-56.08C462.48,-48.53 469.84,-37.49 476.01,-28.23"/>
<polygon fill="midnightblue" stroke="midnightblue" points="479.03,-30.01 481.67,-19.75 473.21,-26.13 479.03,-30.01"/>
</g>
<!-- Node9&#45;&gt;Node2 -->
<g id="edge10" class="edge">
<title>Node9&#45;&gt;Node2</title>
<path fill="none" stroke="midnightblue" d="M341.21,-225.45C306.62,-216.63 261.75,-203.73 223.5,-188 175.31,-168.18 164.67,-159.64 120.5,-132 94.9,-115.98 66.81,-95.43 48.71,-81.77"/>
<polygon fill="midnightblue" stroke="midnightblue" points="50.76,-78.93 40.68,-75.67 46.53,-84.51 50.76,-78.93"/>
</g>
<!-- Node9&#45;&gt;Node3 -->
<g id="edge11" class="edge">
<title>Node9&#45;&gt;Node3</title>
<path fill="none" stroke="midnightblue" d="M420.39,-224.43C434.9,-214.99 453.66,-201.8 468.5,-188 504.42,-154.59 539.27,-108.34 556.79,-83.83"/>
<polygon fill="midnightblue" stroke="midnightblue" points="559.71,-85.75 562.63,-75.57 554,-81.72 559.71,-85.75"/>
</g>
<!-- Node9&#45;&gt;Node4 -->
<g id="edge12" class="edge">
<title>Node9&#45;&gt;Node4</title>
<path fill="none" stroke="midnightblue" d="M406.67,-224.49C432.81,-184.57 506.63,-72.05 518.5,-56 525.64,-46.34 534.12,-35.96 541.16,-27.61"/>
<polygon fill="midnightblue" stroke="midnightblue" points="544.03,-29.63 547.85,-19.75 538.7,-25.09 544.03,-29.63"/>
</g>
<!-- Node9&#45;&gt;Node5 -->
<g id="edge13" class="edge">
<title>Node9&#45;&gt;Node5</title>
<path fill="none" stroke="midnightblue" d="M401.92,-224.47C411.65,-193.57 434.91,-119.69 445.75,-85.25"/>
<polygon fill="midnightblue" stroke="midnightblue" points="449.14,-86.15 448.8,-75.56 442.46,-84.05 449.14,-86.15"/>
</g>
<!-- Node9&#45;&gt;Node10 -->
<g id="edge14" class="edge">
<title>Node9&#45;&gt;Node10</title>
<path fill="none" stroke="midnightblue" d="M363.14,-224.4C338.66,-214.36 306.08,-200.99 282.62,-191.36"/>
<polygon fill="midnightblue" stroke="midnightblue" points="283.76,-188.04 273.18,-187.48 281.1,-194.52 283.76,-188.04"/>
</g>
<!-- Node9&#45;&gt;Node13 -->
<g id="edge27" class="edge">
<title>Node9&#45;&gt;Node13</title>
<path fill="none" stroke="midnightblue" d="M385.85,-224.34C368.19,-202.86 334.72,-162.17 316.01,-139.43"/>
<polygon fill="midnightblue" stroke="midnightblue" points="318.69,-137.17 309.63,-131.67 313.28,-141.62 318.69,-137.17"/>
</g>
<!-- Node10&#45;&gt;Node2 -->
<g id="edge17" class="edge">
<title>Node10&#45;&gt;Node2</title>
<path fill="none" stroke="midnightblue" d="M235,-168.37C196.08,-149.17 102.16,-102.84 56,-80.07"/>
<polygon fill="midnightblue" stroke="midnightblue" points="57.43,-76.88 46.92,-75.59 54.34,-83.15 57.43,-76.88"/>
</g>
<!-- Node11 -->
<g id="node11" class="node">
<title>Node11</title>
<g id="a_node11"><a xlink:title=" ">
<polygon fill="none" stroke="#bfbfbf" points="77,-56.5 77,-75.5 124,-75.5 124,-56.5 77,-56.5"/>
<text text-anchor="middle" x="100.5" y="-63.5" font-family="Helvetica,sans-Serif" font-size="10.00">stdlib.h</text>
</a>
</g>
</g>
<!-- Node10&#45;&gt;Node11 -->
<g id="edge15" class="edge">
<title>Node10&#45;&gt;Node11</title>
<path fill="none" stroke="midnightblue" d="M243.56,-168.46C229.77,-155.48 202.2,-130.39 176.5,-112 160.18,-100.32 140.69,-88.83 125.53,-80.38"/>
<polygon fill="midnightblue" stroke="midnightblue" points="127.17,-77.29 116.72,-75.54 123.8,-83.42 127.17,-77.29"/>
</g>
<!-- Node12 -->
<g id="node12" class="node">
<title>Node12</title>
<g id="a_node12"><a xlink:title=" ">
<polygon fill="none" stroke="#bfbfbf" points="142.5,-56.5 142.5,-75.5 190.5,-75.5 190.5,-56.5 142.5,-56.5"/>
<text text-anchor="middle" x="166.5" y="-63.5" font-family="Helvetica,sans-Serif" font-size="10.00">string.h</text>
</a>
</g>
</g>
<!-- Node10&#45;&gt;Node12 -->
<g id="edge16" class="edge">
<title>Node10&#45;&gt;Node12</title>
<path fill="none" stroke="midnightblue" d="M250.09,-168.3C246.14,-155.12 237.31,-129.75 223.5,-112 214.22,-100.06 201.12,-89.43 189.82,-81.51"/>
<polygon fill="midnightblue" stroke="midnightblue" points="191.51,-78.42 181.25,-75.76 187.61,-84.24 191.51,-78.42"/>
</g>
<!-- Node10&#45;&gt;Node13 -->
<g id="edge18" class="edge">
<title>Node10&#45;&gt;Node13</title>
<path fill="none" stroke="midnightblue" d="M260.76,-168.08C267.96,-160.3 278.61,-148.8 287.35,-139.37"/>
<polygon fill="midnightblue" stroke="midnightblue" points="290.17,-141.47 294.4,-131.75 285.03,-136.71 290.17,-141.47"/>
</g>
<!-- Node13&#45;&gt;Node2 -->
<g id="edge21" class="edge">
<title>Node13&#45;&gt;Node2</title>
<path fill="none" stroke="midnightblue" d="M281.37,-117.27C241.71,-110.2 153.19,-94.11 69.28,-76.32"/>
<polygon fill="midnightblue" stroke="midnightblue" points="69.85,-72.86 59.34,-74.2 68.39,-79.71 69.85,-72.86"/>
</g>
<!-- Node13&#45;&gt;Node3 -->
<g id="edge22" class="edge">
<title>Node13&#45;&gt;Node3</title>
<path fill="none" stroke="midnightblue" d="M323.82,-116.67C365.42,-108.23 458.49,-89.33 517.1,-77.44"/>
<polygon fill="midnightblue" stroke="midnightblue" points="517.8,-80.86 526.9,-75.44 516.41,-74 517.8,-80.86"/>
</g>
<!-- Node13&#45;&gt;Node5 -->
<g id="edge26" class="edge">
<title>Node13&#45;&gt;Node5</title>
<path fill="none" stroke="midnightblue" d="M323.53,-113.38C349.65,-103.91 394.31,-87.73 423.35,-77.2"/>
<polygon fill="midnightblue" stroke="midnightblue" points="424.71,-80.43 432.92,-73.73 422.33,-73.85 424.71,-80.43"/>
</g>
<!-- Node13&#45;&gt;Node11 -->
<g id="edge19" class="edge">
<title>Node13&#45;&gt;Node11</title>
<path fill="none" stroke="midnightblue" d="M281.41,-115.43C251.11,-107.41 193.24,-92.07 134.16,-76.17"/>
<polygon fill="midnightblue" stroke="midnightblue" points="134.85,-72.73 124.29,-73.51 133.03,-79.49 134.85,-72.73"/>
</g>
<!-- Node13&#45;&gt;Node12 -->
<g id="edge20" class="edge">
<title>Node13&#45;&gt;Node12</title>
<path fill="none" stroke="midnightblue" d="M281.25,-112.56C258.83,-103.66 223.26,-89.54 197.66,-79.37"/>
<polygon fill="midnightblue" stroke="midnightblue" points="198.64,-75.99 188.05,-75.56 196.05,-82.5 198.64,-75.99"/>
</g>
<!-- Node14 -->
<g id="node14" class="node">
<title>Node14</title>
<g id="a_node14"><a xlink:title=" ">
<polygon fill="none" stroke="#bfbfbf" points="273,-56.5 273,-75.5 332,-75.5 332,-56.5 273,-56.5"/>
<text text-anchor="middle" x="302.5" y="-63.5" font-family="Helvetica,sans-Serif" font-size="10.00">sys/stat.h</text>
</a>
</g>
</g>
<!-- Node13&#45;&gt;Node14 -->
<g id="edge23" class="edge">
<title>Node13&#45;&gt;Node14</title>
<path fill="none" stroke="midnightblue" d="M302.5,-112.08C302.5,-105.01 302.5,-94.86 302.5,-85.99"/>
<polygon fill="midnightblue" stroke="midnightblue" points="306,-85.75 302.5,-75.75 299,-85.75 306,-85.75"/>
</g>
<!-- Node15 -->
<g id="node15" class="node">
<title>Node15</title>
<g id="a_node15"><a xlink:title=" ">
<polygon fill="none" stroke="#bfbfbf" points="350,-56.5 350,-75.5 415,-75.5 415,-56.5 350,-56.5"/>
<text text-anchor="middle" x="382.5" y="-63.5" font-family="Helvetica,sans-Serif" font-size="10.00">sys/types.h</text>
</a>
</g>
</g>
<!-- Node13&#45;&gt;Node15 -->
<g id="edge24" class="edge">
<title>Node13&#45;&gt;Node15</title>
<path fill="none" stroke="midnightblue" d="M315.35,-112.32C327.72,-103.98 346.63,-91.21 361.24,-81.35"/>
<polygon fill="midnightblue" stroke="midnightblue" points="363.35,-84.15 369.68,-75.65 359.43,-78.35 363.35,-84.15"/>
</g>
<!-- Node16 -->
<g id="node16" class="node">
<title>Node16</title>
<g id="a_node16"><a xlink:title=" ">
<polygon fill="none" stroke="#bfbfbf" points="208.5,-56.5 208.5,-75.5 254.5,-75.5 254.5,-56.5 208.5,-56.5"/>
<text text-anchor="middle" x="231.5" y="-63.5" font-family="Helvetica,sans-Serif" font-size="10.00">errno.h</text>
</a>
</g>
</g>
<!-- Node13&#45;&gt;Node16 -->
<g id="edge25" class="edge">
<title>Node13&#45;&gt;Node16</title>
<path fill="none" stroke="midnightblue" d="M291.09,-112.32C280.39,-104.18 264.16,-91.84 251.34,-82.09"/>
<polygon fill="midnightblue" stroke="midnightblue" points="253.19,-79.1 243.11,-75.83 248.96,-84.67 253.19,-79.1"/>
</g>
</g>
</svg>
