<?xml version="1.0" encoding="UTF-8" standalone="no"?>
<!DOCTYPE svg PUBLIC "-//W3C//DTD SVG 1.1//EN"
 "http://www.w3.org/Graphics/SVG/1.1/DTD/svg11.dtd">
<!-- Generated by graphviz version 2.43.0 (0)
 -->
<!-- Title: include/FoodAuthority/harvest_area.h Pages: 1 -->
<svg width="652pt" height="291pt"
 viewBox="0.00 0.00 652.00 291.00" xmlns="http://www.w3.org/2000/svg" xmlns:xlink="http://www.w3.org/1999/xlink">
<g id="graph0" class="graph" transform="scale(1 1) rotate(0) translate(4 287)">
<title>include/FoodAuthority/harvest_area.h</title>
<!-- Node1 -->
<g id="node1" class="node">
<title>Node1</title>
<g id="a_node1"><a xlink:title=" ">
<polygon fill="#999999" stroke="#666666" points="271.5,-283 148.5,-283 148.5,-253 271.5,-253 271.5,-283"/>
<text text-anchor="start" x="156.5" y="-271" font-family="Helvetica,sans-Serif" font-size="10.00">include/FoodAuthority</text>
<text text-anchor="middle" x="210" y="-260" font-family="Helvetica,sans-Serif" font-size="10.00">/harvest_area.h</text>
</a>
</g>
</g>
<!-- Node2 -->
<g id="node2" class="node">
<title>Node2</title>
<g id="a_node2"><a xlink:href="harvest__areas_8h.html" target="_top" xlink:title=" ">
<polygon fill="white" stroke="#666666" points="139.5,-151 16.5,-151 16.5,-121 139.5,-121 139.5,-151"/>
<text text-anchor="start" x="24.5" y="-139" font-family="Helvetica,sans-Serif" font-size="10.00">include/FoodAuthority</text>
<text text-anchor="middle" x="78" y="-128" font-family="Helvetica,sans-Serif" font-size="10.00">/harvest_areas.h</text>
</a>
</g>
</g>
<!-- Node1&#45;&gt;Node2 -->
<g id="edge1" class="edge">
<title>Node1&#45;&gt;Node2</title>
<path fill="none" stroke="#63b8ff" d="M185.87,-246.23C175.84,-237.4 164.19,-226.88 154,-217 131.03,-194.73 105.69,-167.47 90.84,-151.21"/>
<polygon fill="#63b8ff" stroke="#63b8ff" points="183.67,-248.96 193.51,-252.9 188.28,-243.69 183.67,-248.96"/>
</g>
<!-- Node3 -->
<g id="node3" class="node">
<title>Node3</title>
<g id="a_node3"><a xlink:href="main_8h.html" target="_top" xlink:title=" ">
<polygon fill="white" stroke="#666666" points="249.5,-79.5 160.5,-79.5 160.5,-60.5 249.5,-60.5 249.5,-79.5"/>
<text text-anchor="middle" x="205" y="-67.5" font-family="Helvetica,sans-Serif" font-size="10.00">include/main.h</text>
</a>
</g>
</g>
<!-- Node1&#45;&gt;Node3 -->
<g id="edge5" class="edge">
<title>Node1&#45;&gt;Node3</title>
<path fill="none" stroke="#63b8ff" d="M196.79,-243.76C192.82,-235.57 189,-226.12 187,-217 175.75,-165.61 194.26,-102.39 201.92,-79.65"/>
<polygon fill="#63b8ff" stroke="#63b8ff" points="193.71,-245.43 201.41,-252.71 199.93,-242.22 193.71,-245.43"/>
</g>
<!-- Node6 -->
<g id="node6" class="node">
<title>Node6</title>
<g id="a_node6"><a xlink:href="transform_8h.html" target="_top" xlink:title=" ">
<polygon fill="white" stroke="#666666" points="308,-211.5 196,-211.5 196,-192.5 308,-192.5 308,-211.5"/>
<text text-anchor="middle" x="252" y="-199.5" font-family="Helvetica,sans-Serif" font-size="10.00">include/transform.h</text>
</a>
</g>
</g>
<!-- Node1&#45;&gt;Node6 -->
<g id="edge6" class="edge">
<title>Node1&#45;&gt;Node6</title>
<path fill="none" stroke="#63b8ff" d="M224.91,-244.28C232.27,-233.07 240.72,-220.19 246.2,-211.84"/>
<polygon fill="#63b8ff" stroke="#63b8ff" points="221.88,-242.52 219.32,-252.8 227.73,-246.36 221.88,-242.52"/>
</g>
<!-- Node12 -->
<g id="node12" class="node">
<title>Node12</title>
<g id="a_node12"><a xlink:href="harvest__area_8c.html" target="_top" xlink:title=" ">
<polygon fill="white" stroke="#666666" points="468,-217 326,-217 326,-187 468,-187 468,-217"/>
<text text-anchor="start" x="334" y="-205" font-family="Helvetica,sans-Serif" font-size="10.00">src/FoodAuthority/harvest</text>
<text text-anchor="middle" x="397" y="-194" font-family="Helvetica,sans-Serif" font-size="10.00">_area.c</text>
</a>
</g>
</g>
<!-- Node1&#45;&gt;Node12 -->
<g id="edge16" class="edge">
<title>Node1&#45;&gt;Node12</title>
<path fill="none" stroke="#63b8ff" d="M260.87,-249.59C290.77,-239.36 328.07,-226.59 356.06,-217.01"/>
<polygon fill="#63b8ff" stroke="#63b8ff" points="259.37,-246.41 251.04,-252.95 261.63,-253.03 259.37,-246.41"/>
</g>
<!-- Node2&#45;&gt;Node3 -->
<g id="edge2" class="edge">
<title>Node2&#45;&gt;Node3</title>
<path fill="none" stroke="#63b8ff" d="M115.11,-116.3C139.25,-104.14 169.56,-88.86 188.1,-79.52"/>
<polygon fill="#63b8ff" stroke="#63b8ff" points="113.23,-113.33 105.87,-120.95 116.38,-119.58 113.23,-113.33"/>
</g>
<!-- Node5 -->
<g id="node5" class="node">
<title>Node5</title>
<g id="a_node5"><a xlink:href="harvest__areas_8c.html" target="_top" xlink:title=" ">
<polygon fill="white" stroke="#666666" points="142,-85 0,-85 0,-55 142,-55 142,-85"/>
<text text-anchor="start" x="8" y="-73" font-family="Helvetica,sans-Serif" font-size="10.00">src/FoodAuthority/harvest</text>
<text text-anchor="middle" x="71" y="-62" font-family="Helvetica,sans-Serif" font-size="10.00">_areas.c</text>
</a>
</g>
</g>
<!-- Node2&#45;&gt;Node5 -->
<g id="edge4" class="edge">
<title>Node2&#45;&gt;Node5</title>
<path fill="none" stroke="#63b8ff" d="M75.36,-110.83C74.41,-102.17 73.37,-92.7 72.55,-85.16"/>
<polygon fill="#63b8ff" stroke="#63b8ff" points="71.88,-111.24 76.45,-120.8 78.84,-110.48 71.88,-111.24"/>
</g>
<!-- Node4 -->
<g id="node4" class="node">
<title>Node4</title>
<g id="a_node4"><a xlink:href="main_8c.html" target="_top" xlink:title=" ">
<polygon fill="white" stroke="#666666" points="238.5,-19 171.5,-19 171.5,0 238.5,0 238.5,-19"/>
<text text-anchor="middle" x="205" y="-7" font-family="Helvetica,sans-Serif" font-size="10.00">src/main.c</text>
</a>
</g>
</g>
<!-- Node3&#45;&gt;Node4 -->
<g id="edge3" class="edge">
<title>Node3&#45;&gt;Node4</title>
<path fill="none" stroke="#63b8ff" d="M205,-50.16C205,-39.74 205,-27.3 205,-19.17"/>
<polygon fill="#63b8ff" stroke="#63b8ff" points="201.5,-50.37 205,-60.37 208.5,-50.37 201.5,-50.37"/>
</g>
<!-- Node6&#45;&gt;Node2 -->
<g id="edge10" class="edge">
<title>Node6&#45;&gt;Node2</title>
<path fill="none" stroke="#63b8ff" d="M218.8,-188.79C189.58,-178.04 147.04,-162.4 116.38,-151.12"/>
<polygon fill="#63b8ff" stroke="#63b8ff" points="217.94,-192.2 228.53,-192.37 220.36,-185.63 217.94,-192.2"/>
</g>
<!-- Node6&#45;&gt;Node3 -->
<g id="edge14" class="edge">
<title>Node6&#45;&gt;Node3</title>
<path fill="none" stroke="#63b8ff" d="M241.29,-183.74C235.81,-174.34 229.4,-162.33 225,-151 215.27,-125.91 209.04,-94.52 206.42,-79.62"/>
<polygon fill="#63b8ff" stroke="#63b8ff" points="238.38,-185.7 246.53,-192.47 244.38,-182.09 238.38,-185.7"/>
</g>
<!-- Node7 -->
<g id="node7" class="node">
<title>Node7</title>
<g id="a_node7"><a xlink:href="historical__weather_8h.html" target="_top" xlink:title=" ">
<polygon fill="white" stroke="#666666" points="360,-151 234,-151 234,-121 360,-121 360,-151"/>
<text text-anchor="start" x="242" y="-139" font-family="Helvetica,sans-Serif" font-size="10.00">include/BOM/historical</text>
<text text-anchor="middle" x="297" y="-128" font-family="Helvetica,sans-Serif" font-size="10.00">_weather.h</text>
</a>
</g>
</g>
<!-- Node6&#45;&gt;Node7 -->
<g id="edge7" class="edge">
<title>Node6&#45;&gt;Node7</title>
<path fill="none" stroke="#63b8ff" d="M264.01,-183.92C271.15,-173.76 280.12,-161.01 286.9,-151.36"/>
<polygon fill="#63b8ff" stroke="#63b8ff" points="260.96,-182.18 258.07,-192.37 266.68,-186.2 260.96,-182.18"/>
</g>
<!-- Node9 -->
<g id="node9" class="node">
<title>Node9</title>
<g id="a_node9"><a xlink:href="timeseries_8h.html" target="_top" xlink:title=" ">
<polygon fill="white" stroke="#666666" points="536,-145.5 378,-145.5 378,-126.5 536,-126.5 536,-145.5"/>
<text text-anchor="middle" x="457" y="-133.5" font-family="Helvetica,sans-Serif" font-size="10.00">include/IBM_EIS/timeseries.h</text>
</a>
</g>
</g>
<!-- Node6&#45;&gt;Node9 -->
<g id="edge11" class="edge">
<title>Node6&#45;&gt;Node9</title>
<path fill="none" stroke="#63b8ff" d="M289.4,-189.32C329.84,-176.7 393.35,-156.87 429.46,-145.6"/>
<polygon fill="#63b8ff" stroke="#63b8ff" points="288.15,-186.05 279.65,-192.37 290.24,-192.73 288.15,-186.05"/>
</g>
<!-- Node11 -->
<g id="node11" class="node">
<title>Node11</title>
<g id="a_node11"><a xlink:href="transform_8c.html" target="_top" xlink:title=" ">
<polygon fill="white" stroke="#666666" points="644,-145.5 554,-145.5 554,-126.5 644,-126.5 644,-145.5"/>
<text text-anchor="middle" x="599" y="-133.5" font-family="Helvetica,sans-Serif" font-size="10.00">src/transform.c</text>
</a>
</g>
</g>
<!-- Node6&#45;&gt;Node11 -->
<g id="edge15" class="edge">
<title>Node6&#45;&gt;Node11</title>
<path fill="none" stroke="#63b8ff" d="M300.17,-190.31C305.83,-189.15 311.54,-188.02 317,-187 417.85,-168.19 444.56,-171.9 545,-151 552.59,-149.42 560.7,-147.46 568.28,-145.51"/>
<polygon fill="#63b8ff" stroke="#63b8ff" points="299.15,-186.95 290.08,-192.43 300.59,-193.8 299.15,-186.95"/>
</g>
<!-- Node7&#45;&gt;Node3 -->
<g id="edge8" class="edge">
<title>Node7&#45;&gt;Node3</title>
<path fill="none" stroke="#63b8ff" d="M268.07,-114.87C251.04,-103.03 230.37,-88.65 217.45,-79.66"/>
<polygon fill="#63b8ff" stroke="#63b8ff" points="266.37,-117.96 276.58,-120.8 270.37,-112.21 266.37,-117.96"/>
</g>
<!-- Node8 -->
<g id="node8" class="node">
<title>Node8</title>
<g id="a_node8"><a xlink:href="historical__weather_8c.html" target="_top" xlink:title=" ">
<polygon fill="white" stroke="#666666" points="372.5,-85 267.5,-85 267.5,-55 372.5,-55 372.5,-85"/>
<text text-anchor="start" x="275.5" y="-73" font-family="Helvetica,sans-Serif" font-size="10.00">src/BOM/historical</text>
<text text-anchor="middle" x="320" y="-62" font-family="Helvetica,sans-Serif" font-size="10.00">_weather.c</text>
</a>
</g>
</g>
<!-- Node7&#45;&gt;Node8 -->
<g id="edge9" class="edge">
<title>Node7&#45;&gt;Node8</title>
<path fill="none" stroke="#63b8ff" d="M305.59,-111.11C308.72,-102.38 312.17,-92.78 314.91,-85.16"/>
<polygon fill="#63b8ff" stroke="#63b8ff" points="302.19,-110.2 302.1,-120.8 308.78,-112.57 302.19,-110.2"/>
</g>
<!-- Node9&#45;&gt;Node3 -->
<g id="edge12" class="edge">
<title>Node9&#45;&gt;Node3</title>
<path fill="none" stroke="#63b8ff" d="M413.26,-124.04C373.13,-113.96 312.04,-98.57 259,-85 252.15,-83.25 244.82,-81.36 237.83,-79.55"/>
<polygon fill="#63b8ff" stroke="#63b8ff" points="412.45,-127.44 423,-126.48 414.15,-120.65 412.45,-127.44"/>
</g>
<!-- Node10 -->
<g id="node10" class="node">
<title>Node10</title>
<g id="a_node10"><a xlink:href="timeseries_8c.html" target="_top" xlink:title=" ">
<polygon fill="white" stroke="#666666" points="527,-79.5 391,-79.5 391,-60.5 527,-60.5 527,-79.5"/>
<text text-anchor="middle" x="459" y="-67.5" font-family="Helvetica,sans-Serif" font-size="10.00">src/IBM_EIS/timeseries.c</text>
</a>
</g>
</g>
<!-- Node9&#45;&gt;Node10 -->
<g id="edge13" class="edge">
<title>Node9&#45;&gt;Node10</title>
<path fill="none" stroke="#63b8ff" d="M457.59,-116.08C457.96,-104.13 458.43,-89.22 458.72,-79.91"/>
<polygon fill="#63b8ff" stroke="#63b8ff" points="454.08,-116.26 457.27,-126.37 461.08,-116.48 454.08,-116.26"/>
</g>
</g>
</svg>
