<?xml version="1.0" encoding="UTF-8" standalone="no"?>
<!DOCTYPE svg PUBLIC "-//W3C//DTD SVG 1.1//EN"
 "http://www.w3.org/Graphics/SVG/1.1/DTD/svg11.dtd">
<!-- Generated by graphviz version 2.49.3 (20211027.1534)
 -->
<!-- Title: src/FoodAuthority/harvest_area.c Pages: 1 -->
<svg width="592pt" height="274pt"
 viewBox="0.00 0.00 591.69 274.00" xmlns="http://www.w3.org/2000/svg" xmlns:xlink="http://www.w3.org/1999/xlink">
<g id="graph0" class="graph" transform="scale(1 1) rotate(0) translate(4 270)">
<title>src/FoodAuthority/harvest_area.c</title>
<!-- Node1 -->
<g id="node1" class="node">
<title>Node1</title>
<g id="a_node1"><a xlink:title=" ">
<polygon fill="#bfbfbf" stroke="black" points="66.69,-235.5 66.69,-265.5 194.69,-265.5 194.69,-235.5 66.69,-235.5"/>
<text text-anchor="start" x="74.69" y="-253.5" font-family="Helvetica,sans-Serif" font-size="10.00">src/FoodAuthority/harvest</text>
<text text-anchor="middle" x="130.69" y="-242.5" font-family="Helvetica,sans-Serif" font-size="10.00">_area.c</text>
</a>
</g>
</g>
<!-- Node2 -->
<g id="node2" class="node">
<title>Node2</title>
<g id="a_node2"><a xlink:href="harvest__area_8h.html" target="_top" xlink:title=" ">
<polygon fill="none" stroke="black" points="74.69,-168.5 74.69,-198.5 186.69,-198.5 186.69,-168.5 74.69,-168.5"/>
<text text-anchor="start" x="82.69" y="-186.5" font-family="Helvetica,sans-Serif" font-size="10.00">FoodAuthority/harvest</text>
<text text-anchor="middle" x="130.69" y="-175.5" font-family="Helvetica,sans-Serif" font-size="10.00">_area.h</text>
</a>
</g>
</g>
<!-- Node1&#45;&gt;Node2 -->
<g id="edge1" class="edge">
<title>Node1&#45;&gt;Node2</title>
<path fill="none" stroke="midnightblue" d="M130.69,-235.4C130.69,-227.64 130.69,-217.81 130.69,-208.86"/>
<polygon fill="midnightblue" stroke="midnightblue" points="134.19,-208.58 130.69,-198.58 127.19,-208.58 134.19,-208.58"/>
</g>
<!-- Node3 -->
<g id="node3" class="node">
<title>Node3</title>
<g id="a_node3"><a xlink:title=" ">
<polygon fill="none" stroke="#bfbfbf" points="12.19,-56.5 12.19,-75.5 71.19,-75.5 71.19,-56.5 12.19,-56.5"/>
<text text-anchor="middle" x="41.69" y="-63.5" font-family="Helvetica,sans-Serif" font-size="10.00">curl/curl.h</text>
</a>
</g>
</g>
<!-- Node2&#45;&gt;Node3 -->
<g id="edge2" class="edge">
<title>Node2&#45;&gt;Node3</title>
<path fill="none" stroke="midnightblue" d="M119.78,-168.34C103.31,-146.96 72.15,-106.53 54.58,-83.73"/>
<polygon fill="midnightblue" stroke="midnightblue" points="57.25,-81.45 48.37,-75.67 51.7,-85.73 57.25,-81.45"/>
</g>
<!-- Node4 -->
<g id="node4" class="node">
<title>Node4</title>
<g id="a_node4"><a xlink:title=" ">
<polygon fill="none" stroke="#bfbfbf" points="89.19,-56.5 89.19,-75.5 172.19,-75.5 172.19,-56.5 89.19,-56.5"/>
<text text-anchor="middle" x="130.69" y="-63.5" font-family="Helvetica,sans-Serif" font-size="10.00">cjson/cJSON.h</text>
</a>
</g>
</g>
<!-- Node2&#45;&gt;Node4 -->
<g id="edge3" class="edge">
<title>Node2&#45;&gt;Node4</title>
<path fill="none" stroke="midnightblue" d="M130.69,-168.34C130.69,-147.62 130.69,-109.02 130.69,-85.9"/>
<polygon fill="midnightblue" stroke="midnightblue" points="134.19,-85.67 130.69,-75.67 127.19,-85.67 134.19,-85.67"/>
</g>
<!-- Node5 -->
<g id="node5" class="node">
<title>Node5</title>
<g id="a_node5"><a xlink:title=" ">
<polygon fill="none" stroke="#bfbfbf" points="11.19,-0.5 11.19,-19.5 54.19,-19.5 54.19,-0.5 11.19,-0.5"/>
<text text-anchor="middle" x="32.69" y="-7.5" font-family="Helvetica,sans-Serif" font-size="10.00">time.h</text>
</a>
</g>
</g>
<!-- Node2&#45;&gt;Node5 -->
<g id="edge4" class="edge">
<title>Node2&#45;&gt;Node5</title>
<path fill="none" stroke="midnightblue" d="M101.91,-168.38C70.84,-151.33 23.06,-119.45 2.69,-76 -5.01,-59.57 5.83,-40.74 16.57,-27.59"/>
<polygon fill="midnightblue" stroke="midnightblue" points="19.41,-29.66 23.42,-19.85 14.17,-25.02 19.41,-29.66"/>
</g>
<!-- Node6 -->
<g id="node6" class="node">
<title>Node6</title>
<g id="a_node6"><a xlink:href="log_8h.html" target="_top" xlink:title=" ">
<polygon fill="none" stroke="black" points="190.19,-56.5 190.19,-75.5 227.19,-75.5 227.19,-56.5 190.19,-56.5"/>
<text text-anchor="middle" x="208.69" y="-63.5" font-family="Helvetica,sans-Serif" font-size="10.00">log.h</text>
</a>
</g>
</g>
<!-- Node2&#45;&gt;Node6 -->
<g id="edge5" class="edge">
<title>Node2&#45;&gt;Node6</title>
<path fill="none" stroke="midnightblue" d="M140.26,-168.34C154.63,-147.05 181.76,-106.89 197.19,-84.03"/>
<polygon fill="midnightblue" stroke="midnightblue" points="200.14,-85.92 202.84,-75.67 194.34,-82 200.14,-85.92"/>
</g>
<!-- Node10 -->
<g id="node10" class="node">
<title>Node10</title>
<g id="a_node10"><a xlink:href="utils_8h.html" target="_top" xlink:title=" ">
<polygon fill="none" stroke="black" points="253.69,-112.5 253.69,-131.5 295.69,-131.5 295.69,-112.5 253.69,-112.5"/>
<text text-anchor="middle" x="274.69" y="-119.5" font-family="Helvetica,sans-Serif" font-size="10.00">utils.h</text>
</a>
</g>
</g>
<!-- Node2&#45;&gt;Node10 -->
<g id="edge10" class="edge">
<title>Node2&#45;&gt;Node10</title>
<path fill="none" stroke="midnightblue" d="M164.82,-168.4C188.98,-158.42 221.09,-145.15 244.36,-135.53"/>
<polygon fill="midnightblue" stroke="midnightblue" points="245.83,-138.71 253.74,-131.66 243.16,-132.24 245.83,-138.71"/>
</g>
<!-- Node6&#45;&gt;Node5 -->
<g id="edge9" class="edge">
<title>Node6&#45;&gt;Node5</title>
<path fill="none" stroke="midnightblue" d="M190.12,-58.73C187.3,-57.8 184.42,-56.87 181.69,-56 141.26,-43.16 94.38,-29.14 64.17,-20.22"/>
<polygon fill="midnightblue" stroke="midnightblue" points="64.8,-16.76 54.22,-17.29 62.82,-23.48 64.8,-16.76"/>
</g>
<!-- Node7 -->
<g id="node7" class="node">
<title>Node7</title>
<g id="a_node7"><a xlink:title=" ">
<polygon fill="none" stroke="#bfbfbf" points="120.19,-0.5 120.19,-19.5 165.19,-19.5 165.19,-0.5 120.19,-0.5"/>
<text text-anchor="middle" x="142.69" y="-7.5" font-family="Helvetica,sans-Serif" font-size="10.00">stdio.h</text>
</a>
</g>
</g>
<!-- Node6&#45;&gt;Node7 -->
<g id="edge6" class="edge">
<title>Node6&#45;&gt;Node7</title>
<path fill="none" stroke="midnightblue" d="M198.09,-56.32C188.24,-48.26 173.34,-36.08 161.48,-26.37"/>
<polygon fill="midnightblue" stroke="midnightblue" points="163.45,-23.46 153.49,-19.83 159.01,-28.88 163.45,-23.46"/>
</g>
<!-- Node8 -->
<g id="node8" class="node">
<title>Node8</title>
<g id="a_node8"><a xlink:title=" ">
<polygon fill="none" stroke="#bfbfbf" points="183.19,-0.5 183.19,-19.5 234.19,-19.5 234.19,-0.5 183.19,-0.5"/>
<text text-anchor="middle" x="208.69" y="-7.5" font-family="Helvetica,sans-Serif" font-size="10.00">stdarg.h</text>
</a>
</g>
</g>
<!-- Node6&#45;&gt;Node8 -->
<g id="edge7" class="edge">
<title>Node6&#45;&gt;Node8</title>
<path fill="none" stroke="midnightblue" d="M208.69,-56.08C208.69,-49.01 208.69,-38.86 208.69,-29.99"/>
<polygon fill="midnightblue" stroke="midnightblue" points="212.19,-29.75 208.69,-19.75 205.19,-29.75 212.19,-29.75"/>
</g>
<!-- Node9 -->
<g id="node9" class="node">
<title>Node9</title>
<g id="a_node9"><a xlink:title=" ">
<polygon fill="none" stroke="#bfbfbf" points="252.69,-0.5 252.69,-19.5 308.69,-19.5 308.69,-0.5 252.69,-0.5"/>
<text text-anchor="middle" x="280.69" y="-7.5" font-family="Helvetica,sans-Serif" font-size="10.00">stdbool.h</text>
</a>
</g>
</g>
<!-- Node6&#45;&gt;Node9 -->
<g id="edge8" class="edge">
<title>Node6&#45;&gt;Node9</title>
<path fill="none" stroke="midnightblue" d="M220.26,-56.32C231.11,-48.18 247.57,-35.84 260.58,-26.09"/>
<polygon fill="midnightblue" stroke="midnightblue" points="263.01,-28.63 268.91,-19.83 258.81,-23.03 263.01,-28.63"/>
</g>
<!-- Node10&#45;&gt;Node3 -->
<g id="edge13" class="edge">
<title>Node10&#45;&gt;Node3</title>
<path fill="none" stroke="midnightblue" d="M253.6,-116.11C214.62,-107.08 130.72,-87.63 80.98,-76.11"/>
<polygon fill="midnightblue" stroke="midnightblue" points="81.75,-72.69 71.21,-73.84 80.16,-79.51 81.75,-72.69"/>
</g>
<!-- Node10&#45;&gt;Node4 -->
<g id="edge14" class="edge">
<title>Node10&#45;&gt;Node4</title>
<path fill="none" stroke="midnightblue" d="M253.44,-113.03C229.62,-104.1 190.69,-89.5 163.07,-79.14"/>
<polygon fill="midnightblue" stroke="midnightblue" points="164.05,-75.77 153.46,-75.54 161.59,-82.32 164.05,-75.77"/>
</g>
<!-- Node10&#45;&gt;Node6 -->
<g id="edge18" class="edge">
<title>Node10&#45;&gt;Node6</title>
<path fill="none" stroke="midnightblue" d="M264.09,-112.32C254.24,-104.26 239.34,-92.08 227.48,-82.37"/>
<polygon fill="midnightblue" stroke="midnightblue" points="229.45,-79.46 219.49,-75.83 225.01,-84.88 229.45,-79.46"/>
</g>
<!-- Node11 -->
<g id="node11" class="node">
<title>Node11</title>
<g id="a_node11"><a xlink:title=" ">
<polygon fill="none" stroke="#bfbfbf" points="470.19,-56.5 470.19,-75.5 517.19,-75.5 517.19,-56.5 470.19,-56.5"/>
<text text-anchor="middle" x="493.69" y="-63.5" font-family="Helvetica,sans-Serif" font-size="10.00">stdlib.h</text>
</a>
</g>
</g>
<!-- Node10&#45;&gt;Node11 -->
<g id="edge11" class="edge">
<title>Node10&#45;&gt;Node11</title>
<path fill="none" stroke="midnightblue" d="M295.94,-116.07C328.85,-108.39 394.36,-92.92 459.84,-76.16"/>
<polygon fill="midnightblue" stroke="midnightblue" points="461.11,-79.45 469.92,-73.57 459.36,-72.67 461.11,-79.45"/>
</g>
<!-- Node12 -->
<g id="node12" class="node">
<title>Node12</title>
<g id="a_node12"><a xlink:title=" ">
<polygon fill="none" stroke="#bfbfbf" points="535.69,-56.5 535.69,-75.5 583.69,-75.5 583.69,-56.5 535.69,-56.5"/>
<text text-anchor="middle" x="559.69" y="-63.5" font-family="Helvetica,sans-Serif" font-size="10.00">string.h</text>
</a>
</g>
</g>
<!-- Node10&#45;&gt;Node12 -->
<g id="edge12" class="edge">
<title>Node10&#45;&gt;Node12</title>
<path fill="none" stroke="midnightblue" d="M295.73,-117.9C337.61,-111.58 434.57,-96.26 525.67,-76.06"/>
<polygon fill="midnightblue" stroke="midnightblue" points="526.61,-79.44 535.6,-73.84 525.08,-72.61 526.61,-79.44"/>
</g>
<!-- Node13 -->
<g id="node13" class="node">
<title>Node13</title>
<g id="a_node13"><a xlink:title=" ">
<polygon fill="none" stroke="#bfbfbf" points="245.19,-56.5 245.19,-75.5 304.19,-75.5 304.19,-56.5 245.19,-56.5"/>
<text text-anchor="middle" x="274.69" y="-63.5" font-family="Helvetica,sans-Serif" font-size="10.00">sys/stat.h</text>
</a>
</g>
</g>
<!-- Node10&#45;&gt;Node13 -->
<g id="edge15" class="edge">
<title>Node10&#45;&gt;Node13</title>
<path fill="none" stroke="midnightblue" d="M274.69,-112.08C274.69,-105.01 274.69,-94.86 274.69,-85.99"/>
<polygon fill="midnightblue" stroke="midnightblue" points="278.19,-85.75 274.69,-75.75 271.19,-85.75 278.19,-85.75"/>
</g>
<!-- Node14 -->
<g id="node14" class="node">
<title>Node14</title>
<g id="a_node14"><a xlink:title=" ">
<polygon fill="none" stroke="#bfbfbf" points="322.19,-56.5 322.19,-75.5 387.19,-75.5 387.19,-56.5 322.19,-56.5"/>
<text text-anchor="middle" x="354.69" y="-63.5" font-family="Helvetica,sans-Serif" font-size="10.00">sys/types.h</text>
</a>
</g>
</g>
<!-- Node10&#45;&gt;Node14 -->
<g id="edge16" class="edge">
<title>Node10&#45;&gt;Node14</title>
<path fill="none" stroke="midnightblue" d="M287.55,-112.32C299.91,-103.98 318.82,-91.21 333.43,-81.35"/>
<polygon fill="midnightblue" stroke="midnightblue" points="335.54,-84.15 341.87,-75.65 331.62,-78.35 335.54,-84.15"/>
</g>
<!-- Node15 -->
<g id="node15" class="node">
<title>Node15</title>
<g id="a_node15"><a xlink:title=" ">
<polygon fill="none" stroke="#bfbfbf" points="405.69,-56.5 405.69,-75.5 451.69,-75.5 451.69,-56.5 405.69,-56.5"/>
<text text-anchor="middle" x="428.69" y="-63.5" font-family="Helvetica,sans-Serif" font-size="10.00">errno.h</text>
</a>
</g>
</g>
<!-- Node10&#45;&gt;Node15 -->
<g id="edge17" class="edge">
<title>Node10&#45;&gt;Node15</title>
<path fill="none" stroke="midnightblue" d="M295.78,-113.6C321.61,-104.55 365.65,-89.1 395.91,-78.49"/>
<polygon fill="midnightblue" stroke="midnightblue" points="397.32,-81.71 405.6,-75.1 395,-75.1 397.32,-81.71"/>
</g>
</g>
</svg>
