<?xml version="1.0" encoding="UTF-8" standalone="no"?>
<!DOCTYPE svg PUBLIC "-//W3C//DTD SVG 1.1//EN"
 "http://www.w3.org/Graphics/SVG/1.1/DTD/svg11.dtd">
<!-- Generated by graphviz version 2.49.3 (20211027.1534)
 -->
<!-- Title: include/FoodAuthority/harvest_areas.h Pages: 1 -->
<svg width="797pt" height="330pt"
 viewBox="0.00 0.00 796.50 330.00" xmlns="http://www.w3.org/2000/svg" xmlns:xlink="http://www.w3.org/1999/xlink">
<g id="graph0" class="graph" transform="scale(1 1) rotate(0) translate(4 326)">
<title>include/FoodAuthority/harvest_areas.h</title>
<!-- Node1 -->
<g id="node1" class="node">
<title>Node1</title>
<g id="a_node1"><a xlink:title=" ">
<polygon fill="#bfbfbf" stroke="black" points="454.5,-291.5 454.5,-321.5 564.5,-321.5 564.5,-291.5 454.5,-291.5"/>
<text text-anchor="start" x="462.5" y="-309.5" font-family="Helvetica,sans-Serif" font-size="10.00">include/FoodAuthority</text>
<text text-anchor="middle" x="509.5" y="-298.5" font-family="Helvetica,sans-Serif" font-size="10.00">/harvest_areas.h</text>
</a>
</g>
</g>
<!-- Node2 -->
<g id="node2" class="node">
<title>Node2</title>
<g id="a_node2"><a xlink:title=" ">
<polygon fill="none" stroke="#bfbfbf" points="0,-56.5 0,-75.5 59,-75.5 59,-56.5 0,-56.5"/>
<text text-anchor="middle" x="29.5" y="-63.5" font-family="Helvetica,sans-Serif" font-size="10.00">curl/curl.h</text>
</a>
</g>
</g>
<!-- Node1&#45;&gt;Node2 -->
<g id="edge1" class="edge">
<title>Node1&#45;&gt;Node2</title>
<path fill="none" stroke="midnightblue" d="M454.12,-297.49C410.19,-289.94 347.85,-276.51 296.5,-255 201.64,-215.27 182.32,-194.31 100.5,-132 80.27,-116.6 59.01,-96.54 45.09,-82.81"/>
<polygon fill="midnightblue" stroke="midnightblue" points="47.35,-80.12 37.8,-75.53 42.41,-85.08 47.35,-80.12"/>
</g>
<!-- Node3 -->
<g id="node3" class="node">
<title>Node3</title>
<g id="a_node3"><a xlink:title=" ">
<polygon fill="none" stroke="#bfbfbf" points="555,-56.5 555,-75.5 638,-75.5 638,-56.5 555,-56.5"/>
<text text-anchor="middle" x="596.5" y="-63.5" font-family="Helvetica,sans-Serif" font-size="10.00">cjson/cJSON.h</text>
</a>
</g>
</g>
<!-- Node1&#45;&gt;Node3 -->
<g id="edge2" class="edge">
<title>Node1&#45;&gt;Node3</title>
<path fill="none" stroke="midnightblue" d="M515.96,-291.47C520.51,-281.41 526.64,-267.47 531.5,-255 555.4,-193.72 579.72,-119.56 590.6,-85.6"/>
<polygon fill="midnightblue" stroke="midnightblue" points="594.05,-86.3 593.76,-75.71 587.38,-84.17 594.05,-86.3"/>
</g>
<!-- Node4 -->
<g id="node4" class="node">
<title>Node4</title>
<g id="a_node4"><a xlink:title=" ">
<polygon fill="none" stroke="#bfbfbf" points="645,-0.5 645,-19.5 688,-19.5 688,-0.5 645,-0.5"/>
<text text-anchor="middle" x="666.5" y="-7.5" font-family="Helvetica,sans-Serif" font-size="10.00">time.h</text>
</a>
</g>
</g>
<!-- Node1&#45;&gt;Node4 -->
<g id="edge3" class="edge">
<title>Node1&#45;&gt;Node4</title>
<path fill="none" stroke="midnightblue" d="M564.6,-294.49C622.26,-279.39 704.5,-246.09 704.5,-179 704.5,-179 704.5,-179 704.5,-121 704.5,-86.81 687.9,-49.76 676.64,-28.57"/>
<polygon fill="midnightblue" stroke="midnightblue" points="679.68,-26.83 671.78,-19.77 673.55,-30.22 679.68,-26.83"/>
</g>
<!-- Node5 -->
<g id="node5" class="node">
<title>Node5</title>
<g id="a_node5"><a xlink:title=" ">
<polygon fill="none" stroke="#bfbfbf" points="732.5,-230 732.5,-249 788.5,-249 788.5,-230 732.5,-230"/>
<text text-anchor="middle" x="760.5" y="-237" font-family="Helvetica,sans-Serif" font-size="10.00">libpq&#45;fe.h</text>
</a>
</g>
</g>
<!-- Node1&#45;&gt;Node5 -->
<g id="edge4" class="edge">
<title>Node1&#45;&gt;Node5</title>
<path fill="none" stroke="midnightblue" d="M564.88,-293.63C607.23,-284.19 666.91,-270.1 718.5,-255 721.44,-254.14 724.48,-253.2 727.52,-252.22"/>
<polygon fill="midnightblue" stroke="midnightblue" points="728.7,-255.51 737.08,-249.03 726.49,-248.87 728.7,-255.51"/>
</g>
<!-- Node6 -->
<g id="node6" class="node">
<title>Node6</title>
<g id="a_node6"><a xlink:href="log_8h.html" target="_top" xlink:title=" ">
<polygon fill="none" stroke="black" points="500,-56.5 500,-75.5 537,-75.5 537,-56.5 500,-56.5"/>
<text text-anchor="middle" x="518.5" y="-63.5" font-family="Helvetica,sans-Serif" font-size="10.00">log.h</text>
</a>
</g>
</g>
<!-- Node1&#45;&gt;Node6 -->
<g id="edge5" class="edge">
<title>Node1&#45;&gt;Node6</title>
<path fill="none" stroke="midnightblue" d="M512.32,-291.42C514.19,-281.33 516.49,-267.39 517.5,-255 522.52,-193.31 520.65,-119.85 519.35,-85.91"/>
<polygon fill="midnightblue" stroke="midnightblue" points="522.83,-85.49 518.92,-75.64 515.84,-85.78 522.83,-85.49"/>
</g>
<!-- Node10 -->
<g id="node10" class="node">
<title>Node10</title>
<g id="a_node10"><a xlink:href="harvest__area_8h.html" target="_top" xlink:title=" ">
<polygon fill="none" stroke="black" points="396.5,-224.5 396.5,-254.5 508.5,-254.5 508.5,-224.5 396.5,-224.5"/>
<text text-anchor="start" x="404.5" y="-242.5" font-family="Helvetica,sans-Serif" font-size="10.00">FoodAuthority/harvest</text>
<text text-anchor="middle" x="452.5" y="-231.5" font-family="Helvetica,sans-Serif" font-size="10.00">_area.h</text>
</a>
</g>
</g>
<!-- Node1&#45;&gt;Node10 -->
<g id="edge10" class="edge">
<title>Node1&#45;&gt;Node10</title>
<path fill="none" stroke="midnightblue" d="M497.13,-291.4C489.66,-282.88 479.99,-271.85 471.56,-262.23"/>
<polygon fill="midnightblue" stroke="midnightblue" points="474.07,-259.79 464.84,-254.58 468.81,-264.4 474.07,-259.79"/>
</g>
<!-- Node11 -->
<g id="node11" class="node">
<title>Node11</title>
<g id="a_node11"><a xlink:href="http_8h.html" target="_top" xlink:title=" ">
<polygon fill="none" stroke="black" points="263,-168.5 263,-187.5 304,-187.5 304,-168.5 263,-168.5"/>
<text text-anchor="middle" x="283.5" y="-175.5" font-family="Helvetica,sans-Serif" font-size="10.00">http.h</text>
</a>
</g>
</g>
<!-- Node1&#45;&gt;Node11 -->
<g id="edge30" class="edge">
<title>Node1&#45;&gt;Node11</title>
<path fill="none" stroke="midnightblue" d="M454.49,-301.45C415.3,-296.09 363.27,-283.69 326.5,-255 307.5,-240.17 295.51,-214.45 289.16,-197.08"/>
<polygon fill="midnightblue" stroke="midnightblue" points="292.44,-195.86 285.92,-187.52 285.81,-198.11 292.44,-195.86"/>
</g>
<!-- Node14 -->
<g id="node14" class="node">
<title>Node14</title>
<g id="a_node14"><a xlink:href="utils_8h.html" target="_top" xlink:title=" ">
<polygon fill="none" stroke="black" points="313.5,-112.5 313.5,-131.5 355.5,-131.5 355.5,-112.5 313.5,-112.5"/>
<text text-anchor="middle" x="334.5" y="-119.5" font-family="Helvetica,sans-Serif" font-size="10.00">utils.h</text>
</a>
</g>
</g>
<!-- Node1&#45;&gt;Node14 -->
<g id="edge31" class="edge">
<title>Node1&#45;&gt;Node14</title>
<path fill="none" stroke="midnightblue" d="M454.26,-292.86C431.17,-285.2 405.56,-273.25 387.5,-255 355.9,-223.06 342.45,-169.85 337.31,-141.73"/>
<polygon fill="midnightblue" stroke="midnightblue" points="340.73,-140.95 335.63,-131.66 333.82,-142.1 340.73,-140.95"/>
</g>
<!-- Node6&#45;&gt;Node4 -->
<g id="edge9" class="edge">
<title>Node6&#45;&gt;Node4</title>
<path fill="none" stroke="midnightblue" d="M537.24,-58.16C561.84,-49.19 605.37,-33.3 635.05,-22.47"/>
<polygon fill="midnightblue" stroke="midnightblue" points="636.35,-25.73 644.54,-19.01 633.95,-19.15 636.35,-25.73"/>
</g>
<!-- Node7 -->
<g id="node7" class="node">
<title>Node7</title>
<g id="a_node7"><a xlink:title=" ">
<polygon fill="none" stroke="#bfbfbf" points="430,-0.5 430,-19.5 475,-19.5 475,-0.5 430,-0.5"/>
<text text-anchor="middle" x="452.5" y="-7.5" font-family="Helvetica,sans-Serif" font-size="10.00">stdio.h</text>
</a>
</g>
</g>
<!-- Node6&#45;&gt;Node7 -->
<g id="edge6" class="edge">
<title>Node6&#45;&gt;Node7</title>
<path fill="none" stroke="midnightblue" d="M507.9,-56.32C498.04,-48.26 483.15,-36.08 471.28,-26.37"/>
<polygon fill="midnightblue" stroke="midnightblue" points="473.25,-23.46 463.3,-19.83 468.82,-28.88 473.25,-23.46"/>
</g>
<!-- Node8 -->
<g id="node8" class="node">
<title>Node8</title>
<g id="a_node8"><a xlink:title=" ">
<polygon fill="none" stroke="#bfbfbf" points="493,-0.5 493,-19.5 544,-19.5 544,-0.5 493,-0.5"/>
<text text-anchor="middle" x="518.5" y="-7.5" font-family="Helvetica,sans-Serif" font-size="10.00">stdarg.h</text>
</a>
</g>
</g>
<!-- Node6&#45;&gt;Node8 -->
<g id="edge7" class="edge">
<title>Node6&#45;&gt;Node8</title>
<path fill="none" stroke="midnightblue" d="M518.5,-56.08C518.5,-49.01 518.5,-38.86 518.5,-29.99"/>
<polygon fill="midnightblue" stroke="midnightblue" points="522,-29.75 518.5,-19.75 515,-29.75 522,-29.75"/>
</g>
<!-- Node9 -->
<g id="node9" class="node">
<title>Node9</title>
<g id="a_node9"><a xlink:title=" ">
<polygon fill="none" stroke="#bfbfbf" points="562.5,-0.5 562.5,-19.5 618.5,-19.5 618.5,-0.5 562.5,-0.5"/>
<text text-anchor="middle" x="590.5" y="-7.5" font-family="Helvetica,sans-Serif" font-size="10.00">stdbool.h</text>
</a>
</g>
</g>
<!-- Node6&#45;&gt;Node9 -->
<g id="edge8" class="edge">
<title>Node6&#45;&gt;Node9</title>
<path fill="none" stroke="midnightblue" d="M530.07,-56.32C540.92,-48.18 557.38,-35.84 570.38,-26.09"/>
<polygon fill="midnightblue" stroke="midnightblue" points="572.82,-28.63 578.72,-19.83 568.62,-23.03 572.82,-28.63"/>
</g>
<!-- Node10&#45;&gt;Node2 -->
<g id="edge11" class="edge">
<title>Node10&#45;&gt;Node2</title>
<path fill="none" stroke="midnightblue" d="M396.12,-227.27C356,-218.53 301.16,-205.02 254.5,-188 200.72,-168.38 188.91,-159.13 138.5,-132 107.77,-115.46 73.35,-94.51 51.56,-80.93"/>
<polygon fill="midnightblue" stroke="midnightblue" points="53.38,-77.94 43.04,-75.6 49.66,-83.87 53.38,-77.94"/>
</g>
<!-- Node10&#45;&gt;Node3 -->
<g id="edge12" class="edge">
<title>Node10&#45;&gt;Node3</title>
<path fill="none" stroke="midnightblue" d="M464.28,-224.47C490.67,-193.03 554.42,-117.12 582.65,-83.5"/>
<polygon fill="midnightblue" stroke="midnightblue" points="585.56,-85.47 589.31,-75.56 580.2,-80.97 585.56,-85.47"/>
</g>
<!-- Node10&#45;&gt;Node4 -->
<g id="edge13" class="edge">
<title>Node10&#45;&gt;Node4</title>
<path fill="none" stroke="midnightblue" d="M477.55,-224.49C519.19,-199.92 602.5,-145.04 647.5,-76 656.63,-62 661.48,-43.5 663.99,-29.81"/>
<polygon fill="midnightblue" stroke="midnightblue" points="667.49,-30.08 665.58,-19.66 660.57,-28.99 667.49,-30.08"/>
</g>
<!-- Node10&#45;&gt;Node6 -->
<g id="edge14" class="edge">
<title>Node10&#45;&gt;Node6</title>
<path fill="none" stroke="midnightblue" d="M457.01,-224.36C461.64,-210.05 469.19,-187.35 476.5,-168 487.59,-138.63 501.87,-105.08 510.59,-84.99"/>
<polygon fill="midnightblue" stroke="midnightblue" points="513.92,-86.13 514.71,-75.57 507.5,-83.33 513.92,-86.13"/>
</g>
<!-- Node10&#45;&gt;Node11 -->
<g id="edge15" class="edge">
<title>Node10&#45;&gt;Node11</title>
<path fill="none" stroke="midnightblue" d="M412.45,-224.4C382.2,-213.75 341.32,-199.36 313.76,-189.66"/>
<polygon fill="midnightblue" stroke="midnightblue" points="314.85,-186.33 304.26,-186.31 312.53,-192.93 314.85,-186.33"/>
</g>
<!-- Node10&#45;&gt;Node14 -->
<g id="edge29" class="edge">
<title>Node10&#45;&gt;Node14</title>
<path fill="none" stroke="midnightblue" d="M438.03,-224.34C415.9,-202.68 373.79,-161.45 350.68,-138.83"/>
<polygon fill="midnightblue" stroke="midnightblue" points="352.95,-136.16 343.36,-131.67 348.06,-141.17 352.95,-136.16"/>
</g>
<!-- Node11&#45;&gt;Node2 -->
<g id="edge18" class="edge">
<title>Node11&#45;&gt;Node2</title>
<path fill="none" stroke="midnightblue" d="M264.81,-168.41C237.27,-155.79 184.11,-131.63 138.5,-112 112.25,-100.7 82.21,-88.34 60.32,-79.44"/>
<polygon fill="midnightblue" stroke="midnightblue" points="61.47,-76.12 50.88,-75.61 58.83,-82.61 61.47,-76.12"/>
</g>
<!-- Node12 -->
<g id="node12" class="node">
<title>Node12</title>
<g id="a_node12"><a xlink:title=" ">
<polygon fill="none" stroke="#bfbfbf" points="77,-56.5 77,-75.5 124,-75.5 124,-56.5 77,-56.5"/>
<text text-anchor="middle" x="100.5" y="-63.5" font-family="Helvetica,sans-Serif" font-size="10.00">stdlib.h</text>
</a>
</g>
</g>
<!-- Node11&#45;&gt;Node12 -->
<g id="edge16" class="edge">
<title>Node11&#45;&gt;Node12</title>
<path fill="none" stroke="midnightblue" d="M273.99,-168.14C259.29,-154.76 229.78,-129.13 201.5,-112 179.91,-98.92 153.86,-87.41 133.62,-79.3"/>
<polygon fill="midnightblue" stroke="midnightblue" points="134.78,-76 124.19,-75.6 132.22,-82.51 134.78,-76"/>
</g>
<!-- Node13 -->
<g id="node13" class="node">
<title>Node13</title>
<g id="a_node13"><a xlink:title=" ">
<polygon fill="none" stroke="#bfbfbf" points="142.5,-56.5 142.5,-75.5 190.5,-75.5 190.5,-56.5 142.5,-56.5"/>
<text text-anchor="middle" x="166.5" y="-63.5" font-family="Helvetica,sans-Serif" font-size="10.00">string.h</text>
</a>
</g>
</g>
<!-- Node11&#45;&gt;Node13 -->
<g id="edge17" class="edge">
<title>Node11&#45;&gt;Node13</title>
<path fill="none" stroke="midnightblue" d="M281.31,-168.4C277.49,-154.9 268.46,-128.57 252.5,-112 238,-96.95 217.36,-85.92 199.94,-78.55"/>
<polygon fill="midnightblue" stroke="midnightblue" points="201.23,-75.3 190.65,-74.83 198.63,-81.79 201.23,-75.3"/>
</g>
<!-- Node11&#45;&gt;Node14 -->
<g id="edge19" class="edge">
<title>Node11&#45;&gt;Node14</title>
<path fill="none" stroke="midnightblue" d="M291.92,-168.08C299.35,-160.22 310.35,-148.57 319.31,-139.08"/>
<polygon fill="midnightblue" stroke="midnightblue" points="321.91,-141.42 326.24,-131.75 316.82,-136.62 321.91,-141.42"/>
</g>
<!-- Node14&#45;&gt;Node2 -->
<g id="edge22" class="edge">
<title>Node14&#45;&gt;Node2</title>
<path fill="none" stroke="midnightblue" d="M313.3,-117.91C269.51,-111.43 165.7,-95.53 69.24,-76.26"/>
<polygon fill="midnightblue" stroke="midnightblue" points="69.82,-72.8 59.33,-74.26 68.44,-79.67 69.82,-72.8"/>
</g>
<!-- Node14&#45;&gt;Node3 -->
<g id="edge24" class="edge">
<title>Node14&#45;&gt;Node3</title>
<path fill="none" stroke="midnightblue" d="M355.94,-116.58C396.98,-108.12 487.68,-89.43 545.24,-77.57"/>
<polygon fill="midnightblue" stroke="midnightblue" points="546.14,-80.95 555.23,-75.51 544.73,-74.1 546.14,-80.95"/>
</g>
<!-- Node14&#45;&gt;Node6 -->
<g id="edge28" class="edge">
<title>Node14&#45;&gt;Node6</title>
<path fill="none" stroke="midnightblue" d="M355.5,-115.16C383.82,-107.24 436.02,-92.47 490.09,-76.06"/>
<polygon fill="midnightblue" stroke="midnightblue" points="491.3,-79.35 499.85,-73.08 489.26,-72.65 491.3,-79.35"/>
</g>
<!-- Node14&#45;&gt;Node12 -->
<g id="edge20" class="edge">
<title>Node14&#45;&gt;Node12</title>
<path fill="none" stroke="midnightblue" d="M313.3,-116.59C278.21,-109.22 205.66,-93.67 134.31,-76.11"/>
<polygon fill="midnightblue" stroke="midnightblue" points="134.81,-72.63 124.26,-73.62 133.12,-79.42 134.81,-72.63"/>
</g>
<!-- Node14&#45;&gt;Node13 -->
<g id="edge21" class="edge">
<title>Node14&#45;&gt;Node13</title>
<path fill="none" stroke="midnightblue" d="M313.22,-114.16C284.82,-105.03 234.18,-88.75 200.46,-77.92"/>
<polygon fill="midnightblue" stroke="midnightblue" points="201.18,-74.47 190.59,-74.74 199.03,-81.13 201.18,-74.47"/>
</g>
<!-- Node15 -->
<g id="node15" class="node">
<title>Node15</title>
<g id="a_node15"><a xlink:title=" ">
<polygon fill="none" stroke="#bfbfbf" points="208.5,-56.5 208.5,-75.5 256.5,-75.5 256.5,-56.5 208.5,-56.5"/>
<text text-anchor="middle" x="232.5" y="-63.5" font-family="Helvetica,sans-Serif" font-size="10.00">stdint.h</text>
</a>
</g>
</g>
<!-- Node14&#45;&gt;Node15 -->
<g id="edge23" class="edge">
<title>Node14&#45;&gt;Node15</title>
<path fill="none" stroke="midnightblue" d="M318.11,-112.32C301.83,-103.7 276.63,-90.36 257.78,-80.39"/>
<polygon fill="midnightblue" stroke="midnightblue" points="259.32,-77.24 248.85,-75.65 256.05,-83.43 259.32,-77.24"/>
</g>
<!-- Node16 -->
<g id="node16" class="node">
<title>Node16</title>
<g id="a_node16"><a xlink:title=" ">
<polygon fill="none" stroke="#bfbfbf" points="275,-56.5 275,-75.5 334,-75.5 334,-56.5 275,-56.5"/>
<text text-anchor="middle" x="304.5" y="-63.5" font-family="Helvetica,sans-Serif" font-size="10.00">sys/stat.h</text>
</a>
</g>
</g>
<!-- Node14&#45;&gt;Node16 -->
<g id="edge25" class="edge">
<title>Node14&#45;&gt;Node16</title>
<path fill="none" stroke="midnightblue" d="M329.55,-112.08C325.4,-104.61 319.35,-93.72 314.23,-84.52"/>
<polygon fill="midnightblue" stroke="midnightblue" points="317.28,-82.79 309.36,-75.75 311.16,-86.19 317.28,-82.79"/>
</g>
<!-- Node17 -->
<g id="node17" class="node">
<title>Node17</title>
<g id="a_node17"><a xlink:title=" ">
<polygon fill="none" stroke="#bfbfbf" points="352,-56.5 352,-75.5 417,-75.5 417,-56.5 352,-56.5"/>
<text text-anchor="middle" x="384.5" y="-63.5" font-family="Helvetica,sans-Serif" font-size="10.00">sys/types.h</text>
</a>
</g>
</g>
<!-- Node14&#45;&gt;Node17 -->
<g id="edge26" class="edge">
<title>Node14&#45;&gt;Node17</title>
<path fill="none" stroke="midnightblue" d="M342.76,-112.08C349.96,-104.3 360.61,-92.8 369.35,-83.37"/>
<polygon fill="midnightblue" stroke="midnightblue" points="372.17,-85.47 376.4,-75.75 367.03,-80.71 372.17,-85.47"/>
</g>
<!-- Node18 -->
<g id="node18" class="node">
<title>Node18</title>
<g id="a_node18"><a xlink:title=" ">
<polygon fill="none" stroke="#bfbfbf" points="435.5,-56.5 435.5,-75.5 481.5,-75.5 481.5,-56.5 435.5,-56.5"/>
<text text-anchor="middle" x="458.5" y="-63.5" font-family="Helvetica,sans-Serif" font-size="10.00">errno.h</text>
</a>
</g>
</g>
<!-- Node14&#45;&gt;Node18 -->
<g id="edge27" class="edge">
<title>Node14&#45;&gt;Node18</title>
<path fill="none" stroke="midnightblue" d="M354.15,-112.44C374.46,-103.6 406.4,-89.69 429.6,-79.59"/>
<polygon fill="midnightblue" stroke="midnightblue" points="431.17,-82.72 438.94,-75.52 428.38,-76.3 431.17,-82.72"/>
</g>
</g>
</svg>
