<?xml version="1.0" encoding="UTF-8" standalone="no"?>
<!DOCTYPE svg PUBLIC "-//W3C//DTD SVG 1.1//EN"
 "http://www.w3.org/Graphics/SVG/1.1/DTD/svg11.dtd">
<!-- Generated by graphviz version 2.49.3 (20211027.1534)
 -->
<!-- Title: include/FoodAuthority/harvest_area.h Pages: 1 -->
<svg width="613pt" height="296pt"
 viewBox="0.00 0.00 613.00 296.00" xmlns="http://www.w3.org/2000/svg" xmlns:xlink="http://www.w3.org/1999/xlink">
<g id="graph0" class="graph" transform="scale(1 1) rotate(0) translate(4 292)">
<title>include/FoodAuthority/harvest_area.h</title>
<!-- Node1 -->
<g id="node1" class="node">
<title>Node1</title>
<g id="a_node1"><a xlink:title=" ">
<polygon fill="#bfbfbf" stroke="black" points="277,-257.5 277,-287.5 387,-287.5 387,-257.5 277,-257.5"/>
<text text-anchor="start" x="285" y="-275.5" font-family="Helvetica,sans-Serif" font-size="10.00">include/FoodAuthority</text>
<text text-anchor="middle" x="332" y="-264.5" font-family="Helvetica,sans-Serif" font-size="10.00">/harvest_area.h</text>
</a>
</g>
</g>
<!-- Node2 -->
<g id="node2" class="node">
<title>Node2</title>
<g id="a_node2"><a xlink:href="harvest__areas_8h.html" target="_top" xlink:title=" ">
<polygon fill="none" stroke="black" points="9,-123.5 9,-153.5 119,-153.5 119,-123.5 9,-123.5"/>
<text text-anchor="start" x="17" y="-141.5" font-family="Helvetica,sans-Serif" font-size="10.00">include/FoodAuthority</text>
<text text-anchor="middle" x="64" y="-130.5" font-family="Helvetica,sans-Serif" font-size="10.00">/harvest_areas.h</text>
</a>
</g>
</g>
<!-- Node1&#45;&gt;Node2 -->
<g id="edge1" class="edge">
<title>Node1&#45;&gt;Node2</title>
<path fill="none" stroke="midnightblue" d="M266.9,-259.85C232.77,-252.02 191.09,-239.64 157,-221 124.22,-203.08 93.04,-171.87 76.42,-153.71"/>
<polygon fill="midnightblue" stroke="midnightblue" points="266.25,-263.29 276.78,-262.04 267.77,-256.46 266.25,-263.29"/>
</g>
<!-- Node3 -->
<g id="node3" class="node">
<title>Node3</title>
<g id="a_node3"><a xlink:href="main_8h.html" target="_top" xlink:title=" ">
<polygon fill="none" stroke="black" points="166.5,-62 166.5,-81 245.5,-81 245.5,-62 166.5,-62"/>
<text text-anchor="middle" x="206" y="-69" font-family="Helvetica,sans-Serif" font-size="10.00">include/main.h</text>
</a>
</g>
</g>
<!-- Node1&#45;&gt;Node3 -->
<g id="edge5" class="edge">
<title>Node1&#45;&gt;Node3</title>
<path fill="none" stroke="midnightblue" d="M361.84,-251.58C402.04,-222.31 464.76,-166.47 430,-123 428.54,-121.18 309.06,-94.93 245.22,-81.02"/>
<polygon fill="midnightblue" stroke="midnightblue" points="359.77,-248.76 353.65,-257.41 363.83,-254.46 359.77,-248.76"/>
</g>
<!-- Node6 -->
<g id="node6" class="node">
<title>Node6</title>
<g id="a_node6"><a xlink:href="transform_8h.html" target="_top" xlink:title=" ">
<polygon fill="none" stroke="black" points="166.5,-196 166.5,-215 265.5,-215 265.5,-196 166.5,-196"/>
<text text-anchor="middle" x="216" y="-203" font-family="Helvetica,sans-Serif" font-size="10.00">include/transform.h</text>
</a>
</g>
</g>
<!-- Node1&#45;&gt;Node6 -->
<g id="edge6" class="edge">
<title>Node1&#45;&gt;Node6</title>
<path fill="none" stroke="midnightblue" d="M298.04,-252.47C275.9,-240.06 248.07,-224.47 231.18,-215.01"/>
<polygon fill="midnightblue" stroke="midnightblue" points="296.4,-255.56 306.83,-257.4 299.82,-249.45 296.4,-255.56"/>
</g>
<!-- Node10 -->
<g id="node10" class="node">
<title>Node10</title>
<g id="a_node10"><a xlink:href="harvest__area_8c.html" target="_top" xlink:title=" ">
<polygon fill="none" stroke="black" points="477,-190.5 477,-220.5 605,-220.5 605,-190.5 477,-190.5"/>
<text text-anchor="start" x="485" y="-208.5" font-family="Helvetica,sans-Serif" font-size="10.00">src/FoodAuthority/harvest</text>
<text text-anchor="middle" x="541" y="-197.5" font-family="Helvetica,sans-Serif" font-size="10.00">_area.c</text>
</a>
</g>
</g>
<!-- Node1&#45;&gt;Node10 -->
<g id="edge13" class="edge">
<title>Node1&#45;&gt;Node10</title>
<path fill="none" stroke="midnightblue" d="M386.84,-254.44C420.72,-243.91 463.67,-230.55 495.63,-220.61"/>
<polygon fill="midnightblue" stroke="midnightblue" points="385.6,-251.16 377.09,-257.48 387.68,-257.85 385.6,-251.16"/>
</g>
<!-- Node2&#45;&gt;Node3 -->
<g id="edge2" class="edge">
<title>Node2&#45;&gt;Node3</title>
<path fill="none" stroke="midnightblue" d="M104.13,-119.13C131.46,-106.62 166.37,-90.64 187.42,-81.01"/>
<polygon fill="midnightblue" stroke="midnightblue" points="102.45,-116.05 94.81,-123.4 105.36,-122.42 102.45,-116.05"/>
</g>
<!-- Node5 -->
<g id="node5" class="node">
<title>Node5</title>
<g id="a_node5"><a xlink:href="harvest__areas_8c.html" target="_top" xlink:title=" ">
<polygon fill="none" stroke="black" points="0,-56.5 0,-86.5 128,-86.5 128,-56.5 0,-56.5"/>
<text text-anchor="start" x="8" y="-74.5" font-family="Helvetica,sans-Serif" font-size="10.00">src/FoodAuthority/harvest</text>
<text text-anchor="middle" x="64" y="-63.5" font-family="Helvetica,sans-Serif" font-size="10.00">_areas.c</text>
</a>
</g>
</g>
<!-- Node2&#45;&gt;Node5 -->
<g id="edge4" class="edge">
<title>Node2&#45;&gt;Node5</title>
<path fill="none" stroke="midnightblue" d="M64,-113.11C64,-104.15 64,-94.32 64,-86.58"/>
<polygon fill="midnightblue" stroke="midnightblue" points="60.5,-113.4 64,-123.4 67.5,-113.4 60.5,-113.4"/>
</g>
<!-- Node4 -->
<g id="node4" class="node">
<title>Node4</title>
<g id="a_node4"><a xlink:href="main_8c.html" target="_top" xlink:title=" ">
<polygon fill="none" stroke="black" points="175,-0.5 175,-19.5 237,-19.5 237,-0.5 175,-0.5"/>
<text text-anchor="middle" x="206" y="-7.5" font-family="Helvetica,sans-Serif" font-size="10.00">src/main.c</text>
</a>
</g>
</g>
<!-- Node3&#45;&gt;Node4 -->
<g id="edge3" class="edge">
<title>Node3&#45;&gt;Node4</title>
<path fill="none" stroke="midnightblue" d="M206,-51.82C206,-41 206,-27.9 206,-19.51"/>
<polygon fill="midnightblue" stroke="midnightblue" points="202.5,-51.98 206,-61.98 209.5,-51.98 202.5,-51.98"/>
</g>
<!-- Node6&#45;&gt;Node2 -->
<g id="edge7" class="edge">
<title>Node6&#45;&gt;Node2</title>
<path fill="none" stroke="midnightblue" d="M186.57,-191.91C160.83,-180.91 123.49,-164.94 96.8,-153.53"/>
<polygon fill="midnightblue" stroke="midnightblue" points="185.24,-195.15 195.82,-195.87 188,-188.72 185.24,-195.15"/>
</g>
<!-- Node6&#45;&gt;Node3 -->
<g id="edge11" class="edge">
<title>Node6&#45;&gt;Node3</title>
<path fill="none" stroke="midnightblue" d="M194.96,-189.76C184.1,-180.82 171.91,-168.37 166,-154 160.76,-141.26 161.47,-136.01 166,-123 171.96,-105.89 186.39,-90.21 196.19,-81"/>
<polygon fill="midnightblue" stroke="midnightblue" points="192.84,-192.54 202.89,-195.89 197.12,-187 192.84,-192.54"/>
</g>
<!-- Node7 -->
<g id="node7" class="node">
<title>Node7</title>
<g id="a_node7"><a xlink:href="timeseries_8h.html" target="_top" xlink:title=" ">
<polygon fill="none" stroke="black" points="275.5,-129 275.5,-148 420.5,-148 420.5,-129 275.5,-129"/>
<text text-anchor="middle" x="348" y="-136" font-family="Helvetica,sans-Serif" font-size="10.00">include/IBM_EIS/timeseries.h</text>
</a>
</g>
</g>
<!-- Node6&#45;&gt;Node7 -->
<g id="edge8" class="edge">
<title>Node6&#45;&gt;Node7</title>
<path fill="none" stroke="midnightblue" d="M242.51,-191.44C268.66,-178.57 307.88,-159.26 330.4,-148.17"/>
<polygon fill="midnightblue" stroke="midnightblue" points="240.95,-188.31 233.53,-195.87 244.05,-194.59 240.95,-188.31"/>
</g>
<!-- Node9 -->
<g id="node9" class="node">
<title>Node9</title>
<g id="a_node9"><a xlink:href="transform_8c.html" target="_top" xlink:title=" ">
<polygon fill="none" stroke="black" points="175,-129 175,-148 257,-148 257,-129 175,-129"/>
<text text-anchor="middle" x="216" y="-136" font-family="Helvetica,sans-Serif" font-size="10.00">src/transform.c</text>
</a>
</g>
</g>
<!-- Node6&#45;&gt;Node9 -->
<g id="edge12" class="edge">
<title>Node6&#45;&gt;Node9</title>
<path fill="none" stroke="midnightblue" d="M216,-185.54C216,-173.17 216,-157.62 216,-148.13"/>
<polygon fill="midnightblue" stroke="midnightblue" points="212.5,-185.73 216,-195.73 219.5,-185.73 212.5,-185.73"/>
</g>
<!-- Node7&#45;&gt;Node3 -->
<g id="edge9" class="edge">
<title>Node7&#45;&gt;Node3</title>
<path fill="none" stroke="midnightblue" d="M319.85,-124.61C291.72,-111.74 249.27,-92.31 224.93,-81.17"/>
<polygon fill="midnightblue" stroke="midnightblue" points="318.59,-127.89 329.14,-128.87 321.51,-121.52 318.59,-127.89"/>
</g>
<!-- Node8 -->
<g id="node8" class="node">
<title>Node8</title>
<g id="a_node8"><a xlink:href="timeseries_8c.html" target="_top" xlink:title=" ">
<polygon fill="none" stroke="black" points="284,-62 284,-81 412,-81 412,-62 284,-62"/>
<text text-anchor="middle" x="348" y="-69" font-family="Helvetica,sans-Serif" font-size="10.00">src/IBM_EIS/timeseries.c</text>
</a>
</g>
</g>
<!-- Node7&#45;&gt;Node8 -->
<g id="edge10" class="edge">
<title>Node7&#45;&gt;Node8</title>
<path fill="none" stroke="midnightblue" d="M348,-118.54C348,-106.17 348,-90.62 348,-81.13"/>
<polygon fill="midnightblue" stroke="midnightblue" points="344.5,-118.73 348,-128.73 351.5,-118.73 344.5,-118.73"/>
</g>
</g>
</svg>
