<?xml version="1.0" encoding="UTF-8" standalone="no"?>
<!DOCTYPE svg PUBLIC "-//W3C//DTD SVG 1.1//EN"
 "http://www.w3.org/Graphics/SVG/1.1/DTD/svg11.dtd">
<!-- Generated by graphviz version 2.49.3 (20211027.1534)
 -->
<!-- Title: include/FoodAuthority/harvest_area.h Pages: 1 -->
<svg width="602pt" height="296pt"
 viewBox="0.00 0.00 602.00 296.00" xmlns="http://www.w3.org/2000/svg" xmlns:xlink="http://www.w3.org/1999/xlink">
<g id="graph0" class="graph" transform="scale(1 1) rotate(0) translate(4 292)">
<title>include/FoodAuthority/harvest_area.h</title>
<!-- Node1 -->
<g id="node1" class="node">
<title>Node1</title>
<g id="a_node1"><a xlink:title=" ">
<polygon fill="#bfbfbf" stroke="black" points="133,-257.5 133,-287.5 243,-287.5 243,-257.5 133,-257.5"/>
<text text-anchor="start" x="141" y="-275.5" font-family="Helvetica,sans-Serif" font-size="10.00">include/FoodAuthority</text>
<text text-anchor="middle" x="188" y="-264.5" font-family="Helvetica,sans-Serif" font-size="10.00">/harvest_area.h</text>
</a>
</g>
</g>
<!-- Node2 -->
<g id="node2" class="node">
<title>Node2</title>
<g id="a_node2"><a xlink:href="harvest__areas_8h.html" target="_top" xlink:title=" ">
<polygon fill="none" stroke="black" points="11,-123.5 11,-153.5 121,-153.5 121,-123.5 11,-123.5"/>
<text text-anchor="start" x="19" y="-141.5" font-family="Helvetica,sans-Serif" font-size="10.00">include/FoodAuthority</text>
<text text-anchor="middle" x="66" y="-130.5" font-family="Helvetica,sans-Serif" font-size="10.00">/harvest_areas.h</text>
</a>
</g>
</g>
<!-- Node1&#45;&gt;Node2 -->
<g id="edge1" class="edge">
<title>Node1&#45;&gt;Node2</title>
<path fill="none" stroke="midnightblue" d="M164.73,-250.35C155.28,-241.5 144.4,-230.97 135,-221 113.63,-198.34 90.59,-170.32 77.28,-153.74"/>
<polygon fill="midnightblue" stroke="midnightblue" points="162.56,-253.1 172.27,-257.34 167.32,-247.97 162.56,-253.1"/>
</g>
<!-- Node3 -->
<g id="node3" class="node">
<title>Node3</title>
<g id="a_node3"><a xlink:href="main_8h.html" target="_top" xlink:title=" ">
<polygon fill="none" stroke="black" points="146.5,-62 146.5,-81 225.5,-81 225.5,-62 146.5,-62"/>
<text text-anchor="middle" x="186" y="-69" font-family="Helvetica,sans-Serif" font-size="10.00">include/main.h</text>
</a>
</g>
</g>
<!-- Node1&#45;&gt;Node3 -->
<g id="edge5" class="edge">
<title>Node1&#45;&gt;Node3</title>
<path fill="none" stroke="midnightblue" d="M176.65,-248.21C173.15,-239.84 169.75,-230.19 168,-221 157.97,-168.45 175.74,-104.32 183.06,-81.27"/>
<polygon fill="midnightblue" stroke="midnightblue" points="173.46,-249.64 180.72,-257.35 179.85,-246.79 173.46,-249.64"/>
</g>
<!-- Node6 -->
<g id="node6" class="node">
<title>Node6</title>
<g id="a_node6"><a xlink:href="transform_8h.html" target="_top" xlink:title=" ">
<polygon fill="none" stroke="black" points="177.5,-196 177.5,-215 276.5,-215 276.5,-196 177.5,-196"/>
<text text-anchor="middle" x="227" y="-203" font-family="Helvetica,sans-Serif" font-size="10.00">include/transform.h</text>
</a>
</g>
</g>
<!-- Node1&#45;&gt;Node6 -->
<g id="edge6" class="edge">
<title>Node1&#45;&gt;Node6</title>
<path fill="none" stroke="midnightblue" d="M201.72,-248.63C208.66,-237.07 216.67,-223.71 221.78,-215.19"/>
<polygon fill="midnightblue" stroke="midnightblue" points="198.61,-247.02 196.46,-257.4 204.61,-250.62 198.61,-247.02"/>
</g>
<!-- Node12 -->
<g id="node12" class="node">
<title>Node12</title>
<g id="a_node12"><a xlink:href="harvest__area_8c.html" target="_top" xlink:title=" ">
<polygon fill="none" stroke="black" points="295,-190.5 295,-220.5 423,-220.5 423,-190.5 295,-190.5"/>
<text text-anchor="start" x="303" y="-208.5" font-family="Helvetica,sans-Serif" font-size="10.00">src/FoodAuthority/harvest</text>
<text text-anchor="middle" x="359" y="-197.5" font-family="Helvetica,sans-Serif" font-size="10.00">_area.c</text>
</a>
</g>
</g>
<!-- Node1&#45;&gt;Node12 -->
<g id="edge16" class="edge">
<title>Node1&#45;&gt;Node12</title>
<path fill="none" stroke="midnightblue" d="M234.52,-253.82C262,-243.37 296.33,-230.32 321.97,-220.58"/>
<polygon fill="midnightblue" stroke="midnightblue" points="233.21,-250.57 225.1,-257.4 235.7,-257.11 233.21,-250.57"/>
</g>
<!-- Node2&#45;&gt;Node3 -->
<g id="edge2" class="edge">
<title>Node2&#45;&gt;Node3</title>
<path fill="none" stroke="midnightblue" d="M101.13,-118.47C124.04,-106.06 152.82,-90.47 170.29,-81.01"/>
<polygon fill="midnightblue" stroke="midnightblue" points="99.16,-115.56 92.04,-123.4 102.5,-121.71 99.16,-115.56"/>
</g>
<!-- Node5 -->
<g id="node5" class="node">
<title>Node5</title>
<g id="a_node5"><a xlink:href="harvest__areas_8c.html" target="_top" xlink:title=" ">
<polygon fill="none" stroke="black" points="0,-56.5 0,-86.5 128,-86.5 128,-56.5 0,-56.5"/>
<text text-anchor="start" x="8" y="-74.5" font-family="Helvetica,sans-Serif" font-size="10.00">src/FoodAuthority/harvest</text>
<text text-anchor="middle" x="64" y="-63.5" font-family="Helvetica,sans-Serif" font-size="10.00">_areas.c</text>
</a>
</g>
</g>
<!-- Node2&#45;&gt;Node5 -->
<g id="edge4" class="edge">
<title>Node2&#45;&gt;Node5</title>
<path fill="none" stroke="midnightblue" d="M65.25,-113.11C64.97,-104.15 64.67,-94.32 64.43,-86.58"/>
<polygon fill="midnightblue" stroke="midnightblue" points="61.76,-113.51 65.57,-123.4 68.76,-113.29 61.76,-113.51"/>
</g>
<!-- Node4 -->
<g id="node4" class="node">
<title>Node4</title>
<g id="a_node4"><a xlink:href="main_8c.html" target="_top" xlink:title=" ">
<polygon fill="none" stroke="black" points="155,-0.5 155,-19.5 217,-19.5 217,-0.5 155,-0.5"/>
<text text-anchor="middle" x="186" y="-7.5" font-family="Helvetica,sans-Serif" font-size="10.00">src/main.c</text>
</a>
</g>
</g>
<!-- Node3&#45;&gt;Node4 -->
<g id="edge3" class="edge">
<title>Node3&#45;&gt;Node4</title>
<path fill="none" stroke="midnightblue" d="M186,-51.82C186,-41 186,-27.9 186,-19.51"/>
<polygon fill="midnightblue" stroke="midnightblue" points="182.5,-51.98 186,-61.98 189.5,-51.98 182.5,-51.98"/>
</g>
<!-- Node6&#45;&gt;Node2 -->
<g id="edge10" class="edge">
<title>Node6&#45;&gt;Node2</title>
<path fill="none" stroke="midnightblue" d="M196.18,-192.06C168.91,-181.05 129.14,-164.99 100.75,-153.53"/>
<polygon fill="midnightblue" stroke="midnightblue" points="195.04,-195.37 205.62,-195.87 197.66,-188.88 195.04,-195.37"/>
</g>
<!-- Node6&#45;&gt;Node3 -->
<g id="edge14" class="edge">
<title>Node6&#45;&gt;Node3</title>
<path fill="none" stroke="midnightblue" d="M219.21,-186.45C215.26,-176.9 210.56,-164.93 207,-154 198.5,-127.88 191.16,-96.17 187.86,-81.17"/>
<polygon fill="midnightblue" stroke="midnightblue" points="216,-187.83 223.12,-195.68 222.45,-185.11 216,-187.83"/>
</g>
<!-- Node7 -->
<g id="node7" class="node">
<title>Node7</title>
<g id="a_node7"><a xlink:href="historical__weather_8h.html" target="_top" xlink:title=" ">
<polygon fill="none" stroke="black" points="215.5,-123.5 215.5,-153.5 330.5,-153.5 330.5,-123.5 215.5,-123.5"/>
<text text-anchor="start" x="223.5" y="-141.5" font-family="Helvetica,sans-Serif" font-size="10.00">include/BOM/historical</text>
<text text-anchor="middle" x="273" y="-130.5" font-family="Helvetica,sans-Serif" font-size="10.00">_weather.h</text>
</a>
</g>
</g>
<!-- Node6&#45;&gt;Node7 -->
<g id="edge7" class="edge">
<title>Node6&#45;&gt;Node7</title>
<path fill="none" stroke="midnightblue" d="M239.13,-187.35C246.59,-176.82 256.01,-163.5 263.03,-153.59"/>
<polygon fill="midnightblue" stroke="midnightblue" points="236.12,-185.55 233.2,-195.73 241.84,-189.59 236.12,-185.55"/>
</g>
<!-- Node9 -->
<g id="node9" class="node">
<title>Node9</title>
<g id="a_node9"><a xlink:href="timeseries_8h.html" target="_top" xlink:title=" ">
<polygon fill="none" stroke="black" points="348.5,-129 348.5,-148 493.5,-148 493.5,-129 348.5,-129"/>
<text text-anchor="middle" x="421" y="-136" font-family="Helvetica,sans-Serif" font-size="10.00">include/IBM_EIS/timeseries.h</text>
</a>
</g>
</g>
<!-- Node6&#45;&gt;Node9 -->
<g id="edge11" class="edge">
<title>Node6&#45;&gt;Node9</title>
<path fill="none" stroke="midnightblue" d="M262.51,-192.6C300.98,-179.71 361.39,-159.47 395.44,-148.06"/>
<polygon fill="midnightblue" stroke="midnightblue" points="261.13,-189.37 252.76,-195.87 263.36,-196.01 261.13,-189.37"/>
</g>
<!-- Node11 -->
<g id="node11" class="node">
<title>Node11</title>
<g id="a_node11"><a xlink:href="transform_8c.html" target="_top" xlink:title=" ">
<polygon fill="none" stroke="black" points="512,-129 512,-148 594,-148 594,-129 512,-129"/>
<text text-anchor="middle" x="553" y="-136" font-family="Helvetica,sans-Serif" font-size="10.00">src/transform.c</text>
</a>
</g>
</g>
<!-- Node6&#45;&gt;Node11 -->
<g id="edge15" class="edge">
<title>Node6&#45;&gt;Node11</title>
<path fill="none" stroke="midnightblue" d="M269.49,-193.65C275.03,-192.35 280.64,-191.1 286,-190 381.76,-170.32 407.67,-175.65 503,-154 510.4,-152.32 518.33,-150.18 525.64,-148.06"/>
<polygon fill="midnightblue" stroke="midnightblue" points="268.58,-190.27 259.67,-196 270.21,-197.07 268.58,-190.27"/>
</g>
<!-- Node7&#45;&gt;Node3 -->
<g id="edge8" class="edge">
<title>Node7&#45;&gt;Node3</title>
<path fill="none" stroke="midnightblue" d="M246.02,-117.34C229.78,-105.21 209.94,-90.39 197.64,-81.19"/>
<polygon fill="midnightblue" stroke="midnightblue" points="244.02,-120.21 254.12,-123.4 248.21,-114.61 244.02,-120.21"/>
</g>
<!-- Node8 -->
<g id="node8" class="node">
<title>Node8</title>
<g id="a_node8"><a xlink:href="historical__weather_8c.html" target="_top" xlink:title=" ">
<polygon fill="none" stroke="black" points="243,-56.5 243,-86.5 341,-86.5 341,-56.5 243,-56.5"/>
<text text-anchor="start" x="251" y="-74.5" font-family="Helvetica,sans-Serif" font-size="10.00">src/BOM/historical</text>
<text text-anchor="middle" x="292" y="-63.5" font-family="Helvetica,sans-Serif" font-size="10.00">_weather.c</text>
</a>
</g>
</g>
<!-- Node7&#45;&gt;Node8 -->
<g id="edge9" class="edge">
<title>Node7&#45;&gt;Node8</title>
<path fill="none" stroke="midnightblue" d="M279.96,-113.7C282.62,-104.59 285.57,-94.49 287.89,-86.58"/>
<polygon fill="midnightblue" stroke="midnightblue" points="276.57,-112.82 277.12,-123.4 283.29,-114.78 276.57,-112.82"/>
</g>
<!-- Node9&#45;&gt;Node3 -->
<g id="edge12" class="edge">
<title>Node9&#45;&gt;Node3</title>
<path fill="none" stroke="midnightblue" d="M378.45,-126.39C340.48,-116.39 283.42,-101.13 234,-87 227.47,-85.13 220.47,-83.06 213.88,-81.07"/>
<polygon fill="midnightblue" stroke="midnightblue" points="377.59,-129.79 388.15,-128.94 379.37,-123.02 377.59,-129.79"/>
</g>
<!-- Node10 -->
<g id="node10" class="node">
<title>Node10</title>
<g id="a_node10"><a xlink:href="timeseries_8c.html" target="_top" xlink:title=" ">
<polygon fill="none" stroke="black" points="359,-62 359,-81 487,-81 487,-62 359,-62"/>
<text text-anchor="middle" x="423" y="-69" font-family="Helvetica,sans-Serif" font-size="10.00">src/IBM_EIS/timeseries.c</text>
</a>
</g>
</g>
<!-- Node9&#45;&gt;Node10 -->
<g id="edge13" class="edge">
<title>Node9&#45;&gt;Node10</title>
<path fill="none" stroke="midnightblue" d="M421.58,-118.54C421.96,-106.17 422.44,-90.62 422.73,-81.13"/>
<polygon fill="midnightblue" stroke="midnightblue" points="418.08,-118.63 421.27,-128.73 425.08,-118.85 418.08,-118.63"/>
</g>
</g>
</svg>
