<?xml version="1.0" encoding="UTF-8" standalone="no"?>
<!DOCTYPE svg PUBLIC "-//W3C//DTD SVG 1.1//EN"
 "http://www.w3.org/Graphics/SVG/1.1/DTD/svg11.dtd">
<!-- Generated by graphviz version 2.43.0 (0)
 -->
<!-- Title: src/FoodAuthority/harvest_areas.c Pages: 1 -->
<svg width="1448pt" height="500pt"
 viewBox="0.00 0.00 1448.00 500.00" xmlns="http://www.w3.org/2000/svg" xmlns:xlink="http://www.w3.org/1999/xlink">
<g id="graph0" class="graph" transform="scale(1 1) rotate(0) translate(4 496)">
<title>src/FoodAuthority/harvest_areas.c</title>
<!-- Node1 -->
<g id="node1" class="node">
<title>Node1</title>
<g id="a_node1"><a xlink:title=" ">
<polygon fill="#999999" stroke="#666666" points="524,-492 382,-492 382,-462 524,-462 524,-492"/>
<text text-anchor="start" x="390" y="-480" font-family="Helvetica,sans-Serif" font-size="10.00">src/FoodAuthority/harvest</text>
<text text-anchor="middle" x="453" y="-469" font-family="Helvetica,sans-Serif" font-size="10.00">_areas.c</text>
</a>
</g>
</g>
<!-- Node2 -->
<g id="node2" class="node">
<title>Node2</title>
<g id="a_node2"><a xlink:href="harvest__areas_8h.html" target="_top" xlink:title=" ">
<polygon fill="white" stroke="#666666" points="515.5,-426 390.5,-426 390.5,-396 515.5,-396 515.5,-426"/>
<text text-anchor="start" x="398.5" y="-414" font-family="Helvetica,sans-Serif" font-size="10.00">FoodAuthority/harvest</text>
<text text-anchor="middle" x="453" y="-403" font-family="Helvetica,sans-Serif" font-size="10.00">_areas.h</text>
</a>
</g>
</g>
<!-- Node1&#45;&gt;Node2 -->
<g id="edge1" class="edge">
<title>Node1&#45;&gt;Node2</title>
<path fill="none" stroke="#63b8ff" d="M453,-461.8C453,-454.34 453,-444.99 453,-436.41"/>
<polygon fill="#63b8ff" stroke="#63b8ff" points="456.5,-436.16 453,-426.16 449.5,-436.16 456.5,-436.16"/>
</g>
<!-- Node3 -->
<g id="node3" class="node">
<title>Node3</title>
<g id="a_node3"><a xlink:title=" ">
<polygon fill="#e0e0e0" stroke="#999999" points="1054.5,-74 989.5,-74 989.5,-55 1054.5,-55 1054.5,-74"/>
<text text-anchor="middle" x="1022" y="-62" font-family="Helvetica,sans-Serif" font-size="10.00">curl/curl.h</text>
</a>
</g>
</g>
<!-- Node2&#45;&gt;Node3 -->
<g id="edge2" class="edge">
<title>Node2&#45;&gt;Node3</title>
<path fill="none" stroke="#63b8ff" d="M515.63,-409.11C727.18,-405.28 1402,-386.05 1402,-296.5 1402,-296.5 1402,-296.5 1402,-234 1402,-87.8 1164.04,-67.47 1064.73,-65.35"/>
<polygon fill="#63b8ff" stroke="#63b8ff" points="1064.78,-61.85 1054.73,-65.19 1064.67,-68.85 1064.78,-61.85"/>
</g>
<!-- Node4 -->
<g id="node4" class="node">
<title>Node4</title>
<g id="a_node4"><a xlink:title=" ">
<polygon fill="#e0e0e0" stroke="#999999" points="1291.5,-74 1208.5,-74 1208.5,-55 1291.5,-55 1291.5,-74"/>
<text text-anchor="middle" x="1250" y="-62" font-family="Helvetica,sans-Serif" font-size="10.00">cjson/cJSON.h</text>
</a>
</g>
</g>
<!-- Node2&#45;&gt;Node4 -->
<g id="edge3" class="edge">
<title>Node2&#45;&gt;Node4</title>
<path fill="none" stroke="#63b8ff" d="M515.65,-409.42C686.27,-407.36 1156.45,-398.27 1306,-360 1369.85,-343.66 1440,-362.4 1440,-296.5 1440,-296.5 1440,-296.5 1440,-234 1440,-151.65 1338.85,-99.77 1284.16,-77.73"/>
<polygon fill="#63b8ff" stroke="#63b8ff" points="1285.43,-74.47 1274.84,-74.09 1282.88,-80.99 1285.43,-74.47"/>
</g>
<!-- Node5 -->
<g id="node5" class="node">
<title>Node5</title>
<g id="a_node5"><a xlink:title=" ">
<polygon fill="#e0e0e0" stroke="#999999" points="210,-19 162,-19 162,0 210,0 210,-19"/>
<text text-anchor="middle" x="186" y="-7" font-family="Helvetica,sans-Serif" font-size="10.00">time.h</text>
</a>
</g>
</g>
<!-- Node2&#45;&gt;Node5 -->
<g id="edge4" class="edge">
<title>Node2&#45;&gt;Node5</title>
<path fill="none" stroke="#63b8ff" d="M390.49,-407.34C266.22,-400.34 0,-376.06 0,-296.5 0,-296.5 0,-296.5 0,-118.5 0,-86.27 9.88,-75.18 35,-55 68.84,-27.82 118.8,-17.23 151.87,-13.12"/>
<polygon fill="#63b8ff" stroke="#63b8ff" points="152.41,-16.58 161.96,-11.99 151.64,-9.62 152.41,-16.58"/>
</g>
<!-- Node6 -->
<g id="node6" class="node">
<title>Node6</title>
<g id="a_node6"><a xlink:title=" ">
<polygon fill="#e0e0e0" stroke="#999999" points="107.5,-74 44.5,-74 44.5,-55 107.5,-55 107.5,-74"/>
<text text-anchor="middle" x="76" y="-62" font-family="Helvetica,sans-Serif" font-size="10.00">libpq&#45;fe.h</text>
</a>
</g>
</g>
<!-- Node2&#45;&gt;Node6 -->
<g id="edge5" class="edge">
<title>Node2&#45;&gt;Node6</title>
<path fill="none" stroke="#63b8ff" d="M390.42,-405.89C274.49,-396.56 38,-368.67 38,-296.5 38,-296.5 38,-296.5 38,-173.5 38,-140.02 54.45,-103.84 65.7,-83.01"/>
<polygon fill="#63b8ff" stroke="#63b8ff" points="68.87,-84.53 70.72,-74.1 62.76,-81.1 68.87,-84.53"/>
</g>
<!-- Node7 -->
<g id="node7" class="node">
<title>Node7</title>
<g id="a_node7"><a xlink:href="log_8h.html" target="_top" xlink:title=" ">
<polygon fill="white" stroke="#666666" points="283.5,-74 242.5,-74 242.5,-55 283.5,-55 283.5,-74"/>
<text text-anchor="middle" x="263" y="-62" font-family="Helvetica,sans-Serif" font-size="10.00">log.h</text>
</a>
</g>
</g>
<!-- Node2&#45;&gt;Node7 -->
<g id="edge6" class="edge">
<title>Node2&#45;&gt;Node7</title>
<path fill="none" stroke="#63b8ff" d="M390.43,-402.07C292.48,-387.89 114,-354.14 114,-296.5 114,-296.5 114,-296.5 114,-173.5 114,-115.53 188.86,-85.48 232.45,-72.89"/>
<polygon fill="#63b8ff" stroke="#63b8ff" points="233.56,-76.22 242.28,-70.2 231.71,-69.47 233.56,-76.22"/>
</g>
<!-- Node11 -->
<g id="node11" class="node">
<title>Node11</title>
<g id="a_node11"><a xlink:href="harvest__area_8h.html" target="_top" xlink:title=" ">
<polygon fill="white" stroke="#666666" points="644.5,-250 519.5,-250 519.5,-220 644.5,-220 644.5,-250"/>
<text text-anchor="start" x="527.5" y="-238" font-family="Helvetica,sans-Serif" font-size="10.00">FoodAuthority/harvest</text>
<text text-anchor="middle" x="582" y="-227" font-family="Helvetica,sans-Serif" font-size="10.00">_area.h</text>
</a>
</g>
</g>
<!-- Node2&#45;&gt;Node11 -->
<g id="edge11" class="edge">
<title>Node2&#45;&gt;Node11</title>
<path fill="none" stroke="#63b8ff" d="M467.31,-395.65C476.72,-385.93 489.08,-372.61 499,-360 525.54,-326.28 552.49,-284.28 568.2,-258.83"/>
<polygon fill="#63b8ff" stroke="#63b8ff" points="571.22,-260.61 573.46,-250.25 565.25,-256.95 571.22,-260.61"/>
</g>
<!-- Node12 -->
<g id="node12" class="node">
<title>Node12</title>
<g id="a_node12"><a xlink:href="http_8h.html" target="_top" xlink:title=" ">
<polygon fill="white" stroke="#666666" points="885.5,-184 840.5,-184 840.5,-165 885.5,-165 885.5,-184"/>
<text text-anchor="middle" x="863" y="-172" font-family="Helvetica,sans-Serif" font-size="10.00">http.h</text>
</a>
</g>
</g>
<!-- Node2&#45;&gt;Node12 -->
<g id="edge68" class="edge">
<title>Node2&#45;&gt;Node12</title>
<path fill="none" stroke="#63b8ff" d="M490.68,-395.97C537.95,-377.72 620.85,-343.59 687,-305 748.4,-269.18 814.21,-216.42 845.08,-190.7"/>
<polygon fill="#63b8ff" stroke="#63b8ff" points="847.41,-193.31 852.83,-184.21 842.92,-187.95 847.41,-193.31"/>
</g>
<!-- Node15 -->
<g id="node15" class="node">
<title>Node15</title>
<g id="a_node15"><a xlink:href="utils_8h.html" target="_top" xlink:title=" ">
<polygon fill="white" stroke="#666666" points="575.5,-129 528.5,-129 528.5,-110 575.5,-110 575.5,-129"/>
<text text-anchor="middle" x="552" y="-117" font-family="Helvetica,sans-Serif" font-size="10.00">utils.h</text>
</a>
</g>
</g>
<!-- Node2&#45;&gt;Node15 -->
<g id="edge69" class="edge">
<title>Node2&#45;&gt;Node15</title>
<path fill="none" stroke="#63b8ff" d="M434.59,-395.97C424.35,-386.96 412.57,-374.29 407,-360 403.93,-352.13 405.16,-349.24 407,-341 426.05,-255.85 437.27,-231.29 494,-165 503.9,-153.43 517.25,-142.94 528.65,-135.05"/>
<polygon fill="#63b8ff" stroke="#63b8ff" points="530.89,-137.76 537.27,-129.31 527.01,-131.94 530.89,-137.76"/>
</g>
<!-- Node21 -->
<g id="node21" class="node">
<title>Node21</title>
<g id="a_node21"><a xlink:href="transform_8h.html" target="_top" xlink:title=" ">
<polygon fill="white" stroke="#666666" points="490,-360 416,-360 416,-341 490,-341 490,-360"/>
<text text-anchor="middle" x="453" y="-348" font-family="Helvetica,sans-Serif" font-size="10.00">transform.h</text>
</a>
</g>
</g>
<!-- Node2&#45;&gt;Node21 -->
<g id="edge33" class="edge">
<title>Node2&#45;&gt;Node21</title>
<path fill="none" stroke="#63b8ff" d="M453,-395.84C453,-388.21 453,-378.7 453,-370.45"/>
<polygon fill="#63b8ff" stroke="#63b8ff" points="456.5,-370.27 453,-360.27 449.5,-370.27 456.5,-370.27"/>
</g>
<!-- Node22 -->
<g id="node22" class="node">
<title>Node22</title>
<g id="a_node22"><a xlink:href="stations_8h.html" target="_top" xlink:title=" ">
<polygon fill="white" stroke="#666666" points="348.5,-244.5 257.5,-244.5 257.5,-225.5 348.5,-225.5 348.5,-244.5"/>
<text text-anchor="middle" x="303" y="-232.5" font-family="Helvetica,sans-Serif" font-size="10.00">BOM/stations.h</text>
</a>
</g>
</g>
<!-- Node2&#45;&gt;Node22 -->
<g id="edge71" class="edge">
<title>Node2&#45;&gt;Node22</title>
<path fill="none" stroke="#63b8ff" d="M390.15,-408.57C353.76,-404.09 310.61,-391.77 287,-360 263.57,-328.47 281.26,-279.55 293.65,-253.58"/>
<polygon fill="#63b8ff" stroke="#63b8ff" points="296.82,-255.06 298.19,-244.55 290.57,-251.91 296.82,-255.06"/>
</g>
<!-- Node25 -->
<g id="node25" class="node">
<title>Node25</title>
<g id="a_node25"><a xlink:href="location_8h.html" target="_top" xlink:title=" ">
<polygon fill="white" stroke="#666666" points="920.5,-305 787.5,-305 787.5,-286 920.5,-286 920.5,-305"/>
<text text-anchor="middle" x="854" y="-293" font-family="Helvetica,sans-Serif" font-size="10.00">WillyWeather/location.h</text>
</a>
</g>
</g>
<!-- Node2&#45;&gt;Node25 -->
<g id="edge70" class="edge">
<title>Node2&#45;&gt;Node25</title>
<path fill="none" stroke="#63b8ff" d="M515.78,-408.06C580,-404.22 681.64,-392.93 763,-360 791.54,-348.45 819.92,-326.57 837.21,-311.76"/>
<polygon fill="#63b8ff" stroke="#63b8ff" points="839.55,-314.36 844.76,-305.13 834.93,-309.1 839.55,-314.36"/>
</g>
<!-- Node7&#45;&gt;Node5 -->
<g id="edge10" class="edge">
<title>Node7&#45;&gt;Node5</title>
<path fill="none" stroke="#63b8ff" d="M250.63,-54.98C238.91,-46.92 221.08,-34.65 207.11,-25.03"/>
<polygon fill="#63b8ff" stroke="#63b8ff" points="208.82,-21.96 198.6,-19.17 204.85,-27.72 208.82,-21.96"/>
</g>
<!-- Node8 -->
<g id="node8" class="node">
<title>Node8</title>
<g id="a_node8"><a xlink:title=" ">
<polygon fill="#e0e0e0" stroke="#999999" points="960,-19 910,-19 910,0 960,0 960,-19"/>
<text text-anchor="middle" x="935" y="-7" font-family="Helvetica,sans-Serif" font-size="10.00">stdio.h</text>
</a>
</g>
</g>
<!-- Node7&#45;&gt;Node8 -->
<g id="edge7" class="edge">
<title>Node7&#45;&gt;Node8</title>
<path fill="none" stroke="#63b8ff" d="M283.55,-57.25C287.01,-56.38 290.59,-55.58 294,-55 522.43,-16.15 802.17,-11.05 899.57,-10.51"/>
<polygon fill="#63b8ff" stroke="#63b8ff" points="899.76,-14.01 909.74,-10.46 899.73,-7.01 899.76,-14.01"/>
</g>
<!-- Node9 -->
<g id="node9" class="node">
<title>Node9</title>
<g id="a_node9"><a xlink:title=" ">
<polygon fill="#e0e0e0" stroke="#999999" points="288,-19 232,-19 232,0 288,0 288,-19"/>
<text text-anchor="middle" x="260" y="-7" font-family="Helvetica,sans-Serif" font-size="10.00">stdarg.h</text>
</a>
</g>
</g>
<!-- Node7&#45;&gt;Node9 -->
<g id="edge8" class="edge">
<title>Node7&#45;&gt;Node9</title>
<path fill="none" stroke="#63b8ff" d="M262.5,-54.75C262.11,-47.8 261.55,-37.85 261.05,-29.13"/>
<polygon fill="#63b8ff" stroke="#63b8ff" points="264.55,-28.88 260.49,-19.09 257.56,-29.27 264.55,-28.88"/>
</g>
<!-- Node10 -->
<g id="node10" class="node">
<title>Node10</title>
<g id="a_node10"><a xlink:title=" ">
<polygon fill="#e0e0e0" stroke="#999999" points="368,-19 306,-19 306,0 368,0 368,-19"/>
<text text-anchor="middle" x="337" y="-7" font-family="Helvetica,sans-Serif" font-size="10.00">stdbool.h</text>
</a>
</g>
</g>
<!-- Node7&#45;&gt;Node10 -->
<g id="edge9" class="edge">
<title>Node7&#45;&gt;Node10</title>
<path fill="none" stroke="#63b8ff" d="M274.89,-54.98C286.15,-46.92 303.29,-34.65 316.71,-25.03"/>
<polygon fill="#63b8ff" stroke="#63b8ff" points="318.8,-27.84 324.89,-19.17 314.73,-22.15 318.8,-27.84"/>
</g>
<!-- Node11&#45;&gt;Node3 -->
<g id="edge12" class="edge">
<title>Node11&#45;&gt;Node3</title>
<path fill="none" stroke="#63b8ff" d="M644.68,-231.15C709.19,-226.58 811.75,-214.72 895,-184 938.98,-167.77 952.2,-162.49 985,-129 997.95,-115.78 1008.1,-97.16 1014.47,-83.5"/>
<polygon fill="#63b8ff" stroke="#63b8ff" points="1017.74,-84.75 1018.59,-74.19 1011.34,-81.92 1017.74,-84.75"/>
</g>
<!-- Node11&#45;&gt;Node4 -->
<g id="edge13" class="edge">
<title>Node11&#45;&gt;Node4</title>
<path fill="none" stroke="#63b8ff" d="M644.56,-229.09C715.02,-222.63 832.53,-209.04 931,-184 1041.77,-155.84 1167.3,-102.57 1222.02,-78.22"/>
<polygon fill="#63b8ff" stroke="#63b8ff" points="1223.7,-81.3 1231.39,-74.02 1220.84,-74.91 1223.7,-81.3"/>
</g>
<!-- Node11&#45;&gt;Node5 -->
<g id="edge14" class="edge">
<title>Node11&#45;&gt;Node5</title>
<path fill="none" stroke="#63b8ff" d="M530.46,-219.93C457.84,-198.12 324.1,-150.52 233,-74 217.62,-61.08 204.45,-42.16 196,-28.33"/>
<polygon fill="#63b8ff" stroke="#63b8ff" points="198.8,-26.18 190.72,-19.33 192.76,-29.72 198.8,-26.18"/>
</g>
<!-- Node11&#45;&gt;Node7 -->
<g id="edge15" class="edge">
<title>Node11&#45;&gt;Node7</title>
<path fill="none" stroke="#63b8ff" d="M555.35,-219.92C494.78,-187.93 347.45,-110.11 288.25,-78.84"/>
<polygon fill="#63b8ff" stroke="#63b8ff" points="289.69,-75.64 279.21,-74.06 286.42,-81.83 289.69,-75.64"/>
</g>
<!-- Node11&#45;&gt;Node12 -->
<g id="edge16" class="edge">
<title>Node11&#45;&gt;Node12</title>
<path fill="none" stroke="#63b8ff" d="M644.71,-220.94C702.19,-208.98 785.02,-191.73 830.33,-182.3"/>
<polygon fill="#63b8ff" stroke="#63b8ff" points="831.13,-185.71 840.21,-180.24 829.71,-178.86 831.13,-185.71"/>
</g>
<!-- Node11&#45;&gt;Node15 -->
<g id="edge32" class="edge">
<title>Node11&#45;&gt;Node15</title>
<path fill="none" stroke="#63b8ff" d="M578.2,-219.63C572.78,-199.12 562.83,-161.47 556.87,-138.93"/>
<polygon fill="#63b8ff" stroke="#63b8ff" points="560.25,-138 554.31,-129.23 553.48,-139.79 560.25,-138"/>
</g>
<!-- Node12&#45;&gt;Node3 -->
<g id="edge19" class="edge">
<title>Node12&#45;&gt;Node3</title>
<path fill="none" stroke="#63b8ff" d="M885.82,-165.76C906.31,-158.2 936.67,-145.43 960,-129 978.98,-115.63 997.11,-95.99 1008.8,-82.1"/>
<polygon fill="#63b8ff" stroke="#63b8ff" points="1011.56,-84.25 1015.2,-74.3 1006.15,-79.81 1011.56,-84.25"/>
</g>
<!-- Node13 -->
<g id="node13" class="node">
<title>Node13</title>
<g id="a_node13"><a xlink:title=" ">
<polygon fill="#e0e0e0" stroke="#999999" points="780.5,-74 727.5,-74 727.5,-55 780.5,-55 780.5,-74"/>
<text text-anchor="middle" x="754" y="-62" font-family="Helvetica,sans-Serif" font-size="10.00">stdlib.h</text>
</a>
</g>
</g>
<!-- Node12&#45;&gt;Node13 -->
<g id="edge17" class="edge">
<title>Node12&#45;&gt;Node13</title>
<path fill="none" stroke="#63b8ff" d="M854.08,-164.66C835.71,-146.46 793.41,-104.55 770.12,-81.47"/>
<polygon fill="#63b8ff" stroke="#63b8ff" points="772.31,-78.71 762.74,-74.16 767.38,-83.68 772.31,-78.71"/>
</g>
<!-- Node14 -->
<g id="node14" class="node">
<title>Node14</title>
<g id="a_node14"><a xlink:title=" ">
<polygon fill="#e0e0e0" stroke="#999999" points="934.5,-74 881.5,-74 881.5,-55 934.5,-55 934.5,-74"/>
<text text-anchor="middle" x="908" y="-62" font-family="Helvetica,sans-Serif" font-size="10.00">string.h</text>
</a>
</g>
</g>
<!-- Node12&#45;&gt;Node14 -->
<g id="edge18" class="edge">
<title>Node12&#45;&gt;Node14</title>
<path fill="none" stroke="#63b8ff" d="M866.68,-164.66C874.04,-147.01 890.67,-107.09 900.44,-83.64"/>
<polygon fill="#63b8ff" stroke="#63b8ff" points="903.78,-84.74 904.39,-74.16 897.32,-82.04 903.78,-84.74"/>
</g>
<!-- Node12&#45;&gt;Node15 -->
<g id="edge20" class="edge">
<title>Node12&#45;&gt;Node15</title>
<path fill="none" stroke="#63b8ff" d="M840.38,-169.65C786.36,-160.44 649.58,-137.13 585.76,-126.25"/>
<polygon fill="#63b8ff" stroke="#63b8ff" points="586.25,-122.79 575.8,-124.56 585.07,-129.69 586.25,-122.79"/>
</g>
<!-- Node15&#45;&gt;Node3 -->
<g id="edge23" class="edge">
<title>Node15&#45;&gt;Node3</title>
<path fill="none" stroke="#63b8ff" d="M575.63,-115.84C650.43,-107.4 882.79,-81.2 979.3,-70.31"/>
<polygon fill="#63b8ff" stroke="#63b8ff" points="979.75,-73.79 989.3,-69.19 978.97,-66.83 979.75,-73.79"/>
</g>
<!-- Node15&#45;&gt;Node4 -->
<g id="edge25" class="edge">
<title>Node15&#45;&gt;Node4</title>
<path fill="none" stroke="#63b8ff" d="M575.62,-116.71C674.71,-109.18 1058.13,-80.07 1198.3,-69.43"/>
<polygon fill="#63b8ff" stroke="#63b8ff" points="1198.65,-72.91 1208.36,-68.66 1198.12,-65.93 1198.65,-72.91"/>
</g>
<!-- Node15&#45;&gt;Node6 -->
<g id="edge31" class="edge">
<title>Node15&#45;&gt;Node6</title>
<path fill="none" stroke="#63b8ff" d="M528.4,-115.87C452.56,-107.43 214.43,-80.91 117.59,-70.13"/>
<polygon fill="#63b8ff" stroke="#63b8ff" points="117.9,-66.64 107.58,-69.02 117.13,-73.6 117.9,-66.64"/>
</g>
<!-- Node15&#45;&gt;Node7 -->
<g id="edge30" class="edge">
<title>Node15&#45;&gt;Node7</title>
<path fill="none" stroke="#63b8ff" d="M528.37,-115.21C482.78,-108.68 379.63,-93.08 294,-74 293.79,-73.95 293.58,-73.91 293.36,-73.86"/>
<polygon fill="#63b8ff" stroke="#63b8ff" points="294.15,-70.45 283.61,-71.45 292.48,-77.24 294.15,-70.45"/>
</g>
<!-- Node15&#45;&gt;Node13 -->
<g id="edge21" class="edge">
<title>Node15&#45;&gt;Node13</title>
<path fill="none" stroke="#63b8ff" d="M575.57,-112.32C610.49,-103.15 676.28,-85.89 717.48,-75.08"/>
<polygon fill="#63b8ff" stroke="#63b8ff" points="718.6,-78.41 727.39,-72.48 716.83,-71.63 718.6,-78.41"/>
</g>
<!-- Node15&#45;&gt;Node14 -->
<g id="edge22" class="edge">
<title>Node15&#45;&gt;Node14</title>
<path fill="none" stroke="#63b8ff" d="M575.63,-114.98C636.32,-105.95 797.99,-81.88 871.14,-70.99"/>
<polygon fill="#63b8ff" stroke="#63b8ff" points="871.89,-74.41 881.26,-69.48 870.86,-67.49 871.89,-74.41"/>
</g>
<!-- Node16 -->
<g id="node16" class="node">
<title>Node16</title>
<g id="a_node16"><a xlink:title=" ">
<polygon fill="#e0e0e0" stroke="#999999" points="598.5,-74 545.5,-74 545.5,-55 598.5,-55 598.5,-74"/>
<text text-anchor="middle" x="572" y="-62" font-family="Helvetica,sans-Serif" font-size="10.00">stdint.h</text>
</a>
</g>
</g>
<!-- Node15&#45;&gt;Node16 -->
<g id="edge24" class="edge">
<title>Node15&#45;&gt;Node16</title>
<path fill="none" stroke="#63b8ff" d="M555.3,-109.75C557.98,-102.65 561.85,-92.4 565.19,-83.56"/>
<polygon fill="#63b8ff" stroke="#63b8ff" points="568.5,-84.68 568.76,-74.09 561.95,-82.21 568.5,-84.68"/>
</g>
<!-- Node17 -->
<g id="node17" class="node">
<title>Node17</title>
<g id="a_node17"><a xlink:title=" ">
<polygon fill="#e0e0e0" stroke="#999999" points="437,-74 373,-74 373,-55 437,-55 437,-74"/>
<text text-anchor="middle" x="405" y="-62" font-family="Helvetica,sans-Serif" font-size="10.00">sys/stat.h</text>
</a>
</g>
</g>
<!-- Node15&#45;&gt;Node17 -->
<g id="edge26" class="edge">
<title>Node15&#45;&gt;Node17</title>
<path fill="none" stroke="#63b8ff" d="M528.38,-109.98C504.1,-101.23 466.05,-87.51 438.63,-77.62"/>
<polygon fill="#63b8ff" stroke="#63b8ff" points="439.64,-74.27 429.05,-74.17 437.27,-80.85 439.64,-74.27"/>
</g>
<!-- Node18 -->
<g id="node18" class="node">
<title>Node18</title>
<g id="a_node18"><a xlink:title=" ">
<polygon fill="#e0e0e0" stroke="#999999" points="527,-74 455,-74 455,-55 527,-55 527,-74"/>
<text text-anchor="middle" x="491" y="-62" font-family="Helvetica,sans-Serif" font-size="10.00">sys/types.h</text>
</a>
</g>
</g>
<!-- Node15&#45;&gt;Node18 -->
<g id="edge27" class="edge">
<title>Node15&#45;&gt;Node18</title>
<path fill="none" stroke="#63b8ff" d="M542.2,-109.98C533.18,-102.15 519.59,-90.34 508.68,-80.86"/>
<polygon fill="#63b8ff" stroke="#63b8ff" points="510.82,-78.09 500.98,-74.17 506.23,-83.37 510.82,-78.09"/>
</g>
<!-- Node19 -->
<g id="node19" class="node">
<title>Node19</title>
<g id="a_node19"><a xlink:title=" ">
<polygon fill="#e0e0e0" stroke="#999999" points="667.5,-74 616.5,-74 616.5,-55 667.5,-55 667.5,-74"/>
<text text-anchor="middle" x="642" y="-62" font-family="Helvetica,sans-Serif" font-size="10.00">errno.h</text>
</a>
</g>
</g>
<!-- Node15&#45;&gt;Node19 -->
<g id="edge28" class="edge">
<title>Node15&#45;&gt;Node19</title>
<path fill="none" stroke="#63b8ff" d="M566.46,-109.98C580.42,-101.77 601.79,-89.18 618.25,-79.49"/>
<polygon fill="#63b8ff" stroke="#63b8ff" points="620.44,-82.26 627.28,-74.17 616.88,-76.23 620.44,-82.26"/>
</g>
<!-- Node20 -->
<g id="node20" class="node">
<title>Node20</title>
<g id="a_node20"><a xlink:title=" ">
<polygon fill="#e0e0e0" stroke="#999999" points="354.5,-74 303.5,-74 303.5,-55 354.5,-55 354.5,-74"/>
<text text-anchor="middle" x="329" y="-62" font-family="Helvetica,sans-Serif" font-size="10.00">math.h</text>
</a>
</g>
</g>
<!-- Node15&#45;&gt;Node20 -->
<g id="edge29" class="edge">
<title>Node15&#45;&gt;Node20</title>
<path fill="none" stroke="#63b8ff" d="M528.25,-112.92C494.31,-104.95 429.75,-89.74 364.64,-74.14"/>
<polygon fill="#63b8ff" stroke="#63b8ff" points="365.15,-70.67 354.61,-71.74 363.52,-77.47 365.15,-70.67"/>
</g>
<!-- Node21&#45;&gt;Node6 -->
<g id="edge34" class="edge">
<title>Node21&#45;&gt;Node6</title>
<path fill="none" stroke="#63b8ff" d="M415.73,-344.63C377.59,-338.71 317.26,-326.71 269,-305 229.98,-287.45 220.72,-279.77 190,-250 141.87,-203.36 132.16,-187.8 100,-129 92.05,-114.46 85.59,-96.73 81.38,-83.71"/>
<polygon fill="#63b8ff" stroke="#63b8ff" points="84.7,-82.57 78.4,-74.05 78.01,-84.63 84.7,-82.57"/>
</g>
<!-- Node21&#45;&gt;Node7 -->
<g id="edge37" class="edge">
<title>Node21&#45;&gt;Node7</title>
<path fill="none" stroke="#63b8ff" d="M415.94,-341.84C350.28,-325.92 216.19,-282.25 171,-184 151.4,-141.39 204.89,-100.09 238.35,-79.34"/>
<polygon fill="#63b8ff" stroke="#63b8ff" points="240.4,-82.2 247.18,-74.05 236.8,-76.19 240.4,-82.2"/>
</g>
<!-- Node21&#45;&gt;Node8 -->
<g id="edge35" class="edge">
<title>Node21&#45;&gt;Node8</title>
<path fill="none" stroke="#63b8ff" d="M456.76,-340.8C469.15,-312.18 507.98,-222.61 510,-220 582.43,-126.4 611.71,-104.95 719,-55 778.64,-27.23 855.53,-16.69 899.65,-12.76"/>
<polygon fill="#63b8ff" stroke="#63b8ff" points="900.19,-16.23 909.86,-11.92 899.61,-9.25 900.19,-16.23"/>
</g>
<!-- Node21&#45;&gt;Node11 -->
<g id="edge48" class="edge">
<title>Node21&#45;&gt;Node11</title>
<path fill="none" stroke="#63b8ff" d="M463.42,-340.7C473.96,-331.78 490.7,-317.53 505,-305 523.28,-288.99 543.77,-270.61 559.01,-256.85"/>
<polygon fill="#63b8ff" stroke="#63b8ff" points="561.39,-259.42 566.46,-250.11 556.7,-254.22 561.39,-259.42"/>
</g>
<!-- Node21&#45;&gt;Node13 -->
<g id="edge36" class="edge">
<title>Node21&#45;&gt;Node13</title>
<path fill="none" stroke="#63b8ff" d="M490.17,-342.49C558.07,-327.4 700.21,-284.7 755,-184 772.22,-152.34 765.41,-108.53 759.39,-84.01"/>
<polygon fill="#63b8ff" stroke="#63b8ff" points="762.73,-82.98 756.77,-74.22 755.97,-84.79 762.73,-82.98"/>
</g>
<!-- Node21&#45;&gt;Node15 -->
<g id="edge67" class="edge">
<title>Node21&#45;&gt;Node15</title>
<path fill="none" stroke="#63b8ff" d="M453.24,-340.93C454.13,-319.58 458.21,-262.69 477,-220 491.5,-187.06 518.83,-154.91 536.19,-136.43"/>
<polygon fill="#63b8ff" stroke="#63b8ff" points="538.76,-138.81 543.17,-129.17 533.72,-133.96 538.76,-138.81"/>
</g>
<!-- Node21&#45;&gt;Node22 -->
<g id="edge38" class="edge">
<title>Node21&#45;&gt;Node22</title>
<path fill="none" stroke="#63b8ff" d="M441.73,-340.97C416.32,-321.74 354.32,-274.83 322.52,-250.77"/>
<polygon fill="#63b8ff" stroke="#63b8ff" points="324.49,-247.87 314.41,-244.63 320.27,-253.46 324.49,-247.87"/>
</g>
<!-- Node21&#45;&gt;Node25 -->
<g id="edge49" class="edge">
<title>Node21&#45;&gt;Node25</title>
<path fill="none" stroke="#63b8ff" d="M490.01,-344.61C555.66,-335.93 693.66,-317.69 779.62,-306.33"/>
<polygon fill="#63b8ff" stroke="#63b8ff" points="780.12,-309.8 789.57,-305.02 779.2,-302.86 780.12,-309.8"/>
</g>
<!-- Node22&#45;&gt;Node15 -->
<g id="edge47" class="edge">
<title>Node22&#45;&gt;Node15</title>
<path fill="none" stroke="#63b8ff" d="M318.55,-225.41C343.41,-211.81 393.82,-184.85 438,-165 464.67,-153.01 495.62,-141.05 518.53,-132.56"/>
<polygon fill="#63b8ff" stroke="#63b8ff" points="519.96,-135.76 528.13,-129.02 517.54,-129.19 519.96,-135.76"/>
</g>
<!-- Node22&#45;&gt;Node20 -->
<g id="edge39" class="edge">
<title>Node22&#45;&gt;Node20</title>
<path fill="none" stroke="#63b8ff" d="M304.33,-225.41C308.34,-199.39 320.44,-120.97 326.07,-84.51"/>
<polygon fill="#63b8ff" stroke="#63b8ff" points="329.58,-84.69 327.65,-74.27 322.66,-83.62 329.58,-84.69"/>
</g>
<!-- Node23 -->
<g id="node23" class="node">
<title>Node23</title>
<g id="a_node23"><a xlink:title=" ">
<polygon fill="#e0e0e0" stroke="#999999" points="233.5,-184 180.5,-184 180.5,-165 233.5,-165 233.5,-184"/>
<text text-anchor="middle" x="207" y="-172" font-family="Helvetica,sans-Serif" font-size="10.00">ctype.h</text>
</a>
</g>
</g>
<!-- Node22&#45;&gt;Node23 -->
<g id="edge40" class="edge">
<title>Node22&#45;&gt;Node23</title>
<path fill="none" stroke="#63b8ff" d="M288.83,-225.37C273.31,-215.91 248.17,-200.59 229.85,-189.42"/>
<polygon fill="#63b8ff" stroke="#63b8ff" points="231.58,-186.38 221.22,-184.17 227.94,-192.36 231.58,-186.38"/>
</g>
<!-- Node24 -->
<g id="node24" class="node">
<title>Node24</title>
<g id="a_node24"><a xlink:href="ftp_8h.html" target="_top" xlink:title=" ">
<polygon fill="white" stroke="#666666" points="746,-184 708,-184 708,-165 746,-165 746,-184"/>
<text text-anchor="middle" x="727" y="-172" font-family="Helvetica,sans-Serif" font-size="10.00">ftp.h</text>
</a>
</g>
</g>
<!-- Node22&#45;&gt;Node24 -->
<g id="edge41" class="edge">
<title>Node22&#45;&gt;Node24</title>
<path fill="none" stroke="#63b8ff" d="M348.78,-227.68C436.16,-215.63 624.49,-189.64 697.37,-179.59"/>
<polygon fill="#63b8ff" stroke="#63b8ff" points="698.22,-183 707.65,-178.17 697.26,-176.07 698.22,-183"/>
</g>
<!-- Node24&#45;&gt;Node3 -->
<g id="edge44" class="edge">
<title>Node24&#45;&gt;Node3</title>
<path fill="none" stroke="#63b8ff" d="M746.36,-166.41C795.77,-148.32 927.06,-100.26 988.9,-77.62"/>
<polygon fill="#63b8ff" stroke="#63b8ff" points="990.37,-80.81 998.56,-74.08 987.97,-74.23 990.37,-80.81"/>
</g>
<!-- Node24&#45;&gt;Node13 -->
<g id="edge42" class="edge">
<title>Node24&#45;&gt;Node13</title>
<path fill="none" stroke="#63b8ff" d="M719.52,-164.71C709.91,-152.3 695.46,-129.04 704,-110 709.5,-97.74 720.23,-87.48 730.35,-79.91"/>
<polygon fill="#63b8ff" stroke="#63b8ff" points="732.35,-82.78 738.57,-74.2 728.36,-77.03 732.35,-82.78"/>
</g>
<!-- Node24&#45;&gt;Node14 -->
<g id="edge43" class="edge">
<title>Node24&#45;&gt;Node14</title>
<path fill="none" stroke="#63b8ff" d="M741.51,-164.84C772.83,-146.16 847,-101.9 884.88,-79.3"/>
<polygon fill="#63b8ff" stroke="#63b8ff" points="886.88,-82.18 893.68,-74.05 883.3,-76.17 886.88,-82.18"/>
</g>
<!-- Node24&#45;&gt;Node15 -->
<g id="edge46" class="edge">
<title>Node24&#45;&gt;Node15</title>
<path fill="none" stroke="#63b8ff" d="M707.94,-167.73C678.55,-158.83 621.76,-141.63 585.43,-130.62"/>
<polygon fill="#63b8ff" stroke="#63b8ff" points="586.35,-127.25 575.76,-127.7 584.32,-133.95 586.35,-127.25"/>
</g>
<!-- Node24&#45;&gt;Node19 -->
<g id="edge45" class="edge">
<title>Node24&#45;&gt;Node19</title>
<path fill="none" stroke="#63b8ff" d="M720.04,-164.66C705.84,-146.61 673.31,-105.28 655.05,-82.08"/>
<polygon fill="#63b8ff" stroke="#63b8ff" points="657.75,-79.85 648.81,-74.16 652.25,-84.18 657.75,-79.85"/>
</g>
<!-- Node25&#45;&gt;Node3 -->
<g id="edge55" class="edge">
<title>Node25&#45;&gt;Node3</title>
<path fill="none" stroke="#63b8ff" d="M920.66,-292.17C987.45,-288.27 1083.63,-277.84 1107,-250 1127.39,-225.71 1143.31,-191.39 1091,-110 1082.17,-96.26 1067.43,-85.91 1053.83,-78.66"/>
<polygon fill="#63b8ff" stroke="#63b8ff" points="1055.2,-75.43 1044.68,-74.14 1052.09,-81.71 1055.2,-75.43"/>
</g>
<!-- Node25&#45;&gt;Node4 -->
<g id="edge54" class="edge">
<title>Node25&#45;&gt;Node4</title>
<path fill="none" stroke="#63b8ff" d="M920.53,-289.89C990.64,-283.96 1095.47,-271.74 1129,-250 1192.18,-209.02 1229.68,-122.17 1243.68,-84.07"/>
<polygon fill="#63b8ff" stroke="#63b8ff" points="1247.1,-84.9 1247.15,-74.31 1240.51,-82.56 1247.1,-84.9"/>
</g>
<!-- Node25&#45;&gt;Node7 -->
<g id="edge56" class="edge">
<title>Node25&#45;&gt;Node7</title>
<path fill="none" stroke="#63b8ff" d="M787.16,-289.86C701.69,-283.23 558.89,-269.65 510,-250 409.81,-209.73 314.13,-118.35 278.08,-81.42"/>
<polygon fill="#63b8ff" stroke="#63b8ff" points="280.41,-78.79 270.95,-74.03 275.37,-83.65 280.41,-78.79"/>
</g>
<!-- Node25&#45;&gt;Node8 -->
<g id="edge52" class="edge">
<title>Node25&#45;&gt;Node8</title>
<path fill="none" stroke="#63b8ff" d="M920.65,-290.51C998.09,-284.89 1120.34,-272.7 1160,-250 1246.99,-200.21 1267.79,-168.57 1301,-74 1303.8,-66.03 1306.6,-61.32 1301,-55 1279.25,-30.45 1057.74,-16.69 970.26,-12.17"/>
<polygon fill="#63b8ff" stroke="#63b8ff" points="970.2,-8.67 960.04,-11.66 969.85,-15.66 970.2,-8.67"/>
</g>
<!-- Node25&#45;&gt;Node12 -->
<g id="edge65" class="edge">
<title>Node25&#45;&gt;Node12</title>
<path fill="none" stroke="#63b8ff" d="M854.65,-285.94C856.09,-266.91 859.58,-220.69 861.57,-194.47"/>
<polygon fill="#63b8ff" stroke="#63b8ff" points="865.07,-194.54 862.33,-184.3 858.09,-194.01 865.07,-194.54"/>
</g>
<!-- Node25&#45;&gt;Node13 -->
<g id="edge51" class="edge">
<title>Node25&#45;&gt;Node13</title>
<path fill="none" stroke="#63b8ff" d="M850.2,-285.8C835.51,-252.15 782.19,-130.05 761.91,-83.61"/>
<polygon fill="#63b8ff" stroke="#63b8ff" points="765.01,-81.97 757.8,-74.21 758.6,-84.77 765.01,-81.97"/>
</g>
<!-- Node25&#45;&gt;Node14 -->
<g id="edge50" class="edge">
<title>Node25&#45;&gt;Node14</title>
<path fill="none" stroke="#63b8ff" d="M920.6,-291C981.84,-286.22 1066.2,-275.15 1087,-250 1143.95,-181.14 1002.32,-107.13 937.9,-78.15"/>
<polygon fill="#63b8ff" stroke="#63b8ff" points="939.19,-74.9 928.63,-74.05 936.36,-81.3 939.19,-74.9"/>
</g>
<!-- Node25&#45;&gt;Node15 -->
<g id="edge66" class="edge">
<title>Node25&#45;&gt;Node15</title>
<path fill="none" stroke="#63b8ff" d="M838.91,-285.77C814.83,-271.85 766.23,-243.76 725,-220 671.72,-189.29 609.17,-153.34 575.8,-134.17"/>
<polygon fill="#63b8ff" stroke="#63b8ff" points="577.23,-130.96 566.82,-129.01 573.74,-137.03 577.23,-130.96"/>
</g>
<!-- Node25&#45;&gt;Node20 -->
<g id="edge53" class="edge">
<title>Node25&#45;&gt;Node20</title>
<path fill="none" stroke="#63b8ff" d="M826.52,-285.94C800.19,-277.52 759.48,-263.94 725,-250 582.49,-192.4 417.45,-110.37 354.85,-78.69"/>
<polygon fill="#63b8ff" stroke="#63b8ff" points="356.21,-75.45 345.71,-74.05 353.04,-81.7 356.21,-75.45"/>
</g>
<!-- Node26 -->
<g id="node26" class="node">
<title>Node26</title>
<g id="a_node26"><a xlink:href="_willy_weather_2authenticate_8h.html" target="_top" xlink:title=" ">
<polygon fill="white" stroke="#666666" points="1077.5,-244.5 922.5,-244.5 922.5,-225.5 1077.5,-225.5 1077.5,-244.5"/>
<text text-anchor="middle" x="1000" y="-232.5" font-family="Helvetica,sans-Serif" font-size="10.00">WillyWeather/authenticate.h</text>
</a>
</g>
</g>
<!-- Node25&#45;&gt;Node26 -->
<g id="edge57" class="edge">
<title>Node25&#45;&gt;Node26</title>
<path fill="none" stroke="#63b8ff" d="M875.23,-285.99C899.99,-276.07 941.12,-259.59 969.35,-248.28"/>
<polygon fill="#63b8ff" stroke="#63b8ff" points="970.76,-251.49 978.74,-244.52 968.16,-244.99 970.76,-251.49"/>
</g>
<!-- Node26&#45;&gt;Node3 -->
<g id="edge62" class="edge">
<title>Node26&#45;&gt;Node3</title>
<path fill="none" stroke="#63b8ff" d="M1023.01,-225.47C1040.5,-217.63 1063.31,-204.13 1074,-184 1089.43,-154.95 1087.75,-139.87 1074,-110 1068.25,-97.52 1057.09,-87.24 1046.58,-79.71"/>
<polygon fill="#63b8ff" stroke="#63b8ff" points="1048.3,-76.65 1038.03,-74.05 1044.43,-82.49 1048.3,-76.65"/>
</g>
<!-- Node26&#45;&gt;Node4 -->
<g id="edge61" class="edge">
<title>Node26&#45;&gt;Node4</title>
<path fill="none" stroke="#63b8ff" d="M1077.64,-225.87C1134.58,-218.29 1205.41,-204.96 1226,-184 1252.27,-157.26 1253.57,-110.16 1251.95,-84.12"/>
<polygon fill="#63b8ff" stroke="#63b8ff" points="1255.43,-83.75 1251.11,-74.08 1248.46,-84.34 1255.43,-83.75"/>
</g>
<!-- Node26&#45;&gt;Node7 -->
<g id="edge63" class="edge">
<title>Node26&#45;&gt;Node7</title>
<path fill="none" stroke="#63b8ff" d="M937.39,-225.48C876.26,-216.71 780.77,-201.85 699,-184 544.88,-150.36 363.83,-96.44 293.28,-74.87"/>
<polygon fill="#63b8ff" stroke="#63b8ff" points="294.28,-71.51 283.69,-71.93 292.22,-78.2 294.28,-71.51"/>
</g>
<!-- Node26&#45;&gt;Node8 -->
<g id="edge60" class="edge">
<title>Node26&#45;&gt;Node8</title>
<path fill="none" stroke="#63b8ff" d="M1032.56,-225.41C1053.25,-218.08 1078.43,-205.26 1091,-184 1107.75,-155.69 1098.44,-142.04 1091,-110 1084.84,-83.47 1084.41,-73.02 1064,-55 1037.59,-31.68 998.32,-20.43 970.05,-15.11"/>
<polygon fill="#63b8ff" stroke="#63b8ff" points="970.63,-11.66 960.18,-13.4 969.44,-18.55 970.63,-11.66"/>
</g>
<!-- Node26&#45;&gt;Node12 -->
<g id="edge64" class="edge">
<title>Node26&#45;&gt;Node12</title>
<path fill="none" stroke="#63b8ff" d="M980.08,-225.49C957.05,-215.66 918.92,-199.38 892.46,-188.08"/>
<polygon fill="#63b8ff" stroke="#63b8ff" points="893.52,-184.72 882.95,-184.02 890.77,-191.16 893.52,-184.72"/>
</g>
<!-- Node26&#45;&gt;Node13 -->
<g id="edge59" class="edge">
<title>Node26&#45;&gt;Node13</title>
<path fill="none" stroke="#63b8ff" d="M988,-225.46C959.42,-205.17 885.05,-152.58 822,-110 806.7,-99.67 789.29,-88.28 775.91,-79.61"/>
<polygon fill="#63b8ff" stroke="#63b8ff" points="777.66,-76.57 767.37,-74.08 773.86,-82.45 777.66,-76.57"/>
</g>
<!-- Node26&#45;&gt;Node14 -->
<g id="edge58" class="edge">
<title>Node26&#45;&gt;Node14</title>
<path fill="none" stroke="#63b8ff" d="M995.31,-225.41C980.92,-199.05 937.17,-118.93 917.62,-83.12"/>
<polygon fill="#63b8ff" stroke="#63b8ff" points="920.65,-81.37 912.79,-74.27 914.51,-84.73 920.65,-81.37"/>
</g>
</g>
</svg>
