<?xml version="1.0" encoding="UTF-8" standalone="no"?>
<!DOCTYPE svg PUBLIC "-//W3C//DTD SVG 1.1//EN"
 "http://www.w3.org/Graphics/SVG/1.1/DTD/svg11.dtd">
<!-- Generated by graphviz version 2.49.3 (20211027.1534)
 -->
<!-- Title: include/FoodAuthority/harvest_areas.h Pages: 1 -->
<svg width="1226pt" height="386pt"
 viewBox="0.00 0.00 1226.00 386.00" xmlns="http://www.w3.org/2000/svg" xmlns:xlink="http://www.w3.org/1999/xlink">
<g id="graph0" class="graph" transform="scale(1 1) rotate(0) translate(4 382)">
<title>include/FoodAuthority/harvest_areas.h</title>
<!-- Node1 -->
<g id="node1" class="node">
<title>Node1</title>
<g id="a_node1"><a xlink:title=" ">
<polygon fill="#bfbfbf" stroke="black" points="268,-347.5 268,-377.5 378,-377.5 378,-347.5 268,-347.5"/>
<text text-anchor="start" x="276" y="-365.5" font-family="Helvetica,sans-Serif" font-size="10.00">include/FoodAuthority</text>
<text text-anchor="middle" x="323" y="-354.5" font-family="Helvetica,sans-Serif" font-size="10.00">/harvest_areas.h</text>
</a>
</g>
</g>
<!-- Node2 -->
<g id="node2" class="node">
<title>Node2</title>
<g id="a_node2"><a xlink:title=" ">
<polygon fill="none" stroke="#bfbfbf" points="444.5,-56.5 444.5,-75.5 503.5,-75.5 503.5,-56.5 444.5,-56.5"/>
<text text-anchor="middle" x="474" y="-63.5" font-family="Helvetica,sans-Serif" font-size="10.00">curl/curl.h</text>
</a>
</g>
</g>
<!-- Node1&#45;&gt;Node2 -->
<g id="edge1" class="edge">
<title>Node1&#45;&gt;Node2</title>
<path fill="none" stroke="midnightblue" d="M330.28,-347.3C355.3,-298.51 437.67,-137.85 465.06,-84.44"/>
<polygon fill="midnightblue" stroke="midnightblue" points="468.19,-86 469.64,-75.51 461.96,-82.81 468.19,-86"/>
</g>
<!-- Node3 -->
<g id="node3" class="node">
<title>Node3</title>
<g id="a_node3"><a xlink:title=" ">
<polygon fill="none" stroke="#bfbfbf" points="110.5,-56.5 110.5,-75.5 193.5,-75.5 193.5,-56.5 110.5,-56.5"/>
<text text-anchor="middle" x="152" y="-63.5" font-family="Helvetica,sans-Serif" font-size="10.00">cjson/cJSON.h</text>
</a>
</g>
</g>
<!-- Node1&#45;&gt;Node3 -->
<g id="edge2" class="edge">
<title>Node1&#45;&gt;Node3</title>
<path fill="none" stroke="midnightblue" d="M267.88,-358.29C195.08,-350.72 76,-325.38 76,-240.5 76,-240.5 76,-240.5 76,-177 76,-137.28 109.96,-101.5 132.48,-82.15"/>
<polygon fill="midnightblue" stroke="midnightblue" points="134.98,-84.63 140.46,-75.57 130.52,-79.24 134.98,-84.63"/>
</g>
<!-- Node4 -->
<g id="node4" class="node">
<title>Node4</title>
<g id="a_node4"><a xlink:title=" ">
<polygon fill="none" stroke="#bfbfbf" points="16.5,-0.5 16.5,-19.5 59.5,-19.5 59.5,-0.5 16.5,-0.5"/>
<text text-anchor="middle" x="38" y="-7.5" font-family="Helvetica,sans-Serif" font-size="10.00">time.h</text>
</a>
</g>
</g>
<!-- Node1&#45;&gt;Node4 -->
<g id="edge3" class="edge">
<title>Node1&#45;&gt;Node4</title>
<path fill="none" stroke="midnightblue" d="M267.7,-355.99C219.97,-349.69 150.06,-336.73 94,-311 46.54,-289.22 0,-292.72 0,-240.5 0,-240.5 0,-240.5 0,-121 0,-86.81 16.6,-49.76 27.86,-28.57"/>
<polygon fill="midnightblue" stroke="midnightblue" points="30.95,-30.22 32.72,-19.77 24.82,-26.83 30.95,-30.22"/>
</g>
<!-- Node5 -->
<g id="node5" class="node">
<title>Node5</title>
<g id="a_node5"><a xlink:title=" ">
<polygon fill="none" stroke="#bfbfbf" points="220,-291.5 220,-310.5 276,-310.5 276,-291.5 220,-291.5"/>
<text text-anchor="middle" x="248" y="-298.5" font-family="Helvetica,sans-Serif" font-size="10.00">libpq&#45;fe.h</text>
</a>
</g>
</g>
<!-- Node1&#45;&gt;Node5 -->
<g id="edge4" class="edge">
<title>Node1&#45;&gt;Node5</title>
<path fill="none" stroke="midnightblue" d="M305.23,-347.4C293.65,-338.22 278.58,-326.26 266.8,-316.92"/>
<polygon fill="midnightblue" stroke="midnightblue" points="268.92,-314.13 258.91,-310.66 264.57,-319.61 268.92,-314.13"/>
</g>
<!-- Node6 -->
<g id="node6" class="node">
<title>Node6</title>
<g id="a_node6"><a xlink:href="log_8h.html" target="_top" xlink:title=" ">
<polygon fill="none" stroke="black" points="323.5,-56.5 323.5,-75.5 360.5,-75.5 360.5,-56.5 323.5,-56.5"/>
<text text-anchor="middle" x="342" y="-63.5" font-family="Helvetica,sans-Serif" font-size="10.00">log.h</text>
</a>
</g>
</g>
<!-- Node1&#45;&gt;Node6 -->
<g id="edge5" class="edge">
<title>Node1&#45;&gt;Node6</title>
<path fill="none" stroke="midnightblue" d="M269.08,-347.5C248.47,-339.74 226.28,-328.1 211,-311 184.69,-281.55 180.51,-261.46 193,-224 212.68,-164.97 232.18,-155.15 277,-112 289.33,-100.13 305.08,-89.14 317.98,-81"/>
<polygon fill="midnightblue" stroke="midnightblue" points="320.09,-83.81 326.79,-75.6 316.43,-77.84 320.09,-83.81"/>
</g>
<!-- Node10 -->
<g id="node10" class="node">
<title>Node10</title>
<g id="a_node10"><a xlink:href="harvest__area_8h.html" target="_top" xlink:title=" ">
<polygon fill="none" stroke="black" points="202,-224.5 202,-254.5 314,-254.5 314,-224.5 202,-224.5"/>
<text text-anchor="start" x="210" y="-242.5" font-family="Helvetica,sans-Serif" font-size="10.00">FoodAuthority/harvest</text>
<text text-anchor="middle" x="258" y="-231.5" font-family="Helvetica,sans-Serif" font-size="10.00">_area.h</text>
</a>
</g>
</g>
<!-- Node1&#45;&gt;Node10 -->
<g id="edge10" class="edge">
<title>Node1&#45;&gt;Node10</title>
<path fill="none" stroke="midnightblue" d="M315.29,-347.14C304.24,-326.59 283.8,-288.53 270.56,-263.87"/>
<polygon fill="midnightblue" stroke="midnightblue" points="273.52,-261.99 265.7,-254.84 267.35,-265.3 273.52,-261.99"/>
</g>
<!-- Node11 -->
<g id="node11" class="node">
<title>Node11</title>
<g id="a_node11"><a xlink:href="http_8h.html" target="_top" xlink:title=" ">
<polygon fill="none" stroke="black" points="726.5,-168.5 726.5,-187.5 767.5,-187.5 767.5,-168.5 726.5,-168.5"/>
<text text-anchor="middle" x="747" y="-175.5" font-family="Helvetica,sans-Serif" font-size="10.00">http.h</text>
</a>
</g>
</g>
<!-- Node1&#45;&gt;Node11 -->
<g id="edge31" class="edge">
<title>Node1&#45;&gt;Node11</title>
<path fill="none" stroke="midnightblue" d="M378.4,-358.93C487.75,-353.3 722.91,-338.13 747,-311 774.81,-279.69 762.91,-225.82 753.83,-197.55"/>
<polygon fill="midnightblue" stroke="midnightblue" points="757.03,-196.07 750.46,-187.76 750.41,-198.35 757.03,-196.07"/>
</g>
<!-- Node14 -->
<g id="node14" class="node">
<title>Node14</title>
<g id="a_node14"><a xlink:href="utils_8h.html" target="_top" xlink:title=" ">
<polygon fill="none" stroke="black" points="940,-112.5 940,-131.5 982,-131.5 982,-112.5 940,-112.5"/>
<text text-anchor="middle" x="961" y="-119.5" font-family="Helvetica,sans-Serif" font-size="10.00">utils.h</text>
</a>
</g>
</g>
<!-- Node1&#45;&gt;Node14 -->
<g id="edge32" class="edge">
<title>Node1&#45;&gt;Node14</title>
<path fill="none" stroke="midnightblue" d="M378.08,-360.91C463.11,-358.74 630.73,-349.44 767,-311 861.67,-284.29 907.54,-276.25 951,-188 958.09,-173.6 960.41,-155.4 961.06,-141.93"/>
<polygon fill="midnightblue" stroke="midnightblue" points="964.56,-141.98 961.28,-131.91 957.56,-141.83 964.56,-141.98"/>
</g>
<!-- Node20 -->
<g id="node20" class="node">
<title>Node20</title>
<g id="a_node20"><a xlink:href="location_8h.html" target="_top" xlink:title=" ">
<polygon fill="none" stroke="black" points="621.5,-291.5 621.5,-310.5 738.5,-310.5 738.5,-291.5 621.5,-291.5"/>
<text text-anchor="middle" x="680" y="-298.5" font-family="Helvetica,sans-Serif" font-size="10.00">WillyWeather/location.h</text>
</a>
</g>
</g>
<!-- Node1&#45;&gt;Node20 -->
<g id="edge33" class="edge">
<title>Node1&#45;&gt;Node20</title>
<path fill="none" stroke="midnightblue" d="M378.39,-352.27C443.5,-341.42 551.21,-323.47 618.75,-312.21"/>
<polygon fill="midnightblue" stroke="midnightblue" points="619.54,-315.63 628.83,-310.53 618.39,-308.72 619.54,-315.63"/>
</g>
<!-- Node22 -->
<g id="node22" class="node">
<title>Node22</title>
<g id="a_node22"><a xlink:href="stations_8h.html" target="_top" xlink:title=" ">
<polygon fill="none" stroke="black" points="1134,-230 1134,-249 1218,-249 1218,-230 1134,-230"/>
<text text-anchor="middle" x="1176" y="-237" font-family="Helvetica,sans-Serif" font-size="10.00">BOM/stations.h</text>
</a>
</g>
</g>
<!-- Node1&#45;&gt;Node22 -->
<g id="edge51" class="edge">
<title>Node1&#45;&gt;Node22</title>
<path fill="none" stroke="midnightblue" d="M378.1,-360.87C525.61,-358.69 926.88,-349.29 1053,-311 1092.71,-298.94 1133.47,-272.18 1156.67,-255.32"/>
<polygon fill="midnightblue" stroke="midnightblue" points="1158.99,-257.96 1164.94,-249.19 1154.82,-252.33 1158.99,-257.96"/>
</g>
<!-- Node6&#45;&gt;Node4 -->
<g id="edge9" class="edge">
<title>Node6&#45;&gt;Node4</title>
<path fill="none" stroke="midnightblue" d="M323.44,-61.7C272.99,-52.74 132.89,-27.86 69.67,-16.63"/>
<polygon fill="midnightblue" stroke="midnightblue" points="69.96,-13.12 59.5,-14.82 68.74,-20.01 69.96,-13.12"/>
</g>
<!-- Node7 -->
<g id="node7" class="node">
<title>Node7</title>
<g id="a_node7"><a xlink:title=" ">
<polygon fill="none" stroke="#bfbfbf" points="509.5,-0.5 509.5,-19.5 554.5,-19.5 554.5,-0.5 509.5,-0.5"/>
<text text-anchor="middle" x="532" y="-7.5" font-family="Helvetica,sans-Serif" font-size="10.00">stdio.h</text>
</a>
</g>
</g>
<!-- Node6&#45;&gt;Node7 -->
<g id="edge6" class="edge">
<title>Node6&#45;&gt;Node7</title>
<path fill="none" stroke="midnightblue" d="M360.56,-59.72C392.78,-50.57 459.41,-31.63 499.45,-20.25"/>
<polygon fill="midnightblue" stroke="midnightblue" points="500.6,-23.56 509.27,-17.46 498.69,-16.83 500.6,-23.56"/>
</g>
<!-- Node8 -->
<g id="node8" class="node">
<title>Node8</title>
<g id="a_node8"><a xlink:title=" ">
<polygon fill="none" stroke="#bfbfbf" points="280.5,-0.5 280.5,-19.5 331.5,-19.5 331.5,-0.5 280.5,-0.5"/>
<text text-anchor="middle" x="306" y="-7.5" font-family="Helvetica,sans-Serif" font-size="10.00">stdarg.h</text>
</a>
</g>
</g>
<!-- Node6&#45;&gt;Node8 -->
<g id="edge7" class="edge">
<title>Node6&#45;&gt;Node8</title>
<path fill="none" stroke="midnightblue" d="M336.06,-56.08C331.02,-48.53 323.66,-37.49 317.49,-28.23"/>
<polygon fill="midnightblue" stroke="midnightblue" points="320.29,-26.13 311.83,-19.75 314.47,-30.01 320.29,-26.13"/>
</g>
<!-- Node9 -->
<g id="node9" class="node">
<title>Node9</title>
<g id="a_node9"><a xlink:title=" ">
<polygon fill="none" stroke="#bfbfbf" points="350,-0.5 350,-19.5 406,-19.5 406,-0.5 350,-0.5"/>
<text text-anchor="middle" x="378" y="-7.5" font-family="Helvetica,sans-Serif" font-size="10.00">stdbool.h</text>
</a>
</g>
</g>
<!-- Node6&#45;&gt;Node9 -->
<g id="edge8" class="edge">
<title>Node6&#45;&gt;Node9</title>
<path fill="none" stroke="midnightblue" d="M347.94,-56.08C352.98,-48.53 360.34,-37.49 366.51,-28.23"/>
<polygon fill="midnightblue" stroke="midnightblue" points="369.53,-30.01 372.17,-19.75 363.71,-26.13 369.53,-30.01"/>
</g>
<!-- Node10&#45;&gt;Node2 -->
<g id="edge11" class="edge">
<title>Node10&#45;&gt;Node2</title>
<path fill="none" stroke="midnightblue" d="M270.83,-224.35C284.43,-209.64 306.85,-186.26 328,-168 359.76,-140.59 369.45,-135.8 404,-112 419.56,-101.28 437.5,-89.77 451.32,-81.07"/>
<polygon fill="midnightblue" stroke="midnightblue" points="453.53,-83.81 460.15,-75.54 449.82,-77.88 453.53,-83.81"/>
</g>
<!-- Node10&#45;&gt;Node3 -->
<g id="edge12" class="edge">
<title>Node10&#45;&gt;Node3</title>
<path fill="none" stroke="midnightblue" d="M247.27,-224.43C236.4,-210.18 219.07,-187.53 204,-168 191.61,-151.95 185.85,-149.72 176,-132 167.78,-117.21 161.35,-99.06 157.22,-85.7"/>
<polygon fill="midnightblue" stroke="midnightblue" points="160.49,-84.39 154.31,-75.78 153.77,-86.36 160.49,-84.39"/>
</g>
<!-- Node10&#45;&gt;Node4 -->
<g id="edge13" class="edge">
<title>Node10&#45;&gt;Node4</title>
<path fill="none" stroke="midnightblue" d="M242.15,-224.18C231.25,-214.21 216.53,-200.52 204,-188 146.26,-130.34 80.87,-58.61 52.45,-27.11"/>
<polygon fill="midnightblue" stroke="midnightblue" points="55.05,-24.75 45.75,-19.66 49.84,-29.44 55.05,-24.75"/>
</g>
<!-- Node10&#45;&gt;Node6 -->
<g id="edge14" class="edge">
<title>Node10&#45;&gt;Node6</title>
<path fill="none" stroke="midnightblue" d="M258.84,-224.14C260.87,-199.48 267.64,-148.25 290,-112 297.44,-99.93 309.17,-89.38 319.6,-81.53"/>
<polygon fill="midnightblue" stroke="midnightblue" points="321.82,-84.25 327.94,-75.6 317.77,-78.54 321.82,-84.25"/>
</g>
<!-- Node10&#45;&gt;Node11 -->
<g id="edge15" class="edge">
<title>Node10&#45;&gt;Node11</title>
<path fill="none" stroke="midnightblue" d="M314.09,-231.67C417.57,-219.08 635.29,-192.59 716.02,-182.77"/>
<polygon fill="midnightblue" stroke="midnightblue" points="716.54,-186.23 726.04,-181.55 715.69,-179.28 716.54,-186.23"/>
</g>
<!-- Node10&#45;&gt;Node14 -->
<g id="edge30" class="edge">
<title>Node10&#45;&gt;Node14</title>
<path fill="none" stroke="midnightblue" d="M314.22,-235.3C466.94,-226.44 879.84,-201.39 906,-188 926.29,-177.61 942.1,-156.15 951.45,-140.73"/>
<polygon fill="midnightblue" stroke="midnightblue" points="954.73,-142.06 956.66,-131.64 948.65,-138.58 954.73,-142.06"/>
</g>
<!-- Node11&#45;&gt;Node2 -->
<g id="edge18" class="edge">
<title>Node11&#45;&gt;Node2</title>
<path fill="none" stroke="midnightblue" d="M726.49,-172.42C696.68,-165.45 639.94,-150.95 594,-132 558.42,-117.32 519.68,-95.1 496.11,-80.82"/>
<polygon fill="midnightblue" stroke="midnightblue" points="497.93,-77.83 487.57,-75.59 494.27,-83.8 497.93,-77.83"/>
</g>
<!-- Node12 -->
<g id="node12" class="node">
<title>Node12</title>
<g id="a_node12"><a xlink:title=" ">
<polygon fill="none" stroke="#bfbfbf" points="653.5,-56.5 653.5,-75.5 700.5,-75.5 700.5,-56.5 653.5,-56.5"/>
<text text-anchor="middle" x="677" y="-63.5" font-family="Helvetica,sans-Serif" font-size="10.00">stdlib.h</text>
</a>
</g>
</g>
<!-- Node11&#45;&gt;Node12 -->
<g id="edge16" class="edge">
<title>Node11&#45;&gt;Node12</title>
<path fill="none" stroke="midnightblue" d="M741.51,-168.37C730.01,-150.3 703.2,-108.18 688.01,-84.31"/>
<polygon fill="midnightblue" stroke="midnightblue" points="690.79,-82.15 682.47,-75.59 684.88,-85.91 690.79,-82.15"/>
</g>
<!-- Node13 -->
<g id="node13" class="node">
<title>Node13</title>
<g id="a_node13"><a xlink:title=" ">
<polygon fill="none" stroke="#bfbfbf" points="719,-56.5 719,-75.5 767,-75.5 767,-56.5 719,-56.5"/>
<text text-anchor="middle" x="743" y="-63.5" font-family="Helvetica,sans-Serif" font-size="10.00">string.h</text>
</a>
</g>
</g>
<!-- Node11&#45;&gt;Node13 -->
<g id="edge17" class="edge">
<title>Node11&#45;&gt;Node13</title>
<path fill="none" stroke="midnightblue" d="M754.79,-168.36C764.88,-156.08 780.46,-132.77 774,-112 770.77,-101.62 764.22,-91.52 757.98,-83.53"/>
<polygon fill="midnightblue" stroke="midnightblue" points="760.58,-81.19 751.48,-75.77 755.21,-85.68 760.58,-81.19"/>
</g>
<!-- Node11&#45;&gt;Node14 -->
<g id="edge19" class="edge">
<title>Node11&#45;&gt;Node14</title>
<path fill="none" stroke="midnightblue" d="M767.52,-171.82C805.19,-162.32 885.59,-142.03 929.97,-130.83"/>
<polygon fill="midnightblue" stroke="midnightblue" points="931.07,-134.16 939.91,-128.32 929.36,-127.37 931.07,-134.16"/>
</g>
<!-- Node14&#45;&gt;Node2 -->
<g id="edge22" class="edge">
<title>Node14&#45;&gt;Node2</title>
<path fill="none" stroke="midnightblue" d="M939.76,-118.64C864.87,-110.34 612.3,-82.34 513.81,-71.41"/>
<polygon fill="midnightblue" stroke="midnightblue" points="513.99,-67.91 503.67,-70.29 513.22,-74.87 513.99,-67.91"/>
</g>
<!-- Node14&#45;&gt;Node3 -->
<g id="edge24" class="edge">
<title>Node14&#45;&gt;Node3</title>
<path fill="none" stroke="midnightblue" d="M939.78,-119.58C834.01,-112.52 362.63,-81.06 204.17,-70.48"/>
<polygon fill="midnightblue" stroke="midnightblue" points="203.96,-66.96 193.75,-69.79 203.49,-73.94 203.96,-66.96"/>
</g>
<!-- Node14&#45;&gt;Node6 -->
<g id="edge29" class="edge">
<title>Node14&#45;&gt;Node6</title>
<path fill="none" stroke="midnightblue" d="M939.95,-119.28C868.87,-113.47 631.24,-93.89 435,-76 413.39,-74.03 388.98,-71.66 370.59,-69.85"/>
<polygon fill="midnightblue" stroke="midnightblue" points="370.82,-66.36 360.52,-68.85 370.13,-73.32 370.82,-66.36"/>
</g>
<!-- Node14&#45;&gt;Node12 -->
<g id="edge20" class="edge">
<title>Node14&#45;&gt;Node12</title>
<path fill="none" stroke="midnightblue" d="M939.72,-117.84C897.81,-111.48 801.52,-96.17 710.64,-75.97"/>
<polygon fill="midnightblue" stroke="midnightblue" points="711.25,-72.52 700.73,-73.74 709.72,-79.35 711.25,-72.52"/>
</g>
<!-- Node14&#45;&gt;Node13 -->
<g id="edge21" class="edge">
<title>Node14&#45;&gt;Node13</title>
<path fill="none" stroke="midnightblue" d="M939.91,-115.52C935.33,-114.34 930.51,-113.12 926,-112 862.45,-96.21 844.04,-93.27 776.93,-76.18"/>
<polygon fill="midnightblue" stroke="midnightblue" points="777.68,-72.76 767.13,-73.67 775.95,-79.54 777.68,-72.76"/>
</g>
<!-- Node15 -->
<g id="node15" class="node">
<title>Node15</title>
<g id="a_node15"><a xlink:title=" ">
<polygon fill="none" stroke="#bfbfbf" points="785,-56.5 785,-75.5 833,-75.5 833,-56.5 785,-56.5"/>
<text text-anchor="middle" x="809" y="-63.5" font-family="Helvetica,sans-Serif" font-size="10.00">stdint.h</text>
</a>
</g>
</g>
<!-- Node14&#45;&gt;Node15 -->
<g id="edge23" class="edge">
<title>Node14&#45;&gt;Node15</title>
<path fill="none" stroke="midnightblue" d="M939.87,-113.49C914.65,-104.53 872.2,-89.45 842.5,-78.9"/>
<polygon fill="midnightblue" stroke="midnightblue" points="843.55,-75.56 832.96,-75.51 841.21,-82.16 843.55,-75.56"/>
</g>
<!-- Node16 -->
<g id="node16" class="node">
<title>Node16</title>
<g id="a_node16"><a xlink:title=" ">
<polygon fill="none" stroke="#bfbfbf" points="851.5,-56.5 851.5,-75.5 910.5,-75.5 910.5,-56.5 851.5,-56.5"/>
<text text-anchor="middle" x="881" y="-63.5" font-family="Helvetica,sans-Serif" font-size="10.00">sys/stat.h</text>
</a>
</g>
</g>
<!-- Node14&#45;&gt;Node16 -->
<g id="edge25" class="edge">
<title>Node14&#45;&gt;Node16</title>
<path fill="none" stroke="midnightblue" d="M948.15,-112.32C935.78,-103.98 916.87,-91.21 902.26,-81.35"/>
<polygon fill="midnightblue" stroke="midnightblue" points="904.07,-78.35 893.82,-75.65 900.15,-84.15 904.07,-78.35"/>
</g>
<!-- Node17 -->
<g id="node17" class="node">
<title>Node17</title>
<g id="a_node17"><a xlink:title=" ">
<polygon fill="none" stroke="#bfbfbf" points="928.5,-56.5 928.5,-75.5 993.5,-75.5 993.5,-56.5 928.5,-56.5"/>
<text text-anchor="middle" x="961" y="-63.5" font-family="Helvetica,sans-Serif" font-size="10.00">sys/types.h</text>
</a>
</g>
</g>
<!-- Node14&#45;&gt;Node17 -->
<g id="edge26" class="edge">
<title>Node14&#45;&gt;Node17</title>
<path fill="none" stroke="midnightblue" d="M961,-112.08C961,-105.01 961,-94.86 961,-85.99"/>
<polygon fill="midnightblue" stroke="midnightblue" points="964.5,-85.75 961,-75.75 957.5,-85.75 964.5,-85.75"/>
</g>
<!-- Node18 -->
<g id="node18" class="node">
<title>Node18</title>
<g id="a_node18"><a xlink:title=" ">
<polygon fill="none" stroke="#bfbfbf" points="1012,-56.5 1012,-75.5 1058,-75.5 1058,-56.5 1012,-56.5"/>
<text text-anchor="middle" x="1035" y="-63.5" font-family="Helvetica,sans-Serif" font-size="10.00">errno.h</text>
</a>
</g>
</g>
<!-- Node14&#45;&gt;Node18 -->
<g id="edge27" class="edge">
<title>Node14&#45;&gt;Node18</title>
<path fill="none" stroke="midnightblue" d="M972.89,-112.32C984.15,-104.11 1001.29,-91.6 1014.71,-81.81"/>
<polygon fill="midnightblue" stroke="midnightblue" points="1016.88,-84.56 1022.89,-75.83 1012.75,-78.9 1016.88,-84.56"/>
</g>
<!-- Node19 -->
<g id="node19" class="node">
<title>Node19</title>
<g id="a_node19"><a xlink:title=" ">
<polygon fill="none" stroke="#bfbfbf" points="1114,-56.5 1114,-75.5 1160,-75.5 1160,-56.5 1114,-56.5"/>
<text text-anchor="middle" x="1137" y="-63.5" font-family="Helvetica,sans-Serif" font-size="10.00">math.h</text>
</a>
</g>
</g>
<!-- Node14&#45;&gt;Node19 -->
<g id="edge28" class="edge">
<title>Node14&#45;&gt;Node19</title>
<path fill="none" stroke="midnightblue" d="M982.23,-114.49C1012.44,-105.22 1068.1,-88.14 1103.8,-77.19"/>
<polygon fill="midnightblue" stroke="midnightblue" points="1105.21,-80.42 1113.74,-74.14 1103.15,-73.72 1105.21,-80.42"/>
</g>
<!-- Node20&#45;&gt;Node2 -->
<g id="edge39" class="edge">
<title>Node20&#45;&gt;Node2</title>
<path fill="none" stroke="midnightblue" d="M621.31,-292.01C576.47,-284.67 519.78,-272.3 504,-255 460.61,-207.42 465.89,-123.36 470.89,-85.91"/>
<polygon fill="midnightblue" stroke="midnightblue" points="474.37,-86.29 472.38,-75.88 467.45,-85.26 474.37,-86.29"/>
</g>
<!-- Node20&#45;&gt;Node3 -->
<g id="edge38" class="edge">
<title>Node20&#45;&gt;Node3</title>
<path fill="none" stroke="midnightblue" d="M621.23,-298.34C498.75,-294.36 224.82,-282.46 193,-255 143.49,-212.28 145.72,-124.97 149.52,-86.24"/>
<polygon fill="midnightblue" stroke="midnightblue" points="153.04,-86.21 150.69,-75.88 146.09,-85.43 153.04,-86.21"/>
</g>
<!-- Node20&#45;&gt;Node6 -->
<g id="edge40" class="edge">
<title>Node20&#45;&gt;Node6</title>
<path fill="none" stroke="midnightblue" d="M621.37,-297.49C579.34,-293.25 522.97,-282.39 481,-255 413.89,-211.2 367.62,-123.13 349.96,-85.14"/>
<polygon fill="midnightblue" stroke="midnightblue" points="353.06,-83.49 345.74,-75.83 346.68,-86.38 353.06,-83.49"/>
</g>
<!-- Node20&#45;&gt;Node7 -->
<g id="edge36" class="edge">
<title>Node20&#45;&gt;Node7</title>
<path fill="none" stroke="midnightblue" d="M738.77,-295.95C781.94,-290.97 840.85,-279.84 887,-255 992.02,-198.48 1147.72,-143.79 1067,-56 1032.96,-18.98 676.1,-12.4 564.9,-11.24"/>
<polygon fill="midnightblue" stroke="midnightblue" points="564.66,-7.74 554.62,-11.14 564.59,-14.74 564.66,-7.74"/>
</g>
<!-- Node20&#45;&gt;Node11 -->
<g id="edge49" class="edge">
<title>Node20&#45;&gt;Node11</title>
<path fill="none" stroke="midnightblue" d="M684.8,-291.38C689.84,-282.32 697.98,-267.66 705,-255 716.03,-235.1 728.65,-212.24 737.16,-196.84"/>
<polygon fill="midnightblue" stroke="midnightblue" points="740.32,-198.34 742.09,-187.9 734.2,-194.96 740.32,-198.34"/>
</g>
<!-- Node20&#45;&gt;Node12 -->
<g id="edge35" class="edge">
<title>Node20&#45;&gt;Node12</title>
<path fill="none" stroke="midnightblue" d="M679.89,-291.43C679.46,-257.75 677.86,-133.99 677.25,-86.1"/>
<polygon fill="midnightblue" stroke="midnightblue" points="680.74,-85.85 677.11,-75.9 673.74,-85.94 680.74,-85.85"/>
</g>
<!-- Node20&#45;&gt;Node13 -->
<g id="edge34" class="edge">
<title>Node20&#45;&gt;Node13</title>
<path fill="none" stroke="midnightblue" d="M690.56,-291.44C710.95,-274.24 755.52,-233.27 776,-188 790.13,-156.78 802.29,-143.59 789,-112 783.97,-100.05 774.06,-89.69 764.71,-81.93"/>
<polygon fill="midnightblue" stroke="midnightblue" points="766.84,-79.15 756.79,-75.81 762.56,-84.69 766.84,-79.15"/>
</g>
<!-- Node20&#45;&gt;Node14 -->
<g id="edge50" class="edge">
<title>Node20&#45;&gt;Node14</title>
<path fill="none" stroke="midnightblue" d="M732.76,-291.46C766.64,-284.62 810.91,-273.12 847,-255 889.99,-233.41 902.45,-225.96 932,-188 942.9,-174 950.7,-155.25 955.44,-141.49"/>
<polygon fill="midnightblue" stroke="midnightblue" points="958.86,-142.3 958.59,-131.71 952.2,-140.15 958.86,-142.3"/>
</g>
<!-- Node20&#45;&gt;Node19 -->
<g id="edge37" class="edge">
<title>Node20&#45;&gt;Node19</title>
<path fill="none" stroke="midnightblue" d="M738.55,-297.96C822.07,-294.08 970.25,-283.33 1015,-255 1079.93,-213.9 1117.29,-124.32 1130.97,-85.52"/>
<polygon fill="midnightblue" stroke="midnightblue" points="1134.43,-86.21 1134.34,-75.62 1127.81,-83.96 1134.43,-86.21"/>
</g>
<!-- Node21 -->
<g id="node21" class="node">
<title>Node21</title>
<g id="a_node21"><a xlink:href="_willy_weather_2authenticate_8h.html" target="_top" xlink:title=" ">
<polygon fill="none" stroke="black" points="513.5,-230 513.5,-249 650.5,-249 650.5,-230 513.5,-230"/>
<text text-anchor="middle" x="582" y="-237" font-family="Helvetica,sans-Serif" font-size="10.00">WillyWeather/authenticate.h</text>
</a>
</g>
</g>
<!-- Node20&#45;&gt;Node21 -->
<g id="edge41" class="edge">
<title>Node20&#45;&gt;Node21</title>
<path fill="none" stroke="midnightblue" d="M665.96,-291.48C649.95,-281.75 623.55,-265.73 604.63,-254.24"/>
<polygon fill="midnightblue" stroke="midnightblue" points="606.38,-251.21 596.01,-249.01 602.75,-257.19 606.38,-251.21"/>
</g>
<!-- Node21&#45;&gt;Node2 -->
<g id="edge46" class="edge">
<title>Node21&#45;&gt;Node2</title>
<path fill="none" stroke="midnightblue" d="M576.5,-229.76C559.52,-202.81 507.76,-120.62 484.97,-84.42"/>
<polygon fill="midnightblue" stroke="midnightblue" points="487.66,-82.12 479.36,-75.52 481.73,-85.85 487.66,-82.12"/>
</g>
<!-- Node21&#45;&gt;Node3 -->
<g id="edge45" class="edge">
<title>Node21&#45;&gt;Node3</title>
<path fill="none" stroke="midnightblue" d="M560.68,-230C490.33,-201.94 265.4,-112.23 182.8,-79.28"/>
<polygon fill="midnightblue" stroke="midnightblue" points="184.04,-76.01 173.45,-75.56 181.44,-82.51 184.04,-76.01"/>
</g>
<!-- Node21&#45;&gt;Node6 -->
<g id="edge47" class="edge">
<title>Node21&#45;&gt;Node6</title>
<path fill="none" stroke="midnightblue" d="M570.1,-230C531.71,-202.57 410.86,-116.21 362.4,-81.58"/>
<polygon fill="midnightblue" stroke="midnightblue" points="364.14,-78.52 353.97,-75.56 360.07,-84.22 364.14,-78.52"/>
</g>
<!-- Node21&#45;&gt;Node7 -->
<g id="edge44" class="edge">
<title>Node21&#45;&gt;Node7</title>
<path fill="none" stroke="midnightblue" d="M580.1,-229.86C572.78,-196.57 546.32,-76.15 536.08,-29.57"/>
<polygon fill="midnightblue" stroke="midnightblue" points="539.47,-28.66 533.9,-19.65 532.63,-30.17 539.47,-28.66"/>
</g>
<!-- Node21&#45;&gt;Node11 -->
<g id="edge48" class="edge">
<title>Node21&#45;&gt;Node11</title>
<path fill="none" stroke="midnightblue" d="M605.64,-229.98C634.83,-219.45 684.53,-201.53 716.54,-189.98"/>
<polygon fill="midnightblue" stroke="midnightblue" points="718.05,-193.16 726.27,-186.47 715.68,-186.57 718.05,-193.16"/>
</g>
<!-- Node21&#45;&gt;Node12 -->
<g id="edge43" class="edge">
<title>Node21&#45;&gt;Node12</title>
<path fill="none" stroke="midnightblue" d="M586.84,-229.76C601.77,-202.81 647.3,-120.62 667.35,-84.42"/>
<polygon fill="midnightblue" stroke="midnightblue" points="670.5,-85.96 672.28,-75.52 664.37,-82.57 670.5,-85.96"/>
</g>
<!-- Node21&#45;&gt;Node13 -->
<g id="edge42" class="edge">
<title>Node21&#45;&gt;Node13</title>
<path fill="none" stroke="midnightblue" d="M590.18,-229.94C599.75,-219.92 616.06,-202.79 630,-188 665.28,-150.55 706.48,-106.31 728.06,-83.09"/>
<polygon fill="midnightblue" stroke="midnightblue" points="730.84,-85.24 735.08,-75.53 725.71,-80.48 730.84,-85.24"/>
</g>
<!-- Node22&#45;&gt;Node14 -->
<g id="edge60" class="edge">
<title>Node22&#45;&gt;Node14</title>
<path fill="none" stroke="midnightblue" d="M1159.84,-229.82C1122.63,-209.83 1030.67,-160.43 986.07,-136.47"/>
<polygon fill="midnightblue" stroke="midnightblue" points="987.52,-133.27 977.05,-131.62 984.21,-139.44 987.52,-133.27"/>
</g>
<!-- Node22&#45;&gt;Node19 -->
<g id="edge52" class="edge">
<title>Node22&#45;&gt;Node19</title>
<path fill="none" stroke="midnightblue" d="M1182.48,-229.9C1191.61,-216.71 1206.48,-190.62 1200,-168 1190.53,-134.92 1166.73,-102.15 1151.24,-83.27"/>
<polygon fill="midnightblue" stroke="midnightblue" points="1153.92,-81.02 1144.8,-75.63 1148.57,-85.53 1153.92,-81.02"/>
</g>
<!-- Node23 -->
<g id="node23" class="node">
<title>Node23</title>
<g id="a_node23"><a xlink:title=" ">
<polygon fill="none" stroke="#bfbfbf" points="1143.5,-168.5 1143.5,-187.5 1190.5,-187.5 1190.5,-168.5 1143.5,-168.5"/>
<text text-anchor="middle" x="1167" y="-175.5" font-family="Helvetica,sans-Serif" font-size="10.00">ctype.h</text>
</a>
</g>
</g>
<!-- Node22&#45;&gt;Node23 -->
<g id="edge53" class="edge">
<title>Node22&#45;&gt;Node23</title>
<path fill="none" stroke="midnightblue" d="M1174.71,-229.98C1173.44,-221.58 1171.46,-208.48 1169.82,-197.66"/>
<polygon fill="midnightblue" stroke="midnightblue" points="1173.24,-196.87 1168.29,-187.51 1166.32,-197.92 1173.24,-196.87"/>
</g>
<!-- Node24 -->
<g id="node24" class="node">
<title>Node24</title>
<g id="a_node24"><a xlink:href="ftp_8h.html" target="_top" xlink:title=" ">
<polygon fill="none" stroke="black" points="861.5,-168.5 861.5,-187.5 896.5,-187.5 896.5,-168.5 861.5,-168.5"/>
<text text-anchor="middle" x="879" y="-175.5" font-family="Helvetica,sans-Serif" font-size="10.00">ftp.h</text>
</a>
</g>
</g>
<!-- Node22&#45;&gt;Node24 -->
<g id="edge54" class="edge">
<title>Node22&#45;&gt;Node24</title>
<path fill="none" stroke="midnightblue" d="M1133.76,-230.04C1072.03,-217.67 958.86,-195 906.69,-184.55"/>
<polygon fill="midnightblue" stroke="midnightblue" points="907.3,-181.1 896.81,-182.57 905.93,-187.96 907.3,-181.1"/>
</g>
<!-- Node24&#45;&gt;Node2 -->
<g id="edge57" class="edge">
<title>Node24&#45;&gt;Node2</title>
<path fill="none" stroke="midnightblue" d="M861.34,-172.2C800.62,-155.71 599.5,-101.09 513.53,-77.74"/>
<polygon fill="midnightblue" stroke="midnightblue" points="514.2,-74.29 503.64,-75.05 512.37,-81.05 514.2,-74.29"/>
</g>
<!-- Node24&#45;&gt;Node12 -->
<g id="edge55" class="edge">
<title>Node24&#45;&gt;Node12</title>
<path fill="none" stroke="midnightblue" d="M863.15,-168.37C828.12,-149.29 743.88,-103.42 701.8,-80.51"/>
<polygon fill="midnightblue" stroke="midnightblue" points="703.23,-77.3 692.78,-75.59 699.89,-83.45 703.23,-77.3"/>
</g>
<!-- Node24&#45;&gt;Node13 -->
<g id="edge56" class="edge">
<title>Node24&#45;&gt;Node13</title>
<path fill="none" stroke="midnightblue" d="M883.69,-168.47C890.34,-155.07 900.43,-128.88 888,-112 884.6,-107.38 818.73,-88.22 776.95,-76.44"/>
<polygon fill="midnightblue" stroke="midnightblue" points="777.73,-73.03 767.16,-73.69 775.84,-79.77 777.73,-73.03"/>
</g>
<!-- Node24&#45;&gt;Node14 -->
<g id="edge59" class="edge">
<title>Node24&#45;&gt;Node14</title>
<path fill="none" stroke="midnightblue" d="M892.17,-168.32C904.85,-159.98 924.23,-147.21 939.21,-137.35"/>
<polygon fill="midnightblue" stroke="midnightblue" points="941.43,-140.08 947.86,-131.65 937.58,-134.23 941.43,-140.08"/>
</g>
<!-- Node24&#45;&gt;Node18 -->
<g id="edge58" class="edge">
<title>Node24&#45;&gt;Node18</title>
<path fill="none" stroke="midnightblue" d="M896.57,-173.35C920.12,-167.74 962.3,-155.16 991,-132 1006.7,-119.33 1018.96,-99.57 1026.5,-85.16"/>
<polygon fill="midnightblue" stroke="midnightblue" points="1029.84,-86.31 1031.15,-75.8 1023.57,-83.2 1029.84,-86.31"/>
</g>
</g>
</svg>
