<?xml version="1.0" encoding="UTF-8" standalone="no"?>
<!DOCTYPE svg PUBLIC "-//W3C//DTD SVG 1.1//EN"
 "http://www.w3.org/Graphics/SVG/1.1/DTD/svg11.dtd">
<!-- Generated by graphviz version 2.49.3 (20211027.1534)
 -->
<!-- Title: src/FoodAuthority/harvest_areas.c Pages: 1 -->
<svg width="713pt" height="397pt"
 viewBox="0.00 0.00 712.50 397.00" xmlns="http://www.w3.org/2000/svg" xmlns:xlink="http://www.w3.org/1999/xlink">
<g id="graph0" class="graph" transform="scale(1 1) rotate(0) translate(4 393)">
<title>src/FoodAuthority/harvest_areas.c</title>
<!-- Node1 -->
<g id="node1" class="node">
<title>Node1</title>
<g id="a_node1"><a xlink:title=" ">
<polygon fill="#bfbfbf" stroke="black" points="369.5,-358.5 369.5,-388.5 497.5,-388.5 497.5,-358.5 369.5,-358.5"/>
<text text-anchor="start" x="377.5" y="-376.5" font-family="Helvetica,sans-Serif" font-size="10.00">src/FoodAuthority/harvest</text>
<text text-anchor="middle" x="433.5" y="-365.5" font-family="Helvetica,sans-Serif" font-size="10.00">_areas.c</text>
</a>
</g>
</g>
<!-- Node2 -->
<g id="node2" class="node">
<title>Node2</title>
<g id="a_node2"><a xlink:href="harvest__areas_8h.html" target="_top" xlink:title=" ">
<polygon fill="none" stroke="black" points="377.5,-291.5 377.5,-321.5 489.5,-321.5 489.5,-291.5 377.5,-291.5"/>
<text text-anchor="start" x="385.5" y="-309.5" font-family="Helvetica,sans-Serif" font-size="10.00">FoodAuthority/harvest</text>
<text text-anchor="middle" x="433.5" y="-298.5" font-family="Helvetica,sans-Serif" font-size="10.00">_areas.h</text>
</a>
</g>
</g>
<!-- Node1&#45;&gt;Node2 -->
<g id="edge1" class="edge">
<title>Node1&#45;&gt;Node2</title>
<path fill="none" stroke="midnightblue" d="M433.5,-358.4C433.5,-350.64 433.5,-340.81 433.5,-331.86"/>
<polygon fill="midnightblue" stroke="midnightblue" points="437,-331.58 433.5,-321.58 430,-331.58 437,-331.58"/>
</g>
<!-- Node3 -->
<g id="node3" class="node">
<title>Node3</title>
<g id="a_node3"><a xlink:title=" ">
<polygon fill="none" stroke="#bfbfbf" points="0,-56.5 0,-75.5 59,-75.5 59,-56.5 0,-56.5"/>
<text text-anchor="middle" x="29.5" y="-63.5" font-family="Helvetica,sans-Serif" font-size="10.00">curl/curl.h</text>
</a>
</g>
</g>
<!-- Node2&#45;&gt;Node3 -->
<g id="edge2" class="edge">
<title>Node2&#45;&gt;Node3</title>
<path fill="none" stroke="midnightblue" d="M379.7,-291.5C349.97,-282.81 312.83,-270.38 281.5,-255 193.53,-211.82 175.09,-193.14 98.5,-132 79.15,-116.55 58.71,-96.81 45.14,-83.15"/>
<polygon fill="midnightblue" stroke="midnightblue" points="47.52,-80.58 38.01,-75.9 42.52,-85.48 47.52,-80.58"/>
</g>
<!-- Node4 -->
<g id="node4" class="node">
<title>Node4</title>
<g id="a_node4"><a xlink:title=" ">
<polygon fill="none" stroke="#bfbfbf" points="555,-56.5 555,-75.5 638,-75.5 638,-56.5 555,-56.5"/>
<text text-anchor="middle" x="596.5" y="-63.5" font-family="Helvetica,sans-Serif" font-size="10.00">cjson/cJSON.h</text>
</a>
</g>
</g>
<!-- Node2&#45;&gt;Node4 -->
<g id="edge3" class="edge">
<title>Node2&#45;&gt;Node4</title>
<path fill="none" stroke="midnightblue" d="M467.71,-291.48C484.84,-283.04 504.79,-270.83 518.5,-255 563.39,-203.19 585.04,-121.94 592.89,-85.62"/>
<polygon fill="midnightblue" stroke="midnightblue" points="596.39,-86 594.97,-75.5 589.53,-84.6 596.39,-86"/>
</g>
<!-- Node5 -->
<g id="node5" class="node">
<title>Node5</title>
<g id="a_node5"><a xlink:title=" ">
<polygon fill="none" stroke="#bfbfbf" points="645,-0.5 645,-19.5 688,-19.5 688,-0.5 645,-0.5"/>
<text text-anchor="middle" x="666.5" y="-7.5" font-family="Helvetica,sans-Serif" font-size="10.00">time.h</text>
</a>
</g>
</g>
<!-- Node2&#45;&gt;Node5 -->
<g id="edge4" class="edge">
<title>Node2&#45;&gt;Node5</title>
<path fill="none" stroke="midnightblue" d="M489.65,-303.49C569.03,-297.3 704.5,-272.98 704.5,-179 704.5,-179 704.5,-179 704.5,-121 704.5,-86.81 687.9,-49.76 676.64,-28.57"/>
<polygon fill="midnightblue" stroke="midnightblue" points="679.68,-26.83 671.78,-19.77 673.55,-30.22 679.68,-26.83"/>
</g>
<!-- Node6 -->
<g id="node6" class="node">
<title>Node6</title>
<g id="a_node6"><a xlink:href="log_8h.html" target="_top" xlink:title=" ">
<polygon fill="none" stroke="black" points="500,-56.5 500,-75.5 537,-75.5 537,-56.5 500,-56.5"/>
<text text-anchor="middle" x="518.5" y="-63.5" font-family="Helvetica,sans-Serif" font-size="10.00">log.h</text>
</a>
</g>
</g>
<!-- Node2&#45;&gt;Node6 -->
<g id="edge5" class="edge">
<title>Node2&#45;&gt;Node6</title>
<path fill="none" stroke="midnightblue" d="M460.65,-291.41C474.36,-282.81 489.88,-270.48 498.5,-255 529.2,-199.87 525.07,-121.5 521.11,-85.9"/>
<polygon fill="midnightblue" stroke="midnightblue" points="524.53,-85.06 519.82,-75.57 517.58,-85.92 524.53,-85.06"/>
</g>
<!-- Node10 -->
<g id="node10" class="node">
<title>Node10</title>
<g id="a_node10"><a xlink:href="harvest__area_8h.html" target="_top" xlink:title=" ">
<polygon fill="none" stroke="black" points="377.5,-224.5 377.5,-254.5 489.5,-254.5 489.5,-224.5 377.5,-224.5"/>
<text text-anchor="start" x="385.5" y="-242.5" font-family="Helvetica,sans-Serif" font-size="10.00">FoodAuthority/harvest</text>
<text text-anchor="middle" x="433.5" y="-231.5" font-family="Helvetica,sans-Serif" font-size="10.00">_area.h</text>
</a>
</g>
</g>
<!-- Node2&#45;&gt;Node10 -->
<g id="edge10" class="edge">
<title>Node2&#45;&gt;Node10</title>
<path fill="none" stroke="midnightblue" d="M433.5,-291.4C433.5,-283.64 433.5,-273.81 433.5,-264.86"/>
<polygon fill="midnightblue" stroke="midnightblue" points="437,-264.58 433.5,-254.58 430,-264.58 437,-264.58"/>
</g>
<!-- Node11 -->
<g id="node11" class="node">
<title>Node11</title>
<g id="a_node11"><a xlink:href="http_8h.html" target="_top" xlink:title=" ">
<polygon fill="none" stroke="black" points="248,-168.5 248,-187.5 289,-187.5 289,-168.5 248,-168.5"/>
<text text-anchor="middle" x="268.5" y="-175.5" font-family="Helvetica,sans-Serif" font-size="10.00">http.h</text>
</a>
</g>
</g>
<!-- Node2&#45;&gt;Node11 -->
<g id="edge30" class="edge">
<title>Node2&#45;&gt;Node11</title>
<path fill="none" stroke="midnightblue" d="M377.27,-292.41C353.57,-284.66 327.01,-272.78 307.5,-255 290.41,-239.43 279.68,-214.65 273.89,-197.64"/>
<polygon fill="midnightblue" stroke="midnightblue" points="277.12,-196.26 270.79,-187.77 270.45,-198.36 277.12,-196.26"/>
</g>
<!-- Node14 -->
<g id="node14" class="node">
<title>Node14</title>
<g id="a_node14"><a xlink:href="utils_8h.html" target="_top" xlink:title=" ">
<polygon fill="none" stroke="black" points="297.5,-112.5 297.5,-131.5 339.5,-131.5 339.5,-112.5 297.5,-112.5"/>
<text text-anchor="middle" x="318.5" y="-119.5" font-family="Helvetica,sans-Serif" font-size="10.00">utils.h</text>
</a>
</g>
</g>
<!-- Node2&#45;&gt;Node14 -->
<g id="edge31" class="edge">
<title>Node2&#45;&gt;Node14</title>
<path fill="none" stroke="midnightblue" d="M409.47,-291.49C395.87,-282.54 379.45,-269.83 368.5,-255 342.38,-219.64 328.32,-169.03 322.24,-141.9"/>
<polygon fill="midnightblue" stroke="midnightblue" points="325.6,-140.88 320.11,-131.82 318.75,-142.33 325.6,-140.88"/>
</g>
<!-- Node6&#45;&gt;Node5 -->
<g id="edge9" class="edge">
<title>Node6&#45;&gt;Node5</title>
<path fill="none" stroke="midnightblue" d="M537.24,-58.16C561.84,-49.19 605.37,-33.3 635.05,-22.47"/>
<polygon fill="midnightblue" stroke="midnightblue" points="636.35,-25.73 644.54,-19.01 633.95,-19.15 636.35,-25.73"/>
</g>
<!-- Node7 -->
<g id="node7" class="node">
<title>Node7</title>
<g id="a_node7"><a xlink:title=" ">
<polygon fill="none" stroke="#bfbfbf" points="430,-0.5 430,-19.5 475,-19.5 475,-0.5 430,-0.5"/>
<text text-anchor="middle" x="452.5" y="-7.5" font-family="Helvetica,sans-Serif" font-size="10.00">stdio.h</text>
</a>
</g>
</g>
<!-- Node6&#45;&gt;Node7 -->
<g id="edge6" class="edge">
<title>Node6&#45;&gt;Node7</title>
<path fill="none" stroke="midnightblue" d="M507.9,-56.32C498.04,-48.26 483.15,-36.08 471.28,-26.37"/>
<polygon fill="midnightblue" stroke="midnightblue" points="473.25,-23.46 463.3,-19.83 468.82,-28.88 473.25,-23.46"/>
</g>
<!-- Node8 -->
<g id="node8" class="node">
<title>Node8</title>
<g id="a_node8"><a xlink:title=" ">
<polygon fill="none" stroke="#bfbfbf" points="493,-0.5 493,-19.5 544,-19.5 544,-0.5 493,-0.5"/>
<text text-anchor="middle" x="518.5" y="-7.5" font-family="Helvetica,sans-Serif" font-size="10.00">stdarg.h</text>
</a>
</g>
</g>
<!-- Node6&#45;&gt;Node8 -->
<g id="edge7" class="edge">
<title>Node6&#45;&gt;Node8</title>
<path fill="none" stroke="midnightblue" d="M518.5,-56.08C518.5,-49.01 518.5,-38.86 518.5,-29.99"/>
<polygon fill="midnightblue" stroke="midnightblue" points="522,-29.75 518.5,-19.75 515,-29.75 522,-29.75"/>
</g>
<!-- Node9 -->
<g id="node9" class="node">
<title>Node9</title>
<g id="a_node9"><a xlink:title=" ">
<polygon fill="none" stroke="#bfbfbf" points="562.5,-0.5 562.5,-19.5 618.5,-19.5 618.5,-0.5 562.5,-0.5"/>
<text text-anchor="middle" x="590.5" y="-7.5" font-family="Helvetica,sans-Serif" font-size="10.00">stdbool.h</text>
</a>
</g>
</g>
<!-- Node6&#45;&gt;Node9 -->
<g id="edge8" class="edge">
<title>Node6&#45;&gt;Node9</title>
<path fill="none" stroke="midnightblue" d="M530.07,-56.32C540.92,-48.18 557.38,-35.84 570.38,-26.09"/>
<polygon fill="midnightblue" stroke="midnightblue" points="572.82,-28.63 578.72,-19.83 568.62,-23.03 572.82,-28.63"/>
</g>
<!-- Node10&#45;&gt;Node3 -->
<g id="edge11" class="edge">
<title>Node10&#45;&gt;Node3</title>
<path fill="none" stroke="midnightblue" d="M377.19,-227.58C337.85,-219.06 284.53,-205.69 239.5,-188 190.64,-168.81 181.01,-158.18 135.5,-132 106.16,-115.12 73,-94.54 51.7,-81.11"/>
<polygon fill="midnightblue" stroke="midnightblue" points="53.4,-78.05 43.07,-75.66 49.66,-83.96 53.4,-78.05"/>
</g>
<!-- Node10&#45;&gt;Node4 -->
<g id="edge12" class="edge">
<title>Node10&#45;&gt;Node4</title>
<path fill="none" stroke="midnightblue" d="M446.84,-224.47C476.84,-192.9 549.48,-116.47 581.23,-83.07"/>
<polygon fill="midnightblue" stroke="midnightblue" points="584.01,-85.22 588.36,-75.56 578.94,-80.4 584.01,-85.22"/>
</g>
<!-- Node10&#45;&gt;Node5 -->
<g id="edge13" class="edge">
<title>Node10&#45;&gt;Node5</title>
<path fill="none" stroke="midnightblue" d="M462.58,-224.42C508.9,-200.5 599.1,-147.45 647.5,-76 656.88,-62.16 661.7,-43.64 664.13,-29.91"/>
<polygon fill="midnightblue" stroke="midnightblue" points="667.64,-30.12 665.66,-19.71 660.72,-29.08 667.64,-30.12"/>
</g>
<!-- Node10&#45;&gt;Node6 -->
<g id="edge14" class="edge">
<title>Node10&#45;&gt;Node6</title>
<path fill="none" stroke="midnightblue" d="M440.46,-224.47C455.83,-193.44 492.7,-119.05 509.67,-84.81"/>
<polygon fill="midnightblue" stroke="midnightblue" points="512.95,-86.07 514.26,-75.56 506.68,-82.97 512.95,-86.07"/>
</g>
<!-- Node10&#45;&gt;Node11 -->
<g id="edge15" class="edge">
<title>Node10&#45;&gt;Node11</title>
<path fill="none" stroke="midnightblue" d="M394.4,-224.4C365.16,-213.86 325.76,-199.65 298.87,-189.95"/>
<polygon fill="midnightblue" stroke="midnightblue" points="299.82,-186.57 289.22,-186.47 297.44,-193.16 299.82,-186.57"/>
</g>
<!-- Node10&#45;&gt;Node14 -->
<g id="edge29" class="edge">
<title>Node10&#45;&gt;Node14</title>
<path fill="none" stroke="midnightblue" d="M419.4,-224.34C397.83,-202.68 356.79,-161.45 334.26,-138.83"/>
<polygon fill="midnightblue" stroke="midnightblue" points="336.67,-136.29 327.13,-131.67 331.71,-141.23 336.67,-136.29"/>
</g>
<!-- Node11&#45;&gt;Node3 -->
<g id="edge18" class="edge">
<title>Node11&#45;&gt;Node3</title>
<path fill="none" stroke="midnightblue" d="M251.42,-168.29C226.24,-155.54 177.59,-131.2 135.5,-112 110.38,-100.54 81.51,-88.34 60.25,-79.55"/>
<polygon fill="midnightblue" stroke="midnightblue" points="61.34,-76.21 50.76,-75.64 58.67,-82.68 61.34,-76.21"/>
</g>
<!-- Node12 -->
<g id="node12" class="node">
<title>Node12</title>
<g id="a_node12"><a xlink:title=" ">
<polygon fill="none" stroke="#bfbfbf" points="77,-56.5 77,-75.5 124,-75.5 124,-56.5 77,-56.5"/>
<text text-anchor="middle" x="100.5" y="-63.5" font-family="Helvetica,sans-Serif" font-size="10.00">stdlib.h</text>
</a>
</g>
</g>
<!-- Node11&#45;&gt;Node12 -->
<g id="edge16" class="edge">
<title>Node11&#45;&gt;Node12</title>
<path fill="none" stroke="midnightblue" d="M259.59,-168.22C245.81,-154.94 218.13,-129.45 191.5,-112 172.26,-99.39 148.98,-87.94 130.78,-79.74"/>
<polygon fill="midnightblue" stroke="midnightblue" points="132.08,-76.49 121.52,-75.65 129.25,-82.89 132.08,-76.49"/>
</g>
<!-- Node13 -->
<g id="node13" class="node">
<title>Node13</title>
<g id="a_node13"><a xlink:title=" ">
<polygon fill="none" stroke="#bfbfbf" points="142.5,-56.5 142.5,-75.5 190.5,-75.5 190.5,-56.5 142.5,-56.5"/>
<text text-anchor="middle" x="166.5" y="-63.5" font-family="Helvetica,sans-Serif" font-size="10.00">string.h</text>
</a>
</g>
</g>
<!-- Node11&#45;&gt;Node13 -->
<g id="edge17" class="edge">
<title>Node11&#45;&gt;Node13</title>
<path fill="none" stroke="midnightblue" d="M266.18,-168.1C262.31,-154.66 253.45,-128.97 238.5,-112 226.67,-98.57 209.87,-87.76 195.47,-80.1"/>
<polygon fill="midnightblue" stroke="midnightblue" points="196.93,-76.92 186.43,-75.53 193.77,-83.17 196.93,-76.92"/>
</g>
<!-- Node11&#45;&gt;Node14 -->
<g id="edge19" class="edge">
<title>Node11&#45;&gt;Node14</title>
<path fill="none" stroke="midnightblue" d="M276.76,-168.08C283.96,-160.3 294.61,-148.8 303.35,-139.37"/>
<polygon fill="midnightblue" stroke="midnightblue" points="306.17,-141.47 310.4,-131.75 301.03,-136.71 306.17,-141.47"/>
</g>
<!-- Node14&#45;&gt;Node3 -->
<g id="edge22" class="edge">
<title>Node14&#45;&gt;Node3</title>
<path fill="none" stroke="midnightblue" d="M297.27,-117.6C255.46,-110.82 159.32,-94.8 69.16,-76.27"/>
<polygon fill="midnightblue" stroke="midnightblue" points="69.84,-72.83 59.34,-74.23 68.42,-79.69 69.84,-72.83"/>
</g>
<!-- Node14&#45;&gt;Node4 -->
<g id="edge24" class="edge">
<title>Node14&#45;&gt;Node4</title>
<path fill="none" stroke="midnightblue" d="M339.85,-116.85C383.33,-108.41 483.22,-89 544.77,-77.05"/>
<polygon fill="midnightblue" stroke="midnightblue" points="545.53,-80.47 554.67,-75.12 544.19,-73.6 545.53,-80.47"/>
</g>
<!-- Node14&#45;&gt;Node6 -->
<g id="edge28" class="edge">
<title>Node14&#45;&gt;Node6</title>
<path fill="none" stroke="midnightblue" d="M339.52,-115.9C370.38,-108.32 429.96,-93.37 490.2,-75.96"/>
<polygon fill="midnightblue" stroke="midnightblue" points="491.24,-79.3 499.87,-73.15 489.29,-72.58 491.24,-79.3"/>
</g>
<!-- Node14&#45;&gt;Node12 -->
<g id="edge20" class="edge">
<title>Node14&#45;&gt;Node12</title>
<path fill="none" stroke="midnightblue" d="M297.37,-116.06C264.64,-108.37 199.49,-92.88 134.31,-76.15"/>
<polygon fill="midnightblue" stroke="midnightblue" points="134.83,-72.67 124.27,-73.57 133.08,-79.45 134.83,-72.67"/>
</g>
<!-- Node14&#45;&gt;Node13 -->
<g id="edge21" class="edge">
<title>Node14&#45;&gt;Node13</title>
<path fill="none" stroke="midnightblue" d="M297.37,-113.49C272.15,-104.53 229.7,-89.45 200,-78.9"/>
<polygon fill="midnightblue" stroke="midnightblue" points="201.05,-75.56 190.46,-75.51 198.71,-82.16 201.05,-75.56"/>
</g>
<!-- Node15 -->
<g id="node15" class="node">
<title>Node15</title>
<g id="a_node15"><a xlink:title=" ">
<polygon fill="none" stroke="#bfbfbf" points="208.5,-56.5 208.5,-75.5 256.5,-75.5 256.5,-56.5 208.5,-56.5"/>
<text text-anchor="middle" x="232.5" y="-63.5" font-family="Helvetica,sans-Serif" font-size="10.00">stdint.h</text>
</a>
</g>
</g>
<!-- Node14&#45;&gt;Node15 -->
<g id="edge23" class="edge">
<title>Node14&#45;&gt;Node15</title>
<path fill="none" stroke="midnightblue" d="M304.68,-112.32C291.27,-103.9 270.68,-90.97 254.91,-81.07"/>
<polygon fill="midnightblue" stroke="midnightblue" points="256.61,-78.01 246.28,-75.65 252.89,-83.94 256.61,-78.01"/>
</g>
<!-- Node16 -->
<g id="node16" class="node">
<title>Node16</title>
<g id="a_node16"><a xlink:title=" ">
<polygon fill="none" stroke="#bfbfbf" points="275,-56.5 275,-75.5 334,-75.5 334,-56.5 275,-56.5"/>
<text text-anchor="middle" x="304.5" y="-63.5" font-family="Helvetica,sans-Serif" font-size="10.00">sys/stat.h</text>
</a>
</g>
</g>
<!-- Node14&#45;&gt;Node16 -->
<g id="edge25" class="edge">
<title>Node14&#45;&gt;Node16</title>
<path fill="none" stroke="midnightblue" d="M316.19,-112.08C314.33,-104.93 311.66,-94.64 309.35,-85.69"/>
<polygon fill="midnightblue" stroke="midnightblue" points="312.67,-84.55 306.77,-75.75 305.89,-86.31 312.67,-84.55"/>
</g>
<!-- Node17 -->
<g id="node17" class="node">
<title>Node17</title>
<g id="a_node17"><a xlink:title=" ">
<polygon fill="none" stroke="#bfbfbf" points="352,-56.5 352,-75.5 417,-75.5 417,-56.5 352,-56.5"/>
<text text-anchor="middle" x="384.5" y="-63.5" font-family="Helvetica,sans-Serif" font-size="10.00">sys/types.h</text>
</a>
</g>
</g>
<!-- Node14&#45;&gt;Node17 -->
<g id="edge26" class="edge">
<title>Node14&#45;&gt;Node17</title>
<path fill="none" stroke="midnightblue" d="M329.1,-112.32C338.96,-104.26 353.85,-92.08 365.72,-82.37"/>
<polygon fill="midnightblue" stroke="midnightblue" points="368.18,-84.88 373.7,-75.83 363.75,-79.46 368.18,-84.88"/>
</g>
<!-- Node18 -->
<g id="node18" class="node">
<title>Node18</title>
<g id="a_node18"><a xlink:title=" ">
<polygon fill="none" stroke="#bfbfbf" points="435.5,-56.5 435.5,-75.5 481.5,-75.5 481.5,-56.5 435.5,-56.5"/>
<text text-anchor="middle" x="458.5" y="-63.5" font-family="Helvetica,sans-Serif" font-size="10.00">errno.h</text>
</a>
</g>
</g>
<!-- Node14&#45;&gt;Node18 -->
<g id="edge27" class="edge">
<title>Node14&#45;&gt;Node18</title>
<path fill="none" stroke="midnightblue" d="M339.76,-112.8C362.82,-103.9 399.9,-89.6 426.48,-79.35"/>
<polygon fill="midnightblue" stroke="midnightblue" points="428.04,-82.5 436.11,-75.64 425.52,-75.97 428.04,-82.5"/>
</g>
</g>
</svg>
