<?xml version="1.0" encoding="UTF-8" standalone="no"?>
<!DOCTYPE svg PUBLIC "-//W3C//DTD SVG 1.1//EN"
 "http://www.w3.org/Graphics/SVG/1.1/DTD/svg11.dtd">
<!-- Generated by graphviz version 2.43.0 (0)
 -->
<!-- Title: src/FoodAuthority/harvest_area.c Pages: 1 -->
<svg width="1036pt" height="324pt"
 viewBox="0.00 0.00 1035.50 324.00" xmlns="http://www.w3.org/2000/svg" xmlns:xlink="http://www.w3.org/1999/xlink">
<g id="graph0" class="graph" transform="scale(1 1) rotate(0) translate(4 320)">
<title>src/FoodAuthority/harvest_area.c</title>
<!-- Node1 -->
<g id="node1" class="node">
<title>Node1</title>
<g id="a_node1"><a xlink:title=" ">
<polygon fill="#999999" stroke="#666666" points="390.5,-316 248.5,-316 248.5,-286 390.5,-286 390.5,-316"/>
<text text-anchor="start" x="256.5" y="-304" font-family="Helvetica,sans-Serif" font-size="10.00">src/FoodAuthority/harvest</text>
<text text-anchor="middle" x="319.5" y="-293" font-family="Helvetica,sans-Serif" font-size="10.00">_area.c</text>
</a>
</g>
</g>
<!-- Node2 -->
<g id="node2" class="node">
<title>Node2</title>
<g id="a_node2"><a xlink:href="harvest__area_8h.html" target="_top" xlink:title=" ">
<polygon fill="white" stroke="#666666" points="382,-250 257,-250 257,-220 382,-220 382,-250"/>
<text text-anchor="start" x="265" y="-238" font-family="Helvetica,sans-Serif" font-size="10.00">FoodAuthority/harvest</text>
<text text-anchor="middle" x="319.5" y="-227" font-family="Helvetica,sans-Serif" font-size="10.00">_area.h</text>
</a>
</g>
</g>
<!-- Node1&#45;&gt;Node2 -->
<g id="edge1" class="edge">
<title>Node1&#45;&gt;Node2</title>
<path fill="none" stroke="#63b8ff" d="M319.5,-285.8C319.5,-278.34 319.5,-268.99 319.5,-260.41"/>
<polygon fill="#63b8ff" stroke="#63b8ff" points="323,-260.16 319.5,-250.16 316,-260.16 323,-260.16"/>
</g>
<!-- Node3 -->
<g id="node3" class="node">
<title>Node3</title>
<g id="a_node3"><a xlink:title=" ">
<polygon fill="#e0e0e0" stroke="#999999" points="65,-74 0,-74 0,-55 65,-55 65,-74"/>
<text text-anchor="middle" x="32.5" y="-62" font-family="Helvetica,sans-Serif" font-size="10.00">curl/curl.h</text>
</a>
</g>
</g>
<!-- Node2&#45;&gt;Node3 -->
<g id="edge2" class="edge">
<title>Node2&#45;&gt;Node3</title>
<path fill="none" stroke="#63b8ff" d="M256.65,-223.63C222.89,-216.15 181.54,-203.78 148.5,-184 103.4,-157 63.63,-108.24 44.52,-82.49"/>
<polygon fill="#63b8ff" stroke="#63b8ff" points="47.16,-80.16 38.45,-74.13 41.49,-84.27 47.16,-80.16"/>
</g>
<!-- Node4 -->
<g id="node4" class="node">
<title>Node4</title>
<g id="a_node4"><a xlink:title=" ">
<polygon fill="#e0e0e0" stroke="#999999" points="308,-74 225,-74 225,-55 308,-55 308,-74"/>
<text text-anchor="middle" x="266.5" y="-62" font-family="Helvetica,sans-Serif" font-size="10.00">cjson/cJSON.h</text>
</a>
</g>
</g>
<!-- Node2&#45;&gt;Node4 -->
<g id="edge3" class="edge">
<title>Node2&#45;&gt;Node4</title>
<path fill="none" stroke="#63b8ff" d="M315.07,-219.92C305.51,-189.52 282.93,-117.73 272.26,-83.83"/>
<polygon fill="#63b8ff" stroke="#63b8ff" points="275.59,-82.74 269.25,-74.25 268.92,-84.84 275.59,-82.74"/>
</g>
<!-- Node5 -->
<g id="node5" class="node">
<title>Node5</title>
<g id="a_node5"><a xlink:title=" ">
<polygon fill="#e0e0e0" stroke="#999999" points="805.5,-19 757.5,-19 757.5,0 805.5,0 805.5,-19"/>
<text text-anchor="middle" x="781.5" y="-7" font-family="Helvetica,sans-Serif" font-size="10.00">time.h</text>
</a>
</g>
</g>
<!-- Node2&#45;&gt;Node5 -->
<g id="edge4" class="edge">
<title>Node2&#45;&gt;Node5</title>
<path fill="none" stroke="#63b8ff" d="M382.09,-233.35C485.01,-228.5 687.77,-202.19 780.5,-74 789.78,-61.17 788.96,-42.75 786.46,-29.05"/>
<polygon fill="#63b8ff" stroke="#63b8ff" points="789.87,-28.26 784.25,-19.27 783.04,-29.8 789.87,-28.26"/>
</g>
<!-- Node6 -->
<g id="node6" class="node">
<title>Node6</title>
<g id="a_node6"><a xlink:href="log_8h.html" target="_top" xlink:title=" ">
<polygon fill="white" stroke="#666666" points="869,-74 828,-74 828,-55 869,-55 869,-74"/>
<text text-anchor="middle" x="848.5" y="-62" font-family="Helvetica,sans-Serif" font-size="10.00">log.h</text>
</a>
</g>
</g>
<!-- Node2&#45;&gt;Node6 -->
<g id="edge5" class="edge">
<title>Node2&#45;&gt;Node6</title>
<path fill="none" stroke="#63b8ff" d="M382.35,-231.51C507.99,-225.98 780.94,-210.99 813.5,-184 843.13,-159.43 848.42,-111.08 848.93,-84.36"/>
<polygon fill="#63b8ff" stroke="#63b8ff" points="852.43,-84.06 848.91,-74.07 845.43,-84.08 852.43,-84.06"/>
</g>
<!-- Node10 -->
<g id="node10" class="node">
<title>Node10</title>
<g id="a_node10"><a xlink:href="http_8h.html" target="_top" xlink:title=" ">
<polygon fill="white" stroke="#666666" points="203,-184 158,-184 158,-165 203,-165 203,-184"/>
<text text-anchor="middle" x="180.5" y="-172" font-family="Helvetica,sans-Serif" font-size="10.00">http.h</text>
</a>
</g>
</g>
<!-- Node2&#45;&gt;Node10 -->
<g id="edge10" class="edge">
<title>Node2&#45;&gt;Node10</title>
<path fill="none" stroke="#63b8ff" d="M286.21,-219.99C263.12,-210.27 232.63,-197.44 210.34,-188.06"/>
<polygon fill="#63b8ff" stroke="#63b8ff" points="211.6,-184.79 201.03,-184.14 208.89,-191.24 211.6,-184.79"/>
</g>
<!-- Node13 -->
<g id="node13" class="node">
<title>Node13</title>
<g id="a_node13"><a xlink:href="utils_8h.html" target="_top" xlink:title=" ">
<polygon fill="white" stroke="#666666" points="375,-129 328,-129 328,-110 375,-110 375,-129"/>
<text text-anchor="middle" x="351.5" y="-117" font-family="Helvetica,sans-Serif" font-size="10.00">utils.h</text>
</a>
</g>
</g>
<!-- Node2&#45;&gt;Node13 -->
<g id="edge26" class="edge">
<title>Node2&#45;&gt;Node13</title>
<path fill="none" stroke="#63b8ff" d="M323.55,-219.63C329.33,-199.12 339.95,-161.47 346.3,-138.93"/>
<polygon fill="#63b8ff" stroke="#63b8ff" points="349.69,-139.8 349.04,-129.23 342.96,-137.9 349.69,-139.8"/>
</g>
<!-- Node6&#45;&gt;Node5 -->
<g id="edge9" class="edge">
<title>Node6&#45;&gt;Node5</title>
<path fill="none" stroke="#63b8ff" d="M837.74,-54.98C827.73,-47.07 812.61,-35.11 800.57,-25.58"/>
<polygon fill="#63b8ff" stroke="#63b8ff" points="802.47,-22.63 792.46,-19.17 798.13,-28.12 802.47,-22.63"/>
</g>
<!-- Node7 -->
<g id="node7" class="node">
<title>Node7</title>
<g id="a_node7"><a xlink:title=" ">
<polygon fill="#e0e0e0" stroke="#999999" points="873.5,-19 823.5,-19 823.5,0 873.5,0 873.5,-19"/>
<text text-anchor="middle" x="848.5" y="-7" font-family="Helvetica,sans-Serif" font-size="10.00">stdio.h</text>
</a>
</g>
</g>
<!-- Node6&#45;&gt;Node7 -->
<g id="edge6" class="edge">
<title>Node6&#45;&gt;Node7</title>
<path fill="none" stroke="#63b8ff" d="M848.5,-54.75C848.5,-47.8 848.5,-37.85 848.5,-29.13"/>
<polygon fill="#63b8ff" stroke="#63b8ff" points="852,-29.09 848.5,-19.09 845,-29.09 852,-29.09"/>
</g>
<!-- Node8 -->
<g id="node8" class="node">
<title>Node8</title>
<g id="a_node8"><a xlink:title=" ">
<polygon fill="#e0e0e0" stroke="#999999" points="947.5,-19 891.5,-19 891.5,0 947.5,0 947.5,-19"/>
<text text-anchor="middle" x="919.5" y="-7" font-family="Helvetica,sans-Serif" font-size="10.00">stdarg.h</text>
</a>
</g>
</g>
<!-- Node6&#45;&gt;Node8 -->
<g id="edge7" class="edge">
<title>Node6&#45;&gt;Node8</title>
<path fill="none" stroke="#63b8ff" d="M859.91,-54.98C870.61,-47 886.84,-34.88 899.66,-25.31"/>
<polygon fill="#63b8ff" stroke="#63b8ff" points="901.97,-27.96 907.89,-19.17 897.78,-22.35 901.97,-27.96"/>
</g>
<!-- Node9 -->
<g id="node9" class="node">
<title>Node9</title>
<g id="a_node9"><a xlink:title=" ">
<polygon fill="#e0e0e0" stroke="#999999" points="1027.5,-19 965.5,-19 965.5,0 1027.5,0 1027.5,-19"/>
<text text-anchor="middle" x="996.5" y="-7" font-family="Helvetica,sans-Serif" font-size="10.00">stdbool.h</text>
</a>
</g>
</g>
<!-- Node6&#45;&gt;Node9 -->
<g id="edge8" class="edge">
<title>Node6&#45;&gt;Node9</title>
<path fill="none" stroke="#63b8ff" d="M869.08,-56.13C893.38,-47.43 934.13,-32.83 963,-22.5"/>
<polygon fill="#63b8ff" stroke="#63b8ff" points="964.44,-25.7 972.67,-19.03 962.08,-19.11 964.44,-25.7"/>
</g>
<!-- Node10&#45;&gt;Node3 -->
<g id="edge13" class="edge">
<title>Node10&#45;&gt;Node3</title>
<path fill="none" stroke="#63b8ff" d="M168.64,-164.84C143.42,-146.44 84.21,-103.23 52.83,-80.34"/>
<polygon fill="#63b8ff" stroke="#63b8ff" points="54.56,-77.26 44.42,-74.2 50.43,-82.92 54.56,-77.26"/>
</g>
<!-- Node11 -->
<g id="node11" class="node">
<title>Node11</title>
<g id="a_node11"><a xlink:title=" ">
<polygon fill="#e0e0e0" stroke="#999999" points="207,-74 154,-74 154,-55 207,-55 207,-74"/>
<text text-anchor="middle" x="180.5" y="-62" font-family="Helvetica,sans-Serif" font-size="10.00">stdlib.h</text>
</a>
</g>
</g>
<!-- Node10&#45;&gt;Node11 -->
<g id="edge11" class="edge">
<title>Node10&#45;&gt;Node11</title>
<path fill="none" stroke="#63b8ff" d="M180.5,-164.66C180.5,-147.17 180.5,-107.8 180.5,-84.27"/>
<polygon fill="#63b8ff" stroke="#63b8ff" points="184,-84.16 180.5,-74.16 177,-84.16 184,-84.16"/>
</g>
<!-- Node12 -->
<g id="node12" class="node">
<title>Node12</title>
<g id="a_node12"><a xlink:title=" ">
<polygon fill="#e0e0e0" stroke="#999999" points="136,-74 83,-74 83,-55 136,-55 136,-74"/>
<text text-anchor="middle" x="109.5" y="-62" font-family="Helvetica,sans-Serif" font-size="10.00">string.h</text>
</a>
</g>
</g>
<!-- Node10&#45;&gt;Node12 -->
<g id="edge12" class="edge">
<title>Node10&#45;&gt;Node12</title>
<path fill="none" stroke="#63b8ff" d="M174.69,-164.66C162.93,-146.77 136.13,-106 120.8,-82.69"/>
<polygon fill="#63b8ff" stroke="#63b8ff" points="123.61,-80.59 115.19,-74.16 117.76,-84.44 123.61,-80.59"/>
</g>
<!-- Node10&#45;&gt;Node13 -->
<g id="edge14" class="edge">
<title>Node10&#45;&gt;Node13</title>
<path fill="none" stroke="#63b8ff" d="M203.21,-166.46C232.6,-157.35 284.06,-141.4 317.96,-130.9"/>
<polygon fill="#63b8ff" stroke="#63b8ff" points="319.36,-134.13 327.87,-127.82 317.29,-127.44 319.36,-134.13"/>
</g>
<!-- Node13&#45;&gt;Node3 -->
<g id="edge17" class="edge">
<title>Node13&#45;&gt;Node3</title>
<path fill="none" stroke="#63b8ff" d="M327.64,-115.06C281.03,-108.25 174.41,-92.28 75.05,-74.22"/>
<polygon fill="#63b8ff" stroke="#63b8ff" points="75.61,-70.77 65.15,-72.41 74.35,-77.65 75.61,-70.77"/>
</g>
<!-- Node13&#45;&gt;Node4 -->
<g id="edge19" class="edge">
<title>Node13&#45;&gt;Node4</title>
<path fill="none" stroke="#63b8ff" d="M337.84,-109.98C324.66,-101.77 304.47,-89.18 288.93,-79.49"/>
<polygon fill="#63b8ff" stroke="#63b8ff" points="290.74,-76.49 280.41,-74.17 287.04,-82.43 290.74,-76.49"/>
</g>
<!-- Node13&#45;&gt;Node6 -->
<g id="edge24" class="edge">
<title>Node13&#45;&gt;Node6</title>
<path fill="none" stroke="#63b8ff" d="M375.24,-116.21C440.16,-109.92 626.13,-91.65 780.5,-74 792.72,-72.6 806.15,-70.95 817.83,-69.47"/>
<polygon fill="#63b8ff" stroke="#63b8ff" points="818.5,-72.92 827.98,-68.18 817.62,-65.97 818.5,-72.92"/>
</g>
<!-- Node13&#45;&gt;Node11 -->
<g id="edge15" class="edge">
<title>Node13&#45;&gt;Node11</title>
<path fill="none" stroke="#63b8ff" d="M327.72,-111.13C299.03,-102.24 250.48,-87.19 217.03,-76.82"/>
<polygon fill="#63b8ff" stroke="#63b8ff" points="217.75,-73.38 207.17,-73.76 215.68,-80.07 217.75,-73.38"/>
</g>
<!-- Node13&#45;&gt;Node12 -->
<g id="edge16" class="edge">
<title>Node13&#45;&gt;Node12</title>
<path fill="none" stroke="#63b8ff" d="M327.86,-113.63C291.1,-106.01 217.77,-90.64 146.3,-74.37"/>
<polygon fill="#63b8ff" stroke="#63b8ff" points="146.76,-70.89 136.24,-72.07 145.2,-77.71 146.76,-70.89"/>
</g>
<!-- Node14 -->
<g id="node14" class="node">
<title>Node14</title>
<g id="a_node14"><a xlink:title=" ">
<polygon fill="#e0e0e0" stroke="#999999" points="529,-74 476,-74 476,-55 529,-55 529,-74"/>
<text text-anchor="middle" x="502.5" y="-62" font-family="Helvetica,sans-Serif" font-size="10.00">stdint.h</text>
</a>
</g>
</g>
<!-- Node13&#45;&gt;Node14 -->
<g id="edge18" class="edge">
<title>Node13&#45;&gt;Node14</title>
<path fill="none" stroke="#63b8ff" d="M375.09,-110.22C400.17,-101.42 440.06,-87.42 468.52,-77.43"/>
<polygon fill="#63b8ff" stroke="#63b8ff" points="469.79,-80.69 478.07,-74.07 467.48,-74.08 469.79,-80.69"/>
</g>
<!-- Node15 -->
<g id="node15" class="node">
<title>Node15</title>
<g id="a_node15"><a xlink:title=" ">
<polygon fill="#e0e0e0" stroke="#999999" points="611.5,-74 547.5,-74 547.5,-55 611.5,-55 611.5,-74"/>
<text text-anchor="middle" x="579.5" y="-62" font-family="Helvetica,sans-Serif" font-size="10.00">sys/stat.h</text>
</a>
</g>
</g>
<!-- Node13&#45;&gt;Node15 -->
<g id="edge20" class="edge">
<title>Node13&#45;&gt;Node15</title>
<path fill="none" stroke="#63b8ff" d="M375.04,-113.03C413.31,-104.13 489.52,-86.42 537.32,-75.3"/>
<polygon fill="#63b8ff" stroke="#63b8ff" points="538.41,-78.65 547.36,-72.97 536.82,-71.83 538.41,-78.65"/>
</g>
<!-- Node16 -->
<g id="node16" class="node">
<title>Node16</title>
<g id="a_node16"><a xlink:title=" ">
<polygon fill="#e0e0e0" stroke="#999999" points="701.5,-74 629.5,-74 629.5,-55 701.5,-55 701.5,-74"/>
<text text-anchor="middle" x="665.5" y="-62" font-family="Helvetica,sans-Serif" font-size="10.00">sys/types.h</text>
</a>
</g>
</g>
<!-- Node13&#45;&gt;Node16 -->
<g id="edge21" class="edge">
<title>Node13&#45;&gt;Node16</title>
<path fill="none" stroke="#63b8ff" d="M375.28,-114.75C420.66,-107.56 522.98,-91.16 619.27,-74.19"/>
<polygon fill="#63b8ff" stroke="#63b8ff" points="619.93,-77.62 629.16,-72.44 618.71,-70.73 619.93,-77.62"/>
</g>
<!-- Node17 -->
<g id="node17" class="node">
<title>Node17</title>
<g id="a_node17"><a xlink:title=" ">
<polygon fill="#e0e0e0" stroke="#999999" points="771,-74 720,-74 720,-55 771,-55 771,-74"/>
<text text-anchor="middle" x="745.5" y="-62" font-family="Helvetica,sans-Serif" font-size="10.00">errno.h</text>
</a>
</g>
</g>
<!-- Node13&#45;&gt;Node17 -->
<g id="edge22" class="edge">
<title>Node13&#45;&gt;Node17</title>
<path fill="none" stroke="#63b8ff" d="M375.16,-116.52C431.42,-111.6 577.71,-97.63 710.05,-73.86"/>
<polygon fill="#63b8ff" stroke="#63b8ff" points="710.75,-77.3 719.96,-72.06 709.49,-70.41 710.75,-77.3"/>
</g>
<!-- Node18 -->
<g id="node18" class="node">
<title>Node18</title>
<g id="a_node18"><a xlink:title=" ">
<polygon fill="#e0e0e0" stroke="#999999" points="377,-74 326,-74 326,-55 377,-55 377,-74"/>
<text text-anchor="middle" x="351.5" y="-62" font-family="Helvetica,sans-Serif" font-size="10.00">math.h</text>
</a>
</g>
</g>
<!-- Node13&#45;&gt;Node18 -->
<g id="edge23" class="edge">
<title>Node13&#45;&gt;Node18</title>
<path fill="none" stroke="#63b8ff" d="M351.5,-109.75C351.5,-102.8 351.5,-92.85 351.5,-84.13"/>
<polygon fill="#63b8ff" stroke="#63b8ff" points="355,-84.09 351.5,-74.09 348,-84.09 355,-84.09"/>
</g>
<!-- Node19 -->
<g id="node19" class="node">
<title>Node19</title>
<g id="a_node19"><a xlink:title=" ">
<polygon fill="#e0e0e0" stroke="#999999" points="458,-74 395,-74 395,-55 458,-55 458,-74"/>
<text text-anchor="middle" x="426.5" y="-62" font-family="Helvetica,sans-Serif" font-size="10.00">libpq&#45;fe.h</text>
</a>
</g>
</g>
<!-- Node13&#45;&gt;Node19 -->
<g id="edge25" class="edge">
<title>Node13&#45;&gt;Node19</title>
<path fill="none" stroke="#63b8ff" d="M363.55,-109.98C374.96,-101.92 392.33,-89.65 405.93,-80.03"/>
<polygon fill="#63b8ff" stroke="#63b8ff" points="408.08,-82.8 414.23,-74.17 404.04,-77.08 408.08,-82.8"/>
</g>
</g>
</svg>
