<?xml version="1.0" encoding="UTF-8" standalone="no"?>
<!DOCTYPE svg PUBLIC "-//W3C//DTD SVG 1.1//EN"
 "http://www.w3.org/Graphics/SVG/1.1/DTD/svg11.dtd">
<!-- Generated by graphviz version 2.49.3 (20211027.1534)
 -->
<!-- Title: include/FoodAuthority/harvest_areas.h Pages: 1 -->
<svg width="862pt" height="330pt"
 viewBox="0.00 0.00 861.50 330.00" xmlns="http://www.w3.org/2000/svg" xmlns:xlink="http://www.w3.org/1999/xlink">
<g id="graph0" class="graph" transform="scale(1 1) rotate(0) translate(4 326)">
<title>include/FoodAuthority/harvest_areas.h</title>
<!-- Node1 -->
<g id="node1" class="node">
<title>Node1</title>
<g id="a_node1"><a xlink:title=" ">
<polygon fill="#bfbfbf" stroke="black" points="565.5,-291.5 565.5,-321.5 675.5,-321.5 675.5,-291.5 565.5,-291.5"/>
<text text-anchor="start" x="573.5" y="-309.5" font-family="Helvetica,sans-Serif" font-size="10.00">include/FoodAuthority</text>
<text text-anchor="middle" x="620.5" y="-298.5" font-family="Helvetica,sans-Serif" font-size="10.00">/harvest_areas.h</text>
</a>
</g>
</g>
<!-- Node2 -->
<g id="node2" class="node">
<title>Node2</title>
<g id="a_node2"><a xlink:title=" ">
<polygon fill="none" stroke="#bfbfbf" points="0,-56.5 0,-75.5 59,-75.5 59,-56.5 0,-56.5"/>
<text text-anchor="middle" x="29.5" y="-63.5" font-family="Helvetica,sans-Serif" font-size="10.00">curl/curl.h</text>
</a>
</g>
</g>
<!-- Node1&#45;&gt;Node2 -->
<g id="edge1" class="edge">
<title>Node1&#45;&gt;Node2</title>
<path fill="none" stroke="midnightblue" d="M565.46,-298.82C513.08,-291.48 432.53,-277.63 365.5,-255 247.8,-215.26 220.13,-197.38 114.5,-132 90.02,-116.85 64.03,-96.22 47.32,-82.3"/>
<polygon fill="midnightblue" stroke="midnightblue" points="49.4,-79.46 39.49,-75.69 44.88,-84.82 49.4,-79.46"/>
</g>
<!-- Node3 -->
<g id="node3" class="node">
<title>Node3</title>
<g id="a_node3"><a xlink:title=" ">
<polygon fill="none" stroke="#bfbfbf" points="658,-56.5 658,-75.5 741,-75.5 741,-56.5 658,-56.5"/>
<text text-anchor="middle" x="699.5" y="-63.5" font-family="Helvetica,sans-Serif" font-size="10.00">cjson/cJSON.h</text>
</a>
</g>
</g>
<!-- Node1&#45;&gt;Node3 -->
<g id="edge2" class="edge">
<title>Node1&#45;&gt;Node3</title>
<path fill="none" stroke="midnightblue" d="M627.31,-291.1C631.91,-281.09 637.94,-267.39 642.5,-255 664.93,-194.04 685.54,-119.72 694.62,-85.67"/>
<polygon fill="midnightblue" stroke="midnightblue" points="698.07,-86.3 697.24,-75.74 691.3,-84.51 698.07,-86.3"/>
</g>
<!-- Node4 -->
<g id="node4" class="node">
<title>Node4</title>
<g id="a_node4"><a xlink:title=" ">
<polygon fill="none" stroke="#bfbfbf" points="665,-0.5 665,-19.5 708,-19.5 708,-0.5 665,-0.5"/>
<text text-anchor="middle" x="686.5" y="-7.5" font-family="Helvetica,sans-Serif" font-size="10.00">time.h</text>
</a>
</g>
</g>
<!-- Node1&#45;&gt;Node4 -->
<g id="edge3" class="edge">
<title>Node1&#45;&gt;Node4</title>
<path fill="none" stroke="midnightblue" d="M660.43,-291.47C704.56,-273.11 769.5,-236.35 769.5,-179 769.5,-179 769.5,-179 769.5,-121 769.5,-90.9 768.02,-80.48 750.5,-56 741.09,-42.85 726.58,-32.19 713.76,-24.56"/>
<polygon fill="midnightblue" stroke="midnightblue" points="715.25,-21.38 704.81,-19.54 711.82,-27.49 715.25,-21.38"/>
</g>
<!-- Node5 -->
<g id="node5" class="node">
<title>Node5</title>
<g id="a_node5"><a xlink:title=" ">
<polygon fill="none" stroke="#bfbfbf" points="797.5,-230 797.5,-249 853.5,-249 853.5,-230 797.5,-230"/>
<text text-anchor="middle" x="825.5" y="-237" font-family="Helvetica,sans-Serif" font-size="10.00">libpq&#45;fe.h</text>
</a>
</g>
</g>
<!-- Node1&#45;&gt;Node5 -->
<g id="edge4" class="edge">
<title>Node1&#45;&gt;Node5</title>
<path fill="none" stroke="midnightblue" d="M667.35,-291.42C699.99,-281.5 744.51,-267.77 783.5,-255 786.09,-254.15 788.77,-253.26 791.46,-252.36"/>
<polygon fill="midnightblue" stroke="midnightblue" points="792.78,-255.6 801.11,-249.07 790.52,-248.98 792.78,-255.6"/>
</g>
<!-- Node6 -->
<g id="node6" class="node">
<title>Node6</title>
<g id="a_node6"><a xlink:href="log_8h.html" target="_top" xlink:title=" ">
<polygon fill="none" stroke="black" points="564,-56.5 564,-75.5 601,-75.5 601,-56.5 564,-56.5"/>
<text text-anchor="middle" x="582.5" y="-63.5" font-family="Helvetica,sans-Serif" font-size="10.00">log.h</text>
</a>
</g>
</g>
<!-- Node1&#45;&gt;Node6 -->
<g id="edge5" class="edge">
<title>Node1&#45;&gt;Node6</title>
<path fill="none" stroke="midnightblue" d="M623.34,-291.42C625.22,-281.33 627.52,-267.39 628.5,-255 633.52,-191.22 605.63,-118.32 591,-85.15"/>
<polygon fill="midnightblue" stroke="midnightblue" points="594.1,-83.49 586.78,-75.83 587.72,-86.39 594.1,-83.49"/>
</g>
<!-- Node10 -->
<g id="node10" class="node">
<title>Node10</title>
<g id="a_node10"><a xlink:href="harvest__area_8h.html" target="_top" xlink:title=" ">
<polygon fill="none" stroke="black" points="507.5,-224.5 507.5,-254.5 619.5,-254.5 619.5,-224.5 507.5,-224.5"/>
<text text-anchor="start" x="515.5" y="-242.5" font-family="Helvetica,sans-Serif" font-size="10.00">FoodAuthority/harvest</text>
<text text-anchor="middle" x="563.5" y="-231.5" font-family="Helvetica,sans-Serif" font-size="10.00">_area.h</text>
</a>
</g>
</g>
<!-- Node1&#45;&gt;Node10 -->
<g id="edge10" class="edge">
<title>Node1&#45;&gt;Node10</title>
<path fill="none" stroke="midnightblue" d="M608.13,-291.4C600.66,-282.88 590.99,-271.85 582.56,-262.23"/>
<polygon fill="midnightblue" stroke="midnightblue" points="585.07,-259.79 575.84,-254.58 579.81,-264.4 585.07,-259.79"/>
</g>
<!-- Node11 -->
<g id="node11" class="node">
<title>Node11</title>
<g id="a_node11"><a xlink:href="http_8h.html" target="_top" xlink:title=" ">
<polygon fill="none" stroke="black" points="316,-168.5 316,-187.5 357,-187.5 357,-168.5 316,-168.5"/>
<text text-anchor="middle" x="336.5" y="-175.5" font-family="Helvetica,sans-Serif" font-size="10.00">http.h</text>
</a>
</g>
</g>
<!-- Node1&#45;&gt;Node11 -->
<g id="edge31" class="edge">
<title>Node1&#45;&gt;Node11</title>
<path fill="none" stroke="midnightblue" d="M565.48,-301.65C519.92,-296.42 454.89,-284.09 405.5,-255 380.62,-240.35 359.6,-213.81 347.51,-196.29"/>
<polygon fill="midnightblue" stroke="midnightblue" points="350.2,-194.01 341.75,-187.62 344.37,-197.89 350.2,-194.01"/>
</g>
<!-- Node14 -->
<g id="node14" class="node">
<title>Node14</title>
<g id="a_node14"><a xlink:href="utils_8h.html" target="_top" xlink:title=" ">
<polygon fill="none" stroke="black" points="347.5,-112.5 347.5,-131.5 389.5,-131.5 389.5,-112.5 347.5,-112.5"/>
<text text-anchor="middle" x="368.5" y="-119.5" font-family="Helvetica,sans-Serif" font-size="10.00">utils.h</text>
</a>
</g>
</g>
<!-- Node1&#45;&gt;Node14 -->
<g id="edge32" class="edge">
<title>Node1&#45;&gt;Node14</title>
<path fill="none" stroke="midnightblue" d="M574.57,-291.42C550.73,-282.92 521.79,-270.69 498.5,-255 448.89,-221.58 402.75,-167.05 381.22,-139.72"/>
<polygon fill="midnightblue" stroke="midnightblue" points="383.79,-137.32 374.9,-131.57 378.26,-141.62 383.79,-137.32"/>
</g>
<!-- Node6&#45;&gt;Node4 -->
<g id="edge9" class="edge">
<title>Node6&#45;&gt;Node4</title>
<path fill="none" stroke="midnightblue" d="M599.21,-56.32C615.81,-47.7 641.5,-34.36 660.72,-24.39"/>
<polygon fill="midnightblue" stroke="midnightblue" points="662.57,-27.37 669.83,-19.65 659.34,-21.16 662.57,-27.37"/>
</g>
<!-- Node7 -->
<g id="node7" class="node">
<title>Node7</title>
<g id="a_node7"><a xlink:title=" ">
<polygon fill="none" stroke="#bfbfbf" points="458,-0.5 458,-19.5 503,-19.5 503,-0.5 458,-0.5"/>
<text text-anchor="middle" x="480.5" y="-7.5" font-family="Helvetica,sans-Serif" font-size="10.00">stdio.h</text>
</a>
</g>
</g>
<!-- Node6&#45;&gt;Node7 -->
<g id="edge6" class="edge">
<title>Node6&#45;&gt;Node7</title>
<path fill="none" stroke="midnightblue" d="M566.11,-56.32C549.83,-47.7 524.63,-34.36 505.78,-24.39"/>
<polygon fill="midnightblue" stroke="midnightblue" points="507.32,-21.24 496.85,-19.65 504.05,-27.43 507.32,-21.24"/>
</g>
<!-- Node8 -->
<g id="node8" class="node">
<title>Node8</title>
<g id="a_node8"><a xlink:title=" ">
<polygon fill="none" stroke="#bfbfbf" points="521,-0.5 521,-19.5 572,-19.5 572,-0.5 521,-0.5"/>
<text text-anchor="middle" x="546.5" y="-7.5" font-family="Helvetica,sans-Serif" font-size="10.00">stdarg.h</text>
</a>
</g>
</g>
<!-- Node6&#45;&gt;Node8 -->
<g id="edge7" class="edge">
<title>Node6&#45;&gt;Node8</title>
<path fill="none" stroke="midnightblue" d="M576.56,-56.08C571.52,-48.53 564.16,-37.49 557.99,-28.23"/>
<polygon fill="midnightblue" stroke="midnightblue" points="560.79,-26.13 552.33,-19.75 554.97,-30.01 560.79,-26.13"/>
</g>
<!-- Node9 -->
<g id="node9" class="node">
<title>Node9</title>
<g id="a_node9"><a xlink:title=" ">
<polygon fill="none" stroke="#bfbfbf" points="590.5,-0.5 590.5,-19.5 646.5,-19.5 646.5,-0.5 590.5,-0.5"/>
<text text-anchor="middle" x="618.5" y="-7.5" font-family="Helvetica,sans-Serif" font-size="10.00">stdbool.h</text>
</a>
</g>
</g>
<!-- Node6&#45;&gt;Node9 -->
<g id="edge8" class="edge">
<title>Node6&#45;&gt;Node9</title>
<path fill="none" stroke="midnightblue" d="M588.44,-56.08C593.48,-48.53 600.84,-37.49 607.01,-28.23"/>
<polygon fill="midnightblue" stroke="midnightblue" points="610.03,-30.01 612.67,-19.75 604.21,-26.13 610.03,-30.01"/>
</g>
<!-- Node10&#45;&gt;Node2 -->
<g id="edge11" class="edge">
<title>Node10&#45;&gt;Node2</title>
<path fill="none" stroke="midnightblue" d="M507.43,-230.21C455.14,-221.82 375.23,-207.35 307.5,-188 239.88,-168.68 223.92,-160.21 159.5,-132 122.2,-115.67 80.26,-94.1 54.36,-80.38"/>
<polygon fill="midnightblue" stroke="midnightblue" points="55.73,-77.15 45.26,-75.54 52.44,-83.33 55.73,-77.15"/>
</g>
<!-- Node10&#45;&gt;Node3 -->
<g id="edge12" class="edge">
<title>Node10&#45;&gt;Node3</title>
<path fill="none" stroke="midnightblue" d="M579.77,-224.22C590.45,-214.49 604.43,-201.05 615.5,-188 644.87,-153.38 673.9,-108.58 688.94,-84.37"/>
<polygon fill="midnightblue" stroke="midnightblue" points="692.07,-85.97 694.32,-75.62 686.1,-82.31 692.07,-85.97"/>
</g>
<!-- Node10&#45;&gt;Node4 -->
<g id="edge13" class="edge">
<title>Node10&#45;&gt;Node4</title>
<path fill="none" stroke="midnightblue" d="M569.62,-224.37C585.85,-187.05 630.11,-86.63 649.5,-56 655.84,-45.98 664.14,-35.7 671.27,-27.49"/>
<polygon fill="midnightblue" stroke="midnightblue" points="674.09,-29.59 678.14,-19.8 668.87,-24.92 674.09,-29.59"/>
</g>
<!-- Node10&#45;&gt;Node6 -->
<g id="edge14" class="edge">
<title>Node10&#45;&gt;Node6</title>
<path fill="none" stroke="midnightblue" d="M565.05,-224.47C568.46,-193.7 576.59,-120.33 580.43,-85.7"/>
<polygon fill="midnightblue" stroke="midnightblue" points="583.93,-85.88 581.55,-75.56 576.97,-85.11 583.93,-85.88"/>
</g>
<!-- Node10&#45;&gt;Node11 -->
<g id="edge15" class="edge">
<title>Node10&#45;&gt;Node11</title>
<path fill="none" stroke="midnightblue" d="M509.99,-224.47C465.49,-212.81 403.73,-196.62 367.16,-187.04"/>
<polygon fill="midnightblue" stroke="midnightblue" points="367.67,-183.55 357.11,-184.4 365.89,-190.32 367.67,-183.55"/>
</g>
<!-- Node10&#45;&gt;Node14 -->
<g id="edge30" class="edge">
<title>Node10&#45;&gt;Node14</title>
<path fill="none" stroke="midnightblue" d="M539.59,-224.34C501.9,-202.01 429.14,-158.91 391.82,-136.81"/>
<polygon fill="midnightblue" stroke="midnightblue" points="393.52,-133.75 383.14,-131.67 389.96,-139.78 393.52,-133.75"/>
</g>
<!-- Node11&#45;&gt;Node2 -->
<g id="edge18" class="edge">
<title>Node11&#45;&gt;Node2</title>
<path fill="none" stroke="midnightblue" d="M315.84,-169.27C282.85,-156.96 216.23,-132.23 159.5,-112 127.39,-100.55 90.66,-87.87 64.45,-78.9"/>
<polygon fill="midnightblue" stroke="midnightblue" points="65.55,-75.58 54.96,-75.66 63.29,-82.2 65.55,-75.58"/>
</g>
<!-- Node12 -->
<g id="node12" class="node">
<title>Node12</title>
<g id="a_node12"><a xlink:title=" ">
<polygon fill="none" stroke="#bfbfbf" points="77,-56.5 77,-75.5 124,-75.5 124,-56.5 77,-56.5"/>
<text text-anchor="middle" x="100.5" y="-63.5" font-family="Helvetica,sans-Serif" font-size="10.00">stdlib.h</text>
</a>
</g>
</g>
<!-- Node11&#45;&gt;Node12 -->
<g id="edge16" class="edge">
<title>Node11&#45;&gt;Node12</title>
<path fill="none" stroke="midnightblue" d="M324.71,-168.48C305.79,-155.08 267.15,-128.9 231.5,-112 199.51,-96.84 161,-84.24 134.04,-76.26"/>
<polygon fill="midnightblue" stroke="midnightblue" points="134.89,-72.86 124.31,-73.44 132.94,-79.59 134.89,-72.86"/>
</g>
<!-- Node13 -->
<g id="node13" class="node">
<title>Node13</title>
<g id="a_node13"><a xlink:title=" ">
<polygon fill="none" stroke="#bfbfbf" points="142.5,-56.5 142.5,-75.5 190.5,-75.5 190.5,-56.5 142.5,-56.5"/>
<text text-anchor="middle" x="166.5" y="-63.5" font-family="Helvetica,sans-Serif" font-size="10.00">string.h</text>
</a>
</g>
</g>
<!-- Node11&#45;&gt;Node13 -->
<g id="edge17" class="edge">
<title>Node11&#45;&gt;Node13</title>
<path fill="none" stroke="midnightblue" d="M331.86,-168.16C324.18,-154.34 307.56,-127.58 286.5,-112 272.52,-101.66 230.86,-87.17 200.55,-77.45"/>
<polygon fill="midnightblue" stroke="midnightblue" points="201.35,-74.03 190.76,-74.35 199.24,-80.7 201.35,-74.03"/>
</g>
<!-- Node11&#45;&gt;Node14 -->
<g id="edge19" class="edge">
<title>Node11&#45;&gt;Node14</title>
<path fill="none" stroke="midnightblue" d="M341.78,-168.08C346.21,-160.61 352.66,-149.72 358.12,-140.52"/>
<polygon fill="midnightblue" stroke="midnightblue" points="361.23,-142.14 363.31,-131.75 355.21,-138.57 361.23,-142.14"/>
</g>
<!-- Node14&#45;&gt;Node2 -->
<g id="edge22" class="edge">
<title>Node14&#45;&gt;Node2</title>
<path fill="none" stroke="midnightblue" d="M347.23,-118.45C299.31,-112.56 179.1,-97.05 69.24,-76.21"/>
<polygon fill="midnightblue" stroke="midnightblue" points="69.8,-72.76 59.32,-74.31 68.48,-79.63 69.8,-72.76"/>
</g>
<!-- Node14&#45;&gt;Node3 -->
<g id="edge24" class="edge">
<title>Node14&#45;&gt;Node3</title>
<path fill="none" stroke="midnightblue" d="M389.71,-117.54C441.15,-109.15 573.76,-87.51 647.72,-75.45"/>
<polygon fill="midnightblue" stroke="midnightblue" points="648.44,-78.88 657.75,-73.81 647.32,-71.97 648.44,-78.88"/>
</g>
<!-- Node14&#45;&gt;Node6 -->
<g id="edge29" class="edge">
<title>Node14&#45;&gt;Node6</title>
<path fill="none" stroke="midnightblue" d="M389.55,-116.44C422.54,-109.18 488.6,-94.18 554.21,-75.91"/>
<polygon fill="midnightblue" stroke="midnightblue" points="555.2,-79.27 563.88,-73.2 553.31,-72.53 555.2,-79.27"/>
</g>
<!-- Node14&#45;&gt;Node12 -->
<g id="edge20" class="edge">
<title>Node14&#45;&gt;Node12</title>
<path fill="none" stroke="midnightblue" d="M347.32,-117.51C307.53,-110.83 218.72,-95.35 134.01,-75.97"/>
<polygon fill="midnightblue" stroke="midnightblue" points="134.77,-72.55 124.24,-73.71 133.19,-79.37 134.77,-72.55"/>
</g>
<!-- Node14&#45;&gt;Node13 -->
<g id="edge21" class="edge">
<title>Node14&#45;&gt;Node13</title>
<path fill="none" stroke="midnightblue" d="M347.41,-115.43C317.11,-107.41 259.24,-92.07 200.47,-76.25"/>
<polygon fill="midnightblue" stroke="midnightblue" points="201.21,-72.83 190.65,-73.6 199.39,-79.58 201.21,-72.83"/>
</g>
<!-- Node15 -->
<g id="node15" class="node">
<title>Node15</title>
<g id="a_node15"><a xlink:title=" ">
<polygon fill="none" stroke="#bfbfbf" points="272.5,-56.5 272.5,-75.5 320.5,-75.5 320.5,-56.5 272.5,-56.5"/>
<text text-anchor="middle" x="296.5" y="-63.5" font-family="Helvetica,sans-Serif" font-size="10.00">stdint.h</text>
</a>
</g>
</g>
<!-- Node14&#45;&gt;Node15 -->
<g id="edge23" class="edge">
<title>Node14&#45;&gt;Node15</title>
<path fill="none" stroke="midnightblue" d="M356.93,-112.32C346.08,-104.18 329.62,-91.84 316.62,-82.09"/>
<polygon fill="midnightblue" stroke="midnightblue" points="318.38,-79.03 308.28,-75.83 314.18,-84.63 318.38,-79.03"/>
</g>
<!-- Node16 -->
<g id="node16" class="node">
<title>Node16</title>
<g id="a_node16"><a xlink:title=" ">
<polygon fill="none" stroke="#bfbfbf" points="339,-56.5 339,-75.5 398,-75.5 398,-56.5 339,-56.5"/>
<text text-anchor="middle" x="368.5" y="-63.5" font-family="Helvetica,sans-Serif" font-size="10.00">sys/stat.h</text>
</a>
</g>
</g>
<!-- Node14&#45;&gt;Node16 -->
<g id="edge25" class="edge">
<title>Node14&#45;&gt;Node16</title>
<path fill="none" stroke="midnightblue" d="M368.5,-112.08C368.5,-105.01 368.5,-94.86 368.5,-85.99"/>
<polygon fill="midnightblue" stroke="midnightblue" points="372,-85.75 368.5,-75.75 365,-85.75 372,-85.75"/>
</g>
<!-- Node17 -->
<g id="node17" class="node">
<title>Node17</title>
<g id="a_node17"><a xlink:title=" ">
<polygon fill="none" stroke="#bfbfbf" points="416,-56.5 416,-75.5 481,-75.5 481,-56.5 416,-56.5"/>
<text text-anchor="middle" x="448.5" y="-63.5" font-family="Helvetica,sans-Serif" font-size="10.00">sys/types.h</text>
</a>
</g>
</g>
<!-- Node14&#45;&gt;Node17 -->
<g id="edge26" class="edge">
<title>Node14&#45;&gt;Node17</title>
<path fill="none" stroke="midnightblue" d="M381.35,-112.32C393.72,-103.98 412.63,-91.21 427.24,-81.35"/>
<polygon fill="midnightblue" stroke="midnightblue" points="429.35,-84.15 435.68,-75.65 425.43,-78.35 429.35,-84.15"/>
</g>
<!-- Node18 -->
<g id="node18" class="node">
<title>Node18</title>
<g id="a_node18"><a xlink:title=" ">
<polygon fill="none" stroke="#bfbfbf" points="499.5,-56.5 499.5,-75.5 545.5,-75.5 545.5,-56.5 499.5,-56.5"/>
<text text-anchor="middle" x="522.5" y="-63.5" font-family="Helvetica,sans-Serif" font-size="10.00">errno.h</text>
</a>
</g>
</g>
<!-- Node14&#45;&gt;Node18 -->
<g id="edge27" class="edge">
<title>Node14&#45;&gt;Node18</title>
<path fill="none" stroke="midnightblue" d="M389.59,-113.6C415.42,-104.55 459.46,-89.1 489.72,-78.49"/>
<polygon fill="midnightblue" stroke="midnightblue" points="491.13,-81.71 499.41,-75.1 488.81,-75.1 491.13,-81.71"/>
</g>
<!-- Node19 -->
<g id="node19" class="node">
<title>Node19</title>
<g id="a_node19"><a xlink:title=" ">
<polygon fill="none" stroke="#bfbfbf" points="208.5,-56.5 208.5,-75.5 254.5,-75.5 254.5,-56.5 208.5,-56.5"/>
<text text-anchor="middle" x="231.5" y="-63.5" font-family="Helvetica,sans-Serif" font-size="10.00">math.h</text>
</a>
</g>
</g>
<!-- Node14&#45;&gt;Node19 -->
<g id="edge28" class="edge">
<title>Node14&#45;&gt;Node19</title>
<path fill="none" stroke="midnightblue" d="M347.39,-112.68C324.77,-103.76 288.6,-89.51 262.69,-79.29"/>
<polygon fill="midnightblue" stroke="midnightblue" points="263.9,-76.01 253.31,-75.6 261.33,-82.52 263.9,-76.01"/>
</g>
</g>
</svg>
