<?xml version="1.0" encoding="UTF-8" standalone="no"?>
<!DOCTYPE svg PUBLIC "-//W3C//DTD SVG 1.1//EN"
 "http://www.w3.org/Graphics/SVG/1.1/DTD/svg11.dtd">
<!-- Generated by graphviz version 2.49.3 (20211027.1534)
 -->
<!-- Title: include/FoodAuthority/harvest_area.h Pages: 1 -->
<svg width="332pt" height="229pt"
 viewBox="0.00 0.00 331.50 229.00" xmlns="http://www.w3.org/2000/svg" xmlns:xlink="http://www.w3.org/1999/xlink">
<g id="graph0" class="graph" transform="scale(1 1) rotate(0) translate(4 225)">
<title>include/FoodAuthority/harvest_area.h</title>
<!-- Node1 -->
<g id="node1" class="node">
<title>Node1</title>
<g id="a_node1"><a xlink:title=" ">
<polygon fill="#bfbfbf" stroke="black" points="67.5,-190.5 67.5,-220.5 177.5,-220.5 177.5,-190.5 67.5,-190.5"/>
<text text-anchor="start" x="75.5" y="-208.5" font-family="Helvetica,sans-Serif" font-size="10.00">include/FoodAuthority</text>
<text text-anchor="middle" x="122.5" y="-197.5" font-family="Helvetica,sans-Serif" font-size="10.00">/harvest_area.h</text>
</a>
</g>
</g>
<!-- Node2 -->
<g id="node2" class="node">
<title>Node2</title>
<g id="a_node2"><a xlink:href="harvest__areas_8h.html" target="_top" xlink:title=" ">
<polygon fill="none" stroke="black" points="67.5,-123.5 67.5,-153.5 177.5,-153.5 177.5,-123.5 67.5,-123.5"/>
<text text-anchor="start" x="75.5" y="-141.5" font-family="Helvetica,sans-Serif" font-size="10.00">include/FoodAuthority</text>
<text text-anchor="middle" x="122.5" y="-130.5" font-family="Helvetica,sans-Serif" font-size="10.00">/harvest_areas.h</text>
</a>
</g>
</g>
<!-- Node1&#45;&gt;Node2 -->
<g id="edge1" class="edge">
<title>Node1&#45;&gt;Node2</title>
<path fill="none" stroke="midnightblue" d="M122.5,-180.11C122.5,-171.15 122.5,-161.32 122.5,-153.58"/>
<polygon fill="midnightblue" stroke="midnightblue" points="119,-180.4 122.5,-190.4 126,-180.4 119,-180.4"/>
</g>
<!-- Node3 -->
<g id="node3" class="node">
<title>Node3</title>
<g id="a_node3"><a xlink:href="main_8h.html" target="_top" xlink:title=" ">
<polygon fill="none" stroke="black" points="0,-62 0,-81 79,-81 79,-62 0,-62"/>
<text text-anchor="middle" x="39.5" y="-69" font-family="Helvetica,sans-Serif" font-size="10.00">include/main.h</text>
</a>
</g>
</g>
<!-- Node1&#45;&gt;Node3 -->
<g id="edge5" class="edge">
<title>Node1&#45;&gt;Node3</title>
<path fill="none" stroke="midnightblue" d="M88.76,-184.51C77.61,-176.35 66.12,-166 58.5,-154 43.62,-130.58 40.37,-96.74 39.68,-81.06"/>
<polygon fill="midnightblue" stroke="midnightblue" points="86.93,-187.5 97.15,-190.3 90.91,-181.74 86.93,-187.5"/>
</g>
<!-- Node6 -->
<g id="node6" class="node">
<title>Node6</title>
<g id="a_node6"><a xlink:href="harvest__area_8c.html" target="_top" xlink:title=" ">
<polygon fill="none" stroke="black" points="195.5,-123.5 195.5,-153.5 323.5,-153.5 323.5,-123.5 195.5,-123.5"/>
<text text-anchor="start" x="203.5" y="-141.5" font-family="Helvetica,sans-Serif" font-size="10.00">src/FoodAuthority/harvest</text>
<text text-anchor="middle" x="259.5" y="-130.5" font-family="Helvetica,sans-Serif" font-size="10.00">_area.c</text>
</a>
</g>
</g>
<!-- Node1&#45;&gt;Node6 -->
<g id="edge6" class="edge">
<title>Node1&#45;&gt;Node6</title>
<path fill="none" stroke="midnightblue" d="M161.51,-185.99C183.22,-175.69 209.83,-163.07 229.83,-153.58"/>
<polygon fill="midnightblue" stroke="midnightblue" points="159.76,-182.95 152.23,-190.4 162.76,-189.27 159.76,-182.95"/>
</g>
<!-- Node2&#45;&gt;Node3 -->
<g id="edge2" class="edge">
<title>Node2&#45;&gt;Node3</title>
<path fill="none" stroke="midnightblue" d="M96.33,-117.01C80.92,-104.94 62.24,-90.3 50.6,-81.19"/>
<polygon fill="midnightblue" stroke="midnightblue" points="94.46,-119.99 104.49,-123.4 98.78,-114.47 94.46,-119.99"/>
</g>
<!-- Node5 -->
<g id="node5" class="node">
<title>Node5</title>
<g id="a_node5"><a xlink:href="harvest__areas_8c.html" target="_top" xlink:title=" ">
<polygon fill="none" stroke="black" points="97.5,-56.5 97.5,-86.5 225.5,-86.5 225.5,-56.5 97.5,-56.5"/>
<text text-anchor="start" x="105.5" y="-74.5" font-family="Helvetica,sans-Serif" font-size="10.00">src/FoodAuthority/harvest</text>
<text text-anchor="middle" x="161.5" y="-63.5" font-family="Helvetica,sans-Serif" font-size="10.00">_areas.c</text>
</a>
</g>
</g>
<!-- Node2&#45;&gt;Node5 -->
<g id="edge4" class="edge">
<title>Node2&#45;&gt;Node5</title>
<path fill="none" stroke="midnightblue" d="M136.25,-114.58C141.86,-105.24 148.15,-94.75 153.05,-86.58"/>
<polygon fill="midnightblue" stroke="midnightblue" points="133.11,-113.02 130.96,-123.4 139.11,-116.62 133.11,-113.02"/>
</g>
<!-- Node4 -->
<g id="node4" class="node">
<title>Node4</title>
<g id="a_node4"><a xlink:href="main_8c.html" target="_top" xlink:title=" ">
<polygon fill="none" stroke="black" points="8.5,-0.5 8.5,-19.5 70.5,-19.5 70.5,-0.5 8.5,-0.5"/>
<text text-anchor="middle" x="39.5" y="-7.5" font-family="Helvetica,sans-Serif" font-size="10.00">src/main.c</text>
</a>
</g>
</g>
<!-- Node3&#45;&gt;Node4 -->
<g id="edge3" class="edge">
<title>Node3&#45;&gt;Node4</title>
<path fill="none" stroke="midnightblue" d="M39.5,-51.82C39.5,-41 39.5,-27.9 39.5,-19.51"/>
<polygon fill="midnightblue" stroke="midnightblue" points="36,-51.98 39.5,-61.98 43,-51.98 36,-51.98"/>
</g>
</g>
</svg>
