<?xml version="1.0" encoding="UTF-8" standalone="no"?>
<!DOCTYPE svg PUBLIC "-//W3C//DTD SVG 1.1//EN"
 "http://www.w3.org/Graphics/SVG/1.1/DTD/svg11.dtd">
<!-- Generated by graphviz version 2.49.3 (20211027.1534)
 -->
<!-- Title: include/FoodAuthority/harvest_areas.h Pages: 1 -->
<svg width="1195pt" height="442pt"
 viewBox="0.00 0.00 1194.88 442.00" xmlns="http://www.w3.org/2000/svg" xmlns:xlink="http://www.w3.org/1999/xlink">
<g id="graph0" class="graph" transform="scale(1 1) rotate(0) translate(4 438)">
<title>include/FoodAuthority/harvest_areas.h</title>
<!-- Node1 -->
<g id="node1" class="node">
<title>Node1</title>
<g id="a_node1"><a xlink:title=" ">
<polygon fill="#bfbfbf" stroke="black" points="332,-403.5 332,-433.5 442,-433.5 442,-403.5 332,-403.5"/>
<text text-anchor="start" x="340" y="-421.5" font-family="Helvetica,sans-Serif" font-size="10.00">include/FoodAuthority</text>
<text text-anchor="middle" x="387" y="-410.5" font-family="Helvetica,sans-Serif" font-size="10.00">/harvest_areas.h</text>
</a>
</g>
</g>
<!-- Node2 -->
<g id="node2" class="node">
<title>Node2</title>
<g id="a_node2"><a xlink:title=" ">
<polygon fill="none" stroke="#bfbfbf" points="777.5,-56.5 777.5,-75.5 836.5,-75.5 836.5,-56.5 777.5,-56.5"/>
<text text-anchor="middle" x="807" y="-63.5" font-family="Helvetica,sans-Serif" font-size="10.00">curl/curl.h</text>
</a>
</g>
</g>
<!-- Node1&#45;&gt;Node2 -->
<g id="edge1" class="edge">
<title>Node1&#45;&gt;Node2</title>
<path fill="none" stroke="midnightblue" d="M442,-417.5C581.29,-416.03 937,-402.43 937,-302 937,-302 937,-302 937,-238.5 937,-174.67 911,-160.07 869,-112 858.23,-99.67 843.48,-88.79 831.06,-80.82"/>
<polygon fill="midnightblue" stroke="midnightblue" points="832.88,-77.83 822.53,-75.55 829.2,-83.78 832.88,-77.83"/>
</g>
<!-- Node3 -->
<g id="node3" class="node">
<title>Node3</title>
<g id="a_node3"><a xlink:title=" ">
<polygon fill="none" stroke="#bfbfbf" points="280.5,-56.5 280.5,-75.5 363.5,-75.5 363.5,-56.5 280.5,-56.5"/>
<text text-anchor="middle" x="322" y="-63.5" font-family="Helvetica,sans-Serif" font-size="10.00">cjson/cJSON.h</text>
</a>
</g>
</g>
<!-- Node1&#45;&gt;Node3 -->
<g id="edge2" class="edge">
<title>Node1&#45;&gt;Node3</title>
<path fill="none" stroke="midnightblue" d="M331.66,-406.09C279.4,-391.7 209,-361.31 209,-302 209,-302 209,-302 209,-238.5 209,-171.07 270.66,-109.68 302.88,-82.2"/>
<polygon fill="midnightblue" stroke="midnightblue" points="305.3,-84.75 310.75,-75.67 300.82,-79.36 305.3,-84.75"/>
</g>
<!-- Node4 -->
<g id="node4" class="node">
<title>Node4</title>
<g id="a_node4"><a xlink:title=" ">
<polygon fill="none" stroke="#bfbfbf" points="16.5,-0.5 16.5,-19.5 59.5,-19.5 59.5,-0.5 16.5,-0.5"/>
<text text-anchor="middle" x="38" y="-7.5" font-family="Helvetica,sans-Serif" font-size="10.00">time.h</text>
</a>
</g>
</g>
<!-- Node1&#45;&gt;Node4 -->
<g id="edge3" class="edge">
<title>Node1&#45;&gt;Node4</title>
<path fill="none" stroke="midnightblue" d="M331.96,-412.64C225.12,-401.67 0,-370.45 0,-302 0,-302 0,-302 0,-121 0,-86.81 16.6,-49.76 27.86,-28.57"/>
<polygon fill="midnightblue" stroke="midnightblue" points="30.95,-30.22 32.72,-19.77 24.82,-26.83 30.95,-30.22"/>
</g>
<!-- Node5 -->
<g id="node5" class="node">
<title>Node5</title>
<g id="a_node5"><a xlink:title=" ">
<polygon fill="none" stroke="#bfbfbf" points="359,-291.5 359,-310.5 415,-310.5 415,-291.5 359,-291.5"/>
<text text-anchor="middle" x="387" y="-298.5" font-family="Helvetica,sans-Serif" font-size="10.00">libpq&#45;fe.h</text>
</a>
</g>
</g>
<!-- Node1&#45;&gt;Node5 -->
<g id="edge4" class="edge">
<title>Node1&#45;&gt;Node5</title>
<path fill="none" stroke="midnightblue" d="M387,-403.34C387,-382.62 387,-344.02 387,-320.9"/>
<polygon fill="midnightblue" stroke="midnightblue" points="390.5,-320.67 387,-310.67 383.5,-320.67 390.5,-320.67"/>
</g>
<!-- Node6 -->
<g id="node6" class="node">
<title>Node6</title>
<g id="a_node6"><a xlink:href="log_8h.html" target="_top" xlink:title=" ">
<polygon fill="none" stroke="black" points="169.5,-56.5 169.5,-75.5 206.5,-75.5 206.5,-56.5 169.5,-56.5"/>
<text text-anchor="middle" x="188" y="-63.5" font-family="Helvetica,sans-Serif" font-size="10.00">log.h</text>
</a>
</g>
</g>
<!-- Node1&#45;&gt;Node6 -->
<g id="edge5" class="edge">
<title>Node1&#45;&gt;Node6</title>
<path fill="none" stroke="midnightblue" d="M331.77,-409.81C237.82,-395.17 57,-359.51 57,-302 57,-302 57,-302 57,-238.5 57,-167.69 128.39,-107.97 165.77,-81.55"/>
<polygon fill="midnightblue" stroke="midnightblue" points="168.22,-84.11 174.47,-75.56 164.25,-78.34 168.22,-84.11"/>
</g>
<!-- Node10 -->
<g id="node10" class="node">
<title>Node10</title>
<g id="a_node10"><a xlink:href="harvest__area_8h.html" target="_top" xlink:title=" ">
<polygon fill="none" stroke="black" points="237,-224.5 237,-254.5 349,-254.5 349,-224.5 237,-224.5"/>
<text text-anchor="start" x="245" y="-242.5" font-family="Helvetica,sans-Serif" font-size="10.00">FoodAuthority/harvest</text>
<text text-anchor="middle" x="293" y="-231.5" font-family="Helvetica,sans-Serif" font-size="10.00">_area.h</text>
</a>
</g>
</g>
<!-- Node1&#45;&gt;Node10 -->
<g id="edge10" class="edge">
<title>Node1&#45;&gt;Node10</title>
<path fill="none" stroke="midnightblue" d="M371.67,-403.17C362.15,-393.63 350.21,-380.43 342,-367 321.7,-333.8 307.19,-290.76 299.46,-264.41"/>
<polygon fill="midnightblue" stroke="midnightblue" points="302.75,-263.2 296.65,-254.54 296.02,-265.11 302.75,-263.2"/>
</g>
<!-- Node11 -->
<g id="node11" class="node">
<title>Node11</title>
<g id="a_node11"><a xlink:href="http_8h.html" target="_top" xlink:title=" ">
<polygon fill="none" stroke="black" points="965.5,-168.5 965.5,-187.5 1006.5,-187.5 1006.5,-168.5 965.5,-168.5"/>
<text text-anchor="middle" x="986" y="-175.5" font-family="Helvetica,sans-Serif" font-size="10.00">http.h</text>
</a>
</g>
</g>
<!-- Node1&#45;&gt;Node11 -->
<g id="edge66" class="edge">
<title>Node1&#45;&gt;Node11</title>
<path fill="none" stroke="midnightblue" d="M442.42,-416.12C565.59,-412.48 858.44,-400.48 951,-367 1033.31,-337.22 1072.35,-332.52 1113,-255 1119.4,-242.8 1120.95,-235.25 1113,-224 1091.27,-193.24 1046.63,-183.37 1016.5,-180.28"/>
<polygon fill="midnightblue" stroke="midnightblue" points="1016.77,-176.79 1006.51,-179.45 1016.18,-183.77 1016.77,-176.79"/>
</g>
<!-- Node14 -->
<g id="node14" class="node">
<title>Node14</title>
<g id="a_node14"><a xlink:href="utils_8h.html" target="_top" xlink:title=" ">
<polygon fill="none" stroke="black" points="585,-112.5 585,-131.5 627,-131.5 627,-112.5 585,-112.5"/>
<text text-anchor="middle" x="606" y="-119.5" font-family="Helvetica,sans-Serif" font-size="10.00">utils.h</text>
</a>
</g>
</g>
<!-- Node1&#45;&gt;Node14 -->
<g id="edge67" class="edge">
<title>Node1&#45;&gt;Node14</title>
<path fill="none" stroke="midnightblue" d="M442.1,-415.8C480.74,-411.59 530.7,-399.6 561,-367 620.61,-302.85 613.92,-186.7 608.64,-141.61"/>
<polygon fill="midnightblue" stroke="midnightblue" points="612.09,-140.99 607.34,-131.52 605.15,-141.89 612.09,-140.99"/>
</g>
<!-- Node20 -->
<g id="node20" class="node">
<title>Node20</title>
<g id="a_node20"><a xlink:href="transform_8h.html" target="_top" xlink:title=" ">
<polygon fill="none" stroke="black" points="486.5,-347.5 486.5,-366.5 551.5,-366.5 551.5,-347.5 486.5,-347.5"/>
<text text-anchor="middle" x="519" y="-354.5" font-family="Helvetica,sans-Serif" font-size="10.00">transform.h</text>
</a>
</g>
</g>
<!-- Node1&#45;&gt;Node20 -->
<g id="edge31" class="edge">
<title>Node1&#45;&gt;Node20</title>
<path fill="none" stroke="midnightblue" d="M418.28,-403.4C440.23,-393.51 469.34,-380.38 490.62,-370.79"/>
<polygon fill="midnightblue" stroke="midnightblue" points="492.11,-373.96 499.79,-366.66 489.24,-367.58 492.11,-373.96"/>
</g>
<!-- Node21 -->
<g id="node21" class="node">
<title>Node21</title>
<g id="a_node21"><a xlink:href="stations_8h.html" target="_top" xlink:title=" ">
<polygon fill="none" stroke="black" points="417,-230 417,-249 501,-249 501,-230 417,-230"/>
<text text-anchor="middle" x="459" y="-237" font-family="Helvetica,sans-Serif" font-size="10.00">BOM/stations.h</text>
</a>
</g>
</g>
<!-- Node1&#45;&gt;Node21 -->
<g id="edge69" class="edge">
<title>Node1&#45;&gt;Node21</title>
<path fill="none" stroke="midnightblue" d="M375.65,-403.14C357.65,-378.48 326.84,-327.25 350,-291 362.75,-271.03 385.65,-258.84 407.18,-251.46"/>
<polygon fill="midnightblue" stroke="midnightblue" points="408.45,-254.73 416.94,-248.39 406.35,-248.05 408.45,-254.73"/>
</g>
<!-- Node24 -->
<g id="node24" class="node">
<title>Node24</title>
<g id="a_node24"><a xlink:href="location_8h.html" target="_top" xlink:title=" ">
<polygon fill="none" stroke="black" points="769.5,-291.5 769.5,-310.5 886.5,-310.5 886.5,-291.5 769.5,-291.5"/>
<text text-anchor="middle" x="828" y="-298.5" font-family="Helvetica,sans-Serif" font-size="10.00">WillyWeather/location.h</text>
</a>
</g>
</g>
<!-- Node1&#45;&gt;Node24 -->
<g id="edge68" class="edge">
<title>Node1&#45;&gt;Node24</title>
<path fill="none" stroke="midnightblue" d="M442.11,-411.13C499.53,-403.68 591.74,-389.44 669,-367 716.81,-353.12 769.87,-329.7 801.01,-315.09"/>
<polygon fill="midnightblue" stroke="midnightblue" points="802.78,-318.12 810.32,-310.68 799.78,-311.8 802.78,-318.12"/>
</g>
<!-- Node6&#45;&gt;Node4 -->
<g id="edge9" class="edge">
<title>Node6&#45;&gt;Node4</title>
<path fill="none" stroke="midnightblue" d="M169.31,-58.27C144.33,-49.28 99.71,-33.22 69.5,-22.34"/>
<polygon fill="midnightblue" stroke="midnightblue" points="70.45,-18.96 59.85,-18.87 68.08,-25.55 70.45,-18.96"/>
</g>
<!-- Node7 -->
<g id="node7" class="node">
<title>Node7</title>
<g id="a_node7"><a xlink:title=" ">
<polygon fill="none" stroke="#bfbfbf" points="982.5,-0.5 982.5,-19.5 1027.5,-19.5 1027.5,-0.5 982.5,-0.5"/>
<text text-anchor="middle" x="1005" y="-7.5" font-family="Helvetica,sans-Serif" font-size="10.00">stdio.h</text>
</a>
</g>
</g>
<!-- Node6&#45;&gt;Node7 -->
<g id="edge6" class="edge">
<title>Node6&#45;&gt;Node7</title>
<path fill="none" stroke="midnightblue" d="M206.77,-62.71C223.57,-60.72 248.9,-57.87 271,-56 541.61,-33.05 869.3,-17.17 972.36,-12.46"/>
<polygon fill="midnightblue" stroke="midnightblue" points="972.62,-15.95 982.45,-12 972.3,-8.95 972.62,-15.95"/>
</g>
<!-- Node8 -->
<g id="node8" class="node">
<title>Node8</title>
<g id="a_node8"><a xlink:title=" ">
<polygon fill="none" stroke="#bfbfbf" points="126.5,-0.5 126.5,-19.5 177.5,-19.5 177.5,-0.5 126.5,-0.5"/>
<text text-anchor="middle" x="152" y="-7.5" font-family="Helvetica,sans-Serif" font-size="10.00">stdarg.h</text>
</a>
</g>
</g>
<!-- Node6&#45;&gt;Node8 -->
<g id="edge7" class="edge">
<title>Node6&#45;&gt;Node8</title>
<path fill="none" stroke="midnightblue" d="M182.06,-56.08C177.02,-48.53 169.66,-37.49 163.49,-28.23"/>
<polygon fill="midnightblue" stroke="midnightblue" points="166.29,-26.13 157.83,-19.75 160.47,-30.01 166.29,-26.13"/>
</g>
<!-- Node9 -->
<g id="node9" class="node">
<title>Node9</title>
<g id="a_node9"><a xlink:title=" ">
<polygon fill="none" stroke="#bfbfbf" points="196,-0.5 196,-19.5 252,-19.5 252,-0.5 196,-0.5"/>
<text text-anchor="middle" x="224" y="-7.5" font-family="Helvetica,sans-Serif" font-size="10.00">stdbool.h</text>
</a>
</g>
</g>
<!-- Node6&#45;&gt;Node9 -->
<g id="edge8" class="edge">
<title>Node6&#45;&gt;Node9</title>
<path fill="none" stroke="midnightblue" d="M193.94,-56.08C198.98,-48.53 206.34,-37.49 212.51,-28.23"/>
<polygon fill="midnightblue" stroke="midnightblue" points="215.53,-30.01 218.17,-19.75 209.71,-26.13 215.53,-30.01"/>
</g>
<!-- Node10&#45;&gt;Node2 -->
<g id="edge11" class="edge">
<title>Node10&#45;&gt;Node2</title>
<path fill="none" stroke="midnightblue" d="M343.71,-224.46C378.73,-214.61 426.33,-200.95 468,-188 543.16,-164.64 561.87,-158.43 636,-132 685.15,-114.48 741.64,-92.68 775.8,-79.3"/>
<polygon fill="midnightblue" stroke="midnightblue" points="777.21,-82.51 785.24,-75.6 774.66,-76 777.21,-82.51"/>
</g>
<!-- Node10&#45;&gt;Node3 -->
<g id="edge12" class="edge">
<title>Node10&#45;&gt;Node3</title>
<path fill="none" stroke="midnightblue" d="M295.37,-224.47C300.57,-193.7 312.98,-120.33 318.84,-85.7"/>
<polygon fill="midnightblue" stroke="midnightblue" points="322.34,-86 320.55,-75.56 315.43,-84.84 322.34,-86"/>
</g>
<!-- Node10&#45;&gt;Node4 -->
<g id="edge13" class="edge">
<title>Node10&#45;&gt;Node4</title>
<path fill="none" stroke="midnightblue" d="M277.05,-224.27C231.69,-183.8 102.22,-68.29 55.27,-26.41"/>
<polygon fill="midnightblue" stroke="midnightblue" points="57.53,-23.74 47.74,-19.69 52.87,-28.96 57.53,-23.74"/>
</g>
<!-- Node10&#45;&gt;Node6 -->
<g id="edge14" class="edge">
<title>Node10&#45;&gt;Node6</title>
<path fill="none" stroke="midnightblue" d="M284.41,-224.47C265.33,-193.3 219.47,-118.41 198.63,-84.37"/>
<polygon fill="midnightblue" stroke="midnightblue" points="201.45,-82.26 193.24,-75.56 195.48,-85.92 201.45,-82.26"/>
</g>
<!-- Node10&#45;&gt;Node11 -->
<g id="edge15" class="edge">
<title>Node10&#45;&gt;Node11</title>
<path fill="none" stroke="midnightblue" d="M349.09,-230.87C367.8,-228.47 388.78,-225.94 408,-224 617.32,-202.83 670.29,-204.9 880,-188 905.36,-185.96 934.11,-183.51 955.27,-181.68"/>
<polygon fill="midnightblue" stroke="midnightblue" points="955.63,-185.16 965.29,-180.81 955.02,-178.19 955.63,-185.16"/>
</g>
<!-- Node10&#45;&gt;Node14 -->
<g id="edge30" class="edge">
<title>Node10&#45;&gt;Node14</title>
<path fill="none" stroke="midnightblue" d="M331.07,-224.45C393.77,-201.31 517.57,-155.63 575.17,-134.38"/>
<polygon fill="midnightblue" stroke="midnightblue" points="576.64,-137.57 584.81,-130.82 574.21,-131 576.64,-137.57"/>
</g>
<!-- Node11&#45;&gt;Node2 -->
<g id="edge18" class="edge">
<title>Node11&#45;&gt;Node2</title>
<path fill="none" stroke="midnightblue" d="M975.44,-168.39C959.18,-155.33 926.74,-130.12 897,-112 877.24,-99.96 853.83,-88.33 835.84,-79.91"/>
<polygon fill="midnightblue" stroke="midnightblue" points="837.01,-76.59 826.46,-75.58 834.07,-82.95 837.01,-76.59"/>
</g>
<!-- Node12 -->
<g id="node12" class="node">
<title>Node12</title>
<g id="a_node12"><a xlink:title=" ">
<polygon fill="none" stroke="#bfbfbf" points="978.5,-56.5 978.5,-75.5 1025.5,-75.5 1025.5,-56.5 978.5,-56.5"/>
<text text-anchor="middle" x="1002" y="-63.5" font-family="Helvetica,sans-Serif" font-size="10.00">stdlib.h</text>
</a>
</g>
</g>
<!-- Node11&#45;&gt;Node12 -->
<g id="edge16" class="edge">
<title>Node11&#45;&gt;Node12</title>
<path fill="none" stroke="midnightblue" d="M987.26,-168.37C989.84,-150.62 995.79,-109.67 999.29,-85.6"/>
<polygon fill="midnightblue" stroke="midnightblue" points="1002.77,-85.99 1000.75,-75.59 995.85,-84.98 1002.77,-85.99"/>
</g>
<!-- Node13 -->
<g id="node13" class="node">
<title>Node13</title>
<g id="a_node13"><a xlink:title=" ">
<polygon fill="none" stroke="#bfbfbf" points="1049,-56.5 1049,-75.5 1097,-75.5 1097,-56.5 1049,-56.5"/>
<text text-anchor="middle" x="1073" y="-63.5" font-family="Helvetica,sans-Serif" font-size="10.00">string.h</text>
</a>
</g>
</g>
<!-- Node11&#45;&gt;Node13 -->
<g id="edge17" class="edge">
<title>Node11&#45;&gt;Node13</title>
<path fill="none" stroke="midnightblue" d="M1003.17,-168.49C1017.24,-160.72 1036.76,-148.02 1049,-132 1059.48,-118.27 1065.76,-99.49 1069.25,-85.65"/>
<polygon fill="midnightblue" stroke="midnightblue" points="1072.68,-86.32 1071.47,-75.79 1065.85,-84.77 1072.68,-86.32"/>
</g>
<!-- Node11&#45;&gt;Node14 -->
<g id="edge19" class="edge">
<title>Node11&#45;&gt;Node14</title>
<path fill="none" stroke="midnightblue" d="M965.3,-174.06C902.41,-165.12 713.31,-138.25 637.72,-127.51"/>
<polygon fill="midnightblue" stroke="midnightblue" points="637.81,-123.99 627.42,-126.04 636.83,-130.92 637.81,-123.99"/>
</g>
<!-- Node14&#45;&gt;Node2 -->
<g id="edge22" class="edge">
<title>Node14&#45;&gt;Node2</title>
<path fill="none" stroke="midnightblue" d="M627.13,-115.32C660.37,-106.39 725.42,-88.92 767.51,-77.61"/>
<polygon fill="midnightblue" stroke="midnightblue" points="768.67,-80.92 777.42,-74.95 766.85,-74.16 768.67,-80.92"/>
</g>
<!-- Node14&#45;&gt;Node3 -->
<g id="edge24" class="edge">
<title>Node14&#45;&gt;Node3</title>
<path fill="none" stroke="midnightblue" d="M584.65,-116.94C540.24,-108.5 436.77,-88.82 373.76,-76.84"/>
<polygon fill="midnightblue" stroke="midnightblue" points="374.11,-73.35 363.63,-74.92 372.8,-80.22 374.11,-73.35"/>
</g>
<!-- Node14&#45;&gt;Node6 -->
<g id="edge29" class="edge">
<title>Node14&#45;&gt;Node6</title>
<path fill="none" stroke="midnightblue" d="M584.98,-118.29C516.05,-109.38 296.65,-81.04 217.13,-70.76"/>
<polygon fill="midnightblue" stroke="midnightblue" points="217.24,-67.25 206.87,-69.44 216.34,-74.19 217.24,-67.25"/>
</g>
<!-- Node14&#45;&gt;Node12 -->
<g id="edge20" class="edge">
<title>Node14&#45;&gt;Node12</title>
<path fill="none" stroke="midnightblue" d="M627.01,-118.13C691.82,-109.3 889.01,-82.41 968.38,-71.59"/>
<polygon fill="midnightblue" stroke="midnightblue" points="968.9,-75.05 978.33,-70.23 967.95,-68.11 968.9,-75.05"/>
</g>
<!-- Node14&#45;&gt;Node13 -->
<g id="edge21" class="edge">
<title>Node14&#45;&gt;Node13</title>
<path fill="none" stroke="midnightblue" d="M627.11,-119.75C689.7,-115.82 879.59,-102.44 1035,-76 1036.28,-75.78 1037.58,-75.55 1038.89,-75.3"/>
<polygon fill="midnightblue" stroke="midnightblue" points="1039.9,-78.66 1048.97,-73.18 1038.47,-71.81 1039.9,-78.66"/>
</g>
<!-- Node15 -->
<g id="node15" class="node">
<title>Node15</title>
<g id="a_node15"><a xlink:title=" ">
<polygon fill="none" stroke="#bfbfbf" points="607,-56.5 607,-75.5 655,-75.5 655,-56.5 607,-56.5"/>
<text text-anchor="middle" x="631" y="-63.5" font-family="Helvetica,sans-Serif" font-size="10.00">stdint.h</text>
</a>
</g>
</g>
<!-- Node14&#45;&gt;Node15 -->
<g id="edge23" class="edge">
<title>Node14&#45;&gt;Node15</title>
<path fill="none" stroke="midnightblue" d="M610.13,-112.08C613.51,-104.77 618.42,-94.18 622.62,-85.1"/>
<polygon fill="midnightblue" stroke="midnightblue" points="625.92,-86.3 626.95,-75.75 619.57,-83.36 625.92,-86.3"/>
</g>
<!-- Node16 -->
<g id="node16" class="node">
<title>Node16</title>
<g id="a_node16"><a xlink:title=" ">
<polygon fill="none" stroke="#bfbfbf" points="446.5,-56.5 446.5,-75.5 505.5,-75.5 505.5,-56.5 446.5,-56.5"/>
<text text-anchor="middle" x="476" y="-63.5" font-family="Helvetica,sans-Serif" font-size="10.00">sys/stat.h</text>
</a>
</g>
</g>
<!-- Node14&#45;&gt;Node16 -->
<g id="edge25" class="edge">
<title>Node14&#45;&gt;Node16</title>
<path fill="none" stroke="midnightblue" d="M585.4,-112.44C564.01,-103.56 530.32,-89.56 505.98,-79.45"/>
<polygon fill="midnightblue" stroke="midnightblue" points="507.08,-76.12 496.5,-75.52 504.39,-82.58 507.08,-76.12"/>
</g>
<!-- Node17 -->
<g id="node17" class="node">
<title>Node17</title>
<g id="a_node17"><a xlink:title=" ">
<polygon fill="none" stroke="#bfbfbf" points="523.5,-56.5 523.5,-75.5 588.5,-75.5 588.5,-56.5 523.5,-56.5"/>
<text text-anchor="middle" x="556" y="-63.5" font-family="Helvetica,sans-Serif" font-size="10.00">sys/types.h</text>
</a>
</g>
</g>
<!-- Node14&#45;&gt;Node17 -->
<g id="edge26" class="edge">
<title>Node14&#45;&gt;Node17</title>
<path fill="none" stroke="midnightblue" d="M597.74,-112.08C590.54,-104.3 579.89,-92.8 571.15,-83.37"/>
<polygon fill="midnightblue" stroke="midnightblue" points="573.47,-80.71 564.1,-75.75 568.33,-85.47 573.47,-80.71"/>
</g>
<!-- Node18 -->
<g id="node18" class="node">
<title>Node18</title>
<g id="a_node18"><a xlink:title=" ">
<polygon fill="none" stroke="#bfbfbf" points="673,-56.5 673,-75.5 719,-75.5 719,-56.5 673,-56.5"/>
<text text-anchor="middle" x="696" y="-63.5" font-family="Helvetica,sans-Serif" font-size="10.00">errno.h</text>
</a>
</g>
</g>
<!-- Node14&#45;&gt;Node18 -->
<g id="edge27" class="edge">
<title>Node14&#45;&gt;Node18</title>
<path fill="none" stroke="midnightblue" d="M620.46,-112.32C634.5,-103.9 656.05,-90.97 672.54,-81.07"/>
<polygon fill="midnightblue" stroke="midnightblue" points="674.8,-83.8 681.58,-75.65 671.2,-77.8 674.8,-83.8"/>
</g>
<!-- Node19 -->
<g id="node19" class="node">
<title>Node19</title>
<g id="a_node19"><a xlink:title=" ">
<polygon fill="none" stroke="#bfbfbf" points="382,-56.5 382,-75.5 428,-75.5 428,-56.5 382,-56.5"/>
<text text-anchor="middle" x="405" y="-63.5" font-family="Helvetica,sans-Serif" font-size="10.00">math.h</text>
</a>
</g>
</g>
<!-- Node14&#45;&gt;Node19 -->
<g id="edge28" class="edge">
<title>Node14&#45;&gt;Node19</title>
<path fill="none" stroke="midnightblue" d="M584.78,-115.35C552.9,-106.85 490.76,-90.26 438,-76 437.9,-75.97 437.8,-75.95 437.7,-75.92"/>
<polygon fill="midnightblue" stroke="midnightblue" points="438.64,-72.55 428.08,-73.31 436.81,-79.3 438.64,-72.55"/>
</g>
<!-- Node20&#45;&gt;Node5 -->
<g id="edge32" class="edge">
<title>Node20&#45;&gt;Node5</title>
<path fill="none" stroke="midnightblue" d="M498.08,-347.44C476.26,-338.52 441.85,-324.44 417.11,-314.32"/>
<polygon fill="midnightblue" stroke="midnightblue" points="418.4,-311.06 407.82,-310.52 415.75,-317.54 418.4,-311.06"/>
</g>
<!-- Node20&#45;&gt;Node6 -->
<g id="edge35" class="edge">
<title>Node20&#45;&gt;Node6</title>
<path fill="none" stroke="midnightblue" d="M506.93,-347.3C483.43,-330.43 433.05,-294.61 424,-291 330.35,-253.63 274.41,-323.05 200,-255 152.55,-211.61 170.9,-123.99 181.97,-85.66"/>
<polygon fill="midnightblue" stroke="midnightblue" points="185.4,-86.43 184.97,-75.84 178.7,-84.39 185.4,-86.43"/>
</g>
<!-- Node20&#45;&gt;Node7 -->
<g id="edge33" class="edge">
<title>Node20&#45;&gt;Node7</title>
<path fill="none" stroke="midnightblue" d="M525.64,-347.35C561.9,-300.21 735.56,-75.7 769,-56 833.82,-17.82 924.45,-11.1 972.34,-10.47"/>
<polygon fill="midnightblue" stroke="midnightblue" points="972.46,-13.97 982.45,-10.41 972.43,-6.97 972.46,-13.97"/>
</g>
<!-- Node20&#45;&gt;Node10 -->
<g id="edge46" class="edge">
<title>Node20&#45;&gt;Node10</title>
<path fill="none" stroke="midnightblue" d="M512.84,-347.05C502.76,-333.07 481.4,-306.09 457,-291 440.25,-280.64 397.07,-267.52 359.23,-257.24"/>
<polygon fill="midnightblue" stroke="midnightblue" points="359.79,-253.77 349.23,-254.56 357.98,-260.53 359.79,-253.77"/>
</g>
<!-- Node20&#45;&gt;Node12 -->
<g id="edge34" class="edge">
<title>Node20&#45;&gt;Node12</title>
<path fill="none" stroke="midnightblue" d="M551.77,-356.25C670.85,-356.36 1077.63,-349.72 1154,-255 1198.41,-199.91 1138.22,-157.47 1084,-112 1068.29,-98.83 1048.14,-87.71 1031.74,-79.81"/>
<polygon fill="midnightblue" stroke="midnightblue" points="1033.13,-76.6 1022.59,-75.55 1030.17,-82.94 1033.13,-76.6"/>
</g>
<!-- Node20&#45;&gt;Node14 -->
<g id="edge65" class="edge">
<title>Node20&#45;&gt;Node14</title>
<path fill="none" stroke="midnightblue" d="M522.2,-347.43C534.83,-313.61 581.38,-188.95 599.09,-141.5"/>
<polygon fill="midnightblue" stroke="midnightblue" points="602.46,-142.49 602.68,-131.9 595.9,-140.04 602.46,-142.49"/>
</g>
<!-- Node20&#45;&gt;Node21 -->
<g id="edge36" class="edge">
<title>Node20&#45;&gt;Node21</title>
<path fill="none" stroke="midnightblue" d="M516.59,-347.28C512.88,-334.5 505.12,-310.14 495,-291 488.74,-279.17 480.08,-266.93 472.82,-257.46"/>
<polygon fill="midnightblue" stroke="midnightblue" points="475.35,-255.02 466.41,-249.33 469.85,-259.35 475.35,-255.02"/>
</g>
<!-- Node20&#45;&gt;Node24 -->
<g id="edge47" class="edge">
<title>Node20&#45;&gt;Node24</title>
<path fill="none" stroke="midnightblue" d="M551.78,-350.27C603.45,-341.24 704.6,-323.56 769.11,-312.29"/>
<polygon fill="midnightblue" stroke="midnightblue" points="769.89,-315.71 779.14,-310.54 768.69,-308.81 769.89,-315.71"/>
</g>
<!-- Node21&#45;&gt;Node14 -->
<g id="edge45" class="edge">
<title>Node21&#45;&gt;Node14</title>
<path fill="none" stroke="midnightblue" d="M470.05,-229.82C494.95,-210.25 555.71,-162.52 586.87,-138.03"/>
<polygon fill="midnightblue" stroke="midnightblue" points="589.12,-140.71 594.82,-131.78 584.8,-135.21 589.12,-140.71"/>
</g>
<!-- Node21&#45;&gt;Node19 -->
<g id="edge37" class="edge">
<title>Node21&#45;&gt;Node19</title>
<path fill="none" stroke="midnightblue" d="M456.25,-229.76C447.83,-203.04 422.32,-122.02 410.78,-85.36"/>
<polygon fill="midnightblue" stroke="midnightblue" points="414.02,-84.01 407.68,-75.52 407.35,-86.11 414.02,-84.01"/>
</g>
<!-- Node22 -->
<g id="node22" class="node">
<title>Node22</title>
<g id="a_node22"><a xlink:title=" ">
<polygon fill="none" stroke="#bfbfbf" points="351.5,-168.5 351.5,-187.5 398.5,-187.5 398.5,-168.5 351.5,-168.5"/>
<text text-anchor="middle" x="375" y="-175.5" font-family="Helvetica,sans-Serif" font-size="10.00">ctype.h</text>
</a>
</g>
</g>
<!-- Node21&#45;&gt;Node22 -->
<g id="edge38" class="edge">
<title>Node21&#45;&gt;Node22</title>
<path fill="none" stroke="midnightblue" d="M446.96,-229.98C433.49,-220.43 411.43,-204.81 395.28,-193.37"/>
<polygon fill="midnightblue" stroke="midnightblue" points="397.2,-190.43 387.01,-187.51 393.15,-196.15 397.2,-190.43"/>
</g>
<!-- Node23 -->
<g id="node23" class="node">
<title>Node23</title>
<g id="a_node23"><a xlink:href="ftp_8h.html" target="_top" xlink:title=" ">
<polygon fill="none" stroke="black" points="835.5,-168.5 835.5,-187.5 870.5,-187.5 870.5,-168.5 835.5,-168.5"/>
<text text-anchor="middle" x="853" y="-175.5" font-family="Helvetica,sans-Serif" font-size="10.00">ftp.h</text>
</a>
</g>
</g>
<!-- Node21&#45;&gt;Node23 -->
<g id="edge39" class="edge">
<title>Node21&#45;&gt;Node23</title>
<path fill="none" stroke="midnightblue" d="M501.16,-232.13C582.19,-219.9 757.63,-193.4 825.45,-183.16"/>
<polygon fill="midnightblue" stroke="midnightblue" points="826.02,-186.61 835.39,-181.66 824.98,-179.69 826.02,-186.61"/>
</g>
<!-- Node23&#45;&gt;Node2 -->
<g id="edge42" class="edge">
<title>Node23&#45;&gt;Node2</title>
<path fill="none" stroke="midnightblue" d="M835.44,-169.37C821.09,-162.08 801.79,-149.59 793,-132 785.6,-117.19 790.88,-98.57 796.97,-85.06"/>
<polygon fill="midnightblue" stroke="midnightblue" points="800.22,-86.38 801.57,-75.87 793.96,-83.24 800.22,-86.38"/>
</g>
<!-- Node23&#45;&gt;Node12 -->
<g id="edge40" class="edge">
<title>Node23&#45;&gt;Node12</title>
<path fill="none" stroke="midnightblue" d="M864.69,-168.37C890.15,-149.57 950.84,-104.77 982.31,-81.53"/>
<polygon fill="midnightblue" stroke="midnightblue" points="984.4,-84.35 990.36,-75.59 980.24,-78.72 984.4,-84.35"/>
</g>
<!-- Node23&#45;&gt;Node13 -->
<g id="edge41" class="edge">
<title>Node23&#45;&gt;Node13</title>
<path fill="none" stroke="midnightblue" d="M870.26,-168.37C908.66,-149.17 1001.32,-102.84 1046.85,-80.07"/>
<polygon fill="midnightblue" stroke="midnightblue" points="1048.44,-83.19 1055.82,-75.59 1045.31,-76.93 1048.44,-83.19"/>
</g>
<!-- Node23&#45;&gt;Node14 -->
<g id="edge44" class="edge">
<title>Node23&#45;&gt;Node14</title>
<path fill="none" stroke="midnightblue" d="M835.45,-171.83C830.77,-170.52 825.71,-169.15 821,-168 755.95,-152.06 678.97,-136.82 637.04,-128.81"/>
<polygon fill="midnightblue" stroke="midnightblue" points="637.64,-125.36 627.16,-126.94 636.34,-132.24 637.64,-125.36"/>
</g>
<!-- Node23&#45;&gt;Node18 -->
<g id="edge43" class="edge">
<title>Node23&#45;&gt;Node18</title>
<path fill="none" stroke="midnightblue" d="M839.59,-168.38C825.78,-159.46 803.71,-145.01 785,-132 760.92,-115.25 733.77,-95.26 715.86,-81.91"/>
<polygon fill="midnightblue" stroke="midnightblue" points="717.5,-78.77 707.4,-75.59 713.31,-84.38 717.5,-78.77"/>
</g>
<!-- Node24&#45;&gt;Node2 -->
<g id="edge53" class="edge">
<title>Node24&#45;&gt;Node2</title>
<path fill="none" stroke="midnightblue" d="M835.74,-291.49C853.68,-270.7 895.39,-215.57 880,-168 868.92,-133.75 841.41,-101.36 823.5,-82.88"/>
<polygon fill="midnightblue" stroke="midnightblue" points="825.81,-80.23 816.27,-75.62 820.85,-85.18 825.81,-80.23"/>
</g>
<!-- Node24&#45;&gt;Node3 -->
<g id="edge52" class="edge">
<title>Node24&#45;&gt;Node3</title>
<path fill="none" stroke="midnightblue" d="M769.16,-298.59C669,-295.4 470.21,-285.33 408,-255 370.71,-236.82 361.83,-224.97 343,-188 334.07,-170.47 327.11,-115.36 323.91,-85.94"/>
<polygon fill="midnightblue" stroke="midnightblue" points="327.36,-85.31 322.84,-75.73 320.4,-86.04 327.36,-85.31"/>
</g>
<!-- Node24&#45;&gt;Node6 -->
<g id="edge54" class="edge">
<title>Node24&#45;&gt;Node6</title>
<path fill="none" stroke="midnightblue" d="M769.28,-299.53C626.18,-297.83 268.17,-290.09 228,-255 178.81,-212.03 181.46,-124.85 185.43,-86.2"/>
<polygon fill="midnightblue" stroke="midnightblue" points="188.95,-86.2 186.65,-75.86 182,-85.38 188.95,-86.2"/>
</g>
<!-- Node24&#45;&gt;Node7 -->
<g id="edge50" class="edge">
<title>Node24&#45;&gt;Node7</title>
<path fill="none" stroke="midnightblue" d="M886.65,-300.58C970.79,-300.04 1119.45,-293.47 1154,-255 1213.76,-188.45 1184.56,-121.82 1124,-56 1101.56,-31.61 1064.53,-20.35 1037.73,-15.21"/>
<polygon fill="midnightblue" stroke="midnightblue" points="1038.11,-11.72 1027.66,-13.47 1036.92,-18.62 1038.11,-11.72"/>
</g>
<!-- Node24&#45;&gt;Node11 -->
<g id="edge63" class="edge">
<title>Node24&#45;&gt;Node11</title>
<path fill="none" stroke="midnightblue" d="M839.11,-291.49C865.68,-271.15 933.14,-219.48 966.59,-193.86"/>
<polygon fill="midnightblue" stroke="midnightblue" points="968.88,-196.52 974.69,-187.66 964.62,-190.96 968.88,-196.52"/>
</g>
<!-- Node24&#45;&gt;Node12 -->
<g id="edge49" class="edge">
<title>Node24&#45;&gt;Node12</title>
<path fill="none" stroke="midnightblue" d="M886.67,-299.35C961.45,-297.14 1084.49,-288.37 1113,-255 1162.3,-197.31 1066.6,-114.87 1022.54,-81.68"/>
<polygon fill="midnightblue" stroke="midnightblue" points="1024.36,-78.67 1014.24,-75.54 1020.2,-84.3 1024.36,-78.67"/>
</g>
<!-- Node24&#45;&gt;Node13 -->
<g id="edge48" class="edge">
<title>Node24&#45;&gt;Node13</title>
<path fill="none" stroke="midnightblue" d="M886.68,-300.06C966.2,-298.75 1101.83,-291.11 1133,-255 1177.37,-203.6 1117.07,-119.1 1087.58,-83.56"/>
<polygon fill="midnightblue" stroke="midnightblue" points="1089.98,-80.98 1080.83,-75.63 1084.65,-85.51 1089.98,-80.98"/>
</g>
<!-- Node24&#45;&gt;Node14 -->
<g id="edge64" class="edge">
<title>Node24&#45;&gt;Node14</title>
<path fill="none" stroke="midnightblue" d="M817.29,-291.46C782.13,-263.43 669.91,-173.95 624.92,-138.08"/>
<polygon fill="midnightblue" stroke="midnightblue" points="626.86,-135.16 616.86,-131.66 622.5,-140.63 626.86,-135.16"/>
</g>
<!-- Node24&#45;&gt;Node19 -->
<g id="edge51" class="edge">
<title>Node24&#45;&gt;Node19</title>
<path fill="none" stroke="midnightblue" d="M808.06,-291.37C788.27,-282.66 757.2,-268.6 731,-255 614.45,-194.51 479.96,-113.12 427.54,-80.93"/>
<polygon fill="midnightblue" stroke="midnightblue" points="429.09,-77.77 418.73,-75.51 425.42,-83.73 429.09,-77.77"/>
</g>
<!-- Node25 -->
<g id="node25" class="node">
<title>Node25</title>
<g id="a_node25"><a xlink:href="_willy_weather_2authenticate_8h.html" target="_top" xlink:title=" ">
<polygon fill="none" stroke="black" points="966.5,-230 966.5,-249 1103.5,-249 1103.5,-230 966.5,-230"/>
<text text-anchor="middle" x="1035" y="-237" font-family="Helvetica,sans-Serif" font-size="10.00">WillyWeather/authenticate.h</text>
</a>
</g>
</g>
<!-- Node24&#45;&gt;Node25 -->
<g id="edge55" class="edge">
<title>Node24&#45;&gt;Node25</title>
<path fill="none" stroke="midnightblue" d="M857.66,-291.48C893.93,-281.05 955.46,-263.36 995.66,-251.81"/>
<polygon fill="midnightblue" stroke="midnightblue" points="996.75,-255.14 1005.4,-249.01 994.82,-248.41 996.75,-255.14"/>
</g>
<!-- Node25&#45;&gt;Node2 -->
<g id="edge60" class="edge">
<title>Node25&#45;&gt;Node2</title>
<path fill="none" stroke="midnightblue" d="M1034.69,-229.8C1033.77,-215.53 1030.15,-186.86 1016,-168 974.46,-112.62 894.56,-86.09 846.49,-74.62"/>
<polygon fill="midnightblue" stroke="midnightblue" points="847.27,-71.21 836.74,-72.4 845.71,-78.03 847.27,-71.21"/>
</g>
<!-- Node25&#45;&gt;Node3 -->
<g id="edge59" class="edge">
<title>Node25&#45;&gt;Node3</title>
<path fill="none" stroke="midnightblue" d="M999.67,-229.93C958.28,-219.9 887.66,-202.76 827,-188 790.55,-179.13 781.57,-176.35 745,-168 670.13,-150.9 650.77,-149.52 576,-132 500.75,-114.36 413.58,-91.53 363.4,-78.15"/>
<polygon fill="midnightblue" stroke="midnightblue" points="364.14,-74.72 353.58,-75.52 362.33,-81.48 364.14,-74.72"/>
</g>
<!-- Node25&#45;&gt;Node6 -->
<g id="edge61" class="edge">
<title>Node25&#45;&gt;Node6</title>
<path fill="none" stroke="midnightblue" d="M982.23,-229.99C924.01,-220.44 827.63,-204.16 745,-188 541.71,-148.24 298.46,-92.6 216.52,-73.63"/>
<polygon fill="midnightblue" stroke="midnightblue" points="217.23,-70.21 206.69,-71.36 215.65,-77.02 217.23,-70.21"/>
</g>
<!-- Node25&#45;&gt;Node7 -->
<g id="edge58" class="edge">
<title>Node25&#45;&gt;Node7</title>
<path fill="none" stroke="midnightblue" d="M1043.67,-229.92C1070.09,-202.74 1145.43,-116.74 1106,-56 1090.98,-32.86 1060.98,-21.52 1037.57,-16.02"/>
<polygon fill="midnightblue" stroke="midnightblue" points="1038.18,-12.57 1027.68,-13.95 1036.74,-19.42 1038.18,-12.57"/>
</g>
<!-- Node25&#45;&gt;Node11 -->
<g id="edge62" class="edge">
<title>Node25&#45;&gt;Node11</title>
<path fill="none" stroke="midnightblue" d="M1027.98,-229.98C1020.56,-220.96 1008.67,-206.52 999.43,-195.31"/>
<polygon fill="midnightblue" stroke="midnightblue" points="1002.07,-193 993.01,-187.51 996.66,-197.45 1002.07,-193"/>
</g>
<!-- Node25&#45;&gt;Node12 -->
<g id="edge57" class="edge">
<title>Node25&#45;&gt;Node12</title>
<path fill="none" stroke="midnightblue" d="M1039.06,-229.79C1044.76,-216.45 1053.91,-190.17 1049,-168 1042.1,-136.82 1024.55,-103.85 1012.96,-84.36"/>
<polygon fill="midnightblue" stroke="midnightblue" points="1015.87,-82.42 1007.67,-75.72 1009.9,-86.08 1015.87,-82.42"/>
</g>
<!-- Node25&#45;&gt;Node13 -->
<g id="edge56" class="edge">
<title>Node25&#45;&gt;Node13</title>
<path fill="none" stroke="midnightblue" d="M1041.4,-229.72C1048.08,-220.03 1058.23,-203.73 1063,-188 1073.56,-153.16 1074.42,-110.24 1073.87,-86.02"/>
<polygon fill="midnightblue" stroke="midnightblue" points="1077.36,-85.62 1073.52,-75.74 1070.36,-85.85 1077.36,-85.62"/>
</g>
</g>
</svg>
