<?xml version="1.0" encoding="UTF-8" standalone="no"?>
<!DOCTYPE svg PUBLIC "-//W3C//DTD SVG 1.1//EN"
 "http://www.w3.org/Graphics/SVG/1.1/DTD/svg11.dtd">
<!-- Generated by graphviz version 2.49.3 (20211027.1534)
 -->
<!-- Title: src/BOM/historical_weather.c Pages: 1 -->
<svg width="1276pt" height="498pt"
 viewBox="0.00 0.00 1276.00 498.00" xmlns="http://www.w3.org/2000/svg" xmlns:xlink="http://www.w3.org/1999/xlink">
<g id="graph0" class="graph" transform="scale(1 1) rotate(0) translate(4 494)">
<title>src/BOM/historical_weather.c</title>
<!-- Node1 -->
<g id="node1" class="node">
<title>Node1</title>
<g id="a_node1"><a xlink:title=" ">
<polygon fill="#bfbfbf" stroke="black" points="1032,-459.5 1032,-489.5 1130,-489.5 1130,-459.5 1032,-459.5"/>
<text text-anchor="start" x="1040" y="-477.5" font-family="Helvetica,sans-Serif" font-size="10.00">src/BOM/historical</text>
<text text-anchor="middle" x="1081" y="-466.5" font-family="Helvetica,sans-Serif" font-size="10.00">_weather.c</text>
</a>
</g>
</g>
<!-- Node2 -->
<g id="node2" class="node">
<title>Node2</title>
<g id="a_node2"><a xlink:href="historical__weather_8h.html" target="_top" xlink:title=" ">
<polygon fill="none" stroke="black" points="1017,-403.5 1017,-422.5 1145,-422.5 1145,-403.5 1017,-403.5"/>
<text text-anchor="middle" x="1081" y="-410.5" font-family="Helvetica,sans-Serif" font-size="10.00">BOM/historical_weather.h</text>
</a>
</g>
</g>
<!-- Node1&#45;&gt;Node2 -->
<g id="edge1" class="edge">
<title>Node1&#45;&gt;Node2</title>
<path fill="none" stroke="midnightblue" d="M1081,-459.4C1081,-451.47 1081,-441.46 1081,-432.86"/>
<polygon fill="midnightblue" stroke="midnightblue" points="1084.5,-432.66 1081,-422.66 1077.5,-432.66 1084.5,-432.66"/>
</g>
<!-- Node3 -->
<g id="node3" class="node">
<title>Node3</title>
<g id="a_node3"><a xlink:title=" ">
<polygon fill="none" stroke="#bfbfbf" points="16.5,-0.5 16.5,-19.5 59.5,-19.5 59.5,-0.5 16.5,-0.5"/>
<text text-anchor="middle" x="38" y="-7.5" font-family="Helvetica,sans-Serif" font-size="10.00">time.h</text>
</a>
</g>
</g>
<!-- Node2&#45;&gt;Node3 -->
<g id="edge2" class="edge">
<title>Node2&#45;&gt;Node3</title>
<path fill="none" stroke="midnightblue" d="M1016.62,-412.24C783.9,-412.29 0,-404.81 0,-302 0,-302 0,-302 0,-121 0,-86.81 16.6,-49.76 27.86,-28.57"/>
<polygon fill="midnightblue" stroke="midnightblue" points="30.95,-30.22 32.72,-19.77 24.82,-26.83 30.95,-30.22"/>
</g>
<!-- Node4 -->
<g id="node4" class="node">
<title>Node4</title>
<g id="a_node4"><a xlink:title=" ">
<polygon fill="none" stroke="#bfbfbf" points="540.5,-56.5 540.5,-75.5 599.5,-75.5 599.5,-56.5 540.5,-56.5"/>
<text text-anchor="middle" x="570" y="-63.5" font-family="Helvetica,sans-Serif" font-size="10.00">curl/curl.h</text>
</a>
</g>
</g>
<!-- Node2&#45;&gt;Node4 -->
<g id="edge3" class="edge">
<title>Node2&#45;&gt;Node4</title>
<path fill="none" stroke="midnightblue" d="M1016.83,-410.13C838.61,-403.45 344.32,-374.31 247,-255 161.95,-150.73 426.65,-92.03 530.27,-73.49"/>
<polygon fill="midnightblue" stroke="midnightblue" points="531.11,-76.89 540.35,-71.72 529.9,-70 531.11,-76.89"/>
</g>
<!-- Node5 -->
<g id="node5" class="node">
<title>Node5</title>
<g id="a_node5"><a xlink:title=" ">
<polygon fill="none" stroke="#bfbfbf" points="1191.5,-168.5 1191.5,-187.5 1238.5,-187.5 1238.5,-168.5 1191.5,-168.5"/>
<text text-anchor="middle" x="1215" y="-175.5" font-family="Helvetica,sans-Serif" font-size="10.00">ctype.h</text>
</a>
</g>
</g>
<!-- Node2&#45;&gt;Node5 -->
<g id="edge4" class="edge">
<title>Node2&#45;&gt;Node5</title>
<path fill="none" stroke="midnightblue" d="M1092.39,-403.33C1119.52,-381.83 1187.49,-322.88 1211,-255 1217.47,-236.31 1217.74,-213.5 1216.85,-197.77"/>
<polygon fill="midnightblue" stroke="midnightblue" points="1220.34,-197.43 1216.07,-187.73 1213.36,-197.97 1220.34,-197.43"/>
</g>
<!-- Node6 -->
<g id="node6" class="node">
<title>Node6</title>
<g id="a_node6"><a xlink:title=" ">
<polygon fill="none" stroke="#bfbfbf" points="1016,-291.5 1016,-310.5 1072,-310.5 1072,-291.5 1016,-291.5"/>
<text text-anchor="middle" x="1044" y="-298.5" font-family="Helvetica,sans-Serif" font-size="10.00">libpq&#45;fe.h</text>
</a>
</g>
</g>
<!-- Node2&#45;&gt;Node6 -->
<g id="edge5" class="edge">
<title>Node2&#45;&gt;Node6</title>
<path fill="none" stroke="midnightblue" d="M1078.1,-403.37C1072.1,-385.54 1058.23,-344.3 1050.15,-320.27"/>
<polygon fill="midnightblue" stroke="midnightblue" points="1053.4,-318.95 1046.89,-310.59 1046.76,-321.19 1053.4,-318.95"/>
</g>
<!-- Node7 -->
<g id="node7" class="node">
<title>Node7</title>
<g id="a_node7"><a xlink:title=" ">
<polygon fill="none" stroke="#bfbfbf" points="1217,-56.5 1217,-75.5 1265,-75.5 1265,-56.5 1217,-56.5"/>
<text text-anchor="middle" x="1241" y="-63.5" font-family="Helvetica,sans-Serif" font-size="10.00">stdint.h</text>
</a>
</g>
</g>
<!-- Node2&#45;&gt;Node7 -->
<g id="edge6" class="edge">
<title>Node2&#45;&gt;Node7</title>
<path fill="none" stroke="midnightblue" d="M1136.35,-403.47C1191.49,-391.46 1268,-363.68 1268,-302 1268,-302 1268,-302 1268,-177 1268,-143.86 1256.3,-106.68 1248.3,-85.14"/>
<polygon fill="midnightblue" stroke="midnightblue" points="1251.51,-83.73 1244.64,-75.66 1244.98,-86.25 1251.51,-83.73"/>
</g>
<!-- Node8 -->
<g id="node8" class="node">
<title>Node8</title>
<g id="a_node8"><a xlink:href="transform_8h.html" target="_top" xlink:title=" ">
<polygon fill="none" stroke="black" points="879.5,-347.5 879.5,-366.5 944.5,-366.5 944.5,-347.5 879.5,-347.5"/>
<text text-anchor="middle" x="912" y="-354.5" font-family="Helvetica,sans-Serif" font-size="10.00">transform.h</text>
</a>
</g>
</g>
<!-- Node2&#45;&gt;Node8 -->
<g id="edge7" class="edge">
<title>Node2&#45;&gt;Node8</title>
<path fill="none" stroke="midnightblue" d="M1054.22,-403.44C1025.67,-394.32 980.27,-379.81 948.46,-369.65"/>
<polygon fill="midnightblue" stroke="midnightblue" points="949.24,-366.23 938.65,-366.52 947.11,-372.89 949.24,-366.23"/>
</g>
<!-- Node14 -->
<g id="node14" class="node">
<title>Node14</title>
<g id="a_node14"><a xlink:href="stations_8h.html" target="_top" xlink:title=" ">
<polygon fill="none" stroke="black" points="1118,-230 1118,-249 1202,-249 1202,-230 1118,-230"/>
<text text-anchor="middle" x="1160" y="-237" font-family="Helvetica,sans-Serif" font-size="10.00">BOM/stations.h</text>
</a>
</g>
</g>
<!-- Node2&#45;&gt;Node14 -->
<g id="edge66" class="edge">
<title>Node2&#45;&gt;Node14</title>
<path fill="none" stroke="midnightblue" d="M1088.63,-403.2C1095.91,-394.48 1106.79,-380.5 1114,-367 1133.48,-330.55 1147.99,-284.1 1155.11,-258.85"/>
<polygon fill="midnightblue" stroke="midnightblue" points="1158.51,-259.71 1157.78,-249.14 1151.75,-257.86 1158.51,-259.71"/>
</g>
<!-- Node16 -->
<g id="node16" class="node">
<title>Node16</title>
<g id="a_node16"><a xlink:href="ftp_8h.html" target="_top" xlink:title=" ">
<polygon fill="none" stroke="black" points="1030.5,-168.5 1030.5,-187.5 1065.5,-187.5 1065.5,-168.5 1030.5,-168.5"/>
<text text-anchor="middle" x="1048" y="-175.5" font-family="Helvetica,sans-Serif" font-size="10.00">ftp.h</text>
</a>
</g>
</g>
<!-- Node2&#45;&gt;Node16 -->
<g id="edge67" class="edge">
<title>Node2&#45;&gt;Node16</title>
<path fill="none" stroke="midnightblue" d="M1081.83,-403.43C1083.59,-383.55 1087.03,-332.79 1081,-291 1076.1,-257.02 1063.24,-218.97 1055.09,-197.12"/>
<polygon fill="midnightblue" stroke="midnightblue" points="1058.27,-195.62 1051.43,-187.52 1051.73,-198.12 1058.27,-195.62"/>
</g>
<!-- Node8&#45;&gt;Node6 -->
<g id="edge8" class="edge">
<title>Node8&#45;&gt;Node6</title>
<path fill="none" stroke="midnightblue" d="M932.92,-347.44C954.74,-338.52 989.15,-324.44 1013.89,-314.32"/>
<polygon fill="midnightblue" stroke="midnightblue" points="1015.25,-317.54 1023.18,-310.52 1012.6,-311.06 1015.25,-317.54"/>
</g>
<!-- Node9 -->
<g id="node9" class="node">
<title>Node9</title>
<g id="a_node9"><a xlink:title=" ">
<polygon fill="none" stroke="#bfbfbf" points="136.5,-0.5 136.5,-19.5 181.5,-19.5 181.5,-0.5 136.5,-0.5"/>
<text text-anchor="middle" x="159" y="-7.5" font-family="Helvetica,sans-Serif" font-size="10.00">stdio.h</text>
</a>
</g>
</g>
<!-- Node8&#45;&gt;Node9 -->
<g id="edge9" class="edge">
<title>Node8&#45;&gt;Node9</title>
<path fill="none" stroke="midnightblue" d="M879.29,-356.54C746.6,-358.03 250.43,-356.63 141,-255 92.55,-210.01 88.72,-177.15 100,-112 104.51,-85.96 106.67,-78.82 120,-56 126.18,-45.42 134.99,-34.99 142.68,-26.84"/>
<polygon fill="midnightblue" stroke="midnightblue" points="145.35,-29.12 149.85,-19.53 140.35,-24.22 145.35,-29.12"/>
</g>
<!-- Node10 -->
<g id="node10" class="node">
<title>Node10</title>
<g id="a_node10"><a xlink:title=" ">
<polygon fill="none" stroke="#bfbfbf" points="837.5,-56.5 837.5,-75.5 884.5,-75.5 884.5,-56.5 837.5,-56.5"/>
<text text-anchor="middle" x="861" y="-63.5" font-family="Helvetica,sans-Serif" font-size="10.00">stdlib.h</text>
</a>
</g>
</g>
<!-- Node8&#45;&gt;Node10 -->
<g id="edge10" class="edge">
<title>Node8&#45;&gt;Node10</title>
<path fill="none" stroke="midnightblue" d="M912,-347.31C912,-328.06 912,-280.4 912,-240.5 912,-240.5 912,-240.5 912,-177 912,-141.24 889.55,-104.51 874.44,-83.84"/>
<polygon fill="midnightblue" stroke="midnightblue" points="877.14,-81.61 868.31,-75.77 871.57,-85.85 877.14,-81.61"/>
</g>
<!-- Node11 -->
<g id="node11" class="node">
<title>Node11</title>
<g id="a_node11"><a xlink:href="log_8h.html" target="_top" xlink:title=" ">
<polygon fill="none" stroke="black" points="287.5,-56.5 287.5,-75.5 324.5,-75.5 324.5,-56.5 287.5,-56.5"/>
<text text-anchor="middle" x="306" y="-63.5" font-family="Helvetica,sans-Serif" font-size="10.00">log.h</text>
</a>
</g>
</g>
<!-- Node8&#45;&gt;Node11 -->
<g id="edge11" class="edge">
<title>Node8&#45;&gt;Node11</title>
<path fill="none" stroke="midnightblue" d="M879.1,-354.26C737.86,-346.39 190,-311.27 190,-240.5 190,-240.5 190,-240.5 190,-177 190,-128.55 243.95,-95.02 278.27,-78.6"/>
<polygon fill="midnightblue" stroke="midnightblue" points="279.74,-81.77 287.36,-74.42 276.81,-75.41 279.74,-81.77"/>
</g>
<!-- Node8&#45;&gt;Node14 -->
<g id="edge16" class="edge">
<title>Node8&#45;&gt;Node14</title>
<path fill="none" stroke="midnightblue" d="M922.5,-347.34C939.38,-333.75 974.04,-307.31 1007,-291 1027.25,-280.98 1082.88,-263.49 1121.17,-251.96"/>
<polygon fill="midnightblue" stroke="midnightblue" points="1122.4,-255.24 1130.98,-249.01 1120.39,-248.53 1122.4,-255.24"/>
</g>
<!-- Node19 -->
<g id="node19" class="node">
<title>Node19</title>
<g id="a_node19"><a xlink:href="utils_8h.html" target="_top" xlink:title=" ">
<polygon fill="none" stroke="black" points="940,-112.5 940,-131.5 982,-131.5 982,-112.5 940,-112.5"/>
<text text-anchor="middle" x="961" y="-119.5" font-family="Helvetica,sans-Serif" font-size="10.00">utils.h</text>
</a>
</g>
</g>
<!-- Node8&#45;&gt;Node19 -->
<g id="edge65" class="edge">
<title>Node8&#45;&gt;Node19</title>
<path fill="none" stroke="midnightblue" d="M914.99,-347.46C918.05,-338.47 922.81,-323.87 926,-311 941.14,-249.89 953.06,-176.15 958.22,-142.03"/>
<polygon fill="midnightblue" stroke="midnightblue" points="961.74,-142.1 959.75,-131.7 954.82,-141.07 961.74,-142.1"/>
</g>
<!-- Node23 -->
<g id="node23" class="node">
<title>Node23</title>
<g id="a_node23"><a xlink:href="harvest__area_8h.html" target="_top" xlink:title=" ">
<polygon fill="none" stroke="black" points="256,-224.5 256,-254.5 368,-254.5 368,-224.5 256,-224.5"/>
<text text-anchor="start" x="264" y="-242.5" font-family="Helvetica,sans-Serif" font-size="10.00">FoodAuthority/harvest</text>
<text text-anchor="middle" x="312" y="-231.5" font-family="Helvetica,sans-Serif" font-size="10.00">_area.h</text>
</a>
</g>
</g>
<!-- Node8&#45;&gt;Node23 -->
<g id="edge36" class="edge">
<title>Node8&#45;&gt;Node23</title>
<path fill="none" stroke="midnightblue" d="M879.12,-351.81C824.49,-344.67 711.64,-329.13 617,-311 533.7,-295.04 438.61,-272.34 377.07,-257.05"/>
<polygon fill="midnightblue" stroke="midnightblue" points="377.66,-253.59 367.11,-254.57 375.97,-260.38 377.66,-253.59"/>
</g>
<!-- Node25 -->
<g id="node25" class="node">
<title>Node25</title>
<g id="a_node25"><a xlink:href="location_8h.html" target="_top" xlink:title=" ">
<polygon fill="none" stroke="black" points="625.5,-291.5 625.5,-310.5 742.5,-310.5 742.5,-291.5 625.5,-291.5"/>
<text text-anchor="middle" x="684" y="-298.5" font-family="Helvetica,sans-Serif" font-size="10.00">WillyWeather/location.h</text>
</a>
</g>
</g>
<!-- Node8&#45;&gt;Node25 -->
<g id="edge47" class="edge">
<title>Node8&#45;&gt;Node25</title>
<path fill="none" stroke="midnightblue" d="M879.33,-348.26C840.15,-338.98 774.22,-323.37 729.93,-312.88"/>
<polygon fill="midnightblue" stroke="midnightblue" points="730.53,-309.42 719.99,-310.52 728.92,-316.23 730.53,-309.42"/>
</g>
<!-- Node11&#45;&gt;Node3 -->
<g id="edge15" class="edge">
<title>Node11&#45;&gt;Node3</title>
<path fill="none" stroke="midnightblue" d="M287.22,-58.37C284.48,-57.51 281.68,-56.69 279,-56 205.03,-36.86 116.29,-22.44 69.87,-15.53"/>
<polygon fill="midnightblue" stroke="midnightblue" points="70.23,-12.04 59.82,-14.05 69.21,-18.96 70.23,-12.04"/>
</g>
<!-- Node11&#45;&gt;Node9 -->
<g id="edge12" class="edge">
<title>Node11&#45;&gt;Node9</title>
<path fill="none" stroke="midnightblue" d="M287.38,-58.16C263.23,-49.29 220.7,-33.67 191.24,-22.85"/>
<polygon fill="midnightblue" stroke="midnightblue" points="192.4,-19.54 181.8,-19.38 189.98,-26.11 192.4,-19.54"/>
</g>
<!-- Node12 -->
<g id="node12" class="node">
<title>Node12</title>
<g id="a_node12"><a xlink:title=" ">
<polygon fill="none" stroke="#bfbfbf" points="244.5,-0.5 244.5,-19.5 295.5,-19.5 295.5,-0.5 244.5,-0.5"/>
<text text-anchor="middle" x="270" y="-7.5" font-family="Helvetica,sans-Serif" font-size="10.00">stdarg.h</text>
</a>
</g>
</g>
<!-- Node11&#45;&gt;Node12 -->
<g id="edge13" class="edge">
<title>Node11&#45;&gt;Node12</title>
<path fill="none" stroke="midnightblue" d="M300.06,-56.08C295.02,-48.53 287.66,-37.49 281.49,-28.23"/>
<polygon fill="midnightblue" stroke="midnightblue" points="284.29,-26.13 275.83,-19.75 278.47,-30.01 284.29,-26.13"/>
</g>
<!-- Node13 -->
<g id="node13" class="node">
<title>Node13</title>
<g id="a_node13"><a xlink:title=" ">
<polygon fill="none" stroke="#bfbfbf" points="314,-0.5 314,-19.5 370,-19.5 370,-0.5 314,-0.5"/>
<text text-anchor="middle" x="342" y="-7.5" font-family="Helvetica,sans-Serif" font-size="10.00">stdbool.h</text>
</a>
</g>
</g>
<!-- Node11&#45;&gt;Node13 -->
<g id="edge14" class="edge">
<title>Node11&#45;&gt;Node13</title>
<path fill="none" stroke="midnightblue" d="M311.94,-56.08C316.98,-48.53 324.34,-37.49 330.51,-28.23"/>
<polygon fill="midnightblue" stroke="midnightblue" points="333.53,-30.01 336.17,-19.75 327.71,-26.13 333.53,-30.01"/>
</g>
<!-- Node14&#45;&gt;Node5 -->
<g id="edge18" class="edge">
<title>Node14&#45;&gt;Node5</title>
<path fill="none" stroke="midnightblue" d="M1167.88,-229.98C1176.29,-220.87 1189.82,-206.24 1200.23,-194.98"/>
<polygon fill="midnightblue" stroke="midnightblue" points="1202.92,-197.23 1207.13,-187.51 1197.78,-192.48 1202.92,-197.23"/>
</g>
<!-- Node15 -->
<g id="node15" class="node">
<title>Node15</title>
<g id="a_node15"><a xlink:title=" ">
<polygon fill="none" stroke="#bfbfbf" points="1127,-56.5 1127,-75.5 1173,-75.5 1173,-56.5 1127,-56.5"/>
<text text-anchor="middle" x="1150" y="-63.5" font-family="Helvetica,sans-Serif" font-size="10.00">math.h</text>
</a>
</g>
</g>
<!-- Node14&#45;&gt;Node15 -->
<g id="edge17" class="edge">
<title>Node14&#45;&gt;Node15</title>
<path fill="none" stroke="midnightblue" d="M1159.49,-229.76C1157.94,-203.15 1153.25,-122.71 1151.1,-85.84"/>
<polygon fill="midnightblue" stroke="midnightblue" points="1154.57,-85.3 1150.5,-75.52 1147.58,-85.71 1154.57,-85.3"/>
</g>
<!-- Node14&#45;&gt;Node16 -->
<g id="edge19" class="edge">
<title>Node14&#45;&gt;Node16</title>
<path fill="none" stroke="midnightblue" d="M1143.95,-229.98C1125.41,-220.12 1094.66,-203.79 1072.98,-192.27"/>
<polygon fill="midnightblue" stroke="midnightblue" points="1074.49,-189.11 1064.02,-187.51 1071.21,-195.29 1074.49,-189.11"/>
</g>
<!-- Node14&#45;&gt;Node19 -->
<g id="edge35" class="edge">
<title>Node14&#45;&gt;Node19</title>
<path fill="none" stroke="midnightblue" d="M1122.97,-230C1093.87,-222.17 1053.18,-208.61 1022,-188 1002.33,-175 984.46,-154.45 973.22,-139.94"/>
<polygon fill="midnightblue" stroke="midnightblue" points="975.92,-137.71 967.12,-131.81 970.32,-141.91 975.92,-137.71"/>
</g>
<!-- Node16&#45;&gt;Node4 -->
<g id="edge22" class="edge">
<title>Node16&#45;&gt;Node4</title>
<path fill="none" stroke="midnightblue" d="M1030.42,-172.95C961.45,-157.08 708.27,-98.82 609.67,-76.13"/>
<polygon fill="midnightblue" stroke="midnightblue" points="610.33,-72.69 599.8,-73.86 608.76,-79.51 610.33,-72.69"/>
</g>
<!-- Node16&#45;&gt;Node10 -->
<g id="edge20" class="edge">
<title>Node16&#45;&gt;Node10</title>
<path fill="none" stroke="midnightblue" d="M1047.29,-168.47C1045.68,-154.59 1040.47,-127.14 1024,-112 1023.39,-111.44 941.98,-89.13 894.46,-76.14"/>
<polygon fill="midnightblue" stroke="midnightblue" points="895.16,-72.7 884.59,-73.44 893.31,-79.45 895.16,-72.7"/>
</g>
<!-- Node17 -->
<g id="node17" class="node">
<title>Node17</title>
<g id="a_node17"><a xlink:title=" ">
<polygon fill="none" stroke="#bfbfbf" points="698,-56.5 698,-75.5 746,-75.5 746,-56.5 698,-56.5"/>
<text text-anchor="middle" x="722" y="-63.5" font-family="Helvetica,sans-Serif" font-size="10.00">string.h</text>
</a>
</g>
</g>
<!-- Node16&#45;&gt;Node17 -->
<g id="edge21" class="edge">
<title>Node16&#45;&gt;Node17</title>
<path fill="none" stroke="midnightblue" d="M1043.02,-168.13C1034.43,-153.74 1015.39,-125.59 991,-112 951.31,-89.89 819.97,-75.64 756.69,-69.89"/>
<polygon fill="midnightblue" stroke="midnightblue" points="756.69,-66.38 746.42,-68.98 756.07,-73.35 756.69,-66.38"/>
</g>
<!-- Node18 -->
<g id="node18" class="node">
<title>Node18</title>
<g id="a_node18"><a xlink:title=" ">
<polygon fill="none" stroke="#bfbfbf" points="1063,-56.5 1063,-75.5 1109,-75.5 1109,-56.5 1063,-56.5"/>
<text text-anchor="middle" x="1086" y="-63.5" font-family="Helvetica,sans-Serif" font-size="10.00">errno.h</text>
</a>
</g>
</g>
<!-- Node16&#45;&gt;Node18 -->
<g id="edge23" class="edge">
<title>Node16&#45;&gt;Node18</title>
<path fill="none" stroke="midnightblue" d="M1050.98,-168.37C1057.14,-150.54 1071.39,-109.3 1079.69,-85.27"/>
<polygon fill="midnightblue" stroke="midnightblue" points="1083.07,-86.19 1083.03,-75.59 1076.46,-83.9 1083.07,-86.19"/>
</g>
<!-- Node16&#45;&gt;Node19 -->
<g id="edge24" class="edge">
<title>Node16&#45;&gt;Node19</title>
<path fill="none" stroke="midnightblue" d="M1034.02,-168.32C1020.45,-159.9 999.62,-146.97 983.68,-137.07"/>
<polygon fill="midnightblue" stroke="midnightblue" points="985.29,-133.95 974.94,-131.65 981.59,-139.9 985.29,-133.95"/>
</g>
<!-- Node19&#45;&gt;Node4 -->
<g id="edge27" class="edge">
<title>Node19&#45;&gt;Node4</title>
<path fill="none" stroke="midnightblue" d="M939.98,-118.1C877.38,-109.45 691.49,-83.78 609.55,-72.46"/>
<polygon fill="midnightblue" stroke="midnightblue" points="610.01,-68.99 599.62,-71.09 609.05,-75.93 610.01,-68.99"/>
</g>
<!-- Node19&#45;&gt;Node7 -->
<g id="edge28" class="edge">
<title>Node19&#45;&gt;Node7</title>
<path fill="none" stroke="midnightblue" d="M982.05,-116.94C1030.16,-107.66 1148.53,-84.83 1207.08,-73.54"/>
<polygon fill="midnightblue" stroke="midnightblue" points="1207.8,-76.97 1216.96,-71.64 1206.47,-70.09 1207.8,-76.97"/>
</g>
<!-- Node19&#45;&gt;Node10 -->
<g id="edge25" class="edge">
<title>Node19&#45;&gt;Node10</title>
<path fill="none" stroke="midnightblue" d="M944.93,-112.32C929.04,-103.74 904.49,-90.49 886.04,-80.52"/>
<polygon fill="midnightblue" stroke="midnightblue" points="887.49,-77.33 877.03,-75.65 884.16,-83.49 887.49,-77.33"/>
</g>
<!-- Node19&#45;&gt;Node11 -->
<g id="edge34" class="edge">
<title>Node19&#45;&gt;Node11</title>
<path fill="none" stroke="midnightblue" d="M939.95,-119.26C843.74,-111.33 445.81,-78.53 334.84,-69.38"/>
<polygon fill="midnightblue" stroke="midnightblue" points="334.99,-65.88 324.74,-68.54 334.41,-72.85 334.99,-65.88"/>
</g>
<!-- Node19&#45;&gt;Node15 -->
<g id="edge33" class="edge">
<title>Node19&#45;&gt;Node15</title>
<path fill="none" stroke="midnightblue" d="M982.31,-114.91C1015.1,-105.54 1078.18,-87.52 1116.93,-76.45"/>
<polygon fill="midnightblue" stroke="midnightblue" points="1118.05,-79.77 1126.7,-73.66 1116.13,-73.04 1118.05,-79.77"/>
</g>
<!-- Node19&#45;&gt;Node17 -->
<g id="edge26" class="edge">
<title>Node19&#45;&gt;Node17</title>
<path fill="none" stroke="midnightblue" d="M939.79,-116.21C898.41,-106.86 806.57,-86.11 756.38,-74.77"/>
<polygon fill="midnightblue" stroke="midnightblue" points="756.86,-71.29 746.34,-72.5 755.32,-78.12 756.86,-71.29"/>
</g>
<!-- Node19&#45;&gt;Node18 -->
<g id="edge32" class="edge">
<title>Node19&#45;&gt;Node18</title>
<path fill="none" stroke="midnightblue" d="M980.81,-112.44C1001.29,-103.6 1033.48,-89.69 1056.86,-79.59"/>
<polygon fill="midnightblue" stroke="midnightblue" points="1058.49,-82.7 1066.29,-75.52 1055.72,-76.27 1058.49,-82.7"/>
</g>
<!-- Node20 -->
<g id="node20" class="node">
<title>Node20</title>
<g id="a_node20"><a xlink:title=" ">
<polygon fill="none" stroke="#bfbfbf" points="186.5,-56.5 186.5,-75.5 269.5,-75.5 269.5,-56.5 186.5,-56.5"/>
<text text-anchor="middle" x="228" y="-63.5" font-family="Helvetica,sans-Serif" font-size="10.00">cjson/cJSON.h</text>
</a>
</g>
</g>
<!-- Node19&#45;&gt;Node20 -->
<g id="edge29" class="edge">
<title>Node19&#45;&gt;Node20</title>
<path fill="none" stroke="midnightblue" d="M939.99,-120.45C857.35,-118.1 546.49,-107.63 279.95,-75.97"/>
<polygon fill="midnightblue" stroke="midnightblue" points="280.04,-72.46 269.69,-74.74 279.2,-79.41 280.04,-72.46"/>
</g>
<!-- Node21 -->
<g id="node21" class="node">
<title>Node21</title>
<g id="a_node21"><a xlink:title=" ">
<polygon fill="none" stroke="#bfbfbf" points="985.5,-56.5 985.5,-75.5 1044.5,-75.5 1044.5,-56.5 985.5,-56.5"/>
<text text-anchor="middle" x="1015" y="-63.5" font-family="Helvetica,sans-Serif" font-size="10.00">sys/stat.h</text>
</a>
</g>
</g>
<!-- Node19&#45;&gt;Node21 -->
<g id="edge30" class="edge">
<title>Node19&#45;&gt;Node21</title>
<path fill="none" stroke="midnightblue" d="M969.92,-112.08C977.78,-104.22 989.43,-92.57 998.92,-83.08"/>
<polygon fill="midnightblue" stroke="midnightblue" points="1001.65,-85.3 1006.25,-75.75 996.7,-80.35 1001.65,-85.3"/>
</g>
<!-- Node22 -->
<g id="node22" class="node">
<title>Node22</title>
<g id="a_node22"><a xlink:title=" ">
<polygon fill="none" stroke="#bfbfbf" points="902.5,-56.5 902.5,-75.5 967.5,-75.5 967.5,-56.5 902.5,-56.5"/>
<text text-anchor="middle" x="935" y="-63.5" font-family="Helvetica,sans-Serif" font-size="10.00">sys/types.h</text>
</a>
</g>
</g>
<!-- Node19&#45;&gt;Node22 -->
<g id="edge31" class="edge">
<title>Node19&#45;&gt;Node22</title>
<path fill="none" stroke="midnightblue" d="M956.71,-112.08C953.15,-104.69 947.98,-93.95 943.58,-84.81"/>
<polygon fill="midnightblue" stroke="midnightblue" points="946.71,-83.24 939.21,-75.75 940.4,-86.28 946.71,-83.24"/>
</g>
<!-- Node23&#45;&gt;Node3 -->
<g id="edge39" class="edge">
<title>Node23&#45;&gt;Node3</title>
<path fill="none" stroke="midnightblue" d="M291.6,-224.47C252.83,-197.47 166.43,-135.63 100,-76 82.7,-60.47 64.53,-40.99 52.36,-27.42"/>
<polygon fill="midnightblue" stroke="midnightblue" points="54.88,-24.99 45.63,-19.83 49.64,-29.63 54.88,-24.99"/>
</g>
<!-- Node23&#45;&gt;Node4 -->
<g id="edge37" class="edge">
<title>Node23&#45;&gt;Node4</title>
<path fill="none" stroke="midnightblue" d="M333.11,-224.47C381.5,-192.3 499.99,-113.54 548.63,-81.21"/>
<polygon fill="midnightblue" stroke="midnightblue" points="550.73,-84.01 557.12,-75.56 546.86,-78.18 550.73,-84.01"/>
</g>
<!-- Node23&#45;&gt;Node11 -->
<g id="edge40" class="edge">
<title>Node23&#45;&gt;Node11</title>
<path fill="none" stroke="midnightblue" d="M311.51,-224.47C310.43,-193.7 307.87,-120.33 306.65,-85.7"/>
<polygon fill="midnightblue" stroke="midnightblue" points="310.15,-85.43 306.3,-75.56 303.15,-85.68 310.15,-85.43"/>
</g>
<!-- Node23&#45;&gt;Node19 -->
<g id="edge46" class="edge">
<title>Node23&#45;&gt;Node19</title>
<path fill="none" stroke="midnightblue" d="M368.01,-233.37C444.22,-225.91 584.65,-210.47 703,-188 785.87,-172.27 881.78,-145.91 929.97,-132.09"/>
<polygon fill="midnightblue" stroke="midnightblue" points="931.15,-135.39 939.78,-129.26 929.21,-128.66 931.15,-135.39"/>
</g>
<!-- Node23&#45;&gt;Node20 -->
<g id="edge38" class="edge">
<title>Node23&#45;&gt;Node20</title>
<path fill="none" stroke="midnightblue" d="M303.1,-224.41C290.67,-204.38 267.86,-166.28 252,-132 244.9,-116.65 238.35,-98.55 233.9,-85.35"/>
<polygon fill="midnightblue" stroke="midnightblue" points="237.14,-83.99 230.69,-75.59 230.49,-86.18 237.14,-83.99"/>
</g>
<!-- Node24 -->
<g id="node24" class="node">
<title>Node24</title>
<g id="a_node24"><a xlink:href="http_8h.html" target="_top" xlink:title=" ">
<polygon fill="none" stroke="black" points="652.5,-168.5 652.5,-187.5 693.5,-187.5 693.5,-168.5 652.5,-168.5"/>
<text text-anchor="middle" x="673" y="-175.5" font-family="Helvetica,sans-Serif" font-size="10.00">http.h</text>
</a>
</g>
</g>
<!-- Node23&#45;&gt;Node24 -->
<g id="edge41" class="edge">
<title>Node23&#45;&gt;Node24</title>
<path fill="none" stroke="midnightblue" d="M368.01,-229.27C445.17,-216.55 581.5,-194.08 642.27,-184.06"/>
<polygon fill="midnightblue" stroke="midnightblue" points="643.08,-187.48 652.38,-182.4 641.94,-180.57 643.08,-187.48"/>
</g>
<!-- Node24&#45;&gt;Node4 -->
<g id="edge44" class="edge">
<title>Node24&#45;&gt;Node4</title>
<path fill="none" stroke="midnightblue" d="M664.92,-168.37C647.69,-149.97 607.15,-106.67 585.03,-83.05"/>
<polygon fill="midnightblue" stroke="midnightblue" points="587.43,-80.5 578.04,-75.59 582.32,-85.28 587.43,-80.5"/>
</g>
<!-- Node24&#45;&gt;Node10 -->
<g id="edge42" class="edge">
<title>Node24&#45;&gt;Node10</title>
<path fill="none" stroke="midnightblue" d="M687.75,-168.37C720.29,-149.33 798.42,-103.62 837.67,-80.65"/>
<polygon fill="midnightblue" stroke="midnightblue" points="839.45,-83.66 846.32,-75.59 835.92,-77.62 839.45,-83.66"/>
</g>
<!-- Node24&#45;&gt;Node17 -->
<g id="edge43" class="edge">
<title>Node24&#45;&gt;Node17</title>
<path fill="none" stroke="midnightblue" d="M676.84,-168.37C684.82,-150.46 703.33,-108.92 714,-84.95"/>
<polygon fill="midnightblue" stroke="midnightblue" points="717.3,-86.15 718.17,-75.59 710.91,-83.3 717.3,-86.15"/>
</g>
<!-- Node24&#45;&gt;Node19 -->
<g id="edge45" class="edge">
<title>Node24&#45;&gt;Node19</title>
<path fill="none" stroke="midnightblue" d="M693.71,-173.12C743.6,-163.76 870.65,-139.94 929.81,-128.85"/>
<polygon fill="midnightblue" stroke="midnightblue" points="930.51,-132.28 939.7,-126.99 929.22,-125.4 930.51,-132.28"/>
</g>
<!-- Node25&#45;&gt;Node4 -->
<g id="edge53" class="edge">
<title>Node25&#45;&gt;Node4</title>
<path fill="none" stroke="midnightblue" d="M625.22,-292.55C580.46,-285.53 524.18,-273.32 510,-255 468.62,-201.56 526.65,-118.84 555.45,-83.7"/>
<polygon fill="midnightblue" stroke="midnightblue" points="558.3,-85.74 562.06,-75.84 552.94,-81.24 558.3,-85.74"/>
</g>
<!-- Node25&#45;&gt;Node9 -->
<g id="edge50" class="edge">
<title>Node25&#45;&gt;Node9</title>
<path fill="none" stroke="midnightblue" d="M625.41,-299.86C479.96,-297.92 114,-282.76 114,-179 114,-179 114,-179 114,-121 114,-85.93 133.84,-48.94 147.17,-28.04"/>
<polygon fill="midnightblue" stroke="midnightblue" points="150.13,-29.9 152.74,-19.63 144.3,-26.03 150.13,-29.9"/>
</g>
<!-- Node25&#45;&gt;Node10 -->
<g id="edge49" class="edge">
<title>Node25&#45;&gt;Node10</title>
<path fill="none" stroke="midnightblue" d="M690.51,-291.43C716.47,-257.26 812.91,-130.31 848.07,-84.03"/>
<polygon fill="midnightblue" stroke="midnightblue" points="850.98,-85.98 854.24,-75.9 845.41,-81.74 850.98,-85.98"/>
</g>
<!-- Node25&#45;&gt;Node11 -->
<g id="edge54" class="edge">
<title>Node25&#45;&gt;Node11</title>
<path fill="none" stroke="midnightblue" d="M625.07,-294.79C585.41,-289.28 533.07,-278 492,-255 412.23,-210.33 344.02,-121.41 317.65,-84.1"/>
<polygon fill="midnightblue" stroke="midnightblue" points="320.45,-82 311.87,-75.79 314.7,-85.99 320.45,-82"/>
</g>
<!-- Node25&#45;&gt;Node15 -->
<g id="edge51" class="edge">
<title>Node25&#45;&gt;Node15</title>
<path fill="none" stroke="midnightblue" d="M742.75,-297.08C825.33,-290.14 976.6,-266.77 1075,-188 1109.76,-160.17 1132.75,-111.58 1143.31,-85.23"/>
<polygon fill="midnightblue" stroke="midnightblue" points="1146.64,-86.31 1146.97,-75.72 1140.11,-83.8 1146.64,-86.31"/>
</g>
<!-- Node25&#45;&gt;Node17 -->
<g id="edge48" class="edge">
<title>Node25&#45;&gt;Node17</title>
<path fill="none" stroke="midnightblue" d="M685.57,-291.38C687.21,-282.33 689.83,-267.67 692,-255 702.56,-193.22 713.94,-119.8 719.13,-85.89"/>
<polygon fill="midnightblue" stroke="midnightblue" points="722.64,-86.04 720.69,-75.63 715.72,-84.99 722.64,-86.04"/>
</g>
<!-- Node25&#45;&gt;Node19 -->
<g id="edge64" class="edge">
<title>Node25&#45;&gt;Node19</title>
<path fill="none" stroke="midnightblue" d="M742.84,-292.92C776.28,-286.82 817.78,-275.57 850,-255 896.96,-225.02 934.29,-168.89 951.19,-140.46"/>
<polygon fill="midnightblue" stroke="midnightblue" points="954.31,-142.05 956.29,-131.65 948.25,-138.55 954.31,-142.05"/>
</g>
<!-- Node25&#45;&gt;Node20 -->
<g id="edge52" class="edge">
<title>Node25&#45;&gt;Node20</title>
<path fill="none" stroke="midnightblue" d="M625.43,-298.02C512.46,-293.62 273.23,-281.28 247,-255 201.64,-209.55 214.54,-123.69 223.12,-85.79"/>
<polygon fill="midnightblue" stroke="midnightblue" points="226.62,-86.21 225.58,-75.66 219.82,-84.55 226.62,-86.21"/>
</g>
<!-- Node25&#45;&gt;Node24 -->
<g id="edge63" class="edge">
<title>Node25&#45;&gt;Node24</title>
<path fill="none" stroke="midnightblue" d="M683.21,-291.3C681.44,-271.85 677.14,-224.49 674.72,-197.9"/>
<polygon fill="midnightblue" stroke="midnightblue" points="678.17,-197.27 673.78,-187.62 671.2,-197.9 678.17,-197.27"/>
</g>
<!-- Node26 -->
<g id="node26" class="node">
<title>Node26</title>
<g id="a_node26"><a xlink:href="_willy_weather_2authenticate_8h.html" target="_top" xlink:title=" ">
<polygon fill="none" stroke="black" points="518.5,-230 518.5,-249 655.5,-249 655.5,-230 518.5,-230"/>
<text text-anchor="middle" x="587" y="-237" font-family="Helvetica,sans-Serif" font-size="10.00">WillyWeather/authenticate.h</text>
</a>
</g>
</g>
<!-- Node25&#45;&gt;Node26 -->
<g id="edge55" class="edge">
<title>Node25&#45;&gt;Node26</title>
<path fill="none" stroke="midnightblue" d="M670.1,-291.48C654.33,-281.8 628.36,-265.87 609.65,-254.39"/>
<polygon fill="midnightblue" stroke="midnightblue" points="611.23,-251.25 600.87,-249.01 607.57,-257.22 611.23,-251.25"/>
</g>
<!-- Node26&#45;&gt;Node4 -->
<g id="edge60" class="edge">
<title>Node26&#45;&gt;Node4</title>
<path fill="none" stroke="midnightblue" d="M586.13,-229.76C583.5,-203.15 575.52,-122.71 571.87,-85.84"/>
<polygon fill="midnightblue" stroke="midnightblue" points="575.31,-85.13 570.84,-75.52 568.35,-85.82 575.31,-85.13"/>
</g>
<!-- Node26&#45;&gt;Node9 -->
<g id="edge58" class="edge">
<title>Node26&#45;&gt;Node9</title>
<path fill="none" stroke="midnightblue" d="M579.69,-229.82C560.79,-207.78 507.97,-148.8 454,-112 369.37,-54.29 248.68,-26.71 191.47,-16.25"/>
<polygon fill="midnightblue" stroke="midnightblue" points="192.01,-12.79 181.55,-14.49 190.79,-19.68 192.01,-12.79"/>
</g>
<!-- Node26&#45;&gt;Node10 -->
<g id="edge57" class="edge">
<title>Node26&#45;&gt;Node10</title>
<path fill="none" stroke="midnightblue" d="M610.81,-229.84C634.77,-220.75 672.44,-205.36 703,-188 740.11,-166.92 747.09,-157.91 781,-132 802.6,-115.5 826.72,-95.7 842.78,-82.32"/>
<polygon fill="midnightblue" stroke="midnightblue" points="845.38,-84.71 850.8,-75.61 840.89,-79.34 845.38,-84.71"/>
</g>
<!-- Node26&#45;&gt;Node11 -->
<g id="edge61" class="edge">
<title>Node26&#45;&gt;Node11</title>
<path fill="none" stroke="midnightblue" d="M558.1,-229.87C534.98,-221.87 502.77,-208.14 480,-188 450.08,-161.53 463.18,-136.97 432,-112 403.35,-89.06 362.06,-77.29 334.65,-71.65"/>
<polygon fill="midnightblue" stroke="midnightblue" points="335.01,-68.15 324.53,-69.71 333.7,-75.03 335.01,-68.15"/>
</g>
<!-- Node26&#45;&gt;Node17 -->
<g id="edge56" class="edge">
<title>Node26&#45;&gt;Node17</title>
<path fill="none" stroke="midnightblue" d="M593.88,-229.76C615.28,-202.58 680.9,-119.21 709.01,-83.51"/>
<polygon fill="midnightblue" stroke="midnightblue" points="711.86,-85.54 715.29,-75.52 706.36,-81.21 711.86,-85.54"/>
</g>
<!-- Node26&#45;&gt;Node20 -->
<g id="edge59" class="edge">
<title>Node26&#45;&gt;Node20</title>
<path fill="none" stroke="midnightblue" d="M563.29,-229.9C537.55,-220.37 495.38,-204.21 460,-188 382.41,-152.45 293.76,-103.92 252.07,-80.6"/>
<polygon fill="midnightblue" stroke="midnightblue" points="253.64,-77.47 243.2,-75.62 250.21,-83.57 253.64,-77.47"/>
</g>
<!-- Node26&#45;&gt;Node24 -->
<g id="edge62" class="edge">
<title>Node26&#45;&gt;Node24</title>
<path fill="none" stroke="midnightblue" d="M599.32,-229.98C613.12,-220.43 635.7,-204.81 652.23,-193.37"/>
<polygon fill="midnightblue" stroke="midnightblue" points="654.47,-196.08 660.7,-187.51 650.49,-190.32 654.47,-196.08"/>
</g>
</g>
</svg>
