<?xml version="1.0" encoding="UTF-8" standalone="no"?>
<!DOCTYPE svg PUBLIC "-//W3C//DTD SVG 1.1//EN"
 "http://www.w3.org/Graphics/SVG/1.1/DTD/svg11.dtd">
<!-- Generated by graphviz version 2.49.3 (20211027.1534)
 -->
<!-- Title: src/BOM/historical_weather.c Pages: 1 -->
<svg width="675pt" height="375pt"
 viewBox="0.00 0.00 674.58 375.00" xmlns="http://www.w3.org/2000/svg" xmlns:xlink="http://www.w3.org/1999/xlink">
<g id="graph0" class="graph" transform="scale(1 1) rotate(0) translate(4 371)">
<title>src/BOM/historical_weather.c</title>
<!-- Node1 -->
<g id="node1" class="node">
<title>Node1</title>
<g id="a_node1"><a xlink:title=" ">
<polygon fill="#bfbfbf" stroke="black" points="147.58,-336.5 147.58,-366.5 245.58,-366.5 245.58,-336.5 147.58,-336.5"/>
<text text-anchor="start" x="155.58" y="-354.5" font-family="Helvetica,sans-Serif" font-size="10.00">src/BOM/historical</text>
<text text-anchor="middle" x="196.58" y="-343.5" font-family="Helvetica,sans-Serif" font-size="10.00">_weather.c</text>
</a>
</g>
</g>
<!-- Node2 -->
<g id="node2" class="node">
<title>Node2</title>
<g id="a_node2"><a xlink:href="historical__weather_8h.html" target="_top" xlink:title=" ">
<polygon fill="none" stroke="black" points="132.58,-280.5 132.58,-299.5 260.58,-299.5 260.58,-280.5 132.58,-280.5"/>
<text text-anchor="middle" x="196.58" y="-287.5" font-family="Helvetica,sans-Serif" font-size="10.00">BOM/historical_weather.h</text>
</a>
</g>
</g>
<!-- Node1&#45;&gt;Node2 -->
<g id="edge1" class="edge">
<title>Node1&#45;&gt;Node2</title>
<path fill="none" stroke="midnightblue" d="M196.58,-336.4C196.58,-328.47 196.58,-318.46 196.58,-309.86"/>
<polygon fill="midnightblue" stroke="midnightblue" points="200.08,-309.66 196.58,-299.66 193.08,-309.66 200.08,-309.66"/>
</g>
<!-- Node3 -->
<g id="node3" class="node">
<title>Node3</title>
<g id="a_node3"><a xlink:title=" ">
<polygon fill="none" stroke="#bfbfbf" points="155.08,-0.5 155.08,-19.5 198.08,-19.5 198.08,-0.5 155.08,-0.5"/>
<text text-anchor="middle" x="176.58" y="-7.5" font-family="Helvetica,sans-Serif" font-size="10.00">time.h</text>
</a>
</g>
</g>
<!-- Node2&#45;&gt;Node3 -->
<g id="edge2" class="edge">
<title>Node2&#45;&gt;Node3</title>
<path fill="none" stroke="midnightblue" d="M134.3,-280.48C76.91,-268.71 0.58,-241.34 0.58,-179 0.58,-179 0.58,-179 0.58,-121 0.58,-90.9 -1.75,-77.23 19.58,-56 53.01,-22.75 109.26,-13.71 144.58,-11.45"/>
<polygon fill="midnightblue" stroke="midnightblue" points="145,-14.94 154.82,-10.95 144.66,-7.95 145,-14.94"/>
</g>
<!-- Node4 -->
<g id="node4" class="node">
<title>Node4</title>
<g id="a_node4"><a xlink:title=" ">
<polygon fill="none" stroke="#bfbfbf" points="29.08,-56.5 29.08,-75.5 88.08,-75.5 88.08,-56.5 29.08,-56.5"/>
<text text-anchor="middle" x="58.58" y="-63.5" font-family="Helvetica,sans-Serif" font-size="10.00">curl/curl.h</text>
</a>
</g>
</g>
<!-- Node2&#45;&gt;Node4 -->
<g id="edge3" class="edge">
<title>Node2&#45;&gt;Node4</title>
<path fill="none" stroke="midnightblue" d="M190.93,-280.19C175.69,-256.4 132.53,-188.81 97.58,-132 87.8,-116.1 76.89,-97.87 69.1,-84.76"/>
<polygon fill="midnightblue" stroke="midnightblue" points="71.93,-82.68 63.82,-75.87 65.91,-86.26 71.93,-82.68"/>
</g>
<!-- Node5 -->
<g id="node5" class="node">
<title>Node5</title>
<g id="a_node5"><a xlink:title=" ">
<polygon fill="none" stroke="#bfbfbf" points="300.08,-168.5 300.08,-187.5 347.08,-187.5 347.08,-168.5 300.08,-168.5"/>
<text text-anchor="middle" x="323.58" y="-175.5" font-family="Helvetica,sans-Serif" font-size="10.00">ctype.h</text>
</a>
</g>
</g>
<!-- Node2&#45;&gt;Node5 -->
<g id="edge4" class="edge">
<title>Node2&#45;&gt;Node5</title>
<path fill="none" stroke="midnightblue" d="M220.56,-280.45C239.07,-272.97 264.5,-260.68 282.58,-244 297.1,-230.61 308.54,-210.96 315.61,-196.78"/>
<polygon fill="midnightblue" stroke="midnightblue" points="318.85,-198.12 319.96,-187.58 312.52,-195.12 318.85,-198.12"/>
</g>
<!-- Node6 -->
<g id="node6" class="node">
<title>Node6</title>
<g id="a_node6"><a xlink:title=" ">
<polygon fill="none" stroke="#bfbfbf" points="618.58,-56.5 618.58,-75.5 666.58,-75.5 666.58,-56.5 618.58,-56.5"/>
<text text-anchor="middle" x="642.58" y="-63.5" font-family="Helvetica,sans-Serif" font-size="10.00">stdint.h</text>
</a>
</g>
</g>
<!-- Node2&#45;&gt;Node6 -->
<g id="edge5" class="edge">
<title>Node2&#45;&gt;Node6</title>
<path fill="none" stroke="midnightblue" d="M218.97,-280.46C241.19,-271.81 276.1,-257.79 305.58,-244 425.3,-188 563.64,-111.47 618.44,-80.67"/>
<polygon fill="midnightblue" stroke="midnightblue" points="620.39,-83.59 627.39,-75.63 616.96,-77.49 620.39,-83.59"/>
</g>
<!-- Node7 -->
<g id="node7" class="node">
<title>Node7</title>
<g id="a_node7"><a xlink:href="stations_8h.html" target="_top" xlink:title=" ">
<polygon fill="none" stroke="black" points="189.58,-224.5 189.58,-243.5 273.58,-243.5 273.58,-224.5 189.58,-224.5"/>
<text text-anchor="middle" x="231.58" y="-231.5" font-family="Helvetica,sans-Serif" font-size="10.00">BOM/stations.h</text>
</a>
</g>
</g>
<!-- Node2&#45;&gt;Node7 -->
<g id="edge6" class="edge">
<title>Node2&#45;&gt;Node7</title>
<path fill="none" stroke="midnightblue" d="M202.36,-280.08C207.26,-272.53 214.41,-261.49 220.42,-252.23"/>
<polygon fill="midnightblue" stroke="midnightblue" points="223.41,-254.05 225.91,-243.75 217.54,-250.24 223.41,-254.05"/>
</g>
<!-- Node9 -->
<g id="node9" class="node">
<title>Node9</title>
<g id="a_node9"><a xlink:href="ftp_8h.html" target="_top" xlink:title=" ">
<polygon fill="none" stroke="black" points="144.08,-168.5 144.08,-187.5 179.08,-187.5 179.08,-168.5 144.08,-168.5"/>
<text text-anchor="middle" x="161.58" y="-175.5" font-family="Helvetica,sans-Serif" font-size="10.00">ftp.h</text>
</a>
</g>
</g>
<!-- Node2&#45;&gt;Node9 -->
<g id="edge29" class="edge">
<title>Node2&#45;&gt;Node9</title>
<path fill="none" stroke="midnightblue" d="M193.37,-280.42C190.03,-271.41 184.72,-256.78 180.58,-244 175.55,-228.44 170.38,-210.61 166.7,-197.56"/>
<polygon fill="midnightblue" stroke="midnightblue" points="170.06,-196.57 164.01,-187.88 163.32,-198.45 170.06,-196.57"/>
</g>
<!-- Node7&#45;&gt;Node5 -->
<g id="edge8" class="edge">
<title>Node7&#45;&gt;Node5</title>
<path fill="none" stroke="midnightblue" d="M246.37,-224.32C260.85,-215.82 283.16,-202.73 300.08,-192.8"/>
<polygon fill="midnightblue" stroke="midnightblue" points="301.99,-195.74 308.84,-187.65 298.44,-189.7 301.99,-195.74"/>
</g>
<!-- Node8 -->
<g id="node8" class="node">
<title>Node8</title>
<g id="a_node8"><a xlink:title=" ">
<polygon fill="none" stroke="#bfbfbf" points="197.58,-168.5 197.58,-187.5 243.58,-187.5 243.58,-168.5 197.58,-168.5"/>
<text text-anchor="middle" x="220.58" y="-175.5" font-family="Helvetica,sans-Serif" font-size="10.00">math.h</text>
</a>
</g>
</g>
<!-- Node7&#45;&gt;Node8 -->
<g id="edge7" class="edge">
<title>Node7&#45;&gt;Node8</title>
<path fill="none" stroke="midnightblue" d="M229.77,-224.08C228.31,-216.93 226.21,-206.64 224.39,-197.69"/>
<polygon fill="midnightblue" stroke="midnightblue" points="227.79,-196.85 222.37,-187.75 220.93,-198.25 227.79,-196.85"/>
</g>
<!-- Node7&#45;&gt;Node9 -->
<g id="edge9" class="edge">
<title>Node7&#45;&gt;Node9</title>
<path fill="none" stroke="midnightblue" d="M220.34,-224.32C209.79,-216.18 193.78,-203.84 181.14,-194.09"/>
<polygon fill="midnightblue" stroke="midnightblue" points="183.09,-191.17 173.04,-187.83 178.82,-196.71 183.09,-191.17"/>
</g>
<!-- Node13 -->
<g id="node13" class="node">
<title>Node13</title>
<g id="a_node13"><a xlink:href="utils_8h.html" target="_top" xlink:title=" ">
<polygon fill="none" stroke="black" points="250.58,-112.5 250.58,-131.5 292.58,-131.5 292.58,-112.5 250.58,-112.5"/>
<text text-anchor="middle" x="271.58" y="-119.5" font-family="Helvetica,sans-Serif" font-size="10.00">utils.h</text>
</a>
</g>
</g>
<!-- Node7&#45;&gt;Node13 -->
<g id="edge28" class="edge">
<title>Node7&#45;&gt;Node13</title>
<path fill="none" stroke="midnightblue" d="M236.18,-224.21C240.73,-215.26 247.72,-200.91 252.58,-188 258.42,-172.53 263.57,-154.44 267.04,-141.28"/>
<polygon fill="midnightblue" stroke="midnightblue" points="270.44,-142.1 269.53,-131.55 263.66,-140.37 270.44,-142.1"/>
</g>
<!-- Node9&#45;&gt;Node4 -->
<g id="edge12" class="edge">
<title>Node9&#45;&gt;Node4</title>
<path fill="none" stroke="midnightblue" d="M153.5,-168.37C136.28,-149.97 95.73,-106.67 73.61,-83.05"/>
<polygon fill="midnightblue" stroke="midnightblue" points="76.02,-80.5 66.63,-75.59 70.91,-85.28 76.02,-80.5"/>
</g>
<!-- Node10 -->
<g id="node10" class="node">
<title>Node10</title>
<g id="a_node10"><a xlink:title=" ">
<polygon fill="none" stroke="#bfbfbf" points="106.08,-56.5 106.08,-75.5 153.08,-75.5 153.08,-56.5 106.08,-56.5"/>
<text text-anchor="middle" x="129.58" y="-63.5" font-family="Helvetica,sans-Serif" font-size="10.00">stdlib.h</text>
</a>
</g>
</g>
<!-- Node9&#45;&gt;Node10 -->
<g id="edge10" class="edge">
<title>Node9&#45;&gt;Node10</title>
<path fill="none" stroke="midnightblue" d="M159.07,-168.37C153.89,-150.54 141.89,-109.3 134.9,-85.27"/>
<polygon fill="midnightblue" stroke="midnightblue" points="138.24,-84.22 132.08,-75.59 131.52,-86.17 138.24,-84.22"/>
</g>
<!-- Node11 -->
<g id="node11" class="node">
<title>Node11</title>
<g id="a_node11"><a xlink:title=" ">
<polygon fill="none" stroke="#bfbfbf" points="171.58,-56.5 171.58,-75.5 219.58,-75.5 219.58,-56.5 171.58,-56.5"/>
<text text-anchor="middle" x="195.58" y="-63.5" font-family="Helvetica,sans-Serif" font-size="10.00">string.h</text>
</a>
</g>
</g>
<!-- Node9&#45;&gt;Node11 -->
<g id="edge11" class="edge">
<title>Node9&#45;&gt;Node11</title>
<path fill="none" stroke="midnightblue" d="M164.25,-168.37C169.76,-150.54 182.51,-109.3 189.94,-85.27"/>
<polygon fill="midnightblue" stroke="midnightblue" points="193.32,-86.18 192.93,-75.59 186.63,-84.11 193.32,-86.18"/>
</g>
<!-- Node12 -->
<g id="node12" class="node">
<title>Node12</title>
<g id="a_node12"><a xlink:title=" ">
<polygon fill="none" stroke="#bfbfbf" points="237.58,-56.5 237.58,-75.5 283.58,-75.5 283.58,-56.5 237.58,-56.5"/>
<text text-anchor="middle" x="260.58" y="-63.5" font-family="Helvetica,sans-Serif" font-size="10.00">errno.h</text>
</a>
</g>
</g>
<!-- Node9&#45;&gt;Node12 -->
<g id="edge13" class="edge">
<title>Node9&#45;&gt;Node12</title>
<path fill="none" stroke="midnightblue" d="M169.35,-168.37C185.91,-149.97 224.88,-106.67 246.14,-83.05"/>
<polygon fill="midnightblue" stroke="midnightblue" points="248.76,-85.37 252.85,-75.59 243.56,-80.68 248.76,-85.37"/>
</g>
<!-- Node9&#45;&gt;Node13 -->
<g id="edge14" class="edge">
<title>Node9&#45;&gt;Node13</title>
<path fill="none" stroke="midnightblue" d="M179.26,-168.32C196.98,-159.62 224.49,-146.12 244.87,-136.11"/>
<polygon fill="midnightblue" stroke="midnightblue" points="246.52,-139.2 253.95,-131.65 243.44,-132.92 246.52,-139.2"/>
</g>
<!-- Node13&#45;&gt;Node4 -->
<g id="edge17" class="edge">
<title>Node13&#45;&gt;Node4</title>
<path fill="none" stroke="midnightblue" d="M250.38,-115.62C214.87,-106.62 142.85,-88.36 97.87,-76.96"/>
<polygon fill="midnightblue" stroke="midnightblue" points="98.71,-73.56 88.16,-74.5 96.99,-80.35 98.71,-73.56"/>
</g>
<!-- Node13&#45;&gt;Node6 -->
<g id="edge18" class="edge">
<title>Node13&#45;&gt;Node6</title>
<path fill="none" stroke="midnightblue" d="M292.71,-119.18C344.74,-114.49 483.35,-100.72 608.4,-76"/>
<polygon fill="midnightblue" stroke="midnightblue" points="609.41,-79.36 618.52,-73.96 608.03,-72.5 609.41,-79.36"/>
</g>
<!-- Node13&#45;&gt;Node10 -->
<g id="edge15" class="edge">
<title>Node13&#45;&gt;Node10</title>
<path fill="none" stroke="midnightblue" d="M250.33,-112.92C226.9,-104.01 188.95,-89.57 161.85,-79.27"/>
<polygon fill="midnightblue" stroke="midnightblue" points="162.99,-75.96 152.4,-75.68 160.5,-82.5 162.99,-75.96"/>
</g>
<!-- Node13&#45;&gt;Node11 -->
<g id="edge16" class="edge">
<title>Node13&#45;&gt;Node11</title>
<path fill="none" stroke="midnightblue" d="M259.37,-112.32C247.81,-104.11 230.21,-91.6 216.42,-81.81"/>
<polygon fill="midnightblue" stroke="midnightblue" points="218.2,-78.77 208.02,-75.83 214.14,-84.48 218.2,-78.77"/>
</g>
<!-- Node13&#45;&gt;Node12 -->
<g id="edge22" class="edge">
<title>Node13&#45;&gt;Node12</title>
<path fill="none" stroke="midnightblue" d="M269.77,-112.08C268.31,-104.93 266.21,-94.64 264.39,-85.69"/>
<polygon fill="midnightblue" stroke="midnightblue" points="267.79,-84.85 262.37,-75.75 260.93,-86.25 267.79,-84.85"/>
</g>
<!-- Node14 -->
<g id="node14" class="node">
<title>Node14</title>
<g id="a_node14"><a xlink:title=" ">
<polygon fill="none" stroke="#bfbfbf" points="517.08,-56.5 517.08,-75.5 600.08,-75.5 600.08,-56.5 517.08,-56.5"/>
<text text-anchor="middle" x="558.58" y="-63.5" font-family="Helvetica,sans-Serif" font-size="10.00">cjson/cJSON.h</text>
</a>
</g>
</g>
<!-- Node13&#45;&gt;Node14 -->
<g id="edge19" class="edge">
<title>Node13&#45;&gt;Node14</title>
<path fill="none" stroke="midnightblue" d="M292.69,-117.03C337.48,-108.6 443.16,-88.72 506.98,-76.71"/>
<polygon fill="midnightblue" stroke="midnightblue" points="507.66,-80.14 516.84,-74.85 506.37,-73.26 507.66,-80.14"/>
</g>
<!-- Node15 -->
<g id="node15" class="node">
<title>Node15</title>
<g id="a_node15"><a xlink:title=" ">
<polygon fill="none" stroke="#bfbfbf" points="302.08,-56.5 302.08,-75.5 361.08,-75.5 361.08,-56.5 302.08,-56.5"/>
<text text-anchor="middle" x="331.58" y="-63.5" font-family="Helvetica,sans-Serif" font-size="10.00">sys/stat.h</text>
</a>
</g>
</g>
<!-- Node13&#45;&gt;Node15 -->
<g id="edge20" class="edge">
<title>Node13&#45;&gt;Node15</title>
<path fill="none" stroke="midnightblue" d="M281.22,-112.32C290.09,-104.34 303.46,-92.31 314.19,-82.65"/>
<polygon fill="midnightblue" stroke="midnightblue" points="316.68,-85.13 321.77,-75.83 311.99,-79.92 316.68,-85.13"/>
</g>
<!-- Node16 -->
<g id="node16" class="node">
<title>Node16</title>
<g id="a_node16"><a xlink:title=" ">
<polygon fill="none" stroke="#bfbfbf" points="379.08,-56.5 379.08,-75.5 444.08,-75.5 444.08,-56.5 379.08,-56.5"/>
<text text-anchor="middle" x="411.58" y="-63.5" font-family="Helvetica,sans-Serif" font-size="10.00">sys/types.h</text>
</a>
</g>
</g>
<!-- Node13&#45;&gt;Node16 -->
<g id="edge21" class="edge">
<title>Node13&#45;&gt;Node16</title>
<path fill="none" stroke="midnightblue" d="M292.85,-112.8C315.91,-103.9 352.98,-89.6 379.57,-79.35"/>
<polygon fill="midnightblue" stroke="midnightblue" points="381.12,-82.5 389.19,-75.64 378.6,-75.97 381.12,-82.5"/>
</g>
<!-- Node17 -->
<g id="node17" class="node">
<title>Node17</title>
<g id="a_node17"><a xlink:href="log_8h.html" target="_top" xlink:title=" ">
<polygon fill="none" stroke="black" points="462.08,-56.5 462.08,-75.5 499.08,-75.5 499.08,-56.5 462.08,-56.5"/>
<text text-anchor="middle" x="480.58" y="-63.5" font-family="Helvetica,sans-Serif" font-size="10.00">log.h</text>
</a>
</g>
</g>
<!-- Node13&#45;&gt;Node17 -->
<g id="edge23" class="edge">
<title>Node13&#45;&gt;Node17</title>
<path fill="none" stroke="midnightblue" d="M292.61,-116.26C324.82,-108.89 388.5,-93.91 452.16,-75.97"/>
<polygon fill="midnightblue" stroke="midnightblue" points="453.3,-79.28 461.96,-73.18 451.39,-72.55 453.3,-79.28"/>
</g>
<!-- Node17&#45;&gt;Node3 -->
<g id="edge27" class="edge">
<title>Node17&#45;&gt;Node3</title>
<path fill="none" stroke="midnightblue" d="M462.02,-58.6C458.89,-57.65 455.66,-56.74 452.58,-56 365.33,-34.99 260.18,-20.86 208.47,-14.63"/>
<polygon fill="midnightblue" stroke="midnightblue" points="208.62,-11.12 198.28,-13.42 207.79,-18.07 208.62,-11.12"/>
</g>
<!-- Node18 -->
<g id="node18" class="node">
<title>Node18</title>
<g id="a_node18"><a xlink:title=" ">
<polygon fill="none" stroke="#bfbfbf" points="392.08,-0.5 392.08,-19.5 437.08,-19.5 437.08,-0.5 392.08,-0.5"/>
<text text-anchor="middle" x="414.58" y="-7.5" font-family="Helvetica,sans-Serif" font-size="10.00">stdio.h</text>
</a>
</g>
</g>
<!-- Node17&#45;&gt;Node18 -->
<g id="edge24" class="edge">
<title>Node17&#45;&gt;Node18</title>
<path fill="none" stroke="midnightblue" d="M469.98,-56.32C460.13,-48.26 445.23,-36.08 433.37,-26.37"/>
<polygon fill="midnightblue" stroke="midnightblue" points="435.34,-23.46 425.38,-19.83 430.9,-28.88 435.34,-23.46"/>
</g>
<!-- Node19 -->
<g id="node19" class="node">
<title>Node19</title>
<g id="a_node19"><a xlink:title=" ">
<polygon fill="none" stroke="#bfbfbf" points="455.08,-0.5 455.08,-19.5 506.08,-19.5 506.08,-0.5 455.08,-0.5"/>
<text text-anchor="middle" x="480.58" y="-7.5" font-family="Helvetica,sans-Serif" font-size="10.00">stdarg.h</text>
</a>
</g>
</g>
<!-- Node17&#45;&gt;Node19 -->
<g id="edge25" class="edge">
<title>Node17&#45;&gt;Node19</title>
<path fill="none" stroke="midnightblue" d="M480.58,-56.08C480.58,-49.01 480.58,-38.86 480.58,-29.99"/>
<polygon fill="midnightblue" stroke="midnightblue" points="484.08,-29.75 480.58,-19.75 477.08,-29.75 484.08,-29.75"/>
</g>
<!-- Node20 -->
<g id="node20" class="node">
<title>Node20</title>
<g id="a_node20"><a xlink:title=" ">
<polygon fill="none" stroke="#bfbfbf" points="524.58,-0.5 524.58,-19.5 580.58,-19.5 580.58,-0.5 524.58,-0.5"/>
<text text-anchor="middle" x="552.58" y="-7.5" font-family="Helvetica,sans-Serif" font-size="10.00">stdbool.h</text>
</a>
</g>
</g>
<!-- Node17&#45;&gt;Node20 -->
<g id="edge26" class="edge">
<title>Node17&#45;&gt;Node20</title>
<path fill="none" stroke="midnightblue" d="M492.15,-56.32C503,-48.18 519.47,-35.84 532.47,-26.09"/>
<polygon fill="midnightblue" stroke="midnightblue" points="534.91,-28.63 540.81,-19.83 530.71,-23.03 534.91,-28.63"/>
</g>
</g>
</svg>
