<?xml version="1.0" encoding="UTF-8" standalone="no"?>
<!DOCTYPE svg PUBLIC "-//W3C//DTD SVG 1.1//EN"
 "http://www.w3.org/Graphics/SVG/1.1/DTD/svg11.dtd">
<!-- Generated by graphviz version 2.49.3 (20211027.1534)
 -->
<!-- Title: src/BOM/historical_weather.c Pages: 1 -->
<svg width="695pt" height="375pt"
 viewBox="0.00 0.00 695.00 375.00" xmlns="http://www.w3.org/2000/svg" xmlns:xlink="http://www.w3.org/1999/xlink">
<g id="graph0" class="graph" transform="scale(1 1) rotate(0) translate(4 371)">
<title>src/BOM/historical_weather.c</title>
<!-- Node1 -->
<g id="node1" class="node">
<title>Node1</title>
<g id="a_node1"><a xlink:title=" ">
<polygon fill="#bfbfbf" stroke="black" points="254.5,-336.5 254.5,-366.5 352.5,-366.5 352.5,-336.5 254.5,-336.5"/>
<text text-anchor="start" x="262.5" y="-354.5" font-family="Helvetica,sans-Serif" font-size="10.00">src/BOM/historical</text>
<text text-anchor="middle" x="303.5" y="-343.5" font-family="Helvetica,sans-Serif" font-size="10.00">_weather.c</text>
</a>
</g>
</g>
<!-- Node2 -->
<g id="node2" class="node">
<title>Node2</title>
<g id="a_node2"><a xlink:href="historical__weather_8h.html" target="_top" xlink:title=" ">
<polygon fill="none" stroke="black" points="239.5,-280.5 239.5,-299.5 367.5,-299.5 367.5,-280.5 239.5,-280.5"/>
<text text-anchor="middle" x="303.5" y="-287.5" font-family="Helvetica,sans-Serif" font-size="10.00">BOM/historical_weather.h</text>
</a>
</g>
</g>
<!-- Node1&#45;&gt;Node2 -->
<g id="edge1" class="edge">
<title>Node1&#45;&gt;Node2</title>
<path fill="none" stroke="midnightblue" d="M303.5,-336.4C303.5,-328.47 303.5,-318.46 303.5,-309.86"/>
<polygon fill="midnightblue" stroke="midnightblue" points="307,-309.66 303.5,-299.66 300,-309.66 307,-309.66"/>
</g>
<!-- Node3 -->
<g id="node3" class="node">
<title>Node3</title>
<g id="a_node3"><a xlink:title=" ">
<polygon fill="none" stroke="#bfbfbf" points="0,-56.5 0,-75.5 59,-75.5 59,-56.5 0,-56.5"/>
<text text-anchor="middle" x="29.5" y="-63.5" font-family="Helvetica,sans-Serif" font-size="10.00">curl/curl.h</text>
</a>
</g>
</g>
<!-- Node2&#45;&gt;Node3 -->
<g id="edge2" class="edge">
<title>Node2&#45;&gt;Node3</title>
<path fill="none" stroke="midnightblue" d="M275.44,-280.44C253.17,-272.88 221.83,-260.49 197.5,-244 128.9,-197.5 67.05,-118.72 41.68,-84.14"/>
<polygon fill="midnightblue" stroke="midnightblue" points="44.22,-81.67 35.52,-75.62 38.55,-85.78 44.22,-81.67"/>
</g>
<!-- Node4 -->
<g id="node4" class="node">
<title>Node4</title>
<g id="a_node4"><a xlink:title=" ">
<polygon fill="none" stroke="#bfbfbf" points="315,-168.5 315,-187.5 362,-187.5 362,-168.5 315,-168.5"/>
<text text-anchor="middle" x="338.5" y="-175.5" font-family="Helvetica,sans-Serif" font-size="10.00">ctype.h</text>
</a>
</g>
</g>
<!-- Node2&#45;&gt;Node4 -->
<g id="edge3" class="edge">
<title>Node2&#45;&gt;Node4</title>
<path fill="none" stroke="midnightblue" d="M306.71,-280.42C310.06,-271.41 315.36,-256.78 319.5,-244 324.53,-228.44 329.71,-210.61 333.38,-197.56"/>
<polygon fill="midnightblue" stroke="midnightblue" points="336.76,-198.45 336.08,-187.88 330.02,-196.57 336.76,-198.45"/>
</g>
<!-- Node5 -->
<g id="node5" class="node">
<title>Node5</title>
<g id="a_node5"><a xlink:title=" ">
<polygon fill="none" stroke="#bfbfbf" points="589.5,-56.5 589.5,-75.5 637.5,-75.5 637.5,-56.5 589.5,-56.5"/>
<text text-anchor="middle" x="613.5" y="-63.5" font-family="Helvetica,sans-Serif" font-size="10.00">stdint.h</text>
</a>
</g>
</g>
<!-- Node2&#45;&gt;Node5 -->
<g id="edge4" class="edge">
<title>Node2&#45;&gt;Node5</title>
<path fill="none" stroke="midnightblue" d="M315.65,-280.3C362.82,-246.52 534.09,-123.87 593.24,-81.51"/>
<polygon fill="midnightblue" stroke="midnightblue" points="595.34,-84.31 601.43,-75.64 591.26,-78.62 595.34,-84.31"/>
</g>
<!-- Node6 -->
<g id="node6" class="node">
<title>Node6</title>
<g id="a_node6"><a xlink:title=" ">
<polygon fill="none" stroke="#bfbfbf" points="644,-0.5 644,-19.5 687,-19.5 687,-0.5 644,-0.5"/>
<text text-anchor="middle" x="665.5" y="-7.5" font-family="Helvetica,sans-Serif" font-size="10.00">time.h</text>
</a>
</g>
</g>
<!-- Node2&#45;&gt;Node6 -->
<g id="edge5" class="edge">
<title>Node2&#45;&gt;Node6</title>
<path fill="none" stroke="midnightblue" d="M367.8,-282.77C471.83,-270.88 665.5,-240.5 665.5,-179 665.5,-179 665.5,-179 665.5,-121 665.5,-88.95 665.5,-51.64 665.5,-29.75"/>
<polygon fill="midnightblue" stroke="midnightblue" points="669,-29.56 665.5,-19.56 662,-29.56 669,-29.56"/>
</g>
<!-- Node7 -->
<g id="node7" class="node">
<title>Node7</title>
<g id="a_node7"><a xlink:href="stations_8h.html" target="_top" xlink:title=" ">
<polygon fill="none" stroke="black" points="226.5,-224.5 226.5,-243.5 310.5,-243.5 310.5,-224.5 226.5,-224.5"/>
<text text-anchor="middle" x="268.5" y="-231.5" font-family="Helvetica,sans-Serif" font-size="10.00">BOM/stations.h</text>
</a>
</g>
</g>
<!-- Node2&#45;&gt;Node7 -->
<g id="edge6" class="edge">
<title>Node2&#45;&gt;Node7</title>
<path fill="none" stroke="midnightblue" d="M297.72,-280.08C292.83,-272.53 285.67,-261.49 279.67,-252.23"/>
<polygon fill="midnightblue" stroke="midnightblue" points="282.55,-250.24 274.17,-243.75 276.67,-254.05 282.55,-250.24"/>
</g>
<!-- Node9 -->
<g id="node9" class="node">
<title>Node9</title>
<g id="a_node9"><a xlink:href="ftp_8h.html" target="_top" xlink:title=" ">
<polygon fill="none" stroke="black" points="159,-168.5 159,-187.5 194,-187.5 194,-168.5 159,-168.5"/>
<text text-anchor="middle" x="176.5" y="-175.5" font-family="Helvetica,sans-Serif" font-size="10.00">ftp.h</text>
</a>
</g>
</g>
<!-- Node2&#45;&gt;Node9 -->
<g id="edge29" class="edge">
<title>Node2&#45;&gt;Node9</title>
<path fill="none" stroke="midnightblue" d="M279.53,-280.45C261.01,-272.97 235.58,-260.68 217.5,-244 202.98,-230.61 191.54,-210.96 184.48,-196.78"/>
<polygon fill="midnightblue" stroke="midnightblue" points="187.56,-195.12 180.12,-187.58 181.24,-198.12 187.56,-195.12"/>
</g>
<!-- Node7&#45;&gt;Node4 -->
<g id="edge8" class="edge">
<title>Node7&#45;&gt;Node4</title>
<path fill="none" stroke="midnightblue" d="M279.75,-224.32C290.3,-216.18 306.3,-203.84 318.94,-194.09"/>
<polygon fill="midnightblue" stroke="midnightblue" points="321.27,-196.71 327.05,-187.83 316.99,-191.17 321.27,-196.71"/>
</g>
<!-- Node8 -->
<g id="node8" class="node">
<title>Node8</title>
<g id="a_node8"><a xlink:title=" ">
<polygon fill="none" stroke="#bfbfbf" points="212.5,-168.5 212.5,-187.5 258.5,-187.5 258.5,-168.5 212.5,-168.5"/>
<text text-anchor="middle" x="235.5" y="-175.5" font-family="Helvetica,sans-Serif" font-size="10.00">math.h</text>
</a>
</g>
</g>
<!-- Node7&#45;&gt;Node8 -->
<g id="edge7" class="edge">
<title>Node7&#45;&gt;Node8</title>
<path fill="none" stroke="midnightblue" d="M263.05,-224.08C258.49,-216.61 251.83,-205.72 246.21,-196.52"/>
<polygon fill="midnightblue" stroke="midnightblue" points="249.05,-194.46 240.85,-187.75 243.08,-198.11 249.05,-194.46"/>
</g>
<!-- Node7&#45;&gt;Node9 -->
<g id="edge9" class="edge">
<title>Node7&#45;&gt;Node9</title>
<path fill="none" stroke="midnightblue" d="M253.72,-224.32C239.23,-215.82 216.93,-202.73 200.01,-192.8"/>
<polygon fill="midnightblue" stroke="midnightblue" points="201.64,-189.7 191.24,-187.65 198.1,-195.74 201.64,-189.7"/>
</g>
<!-- Node13 -->
<g id="node13" class="node">
<title>Node13</title>
<g id="a_node13"><a xlink:href="utils_8h.html" target="_top" xlink:title=" ">
<polygon fill="none" stroke="black" points="265.5,-112.5 265.5,-131.5 307.5,-131.5 307.5,-112.5 265.5,-112.5"/>
<text text-anchor="middle" x="286.5" y="-119.5" font-family="Helvetica,sans-Serif" font-size="10.00">utils.h</text>
</a>
</g>
</g>
<!-- Node7&#45;&gt;Node13 -->
<g id="edge28" class="edge">
<title>Node7&#45;&gt;Node13</title>
<path fill="none" stroke="midnightblue" d="M269.91,-224.37C272.82,-206.62 279.52,-165.67 283.46,-141.6"/>
<polygon fill="midnightblue" stroke="midnightblue" points="286.93,-142.03 285.09,-131.59 280.03,-140.89 286.93,-142.03"/>
</g>
<!-- Node9&#45;&gt;Node3 -->
<g id="edge12" class="edge">
<title>Node9&#45;&gt;Node3</title>
<path fill="none" stroke="midnightblue" d="M164.97,-168.37C139.95,-149.65 80.48,-105.15 49.32,-81.83"/>
<polygon fill="midnightblue" stroke="midnightblue" points="51.08,-78.78 40.98,-75.59 46.89,-84.39 51.08,-78.78"/>
</g>
<!-- Node10 -->
<g id="node10" class="node">
<title>Node10</title>
<g id="a_node10"><a xlink:title=" ">
<polygon fill="none" stroke="#bfbfbf" points="77,-56.5 77,-75.5 124,-75.5 124,-56.5 77,-56.5"/>
<text text-anchor="middle" x="100.5" y="-63.5" font-family="Helvetica,sans-Serif" font-size="10.00">stdlib.h</text>
</a>
</g>
</g>
<!-- Node9&#45;&gt;Node10 -->
<g id="edge10" class="edge">
<title>Node9&#45;&gt;Node10</title>
<path fill="none" stroke="midnightblue" d="M170.54,-168.37C157.99,-150.22 128.69,-107.8 112.24,-83.99"/>
<polygon fill="midnightblue" stroke="midnightblue" points="115,-81.83 106.44,-75.59 109.24,-85.81 115,-81.83"/>
</g>
<!-- Node11 -->
<g id="node11" class="node">
<title>Node11</title>
<g id="a_node11"><a xlink:title=" ">
<polygon fill="none" stroke="#bfbfbf" points="206.5,-56.5 206.5,-75.5 254.5,-75.5 254.5,-56.5 206.5,-56.5"/>
<text text-anchor="middle" x="230.5" y="-63.5" font-family="Helvetica,sans-Serif" font-size="10.00">string.h</text>
</a>
</g>
</g>
<!-- Node9&#45;&gt;Node11 -->
<g id="edge11" class="edge">
<title>Node9&#45;&gt;Node11</title>
<path fill="none" stroke="midnightblue" d="M180.74,-168.37C189.57,-150.38 210.1,-108.55 221.85,-84.63"/>
<polygon fill="midnightblue" stroke="midnightblue" points="225.02,-86.11 226.28,-75.59 218.73,-83.03 225.02,-86.11"/>
</g>
<!-- Node12 -->
<g id="node12" class="node">
<title>Node12</title>
<g id="a_node12"><a xlink:title=" ">
<polygon fill="none" stroke="#bfbfbf" points="142.5,-56.5 142.5,-75.5 188.5,-75.5 188.5,-56.5 142.5,-56.5"/>
<text text-anchor="middle" x="165.5" y="-63.5" font-family="Helvetica,sans-Serif" font-size="10.00">errno.h</text>
</a>
</g>
</g>
<!-- Node9&#45;&gt;Node12 -->
<g id="edge13" class="edge">
<title>Node9&#45;&gt;Node12</title>
<path fill="none" stroke="midnightblue" d="M175.64,-168.37C173.86,-150.62 169.77,-109.67 167.36,-85.6"/>
<polygon fill="midnightblue" stroke="midnightblue" points="170.84,-85.19 166.36,-75.59 163.87,-85.89 170.84,-85.19"/>
</g>
<!-- Node9&#45;&gt;Node13 -->
<g id="edge14" class="edge">
<title>Node9&#45;&gt;Node13</title>
<path fill="none" stroke="midnightblue" d="M194.17,-168.32C211.89,-159.62 239.4,-146.12 259.79,-136.11"/>
<polygon fill="midnightblue" stroke="midnightblue" points="261.44,-139.2 268.87,-131.65 258.35,-132.92 261.44,-139.2"/>
</g>
<!-- Node13&#45;&gt;Node3 -->
<g id="edge17" class="edge">
<title>Node13&#45;&gt;Node3</title>
<path fill="none" stroke="midnightblue" d="M265.31,-116.87C227.77,-109.49 146.89,-93.4 69.29,-76.35"/>
<polygon fill="midnightblue" stroke="midnightblue" points="69.87,-72.9 59.35,-74.16 68.36,-79.73 69.87,-72.9"/>
</g>
<!-- Node13&#45;&gt;Node5 -->
<g id="edge18" class="edge">
<title>Node13&#45;&gt;Node5</title>
<path fill="none" stroke="midnightblue" d="M307.68,-118.6C354.78,-113.09 471.85,-98.41 579.39,-76.03"/>
<polygon fill="midnightblue" stroke="midnightblue" points="580.37,-79.4 589.43,-73.91 578.92,-72.55 580.37,-79.4"/>
</g>
<!-- Node13&#45;&gt;Node10 -->
<g id="edge15" class="edge">
<title>Node13&#45;&gt;Node10</title>
<path fill="none" stroke="midnightblue" d="M265.16,-114.81C233.02,-105.47 171.88,-87.72 133.83,-76.68"/>
<polygon fill="midnightblue" stroke="midnightblue" points="134.79,-73.31 124.21,-73.88 132.84,-80.03 134.79,-73.31"/>
</g>
<!-- Node13&#45;&gt;Node11 -->
<g id="edge16" class="edge">
<title>Node13&#45;&gt;Node11</title>
<path fill="none" stroke="midnightblue" d="M277.5,-112.32C269.31,-104.42 256.99,-92.55 247.03,-82.94"/>
<polygon fill="midnightblue" stroke="midnightblue" points="249.29,-80.26 239.66,-75.83 244.43,-85.29 249.29,-80.26"/>
</g>
<!-- Node13&#45;&gt;Node12 -->
<g id="edge22" class="edge">
<title>Node13&#45;&gt;Node12</title>
<path fill="none" stroke="midnightblue" d="M267.33,-112.44C247.59,-103.64 216.61,-89.81 194.01,-79.72"/>
<polygon fill="midnightblue" stroke="midnightblue" points="195.14,-76.4 184.58,-75.52 192.29,-82.79 195.14,-76.4"/>
</g>
<!-- Node14 -->
<g id="node14" class="node">
<title>Node14</title>
<g id="a_node14"><a xlink:title=" ">
<polygon fill="none" stroke="#bfbfbf" points="433,-56.5 433,-75.5 516,-75.5 516,-56.5 433,-56.5"/>
<text text-anchor="middle" x="474.5" y="-63.5" font-family="Helvetica,sans-Serif" font-size="10.00">cjson/cJSON.h</text>
</a>
</g>
</g>
<!-- Node13&#45;&gt;Node14 -->
<g id="edge19" class="edge">
<title>Node13&#45;&gt;Node14</title>
<path fill="none" stroke="midnightblue" d="M307.7,-114.91C338.47,-106.07 396.04,-89.54 434.82,-78.4"/>
<polygon fill="midnightblue" stroke="midnightblue" points="436.09,-81.67 444.74,-75.55 434.16,-74.95 436.09,-81.67"/>
</g>
<!-- Node15 -->
<g id="node15" class="node">
<title>Node15</title>
<g id="a_node15"><a xlink:title=" ">
<polygon fill="none" stroke="#bfbfbf" points="273,-56.5 273,-75.5 332,-75.5 332,-56.5 273,-56.5"/>
<text text-anchor="middle" x="302.5" y="-63.5" font-family="Helvetica,sans-Serif" font-size="10.00">sys/stat.h</text>
</a>
</g>
</g>
<!-- Node13&#45;&gt;Node15 -->
<g id="edge20" class="edge">
<title>Node13&#45;&gt;Node15</title>
<path fill="none" stroke="midnightblue" d="M289.14,-112.08C291.29,-104.85 294.38,-94.41 297.05,-85.4"/>
<polygon fill="midnightblue" stroke="midnightblue" points="300.42,-86.33 299.91,-75.75 293.71,-84.34 300.42,-86.33"/>
</g>
<!-- Node16 -->
<g id="node16" class="node">
<title>Node16</title>
<g id="a_node16"><a xlink:title=" ">
<polygon fill="none" stroke="#bfbfbf" points="350,-56.5 350,-75.5 415,-75.5 415,-56.5 350,-56.5"/>
<text text-anchor="middle" x="382.5" y="-63.5" font-family="Helvetica,sans-Serif" font-size="10.00">sys/types.h</text>
</a>
</g>
</g>
<!-- Node13&#45;&gt;Node16 -->
<g id="edge21" class="edge">
<title>Node13&#45;&gt;Node16</title>
<path fill="none" stroke="midnightblue" d="M301.92,-112.32C317.04,-103.82 340.32,-90.73 357.97,-80.8"/>
<polygon fill="midnightblue" stroke="midnightblue" points="360.11,-83.61 367.11,-75.65 356.68,-77.51 360.11,-83.61"/>
</g>
<!-- Node17 -->
<g id="node17" class="node">
<title>Node17</title>
<g id="a_node17"><a xlink:href="log_8h.html" target="_top" xlink:title=" ">
<polygon fill="none" stroke="black" points="534,-56.5 534,-75.5 571,-75.5 571,-56.5 534,-56.5"/>
<text text-anchor="middle" x="552.5" y="-63.5" font-family="Helvetica,sans-Serif" font-size="10.00">log.h</text>
</a>
</g>
</g>
<!-- Node13&#45;&gt;Node17 -->
<g id="edge23" class="edge">
<title>Node13&#45;&gt;Node17</title>
<path fill="none" stroke="midnightblue" d="M307.81,-117.98C348.28,-112.04 439.14,-97.69 523.94,-76.15"/>
<polygon fill="midnightblue" stroke="midnightblue" points="524.91,-79.51 533.71,-73.62 523.16,-72.73 524.91,-79.51"/>
</g>
<!-- Node17&#45;&gt;Node6 -->
<g id="edge27" class="edge">
<title>Node17&#45;&gt;Node6</title>
<path fill="none" stroke="midnightblue" d="M570.41,-56.44C588.75,-47.68 617.51,-33.94 638.59,-23.86"/>
<polygon fill="midnightblue" stroke="midnightblue" points="640.17,-26.99 647.68,-19.52 637.15,-20.67 640.17,-26.99"/>
</g>
<!-- Node18 -->
<g id="node18" class="node">
<title>Node18</title>
<g id="a_node18"><a xlink:title=" ">
<polygon fill="none" stroke="#bfbfbf" points="512,-0.5 512,-19.5 557,-19.5 557,-0.5 512,-0.5"/>
<text text-anchor="middle" x="534.5" y="-7.5" font-family="Helvetica,sans-Serif" font-size="10.00">stdio.h</text>
</a>
</g>
</g>
<!-- Node17&#45;&gt;Node18 -->
<g id="edge24" class="edge">
<title>Node17&#45;&gt;Node18</title>
<path fill="none" stroke="midnightblue" d="M549.53,-56.08C547.12,-48.85 543.64,-38.41 540.63,-29.4"/>
<polygon fill="midnightblue" stroke="midnightblue" points="543.9,-28.13 537.42,-19.75 537.26,-30.34 543.9,-28.13"/>
</g>
<!-- Node19 -->
<g id="node19" class="node">
<title>Node19</title>
<g id="a_node19"><a xlink:title=" ">
<polygon fill="none" stroke="#bfbfbf" points="575,-0.5 575,-19.5 626,-19.5 626,-0.5 575,-0.5"/>
<text text-anchor="middle" x="600.5" y="-7.5" font-family="Helvetica,sans-Serif" font-size="10.00">stdarg.h</text>
</a>
</g>
</g>
<!-- Node17&#45;&gt;Node19 -->
<g id="edge25" class="edge">
<title>Node17&#45;&gt;Node19</title>
<path fill="none" stroke="midnightblue" d="M560.43,-56.08C567.35,-48.3 577.57,-36.8 585.95,-27.37"/>
<polygon fill="midnightblue" stroke="midnightblue" points="588.69,-29.55 592.72,-19.75 583.46,-24.9 588.69,-29.55"/>
</g>
<!-- Node20 -->
<g id="node20" class="node">
<title>Node20</title>
<g id="a_node20"><a xlink:title=" ">
<polygon fill="none" stroke="#bfbfbf" points="437.5,-0.5 437.5,-19.5 493.5,-19.5 493.5,-0.5 437.5,-0.5"/>
<text text-anchor="middle" x="465.5" y="-7.5" font-family="Helvetica,sans-Serif" font-size="10.00">stdbool.h</text>
</a>
</g>
</g>
<!-- Node17&#45;&gt;Node20 -->
<g id="edge26" class="edge">
<title>Node17&#45;&gt;Node20</title>
<path fill="none" stroke="midnightblue" d="M538.52,-56.32C524.95,-47.9 504.12,-34.97 488.18,-25.07"/>
<polygon fill="midnightblue" stroke="midnightblue" points="489.79,-21.95 479.44,-19.65 486.09,-27.9 489.79,-21.95"/>
</g>
</g>
</svg>
