<?xml version="1.0" encoding="UTF-8" standalone="no"?>
<!DOCTYPE svg PUBLIC "-//W3C//DTD SVG 1.1//EN"
 "http://www.w3.org/Graphics/SVG/1.1/DTD/svg11.dtd">
<!-- Generated by graphviz version 2.49.3 (20211027.1534)
 -->
<!-- Title: include/BOM/historical_weather.h Pages: 1 -->
<svg width="203pt" height="162pt"
 viewBox="0.00 0.00 202.50 162.00" xmlns="http://www.w3.org/2000/svg" xmlns:xlink="http://www.w3.org/1999/xlink">
<g id="graph0" class="graph" transform="scale(1 1) rotate(0) translate(4 158)">
<title>include/BOM/historical_weather.h</title>
<!-- Node1 -->
<g id="node1" class="node">
<title>Node1</title>
<g id="a_node1"><a xlink:title=" ">
<polygon fill="#bfbfbf" stroke="black" points="35,-123.5 35,-153.5 150,-153.5 150,-123.5 35,-123.5"/>
<text text-anchor="start" x="43" y="-141.5" font-family="Helvetica,sans-Serif" font-size="10.00">include/BOM/historical</text>
<text text-anchor="middle" x="92.5" y="-130.5" font-family="Helvetica,sans-Serif" font-size="10.00">_weather.h</text>
</a>
</g>
</g>
<!-- Node2 -->
<g id="node2" class="node">
<title>Node2</title>
<g id="a_node2"><a xlink:href="main_8h.html" target="_top" xlink:title=" ">
<polygon fill="none" stroke="black" points="0,-62 0,-81 79,-81 79,-62 0,-62"/>
<text text-anchor="middle" x="39.5" y="-69" font-family="Helvetica,sans-Serif" font-size="10.00">include/main.h</text>
</a>
</g>
</g>
<!-- Node1&#45;&gt;Node2 -->
<g id="edge1" class="edge">
<title>Node1&#45;&gt;Node2</title>
<path fill="none" stroke="midnightblue" d="M74.41,-115.32C64.86,-103.6 53.67,-89.88 46.59,-81.19"/>
<polygon fill="midnightblue" stroke="midnightblue" points="71.97,-117.86 81,-123.4 77.39,-113.43 71.97,-117.86"/>
</g>
<!-- Node4 -->
<g id="node4" class="node">
<title>Node4</title>
<g id="a_node4"><a xlink:href="historical__weather_8c.html" target="_top" xlink:title=" ">
<polygon fill="none" stroke="black" points="96.5,-56.5 96.5,-86.5 194.5,-86.5 194.5,-56.5 96.5,-56.5"/>
<text text-anchor="start" x="104.5" y="-74.5" font-family="Helvetica,sans-Serif" font-size="10.00">src/BOM/historical</text>
<text text-anchor="middle" x="145.5" y="-63.5" font-family="Helvetica,sans-Serif" font-size="10.00">_weather.c</text>
</a>
</g>
</g>
<!-- Node1&#45;&gt;Node4 -->
<g id="edge3" class="edge">
<title>Node1&#45;&gt;Node4</title>
<path fill="none" stroke="midnightblue" d="M110.48,-115.45C118.27,-105.9 127.15,-95 134.02,-86.58"/>
<polygon fill="midnightblue" stroke="midnightblue" points="107.61,-113.43 104,-123.4 113.03,-117.86 107.61,-113.43"/>
</g>
<!-- Node3 -->
<g id="node3" class="node">
<title>Node3</title>
<g id="a_node3"><a xlink:href="main_8c.html" target="_top" xlink:title=" ">
<polygon fill="none" stroke="black" points="8.5,-0.5 8.5,-19.5 70.5,-19.5 70.5,-0.5 8.5,-0.5"/>
<text text-anchor="middle" x="39.5" y="-7.5" font-family="Helvetica,sans-Serif" font-size="10.00">src/main.c</text>
</a>
</g>
</g>
<!-- Node2&#45;&gt;Node3 -->
<g id="edge2" class="edge">
<title>Node2&#45;&gt;Node3</title>
<path fill="none" stroke="midnightblue" d="M39.5,-51.82C39.5,-41 39.5,-27.9 39.5,-19.51"/>
<polygon fill="midnightblue" stroke="midnightblue" points="36,-51.98 39.5,-61.98 43,-51.98 36,-51.98"/>
</g>
</g>
</svg>
