<?xml version="1.0" encoding="UTF-8" standalone="no"?>
<!DOCTYPE svg PUBLIC "-//W3C//DTD SVG 1.1//EN"
 "http://www.w3.org/Graphics/SVG/1.1/DTD/svg11.dtd">
<!-- Generated by graphviz version 2.49.3 (20211027.1534)
 -->
<!-- Title: src/BOM/historical_weather.c Pages: 1 -->
<svg width="622pt" height="375pt"
 viewBox="0.00 0.00 622.00 375.00" xmlns="http://www.w3.org/2000/svg" xmlns:xlink="http://www.w3.org/1999/xlink">
<g id="graph0" class="graph" transform="scale(1 1) rotate(0) translate(4 371)">
<title>src/BOM/historical_weather.c</title>
<!-- Node1 -->
<g id="node1" class="node">
<title>Node1</title>
<g id="a_node1"><a xlink:title=" ">
<polygon fill="#bfbfbf" stroke="black" points="152.5,-336.5 152.5,-366.5 250.5,-366.5 250.5,-336.5 152.5,-336.5"/>
<text text-anchor="start" x="160.5" y="-354.5" font-family="Helvetica,sans-Serif" font-size="10.00">src/BOM/historical</text>
<text text-anchor="middle" x="201.5" y="-343.5" font-family="Helvetica,sans-Serif" font-size="10.00">_weather.c</text>
</a>
</g>
</g>
<!-- Node2 -->
<g id="node2" class="node">
<title>Node2</title>
<g id="a_node2"><a xlink:href="historical__weather_8h.html" target="_top" xlink:title=" ">
<polygon fill="none" stroke="black" points="137.5,-280.5 137.5,-299.5 265.5,-299.5 265.5,-280.5 137.5,-280.5"/>
<text text-anchor="middle" x="201.5" y="-287.5" font-family="Helvetica,sans-Serif" font-size="10.00">BOM/historical_weather.h</text>
</a>
</g>
</g>
<!-- Node1&#45;&gt;Node2 -->
<g id="edge1" class="edge">
<title>Node1&#45;&gt;Node2</title>
<path fill="none" stroke="midnightblue" d="M201.5,-336.4C201.5,-328.47 201.5,-318.46 201.5,-309.86"/>
<polygon fill="midnightblue" stroke="midnightblue" points="205,-309.66 201.5,-299.66 198,-309.66 205,-309.66"/>
</g>
<!-- Node3 -->
<g id="node3" class="node">
<title>Node3</title>
<g id="a_node3"><a xlink:title=" ">
<polygon fill="none" stroke="#bfbfbf" points="0,-56.5 0,-75.5 59,-75.5 59,-56.5 0,-56.5"/>
<text text-anchor="middle" x="29.5" y="-63.5" font-family="Helvetica,sans-Serif" font-size="10.00">curl/curl.h</text>
</a>
</g>
</g>
<!-- Node2&#45;&gt;Node3 -->
<g id="edge2" class="edge">
<title>Node2&#45;&gt;Node3</title>
<path fill="none" stroke="midnightblue" d="M194.76,-280.3C169.07,-247.15 77.08,-128.41 42.64,-83.96"/>
<polygon fill="midnightblue" stroke="midnightblue" points="45.27,-81.65 36.38,-75.88 39.74,-85.93 45.27,-81.65"/>
</g>
<!-- Node4 -->
<g id="node4" class="node">
<title>Node4</title>
<g id="a_node4"><a xlink:title=" ">
<polygon fill="none" stroke="#bfbfbf" points="305,-168.5 305,-187.5 352,-187.5 352,-168.5 305,-168.5"/>
<text text-anchor="middle" x="328.5" y="-175.5" font-family="Helvetica,sans-Serif" font-size="10.00">ctype.h</text>
</a>
</g>
</g>
<!-- Node2&#45;&gt;Node4 -->
<g id="edge3" class="edge">
<title>Node2&#45;&gt;Node4</title>
<path fill="none" stroke="midnightblue" d="M225.47,-280.45C243.99,-272.97 269.42,-260.68 287.5,-244 302.02,-230.61 313.46,-210.96 320.52,-196.78"/>
<polygon fill="midnightblue" stroke="midnightblue" points="323.76,-198.12 324.88,-187.58 317.44,-195.12 323.76,-198.12"/>
</g>
<!-- Node5 -->
<g id="node5" class="node">
<title>Node5</title>
<g id="a_node5"><a xlink:href="stations_8h.html" target="_top" xlink:title=" ">
<polygon fill="none" stroke="black" points="194.5,-224.5 194.5,-243.5 278.5,-243.5 278.5,-224.5 194.5,-224.5"/>
<text text-anchor="middle" x="236.5" y="-231.5" font-family="Helvetica,sans-Serif" font-size="10.00">BOM/stations.h</text>
</a>
</g>
</g>
<!-- Node2&#45;&gt;Node5 -->
<g id="edge4" class="edge">
<title>Node2&#45;&gt;Node5</title>
<path fill="none" stroke="midnightblue" d="M207.28,-280.08C212.17,-272.53 219.33,-261.49 225.33,-252.23"/>
<polygon fill="midnightblue" stroke="midnightblue" points="228.33,-254.05 230.83,-243.75 222.45,-250.24 228.33,-254.05"/>
</g>
<!-- Node7 -->
<g id="node7" class="node">
<title>Node7</title>
<g id="a_node7"><a xlink:href="ftp_8h.html" target="_top" xlink:title=" ">
<polygon fill="none" stroke="black" points="149,-168.5 149,-187.5 184,-187.5 184,-168.5 149,-168.5"/>
<text text-anchor="middle" x="166.5" y="-175.5" font-family="Helvetica,sans-Serif" font-size="10.00">ftp.h</text>
</a>
</g>
</g>
<!-- Node2&#45;&gt;Node7 -->
<g id="edge26" class="edge">
<title>Node2&#45;&gt;Node7</title>
<path fill="none" stroke="midnightblue" d="M198.29,-280.42C194.94,-271.41 189.64,-256.78 185.5,-244 180.47,-228.44 175.29,-210.61 171.62,-197.56"/>
<polygon fill="midnightblue" stroke="midnightblue" points="174.98,-196.57 168.92,-187.88 168.24,-198.45 174.98,-196.57"/>
</g>
<!-- Node5&#45;&gt;Node4 -->
<g id="edge6" class="edge">
<title>Node5&#45;&gt;Node4</title>
<path fill="none" stroke="midnightblue" d="M251.28,-224.32C265.77,-215.82 288.07,-202.73 304.99,-192.8"/>
<polygon fill="midnightblue" stroke="midnightblue" points="306.9,-195.74 313.76,-187.65 303.36,-189.7 306.9,-195.74"/>
</g>
<!-- Node6 -->
<g id="node6" class="node">
<title>Node6</title>
<g id="a_node6"><a xlink:title=" ">
<polygon fill="none" stroke="#bfbfbf" points="240.5,-168.5 240.5,-187.5 286.5,-187.5 286.5,-168.5 240.5,-168.5"/>
<text text-anchor="middle" x="263.5" y="-175.5" font-family="Helvetica,sans-Serif" font-size="10.00">math.h</text>
</a>
</g>
</g>
<!-- Node5&#45;&gt;Node6 -->
<g id="edge5" class="edge">
<title>Node5&#45;&gt;Node6</title>
<path fill="none" stroke="midnightblue" d="M240.96,-224.08C244.65,-216.69 250.02,-205.95 254.59,-196.81"/>
<polygon fill="midnightblue" stroke="midnightblue" points="257.78,-198.26 259.12,-187.75 251.52,-195.13 257.78,-198.26"/>
</g>
<!-- Node5&#45;&gt;Node7 -->
<g id="edge7" class="edge">
<title>Node5&#45;&gt;Node7</title>
<path fill="none" stroke="midnightblue" d="M225.25,-224.32C214.7,-216.18 198.7,-203.84 186.06,-194.09"/>
<polygon fill="midnightblue" stroke="midnightblue" points="188.01,-191.17 177.95,-187.83 183.73,-196.71 188.01,-191.17"/>
</g>
<!-- Node11 -->
<g id="node11" class="node">
<title>Node11</title>
<g id="a_node11"><a xlink:href="utils_8h.html" target="_top" xlink:title=" ">
<polygon fill="none" stroke="black" points="211.5,-112.5 211.5,-131.5 253.5,-131.5 253.5,-112.5 211.5,-112.5"/>
<text text-anchor="middle" x="232.5" y="-119.5" font-family="Helvetica,sans-Serif" font-size="10.00">utils.h</text>
</a>
</g>
</g>
<!-- Node5&#45;&gt;Node11 -->
<g id="edge25" class="edge">
<title>Node5&#45;&gt;Node11</title>
<path fill="none" stroke="midnightblue" d="M235.26,-224.4C234.02,-215.36 232.2,-200.71 231.5,-188 230.64,-172.49 230.99,-154.86 231.51,-141.88"/>
<polygon fill="midnightblue" stroke="midnightblue" points="235,-141.99 231.97,-131.84 228.01,-141.67 235,-141.99"/>
</g>
<!-- Node7&#45;&gt;Node3 -->
<g id="edge10" class="edge">
<title>Node7&#45;&gt;Node3</title>
<path fill="none" stroke="midnightblue" d="M155.75,-168.37C132.54,-149.73 77.49,-105.53 48.35,-82.13"/>
<polygon fill="midnightblue" stroke="midnightblue" points="50.19,-79.12 40.2,-75.59 45.81,-84.58 50.19,-79.12"/>
</g>
<!-- Node8 -->
<g id="node8" class="node">
<title>Node8</title>
<g id="a_node8"><a xlink:title=" ">
<polygon fill="none" stroke="#bfbfbf" points="77,-56.5 77,-75.5 124,-75.5 124,-56.5 77,-56.5"/>
<text text-anchor="middle" x="100.5" y="-63.5" font-family="Helvetica,sans-Serif" font-size="10.00">stdlib.h</text>
</a>
</g>
</g>
<!-- Node7&#45;&gt;Node8 -->
<g id="edge8" class="edge">
<title>Node7&#45;&gt;Node8</title>
<path fill="none" stroke="midnightblue" d="M161.32,-168.37C150.48,-150.3 125.21,-108.18 110.88,-84.31"/>
<polygon fill="midnightblue" stroke="midnightblue" points="113.8,-82.37 105.65,-75.59 107.8,-85.97 113.8,-82.37"/>
</g>
<!-- Node9 -->
<g id="node9" class="node">
<title>Node9</title>
<g id="a_node9"><a xlink:title=" ">
<polygon fill="none" stroke="#bfbfbf" points="142.5,-56.5 142.5,-75.5 190.5,-75.5 190.5,-56.5 142.5,-56.5"/>
<text text-anchor="middle" x="166.5" y="-63.5" font-family="Helvetica,sans-Serif" font-size="10.00">string.h</text>
</a>
</g>
</g>
<!-- Node7&#45;&gt;Node9 -->
<g id="edge9" class="edge">
<title>Node7&#45;&gt;Node9</title>
<path fill="none" stroke="midnightblue" d="M166.5,-168.37C166.5,-150.62 166.5,-109.67 166.5,-85.6"/>
<polygon fill="midnightblue" stroke="midnightblue" points="170,-85.59 166.5,-75.59 163,-85.59 170,-85.59"/>
</g>
<!-- Node10 -->
<g id="node10" class="node">
<title>Node10</title>
<g id="a_node10"><a xlink:title=" ">
<polygon fill="none" stroke="#bfbfbf" points="525.5,-56.5 525.5,-75.5 571.5,-75.5 571.5,-56.5 525.5,-56.5"/>
<text text-anchor="middle" x="548.5" y="-63.5" font-family="Helvetica,sans-Serif" font-size="10.00">errno.h</text>
</a>
</g>
</g>
<!-- Node7&#45;&gt;Node10 -->
<g id="edge11" class="edge">
<title>Node7&#45;&gt;Node10</title>
<path fill="none" stroke="midnightblue" d="M184.16,-171.92C243.7,-154.77 437.71,-98.9 515.65,-76.46"/>
<polygon fill="midnightblue" stroke="midnightblue" points="516.78,-79.78 525.42,-73.64 514.85,-73.05 516.78,-79.78"/>
</g>
<!-- Node7&#45;&gt;Node11 -->
<g id="edge12" class="edge">
<title>Node7&#45;&gt;Node11</title>
<path fill="none" stroke="midnightblue" d="M177.1,-168.32C186.96,-160.26 201.85,-148.08 213.72,-138.37"/>
<polygon fill="midnightblue" stroke="midnightblue" points="216.18,-140.88 221.7,-131.83 211.75,-135.46 216.18,-140.88"/>
</g>
<!-- Node11&#45;&gt;Node3 -->
<g id="edge15" class="edge">
<title>Node11&#45;&gt;Node3</title>
<path fill="none" stroke="midnightblue" d="M211.16,-115.32C177.42,-106.35 111.24,-88.74 68.76,-77.44"/>
<polygon fill="midnightblue" stroke="midnightblue" points="69.59,-74.04 59.03,-74.85 67.79,-80.81 69.59,-74.04"/>
</g>
<!-- Node11&#45;&gt;Node8 -->
<g id="edge13" class="edge">
<title>Node11&#45;&gt;Node8</title>
<path fill="none" stroke="midnightblue" d="M211.58,-112.44C189.76,-103.52 155.35,-89.44 130.61,-79.32"/>
<polygon fill="midnightblue" stroke="midnightblue" points="131.9,-76.06 121.32,-75.52 129.25,-82.54 131.9,-76.06"/>
</g>
<!-- Node11&#45;&gt;Node9 -->
<g id="edge14" class="edge">
<title>Node11&#45;&gt;Node9</title>
<path fill="none" stroke="midnightblue" d="M221.9,-112.32C212.04,-104.26 197.15,-92.08 185.28,-82.37"/>
<polygon fill="midnightblue" stroke="midnightblue" points="187.25,-79.46 177.3,-75.83 182.82,-84.88 187.25,-79.46"/>
</g>
<!-- Node11&#45;&gt;Node10 -->
<g id="edge19" class="edge">
<title>Node11&#45;&gt;Node10</title>
<path fill="none" stroke="midnightblue" d="M253.68,-118.51C299.6,-112.92 411.9,-98.27 515.2,-76.08"/>
<polygon fill="midnightblue" stroke="midnightblue" points="516.13,-79.45 525.16,-73.9 514.64,-72.61 516.13,-79.45"/>
</g>
<!-- Node12 -->
<g id="node12" class="node">
<title>Node12</title>
<g id="a_node12"><a xlink:title=" ">
<polygon fill="none" stroke="#bfbfbf" points="209,-56.5 209,-75.5 292,-75.5 292,-56.5 209,-56.5"/>
<text text-anchor="middle" x="250.5" y="-63.5" font-family="Helvetica,sans-Serif" font-size="10.00">cjson/cJSON.h</text>
</a>
</g>
</g>
<!-- Node11&#45;&gt;Node12 -->
<g id="edge16" class="edge">
<title>Node11&#45;&gt;Node12</title>
<path fill="none" stroke="midnightblue" d="M235.47,-112.08C237.88,-104.85 241.36,-94.41 244.37,-85.4"/>
<polygon fill="midnightblue" stroke="midnightblue" points="247.74,-86.34 247.58,-75.75 241.1,-84.13 247.74,-86.34"/>
</g>
<!-- Node13 -->
<g id="node13" class="node">
<title>Node13</title>
<g id="a_node13"><a xlink:title=" ">
<polygon fill="none" stroke="#bfbfbf" points="310,-56.5 310,-75.5 369,-75.5 369,-56.5 310,-56.5"/>
<text text-anchor="middle" x="339.5" y="-63.5" font-family="Helvetica,sans-Serif" font-size="10.00">sys/stat.h</text>
</a>
</g>
</g>
<!-- Node11&#45;&gt;Node13 -->
<g id="edge17" class="edge">
<title>Node11&#45;&gt;Node13</title>
<path fill="none" stroke="midnightblue" d="M249.69,-112.32C266.85,-103.66 293.45,-90.24 313.25,-80.25"/>
<polygon fill="midnightblue" stroke="midnightblue" points="315,-83.28 322.35,-75.65 311.85,-77.04 315,-83.28"/>
</g>
<!-- Node14 -->
<g id="node14" class="node">
<title>Node14</title>
<g id="a_node14"><a xlink:title=" ">
<polygon fill="none" stroke="#bfbfbf" points="387,-56.5 387,-75.5 452,-75.5 452,-56.5 387,-56.5"/>
<text text-anchor="middle" x="419.5" y="-63.5" font-family="Helvetica,sans-Serif" font-size="10.00">sys/types.h</text>
</a>
</g>
</g>
<!-- Node11&#45;&gt;Node14 -->
<g id="edge18" class="edge">
<title>Node11&#45;&gt;Node14</title>
<path fill="none" stroke="midnightblue" d="M253.59,-114.91C284.19,-106.07 341.45,-89.54 380.03,-78.4"/>
<polygon fill="midnightblue" stroke="midnightblue" points="381.26,-81.69 389.9,-75.55 379.32,-74.96 381.26,-81.69"/>
</g>
<!-- Node15 -->
<g id="node15" class="node">
<title>Node15</title>
<g id="a_node15"><a xlink:href="log_8h.html" target="_top" xlink:title=" ">
<polygon fill="none" stroke="black" points="470,-56.5 470,-75.5 507,-75.5 507,-56.5 470,-56.5"/>
<text text-anchor="middle" x="488.5" y="-63.5" font-family="Helvetica,sans-Serif" font-size="10.00">log.h</text>
</a>
</g>
</g>
<!-- Node11&#45;&gt;Node15 -->
<g id="edge20" class="edge">
<title>Node11&#45;&gt;Node15</title>
<path fill="none" stroke="midnightblue" d="M253.54,-117.79C292.54,-111.64 378.8,-97.14 459.85,-76.19"/>
<polygon fill="midnightblue" stroke="midnightblue" points="460.93,-79.53 469.71,-73.6 459.15,-72.76 460.93,-79.53"/>
</g>
<!-- Node16 -->
<g id="node16" class="node">
<title>Node16</title>
<g id="a_node16"><a xlink:title=" ">
<polygon fill="none" stroke="#bfbfbf" points="364,-0.5 364,-19.5 409,-19.5 409,-0.5 364,-0.5"/>
<text text-anchor="middle" x="386.5" y="-7.5" font-family="Helvetica,sans-Serif" font-size="10.00">stdio.h</text>
</a>
</g>
</g>
<!-- Node15&#45;&gt;Node16 -->
<g id="edge21" class="edge">
<title>Node15&#45;&gt;Node16</title>
<path fill="none" stroke="midnightblue" d="M472.11,-56.32C455.83,-47.7 430.63,-34.36 411.78,-24.39"/>
<polygon fill="midnightblue" stroke="midnightblue" points="413.32,-21.24 402.85,-19.65 410.05,-27.43 413.32,-21.24"/>
</g>
<!-- Node17 -->
<g id="node17" class="node">
<title>Node17</title>
<g id="a_node17"><a xlink:title=" ">
<polygon fill="none" stroke="#bfbfbf" points="427,-0.5 427,-19.5 478,-19.5 478,-0.5 427,-0.5"/>
<text text-anchor="middle" x="452.5" y="-7.5" font-family="Helvetica,sans-Serif" font-size="10.00">stdarg.h</text>
</a>
</g>
</g>
<!-- Node15&#45;&gt;Node17 -->
<g id="edge22" class="edge">
<title>Node15&#45;&gt;Node17</title>
<path fill="none" stroke="midnightblue" d="M482.56,-56.08C477.52,-48.53 470.16,-37.49 463.99,-28.23"/>
<polygon fill="midnightblue" stroke="midnightblue" points="466.79,-26.13 458.33,-19.75 460.97,-30.01 466.79,-26.13"/>
</g>
<!-- Node18 -->
<g id="node18" class="node">
<title>Node18</title>
<g id="a_node18"><a xlink:title=" ">
<polygon fill="none" stroke="#bfbfbf" points="496.5,-0.5 496.5,-19.5 552.5,-19.5 552.5,-0.5 496.5,-0.5"/>
<text text-anchor="middle" x="524.5" y="-7.5" font-family="Helvetica,sans-Serif" font-size="10.00">stdbool.h</text>
</a>
</g>
</g>
<!-- Node15&#45;&gt;Node18 -->
<g id="edge23" class="edge">
<title>Node15&#45;&gt;Node18</title>
<path fill="none" stroke="midnightblue" d="M494.44,-56.08C499.48,-48.53 506.84,-37.49 513.01,-28.23"/>
<polygon fill="midnightblue" stroke="midnightblue" points="516.03,-30.01 518.67,-19.75 510.21,-26.13 516.03,-30.01"/>
</g>
<!-- Node19 -->
<g id="node19" class="node">
<title>Node19</title>
<g id="a_node19"><a xlink:title=" ">
<polygon fill="none" stroke="#bfbfbf" points="571,-0.5 571,-19.5 614,-19.5 614,-0.5 571,-0.5"/>
<text text-anchor="middle" x="592.5" y="-7.5" font-family="Helvetica,sans-Serif" font-size="10.00">time.h</text>
</a>
</g>
</g>
<!-- Node15&#45;&gt;Node19 -->
<g id="edge24" class="edge">
<title>Node15&#45;&gt;Node19</title>
<path fill="none" stroke="midnightblue" d="M505.21,-56.32C521.81,-47.7 547.5,-34.36 566.72,-24.39"/>
<polygon fill="midnightblue" stroke="midnightblue" points="568.57,-27.37 575.83,-19.65 565.34,-21.16 568.57,-27.37"/>
</g>
</g>
</svg>
