<?xml version="1.0" encoding="UTF-8" standalone="no"?>
<!DOCTYPE svg PUBLIC "-//W3C//DTD SVG 1.1//EN"
 "http://www.w3.org/Graphics/SVG/1.1/DTD/svg11.dtd">
<!-- Generated by graphviz version 2.49.3 (20211027.1534)
 -->
<!-- Title: include/BOM/historical_weather.h Pages: 1 -->
<svg width="739pt" height="319pt"
 viewBox="0.00 0.00 738.74 319.00" xmlns="http://www.w3.org/2000/svg" xmlns:xlink="http://www.w3.org/1999/xlink">
<g id="graph0" class="graph" transform="scale(1 1) rotate(0) translate(4 315)">
<title>include/BOM/historical_weather.h</title>
<!-- Node1 -->
<g id="node1" class="node">
<title>Node1</title>
<g id="a_node1"><a xlink:title=" ">
<polygon fill="#bfbfbf" stroke="black" points="272.24,-280.5 272.24,-310.5 387.24,-310.5 387.24,-280.5 272.24,-280.5"/>
<text text-anchor="start" x="280.24" y="-298.5" font-family="Helvetica,sans-Serif" font-size="10.00">include/BOM/historical</text>
<text text-anchor="middle" x="329.74" y="-287.5" font-family="Helvetica,sans-Serif" font-size="10.00">_weather.h</text>
</a>
</g>
</g>
<!-- Node2 -->
<g id="node2" class="node">
<title>Node2</title>
<g id="a_node2"><a xlink:title=" ">
<polygon fill="none" stroke="#bfbfbf" points="201.24,-0.5 201.24,-19.5 244.24,-19.5 244.24,-0.5 201.24,-0.5"/>
<text text-anchor="middle" x="222.74" y="-7.5" font-family="Helvetica,sans-Serif" font-size="10.00">time.h</text>
</a>
</g>
</g>
<!-- Node1&#45;&gt;Node2 -->
<g id="edge1" class="edge">
<title>Node1&#45;&gt;Node2</title>
<path fill="none" stroke="midnightblue" d="M272.06,-286.37C177.7,-271.43 0.74,-235.83 0.74,-179 0.74,-179 0.74,-179 0.74,-121 0.74,-90.9 -2.23,-76.57 19.74,-56 44.23,-33.09 140.09,-19.73 190.83,-14.13"/>
<polygon fill="midnightblue" stroke="midnightblue" points="191.36,-17.59 200.93,-13.05 190.62,-10.63 191.36,-17.59"/>
</g>
<!-- Node3 -->
<g id="node3" class="node">
<title>Node3</title>
<g id="a_node3"><a xlink:title=" ">
<polygon fill="none" stroke="#bfbfbf" points="29.24,-56.5 29.24,-75.5 88.24,-75.5 88.24,-56.5 29.24,-56.5"/>
<text text-anchor="middle" x="58.74" y="-63.5" font-family="Helvetica,sans-Serif" font-size="10.00">curl/curl.h</text>
</a>
</g>
</g>
<!-- Node1&#45;&gt;Node3 -->
<g id="edge2" class="edge">
<title>Node1&#45;&gt;Node3</title>
<path fill="none" stroke="midnightblue" d="M311.38,-280.32C298.51,-270.3 280.95,-256.49 265.74,-244 194.37,-185.37 111.4,-113.16 76.08,-82.23"/>
<polygon fill="midnightblue" stroke="midnightblue" points="78.36,-79.57 68.54,-75.61 73.75,-84.84 78.36,-79.57"/>
</g>
<!-- Node4 -->
<g id="node4" class="node">
<title>Node4</title>
<g id="a_node4"><a xlink:title=" ">
<polygon fill="none" stroke="#bfbfbf" points="379.24,-168.5 379.24,-187.5 426.24,-187.5 426.24,-168.5 379.24,-168.5"/>
<text text-anchor="middle" x="402.74" y="-175.5" font-family="Helvetica,sans-Serif" font-size="10.00">ctype.h</text>
</a>
</g>
</g>
<!-- Node1&#45;&gt;Node4 -->
<g id="edge3" class="edge">
<title>Node1&#45;&gt;Node4</title>
<path fill="none" stroke="midnightblue" d="M347.92,-280.25C358.74,-270.94 372.03,-257.95 380.74,-244 389.72,-229.63 395.51,-211.17 398.89,-197.6"/>
<polygon fill="midnightblue" stroke="midnightblue" points="402.37,-198.07 401.17,-187.54 395.54,-196.52 402.37,-198.07"/>
</g>
<!-- Node5 -->
<g id="node5" class="node">
<title>Node5</title>
<g id="a_node5"><a xlink:title=" ">
<polygon fill="none" stroke="#bfbfbf" points="482.74,-224.5 482.74,-243.5 538.74,-243.5 538.74,-224.5 482.74,-224.5"/>
<text text-anchor="middle" x="510.74" y="-231.5" font-family="Helvetica,sans-Serif" font-size="10.00">libpq&#45;fe.h</text>
</a>
</g>
</g>
<!-- Node1&#45;&gt;Node5 -->
<g id="edge4" class="edge">
<title>Node1&#45;&gt;Node5</title>
<path fill="none" stroke="midnightblue" d="M372.64,-280.4C403.78,-270.16 445.43,-256.47 474.82,-246.81"/>
<polygon fill="midnightblue" stroke="midnightblue" points="476.26,-250.02 484.67,-243.57 474.08,-243.37 476.26,-250.02"/>
</g>
<!-- Node6 -->
<g id="node6" class="node">
<title>Node6</title>
<g id="a_node6"><a xlink:title=" ">
<polygon fill="none" stroke="#bfbfbf" points="682.74,-56.5 682.74,-75.5 730.74,-75.5 730.74,-56.5 682.74,-56.5"/>
<text text-anchor="middle" x="706.74" y="-63.5" font-family="Helvetica,sans-Serif" font-size="10.00">stdint.h</text>
</a>
</g>
</g>
<!-- Node1&#45;&gt;Node6 -->
<g id="edge5" class="edge">
<title>Node1&#45;&gt;Node6</title>
<path fill="none" stroke="midnightblue" d="M353.04,-280.44C420.66,-239.64 616.39,-121.53 683.69,-80.91"/>
<polygon fill="midnightblue" stroke="midnightblue" points="685.56,-83.87 692.31,-75.71 681.94,-77.88 685.56,-83.87"/>
</g>
<!-- Node7 -->
<g id="node7" class="node">
<title>Node7</title>
<g id="a_node7"><a xlink:href="stations_8h.html" target="_top" xlink:title=" ">
<polygon fill="none" stroke="black" points="287.74,-224.5 287.74,-243.5 371.74,-243.5 371.74,-224.5 287.74,-224.5"/>
<text text-anchor="middle" x="329.74" y="-231.5" font-family="Helvetica,sans-Serif" font-size="10.00">BOM/stations.h</text>
</a>
</g>
</g>
<!-- Node1&#45;&gt;Node7 -->
<g id="edge6" class="edge">
<title>Node1&#45;&gt;Node7</title>
<path fill="none" stroke="midnightblue" d="M329.74,-280.4C329.74,-272.47 329.74,-262.46 329.74,-253.86"/>
<polygon fill="midnightblue" stroke="midnightblue" points="333.24,-253.66 329.74,-243.66 326.24,-253.66 333.24,-253.66"/>
</g>
<!-- Node9 -->
<g id="node9" class="node">
<title>Node9</title>
<g id="a_node9"><a xlink:href="ftp_8h.html" target="_top" xlink:title=" ">
<polygon fill="none" stroke="black" points="236.24,-168.5 236.24,-187.5 271.24,-187.5 271.24,-168.5 236.24,-168.5"/>
<text text-anchor="middle" x="253.74" y="-175.5" font-family="Helvetica,sans-Serif" font-size="10.00">ftp.h</text>
</a>
</g>
</g>
<!-- Node1&#45;&gt;Node9 -->
<g id="edge30" class="edge">
<title>Node1&#45;&gt;Node9</title>
<path fill="none" stroke="midnightblue" d="M311.77,-280.12C301.02,-270.77 287.74,-257.77 278.74,-244 269.25,-229.46 262.54,-210.78 258.48,-197.18"/>
<polygon fill="midnightblue" stroke="midnightblue" points="261.85,-196.23 255.79,-187.54 255.1,-198.11 261.85,-196.23"/>
</g>
<!-- Node7&#45;&gt;Node4 -->
<g id="edge8" class="edge">
<title>Node7&#45;&gt;Node4</title>
<path fill="none" stroke="midnightblue" d="M341.47,-224.32C352.58,-216.11 369.49,-203.6 382.73,-193.81"/>
<polygon fill="midnightblue" stroke="midnightblue" points="384.84,-196.59 390.8,-187.83 380.68,-190.97 384.84,-196.59"/>
</g>
<!-- Node8 -->
<g id="node8" class="node">
<title>Node8</title>
<g id="a_node8"><a xlink:title=" ">
<polygon fill="none" stroke="#bfbfbf" points="618.74,-56.5 618.74,-75.5 664.74,-75.5 664.74,-56.5 618.74,-56.5"/>
<text text-anchor="middle" x="641.74" y="-63.5" font-family="Helvetica,sans-Serif" font-size="10.00">math.h</text>
</a>
</g>
</g>
<!-- Node7&#45;&gt;Node8 -->
<g id="edge7" class="edge">
<title>Node7&#45;&gt;Node8</title>
<path fill="none" stroke="midnightblue" d="M333.82,-224.36C340.26,-211.27 353.71,-186.01 369.74,-168 396.46,-137.98 404.36,-129.08 440.74,-112 507.41,-80.71 533.07,-93.25 608.73,-76.04"/>
<polygon fill="midnightblue" stroke="midnightblue" points="609.8,-79.39 618.72,-73.67 608.18,-72.58 609.8,-79.39"/>
</g>
<!-- Node7&#45;&gt;Node9 -->
<g id="edge9" class="edge">
<title>Node7&#45;&gt;Node9</title>
<path fill="none" stroke="midnightblue" d="M317.53,-224.32C305.97,-216.11 288.37,-203.6 274.58,-193.81"/>
<polygon fill="midnightblue" stroke="midnightblue" points="276.36,-190.77 266.18,-187.83 272.3,-196.48 276.36,-190.77"/>
</g>
<!-- Node13 -->
<g id="node13" class="node">
<title>Node13</title>
<g id="a_node13"><a xlink:href="utils_8h.html" target="_top" xlink:title=" ">
<polygon fill="none" stroke="black" points="281.74,-112.5 281.74,-131.5 323.74,-131.5 323.74,-112.5 281.74,-112.5"/>
<text text-anchor="middle" x="302.74" y="-119.5" font-family="Helvetica,sans-Serif" font-size="10.00">utils.h</text>
</a>
</g>
</g>
<!-- Node7&#45;&gt;Node13 -->
<g id="edge29" class="edge">
<title>Node7&#45;&gt;Node13</title>
<path fill="none" stroke="midnightblue" d="M327.63,-224.37C323.27,-206.62 313.22,-165.67 307.31,-141.6"/>
<polygon fill="midnightblue" stroke="midnightblue" points="310.64,-140.47 304.85,-131.59 303.84,-142.14 310.64,-140.47"/>
</g>
<!-- Node9&#45;&gt;Node3 -->
<g id="edge12" class="edge">
<title>Node9&#45;&gt;Node3</title>
<path fill="none" stroke="midnightblue" d="M238.44,-168.37C204.62,-149.29 123.31,-103.42 82.69,-80.51"/>
<polygon fill="midnightblue" stroke="midnightblue" points="84.4,-77.46 73.97,-75.59 80.96,-83.55 84.4,-77.46"/>
</g>
<!-- Node10 -->
<g id="node10" class="node">
<title>Node10</title>
<g id="a_node10"><a xlink:title=" ">
<polygon fill="none" stroke="#bfbfbf" points="106.24,-56.5 106.24,-75.5 153.24,-75.5 153.24,-56.5 106.24,-56.5"/>
<text text-anchor="middle" x="129.74" y="-63.5" font-family="Helvetica,sans-Serif" font-size="10.00">stdlib.h</text>
</a>
</g>
</g>
<!-- Node9&#45;&gt;Node10 -->
<g id="edge10" class="edge">
<title>Node9&#45;&gt;Node10</title>
<path fill="none" stroke="midnightblue" d="M244.01,-168.37C223.1,-149.81 173.61,-105.91 147.15,-82.44"/>
<polygon fill="midnightblue" stroke="midnightblue" points="149.23,-79.61 139.43,-75.59 144.59,-84.85 149.23,-79.61"/>
</g>
<!-- Node11 -->
<g id="node11" class="node">
<title>Node11</title>
<g id="a_node11"><a xlink:title=" ">
<polygon fill="none" stroke="#bfbfbf" points="171.74,-56.5 171.74,-75.5 219.74,-75.5 219.74,-56.5 171.74,-56.5"/>
<text text-anchor="middle" x="195.74" y="-63.5" font-family="Helvetica,sans-Serif" font-size="10.00">string.h</text>
</a>
</g>
</g>
<!-- Node9&#45;&gt;Node11 -->
<g id="edge11" class="edge">
<title>Node9&#45;&gt;Node11</title>
<path fill="none" stroke="midnightblue" d="M249.19,-168.37C239.71,-150.38 217.65,-108.55 205.04,-84.63"/>
<polygon fill="midnightblue" stroke="midnightblue" points="208.03,-82.8 200.27,-75.59 201.84,-86.07 208.03,-82.8"/>
</g>
<!-- Node12 -->
<g id="node12" class="node">
<title>Node12</title>
<g id="a_node12"><a xlink:title=" ">
<polygon fill="none" stroke="#bfbfbf" points="237.74,-56.5 237.74,-75.5 283.74,-75.5 283.74,-56.5 237.74,-56.5"/>
<text text-anchor="middle" x="260.74" y="-63.5" font-family="Helvetica,sans-Serif" font-size="10.00">errno.h</text>
</a>
</g>
</g>
<!-- Node9&#45;&gt;Node12 -->
<g id="edge13" class="edge">
<title>Node9&#45;&gt;Node12</title>
<path fill="none" stroke="midnightblue" d="M254.29,-168.37C255.42,-150.62 258.03,-109.67 259.56,-85.6"/>
<polygon fill="midnightblue" stroke="midnightblue" points="263.05,-85.79 260.2,-75.59 256.07,-85.35 263.05,-85.79"/>
</g>
<!-- Node9&#45;&gt;Node13 -->
<g id="edge14" class="edge">
<title>Node9&#45;&gt;Node13</title>
<path fill="none" stroke="midnightblue" d="M261.84,-168.08C268.9,-160.3 279.33,-148.8 287.89,-139.37"/>
<polygon fill="midnightblue" stroke="midnightblue" points="290.68,-141.51 294.8,-131.75 285.49,-136.8 290.68,-141.51"/>
</g>
<!-- Node13&#45;&gt;Node3 -->
<g id="edge17" class="edge">
<title>Node13&#45;&gt;Node3</title>
<path fill="none" stroke="midnightblue" d="M281.66,-116.52C245.94,-108.91 171.01,-92.82 98.37,-76.34"/>
<polygon fill="midnightblue" stroke="midnightblue" points="99.13,-72.93 88.6,-74.12 97.58,-79.75 99.13,-72.93"/>
</g>
<!-- Node13&#45;&gt;Node6 -->
<g id="edge18" class="edge">
<title>Node13&#45;&gt;Node6</title>
<path fill="none" stroke="midnightblue" d="M323.83,-119.52C379.39,-115.41 534.44,-102.45 672.76,-75.93"/>
<polygon fill="midnightblue" stroke="midnightblue" points="673.54,-79.34 682.69,-74 672.2,-72.47 673.54,-79.34"/>
</g>
<!-- Node13&#45;&gt;Node8 -->
<g id="edge23" class="edge">
<title>Node13&#45;&gt;Node8</title>
<path fill="none" stroke="midnightblue" d="M323.75,-115.16C328.34,-114.01 333.19,-112.88 337.74,-112 454.3,-89.39 488.51,-99.97 608.48,-76"/>
<polygon fill="midnightblue" stroke="midnightblue" points="609.32,-79.4 618.42,-73.97 607.92,-72.54 609.32,-79.4"/>
</g>
<!-- Node13&#45;&gt;Node10 -->
<g id="edge15" class="edge">
<title>Node13&#45;&gt;Node10</title>
<path fill="none" stroke="midnightblue" d="M281.53,-114.38C251.97,-105.15 198.08,-88.33 163.11,-77.41"/>
<polygon fill="midnightblue" stroke="midnightblue" points="163.93,-74.01 153.35,-74.37 161.85,-80.69 163.93,-74.01"/>
</g>
<!-- Node13&#45;&gt;Node11 -->
<g id="edge16" class="edge">
<title>Node13&#45;&gt;Node11</title>
<path fill="none" stroke="midnightblue" d="M285.55,-112.32C268.39,-103.66 241.8,-90.24 222,-80.25"/>
<polygon fill="midnightblue" stroke="midnightblue" points="223.4,-77.04 212.89,-75.65 220.24,-83.28 223.4,-77.04"/>
</g>
<!-- Node13&#45;&gt;Node12 -->
<g id="edge22" class="edge">
<title>Node13&#45;&gt;Node12</title>
<path fill="none" stroke="midnightblue" d="M295.81,-112.08C289.81,-104.38 280.99,-93.03 273.7,-83.65"/>
<polygon fill="midnightblue" stroke="midnightblue" points="276.45,-81.5 267.55,-75.75 270.93,-85.79 276.45,-81.5"/>
</g>
<!-- Node14 -->
<g id="node14" class="node">
<title>Node14</title>
<g id="a_node14"><a xlink:title=" ">
<polygon fill="none" stroke="#bfbfbf" points="302.24,-56.5 302.24,-75.5 385.24,-75.5 385.24,-56.5 302.24,-56.5"/>
<text text-anchor="middle" x="343.74" y="-63.5" font-family="Helvetica,sans-Serif" font-size="10.00">cjson/cJSON.h</text>
</a>
</g>
</g>
<!-- Node13&#45;&gt;Node14 -->
<g id="edge19" class="edge">
<title>Node13&#45;&gt;Node14</title>
<path fill="none" stroke="midnightblue" d="M309.51,-112.08C315.31,-104.46 323.8,-93.26 330.88,-83.94"/>
<polygon fill="midnightblue" stroke="midnightblue" points="333.84,-85.83 337.1,-75.75 328.26,-81.6 333.84,-85.83"/>
</g>
<!-- Node15 -->
<g id="node15" class="node">
<title>Node15</title>
<g id="a_node15"><a xlink:title=" ">
<polygon fill="none" stroke="#bfbfbf" points="403.24,-56.5 403.24,-75.5 462.24,-75.5 462.24,-56.5 403.24,-56.5"/>
<text text-anchor="middle" x="432.74" y="-63.5" font-family="Helvetica,sans-Serif" font-size="10.00">sys/stat.h</text>
</a>
</g>
</g>
<!-- Node13&#45;&gt;Node15 -->
<g id="edge20" class="edge">
<title>Node13&#45;&gt;Node15</title>
<path fill="none" stroke="midnightblue" d="M323.34,-112.44C344.74,-103.56 378.43,-89.56 402.77,-79.45"/>
<polygon fill="midnightblue" stroke="midnightblue" points="404.35,-82.58 412.24,-75.52 401.66,-76.12 404.35,-82.58"/>
</g>
<!-- Node16 -->
<g id="node16" class="node">
<title>Node16</title>
<g id="a_node16"><a xlink:title=" ">
<polygon fill="none" stroke="#bfbfbf" points="480.24,-56.5 480.24,-75.5 545.24,-75.5 545.24,-56.5 480.24,-56.5"/>
<text text-anchor="middle" x="512.74" y="-63.5" font-family="Helvetica,sans-Serif" font-size="10.00">sys/types.h</text>
</a>
</g>
</g>
<!-- Node13&#45;&gt;Node16 -->
<g id="edge21" class="edge">
<title>Node13&#45;&gt;Node16</title>
<path fill="none" stroke="midnightblue" d="M324.04,-115.53C358.18,-106.74 425.85,-89.34 470.19,-77.94"/>
<polygon fill="midnightblue" stroke="midnightblue" points="471.29,-81.27 480.1,-75.39 469.54,-74.49 471.29,-81.27"/>
</g>
<!-- Node17 -->
<g id="node17" class="node">
<title>Node17</title>
<g id="a_node17"><a xlink:href="log_8h.html" target="_top" xlink:title=" ">
<polygon fill="none" stroke="black" points="563.24,-56.5 563.24,-75.5 600.24,-75.5 600.24,-56.5 563.24,-56.5"/>
<text text-anchor="middle" x="581.74" y="-63.5" font-family="Helvetica,sans-Serif" font-size="10.00">log.h</text>
</a>
</g>
</g>
<!-- Node13&#45;&gt;Node17 -->
<g id="edge24" class="edge">
<title>Node13&#45;&gt;Node17</title>
<path fill="none" stroke="midnightblue" d="M323.77,-115.28C328.36,-114.12 333.2,-112.96 337.74,-112 430.32,-92.46 458.08,-99.06 553.24,-76.07"/>
<polygon fill="midnightblue" stroke="midnightblue" points="554.1,-79.47 562.97,-73.68 552.43,-72.67 554.1,-79.47"/>
</g>
<!-- Node17&#45;&gt;Node2 -->
<g id="edge28" class="edge">
<title>Node17&#45;&gt;Node2</title>
<path fill="none" stroke="midnightblue" d="M562.99,-58.25C560.25,-57.41 557.44,-56.63 554.74,-56 446.2,-30.79 314.19,-18.11 254.62,-13.33"/>
<polygon fill="midnightblue" stroke="midnightblue" points="254.6,-9.81 244.36,-12.52 254.05,-16.79 254.6,-9.81"/>
</g>
<!-- Node18 -->
<g id="node18" class="node">
<title>Node18</title>
<g id="a_node18"><a xlink:title=" ">
<polygon fill="none" stroke="#bfbfbf" points="559.24,-0.5 559.24,-19.5 604.24,-19.5 604.24,-0.5 559.24,-0.5"/>
<text text-anchor="middle" x="581.74" y="-7.5" font-family="Helvetica,sans-Serif" font-size="10.00">stdio.h</text>
</a>
</g>
</g>
<!-- Node17&#45;&gt;Node18 -->
<g id="edge25" class="edge">
<title>Node17&#45;&gt;Node18</title>
<path fill="none" stroke="midnightblue" d="M581.74,-56.08C581.74,-49.01 581.74,-38.86 581.74,-29.99"/>
<polygon fill="midnightblue" stroke="midnightblue" points="585.24,-29.75 581.74,-19.75 578.24,-29.75 585.24,-29.75"/>
</g>
<!-- Node19 -->
<g id="node19" class="node">
<title>Node19</title>
<g id="a_node19"><a xlink:title=" ">
<polygon fill="none" stroke="#bfbfbf" points="622.24,-0.5 622.24,-19.5 673.24,-19.5 673.24,-0.5 622.24,-0.5"/>
<text text-anchor="middle" x="647.74" y="-7.5" font-family="Helvetica,sans-Serif" font-size="10.00">stdarg.h</text>
</a>
</g>
</g>
<!-- Node17&#45;&gt;Node19 -->
<g id="edge26" class="edge">
<title>Node17&#45;&gt;Node19</title>
<path fill="none" stroke="midnightblue" d="M592.35,-56.32C602.2,-48.26 617.09,-36.08 628.96,-26.37"/>
<polygon fill="midnightblue" stroke="midnightblue" points="631.42,-28.88 636.95,-19.83 626.99,-23.46 631.42,-28.88"/>
</g>
<!-- Node20 -->
<g id="node20" class="node">
<title>Node20</title>
<g id="a_node20"><a xlink:title=" ">
<polygon fill="none" stroke="#bfbfbf" points="484.74,-0.5 484.74,-19.5 540.74,-19.5 540.74,-0.5 484.74,-0.5"/>
<text text-anchor="middle" x="512.74" y="-7.5" font-family="Helvetica,sans-Serif" font-size="10.00">stdbool.h</text>
</a>
</g>
</g>
<!-- Node17&#45;&gt;Node20 -->
<g id="edge27" class="edge">
<title>Node17&#45;&gt;Node20</title>
<path fill="none" stroke="midnightblue" d="M570.66,-56.32C560.26,-48.18 544.48,-35.84 532.02,-26.09"/>
<polygon fill="midnightblue" stroke="midnightblue" points="534.06,-23.24 524.03,-19.83 529.75,-28.75 534.06,-23.24"/>
</g>
</g>
</svg>
