<?xml version="1.0" encoding="UTF-8" standalone="no"?>
<!DOCTYPE svg PUBLIC "-//W3C//DTD SVG 1.1//EN"
 "http://www.w3.org/Graphics/SVG/1.1/DTD/svg11.dtd">
<!-- Generated by graphviz version 2.43.0 (0)
 -->
<!-- Title: include/BOM/historical_weather.h Pages: 1 -->
<svg width="1372pt" height="434pt"
 viewBox="0.00 0.00 1372.00 434.00" xmlns="http://www.w3.org/2000/svg" xmlns:xlink="http://www.w3.org/1999/xlink">
<g id="graph0" class="graph" transform="scale(1 1) rotate(0) translate(4 430)">
<title>include/BOM/historical_weather.h</title>
<!-- Node1 -->
<g id="node1" class="node">
<title>Node1</title>
<g id="a_node1"><a xlink:title=" ">
<polygon fill="#999999" stroke="#666666" points="1294,-426 1168,-426 1168,-396 1294,-396 1294,-426"/>
<text text-anchor="start" x="1176" y="-414" font-family="Helvetica,sans-Serif" font-size="10.00">include/BOM/historical</text>
<text text-anchor="middle" x="1231" y="-403" font-family="Helvetica,sans-Serif" font-size="10.00">_weather.h</text>
</a>
</g>
</g>
<!-- Node2 -->
<g id="node2" class="node">
<title>Node2</title>
<g id="a_node2"><a xlink:title=" ">
<polygon fill="#e0e0e0" stroke="#999999" points="1073,-19 1025,-19 1025,0 1073,0 1073,-19"/>
<text text-anchor="middle" x="1049" y="-7" font-family="Helvetica,sans-Serif" font-size="10.00">time.h</text>
</a>
</g>
</g>
<!-- Node1&#45;&gt;Node2 -->
<g id="edge1" class="edge">
<title>Node1&#45;&gt;Node2</title>
<path fill="none" stroke="#63b8ff" d="M1270.19,-395.85C1309.42,-378.86 1364,-346.28 1364,-296.5 1364,-296.5 1364,-296.5 1364,-118.5 1364,-83.65 1347.64,-73.33 1318,-55 1279.28,-31.05 1146.85,-17.97 1083.42,-12.94"/>
<polygon fill="#63b8ff" stroke="#63b8ff" points="1083.37,-9.43 1073.13,-12.15 1082.83,-16.41 1083.37,-9.43"/>
</g>
<!-- Node3 -->
<g id="node3" class="node">
<title>Node3</title>
<g id="a_node3"><a xlink:title=" ">
<polygon fill="#e0e0e0" stroke="#999999" points="399.5,-74 334.5,-74 334.5,-55 399.5,-55 399.5,-74"/>
<text text-anchor="middle" x="367" y="-62" font-family="Helvetica,sans-Serif" font-size="10.00">curl/curl.h</text>
</a>
</g>
</g>
<!-- Node1&#45;&gt;Node3 -->
<g id="edge2" class="edge">
<title>Node1&#45;&gt;Node3</title>
<path fill="none" stroke="#63b8ff" d="M1167.93,-410.56C965.67,-410.84 339.68,-399.44 223,-250 180.78,-195.93 238.21,-157.19 288,-110 302,-96.73 320.71,-85.97 336.4,-78.35"/>
<polygon fill="#63b8ff" stroke="#63b8ff" points="338.12,-81.41 345.71,-74.02 335.17,-75.06 338.12,-81.41"/>
</g>
<!-- Node4 -->
<g id="node4" class="node">
<title>Node4</title>
<g id="a_node4"><a xlink:title=" ">
<polygon fill="#e0e0e0" stroke="#999999" points="1259.5,-184 1206.5,-184 1206.5,-165 1259.5,-165 1259.5,-184"/>
<text text-anchor="middle" x="1233" y="-172" font-family="Helvetica,sans-Serif" font-size="10.00">ctype.h</text>
</a>
</g>
</g>
<!-- Node1&#45;&gt;Node4 -->
<g id="edge3" class="edge">
<title>Node1&#45;&gt;Node4</title>
<path fill="none" stroke="#63b8ff" d="M1231.12,-395.68C1231.47,-355.25 1232.45,-240.17 1232.84,-194.51"/>
<polygon fill="#63b8ff" stroke="#63b8ff" points="1236.34,-194.29 1232.93,-184.26 1229.34,-194.23 1236.34,-194.29"/>
</g>
<!-- Node5 -->
<g id="node5" class="node">
<title>Node5</title>
<g id="a_node5"><a xlink:title=" ">
<polygon fill="#e0e0e0" stroke="#999999" points="1209.5,-74 1146.5,-74 1146.5,-55 1209.5,-55 1209.5,-74"/>
<text text-anchor="middle" x="1178" y="-62" font-family="Helvetica,sans-Serif" font-size="10.00">libpq&#45;fe.h</text>
</a>
</g>
</g>
<!-- Node1&#45;&gt;Node5 -->
<g id="edge4" class="edge">
<title>Node1&#45;&gt;Node5</title>
<path fill="none" stroke="#63b8ff" d="M1243.65,-395.74C1260.44,-375.29 1288,-335.75 1288,-296.5 1288,-296.5 1288,-296.5 1288,-173.5 1288,-128.07 1239.64,-95.4 1207.05,-78.55"/>
<polygon fill="#63b8ff" stroke="#63b8ff" points="1208.43,-75.33 1197.92,-74.02 1205.32,-81.6 1208.43,-75.33"/>
</g>
<!-- Node6 -->
<g id="node6" class="node">
<title>Node6</title>
<g id="a_node6"><a xlink:title=" ">
<polygon fill="#e0e0e0" stroke="#999999" points="1308.5,-74 1255.5,-74 1255.5,-55 1308.5,-55 1308.5,-74"/>
<text text-anchor="middle" x="1282" y="-62" font-family="Helvetica,sans-Serif" font-size="10.00">stdint.h</text>
</a>
</g>
</g>
<!-- Node1&#45;&gt;Node6 -->
<g id="edge5" class="edge">
<title>Node1&#45;&gt;Node6</title>
<path fill="none" stroke="#63b8ff" d="M1258.68,-395.82C1273.26,-387.17 1290.46,-374.9 1302,-360 1320.48,-336.15 1326,-326.67 1326,-296.5 1326,-296.5 1326,-296.5 1326,-173.5 1326,-139.42 1306.97,-103.46 1293.94,-82.83"/>
<polygon fill="#63b8ff" stroke="#63b8ff" points="1296.72,-80.68 1288.3,-74.25 1290.87,-84.53 1296.72,-80.68"/>
</g>
<!-- Node7 -->
<g id="node7" class="node">
<title>Node7</title>
<g id="a_node7"><a xlink:href="transform_8h.html" target="_top" xlink:title=" ">
<polygon fill="white" stroke="#666666" points="896,-360 822,-360 822,-341 896,-341 896,-360"/>
<text text-anchor="middle" x="859" y="-348" font-family="Helvetica,sans-Serif" font-size="10.00">transform.h</text>
</a>
</g>
</g>
<!-- Node1&#45;&gt;Node7 -->
<g id="edge6" class="edge">
<title>Node1&#45;&gt;Node7</title>
<path fill="none" stroke="#63b8ff" d="M1167.9,-400.08C1093.81,-388.43 972.65,-369.37 906.23,-358.93"/>
<polygon fill="#63b8ff" stroke="#63b8ff" points="906.48,-355.42 896.05,-357.33 905.39,-362.34 906.48,-355.42"/>
</g>
<!-- Node13 -->
<g id="node13" class="node">
<title>Node13</title>
<g id="a_node13"><a xlink:href="stations_8h.html" target="_top" xlink:title=" ">
<polygon fill="white" stroke="#666666" points="1149.5,-244.5 1058.5,-244.5 1058.5,-225.5 1149.5,-225.5 1149.5,-244.5"/>
<text text-anchor="middle" x="1104" y="-232.5" font-family="Helvetica,sans-Serif" font-size="10.00">BOM/stations.h</text>
</a>
</g>
</g>
<!-- Node1&#45;&gt;Node13 -->
<g id="edge66" class="edge">
<title>Node1&#45;&gt;Node13</title>
<path fill="none" stroke="#63b8ff" d="M1220.61,-395.76C1197.43,-364.01 1141.59,-287.5 1116.54,-253.18"/>
<polygon fill="#63b8ff" stroke="#63b8ff" points="1119.06,-250.7 1110.34,-244.68 1113.41,-254.83 1119.06,-250.7"/>
</g>
<!-- Node15 -->
<g id="node15" class="node">
<title>Node15</title>
<g id="a_node15"><a xlink:href="ftp_8h.html" target="_top" xlink:title=" ">
<polygon fill="white" stroke="#666666" points="757,-184 719,-184 719,-165 757,-165 757,-184"/>
<text text-anchor="middle" x="738" y="-172" font-family="Helvetica,sans-Serif" font-size="10.00">ftp.h</text>
</a>
</g>
</g>
<!-- Node1&#45;&gt;Node15 -->
<g id="edge67" class="edge">
<title>Node1&#45;&gt;Node15</title>
<path fill="none" stroke="#63b8ff" d="M1167.75,-407.23C1066.86,-402.01 874.57,-388.59 813,-360 780.49,-344.9 770.29,-336.93 754,-305 735.71,-269.14 735.1,-220.67 736.44,-194.37"/>
<polygon fill="#63b8ff" stroke="#63b8ff" points="739.94,-194.47 737.11,-184.26 732.96,-194.01 739.94,-194.47"/>
</g>
<!-- Node7&#45;&gt;Node5 -->
<g id="edge7" class="edge">
<title>Node7&#45;&gt;Node5</title>
<path fill="none" stroke="#63b8ff" d="M896.02,-349.86C961.68,-348.25 1097.42,-334.3 1159,-250 1195.68,-199.79 1187.83,-120.35 1181.77,-84.35"/>
<polygon fill="#63b8ff" stroke="#63b8ff" points="1185.16,-83.48 1179.92,-74.28 1178.28,-84.74 1185.16,-83.48"/>
</g>
<!-- Node8 -->
<g id="node8" class="node">
<title>Node8</title>
<g id="a_node8"><a xlink:title=" ">
<polygon fill="#e0e0e0" stroke="#999999" points="50,-19 0,-19 0,0 50,0 50,-19"/>
<text text-anchor="middle" x="25" y="-7" font-family="Helvetica,sans-Serif" font-size="10.00">stdio.h</text>
</a>
</g>
</g>
<!-- Node7&#45;&gt;Node8 -->
<g id="edge8" class="edge">
<title>Node7&#45;&gt;Node8</title>
<path fill="none" stroke="#63b8ff" d="M821.75,-349.2C710.33,-347.91 381.14,-341.04 281,-305 168.96,-264.67 153.47,-221.91 79,-129 61.03,-106.58 56.96,-100.13 45,-74 38.38,-59.53 33.09,-42.26 29.62,-29.39"/>
<polygon fill="#63b8ff" stroke="#63b8ff" points="32.93,-28.2 27.05,-19.38 26.15,-29.94 32.93,-28.2"/>
</g>
<!-- Node9 -->
<g id="node9" class="node">
<title>Node9</title>
<g id="a_node9"><a xlink:title=" ">
<polygon fill="#e0e0e0" stroke="#999999" points="260.5,-74 207.5,-74 207.5,-55 260.5,-55 260.5,-74"/>
<text text-anchor="middle" x="234" y="-62" font-family="Helvetica,sans-Serif" font-size="10.00">stdlib.h</text>
</a>
</g>
</g>
<!-- Node7&#45;&gt;Node9 -->
<g id="edge9" class="edge">
<title>Node7&#45;&gt;Node9</title>
<path fill="none" stroke="#63b8ff" d="M821.89,-349.55C698.19,-348.86 303.27,-339.58 223,-250 181.09,-203.24 209.68,-120.16 225.48,-83.61"/>
<polygon fill="#63b8ff" stroke="#63b8ff" points="228.79,-84.78 229.7,-74.23 222.4,-81.91 228.79,-84.78"/>
</g>
<!-- Node10 -->
<g id="node10" class="node">
<title>Node10</title>
<g id="a_node10"><a xlink:href="log_8h.html" target="_top" xlink:title=" ">
<polygon fill="white" stroke="#666666" points="678.5,-74 637.5,-74 637.5,-55 678.5,-55 678.5,-74"/>
<text text-anchor="middle" x="658" y="-62" font-family="Helvetica,sans-Serif" font-size="10.00">log.h</text>
</a>
</g>
</g>
<!-- Node7&#45;&gt;Node10 -->
<g id="edge10" class="edge">
<title>Node7&#45;&gt;Node10</title>
<path fill="none" stroke="#63b8ff" d="M850.98,-340.92C836.11,-324.54 804.23,-287.14 787,-250 770.63,-214.7 785.82,-198.49 766,-165 744.26,-128.26 704.76,-97.02 680.03,-79.79"/>
<polygon fill="#63b8ff" stroke="#63b8ff" points="681.88,-76.82 671.65,-74.1 677.95,-82.61 681.88,-76.82"/>
</g>
<!-- Node7&#45;&gt;Node13 -->
<g id="edge15" class="edge">
<title>Node7&#45;&gt;Node13</title>
<path fill="none" stroke="#63b8ff" d="M896.27,-341.1C925.8,-333.69 967.67,-321.51 1002,-305 1033.25,-289.98 1065.83,-266.3 1085.53,-250.96"/>
<polygon fill="#63b8ff" stroke="#63b8ff" points="1087.95,-253.51 1093.62,-244.56 1083.6,-248.02 1087.95,-253.51"/>
</g>
<!-- Node18 -->
<g id="node18" class="node">
<title>Node18</title>
<g id="a_node18"><a xlink:href="utils_8h.html" target="_top" xlink:title=" ">
<polygon fill="white" stroke="#666666" points="974.5,-129 927.5,-129 927.5,-110 974.5,-110 974.5,-129"/>
<text text-anchor="middle" x="951" y="-117" font-family="Helvetica,sans-Serif" font-size="10.00">utils.h</text>
</a>
</g>
</g>
<!-- Node7&#45;&gt;Node18 -->
<g id="edge65" class="edge">
<title>Node7&#45;&gt;Node18</title>
<path fill="none" stroke="#63b8ff" d="M870.29,-340.98C890.31,-325.26 931.96,-289.67 954,-250 972.71,-216.32 979.08,-202.67 971,-165 969.03,-155.8 965,-146.2 961.07,-138.29"/>
<polygon fill="#63b8ff" stroke="#63b8ff" points="964.09,-136.51 956.32,-129.32 957.91,-139.79 964.09,-136.51"/>
</g>
<!-- Node22 -->
<g id="node22" class="node">
<title>Node22</title>
<g id="a_node22"><a xlink:href="harvest__area_8h.html" target="_top" xlink:title=" ">
<polygon fill="white" stroke="#666666" points="921.5,-250 796.5,-250 796.5,-220 921.5,-220 921.5,-250"/>
<text text-anchor="start" x="804.5" y="-238" font-family="Helvetica,sans-Serif" font-size="10.00">FoodAuthority/harvest</text>
<text text-anchor="middle" x="859" y="-227" font-family="Helvetica,sans-Serif" font-size="10.00">_area.h</text>
</a>
</g>
</g>
<!-- Node7&#45;&gt;Node22 -->
<g id="edge36" class="edge">
<title>Node7&#45;&gt;Node22</title>
<path fill="none" stroke="#63b8ff" d="M859,-340.97C859,-324.08 859,-285.85 859,-260.48"/>
<polygon fill="#63b8ff" stroke="#63b8ff" points="862.5,-260.18 859,-250.18 855.5,-260.18 862.5,-260.18"/>
</g>
<!-- Node24 -->
<g id="node24" class="node">
<title>Node24</title>
<g id="a_node24"><a xlink:href="location_8h.html" target="_top" xlink:title=" ">
<polygon fill="white" stroke="#666666" points="585.5,-305 452.5,-305 452.5,-286 585.5,-286 585.5,-305"/>
<text text-anchor="middle" x="519" y="-293" font-family="Helvetica,sans-Serif" font-size="10.00">WillyWeather/location.h</text>
</a>
</g>
</g>
<!-- Node7&#45;&gt;Node24 -->
<g id="edge47" class="edge">
<title>Node7&#45;&gt;Node24</title>
<path fill="none" stroke="#63b8ff" d="M821.97,-343.73C764.8,-334.82 654.29,-317.59 583.72,-306.59"/>
<polygon fill="#63b8ff" stroke="#63b8ff" points="584.02,-303.09 573.6,-305.01 582.95,-310.01 584.02,-303.09"/>
</g>
<!-- Node10&#45;&gt;Node2 -->
<g id="edge14" class="edge">
<title>Node10&#45;&gt;Node2</title>
<path fill="none" stroke="#63b8ff" d="M678.81,-56.96C681.55,-56.23 684.33,-55.55 687,-55 805.95,-30.43 949.89,-17.69 1014.58,-12.85"/>
<polygon fill="#63b8ff" stroke="#63b8ff" points="1014.91,-16.34 1024.63,-12.12 1014.4,-9.36 1014.91,-16.34"/>
</g>
<!-- Node10&#45;&gt;Node8 -->
<g id="edge11" class="edge">
<title>Node10&#45;&gt;Node8</title>
<path fill="none" stroke="#63b8ff" d="M637.3,-61.77C545.77,-54.1 176.78,-23.21 60.37,-13.46"/>
<polygon fill="#63b8ff" stroke="#63b8ff" points="60.48,-9.96 50.22,-12.61 59.89,-16.93 60.48,-9.96"/>
</g>
<!-- Node11 -->
<g id="node11" class="node">
<title>Node11</title>
<g id="a_node11"><a xlink:title=" ">
<polygon fill="#e0e0e0" stroke="#999999" points="647,-19 591,-19 591,0 647,0 647,-19"/>
<text text-anchor="middle" x="619" y="-7" font-family="Helvetica,sans-Serif" font-size="10.00">stdarg.h</text>
</a>
</g>
</g>
<!-- Node10&#45;&gt;Node11 -->
<g id="edge12" class="edge">
<title>Node10&#45;&gt;Node11</title>
<path fill="none" stroke="#63b8ff" d="M651.56,-54.75C646.11,-47.34 638.14,-36.5 631.44,-27.41"/>
<polygon fill="#63b8ff" stroke="#63b8ff" points="634.07,-25.07 625.32,-19.09 628.43,-29.22 634.07,-25.07"/>
</g>
<!-- Node12 -->
<g id="node12" class="node">
<title>Node12</title>
<g id="a_node12"><a xlink:title=" ">
<polygon fill="#e0e0e0" stroke="#999999" points="727,-19 665,-19 665,0 727,0 727,-19"/>
<text text-anchor="middle" x="696" y="-7" font-family="Helvetica,sans-Serif" font-size="10.00">stdbool.h</text>
</a>
</g>
</g>
<!-- Node10&#45;&gt;Node12 -->
<g id="edge13" class="edge">
<title>Node10&#45;&gt;Node12</title>
<path fill="none" stroke="#63b8ff" d="M664.27,-54.75C669.59,-47.34 677.36,-36.5 683.88,-27.41"/>
<polygon fill="#63b8ff" stroke="#63b8ff" points="686.86,-29.26 689.84,-19.09 681.17,-25.18 686.86,-29.26"/>
</g>
<!-- Node13&#45;&gt;Node4 -->
<g id="edge17" class="edge">
<title>Node13&#45;&gt;Node4</title>
<path fill="none" stroke="#63b8ff" d="M1122.76,-225.49C1144.35,-215.7 1180.03,-199.52 1204.93,-188.23"/>
<polygon fill="#63b8ff" stroke="#63b8ff" points="1206.56,-191.33 1214.22,-184.02 1203.67,-184.96 1206.56,-191.33"/>
</g>
<!-- Node14 -->
<g id="node14" class="node">
<title>Node14</title>
<g id="a_node14"><a xlink:title=" ">
<polygon fill="#e0e0e0" stroke="#999999" points="1128.5,-74 1077.5,-74 1077.5,-55 1128.5,-55 1128.5,-74"/>
<text text-anchor="middle" x="1103" y="-62" font-family="Helvetica,sans-Serif" font-size="10.00">math.h</text>
</a>
</g>
</g>
<!-- Node13&#45;&gt;Node14 -->
<g id="edge16" class="edge">
<title>Node13&#45;&gt;Node14</title>
<path fill="none" stroke="#63b8ff" d="M1106.76,-225.26C1109.73,-215.37 1114.26,-198.72 1116,-184 1119.86,-151.34 1120.66,-142.56 1116,-110 1114.75,-101.24 1112.17,-91.79 1109.64,-83.86"/>
<polygon fill="#63b8ff" stroke="#63b8ff" points="1112.88,-82.54 1106.34,-74.2 1106.26,-84.8 1112.88,-82.54"/>
</g>
<!-- Node13&#45;&gt;Node15 -->
<g id="edge18" class="edge">
<title>Node13&#45;&gt;Node15</title>
<path fill="none" stroke="#63b8ff" d="M1058.39,-226.71C982.12,-214.52 830.84,-190.34 767.25,-180.17"/>
<polygon fill="#63b8ff" stroke="#63b8ff" points="767.55,-176.68 757.12,-178.56 766.44,-183.59 767.55,-176.68"/>
</g>
<!-- Node13&#45;&gt;Node18 -->
<g id="edge35" class="edge">
<title>Node13&#45;&gt;Node18</title>
<path fill="none" stroke="#63b8ff" d="M1092.5,-225.47C1066.58,-206.24 1003.35,-159.33 970.91,-135.27"/>
<polygon fill="#63b8ff" stroke="#63b8ff" points="972.75,-132.28 962.63,-129.13 968.58,-137.9 972.75,-132.28"/>
</g>
<!-- Node15&#45;&gt;Node3 -->
<g id="edge21" class="edge">
<title>Node15&#45;&gt;Node3</title>
<path fill="none" stroke="#63b8ff" d="M718.83,-167.92C660.68,-150.99 485.42,-99.97 406.39,-76.97"/>
<polygon fill="#63b8ff" stroke="#63b8ff" points="406.93,-73.48 396.35,-74.04 404.97,-80.2 406.93,-73.48"/>
</g>
<!-- Node15&#45;&gt;Node9 -->
<g id="edge19" class="edge">
<title>Node15&#45;&gt;Node9</title>
<path fill="none" stroke="#63b8ff" d="M718.79,-169.49C681.7,-161.73 597.66,-144.11 527,-129 434.71,-109.27 326.17,-85.63 270.7,-73.52"/>
<polygon fill="#63b8ff" stroke="#63b8ff" points="271.17,-70.04 260.65,-71.33 269.68,-76.88 271.17,-70.04"/>
</g>
<!-- Node16 -->
<g id="node16" class="node">
<title>Node16</title>
<g id="a_node16"><a xlink:title=" ">
<polygon fill="#e0e0e0" stroke="#999999" points="545.5,-74 492.5,-74 492.5,-55 545.5,-55 545.5,-74"/>
<text text-anchor="middle" x="519" y="-62" font-family="Helvetica,sans-Serif" font-size="10.00">string.h</text>
</a>
</g>
</g>
<!-- Node15&#45;&gt;Node16 -->
<g id="edge20" class="edge">
<title>Node15&#45;&gt;Node16</title>
<path fill="none" stroke="#63b8ff" d="M720.45,-164.84C682.15,-145.96 590.9,-100.96 545.54,-78.59"/>
<polygon fill="#63b8ff" stroke="#63b8ff" points="546.85,-75.33 536.33,-74.05 543.75,-81.61 546.85,-75.33"/>
</g>
<!-- Node17 -->
<g id="node17" class="node">
<title>Node17</title>
<g id="a_node17"><a xlink:title=" ">
<polygon fill="#e0e0e0" stroke="#999999" points="848.5,-74 797.5,-74 797.5,-55 848.5,-55 848.5,-74"/>
<text text-anchor="middle" x="823" y="-62" font-family="Helvetica,sans-Serif" font-size="10.00">errno.h</text>
</a>
</g>
</g>
<!-- Node15&#45;&gt;Node17 -->
<g id="edge22" class="edge">
<title>Node15&#45;&gt;Node17</title>
<path fill="none" stroke="#63b8ff" d="M744.96,-164.66C759.16,-146.61 791.69,-105.28 809.95,-82.08"/>
<polygon fill="#63b8ff" stroke="#63b8ff" points="812.75,-84.18 816.19,-74.16 807.25,-79.85 812.75,-84.18"/>
</g>
<!-- Node15&#45;&gt;Node18 -->
<g id="edge23" class="edge">
<title>Node15&#45;&gt;Node18</title>
<path fill="none" stroke="#63b8ff" d="M757.28,-168.7C793.57,-159.67 872.44,-140.05 917.55,-128.82"/>
<polygon fill="#63b8ff" stroke="#63b8ff" points="918.58,-132.17 927.44,-126.36 916.89,-125.38 918.58,-132.17"/>
</g>
<!-- Node18&#45;&gt;Node3 -->
<g id="edge26" class="edge">
<title>Node18&#45;&gt;Node3</title>
<path fill="none" stroke="#63b8ff" d="M927.38,-116.36C838.71,-108.31 524.87,-79.83 409.74,-69.38"/>
<polygon fill="#63b8ff" stroke="#63b8ff" points="409.83,-65.87 399.56,-68.45 409.2,-72.84 409.83,-65.87"/>
</g>
<!-- Node18&#45;&gt;Node5 -->
<g id="edge34" class="edge">
<title>Node18&#45;&gt;Node5</title>
<path fill="none" stroke="#63b8ff" d="M974.86,-112.93C1013.15,-103.99 1088.79,-86.33 1136.19,-75.26"/>
<polygon fill="#63b8ff" stroke="#63b8ff" points="1137.2,-78.62 1146.14,-72.94 1135.6,-71.8 1137.2,-78.62"/>
</g>
<!-- Node18&#45;&gt;Node6 -->
<g id="edge27" class="edge">
<title>Node18&#45;&gt;Node6</title>
<path fill="none" stroke="#63b8ff" d="M974.54,-114.73C1031.44,-105.62 1176.77,-82.35 1245.25,-71.38"/>
<polygon fill="#63b8ff" stroke="#63b8ff" points="1245.84,-74.83 1255.17,-69.8 1244.74,-67.92 1245.84,-74.83"/>
</g>
<!-- Node18&#45;&gt;Node9 -->
<g id="edge24" class="edge">
<title>Node18&#45;&gt;Node9</title>
<path fill="none" stroke="#63b8ff" d="M927.39,-117.01C844.61,-111.75 559.82,-93.31 325,-74 307.23,-72.54 287.52,-70.72 271.01,-69.14"/>
<polygon fill="#63b8ff" stroke="#63b8ff" points="270.95,-65.62 260.66,-68.15 270.28,-72.59 270.95,-65.62"/>
</g>
<!-- Node18&#45;&gt;Node10 -->
<g id="edge33" class="edge">
<title>Node18&#45;&gt;Node10</title>
<path fill="none" stroke="#63b8ff" d="M927.15,-115.44C882.22,-109.48 781.83,-95.18 688.41,-74.1"/>
<polygon fill="#63b8ff" stroke="#63b8ff" points="689.04,-70.66 678.52,-71.84 687.48,-77.48 689.04,-70.66"/>
</g>
<!-- Node18&#45;&gt;Node14 -->
<g id="edge32" class="edge">
<title>Node18&#45;&gt;Node14</title>
<path fill="none" stroke="#63b8ff" d="M974.75,-110.22C1000,-101.42 1040.15,-87.42 1068.8,-77.43"/>
<polygon fill="#63b8ff" stroke="#63b8ff" points="1070.12,-80.67 1078.41,-74.07 1067.81,-74.06 1070.12,-80.67"/>
</g>
<!-- Node18&#45;&gt;Node16 -->
<g id="edge25" class="edge">
<title>Node18&#45;&gt;Node16</title>
<path fill="none" stroke="#63b8ff" d="M927.47,-115.61C856.14,-106.86 641.97,-80.59 555.65,-70"/>
<polygon fill="#63b8ff" stroke="#63b8ff" points="555.89,-66.5 545.54,-68.76 555.04,-73.45 555.89,-66.5"/>
</g>
<!-- Node18&#45;&gt;Node17 -->
<g id="edge31" class="edge">
<title>Node18&#45;&gt;Node17</title>
<path fill="none" stroke="#63b8ff" d="M930.43,-109.98C909.57,-101.34 877.03,-87.87 853.23,-78.02"/>
<polygon fill="#63b8ff" stroke="#63b8ff" points="854.52,-74.76 843.94,-74.17 851.84,-81.23 854.52,-74.76"/>
</g>
<!-- Node19 -->
<g id="node19" class="node">
<title>Node19</title>
<g id="a_node19"><a xlink:title=" ">
<polygon fill="#e0e0e0" stroke="#999999" points="779.5,-74 696.5,-74 696.5,-55 779.5,-55 779.5,-74"/>
<text text-anchor="middle" x="738" y="-62" font-family="Helvetica,sans-Serif" font-size="10.00">cjson/cJSON.h</text>
</a>
</g>
</g>
<!-- Node18&#45;&gt;Node19 -->
<g id="edge28" class="edge">
<title>Node18&#45;&gt;Node19</title>
<path fill="none" stroke="#63b8ff" d="M927.39,-112.63C892.42,-103.92 826.25,-87.46 782.13,-76.48"/>
<polygon fill="#63b8ff" stroke="#63b8ff" points="782.79,-73.04 772.24,-74.02 781.1,-79.83 782.79,-73.04"/>
</g>
<!-- Node20 -->
<g id="node20" class="node">
<title>Node20</title>
<g id="a_node20"><a xlink:title=" ">
<polygon fill="#e0e0e0" stroke="#999999" points="931,-74 867,-74 867,-55 931,-55 931,-74"/>
<text text-anchor="middle" x="899" y="-62" font-family="Helvetica,sans-Serif" font-size="10.00">sys/stat.h</text>
</a>
</g>
</g>
<!-- Node18&#45;&gt;Node20 -->
<g id="edge29" class="edge">
<title>Node18&#45;&gt;Node20</title>
<path fill="none" stroke="#63b8ff" d="M942.41,-109.75C934.84,-102.03 923.62,-90.6 914.49,-81.28"/>
<polygon fill="#63b8ff" stroke="#63b8ff" points="916.93,-78.78 907.43,-74.09 911.93,-83.68 916.93,-78.78"/>
</g>
<!-- Node21 -->
<g id="node21" class="node">
<title>Node21</title>
<g id="a_node21"><a xlink:title=" ">
<polygon fill="#e0e0e0" stroke="#999999" points="1021,-74 949,-74 949,-55 1021,-55 1021,-74"/>
<text text-anchor="middle" x="985" y="-62" font-family="Helvetica,sans-Serif" font-size="10.00">sys/types.h</text>
</a>
</g>
</g>
<!-- Node18&#45;&gt;Node21 -->
<g id="edge30" class="edge">
<title>Node18&#45;&gt;Node21</title>
<path fill="none" stroke="#63b8ff" d="M956.61,-109.75C961.32,-102.42 968.17,-91.73 973.97,-82.7"/>
<polygon fill="#63b8ff" stroke="#63b8ff" points="977.04,-84.4 979.49,-74.09 971.14,-80.62 977.04,-84.4"/>
</g>
<!-- Node22&#45;&gt;Node2 -->
<g id="edge39" class="edge">
<title>Node22&#45;&gt;Node2</title>
<path fill="none" stroke="#63b8ff" d="M881.64,-219.94C919.15,-195.36 993.62,-140.76 1030,-74 1037.67,-59.93 1042.61,-42.39 1045.53,-29.3"/>
<polygon fill="#63b8ff" stroke="#63b8ff" points="1049.03,-29.65 1047.59,-19.16 1042.17,-28.26 1049.03,-29.65"/>
</g>
<!-- Node22&#45;&gt;Node3 -->
<g id="edge37" class="edge">
<title>Node22&#45;&gt;Node3</title>
<path fill="none" stroke="#63b8ff" d="M810.81,-219.94C745.89,-200.73 626.95,-164.59 527,-129 481.07,-112.65 428.71,-91.35 396.76,-78.05"/>
<polygon fill="#63b8ff" stroke="#63b8ff" points="398.11,-74.82 387.53,-74.2 395.41,-81.28 398.11,-74.82"/>
</g>
<!-- Node22&#45;&gt;Node10 -->
<g id="edge40" class="edge">
<title>Node22&#45;&gt;Node10</title>
<path fill="none" stroke="#63b8ff" d="M856.04,-219.86C849.95,-194.2 833.55,-139.88 799,-110 794.69,-106.27 728.54,-86.31 688.4,-74.43"/>
<polygon fill="#63b8ff" stroke="#63b8ff" points="689.15,-71 678.56,-71.52 687.16,-77.71 689.15,-71"/>
</g>
<!-- Node22&#45;&gt;Node18 -->
<g id="edge46" class="edge">
<title>Node22&#45;&gt;Node18</title>
<path fill="none" stroke="#63b8ff" d="M870.65,-219.63C887.73,-198.56 919.47,-159.4 937.52,-137.13"/>
<polygon fill="#63b8ff" stroke="#63b8ff" points="940.35,-139.2 943.92,-129.23 934.91,-134.79 940.35,-139.2"/>
</g>
<!-- Node22&#45;&gt;Node19 -->
<g id="edge38" class="edge">
<title>Node22&#45;&gt;Node19</title>
<path fill="none" stroke="#63b8ff" d="M860.49,-219.66C862.29,-194.65 862.4,-142.59 837,-110 824.88,-94.45 806.13,-84.18 788.2,-77.46"/>
<polygon fill="#63b8ff" stroke="#63b8ff" points="788.96,-74.03 778.36,-74.09 786.69,-80.65 788.96,-74.03"/>
</g>
<!-- Node23 -->
<g id="node23" class="node">
<title>Node23</title>
<g id="a_node23"><a xlink:href="http_8h.html" target="_top" xlink:title=" ">
<polygon fill="white" stroke="#666666" points="490.5,-184 445.5,-184 445.5,-165 490.5,-165 490.5,-184"/>
<text text-anchor="middle" x="468" y="-172" font-family="Helvetica,sans-Serif" font-size="10.00">http.h</text>
</a>
</g>
</g>
<!-- Node22&#45;&gt;Node23 -->
<g id="edge41" class="edge">
<title>Node22&#45;&gt;Node23</title>
<path fill="none" stroke="#63b8ff" d="M796.18,-224.6C712.13,-212.03 566.15,-190.18 501.02,-180.44"/>
<polygon fill="#63b8ff" stroke="#63b8ff" points="501.32,-176.95 490.92,-178.93 500.29,-183.87 501.32,-176.95"/>
</g>
<!-- Node23&#45;&gt;Node3 -->
<g id="edge44" class="edge">
<title>Node23&#45;&gt;Node3</title>
<path fill="none" stroke="#63b8ff" d="M445.3,-165.28C428.27,-158.07 405.49,-146.06 391,-129 380.15,-116.23 373.95,-98.05 370.58,-84.42"/>
<polygon fill="#63b8ff" stroke="#63b8ff" points="373.92,-83.28 368.38,-74.25 367.08,-84.77 373.92,-83.28"/>
</g>
<!-- Node23&#45;&gt;Node9 -->
<g id="edge42" class="edge">
<title>Node23&#45;&gt;Node9</title>
<path fill="none" stroke="#63b8ff" d="M449.25,-164.84C408.15,-145.88 310,-100.58 261.75,-78.31"/>
<polygon fill="#63b8ff" stroke="#63b8ff" points="263.06,-75.06 252.52,-74.05 260.13,-81.42 263.06,-75.06"/>
</g>
<!-- Node23&#45;&gt;Node16 -->
<g id="edge43" class="edge">
<title>Node23&#45;&gt;Node16</title>
<path fill="none" stroke="#63b8ff" d="M472.17,-164.66C480.55,-146.93 499.53,-106.73 510.59,-83.32"/>
<polygon fill="#63b8ff" stroke="#63b8ff" points="513.81,-84.7 514.91,-74.16 507.48,-81.71 513.81,-84.7"/>
</g>
<!-- Node23&#45;&gt;Node18 -->
<g id="edge45" class="edge">
<title>Node23&#45;&gt;Node18</title>
<path fill="none" stroke="#63b8ff" d="M490.65,-171.01C568.41,-162.48 824.79,-134.35 917.32,-124.2"/>
<polygon fill="#63b8ff" stroke="#63b8ff" points="917.71,-127.67 927.27,-123.1 916.95,-120.72 917.71,-127.67"/>
</g>
<!-- Node24&#45;&gt;Node3 -->
<g id="edge53" class="edge">
<title>Node24&#45;&gt;Node3</title>
<path fill="none" stroke="#63b8ff" d="M452.24,-292.38C384.36,-288.65 285.87,-278.36 262,-250 232.74,-215.24 252.01,-178.21 305,-110 314.65,-97.58 328.69,-87.1 340.96,-79.45"/>
<polygon fill="#63b8ff" stroke="#63b8ff" points="343.08,-82.26 349.91,-74.15 339.52,-76.23 343.08,-82.26"/>
</g>
<!-- Node24&#45;&gt;Node8 -->
<g id="edge50" class="edge">
<title>Node24&#45;&gt;Node8</title>
<path fill="none" stroke="#63b8ff" d="M452.26,-290.01C377.29,-284.01 261.11,-271.55 223,-250 126.51,-195.44 57.36,-74.19 33.82,-28.44"/>
<polygon fill="#63b8ff" stroke="#63b8ff" points="36.9,-26.77 29.27,-19.42 30.65,-29.92 36.9,-26.77"/>
</g>
<!-- Node24&#45;&gt;Node9 -->
<g id="edge49" class="edge">
<title>Node24&#45;&gt;Node9</title>
<path fill="none" stroke="#63b8ff" d="M452.46,-292.93C380.36,-289.7 271.98,-279.86 245,-250 203.09,-203.61 218.6,-120.96 228.41,-84.11"/>
<polygon fill="#63b8ff" stroke="#63b8ff" points="231.85,-84.82 231.2,-74.24 225.11,-82.91 231.85,-84.82"/>
</g>
<!-- Node24&#45;&gt;Node10 -->
<g id="edge54" class="edge">
<title>Node24&#45;&gt;Node10</title>
<path fill="none" stroke="#63b8ff" d="M524.28,-285.8C544.79,-252.01 619.44,-129.02 647.36,-83.02"/>
<polygon fill="#63b8ff" stroke="#63b8ff" points="650.52,-84.57 652.72,-74.21 644.53,-80.94 650.52,-84.57"/>
</g>
<!-- Node24&#45;&gt;Node14 -->
<g id="edge51" class="edge">
<title>Node24&#45;&gt;Node14</title>
<path fill="none" stroke="#63b8ff" d="M585.72,-293.87C691.5,-291.85 892.1,-283.55 954,-250 1025.8,-211.08 1075.79,-121.71 1094.66,-83.43"/>
<polygon fill="#63b8ff" stroke="#63b8ff" points="1097.98,-84.61 1099.15,-74.08 1091.67,-81.58 1097.98,-84.61"/>
</g>
<!-- Node24&#45;&gt;Node16 -->
<g id="edge48" class="edge">
<title>Node24&#45;&gt;Node16</title>
<path fill="none" stroke="#63b8ff" d="M519,-285.8C519,-252.36 519,-131.59 519,-84.49"/>
<polygon fill="#63b8ff" stroke="#63b8ff" points="522.5,-84.21 519,-74.21 515.5,-84.21 522.5,-84.21"/>
</g>
<!-- Node24&#45;&gt;Node18 -->
<g id="edge64" class="edge">
<title>Node24&#45;&gt;Node18</title>
<path fill="none" stroke="#63b8ff" d="M585.85,-291.64C695.9,-286.3 905.56,-273.18 930,-250 960.21,-221.35 957.98,-167.58 954.24,-139.18"/>
<polygon fill="#63b8ff" stroke="#63b8ff" points="957.66,-138.37 952.69,-129.01 950.74,-139.43 957.66,-138.37"/>
</g>
<!-- Node24&#45;&gt;Node19 -->
<g id="edge52" class="edge">
<title>Node24&#45;&gt;Node19</title>
<path fill="none" stroke="#63b8ff" d="M529.47,-285.97C540,-277.25 556.57,-263.15 570,-250 630.24,-191.02 695.98,-115.09 724.04,-82.07"/>
<polygon fill="#63b8ff" stroke="#63b8ff" points="726.84,-84.18 730.63,-74.28 721.5,-79.65 726.84,-84.18"/>
</g>
<!-- Node24&#45;&gt;Node23 -->
<g id="edge63" class="edge">
<title>Node24&#45;&gt;Node23</title>
<path fill="none" stroke="#63b8ff" d="M515.33,-285.94C507.1,-266.74 487.01,-219.86 475.83,-193.77"/>
<polygon fill="#63b8ff" stroke="#63b8ff" points="478.93,-192.11 471.77,-184.3 472.49,-194.87 478.93,-192.11"/>
</g>
<!-- Node25 -->
<g id="node25" class="node">
<title>Node25</title>
<g id="a_node25"><a xlink:href="_willy_weather_2authenticate_8h.html" target="_top" xlink:title=" ">
<polygon fill="white" stroke="#666666" points="426.5,-244.5 271.5,-244.5 271.5,-225.5 426.5,-225.5 426.5,-244.5"/>
<text text-anchor="middle" x="349" y="-232.5" font-family="Helvetica,sans-Serif" font-size="10.00">WillyWeather/authenticate.h</text>
</a>
</g>
</g>
<!-- Node24&#45;&gt;Node25 -->
<g id="edge55" class="edge">
<title>Node24&#45;&gt;Node25</title>
<path fill="none" stroke="#63b8ff" d="M494.28,-285.99C465.07,-275.94 416.3,-259.16 383.41,-247.84"/>
<polygon fill="#63b8ff" stroke="#63b8ff" points="384.34,-244.46 373.75,-244.52 382.07,-251.08 384.34,-244.46"/>
</g>
<!-- Node25&#45;&gt;Node3 -->
<g id="edge60" class="edge">
<title>Node25&#45;&gt;Node3</title>
<path fill="none" stroke="#63b8ff" d="M340.64,-225.3C332.29,-215.96 320,-200.25 315,-184 305.33,-152.57 301.25,-139.87 315,-110 320.75,-97.52 331.91,-87.24 342.42,-79.71"/>
<polygon fill="#63b8ff" stroke="#63b8ff" points="344.57,-82.49 350.97,-74.05 340.7,-76.65 344.57,-82.49"/>
</g>
<!-- Node25&#45;&gt;Node8 -->
<g id="edge58" class="edge">
<title>Node25&#45;&gt;Node8</title>
<path fill="none" stroke="#63b8ff" d="M336.3,-225.24C287,-191.23 108,-67.76 46.18,-25.11"/>
<polygon fill="#63b8ff" stroke="#63b8ff" points="47.83,-22 37.61,-19.2 43.86,-27.76 47.83,-22"/>
</g>
<!-- Node25&#45;&gt;Node9 -->
<g id="edge57" class="edge">
<title>Node25&#45;&gt;Node9</title>
<path fill="none" stroke="#63b8ff" d="M340.61,-225.16C331.58,-215.44 317.03,-199.19 306,-184 281.12,-149.74 256.44,-106.63 243.43,-82.99"/>
<polygon fill="#63b8ff" stroke="#63b8ff" points="246.47,-81.24 238.6,-74.14 240.32,-84.59 246.47,-81.24"/>
</g>
<!-- Node25&#45;&gt;Node10 -->
<g id="edge61" class="edge">
<title>Node25&#45;&gt;Node10</title>
<path fill="none" stroke="#63b8ff" d="M358.58,-225.07C374,-211.01 405.68,-183.42 436,-165 500.8,-125.63 583.88,-92.55 627.75,-76.3"/>
<polygon fill="#63b8ff" stroke="#63b8ff" points="629.07,-79.54 637.25,-72.81 626.66,-72.97 629.07,-79.54"/>
</g>
<!-- Node25&#45;&gt;Node16 -->
<g id="edge56" class="edge">
<title>Node25&#45;&gt;Node16</title>
<path fill="none" stroke="#63b8ff" d="M354.82,-225.5C364.22,-212.03 383.66,-185.23 403,-165 434.35,-132.21 475.58,-98.83 499.5,-80.28"/>
<polygon fill="#63b8ff" stroke="#63b8ff" points="501.68,-83.01 507.48,-74.14 497.41,-77.46 501.68,-83.01"/>
</g>
<!-- Node25&#45;&gt;Node19 -->
<g id="edge59" class="edge">
<title>Node25&#45;&gt;Node19</title>
<path fill="none" stroke="#63b8ff" d="M378.47,-225.5C409.04,-216.37 458.01,-200.9 499,-184 579.81,-150.69 671.36,-102.09 713.9,-78.85"/>
<polygon fill="#63b8ff" stroke="#63b8ff" points="715.6,-81.91 722.69,-74.03 712.24,-75.77 715.6,-81.91"/>
</g>
<!-- Node25&#45;&gt;Node23 -->
<g id="edge62" class="edge">
<title>Node25&#45;&gt;Node23</title>
<path fill="none" stroke="#63b8ff" d="M366.3,-225.49C386.05,-215.79 418.55,-199.81 441.49,-188.53"/>
<polygon fill="#63b8ff" stroke="#63b8ff" points="443.25,-191.57 450.68,-184.02 440.16,-185.29 443.25,-191.57"/>
</g>
</g>
</svg>
