<?xml version="1.0" encoding="UTF-8" standalone="no"?>
<!DOCTYPE svg PUBLIC "-//W3C//DTD SVG 1.1//EN"
 "http://www.w3.org/Graphics/SVG/1.1/DTD/svg11.dtd">
<!-- Generated by graphviz version 2.49.3 (20211027.1534)
 -->
<!-- Title: src/BOM/historical_weather.c Pages: 1 -->
<svg width="646pt" height="375pt"
 viewBox="0.00 0.00 645.50 375.00" xmlns="http://www.w3.org/2000/svg" xmlns:xlink="http://www.w3.org/1999/xlink">
<g id="graph0" class="graph" transform="scale(1 1) rotate(0) translate(4 371)">
<title>src/BOM/historical_weather.c</title>
<!-- Node1 -->
<g id="node1" class="node">
<title>Node1</title>
<g id="a_node1"><a xlink:title=" ">
<polygon fill="#bfbfbf" stroke="black" points="219.5,-336.5 219.5,-366.5 317.5,-366.5 317.5,-336.5 219.5,-336.5"/>
<text text-anchor="start" x="227.5" y="-354.5" font-family="Helvetica,sans-Serif" font-size="10.00">src/BOM/historical</text>
<text text-anchor="middle" x="268.5" y="-343.5" font-family="Helvetica,sans-Serif" font-size="10.00">_weather.c</text>
</a>
</g>
</g>
<!-- Node2 -->
<g id="node2" class="node">
<title>Node2</title>
<g id="a_node2"><a xlink:href="historical__weather_8h.html" target="_top" xlink:title=" ">
<polygon fill="none" stroke="black" points="204.5,-280.5 204.5,-299.5 332.5,-299.5 332.5,-280.5 204.5,-280.5"/>
<text text-anchor="middle" x="268.5" y="-287.5" font-family="Helvetica,sans-Serif" font-size="10.00">BOM/historical_weather.h</text>
</a>
</g>
</g>
<!-- Node1&#45;&gt;Node2 -->
<g id="edge1" class="edge">
<title>Node1&#45;&gt;Node2</title>
<path fill="none" stroke="midnightblue" d="M268.5,-336.4C268.5,-328.47 268.5,-318.46 268.5,-309.86"/>
<polygon fill="midnightblue" stroke="midnightblue" points="272,-309.66 268.5,-299.66 265,-309.66 272,-309.66"/>
</g>
<!-- Node3 -->
<g id="node3" class="node">
<title>Node3</title>
<g id="a_node3"><a xlink:title=" ">
<polygon fill="none" stroke="#bfbfbf" points="0,-56.5 0,-75.5 59,-75.5 59,-56.5 0,-56.5"/>
<text text-anchor="middle" x="29.5" y="-63.5" font-family="Helvetica,sans-Serif" font-size="10.00">curl/curl.h</text>
</a>
</g>
</g>
<!-- Node2&#45;&gt;Node3 -->
<g id="edge2" class="edge">
<title>Node2&#45;&gt;Node3</title>
<path fill="none" stroke="midnightblue" d="M254.08,-280.45C240.11,-271.91 218.6,-258.07 201.5,-244 137.1,-191.02 71.22,-116.3 43.32,-83.51"/>
<polygon fill="midnightblue" stroke="midnightblue" points="45.91,-81.15 36.78,-75.77 40.56,-85.67 45.91,-81.15"/>
</g>
<!-- Node4 -->
<g id="node4" class="node">
<title>Node4</title>
<g id="a_node4"><a xlink:title=" ">
<polygon fill="none" stroke="#bfbfbf" points="323,-168.5 323,-187.5 370,-187.5 370,-168.5 323,-168.5"/>
<text text-anchor="middle" x="346.5" y="-175.5" font-family="Helvetica,sans-Serif" font-size="10.00">ctype.h</text>
</a>
</g>
</g>
<!-- Node2&#45;&gt;Node4 -->
<g id="edge3" class="edge">
<title>Node2&#45;&gt;Node4</title>
<path fill="none" stroke="midnightblue" d="M281.3,-280.31C292.62,-272.07 308.92,-258.79 319.5,-244 329.71,-229.73 336.96,-211.01 341.36,-197.33"/>
<polygon fill="midnightblue" stroke="midnightblue" points="344.75,-198.2 344.28,-187.62 338.05,-196.19 344.75,-198.2"/>
</g>
<!-- Node5 -->
<g id="node5" class="node">
<title>Node5</title>
<g id="a_node5"><a xlink:title=" ">
<polygon fill="none" stroke="#bfbfbf" points="589.5,-56.5 589.5,-75.5 637.5,-75.5 637.5,-56.5 589.5,-56.5"/>
<text text-anchor="middle" x="613.5" y="-63.5" font-family="Helvetica,sans-Serif" font-size="10.00">stdint.h</text>
</a>
</g>
</g>
<!-- Node2&#45;&gt;Node5 -->
<g id="edge4" class="edge">
<title>Node2&#45;&gt;Node5</title>
<path fill="none" stroke="midnightblue" d="M281.92,-280.38C296.01,-271.32 318.82,-256.66 338.5,-244 432.54,-183.51 544.63,-111.34 591.35,-81.26"/>
<polygon fill="midnightblue" stroke="midnightblue" points="593.54,-84.02 600.05,-75.66 589.75,-78.13 593.54,-84.02"/>
</g>
<!-- Node6 -->
<g id="node6" class="node">
<title>Node6</title>
<g id="a_node6"><a xlink:href="stations_8h.html" target="_top" xlink:title=" ">
<polygon fill="none" stroke="black" points="226.5,-224.5 226.5,-243.5 310.5,-243.5 310.5,-224.5 226.5,-224.5"/>
<text text-anchor="middle" x="268.5" y="-231.5" font-family="Helvetica,sans-Serif" font-size="10.00">BOM/stations.h</text>
</a>
</g>
</g>
<!-- Node2&#45;&gt;Node6 -->
<g id="edge5" class="edge">
<title>Node2&#45;&gt;Node6</title>
<path fill="none" stroke="midnightblue" d="M268.5,-280.08C268.5,-273.01 268.5,-262.86 268.5,-253.99"/>
<polygon fill="midnightblue" stroke="midnightblue" points="272,-253.75 268.5,-243.75 265,-253.75 272,-253.75"/>
</g>
<!-- Node8 -->
<g id="node8" class="node">
<title>Node8</title>
<g id="a_node8"><a xlink:href="ftp_8h.html" target="_top" xlink:title=" ">
<polygon fill="none" stroke="black" points="167,-168.5 167,-187.5 202,-187.5 202,-168.5 167,-168.5"/>
<text text-anchor="middle" x="184.5" y="-175.5" font-family="Helvetica,sans-Serif" font-size="10.00">ftp.h</text>
</a>
</g>
</g>
<!-- Node2&#45;&gt;Node8 -->
<g id="edge28" class="edge">
<title>Node2&#45;&gt;Node8</title>
<path fill="none" stroke="midnightblue" d="M256.4,-280.43C245.25,-272.09 228.78,-258.57 217.5,-244 206.26,-229.49 197.17,-210.56 191.39,-196.87"/>
<polygon fill="midnightblue" stroke="midnightblue" points="194.63,-195.55 187.64,-187.59 188.14,-198.17 194.63,-195.55"/>
</g>
<!-- Node6&#45;&gt;Node4 -->
<g id="edge7" class="edge">
<title>Node6&#45;&gt;Node4</title>
<path fill="none" stroke="midnightblue" d="M281.03,-224.32C293.09,-215.98 311.53,-203.21 325.77,-193.35"/>
<polygon fill="midnightblue" stroke="midnightblue" points="327.77,-196.22 334,-187.65 323.78,-190.47 327.77,-196.22"/>
</g>
<!-- Node7 -->
<g id="node7" class="node">
<title>Node7</title>
<g id="a_node7"><a xlink:title=" ">
<polygon fill="none" stroke="#bfbfbf" points="258.5,-168.5 258.5,-187.5 304.5,-187.5 304.5,-168.5 258.5,-168.5"/>
<text text-anchor="middle" x="281.5" y="-175.5" font-family="Helvetica,sans-Serif" font-size="10.00">math.h</text>
</a>
</g>
</g>
<!-- Node6&#45;&gt;Node7 -->
<g id="edge6" class="edge">
<title>Node6&#45;&gt;Node7</title>
<path fill="none" stroke="midnightblue" d="M270.65,-224.08C272.37,-216.93 274.85,-206.64 277,-197.69"/>
<polygon fill="midnightblue" stroke="midnightblue" points="280.46,-198.29 279.39,-187.75 273.65,-196.65 280.46,-198.29"/>
</g>
<!-- Node6&#45;&gt;Node8 -->
<g id="edge8" class="edge">
<title>Node6&#45;&gt;Node8</title>
<path fill="none" stroke="midnightblue" d="M255,-224.32C241.9,-215.9 221.79,-202.97 206.39,-193.07"/>
<polygon fill="midnightblue" stroke="midnightblue" points="208.27,-190.12 197.96,-187.65 204.48,-196.01 208.27,-190.12"/>
</g>
<!-- Node12 -->
<g id="node12" class="node">
<title>Node12</title>
<g id="a_node12"><a xlink:href="utils_8h.html" target="_top" xlink:title=" ">
<polygon fill="none" stroke="black" points="231.5,-112.5 231.5,-131.5 273.5,-131.5 273.5,-112.5 231.5,-112.5"/>
<text text-anchor="middle" x="252.5" y="-119.5" font-family="Helvetica,sans-Serif" font-size="10.00">utils.h</text>
</a>
</g>
</g>
<!-- Node6&#45;&gt;Node12 -->
<g id="edge27" class="edge">
<title>Node6&#45;&gt;Node12</title>
<path fill="none" stroke="midnightblue" d="M263.62,-224.37C258.94,-215.55 252.19,-201.3 249.5,-188 246.38,-172.59 247.54,-154.71 249.25,-141.62"/>
<polygon fill="midnightblue" stroke="midnightblue" points="252.74,-141.93 250.8,-131.52 245.82,-140.87 252.74,-141.93"/>
</g>
<!-- Node8&#45;&gt;Node3 -->
<g id="edge11" class="edge">
<title>Node8&#45;&gt;Node3</title>
<path fill="none" stroke="midnightblue" d="M172.34,-168.37C145.85,-149.57 82.72,-104.77 49.98,-81.53"/>
<polygon fill="midnightblue" stroke="midnightblue" points="51.79,-78.52 41.61,-75.59 47.74,-84.23 51.79,-78.52"/>
</g>
<!-- Node9 -->
<g id="node9" class="node">
<title>Node9</title>
<g id="a_node9"><a xlink:title=" ">
<polygon fill="none" stroke="#bfbfbf" points="77,-56.5 77,-75.5 124,-75.5 124,-56.5 77,-56.5"/>
<text text-anchor="middle" x="100.5" y="-63.5" font-family="Helvetica,sans-Serif" font-size="10.00">stdlib.h</text>
</a>
</g>
</g>
<!-- Node8&#45;&gt;Node9 -->
<g id="edge9" class="edge">
<title>Node8&#45;&gt;Node9</title>
<path fill="none" stroke="midnightblue" d="M177.91,-168.37C163.98,-150.14 131.37,-107.43 113.23,-83.68"/>
<polygon fill="midnightblue" stroke="midnightblue" points="115.91,-81.41 107.06,-75.59 110.35,-85.66 115.91,-81.41"/>
</g>
<!-- Node10 -->
<g id="node10" class="node">
<title>Node10</title>
<g id="a_node10"><a xlink:title=" ">
<polygon fill="none" stroke="#bfbfbf" points="206.5,-56.5 206.5,-75.5 254.5,-75.5 254.5,-56.5 206.5,-56.5"/>
<text text-anchor="middle" x="230.5" y="-63.5" font-family="Helvetica,sans-Serif" font-size="10.00">string.h</text>
</a>
</g>
</g>
<!-- Node8&#45;&gt;Node10 -->
<g id="edge10" class="edge">
<title>Node8&#45;&gt;Node10</title>
<path fill="none" stroke="midnightblue" d="M188.11,-168.37C195.6,-150.46 212.97,-108.92 222.99,-84.95"/>
<polygon fill="midnightblue" stroke="midnightblue" points="226.28,-86.17 226.91,-75.59 219.82,-83.47 226.28,-86.17"/>
</g>
<!-- Node11 -->
<g id="node11" class="node">
<title>Node11</title>
<g id="a_node11"><a xlink:title=" ">
<polygon fill="none" stroke="#bfbfbf" points="142.5,-56.5 142.5,-75.5 188.5,-75.5 188.5,-56.5 142.5,-56.5"/>
<text text-anchor="middle" x="165.5" y="-63.5" font-family="Helvetica,sans-Serif" font-size="10.00">errno.h</text>
</a>
</g>
</g>
<!-- Node8&#45;&gt;Node11 -->
<g id="edge12" class="edge">
<title>Node8&#45;&gt;Node11</title>
<path fill="none" stroke="midnightblue" d="M183.01,-168.37C179.94,-150.62 172.87,-109.67 168.71,-85.6"/>
<polygon fill="midnightblue" stroke="midnightblue" points="172.14,-84.85 166.98,-75.59 165.24,-86.04 172.14,-84.85"/>
</g>
<!-- Node8&#45;&gt;Node12 -->
<g id="edge13" class="edge">
<title>Node8&#45;&gt;Node12</title>
<path fill="none" stroke="midnightblue" d="M195.43,-168.32C205.67,-160.18 221.22,-147.84 233.5,-138.09"/>
<polygon fill="midnightblue" stroke="midnightblue" points="235.72,-140.79 241.38,-131.83 231.37,-135.31 235.72,-140.79"/>
</g>
<!-- Node12&#45;&gt;Node3 -->
<g id="edge16" class="edge">
<title>Node12&#45;&gt;Node3</title>
<path fill="none" stroke="midnightblue" d="M231.12,-115.82C193.84,-106.8 116.44,-88.05 69.13,-76.6"/>
<polygon fill="midnightblue" stroke="midnightblue" points="69.77,-73.15 59.23,-74.2 68.12,-79.95 69.77,-73.15"/>
</g>
<!-- Node12&#45;&gt;Node5 -->
<g id="edge17" class="edge">
<title>Node12&#45;&gt;Node5</title>
<path fill="none" stroke="midnightblue" d="M273.77,-119.05C324.85,-114.16 458.59,-100.15 579.63,-75.94"/>
<polygon fill="midnightblue" stroke="midnightblue" points="580.33,-79.37 589.44,-73.95 578.94,-72.51 580.33,-79.37"/>
</g>
<!-- Node12&#45;&gt;Node9 -->
<g id="edge14" class="edge">
<title>Node12&#45;&gt;Node9</title>
<path fill="none" stroke="midnightblue" d="M231.37,-113.49C206.08,-104.51 163.45,-89.36 133.74,-78.81"/>
<polygon fill="midnightblue" stroke="midnightblue" points="134.8,-75.47 124.2,-75.42 132.45,-82.07 134.8,-75.47"/>
</g>
<!-- Node12&#45;&gt;Node10 -->
<g id="edge15" class="edge">
<title>Node12&#45;&gt;Node10</title>
<path fill="none" stroke="midnightblue" d="M248.87,-112.08C245.89,-104.77 241.57,-94.18 237.88,-85.1"/>
<polygon fill="midnightblue" stroke="midnightblue" points="241.08,-83.69 234.07,-75.75 234.6,-86.33 241.08,-83.69"/>
</g>
<!-- Node12&#45;&gt;Node11 -->
<g id="edge21" class="edge">
<title>Node12&#45;&gt;Node11</title>
<path fill="none" stroke="midnightblue" d="M238.52,-112.32C224.95,-103.9 204.12,-90.97 188.18,-81.07"/>
<polygon fill="midnightblue" stroke="midnightblue" points="189.79,-77.95 179.44,-75.65 186.09,-83.9 189.79,-77.95"/>
</g>
<!-- Node13 -->
<g id="node13" class="node">
<title>Node13</title>
<g id="a_node13"><a xlink:title=" ">
<polygon fill="none" stroke="#bfbfbf" points="411,-56.5 411,-75.5 494,-75.5 494,-56.5 411,-56.5"/>
<text text-anchor="middle" x="452.5" y="-63.5" font-family="Helvetica,sans-Serif" font-size="10.00">cjson/cJSON.h</text>
</a>
</g>
</g>
<!-- Node12&#45;&gt;Node13 -->
<g id="edge18" class="edge">
<title>Node12&#45;&gt;Node13</title>
<path fill="none" stroke="midnightblue" d="M273.53,-115.32C306.05,-106.54 369.16,-89.5 411.07,-78.18"/>
<polygon fill="midnightblue" stroke="midnightblue" points="412.24,-81.5 420.98,-75.51 410.41,-74.74 412.24,-81.5"/>
</g>
<!-- Node14 -->
<g id="node14" class="node">
<title>Node14</title>
<g id="a_node14"><a xlink:title=" ">
<polygon fill="none" stroke="#bfbfbf" points="512,-56.5 512,-75.5 571,-75.5 571,-56.5 512,-56.5"/>
<text text-anchor="middle" x="541.5" y="-63.5" font-family="Helvetica,sans-Serif" font-size="10.00">sys/stat.h</text>
</a>
</g>
</g>
<!-- Node12&#45;&gt;Node14 -->
<g id="edge19" class="edge">
<title>Node12&#45;&gt;Node14</title>
<path fill="none" stroke="midnightblue" d="M273.73,-117.6C315.54,-110.82 411.68,-94.8 501.84,-76.27"/>
<polygon fill="midnightblue" stroke="midnightblue" points="502.58,-79.69 511.66,-74.23 501.16,-72.83 502.58,-79.69"/>
</g>
<!-- Node15 -->
<g id="node15" class="node">
<title>Node15</title>
<g id="a_node15"><a xlink:title=" ">
<polygon fill="none" stroke="#bfbfbf" points="273,-56.5 273,-75.5 338,-75.5 338,-56.5 273,-56.5"/>
<text text-anchor="middle" x="305.5" y="-63.5" font-family="Helvetica,sans-Serif" font-size="10.00">sys/types.h</text>
</a>
</g>
</g>
<!-- Node12&#45;&gt;Node15 -->
<g id="edge20" class="edge">
<title>Node12&#45;&gt;Node15</title>
<path fill="none" stroke="midnightblue" d="M261.25,-112.08C268.97,-104.22 280.4,-92.57 289.72,-83.08"/>
<polygon fill="midnightblue" stroke="midnightblue" points="292.4,-85.34 296.91,-75.75 287.41,-80.44 292.4,-85.34"/>
</g>
<!-- Node16 -->
<g id="node16" class="node">
<title>Node16</title>
<g id="a_node16"><a xlink:href="log_8h.html" target="_top" xlink:title=" ">
<polygon fill="none" stroke="black" points="356,-56.5 356,-75.5 393,-75.5 393,-56.5 356,-56.5"/>
<text text-anchor="middle" x="374.5" y="-63.5" font-family="Helvetica,sans-Serif" font-size="10.00">log.h</text>
</a>
</g>
</g>
<!-- Node12&#45;&gt;Node16 -->
<g id="edge22" class="edge">
<title>Node12&#45;&gt;Node16</title>
<path fill="none" stroke="midnightblue" d="M271.83,-112.44C291.94,-103.54 323.61,-89.52 346.47,-79.41"/>
<polygon fill="midnightblue" stroke="midnightblue" points="347.93,-82.59 355.66,-75.34 345.1,-76.19 347.93,-82.59"/>
</g>
<!-- Node17 -->
<g id="node17" class="node">
<title>Node17</title>
<g id="a_node17"><a xlink:title=" ">
<polygon fill="none" stroke="#bfbfbf" points="250,-0.5 250,-19.5 295,-19.5 295,-0.5 250,-0.5"/>
<text text-anchor="middle" x="272.5" y="-7.5" font-family="Helvetica,sans-Serif" font-size="10.00">stdio.h</text>
</a>
</g>
</g>
<!-- Node16&#45;&gt;Node17 -->
<g id="edge23" class="edge">
<title>Node16&#45;&gt;Node17</title>
<path fill="none" stroke="midnightblue" d="M358.11,-56.32C341.83,-47.7 316.63,-34.36 297.78,-24.39"/>
<polygon fill="midnightblue" stroke="midnightblue" points="299.32,-21.24 288.85,-19.65 296.05,-27.43 299.32,-21.24"/>
</g>
<!-- Node18 -->
<g id="node18" class="node">
<title>Node18</title>
<g id="a_node18"><a xlink:title=" ">
<polygon fill="none" stroke="#bfbfbf" points="313,-0.5 313,-19.5 364,-19.5 364,-0.5 313,-0.5"/>
<text text-anchor="middle" x="338.5" y="-7.5" font-family="Helvetica,sans-Serif" font-size="10.00">stdarg.h</text>
</a>
</g>
</g>
<!-- Node16&#45;&gt;Node18 -->
<g id="edge24" class="edge">
<title>Node16&#45;&gt;Node18</title>
<path fill="none" stroke="midnightblue" d="M368.56,-56.08C363.52,-48.53 356.16,-37.49 349.99,-28.23"/>
<polygon fill="midnightblue" stroke="midnightblue" points="352.79,-26.13 344.33,-19.75 346.97,-30.01 352.79,-26.13"/>
</g>
<!-- Node19 -->
<g id="node19" class="node">
<title>Node19</title>
<g id="a_node19"><a xlink:title=" ">
<polygon fill="none" stroke="#bfbfbf" points="382.5,-0.5 382.5,-19.5 438.5,-19.5 438.5,-0.5 382.5,-0.5"/>
<text text-anchor="middle" x="410.5" y="-7.5" font-family="Helvetica,sans-Serif" font-size="10.00">stdbool.h</text>
</a>
</g>
</g>
<!-- Node16&#45;&gt;Node19 -->
<g id="edge25" class="edge">
<title>Node16&#45;&gt;Node19</title>
<path fill="none" stroke="midnightblue" d="M380.44,-56.08C385.48,-48.53 392.84,-37.49 399.01,-28.23"/>
<polygon fill="midnightblue" stroke="midnightblue" points="402.03,-30.01 404.67,-19.75 396.21,-26.13 402.03,-30.01"/>
</g>
<!-- Node20 -->
<g id="node20" class="node">
<title>Node20</title>
<g id="a_node20"><a xlink:title=" ">
<polygon fill="none" stroke="#bfbfbf" points="457,-0.5 457,-19.5 500,-19.5 500,-0.5 457,-0.5"/>
<text text-anchor="middle" x="478.5" y="-7.5" font-family="Helvetica,sans-Serif" font-size="10.00">time.h</text>
</a>
</g>
</g>
<!-- Node16&#45;&gt;Node20 -->
<g id="edge26" class="edge">
<title>Node16&#45;&gt;Node20</title>
<path fill="none" stroke="midnightblue" d="M391.21,-56.32C407.81,-47.7 433.5,-34.36 452.72,-24.39"/>
<polygon fill="midnightblue" stroke="midnightblue" points="454.57,-27.37 461.83,-19.65 451.34,-21.16 454.57,-27.37"/>
</g>
</g>
</svg>
