<?xml version="1.0" encoding="UTF-8" standalone="no"?>
<!DOCTYPE svg PUBLIC "-//W3C//DTD SVG 1.1//EN"
 "http://www.w3.org/Graphics/SVG/1.1/DTD/svg11.dtd">
<!-- Generated by graphviz version 2.49.3 (20211027.1534)
 -->
<!-- Title: include/http.h Pages: 1 -->
<svg width="1334pt" height="419pt"
 viewBox="0.00 0.00 1334.00 419.00" xmlns="http://www.w3.org/2000/svg" xmlns:xlink="http://www.w3.org/1999/xlink">
<g id="graph0" class="graph" transform="scale(1 1) rotate(0) translate(4 415)">
<title>include/http.h</title>
<!-- Node1 -->
<g id="node1" class="node">
<title>Node1</title>
<g id="a_node1"><a xlink:title=" ">
<polygon fill="#bfbfbf" stroke="black" points="687,-391.5 687,-410.5 761,-410.5 761,-391.5 687,-391.5"/>
<text text-anchor="middle" x="724" y="-398.5" font-family="Helvetica,sans-Serif" font-size="10.00">include/http.h</text>
</a>
</g>
</g>
<!-- Node2 -->
<g id="node2" class="node">
<title>Node2</title>
<g id="a_node2"><a xlink:href="harvest__area_8h.html" target="_top" xlink:title=" ">
<polygon fill="none" stroke="black" points="316,-257.5 316,-287.5 426,-287.5 426,-257.5 316,-257.5"/>
<text text-anchor="start" x="324" y="-275.5" font-family="Helvetica,sans-Serif" font-size="10.00">include/FoodAuthority</text>
<text text-anchor="middle" x="371" y="-264.5" font-family="Helvetica,sans-Serif" font-size="10.00">/harvest_area.h</text>
</a>
</g>
</g>
<!-- Node1&#45;&gt;Node2 -->
<g id="edge1" class="edge">
<title>Node1&#45;&gt;Node2</title>
<path fill="none" stroke="midnightblue" d="M676.29,-398.4C624.21,-395.1 539.39,-385.11 473,-355 436.67,-338.52 402.08,-306.18 384.01,-287.58"/>
<polygon fill="midnightblue" stroke="midnightblue" points="676.39,-401.91 686.57,-398.99 676.79,-394.92 676.39,-401.91"/>
</g>
<!-- Node3 -->
<g id="node3" class="node">
<title>Node3</title>
<g id="a_node3"><a xlink:href="harvest__areas_8h.html" target="_top" xlink:title=" ">
<polygon fill="none" stroke="black" points="9,-123.5 9,-153.5 119,-153.5 119,-123.5 9,-123.5"/>
<text text-anchor="start" x="17" y="-141.5" font-family="Helvetica,sans-Serif" font-size="10.00">include/FoodAuthority</text>
<text text-anchor="middle" x="64" y="-130.5" font-family="Helvetica,sans-Serif" font-size="10.00">/harvest_areas.h</text>
</a>
</g>
</g>
<!-- Node1&#45;&gt;Node3 -->
<g id="edge15" class="edge">
<title>Node1&#45;&gt;Node3</title>
<path fill="none" stroke="midnightblue" d="M676.59,-397.68C576.8,-392.42 348.19,-378.17 274,-355 215.32,-336.68 197.2,-330.72 153,-288 110.85,-247.27 81.27,-182.43 69.57,-153.84"/>
<polygon fill="midnightblue" stroke="midnightblue" points="676.52,-401.19 686.68,-398.21 676.88,-394.19 676.52,-401.19"/>
</g>
<!-- Node4 -->
<g id="node4" class="node">
<title>Node4</title>
<g id="a_node4"><a xlink:href="main_8h.html" target="_top" xlink:title=" ">
<polygon fill="none" stroke="black" points="466.5,-62 466.5,-81 545.5,-81 545.5,-62 466.5,-62"/>
<text text-anchor="middle" x="506" y="-69" font-family="Helvetica,sans-Serif" font-size="10.00">include/main.h</text>
</a>
</g>
</g>
<!-- Node1&#45;&gt;Node4 -->
<g id="edge44" class="edge">
<title>Node1&#45;&gt;Node4</title>
<path fill="none" stroke="midnightblue" d="M676.75,-395.77C607.61,-386.7 487,-358.68 487,-273.5 487,-273.5 487,-273.5 487,-204.5 487,-157.5 498.95,-102.04 503.89,-81.09"/>
<polygon fill="midnightblue" stroke="midnightblue" points="676.62,-399.28 686.97,-397.02 677.47,-392.33 676.62,-399.28"/>
</g>
<!-- Node8 -->
<g id="node8" class="node">
<title>Node8</title>
<g id="a_node8"><a xlink:href="timeseries_8h.html" target="_top" xlink:title=" ">
<polygon fill="none" stroke="black" points="237.5,-129 237.5,-148 382.5,-148 382.5,-129 237.5,-129"/>
<text text-anchor="middle" x="310" y="-136" font-family="Helvetica,sans-Serif" font-size="10.00">include/IBM_EIS/timeseries.h</text>
</a>
</g>
</g>
<!-- Node1&#45;&gt;Node8 -->
<g id="edge20" class="edge">
<title>Node1&#45;&gt;Node8</title>
<path fill="none" stroke="midnightblue" d="M676.91,-397.12C616.56,-392.51 509.21,-381.15 421,-355 283.71,-314.3 205.38,-341.48 128,-221 120.55,-209.41 119.66,-200.97 128,-190 136.68,-178.58 218.54,-159.17 269.48,-148.04"/>
<polygon fill="midnightblue" stroke="midnightblue" points="676.67,-400.61 686.9,-397.86 677.18,-393.63 676.67,-400.61"/>
</g>
<!-- Node12 -->
<g id="node12" class="node">
<title>Node12</title>
<g id="a_node12"><a xlink:href="_i_b_m___e_i_s_2authenticate_8h.html" target="_top" xlink:title=" ">
<polygon fill="none" stroke="black" points="792.5,-196 792.5,-215 945.5,-215 945.5,-196 792.5,-196"/>
<text text-anchor="middle" x="869" y="-203" font-family="Helvetica,sans-Serif" font-size="10.00">include/IBM_EIS/authenticate.h</text>
</a>
</g>
</g>
<!-- Node1&#45;&gt;Node12 -->
<g id="edge16" class="edge">
<title>Node1&#45;&gt;Node12</title>
<path fill="none" stroke="midnightblue" d="M769.74,-388.5C816.23,-373.96 885.13,-343.81 912,-288 917.98,-275.59 916.76,-269.93 912,-257 905.64,-239.71 890.43,-224.31 879.92,-215.18"/>
<polygon fill="midnightblue" stroke="midnightblue" points="768.46,-385.22 759.89,-391.45 770.47,-391.93 768.46,-385.22"/>
</g>
<!-- Node14 -->
<g id="node14" class="node">
<title>Node14</title>
<g id="a_node14"><a xlink:href="_ubidots_2authenticate_8h.html" target="_top" xlink:title=" ">
<polygon fill="none" stroke="black" points="1021,-330 1021,-349 1169,-349 1169,-330 1021,-330"/>
<text text-anchor="middle" x="1095" y="-337" font-family="Helvetica,sans-Serif" font-size="10.00">include/Ubidots/authenticate.h</text>
</a>
</g>
</g>
<!-- Node1&#45;&gt;Node14 -->
<g id="edge21" class="edge">
<title>Node1&#45;&gt;Node14</title>
<path fill="none" stroke="midnightblue" d="M771.46,-392.39C840.76,-381.27 969.26,-360.67 1041.72,-349.05"/>
<polygon fill="midnightblue" stroke="midnightblue" points="770.59,-388.98 761.27,-394.02 771.7,-395.89 770.59,-388.98"/>
</g>
<!-- Node15 -->
<g id="node15" class="node">
<title>Node15</title>
<g id="a_node15"><a xlink:href="devices_8h.html" target="_top" xlink:title=" ">
<polygon fill="none" stroke="black" points="1198,-263 1198,-282 1326,-282 1326,-263 1198,-263"/>
<text text-anchor="middle" x="1262" y="-270" font-family="Helvetica,sans-Serif" font-size="10.00">include/Ubidots/devices.h</text>
</a>
</g>
</g>
<!-- Node1&#45;&gt;Node15 -->
<g id="edge26" class="edge">
<title>Node1&#45;&gt;Node15</title>
<path fill="none" stroke="midnightblue" d="M771.3,-399.23C872.5,-396.94 1106.62,-388.13 1178,-355 1196.43,-346.45 1237.33,-301.51 1254.35,-282.27"/>
<polygon fill="midnightblue" stroke="midnightblue" points="770.99,-395.73 761.07,-399.44 771.14,-402.73 770.99,-395.73"/>
</g>
<!-- Node18 -->
<g id="node18" class="node">
<title>Node18</title>
<g id="a_node18"><a xlink:href="_willy_weather_2authenticate_8h.html" target="_top" xlink:title=" ">
<polygon fill="none" stroke="black" points="711.5,-324.5 711.5,-354.5 818.5,-354.5 818.5,-324.5 711.5,-324.5"/>
<text text-anchor="start" x="719.5" y="-342.5" font-family="Helvetica,sans-Serif" font-size="10.00">include/WillyWeather</text>
<text text-anchor="middle" x="765" y="-331.5" font-family="Helvetica,sans-Serif" font-size="10.00">/authenticate.h</text>
</a>
</g>
</g>
<!-- Node1&#45;&gt;Node18 -->
<g id="edge27" class="edge">
<title>Node1&#45;&gt;Node18</title>
<path fill="none" stroke="midnightblue" d="M735.74,-382.96C741.95,-373.96 749.47,-363.03 755.34,-354.52"/>
<polygon fill="midnightblue" stroke="midnightblue" points="732.67,-381.25 729.87,-391.48 738.43,-385.23 732.67,-381.25"/>
</g>
<!-- Node19 -->
<g id="node19" class="node">
<title>Node19</title>
<g id="a_node19"><a xlink:href="location_8h.html" target="_top" xlink:title=" ">
<polygon fill="none" stroke="black" points="547.5,-257.5 547.5,-287.5 654.5,-287.5 654.5,-257.5 547.5,-257.5"/>
<text text-anchor="start" x="555.5" y="-275.5" font-family="Helvetica,sans-Serif" font-size="10.00">include/WillyWeather</text>
<text text-anchor="middle" x="601" y="-264.5" font-family="Helvetica,sans-Serif" font-size="10.00">/location.h</text>
</a>
</g>
</g>
<!-- Node1&#45;&gt;Node19 -->
<g id="edge41" class="edge">
<title>Node1&#45;&gt;Node19</title>
<path fill="none" stroke="midnightblue" d="M704.06,-385.17C693.26,-376.78 679.93,-365.82 669,-355 646.87,-333.08 624.33,-304.59 611.56,-287.75"/>
<polygon fill="midnightblue" stroke="midnightblue" points="702.01,-388.01 712.08,-391.3 706.26,-382.44 702.01,-388.01"/>
</g>
<!-- Node20 -->
<g id="node20" class="node">
<title>Node20</title>
<g id="a_node20"><a xlink:href="precipitation_8h.html" target="_top" xlink:title=" ">
<polygon fill="none" stroke="black" points="963.5,-190.5 963.5,-220.5 1070.5,-220.5 1070.5,-190.5 963.5,-190.5"/>
<text text-anchor="start" x="971.5" y="-208.5" font-family="Helvetica,sans-Serif" font-size="10.00">include/WillyWeather</text>
<text text-anchor="middle" x="1017" y="-197.5" font-family="Helvetica,sans-Serif" font-size="10.00">/precipitation.h</text>
</a>
</g>
</g>
<!-- Node1&#45;&gt;Node20 -->
<g id="edge42" class="edge">
<title>Node1&#45;&gt;Node20</title>
<path fill="none" stroke="midnightblue" d="M771.43,-393.39C804.11,-387.22 847.5,-375.74 881,-355 939.56,-318.75 988.53,-250.35 1007.99,-220.75"/>
<polygon fill="midnightblue" stroke="midnightblue" points="770.46,-390 761.23,-395.21 771.69,-396.9 770.46,-390"/>
</g>
<!-- Node22 -->
<g id="node22" class="node">
<title>Node22</title>
<g id="a_node22"><a xlink:href="tide_8h.html" target="_top" xlink:title=" ">
<polygon fill="none" stroke="black" points="667.5,-190.5 667.5,-220.5 774.5,-220.5 774.5,-190.5 667.5,-190.5"/>
<text text-anchor="start" x="675.5" y="-208.5" font-family="Helvetica,sans-Serif" font-size="10.00">include/WillyWeather</text>
<text text-anchor="middle" x="721" y="-197.5" font-family="Helvetica,sans-Serif" font-size="10.00">/tide.h</text>
</a>
</g>
</g>
<!-- Node1&#45;&gt;Node22 -->
<g id="edge43" class="edge">
<title>Node1&#45;&gt;Node22</title>
<path fill="none" stroke="midnightblue" d="M713.72,-382.63C709.51,-374.52 705.12,-364.57 703,-355 692.2,-306.32 707.73,-247.13 716.16,-220.58"/>
<polygon fill="midnightblue" stroke="midnightblue" points="710.7,-384.4 718.62,-391.44 716.82,-381 710.7,-384.4"/>
</g>
<!-- Node26 -->
<g id="node26" class="node">
<title>Node26</title>
<g id="a_node26"><a xlink:href="http_8c.html" target="_top" xlink:title=" ">
<polygon fill="none" stroke="black" points="1225.5,-330 1225.5,-349 1282.5,-349 1282.5,-330 1225.5,-330"/>
<text text-anchor="middle" x="1254" y="-337" font-family="Helvetica,sans-Serif" font-size="10.00">src/http.c</text>
</a>
</g>
</g>
<!-- Node1&#45;&gt;Node26 -->
<g id="edge45" class="edge">
<title>Node1&#45;&gt;Node26</title>
<path fill="none" stroke="midnightblue" d="M771.25,-399.28C858.88,-397.13 1052.15,-388.64 1211,-355 1217.94,-353.53 1225.31,-351.3 1231.96,-349.03"/>
<polygon fill="midnightblue" stroke="midnightblue" points="771.01,-395.78 761.09,-399.51 771.17,-402.78 771.01,-395.78"/>
</g>
<!-- Node2&#45;&gt;Node3 -->
<g id="edge2" class="edge">
<title>Node2&#45;&gt;Node3</title>
<path fill="none" stroke="midnightblue" d="M305.83,-270C254.15,-266.1 181.9,-254.42 128,-221 101.09,-204.32 80.93,-172.05 70.96,-153.51"/>
<polygon fill="midnightblue" stroke="midnightblue" points="305.67,-273.5 315.88,-270.68 306.14,-266.51 305.67,-273.5"/>
</g>
<!-- Node2&#45;&gt;Node4 -->
<g id="edge6" class="edge">
<title>Node2&#45;&gt;Node4</title>
<path fill="none" stroke="midnightblue" d="M399.27,-251.06C409.57,-242.61 420.72,-232.17 429,-221 457.44,-182.65 450.09,-164.89 473,-123 481.34,-107.75 492.74,-91.04 499.72,-81.18"/>
<polygon fill="midnightblue" stroke="midnightblue" points="396.93,-248.45 391.25,-257.4 401.27,-253.94 396.93,-248.45"/>
</g>
<!-- Node7 -->
<g id="node7" class="node">
<title>Node7</title>
<g id="a_node7"><a xlink:href="transform_8h.html" target="_top" xlink:title=" ">
<polygon fill="none" stroke="black" points="321.5,-196 321.5,-215 420.5,-215 420.5,-196 321.5,-196"/>
<text text-anchor="middle" x="371" y="-203" font-family="Helvetica,sans-Serif" font-size="10.00">include/transform.h</text>
</a>
</g>
</g>
<!-- Node2&#45;&gt;Node7 -->
<g id="edge7" class="edge">
<title>Node2&#45;&gt;Node7</title>
<path fill="none" stroke="midnightblue" d="M371,-247.25C371,-236.02 371,-223.38 371,-215.19"/>
<polygon fill="midnightblue" stroke="midnightblue" points="367.5,-247.4 371,-257.4 374.5,-247.4 367.5,-247.4"/>
</g>
<!-- Node11 -->
<g id="node11" class="node">
<title>Node11</title>
<g id="a_node11"><a xlink:href="harvest__area_8c.html" target="_top" xlink:title=" ">
<polygon fill="none" stroke="black" points="137,-190.5 137,-220.5 265,-220.5 265,-190.5 137,-190.5"/>
<text text-anchor="start" x="145" y="-208.5" font-family="Helvetica,sans-Serif" font-size="10.00">src/FoodAuthority/harvest</text>
<text text-anchor="middle" x="201" y="-197.5" font-family="Helvetica,sans-Serif" font-size="10.00">_area.c</text>
</a>
</g>
</g>
<!-- Node2&#45;&gt;Node11 -->
<g id="edge14" class="edge">
<title>Node2&#45;&gt;Node11</title>
<path fill="none" stroke="midnightblue" d="M324.76,-253.82C297.43,-243.37 263.31,-230.32 237.82,-220.58"/>
<polygon fill="midnightblue" stroke="midnightblue" points="323.52,-257.09 334.11,-257.4 326.02,-250.56 323.52,-257.09"/>
</g>
<!-- Node3&#45;&gt;Node4 -->
<g id="edge3" class="edge">
<title>Node3&#45;&gt;Node4</title>
<path fill="none" stroke="midnightblue" d="M129.18,-122.92C208.6,-109.4 386.45,-87.16 466.2,-77.36"/>
<polygon fill="midnightblue" stroke="midnightblue" points="128.34,-119.51 119.09,-124.69 129.55,-126.41 128.34,-119.51"/>
</g>
<!-- Node6 -->
<g id="node6" class="node">
<title>Node6</title>
<g id="a_node6"><a xlink:href="harvest__areas_8c.html" target="_top" xlink:title=" ">
<polygon fill="none" stroke="black" points="0,-56.5 0,-86.5 128,-86.5 128,-56.5 0,-56.5"/>
<text text-anchor="start" x="8" y="-74.5" font-family="Helvetica,sans-Serif" font-size="10.00">src/FoodAuthority/harvest</text>
<text text-anchor="middle" x="64" y="-63.5" font-family="Helvetica,sans-Serif" font-size="10.00">_areas.c</text>
</a>
</g>
</g>
<!-- Node3&#45;&gt;Node6 -->
<g id="edge5" class="edge">
<title>Node3&#45;&gt;Node6</title>
<path fill="none" stroke="midnightblue" d="M64,-113.11C64,-104.15 64,-94.32 64,-86.58"/>
<polygon fill="midnightblue" stroke="midnightblue" points="60.5,-113.4 64,-123.4 67.5,-113.4 60.5,-113.4"/>
</g>
<!-- Node5 -->
<g id="node5" class="node">
<title>Node5</title>
<g id="a_node5"><a xlink:href="main_8c.html" target="_top" xlink:title=" ">
<polygon fill="none" stroke="black" points="475,-0.5 475,-19.5 537,-19.5 537,-0.5 475,-0.5"/>
<text text-anchor="middle" x="506" y="-7.5" font-family="Helvetica,sans-Serif" font-size="10.00">src/main.c</text>
</a>
</g>
</g>
<!-- Node4&#45;&gt;Node5 -->
<g id="edge4" class="edge">
<title>Node4&#45;&gt;Node5</title>
<path fill="none" stroke="midnightblue" d="M506,-51.82C506,-41 506,-27.9 506,-19.51"/>
<polygon fill="midnightblue" stroke="midnightblue" points="502.5,-51.98 506,-61.98 509.5,-51.98 502.5,-51.98"/>
</g>
<!-- Node7&#45;&gt;Node3 -->
<g id="edge8" class="edge">
<title>Node7&#45;&gt;Node3</title>
<path fill="none" stroke="midnightblue" d="M323.97,-193.71C318.26,-192.44 312.5,-191.18 307,-190 227.64,-173.03 207.36,-170.97 128,-154 125.1,-153.38 122.13,-152.74 119.14,-152.08"/>
<polygon fill="midnightblue" stroke="midnightblue" points="323.62,-197.22 334.14,-195.99 325.15,-190.39 323.62,-197.22"/>
</g>
<!-- Node7&#45;&gt;Node4 -->
<g id="edge12" class="edge">
<title>Node7&#45;&gt;Node4</title>
<path fill="none" stroke="midnightblue" d="M382.2,-187.47C394.09,-170.12 414.02,-143.01 435,-123 452.73,-106.09 476.46,-90.36 491.48,-81.09"/>
<polygon fill="midnightblue" stroke="midnightblue" points="379.15,-185.74 376.47,-195.99 384.96,-189.65 379.15,-185.74"/>
</g>
<!-- Node7&#45;&gt;Node8 -->
<g id="edge9" class="edge">
<title>Node7&#45;&gt;Node8</title>
<path fill="none" stroke="midnightblue" d="M355.64,-188.13C343.71,-175.42 327.64,-158.3 318.1,-148.13"/>
<polygon fill="midnightblue" stroke="midnightblue" points="353.38,-190.84 362.77,-195.73 358.48,-186.05 353.38,-190.84"/>
</g>
<!-- Node10 -->
<g id="node10" class="node">
<title>Node10</title>
<g id="a_node10"><a xlink:href="transform_8c.html" target="_top" xlink:title=" ">
<polygon fill="none" stroke="black" points="137,-129 137,-148 219,-148 219,-129 137,-129"/>
<text text-anchor="middle" x="178" y="-136" font-family="Helvetica,sans-Serif" font-size="10.00">src/transform.c</text>
</a>
</g>
</g>
<!-- Node7&#45;&gt;Node10 -->
<g id="edge13" class="edge">
<title>Node7&#45;&gt;Node10</title>
<path fill="none" stroke="midnightblue" d="M335.67,-192.6C297.4,-179.71 237.3,-159.47 203.43,-148.06"/>
<polygon fill="midnightblue" stroke="midnightblue" points="334.78,-195.99 345.37,-195.87 337.01,-189.36 334.78,-195.99"/>
</g>
<!-- Node8&#45;&gt;Node4 -->
<g id="edge10" class="edge">
<title>Node8&#45;&gt;Node4</title>
<path fill="none" stroke="midnightblue" d="M345.88,-125.6C384.74,-112.71 445.77,-92.47 480.18,-81.06"/>
<polygon fill="midnightblue" stroke="midnightblue" points="344.42,-122.4 336.03,-128.87 346.62,-129.04 344.42,-122.4"/>
</g>
<!-- Node9 -->
<g id="node9" class="node">
<title>Node9</title>
<g id="a_node9"><a xlink:href="timeseries_8c.html" target="_top" xlink:title=" ">
<polygon fill="none" stroke="black" points="246,-62 246,-81 374,-81 374,-62 246,-62"/>
<text text-anchor="middle" x="310" y="-69" font-family="Helvetica,sans-Serif" font-size="10.00">src/IBM_EIS/timeseries.c</text>
</a>
</g>
</g>
<!-- Node8&#45;&gt;Node9 -->
<g id="edge11" class="edge">
<title>Node8&#45;&gt;Node9</title>
<path fill="none" stroke="midnightblue" d="M310,-118.54C310,-106.17 310,-90.62 310,-81.13"/>
<polygon fill="midnightblue" stroke="midnightblue" points="306.5,-118.73 310,-128.73 313.5,-118.73 306.5,-118.73"/>
</g>
<!-- Node12&#45;&gt;Node4 -->
<g id="edge18" class="edge">
<title>Node12&#45;&gt;Node4</title>
<path fill="none" stroke="midnightblue" d="M866.3,-185.87C862.53,-166.94 853.75,-138.3 834,-123 789.64,-88.65 622.95,-77.34 545.73,-73.89"/>
<polygon fill="midnightblue" stroke="midnightblue" points="862.89,-186.69 868.03,-195.95 869.79,-185.51 862.89,-186.69"/>
</g>
<!-- Node12&#45;&gt;Node8 -->
<g id="edge17" class="edge">
<title>Node12&#45;&gt;Node8</title>
<path fill="none" stroke="midnightblue" d="M812.24,-194.31C802.82,-192.76 793.15,-191.27 784,-190 642.39,-170.4 476.05,-154.25 382.85,-145.83"/>
<polygon fill="midnightblue" stroke="midnightblue" points="811.88,-197.8 822.32,-195.99 813.03,-190.89 811.88,-197.8"/>
</g>
<!-- Node13 -->
<g id="node13" class="node">
<title>Node13</title>
<g id="a_node13"><a xlink:href="_i_b_m___e_i_s_2authenticate_8c.html" target="_top" xlink:title=" ">
<polygon fill="none" stroke="black" points="689,-129 689,-148 825,-148 825,-129 689,-129"/>
<text text-anchor="middle" x="757" y="-136" font-family="Helvetica,sans-Serif" font-size="10.00">src/IBM_EIS/authenticate.c</text>
</a>
</g>
</g>
<!-- Node12&#45;&gt;Node13 -->
<g id="edge19" class="edge">
<title>Node12&#45;&gt;Node13</title>
<path fill="none" stroke="midnightblue" d="M845.08,-190.62C822.89,-177.74 790.56,-158.98 771.87,-148.13"/>
<polygon fill="midnightblue" stroke="midnightblue" points="843.49,-193.74 853.9,-195.73 847,-187.69 843.49,-193.74"/>
</g>
<!-- Node14&#45;&gt;Node15 -->
<g id="edge22" class="edge">
<title>Node14&#45;&gt;Node15</title>
<path fill="none" stroke="midnightblue" d="M1126.85,-326.1C1160.01,-313.2 1211.06,-293.33 1240,-282.06"/>
<polygon fill="midnightblue" stroke="midnightblue" points="1125.23,-322.98 1117.18,-329.87 1127.76,-329.5 1125.23,-322.98"/>
</g>
<!-- Node17 -->
<g id="node17" class="node">
<title>Node17</title>
<g id="a_node17"><a xlink:href="_ubidots_2authenticate_8c.html" target="_top" xlink:title=" ">
<polygon fill="none" stroke="black" points="1048.5,-263 1048.5,-282 1179.5,-282 1179.5,-263 1048.5,-263"/>
<text text-anchor="middle" x="1114" y="-270" font-family="Helvetica,sans-Serif" font-size="10.00">src/Ubidots/authenticate.c</text>
</a>
</g>
</g>
<!-- Node14&#45;&gt;Node17 -->
<g id="edge25" class="edge">
<title>Node14&#45;&gt;Node17</title>
<path fill="none" stroke="midnightblue" d="M1100.43,-319.91C1104.06,-307.49 1108.68,-291.72 1111.48,-282.13"/>
<polygon fill="midnightblue" stroke="midnightblue" points="1097.01,-319.15 1097.56,-329.73 1103.73,-321.12 1097.01,-319.15"/>
</g>
<!-- Node15&#45;&gt;Node4 -->
<g id="edge23" class="edge">
<title>Node15&#45;&gt;Node4</title>
<path fill="none" stroke="midnightblue" d="M1263.37,-252.9C1263.71,-235.06 1261.57,-208.22 1248,-190 1207.99,-136.28 1177.52,-140.99 1113,-123 1005.53,-93.04 662.86,-78.16 545.71,-73.86"/>
<polygon fill="midnightblue" stroke="midnightblue" points="1259.87,-252.76 1262.9,-262.91 1266.87,-253.09 1259.87,-252.76"/>
</g>
<!-- Node16 -->
<g id="node16" class="node">
<title>Node16</title>
<g id="a_node16"><a xlink:href="devices_8c.html" target="_top" xlink:title=" ">
<polygon fill="none" stroke="black" points="1127.5,-196 1127.5,-215 1238.5,-215 1238.5,-196 1127.5,-196"/>
<text text-anchor="middle" x="1183" y="-203" font-family="Helvetica,sans-Serif" font-size="10.00">src/Ubidots/devices.c</text>
</a>
</g>
</g>
<!-- Node15&#45;&gt;Node16 -->
<g id="edge24" class="edge">
<title>Node15&#45;&gt;Node16</title>
<path fill="none" stroke="midnightblue" d="M1243.42,-256.21C1227.86,-243.41 1206.2,-225.59 1193.49,-215.13"/>
<polygon fill="midnightblue" stroke="midnightblue" points="1241.4,-259.08 1251.35,-262.73 1245.85,-253.68 1241.4,-259.08"/>
</g>
<!-- Node18&#45;&gt;Node4 -->
<g id="edge39" class="edge">
<title>Node18&#45;&gt;Node4</title>
<path fill="none" stroke="midnightblue" d="M828.46,-323.99C911.82,-303.48 1051.05,-263.71 1080,-221 1104.44,-184.95 1109.42,-155.12 1080,-123 1043.98,-83.67 669.67,-74.82 545.66,-72.96"/>
<polygon fill="midnightblue" stroke="midnightblue" points="827.47,-320.63 818.59,-326.39 829.13,-327.43 827.47,-320.63"/>
</g>
<!-- Node18&#45;&gt;Node19 -->
<g id="edge28" class="edge">
<title>Node18&#45;&gt;Node19</title>
<path fill="none" stroke="midnightblue" d="M720.04,-320.68C693.74,-310.26 661,-297.28 636.52,-287.58"/>
<polygon fill="midnightblue" stroke="midnightblue" points="718.83,-323.97 729.41,-324.4 721.41,-317.46 718.83,-323.97"/>
</g>
<!-- Node18&#45;&gt;Node22 -->
<g id="edge38" class="edge">
<title>Node18&#45;&gt;Node22</title>
<path fill="none" stroke="midnightblue" d="M752.65,-315.08C748.56,-306.69 744.23,-297.07 741,-288 732.79,-264.94 726.74,-237.05 723.55,-220.6"/>
<polygon fill="midnightblue" stroke="midnightblue" points="749.65,-316.89 757.27,-324.25 755.9,-313.74 749.65,-316.89"/>
</g>
<!-- Node25 -->
<g id="node25" class="node">
<title>Node25</title>
<g id="a_node25"><a xlink:href="_willy_weather_2authenticate_8c.html" target="_top" xlink:title=" ">
<polygon fill="none" stroke="black" points="749.5,-263 749.5,-282 902.5,-282 902.5,-263 749.5,-263"/>
<text text-anchor="middle" x="826" y="-270" font-family="Helvetica,sans-Serif" font-size="10.00">src/WillyWeather/authenticate.c</text>
</a>
</g>
</g>
<!-- Node18&#45;&gt;Node25 -->
<g id="edge40" class="edge">
<title>Node18&#45;&gt;Node25</title>
<path fill="none" stroke="midnightblue" d="M785.18,-317C796.31,-305.13 809.53,-291.05 817.84,-282.19"/>
<polygon fill="midnightblue" stroke="midnightblue" points="782.53,-314.71 778.24,-324.4 787.63,-319.5 782.53,-314.71"/>
</g>
<!-- Node19&#45;&gt;Node3 -->
<g id="edge29" class="edge">
<title>Node19&#45;&gt;Node3</title>
<path fill="none" stroke="midnightblue" d="M537.49,-264.21C464.94,-255.22 351.21,-238.92 312,-221 292.18,-211.94 293.53,-199.68 274,-190 266.96,-186.51 178.97,-165.91 119.15,-152.12"/>
<polygon fill="midnightblue" stroke="midnightblue" points="537.09,-267.69 547.44,-265.43 537.94,-260.74 537.09,-267.69"/>
</g>
<!-- Node19&#45;&gt;Node7 -->
<g id="edge36" class="edge">
<title>Node19&#45;&gt;Node7</title>
<path fill="none" stroke="midnightblue" d="M541.73,-254.75C496.75,-242.04 436.76,-225.09 401.18,-215.03"/>
<polygon fill="midnightblue" stroke="midnightblue" points="540.8,-258.12 551.38,-257.48 542.71,-251.39 540.8,-258.12"/>
</g>
<!-- Node19&#45;&gt;Node20 -->
<g id="edge30" class="edge">
<title>Node19&#45;&gt;Node20</title>
<path fill="none" stroke="midnightblue" d="M664.76,-264.12C735.84,-255.49 854.1,-239.96 955,-221 957.72,-220.49 960.49,-219.94 963.29,-219.37"/>
<polygon fill="midnightblue" stroke="midnightblue" points="664.13,-260.67 654.62,-265.34 664.96,-267.62 664.13,-260.67"/>
</g>
<!-- Node19&#45;&gt;Node22 -->
<g id="edge33" class="edge">
<title>Node19&#45;&gt;Node22</title>
<path fill="none" stroke="midnightblue" d="M635.94,-252.57C654.82,-242.35 677.73,-229.94 695.01,-220.58"/>
<polygon fill="midnightblue" stroke="midnightblue" points="634.16,-249.56 627.04,-257.4 637.5,-255.71 634.16,-249.56"/>
</g>
<!-- Node24 -->
<g id="node24" class="node">
<title>Node24</title>
<g id="a_node24"><a xlink:href="location_8c.html" target="_top" xlink:title=" ">
<polygon fill="none" stroke="black" points="515,-196 515,-215 649,-215 649,-196 515,-196"/>
<text text-anchor="middle" x="582" y="-203" font-family="Helvetica,sans-Serif" font-size="10.00">src/WillyWeather/location.c</text>
</a>
</g>
</g>
<!-- Node19&#45;&gt;Node24 -->
<g id="edge37" class="edge">
<title>Node19&#45;&gt;Node24</title>
<path fill="none" stroke="midnightblue" d="M594.01,-247.6C590.7,-236.28 586.96,-223.46 584.54,-215.19"/>
<polygon fill="midnightblue" stroke="midnightblue" points="590.71,-248.78 596.88,-257.4 597.43,-246.82 590.71,-248.78"/>
</g>
<!-- Node20&#45;&gt;Node4 -->
<g id="edge31" class="edge">
<title>Node20&#45;&gt;Node4</title>
<path fill="none" stroke="midnightblue" d="M975.55,-186.17C955.5,-176.99 931.24,-165.43 910,-154 886.64,-141.43 883.97,-131.95 859,-123 750.16,-83.99 612.27,-75.02 545.62,-73.02"/>
<polygon fill="midnightblue" stroke="midnightblue" points="974.17,-189.39 984.73,-190.34 977.07,-183.02 974.17,-189.39"/>
</g>
<!-- Node21 -->
<g id="node21" class="node">
<title>Node21</title>
<g id="a_node21"><a xlink:href="precipitation_8c.html" target="_top" xlink:title=" ">
<polygon fill="none" stroke="black" points="919,-129 919,-148 1071,-148 1071,-129 919,-129"/>
<text text-anchor="middle" x="995" y="-136" font-family="Helvetica,sans-Serif" font-size="10.00">src/WillyWeather/precipitation.c</text>
</a>
</g>
</g>
<!-- Node20&#45;&gt;Node21 -->
<g id="edge32" class="edge">
<title>Node20&#45;&gt;Node21</title>
<path fill="none" stroke="midnightblue" d="M1008.91,-180.6C1005.08,-169.28 1000.74,-156.46 997.94,-148.19"/>
<polygon fill="midnightblue" stroke="midnightblue" points="1005.71,-182.05 1012.23,-190.4 1012.34,-179.8 1005.71,-182.05"/>
</g>
<!-- Node22&#45;&gt;Node4 -->
<g id="edge34" class="edge">
<title>Node22&#45;&gt;Node4</title>
<path fill="none" stroke="midnightblue" d="M657.72,-188.9C611.32,-177.02 554.91,-161.47 546,-154 522.57,-134.35 511.68,-97.68 507.78,-81.07"/>
<polygon fill="midnightblue" stroke="midnightblue" points="656.9,-192.3 667.45,-191.38 658.62,-185.52 656.9,-192.3"/>
</g>
<!-- Node23 -->
<g id="node23" class="node">
<title>Node23</title>
<g id="a_node23"><a xlink:href="tide_8c.html" target="_top" xlink:title=" ">
<polygon fill="none" stroke="black" points="555,-129 555,-148 671,-148 671,-129 555,-129"/>
<text text-anchor="middle" x="613" y="-136" font-family="Helvetica,sans-Serif" font-size="10.00">src/WillyWeather/tide.c</text>
</a>
</g>
</g>
<!-- Node22&#45;&gt;Node23 -->
<g id="edge35" class="edge">
<title>Node22&#45;&gt;Node23</title>
<path fill="none" stroke="midnightblue" d="M688.83,-185.14C668.31,-172.79 642.72,-157.39 627.13,-148.01"/>
<polygon fill="midnightblue" stroke="midnightblue" points="687.19,-188.24 697.57,-190.4 690.8,-182.24 687.19,-188.24"/>
</g>
</g>
</svg>
