<?xml version="1.0" encoding="UTF-8" standalone="no"?>
<!DOCTYPE svg PUBLIC "-//W3C//DTD SVG 1.1//EN"
 "http://www.w3.org/Graphics/SVG/1.1/DTD/svg11.dtd">
<!-- Generated by graphviz version 2.49.3 (20211027.1534)
 -->
<!-- Title: include/http.h Pages: 1 -->
<svg width="1283pt" height="341pt"
 viewBox="0.00 0.00 1282.93 341.00" xmlns="http://www.w3.org/2000/svg" xmlns:xlink="http://www.w3.org/1999/xlink">
<g id="graph0" class="graph" transform="scale(1 1) rotate(0) translate(4 337)">
<title>include/http.h</title>
<!-- Node1 -->
<g id="node1" class="node">
<title>Node1</title>
<g id="a_node1"><a xlink:title=" ">
<polygon fill="#bfbfbf" stroke="black" points="634.93,-313.5 634.93,-332.5 708.93,-332.5 708.93,-313.5 634.93,-313.5"/>
<text text-anchor="middle" x="671.93" y="-320.5" font-family="Helvetica,sans-Serif" font-size="10.00">include/http.h</text>
</a>
</g>
</g>
<!-- Node2 -->
<g id="node2" class="node">
<title>Node2</title>
<g id="a_node2"><a xlink:href="harvest__area_8h.html" target="_top" xlink:title=" ">
<polygon fill="none" stroke="black" points="114.93,-246.5 114.93,-276.5 224.93,-276.5 224.93,-246.5 114.93,-246.5"/>
<text text-anchor="start" x="122.93" y="-264.5" font-family="Helvetica,sans-Serif" font-size="10.00">include/FoodAuthority</text>
<text text-anchor="middle" x="169.93" y="-253.5" font-family="Helvetica,sans-Serif" font-size="10.00">/harvest_area.h</text>
</a>
</g>
</g>
<!-- Node1&#45;&gt;Node2 -->
<g id="edge1" class="edge">
<title>Node1&#45;&gt;Node2</title>
<path fill="none" stroke="midnightblue" d="M624.77,-317.18C549.76,-309.42 398.68,-293.34 270.93,-277 256.08,-275.1 240.03,-272.88 225.19,-270.75"/>
<polygon fill="midnightblue" stroke="midnightblue" points="624.53,-320.68 634.84,-318.22 625.25,-313.72 624.53,-320.68"/>
</g>
<!-- Node3 -->
<g id="node3" class="node">
<title>Node3</title>
<g id="a_node3"><a xlink:href="main_8h.html" target="_top" xlink:title=" ">
<polygon fill="none" stroke="black" points="577.43,-56.5 577.43,-75.5 656.43,-75.5 656.43,-56.5 577.43,-56.5"/>
<text text-anchor="middle" x="616.93" y="-63.5" font-family="Helvetica,sans-Serif" font-size="10.00">include/main.h</text>
</a>
</g>
</g>
<!-- Node1&#45;&gt;Node3 -->
<g id="edge29" class="edge">
<title>Node1&#45;&gt;Node3</title>
<path fill="none" stroke="midnightblue" d="M624.54,-321.27C506.38,-318.98 201.34,-309.95 105.93,-277 55.01,-259.42 30.4,-257.46 4.93,-210 -51.38,-105.08 433.14,-75.12 577.25,-68.57"/>
<polygon fill="midnightblue" stroke="midnightblue" points="624.66,-324.78 634.72,-321.46 624.79,-317.78 624.66,-324.78"/>
</g>
<!-- Node6 -->
<g id="node6" class="node">
<title>Node6</title>
<g id="a_node6"><a xlink:href="_i_b_m___e_i_s_2authenticate_8h.html" target="_top" xlink:title=" ">
<polygon fill="none" stroke="black" points="635.43,-252 635.43,-271 788.43,-271 788.43,-252 635.43,-252"/>
<text text-anchor="middle" x="711.93" y="-259" font-family="Helvetica,sans-Serif" font-size="10.00">include/IBM_EIS/authenticate.h</text>
</a>
</g>
</g>
<!-- Node1&#45;&gt;Node6 -->
<g id="edge5" class="edge">
<title>Node1&#45;&gt;Node6</title>
<path fill="none" stroke="midnightblue" d="M683.35,-305.01C690.82,-293.89 700.27,-279.84 706.2,-271.01"/>
<polygon fill="midnightblue" stroke="midnightblue" points="680.33,-303.22 677.66,-313.48 686.14,-307.13 680.33,-303.22"/>
</g>
<!-- Node7 -->
<g id="node7" class="node">
<title>Node7</title>
<g id="a_node7"><a xlink:href="timeseries_8h.html" target="_top" xlink:title=" ">
<polygon fill="none" stroke="black" points="493.43,-185 493.43,-204 638.43,-204 638.43,-185 493.43,-185"/>
<text text-anchor="middle" x="565.93" y="-192" font-family="Helvetica,sans-Serif" font-size="10.00">include/IBM_EIS/timeseries.h</text>
</a>
</g>
</g>
<!-- Node1&#45;&gt;Node7 -->
<g id="edge11" class="edge">
<title>Node1&#45;&gt;Node7</title>
<path fill="none" stroke="midnightblue" d="M654.77,-306.48C645.82,-298.08 634.9,-287.33 625.93,-277 604.26,-252.07 582.06,-219.8 571.79,-204.42"/>
<polygon fill="midnightblue" stroke="midnightblue" points="652.6,-309.24 662.32,-313.45 657.35,-304.1 652.6,-309.24"/>
</g>
<!-- Node10 -->
<g id="node10" class="node">
<title>Node10</title>
<g id="a_node10"><a xlink:href="_ubidots_2authenticate_8h.html" target="_top" xlink:title=" ">
<polygon fill="none" stroke="black" points="335.93,-252 335.93,-271 483.93,-271 483.93,-252 335.93,-252"/>
<text text-anchor="middle" x="409.93" y="-259" font-family="Helvetica,sans-Serif" font-size="10.00">include/Ubidots/authenticate.h</text>
</a>
</g>
</g>
<!-- Node1&#45;&gt;Node10 -->
<g id="edge12" class="edge">
<title>Node1&#45;&gt;Node10</title>
<path fill="none" stroke="midnightblue" d="M624.6,-311.25C573.8,-299.72 494.14,-281.63 447.48,-271.03"/>
<polygon fill="midnightblue" stroke="midnightblue" points="624.14,-314.74 634.67,-313.54 625.69,-307.91 624.14,-314.74"/>
</g>
<!-- Node11 -->
<g id="node11" class="node">
<title>Node11</title>
<g id="a_node11"><a xlink:href="devices_8h.html" target="_top" xlink:title=" ">
<polygon fill="none" stroke="black" points="197.93,-185 197.93,-204 325.93,-204 325.93,-185 197.93,-185"/>
<text text-anchor="middle" x="261.93" y="-192" font-family="Helvetica,sans-Serif" font-size="10.00">include/Ubidots/devices.h</text>
</a>
</g>
</g>
<!-- Node1&#45;&gt;Node11 -->
<g id="edge17" class="edge">
<title>Node1&#45;&gt;Node11</title>
<path fill="none" stroke="midnightblue" d="M624.76,-320.18C542.52,-316.31 376.87,-305.18 326.93,-277 296.19,-259.66 274.56,-221.45 266,-204.22"/>
<polygon fill="midnightblue" stroke="midnightblue" points="624.69,-323.68 634.84,-320.64 625.01,-316.69 624.69,-323.68"/>
</g>
<!-- Node14 -->
<g id="node14" class="node">
<title>Node14</title>
<g id="a_node14"><a xlink:href="_willy_weather_2authenticate_8h.html" target="_top" xlink:title=" ">
<polygon fill="none" stroke="black" points="910.43,-246.5 910.43,-276.5 1017.43,-276.5 1017.43,-246.5 910.43,-246.5"/>
<text text-anchor="start" x="918.43" y="-264.5" font-family="Helvetica,sans-Serif" font-size="10.00">include/WillyWeather</text>
<text text-anchor="middle" x="963.93" y="-253.5" font-family="Helvetica,sans-Serif" font-size="10.00">/authenticate.h</text>
</a>
</g>
</g>
<!-- Node1&#45;&gt;Node14 -->
<g id="edge18" class="edge">
<title>Node1&#45;&gt;Node14</title>
<path fill="none" stroke="midnightblue" d="M719.22,-312.36C771.51,-301.71 855.57,-284.58 910.28,-273.43"/>
<polygon fill="midnightblue" stroke="midnightblue" points="718.3,-308.98 709.2,-314.4 719.7,-315.84 718.3,-308.98"/>
</g>
<!-- Node15 -->
<g id="node15" class="node">
<title>Node15</title>
<g id="a_node15"><a xlink:href="location_8h.html" target="_top" xlink:title=" ">
<polygon fill="none" stroke="black" points="1135.43,-179.5 1135.43,-209.5 1242.43,-209.5 1242.43,-179.5 1135.43,-179.5"/>
<text text-anchor="start" x="1143.43" y="-197.5" font-family="Helvetica,sans-Serif" font-size="10.00">include/WillyWeather</text>
<text text-anchor="middle" x="1188.93" y="-186.5" font-family="Helvetica,sans-Serif" font-size="10.00">/location.h</text>
</a>
</g>
</g>
<!-- Node1&#45;&gt;Node15 -->
<g id="edge27" class="edge">
<title>Node1&#45;&gt;Node15</title>
<path fill="none" stroke="midnightblue" d="M719.35,-321.72C820.17,-320.42 1052.24,-313.43 1120.93,-277 1149.74,-261.72 1171.22,-228.61 1181.73,-209.63"/>
<polygon fill="midnightblue" stroke="midnightblue" points="719.11,-318.23 709.15,-321.84 719.19,-325.22 719.11,-318.23"/>
</g>
<!-- Node16 -->
<g id="node16" class="node">
<title>Node16</title>
<g id="a_node16"><a xlink:href="tide_8h.html" target="_top" xlink:title=" ">
<polygon fill="none" stroke="black" points="1015.43,-112.5 1015.43,-142.5 1122.43,-142.5 1122.43,-112.5 1015.43,-112.5"/>
<text text-anchor="start" x="1023.43" y="-130.5" font-family="Helvetica,sans-Serif" font-size="10.00">include/WillyWeather</text>
<text text-anchor="middle" x="1068.93" y="-119.5" font-family="Helvetica,sans-Serif" font-size="10.00">/tide.h</text>
</a>
</g>
</g>
<!-- Node1&#45;&gt;Node16 -->
<g id="edge28" class="edge">
<title>Node1&#45;&gt;Node16</title>
<path fill="none" stroke="midnightblue" d="M719.22,-320.9C803.78,-318.14 976.75,-308.68 1026.93,-277 1056.84,-258.11 1059.97,-243.95 1069.93,-210 1073.8,-196.78 1070.06,-192.78 1069.93,-179 1069.8,-166.72 1069.52,-152.77 1069.28,-142.65"/>
<polygon fill="midnightblue" stroke="midnightblue" points="719,-317.4 709.11,-321.21 719.22,-324.4 719,-317.4"/>
</g>
<!-- Node20 -->
<g id="node20" class="node">
<title>Node20</title>
<g id="a_node20"><a xlink:href="http_8c.html" target="_top" xlink:title=" ">
<polygon fill="none" stroke="black" points="1173.43,-252 1173.43,-271 1230.43,-271 1230.43,-252 1173.43,-252"/>
<text text-anchor="middle" x="1201.93" y="-259" font-family="Helvetica,sans-Serif" font-size="10.00">src/http.c</text>
</a>
</g>
</g>
<!-- Node1&#45;&gt;Node20 -->
<g id="edge30" class="edge">
<title>Node1&#45;&gt;Node20</title>
<path fill="none" stroke="midnightblue" d="M719.17,-321.28C806.81,-319.13 1000.08,-310.64 1158.93,-277 1165.86,-275.53 1173.24,-273.3 1179.88,-271.03"/>
<polygon fill="midnightblue" stroke="midnightblue" points="718.94,-317.78 709.02,-321.51 719.1,-324.78 718.94,-317.78"/>
</g>
<!-- Node2&#45;&gt;Node3 -->
<g id="edge2" class="edge">
<title>Node2&#45;&gt;Node3</title>
<path fill="none" stroke="midnightblue" d="M171.84,-236.1C174.04,-219.15 178.77,-196.53 188.93,-179 210.84,-141.18 221.33,-130.52 260.93,-112 316.37,-86.06 496.44,-73.43 577.16,-68.96"/>
<polygon fill="midnightblue" stroke="midnightblue" points="168.33,-236 170.72,-246.32 175.29,-236.76 168.33,-236"/>
</g>
<!-- Node5 -->
<g id="node5" class="node">
<title>Node5</title>
<g id="a_node5"><a xlink:href="harvest__area_8c.html" target="_top" xlink:title=" ">
<polygon fill="none" stroke="black" points="13.93,-179.5 13.93,-209.5 141.93,-209.5 141.93,-179.5 13.93,-179.5"/>
<text text-anchor="start" x="21.93" y="-197.5" font-family="Helvetica,sans-Serif" font-size="10.00">src/FoodAuthority/harvest</text>
<text text-anchor="middle" x="77.93" y="-186.5" font-family="Helvetica,sans-Serif" font-size="10.00">_area.c</text>
</a>
</g>
</g>
<!-- Node2&#45;&gt;Node5 -->
<g id="edge4" class="edge">
<title>Node2&#45;&gt;Node5</title>
<path fill="none" stroke="midnightblue" d="M141.55,-240.45C127.4,-230.45 110.62,-218.6 97.85,-209.58"/>
<polygon fill="midnightblue" stroke="midnightblue" points="139.78,-243.48 149.96,-246.4 143.82,-237.77 139.78,-243.48"/>
</g>
<!-- Node4 -->
<g id="node4" class="node">
<title>Node4</title>
<g id="a_node4"><a xlink:href="main_8c.html" target="_top" xlink:title=" ">
<polygon fill="none" stroke="black" points="585.93,-0.5 585.93,-19.5 647.93,-19.5 647.93,-0.5 585.93,-0.5"/>
<text text-anchor="middle" x="616.93" y="-7.5" font-family="Helvetica,sans-Serif" font-size="10.00">src/main.c</text>
</a>
</g>
</g>
<!-- Node3&#45;&gt;Node4 -->
<g id="edge3" class="edge">
<title>Node3&#45;&gt;Node4</title>
<path fill="none" stroke="midnightblue" d="M616.93,-45.8C616.93,-36.91 616.93,-26.78 616.93,-19.75"/>
<polygon fill="midnightblue" stroke="midnightblue" points="613.43,-46.08 616.93,-56.08 620.43,-46.08 613.43,-46.08"/>
</g>
<!-- Node6&#45;&gt;Node3 -->
<g id="edge9" class="edge">
<title>Node6&#45;&gt;Node3</title>
<path fill="none" stroke="midnightblue" d="M752.7,-248.27C771.16,-240.47 791.21,-228.3 801.93,-210 808.89,-198.11 808.69,-191 801.93,-179 769.02,-120.62 692.06,-89.2 648.48,-75.53"/>
<polygon fill="midnightblue" stroke="midnightblue" points="751.3,-245.07 743.25,-251.96 753.84,-251.59 751.3,-245.07"/>
</g>
<!-- Node6&#45;&gt;Node7 -->
<g id="edge6" class="edge">
<title>Node6&#45;&gt;Node7</title>
<path fill="none" stroke="midnightblue" d="M683.36,-247.78C654.44,-234.91 610.52,-215.35 585.39,-204.17"/>
<polygon fill="midnightblue" stroke="midnightblue" points="681.98,-251 692.54,-251.87 684.83,-244.6 681.98,-251"/>
</g>
<!-- Node9 -->
<g id="node9" class="node">
<title>Node9</title>
<g id="a_node9"><a xlink:href="_i_b_m___e_i_s_2authenticate_8c.html" target="_top" xlink:title=" ">
<polygon fill="none" stroke="black" points="656.93,-185 656.93,-204 792.93,-204 792.93,-185 656.93,-185"/>
<text text-anchor="middle" x="724.93" y="-192" font-family="Helvetica,sans-Serif" font-size="10.00">src/IBM_EIS/authenticate.c</text>
</a>
</g>
</g>
<!-- Node6&#45;&gt;Node9 -->
<g id="edge10" class="edge">
<title>Node6&#45;&gt;Node9</title>
<path fill="none" stroke="midnightblue" d="M715.64,-241.91C718.13,-229.49 721.28,-213.72 723.2,-204.13"/>
<polygon fill="midnightblue" stroke="midnightblue" points="712.21,-241.24 713.68,-251.73 719.07,-242.61 712.21,-241.24"/>
</g>
<!-- Node7&#45;&gt;Node3 -->
<g id="edge7" class="edge">
<title>Node7&#45;&gt;Node3</title>
<path fill="none" stroke="midnightblue" d="M578.79,-176.27C585.31,-166.85 592.9,-154.73 597.93,-143 607.89,-119.75 613.4,-90.16 615.68,-75.72"/>
<polygon fill="midnightblue" stroke="midnightblue" points="575.74,-174.52 572.76,-184.68 581.43,-178.6 575.74,-174.52"/>
</g>
<!-- Node8 -->
<g id="node8" class="node">
<title>Node8</title>
<g id="a_node8"><a xlink:href="timeseries_8c.html" target="_top" xlink:title=" ">
<polygon fill="none" stroke="black" points="460.93,-118 460.93,-137 588.93,-137 588.93,-118 460.93,-118"/>
<text text-anchor="middle" x="524.93" y="-125" font-family="Helvetica,sans-Serif" font-size="10.00">src/IBM_EIS/timeseries.c</text>
</a>
</g>
</g>
<!-- Node7&#45;&gt;Node8 -->
<g id="edge8" class="edge">
<title>Node7&#45;&gt;Node8</title>
<path fill="none" stroke="midnightblue" d="M554.91,-176.03C546.97,-163.45 536.6,-147.01 530.37,-137.13"/>
<polygon fill="midnightblue" stroke="midnightblue" points="552.1,-178.14 560.4,-184.73 558.02,-174.41 552.1,-178.14"/>
</g>
<!-- Node10&#45;&gt;Node11 -->
<g id="edge13" class="edge">
<title>Node10&#45;&gt;Node11</title>
<path fill="none" stroke="midnightblue" d="M380.97,-247.78C351.66,-234.91 307.13,-215.35 281.66,-204.17"/>
<polygon fill="midnightblue" stroke="midnightblue" points="379.71,-251.05 390.27,-251.87 382.52,-244.64 379.71,-251.05"/>
</g>
<!-- Node13 -->
<g id="node13" class="node">
<title>Node13</title>
<g id="a_node13"><a xlink:href="_ubidots_2authenticate_8c.html" target="_top" xlink:title=" ">
<polygon fill="none" stroke="black" points="344.43,-185 344.43,-204 475.43,-204 475.43,-185 344.43,-185"/>
<text text-anchor="middle" x="409.93" y="-192" font-family="Helvetica,sans-Serif" font-size="10.00">src/Ubidots/authenticate.c</text>
</a>
</g>
</g>
<!-- Node10&#45;&gt;Node13 -->
<g id="edge16" class="edge">
<title>Node10&#45;&gt;Node13</title>
<path fill="none" stroke="midnightblue" d="M409.93,-241.54C409.93,-229.17 409.93,-213.62 409.93,-204.13"/>
<polygon fill="midnightblue" stroke="midnightblue" points="406.43,-241.73 409.93,-251.73 413.43,-241.73 406.43,-241.73"/>
</g>
<!-- Node11&#45;&gt;Node3 -->
<g id="edge14" class="edge">
<title>Node11&#45;&gt;Node3</title>
<path fill="none" stroke="midnightblue" d="M260.68,-174.8C260.54,-156.05 263.57,-127.77 280.93,-112 323.62,-73.22 497.89,-67.44 577.24,-66.87"/>
<polygon fill="midnightblue" stroke="midnightblue" points="257.18,-174.95 261.06,-184.81 264.18,-174.68 257.18,-174.95"/>
</g>
<!-- Node12 -->
<g id="node12" class="node">
<title>Node12</title>
<g id="a_node12"><a xlink:href="devices_8c.html" target="_top" xlink:title=" ">
<polygon fill="none" stroke="black" points="290.43,-118 290.43,-137 401.43,-137 401.43,-118 290.43,-118"/>
<text text-anchor="middle" x="345.93" y="-125" font-family="Helvetica,sans-Serif" font-size="10.00">src/Ubidots/devices.c</text>
</a>
</g>
</g>
<!-- Node11&#45;&gt;Node12 -->
<g id="edge15" class="edge">
<title>Node11&#45;&gt;Node12</title>
<path fill="none" stroke="midnightblue" d="M281.22,-178.57C297.8,-165.74 321.13,-147.69 334.78,-137.13"/>
<polygon fill="midnightblue" stroke="midnightblue" points="279.02,-175.85 273.25,-184.73 283.3,-181.38 279.02,-175.85"/>
</g>
<!-- Node14&#45;&gt;Node3 -->
<g id="edge25" class="edge">
<title>Node14&#45;&gt;Node3</title>
<path fill="none" stroke="midnightblue" d="M927.82,-241.35C912.06,-232.47 893.63,-221.38 877.93,-210 824.64,-171.38 824.44,-143.98 766.93,-112 732.11,-92.65 688.02,-80.71 656.67,-74.03"/>
<polygon fill="midnightblue" stroke="midnightblue" points="926.3,-244.51 936.75,-246.3 929.7,-238.39 926.3,-244.51"/>
</g>
<!-- Node14&#45;&gt;Node15 -->
<g id="edge19" class="edge">
<title>Node14&#45;&gt;Node15</title>
<path fill="none" stroke="midnightblue" d="M1022.5,-243.58C1059.04,-233.02 1105.53,-219.59 1140.08,-209.61"/>
<polygon fill="midnightblue" stroke="midnightblue" points="1021.11,-240.34 1012.47,-246.48 1023.05,-247.06 1021.11,-240.34"/>
</g>
<!-- Node14&#45;&gt;Node16 -->
<g id="edge24" class="edge">
<title>Node14&#45;&gt;Node16</title>
<path fill="none" stroke="midnightblue" d="M1010.77,-241.88C1025.25,-234.03 1039.98,-223.51 1049.93,-210 1064.74,-189.87 1068.22,-160 1068.92,-142.57"/>
<polygon fill="midnightblue" stroke="midnightblue" points="1009.16,-238.78 1001.83,-246.43 1012.33,-245.01 1009.16,-238.78"/>
</g>
<!-- Node19 -->
<g id="node19" class="node">
<title>Node19</title>
<g id="a_node19"><a xlink:href="_willy_weather_2authenticate_8c.html" target="_top" xlink:title=" ">
<polygon fill="none" stroke="black" points="887.43,-185 887.43,-204 1040.43,-204 1040.43,-185 887.43,-185"/>
<text text-anchor="middle" x="963.93" y="-192" font-family="Helvetica,sans-Serif" font-size="10.00">src/WillyWeather/authenticate.c</text>
</a>
</g>
</g>
<!-- Node14&#45;&gt;Node19 -->
<g id="edge26" class="edge">
<title>Node14&#45;&gt;Node19</title>
<path fill="none" stroke="midnightblue" d="M963.93,-236.25C963.93,-225.02 963.93,-212.38 963.93,-204.19"/>
<polygon fill="midnightblue" stroke="midnightblue" points="960.43,-236.4 963.93,-246.4 967.43,-236.4 960.43,-236.4"/>
</g>
<!-- Node15&#45;&gt;Node16 -->
<g id="edge20" class="edge">
<title>Node15&#45;&gt;Node16</title>
<path fill="none" stroke="midnightblue" d="M1153.99,-174.57C1135.11,-164.35 1112.2,-151.94 1094.91,-142.58"/>
<polygon fill="midnightblue" stroke="midnightblue" points="1152.43,-177.71 1162.89,-179.4 1155.76,-171.56 1152.43,-177.71"/>
</g>
<!-- Node18 -->
<g id="node18" class="node">
<title>Node18</title>
<g id="a_node18"><a xlink:href="location_8c.html" target="_top" xlink:title=" ">
<polygon fill="none" stroke="black" points="1140.93,-118 1140.93,-137 1274.93,-137 1274.93,-118 1140.93,-118"/>
<text text-anchor="middle" x="1207.93" y="-125" font-family="Helvetica,sans-Serif" font-size="10.00">src/WillyWeather/location.c</text>
</a>
</g>
</g>
<!-- Node15&#45;&gt;Node18 -->
<g id="edge23" class="edge">
<title>Node15&#45;&gt;Node18</title>
<path fill="none" stroke="midnightblue" d="M1195.91,-169.6C1199.22,-158.28 1202.97,-145.46 1205.38,-137.19"/>
<polygon fill="midnightblue" stroke="midnightblue" points="1192.49,-168.82 1193.05,-179.4 1199.21,-170.78 1192.49,-168.82"/>
</g>
<!-- Node16&#45;&gt;Node3 -->
<g id="edge21" class="edge">
<title>Node16&#45;&gt;Node3</title>
<path fill="none" stroke="midnightblue" d="M1005.27,-118.12C910.48,-105.64 735.01,-82.54 656.59,-72.22"/>
<polygon fill="midnightblue" stroke="midnightblue" points="1004.93,-121.61 1015.3,-119.44 1005.84,-114.67 1004.93,-121.61"/>
</g>
<!-- Node17 -->
<g id="node17" class="node">
<title>Node17</title>
<g id="a_node17"><a xlink:href="tide_8c.html" target="_top" xlink:title=" ">
<polygon fill="none" stroke="black" points="1010.93,-56.5 1010.93,-75.5 1126.93,-75.5 1126.93,-56.5 1010.93,-56.5"/>
<text text-anchor="middle" x="1068.93" y="-63.5" font-family="Helvetica,sans-Serif" font-size="10.00">src/WillyWeather/tide.c</text>
</a>
</g>
</g>
<!-- Node16&#45;&gt;Node17 -->
<g id="edge22" class="edge">
<title>Node16&#45;&gt;Node17</title>
<path fill="none" stroke="midnightblue" d="M1068.93,-102.29C1068.93,-92.86 1068.93,-82.65 1068.93,-75.66"/>
<polygon fill="midnightblue" stroke="midnightblue" points="1065.43,-102.4 1068.93,-112.4 1072.43,-102.4 1065.43,-102.4"/>
</g>
</g>
</svg>
