<?xml version="1.0" encoding="UTF-8" standalone="no"?>
<!DOCTYPE svg PUBLIC "-//W3C//DTD SVG 1.1//EN"
 "http://www.w3.org/Graphics/SVG/1.1/DTD/svg11.dtd">
<!-- Generated by graphviz version 2.43.0 (0)
 -->
<!-- Title: include/http.h Pages: 1 -->
<svg width="1659pt" height="412pt"
 viewBox="0.00 0.00 1659.00 412.00" xmlns="http://www.w3.org/2000/svg" xmlns:xlink="http://www.w3.org/1999/xlink">
<g id="graph0" class="graph" transform="scale(1 1) rotate(0) translate(4 408)">
<title>include/http.h</title>
<!-- Node1 -->
<g id="node1" class="node">
<title>Node1</title>
<g id="a_node1"><a xlink:title=" ">
<polygon fill="#999999" stroke="#666666" points="1022.5,-404 939.5,-404 939.5,-385 1022.5,-385 1022.5,-404"/>
<text text-anchor="middle" x="981" y="-392" font-family="Helvetica,sans-Serif" font-size="10.00">include/http.h</text>
</a>
</g>
</g>
<!-- Node2 -->
<g id="node2" class="node">
<title>Node2</title>
<g id="a_node2"><a xlink:href="harvest__area_8h.html" target="_top" xlink:title=" ">
<polygon fill="white" stroke="#666666" points="326.5,-283 203.5,-283 203.5,-253 326.5,-253 326.5,-283"/>
<text text-anchor="start" x="211.5" y="-271" font-family="Helvetica,sans-Serif" font-size="10.00">include/FoodAuthority</text>
<text text-anchor="middle" x="265" y="-260" font-family="Helvetica,sans-Serif" font-size="10.00">/harvest_area.h</text>
</a>
</g>
</g>
<!-- Node1&#45;&gt;Node2 -->
<g id="edge1" class="edge">
<title>Node1&#45;&gt;Node2</title>
<path fill="none" stroke="#63b8ff" d="M929.07,-392.04C786.06,-387.74 393.59,-373.77 341,-349 310.32,-334.55 285.74,-301.84 273.48,-283.03"/>
<polygon fill="#63b8ff" stroke="#63b8ff" points="929.23,-395.55 939.33,-392.35 929.43,-388.55 929.23,-395.55"/>
</g>
<!-- Node3 -->
<g id="node3" class="node">
<title>Node3</title>
<g id="a_node3"><a xlink:href="harvest__areas_8h.html" target="_top" xlink:title=" ">
<polygon fill="white" stroke="#666666" points="132.5,-151 9.5,-151 9.5,-121 132.5,-121 132.5,-151"/>
<text text-anchor="start" x="17.5" y="-139" font-family="Helvetica,sans-Serif" font-size="10.00">include/FoodAuthority</text>
<text text-anchor="middle" x="71" y="-128" font-family="Helvetica,sans-Serif" font-size="10.00">/harvest_areas.h</text>
</a>
</g>
</g>
<!-- Node1&#45;&gt;Node3 -->
<g id="edge18" class="edge">
<title>Node1&#45;&gt;Node3</title>
<path fill="none" stroke="#63b8ff" d="M928.73,-393.16C790.27,-391.77 416.56,-384.72 299,-349 186.97,-314.96 129.48,-318.44 71,-217 59.21,-196.55 63.08,-167.98 67.01,-151.09"/>
<polygon fill="#63b8ff" stroke="#63b8ff" points="929.03,-396.66 939.07,-393.26 929.1,-389.66 929.03,-396.66"/>
</g>
<!-- Node4 -->
<g id="node4" class="node">
<title>Node4</title>
<g id="a_node4"><a xlink:href="main_8h.html" target="_top" xlink:title=" ">
<polygon fill="white" stroke="#666666" points="709.5,-79.5 620.5,-79.5 620.5,-60.5 709.5,-60.5 709.5,-79.5"/>
<text text-anchor="middle" x="665" y="-67.5" font-family="Helvetica,sans-Serif" font-size="10.00">include/main.h</text>
</a>
</g>
</g>
<!-- Node1&#45;&gt;Node4 -->
<g id="edge47" class="edge">
<title>Node1&#45;&gt;Node4</title>
<path fill="none" stroke="#63b8ff" d="M933.91,-382.21C862.86,-362.39 730.46,-313.88 673,-217 646.06,-171.59 657.62,-103.59 662.9,-79.68"/>
<polygon fill="#63b8ff" stroke="#63b8ff" points="933.36,-385.69 943.93,-384.93 935.19,-378.94 933.36,-385.69"/>
</g>
<!-- Node10 -->
<g id="node10" class="node">
<title>Node10</title>
<g id="a_node10"><a xlink:href="timeseries_8h.html" target="_top" xlink:title=" ">
<polygon fill="white" stroke="#666666" points="347,-145.5 189,-145.5 189,-126.5 347,-126.5 347,-145.5"/>
<text text-anchor="middle" x="268" y="-133.5" font-family="Helvetica,sans-Serif" font-size="10.00">include/IBM_EIS/timeseries.h</text>
</a>
</g>
</g>
<!-- Node1&#45;&gt;Node10 -->
<g id="edge23" class="edge">
<title>Node1&#45;&gt;Node10</title>
<path fill="none" stroke="#63b8ff" d="M929.4,-392.05C861.63,-388.95 739.56,-379.28 640,-349 513.73,-310.6 486.27,-286.39 374,-217 336.74,-193.97 296.4,-161.06 278.07,-145.62"/>
<polygon fill="#63b8ff" stroke="#63b8ff" points="929.26,-395.54 939.4,-392.47 929.55,-388.55 929.26,-395.54"/>
</g>
<!-- Node14 -->
<g id="node14" class="node">
<title>Node14</title>
<g id="a_node14"><a xlink:href="_i_b_m___e_i_s_2authenticate_8h.html" target="_top" xlink:title=" ">
<polygon fill="white" stroke="#666666" points="848.5,-211.5 681.5,-211.5 681.5,-192.5 848.5,-192.5 848.5,-211.5"/>
<text text-anchor="middle" x="765" y="-199.5" font-family="Helvetica,sans-Serif" font-size="10.00">include/IBM_EIS/authenticate.h</text>
</a>
</g>
</g>
<!-- Node1&#45;&gt;Node14 -->
<g id="edge19" class="edge">
<title>Node1&#45;&gt;Node14</title>
<path fill="none" stroke="#63b8ff" d="M961.75,-378.67C935.13,-357.95 885.85,-318.85 846,-283 818.37,-258.15 787.64,-226.65 773.26,-211.67"/>
<polygon fill="#63b8ff" stroke="#63b8ff" points="959.81,-381.59 969.86,-384.96 964.1,-376.06 959.81,-381.59"/>
</g>
<!-- Node16 -->
<g id="node16" class="node">
<title>Node16</title>
<g id="a_node16"><a xlink:href="_ubidots_2authenticate_8h.html" target="_top" xlink:title=" ">
<polygon fill="white" stroke="#666666" points="1501,-343.5 1335,-343.5 1335,-324.5 1501,-324.5 1501,-343.5"/>
<text text-anchor="middle" x="1418" y="-331.5" font-family="Helvetica,sans-Serif" font-size="10.00">include/Ubidots/authenticate.h</text>
</a>
</g>
</g>
<!-- Node1&#45;&gt;Node16 -->
<g id="edge24" class="edge">
<title>Node1&#45;&gt;Node16</title>
<path fill="none" stroke="#63b8ff" d="M1032.88,-386.93C1099.58,-378.42 1218.98,-363.04 1321,-349 1333.56,-347.27 1347.02,-345.36 1359.8,-343.53"/>
<polygon fill="#63b8ff" stroke="#63b8ff" points="1032.11,-383.5 1022.63,-388.23 1033,-390.44 1032.11,-383.5"/>
</g>
<!-- Node17 -->
<g id="node17" class="node">
<title>Node17</title>
<g id="a_node17"><a xlink:href="devices_8h.html" target="_top" xlink:title=" ">
<polygon fill="white" stroke="#666666" points="1489,-277.5 1347,-277.5 1347,-258.5 1489,-258.5 1489,-277.5"/>
<text text-anchor="middle" x="1418" y="-265.5" font-family="Helvetica,sans-Serif" font-size="10.00">include/Ubidots/devices.h</text>
</a>
</g>
</g>
<!-- Node1&#45;&gt;Node17 -->
<g id="edge29" class="edge">
<title>Node1&#45;&gt;Node17</title>
<path fill="none" stroke="#63b8ff" d="M1032.85,-393.03C1094.54,-390.87 1199.65,-382.07 1283,-349 1304.66,-340.41 1306.18,-331.25 1326,-319 1351.36,-303.33 1381.99,-287.22 1400.72,-277.66"/>
<polygon fill="#63b8ff" stroke="#63b8ff" points="1032.49,-389.54 1022.6,-393.34 1032.7,-396.53 1032.49,-389.54"/>
</g>
<!-- Node20 -->
<g id="node20" class="node">
<title>Node20</title>
<g id="a_node20"><a xlink:href="_willy_weather_2authenticate_8h.html" target="_top" xlink:title=" ">
<polygon fill="white" stroke="#666666" points="1177,-349 1057,-349 1057,-319 1177,-319 1177,-349"/>
<text text-anchor="start" x="1065" y="-337" font-family="Helvetica,sans-Serif" font-size="10.00">include/WillyWeather</text>
<text text-anchor="middle" x="1117" y="-326" font-family="Helvetica,sans-Serif" font-size="10.00">/authenticate.h</text>
</a>
</g>
</g>
<!-- Node1&#45;&gt;Node20 -->
<g id="edge30" class="edge">
<title>Node1&#45;&gt;Node20</title>
<path fill="none" stroke="#63b8ff" d="M1010.17,-380.95C1031.94,-371.59 1061.72,-358.78 1084.3,-349.06"/>
<polygon fill="#63b8ff" stroke="#63b8ff" points="1008.58,-377.83 1000.78,-384.99 1011.34,-384.26 1008.58,-377.83"/>
</g>
<!-- Node21 -->
<g id="node21" class="node">
<title>Node21</title>
<g id="a_node21"><a xlink:href="location_8h.html" target="_top" xlink:title=" ">
<polygon fill="white" stroke="#666666" points="975,-283 855,-283 855,-253 975,-253 975,-283"/>
<text text-anchor="start" x="863" y="-271" font-family="Helvetica,sans-Serif" font-size="10.00">include/WillyWeather</text>
<text text-anchor="middle" x="915" y="-260" font-family="Helvetica,sans-Serif" font-size="10.00">/location.h</text>
</a>
</g>
</g>
<!-- Node1&#45;&gt;Node21 -->
<g id="edge44" class="edge">
<title>Node1&#45;&gt;Node21</title>
<path fill="none" stroke="#63b8ff" d="M971.68,-375.91C958.48,-351.03 934.63,-306.03 922.51,-283.16"/>
<polygon fill="#63b8ff" stroke="#63b8ff" points="968.69,-377.75 976.46,-384.94 974.87,-374.47 968.69,-377.75"/>
</g>
<!-- Node22 -->
<g id="node22" class="node">
<title>Node22</title>
<g id="a_node22"><a xlink:href="precipitation_8h.html" target="_top" xlink:title=" ">
<polygon fill="white" stroke="#666666" points="1153,-217 1033,-217 1033,-187 1153,-187 1153,-217"/>
<text text-anchor="start" x="1041" y="-205" font-family="Helvetica,sans-Serif" font-size="10.00">include/WillyWeather</text>
<text text-anchor="middle" x="1093" y="-194" font-family="Helvetica,sans-Serif" font-size="10.00">/precipitation.h</text>
</a>
</g>
</g>
<!-- Node1&#45;&gt;Node22 -->
<g id="edge45" class="edge">
<title>Node1&#45;&gt;Node22</title>
<path fill="none" stroke="#63b8ff" d="M982.56,-374.47C985.74,-345.72 995.12,-290.61 1022,-253 1032.87,-237.79 1049.87,-225.59 1064.51,-217.04"/>
<polygon fill="#63b8ff" stroke="#63b8ff" points="979.05,-374.44 981.57,-384.73 986.01,-375.11 979.05,-374.44"/>
</g>
<!-- Node24 -->
<g id="node24" class="node">
<title>Node24</title>
<g id="a_node24"><a xlink:href="tide_8h.html" target="_top" xlink:title=" ">
<polygon fill="white" stroke="#666666" points="1291,-217 1171,-217 1171,-187 1291,-187 1291,-217"/>
<text text-anchor="start" x="1179" y="-205" font-family="Helvetica,sans-Serif" font-size="10.00">include/WillyWeather</text>
<text text-anchor="middle" x="1231" y="-194" font-family="Helvetica,sans-Serif" font-size="10.00">/tide.h</text>
</a>
</g>
</g>
<!-- Node1&#45;&gt;Node24 -->
<g id="edge46" class="edge">
<title>Node1&#45;&gt;Node24</title>
<path fill="none" stroke="#63b8ff" d="M1032.76,-392.6C1076.84,-389.55 1140.13,-379.58 1186,-349 1215.75,-329.17 1221.29,-317.11 1232,-283 1238.95,-260.87 1236.41,-233.57 1233.8,-217.26"/>
<polygon fill="#63b8ff" stroke="#63b8ff" points="1032.32,-389.12 1022.55,-393.2 1032.74,-396.11 1032.32,-389.12"/>
</g>
<!-- Node28 -->
<g id="node28" class="node">
<title>Node28</title>
<g id="a_node28"><a xlink:href="http_8c.html" target="_top" xlink:title=" ">
<polygon fill="white" stroke="#666666" points="1581,-343.5 1519,-343.5 1519,-324.5 1581,-324.5 1581,-343.5"/>
<text text-anchor="middle" x="1550" y="-331.5" font-family="Helvetica,sans-Serif" font-size="10.00">src/http.c</text>
</a>
</g>
</g>
<!-- Node1&#45;&gt;Node28 -->
<g id="edge48" class="edge">
<title>Node1&#45;&gt;Node28</title>
<path fill="none" stroke="#63b8ff" d="M1032.93,-393.45C1128.44,-392.42 1337.98,-385.72 1510,-349 1516.19,-347.68 1522.73,-345.67 1528.7,-343.57"/>
<polygon fill="#63b8ff" stroke="#63b8ff" points="1032.64,-389.96 1022.68,-393.55 1032.71,-396.96 1032.64,-389.96"/>
</g>
<!-- Node2&#45;&gt;Node3 -->
<g id="edge2" class="edge">
<title>Node2&#45;&gt;Node3</title>
<path fill="none" stroke="#63b8ff" d="M192.81,-263.08C157.3,-257.43 116.53,-244.75 90,-217 72.94,-199.15 70.26,-168.89 70.32,-151.15"/>
<polygon fill="#63b8ff" stroke="#63b8ff" points="192.76,-266.61 203.16,-264.56 193.75,-259.68 192.76,-266.61"/>
</g>
<!-- Node2&#45;&gt;Node4 -->
<g id="edge6" class="edge">
<title>Node2&#45;&gt;Node4</title>
<path fill="none" stroke="#63b8ff" d="M265.84,-242.48C265.21,-225.39 261.85,-202.89 250,-187 229.09,-158.95 198.22,-180.86 180,-151 173.05,-139.62 171.07,-130.9 180,-121 187.35,-112.85 501.42,-85.06 620.16,-74.83"/>
<polygon fill="#63b8ff" stroke="#63b8ff" points="262.34,-242.83 265.91,-252.81 269.34,-242.78 262.34,-242.83"/>
</g>
<!-- Node7 -->
<g id="node7" class="node">
<title>Node7</title>
<g id="a_node7"><a xlink:href="transform_8h.html" target="_top" xlink:title=" ">
<polygon fill="white" stroke="#666666" points="495,-211.5 383,-211.5 383,-192.5 495,-192.5 495,-211.5"/>
<text text-anchor="middle" x="439" y="-199.5" font-family="Helvetica,sans-Serif" font-size="10.00">include/transform.h</text>
</a>
</g>
</g>
<!-- Node2&#45;&gt;Node7 -->
<g id="edge7" class="edge">
<title>Node2&#45;&gt;Node7</title>
<path fill="none" stroke="#63b8ff" d="M312.8,-249.42C346.32,-237.09 389.66,-221.15 415.84,-211.52"/>
<polygon fill="#63b8ff" stroke="#63b8ff" points="311.36,-246.22 303.19,-252.95 313.78,-252.79 311.36,-246.22"/>
</g>
<!-- Node13 -->
<g id="node13" class="node">
<title>Node13</title>
<g id="a_node13"><a xlink:href="harvest__area_8c.html" target="_top" xlink:title=" ">
<polygon fill="white" stroke="#666666" points="241,-217 99,-217 99,-187 241,-187 241,-217"/>
<text text-anchor="start" x="107" y="-205" font-family="Helvetica,sans-Serif" font-size="10.00">src/FoodAuthority/harvest</text>
<text text-anchor="middle" x="170" y="-194" font-family="Helvetica,sans-Serif" font-size="10.00">_area.c</text>
</a>
</g>
</g>
<!-- Node2&#45;&gt;Node13 -->
<g id="edge17" class="edge">
<title>Node2&#45;&gt;Node13</title>
<path fill="none" stroke="#63b8ff" d="M235.35,-247.03C220.98,-237.34 204.05,-225.94 191.02,-217.16"/>
<polygon fill="#63b8ff" stroke="#63b8ff" points="233.67,-250.11 243.92,-252.8 237.58,-244.31 233.67,-250.11"/>
</g>
<!-- Node3&#45;&gt;Node4 -->
<g id="edge3" class="edge">
<title>Node3&#45;&gt;Node4</title>
<path fill="none" stroke="#63b8ff" d="M143.04,-121.57C144.37,-121.37 145.69,-121.18 147,-121 238.15,-108.23 512.34,-84.11 620.46,-74.8"/>
<polygon fill="#63b8ff" stroke="#63b8ff" points="142.07,-118.18 132.73,-123.17 143.15,-125.09 142.07,-118.18"/>
</g>
<!-- Node6 -->
<g id="node6" class="node">
<title>Node6</title>
<g id="a_node6"><a xlink:href="harvest__areas_8c.html" target="_top" xlink:title=" ">
<polygon fill="white" stroke="#666666" points="142,-85 0,-85 0,-55 142,-55 142,-85"/>
<text text-anchor="start" x="8" y="-73" font-family="Helvetica,sans-Serif" font-size="10.00">src/FoodAuthority/harvest</text>
<text text-anchor="middle" x="71" y="-62" font-family="Helvetica,sans-Serif" font-size="10.00">_areas.c</text>
</a>
</g>
</g>
<!-- Node3&#45;&gt;Node6 -->
<g id="edge5" class="edge">
<title>Node3&#45;&gt;Node6</title>
<path fill="none" stroke="#63b8ff" d="M71,-110.54C71,-101.96 71,-92.61 71,-85.16"/>
<polygon fill="#63b8ff" stroke="#63b8ff" points="67.5,-110.8 71,-120.8 74.5,-110.8 67.5,-110.8"/>
</g>
<!-- Node5 -->
<g id="node5" class="node">
<title>Node5</title>
<g id="a_node5"><a xlink:href="main_8c.html" target="_top" xlink:title=" ">
<polygon fill="white" stroke="#666666" points="698.5,-19 631.5,-19 631.5,0 698.5,0 698.5,-19"/>
<text text-anchor="middle" x="665" y="-7" font-family="Helvetica,sans-Serif" font-size="10.00">src/main.c</text>
</a>
</g>
</g>
<!-- Node4&#45;&gt;Node5 -->
<g id="edge4" class="edge">
<title>Node4&#45;&gt;Node5</title>
<path fill="none" stroke="#63b8ff" d="M665,-50.16C665,-39.74 665,-27.3 665,-19.17"/>
<polygon fill="#63b8ff" stroke="#63b8ff" points="661.5,-50.37 665,-60.37 668.5,-50.37 661.5,-50.37"/>
</g>
<!-- Node7&#45;&gt;Node3 -->
<g id="edge11" class="edge">
<title>Node7&#45;&gt;Node3</title>
<path fill="none" stroke="#63b8ff" d="M379.65,-190.68C311.8,-178.88 201.27,-159.66 132.52,-147.7"/>
<polygon fill="#63b8ff" stroke="#63b8ff" points="379.3,-194.17 389.75,-192.44 380.5,-187.27 379.3,-194.17"/>
</g>
<!-- Node7&#45;&gt;Node4 -->
<g id="edge15" class="edge">
<title>Node7&#45;&gt;Node4</title>
<path fill="none" stroke="#63b8ff" d="M505.29,-191.89C538.47,-184.85 577.87,-172.5 608,-151 634.65,-131.98 653.39,-96.49 661.09,-79.93"/>
<polygon fill="#63b8ff" stroke="#63b8ff" points="504.33,-188.51 495.22,-193.91 505.71,-195.37 504.33,-188.51"/>
</g>
<!-- Node8 -->
<g id="node8" class="node">
<title>Node8</title>
<g id="a_node8"><a xlink:href="historical__weather_8h.html" target="_top" xlink:title=" ">
<polygon fill="white" stroke="#666666" points="491,-151 365,-151 365,-121 491,-121 491,-151"/>
<text text-anchor="start" x="373" y="-139" font-family="Helvetica,sans-Serif" font-size="10.00">include/BOM/historical</text>
<text text-anchor="middle" x="428" y="-128" font-family="Helvetica,sans-Serif" font-size="10.00">_weather.h</text>
</a>
</g>
</g>
<!-- Node7&#45;&gt;Node8 -->
<g id="edge8" class="edge">
<title>Node7&#45;&gt;Node8</title>
<path fill="none" stroke="#63b8ff" d="M435.79,-182.35C434.1,-172.47 432.04,-160.51 430.47,-151.36"/>
<polygon fill="#63b8ff" stroke="#63b8ff" points="432.37,-183.11 437.52,-192.37 439.27,-181.92 432.37,-183.11"/>
</g>
<!-- Node7&#45;&gt;Node10 -->
<g id="edge12" class="edge">
<title>Node7&#45;&gt;Node10</title>
<path fill="none" stroke="#63b8ff" d="M406.51,-188.84C372.72,-176.2 320.71,-156.73 290.97,-145.6"/>
<polygon fill="#63b8ff" stroke="#63b8ff" points="405.35,-192.14 415.94,-192.37 407.8,-185.59 405.35,-192.14"/>
</g>
<!-- Node12 -->
<g id="node12" class="node">
<title>Node12</title>
<g id="a_node12"><a xlink:href="transform_8c.html" target="_top" xlink:title=" ">
<polygon fill="white" stroke="#666666" points="599,-145.5 509,-145.5 509,-126.5 599,-126.5 599,-145.5"/>
<text text-anchor="middle" x="554" y="-133.5" font-family="Helvetica,sans-Serif" font-size="10.00">src/transform.c</text>
</a>
</g>
</g>
<!-- Node7&#45;&gt;Node12 -->
<g id="edge16" class="edge">
<title>Node7&#45;&gt;Node12</title>
<path fill="none" stroke="#63b8ff" d="M463.51,-187.36C486.15,-174.76 519.11,-156.42 538.37,-145.7"/>
<polygon fill="#63b8ff" stroke="#63b8ff" points="461.55,-184.45 454.51,-192.37 464.95,-190.56 461.55,-184.45"/>
</g>
<!-- Node8&#45;&gt;Node4 -->
<g id="edge9" class="edge">
<title>Node8&#45;&gt;Node4</title>
<path fill="none" stroke="#63b8ff" d="M489.9,-118.29C535.97,-105.84 596.96,-89.37 633.46,-79.52"/>
<polygon fill="#63b8ff" stroke="#63b8ff" points="488.75,-114.97 480.01,-120.95 490.58,-121.73 488.75,-114.97"/>
</g>
<!-- Node9 -->
<g id="node9" class="node">
<title>Node9</title>
<g id="a_node9"><a xlink:href="historical__weather_8c.html" target="_top" xlink:title=" ">
<polygon fill="white" stroke="#666666" points="480.5,-85 375.5,-85 375.5,-55 480.5,-55 480.5,-85"/>
<text text-anchor="start" x="383.5" y="-73" font-family="Helvetica,sans-Serif" font-size="10.00">src/BOM/historical</text>
<text text-anchor="middle" x="428" y="-62" font-family="Helvetica,sans-Serif" font-size="10.00">_weather.c</text>
</a>
</g>
</g>
<!-- Node8&#45;&gt;Node9 -->
<g id="edge10" class="edge">
<title>Node8&#45;&gt;Node9</title>
<path fill="none" stroke="#63b8ff" d="M428,-110.54C428,-101.96 428,-92.61 428,-85.16"/>
<polygon fill="#63b8ff" stroke="#63b8ff" points="424.5,-110.8 428,-120.8 431.5,-110.8 424.5,-110.8"/>
</g>
<!-- Node10&#45;&gt;Node4 -->
<g id="edge13" class="edge">
<title>Node10&#45;&gt;Node4</title>
<path fill="none" stroke="#63b8ff" d="M331.17,-124.82C411.96,-111.79 549.84,-89.57 620.45,-78.18"/>
<polygon fill="#63b8ff" stroke="#63b8ff" points="330.44,-121.39 321.13,-126.44 331.56,-128.3 330.44,-121.39"/>
</g>
<!-- Node11 -->
<g id="node11" class="node">
<title>Node11</title>
<g id="a_node11"><a xlink:href="timeseries_8c.html" target="_top" xlink:title=" ">
<polygon fill="white" stroke="#666666" points="336,-79.5 200,-79.5 200,-60.5 336,-60.5 336,-79.5"/>
<text text-anchor="middle" x="268" y="-67.5" font-family="Helvetica,sans-Serif" font-size="10.00">src/IBM_EIS/timeseries.c</text>
</a>
</g>
</g>
<!-- Node10&#45;&gt;Node11 -->
<g id="edge14" class="edge">
<title>Node10&#45;&gt;Node11</title>
<path fill="none" stroke="#63b8ff" d="M268,-116.08C268,-104.13 268,-89.22 268,-79.91"/>
<polygon fill="#63b8ff" stroke="#63b8ff" points="264.5,-116.37 268,-126.37 271.5,-116.37 264.5,-116.37"/>
</g>
<!-- Node14&#45;&gt;Node4 -->
<g id="edge21" class="edge">
<title>Node14&#45;&gt;Node4</title>
<path fill="none" stroke="#63b8ff" d="M802.06,-188.5C819.27,-180.62 838.09,-168.55 848,-151 854.56,-139.39 856.09,-131.6 848,-121 831.31,-99.14 758.52,-84.52 709.92,-77"/>
<polygon fill="#63b8ff" stroke="#63b8ff" points="800.57,-185.33 792.73,-192.46 803.3,-191.78 800.57,-185.33"/>
</g>
<!-- Node14&#45;&gt;Node10 -->
<g id="edge20" class="edge">
<title>Node14&#45;&gt;Node10</title>
<path fill="none" stroke="#63b8ff" d="M678.25,-191.32C595.38,-181.85 467.01,-166.61 356,-151 344.2,-149.34 331.54,-147.41 319.6,-145.53"/>
<polygon fill="#63b8ff" stroke="#63b8ff" points="678.05,-194.81 688.38,-192.47 678.84,-187.86 678.05,-194.81"/>
</g>
<!-- Node15 -->
<g id="node15" class="node">
<title>Node15</title>
<g id="a_node15"><a xlink:href="_i_b_m___e_i_s_2authenticate_8c.html" target="_top" xlink:title=" ">
<polygon fill="white" stroke="#666666" points="839,-145.5 693,-145.5 693,-126.5 839,-126.5 839,-145.5"/>
<text text-anchor="middle" x="766" y="-133.5" font-family="Helvetica,sans-Serif" font-size="10.00">src/IBM_EIS/authenticate.c</text>
</a>
</g>
</g>
<!-- Node14&#45;&gt;Node15 -->
<g id="edge22" class="edge">
<title>Node14&#45;&gt;Node15</title>
<path fill="none" stroke="#63b8ff" d="M765.3,-182.08C765.48,-170.13 765.72,-155.22 765.86,-145.91"/>
<polygon fill="#63b8ff" stroke="#63b8ff" points="761.79,-182.32 765.13,-192.37 768.79,-182.42 761.79,-182.32"/>
</g>
<!-- Node16&#45;&gt;Node17 -->
<g id="edge25" class="edge">
<title>Node16&#45;&gt;Node17</title>
<path fill="none" stroke="#63b8ff" d="M1418,-314.08C1418,-302.13 1418,-287.22 1418,-277.91"/>
<polygon fill="#63b8ff" stroke="#63b8ff" points="1414.5,-314.37 1418,-324.37 1421.5,-314.37 1414.5,-314.37"/>
</g>
<!-- Node19 -->
<g id="node19" class="node">
<title>Node19</title>
<g id="a_node19"><a xlink:href="_ubidots_2authenticate_8c.html" target="_top" xlink:title=" ">
<polygon fill="white" stroke="#666666" points="1651,-277.5 1507,-277.5 1507,-258.5 1651,-258.5 1651,-277.5"/>
<text text-anchor="middle" x="1579" y="-265.5" font-family="Helvetica,sans-Serif" font-size="10.00">src/Ubidots/authenticate.c</text>
</a>
</g>
</g>
<!-- Node16&#45;&gt;Node19 -->
<g id="edge28" class="edge">
<title>Node16&#45;&gt;Node19</title>
<path fill="none" stroke="#63b8ff" d="M1449.42,-320.51C1481.24,-307.86 1529.61,-288.63 1557.37,-277.6"/>
<polygon fill="#63b8ff" stroke="#63b8ff" points="1447.71,-317.42 1439.71,-324.37 1450.3,-323.93 1447.71,-317.42"/>
</g>
<!-- Node17&#45;&gt;Node4 -->
<g id="edge26" class="edge">
<title>Node17&#45;&gt;Node4</title>
<path fill="none" stroke="#63b8ff" d="M1402.55,-250.97C1394.02,-241.57 1383.64,-229.18 1376,-217 1351.17,-177.39 1371.26,-147.87 1333,-121 1282.2,-85.33 851.52,-74.38 709.92,-71.73"/>
<polygon fill="#63b8ff" stroke="#63b8ff" points="1400.07,-253.44 1409.45,-258.37 1405.19,-248.67 1400.07,-253.44"/>
</g>
<!-- Node18 -->
<g id="node18" class="node">
<title>Node18</title>
<g id="a_node18"><a xlink:href="devices_8c.html" target="_top" xlink:title=" ">
<polygon fill="white" stroke="#666666" points="1505,-211.5 1385,-211.5 1385,-192.5 1505,-192.5 1505,-211.5"/>
<text text-anchor="middle" x="1445" y="-199.5" font-family="Helvetica,sans-Serif" font-size="10.00">src/Ubidots/devices.c</text>
</a>
</g>
</g>
<!-- Node17&#45;&gt;Node18 -->
<g id="edge27" class="edge">
<title>Node17&#45;&gt;Node18</title>
<path fill="none" stroke="#63b8ff" d="M1425.67,-248.82C1430.77,-236.74 1437.23,-221.41 1441.24,-211.91"/>
<polygon fill="#63b8ff" stroke="#63b8ff" points="1422.3,-247.79 1421.64,-258.37 1428.75,-250.52 1422.3,-247.79"/>
</g>
<!-- Node20&#45;&gt;Node4 -->
<g id="edge42" class="edge">
<title>Node20&#45;&gt;Node4</title>
<path fill="none" stroke="#63b8ff" d="M1176.8,-315.42C1221.52,-298.5 1278.5,-267.83 1300,-217 1317.01,-176.77 1313.18,-148.19 1279,-121 1234.69,-85.75 843.6,-74.61 709.72,-71.81"/>
<polygon fill="#63b8ff" stroke="#63b8ff" points="1175.38,-312.22 1167.18,-318.93 1177.77,-318.8 1175.38,-312.22"/>
</g>
<!-- Node20&#45;&gt;Node21 -->
<g id="edge31" class="edge">
<title>Node20&#45;&gt;Node21</title>
<path fill="none" stroke="#63b8ff" d="M1062.89,-315.86C1030.45,-305.58 989.73,-292.68 959.23,-283.01"/>
<polygon fill="#63b8ff" stroke="#63b8ff" points="1062.08,-319.27 1072.67,-318.95 1064.19,-312.6 1062.08,-319.27"/>
</g>
<!-- Node20&#45;&gt;Node24 -->
<g id="edge41" class="edge">
<title>Node20&#45;&gt;Node24</title>
<path fill="none" stroke="#63b8ff" d="M1170.7,-314.6C1186.02,-306.98 1201.4,-296.66 1212,-283 1226.96,-263.71 1230.41,-234.5 1231.06,-217.22"/>
<polygon fill="#63b8ff" stroke="#63b8ff" points="1168.82,-311.61 1161.22,-318.99 1171.76,-317.96 1168.82,-311.61"/>
</g>
<!-- Node27 -->
<g id="node27" class="node">
<title>Node27</title>
<g id="a_node27"><a xlink:href="_willy_weather_2authenticate_8c.html" target="_top" xlink:title=" ">
<polygon fill="white" stroke="#666666" points="1203,-277.5 1031,-277.5 1031,-258.5 1203,-258.5 1203,-277.5"/>
<text text-anchor="middle" x="1117" y="-265.5" font-family="Helvetica,sans-Serif" font-size="10.00">src/WillyWeather/authenticate.c</text>
</a>
</g>
</g>
<!-- Node20&#45;&gt;Node27 -->
<g id="edge43" class="edge">
<title>Node20&#45;&gt;Node27</title>
<path fill="none" stroke="#63b8ff" d="M1117,-308.6C1117,-297.8 1117,-285.78 1117,-277.84"/>
<polygon fill="#63b8ff" stroke="#63b8ff" points="1113.5,-308.8 1117,-318.8 1120.5,-308.8 1113.5,-308.8"/>
</g>
<!-- Node21&#45;&gt;Node3 -->
<g id="edge32" class="edge">
<title>Node21&#45;&gt;Node3</title>
<path fill="none" stroke="#63b8ff" d="M844.9,-264.24C741.28,-259.32 541.42,-246.63 374,-217 325.25,-208.37 192.67,-171.58 120.1,-151.03"/>
<polygon fill="#63b8ff" stroke="#63b8ff" points="844.78,-267.74 854.93,-264.7 845.1,-260.74 844.78,-267.74"/>
</g>
<!-- Node21&#45;&gt;Node7 -->
<g id="edge39" class="edge">
<title>Node21&#45;&gt;Node7</title>
<path fill="none" stroke="#63b8ff" d="M844.62,-257.54C749.59,-244.76 582.15,-222.25 495.1,-210.54"/>
<polygon fill="#63b8ff" stroke="#63b8ff" points="844.34,-261.03 854.71,-258.89 845.27,-254.09 844.34,-261.03"/>
</g>
<!-- Node21&#45;&gt;Node22 -->
<g id="edge33" class="edge">
<title>Node21&#45;&gt;Node22</title>
<path fill="none" stroke="#63b8ff" d="M963.79,-249.46C992.19,-239.25 1027.5,-226.55 1054.03,-217.01"/>
<polygon fill="#63b8ff" stroke="#63b8ff" points="962.29,-246.28 954.06,-252.95 964.66,-252.86 962.29,-246.28"/>
</g>
<!-- Node21&#45;&gt;Node24 -->
<g id="edge36" class="edge">
<title>Node21&#45;&gt;Node24</title>
<path fill="none" stroke="#63b8ff" d="M985.1,-252.82C1034.54,-242.81 1102.33,-229.09 1162,-217 1164.88,-216.42 1167.82,-215.82 1170.79,-215.22"/>
<polygon fill="#63b8ff" stroke="#63b8ff" points="984.25,-249.42 975.15,-254.83 985.64,-256.28 984.25,-249.42"/>
</g>
<!-- Node26 -->
<g id="node26" class="node">
<title>Node26</title>
<g id="a_node26"><a xlink:href="location_8c.html" target="_top" xlink:title=" ">
<polygon fill="white" stroke="#666666" points="1015.5,-211.5 866.5,-211.5 866.5,-192.5 1015.5,-192.5 1015.5,-211.5"/>
<text text-anchor="middle" x="941" y="-199.5" font-family="Helvetica,sans-Serif" font-size="10.00">src/WillyWeather/location.c</text>
</a>
</g>
</g>
<!-- Node21&#45;&gt;Node26 -->
<g id="edge40" class="edge">
<title>Node21&#45;&gt;Node26</title>
<path fill="none" stroke="#63b8ff" d="M924.64,-243.28C929.09,-232.31 934.12,-219.94 937.41,-211.84"/>
<polygon fill="#63b8ff" stroke="#63b8ff" points="921.29,-242.21 920.77,-252.8 927.78,-244.85 921.29,-242.21"/>
</g>
<!-- Node22&#45;&gt;Node4 -->
<g id="edge34" class="edge">
<title>Node22&#45;&gt;Node4</title>
<path fill="none" stroke="#63b8ff" d="M1094.75,-176.68C1094.61,-158.65 1091.16,-134.88 1076,-121 1023.31,-72.77 804.7,-69.29 709.57,-70.15"/>
<polygon fill="#63b8ff" stroke="#63b8ff" points="1091.25,-176.68 1094.49,-186.77 1098.24,-176.86 1091.25,-176.68"/>
</g>
<!-- Node23 -->
<g id="node23" class="node">
<title>Node23</title>
<g id="a_node23"><a xlink:href="precipitation_8c.html" target="_top" xlink:title=" ">
<polygon fill="white" stroke="#666666" points="1067,-145.5 895,-145.5 895,-126.5 1067,-126.5 1067,-145.5"/>
<text text-anchor="middle" x="981" y="-133.5" font-family="Helvetica,sans-Serif" font-size="10.00">src/WillyWeather/precipitation.c</text>
</a>
</g>
</g>
<!-- Node22&#45;&gt;Node23 -->
<g id="edge35" class="edge">
<title>Node22&#45;&gt;Node23</title>
<path fill="none" stroke="#63b8ff" d="M1059.7,-181.97C1038.52,-169.87 1012.11,-154.78 995.91,-145.52"/>
<polygon fill="#63b8ff" stroke="#63b8ff" points="1058,-185.03 1068.42,-186.95 1061.48,-178.95 1058,-185.03"/>
</g>
<!-- Node24&#45;&gt;Node4 -->
<g id="edge37" class="edge">
<title>Node24&#45;&gt;Node4</title>
<path fill="none" stroke="#63b8ff" d="M1250.92,-178.9C1264.26,-161.37 1276.9,-137.2 1262,-121 1224.82,-80.57 842.47,-72.82 709.94,-71.34"/>
<polygon fill="#63b8ff" stroke="#63b8ff" points="1248,-176.93 1244.42,-186.9 1253.44,-181.34 1248,-176.93"/>
</g>
<!-- Node25 -->
<g id="node25" class="node">
<title>Node25</title>
<g id="a_node25"><a xlink:href="tide_8c.html" target="_top" xlink:title=" ">
<polygon fill="white" stroke="#666666" points="1252.5,-145.5 1123.5,-145.5 1123.5,-126.5 1252.5,-126.5 1252.5,-145.5"/>
<text text-anchor="middle" x="1188" y="-133.5" font-family="Helvetica,sans-Serif" font-size="10.00">src/WillyWeather/tide.c</text>
</a>
</g>
</g>
<!-- Node24&#45;&gt;Node25 -->
<g id="edge38" class="edge">
<title>Node24&#45;&gt;Node25</title>
<path fill="none" stroke="#63b8ff" d="M1215.73,-178.28C1208.2,-167.07 1199.55,-154.19 1193.94,-145.84"/>
<polygon fill="#63b8ff" stroke="#63b8ff" points="1212.97,-180.45 1221.46,-186.8 1218.79,-176.54 1212.97,-180.45"/>
</g>
</g>
</svg>
