<?xml version="1.0" encoding="UTF-8" standalone="no"?>
<!DOCTYPE svg PUBLIC "-//W3C//DTD SVG 1.1//EN"
 "http://www.w3.org/Graphics/SVG/1.1/DTD/svg11.dtd">
<!-- Generated by graphviz version 2.49.3 (20211027.1534)
 -->
<!-- Title: include/http.h Pages: 1 -->
<svg width="1517pt" height="352pt"
 viewBox="0.00 0.00 1516.50 352.00" xmlns="http://www.w3.org/2000/svg" xmlns:xlink="http://www.w3.org/1999/xlink">
<g id="graph0" class="graph" transform="scale(1 1) rotate(0) translate(4 348)">
<title>include/http.h</title>
<!-- Node1 -->
<g id="node1" class="node">
<title>Node1</title>
<g id="a_node1"><a xlink:title=" ">
<polygon fill="#bfbfbf" stroke="black" points="784,-324.5 784,-343.5 858,-343.5 858,-324.5 784,-324.5"/>
<text text-anchor="middle" x="821" y="-331.5" font-family="Helvetica,sans-Serif" font-size="10.00">include/http.h</text>
</a>
</g>
</g>
<!-- Node2 -->
<g id="node2" class="node">
<title>Node2</title>
<g id="a_node2"><a xlink:href="harvest__area_8h.html" target="_top" xlink:title=" ">
<polygon fill="none" stroke="black" points="123,-190.5 123,-220.5 233,-220.5 233,-190.5 123,-190.5"/>
<text text-anchor="start" x="131" y="-208.5" font-family="Helvetica,sans-Serif" font-size="10.00">include/FoodAuthority</text>
<text text-anchor="middle" x="178" y="-197.5" font-family="Helvetica,sans-Serif" font-size="10.00">/harvest_area.h</text>
</a>
</g>
</g>
<!-- Node1&#45;&gt;Node2 -->
<g id="edge1" class="edge">
<title>Node1&#45;&gt;Node2</title>
<path fill="none" stroke="midnightblue" d="M773.64,-331.37C644.6,-326.65 293.35,-311.74 247,-288 217.79,-273.04 195.99,-239.81 185.31,-220.72"/>
<polygon fill="midnightblue" stroke="midnightblue" points="773.86,-334.88 783.98,-331.75 774.12,-327.89 773.86,-334.88"/>
</g>
<!-- Node3 -->
<g id="node3" class="node">
<title>Node3</title>
<g id="a_node3"><a xlink:href="harvest__areas_8h.html" target="_top" xlink:title=" ">
<polygon fill="none" stroke="black" points="184,-123.5 184,-153.5 294,-153.5 294,-123.5 184,-123.5"/>
<text text-anchor="start" x="192" y="-141.5" font-family="Helvetica,sans-Serif" font-size="10.00">include/FoodAuthority</text>
<text text-anchor="middle" x="239" y="-130.5" font-family="Helvetica,sans-Serif" font-size="10.00">/harvest_areas.h</text>
</a>
</g>
</g>
<!-- Node1&#45;&gt;Node3 -->
<g id="edge8" class="edge">
<title>Node1&#45;&gt;Node3</title>
<path fill="none" stroke="midnightblue" d="M773.46,-331.52C653.54,-327.41 345.61,-314.38 308,-288 261.92,-255.68 245.84,-184.52 240.92,-153.94"/>
<polygon fill="midnightblue" stroke="midnightblue" points="773.68,-335.03 783.79,-331.87 773.91,-328.03 773.68,-335.03"/>
</g>
<!-- Node4 -->
<g id="node4" class="node">
<title>Node4</title>
<g id="a_node4"><a xlink:href="main_8h.html" target="_top" xlink:title=" ">
<polygon fill="none" stroke="black" points="483.5,-62 483.5,-81 562.5,-81 562.5,-62 483.5,-62"/>
<text text-anchor="middle" x="523" y="-69" font-family="Helvetica,sans-Serif" font-size="10.00">include/main.h</text>
</a>
</g>
</g>
<!-- Node1&#45;&gt;Node4 -->
<g id="edge38" class="edge">
<title>Node1&#45;&gt;Node4</title>
<path fill="none" stroke="midnightblue" d="M773.71,-333.85C676.07,-334.69 456.42,-331.54 398,-288 339.19,-244.17 348.09,-173.79 401,-123 423.74,-101.17 457.25,-88.22 483.4,-80.91"/>
<polygon fill="midnightblue" stroke="midnightblue" points="773.92,-337.35 783.88,-333.75 773.85,-330.35 773.92,-337.35"/>
</g>
<!-- Node8 -->
<g id="node8" class="node">
<title>Node8</title>
<g id="a_node8"><a xlink:href="_i_b_m___e_i_s_2authenticate_8h.html" target="_top" xlink:title=" ">
<polygon fill="none" stroke="black" points="406.5,-263 406.5,-282 559.5,-282 559.5,-263 406.5,-263"/>
<text text-anchor="middle" x="483" y="-270" font-family="Helvetica,sans-Serif" font-size="10.00">include/IBM_EIS/authenticate.h</text>
</a>
</g>
</g>
<!-- Node1&#45;&gt;Node8 -->
<g id="edge9" class="edge">
<title>Node1&#45;&gt;Node8</title>
<path fill="none" stroke="midnightblue" d="M773.64,-324.66C709.57,-313.38 595.9,-293.37 531.33,-282.01"/>
<polygon fill="midnightblue" stroke="midnightblue" points="773.41,-328.18 783.86,-326.46 774.62,-321.28 773.41,-328.18"/>
</g>
<!-- Node9 -->
<g id="node9" class="node">
<title>Node9</title>
<g id="a_node9"><a xlink:href="timeseries_8h.html" target="_top" xlink:title=" ">
<polygon fill="none" stroke="black" points="542.5,-196 542.5,-215 687.5,-215 687.5,-196 542.5,-196"/>
<text text-anchor="middle" x="615" y="-203" font-family="Helvetica,sans-Serif" font-size="10.00">include/IBM_EIS/timeseries.h</text>
</a>
</g>
</g>
<!-- Node1&#45;&gt;Node9 -->
<g id="edge15" class="edge">
<title>Node1&#45;&gt;Node9</title>
<path fill="none" stroke="midnightblue" d="M798.24,-319.02C755.39,-292.71 663.95,-236.56 628.99,-215.09"/>
<polygon fill="midnightblue" stroke="midnightblue" points="796.49,-322.05 806.84,-324.31 800.15,-316.09 796.49,-322.05"/>
</g>
<!-- Node12 -->
<g id="node12" class="node">
<title>Node12</title>
<g id="a_node12"><a xlink:href="_ubidots_2authenticate_8h.html" target="_top" xlink:title=" ">
<polygon fill="none" stroke="black" points="798,-263 798,-282 946,-282 946,-263 798,-263"/>
<text text-anchor="middle" x="872" y="-270" font-family="Helvetica,sans-Serif" font-size="10.00">include/Ubidots/authenticate.h</text>
</a>
</g>
</g>
<!-- Node1&#45;&gt;Node12 -->
<g id="edge16" class="edge">
<title>Node1&#45;&gt;Node12</title>
<path fill="none" stroke="midnightblue" d="M835,-316.67C844.61,-305.45 856.99,-291.02 864.71,-282.01"/>
<polygon fill="midnightblue" stroke="midnightblue" points="832.16,-314.6 828.31,-324.48 837.47,-319.16 832.16,-314.6"/>
</g>
<!-- Node13 -->
<g id="node13" class="node">
<title>Node13</title>
<g id="a_node13"><a xlink:href="devices_8h.html" target="_top" xlink:title=" ">
<polygon fill="none" stroke="black" points="706,-196 706,-215 834,-215 834,-196 706,-196"/>
<text text-anchor="middle" x="770" y="-203" font-family="Helvetica,sans-Serif" font-size="10.00">include/Ubidots/devices.h</text>
</a>
</g>
</g>
<!-- Node1&#45;&gt;Node13 -->
<g id="edge21" class="edge">
<title>Node1&#45;&gt;Node13</title>
<path fill="none" stroke="midnightblue" d="M806.86,-316.45C800.57,-308.33 793.57,-298.14 789,-288 777.77,-263.1 772.79,-230.82 770.93,-215.43"/>
<polygon fill="midnightblue" stroke="midnightblue" points="804.24,-318.77 813.26,-324.34 809.68,-314.36 804.24,-318.77"/>
</g>
<!-- Node16 -->
<g id="node16" class="node">
<title>Node16</title>
<g id="a_node16"><a xlink:href="_willy_weather_2authenticate_8h.html" target="_top" xlink:title=" ">
<polygon fill="none" stroke="black" points="1083.5,-257.5 1083.5,-287.5 1190.5,-287.5 1190.5,-257.5 1083.5,-257.5"/>
<text text-anchor="start" x="1091.5" y="-275.5" font-family="Helvetica,sans-Serif" font-size="10.00">include/WillyWeather</text>
<text text-anchor="middle" x="1137" y="-264.5" font-family="Helvetica,sans-Serif" font-size="10.00">/authenticate.h</text>
</a>
</g>
</g>
<!-- Node1&#45;&gt;Node16 -->
<g id="edge22" class="edge">
<title>Node1&#45;&gt;Node16</title>
<path fill="none" stroke="midnightblue" d="M868.11,-324.13C925.7,-313.29 1022.95,-294.97 1083.37,-283.6"/>
<polygon fill="midnightblue" stroke="midnightblue" points="867.36,-320.71 858.18,-326 868.65,-327.59 867.36,-320.71"/>
</g>
<!-- Node17 -->
<g id="node17" class="node">
<title>Node17</title>
<g id="a_node17"><a xlink:href="location_8h.html" target="_top" xlink:title=" ">
<polygon fill="none" stroke="black" points="1001.5,-190.5 1001.5,-220.5 1108.5,-220.5 1108.5,-190.5 1001.5,-190.5"/>
<text text-anchor="start" x="1009.5" y="-208.5" font-family="Helvetica,sans-Serif" font-size="10.00">include/WillyWeather</text>
<text text-anchor="middle" x="1055" y="-197.5" font-family="Helvetica,sans-Serif" font-size="10.00">/location.h</text>
</a>
</g>
</g>
<!-- Node1&#45;&gt;Node17 -->
<g id="edge35" class="edge">
<title>Node1&#45;&gt;Node17</title>
<path fill="none" stroke="midnightblue" d="M867.56,-321.82C894.16,-314.36 927.56,-303.13 955,-288 988.93,-269.29 1022.67,-238.65 1040.98,-220.75"/>
<polygon fill="midnightblue" stroke="midnightblue" points="866.46,-318.49 857.73,-324.49 868.3,-325.25 866.46,-318.49"/>
</g>
<!-- Node18 -->
<g id="node18" class="node">
<title>Node18</title>
<g id="a_node18"><a xlink:href="precipitation_8h.html" target="_top" xlink:title=" ">
<polygon fill="none" stroke="black" points="1165.5,-123.5 1165.5,-153.5 1272.5,-153.5 1272.5,-123.5 1165.5,-123.5"/>
<text text-anchor="start" x="1173.5" y="-141.5" font-family="Helvetica,sans-Serif" font-size="10.00">include/WillyWeather</text>
<text text-anchor="middle" x="1219" y="-130.5" font-family="Helvetica,sans-Serif" font-size="10.00">/precipitation.h</text>
</a>
</g>
</g>
<!-- Node1&#45;&gt;Node18 -->
<g id="edge36" class="edge">
<title>Node1&#45;&gt;Node18</title>
<path fill="none" stroke="midnightblue" d="M868.48,-332.84C941.39,-331.39 1084.62,-323.72 1200,-288 1261.34,-269.01 1294.75,-275.93 1328,-221 1335.13,-209.21 1335.42,-201.61 1328,-190 1315.59,-170.58 1293.59,-158.51 1272.58,-151.07"/>
<polygon fill="midnightblue" stroke="midnightblue" points="868.18,-329.34 858.24,-333.01 868.3,-336.34 868.18,-329.34"/>
</g>
<!-- Node20 -->
<g id="node20" class="node">
<title>Node20</title>
<g id="a_node20"><a xlink:href="tide_8h.html" target="_top" xlink:title=" ">
<polygon fill="none" stroke="black" points="1324.5,-123.5 1324.5,-153.5 1431.5,-153.5 1431.5,-123.5 1324.5,-123.5"/>
<text text-anchor="start" x="1332.5" y="-141.5" font-family="Helvetica,sans-Serif" font-size="10.00">include/WillyWeather</text>
<text text-anchor="middle" x="1378" y="-130.5" font-family="Helvetica,sans-Serif" font-size="10.00">/tide.h</text>
</a>
</g>
</g>
<!-- Node1&#45;&gt;Node20 -->
<g id="edge37" class="edge">
<title>Node1&#45;&gt;Node20</title>
<path fill="none" stroke="midnightblue" d="M868.6,-331.2C967.12,-326.99 1190.12,-314.73 1261,-288 1309,-269.9 1325.47,-262.95 1355,-221 1369.47,-200.44 1374.87,-170.98 1376.86,-153.69"/>
<polygon fill="midnightblue" stroke="midnightblue" points="868.18,-327.72 858.34,-331.63 868.47,-334.71 868.18,-327.72"/>
</g>
<!-- Node24 -->
<g id="node24" class="node">
<title>Node24</title>
<g id="a_node24"><a xlink:href="http_8c.html" target="_top" xlink:title=" ">
<polygon fill="none" stroke="black" points="1451.5,-263 1451.5,-282 1508.5,-282 1508.5,-263 1451.5,-263"/>
<text text-anchor="middle" x="1480" y="-270" font-family="Helvetica,sans-Serif" font-size="10.00">src/http.c</text>
</a>
</g>
</g>
<!-- Node1&#45;&gt;Node24 -->
<g id="edge39" class="edge">
<title>Node1&#45;&gt;Node24</title>
<path fill="none" stroke="midnightblue" d="M868.41,-333.58C972.46,-333.97 1228.17,-330.13 1437,-288 1443.95,-286.6 1451.33,-284.39 1457.97,-282.11"/>
<polygon fill="midnightblue" stroke="midnightblue" points="868.26,-330.08 858.24,-333.52 868.22,-337.08 868.26,-330.08"/>
</g>
<!-- Node2&#45;&gt;Node3 -->
<g id="edge2" class="edge">
<title>Node2&#45;&gt;Node3</title>
<path fill="none" stroke="midnightblue" d="M198.15,-183.02C207.24,-173.34 217.72,-162.17 225.79,-153.58"/>
<polygon fill="midnightblue" stroke="midnightblue" points="195.53,-180.71 191.24,-190.4 200.63,-185.5 195.53,-180.71"/>
</g>
<!-- Node2&#45;&gt;Node4 -->
<g id="edge6" class="edge">
<title>Node2&#45;&gt;Node4</title>
<path fill="none" stroke="midnightblue" d="M169.18,-180.43C164.3,-162.48 161.6,-138.48 175,-123 194.97,-99.92 396.14,-82.08 483.2,-75.38"/>
<polygon fill="midnightblue" stroke="midnightblue" points="165.9,-181.68 172.2,-190.2 172.59,-179.61 165.9,-181.68"/>
</g>
<!-- Node7 -->
<g id="node7" class="node">
<title>Node7</title>
<g id="a_node7"><a xlink:href="harvest__area_8c.html" target="_top" xlink:title=" ">
<polygon fill="none" stroke="black" points="0,-123.5 0,-153.5 128,-153.5 128,-123.5 0,-123.5"/>
<text text-anchor="start" x="8" y="-141.5" font-family="Helvetica,sans-Serif" font-size="10.00">src/FoodAuthority/harvest</text>
<text text-anchor="middle" x="64" y="-130.5" font-family="Helvetica,sans-Serif" font-size="10.00">_area.c</text>
</a>
</g>
</g>
<!-- Node2&#45;&gt;Node7 -->
<g id="edge7" class="edge">
<title>Node2&#45;&gt;Node7</title>
<path fill="none" stroke="midnightblue" d="M144.32,-185.3C126.48,-175.12 104.96,-162.85 88.69,-153.58"/>
<polygon fill="midnightblue" stroke="midnightblue" points="142.84,-188.48 153.26,-190.4 146.31,-182.4 142.84,-188.48"/>
</g>
<!-- Node3&#45;&gt;Node4 -->
<g id="edge3" class="edge">
<title>Node3&#45;&gt;Node4</title>
<path fill="none" stroke="midnightblue" d="M303.96,-122.63C360.2,-109.76 439.56,-91.6 485.71,-81.03"/>
<polygon fill="midnightblue" stroke="midnightblue" points="303.06,-119.25 294.09,-124.89 304.62,-126.07 303.06,-119.25"/>
</g>
<!-- Node6 -->
<g id="node6" class="node">
<title>Node6</title>
<g id="a_node6"><a xlink:href="harvest__areas_8c.html" target="_top" xlink:title=" ">
<polygon fill="none" stroke="black" points="175,-56.5 175,-86.5 303,-86.5 303,-56.5 175,-56.5"/>
<text text-anchor="start" x="183" y="-74.5" font-family="Helvetica,sans-Serif" font-size="10.00">src/FoodAuthority/harvest</text>
<text text-anchor="middle" x="239" y="-63.5" font-family="Helvetica,sans-Serif" font-size="10.00">_areas.c</text>
</a>
</g>
</g>
<!-- Node3&#45;&gt;Node6 -->
<g id="edge5" class="edge">
<title>Node3&#45;&gt;Node6</title>
<path fill="none" stroke="midnightblue" d="M239,-113.11C239,-104.15 239,-94.32 239,-86.58"/>
<polygon fill="midnightblue" stroke="midnightblue" points="235.5,-113.4 239,-123.4 242.5,-113.4 235.5,-113.4"/>
</g>
<!-- Node5 -->
<g id="node5" class="node">
<title>Node5</title>
<g id="a_node5"><a xlink:href="main_8c.html" target="_top" xlink:title=" ">
<polygon fill="none" stroke="black" points="492,-0.5 492,-19.5 554,-19.5 554,-0.5 492,-0.5"/>
<text text-anchor="middle" x="523" y="-7.5" font-family="Helvetica,sans-Serif" font-size="10.00">src/main.c</text>
</a>
</g>
</g>
<!-- Node4&#45;&gt;Node5 -->
<g id="edge4" class="edge">
<title>Node4&#45;&gt;Node5</title>
<path fill="none" stroke="midnightblue" d="M523,-51.82C523,-41 523,-27.9 523,-19.51"/>
<polygon fill="midnightblue" stroke="midnightblue" points="519.5,-51.98 523,-61.98 526.5,-51.98 519.5,-51.98"/>
</g>
<!-- Node8&#45;&gt;Node4 -->
<g id="edge13" class="edge">
<title>Node8&#45;&gt;Node4</title>
<path fill="none" stroke="midnightblue" d="M432.98,-259.76C412.58,-252.24 391,-240.17 379,-221 371.69,-209.32 373.09,-202.45 379,-190 405.15,-134.91 471.18,-97.12 503.95,-81.11"/>
<polygon fill="midnightblue" stroke="midnightblue" points="431.95,-263.1 442.54,-263 434.2,-256.47 431.95,-263.1"/>
</g>
<!-- Node8&#45;&gt;Node9 -->
<g id="edge10" class="edge">
<title>Node8&#45;&gt;Node9</title>
<path fill="none" stroke="midnightblue" d="M509.51,-258.44C535.66,-245.57 574.88,-226.26 597.4,-215.17"/>
<polygon fill="midnightblue" stroke="midnightblue" points="507.95,-255.31 500.53,-262.87 511.05,-261.59 507.95,-255.31"/>
</g>
<!-- Node11 -->
<g id="node11" class="node">
<title>Node11</title>
<g id="a_node11"><a xlink:href="_i_b_m___e_i_s_2authenticate_8c.html" target="_top" xlink:title=" ">
<polygon fill="none" stroke="black" points="388,-196 388,-215 524,-215 524,-196 388,-196"/>
<text text-anchor="middle" x="456" y="-203" font-family="Helvetica,sans-Serif" font-size="10.00">src/IBM_EIS/authenticate.c</text>
</a>
</g>
</g>
<!-- Node8&#45;&gt;Node11 -->
<g id="edge14" class="edge">
<title>Node8&#45;&gt;Node11</title>
<path fill="none" stroke="midnightblue" d="M475.44,-253.29C470.25,-240.81 463.61,-224.81 459.58,-215.13"/>
<polygon fill="midnightblue" stroke="midnightblue" points="472.29,-254.84 479.36,-262.73 478.75,-252.16 472.29,-254.84"/>
</g>
<!-- Node9&#45;&gt;Node4 -->
<g id="edge11" class="edge">
<title>Node9&#45;&gt;Node4</title>
<path fill="none" stroke="midnightblue" d="M586.05,-191.05C570.74,-182.51 552.91,-170.04 542,-154 526.39,-131.06 523.5,-96.98 523.03,-81.16"/>
<polygon fill="midnightblue" stroke="midnightblue" points="584.69,-194.29 595.17,-195.86 587.95,-188.1 584.69,-194.29"/>
</g>
<!-- Node10 -->
<g id="node10" class="node">
<title>Node10</title>
<g id="a_node10"><a xlink:href="timeseries_8c.html" target="_top" xlink:title=" ">
<polygon fill="none" stroke="black" points="551,-129 551,-148 679,-148 679,-129 551,-129"/>
<text text-anchor="middle" x="615" y="-136" font-family="Helvetica,sans-Serif" font-size="10.00">src/IBM_EIS/timeseries.c</text>
</a>
</g>
</g>
<!-- Node9&#45;&gt;Node10 -->
<g id="edge12" class="edge">
<title>Node9&#45;&gt;Node10</title>
<path fill="none" stroke="midnightblue" d="M615,-185.54C615,-173.17 615,-157.62 615,-148.13"/>
<polygon fill="midnightblue" stroke="midnightblue" points="611.5,-185.73 615,-195.73 618.5,-185.73 611.5,-185.73"/>
</g>
<!-- Node12&#45;&gt;Node13 -->
<g id="edge17" class="edge">
<title>Node12&#45;&gt;Node13</title>
<path fill="none" stroke="midnightblue" d="M849.67,-257.27C829.48,-244.4 800.41,-225.88 783.54,-215.13"/>
<polygon fill="midnightblue" stroke="midnightblue" points="847.93,-260.31 858.24,-262.73 851.69,-254.41 847.93,-260.31"/>
</g>
<!-- Node15 -->
<g id="node15" class="node">
<title>Node15</title>
<g id="a_node15"><a xlink:href="_ubidots_2authenticate_8c.html" target="_top" xlink:title=" ">
<polygon fill="none" stroke="black" points="852.5,-196 852.5,-215 983.5,-215 983.5,-196 852.5,-196"/>
<text text-anchor="middle" x="918" y="-203" font-family="Helvetica,sans-Serif" font-size="10.00">src/Ubidots/authenticate.c</text>
</a>
</g>
</g>
<!-- Node12&#45;&gt;Node15 -->
<g id="edge20" class="edge">
<title>Node12&#45;&gt;Node15</title>
<path fill="none" stroke="midnightblue" d="M884.1,-254.4C893.04,-241.77 904.83,-225.1 911.89,-215.13"/>
<polygon fill="midnightblue" stroke="midnightblue" points="881.12,-252.55 878.2,-262.73 886.84,-256.59 881.12,-252.55"/>
</g>
<!-- Node13&#45;&gt;Node4 -->
<g id="edge18" class="edge">
<title>Node13&#45;&gt;Node4</title>
<path fill="none" stroke="midnightblue" d="M757.51,-187.95C742.8,-169.56 716.71,-140.2 688,-123 648.68,-99.45 597.42,-86.01 562.54,-79.01"/>
<polygon fill="midnightblue" stroke="midnightblue" points="754.87,-190.26 763.78,-196 760.39,-185.96 754.87,-190.26"/>
</g>
<!-- Node14 -->
<g id="node14" class="node">
<title>Node14</title>
<g id="a_node14"><a xlink:href="devices_8c.html" target="_top" xlink:title=" ">
<polygon fill="none" stroke="black" points="735.5,-129 735.5,-148 846.5,-148 846.5,-129 735.5,-129"/>
<text text-anchor="middle" x="791" y="-136" font-family="Helvetica,sans-Serif" font-size="10.00">src/Ubidots/devices.c</text>
</a>
</g>
</g>
<!-- Node13&#45;&gt;Node14 -->
<g id="edge19" class="edge">
<title>Node13&#45;&gt;Node14</title>
<path fill="none" stroke="midnightblue" d="M776,-185.91C780.02,-173.49 785.11,-157.72 788.21,-148.13"/>
<polygon fill="midnightblue" stroke="midnightblue" points="772.58,-185.14 772.83,-195.73 779.24,-187.29 772.58,-185.14"/>
</g>
<!-- Node16&#45;&gt;Node4 -->
<g id="edge33" class="edge">
<title>Node16&#45;&gt;Node4</title>
<path fill="none" stroke="midnightblue" d="M1142.18,-246.89C1147.58,-213.63 1151.21,-154.83 1118,-123 1077.96,-84.63 689.08,-75.12 562.56,-73.03"/>
<polygon fill="midnightblue" stroke="midnightblue" points="1138.66,-246.65 1140.33,-257.12 1145.55,-247.9 1138.66,-246.65"/>
</g>
<!-- Node16&#45;&gt;Node17 -->
<g id="edge23" class="edge">
<title>Node16&#45;&gt;Node17</title>
<path fill="none" stroke="midnightblue" d="M1111.35,-251.17C1098.81,-241.23 1084.03,-229.51 1072.76,-220.58"/>
<polygon fill="midnightblue" stroke="midnightblue" points="1109.2,-253.93 1119.21,-257.4 1113.54,-248.44 1109.2,-253.93"/>
</g>
<!-- Node16&#45;&gt;Node20 -->
<g id="edge32" class="edge">
<title>Node16&#45;&gt;Node20</title>
<path fill="none" stroke="midnightblue" d="M1200.8,-266.69C1240.63,-260.95 1291.16,-248.4 1328,-221 1351.31,-203.66 1366.12,-171.94 1373.15,-153.61"/>
<polygon fill="midnightblue" stroke="midnightblue" points="1200.11,-263.25 1190.65,-268.04 1201.03,-270.19 1200.11,-263.25"/>
</g>
<!-- Node23 -->
<g id="node23" class="node">
<title>Node23</title>
<g id="a_node23"><a xlink:href="_willy_weather_2authenticate_8c.html" target="_top" xlink:title=" ">
<polygon fill="none" stroke="black" points="1165.5,-196 1165.5,-215 1318.5,-215 1318.5,-196 1165.5,-196"/>
<text text-anchor="middle" x="1242" y="-203" font-family="Helvetica,sans-Serif" font-size="10.00">src/WillyWeather/authenticate.c</text>
</a>
</g>
</g>
<!-- Node16&#45;&gt;Node23 -->
<g id="edge34" class="edge">
<title>Node16&#45;&gt;Node23</title>
<path fill="none" stroke="midnightblue" d="M1168.54,-251.97C1188.45,-239.65 1213.17,-224.35 1228.26,-215.01"/>
<polygon fill="midnightblue" stroke="midnightblue" points="1166.44,-249.16 1159.78,-257.4 1170.13,-255.11 1166.44,-249.16"/>
</g>
<!-- Node17&#45;&gt;Node3 -->
<g id="edge24" class="edge">
<title>Node17&#45;&gt;Node3</title>
<path fill="none" stroke="midnightblue" d="M991.27,-189.93C839.52,-168.9 440.77,-148.92 294.08,-142.02"/>
<polygon fill="midnightblue" stroke="midnightblue" points="990.94,-193.42 1001.33,-191.39 991.94,-186.49 990.94,-193.42"/>
</g>
<!-- Node17&#45;&gt;Node18 -->
<g id="edge25" class="edge">
<title>Node17&#45;&gt;Node18</title>
<path fill="none" stroke="midnightblue" d="M1099.96,-186.68C1126.26,-176.26 1159,-163.28 1183.48,-153.58"/>
<polygon fill="midnightblue" stroke="midnightblue" points="1098.59,-183.46 1090.59,-190.4 1101.17,-189.97 1098.59,-183.46"/>
</g>
<!-- Node17&#45;&gt;Node20 -->
<g id="edge28" class="edge">
<title>Node17&#45;&gt;Node20</title>
<path fill="none" stroke="midnightblue" d="M1118.83,-191.66C1178.93,-179.56 1267.94,-161.65 1324.44,-150.28"/>
<polygon fill="midnightblue" stroke="midnightblue" points="1117.81,-188.29 1108.7,-193.69 1119.19,-195.15 1117.81,-188.29"/>
</g>
<!-- Node22 -->
<g id="node22" class="node">
<title>Node22</title>
<g id="a_node22"><a xlink:href="location_8c.html" target="_top" xlink:title=" ">
<polygon fill="none" stroke="black" points="975,-129 975,-148 1109,-148 1109,-129 975,-129"/>
<text text-anchor="middle" x="1042" y="-136" font-family="Helvetica,sans-Serif" font-size="10.00">src/WillyWeather/location.c</text>
</a>
</g>
</g>
<!-- Node17&#45;&gt;Node22 -->
<g id="edge31" class="edge">
<title>Node17&#45;&gt;Node22</title>
<path fill="none" stroke="midnightblue" d="M1050.15,-180.25C1047.9,-169.02 1045.38,-156.38 1043.74,-148.19"/>
<polygon fill="midnightblue" stroke="midnightblue" points="1046.79,-181.28 1052.18,-190.4 1053.65,-179.9 1046.79,-181.28"/>
</g>
<!-- Node18&#45;&gt;Node4 -->
<g id="edge26" class="edge">
<title>Node18&#45;&gt;Node4</title>
<path fill="none" stroke="midnightblue" d="M1155.41,-123.67C1153.93,-123.44 1152.46,-123.21 1151,-123 929.94,-90.68 661.86,-77.79 562.51,-73.89"/>
<polygon fill="midnightblue" stroke="midnightblue" points="1154.85,-127.13 1165.29,-125.37 1156.03,-120.23 1154.85,-127.13"/>
</g>
<!-- Node19 -->
<g id="node19" class="node">
<title>Node19</title>
<g id="a_node19"><a xlink:href="precipitation_8c.html" target="_top" xlink:title=" ">
<polygon fill="none" stroke="black" points="1143,-62 1143,-81 1295,-81 1295,-62 1143,-62"/>
<text text-anchor="middle" x="1219" y="-69" font-family="Helvetica,sans-Serif" font-size="10.00">src/WillyWeather/precipitation.c</text>
</a>
</g>
</g>
<!-- Node18&#45;&gt;Node19 -->
<g id="edge27" class="edge">
<title>Node18&#45;&gt;Node19</title>
<path fill="none" stroke="midnightblue" d="M1219,-113.25C1219,-102.02 1219,-89.38 1219,-81.19"/>
<polygon fill="midnightblue" stroke="midnightblue" points="1215.5,-113.4 1219,-123.4 1222.5,-113.4 1215.5,-113.4"/>
</g>
<!-- Node20&#45;&gt;Node4 -->
<g id="edge29" class="edge">
<title>Node20&#45;&gt;Node4</title>
<path fill="none" stroke="midnightblue" d="M1314.14,-127.09C1303.43,-125.57 1292.41,-124.13 1282,-123 1007.6,-93.2 675.36,-78.4 562.61,-73.97"/>
<polygon fill="midnightblue" stroke="midnightblue" points="1313.88,-130.59 1324.28,-128.58 1314.89,-123.67 1313.88,-130.59"/>
</g>
<!-- Node21 -->
<g id="node21" class="node">
<title>Node21</title>
<g id="a_node21"><a xlink:href="tide_8c.html" target="_top" xlink:title=" ">
<polygon fill="none" stroke="black" points="1320,-62 1320,-81 1436,-81 1436,-62 1320,-62"/>
<text text-anchor="middle" x="1378" y="-69" font-family="Helvetica,sans-Serif" font-size="10.00">src/WillyWeather/tide.c</text>
</a>
</g>
</g>
<!-- Node20&#45;&gt;Node21 -->
<g id="edge30" class="edge">
<title>Node20&#45;&gt;Node21</title>
<path fill="none" stroke="midnightblue" d="M1378,-113.25C1378,-102.02 1378,-89.38 1378,-81.19"/>
<polygon fill="midnightblue" stroke="midnightblue" points="1374.5,-113.4 1378,-123.4 1381.5,-113.4 1374.5,-113.4"/>
</g>
</g>
</svg>
