<?xml version="1.0" encoding="UTF-8" standalone="no"?>
<!DOCTYPE svg PUBLIC "-//W3C//DTD SVG 1.1//EN"
 "http://www.w3.org/Graphics/SVG/1.1/DTD/svg11.dtd">
<!-- Generated by graphviz version 2.49.3 (20211027.1534)
 -->
<!-- Title: include/http.h Pages: 1 -->
<svg width="1364pt" height="341pt"
 viewBox="0.00 0.00 1363.57 341.00" xmlns="http://www.w3.org/2000/svg" xmlns:xlink="http://www.w3.org/1999/xlink">
<g id="graph0" class="graph" transform="scale(1 1) rotate(0) translate(4 337)">
<title>include/http.h</title>
<!-- Node1 -->
<g id="node1" class="node">
<title>Node1</title>
<g id="a_node1"><a xlink:title=" ">
<polygon fill="#bfbfbf" stroke="black" points="757.07,-313.5 757.07,-332.5 831.07,-332.5 831.07,-313.5 757.07,-313.5"/>
<text text-anchor="middle" x="794.07" y="-320.5" font-family="Helvetica,sans-Serif" font-size="10.00">include/http.h</text>
</a>
</g>
</g>
<!-- Node2 -->
<g id="node2" class="node">
<title>Node2</title>
<g id="a_node2"><a xlink:href="harvest__area_8h.html" target="_top" xlink:title=" ">
<polygon fill="none" stroke="black" points="115.07,-246.5 115.07,-276.5 225.07,-276.5 225.07,-246.5 115.07,-246.5"/>
<text text-anchor="start" x="123.07" y="-264.5" font-family="Helvetica,sans-Serif" font-size="10.00">include/FoodAuthority</text>
<text text-anchor="middle" x="170.07" y="-253.5" font-family="Helvetica,sans-Serif" font-size="10.00">/harvest_area.h</text>
</a>
</g>
</g>
<!-- Node1&#45;&gt;Node2 -->
<g id="edge1" class="edge">
<title>Node1&#45;&gt;Node2</title>
<path fill="none" stroke="midnightblue" d="M746.66,-318C658.62,-310.51 463.91,-293.6 300.07,-277 275.44,-274.51 248.22,-271.51 225.08,-268.88"/>
<polygon fill="midnightblue" stroke="midnightblue" points="746.6,-321.51 756.86,-318.87 747.2,-314.54 746.6,-321.51"/>
</g>
<!-- Node3 -->
<g id="node3" class="node">
<title>Node3</title>
<g id="a_node3"><a xlink:href="main_8h.html" target="_top" xlink:title=" ">
<polygon fill="none" stroke="black" points="632.57,-56.5 632.57,-75.5 711.57,-75.5 711.57,-56.5 632.57,-56.5"/>
<text text-anchor="middle" x="672.07" y="-63.5" font-family="Helvetica,sans-Serif" font-size="10.00">include/main.h</text>
</a>
</g>
</g>
<!-- Node1&#45;&gt;Node3 -->
<g id="edge33" class="edge">
<title>Node1&#45;&gt;Node3</title>
<path fill="none" stroke="midnightblue" d="M747,-322.06C611.93,-321.73 225.17,-317.2 106.07,-277 55.03,-259.77 30.54,-257.46 5.07,-210 -56.53,-95.21 480.34,-72.11 632.55,-67.88"/>
<polygon fill="midnightblue" stroke="midnightblue" points="747.03,-325.56 757.04,-322.07 747.04,-318.56 747.03,-325.56"/>
</g>
<!-- Node6 -->
<g id="node6" class="node">
<title>Node6</title>
<g id="a_node6"><a xlink:href="_i_b_m___e_i_s_2authenticate_8h.html" target="_top" xlink:title=" ">
<polygon fill="none" stroke="black" points="309.57,-252 309.57,-271 462.57,-271 462.57,-252 309.57,-252"/>
<text text-anchor="middle" x="386.07" y="-259" font-family="Helvetica,sans-Serif" font-size="10.00">include/IBM_EIS/authenticate.h</text>
</a>
</g>
</g>
<!-- Node1&#45;&gt;Node6 -->
<g id="edge5" class="edge">
<title>Node1&#45;&gt;Node6</title>
<path fill="none" stroke="midnightblue" d="M746.69,-315.09C671.71,-304.16 525.91,-282.89 444.54,-271.03"/>
<polygon fill="midnightblue" stroke="midnightblue" points="746.38,-318.58 756.78,-316.56 747.39,-311.66 746.38,-318.58"/>
</g>
<!-- Node7 -->
<g id="node7" class="node">
<title>Node7</title>
<g id="a_node7"><a xlink:href="timeseries_8h.html" target="_top" xlink:title=" ">
<polygon fill="none" stroke="black" points="390.57,-185 390.57,-204 535.57,-204 535.57,-185 390.57,-185"/>
<text text-anchor="middle" x="463.07" y="-192" font-family="Helvetica,sans-Serif" font-size="10.00">include/IBM_EIS/timeseries.h</text>
</a>
</g>
</g>
<!-- Node1&#45;&gt;Node7 -->
<g id="edge11" class="edge">
<title>Node1&#45;&gt;Node7</title>
<path fill="none" stroke="midnightblue" d="M746.74,-314.15C708.71,-306.98 654.35,-294.77 609.07,-277 556.91,-256.54 500.42,-220.61 475.77,-204.16"/>
<polygon fill="midnightblue" stroke="midnightblue" points="746.55,-317.67 757.02,-316.04 747.81,-310.79 746.55,-317.67"/>
</g>
<!-- Node10 -->
<g id="node10" class="node">
<title>Node10</title>
<g id="a_node10"><a xlink:href="_ubidots_2authenticate_8h.html" target="_top" xlink:title=" ">
<polygon fill="none" stroke="black" points="618.07,-252 618.07,-271 766.07,-271 766.07,-252 618.07,-252"/>
<text text-anchor="middle" x="692.07" y="-259" font-family="Helvetica,sans-Serif" font-size="10.00">include/Ubidots/authenticate.h</text>
</a>
</g>
</g>
<!-- Node1&#45;&gt;Node10 -->
<g id="edge12" class="edge">
<title>Node1&#45;&gt;Node10</title>
<path fill="none" stroke="midnightblue" d="M770.76,-308.4C751.03,-296.9 723.38,-280.77 706.66,-271.01"/>
<polygon fill="midnightblue" stroke="midnightblue" points="769.05,-311.46 779.46,-313.48 772.58,-305.41 769.05,-311.46"/>
</g>
<!-- Node11 -->
<g id="node11" class="node">
<title>Node11</title>
<g id="a_node11"><a xlink:href="devices_8h.html" target="_top" xlink:title=" ">
<polygon fill="none" stroke="black" points="703.07,-185 703.07,-204 831.07,-204 831.07,-185 703.07,-185"/>
<text text-anchor="middle" x="767.07" y="-192" font-family="Helvetica,sans-Serif" font-size="10.00">include/Ubidots/devices.h</text>
</a>
</g>
</g>
<!-- Node1&#45;&gt;Node11 -->
<g id="edge17" class="edge">
<title>Node1&#45;&gt;Node11</title>
<path fill="none" stroke="midnightblue" d="M790.08,-303.31C784.16,-275.58 773.29,-224.63 768.94,-204.26"/>
<polygon fill="midnightblue" stroke="midnightblue" points="786.7,-304.26 792.21,-313.31 793.55,-302.79 786.7,-304.26"/>
</g>
<!-- Node14 -->
<g id="node14" class="node">
<title>Node14</title>
<g id="a_node14"><a xlink:href="_willy_weather_2authenticate_8h.html" target="_top" xlink:title=" ">
<polygon fill="none" stroke="black" points="887.57,-246.5 887.57,-276.5 994.57,-276.5 994.57,-246.5 887.57,-246.5"/>
<text text-anchor="start" x="895.57" y="-264.5" font-family="Helvetica,sans-Serif" font-size="10.00">include/WillyWeather</text>
<text text-anchor="middle" x="941.07" y="-253.5" font-family="Helvetica,sans-Serif" font-size="10.00">/authenticate.h</text>
</a>
</g>
</g>
<!-- Node1&#45;&gt;Node14 -->
<g id="edge18" class="edge">
<title>Node1&#45;&gt;Node14</title>
<path fill="none" stroke="midnightblue" d="M824.41,-309.72C848.27,-300.06 881.52,-286.6 906.42,-276.52"/>
<polygon fill="midnightblue" stroke="midnightblue" points="823.09,-306.48 815.13,-313.48 825.71,-312.97 823.09,-306.48"/>
</g>
<!-- Node15 -->
<g id="node15" class="node">
<title>Node15</title>
<g id="a_node15"><a xlink:href="location_8h.html" target="_top" xlink:title=" ">
<polygon fill="none" stroke="black" points="1134.57,-179.5 1134.57,-209.5 1241.57,-209.5 1241.57,-179.5 1134.57,-179.5"/>
<text text-anchor="start" x="1142.57" y="-197.5" font-family="Helvetica,sans-Serif" font-size="10.00">include/WillyWeather</text>
<text text-anchor="middle" x="1188.07" y="-186.5" font-family="Helvetica,sans-Serif" font-size="10.00">/location.h</text>
</a>
</g>
</g>
<!-- Node1&#45;&gt;Node15 -->
<g id="edge30" class="edge">
<title>Node1&#45;&gt;Node15</title>
<path fill="none" stroke="midnightblue" d="M841,-314.79C884.05,-307.52 949.24,-294.81 1004.07,-277 1061.72,-258.28 1125.74,-227.5 1161.02,-209.6"/>
<polygon fill="midnightblue" stroke="midnightblue" points="840.38,-311.35 831.09,-316.44 841.53,-318.25 840.38,-311.35"/>
</g>
<!-- Node16 -->
<g id="node16" class="node">
<title>Node16</title>
<g id="a_node16"><a xlink:href="precipitation_8h.html" target="_top" xlink:title=" ">
<polygon fill="none" stroke="black" points="1209.57,-112.5 1209.57,-142.5 1316.57,-142.5 1316.57,-112.5 1209.57,-112.5"/>
<text text-anchor="start" x="1217.57" y="-130.5" font-family="Helvetica,sans-Serif" font-size="10.00">include/WillyWeather</text>
<text text-anchor="middle" x="1263.07" y="-119.5" font-family="Helvetica,sans-Serif" font-size="10.00">/precipitation.h</text>
</a>
</g>
</g>
<!-- Node1&#45;&gt;Node16 -->
<g id="edge31" class="edge">
<title>Node1&#45;&gt;Node16</title>
<path fill="none" stroke="midnightblue" d="M841.32,-317.43C947.27,-306.12 1198.67,-273.1 1251.07,-210 1266.88,-190.97 1266.8,-160.44 1265.09,-142.64"/>
<polygon fill="midnightblue" stroke="midnightblue" points="840.81,-313.96 831.23,-318.48 841.54,-320.92 840.81,-313.96"/>
</g>
<!-- Node18 -->
<g id="node18" class="node">
<title>Node18</title>
<g id="a_node18"><a xlink:href="tide_8h.html" target="_top" xlink:title=" ">
<polygon fill="none" stroke="black" points="925.57,-112.5 925.57,-142.5 1032.57,-142.5 1032.57,-112.5 925.57,-112.5"/>
<text text-anchor="start" x="933.57" y="-130.5" font-family="Helvetica,sans-Serif" font-size="10.00">include/WillyWeather</text>
<text text-anchor="middle" x="979.07" y="-119.5" font-family="Helvetica,sans-Serif" font-size="10.00">/tide.h</text>
</a>
</g>
</g>
<!-- Node1&#45;&gt;Node18 -->
<g id="edge32" class="edge">
<title>Node1&#45;&gt;Node18</title>
<path fill="none" stroke="midnightblue" d="M809.36,-306.01C844.77,-268.97 931.96,-177.78 965.56,-142.63"/>
<polygon fill="midnightblue" stroke="midnightblue" points="806.64,-303.79 802.26,-313.44 811.7,-308.63 806.64,-303.79"/>
</g>
<!-- Node22 -->
<g id="node22" class="node">
<title>Node22</title>
<g id="a_node22"><a xlink:href="http_8c.html" target="_top" xlink:title=" ">
<polygon fill="none" stroke="black" points="1298.57,-252 1298.57,-271 1355.57,-271 1355.57,-252 1298.57,-252"/>
<text text-anchor="middle" x="1327.07" y="-259" font-family="Helvetica,sans-Serif" font-size="10.00">src/http.c</text>
</a>
</g>
</g>
<!-- Node1&#45;&gt;Node22 -->
<g id="edge34" class="edge">
<title>Node1&#45;&gt;Node22</title>
<path fill="none" stroke="midnightblue" d="M841.28,-321.31C929.29,-319.23 1124.04,-310.84 1284.07,-277 1291.01,-275.53 1298.38,-273.31 1305.03,-271.03"/>
<polygon fill="midnightblue" stroke="midnightblue" points="841,-317.82 831.08,-321.54 841.16,-324.82 841,-317.82"/>
</g>
<!-- Node2&#45;&gt;Node3 -->
<g id="edge2" class="edge">
<title>Node2&#45;&gt;Node3</title>
<path fill="none" stroke="midnightblue" d="M169.88,-236.1C171.01,-218.29 175.32,-194.62 189.07,-179 247.93,-112.12 527.4,-80.17 632.23,-70.39"/>
<polygon fill="midnightblue" stroke="midnightblue" points="166.37,-236.19 169.53,-246.3 173.37,-236.43 166.37,-236.19"/>
</g>
<!-- Node5 -->
<g id="node5" class="node">
<title>Node5</title>
<g id="a_node5"><a xlink:href="harvest__area_8c.html" target="_top" xlink:title=" ">
<polygon fill="none" stroke="black" points="14.07,-179.5 14.07,-209.5 142.07,-209.5 142.07,-179.5 14.07,-179.5"/>
<text text-anchor="start" x="22.07" y="-197.5" font-family="Helvetica,sans-Serif" font-size="10.00">src/FoodAuthority/harvest</text>
<text text-anchor="middle" x="78.07" y="-186.5" font-family="Helvetica,sans-Serif" font-size="10.00">_area.c</text>
</a>
</g>
</g>
<!-- Node2&#45;&gt;Node5 -->
<g id="edge4" class="edge">
<title>Node2&#45;&gt;Node5</title>
<path fill="none" stroke="midnightblue" d="M141.69,-240.45C127.54,-230.45 110.76,-218.6 97.99,-209.58"/>
<polygon fill="midnightblue" stroke="midnightblue" points="139.92,-243.48 150.11,-246.4 143.96,-237.77 139.92,-243.48"/>
</g>
<!-- Node4 -->
<g id="node4" class="node">
<title>Node4</title>
<g id="a_node4"><a xlink:href="main_8c.html" target="_top" xlink:title=" ">
<polygon fill="none" stroke="black" points="641.07,-0.5 641.07,-19.5 703.07,-19.5 703.07,-0.5 641.07,-0.5"/>
<text text-anchor="middle" x="672.07" y="-7.5" font-family="Helvetica,sans-Serif" font-size="10.00">src/main.c</text>
</a>
</g>
</g>
<!-- Node3&#45;&gt;Node4 -->
<g id="edge3" class="edge">
<title>Node3&#45;&gt;Node4</title>
<path fill="none" stroke="midnightblue" d="M672.07,-45.8C672.07,-36.91 672.07,-26.78 672.07,-19.75"/>
<polygon fill="midnightblue" stroke="midnightblue" points="668.57,-46.08 672.07,-56.08 675.57,-46.08 668.57,-46.08"/>
</g>
<!-- Node6&#45;&gt;Node3 -->
<g id="edge9" class="edge">
<title>Node6&#45;&gt;Node3</title>
<path fill="none" stroke="midnightblue" d="M379.71,-242.35C370.03,-211.03 356.08,-146.84 390.07,-112 423,-78.24 562.73,-69.81 632.34,-67.7"/>
<polygon fill="midnightblue" stroke="midnightblue" points="376.42,-243.55 382.87,-251.96 383.07,-241.37 376.42,-243.55"/>
</g>
<!-- Node6&#45;&gt;Node7 -->
<g id="edge6" class="edge">
<title>Node6&#45;&gt;Node7</title>
<path fill="none" stroke="midnightblue" d="M404.18,-245.21C419.35,-232.41 440.46,-214.59 452.85,-204.13"/>
<polygon fill="midnightblue" stroke="midnightblue" points="401.84,-242.61 396.45,-251.73 406.35,-247.96 401.84,-242.61"/>
</g>
<!-- Node9 -->
<g id="node9" class="node">
<title>Node9</title>
<g id="a_node9"><a xlink:href="_i_b_m___e_i_s_2authenticate_8c.html" target="_top" xlink:title=" ">
<polygon fill="none" stroke="black" points="198.07,-185 198.07,-204 334.07,-204 334.07,-185 198.07,-185"/>
<text text-anchor="middle" x="266.07" y="-192" font-family="Helvetica,sans-Serif" font-size="10.00">src/IBM_EIS/authenticate.c</text>
</a>
</g>
</g>
<!-- Node6&#45;&gt;Node9 -->
<g id="edge10" class="edge">
<title>Node6&#45;&gt;Node9</title>
<path fill="none" stroke="midnightblue" d="M361.07,-246.96C337.28,-234.07 302.2,-215.07 282,-204.13"/>
<polygon fill="midnightblue" stroke="midnightblue" points="359.43,-250.05 369.89,-251.73 362.76,-243.89 359.43,-250.05"/>
</g>
<!-- Node7&#45;&gt;Node3 -->
<g id="edge7" class="edge">
<title>Node7&#45;&gt;Node3</title>
<path fill="none" stroke="midnightblue" d="M486.16,-179.52C529.63,-153.21 622.41,-97.06 657.88,-75.59"/>
<polygon fill="midnightblue" stroke="midnightblue" points="484.18,-176.63 477.44,-184.81 487.8,-182.62 484.18,-176.63"/>
</g>
<!-- Node8 -->
<g id="node8" class="node">
<title>Node8</title>
<g id="a_node8"><a xlink:href="timeseries_8c.html" target="_top" xlink:title=" ">
<polygon fill="none" stroke="black" points="399.07,-118 399.07,-137 527.07,-137 527.07,-118 399.07,-118"/>
<text text-anchor="middle" x="463.07" y="-125" font-family="Helvetica,sans-Serif" font-size="10.00">src/IBM_EIS/timeseries.c</text>
</a>
</g>
</g>
<!-- Node7&#45;&gt;Node8 -->
<g id="edge8" class="edge">
<title>Node7&#45;&gt;Node8</title>
<path fill="none" stroke="midnightblue" d="M463.07,-174.54C463.07,-162.17 463.07,-146.62 463.07,-137.13"/>
<polygon fill="midnightblue" stroke="midnightblue" points="459.57,-174.73 463.07,-184.73 466.57,-174.73 459.57,-174.73"/>
</g>
<!-- Node10&#45;&gt;Node11 -->
<g id="edge13" class="edge">
<title>Node10&#45;&gt;Node11</title>
<path fill="none" stroke="midnightblue" d="M710.12,-244.86C724.86,-232.08 745.16,-214.49 757.12,-204.13"/>
<polygon fill="midnightblue" stroke="midnightblue" points="707.45,-242.54 702.18,-251.73 712.03,-247.83 707.45,-242.54"/>
</g>
<!-- Node13 -->
<g id="node13" class="node">
<title>Node13</title>
<g id="a_node13"><a xlink:href="_ubidots_2authenticate_8c.html" target="_top" xlink:title=" ">
<polygon fill="none" stroke="black" points="553.57,-185 553.57,-204 684.57,-204 684.57,-185 553.57,-185"/>
<text text-anchor="middle" x="619.07" y="-192" font-family="Helvetica,sans-Serif" font-size="10.00">src/Ubidots/authenticate.c</text>
</a>
</g>
</g>
<!-- Node10&#45;&gt;Node13 -->
<g id="edge16" class="edge">
<title>Node10&#45;&gt;Node13</title>
<path fill="none" stroke="midnightblue" d="M674.5,-244.86C660.15,-232.08 640.4,-214.49 628.76,-204.13"/>
<polygon fill="midnightblue" stroke="midnightblue" points="672.43,-247.7 682.22,-251.73 677.08,-242.47 672.43,-247.7"/>
</g>
<!-- Node11&#45;&gt;Node3 -->
<g id="edge14" class="edge">
<title>Node11&#45;&gt;Node3</title>
<path fill="none" stroke="midnightblue" d="M766.51,-174.79C765.12,-157.06 760.69,-130.47 747.07,-112 734.27,-94.65 712.59,-82.7 695.83,-75.5"/>
<polygon fill="midnightblue" stroke="midnightblue" points="763.03,-175.19 767.06,-184.99 770.02,-174.81 763.03,-175.19"/>
</g>
<!-- Node12 -->
<g id="node12" class="node">
<title>Node12</title>
<g id="a_node12"><a xlink:href="devices_8c.html" target="_top" xlink:title=" ">
<polygon fill="none" stroke="black" points="627.57,-118 627.57,-137 738.57,-137 738.57,-118 627.57,-118"/>
<text text-anchor="middle" x="683.07" y="-125" font-family="Helvetica,sans-Serif" font-size="10.00">src/Ubidots/devices.c</text>
</a>
</g>
</g>
<!-- Node11&#45;&gt;Node12 -->
<g id="edge15" class="edge">
<title>Node11&#45;&gt;Node12</title>
<path fill="none" stroke="midnightblue" d="M747.77,-178.57C731.19,-165.74 707.86,-147.69 694.22,-137.13"/>
<polygon fill="midnightblue" stroke="midnightblue" points="745.69,-181.38 755.74,-184.73 749.97,-175.85 745.69,-181.38"/>
</g>
<!-- Node14&#45;&gt;Node3 -->
<g id="edge28" class="edge">
<title>Node14&#45;&gt;Node3</title>
<path fill="none" stroke="midnightblue" d="M920.25,-239.07C889.37,-208.13 828.65,-150.47 769.07,-112 745.21,-96.59 715.22,-83.53 694.95,-75.51"/>
<polygon fill="midnightblue" stroke="midnightblue" points="917.91,-241.69 927.43,-246.33 922.89,-236.76 917.91,-241.69"/>
</g>
<!-- Node14&#45;&gt;Node15 -->
<g id="edge19" class="edge">
<title>Node14&#45;&gt;Node15</title>
<path fill="none" stroke="midnightblue" d="M1004.08,-243.92C1044.39,-233.31 1096.11,-219.7 1134.45,-209.61"/>
<polygon fill="midnightblue" stroke="midnightblue" points="1003.14,-240.55 994.36,-246.48 1004.92,-247.32 1003.14,-240.55"/>
</g>
<!-- Node14&#45;&gt;Node18 -->
<g id="edge27" class="edge">
<title>Node14&#45;&gt;Node18</title>
<path fill="none" stroke="midnightblue" d="M943.5,-236.01C945.56,-219.61 949.15,-197.68 955.07,-179 959.12,-166.23 965.77,-152.55 971.05,-142.66"/>
<polygon fill="midnightblue" stroke="midnightblue" points="939.98,-236.05 942.31,-246.38 946.93,-236.85 939.98,-236.05"/>
</g>
<!-- Node21 -->
<g id="node21" class="node">
<title>Node21</title>
<g id="a_node21"><a xlink:href="_willy_weather_2authenticate_8c.html" target="_top" xlink:title=" ">
<polygon fill="none" stroke="black" points="963.57,-185 963.57,-204 1116.57,-204 1116.57,-185 963.57,-185"/>
<text text-anchor="middle" x="1040.07" y="-192" font-family="Helvetica,sans-Serif" font-size="10.00">src/WillyWeather/authenticate.c</text>
</a>
</g>
</g>
<!-- Node14&#45;&gt;Node21 -->
<g id="edge29" class="edge">
<title>Node14&#45;&gt;Node21</title>
<path fill="none" stroke="midnightblue" d="M971.06,-240.81C989.79,-228.51 1012.95,-213.3 1027.11,-204.01"/>
<polygon fill="midnightblue" stroke="midnightblue" points="968.99,-237.98 962.55,-246.4 972.83,-243.83 968.99,-237.98"/>
</g>
<!-- Node15&#45;&gt;Node16 -->
<g id="edge20" class="edge">
<title>Node15&#45;&gt;Node16</title>
<path fill="none" stroke="midnightblue" d="M1212.19,-172.6C1223.51,-162.78 1236.71,-151.34 1246.83,-142.58"/>
<polygon fill="midnightblue" stroke="midnightblue" points="1209.61,-170.2 1204.34,-179.4 1214.19,-175.49 1209.61,-170.2"/>
</g>
<!-- Node15&#45;&gt;Node18 -->
<g id="edge23" class="edge">
<title>Node15&#45;&gt;Node18</title>
<path fill="none" stroke="midnightblue" d="M1133.23,-176.44C1099.35,-165.91 1056.4,-152.55 1024.44,-142.61"/>
<polygon fill="midnightblue" stroke="midnightblue" points="1132.39,-179.85 1142.98,-179.48 1134.47,-173.16 1132.39,-179.85"/>
</g>
<!-- Node20 -->
<g id="node20" class="node">
<title>Node20</title>
<g id="a_node20"><a xlink:href="location_8c.html" target="_top" xlink:title=" ">
<polygon fill="none" stroke="black" points="1057.07,-118 1057.07,-137 1191.07,-137 1191.07,-118 1057.07,-118"/>
<text text-anchor="middle" x="1124.07" y="-125" font-family="Helvetica,sans-Serif" font-size="10.00">src/WillyWeather/location.c</text>
</a>
</g>
</g>
<!-- Node15&#45;&gt;Node20 -->
<g id="edge26" class="edge">
<title>Node15&#45;&gt;Node20</title>
<path fill="none" stroke="midnightblue" d="M1166.9,-172C1155.22,-160.13 1141.35,-146.05 1132.63,-137.19"/>
<polygon fill="midnightblue" stroke="midnightblue" points="1164.67,-174.73 1174.18,-179.4 1169.66,-169.81 1164.67,-174.73"/>
</g>
<!-- Node16&#45;&gt;Node3 -->
<g id="edge21" class="edge">
<title>Node16&#45;&gt;Node3</title>
<path fill="none" stroke="midnightblue" d="M1199.48,-112.07C1011.32,-83.19 798.38,-72.08 711.71,-68.47"/>
<polygon fill="midnightblue" stroke="midnightblue" points="1199.13,-115.56 1209.55,-113.64 1200.21,-108.65 1199.13,-115.56"/>
</g>
<!-- Node17 -->
<g id="node17" class="node">
<title>Node17</title>
<g id="a_node17"><a xlink:href="precipitation_8c.html" target="_top" xlink:title=" ">
<polygon fill="none" stroke="black" points="1187.07,-56.5 1187.07,-75.5 1339.07,-75.5 1339.07,-56.5 1187.07,-56.5"/>
<text text-anchor="middle" x="1263.07" y="-63.5" font-family="Helvetica,sans-Serif" font-size="10.00">src/WillyWeather/precipitation.c</text>
</a>
</g>
</g>
<!-- Node16&#45;&gt;Node17 -->
<g id="edge22" class="edge">
<title>Node16&#45;&gt;Node17</title>
<path fill="none" stroke="midnightblue" d="M1263.07,-102.29C1263.07,-92.86 1263.07,-82.65 1263.07,-75.66"/>
<polygon fill="midnightblue" stroke="midnightblue" points="1259.57,-102.4 1263.07,-112.4 1266.57,-102.4 1259.57,-102.4"/>
</g>
<!-- Node18&#45;&gt;Node3 -->
<g id="edge24" class="edge">
<title>Node18&#45;&gt;Node3</title>
<path fill="none" stroke="midnightblue" d="M915.44,-112.88C913.97,-112.58 912.51,-112.29 911.07,-112 841.11,-97.96 759.36,-82.84 711.88,-74.19"/>
<polygon fill="midnightblue" stroke="midnightblue" points="914.77,-116.32 925.27,-114.9 916.18,-109.46 914.77,-116.32"/>
</g>
<!-- Node19 -->
<g id="node19" class="node">
<title>Node19</title>
<g id="a_node19"><a xlink:href="tide_8c.html" target="_top" xlink:title=" ">
<polygon fill="none" stroke="black" points="921.07,-56.5 921.07,-75.5 1037.07,-75.5 1037.07,-56.5 921.07,-56.5"/>
<text text-anchor="middle" x="979.07" y="-63.5" font-family="Helvetica,sans-Serif" font-size="10.00">src/WillyWeather/tide.c</text>
</a>
</g>
</g>
<!-- Node18&#45;&gt;Node19 -->
<g id="edge25" class="edge">
<title>Node18&#45;&gt;Node19</title>
<path fill="none" stroke="midnightblue" d="M979.07,-102.29C979.07,-92.86 979.07,-82.65 979.07,-75.66"/>
<polygon fill="midnightblue" stroke="midnightblue" points="975.57,-102.4 979.07,-112.4 982.57,-102.4 975.57,-102.4"/>
</g>
</g>
</svg>
