<?xml version="1.0" encoding="UTF-8" standalone="no"?>
<!DOCTYPE svg PUBLIC "-//W3C//DTD SVG 1.1//EN"
 "http://www.w3.org/Graphics/SVG/1.1/DTD/svg11.dtd">
<!-- Generated by graphviz version 2.49.3 (20211027.1534)
 -->
<!-- Title: src/http.c Pages: 1 -->
<svg width="647pt" height="252pt"
 viewBox="0.00 0.00 647.00 252.00" xmlns="http://www.w3.org/2000/svg" xmlns:xlink="http://www.w3.org/1999/xlink">
<g id="graph0" class="graph" transform="scale(1 1) rotate(0) translate(4 248)">
<title>src/http.c</title>
<!-- Node1 -->
<g id="node1" class="node">
<title>Node1</title>
<g id="a_node1"><a xlink:title=" ">
<polygon fill="#bfbfbf" stroke="black" points="105,-224.5 105,-243.5 162,-243.5 162,-224.5 105,-224.5"/>
<text text-anchor="middle" x="133.5" y="-231.5" font-family="Helvetica,sans-Serif" font-size="10.00">src/http.c</text>
</a>
</g>
</g>
<!-- Node2 -->
<g id="node2" class="node">
<title>Node2</title>
<g id="a_node2"><a xlink:href="http_8h.html" target="_top" xlink:title=" ">
<polygon fill="none" stroke="black" points="113,-168.5 113,-187.5 154,-187.5 154,-168.5 113,-168.5"/>
<text text-anchor="middle" x="133.5" y="-175.5" font-family="Helvetica,sans-Serif" font-size="10.00">http.h</text>
</a>
</g>
</g>
<!-- Node1&#45;&gt;Node2 -->
<g id="edge1" class="edge">
<title>Node1&#45;&gt;Node2</title>
<path fill="none" stroke="midnightblue" d="M133.5,-224.08C133.5,-217.01 133.5,-206.86 133.5,-197.99"/>
<polygon fill="midnightblue" stroke="midnightblue" points="137,-197.75 133.5,-187.75 130,-197.75 137,-197.75"/>
</g>
<!-- Node3 -->
<g id="node3" class="node">
<title>Node3</title>
<g id="a_node3"><a xlink:title=" ">
<polygon fill="none" stroke="#bfbfbf" points="0,-56.5 0,-75.5 47,-75.5 47,-56.5 0,-56.5"/>
<text text-anchor="middle" x="23.5" y="-63.5" font-family="Helvetica,sans-Serif" font-size="10.00">stdlib.h</text>
</a>
</g>
</g>
<!-- Node2&#45;&gt;Node3 -->
<g id="edge2" class="edge">
<title>Node2&#45;&gt;Node3</title>
<path fill="none" stroke="midnightblue" d="M124.87,-168.37C106.39,-149.89 62.79,-106.29 39.24,-82.74"/>
<polygon fill="midnightblue" stroke="midnightblue" points="41.64,-80.19 32.09,-75.59 36.69,-85.14 41.64,-80.19"/>
</g>
<!-- Node4 -->
<g id="node4" class="node">
<title>Node4</title>
<g id="a_node4"><a xlink:title=" ">
<polygon fill="none" stroke="#bfbfbf" points="65.5,-56.5 65.5,-75.5 113.5,-75.5 113.5,-56.5 65.5,-56.5"/>
<text text-anchor="middle" x="89.5" y="-63.5" font-family="Helvetica,sans-Serif" font-size="10.00">string.h</text>
</a>
</g>
</g>
<!-- Node2&#45;&gt;Node4 -->
<g id="edge3" class="edge">
<title>Node2&#45;&gt;Node4</title>
<path fill="none" stroke="midnightblue" d="M130.05,-168.37C122.88,-150.46 106.27,-108.92 96.68,-84.95"/>
<polygon fill="midnightblue" stroke="midnightblue" points="99.9,-83.58 92.94,-75.59 93.4,-86.18 99.9,-83.58"/>
</g>
<!-- Node5 -->
<g id="node5" class="node">
<title>Node5</title>
<g id="a_node5"><a xlink:title=" ">
<polygon fill="none" stroke="#bfbfbf" points="132,-56.5 132,-75.5 191,-75.5 191,-56.5 132,-56.5"/>
<text text-anchor="middle" x="161.5" y="-63.5" font-family="Helvetica,sans-Serif" font-size="10.00">curl/curl.h</text>
</a>
</g>
</g>
<!-- Node2&#45;&gt;Node5 -->
<g id="edge4" class="edge">
<title>Node2&#45;&gt;Node5</title>
<path fill="none" stroke="midnightblue" d="M135.7,-168.37C140.22,-150.62 150.64,-109.67 156.77,-85.6"/>
<polygon fill="midnightblue" stroke="midnightblue" points="160.24,-86.15 159.31,-75.59 153.45,-84.42 160.24,-86.15"/>
</g>
<!-- Node6 -->
<g id="node6" class="node">
<title>Node6</title>
<g id="a_node6"><a xlink:href="utils_8h.html" target="_top" xlink:title=" ">
<polygon fill="none" stroke="black" points="257.5,-112.5 257.5,-131.5 299.5,-131.5 299.5,-112.5 257.5,-112.5"/>
<text text-anchor="middle" x="278.5" y="-119.5" font-family="Helvetica,sans-Serif" font-size="10.00">utils.h</text>
</a>
</g>
</g>
<!-- Node2&#45;&gt;Node6 -->
<g id="edge5" class="edge">
<title>Node2&#45;&gt;Node6</title>
<path fill="none" stroke="midnightblue" d="M154.27,-169.26C178.79,-160.13 219.78,-144.87 247.92,-134.39"/>
<polygon fill="midnightblue" stroke="midnightblue" points="249.14,-137.67 257.29,-130.9 246.7,-131.11 249.14,-137.67"/>
</g>
<!-- Node6&#45;&gt;Node3 -->
<g id="edge6" class="edge">
<title>Node6&#45;&gt;Node3</title>
<path fill="none" stroke="midnightblue" d="M257.28,-117.18C219.27,-110.24 136.9,-94.74 57.42,-76.09"/>
<polygon fill="midnightblue" stroke="midnightblue" points="57.78,-72.58 47.24,-73.68 56.17,-79.39 57.78,-72.58"/>
</g>
<!-- Node6&#45;&gt;Node4 -->
<g id="edge7" class="edge">
<title>Node6&#45;&gt;Node4</title>
<path fill="none" stroke="midnightblue" d="M257.19,-114.91C224.66,-105.62 162.34,-87.81 123.51,-76.72"/>
<polygon fill="midnightblue" stroke="midnightblue" points="124.28,-73.3 113.7,-73.92 122.36,-80.03 124.28,-73.3"/>
</g>
<!-- Node6&#45;&gt;Node5 -->
<g id="edge8" class="edge">
<title>Node6&#45;&gt;Node5</title>
<path fill="none" stroke="midnightblue" d="M259.96,-112.44C240.88,-103.64 210.93,-89.81 189.06,-79.72"/>
<polygon fill="midnightblue" stroke="midnightblue" points="190.5,-76.53 179.95,-75.52 187.57,-82.88 190.5,-76.53"/>
</g>
<!-- Node7 -->
<g id="node7" class="node">
<title>Node7</title>
<g id="a_node7"><a xlink:title=" ">
<polygon fill="none" stroke="#bfbfbf" points="412.5,-56.5 412.5,-75.5 460.5,-75.5 460.5,-56.5 412.5,-56.5"/>
<text text-anchor="middle" x="436.5" y="-63.5" font-family="Helvetica,sans-Serif" font-size="10.00">stdint.h</text>
</a>
</g>
</g>
<!-- Node6&#45;&gt;Node7 -->
<g id="edge9" class="edge">
<title>Node6&#45;&gt;Node7</title>
<path fill="none" stroke="midnightblue" d="M299.81,-113.72C326.26,-104.68 371.68,-89.15 402.85,-78.5"/>
<polygon fill="midnightblue" stroke="midnightblue" points="404.1,-81.77 412.43,-75.23 401.84,-75.15 404.1,-81.77"/>
</g>
<!-- Node8 -->
<g id="node8" class="node">
<title>Node8</title>
<g id="a_node8"><a xlink:title=" ">
<polygon fill="none" stroke="#bfbfbf" points="479,-56.5 479,-75.5 562,-75.5 562,-56.5 479,-56.5"/>
<text text-anchor="middle" x="520.5" y="-63.5" font-family="Helvetica,sans-Serif" font-size="10.00">cjson/cJSON.h</text>
</a>
</g>
</g>
<!-- Node6&#45;&gt;Node8 -->
<g id="edge10" class="edge">
<title>Node6&#45;&gt;Node8</title>
<path fill="none" stroke="midnightblue" d="M299.55,-116.3C337.8,-107.77 419.58,-89.52 472.2,-77.78"/>
<polygon fill="midnightblue" stroke="midnightblue" points="473,-81.19 481.99,-75.59 471.47,-74.35 473,-81.19"/>
</g>
<!-- Node9 -->
<g id="node9" class="node">
<title>Node9</title>
<g id="a_node9"><a xlink:title=" ">
<polygon fill="none" stroke="#bfbfbf" points="580,-56.5 580,-75.5 639,-75.5 639,-56.5 580,-56.5"/>
<text text-anchor="middle" x="609.5" y="-63.5" font-family="Helvetica,sans-Serif" font-size="10.00">sys/stat.h</text>
</a>
</g>
</g>
<!-- Node6&#45;&gt;Node9 -->
<g id="edge11" class="edge">
<title>Node6&#45;&gt;Node9</title>
<path fill="none" stroke="midnightblue" d="M299.56,-118.36C346.39,-112.35 462.88,-96.72 569.7,-76.23"/>
<polygon fill="midnightblue" stroke="midnightblue" points="570.53,-79.64 579.68,-74.3 569.19,-72.77 570.53,-79.64"/>
</g>
<!-- Node10 -->
<g id="node10" class="node">
<title>Node10</title>
<g id="a_node10"><a xlink:title=" ">
<polygon fill="none" stroke="#bfbfbf" points="209,-56.5 209,-75.5 274,-75.5 274,-56.5 209,-56.5"/>
<text text-anchor="middle" x="241.5" y="-63.5" font-family="Helvetica,sans-Serif" font-size="10.00">sys/types.h</text>
</a>
</g>
</g>
<!-- Node6&#45;&gt;Node10 -->
<g id="edge12" class="edge">
<title>Node6&#45;&gt;Node10</title>
<path fill="none" stroke="midnightblue" d="M272.39,-112.08C267.22,-104.53 259.65,-93.49 253.31,-84.23"/>
<polygon fill="midnightblue" stroke="midnightblue" points="256.04,-82.02 247.5,-75.75 250.26,-85.98 256.04,-82.02"/>
</g>
<!-- Node11 -->
<g id="node11" class="node">
<title>Node11</title>
<g id="a_node11"><a xlink:title=" ">
<polygon fill="none" stroke="#bfbfbf" points="292.5,-56.5 292.5,-75.5 338.5,-75.5 338.5,-56.5 292.5,-56.5"/>
<text text-anchor="middle" x="315.5" y="-63.5" font-family="Helvetica,sans-Serif" font-size="10.00">errno.h</text>
</a>
</g>
</g>
<!-- Node6&#45;&gt;Node11 -->
<g id="edge13" class="edge">
<title>Node6&#45;&gt;Node11</title>
<path fill="none" stroke="midnightblue" d="M284.61,-112.08C289.78,-104.53 297.35,-93.49 303.69,-84.23"/>
<polygon fill="midnightblue" stroke="midnightblue" points="306.74,-85.98 309.5,-75.75 300.96,-82.02 306.74,-85.98"/>
</g>
<!-- Node12 -->
<g id="node12" class="node">
<title>Node12</title>
<g id="a_node12"><a xlink:href="log_8h.html" target="_top" xlink:title=" ">
<polygon fill="none" stroke="black" points="357,-56.5 357,-75.5 394,-75.5 394,-56.5 357,-56.5"/>
<text text-anchor="middle" x="375.5" y="-63.5" font-family="Helvetica,sans-Serif" font-size="10.00">log.h</text>
</a>
</g>
</g>
<!-- Node6&#45;&gt;Node12 -->
<g id="edge14" class="edge">
<title>Node6&#45;&gt;Node12</title>
<path fill="none" stroke="midnightblue" d="M294.08,-112.32C309.5,-103.74 333.31,-90.49 351.21,-80.52"/>
<polygon fill="midnightblue" stroke="midnightblue" points="352.92,-83.58 359.95,-75.65 349.51,-77.46 352.92,-83.58"/>
</g>
<!-- Node13 -->
<g id="node13" class="node">
<title>Node13</title>
<g id="a_node13"><a xlink:title=" ">
<polygon fill="none" stroke="#bfbfbf" points="251,-0.5 251,-19.5 296,-19.5 296,-0.5 251,-0.5"/>
<text text-anchor="middle" x="273.5" y="-7.5" font-family="Helvetica,sans-Serif" font-size="10.00">stdio.h</text>
</a>
</g>
</g>
<!-- Node12&#45;&gt;Node13 -->
<g id="edge15" class="edge">
<title>Node12&#45;&gt;Node13</title>
<path fill="none" stroke="midnightblue" d="M359.11,-56.32C342.83,-47.7 317.63,-34.36 298.78,-24.39"/>
<polygon fill="midnightblue" stroke="midnightblue" points="300.32,-21.24 289.85,-19.65 297.05,-27.43 300.32,-21.24"/>
</g>
<!-- Node14 -->
<g id="node14" class="node">
<title>Node14</title>
<g id="a_node14"><a xlink:title=" ">
<polygon fill="none" stroke="#bfbfbf" points="314,-0.5 314,-19.5 365,-19.5 365,-0.5 314,-0.5"/>
<text text-anchor="middle" x="339.5" y="-7.5" font-family="Helvetica,sans-Serif" font-size="10.00">stdarg.h</text>
</a>
</g>
</g>
<!-- Node12&#45;&gt;Node14 -->
<g id="edge16" class="edge">
<title>Node12&#45;&gt;Node14</title>
<path fill="none" stroke="midnightblue" d="M369.56,-56.08C364.52,-48.53 357.16,-37.49 350.99,-28.23"/>
<polygon fill="midnightblue" stroke="midnightblue" points="353.79,-26.13 345.33,-19.75 347.97,-30.01 353.79,-26.13"/>
</g>
<!-- Node15 -->
<g id="node15" class="node">
<title>Node15</title>
<g id="a_node15"><a xlink:title=" ">
<polygon fill="none" stroke="#bfbfbf" points="383.5,-0.5 383.5,-19.5 439.5,-19.5 439.5,-0.5 383.5,-0.5"/>
<text text-anchor="middle" x="411.5" y="-7.5" font-family="Helvetica,sans-Serif" font-size="10.00">stdbool.h</text>
</a>
</g>
</g>
<!-- Node12&#45;&gt;Node15 -->
<g id="edge17" class="edge">
<title>Node12&#45;&gt;Node15</title>
<path fill="none" stroke="midnightblue" d="M381.44,-56.08C386.48,-48.53 393.84,-37.49 400.01,-28.23"/>
<polygon fill="midnightblue" stroke="midnightblue" points="403.03,-30.01 405.67,-19.75 397.21,-26.13 403.03,-30.01"/>
</g>
<!-- Node16 -->
<g id="node16" class="node">
<title>Node16</title>
<g id="a_node16"><a xlink:title=" ">
<polygon fill="none" stroke="#bfbfbf" points="458,-0.5 458,-19.5 501,-19.5 501,-0.5 458,-0.5"/>
<text text-anchor="middle" x="479.5" y="-7.5" font-family="Helvetica,sans-Serif" font-size="10.00">time.h</text>
</a>
</g>
</g>
<!-- Node12&#45;&gt;Node16 -->
<g id="edge18" class="edge">
<title>Node12&#45;&gt;Node16</title>
<path fill="none" stroke="midnightblue" d="M392.21,-56.32C408.81,-47.7 434.5,-34.36 453.72,-24.39"/>
<polygon fill="midnightblue" stroke="midnightblue" points="455.57,-27.37 462.83,-19.65 452.34,-21.16 455.57,-27.37"/>
</g>
</g>
</svg>
