<?xml version="1.0" encoding="UTF-8" standalone="no"?>
<!DOCTYPE svg PUBLIC "-//W3C//DTD SVG 1.1//EN"
 "http://www.w3.org/Graphics/SVG/1.1/DTD/svg11.dtd">
<!-- Generated by graphviz version 2.49.3 (20211027.1534)
 -->
<!-- Title: include/http.h Pages: 1 -->
<svg width="1544pt" height="419pt"
 viewBox="0.00 0.00 1543.50 419.00" xmlns="http://www.w3.org/2000/svg" xmlns:xlink="http://www.w3.org/1999/xlink">
<g id="graph0" class="graph" transform="scale(1 1) rotate(0) translate(4 415)">
<title>include/http.h</title>
<!-- Node1 -->
<g id="node1" class="node">
<title>Node1</title>
<g id="a_node1"><a xlink:title=" ">
<polygon fill="#bfbfbf" stroke="black" points="876,-391.5 876,-410.5 950,-410.5 950,-391.5 876,-391.5"/>
<text text-anchor="middle" x="913" y="-398.5" font-family="Helvetica,sans-Serif" font-size="10.00">include/http.h</text>
</a>
</g>
</g>
<!-- Node2 -->
<g id="node2" class="node">
<title>Node2</title>
<g id="a_node2"><a xlink:href="harvest__area_8h.html" target="_top" xlink:title=" ">
<polygon fill="none" stroke="black" points="188,-257.5 188,-287.5 298,-287.5 298,-257.5 188,-257.5"/>
<text text-anchor="start" x="196" y="-275.5" font-family="Helvetica,sans-Serif" font-size="10.00">include/FoodAuthority</text>
<text text-anchor="middle" x="243" y="-264.5" font-family="Helvetica,sans-Serif" font-size="10.00">/harvest_area.h</text>
</a>
</g>
</g>
<!-- Node1&#45;&gt;Node2 -->
<g id="edge1" class="edge">
<title>Node1&#45;&gt;Node2</title>
<path fill="none" stroke="midnightblue" d="M865.69,-398.55C732.5,-394.19 360.84,-379.9 312,-355 282.77,-340.09 260.97,-306.84 250.31,-287.74"/>
<polygon fill="midnightblue" stroke="midnightblue" points="865.87,-402.06 875.98,-398.89 866.09,-395.06 865.87,-402.06"/>
</g>
<!-- Node3 -->
<g id="node3" class="node">
<title>Node3</title>
<g id="a_node3"><a xlink:href="harvest__areas_8h.html" target="_top" xlink:title=" ">
<polygon fill="none" stroke="black" points="9,-123.5 9,-153.5 119,-153.5 119,-123.5 9,-123.5"/>
<text text-anchor="start" x="17" y="-141.5" font-family="Helvetica,sans-Serif" font-size="10.00">include/FoodAuthority</text>
<text text-anchor="middle" x="64" y="-130.5" font-family="Helvetica,sans-Serif" font-size="10.00">/harvest_areas.h</text>
</a>
</g>
</g>
<!-- Node1&#45;&gt;Node3 -->
<g id="edge18" class="edge">
<title>Node1&#45;&gt;Node3</title>
<path fill="none" stroke="midnightblue" d="M865.37,-399.67C736.44,-398.28 382.98,-391.2 273,-355 167.48,-320.27 115.5,-318.36 62,-221 50.41,-199.91 55.1,-170.89 59.55,-153.77"/>
<polygon fill="midnightblue" stroke="midnightblue" points="865.66,-403.17 875.7,-399.77 865.73,-396.17 865.66,-403.17"/>
</g>
<!-- Node4 -->
<g id="node4" class="node">
<title>Node4</title>
<g id="a_node4"><a xlink:href="main_8h.html" target="_top" xlink:title=" ">
<polygon fill="none" stroke="black" points="580.5,-62 580.5,-81 659.5,-81 659.5,-62 580.5,-62"/>
<text text-anchor="middle" x="620" y="-69" font-family="Helvetica,sans-Serif" font-size="10.00">include/main.h</text>
</a>
</g>
</g>
<!-- Node1&#45;&gt;Node4 -->
<g id="edge47" class="edge">
<title>Node1&#45;&gt;Node4</title>
<path fill="none" stroke="midnightblue" d="M874.37,-388.14C811.26,-366.47 687.71,-313.94 634,-221 607.05,-174.37 614.65,-105.48 618.45,-81.29"/>
<polygon fill="midnightblue" stroke="midnightblue" points="873.37,-391.49 883.96,-391.35 875.59,-384.86 873.37,-391.49"/>
</g>
<!-- Node10 -->
<g id="node10" class="node">
<title>Node10</title>
<g id="a_node10"><a xlink:href="timeseries_8h.html" target="_top" xlink:title=" ">
<polygon fill="none" stroke="black" points="175.5,-129 175.5,-148 320.5,-148 320.5,-129 175.5,-129"/>
<text text-anchor="middle" x="248" y="-136" font-family="Helvetica,sans-Serif" font-size="10.00">include/IBM_EIS/timeseries.h</text>
</a>
</g>
</g>
<!-- Node1&#45;&gt;Node10 -->
<g id="edge23" class="edge">
<title>Node1&#45;&gt;Node10</title>
<path fill="none" stroke="midnightblue" d="M865.64,-398.19C803.34,-394.7 691.09,-384.51 600,-355 478.2,-315.54 451.29,-292.37 345,-221 310.12,-197.58 273.29,-163.74 256.84,-148.07"/>
<polygon fill="midnightblue" stroke="midnightblue" points="865.77,-401.71 875.94,-398.74 866.14,-394.71 865.77,-401.71"/>
</g>
<!-- Node14 -->
<g id="node14" class="node">
<title>Node14</title>
<g id="a_node14"><a xlink:href="_i_b_m___e_i_s_2authenticate_8h.html" target="_top" xlink:title=" ">
<polygon fill="none" stroke="black" points="642.5,-196 642.5,-215 795.5,-215 795.5,-196 642.5,-196"/>
<text text-anchor="middle" x="719" y="-203" font-family="Helvetica,sans-Serif" font-size="10.00">include/IBM_EIS/authenticate.h</text>
</a>
</g>
</g>
<!-- Node1&#45;&gt;Node14 -->
<g id="edge19" class="edge">
<title>Node1&#45;&gt;Node14</title>
<path fill="none" stroke="midnightblue" d="M894.98,-384.75C870.47,-363.75 825.59,-324.38 790,-288 765.33,-262.78 738.6,-230.65 726.15,-215.36"/>
<polygon fill="midnightblue" stroke="midnightblue" points="892.87,-387.55 902.75,-391.38 897.41,-382.22 892.87,-387.55"/>
</g>
<!-- Node16 -->
<g id="node16" class="node">
<title>Node16</title>
<g id="a_node16"><a xlink:href="_ubidots_2authenticate_8h.html" target="_top" xlink:title=" ">
<polygon fill="none" stroke="black" points="1248,-330 1248,-349 1396,-349 1396,-330 1248,-330"/>
<text text-anchor="middle" x="1322" y="-337" font-family="Helvetica,sans-Serif" font-size="10.00">include/Ubidots/authenticate.h</text>
</a>
</g>
</g>
<!-- Node1&#45;&gt;Node16 -->
<g id="edge24" class="edge">
<title>Node1&#45;&gt;Node16</title>
<path fill="none" stroke="midnightblue" d="M960.08,-393.76C1022.69,-385.38 1136.77,-369.82 1234,-355 1246.09,-353.16 1259.1,-351.07 1271.31,-349.07"/>
<polygon fill="midnightblue" stroke="midnightblue" points="959.56,-390.3 950.11,-395.09 960.49,-397.24 959.56,-390.3"/>
</g>
<!-- Node17 -->
<g id="node17" class="node">
<title>Node17</title>
<g id="a_node17"><a xlink:href="devices_8h.html" target="_top" xlink:title=" ">
<polygon fill="none" stroke="black" points="1258,-263 1258,-282 1386,-282 1386,-263 1258,-263"/>
<text text-anchor="middle" x="1322" y="-270" font-family="Helvetica,sans-Serif" font-size="10.00">include/Ubidots/devices.h</text>
</a>
</g>
</g>
<!-- Node1&#45;&gt;Node17 -->
<g id="edge29" class="edge">
<title>Node1&#45;&gt;Node17</title>
<path fill="none" stroke="midnightblue" d="M960.48,-399.11C1018.21,-396.55 1117.63,-387.32 1196,-355 1217.78,-346.02 1219.37,-337.02 1239,-324 1262.33,-308.52 1290.31,-291.88 1307.09,-282.1"/>
<polygon fill="midnightblue" stroke="midnightblue" points="960.06,-395.63 950.2,-399.52 960.33,-402.62 960.06,-395.63"/>
</g>
<!-- Node20 -->
<g id="node20" class="node">
<title>Node20</title>
<g id="a_node20"><a xlink:href="_willy_weather_2authenticate_8h.html" target="_top" xlink:title=" ">
<polygon fill="none" stroke="black" points="985.5,-324.5 985.5,-354.5 1092.5,-354.5 1092.5,-324.5 985.5,-324.5"/>
<text text-anchor="start" x="993.5" y="-342.5" font-family="Helvetica,sans-Serif" font-size="10.00">include/WillyWeather</text>
<text text-anchor="middle" x="1039" y="-331.5" font-family="Helvetica,sans-Serif" font-size="10.00">/authenticate.h</text>
</a>
</g>
</g>
<!-- Node1&#45;&gt;Node20 -->
<g id="edge30" class="edge">
<title>Node1&#45;&gt;Node20</title>
<path fill="none" stroke="midnightblue" d="M940.11,-387.2C960.47,-377.58 988.34,-364.42 1009.3,-354.52"/>
<polygon fill="midnightblue" stroke="midnightblue" points="938.6,-384.04 931.05,-391.48 941.59,-390.37 938.6,-384.04"/>
</g>
<!-- Node21 -->
<g id="node21" class="node">
<title>Node21</title>
<g id="a_node21"><a xlink:href="location_8h.html" target="_top" xlink:title=" ">
<polygon fill="none" stroke="black" points="798.5,-257.5 798.5,-287.5 905.5,-287.5 905.5,-257.5 798.5,-257.5"/>
<text text-anchor="start" x="806.5" y="-275.5" font-family="Helvetica,sans-Serif" font-size="10.00">include/WillyWeather</text>
<text text-anchor="middle" x="852" y="-264.5" font-family="Helvetica,sans-Serif" font-size="10.00">/location.h</text>
</a>
</g>
</g>
<!-- Node1&#45;&gt;Node21 -->
<g id="edge44" class="edge">
<title>Node1&#45;&gt;Node21</title>
<path fill="none" stroke="midnightblue" d="M904.38,-382.13C892.19,-356.84 870.14,-311.12 858.94,-287.89"/>
<polygon fill="midnightblue" stroke="midnightblue" points="901.31,-383.82 908.81,-391.31 907.62,-380.78 901.31,-383.82"/>
</g>
<!-- Node22 -->
<g id="node22" class="node">
<title>Node22</title>
<g id="a_node22"><a xlink:href="precipitation_8h.html" target="_top" xlink:title=" ">
<polygon fill="none" stroke="black" points="966.5,-190.5 966.5,-220.5 1073.5,-220.5 1073.5,-190.5 966.5,-190.5"/>
<text text-anchor="start" x="974.5" y="-208.5" font-family="Helvetica,sans-Serif" font-size="10.00">include/WillyWeather</text>
<text text-anchor="middle" x="1020" y="-197.5" font-family="Helvetica,sans-Serif" font-size="10.00">/precipitation.h</text>
</a>
</g>
</g>
<!-- Node1&#45;&gt;Node22 -->
<g id="edge45" class="edge">
<title>Node1&#45;&gt;Node22</title>
<path fill="none" stroke="midnightblue" d="M914.62,-381.18C917.88,-352.23 927.4,-296.01 954,-257 964.32,-241.86 980.65,-229.31 994.48,-220.51"/>
<polygon fill="midnightblue" stroke="midnightblue" points="911.1,-381.19 913.59,-391.48 918.06,-381.88 911.1,-381.19"/>
</g>
<!-- Node24 -->
<g id="node24" class="node">
<title>Node24</title>
<g id="a_node24"><a xlink:href="tide_8h.html" target="_top" xlink:title=" ">
<polygon fill="none" stroke="black" points="1091.5,-190.5 1091.5,-220.5 1198.5,-220.5 1198.5,-190.5 1091.5,-190.5"/>
<text text-anchor="start" x="1099.5" y="-208.5" font-family="Helvetica,sans-Serif" font-size="10.00">include/WillyWeather</text>
<text text-anchor="middle" x="1145" y="-197.5" font-family="Helvetica,sans-Serif" font-size="10.00">/tide.h</text>
</a>
</g>
</g>
<!-- Node1&#45;&gt;Node24 -->
<g id="edge46" class="edge">
<title>Node1&#45;&gt;Node24</title>
<path fill="none" stroke="midnightblue" d="M960.25,-398.35C1001.08,-394.82 1059.96,-384.49 1102,-355 1131.16,-334.54 1135.79,-322.13 1146,-288 1152.81,-265.22 1150.25,-237.24 1147.69,-220.7"/>
<polygon fill="midnightblue" stroke="midnightblue" points="959.73,-394.88 950.03,-399.12 960.26,-401.86 959.73,-394.88"/>
</g>
<!-- Node28 -->
<g id="node28" class="node">
<title>Node28</title>
<g id="a_node28"><a xlink:href="http_8c.html" target="_top" xlink:title=" ">
<polygon fill="none" stroke="black" points="1414.5,-330 1414.5,-349 1471.5,-349 1471.5,-330 1414.5,-330"/>
<text text-anchor="middle" x="1443" y="-337" font-family="Helvetica,sans-Serif" font-size="10.00">src/http.c</text>
</a>
</g>
</g>
<!-- Node1&#45;&gt;Node28 -->
<g id="edge48" class="edge">
<title>Node1&#45;&gt;Node28</title>
<path fill="none" stroke="midnightblue" d="M960.53,-399.94C1049.13,-398.88 1245.02,-392.1 1405,-355 1411.19,-353.56 1417.73,-351.35 1423.6,-349.07"/>
<polygon fill="midnightblue" stroke="midnightblue" points="960.23,-396.44 950.27,-400.04 960.3,-403.44 960.23,-396.44"/>
</g>
<!-- Node2&#45;&gt;Node3 -->
<g id="edge2" class="edge">
<title>Node2&#45;&gt;Node3</title>
<path fill="none" stroke="midnightblue" d="M177.39,-266.88C143.66,-261.06 104.59,-248.36 80,-221 63.33,-202.45 61.88,-171.75 62.7,-153.8"/>
<polygon fill="midnightblue" stroke="midnightblue" points="177.25,-270.4 187.67,-268.48 178.32,-263.48 177.25,-270.4"/>
</g>
<!-- Node2&#45;&gt;Node4 -->
<g id="edge6" class="edge">
<title>Node2&#45;&gt;Node4</title>
<path fill="none" stroke="midnightblue" d="M242.94,-247.03C241.77,-229.68 237.82,-206.62 226,-190 207.98,-164.65 181.32,-181.06 166,-154 159.21,-142.01 156.81,-133.27 166,-123 172.91,-115.28 471.14,-86.51 580.41,-76.2"/>
<polygon fill="midnightblue" stroke="midnightblue" points="239.46,-247.63 243.36,-257.48 246.46,-247.35 239.46,-247.63"/>
</g>
<!-- Node7 -->
<g id="node7" class="node">
<title>Node7</title>
<g id="a_node7"><a xlink:href="transform_8h.html" target="_top" xlink:title=" ">
<polygon fill="none" stroke="black" points="354.5,-196 354.5,-215 453.5,-215 453.5,-196 354.5,-196"/>
<text text-anchor="middle" x="404" y="-203" font-family="Helvetica,sans-Serif" font-size="10.00">include/transform.h</text>
</a>
</g>
</g>
<!-- Node2&#45;&gt;Node7 -->
<g id="edge7" class="edge">
<title>Node2&#45;&gt;Node7</title>
<path fill="none" stroke="midnightblue" d="M287.28,-253.62C318.45,-241.04 358.76,-224.77 382.93,-215.01"/>
<polygon fill="midnightblue" stroke="midnightblue" points="285.9,-250.41 277.93,-257.4 288.52,-256.9 285.9,-250.41"/>
</g>
<!-- Node13 -->
<g id="node13" class="node">
<title>Node13</title>
<g id="a_node13"><a xlink:href="harvest__area_8c.html" target="_top" xlink:title=" ">
<polygon fill="none" stroke="black" points="89,-190.5 89,-220.5 217,-220.5 217,-190.5 89,-190.5"/>
<text text-anchor="start" x="97" y="-208.5" font-family="Helvetica,sans-Serif" font-size="10.00">src/FoodAuthority/harvest</text>
<text text-anchor="middle" x="153" y="-197.5" font-family="Helvetica,sans-Serif" font-size="10.00">_area.c</text>
</a>
</g>
</g>
<!-- Node2&#45;&gt;Node13 -->
<g id="edge17" class="edge">
<title>Node2&#45;&gt;Node13</title>
<path fill="none" stroke="midnightblue" d="M215.24,-251.45C201.39,-241.45 184.98,-229.6 172.49,-220.58"/>
<polygon fill="midnightblue" stroke="midnightblue" points="213.32,-254.38 223.47,-257.4 217.41,-248.7 213.32,-254.38"/>
</g>
<!-- Node3&#45;&gt;Node4 -->
<g id="edge3" class="edge">
<title>Node3&#45;&gt;Node4</title>
<path fill="none" stroke="midnightblue" d="M129.19,-123.61C130.47,-123.4 131.74,-123.2 133,-123 219.18,-109.51 480.22,-85.19 580.33,-76.08"/>
<polygon fill="midnightblue" stroke="midnightblue" points="128.51,-120.18 119.27,-125.36 129.72,-127.07 128.51,-120.18"/>
</g>
<!-- Node6 -->
<g id="node6" class="node">
<title>Node6</title>
<g id="a_node6"><a xlink:href="harvest__areas_8c.html" target="_top" xlink:title=" ">
<polygon fill="none" stroke="black" points="0,-56.5 0,-86.5 128,-86.5 128,-56.5 0,-56.5"/>
<text text-anchor="start" x="8" y="-74.5" font-family="Helvetica,sans-Serif" font-size="10.00">src/FoodAuthority/harvest</text>
<text text-anchor="middle" x="64" y="-63.5" font-family="Helvetica,sans-Serif" font-size="10.00">_areas.c</text>
</a>
</g>
</g>
<!-- Node3&#45;&gt;Node6 -->
<g id="edge5" class="edge">
<title>Node3&#45;&gt;Node6</title>
<path fill="none" stroke="midnightblue" d="M64,-113.11C64,-104.15 64,-94.32 64,-86.58"/>
<polygon fill="midnightblue" stroke="midnightblue" points="60.5,-113.4 64,-123.4 67.5,-113.4 60.5,-113.4"/>
</g>
<!-- Node5 -->
<g id="node5" class="node">
<title>Node5</title>
<g id="a_node5"><a xlink:href="main_8c.html" target="_top" xlink:title=" ">
<polygon fill="none" stroke="black" points="589,-0.5 589,-19.5 651,-19.5 651,-0.5 589,-0.5"/>
<text text-anchor="middle" x="620" y="-7.5" font-family="Helvetica,sans-Serif" font-size="10.00">src/main.c</text>
</a>
</g>
</g>
<!-- Node4&#45;&gt;Node5 -->
<g id="edge4" class="edge">
<title>Node4&#45;&gt;Node5</title>
<path fill="none" stroke="midnightblue" d="M620,-51.82C620,-41 620,-27.9 620,-19.51"/>
<polygon fill="midnightblue" stroke="midnightblue" points="616.5,-51.98 620,-61.98 623.5,-51.98 616.5,-51.98"/>
</g>
<!-- Node7&#45;&gt;Node3 -->
<g id="edge11" class="edge">
<title>Node7&#45;&gt;Node3</title>
<path fill="none" stroke="midnightblue" d="M349.02,-193.99C285.72,-181.89 182.36,-162.13 119.04,-150.02"/>
<polygon fill="midnightblue" stroke="midnightblue" points="348.72,-197.5 359.2,-195.94 350.04,-190.62 348.72,-197.5"/>
</g>
<!-- Node7&#45;&gt;Node4 -->
<g id="edge15" class="edge">
<title>Node7&#45;&gt;Node4</title>
<path fill="none" stroke="midnightblue" d="M463.75,-195.13C495.53,-187.89 533.94,-175.36 563,-154 589.99,-134.16 608.81,-97.58 616.34,-81.03"/>
<polygon fill="midnightblue" stroke="midnightblue" points="462.72,-191.77 453.68,-197.29 464.19,-198.61 462.72,-191.77"/>
</g>
<!-- Node8 -->
<g id="node8" class="node">
<title>Node8</title>
<g id="a_node8"><a xlink:href="historical__weather_8h.html" target="_top" xlink:title=" ">
<polygon fill="none" stroke="black" points="338.5,-123.5 338.5,-153.5 453.5,-153.5 453.5,-123.5 338.5,-123.5"/>
<text text-anchor="start" x="346.5" y="-141.5" font-family="Helvetica,sans-Serif" font-size="10.00">include/BOM/historical</text>
<text text-anchor="middle" x="396" y="-130.5" font-family="Helvetica,sans-Serif" font-size="10.00">_weather.h</text>
</a>
</g>
</g>
<!-- Node7&#45;&gt;Node8 -->
<g id="edge8" class="edge">
<title>Node7&#45;&gt;Node8</title>
<path fill="none" stroke="midnightblue" d="M401.69,-185.74C400.43,-175.49 398.89,-163 397.73,-153.59"/>
<polygon fill="midnightblue" stroke="midnightblue" points="398.23,-186.24 402.92,-195.73 405.17,-185.38 398.23,-186.24"/>
</g>
<!-- Node7&#45;&gt;Node10 -->
<g id="edge12" class="edge">
<title>Node7&#45;&gt;Node10</title>
<path fill="none" stroke="midnightblue" d="M373.88,-191.95C342.99,-179.08 295.77,-159.4 268.8,-148.17"/>
<polygon fill="midnightblue" stroke="midnightblue" points="372.71,-195.25 383.28,-195.87 375.4,-188.79 372.71,-195.25"/>
</g>
<!-- Node12 -->
<g id="node12" class="node">
<title>Node12</title>
<g id="a_node12"><a xlink:href="transform_8c.html" target="_top" xlink:title=" ">
<polygon fill="none" stroke="black" points="472,-129 472,-148 554,-148 554,-129 472,-129"/>
<text text-anchor="middle" x="513" y="-136" font-family="Helvetica,sans-Serif" font-size="10.00">src/transform.c</text>
</a>
</g>
</g>
<!-- Node7&#45;&gt;Node12 -->
<g id="edge16" class="edge">
<title>Node7&#45;&gt;Node12</title>
<path fill="none" stroke="midnightblue" d="M427.57,-190.44C449.16,-177.57 480.42,-158.93 498.53,-148.13"/>
<polygon fill="midnightblue" stroke="midnightblue" points="425.5,-187.61 418.7,-195.73 429.08,-193.62 425.5,-187.61"/>
</g>
<!-- Node8&#45;&gt;Node4 -->
<g id="edge9" class="edge">
<title>Node8&#45;&gt;Node4</title>
<path fill="none" stroke="midnightblue" d="M454,-120.67C497.78,-107.97 556.03,-91.06 590.61,-81.03"/>
<polygon fill="midnightblue" stroke="midnightblue" points="452.96,-117.33 444.33,-123.48 454.91,-124.05 452.96,-117.33"/>
</g>
<!-- Node9 -->
<g id="node9" class="node">
<title>Node9</title>
<g id="a_node9"><a xlink:href="historical__weather_8c.html" target="_top" xlink:title=" ">
<polygon fill="none" stroke="black" points="347,-56.5 347,-86.5 445,-86.5 445,-56.5 347,-56.5"/>
<text text-anchor="start" x="355" y="-74.5" font-family="Helvetica,sans-Serif" font-size="10.00">src/BOM/historical</text>
<text text-anchor="middle" x="396" y="-63.5" font-family="Helvetica,sans-Serif" font-size="10.00">_weather.c</text>
</a>
</g>
</g>
<!-- Node8&#45;&gt;Node9 -->
<g id="edge10" class="edge">
<title>Node8&#45;&gt;Node9</title>
<path fill="none" stroke="midnightblue" d="M396,-113.11C396,-104.15 396,-94.32 396,-86.58"/>
<polygon fill="midnightblue" stroke="midnightblue" points="392.5,-113.4 396,-123.4 399.5,-113.4 392.5,-113.4"/>
</g>
<!-- Node10&#45;&gt;Node4 -->
<g id="edge13" class="edge">
<title>Node10&#45;&gt;Node4</title>
<path fill="none" stroke="midnightblue" d="M305.46,-127.18C313.36,-125.77 321.38,-124.34 329,-123 418.89,-107.16 524.46,-88.93 580.45,-79.29"/>
<polygon fill="midnightblue" stroke="midnightblue" points="304.76,-123.74 295.53,-128.95 305.99,-130.63 304.76,-123.74"/>
</g>
<!-- Node11 -->
<g id="node11" class="node">
<title>Node11</title>
<g id="a_node11"><a xlink:href="timeseries_8c.html" target="_top" xlink:title=" ">
<polygon fill="none" stroke="black" points="184,-62 184,-81 312,-81 312,-62 184,-62"/>
<text text-anchor="middle" x="248" y="-69" font-family="Helvetica,sans-Serif" font-size="10.00">src/IBM_EIS/timeseries.c</text>
</a>
</g>
</g>
<!-- Node10&#45;&gt;Node11 -->
<g id="edge14" class="edge">
<title>Node10&#45;&gt;Node11</title>
<path fill="none" stroke="midnightblue" d="M248,-118.54C248,-106.17 248,-90.62 248,-81.13"/>
<polygon fill="midnightblue" stroke="midnightblue" points="244.5,-118.73 248,-128.73 251.5,-118.73 244.5,-118.73"/>
</g>
<!-- Node14&#45;&gt;Node4 -->
<g id="edge21" class="edge">
<title>Node14&#45;&gt;Node4</title>
<path fill="none" stroke="midnightblue" d="M750.66,-191.61C766.43,-183.38 784.01,-171.01 793,-154 799.44,-141.82 801.27,-134.02 793,-123 777,-101.66 705.57,-86.34 659.65,-78.5"/>
<polygon fill="midnightblue" stroke="midnightblue" points="749.12,-188.47 741.66,-195.99 752.18,-194.76 749.12,-188.47"/>
</g>
<!-- Node14&#45;&gt;Node10 -->
<g id="edge20" class="edge">
<title>Node14&#45;&gt;Node10</title>
<path fill="none" stroke="midnightblue" d="M634.41,-194.74C555.31,-185.34 433.94,-170.18 329,-154 317.42,-152.22 304.95,-150.09 293.35,-148.02"/>
<polygon fill="midnightblue" stroke="midnightblue" points="634.47,-198.27 644.81,-195.98 635.29,-191.32 634.47,-198.27"/>
</g>
<!-- Node15 -->
<g id="node15" class="node">
<title>Node15</title>
<g id="a_node15"><a xlink:href="_i_b_m___e_i_s_2authenticate_8c.html" target="_top" xlink:title=" ">
<polygon fill="none" stroke="black" points="648,-129 648,-148 784,-148 784,-129 648,-129"/>
<text text-anchor="middle" x="716" y="-136" font-family="Helvetica,sans-Serif" font-size="10.00">src/IBM_EIS/authenticate.c</text>
</a>
</g>
</g>
<!-- Node14&#45;&gt;Node15 -->
<g id="edge22" class="edge">
<title>Node14&#45;&gt;Node15</title>
<path fill="none" stroke="midnightblue" d="M718.12,-185.54C717.55,-173.17 716.84,-157.62 716.4,-148.13"/>
<polygon fill="midnightblue" stroke="midnightblue" points="714.64,-185.91 718.6,-195.73 721.63,-185.58 714.64,-185.91"/>
</g>
<!-- Node16&#45;&gt;Node17 -->
<g id="edge25" class="edge">
<title>Node16&#45;&gt;Node17</title>
<path fill="none" stroke="midnightblue" d="M1322,-319.54C1322,-307.17 1322,-291.62 1322,-282.13"/>
<polygon fill="midnightblue" stroke="midnightblue" points="1318.5,-319.73 1322,-329.73 1325.5,-319.73 1318.5,-319.73"/>
</g>
<!-- Node19 -->
<g id="node19" class="node">
<title>Node19</title>
<g id="a_node19"><a xlink:href="_ubidots_2authenticate_8c.html" target="_top" xlink:title=" ">
<polygon fill="none" stroke="black" points="1404.5,-263 1404.5,-282 1535.5,-282 1535.5,-263 1404.5,-263"/>
<text text-anchor="middle" x="1470" y="-270" font-family="Helvetica,sans-Serif" font-size="10.00">src/Ubidots/authenticate.c</text>
</a>
</g>
</g>
<!-- Node16&#45;&gt;Node19 -->
<g id="edge28" class="edge">
<title>Node16&#45;&gt;Node19</title>
<path fill="none" stroke="midnightblue" d="M1350.96,-325.78C1380.27,-312.91 1424.79,-293.35 1450.27,-282.17"/>
<polygon fill="midnightblue" stroke="midnightblue" points="1349.4,-322.64 1341.65,-329.87 1352.22,-329.05 1349.4,-322.64"/>
</g>
<!-- Node17&#45;&gt;Node4 -->
<g id="edge26" class="edge">
<title>Node17&#45;&gt;Node4</title>
<path fill="none" stroke="midnightblue" d="M1309.57,-254.62C1302.78,-245.02 1294.46,-232.62 1288,-221 1264.81,-179.27 1283,-150.54 1244,-123 1196.33,-89.34 789.53,-76.62 659.67,-73.39"/>
<polygon fill="midnightblue" stroke="midnightblue" points="1306.82,-256.78 1315.51,-262.85 1312.5,-252.69 1306.82,-256.78"/>
</g>
<!-- Node18 -->
<g id="node18" class="node">
<title>Node18</title>
<g id="a_node18"><a xlink:href="devices_8c.html" target="_top" xlink:title=" ">
<polygon fill="none" stroke="black" points="1296.5,-196 1296.5,-215 1407.5,-215 1407.5,-196 1296.5,-196"/>
<text text-anchor="middle" x="1352" y="-203" font-family="Helvetica,sans-Serif" font-size="10.00">src/Ubidots/devices.c</text>
</a>
</g>
</g>
<!-- Node17&#45;&gt;Node18 -->
<g id="edge27" class="edge">
<title>Node17&#45;&gt;Node18</title>
<path fill="none" stroke="midnightblue" d="M1330.4,-253.29C1336.17,-240.81 1343.55,-224.81 1348.02,-215.13"/>
<polygon fill="midnightblue" stroke="midnightblue" points="1327.06,-252.19 1326.05,-262.73 1333.41,-255.12 1327.06,-252.19"/>
</g>
<!-- Node20&#45;&gt;Node4 -->
<g id="edge42" class="edge">
<title>Node20&#45;&gt;Node4</title>
<path fill="none" stroke="midnightblue" d="M1091.36,-320.63C1133.34,-302.93 1188.37,-271.11 1208,-221 1224.15,-179.77 1223.92,-151.47 1190,-123 1149.53,-89.03 782.65,-76.64 659.85,-73.43"/>
<polygon fill="midnightblue" stroke="midnightblue" points="1090.03,-317.4 1082.08,-324.41 1092.67,-323.88 1090.03,-317.4"/>
</g>
<!-- Node20&#45;&gt;Node21 -->
<g id="edge31" class="edge">
<title>Node20&#45;&gt;Node21</title>
<path fill="none" stroke="midnightblue" d="M988.92,-321.09C958.73,-310.6 920.78,-297.41 892.5,-287.58"/>
<polygon fill="midnightblue" stroke="midnightblue" points="987.83,-324.42 998.42,-324.4 990.13,-317.81 987.83,-324.42"/>
</g>
<!-- Node20&#45;&gt;Node24 -->
<g id="edge41" class="edge">
<title>Node20&#45;&gt;Node24</title>
<path fill="none" stroke="midnightblue" d="M1085.75,-319.82C1100.22,-311.96 1114.98,-301.45 1125,-288 1139.97,-267.9 1143.85,-238.02 1144.79,-220.57"/>
<polygon fill="midnightblue" stroke="midnightblue" points="1084.14,-316.71 1076.83,-324.37 1087.32,-322.94 1084.14,-316.71"/>
</g>
<!-- Node27 -->
<g id="node27" class="node">
<title>Node27</title>
<g id="a_node27"><a xlink:href="_willy_weather_2authenticate_8c.html" target="_top" xlink:title=" ">
<polygon fill="none" stroke="black" points="962.5,-263 962.5,-282 1115.5,-282 1115.5,-263 962.5,-263"/>
<text text-anchor="middle" x="1039" y="-270" font-family="Helvetica,sans-Serif" font-size="10.00">src/WillyWeather/authenticate.c</text>
</a>
</g>
</g>
<!-- Node20&#45;&gt;Node27 -->
<g id="edge43" class="edge">
<title>Node20&#45;&gt;Node27</title>
<path fill="none" stroke="midnightblue" d="M1039,-314.25C1039,-303.02 1039,-290.38 1039,-282.19"/>
<polygon fill="midnightblue" stroke="midnightblue" points="1035.5,-314.4 1039,-324.4 1042.5,-314.4 1035.5,-314.4"/>
</g>
<!-- Node21&#45;&gt;Node3 -->
<g id="edge32" class="edge">
<title>Node21&#45;&gt;Node3</title>
<path fill="none" stroke="midnightblue" d="M788.05,-268.89C691.37,-264.09 502.54,-251.43 345,-221 299.43,-212.2 175.72,-174.43 108.66,-153.54"/>
<polygon fill="midnightblue" stroke="midnightblue" points="788.09,-272.39 798.25,-269.38 788.43,-265.4 788.09,-272.39"/>
</g>
<!-- Node21&#45;&gt;Node7 -->
<g id="edge39" class="edge">
<title>Node21&#45;&gt;Node7</title>
<path fill="none" stroke="midnightblue" d="M788.32,-262.26C698.17,-249.18 535.24,-225.54 453.54,-213.69"/>
<polygon fill="midnightblue" stroke="midnightblue" points="788.01,-265.75 798.41,-263.72 789.01,-258.82 788.01,-265.75"/>
</g>
<!-- Node21&#45;&gt;Node22 -->
<g id="edge33" class="edge">
<title>Node21&#45;&gt;Node22</title>
<path fill="none" stroke="midnightblue" d="M898.05,-253.68C925,-243.26 958.54,-230.28 983.62,-220.58"/>
<polygon fill="midnightblue" stroke="midnightblue" points="896.52,-250.52 888.45,-257.4 899.04,-257.05 896.52,-250.52"/>
</g>
<!-- Node21&#45;&gt;Node24 -->
<g id="edge36" class="edge">
<title>Node21&#45;&gt;Node24</title>
<path fill="none" stroke="midnightblue" d="M915.65,-257.85C962.07,-247.82 1026.49,-233.78 1083,-221 1085.7,-220.39 1088.46,-219.76 1091.24,-219.12"/>
<polygon fill="midnightblue" stroke="midnightblue" points="914.76,-254.46 905.73,-259.99 916.24,-261.3 914.76,-254.46"/>
</g>
<!-- Node26 -->
<g id="node26" class="node">
<title>Node26</title>
<g id="a_node26"><a xlink:href="location_8c.html" target="_top" xlink:title=" ">
<polygon fill="none" stroke="black" points="814,-196 814,-215 948,-215 948,-196 814,-196"/>
<text text-anchor="middle" x="881" y="-203" font-family="Helvetica,sans-Serif" font-size="10.00">src/WillyWeather/location.c</text>
</a>
</g>
</g>
<!-- Node21&#45;&gt;Node26 -->
<g id="edge40" class="edge">
<title>Node21&#45;&gt;Node26</title>
<path fill="none" stroke="midnightblue" d="M862.51,-247.94C867.6,-236.54 873.4,-223.55 877.12,-215.19"/>
<polygon fill="midnightblue" stroke="midnightblue" points="859.17,-246.84 858.29,-257.4 865.56,-249.69 859.17,-246.84"/>
</g>
<!-- Node22&#45;&gt;Node4 -->
<g id="edge34" class="edge">
<title>Node22&#45;&gt;Node4</title>
<path fill="none" stroke="midnightblue" d="M1021.2,-180.29C1020.7,-161.85 1016.74,-137.28 1001,-123 951.58,-78.17 746.84,-72.56 659.62,-72.26"/>
<polygon fill="midnightblue" stroke="midnightblue" points="1017.7,-180.3 1021.15,-190.32 1024.7,-180.33 1017.7,-180.3"/>
</g>
<!-- Node23 -->
<g id="node23" class="node">
<title>Node23</title>
<g id="a_node23"><a xlink:href="precipitation_8c.html" target="_top" xlink:title=" ">
<polygon fill="none" stroke="black" points="840,-129 840,-148 992,-148 992,-129 840,-129"/>
<text text-anchor="middle" x="916" y="-136" font-family="Helvetica,sans-Serif" font-size="10.00">src/WillyWeather/precipitation.c</text>
</a>
</g>
</g>
<!-- Node22&#45;&gt;Node23 -->
<g id="edge35" class="edge">
<title>Node22&#45;&gt;Node23</title>
<path fill="none" stroke="midnightblue" d="M988.76,-184.97C969.04,-172.65 944.55,-157.35 929.61,-148.01"/>
<polygon fill="midnightblue" stroke="midnightblue" points="987.1,-188.06 997.43,-190.4 990.81,-182.13 987.1,-188.06"/>
</g>
<!-- Node24&#45;&gt;Node4 -->
<g id="edge37" class="edge">
<title>Node24&#45;&gt;Node4</title>
<path fill="none" stroke="midnightblue" d="M1163.55,-182.2C1176.13,-164.26 1188,-139.43 1173,-123 1138.51,-85.22 781.07,-75.37 659.91,-73.11"/>
<polygon fill="midnightblue" stroke="midnightblue" points="1160.61,-180.28 1157.42,-190.38 1166.22,-184.47 1160.61,-180.28"/>
</g>
<!-- Node25 -->
<g id="node25" class="node">
<title>Node25</title>
<g id="a_node25"><a xlink:href="tide_8c.html" target="_top" xlink:title=" ">
<polygon fill="none" stroke="black" points="1048,-129 1048,-148 1164,-148 1164,-129 1048,-129"/>
<text text-anchor="middle" x="1106" y="-136" font-family="Helvetica,sans-Serif" font-size="10.00">src/WillyWeather/tide.c</text>
</a>
</g>
</g>
<!-- Node24&#45;&gt;Node25 -->
<g id="edge38" class="edge">
<title>Node24&#45;&gt;Node25</title>
<path fill="none" stroke="midnightblue" d="M1131.28,-181.63C1124.34,-170.07 1116.33,-156.71 1111.22,-148.19"/>
<polygon fill="midnightblue" stroke="midnightblue" points="1128.39,-183.62 1136.54,-190.4 1134.39,-180.02 1128.39,-183.62"/>
</g>
</g>
</svg>
