<?xml version="1.0" encoding="UTF-8" standalone="no"?>
<!DOCTYPE svg PUBLIC "-//W3C//DTD SVG 1.1//EN"
 "http://www.w3.org/Graphics/SVG/1.1/DTD/svg11.dtd">
<!-- Generated by graphviz version 2.49.3 (20211027.1534)
 -->
<!-- Title: include/http.h Pages: 1 -->
<svg width="1525pt" height="341pt"
 viewBox="0.00 0.00 1524.50 341.00" xmlns="http://www.w3.org/2000/svg" xmlns:xlink="http://www.w3.org/1999/xlink">
<g id="graph0" class="graph" transform="scale(1 1) rotate(0) translate(4 337)">
<title>include/http.h</title>
<!-- Node1 -->
<g id="node1" class="node">
<title>Node1</title>
<g id="a_node1"><a xlink:title=" ">
<polygon fill="#bfbfbf" stroke="black" points="840,-313.5 840,-332.5 914,-332.5 914,-313.5 840,-313.5"/>
<text text-anchor="middle" x="877" y="-320.5" font-family="Helvetica,sans-Serif" font-size="10.00">include/http.h</text>
</a>
</g>
</g>
<!-- Node2 -->
<g id="node2" class="node">
<title>Node2</title>
<g id="a_node2"><a xlink:href="harvest__area_8h.html" target="_top" xlink:title=" ">
<polygon fill="none" stroke="black" points="170,-246.5 170,-276.5 280,-276.5 280,-246.5 170,-246.5"/>
<text text-anchor="start" x="178" y="-264.5" font-family="Helvetica,sans-Serif" font-size="10.00">include/FoodAuthority</text>
<text text-anchor="middle" x="225" y="-253.5" font-family="Helvetica,sans-Serif" font-size="10.00">/harvest_area.h</text>
</a>
</g>
</g>
<!-- Node1&#45;&gt;Node2 -->
<g id="edge1" class="edge">
<title>Node1&#45;&gt;Node2</title>
<path fill="none" stroke="midnightblue" d="M829.86,-319.43C733.37,-313.89 506.47,-299.51 317,-277 305.12,-275.59 292.42,-273.78 280.37,-271.93"/>
<polygon fill="midnightblue" stroke="midnightblue" points="829.7,-322.92 839.88,-320 830.1,-315.94 829.7,-322.92"/>
</g>
<!-- Node3 -->
<g id="node3" class="node">
<title>Node3</title>
<g id="a_node3"><a xlink:href="harvest__areas_8h.html" target="_top" xlink:title=" ">
<polygon fill="none" stroke="black" points="9,-179.5 9,-209.5 119,-209.5 119,-179.5 9,-179.5"/>
<text text-anchor="start" x="17" y="-197.5" font-family="Helvetica,sans-Serif" font-size="10.00">include/FoodAuthority</text>
<text text-anchor="middle" x="64" y="-186.5" font-family="Helvetica,sans-Serif" font-size="10.00">/harvest_areas.h</text>
</a>
</g>
</g>
<!-- Node1&#45;&gt;Node3 -->
<g id="edge8" class="edge">
<title>Node1&#45;&gt;Node3</title>
<path fill="none" stroke="midnightblue" d="M829.71,-320.74C680.02,-316.52 222.75,-301.72 161,-277 124.65,-262.45 91.96,-228.73 75.4,-209.54"/>
<polygon fill="midnightblue" stroke="midnightblue" points="829.86,-324.25 839.95,-321.03 830.05,-317.25 829.86,-324.25"/>
</g>
<!-- Node4 -->
<g id="node4" class="node">
<title>Node4</title>
<g id="a_node4"><a xlink:href="main_8h.html" target="_top" xlink:title=" ">
<polygon fill="none" stroke="black" points="672.5,-56.5 672.5,-75.5 751.5,-75.5 751.5,-56.5 672.5,-56.5"/>
<text text-anchor="middle" x="712" y="-63.5" font-family="Helvetica,sans-Serif" font-size="10.00">include/main.h</text>
</a>
</g>
</g>
<!-- Node1&#45;&gt;Node4 -->
<g id="edge37" class="edge">
<title>Node1&#45;&gt;Node4</title>
<path fill="none" stroke="midnightblue" d="M829.79,-319.47C735.76,-314 528.34,-299.72 461,-277 406.4,-258.58 378.32,-260.18 350,-210 280.66,-87.16 565.11,-69.57 672.47,-67.26"/>
<polygon fill="midnightblue" stroke="midnightblue" points="829.69,-322.97 839.87,-320.04 830.09,-315.98 829.69,-322.97"/>
</g>
<!-- Node8 -->
<g id="node8" class="node">
<title>Node8</title>
<g id="a_node8"><a xlink:href="_i_b_m___e_i_s_2authenticate_8h.html" target="_top" xlink:title=" ">
<polygon fill="none" stroke="black" points="470.5,-252 470.5,-271 623.5,-271 623.5,-252 470.5,-252"/>
<text text-anchor="middle" x="547" y="-259" font-family="Helvetica,sans-Serif" font-size="10.00">include/IBM_EIS/authenticate.h</text>
</a>
</g>
</g>
<!-- Node1&#45;&gt;Node8 -->
<g id="edge9" class="edge">
<title>Node1&#45;&gt;Node8</title>
<path fill="none" stroke="midnightblue" d="M829.77,-313.48C767.03,-302.17 656.85,-282.31 594.15,-271"/>
<polygon fill="midnightblue" stroke="midnightblue" points="829.32,-316.96 839.79,-315.29 830.57,-310.07 829.32,-316.96"/>
</g>
<!-- Node9 -->
<g id="node9" class="node">
<title>Node9</title>
<g id="a_node9"><a xlink:href="timeseries_8h.html" target="_top" xlink:title=" ">
<polygon fill="none" stroke="black" points="551.5,-185 551.5,-204 696.5,-204 696.5,-185 551.5,-185"/>
<text text-anchor="middle" x="624" y="-192" font-family="Helvetica,sans-Serif" font-size="10.00">include/IBM_EIS/timeseries.h</text>
</a>
</g>
</g>
<!-- Node1&#45;&gt;Node9 -->
<g id="edge15" class="edge">
<title>Node1&#45;&gt;Node9</title>
<path fill="none" stroke="midnightblue" d="M833.35,-310.67C806.54,-302.9 771.92,-291.41 743,-277 699.97,-255.56 654.55,-220.44 634.53,-204.21"/>
<polygon fill="midnightblue" stroke="midnightblue" points="832.64,-314.1 843.21,-313.46 834.54,-307.37 832.64,-314.1"/>
</g>
<!-- Node12 -->
<g id="node12" class="node">
<title>Node12</title>
<g id="a_node12"><a xlink:href="_ubidots_2authenticate_8h.html" target="_top" xlink:title=" ">
<polygon fill="none" stroke="black" points="752,-252 752,-271 900,-271 900,-252 752,-252"/>
<text text-anchor="middle" x="826" y="-259" font-family="Helvetica,sans-Serif" font-size="10.00">include/Ubidots/authenticate.h</text>
</a>
</g>
</g>
<!-- Node1&#45;&gt;Node12 -->
<g id="edge16" class="edge">
<title>Node1&#45;&gt;Node12</title>
<path fill="none" stroke="midnightblue" d="M863,-305.67C853.39,-294.45 841.01,-280.02 833.29,-271.01"/>
<polygon fill="midnightblue" stroke="midnightblue" points="860.53,-308.16 869.69,-313.48 865.84,-303.6 860.53,-308.16"/>
</g>
<!-- Node13 -->
<g id="node13" class="node">
<title>Node13</title>
<g id="a_node13"><a xlink:href="devices_8h.html" target="_top" xlink:title=" ">
<polygon fill="none" stroke="black" points="864,-185 864,-204 992,-204 992,-185 864,-185"/>
<text text-anchor="middle" x="928" y="-192" font-family="Helvetica,sans-Serif" font-size="10.00">include/Ubidots/devices.h</text>
</a>
</g>
</g>
<!-- Node1&#45;&gt;Node13 -->
<g id="edge21" class="edge">
<title>Node1&#45;&gt;Node13</title>
<path fill="none" stroke="midnightblue" d="M891.14,-305.45C897.43,-297.33 904.43,-287.14 909,-277 920.23,-252.1 925.21,-219.82 927.07,-204.43"/>
<polygon fill="midnightblue" stroke="midnightblue" points="888.32,-303.36 884.74,-313.34 893.76,-307.77 888.32,-303.36"/>
</g>
<!-- Node16 -->
<g id="node16" class="node">
<title>Node16</title>
<g id="a_node16"><a xlink:href="_willy_weather_2authenticate_8h.html" target="_top" xlink:title=" ">
<polygon fill="none" stroke="black" points="1048.5,-246.5 1048.5,-276.5 1155.5,-276.5 1155.5,-246.5 1048.5,-246.5"/>
<text text-anchor="start" x="1056.5" y="-264.5" font-family="Helvetica,sans-Serif" font-size="10.00">include/WillyWeather</text>
<text text-anchor="middle" x="1102" y="-253.5" font-family="Helvetica,sans-Serif" font-size="10.00">/authenticate.h</text>
</a>
</g>
</g>
<!-- Node1&#45;&gt;Node16 -->
<g id="edge22" class="edge">
<title>Node1&#45;&gt;Node16</title>
<path fill="none" stroke="midnightblue" d="M919.13,-310.86C955.87,-301.14 1009.33,-287.01 1048.97,-276.52"/>
<polygon fill="midnightblue" stroke="midnightblue" points="918.01,-307.53 909.24,-313.48 919.8,-314.3 918.01,-307.53"/>
</g>
<!-- Node17 -->
<g id="node17" class="node">
<title>Node17</title>
<g id="a_node17"><a xlink:href="location_8h.html" target="_top" xlink:title=" ">
<polygon fill="none" stroke="black" points="1295.5,-179.5 1295.5,-209.5 1402.5,-209.5 1402.5,-179.5 1295.5,-179.5"/>
<text text-anchor="start" x="1303.5" y="-197.5" font-family="Helvetica,sans-Serif" font-size="10.00">include/WillyWeather</text>
<text text-anchor="middle" x="1349" y="-186.5" font-family="Helvetica,sans-Serif" font-size="10.00">/location.h</text>
</a>
</g>
</g>
<!-- Node1&#45;&gt;Node17 -->
<g id="edge34" class="edge">
<title>Node1&#45;&gt;Node17</title>
<path fill="none" stroke="midnightblue" d="M924.32,-318.43C982.08,-313.21 1082.27,-301.33 1165,-277 1223.66,-259.75 1288.1,-228 1323.01,-209.63"/>
<polygon fill="midnightblue" stroke="midnightblue" points="923.7,-314.97 914.05,-319.33 924.31,-321.94 923.7,-314.97"/>
</g>
<!-- Node18 -->
<g id="node18" class="node">
<title>Node18</title>
<g id="a_node18"><a xlink:href="precipitation_8h.html" target="_top" xlink:title=" ">
<polygon fill="none" stroke="black" points="1370.5,-112.5 1370.5,-142.5 1477.5,-142.5 1477.5,-112.5 1370.5,-112.5"/>
<text text-anchor="start" x="1378.5" y="-130.5" font-family="Helvetica,sans-Serif" font-size="10.00">include/WillyWeather</text>
<text text-anchor="middle" x="1424" y="-119.5" font-family="Helvetica,sans-Serif" font-size="10.00">/precipitation.h</text>
</a>
</g>
</g>
<!-- Node1&#45;&gt;Node18 -->
<g id="edge35" class="edge">
<title>Node1&#45;&gt;Node18</title>
<path fill="none" stroke="midnightblue" d="M924.33,-319.4C1043.34,-311.77 1349.95,-285.09 1412,-210 1427.76,-190.93 1427.7,-160.41 1426,-142.63"/>
<polygon fill="midnightblue" stroke="midnightblue" points="923.84,-315.92 914.08,-320.04 924.28,-322.91 923.84,-315.92"/>
</g>
<!-- Node20 -->
<g id="node20" class="node">
<title>Node20</title>
<g id="a_node20"><a xlink:href="tide_8h.html" target="_top" xlink:title=" ">
<polygon fill="none" stroke="black" points="1086.5,-112.5 1086.5,-142.5 1193.5,-142.5 1193.5,-112.5 1086.5,-112.5"/>
<text text-anchor="start" x="1094.5" y="-130.5" font-family="Helvetica,sans-Serif" font-size="10.00">include/WillyWeather</text>
<text text-anchor="middle" x="1140" y="-119.5" font-family="Helvetica,sans-Serif" font-size="10.00">/tide.h</text>
</a>
</g>
</g>
<!-- Node1&#45;&gt;Node20 -->
<g id="edge36" class="edge">
<title>Node1&#45;&gt;Node20</title>
<path fill="none" stroke="midnightblue" d="M896.87,-307.38C945.94,-271.28 1072.42,-178.22 1120.79,-142.63"/>
<polygon fill="midnightblue" stroke="midnightblue" points="894.62,-304.69 888.64,-313.44 898.77,-310.33 894.62,-304.69"/>
</g>
<!-- Node24 -->
<g id="node24" class="node">
<title>Node24</title>
<g id="a_node24"><a xlink:href="http_8c.html" target="_top" xlink:title=" ">
<polygon fill="none" stroke="black" points="1459.5,-252 1459.5,-271 1516.5,-271 1516.5,-252 1459.5,-252"/>
<text text-anchor="middle" x="1488" y="-259" font-family="Helvetica,sans-Serif" font-size="10.00">src/http.c</text>
</a>
</g>
</g>
<!-- Node1&#45;&gt;Node24 -->
<g id="edge38" class="edge">
<title>Node1&#45;&gt;Node24</title>
<path fill="none" stroke="midnightblue" d="M924.52,-322.16C1022.77,-321.63 1254.96,-315.95 1445,-277 1451.95,-275.58 1459.32,-273.36 1465.97,-271.09"/>
<polygon fill="midnightblue" stroke="midnightblue" points="924.31,-318.66 914.32,-322.2 924.34,-325.66 924.31,-318.66"/>
</g>
<!-- Node2&#45;&gt;Node3 -->
<g id="edge2" class="edge">
<title>Node2&#45;&gt;Node3</title>
<path fill="none" stroke="midnightblue" d="M180.52,-242.54C154.76,-232.14 122.8,-219.24 98.87,-209.58"/>
<polygon fill="midnightblue" stroke="midnightblue" points="179.48,-245.9 190.07,-246.4 182.1,-239.41 179.48,-245.9"/>
</g>
<!-- Node2&#45;&gt;Node4 -->
<g id="edge6" class="edge">
<title>Node2&#45;&gt;Node4</title>
<path fill="none" stroke="midnightblue" d="M248.9,-239.29C257.56,-230.78 266.94,-220.51 274,-210 300.54,-170.53 278.72,-140.23 317,-112 372.69,-70.94 583.44,-66.59 672.21,-66.64"/>
<polygon fill="midnightblue" stroke="midnightblue" points="246.39,-236.85 241.56,-246.28 251.21,-241.93 246.39,-236.85"/>
</g>
<!-- Node7 -->
<g id="node7" class="node">
<title>Node7</title>
<g id="a_node7"><a xlink:href="harvest__area_8c.html" target="_top" xlink:title=" ">
<polygon fill="none" stroke="black" points="137,-179.5 137,-209.5 265,-209.5 265,-179.5 137,-179.5"/>
<text text-anchor="start" x="145" y="-197.5" font-family="Helvetica,sans-Serif" font-size="10.00">src/FoodAuthority/harvest</text>
<text text-anchor="middle" x="201" y="-186.5" font-family="Helvetica,sans-Serif" font-size="10.00">_area.c</text>
</a>
</g>
</g>
<!-- Node2&#45;&gt;Node7 -->
<g id="edge7" class="edge">
<title>Node2&#45;&gt;Node7</title>
<path fill="none" stroke="midnightblue" d="M216.32,-236.99C212.93,-227.8 209.15,-217.58 206.2,-209.58"/>
<polygon fill="midnightblue" stroke="midnightblue" points="213.05,-238.23 219.79,-246.4 219.61,-235.8 213.05,-238.23"/>
</g>
<!-- Node3&#45;&gt;Node4 -->
<g id="edge3" class="edge">
<title>Node3&#45;&gt;Node4</title>
<path fill="none" stroke="midnightblue" d="M102.96,-175.21C145.3,-156.18 215.45,-127.08 279,-112 421.11,-78.28 595.41,-69.83 672.32,-67.71"/>
<polygon fill="midnightblue" stroke="midnightblue" points="101.5,-172.03 93.84,-179.35 104.39,-178.4 101.5,-172.03"/>
</g>
<!-- Node6 -->
<g id="node6" class="node">
<title>Node6</title>
<g id="a_node6"><a xlink:href="harvest__areas_8c.html" target="_top" xlink:title=" ">
<polygon fill="none" stroke="black" points="0,-112.5 0,-142.5 128,-142.5 128,-112.5 0,-112.5"/>
<text text-anchor="start" x="8" y="-130.5" font-family="Helvetica,sans-Serif" font-size="10.00">src/FoodAuthority/harvest</text>
<text text-anchor="middle" x="64" y="-119.5" font-family="Helvetica,sans-Serif" font-size="10.00">_areas.c</text>
</a>
</g>
</g>
<!-- Node3&#45;&gt;Node6 -->
<g id="edge5" class="edge">
<title>Node3&#45;&gt;Node6</title>
<path fill="none" stroke="midnightblue" d="M64,-169.11C64,-160.15 64,-150.32 64,-142.58"/>
<polygon fill="midnightblue" stroke="midnightblue" points="60.5,-169.4 64,-179.4 67.5,-169.4 60.5,-169.4"/>
</g>
<!-- Node5 -->
<g id="node5" class="node">
<title>Node5</title>
<g id="a_node5"><a xlink:href="main_8c.html" target="_top" xlink:title=" ">
<polygon fill="none" stroke="black" points="681,-0.5 681,-19.5 743,-19.5 743,-0.5 681,-0.5"/>
<text text-anchor="middle" x="712" y="-7.5" font-family="Helvetica,sans-Serif" font-size="10.00">src/main.c</text>
</a>
</g>
</g>
<!-- Node4&#45;&gt;Node5 -->
<g id="edge4" class="edge">
<title>Node4&#45;&gt;Node5</title>
<path fill="none" stroke="midnightblue" d="M712,-45.8C712,-36.91 712,-26.78 712,-19.75"/>
<polygon fill="midnightblue" stroke="midnightblue" points="708.5,-46.08 712,-56.08 715.5,-46.08 708.5,-46.08"/>
</g>
<!-- Node8&#45;&gt;Node4 -->
<g id="edge13" class="edge">
<title>Node8&#45;&gt;Node4</title>
<path fill="none" stroke="midnightblue" d="M540.32,-242.07C530.47,-211.31 516.32,-149.2 547,-112 562.82,-92.81 628.57,-79.47 672.15,-72.54"/>
<polygon fill="midnightblue" stroke="midnightblue" points="537.13,-243.55 543.66,-251.89 543.75,-241.29 537.13,-243.55"/>
</g>
<!-- Node8&#45;&gt;Node9 -->
<g id="edge10" class="edge">
<title>Node8&#45;&gt;Node9</title>
<path fill="none" stroke="midnightblue" d="M565.11,-245.21C580.28,-232.41 601.39,-214.59 613.78,-204.13"/>
<polygon fill="midnightblue" stroke="midnightblue" points="562.77,-242.61 557.38,-251.73 567.28,-247.96 562.77,-242.61"/>
</g>
<!-- Node11 -->
<g id="node11" class="node">
<title>Node11</title>
<g id="a_node11"><a xlink:href="_i_b_m___e_i_s_2authenticate_8c.html" target="_top" xlink:title=" ">
<polygon fill="none" stroke="black" points="359,-185 359,-204 495,-204 495,-185 359,-185"/>
<text text-anchor="middle" x="427" y="-192" font-family="Helvetica,sans-Serif" font-size="10.00">src/IBM_EIS/authenticate.c</text>
</a>
</g>
</g>
<!-- Node8&#45;&gt;Node11 -->
<g id="edge14" class="edge">
<title>Node8&#45;&gt;Node11</title>
<path fill="none" stroke="midnightblue" d="M522,-246.96C498.21,-234.07 463.13,-215.07 442.93,-204.13"/>
<polygon fill="midnightblue" stroke="midnightblue" points="520.36,-250.05 530.82,-251.73 523.69,-243.89 520.36,-250.05"/>
</g>
<!-- Node9&#45;&gt;Node4 -->
<g id="edge11" class="edge">
<title>Node9&#45;&gt;Node4</title>
<path fill="none" stroke="midnightblue" d="M651.12,-179.73C665.6,-171.06 682.54,-158.56 693,-143 707.27,-121.78 710.83,-90.74 711.71,-75.75"/>
<polygon fill="midnightblue" stroke="midnightblue" points="649.03,-176.9 642.06,-184.87 652.48,-182.99 649.03,-176.9"/>
</g>
<!-- Node10 -->
<g id="node10" class="node">
<title>Node10</title>
<g id="a_node10"><a xlink:href="timeseries_8c.html" target="_top" xlink:title=" ">
<polygon fill="none" stroke="black" points="556,-118 556,-137 684,-137 684,-118 556,-118"/>
<text text-anchor="middle" x="620" y="-125" font-family="Helvetica,sans-Serif" font-size="10.00">src/IBM_EIS/timeseries.c</text>
</a>
</g>
</g>
<!-- Node9&#45;&gt;Node10 -->
<g id="edge12" class="edge">
<title>Node9&#45;&gt;Node10</title>
<path fill="none" stroke="midnightblue" d="M622.83,-174.54C622.07,-162.17 621.12,-146.62 620.53,-137.13"/>
<polygon fill="midnightblue" stroke="midnightblue" points="619.35,-174.97 623.46,-184.73 626.34,-174.54 619.35,-174.97"/>
</g>
<!-- Node12&#45;&gt;Node13 -->
<g id="edge17" class="edge">
<title>Node12&#45;&gt;Node13</title>
<path fill="none" stroke="midnightblue" d="M848.33,-246.27C868.52,-233.4 897.59,-214.88 914.46,-204.13"/>
<polygon fill="midnightblue" stroke="midnightblue" points="846.31,-243.41 839.76,-251.73 850.07,-249.31 846.31,-243.41"/>
</g>
<!-- Node15 -->
<g id="node15" class="node">
<title>Node15</title>
<g id="a_node15"><a xlink:href="_ubidots_2authenticate_8c.html" target="_top" xlink:title=" ">
<polygon fill="none" stroke="black" points="714.5,-185 714.5,-204 845.5,-204 845.5,-185 714.5,-185"/>
<text text-anchor="middle" x="780" y="-192" font-family="Helvetica,sans-Serif" font-size="10.00">src/Ubidots/authenticate.c</text>
</a>
</g>
</g>
<!-- Node12&#45;&gt;Node15 -->
<g id="edge20" class="edge">
<title>Node12&#45;&gt;Node15</title>
<path fill="none" stroke="midnightblue" d="M813.9,-243.4C804.96,-230.77 793.17,-214.1 786.11,-204.13"/>
<polygon fill="midnightblue" stroke="midnightblue" points="811.16,-245.59 819.8,-251.73 816.88,-241.55 811.16,-245.59"/>
</g>
<!-- Node13&#45;&gt;Node4 -->
<g id="edge18" class="edge">
<title>Node13&#45;&gt;Node4</title>
<path fill="none" stroke="midnightblue" d="M928.68,-174.84C928.3,-156.33 924.67,-128.43 908,-112 886.24,-90.56 802.64,-77.4 751.91,-71.23"/>
<polygon fill="midnightblue" stroke="midnightblue" points="925.18,-174.93 928.59,-184.96 932.18,-175 925.18,-174.93"/>
</g>
<!-- Node14 -->
<g id="node14" class="node">
<title>Node14</title>
<g id="a_node14"><a xlink:href="devices_8c.html" target="_top" xlink:title=" ">
<polygon fill="none" stroke="black" points="788.5,-118 788.5,-137 899.5,-137 899.5,-118 788.5,-118"/>
<text text-anchor="middle" x="844" y="-125" font-family="Helvetica,sans-Serif" font-size="10.00">src/Ubidots/devices.c</text>
</a>
</g>
</g>
<!-- Node13&#45;&gt;Node14 -->
<g id="edge19" class="edge">
<title>Node13&#45;&gt;Node14</title>
<path fill="none" stroke="midnightblue" d="M908.7,-178.57C892.12,-165.74 868.79,-147.69 855.15,-137.13"/>
<polygon fill="midnightblue" stroke="midnightblue" points="906.62,-181.38 916.67,-184.73 910.9,-175.85 906.62,-181.38"/>
</g>
<!-- Node16&#45;&gt;Node4 -->
<g id="edge32" class="edge">
<title>Node16&#45;&gt;Node4</title>
<path fill="none" stroke="midnightblue" d="M1083.59,-238.69C1054.52,-205.77 994.59,-143.83 930,-112 872.11,-83.47 796.98,-73.01 751.73,-69.19"/>
<polygon fill="midnightblue" stroke="midnightblue" points="1081.1,-241.16 1090.3,-246.4 1086.38,-236.56 1081.1,-241.16"/>
</g>
<!-- Node16&#45;&gt;Node17 -->
<g id="edge23" class="edge">
<title>Node16&#45;&gt;Node17</title>
<path fill="none" stroke="midnightblue" d="M1165.01,-243.92C1205.32,-233.31 1257.04,-219.7 1295.38,-209.61"/>
<polygon fill="midnightblue" stroke="midnightblue" points="1164.07,-240.55 1155.29,-246.48 1165.85,-247.32 1164.07,-240.55"/>
</g>
<!-- Node16&#45;&gt;Node20 -->
<g id="edge31" class="edge">
<title>Node16&#45;&gt;Node20</title>
<path fill="none" stroke="midnightblue" d="M1104.43,-236.01C1106.49,-219.61 1110.08,-197.68 1116,-179 1120.05,-166.23 1126.7,-152.55 1131.98,-142.66"/>
<polygon fill="midnightblue" stroke="midnightblue" points="1100.91,-236.05 1103.24,-246.38 1107.86,-236.85 1100.91,-236.05"/>
</g>
<!-- Node23 -->
<g id="node23" class="node">
<title>Node23</title>
<g id="a_node23"><a xlink:href="_willy_weather_2authenticate_8c.html" target="_top" xlink:title=" ">
<polygon fill="none" stroke="black" points="1124.5,-185 1124.5,-204 1277.5,-204 1277.5,-185 1124.5,-185"/>
<text text-anchor="middle" x="1201" y="-192" font-family="Helvetica,sans-Serif" font-size="10.00">src/WillyWeather/authenticate.c</text>
</a>
</g>
</g>
<!-- Node16&#45;&gt;Node23 -->
<g id="edge33" class="edge">
<title>Node16&#45;&gt;Node23</title>
<path fill="none" stroke="midnightblue" d="M1131.99,-240.81C1150.72,-228.51 1173.88,-213.3 1188.04,-204.01"/>
<polygon fill="midnightblue" stroke="midnightblue" points="1129.92,-237.98 1123.48,-246.4 1133.76,-243.83 1129.92,-237.98"/>
</g>
<!-- Node17&#45;&gt;Node18 -->
<g id="edge24" class="edge">
<title>Node17&#45;&gt;Node18</title>
<path fill="none" stroke="midnightblue" d="M1373.12,-172.6C1384.44,-162.78 1397.64,-151.34 1407.76,-142.58"/>
<polygon fill="midnightblue" stroke="midnightblue" points="1370.54,-170.2 1365.27,-179.4 1375.12,-175.49 1370.54,-170.2"/>
</g>
<!-- Node17&#45;&gt;Node20 -->
<g id="edge27" class="edge">
<title>Node17&#45;&gt;Node20</title>
<path fill="none" stroke="midnightblue" d="M1294.16,-176.44C1260.28,-165.91 1217.33,-152.55 1185.37,-142.61"/>
<polygon fill="midnightblue" stroke="midnightblue" points="1293.32,-179.85 1303.91,-179.48 1295.4,-173.16 1293.32,-179.85"/>
</g>
<!-- Node22 -->
<g id="node22" class="node">
<title>Node22</title>
<g id="a_node22"><a xlink:href="location_8c.html" target="_top" xlink:title=" ">
<polygon fill="none" stroke="black" points="1218,-118 1218,-137 1352,-137 1352,-118 1218,-118"/>
<text text-anchor="middle" x="1285" y="-125" font-family="Helvetica,sans-Serif" font-size="10.00">src/WillyWeather/location.c</text>
</a>
</g>
</g>
<!-- Node17&#45;&gt;Node22 -->
<g id="edge30" class="edge">
<title>Node17&#45;&gt;Node22</title>
<path fill="none" stroke="midnightblue" d="M1327.83,-172C1316.15,-160.13 1302.28,-146.05 1293.56,-137.19"/>
<polygon fill="midnightblue" stroke="midnightblue" points="1325.6,-174.73 1335.11,-179.4 1330.59,-169.81 1325.6,-174.73"/>
</g>
<!-- Node18&#45;&gt;Node4 -->
<g id="edge25" class="edge">
<title>Node18&#45;&gt;Node4</title>
<path fill="none" stroke="midnightblue" d="M1360.34,-112.08C1124.14,-77.69 852.14,-69.54 751.74,-67.59"/>
<polygon fill="midnightblue" stroke="midnightblue" points="1360.09,-115.59 1370.49,-113.58 1361.11,-108.66 1360.09,-115.59"/>
</g>
<!-- Node19 -->
<g id="node19" class="node">
<title>Node19</title>
<g id="a_node19"><a xlink:href="precipitation_8c.html" target="_top" xlink:title=" ">
<polygon fill="none" stroke="black" points="1348,-56.5 1348,-75.5 1500,-75.5 1500,-56.5 1348,-56.5"/>
<text text-anchor="middle" x="1424" y="-63.5" font-family="Helvetica,sans-Serif" font-size="10.00">src/WillyWeather/precipitation.c</text>
</a>
</g>
</g>
<!-- Node18&#45;&gt;Node19 -->
<g id="edge26" class="edge">
<title>Node18&#45;&gt;Node19</title>
<path fill="none" stroke="midnightblue" d="M1424,-102.29C1424,-92.86 1424,-82.65 1424,-75.66"/>
<polygon fill="midnightblue" stroke="midnightblue" points="1420.5,-102.4 1424,-112.4 1427.5,-102.4 1420.5,-102.4"/>
</g>
<!-- Node20&#45;&gt;Node4 -->
<g id="edge28" class="edge">
<title>Node20&#45;&gt;Node4</title>
<path fill="none" stroke="midnightblue" d="M1076.4,-112.76C1074.92,-112.5 1073.45,-112.24 1072,-112 956.17,-92.45 818.04,-77.5 751.58,-70.83"/>
<polygon fill="midnightblue" stroke="midnightblue" points="1075.79,-116.21 1086.26,-114.6 1077.07,-109.33 1075.79,-116.21"/>
</g>
<!-- Node21 -->
<g id="node21" class="node">
<title>Node21</title>
<g id="a_node21"><a xlink:href="tide_8c.html" target="_top" xlink:title=" ">
<polygon fill="none" stroke="black" points="1082,-56.5 1082,-75.5 1198,-75.5 1198,-56.5 1082,-56.5"/>
<text text-anchor="middle" x="1140" y="-63.5" font-family="Helvetica,sans-Serif" font-size="10.00">src/WillyWeather/tide.c</text>
</a>
</g>
</g>
<!-- Node20&#45;&gt;Node21 -->
<g id="edge29" class="edge">
<title>Node20&#45;&gt;Node21</title>
<path fill="none" stroke="midnightblue" d="M1140,-102.29C1140,-92.86 1140,-82.65 1140,-75.66"/>
<polygon fill="midnightblue" stroke="midnightblue" points="1136.5,-102.4 1140,-112.4 1143.5,-102.4 1136.5,-102.4"/>
</g>
</g>
</svg>
