<?xml version="1.0" encoding="UTF-8" standalone="no"?>
<!DOCTYPE svg PUBLIC "-//W3C//DTD SVG 1.1//EN"
 "http://www.w3.org/Graphics/SVG/1.1/DTD/svg11.dtd">
<!-- Generated by graphviz version 2.43.0 (0)
 -->
<!-- Title: include/http.h Pages: 1 -->
<svg width="838pt" height="192pt"
 viewBox="0.00 0.00 838.00 192.00" xmlns="http://www.w3.org/2000/svg" xmlns:xlink="http://www.w3.org/1999/xlink">
<g id="graph0" class="graph" transform="scale(1 1) rotate(0) translate(4 188)">
<title>include/http.h</title>
<!-- Node1 -->
<g id="node1" class="node">
<title>Node1</title>
<g id="a_node1"><a xlink:title=" ">
<polygon fill="#999999" stroke="#666666" points="187,-184 104,-184 104,-165 187,-165 187,-184"/>
<text text-anchor="middle" x="145.5" y="-172" font-family="Helvetica,sans-Serif" font-size="10.00">include/http.h</text>
</a>
</g>
</g>
<!-- Node2 -->
<g id="node2" class="node">
<title>Node2</title>
<g id="a_node2"><a xlink:title=" ">
<polygon fill="#e0e0e0" stroke="#999999" points="53,-74 0,-74 0,-55 53,-55 53,-74"/>
<text text-anchor="middle" x="26.5" y="-62" font-family="Helvetica,sans-Serif" font-size="10.00">stdlib.h</text>
</a>
</g>
</g>
<!-- Node1&#45;&gt;Node2 -->
<g id="edge1" class="edge">
<title>Node1&#45;&gt;Node2</title>
<path fill="none" stroke="#63b8ff" d="M135.76,-164.66C115.61,-146.38 69.12,-104.18 43.76,-81.17"/>
<polygon fill="#63b8ff" stroke="#63b8ff" points="45.8,-78.29 36.04,-74.16 41.09,-83.47 45.8,-78.29"/>
</g>
<!-- Node3 -->
<g id="node3" class="node">
<title>Node3</title>
<g id="a_node3"><a xlink:title=" ">
<polygon fill="#e0e0e0" stroke="#999999" points="124,-74 71,-74 71,-55 124,-55 124,-74"/>
<text text-anchor="middle" x="97.5" y="-62" font-family="Helvetica,sans-Serif" font-size="10.00">string.h</text>
</a>
</g>
</g>
<!-- Node1&#45;&gt;Node3 -->
<g id="edge2" class="edge">
<title>Node1&#45;&gt;Node3</title>
<path fill="none" stroke="#63b8ff" d="M141.57,-164.66C133.69,-146.93 115.82,-106.73 105.42,-83.32"/>
<polygon fill="#63b8ff" stroke="#63b8ff" points="108.61,-81.87 101.35,-74.16 102.21,-84.72 108.61,-81.87"/>
</g>
<!-- Node4 -->
<g id="node4" class="node">
<title>Node4</title>
<g id="a_node4"><a xlink:title=" ">
<polygon fill="#e0e0e0" stroke="#999999" points="207,-74 142,-74 142,-55 207,-55 207,-74"/>
<text text-anchor="middle" x="174.5" y="-62" font-family="Helvetica,sans-Serif" font-size="10.00">curl/curl.h</text>
</a>
</g>
</g>
<!-- Node1&#45;&gt;Node4 -->
<g id="edge3" class="edge">
<title>Node1&#45;&gt;Node4</title>
<path fill="none" stroke="#63b8ff" d="M147.87,-164.66C152.59,-147.09 163.24,-107.45 169.54,-83.95"/>
<polygon fill="#63b8ff" stroke="#63b8ff" points="172.96,-84.72 172.18,-74.16 166.2,-82.91 172.96,-84.72"/>
</g>
<!-- Node5 -->
<g id="node5" class="node">
<title>Node5</title>
<g id="a_node5"><a xlink:href="utils_8h.html" target="_top" xlink:title=" ">
<polygon fill="white" stroke="#666666" points="425,-129 378,-129 378,-110 425,-110 425,-129"/>
<text text-anchor="middle" x="401.5" y="-117" font-family="Helvetica,sans-Serif" font-size="10.00">utils.h</text>
</a>
</g>
</g>
<!-- Node1&#45;&gt;Node5 -->
<g id="edge4" class="edge">
<title>Node1&#45;&gt;Node5</title>
<path fill="none" stroke="#63b8ff" d="M186.63,-164.98C236.96,-154.57 321.21,-137.12 367.85,-127.47"/>
<polygon fill="#63b8ff" stroke="#63b8ff" points="368.68,-130.87 377.76,-125.41 367.26,-124.01 368.68,-130.87"/>
</g>
<!-- Node5&#45;&gt;Node2 -->
<g id="edge5" class="edge">
<title>Node5&#45;&gt;Node2</title>
<path fill="none" stroke="#63b8ff" d="M377.87,-116.3C323.82,-111.07 186.9,-96.75 63.21,-74.15"/>
<polygon fill="#63b8ff" stroke="#63b8ff" points="63.66,-70.67 53.19,-72.3 62.38,-77.56 63.66,-70.67"/>
</g>
<!-- Node5&#45;&gt;Node3 -->
<g id="edge6" class="edge">
<title>Node5&#45;&gt;Node3</title>
<path fill="none" stroke="#63b8ff" d="M377.64,-115.16C332.13,-108.66 229.59,-93.4 134.03,-74.19"/>
<polygon fill="#63b8ff" stroke="#63b8ff" points="134.7,-70.76 124.21,-72.2 133.31,-77.62 134.7,-70.76"/>
</g>
<!-- Node5&#45;&gt;Node4 -->
<g id="edge7" class="edge">
<title>Node5&#45;&gt;Node4</title>
<path fill="none" stroke="#63b8ff" d="M377.64,-112.93C339.56,-104.04 264.55,-86.52 217.1,-75.45"/>
<polygon fill="#63b8ff" stroke="#63b8ff" points="217.66,-71.98 207.13,-73.12 216.07,-78.8 217.66,-71.98"/>
</g>
<!-- Node6 -->
<g id="node6" class="node">
<title>Node6</title>
<g id="a_node6"><a xlink:title=" ">
<polygon fill="#e0e0e0" stroke="#999999" points="830,-74 777,-74 777,-55 830,-55 830,-74"/>
<text text-anchor="middle" x="803.5" y="-62" font-family="Helvetica,sans-Serif" font-size="10.00">stdint.h</text>
</a>
</g>
</g>
<!-- Node5&#45;&gt;Node6 -->
<g id="edge8" class="edge">
<title>Node5&#45;&gt;Node6</title>
<path fill="none" stroke="#63b8ff" d="M425.26,-116.59C482.45,-111.8 632.42,-98.01 766.76,-74.13"/>
<polygon fill="#63b8ff" stroke="#63b8ff" points="767.6,-77.54 776.82,-72.32 766.35,-70.65 767.6,-77.54"/>
</g>
<!-- Node7 -->
<g id="node7" class="node">
<title>Node7</title>
<g id="a_node7"><a xlink:title=" ">
<polygon fill="#e0e0e0" stroke="#999999" points="308,-74 225,-74 225,-55 308,-55 308,-74"/>
<text text-anchor="middle" x="266.5" y="-62" font-family="Helvetica,sans-Serif" font-size="10.00">cjson/cJSON.h</text>
</a>
</g>
</g>
<!-- Node5&#45;&gt;Node7 -->
<g id="edge9" class="edge">
<title>Node5&#45;&gt;Node7</title>
<path fill="none" stroke="#63b8ff" d="M379.81,-109.98C357.7,-101.3 323.18,-87.75 298.05,-77.88"/>
<polygon fill="#63b8ff" stroke="#63b8ff" points="299.17,-74.57 288.58,-74.17 296.61,-81.08 299.17,-74.57"/>
</g>
<!-- Node8 -->
<g id="node8" class="node">
<title>Node8</title>
<g id="a_node8"><a xlink:title=" ">
<polygon fill="#e0e0e0" stroke="#999999" points="390.5,-74 326.5,-74 326.5,-55 390.5,-55 390.5,-74"/>
<text text-anchor="middle" x="358.5" y="-62" font-family="Helvetica,sans-Serif" font-size="10.00">sys/stat.h</text>
</a>
</g>
</g>
<!-- Node5&#45;&gt;Node8 -->
<g id="edge10" class="edge">
<title>Node5&#45;&gt;Node8</title>
<path fill="none" stroke="#63b8ff" d="M394.4,-109.75C388.33,-102.26 379.41,-91.28 371.99,-82.13"/>
<polygon fill="#63b8ff" stroke="#63b8ff" points="374.49,-79.65 365.47,-74.09 369.05,-84.06 374.49,-79.65"/>
</g>
<!-- Node9 -->
<g id="node9" class="node">
<title>Node9</title>
<g id="a_node9"><a xlink:title=" ">
<polygon fill="#e0e0e0" stroke="#999999" points="480.5,-74 408.5,-74 408.5,-55 480.5,-55 480.5,-74"/>
<text text-anchor="middle" x="444.5" y="-62" font-family="Helvetica,sans-Serif" font-size="10.00">sys/types.h</text>
</a>
</g>
</g>
<!-- Node5&#45;&gt;Node9 -->
<g id="edge11" class="edge">
<title>Node5&#45;&gt;Node9</title>
<path fill="none" stroke="#63b8ff" d="M408.6,-109.75C414.67,-102.26 423.59,-91.28 431.01,-82.13"/>
<polygon fill="#63b8ff" stroke="#63b8ff" points="433.95,-84.06 437.53,-74.09 428.51,-79.65 433.95,-84.06"/>
</g>
<!-- Node10 -->
<g id="node10" class="node">
<title>Node10</title>
<g id="a_node10"><a xlink:title=" ">
<polygon fill="#e0e0e0" stroke="#999999" points="550,-74 499,-74 499,-55 550,-55 550,-74"/>
<text text-anchor="middle" x="524.5" y="-62" font-family="Helvetica,sans-Serif" font-size="10.00">errno.h</text>
</a>
</g>
</g>
<!-- Node5&#45;&gt;Node10 -->
<g id="edge12" class="edge">
<title>Node5&#45;&gt;Node10</title>
<path fill="none" stroke="#63b8ff" d="M421.26,-109.98C441.23,-101.38 472.3,-87.99 495.15,-78.15"/>
<polygon fill="#63b8ff" stroke="#63b8ff" points="496.58,-81.34 504.38,-74.17 493.81,-74.91 496.58,-81.34"/>
</g>
<!-- Node11 -->
<g id="node11" class="node">
<title>Node11</title>
<g id="a_node11"><a xlink:title=" ">
<polygon fill="#e0e0e0" stroke="#999999" points="619,-74 568,-74 568,-55 619,-55 619,-74"/>
<text text-anchor="middle" x="593.5" y="-62" font-family="Helvetica,sans-Serif" font-size="10.00">math.h</text>
</a>
</g>
</g>
<!-- Node5&#45;&gt;Node11 -->
<g id="edge13" class="edge">
<title>Node5&#45;&gt;Node11</title>
<path fill="none" stroke="#63b8ff" d="M425.04,-112C458.32,-102.82 519.36,-85.97 558.11,-75.27"/>
<polygon fill="#63b8ff" stroke="#63b8ff" points="559.22,-78.59 567.93,-72.56 557.36,-71.85 559.22,-78.59"/>
</g>
<!-- Node12 -->
<g id="node12" class="node">
<title>Node12</title>
<g id="a_node12"><a xlink:href="log_8h.html" target="_top" xlink:title=" ">
<polygon fill="white" stroke="#666666" points="678,-74 637,-74 637,-55 678,-55 678,-74"/>
<text text-anchor="middle" x="657.5" y="-62" font-family="Helvetica,sans-Serif" font-size="10.00">log.h</text>
</a>
</g>
</g>
<!-- Node5&#45;&gt;Node12 -->
<g id="edge14" class="edge">
<title>Node5&#45;&gt;Node12</title>
<path fill="none" stroke="#63b8ff" d="M425.18,-114.59C464.94,-107.88 547.79,-93.22 626.85,-74.23"/>
<polygon fill="#63b8ff" stroke="#63b8ff" points="628.08,-77.53 636.97,-71.77 626.42,-70.73 628.08,-77.53"/>
</g>
<!-- Node17 -->
<g id="node17" class="node">
<title>Node17</title>
<g id="a_node17"><a xlink:title=" ">
<polygon fill="#e0e0e0" stroke="#999999" points="759,-74 696,-74 696,-55 759,-55 759,-74"/>
<text text-anchor="middle" x="727.5" y="-62" font-family="Helvetica,sans-Serif" font-size="10.00">libpq&#45;fe.h</text>
</a>
</g>
</g>
<!-- Node5&#45;&gt;Node17 -->
<g id="edge19" class="edge">
<title>Node5&#45;&gt;Node17</title>
<path fill="none" stroke="#63b8ff" d="M425.3,-115.25C472.91,-108.65 583.44,-92.84 685.78,-74.24"/>
<polygon fill="#63b8ff" stroke="#63b8ff" points="686.45,-77.68 695.65,-72.43 685.19,-70.79 686.45,-77.68"/>
</g>
<!-- Node13 -->
<g id="node13" class="node">
<title>Node13</title>
<g id="a_node13"><a xlink:title=" ">
<polygon fill="#e0e0e0" stroke="#999999" points="572.5,-19 522.5,-19 522.5,0 572.5,0 572.5,-19"/>
<text text-anchor="middle" x="547.5" y="-7" font-family="Helvetica,sans-Serif" font-size="10.00">stdio.h</text>
</a>
</g>
</g>
<!-- Node12&#45;&gt;Node13 -->
<g id="edge15" class="edge">
<title>Node12&#45;&gt;Node13</title>
<path fill="none" stroke="#63b8ff" d="M639.83,-54.98C622.21,-46.5 594.92,-33.35 574.57,-23.54"/>
<polygon fill="#63b8ff" stroke="#63b8ff" points="576.02,-20.36 565.49,-19.17 572.98,-26.66 576.02,-20.36"/>
</g>
<!-- Node14 -->
<g id="node14" class="node">
<title>Node14</title>
<g id="a_node14"><a xlink:title=" ">
<polygon fill="#e0e0e0" stroke="#999999" points="646.5,-19 590.5,-19 590.5,0 646.5,0 646.5,-19"/>
<text text-anchor="middle" x="618.5" y="-7" font-family="Helvetica,sans-Serif" font-size="10.00">stdarg.h</text>
</a>
</g>
</g>
<!-- Node12&#45;&gt;Node14 -->
<g id="edge16" class="edge">
<title>Node12&#45;&gt;Node14</title>
<path fill="none" stroke="#63b8ff" d="M651.06,-54.75C645.61,-47.34 637.64,-36.5 630.94,-27.41"/>
<polygon fill="#63b8ff" stroke="#63b8ff" points="633.57,-25.07 624.82,-19.09 627.93,-29.22 633.57,-25.07"/>
</g>
<!-- Node15 -->
<g id="node15" class="node">
<title>Node15</title>
<g id="a_node15"><a xlink:title=" ">
<polygon fill="#e0e0e0" stroke="#999999" points="726.5,-19 664.5,-19 664.5,0 726.5,0 726.5,-19"/>
<text text-anchor="middle" x="695.5" y="-7" font-family="Helvetica,sans-Serif" font-size="10.00">stdbool.h</text>
</a>
</g>
</g>
<!-- Node12&#45;&gt;Node15 -->
<g id="edge17" class="edge">
<title>Node12&#45;&gt;Node15</title>
<path fill="none" stroke="#63b8ff" d="M663.77,-54.75C669.09,-47.34 676.86,-36.5 683.38,-27.41"/>
<polygon fill="#63b8ff" stroke="#63b8ff" points="686.36,-29.26 689.34,-19.09 680.67,-25.18 686.36,-29.26"/>
</g>
<!-- Node16 -->
<g id="node16" class="node">
<title>Node16</title>
<g id="a_node16"><a xlink:title=" ">
<polygon fill="#e0e0e0" stroke="#999999" points="792.5,-19 744.5,-19 744.5,0 792.5,0 792.5,-19"/>
<text text-anchor="middle" x="768.5" y="-7" font-family="Helvetica,sans-Serif" font-size="10.00">time.h</text>
</a>
</g>
</g>
<!-- Node12&#45;&gt;Node16 -->
<g id="edge18" class="edge">
<title>Node12&#45;&gt;Node16</title>
<path fill="none" stroke="#63b8ff" d="M675.33,-54.98C693.11,-46.5 720.65,-33.35 741.18,-23.54"/>
<polygon fill="#63b8ff" stroke="#63b8ff" points="742.83,-26.64 750.34,-19.17 739.81,-20.32 742.83,-26.64"/>
</g>
</g>
</svg>
