<?xml version="1.0" encoding="UTF-8" standalone="no"?>
<!DOCTYPE svg PUBLIC "-//W3C//DTD SVG 1.1//EN"
 "http://www.w3.org/Graphics/SVG/1.1/DTD/svg11.dtd">
<!-- Generated by graphviz version 2.49.3 (20211027.1534)
 -->
<!-- Title: include/http.h Pages: 1 -->
<svg width="711pt" height="196pt"
 viewBox="0.00 0.00 711.00 196.00" xmlns="http://www.w3.org/2000/svg" xmlns:xlink="http://www.w3.org/1999/xlink">
<g id="graph0" class="graph" transform="scale(1 1) rotate(0) translate(4 192)">
<title>include/http.h</title>
<!-- Node1 -->
<g id="node1" class="node">
<title>Node1</title>
<g id="a_node1"><a xlink:title=" ">
<polygon fill="#bfbfbf" stroke="black" points="96.5,-168.5 96.5,-187.5 170.5,-187.5 170.5,-168.5 96.5,-168.5"/>
<text text-anchor="middle" x="133.5" y="-175.5" font-family="Helvetica,sans-Serif" font-size="10.00">include/http.h</text>
</a>
</g>
</g>
<!-- Node2 -->
<g id="node2" class="node">
<title>Node2</title>
<g id="a_node2"><a xlink:title=" ">
<polygon fill="none" stroke="#bfbfbf" points="0,-56.5 0,-75.5 47,-75.5 47,-56.5 0,-56.5"/>
<text text-anchor="middle" x="23.5" y="-63.5" font-family="Helvetica,sans-Serif" font-size="10.00">stdlib.h</text>
</a>
</g>
</g>
<!-- Node1&#45;&gt;Node2 -->
<g id="edge1" class="edge">
<title>Node1&#45;&gt;Node2</title>
<path fill="none" stroke="midnightblue" d="M124.87,-168.37C106.39,-149.89 62.79,-106.29 39.24,-82.74"/>
<polygon fill="midnightblue" stroke="midnightblue" points="41.64,-80.19 32.09,-75.59 36.69,-85.14 41.64,-80.19"/>
</g>
<!-- Node3 -->
<g id="node3" class="node">
<title>Node3</title>
<g id="a_node3"><a xlink:title=" ">
<polygon fill="none" stroke="#bfbfbf" points="65.5,-56.5 65.5,-75.5 113.5,-75.5 113.5,-56.5 65.5,-56.5"/>
<text text-anchor="middle" x="89.5" y="-63.5" font-family="Helvetica,sans-Serif" font-size="10.00">string.h</text>
</a>
</g>
</g>
<!-- Node1&#45;&gt;Node3 -->
<g id="edge2" class="edge">
<title>Node1&#45;&gt;Node3</title>
<path fill="none" stroke="midnightblue" d="M130.05,-168.37C122.88,-150.46 106.27,-108.92 96.68,-84.95"/>
<polygon fill="midnightblue" stroke="midnightblue" points="99.9,-83.58 92.94,-75.59 93.4,-86.18 99.9,-83.58"/>
</g>
<!-- Node4 -->
<g id="node4" class="node">
<title>Node4</title>
<g id="a_node4"><a xlink:title=" ">
<polygon fill="none" stroke="#bfbfbf" points="132,-56.5 132,-75.5 191,-75.5 191,-56.5 132,-56.5"/>
<text text-anchor="middle" x="161.5" y="-63.5" font-family="Helvetica,sans-Serif" font-size="10.00">curl/curl.h</text>
</a>
</g>
</g>
<!-- Node1&#45;&gt;Node4 -->
<g id="edge3" class="edge">
<title>Node1&#45;&gt;Node4</title>
<path fill="none" stroke="midnightblue" d="M135.7,-168.37C140.22,-150.62 150.64,-109.67 156.77,-85.6"/>
<polygon fill="midnightblue" stroke="midnightblue" points="160.24,-86.15 159.31,-75.59 153.45,-84.42 160.24,-86.15"/>
</g>
<!-- Node5 -->
<g id="node5" class="node">
<title>Node5</title>
<g id="a_node5"><a xlink:href="utils_8h.html" target="_top" xlink:title=" ">
<polygon fill="none" stroke="black" points="297.5,-112.5 297.5,-131.5 339.5,-131.5 339.5,-112.5 297.5,-112.5"/>
<text text-anchor="middle" x="318.5" y="-119.5" font-family="Helvetica,sans-Serif" font-size="10.00">utils.h</text>
</a>
</g>
</g>
<!-- Node1&#45;&gt;Node5 -->
<g id="edge4" class="edge">
<title>Node1&#45;&gt;Node5</title>
<path fill="none" stroke="midnightblue" d="M162.81,-168.44C196.94,-158.48 253.04,-142.11 287.76,-131.97"/>
<polygon fill="midnightblue" stroke="midnightblue" points="288.76,-135.33 297.38,-129.16 286.8,-128.61 288.76,-135.33"/>
</g>
<!-- Node5&#45;&gt;Node2 -->
<g id="edge5" class="edge">
<title>Node5&#45;&gt;Node2</title>
<path fill="none" stroke="midnightblue" d="M297.31,-118.07C254.05,-111.93 152.32,-96.73 57.02,-75.93"/>
<polygon fill="midnightblue" stroke="midnightblue" points="57.74,-72.5 47.23,-73.76 56.23,-79.34 57.74,-72.5"/>
</g>
<!-- Node5&#45;&gt;Node3 -->
<g id="edge6" class="edge">
<title>Node5&#45;&gt;Node3</title>
<path fill="none" stroke="midnightblue" d="M297.26,-116.42C262.84,-108.93 192.52,-93.38 123.37,-76.14"/>
<polygon fill="midnightblue" stroke="midnightblue" points="124.17,-72.74 113.62,-73.7 122.47,-79.53 124.17,-72.74"/>
</g>
<!-- Node5&#45;&gt;Node4 -->
<g id="edge7" class="edge">
<title>Node5&#45;&gt;Node4</title>
<path fill="none" stroke="midnightblue" d="M297.33,-113.72C271.35,-104.78 226.94,-89.51 196.01,-78.87"/>
<polygon fill="midnightblue" stroke="midnightblue" points="197.07,-75.53 186.47,-75.59 194.79,-82.15 197.07,-75.53"/>
</g>
<!-- Node6 -->
<g id="node6" class="node">
<title>Node6</title>
<g id="a_node6"><a xlink:title=" ">
<polygon fill="none" stroke="#bfbfbf" points="553.5,-56.5 553.5,-75.5 601.5,-75.5 601.5,-56.5 553.5,-56.5"/>
<text text-anchor="middle" x="577.5" y="-63.5" font-family="Helvetica,sans-Serif" font-size="10.00">stdint.h</text>
</a>
</g>
</g>
<!-- Node5&#45;&gt;Node6 -->
<g id="edge8" class="edge">
<title>Node5&#45;&gt;Node6</title>
<path fill="none" stroke="midnightblue" d="M339.79,-117.27C378.42,-110.4 462.8,-94.89 543.57,-76.09"/>
<polygon fill="midnightblue" stroke="midnightblue" points="544.46,-79.48 553.4,-73.78 542.86,-72.66 544.46,-79.48"/>
</g>
<!-- Node7 -->
<g id="node7" class="node">
<title>Node7</title>
<g id="a_node7"><a xlink:title=" ">
<polygon fill="none" stroke="#bfbfbf" points="620,-56.5 620,-75.5 703,-75.5 703,-56.5 620,-56.5"/>
<text text-anchor="middle" x="661.5" y="-63.5" font-family="Helvetica,sans-Serif" font-size="10.00">cjson/cJSON.h</text>
</a>
</g>
</g>
<!-- Node5&#45;&gt;Node7 -->
<g id="edge9" class="edge">
<title>Node5&#45;&gt;Node7</title>
<path fill="none" stroke="midnightblue" d="M339.78,-117.88C386.54,-111 502.01,-93.81 609.7,-76.1"/>
<polygon fill="midnightblue" stroke="midnightblue" points="610.47,-79.52 619.76,-74.44 609.33,-72.62 610.47,-79.52"/>
</g>
<!-- Node8 -->
<g id="node8" class="node">
<title>Node8</title>
<g id="a_node8"><a xlink:title=" ">
<polygon fill="none" stroke="#bfbfbf" points="209,-56.5 209,-75.5 268,-75.5 268,-56.5 209,-56.5"/>
<text text-anchor="middle" x="238.5" y="-63.5" font-family="Helvetica,sans-Serif" font-size="10.00">sys/stat.h</text>
</a>
</g>
</g>
<!-- Node5&#45;&gt;Node8 -->
<g id="edge10" class="edge">
<title>Node5&#45;&gt;Node8</title>
<path fill="none" stroke="midnightblue" d="M305.65,-112.32C293.28,-103.98 274.37,-91.21 259.76,-81.35"/>
<polygon fill="midnightblue" stroke="midnightblue" points="261.57,-78.35 251.32,-75.65 257.65,-84.15 261.57,-78.35"/>
</g>
<!-- Node9 -->
<g id="node9" class="node">
<title>Node9</title>
<g id="a_node9"><a xlink:title=" ">
<polygon fill="none" stroke="#bfbfbf" points="286,-56.5 286,-75.5 351,-75.5 351,-56.5 286,-56.5"/>
<text text-anchor="middle" x="318.5" y="-63.5" font-family="Helvetica,sans-Serif" font-size="10.00">sys/types.h</text>
</a>
</g>
</g>
<!-- Node5&#45;&gt;Node9 -->
<g id="edge11" class="edge">
<title>Node5&#45;&gt;Node9</title>
<path fill="none" stroke="midnightblue" d="M318.5,-112.08C318.5,-105.01 318.5,-94.86 318.5,-85.99"/>
<polygon fill="midnightblue" stroke="midnightblue" points="322,-85.75 318.5,-75.75 315,-85.75 322,-85.75"/>
</g>
<!-- Node10 -->
<g id="node10" class="node">
<title>Node10</title>
<g id="a_node10"><a xlink:title=" ">
<polygon fill="none" stroke="#bfbfbf" points="369.5,-56.5 369.5,-75.5 415.5,-75.5 415.5,-56.5 369.5,-56.5"/>
<text text-anchor="middle" x="392.5" y="-63.5" font-family="Helvetica,sans-Serif" font-size="10.00">errno.h</text>
</a>
</g>
</g>
<!-- Node5&#45;&gt;Node10 -->
<g id="edge12" class="edge">
<title>Node5&#45;&gt;Node10</title>
<path fill="none" stroke="midnightblue" d="M330.39,-112.32C341.65,-104.11 358.79,-91.6 372.21,-81.81"/>
<polygon fill="midnightblue" stroke="midnightblue" points="374.38,-84.56 380.39,-75.83 370.25,-78.9 374.38,-84.56"/>
</g>
<!-- Node11 -->
<g id="node11" class="node">
<title>Node11</title>
<g id="a_node11"><a xlink:title=" ">
<polygon fill="none" stroke="#bfbfbf" points="433.5,-56.5 433.5,-75.5 479.5,-75.5 479.5,-56.5 433.5,-56.5"/>
<text text-anchor="middle" x="456.5" y="-63.5" font-family="Helvetica,sans-Serif" font-size="10.00">math.h</text>
</a>
</g>
</g>
<!-- Node5&#45;&gt;Node11 -->
<g id="edge13" class="edge">
<title>Node5&#45;&gt;Node11</title>
<path fill="none" stroke="midnightblue" d="M339.76,-112.68C362.55,-103.76 398.98,-89.51 425.08,-79.29"/>
<polygon fill="midnightblue" stroke="midnightblue" points="426.49,-82.5 434.53,-75.6 423.94,-75.98 426.49,-82.5"/>
</g>
<!-- Node12 -->
<g id="node12" class="node">
<title>Node12</title>
<g id="a_node12"><a xlink:href="log_8h.html" target="_top" xlink:title=" ">
<polygon fill="none" stroke="black" points="498,-56.5 498,-75.5 535,-75.5 535,-56.5 498,-56.5"/>
<text text-anchor="middle" x="516.5" y="-63.5" font-family="Helvetica,sans-Serif" font-size="10.00">log.h</text>
</a>
</g>
</g>
<!-- Node5&#45;&gt;Node12 -->
<g id="edge14" class="edge">
<title>Node5&#45;&gt;Node12</title>
<path fill="none" stroke="midnightblue" d="M339.53,-115.81C370.05,-108.2 428.57,-93.3 487.95,-76.04"/>
<polygon fill="midnightblue" stroke="midnightblue" points="489.25,-79.31 497.87,-73.14 487.29,-72.59 489.25,-79.31"/>
</g>
<!-- Node13 -->
<g id="node13" class="node">
<title>Node13</title>
<g id="a_node13"><a xlink:title=" ">
<polygon fill="none" stroke="#bfbfbf" points="392,-0.5 392,-19.5 437,-19.5 437,-0.5 392,-0.5"/>
<text text-anchor="middle" x="414.5" y="-7.5" font-family="Helvetica,sans-Serif" font-size="10.00">stdio.h</text>
</a>
</g>
</g>
<!-- Node12&#45;&gt;Node13 -->
<g id="edge15" class="edge">
<title>Node12&#45;&gt;Node13</title>
<path fill="none" stroke="midnightblue" d="M500.11,-56.32C483.83,-47.7 458.63,-34.36 439.78,-24.39"/>
<polygon fill="midnightblue" stroke="midnightblue" points="441.32,-21.24 430.85,-19.65 438.05,-27.43 441.32,-21.24"/>
</g>
<!-- Node14 -->
<g id="node14" class="node">
<title>Node14</title>
<g id="a_node14"><a xlink:title=" ">
<polygon fill="none" stroke="#bfbfbf" points="455,-0.5 455,-19.5 506,-19.5 506,-0.5 455,-0.5"/>
<text text-anchor="middle" x="480.5" y="-7.5" font-family="Helvetica,sans-Serif" font-size="10.00">stdarg.h</text>
</a>
</g>
</g>
<!-- Node12&#45;&gt;Node14 -->
<g id="edge16" class="edge">
<title>Node12&#45;&gt;Node14</title>
<path fill="none" stroke="midnightblue" d="M510.56,-56.08C505.52,-48.53 498.16,-37.49 491.99,-28.23"/>
<polygon fill="midnightblue" stroke="midnightblue" points="494.79,-26.13 486.33,-19.75 488.97,-30.01 494.79,-26.13"/>
</g>
<!-- Node15 -->
<g id="node15" class="node">
<title>Node15</title>
<g id="a_node15"><a xlink:title=" ">
<polygon fill="none" stroke="#bfbfbf" points="524.5,-0.5 524.5,-19.5 580.5,-19.5 580.5,-0.5 524.5,-0.5"/>
<text text-anchor="middle" x="552.5" y="-7.5" font-family="Helvetica,sans-Serif" font-size="10.00">stdbool.h</text>
</a>
</g>
</g>
<!-- Node12&#45;&gt;Node15 -->
<g id="edge17" class="edge">
<title>Node12&#45;&gt;Node15</title>
<path fill="none" stroke="midnightblue" d="M522.44,-56.08C527.48,-48.53 534.84,-37.49 541.01,-28.23"/>
<polygon fill="midnightblue" stroke="midnightblue" points="544.03,-30.01 546.67,-19.75 538.21,-26.13 544.03,-30.01"/>
</g>
<!-- Node16 -->
<g id="node16" class="node">
<title>Node16</title>
<g id="a_node16"><a xlink:title=" ">
<polygon fill="none" stroke="#bfbfbf" points="599,-0.5 599,-19.5 642,-19.5 642,-0.5 599,-0.5"/>
<text text-anchor="middle" x="620.5" y="-7.5" font-family="Helvetica,sans-Serif" font-size="10.00">time.h</text>
</a>
</g>
</g>
<!-- Node12&#45;&gt;Node16 -->
<g id="edge18" class="edge">
<title>Node12&#45;&gt;Node16</title>
<path fill="none" stroke="midnightblue" d="M533.21,-56.32C549.81,-47.7 575.5,-34.36 594.72,-24.39"/>
<polygon fill="midnightblue" stroke="midnightblue" points="596.57,-27.37 603.83,-19.65 593.34,-21.16 596.57,-27.37"/>
</g>
</g>
</svg>
