<?xml version="1.0" encoding="UTF-8" standalone="no"?>
<!DOCTYPE svg PUBLIC "-//W3C//DTD SVG 1.1//EN"
 "http://www.w3.org/Graphics/SVG/1.1/DTD/svg11.dtd">
<!-- Generated by graphviz version 2.49.3 (20211027.1534)
 -->
<!-- Title: src/http.c Pages: 1 -->
<svg width="580pt" height="252pt"
 viewBox="0.00 0.00 579.50 252.00" xmlns="http://www.w3.org/2000/svg" xmlns:xlink="http://www.w3.org/1999/xlink">
<g id="graph0" class="graph" transform="scale(1 1) rotate(0) translate(4 248)">
<title>src/http.c</title>
<!-- Node1 -->
<g id="node1" class="node">
<title>Node1</title>
<g id="a_node1"><a xlink:title=" ">
<polygon fill="#bfbfbf" stroke="black" points="105,-224.5 105,-243.5 162,-243.5 162,-224.5 105,-224.5"/>
<text text-anchor="middle" x="133.5" y="-231.5" font-family="Helvetica,sans-Serif" font-size="10.00">src/http.c</text>
</a>
</g>
</g>
<!-- Node2 -->
<g id="node2" class="node">
<title>Node2</title>
<g id="a_node2"><a xlink:href="http_8h.html" target="_top" xlink:title=" ">
<polygon fill="none" stroke="black" points="113,-168.5 113,-187.5 154,-187.5 154,-168.5 113,-168.5"/>
<text text-anchor="middle" x="133.5" y="-175.5" font-family="Helvetica,sans-Serif" font-size="10.00">http.h</text>
</a>
</g>
</g>
<!-- Node1&#45;&gt;Node2 -->
<g id="edge1" class="edge">
<title>Node1&#45;&gt;Node2</title>
<path fill="none" stroke="midnightblue" d="M133.5,-224.08C133.5,-217.01 133.5,-206.86 133.5,-197.99"/>
<polygon fill="midnightblue" stroke="midnightblue" points="137,-197.75 133.5,-187.75 130,-197.75 137,-197.75"/>
</g>
<!-- Node3 -->
<g id="node3" class="node">
<title>Node3</title>
<g id="a_node3"><a xlink:title=" ">
<polygon fill="none" stroke="#bfbfbf" points="0,-56.5 0,-75.5 47,-75.5 47,-56.5 0,-56.5"/>
<text text-anchor="middle" x="23.5" y="-63.5" font-family="Helvetica,sans-Serif" font-size="10.00">stdlib.h</text>
</a>
</g>
</g>
<!-- Node2&#45;&gt;Node3 -->
<g id="edge2" class="edge">
<title>Node2&#45;&gt;Node3</title>
<path fill="none" stroke="midnightblue" d="M124.87,-168.37C106.39,-149.89 62.79,-106.29 39.24,-82.74"/>
<polygon fill="midnightblue" stroke="midnightblue" points="41.64,-80.19 32.09,-75.59 36.69,-85.14 41.64,-80.19"/>
</g>
<!-- Node4 -->
<g id="node4" class="node">
<title>Node4</title>
<g id="a_node4"><a xlink:title=" ">
<polygon fill="none" stroke="#bfbfbf" points="65.5,-56.5 65.5,-75.5 113.5,-75.5 113.5,-56.5 65.5,-56.5"/>
<text text-anchor="middle" x="89.5" y="-63.5" font-family="Helvetica,sans-Serif" font-size="10.00">string.h</text>
</a>
</g>
</g>
<!-- Node2&#45;&gt;Node4 -->
<g id="edge3" class="edge">
<title>Node2&#45;&gt;Node4</title>
<path fill="none" stroke="midnightblue" d="M130.05,-168.37C122.88,-150.46 106.27,-108.92 96.68,-84.95"/>
<polygon fill="midnightblue" stroke="midnightblue" points="99.9,-83.58 92.94,-75.59 93.4,-86.18 99.9,-83.58"/>
</g>
<!-- Node5 -->
<g id="node5" class="node">
<title>Node5</title>
<g id="a_node5"><a xlink:title=" ">
<polygon fill="none" stroke="#bfbfbf" points="132,-56.5 132,-75.5 191,-75.5 191,-56.5 132,-56.5"/>
<text text-anchor="middle" x="161.5" y="-63.5" font-family="Helvetica,sans-Serif" font-size="10.00">curl/curl.h</text>
</a>
</g>
</g>
<!-- Node2&#45;&gt;Node5 -->
<g id="edge4" class="edge">
<title>Node2&#45;&gt;Node5</title>
<path fill="none" stroke="midnightblue" d="M135.7,-168.37C140.22,-150.62 150.64,-109.67 156.77,-85.6"/>
<polygon fill="midnightblue" stroke="midnightblue" points="160.24,-86.15 159.31,-75.59 153.45,-84.42 160.24,-86.15"/>
</g>
<!-- Node6 -->
<g id="node6" class="node">
<title>Node6</title>
<g id="a_node6"><a xlink:href="utils_8h.html" target="_top" xlink:title=" ">
<polygon fill="none" stroke="black" points="206.5,-112.5 206.5,-131.5 248.5,-131.5 248.5,-112.5 206.5,-112.5"/>
<text text-anchor="middle" x="227.5" y="-119.5" font-family="Helvetica,sans-Serif" font-size="10.00">utils.h</text>
</a>
</g>
</g>
<!-- Node2&#45;&gt;Node6 -->
<g id="edge5" class="edge">
<title>Node2&#45;&gt;Node6</title>
<path fill="none" stroke="midnightblue" d="M148.6,-168.32C163.4,-159.82 186.19,-146.73 203.48,-136.8"/>
<polygon fill="midnightblue" stroke="midnightblue" points="205.51,-139.67 212.43,-131.65 202.02,-133.6 205.51,-139.67"/>
</g>
<!-- Node6&#45;&gt;Node3 -->
<g id="edge6" class="edge">
<title>Node6&#45;&gt;Node3</title>
<path fill="none" stroke="midnightblue" d="M206.42,-115.52C175.83,-107.55 117.09,-92.19 57.28,-76.19"/>
<polygon fill="midnightblue" stroke="midnightblue" points="57.85,-72.72 47.29,-73.51 56.04,-79.48 57.85,-72.72"/>
</g>
<!-- Node6&#45;&gt;Node4 -->
<g id="edge7" class="edge">
<title>Node6&#45;&gt;Node4</title>
<path fill="none" stroke="midnightblue" d="M206.24,-112.68C183.45,-103.76 147.02,-89.51 120.92,-79.29"/>
<polygon fill="midnightblue" stroke="midnightblue" points="122.06,-75.98 111.47,-75.6 119.51,-82.5 122.06,-75.98"/>
</g>
<!-- Node6&#45;&gt;Node5 -->
<g id="edge8" class="edge">
<title>Node6&#45;&gt;Node5</title>
<path fill="none" stroke="midnightblue" d="M216.9,-112.32C207.04,-104.26 192.15,-92.08 180.28,-82.37"/>
<polygon fill="midnightblue" stroke="midnightblue" points="182.25,-79.46 172.3,-75.83 177.82,-84.88 182.25,-79.46"/>
</g>
<!-- Node7 -->
<g id="node7" class="node">
<title>Node7</title>
<g id="a_node7"><a xlink:title=" ">
<polygon fill="none" stroke="#bfbfbf" points="264,-56.5 264,-75.5 347,-75.5 347,-56.5 264,-56.5"/>
<text text-anchor="middle" x="305.5" y="-63.5" font-family="Helvetica,sans-Serif" font-size="10.00">cjson/cJSON.h</text>
</a>
</g>
</g>
<!-- Node6&#45;&gt;Node7 -->
<g id="edge9" class="edge">
<title>Node6&#45;&gt;Node7</title>
<path fill="none" stroke="midnightblue" d="M240.03,-112.32C252.09,-103.98 270.53,-91.21 284.77,-81.35"/>
<polygon fill="midnightblue" stroke="midnightblue" points="286.77,-84.22 293,-75.65 282.78,-78.47 286.77,-84.22"/>
</g>
<!-- Node8 -->
<g id="node8" class="node">
<title>Node8</title>
<g id="a_node8"><a xlink:title=" ">
<polygon fill="none" stroke="#bfbfbf" points="365,-56.5 365,-75.5 424,-75.5 424,-56.5 365,-56.5"/>
<text text-anchor="middle" x="394.5" y="-63.5" font-family="Helvetica,sans-Serif" font-size="10.00">sys/stat.h</text>
</a>
</g>
</g>
<!-- Node6&#45;&gt;Node8 -->
<g id="edge10" class="edge">
<title>Node6&#45;&gt;Node8</title>
<path fill="none" stroke="midnightblue" d="M248.65,-114.16C276.17,-105.26 324.69,-89.57 358.16,-78.75"/>
<polygon fill="midnightblue" stroke="midnightblue" points="359.59,-81.97 368.02,-75.56 357.43,-75.31 359.59,-81.97"/>
</g>
<!-- Node9 -->
<g id="node9" class="node">
<title>Node9</title>
<g id="a_node9"><a xlink:title=" ">
<polygon fill="none" stroke="#bfbfbf" points="442,-56.5 442,-75.5 507,-75.5 507,-56.5 442,-56.5"/>
<text text-anchor="middle" x="474.5" y="-63.5" font-family="Helvetica,sans-Serif" font-size="10.00">sys/types.h</text>
</a>
</g>
</g>
<!-- Node6&#45;&gt;Node9 -->
<g id="edge11" class="edge">
<title>Node6&#45;&gt;Node9</title>
<path fill="none" stroke="midnightblue" d="M248.56,-116.41C284.24,-108.62 359.11,-92.28 432.02,-76.32"/>
<polygon fill="midnightblue" stroke="midnightblue" points="432.81,-79.73 441.83,-74.18 431.31,-72.9 432.81,-79.73"/>
</g>
<!-- Node10 -->
<g id="node10" class="node">
<title>Node10</title>
<g id="a_node10"><a xlink:title=" ">
<polygon fill="none" stroke="#bfbfbf" points="525.5,-56.5 525.5,-75.5 571.5,-75.5 571.5,-56.5 525.5,-56.5"/>
<text text-anchor="middle" x="548.5" y="-63.5" font-family="Helvetica,sans-Serif" font-size="10.00">errno.h</text>
</a>
</g>
</g>
<!-- Node6&#45;&gt;Node10 -->
<g id="edge12" class="edge">
<title>Node6&#45;&gt;Node10</title>
<path fill="none" stroke="midnightblue" d="M248.69,-118.58C295.24,-113.09 410.03,-98.52 515.33,-76.04"/>
<polygon fill="midnightblue" stroke="midnightblue" points="516.13,-79.45 525.16,-73.91 514.65,-72.61 516.13,-79.45"/>
</g>
<!-- Node11 -->
<g id="node11" class="node">
<title>Node11</title>
<g id="a_node11"><a xlink:href="log_8h.html" target="_top" xlink:title=" ">
<polygon fill="none" stroke="black" points="209,-56.5 209,-75.5 246,-75.5 246,-56.5 209,-56.5"/>
<text text-anchor="middle" x="227.5" y="-63.5" font-family="Helvetica,sans-Serif" font-size="10.00">log.h</text>
</a>
</g>
</g>
<!-- Node6&#45;&gt;Node11 -->
<g id="edge13" class="edge">
<title>Node6&#45;&gt;Node11</title>
<path fill="none" stroke="midnightblue" d="M227.5,-112.08C227.5,-105.01 227.5,-94.86 227.5,-85.99"/>
<polygon fill="midnightblue" stroke="midnightblue" points="231,-85.75 227.5,-75.75 224,-85.75 231,-85.75"/>
</g>
<!-- Node12 -->
<g id="node12" class="node">
<title>Node12</title>
<g id="a_node12"><a xlink:title=" ">
<polygon fill="none" stroke="#bfbfbf" points="103,-0.5 103,-19.5 148,-19.5 148,-0.5 103,-0.5"/>
<text text-anchor="middle" x="125.5" y="-7.5" font-family="Helvetica,sans-Serif" font-size="10.00">stdio.h</text>
</a>
</g>
</g>
<!-- Node11&#45;&gt;Node12 -->
<g id="edge14" class="edge">
<title>Node11&#45;&gt;Node12</title>
<path fill="none" stroke="midnightblue" d="M211.11,-56.32C194.83,-47.7 169.63,-34.36 150.78,-24.39"/>
<polygon fill="midnightblue" stroke="midnightblue" points="152.32,-21.24 141.85,-19.65 149.05,-27.43 152.32,-21.24"/>
</g>
<!-- Node13 -->
<g id="node13" class="node">
<title>Node13</title>
<g id="a_node13"><a xlink:title=" ">
<polygon fill="none" stroke="#bfbfbf" points="166,-0.5 166,-19.5 217,-19.5 217,-0.5 166,-0.5"/>
<text text-anchor="middle" x="191.5" y="-7.5" font-family="Helvetica,sans-Serif" font-size="10.00">stdarg.h</text>
</a>
</g>
</g>
<!-- Node11&#45;&gt;Node13 -->
<g id="edge15" class="edge">
<title>Node11&#45;&gt;Node13</title>
<path fill="none" stroke="midnightblue" d="M221.56,-56.08C216.52,-48.53 209.16,-37.49 202.99,-28.23"/>
<polygon fill="midnightblue" stroke="midnightblue" points="205.79,-26.13 197.33,-19.75 199.97,-30.01 205.79,-26.13"/>
</g>
<!-- Node14 -->
<g id="node14" class="node">
<title>Node14</title>
<g id="a_node14"><a xlink:title=" ">
<polygon fill="none" stroke="#bfbfbf" points="235.5,-0.5 235.5,-19.5 291.5,-19.5 291.5,-0.5 235.5,-0.5"/>
<text text-anchor="middle" x="263.5" y="-7.5" font-family="Helvetica,sans-Serif" font-size="10.00">stdbool.h</text>
</a>
</g>
</g>
<!-- Node11&#45;&gt;Node14 -->
<g id="edge16" class="edge">
<title>Node11&#45;&gt;Node14</title>
<path fill="none" stroke="midnightblue" d="M233.44,-56.08C238.48,-48.53 245.84,-37.49 252.01,-28.23"/>
<polygon fill="midnightblue" stroke="midnightblue" points="255.03,-30.01 257.67,-19.75 249.21,-26.13 255.03,-30.01"/>
</g>
<!-- Node15 -->
<g id="node15" class="node">
<title>Node15</title>
<g id="a_node15"><a xlink:title=" ">
<polygon fill="none" stroke="#bfbfbf" points="310,-0.5 310,-19.5 353,-19.5 353,-0.5 310,-0.5"/>
<text text-anchor="middle" x="331.5" y="-7.5" font-family="Helvetica,sans-Serif" font-size="10.00">time.h</text>
</a>
</g>
</g>
<!-- Node11&#45;&gt;Node15 -->
<g id="edge17" class="edge">
<title>Node11&#45;&gt;Node15</title>
<path fill="none" stroke="midnightblue" d="M244.21,-56.32C260.81,-47.7 286.5,-34.36 305.72,-24.39"/>
<polygon fill="midnightblue" stroke="midnightblue" points="307.57,-27.37 314.83,-19.65 304.34,-21.16 307.57,-27.37"/>
</g>
</g>
</svg>
