<?xml version="1.0" encoding="UTF-8" standalone="no"?>
<!DOCTYPE svg PUBLIC "-//W3C//DTD SVG 1.1//EN"
 "http://www.w3.org/Graphics/SVG/1.1/DTD/svg11.dtd">
<!-- Generated by graphviz version 2.43.0 (0)
 -->
<!-- Title: Graphical Class Hierarchy Pages: 1 -->
<svg width="222pt" height="66pt"
 viewBox="0.00 0.00 222.00 66.00" xmlns="http://www.w3.org/2000/svg" xmlns:xlink="http://www.w3.org/1999/xlink">
<g id="graph0" class="graph" transform="scale(1 1) rotate(0) translate(4 62)">
<title>Graphical Class Hierarchy</title>
<!-- Node0 -->
<g id="node1" class="node">
<title>Node0</title>
<g id="a_node1"><a xlink:href="struct_object.html" target="_top" xlink:title=" ">
<polygon fill="none" stroke="black" points="0,-19.5 0,-38.5 48,-38.5 48,-19.5 0,-19.5"/>
<text text-anchor="middle" x="24" y="-26.5" font-family="Helvetica,sans-Serif" font-size="10.00">Object</text>
</a>
</g>
</g>
<!-- Node1 -->
<g id="node2" class="node">
<title>Node1</title>
<g id="a_node2"><a xlink:href="struct_vehicle.html" target="_top" xlink:title=" ">
<polygon fill="none" stroke="black" points="84,-19.5 84,-38.5 136,-38.5 136,-19.5 84,-19.5"/>
<text text-anchor="middle" x="110" y="-26.5" font-family="Helvetica,sans-Serif" font-size="10.00">Vehicle</text>
</a>
</g>
</g>
<!-- Node0&#45;&gt;Node1 -->
<g id="edge1" class="edge">
<title>Node0&#45;&gt;Node1</title>
<path fill="none" stroke="midnightblue" d="M58.44,-29C66.95,-29 75.95,-29 83.96,-29"/>
<polygon fill="midnightblue" stroke="midnightblue" points="58.4,-25.5 48.4,-29 58.4,-32.5 58.4,-25.5"/>
</g>
<!-- Node2 -->
<g id="node3" class="node">
<title>Node2</title>
<g id="a_node3"><a xlink:href="struct_car.html" target="_top" xlink:title=" ">
<polygon fill="none" stroke="black" points="176.5,-38.5 176.5,-57.5 209.5,-57.5 209.5,-38.5 176.5,-38.5"/>
<text text-anchor="middle" x="193" y="-45.5" font-family="Helvetica,sans-Serif" font-size="10.00">Car</text>
</a>
</g>
</g>
<!-- Node1&#45;&gt;Node2 -->
<g id="edge2" class="edge">
<title>Node1&#45;&gt;Node2</title>
<path fill="none" stroke="midnightblue" d="M146.12,-37.24C156.74,-39.73 167.86,-42.34 176.5,-44.36"/>
<polygon fill="midnightblue" stroke="midnightblue" points="146.72,-33.78 136.18,-34.91 145.12,-40.6 146.72,-33.78"/>
</g>
<!-- Node3 -->
<g id="node4" class="node">
<title>Node3</title>
<g id="a_node4"><a xlink:href="struct_truck.html" target="_top" xlink:title=" ">
<polygon fill="none" stroke="black" points="172,-0.5 172,-19.5 214,-19.5 214,-0.5 172,-0.5"/>
<text text-anchor="middle" x="193" y="-7.5" font-family="Helvetica,sans-Serif" font-size="10.00">Truck</text>
</a>
</g>
</g>
<!-- Node1&#45;&gt;Node3 -->
<g id="edge3" class="edge">
<title>Node1&#45;&gt;Node3</title>
<path fill="none" stroke="midnightblue" d="M145.97,-20.8C154.86,-18.71 164.11,-16.54 171.97,-14.7"/>
<polygon fill="midnightblue" stroke="midnightblue" points="145.12,-17.4 136.18,-23.09 146.72,-24.22 145.12,-17.4"/>
</g>
</g>
</svg>
