<?xml version="1.0" encoding="UTF-8" standalone="no"?>
<!DOCTYPE svg PUBLIC "-//W3C//DTD SVG 1.1//EN"
 "http://www.w3.org/Graphics/SVG/1.1/DTD/svg11.dtd">
<!-- Generated by graphviz version 2.43.0 (0)
 -->
<!-- Title: include/WillyWeather/location.h Pages: 1 -->
<svg width="1048pt" height="313pt"
 viewBox="0.00 0.00 1047.50 313.00" xmlns="http://www.w3.org/2000/svg" xmlns:xlink="http://www.w3.org/1999/xlink">
<g id="graph0" class="graph" transform="scale(1 1) rotate(0) translate(4 309)">
<title>include/WillyWeather/location.h</title>
<!-- Node1 -->
<g id="node1" class="node">
<title>Node1</title>
<g id="a_node1"><a xlink:title=" ">
<polygon fill="#999999" stroke="#666666" points="314.5,-305 194.5,-305 194.5,-275 314.5,-275 314.5,-305"/>
<text text-anchor="start" x="202.5" y="-293" font-family="Helvetica,sans-Serif" font-size="10.00">include/WillyWeather</text>
<text text-anchor="middle" x="254.5" y="-282" font-family="Helvetica,sans-Serif" font-size="10.00">/location.h</text>
</a>
</g>
</g>
<!-- Node2 -->
<g id="node2" class="node">
<title>Node2</title>
<g id="a_node2"><a xlink:title=" ">
<polygon fill="#e0e0e0" stroke="#999999" points="53,-74 0,-74 0,-55 53,-55 53,-74"/>
<text text-anchor="middle" x="26.5" y="-62" font-family="Helvetica,sans-Serif" font-size="10.00">string.h</text>
</a>
</g>
</g>
<!-- Node1&#45;&gt;Node2 -->
<g id="edge1" class="edge">
<title>Node1&#45;&gt;Node2</title>
<path fill="none" stroke="#63b8ff" d="M194.34,-280.8C139.01,-269.6 60.55,-243.59 26.5,-184 8.62,-152.71 15.21,-108.76 21.15,-84.12"/>
<polygon fill="#63b8ff" stroke="#63b8ff" points="24.58,-84.84 23.75,-74.28 17.81,-83.05 24.58,-84.84"/>
</g>
<!-- Node3 -->
<g id="node3" class="node">
<title>Node3</title>
<g id="a_node3"><a xlink:title=" ">
<polygon fill="#e0e0e0" stroke="#999999" points="126,-74 73,-74 73,-55 126,-55 126,-74"/>
<text text-anchor="middle" x="99.5" y="-62" font-family="Helvetica,sans-Serif" font-size="10.00">stdlib.h</text>
</a>
</g>
</g>
<!-- Node1&#45;&gt;Node3 -->
<g id="edge2" class="edge">
<title>Node1&#45;&gt;Node3</title>
<path fill="none" stroke="#63b8ff" d="M240.43,-274.68C231.2,-264.97 219.1,-251.65 209.5,-239 168.46,-184.9 127.62,-115.3 109.38,-83.18"/>
<polygon fill="#63b8ff" stroke="#63b8ff" points="112.25,-81.13 104.29,-74.14 106.15,-84.57 112.25,-81.13"/>
</g>
<!-- Node4 -->
<g id="node4" class="node">
<title>Node4</title>
<g id="a_node4"><a xlink:title=" ">
<polygon fill="#e0e0e0" stroke="#999999" points="819.5,-19 769.5,-19 769.5,0 819.5,0 819.5,-19"/>
<text text-anchor="middle" x="794.5" y="-7" font-family="Helvetica,sans-Serif" font-size="10.00">stdio.h</text>
</a>
</g>
</g>
<!-- Node1&#45;&gt;Node4 -->
<g id="edge3" class="edge">
<title>Node1&#45;&gt;Node4</title>
<path fill="none" stroke="#63b8ff" d="M314.81,-276.46C352.88,-267.75 402.76,-254.87 445.5,-239 601.83,-180.93 681.42,-206.65 782.5,-74 792.17,-61.31 794.8,-43.13 795.23,-29.47"/>
<polygon fill="#63b8ff" stroke="#63b8ff" points="798.73,-29.26 795.17,-19.28 791.73,-29.3 798.73,-29.26"/>
</g>
<!-- Node5 -->
<g id="node5" class="node">
<title>Node5</title>
<g id="a_node5"><a xlink:title=" ">
<polygon fill="#e0e0e0" stroke="#999999" points="278,-74 227,-74 227,-55 278,-55 278,-74"/>
<text text-anchor="middle" x="252.5" y="-62" font-family="Helvetica,sans-Serif" font-size="10.00">math.h</text>
</a>
</g>
</g>
<!-- Node1&#45;&gt;Node5 -->
<g id="edge4" class="edge">
<title>Node1&#45;&gt;Node5</title>
<path fill="none" stroke="#63b8ff" d="M314.51,-283.4C343.72,-277.3 376.36,-264.74 394.5,-239 438.62,-176.4 331.04,-107.54 278.88,-79.02"/>
<polygon fill="#63b8ff" stroke="#63b8ff" points="280.31,-75.81 269.84,-74.17 277,-81.98 280.31,-75.81"/>
</g>
<!-- Node6 -->
<g id="node6" class="node">
<title>Node6</title>
<g id="a_node6"><a xlink:title=" ">
<polygon fill="#e0e0e0" stroke="#999999" points="773,-74 690,-74 690,-55 773,-55 773,-74"/>
<text text-anchor="middle" x="731.5" y="-62" font-family="Helvetica,sans-Serif" font-size="10.00">cjson/cJSON.h</text>
</a>
</g>
</g>
<!-- Node1&#45;&gt;Node6 -->
<g id="edge5" class="edge">
<title>Node1&#45;&gt;Node6</title>
<path fill="none" stroke="#63b8ff" d="M307.72,-274.92C338.8,-266.02 378.48,-253.48 412.5,-239 528.82,-189.5 658.63,-111.1 709.44,-79.44"/>
<polygon fill="#63b8ff" stroke="#63b8ff" points="711.36,-82.36 717.98,-74.09 707.65,-76.43 711.36,-82.36"/>
</g>
<!-- Node7 -->
<g id="node7" class="node">
<title>Node7</title>
<g id="a_node7"><a xlink:title=" ">
<polygon fill="#e0e0e0" stroke="#999999" points="209,-74 144,-74 144,-55 209,-55 209,-74"/>
<text text-anchor="middle" x="176.5" y="-62" font-family="Helvetica,sans-Serif" font-size="10.00">curl/curl.h</text>
</a>
</g>
</g>
<!-- Node1&#45;&gt;Node7 -->
<g id="edge6" class="edge">
<title>Node1&#45;&gt;Node7</title>
<path fill="none" stroke="#63b8ff" d="M243.33,-274.86C236.2,-265.23 227.25,-251.92 221.5,-239 197.63,-185.34 184.49,-116.49 179.24,-84.02"/>
<polygon fill="#63b8ff" stroke="#63b8ff" points="182.7,-83.48 177.71,-74.14 175.78,-84.56 182.7,-83.48"/>
</g>
<!-- Node8 -->
<g id="node8" class="node">
<title>Node8</title>
<g id="a_node8"><a xlink:href="log_8h.html" target="_top" xlink:title=" ">
<polygon fill="white" stroke="#666666" points="879,-74 838,-74 838,-55 879,-55 879,-74"/>
<text text-anchor="middle" x="858.5" y="-62" font-family="Helvetica,sans-Serif" font-size="10.00">log.h</text>
</a>
</g>
</g>
<!-- Node1&#45;&gt;Node8 -->
<g id="edge7" class="edge">
<title>Node1&#45;&gt;Node8</title>
<path fill="none" stroke="#63b8ff" d="M314.67,-287.33C450.11,-283.05 770.04,-269.76 807.5,-239 854.57,-200.34 859.59,-120.64 859.26,-84.3"/>
<polygon fill="#63b8ff" stroke="#63b8ff" points="862.75,-84.04 859.01,-74.13 855.75,-84.21 862.75,-84.04"/>
</g>
<!-- Node12 -->
<g id="node12" class="node">
<title>Node12</title>
<g id="a_node12"><a xlink:href="_willy_weather_2authenticate_8h.html" target="_top" xlink:title=" ">
<polygon fill="white" stroke="#666666" points="385,-239 230,-239 230,-220 385,-220 385,-239"/>
<text text-anchor="middle" x="307.5" y="-227" font-family="Helvetica,sans-Serif" font-size="10.00">WillyWeather/authenticate.h</text>
</a>
</g>
</g>
<!-- Node1&#45;&gt;Node12 -->
<g id="edge12" class="edge">
<title>Node1&#45;&gt;Node12</title>
<path fill="none" stroke="#63b8ff" d="M267.33,-274.84C275.02,-266.35 284.83,-255.52 292.83,-246.69"/>
<polygon fill="#63b8ff" stroke="#63b8ff" points="295.44,-249.03 299.56,-239.27 290.25,-244.33 295.44,-249.03"/>
</g>
<!-- Node13 -->
<g id="node13" class="node">
<title>Node13</title>
<g id="a_node13"><a xlink:href="http_8h.html" target="_top" xlink:title=" ">
<polygon fill="white" stroke="#666666" points="97,-184 52,-184 52,-165 97,-165 97,-184"/>
<text text-anchor="middle" x="74.5" y="-172" font-family="Helvetica,sans-Serif" font-size="10.00">http.h</text>
</a>
</g>
</g>
<!-- Node1&#45;&gt;Node13 -->
<g id="edge35" class="edge">
<title>Node1&#45;&gt;Node13</title>
<path fill="none" stroke="#63b8ff" d="M194.44,-278.01C166.87,-270.6 135.13,-258.5 111.5,-239 97.07,-227.09 87.03,-208 81.09,-193.85"/>
<polygon fill="#63b8ff" stroke="#63b8ff" points="84.22,-192.25 77.34,-184.2 77.7,-194.79 84.22,-192.25"/>
</g>
<!-- Node14 -->
<g id="node14" class="node">
<title>Node14</title>
<g id="a_node14"><a xlink:href="utils_8h.html" target="_top" xlink:title=" ">
<polygon fill="white" stroke="#666666" points="440,-129 393,-129 393,-110 440,-110 440,-129"/>
<text text-anchor="middle" x="416.5" y="-117" font-family="Helvetica,sans-Serif" font-size="10.00">utils.h</text>
</a>
</g>
</g>
<!-- Node1&#45;&gt;Node14 -->
<g id="edge36" class="edge">
<title>Node1&#45;&gt;Node14</title>
<path fill="none" stroke="#63b8ff" d="M239.38,-274.81C226.07,-260.54 210.4,-238.12 221.5,-220 256.76,-162.42 337,-136.84 382.8,-126.57"/>
<polygon fill="#63b8ff" stroke="#63b8ff" points="383.78,-129.94 392.84,-124.45 382.33,-123.09 383.78,-129.94"/>
</g>
<!-- Node8&#45;&gt;Node4 -->
<g id="edge8" class="edge">
<title>Node8&#45;&gt;Node4</title>
<path fill="none" stroke="#63b8ff" d="M848.22,-54.98C838.66,-47.07 824.22,-35.11 812.72,-25.58"/>
<polygon fill="#63b8ff" stroke="#63b8ff" points="814.9,-22.85 804.97,-19.17 810.44,-28.24 814.9,-22.85"/>
</g>
<!-- Node9 -->
<g id="node9" class="node">
<title>Node9</title>
<g id="a_node9"><a xlink:title=" ">
<polygon fill="#e0e0e0" stroke="#999999" points="893.5,-19 837.5,-19 837.5,0 893.5,0 893.5,-19"/>
<text text-anchor="middle" x="865.5" y="-7" font-family="Helvetica,sans-Serif" font-size="10.00">stdarg.h</text>
</a>
</g>
</g>
<!-- Node8&#45;&gt;Node9 -->
<g id="edge9" class="edge">
<title>Node8&#45;&gt;Node9</title>
<path fill="none" stroke="#63b8ff" d="M859.66,-54.75C860.57,-47.8 861.89,-37.85 863.04,-29.13"/>
<polygon fill="#63b8ff" stroke="#63b8ff" points="866.53,-29.46 864.37,-19.09 859.59,-28.54 866.53,-29.46"/>
</g>
<!-- Node10 -->
<g id="node10" class="node">
<title>Node10</title>
<g id="a_node10"><a xlink:title=" ">
<polygon fill="#e0e0e0" stroke="#999999" points="973.5,-19 911.5,-19 911.5,0 973.5,0 973.5,-19"/>
<text text-anchor="middle" x="942.5" y="-7" font-family="Helvetica,sans-Serif" font-size="10.00">stdbool.h</text>
</a>
</g>
</g>
<!-- Node8&#45;&gt;Node10 -->
<g id="edge10" class="edge">
<title>Node8&#45;&gt;Node10</title>
<path fill="none" stroke="#63b8ff" d="M872,-54.98C884.9,-46.84 904.6,-34.41 919.9,-24.76"/>
<polygon fill="#63b8ff" stroke="#63b8ff" points="922.17,-27.47 928.76,-19.17 918.43,-21.55 922.17,-27.47"/>
</g>
<!-- Node11 -->
<g id="node11" class="node">
<title>Node11</title>
<g id="a_node11"><a xlink:title=" ">
<polygon fill="#e0e0e0" stroke="#999999" points="1039.5,-19 991.5,-19 991.5,0 1039.5,0 1039.5,-19"/>
<text text-anchor="middle" x="1015.5" y="-7" font-family="Helvetica,sans-Serif" font-size="10.00">time.h</text>
</a>
</g>
</g>
<!-- Node8&#45;&gt;Node11 -->
<g id="edge11" class="edge">
<title>Node8&#45;&gt;Node11</title>
<path fill="none" stroke="#63b8ff" d="M879.03,-56.57C905.13,-47.76 950.55,-32.43 981.77,-21.89"/>
<polygon fill="#63b8ff" stroke="#63b8ff" points="983.01,-25.16 991.37,-18.65 980.77,-18.53 983.01,-25.16"/>
</g>
<!-- Node12&#45;&gt;Node2 -->
<g id="edge13" class="edge">
<title>Node12&#45;&gt;Node2</title>
<path fill="none" stroke="#63b8ff" d="M229.7,-225.42C160.98,-220.98 67.85,-210.18 42.5,-184 16.71,-157.37 19.12,-110.23 22.93,-84.15"/>
<polygon fill="#63b8ff" stroke="#63b8ff" points="26.41,-84.54 24.63,-74.1 19.51,-83.37 26.41,-84.54"/>
</g>
<!-- Node12&#45;&gt;Node3 -->
<g id="edge14" class="edge">
<title>Node12&#45;&gt;Node3</title>
<path fill="none" stroke="#63b8ff" d="M296.61,-219.97C263.06,-193.68 160.99,-113.69 118.44,-80.34"/>
<polygon fill="#63b8ff" stroke="#63b8ff" points="120.56,-77.56 110.53,-74.15 116.25,-83.07 120.56,-77.56"/>
</g>
<!-- Node12&#45;&gt;Node4 -->
<g id="edge15" class="edge">
<title>Node12&#45;&gt;Node4</title>
<path fill="none" stroke="#63b8ff" d="M382.23,-219.97C524.95,-201.96 827.55,-154.92 888.5,-74 893.58,-67.25 893.02,-62.14 888.5,-55 881.58,-44.07 852.97,-31.44 829.11,-22.43"/>
<polygon fill="#63b8ff" stroke="#63b8ff" points="830.18,-19.1 819.59,-18.93 827.76,-25.67 830.18,-19.1"/>
</g>
<!-- Node12&#45;&gt;Node6 -->
<g id="edge16" class="edge">
<title>Node12&#45;&gt;Node6</title>
<path fill="none" stroke="#63b8ff" d="M329.7,-219.97C399.95,-192.96 617.62,-109.28 699.72,-77.72"/>
<polygon fill="#63b8ff" stroke="#63b8ff" points="701.19,-80.9 709.27,-74.05 698.68,-74.37 701.19,-80.9"/>
</g>
<!-- Node12&#45;&gt;Node7 -->
<g id="edge17" class="edge">
<title>Node12&#45;&gt;Node7</title>
<path fill="none" stroke="#63b8ff" d="M306.66,-219.95C304.15,-198.8 294.99,-143.36 265.5,-110 252.49,-95.29 233.49,-84.86 216.37,-77.82"/>
<polygon fill="#63b8ff" stroke="#63b8ff" points="217.17,-74.38 206.58,-74.06 214.66,-80.91 217.17,-74.38"/>
</g>
<!-- Node12&#45;&gt;Node8 -->
<g id="edge18" class="edge">
<title>Node12&#45;&gt;Node8</title>
<path fill="none" stroke="#63b8ff" d="M337.33,-219.96C368.37,-211.06 418.38,-196.67 461.5,-184 598.41,-143.79 761.54,-94.74 828.03,-74.69"/>
<polygon fill="#63b8ff" stroke="#63b8ff" points="829.29,-77.97 837.85,-71.73 827.27,-71.27 829.29,-77.97"/>
</g>
<!-- Node12&#45;&gt;Node13 -->
<g id="edge19" class="edge">
<title>Node12&#45;&gt;Node13</title>
<path fill="none" stroke="#63b8ff" d="M270.06,-219.98C224.9,-209.71 149.73,-192.61 106.94,-182.88"/>
<polygon fill="#63b8ff" stroke="#63b8ff" points="107.57,-179.43 97.05,-180.63 106.02,-186.26 107.57,-179.43"/>
</g>
<!-- Node13&#45;&gt;Node2 -->
<g id="edge21" class="edge">
<title>Node13&#45;&gt;Node2</title>
<path fill="none" stroke="#63b8ff" d="M70.57,-164.66C62.69,-146.93 44.82,-106.73 34.42,-83.32"/>
<polygon fill="#63b8ff" stroke="#63b8ff" points="37.61,-81.87 30.35,-74.16 31.21,-84.72 37.61,-81.87"/>
</g>
<!-- Node13&#45;&gt;Node3 -->
<g id="edge20" class="edge">
<title>Node13&#45;&gt;Node3</title>
<path fill="none" stroke="#63b8ff" d="M76.55,-164.66C80.61,-147.09 89.79,-107.45 95.23,-83.95"/>
<polygon fill="#63b8ff" stroke="#63b8ff" points="98.65,-84.69 97.5,-74.16 91.83,-83.11 98.65,-84.69"/>
</g>
<!-- Node13&#45;&gt;Node7 -->
<g id="edge22" class="edge">
<title>Node13&#45;&gt;Node7</title>
<path fill="none" stroke="#63b8ff" d="M82.85,-164.66C100.04,-146.46 139.62,-104.55 161.42,-81.47"/>
<polygon fill="#63b8ff" stroke="#63b8ff" points="164,-83.83 168.32,-74.16 158.91,-79.03 164,-83.83"/>
</g>
<!-- Node13&#45;&gt;Node14 -->
<g id="edge23" class="edge">
<title>Node13&#45;&gt;Node14</title>
<path fill="none" stroke="#63b8ff" d="M97.14,-167.99C101.87,-166.93 106.84,-165.87 111.5,-165 209.33,-146.66 326.02,-131.48 382.51,-124.55"/>
<polygon fill="#63b8ff" stroke="#63b8ff" points="383.16,-127.99 392.66,-123.31 382.31,-121.04 383.16,-127.99"/>
</g>
<!-- Node14&#45;&gt;Node2 -->
<g id="edge25" class="edge">
<title>Node14&#45;&gt;Node2</title>
<path fill="none" stroke="#63b8ff" d="M392.83,-116.35C335.85,-110.98 186.66,-95.85 63.5,-74 63.39,-73.98 63.29,-73.96 63.18,-73.94"/>
<polygon fill="#63b8ff" stroke="#63b8ff" points="63.6,-70.46 53.11,-71.95 62.24,-77.33 63.6,-70.46"/>
</g>
<!-- Node14&#45;&gt;Node3 -->
<g id="edge24" class="edge">
<title>Node14&#45;&gt;Node3</title>
<path fill="none" stroke="#63b8ff" d="M392.71,-115.35C345.72,-108.98 237.52,-93.69 136.28,-74.02"/>
<polygon fill="#63b8ff" stroke="#63b8ff" points="136.67,-70.53 126.19,-72.04 135.33,-77.4 136.67,-70.53"/>
</g>
<!-- Node14&#45;&gt;Node5 -->
<g id="edge32" class="edge">
<title>Node14&#45;&gt;Node5</title>
<path fill="none" stroke="#63b8ff" d="M392.65,-110.79C365.16,-101.91 319.69,-87.21 288.02,-76.98"/>
<polygon fill="#63b8ff" stroke="#63b8ff" points="288.86,-73.57 278.27,-73.83 286.71,-80.23 288.86,-73.57"/>
</g>
<!-- Node14&#45;&gt;Node6 -->
<g id="edge28" class="edge">
<title>Node14&#45;&gt;Node6</title>
<path fill="none" stroke="#63b8ff" d="M440.26,-114.53C485.05,-107.03 585.33,-90.24 679.76,-74.29"/>
<polygon fill="#63b8ff" stroke="#63b8ff" points="680.48,-77.72 689.76,-72.6 679.32,-70.82 680.48,-77.72"/>
</g>
<!-- Node14&#45;&gt;Node7 -->
<g id="edge26" class="edge">
<title>Node14&#45;&gt;Node7</title>
<path fill="none" stroke="#63b8ff" d="M392.61,-113.22C352.12,-104.28 269.51,-86.04 218.98,-74.88"/>
<polygon fill="#63b8ff" stroke="#63b8ff" points="219.53,-71.42 209.01,-72.68 218.02,-78.25 219.53,-71.42"/>
</g>
<!-- Node14&#45;&gt;Node8 -->
<g id="edge33" class="edge">
<title>Node14&#45;&gt;Node8</title>
<path fill="none" stroke="#63b8ff" d="M440.26,-115.65C514.82,-106.71 744.09,-79.22 827.64,-69.2"/>
<polygon fill="#63b8ff" stroke="#63b8ff" points="828.24,-72.65 837.76,-67.99 827.41,-65.7 828.24,-72.65"/>
</g>
<!-- Node15 -->
<g id="node15" class="node">
<title>Node15</title>
<g id="a_node15"><a xlink:title=" ">
<polygon fill="#e0e0e0" stroke="#999999" points="349,-74 296,-74 296,-55 349,-55 349,-74"/>
<text text-anchor="middle" x="322.5" y="-62" font-family="Helvetica,sans-Serif" font-size="10.00">stdint.h</text>
</a>
</g>
</g>
<!-- Node14&#45;&gt;Node15 -->
<g id="edge27" class="edge">
<title>Node14&#45;&gt;Node15</title>
<path fill="none" stroke="#63b8ff" d="M401.4,-109.98C386.68,-101.69 364.08,-88.94 346.83,-79.22"/>
<polygon fill="#63b8ff" stroke="#63b8ff" points="348.31,-76.03 337.88,-74.17 344.87,-82.13 348.31,-76.03"/>
</g>
<!-- Node16 -->
<g id="node16" class="node">
<title>Node16</title>
<g id="a_node16"><a xlink:title=" ">
<polygon fill="#e0e0e0" stroke="#999999" points="431.5,-74 367.5,-74 367.5,-55 431.5,-55 431.5,-74"/>
<text text-anchor="middle" x="399.5" y="-62" font-family="Helvetica,sans-Serif" font-size="10.00">sys/stat.h</text>
</a>
</g>
</g>
<!-- Node14&#45;&gt;Node16 -->
<g id="edge29" class="edge">
<title>Node14&#45;&gt;Node16</title>
<path fill="none" stroke="#63b8ff" d="M413.69,-109.75C411.44,-102.72 408.2,-92.62 405.38,-83.84"/>
<polygon fill="#63b8ff" stroke="#63b8ff" points="408.64,-82.54 402.25,-74.09 401.98,-84.68 408.64,-82.54"/>
</g>
<!-- Node17 -->
<g id="node17" class="node">
<title>Node17</title>
<g id="a_node17"><a xlink:title=" ">
<polygon fill="#e0e0e0" stroke="#999999" points="521.5,-74 449.5,-74 449.5,-55 521.5,-55 521.5,-74"/>
<text text-anchor="middle" x="485.5" y="-62" font-family="Helvetica,sans-Serif" font-size="10.00">sys/types.h</text>
</a>
</g>
</g>
<!-- Node14&#45;&gt;Node17 -->
<g id="edge30" class="edge">
<title>Node14&#45;&gt;Node17</title>
<path fill="none" stroke="#63b8ff" d="M427.59,-109.98C437.99,-102 453.76,-89.88 466.22,-80.31"/>
<polygon fill="#63b8ff" stroke="#63b8ff" points="468.41,-83.04 474.21,-74.17 464.15,-77.49 468.41,-83.04"/>
</g>
<!-- Node18 -->
<g id="node18" class="node">
<title>Node18</title>
<g id="a_node18"><a xlink:title=" ">
<polygon fill="#e0e0e0" stroke="#999999" points="591,-74 540,-74 540,-55 591,-55 591,-74"/>
<text text-anchor="middle" x="565.5" y="-62" font-family="Helvetica,sans-Serif" font-size="10.00">errno.h</text>
</a>
</g>
</g>
<!-- Node14&#45;&gt;Node18 -->
<g id="edge31" class="edge">
<title>Node14&#45;&gt;Node18</title>
<path fill="none" stroke="#63b8ff" d="M440.11,-110.1C464.81,-101.32 503.81,-87.44 531.76,-77.5"/>
<polygon fill="#63b8ff" stroke="#63b8ff" points="533.26,-80.68 541.51,-74.03 530.91,-74.09 533.26,-80.68"/>
</g>
<!-- Node19 -->
<g id="node19" class="node">
<title>Node19</title>
<g id="a_node19"><a xlink:title=" ">
<polygon fill="#e0e0e0" stroke="#999999" points="672,-74 609,-74 609,-55 672,-55 672,-74"/>
<text text-anchor="middle" x="640.5" y="-62" font-family="Helvetica,sans-Serif" font-size="10.00">libpq&#45;fe.h</text>
</a>
</g>
</g>
<!-- Node14&#45;&gt;Node19 -->
<g id="edge34" class="edge">
<title>Node14&#45;&gt;Node19</title>
<path fill="none" stroke="#63b8ff" d="M440.05,-112.93C477.72,-104.01 552.05,-86.43 598.85,-75.35"/>
<polygon fill="#63b8ff" stroke="#63b8ff" points="599.76,-78.74 608.68,-73.03 598.14,-71.93 599.76,-78.74"/>
</g>
</g>
</svg>
