<?xml version="1.0" encoding="UTF-8" standalone="no"?>
<!DOCTYPE svg PUBLIC "-//W3C//DTD SVG 1.1//EN"
 "http://www.w3.org/Graphics/SVG/1.1/DTD/svg11.dtd">
<!-- Generated by graphviz version 2.49.3 (20211027.1534)
 -->
<!-- Title: include/WillyWeather/location.h Pages: 1 -->
<svg width="481pt" height="218pt"
 viewBox="0.00 0.00 481.00 218.00" xmlns="http://www.w3.org/2000/svg" xmlns:xlink="http://www.w3.org/1999/xlink">
<g id="graph0" class="graph" transform="scale(1 1) rotate(0) translate(4 214)">
<title>include/WillyWeather/location.h</title>
<!-- Node1 -->
<g id="node1" class="node">
<title>Node1</title>
<g id="a_node1"><a xlink:title=" ">
<polygon fill="#bfbfbf" stroke="black" points="213.5,-179.5 213.5,-209.5 320.5,-209.5 320.5,-179.5 213.5,-179.5"/>
<text text-anchor="start" x="221.5" y="-197.5" font-family="Helvetica,sans-Serif" font-size="10.00">include/WillyWeather</text>
<text text-anchor="middle" x="267" y="-186.5" font-family="Helvetica,sans-Serif" font-size="10.00">/location.h</text>
</a>
</g>
</g>
<!-- Node2 -->
<g id="node2" class="node">
<title>Node2</title>
<g id="a_node2"><a xlink:href="precipitation_8h.html" target="_top" xlink:title=" ">
<polygon fill="none" stroke="black" points="88.5,-112.5 88.5,-142.5 195.5,-142.5 195.5,-112.5 88.5,-112.5"/>
<text text-anchor="start" x="96.5" y="-130.5" font-family="Helvetica,sans-Serif" font-size="10.00">include/WillyWeather</text>
<text text-anchor="middle" x="142" y="-119.5" font-family="Helvetica,sans-Serif" font-size="10.00">/precipitation.h</text>
</a>
</g>
</g>
<!-- Node1&#45;&gt;Node2 -->
<g id="edge1" class="edge">
<title>Node1&#45;&gt;Node2</title>
<path fill="none" stroke="midnightblue" d="M230.87,-174.71C211.16,-164.46 187.16,-151.98 169.07,-142.58"/>
<polygon fill="midnightblue" stroke="midnightblue" points="229.39,-177.89 239.88,-179.4 232.62,-171.68 229.39,-177.89"/>
</g>
<!-- Node6 -->
<g id="node6" class="node">
<title>Node6</title>
<g id="a_node6"><a xlink:href="tide_8h.html" target="_top" xlink:title=" ">
<polygon fill="none" stroke="black" points="213.5,-112.5 213.5,-142.5 320.5,-142.5 320.5,-112.5 213.5,-112.5"/>
<text text-anchor="start" x="221.5" y="-130.5" font-family="Helvetica,sans-Serif" font-size="10.00">include/WillyWeather</text>
<text text-anchor="middle" x="267" y="-119.5" font-family="Helvetica,sans-Serif" font-size="10.00">/tide.h</text>
</a>
</g>
</g>
<!-- Node1&#45;&gt;Node6 -->
<g id="edge5" class="edge">
<title>Node1&#45;&gt;Node6</title>
<path fill="none" stroke="midnightblue" d="M267,-169.11C267,-160.15 267,-150.32 267,-142.58"/>
<polygon fill="midnightblue" stroke="midnightblue" points="263.5,-169.4 267,-179.4 270.5,-169.4 263.5,-169.4"/>
</g>
<!-- Node8 -->
<g id="node8" class="node">
<title>Node8</title>
<g id="a_node8"><a xlink:href="location_8c.html" target="_top" xlink:title=" ">
<polygon fill="none" stroke="black" points="339,-118 339,-137 473,-137 473,-118 339,-118"/>
<text text-anchor="middle" x="406" y="-125" font-family="Helvetica,sans-Serif" font-size="10.00">src/WillyWeather/location.c</text>
</a>
</g>
</g>
<!-- Node1&#45;&gt;Node8 -->
<g id="edge8" class="edge">
<title>Node1&#45;&gt;Node8</title>
<path fill="none" stroke="midnightblue" d="M306.28,-175.13C333.03,-162.62 367.21,-146.64 387.81,-137.01"/>
<polygon fill="midnightblue" stroke="midnightblue" points="304.74,-171.99 297.16,-179.4 307.7,-178.33 304.74,-171.99"/>
</g>
<!-- Node3 -->
<g id="node3" class="node">
<title>Node3</title>
<g id="a_node3"><a xlink:href="main_8h.html" target="_top" xlink:title=" ">
<polygon fill="none" stroke="black" points="170.5,-56.5 170.5,-75.5 249.5,-75.5 249.5,-56.5 170.5,-56.5"/>
<text text-anchor="middle" x="210" y="-63.5" font-family="Helvetica,sans-Serif" font-size="10.00">include/main.h</text>
</a>
</g>
</g>
<!-- Node2&#45;&gt;Node3 -->
<g id="edge2" class="edge">
<title>Node2&#45;&gt;Node3</title>
<path fill="none" stroke="midnightblue" d="M165.89,-105.6C177.64,-95.32 191.16,-83.48 200.11,-75.66"/>
<polygon fill="midnightblue" stroke="midnightblue" points="163.34,-103.18 158.12,-112.4 167.95,-108.45 163.34,-103.18"/>
</g>
<!-- Node5 -->
<g id="node5" class="node">
<title>Node5</title>
<g id="a_node5"><a xlink:href="precipitation_8c.html" target="_top" xlink:title=" ">
<polygon fill="none" stroke="black" points="0,-56.5 0,-75.5 152,-75.5 152,-56.5 0,-56.5"/>
<text text-anchor="middle" x="76" y="-63.5" font-family="Helvetica,sans-Serif" font-size="10.00">src/WillyWeather/precipitation.c</text>
</a>
</g>
</g>
<!-- Node2&#45;&gt;Node5 -->
<g id="edge4" class="edge">
<title>Node2&#45;&gt;Node5</title>
<path fill="none" stroke="midnightblue" d="M118.81,-105.6C107.41,-95.32 94.28,-83.48 85.6,-75.66"/>
<polygon fill="midnightblue" stroke="midnightblue" points="116.59,-108.3 126.36,-112.4 121.28,-103.1 116.59,-108.3"/>
</g>
<!-- Node4 -->
<g id="node4" class="node">
<title>Node4</title>
<g id="a_node4"><a xlink:href="main_8c.html" target="_top" xlink:title=" ">
<polygon fill="none" stroke="black" points="179,-0.5 179,-19.5 241,-19.5 241,-0.5 179,-0.5"/>
<text text-anchor="middle" x="210" y="-7.5" font-family="Helvetica,sans-Serif" font-size="10.00">src/main.c</text>
</a>
</g>
</g>
<!-- Node3&#45;&gt;Node4 -->
<g id="edge3" class="edge">
<title>Node3&#45;&gt;Node4</title>
<path fill="none" stroke="midnightblue" d="M210,-45.8C210,-36.91 210,-26.78 210,-19.75"/>
<polygon fill="midnightblue" stroke="midnightblue" points="206.5,-46.08 210,-56.08 213.5,-46.08 206.5,-46.08"/>
</g>
<!-- Node6&#45;&gt;Node3 -->
<g id="edge6" class="edge">
<title>Node6&#45;&gt;Node3</title>
<path fill="none" stroke="midnightblue" d="M246.41,-105C236.69,-94.86 225.65,-83.33 218.29,-75.66"/>
<polygon fill="midnightblue" stroke="midnightblue" points="244.05,-107.6 253.49,-112.4 249.1,-102.76 244.05,-107.6"/>
</g>
<!-- Node7 -->
<g id="node7" class="node">
<title>Node7</title>
<g id="a_node7"><a xlink:href="tide_8c.html" target="_top" xlink:title=" ">
<polygon fill="none" stroke="black" points="267,-56.5 267,-75.5 383,-75.5 383,-56.5 267,-56.5"/>
<text text-anchor="middle" x="325" y="-63.5" font-family="Helvetica,sans-Serif" font-size="10.00">src/WillyWeather/tide.c</text>
</a>
</g>
</g>
<!-- Node6&#45;&gt;Node7 -->
<g id="edge7" class="edge">
<title>Node6&#45;&gt;Node7</title>
<path fill="none" stroke="midnightblue" d="M287.96,-105C297.84,-94.86 309.08,-83.33 316.56,-75.66"/>
<polygon fill="midnightblue" stroke="midnightblue" points="285.22,-102.8 280.75,-112.4 290.23,-107.68 285.22,-102.8"/>
</g>
</g>
</svg>
