<?xml version="1.0" encoding="UTF-8" standalone="no"?>
<!DOCTYPE svg PUBLIC "-//W3C//DTD SVG 1.1//EN"
 "http://www.w3.org/Graphics/SVG/1.1/DTD/svg11.dtd">
<!-- Generated by graphviz version 2.49.3 (20211027.1534)
 -->
<!-- Title: src/WillyWeather/location.c Pages: 1 -->
<svg width="590pt" height="196pt"
 viewBox="0.00 0.00 590.00 196.00" xmlns="http://www.w3.org/2000/svg" xmlns:xlink="http://www.w3.org/1999/xlink">
<g id="graph0" class="graph" transform="scale(1 1) rotate(0) translate(4 192)">
<title>src/WillyWeather/location.c</title>
<!-- Node1 -->
<g id="node1" class="node">
<title>Node1</title>
<g id="a_node1"><a xlink:title=" ">
<polygon fill="#bfbfbf" stroke="black" points="173.5,-168.5 173.5,-187.5 307.5,-187.5 307.5,-168.5 173.5,-168.5"/>
<text text-anchor="middle" x="240.5" y="-175.5" font-family="Helvetica,sans-Serif" font-size="10.00">src/WillyWeather/location.c</text>
</a>
</g>
</g>
<!-- Node2 -->
<g id="node2" class="node">
<title>Node2</title>
<g id="a_node2"><a xlink:href="location_8h.html" target="_top" xlink:title=" ">
<polygon fill="none" stroke="black" points="182,-112.5 182,-131.5 299,-131.5 299,-112.5 182,-112.5"/>
<text text-anchor="middle" x="240.5" y="-119.5" font-family="Helvetica,sans-Serif" font-size="10.00">WillyWeather/location.h</text>
</a>
</g>
</g>
<!-- Node1&#45;&gt;Node2 -->
<g id="edge1" class="edge">
<title>Node1&#45;&gt;Node2</title>
<path fill="none" stroke="midnightblue" d="M240.5,-168.08C240.5,-161.01 240.5,-150.86 240.5,-141.99"/>
<polygon fill="midnightblue" stroke="midnightblue" points="244,-141.75 240.5,-131.75 237,-141.75 244,-141.75"/>
</g>
<!-- Node3 -->
<g id="node3" class="node">
<title>Node3</title>
<g id="a_node3"><a xlink:title=" ">
<polygon fill="none" stroke="#bfbfbf" points="65.5,-0.5 65.5,-19.5 113.5,-19.5 113.5,-0.5 65.5,-0.5"/>
<text text-anchor="middle" x="89.5" y="-7.5" font-family="Helvetica,sans-Serif" font-size="10.00">string.h</text>
</a>
</g>
</g>
<!-- Node2&#45;&gt;Node3 -->
<g id="edge2" class="edge">
<title>Node2&#45;&gt;Node3</title>
<path fill="none" stroke="midnightblue" d="M181.77,-113.7C155.8,-107.62 126.84,-96.46 107.5,-76 95.82,-63.65 91.6,-44.4 90.13,-30.05"/>
<polygon fill="midnightblue" stroke="midnightblue" points="93.61,-29.57 89.46,-19.82 86.62,-30.03 93.61,-29.57"/>
</g>
<!-- Node4 -->
<g id="node4" class="node">
<title>Node4</title>
<g id="a_node4"><a xlink:title=" ">
<polygon fill="none" stroke="#bfbfbf" points="132,-0.5 132,-19.5 179,-19.5 179,-0.5 132,-0.5"/>
<text text-anchor="middle" x="155.5" y="-7.5" font-family="Helvetica,sans-Serif" font-size="10.00">stdlib.h</text>
</a>
</g>
</g>
<!-- Node2&#45;&gt;Node4 -->
<g id="edge3" class="edge">
<title>Node2&#45;&gt;Node4</title>
<path fill="none" stroke="midnightblue" d="M181.94,-114.96C156.88,-109.13 129.89,-97.84 114.5,-76 102.72,-59.28 119.74,-39.28 135.3,-25.92"/>
<polygon fill="midnightblue" stroke="midnightblue" points="137.56,-28.6 143.15,-19.59 133.17,-23.15 137.56,-28.6"/>
</g>
<!-- Node5 -->
<g id="node5" class="node">
<title>Node5</title>
<g id="a_node5"><a xlink:title=" ">
<polygon fill="none" stroke="#bfbfbf" points="0,-0.5 0,-19.5 45,-19.5 45,-0.5 0,-0.5"/>
<text text-anchor="middle" x="22.5" y="-7.5" font-family="Helvetica,sans-Serif" font-size="10.00">stdio.h</text>
</a>
</g>
</g>
<!-- Node2&#45;&gt;Node5 -->
<g id="edge4" class="edge">
<title>Node2&#45;&gt;Node5</title>
<path fill="none" stroke="midnightblue" d="M193.63,-112.45C163.37,-105.6 123.93,-94.07 92.5,-76 70.39,-63.29 49.58,-42.39 36.49,-27.72"/>
<polygon fill="midnightblue" stroke="midnightblue" points="38.92,-25.18 29.72,-19.92 33.63,-29.77 38.92,-25.18"/>
</g>
<!-- Node6 -->
<g id="node6" class="node">
<title>Node6</title>
<g id="a_node6"><a xlink:title=" ">
<polygon fill="none" stroke="#bfbfbf" points="415.5,-56.5 415.5,-75.5 461.5,-75.5 461.5,-56.5 415.5,-56.5"/>
<text text-anchor="middle" x="438.5" y="-63.5" font-family="Helvetica,sans-Serif" font-size="10.00">math.h</text>
</a>
</g>
</g>
<!-- Node2&#45;&gt;Node6 -->
<g id="edge5" class="edge">
<title>Node2&#45;&gt;Node6</title>
<path fill="none" stroke="midnightblue" d="M272.35,-112.46C303.82,-104 353.61,-90.57 405.69,-76.21"/>
<polygon fill="midnightblue" stroke="midnightblue" points="406.73,-79.55 415.44,-73.52 404.86,-72.8 406.73,-79.55"/>
</g>
<!-- Node7 -->
<g id="node7" class="node">
<title>Node7</title>
<g id="a_node7"><a xlink:title=" ">
<polygon fill="none" stroke="#bfbfbf" points="197,-0.5 197,-19.5 280,-19.5 280,-0.5 197,-0.5"/>
<text text-anchor="middle" x="238.5" y="-7.5" font-family="Helvetica,sans-Serif" font-size="10.00">cjson/cJSON.h</text>
</a>
</g>
</g>
<!-- Node2&#45;&gt;Node7 -->
<g id="edge6" class="edge">
<title>Node2&#45;&gt;Node7</title>
<path fill="none" stroke="midnightblue" d="M248.76,-112.42C259.46,-100.22 276.03,-77 269.5,-56 266.27,-45.62 259.72,-35.52 253.48,-27.53"/>
<polygon fill="midnightblue" stroke="midnightblue" points="256.08,-25.19 246.98,-19.77 250.71,-29.68 256.08,-25.19"/>
</g>
<!-- Node8 -->
<g id="node8" class="node">
<title>Node8</title>
<g id="a_node8"><a xlink:title=" ">
<polygon fill="none" stroke="#bfbfbf" points="298,-0.5 298,-19.5 357,-19.5 357,-0.5 298,-0.5"/>
<text text-anchor="middle" x="327.5" y="-7.5" font-family="Helvetica,sans-Serif" font-size="10.00">curl/curl.h</text>
</a>
</g>
</g>
<!-- Node2&#45;&gt;Node8 -->
<g id="edge7" class="edge">
<title>Node2&#45;&gt;Node8</title>
<path fill="none" stroke="midnightblue" d="M249.79,-112.5C259.08,-103.78 273.52,-89.6 284.5,-76 296.81,-60.75 308.96,-41.95 317.18,-28.5"/>
<polygon fill="midnightblue" stroke="midnightblue" points="320.27,-30.15 322.43,-19.77 314.27,-26.54 320.27,-30.15"/>
</g>
<!-- Node9 -->
<g id="node9" class="node">
<title>Node9</title>
<g id="a_node9"><a xlink:href="_willy_weather_2authenticate_8h.html" target="_top" xlink:title=" ">
<polygon fill="none" stroke="black" points="124,-56.5 124,-75.5 261,-75.5 261,-56.5 124,-56.5"/>
<text text-anchor="middle" x="192.5" y="-63.5" font-family="Helvetica,sans-Serif" font-size="10.00">WillyWeather/authenticate.h</text>
</a>
</g>
</g>
<!-- Node2&#45;&gt;Node9 -->
<g id="edge8" class="edge">
<title>Node2&#45;&gt;Node9</title>
<path fill="none" stroke="midnightblue" d="M232.57,-112.08C225.65,-104.3 215.43,-92.8 207.05,-83.37"/>
<polygon fill="midnightblue" stroke="midnightblue" points="209.54,-80.9 200.28,-75.75 204.31,-85.55 209.54,-80.9"/>
</g>
<!-- Node10 -->
<g id="node10" class="node">
<title>Node10</title>
<g id="a_node10"><a xlink:href="utils_8h.html" target="_top" xlink:title=" ">
<polygon fill="none" stroke="black" points="355.5,-56.5 355.5,-75.5 397.5,-75.5 397.5,-56.5 355.5,-56.5"/>
<text text-anchor="middle" x="376.5" y="-63.5" font-family="Helvetica,sans-Serif" font-size="10.00">utils.h</text>
</a>
</g>
</g>
<!-- Node2&#45;&gt;Node10 -->
<g id="edge14" class="edge">
<title>Node2&#45;&gt;Node10</title>
<path fill="none" stroke="midnightblue" d="M262.05,-112.44C284.66,-103.46 320.41,-89.27 345.93,-79.14"/>
<polygon fill="midnightblue" stroke="midnightblue" points="347.5,-82.28 355.5,-75.34 344.91,-75.78 347.5,-82.28"/>
</g>
<!-- Node9&#45;&gt;Node3 -->
<g id="edge9" class="edge">
<title>Node9&#45;&gt;Node3</title>
<path fill="none" stroke="midnightblue" d="M175.95,-56.32C159.51,-47.7 134.07,-34.36 115.03,-24.39"/>
<polygon fill="midnightblue" stroke="midnightblue" points="116.49,-21.2 106.01,-19.65 113.24,-27.4 116.49,-21.2"/>
</g>
<!-- Node9&#45;&gt;Node4 -->
<g id="edge10" class="edge">
<title>Node9&#45;&gt;Node4</title>
<path fill="none" stroke="midnightblue" d="M186.39,-56.08C181.22,-48.53 173.65,-37.49 167.31,-28.23"/>
<polygon fill="midnightblue" stroke="midnightblue" points="170.04,-26.02 161.5,-19.75 164.26,-29.98 170.04,-26.02"/>
</g>
<!-- Node9&#45;&gt;Node5 -->
<g id="edge11" class="edge">
<title>Node9&#45;&gt;Node5</title>
<path fill="none" stroke="midnightblue" d="M165.56,-56.44C135.57,-46.92 87.11,-31.52 55.03,-21.33"/>
<polygon fill="midnightblue" stroke="midnightblue" points="55.82,-17.91 45.23,-18.22 53.7,-24.58 55.82,-17.91"/>
</g>
<!-- Node9&#45;&gt;Node7 -->
<g id="edge12" class="edge">
<title>Node9&#45;&gt;Node7</title>
<path fill="none" stroke="midnightblue" d="M200.1,-56.08C206.73,-48.3 216.52,-36.8 224.56,-27.37"/>
<polygon fill="midnightblue" stroke="midnightblue" points="227.23,-29.63 231.05,-19.75 221.9,-25.09 227.23,-29.63"/>
</g>
<!-- Node9&#45;&gt;Node8 -->
<g id="edge13" class="edge">
<title>Node9&#45;&gt;Node8</title>
<path fill="none" stroke="midnightblue" d="M213.89,-56.44C236.21,-47.52 271.4,-33.44 296.71,-23.32"/>
<polygon fill="midnightblue" stroke="midnightblue" points="298.22,-26.48 306.21,-19.52 295.62,-19.98 298.22,-26.48"/>
</g>
<!-- Node10&#45;&gt;Node3 -->
<g id="edge16" class="edge">
<title>Node10&#45;&gt;Node3</title>
<path fill="none" stroke="midnightblue" d="M355.3,-61.91C313.07,-55.62 215.34,-40.35 123.59,-20.08"/>
<polygon fill="midnightblue" stroke="midnightblue" points="124.11,-16.61 113.59,-17.84 122.58,-23.44 124.11,-16.61"/>
</g>
<!-- Node10&#45;&gt;Node4 -->
<g id="edge15" class="edge">
<title>Node10&#45;&gt;Node4</title>
<path fill="none" stroke="midnightblue" d="M355.46,-60.28C322.12,-52.75 254.92,-37.3 188.96,-20.31"/>
<polygon fill="midnightblue" stroke="midnightblue" points="189.79,-16.91 179.24,-17.79 188.04,-23.69 189.79,-16.91"/>
</g>
<!-- Node10&#45;&gt;Node7 -->
<g id="edge18" class="edge">
<title>Node10&#45;&gt;Node7</title>
<path fill="none" stroke="midnightblue" d="M355.24,-56.68C332.45,-47.76 296.02,-33.51 269.92,-23.29"/>
<polygon fill="midnightblue" stroke="midnightblue" points="271.06,-19.98 260.47,-19.6 268.51,-26.5 271.06,-19.98"/>
</g>
<!-- Node10&#45;&gt;Node8 -->
<g id="edge17" class="edge">
<title>Node10&#45;&gt;Node8</title>
<path fill="none" stroke="midnightblue" d="M368.41,-56.08C361.34,-48.3 350.91,-36.8 342.35,-27.37"/>
<polygon fill="midnightblue" stroke="midnightblue" points="344.75,-24.8 335.44,-19.75 339.57,-29.51 344.75,-24.8"/>
</g>
<!-- Node11 -->
<g id="node11" class="node">
<title>Node11</title>
<g id="a_node11"><a xlink:title=" ">
<polygon fill="none" stroke="#bfbfbf" points="440,-0.5 440,-19.5 499,-19.5 499,-0.5 440,-0.5"/>
<text text-anchor="middle" x="469.5" y="-7.5" font-family="Helvetica,sans-Serif" font-size="10.00">sys/stat.h</text>
</a>
</g>
</g>
<!-- Node10&#45;&gt;Node11 -->
<g id="edge19" class="edge">
<title>Node10&#45;&gt;Node11</title>
<path fill="none" stroke="midnightblue" d="M391.44,-56.32C406.09,-47.82 428.63,-34.73 445.74,-24.8"/>
<polygon fill="midnightblue" stroke="midnightblue" points="447.7,-27.7 454.6,-19.65 444.19,-21.65 447.7,-27.7"/>
</g>
<!-- Node12 -->
<g id="node12" class="node">
<title>Node12</title>
<g id="a_node12"><a xlink:title=" ">
<polygon fill="none" stroke="#bfbfbf" points="517,-0.5 517,-19.5 582,-19.5 582,-0.5 517,-0.5"/>
<text text-anchor="middle" x="549.5" y="-7.5" font-family="Helvetica,sans-Serif" font-size="10.00">sys/types.h</text>
</a>
</g>
</g>
<!-- Node10&#45;&gt;Node12 -->
<g id="edge20" class="edge">
<title>Node10&#45;&gt;Node12</title>
<path fill="none" stroke="midnightblue" d="M397.71,-58.38C426.21,-49.48 477.3,-33.54 512.28,-22.62"/>
<polygon fill="midnightblue" stroke="midnightblue" points="513.62,-25.87 522.12,-19.55 511.53,-19.18 513.62,-25.87"/>
</g>
<!-- Node13 -->
<g id="node13" class="node">
<title>Node13</title>
<g id="a_node13"><a xlink:title=" ">
<polygon fill="none" stroke="#bfbfbf" points="375.5,-0.5 375.5,-19.5 421.5,-19.5 421.5,-0.5 375.5,-0.5"/>
<text text-anchor="middle" x="398.5" y="-7.5" font-family="Helvetica,sans-Serif" font-size="10.00">errno.h</text>
</a>
</g>
</g>
<!-- Node10&#45;&gt;Node13 -->
<g id="edge21" class="edge">
<title>Node10&#45;&gt;Node13</title>
<path fill="none" stroke="midnightblue" d="M380.13,-56.08C383.11,-48.77 387.43,-38.18 391.12,-29.1"/>
<polygon fill="midnightblue" stroke="midnightblue" points="394.4,-30.33 394.93,-19.75 387.92,-27.69 394.4,-30.33"/>
</g>
</g>
</svg>
