<?xml version="1.0" encoding="UTF-8" standalone="no"?>
<!DOCTYPE svg PUBLIC "-//W3C//DTD SVG 1.1//EN"
 "http://www.w3.org/Graphics/SVG/1.1/DTD/svg11.dtd">
<!-- Generated by graphviz version 2.49.3 (20211027.1534)
 -->
<!-- Title: include/WillyWeather/location.h Pages: 1 -->
<svg width="792pt" height="319pt"
 viewBox="0.00 0.00 792.00 319.00" xmlns="http://www.w3.org/2000/svg" xmlns:xlink="http://www.w3.org/1999/xlink">
<g id="graph0" class="graph" transform="scale(1 1) rotate(0) translate(4 315)">
<title>include/WillyWeather/location.h</title>
<!-- Node1 -->
<g id="node1" class="node">
<title>Node1</title>
<g id="a_node1"><a xlink:title=" ">
<polygon fill="#bfbfbf" stroke="black" points="193.5,-280.5 193.5,-310.5 300.5,-310.5 300.5,-280.5 193.5,-280.5"/>
<text text-anchor="start" x="201.5" y="-298.5" font-family="Helvetica,sans-Serif" font-size="10.00">include/WillyWeather</text>
<text text-anchor="middle" x="247" y="-287.5" font-family="Helvetica,sans-Serif" font-size="10.00">/location.h</text>
</a>
</g>
</g>
<!-- Node2 -->
<g id="node2" class="node">
<title>Node2</title>
<g id="a_node2"><a xlink:title=" ">
<polygon fill="none" stroke="#bfbfbf" points="736,-56.5 736,-75.5 784,-75.5 784,-56.5 736,-56.5"/>
<text text-anchor="middle" x="760" y="-63.5" font-family="Helvetica,sans-Serif" font-size="10.00">string.h</text>
</a>
</g>
</g>
<!-- Node1&#45;&gt;Node2 -->
<g id="edge1" class="edge">
<title>Node1&#45;&gt;Node2</title>
<path fill="none" stroke="midnightblue" d="M300.94,-287.22C346.83,-279.87 413.87,-266.34 469,-244 579.2,-199.33 695.83,-115.62 740.79,-81.77"/>
<polygon fill="midnightblue" stroke="midnightblue" points="742.95,-84.52 748.8,-75.69 738.72,-78.95 742.95,-84.52"/>
</g>
<!-- Node3 -->
<g id="node3" class="node">
<title>Node3</title>
<g id="a_node3"><a xlink:title=" ">
<polygon fill="none" stroke="#bfbfbf" points="379.5,-56.5 379.5,-75.5 426.5,-75.5 426.5,-56.5 379.5,-56.5"/>
<text text-anchor="middle" x="403" y="-63.5" font-family="Helvetica,sans-Serif" font-size="10.00">stdlib.h</text>
</a>
</g>
</g>
<!-- Node1&#45;&gt;Node3 -->
<g id="edge2" class="edge">
<title>Node1&#45;&gt;Node3</title>
<path fill="none" stroke="midnightblue" d="M300.55,-285.61C326.21,-278.59 355.17,-266.1 373,-244 410.62,-197.36 408.65,-120.94 405.34,-85.78"/>
<polygon fill="midnightblue" stroke="midnightblue" points="408.79,-85.1 404.22,-75.54 401.83,-85.86 408.79,-85.1"/>
</g>
<!-- Node4 -->
<g id="node4" class="node">
<title>Node4</title>
<g id="a_node4"><a xlink:title=" ">
<polygon fill="none" stroke="#bfbfbf" points="118.5,-0.5 118.5,-19.5 163.5,-19.5 163.5,-0.5 118.5,-0.5"/>
<text text-anchor="middle" x="141" y="-7.5" font-family="Helvetica,sans-Serif" font-size="10.00">stdio.h</text>
</a>
</g>
</g>
<!-- Node1&#45;&gt;Node4 -->
<g id="edge3" class="edge">
<title>Node1&#45;&gt;Node4</title>
<path fill="none" stroke="midnightblue" d="M193.4,-292.44C120.76,-286.44 0,-263.74 0,-179 0,-179 0,-179 0,-121 0,-88.4 10,-78.07 34,-56 55.06,-36.63 85.68,-24.91 108.77,-18.3"/>
<polygon fill="midnightblue" stroke="midnightblue" points="109.72,-21.67 118.47,-15.7 107.9,-14.91 109.72,-21.67"/>
</g>
<!-- Node5 -->
<g id="node5" class="node">
<title>Node5</title>
<g id="a_node5"><a xlink:title=" ">
<polygon fill="none" stroke="#bfbfbf" points="183,-56.5 183,-75.5 229,-75.5 229,-56.5 183,-56.5"/>
<text text-anchor="middle" x="206" y="-63.5" font-family="Helvetica,sans-Serif" font-size="10.00">math.h</text>
</a>
</g>
</g>
<!-- Node1&#45;&gt;Node5 -->
<g id="edge4" class="edge">
<title>Node1&#45;&gt;Node5</title>
<path fill="none" stroke="midnightblue" d="M209.83,-280.33C193.11,-272.14 174.57,-260.2 163,-244 148.2,-223.29 153.68,-213.31 151,-188 147.4,-154.06 146.12,-142.21 162,-112 168,-100.6 177.8,-90.15 186.64,-82.2"/>
<polygon fill="midnightblue" stroke="midnightblue" points="188.99,-84.79 194.34,-75.65 184.46,-79.46 188.99,-84.79"/>
</g>
<!-- Node6 -->
<g id="node6" class="node">
<title>Node6</title>
<g id="a_node6"><a xlink:title=" ">
<polygon fill="none" stroke="#bfbfbf" points="43.5,-56.5 43.5,-75.5 126.5,-75.5 126.5,-56.5 43.5,-56.5"/>
<text text-anchor="middle" x="85" y="-63.5" font-family="Helvetica,sans-Serif" font-size="10.00">cjson/cJSON.h</text>
</a>
</g>
</g>
<!-- Node1&#45;&gt;Node6 -->
<g id="edge5" class="edge">
<title>Node1&#45;&gt;Node6</title>
<path fill="none" stroke="midnightblue" d="M204.26,-280.34C185.46,-272.25 164.42,-260.4 150,-244 108.63,-196.96 92.79,-121.34 87.43,-86.15"/>
<polygon fill="midnightblue" stroke="midnightblue" points="90.84,-85.29 85.99,-75.87 83.91,-86.26 90.84,-85.29"/>
</g>
<!-- Node7 -->
<g id="node7" class="node">
<title>Node7</title>
<g id="a_node7"><a xlink:title=" ">
<polygon fill="none" stroke="#bfbfbf" points="302.5,-56.5 302.5,-75.5 361.5,-75.5 361.5,-56.5 302.5,-56.5"/>
<text text-anchor="middle" x="332" y="-63.5" font-family="Helvetica,sans-Serif" font-size="10.00">curl/curl.h</text>
</a>
</g>
</g>
<!-- Node1&#45;&gt;Node7 -->
<g id="edge6" class="edge">
<title>Node1&#45;&gt;Node7</title>
<path fill="none" stroke="midnightblue" d="M234.87,-280.43C224.26,-266.36 211.5,-244.01 218,-224 237.24,-164.77 288.14,-109.21 314.94,-82.91"/>
<polygon fill="midnightblue" stroke="midnightblue" points="317.65,-85.17 322.43,-75.71 312.79,-80.12 317.65,-85.17"/>
</g>
<!-- Node8 -->
<g id="node8" class="node">
<title>Node8</title>
<g id="a_node8"><a xlink:href="log_8h.html" target="_top" xlink:title=" ">
<polygon fill="none" stroke="black" points="247.5,-56.5 247.5,-75.5 284.5,-75.5 284.5,-56.5 247.5,-56.5"/>
<text text-anchor="middle" x="266" y="-63.5" font-family="Helvetica,sans-Serif" font-size="10.00">log.h</text>
</a>
</g>
</g>
<!-- Node1&#45;&gt;Node8 -->
<g id="edge7" class="edge">
<title>Node1&#45;&gt;Node8</title>
<path fill="none" stroke="midnightblue" d="M214.85,-280.34C200.17,-272.03 184.25,-260 176,-244 149.1,-191.86 145.16,-161.9 176,-112 183.07,-100.56 214.2,-86.6 237.89,-77.29"/>
<polygon fill="midnightblue" stroke="midnightblue" points="239.41,-80.45 247.49,-73.61 236.9,-73.92 239.41,-80.45"/>
</g>
<!-- Node12 -->
<g id="node12" class="node">
<title>Node12</title>
<g id="a_node12"><a xlink:href="_willy_weather_2authenticate_8h.html" target="_top" xlink:title=" ">
<polygon fill="none" stroke="black" points="227.5,-224.5 227.5,-243.5 364.5,-243.5 364.5,-224.5 227.5,-224.5"/>
<text text-anchor="middle" x="296" y="-231.5" font-family="Helvetica,sans-Serif" font-size="10.00">WillyWeather/authenticate.h</text>
</a>
</g>
</g>
<!-- Node1&#45;&gt;Node12 -->
<g id="edge12" class="edge">
<title>Node1&#45;&gt;Node12</title>
<path fill="none" stroke="midnightblue" d="M258.61,-280.4C265.73,-271.75 274.88,-260.64 282.35,-251.58"/>
<polygon fill="midnightblue" stroke="midnightblue" points="285.21,-253.6 288.87,-243.66 279.81,-249.15 285.21,-253.6"/>
</g>
<!-- Node13 -->
<g id="node13" class="node">
<title>Node13</title>
<g id="a_node13"><a xlink:href="http_8h.html" target="_top" xlink:title=" ">
<polygon fill="none" stroke="black" points="435.5,-168.5 435.5,-187.5 476.5,-187.5 476.5,-168.5 435.5,-168.5"/>
<text text-anchor="middle" x="456" y="-175.5" font-family="Helvetica,sans-Serif" font-size="10.00">http.h</text>
</a>
</g>
</g>
<!-- Node1&#45;&gt;Node13 -->
<g id="edge34" class="edge">
<title>Node1&#45;&gt;Node13</title>
<path fill="none" stroke="midnightblue" d="M300.7,-289.84C337.92,-284.19 386.75,-271.68 421,-244 435.92,-231.94 445.36,-211.77 450.62,-197.09"/>
<polygon fill="midnightblue" stroke="midnightblue" points="453.96,-198.15 453.74,-187.56 447.3,-195.98 453.96,-198.15"/>
</g>
<!-- Node14 -->
<g id="node14" class="node">
<title>Node14</title>
<g id="a_node14"><a xlink:href="utils_8h.html" target="_top" xlink:title=" ">
<polygon fill="none" stroke="black" points="484,-112.5 484,-131.5 526,-131.5 526,-112.5 484,-112.5"/>
<text text-anchor="middle" x="505" y="-119.5" font-family="Helvetica,sans-Serif" font-size="10.00">utils.h</text>
</a>
</g>
</g>
<!-- Node1&#45;&gt;Node14 -->
<g id="edge35" class="edge">
<title>Node1&#45;&gt;Node14</title>
<path fill="none" stroke="midnightblue" d="M300.78,-290.6C342.84,-285.34 401.16,-272.99 444,-244 479.45,-220.01 495.32,-169.01 501.54,-141.5"/>
<polygon fill="midnightblue" stroke="midnightblue" points="504.99,-142.1 503.58,-131.6 498.13,-140.69 504.99,-142.1"/>
</g>
<!-- Node8&#45;&gt;Node4 -->
<g id="edge8" class="edge">
<title>Node8&#45;&gt;Node4</title>
<path fill="none" stroke="midnightblue" d="M247.29,-56.92C226.93,-48.12 194.13,-33.95 170.35,-23.68"/>
<polygon fill="midnightblue" stroke="midnightblue" points="171.65,-20.43 161.09,-19.68 168.88,-26.86 171.65,-20.43"/>
</g>
<!-- Node9 -->
<g id="node9" class="node">
<title>Node9</title>
<g id="a_node9"><a xlink:title=" ">
<polygon fill="none" stroke="#bfbfbf" points="181.5,-0.5 181.5,-19.5 232.5,-19.5 232.5,-0.5 181.5,-0.5"/>
<text text-anchor="middle" x="207" y="-7.5" font-family="Helvetica,sans-Serif" font-size="10.00">stdarg.h</text>
</a>
</g>
</g>
<!-- Node8&#45;&gt;Node9 -->
<g id="edge9" class="edge">
<title>Node8&#45;&gt;Node9</title>
<path fill="none" stroke="midnightblue" d="M256.52,-56.32C247.8,-48.34 234.66,-36.31 224.1,-26.65"/>
<polygon fill="midnightblue" stroke="midnightblue" points="226.39,-24 216.65,-19.83 221.67,-29.17 226.39,-24"/>
</g>
<!-- Node10 -->
<g id="node10" class="node">
<title>Node10</title>
<g id="a_node10"><a xlink:title=" ">
<polygon fill="none" stroke="#bfbfbf" points="251,-0.5 251,-19.5 307,-19.5 307,-0.5 251,-0.5"/>
<text text-anchor="middle" x="279" y="-7.5" font-family="Helvetica,sans-Serif" font-size="10.00">stdbool.h</text>
</a>
</g>
</g>
<!-- Node8&#45;&gt;Node10 -->
<g id="edge10" class="edge">
<title>Node8&#45;&gt;Node10</title>
<path fill="none" stroke="midnightblue" d="M268.15,-56.08C269.87,-48.93 272.35,-38.64 274.5,-29.69"/>
<polygon fill="midnightblue" stroke="midnightblue" points="277.96,-30.29 276.89,-19.75 271.15,-28.65 277.96,-30.29"/>
</g>
<!-- Node11 -->
<g id="node11" class="node">
<title>Node11</title>
<g id="a_node11"><a xlink:title=" ">
<polygon fill="none" stroke="#bfbfbf" points="325.5,-0.5 325.5,-19.5 368.5,-19.5 368.5,-0.5 325.5,-0.5"/>
<text text-anchor="middle" x="347" y="-7.5" font-family="Helvetica,sans-Serif" font-size="10.00">time.h</text>
</a>
</g>
</g>
<!-- Node8&#45;&gt;Node11 -->
<g id="edge11" class="edge">
<title>Node8&#45;&gt;Node11</title>
<path fill="none" stroke="midnightblue" d="M279.01,-56.32C291.53,-47.98 310.68,-35.21 325.47,-25.35"/>
<polygon fill="midnightblue" stroke="midnightblue" points="327.64,-28.11 334.02,-19.65 323.76,-22.29 327.64,-28.11"/>
</g>
<!-- Node12&#45;&gt;Node2 -->
<g id="edge13" class="edge">
<title>Node12&#45;&gt;Node2</title>
<path fill="none" stroke="midnightblue" d="M341.69,-224.47C380.36,-216.7 437,-203.99 485,-188 544.3,-168.24 556.78,-157.16 614,-132 654.85,-114.04 701.99,-92.99 731.4,-79.83"/>
<polygon fill="midnightblue" stroke="midnightblue" points="732.96,-82.96 740.66,-75.68 730.1,-76.57 732.96,-82.96"/>
</g>
<!-- Node12&#45;&gt;Node3 -->
<g id="edge14" class="edge">
<title>Node12&#45;&gt;Node3</title>
<path fill="none" stroke="midnightblue" d="M301.75,-224.08C318.81,-197.61 369.35,-119.21 391.91,-84.21"/>
<polygon fill="midnightblue" stroke="midnightblue" points="395,-85.87 397.48,-75.57 389.12,-82.08 395,-85.87"/>
</g>
<!-- Node12&#45;&gt;Node4 -->
<g id="edge15" class="edge">
<title>Node12&#45;&gt;Node4</title>
<path fill="none" stroke="midnightblue" d="M288.21,-224.24C267.87,-201.12 212.08,-136.05 174,-76 164.37,-60.82 155.27,-42.48 149.07,-29.15"/>
<polygon fill="midnightblue" stroke="midnightblue" points="152.1,-27.35 144.77,-19.7 145.73,-30.25 152.1,-27.35"/>
</g>
<!-- Node12&#45;&gt;Node6 -->
<g id="edge16" class="edge">
<title>Node12&#45;&gt;Node6</title>
<path fill="none" stroke="midnightblue" d="M277.29,-224.42C260.14,-216.16 234.37,-202.78 214,-188 168.67,-155.11 122.45,-107.67 99.62,-83.1"/>
<polygon fill="midnightblue" stroke="midnightblue" points="102.16,-80.69 92.81,-75.7 97.01,-85.43 102.16,-80.69"/>
</g>
<!-- Node12&#45;&gt;Node7 -->
<g id="edge17" class="edge">
<title>Node12&#45;&gt;Node7</title>
<path fill="none" stroke="midnightblue" d="M297.94,-224.08C303.6,-197.95 320.24,-121.21 327.97,-85.58"/>
<polygon fill="midnightblue" stroke="midnightblue" points="331.44,-86.08 330.14,-75.57 324.6,-84.6 331.44,-86.08"/>
</g>
<!-- Node12&#45;&gt;Node8 -->
<g id="edge18" class="edge">
<title>Node12&#45;&gt;Node8</title>
<path fill="none" stroke="midnightblue" d="M294.39,-224.08C289.66,-197.95 275.8,-121.21 269.36,-85.58"/>
<polygon fill="midnightblue" stroke="midnightblue" points="272.77,-84.79 267.55,-75.57 265.88,-86.03 272.77,-84.79"/>
</g>
<!-- Node12&#45;&gt;Node13 -->
<g id="edge19" class="edge">
<title>Node12&#45;&gt;Node13</title>
<path fill="none" stroke="midnightblue" d="M321.35,-224.44C349.69,-214.88 395.56,-199.4 425.76,-189.21"/>
<polygon fill="midnightblue" stroke="midnightblue" points="426.99,-192.49 435.35,-185.97 424.75,-185.85 426.99,-192.49"/>
</g>
<!-- Node13&#45;&gt;Node2 -->
<g id="edge21" class="edge">
<title>Node13&#45;&gt;Node2</title>
<path fill="none" stroke="midnightblue" d="M476.57,-168.82C508.44,-156.22 571.72,-131.48 626,-112 659.79,-99.87 698.73,-86.91 725.89,-78.02"/>
<polygon fill="midnightblue" stroke="midnightblue" points="727.27,-81.26 735.69,-74.83 725.1,-74.6 727.27,-81.26"/>
</g>
<!-- Node13&#45;&gt;Node3 -->
<g id="edge20" class="edge">
<title>Node13&#45;&gt;Node3</title>
<path fill="none" stroke="midnightblue" d="M453.47,-168.34C449.61,-155.64 441.67,-131.37 432,-112 427.17,-102.33 420.75,-92.17 415.18,-83.95"/>
<polygon fill="midnightblue" stroke="midnightblue" points="417.96,-81.83 409.37,-75.63 412.22,-85.83 417.96,-81.83"/>
</g>
<!-- Node13&#45;&gt;Node7 -->
<g id="edge22" class="edge">
<title>Node13&#45;&gt;Node7</title>
<path fill="none" stroke="midnightblue" d="M446.27,-168.37C425.35,-149.81 375.87,-105.91 349.4,-82.44"/>
<polygon fill="midnightblue" stroke="midnightblue" points="351.49,-79.61 341.68,-75.59 346.84,-84.85 351.49,-79.61"/>
</g>
<!-- Node13&#45;&gt;Node14 -->
<g id="edge23" class="edge">
<title>Node13&#45;&gt;Node14</title>
<path fill="none" stroke="midnightblue" d="M464.09,-168.08C471.16,-160.3 481.59,-148.8 490.15,-139.37"/>
<polygon fill="midnightblue" stroke="midnightblue" points="492.93,-141.51 497.06,-131.75 487.75,-136.8 492.93,-141.51"/>
</g>
<!-- Node14&#45;&gt;Node2 -->
<g id="edge25" class="edge">
<title>Node14&#45;&gt;Node2</title>
<path fill="none" stroke="midnightblue" d="M526.22,-117.18C564.23,-110.24 646.6,-94.74 725.76,-76.17"/>
<polygon fill="midnightblue" stroke="midnightblue" points="726.97,-79.48 735.9,-73.77 725.36,-72.67 726.97,-79.48"/>
</g>
<!-- Node14&#45;&gt;Node3 -->
<g id="edge24" class="edge">
<title>Node14&#45;&gt;Node3</title>
<path fill="none" stroke="midnightblue" d="M488.61,-112.32C472.33,-103.7 447.13,-90.36 428.28,-80.39"/>
<polygon fill="midnightblue" stroke="midnightblue" points="429.82,-77.24 419.35,-75.65 426.55,-83.43 429.82,-77.24"/>
</g>
<!-- Node14&#45;&gt;Node5 -->
<g id="edge32" class="edge">
<title>Node14&#45;&gt;Node5</title>
<path fill="none" stroke="midnightblue" d="M483.74,-118.21C439.83,-112.27 335.81,-97.35 239.26,-76.09"/>
<polygon fill="midnightblue" stroke="midnightblue" points="239.87,-72.64 229.35,-73.88 238.34,-79.47 239.87,-72.64"/>
</g>
<!-- Node14&#45;&gt;Node6 -->
<g id="edge28" class="edge">
<title>Node14&#45;&gt;Node6</title>
<path fill="none" stroke="midnightblue" d="M483.88,-118.29C420.31,-110.11 229.4,-85.57 136.67,-73.64"/>
<polygon fill="midnightblue" stroke="midnightblue" points="137.03,-70.16 126.67,-72.36 136.14,-77.1 137.03,-70.16"/>
</g>
<!-- Node14&#45;&gt;Node7 -->
<g id="edge26" class="edge">
<title>Node14&#45;&gt;Node7</title>
<path fill="none" stroke="midnightblue" d="M483.79,-114.38C455.29,-105.48 404.2,-89.54 369.22,-78.62"/>
<polygon fill="midnightblue" stroke="midnightblue" points="369.97,-75.18 359.38,-75.55 367.88,-81.87 369.97,-75.18"/>
</g>
<!-- Node14&#45;&gt;Node8 -->
<g id="edge33" class="edge">
<title>Node14&#45;&gt;Node8</title>
<path fill="none" stroke="midnightblue" d="M483.75,-117.31C447,-110.75 369.07,-96.09 294.52,-76.19"/>
<polygon fill="midnightblue" stroke="midnightblue" points="295.07,-72.71 284.51,-73.47 293.24,-79.47 295.07,-72.71"/>
</g>
<!-- Node15 -->
<g id="node15" class="node">
<title>Node15</title>
<g id="a_node15"><a xlink:title=" ">
<polygon fill="none" stroke="#bfbfbf" points="445,-56.5 445,-75.5 493,-75.5 493,-56.5 445,-56.5"/>
<text text-anchor="middle" x="469" y="-63.5" font-family="Helvetica,sans-Serif" font-size="10.00">stdint.h</text>
</a>
</g>
</g>
<!-- Node14&#45;&gt;Node15 -->
<g id="edge27" class="edge">
<title>Node14&#45;&gt;Node15</title>
<path fill="none" stroke="midnightblue" d="M499.06,-112.08C494.02,-104.53 486.66,-93.49 480.49,-84.23"/>
<polygon fill="midnightblue" stroke="midnightblue" points="483.29,-82.13 474.83,-75.75 477.47,-86.01 483.29,-82.13"/>
</g>
<!-- Node16 -->
<g id="node16" class="node">
<title>Node16</title>
<g id="a_node16"><a xlink:title=" ">
<polygon fill="none" stroke="#bfbfbf" points="511.5,-56.5 511.5,-75.5 570.5,-75.5 570.5,-56.5 511.5,-56.5"/>
<text text-anchor="middle" x="541" y="-63.5" font-family="Helvetica,sans-Serif" font-size="10.00">sys/stat.h</text>
</a>
</g>
</g>
<!-- Node14&#45;&gt;Node16 -->
<g id="edge29" class="edge">
<title>Node14&#45;&gt;Node16</title>
<path fill="none" stroke="midnightblue" d="M510.94,-112.08C515.98,-104.53 523.34,-93.49 529.51,-84.23"/>
<polygon fill="midnightblue" stroke="midnightblue" points="532.53,-86.01 535.17,-75.75 526.71,-82.13 532.53,-86.01"/>
</g>
<!-- Node17 -->
<g id="node17" class="node">
<title>Node17</title>
<g id="a_node17"><a xlink:title=" ">
<polygon fill="none" stroke="#bfbfbf" points="588.5,-56.5 588.5,-75.5 653.5,-75.5 653.5,-56.5 588.5,-56.5"/>
<text text-anchor="middle" x="621" y="-63.5" font-family="Helvetica,sans-Serif" font-size="10.00">sys/types.h</text>
</a>
</g>
</g>
<!-- Node14&#45;&gt;Node17 -->
<g id="edge30" class="edge">
<title>Node14&#45;&gt;Node17</title>
<path fill="none" stroke="midnightblue" d="M523.38,-112.44C542.22,-103.68 571.73,-89.94 593.38,-79.86"/>
<polygon fill="midnightblue" stroke="midnightblue" points="595.12,-82.91 602.71,-75.52 592.16,-76.56 595.12,-82.91"/>
</g>
<!-- Node18 -->
<g id="node18" class="node">
<title>Node18</title>
<g id="a_node18"><a xlink:title=" ">
<polygon fill="none" stroke="#bfbfbf" points="672,-56.5 672,-75.5 718,-75.5 718,-56.5 672,-56.5"/>
<text text-anchor="middle" x="695" y="-63.5" font-family="Helvetica,sans-Serif" font-size="10.00">errno.h</text>
</a>
</g>
</g>
<!-- Node14&#45;&gt;Node18 -->
<g id="edge31" class="edge">
<title>Node14&#45;&gt;Node18</title>
<path fill="none" stroke="midnightblue" d="M526.06,-115.01C558.96,-105.66 622.84,-87.51 661.93,-76.4"/>
<polygon fill="midnightblue" stroke="midnightblue" points="663.11,-79.7 671.78,-73.6 661.2,-72.97 663.11,-79.7"/>
</g>
</g>
</svg>
