<?xml version="1.0" encoding="UTF-8" standalone="no"?>
<!DOCTYPE svg PUBLIC "-//W3C//DTD SVG 1.1//EN"
 "http://www.w3.org/Graphics/SVG/1.1/DTD/svg11.dtd">
<!-- Generated by graphviz version 2.49.3 (20211027.1534)
 -->
<!-- Title: include/WillyWeather/location.h Pages: 1 -->
<svg width="609pt" height="229pt"
 viewBox="0.00 0.00 609.00 229.00" xmlns="http://www.w3.org/2000/svg" xmlns:xlink="http://www.w3.org/1999/xlink">
<g id="graph0" class="graph" transform="scale(1 1) rotate(0) translate(4 225)">
<title>include/WillyWeather/location.h</title>
<!-- Node1 -->
<g id="node1" class="node">
<title>Node1</title>
<g id="a_node1"><a xlink:title=" ">
<polygon fill="#bfbfbf" stroke="black" points="276.5,-190.5 276.5,-220.5 383.5,-220.5 383.5,-190.5 276.5,-190.5"/>
<text text-anchor="start" x="284.5" y="-208.5" font-family="Helvetica,sans-Serif" font-size="10.00">include/WillyWeather</text>
<text text-anchor="middle" x="330" y="-197.5" font-family="Helvetica,sans-Serif" font-size="10.00">/location.h</text>
</a>
</g>
</g>
<!-- Node2 -->
<g id="node2" class="node">
<title>Node2</title>
<g id="a_node2"><a xlink:href="harvest__areas_8h.html" target="_top" xlink:title=" ">
<polygon fill="none" stroke="black" points="339,-123.5 339,-153.5 449,-153.5 449,-123.5 339,-123.5"/>
<text text-anchor="start" x="347" y="-141.5" font-family="Helvetica,sans-Serif" font-size="10.00">include/FoodAuthority</text>
<text text-anchor="middle" x="394" y="-130.5" font-family="Helvetica,sans-Serif" font-size="10.00">/harvest_areas.h</text>
</a>
</g>
</g>
<!-- Node1&#45;&gt;Node2 -->
<g id="edge1" class="edge">
<title>Node1&#45;&gt;Node2</title>
<path fill="none" stroke="midnightblue" d="M351.15,-183.02C360.68,-173.34 371.67,-162.17 380.14,-153.58"/>
<polygon fill="midnightblue" stroke="midnightblue" points="348.41,-180.81 343.89,-190.4 353.4,-185.73 348.41,-180.81"/>
</g>
<!-- Node6 -->
<g id="node6" class="node">
<title>Node6</title>
<g id="a_node6"><a xlink:href="precipitation_8h.html" target="_top" xlink:title=" ">
<polygon fill="none" stroke="black" points="88.5,-123.5 88.5,-153.5 195.5,-153.5 195.5,-123.5 88.5,-123.5"/>
<text text-anchor="start" x="96.5" y="-141.5" font-family="Helvetica,sans-Serif" font-size="10.00">include/WillyWeather</text>
<text text-anchor="middle" x="142" y="-130.5" font-family="Helvetica,sans-Serif" font-size="10.00">/precipitation.h</text>
</a>
</g>
</g>
<!-- Node1&#45;&gt;Node6 -->
<g id="edge5" class="edge">
<title>Node1&#45;&gt;Node6</title>
<path fill="none" stroke="midnightblue" d="M279.65,-187.09C249.3,-176.6 211.15,-163.41 182.71,-153.58"/>
<polygon fill="midnightblue" stroke="midnightblue" points="278.61,-190.44 289.21,-190.4 280.9,-183.82 278.61,-190.44"/>
</g>
<!-- Node8 -->
<g id="node8" class="node">
<title>Node8</title>
<g id="a_node8"><a xlink:href="tide_8h.html" target="_top" xlink:title=" ">
<polygon fill="none" stroke="black" points="213.5,-123.5 213.5,-153.5 320.5,-153.5 320.5,-123.5 213.5,-123.5"/>
<text text-anchor="start" x="221.5" y="-141.5" font-family="Helvetica,sans-Serif" font-size="10.00">include/WillyWeather</text>
<text text-anchor="middle" x="267" y="-130.5" font-family="Helvetica,sans-Serif" font-size="10.00">/tide.h</text>
</a>
</g>
</g>
<!-- Node1&#45;&gt;Node8 -->
<g id="edge8" class="edge">
<title>Node1&#45;&gt;Node8</title>
<path fill="none" stroke="midnightblue" d="M309.19,-183.02C299.8,-173.34 288.98,-162.17 280.64,-153.58"/>
<polygon fill="midnightblue" stroke="midnightblue" points="306.86,-185.65 316.33,-190.4 311.88,-180.78 306.86,-185.65"/>
</g>
<!-- Node10 -->
<g id="node10" class="node">
<title>Node10</title>
<g id="a_node10"><a xlink:href="location_8c.html" target="_top" xlink:title=" ">
<polygon fill="none" stroke="black" points="467,-129 467,-148 601,-148 601,-129 467,-129"/>
<text text-anchor="middle" x="534" y="-136" font-family="Helvetica,sans-Serif" font-size="10.00">src/WillyWeather/location.c</text>
</a>
</g>
</g>
<!-- Node1&#45;&gt;Node10 -->
<g id="edge11" class="edge">
<title>Node1&#45;&gt;Node10</title>
<path fill="none" stroke="midnightblue" d="M383.57,-187.43C423.36,-174.75 475.94,-158 507.23,-148.03"/>
<polygon fill="midnightblue" stroke="midnightblue" points="382.48,-184.11 374.01,-190.48 384.6,-190.77 382.48,-184.11"/>
</g>
<!-- Node3 -->
<g id="node3" class="node">
<title>Node3</title>
<g id="a_node3"><a xlink:href="main_8h.html" target="_top" xlink:title=" ">
<polygon fill="none" stroke="black" points="170.5,-62 170.5,-81 249.5,-81 249.5,-62 170.5,-62"/>
<text text-anchor="middle" x="210" y="-69" font-family="Helvetica,sans-Serif" font-size="10.00">include/main.h</text>
</a>
</g>
</g>
<!-- Node2&#45;&gt;Node3 -->
<g id="edge2" class="edge">
<title>Node2&#45;&gt;Node3</title>
<path fill="none" stroke="midnightblue" d="M344.31,-119.95C308.57,-107.32 261.95,-90.85 234.08,-81.01"/>
<polygon fill="midnightblue" stroke="midnightblue" points="343.48,-123.37 354.07,-123.4 345.81,-116.76 343.48,-123.37"/>
</g>
<!-- Node5 -->
<g id="node5" class="node">
<title>Node5</title>
<g id="a_node5"><a xlink:href="harvest__areas_8c.html" target="_top" xlink:title=" ">
<polygon fill="none" stroke="black" points="401,-56.5 401,-86.5 529,-86.5 529,-56.5 401,-56.5"/>
<text text-anchor="start" x="409" y="-74.5" font-family="Helvetica,sans-Serif" font-size="10.00">src/FoodAuthority/harvest</text>
<text text-anchor="middle" x="465" y="-63.5" font-family="Helvetica,sans-Serif" font-size="10.00">_areas.c</text>
</a>
</g>
</g>
<!-- Node2&#45;&gt;Node5 -->
<g id="edge4" class="edge">
<title>Node2&#45;&gt;Node5</title>
<path fill="none" stroke="midnightblue" d="M416.83,-116.6C427.55,-106.78 440.05,-95.34 449.62,-86.58"/>
<polygon fill="midnightblue" stroke="midnightblue" points="414.42,-114.06 409.41,-123.4 419.15,-119.22 414.42,-114.06"/>
</g>
<!-- Node4 -->
<g id="node4" class="node">
<title>Node4</title>
<g id="a_node4"><a xlink:href="main_8c.html" target="_top" xlink:title=" ">
<polygon fill="none" stroke="black" points="179,-0.5 179,-19.5 241,-19.5 241,-0.5 179,-0.5"/>
<text text-anchor="middle" x="210" y="-7.5" font-family="Helvetica,sans-Serif" font-size="10.00">src/main.c</text>
</a>
</g>
</g>
<!-- Node3&#45;&gt;Node4 -->
<g id="edge3" class="edge">
<title>Node3&#45;&gt;Node4</title>
<path fill="none" stroke="midnightblue" d="M210,-51.82C210,-41 210,-27.9 210,-19.51"/>
<polygon fill="midnightblue" stroke="midnightblue" points="206.5,-51.98 210,-61.98 213.5,-51.98 206.5,-51.98"/>
</g>
<!-- Node6&#45;&gt;Node3 -->
<g id="edge6" class="edge">
<title>Node6&#45;&gt;Node3</title>
<path fill="none" stroke="midnightblue" d="M164.14,-116.34C176.63,-104.4 191.55,-90.14 200.9,-81.19"/>
<polygon fill="midnightblue" stroke="midnightblue" points="161.57,-113.96 156.75,-123.4 166.4,-119.02 161.57,-113.96"/>
</g>
<!-- Node7 -->
<g id="node7" class="node">
<title>Node7</title>
<g id="a_node7"><a xlink:href="precipitation_8c.html" target="_top" xlink:title=" ">
<polygon fill="none" stroke="black" points="0,-62 0,-81 152,-81 152,-62 0,-62"/>
<text text-anchor="middle" x="76" y="-69" font-family="Helvetica,sans-Serif" font-size="10.00">src/WillyWeather/precipitation.c</text>
</a>
</g>
</g>
<!-- Node6&#45;&gt;Node7 -->
<g id="edge7" class="edge">
<title>Node6&#45;&gt;Node7</title>
<path fill="none" stroke="midnightblue" d="M120.51,-116.34C108.39,-104.4 93.91,-90.14 84.83,-81.19"/>
<polygon fill="midnightblue" stroke="midnightblue" points="118.1,-118.87 127.68,-123.4 123.01,-113.89 118.1,-118.87"/>
</g>
<!-- Node8&#45;&gt;Node3 -->
<g id="edge9" class="edge">
<title>Node8&#45;&gt;Node3</title>
<path fill="none" stroke="midnightblue" d="M247.85,-115.66C237.5,-103.86 225.32,-89.97 217.62,-81.19"/>
<polygon fill="midnightblue" stroke="midnightblue" points="245.41,-118.18 254.63,-123.4 250.67,-113.57 245.41,-118.18"/>
</g>
<!-- Node9 -->
<g id="node9" class="node">
<title>Node9</title>
<g id="a_node9"><a xlink:href="tide_8c.html" target="_top" xlink:title=" ">
<polygon fill="none" stroke="black" points="267,-62 267,-81 383,-81 383,-62 267,-62"/>
<text text-anchor="middle" x="325" y="-69" font-family="Helvetica,sans-Serif" font-size="10.00">src/WillyWeather/tide.c</text>
</a>
</g>
</g>
<!-- Node8&#45;&gt;Node9 -->
<g id="edge10" class="edge">
<title>Node8&#45;&gt;Node9</title>
<path fill="none" stroke="midnightblue" d="M286.49,-115.66C297.01,-103.86 309.41,-89.97 317.24,-81.19"/>
<polygon fill="midnightblue" stroke="midnightblue" points="283.63,-113.6 279.59,-123.4 288.85,-118.26 283.63,-113.6"/>
</g>
</g>
</svg>
