<?xml version="1.0" encoding="UTF-8" standalone="no"?>
<!DOCTYPE svg PUBLIC "-//W3C//DTD SVG 1.1//EN"
 "http://www.w3.org/Graphics/SVG/1.1/DTD/svg11.dtd">
<!-- Generated by graphviz version 2.43.0 (0)
 -->
<!-- Title: include/WillyWeather/location.h Pages: 1 -->
<svg width="1128pt" height="291pt"
 viewBox="0.00 0.00 1127.50 291.00" xmlns="http://www.w3.org/2000/svg" xmlns:xlink="http://www.w3.org/1999/xlink">
<g id="graph0" class="graph" transform="scale(1 1) rotate(0) translate(4 287)">
<title>include/WillyWeather/location.h</title>
<!-- Node1 -->
<g id="node1" class="node">
<title>Node1</title>
<g id="a_node1"><a xlink:title=" ">
<polygon fill="#999999" stroke="#666666" points="780,-283 660,-283 660,-253 780,-253 780,-283"/>
<text text-anchor="start" x="668" y="-271" font-family="Helvetica,sans-Serif" font-size="10.00">include/WillyWeather</text>
<text text-anchor="middle" x="720" y="-260" font-family="Helvetica,sans-Serif" font-size="10.00">/location.h</text>
</a>
</g>
</g>
<!-- Node2 -->
<g id="node2" class="node">
<title>Node2</title>
<g id="a_node2"><a xlink:href="harvest__areas_8h.html" target="_top" xlink:title=" ">
<polygon fill="white" stroke="#666666" points="132.5,-151 9.5,-151 9.5,-121 132.5,-121 132.5,-151"/>
<text text-anchor="start" x="17.5" y="-139" font-family="Helvetica,sans-Serif" font-size="10.00">include/FoodAuthority</text>
<text text-anchor="middle" x="71" y="-128" font-family="Helvetica,sans-Serif" font-size="10.00">/harvest_areas.h</text>
</a>
</g>
</g>
<!-- Node1&#45;&gt;Node2 -->
<g id="edge1" class="edge">
<title>Node1&#45;&gt;Node2</title>
<path fill="none" stroke="#63b8ff" d="M649.7,-259.46C578.72,-251.26 466.15,-236.66 370,-217 279.18,-198.43 175,-168.56 116.69,-151.06"/>
<polygon fill="#63b8ff" stroke="#63b8ff" points="649.53,-262.96 659.86,-260.62 650.33,-256.01 649.53,-262.96"/>
</g>
<!-- Node6 -->
<g id="node6" class="node">
<title>Node6</title>
<g id="a_node6"><a xlink:href="precipitation_8h.html" target="_top" xlink:title=" ">
<polygon fill="white" stroke="#666666" points="780,-217 660,-217 660,-187 780,-187 780,-217"/>
<text text-anchor="start" x="668" y="-205" font-family="Helvetica,sans-Serif" font-size="10.00">include/WillyWeather</text>
<text text-anchor="middle" x="720" y="-194" font-family="Helvetica,sans-Serif" font-size="10.00">/precipitation.h</text>
</a>
</g>
</g>
<!-- Node1&#45;&gt;Node6 -->
<g id="edge5" class="edge">
<title>Node1&#45;&gt;Node6</title>
<path fill="none" stroke="#63b8ff" d="M720,-242.54C720,-233.96 720,-224.61 720,-217.16"/>
<polygon fill="#63b8ff" stroke="#63b8ff" points="716.5,-242.8 720,-252.8 723.5,-242.8 716.5,-242.8"/>
</g>
<!-- Node8 -->
<g id="node8" class="node">
<title>Node8</title>
<g id="a_node8"><a xlink:href="tide_8h.html" target="_top" xlink:title=" ">
<polygon fill="white" stroke="#666666" points="952,-217 832,-217 832,-187 952,-187 952,-217"/>
<text text-anchor="start" x="840" y="-205" font-family="Helvetica,sans-Serif" font-size="10.00">include/WillyWeather</text>
<text text-anchor="middle" x="892" y="-194" font-family="Helvetica,sans-Serif" font-size="10.00">/tide.h</text>
</a>
</g>
</g>
<!-- Node1&#45;&gt;Node8 -->
<g id="edge8" class="edge">
<title>Node1&#45;&gt;Node8</title>
<path fill="none" stroke="#63b8ff" d="M767.15,-249.46C794.59,-239.25 828.71,-226.55 854.34,-217.01"/>
<polygon fill="#63b8ff" stroke="#63b8ff" points="765.9,-246.19 757.75,-252.95 768.34,-252.75 765.9,-246.19"/>
</g>
<!-- Node10 -->
<g id="node10" class="node">
<title>Node10</title>
<g id="a_node10"><a xlink:href="transform_8h.html" target="_top" xlink:title=" ">
<polygon fill="white" stroke="#666666" points="491,-211.5 379,-211.5 379,-192.5 491,-192.5 491,-211.5"/>
<text text-anchor="middle" x="435" y="-199.5" font-family="Helvetica,sans-Serif" font-size="10.00">include/transform.h</text>
</a>
</g>
</g>
<!-- Node1&#45;&gt;Node10 -->
<g id="edge11" class="edge">
<title>Node1&#45;&gt;Node10</title>
<path fill="none" stroke="#63b8ff" d="M650.09,-251.3C594.33,-238.78 518.32,-221.71 473.19,-211.58"/>
<polygon fill="#63b8ff" stroke="#63b8ff" points="649.38,-254.73 659.91,-253.51 650.92,-247.9 649.38,-254.73"/>
</g>
<!-- Node16 -->
<g id="node16" class="node">
<title>Node16</title>
<g id="a_node16"><a xlink:href="location_8c.html" target="_top" xlink:title=" ">
<polygon fill="white" stroke="#666666" points="1119.5,-211.5 970.5,-211.5 970.5,-192.5 1119.5,-192.5 1119.5,-211.5"/>
<text text-anchor="middle" x="1045" y="-199.5" font-family="Helvetica,sans-Serif" font-size="10.00">src/WillyWeather/location.c</text>
</a>
</g>
</g>
<!-- Node1&#45;&gt;Node16 -->
<g id="edge21" class="edge">
<title>Node1&#45;&gt;Node16</title>
<path fill="none" stroke="#63b8ff" d="M790.42,-253.13C854.67,-240.48 947.58,-222.18 1001.58,-211.55"/>
<polygon fill="#63b8ff" stroke="#63b8ff" points="789.5,-249.75 780.37,-255.11 790.86,-256.61 789.5,-249.75"/>
</g>
<!-- Node3 -->
<g id="node3" class="node">
<title>Node3</title>
<g id="a_node3"><a xlink:href="main_8h.html" target="_top" xlink:title=" ">
<polygon fill="white" stroke="#666666" points="633.5,-79.5 544.5,-79.5 544.5,-60.5 633.5,-60.5 633.5,-79.5"/>
<text text-anchor="middle" x="589" y="-67.5" font-family="Helvetica,sans-Serif" font-size="10.00">include/main.h</text>
</a>
</g>
</g>
<!-- Node2&#45;&gt;Node3 -->
<g id="edge2" class="edge">
<title>Node2&#45;&gt;Node3</title>
<path fill="none" stroke="#63b8ff" d="M142.58,-121.04C317.83,-96.67 366.05,-114.99 536,-85 543.97,-83.59 552.49,-81.58 560.31,-79.51"/>
<polygon fill="#63b8ff" stroke="#63b8ff" points="141.92,-117.6 132.51,-122.47 142.9,-124.53 141.92,-117.6"/>
</g>
<!-- Node5 -->
<g id="node5" class="node">
<title>Node5</title>
<g id="a_node5"><a xlink:href="harvest__areas_8c.html" target="_top" xlink:title=" ">
<polygon fill="white" stroke="#666666" points="142,-85 0,-85 0,-55 142,-55 142,-85"/>
<text text-anchor="start" x="8" y="-73" font-family="Helvetica,sans-Serif" font-size="10.00">src/FoodAuthority/harvest</text>
<text text-anchor="middle" x="71" y="-62" font-family="Helvetica,sans-Serif" font-size="10.00">_areas.c</text>
</a>
</g>
</g>
<!-- Node2&#45;&gt;Node5 -->
<g id="edge4" class="edge">
<title>Node2&#45;&gt;Node5</title>
<path fill="none" stroke="#63b8ff" d="M71,-110.54C71,-101.96 71,-92.61 71,-85.16"/>
<polygon fill="#63b8ff" stroke="#63b8ff" points="67.5,-110.8 71,-120.8 74.5,-110.8 67.5,-110.8"/>
</g>
<!-- Node4 -->
<g id="node4" class="node">
<title>Node4</title>
<g id="a_node4"><a xlink:href="main_8c.html" target="_top" xlink:title=" ">
<polygon fill="white" stroke="#666666" points="622.5,-19 555.5,-19 555.5,0 622.5,0 622.5,-19"/>
<text text-anchor="middle" x="589" y="-7" font-family="Helvetica,sans-Serif" font-size="10.00">src/main.c</text>
</a>
</g>
</g>
<!-- Node3&#45;&gt;Node4 -->
<g id="edge3" class="edge">
<title>Node3&#45;&gt;Node4</title>
<path fill="none" stroke="#63b8ff" d="M589,-50.16C589,-39.74 589,-27.3 589,-19.17"/>
<polygon fill="#63b8ff" stroke="#63b8ff" points="585.5,-50.37 589,-60.37 592.5,-50.37 585.5,-50.37"/>
</g>
<!-- Node6&#45;&gt;Node3 -->
<g id="edge6" class="edge">
<title>Node6&#45;&gt;Node3</title>
<path fill="none" stroke="#63b8ff" d="M759.69,-182.19C787.12,-166.61 815.73,-143.47 798,-121 777.95,-95.59 689.08,-81.66 633.88,-75.31"/>
<polygon fill="#63b8ff" stroke="#63b8ff" points="758,-179.12 750.89,-186.97 761.34,-185.27 758,-179.12"/>
</g>
<!-- Node7 -->
<g id="node7" class="node">
<title>Node7</title>
<g id="a_node7"><a xlink:href="precipitation_8c.html" target="_top" xlink:title=" ">
<polygon fill="white" stroke="#666666" points="789,-145.5 617,-145.5 617,-126.5 789,-126.5 789,-145.5"/>
<text text-anchor="middle" x="703" y="-133.5" font-family="Helvetica,sans-Serif" font-size="10.00">src/WillyWeather/precipitation.c</text>
</a>
</g>
</g>
<!-- Node6&#45;&gt;Node7 -->
<g id="edge7" class="edge">
<title>Node6&#45;&gt;Node7</title>
<path fill="none" stroke="#63b8ff" d="M713.61,-176.94C710.72,-166.06 707.48,-153.86 705.35,-145.84"/>
<polygon fill="#63b8ff" stroke="#63b8ff" points="710.28,-178.03 716.23,-186.8 717.04,-176.23 710.28,-178.03"/>
</g>
<!-- Node8&#45;&gt;Node3 -->
<g id="edge9" class="edge">
<title>Node8&#45;&gt;Node3</title>
<path fill="none" stroke="#63b8ff" d="M938.73,-182.67C970.98,-167.39 1004.64,-144.41 984,-121 961.12,-95.04 732.34,-79.1 633.78,-73.39"/>
<polygon fill="#63b8ff" stroke="#63b8ff" points="936.93,-179.65 929.27,-186.97 939.83,-186.02 936.93,-179.65"/>
</g>
<!-- Node9 -->
<g id="node9" class="node">
<title>Node9</title>
<g id="a_node9"><a xlink:href="tide_8c.html" target="_top" xlink:title=" ">
<polygon fill="white" stroke="#666666" points="974.5,-145.5 845.5,-145.5 845.5,-126.5 974.5,-126.5 974.5,-145.5"/>
<text text-anchor="middle" x="910" y="-133.5" font-family="Helvetica,sans-Serif" font-size="10.00">src/WillyWeather/tide.c</text>
</a>
</g>
</g>
<!-- Node8&#45;&gt;Node9 -->
<g id="edge10" class="edge">
<title>Node8&#45;&gt;Node9</title>
<path fill="none" stroke="#63b8ff" d="M898.77,-176.94C901.83,-166.06 905.26,-153.86 907.51,-145.84"/>
<polygon fill="#63b8ff" stroke="#63b8ff" points="895.33,-176.22 895.99,-186.8 902.07,-178.12 895.33,-176.22"/>
</g>
<!-- Node10&#45;&gt;Node2 -->
<g id="edge15" class="edge">
<title>Node10&#45;&gt;Node2</title>
<path fill="none" stroke="#63b8ff" d="M372.56,-190.82C313.18,-181.03 221.4,-165.6 142,-151 138.91,-150.43 135.75,-149.84 132.56,-149.24"/>
<polygon fill="#63b8ff" stroke="#63b8ff" points="372.09,-194.29 382.53,-192.46 373.23,-187.38 372.09,-194.29"/>
</g>
<!-- Node10&#45;&gt;Node3 -->
<g id="edge19" class="edge">
<title>Node10&#45;&gt;Node3</title>
<path fill="none" stroke="#63b8ff" d="M501.07,-190.22C525.87,-183 552.3,-170.99 570,-151 588.17,-130.48 589.77,-95.74 589.44,-79.65"/>
<polygon fill="#63b8ff" stroke="#63b8ff" points="500.06,-186.86 491.31,-192.84 501.87,-193.62 500.06,-186.86"/>
</g>
<!-- Node11 -->
<g id="node11" class="node">
<title>Node11</title>
<g id="a_node11"><a xlink:href="historical__weather_8h.html" target="_top" xlink:title=" ">
<polygon fill="white" stroke="#666666" points="561,-151 435,-151 435,-121 561,-121 561,-151"/>
<text text-anchor="start" x="443" y="-139" font-family="Helvetica,sans-Serif" font-size="10.00">include/BOM/historical</text>
<text text-anchor="middle" x="498" y="-128" font-family="Helvetica,sans-Serif" font-size="10.00">_weather.h</text>
</a>
</g>
</g>
<!-- Node10&#45;&gt;Node11 -->
<g id="edge12" class="edge">
<title>Node10&#45;&gt;Node11</title>
<path fill="none" stroke="#63b8ff" d="M450.6,-185.16C460.78,-174.81 473.98,-161.4 483.86,-151.36"/>
<polygon fill="#63b8ff" stroke="#63b8ff" points="448.02,-182.79 443.5,-192.37 453.01,-187.7 448.02,-182.79"/>
</g>
<!-- Node13 -->
<g id="node13" class="node">
<title>Node13</title>
<g id="a_node13"><a xlink:href="timeseries_8h.html" target="_top" xlink:title=" ">
<polygon fill="white" stroke="#666666" points="309,-145.5 151,-145.5 151,-126.5 309,-126.5 309,-145.5"/>
<text text-anchor="middle" x="230" y="-133.5" font-family="Helvetica,sans-Serif" font-size="10.00">include/IBM_EIS/timeseries.h</text>
</a>
</g>
</g>
<!-- Node10&#45;&gt;Node13 -->
<g id="edge16" class="edge">
<title>Node10&#45;&gt;Node13</title>
<path fill="none" stroke="#63b8ff" d="M397.6,-189.32C357.16,-176.7 293.65,-156.87 257.54,-145.6"/>
<polygon fill="#63b8ff" stroke="#63b8ff" points="396.76,-192.73 407.35,-192.37 398.85,-186.05 396.76,-192.73"/>
</g>
<!-- Node15 -->
<g id="node15" class="node">
<title>Node15</title>
<g id="a_node15"><a xlink:href="transform_8c.html" target="_top" xlink:title=" ">
<polygon fill="white" stroke="#666666" points="417,-145.5 327,-145.5 327,-126.5 417,-126.5 417,-145.5"/>
<text text-anchor="middle" x="372" y="-133.5" font-family="Helvetica,sans-Serif" font-size="10.00">src/transform.c</text>
</a>
</g>
</g>
<!-- Node10&#45;&gt;Node15 -->
<g id="edge20" class="edge">
<title>Node10&#45;&gt;Node15</title>
<path fill="none" stroke="#63b8ff" d="M419.23,-184.98C407.06,-172.62 390.69,-155.99 380.77,-145.91"/>
<polygon fill="#63b8ff" stroke="#63b8ff" points="416.99,-187.7 426.5,-192.37 421.98,-182.79 416.99,-187.7"/>
</g>
<!-- Node11&#45;&gt;Node3 -->
<g id="edge13" class="edge">
<title>Node11&#45;&gt;Node3</title>
<path fill="none" stroke="#63b8ff" d="M526.62,-114.87C543.46,-103.03 563.91,-88.65 576.69,-79.66"/>
<polygon fill="#63b8ff" stroke="#63b8ff" points="524.36,-112.18 518.2,-120.8 528.39,-117.91 524.36,-112.18"/>
</g>
<!-- Node12 -->
<g id="node12" class="node">
<title>Node12</title>
<g id="a_node12"><a xlink:href="historical__weather_8c.html" target="_top" xlink:title=" ">
<polygon fill="white" stroke="#666666" points="526.5,-85 421.5,-85 421.5,-55 526.5,-55 526.5,-85"/>
<text text-anchor="start" x="429.5" y="-73" font-family="Helvetica,sans-Serif" font-size="10.00">src/BOM/historical</text>
<text text-anchor="middle" x="474" y="-62" font-family="Helvetica,sans-Serif" font-size="10.00">_weather.c</text>
</a>
</g>
</g>
<!-- Node11&#45;&gt;Node12 -->
<g id="edge14" class="edge">
<title>Node11&#45;&gt;Node12</title>
<path fill="none" stroke="#63b8ff" d="M489.15,-111.39C485.84,-102.59 482.2,-92.86 479.31,-85.16"/>
<polygon fill="#63b8ff" stroke="#63b8ff" points="485.89,-112.66 492.67,-120.8 492.44,-110.2 485.89,-112.66"/>
</g>
<!-- Node13&#45;&gt;Node3 -->
<g id="edge17" class="edge">
<title>Node13&#45;&gt;Node3</title>
<path fill="none" stroke="#63b8ff" d="M292.97,-124.87C379.05,-111 524.21,-87.51 536,-85 543.45,-83.41 551.41,-81.45 558.85,-79.5"/>
<polygon fill="#63b8ff" stroke="#63b8ff" points="292.36,-121.42 283.04,-126.47 293.47,-128.33 292.36,-121.42"/>
</g>
<!-- Node14 -->
<g id="node14" class="node">
<title>Node14</title>
<g id="a_node14"><a xlink:href="timeseries_8c.html" target="_top" xlink:title=" ">
<polygon fill="white" stroke="#666666" points="298,-79.5 162,-79.5 162,-60.5 298,-60.5 298,-79.5"/>
<text text-anchor="middle" x="230" y="-67.5" font-family="Helvetica,sans-Serif" font-size="10.00">src/IBM_EIS/timeseries.c</text>
</a>
</g>
</g>
<!-- Node13&#45;&gt;Node14 -->
<g id="edge18" class="edge">
<title>Node13&#45;&gt;Node14</title>
<path fill="none" stroke="#63b8ff" d="M230,-116.08C230,-104.13 230,-89.22 230,-79.91"/>
<polygon fill="#63b8ff" stroke="#63b8ff" points="226.5,-116.37 230,-126.37 233.5,-116.37 226.5,-116.37"/>
</g>
</g>
</svg>
