<?xml version="1.0" encoding="UTF-8" standalone="no"?>
<!DOCTYPE svg PUBLIC "-//W3C//DTD SVG 1.1//EN"
 "http://www.w3.org/Graphics/SVG/1.1/DTD/svg11.dtd">
<!-- Generated by graphviz version 2.49.3 (20211027.1534)
 -->
<!-- Title: include/WillyWeather/location.h Pages: 1 -->
<svg width="541pt" height="151pt"
 viewBox="0.00 0.00 541.00 151.00" xmlns="http://www.w3.org/2000/svg" xmlns:xlink="http://www.w3.org/1999/xlink">
<g id="graph0" class="graph" transform="scale(1 1) rotate(0) translate(4 147)">
<title>include/WillyWeather/location.h</title>
<!-- Node1 -->
<g id="node1" class="node">
<title>Node1</title>
<g id="a_node1"><a xlink:title=" ">
<polygon fill="#bfbfbf" stroke="black" points="193,-112.5 193,-142.5 300,-142.5 300,-112.5 193,-112.5"/>
<text text-anchor="start" x="201" y="-130.5" font-family="Helvetica,sans-Serif" font-size="10.00">include/WillyWeather</text>
<text text-anchor="middle" x="246.5" y="-119.5" font-family="Helvetica,sans-Serif" font-size="10.00">/location.h</text>
</a>
</g>
</g>
<!-- Node2 -->
<g id="node2" class="node">
<title>Node2</title>
<g id="a_node2"><a xlink:title=" ">
<polygon fill="none" stroke="#bfbfbf" points="65.5,-0.5 65.5,-19.5 113.5,-19.5 113.5,-0.5 65.5,-0.5"/>
<text text-anchor="middle" x="89.5" y="-7.5" font-family="Helvetica,sans-Serif" font-size="10.00">string.h</text>
</a>
</g>
</g>
<!-- Node1&#45;&gt;Node2 -->
<g id="edge1" class="edge">
<title>Node1&#45;&gt;Node2</title>
<path fill="none" stroke="midnightblue" d="M192.85,-118.31C146.72,-110.04 85.32,-95.68 70.5,-76 60.04,-62.11 68,-42.58 76.6,-28.56"/>
<polygon fill="midnightblue" stroke="midnightblue" points="79.76,-30.12 82.43,-19.87 73.95,-26.22 79.76,-30.12"/>
</g>
<!-- Node3 -->
<g id="node3" class="node">
<title>Node3</title>
<g id="a_node3"><a xlink:title=" ">
<polygon fill="none" stroke="#bfbfbf" points="0,-0.5 0,-19.5 47,-19.5 47,-0.5 0,-0.5"/>
<text text-anchor="middle" x="23.5" y="-7.5" font-family="Helvetica,sans-Serif" font-size="10.00">stdlib.h</text>
</a>
</g>
</g>
<!-- Node1&#45;&gt;Node3 -->
<g id="edge2" class="edge">
<title>Node1&#45;&gt;Node3</title>
<path fill="none" stroke="midnightblue" d="M192.65,-122.41C153.23,-117.04 100.24,-104.63 62.5,-76 46.81,-64.09 36.13,-43.89 29.97,-29.16"/>
<polygon fill="midnightblue" stroke="midnightblue" points="33.15,-27.67 26.28,-19.6 26.62,-30.19 33.15,-27.67"/>
</g>
<!-- Node4 -->
<g id="node4" class="node">
<title>Node4</title>
<g id="a_node4"><a xlink:title=" ">
<polygon fill="none" stroke="#bfbfbf" points="334,-0.5 334,-19.5 379,-19.5 379,-0.5 334,-0.5"/>
<text text-anchor="middle" x="356.5" y="-7.5" font-family="Helvetica,sans-Serif" font-size="10.00">stdio.h</text>
</a>
</g>
</g>
<!-- Node1&#45;&gt;Node4 -->
<g id="edge3" class="edge">
<title>Node1&#45;&gt;Node4</title>
<path fill="none" stroke="midnightblue" d="M288.68,-112.34C306.73,-104.3 326.58,-92.49 339.5,-76 349.94,-62.67 354.01,-43.55 355.57,-29.5"/>
<polygon fill="midnightblue" stroke="midnightblue" points="359.06,-29.77 356.36,-19.52 352.08,-29.22 359.06,-29.77"/>
</g>
<!-- Node5 -->
<g id="node5" class="node">
<title>Node5</title>
<g id="a_node5"><a xlink:title=" ">
<polygon fill="none" stroke="#bfbfbf" points="409.5,-56.5 409.5,-75.5 455.5,-75.5 455.5,-56.5 409.5,-56.5"/>
<text text-anchor="middle" x="432.5" y="-63.5" font-family="Helvetica,sans-Serif" font-size="10.00">math.h</text>
</a>
</g>
</g>
<!-- Node1&#45;&gt;Node5 -->
<g id="edge4" class="edge">
<title>Node1&#45;&gt;Node5</title>
<path fill="none" stroke="midnightblue" d="M290.58,-112.4C324.07,-101.69 369.39,-87.19 399.72,-77.48"/>
<polygon fill="midnightblue" stroke="midnightblue" points="400.94,-80.77 409.4,-74.39 398.81,-74.1 400.94,-80.77"/>
</g>
<!-- Node6 -->
<g id="node6" class="node">
<title>Node6</title>
<g id="a_node6"><a xlink:title=" ">
<polygon fill="none" stroke="#bfbfbf" points="132,-0.5 132,-19.5 215,-19.5 215,-0.5 132,-0.5"/>
<text text-anchor="middle" x="173.5" y="-7.5" font-family="Helvetica,sans-Serif" font-size="10.00">cjson/cJSON.h</text>
</a>
</g>
</g>
<!-- Node1&#45;&gt;Node6 -->
<g id="edge5" class="edge">
<title>Node1&#45;&gt;Node6</title>
<path fill="none" stroke="midnightblue" d="M210.05,-112.46C194.29,-104.35 177.44,-92.44 168.5,-76 160.73,-61.72 163.25,-43.01 166.96,-29.33"/>
<polygon fill="midnightblue" stroke="midnightblue" points="170.36,-30.21 170.02,-19.62 163.68,-28.11 170.36,-30.21"/>
</g>
<!-- Node7 -->
<g id="node7" class="node">
<title>Node7</title>
<g id="a_node7"><a xlink:title=" ">
<polygon fill="none" stroke="#bfbfbf" points="233,-0.5 233,-19.5 292,-19.5 292,-0.5 233,-0.5"/>
<text text-anchor="middle" x="262.5" y="-7.5" font-family="Helvetica,sans-Serif" font-size="10.00">curl/curl.h</text>
</a>
</g>
</g>
<!-- Node1&#45;&gt;Node7 -->
<g id="edge6" class="edge">
<title>Node1&#45;&gt;Node7</title>
<path fill="none" stroke="midnightblue" d="M282.95,-112.46C298.71,-104.35 315.56,-92.44 324.5,-76 335.78,-55.26 312.04,-36.32 290.75,-24.3"/>
<polygon fill="midnightblue" stroke="midnightblue" points="292.36,-21.2 281.89,-19.59 289.08,-27.38 292.36,-21.2"/>
</g>
<!-- Node8 -->
<g id="node8" class="node">
<title>Node8</title>
<g id="a_node8"><a xlink:href="_willy_weather_2authenticate_8h.html" target="_top" xlink:title=" ">
<polygon fill="none" stroke="black" points="178,-56.5 178,-75.5 315,-75.5 315,-56.5 178,-56.5"/>
<text text-anchor="middle" x="246.5" y="-63.5" font-family="Helvetica,sans-Serif" font-size="10.00">WillyWeather/authenticate.h</text>
</a>
</g>
</g>
<!-- Node1&#45;&gt;Node8 -->
<g id="edge7" class="edge">
<title>Node1&#45;&gt;Node8</title>
<path fill="none" stroke="midnightblue" d="M246.5,-112.4C246.5,-104.47 246.5,-94.46 246.5,-85.86"/>
<polygon fill="midnightblue" stroke="midnightblue" points="250,-85.66 246.5,-75.66 243,-85.66 250,-85.66"/>
</g>
<!-- Node9 -->
<g id="node9" class="node">
<title>Node9</title>
<g id="a_node9"><a xlink:href="utils_8h.html" target="_top" xlink:title=" ">
<polygon fill="none" stroke="black" points="79.5,-56.5 79.5,-75.5 121.5,-75.5 121.5,-56.5 79.5,-56.5"/>
<text text-anchor="middle" x="100.5" y="-63.5" font-family="Helvetica,sans-Serif" font-size="10.00">utils.h</text>
</a>
</g>
</g>
<!-- Node1&#45;&gt;Node9 -->
<g id="edge13" class="edge">
<title>Node1&#45;&gt;Node9</title>
<path fill="none" stroke="midnightblue" d="M211.9,-112.4C187.4,-102.42 154.84,-89.15 131.25,-79.53"/>
<polygon fill="midnightblue" stroke="midnightblue" points="132.33,-76.19 121.74,-75.66 129.68,-82.67 132.33,-76.19"/>
</g>
<!-- Node10 -->
<g id="node10" class="node">
<title>Node10</title>
<g id="a_node10"><a xlink:href="forecast_8h.html" target="_top" xlink:title=" ">
<polygon fill="none" stroke="black" points="474,-56.5 474,-75.5 533,-75.5 533,-56.5 474,-56.5"/>
<text text-anchor="middle" x="503.5" y="-63.5" font-family="Helvetica,sans-Serif" font-size="10.00">forecast.h</text>
</a>
</g>
</g>
<!-- Node1&#45;&gt;Node10 -->
<g id="edge18" class="edge">
<title>Node1&#45;&gt;Node10</title>
<path fill="none" stroke="midnightblue" d="M300.06,-114.1C348.92,-102.79 420,-86.33 463.91,-76.17"/>
<polygon fill="midnightblue" stroke="midnightblue" points="464.7,-79.58 473.65,-73.91 463.12,-72.76 464.7,-79.58"/>
</g>
<!-- Node8&#45;&gt;Node2 -->
<g id="edge8" class="edge">
<title>Node8&#45;&gt;Node2</title>
<path fill="none" stroke="midnightblue" d="M221.62,-56.44C195.06,-47.31 152.79,-32.77 123.24,-22.6"/>
<polygon fill="midnightblue" stroke="midnightblue" points="124.34,-19.28 113.74,-19.34 122.06,-25.9 124.34,-19.28"/>
</g>
<!-- Node8&#45;&gt;Node3 -->
<g id="edge9" class="edge">
<title>Node8&#45;&gt;Node3</title>
<path fill="none" stroke="midnightblue" d="M208.92,-56.49C172.55,-48.17 115.63,-34.92 57.06,-20.08"/>
<polygon fill="midnightblue" stroke="midnightblue" points="57.82,-16.66 47.27,-17.58 56.1,-23.44 57.82,-16.66"/>
</g>
<!-- Node8&#45;&gt;Node4 -->
<g id="edge10" class="edge">
<title>Node8&#45;&gt;Node4</title>
<path fill="none" stroke="midnightblue" d="M264.17,-56.32C281.89,-47.62 309.4,-34.12 329.79,-24.11"/>
<polygon fill="midnightblue" stroke="midnightblue" points="331.44,-27.2 338.87,-19.65 328.35,-20.92 331.44,-27.2"/>
</g>
<!-- Node8&#45;&gt;Node6 -->
<g id="edge11" class="edge">
<title>Node8&#45;&gt;Node6</title>
<path fill="none" stroke="midnightblue" d="M234.77,-56.32C223.66,-48.11 206.76,-35.6 193.52,-25.81"/>
<polygon fill="midnightblue" stroke="midnightblue" points="195.56,-22.97 185.44,-19.83 191.4,-28.59 195.56,-22.97"/>
</g>
<!-- Node8&#45;&gt;Node7 -->
<g id="edge12" class="edge">
<title>Node8&#45;&gt;Node7</title>
<path fill="none" stroke="midnightblue" d="M249.14,-56.08C251.29,-48.85 254.38,-38.41 257.05,-29.4"/>
<polygon fill="midnightblue" stroke="midnightblue" points="260.42,-30.33 259.91,-19.75 253.71,-28.34 260.42,-30.33"/>
</g>
<!-- Node9&#45;&gt;Node2 -->
<g id="edge15" class="edge">
<title>Node9&#45;&gt;Node2</title>
<path fill="none" stroke="midnightblue" d="M98.68,-56.08C97.23,-48.93 95.13,-38.64 93.31,-29.69"/>
<polygon fill="midnightblue" stroke="midnightblue" points="96.71,-28.85 91.28,-19.75 89.85,-30.25 96.71,-28.85"/>
</g>
<!-- Node9&#45;&gt;Node3 -->
<g id="edge14" class="edge">
<title>Node9&#45;&gt;Node3</title>
<path fill="none" stroke="midnightblue" d="M88.13,-56.32C76.34,-48.06 58.37,-35.45 44.36,-25.63"/>
<polygon fill="midnightblue" stroke="midnightblue" points="46.04,-22.53 35.84,-19.65 42.02,-28.26 46.04,-22.53"/>
</g>
<!-- Node9&#45;&gt;Node6 -->
<g id="edge17" class="edge">
<title>Node9&#45;&gt;Node6</title>
<path fill="none" stroke="midnightblue" d="M112.23,-56.32C123.34,-48.11 140.24,-35.6 153.48,-25.81"/>
<polygon fill="midnightblue" stroke="midnightblue" points="155.6,-28.59 161.56,-19.83 151.44,-22.97 155.6,-28.59"/>
</g>
<!-- Node9&#45;&gt;Node7 -->
<g id="edge16" class="edge">
<title>Node9&#45;&gt;Node7</title>
<path fill="none" stroke="midnightblue" d="M121.68,-57.94C148.49,-49 195.07,-33.48 227.28,-22.74"/>
<polygon fill="midnightblue" stroke="midnightblue" points="228.39,-26.06 236.77,-19.58 226.18,-19.42 228.39,-26.06"/>
</g>
</g>
</svg>
