<?xml version="1.0" encoding="UTF-8" standalone="no"?>
<!DOCTYPE svg PUBLIC "-//W3C//DTD SVG 1.1//EN"
 "http://www.w3.org/Graphics/SVG/1.1/DTD/svg11.dtd">
<!-- Generated by graphviz version 2.49.3 (20211027.1534)
 -->
<!-- Title: include/WillyWeather/location.h Pages: 1 -->
<svg width="770pt" height="319pt"
 viewBox="0.00 0.00 770.00 319.00" xmlns="http://www.w3.org/2000/svg" xmlns:xlink="http://www.w3.org/1999/xlink">
<g id="graph0" class="graph" transform="scale(1 1) rotate(0) translate(4 315)">
<title>include/WillyWeather/location.h</title>
<!-- Node1 -->
<g id="node1" class="node">
<title>Node1</title>
<g id="a_node1"><a xlink:title=" ">
<polygon fill="#bfbfbf" stroke="black" points="374.5,-280.5 374.5,-310.5 481.5,-310.5 481.5,-280.5 374.5,-280.5"/>
<text text-anchor="start" x="382.5" y="-298.5" font-family="Helvetica,sans-Serif" font-size="10.00">include/WillyWeather</text>
<text text-anchor="middle" x="428" y="-287.5" font-family="Helvetica,sans-Serif" font-size="10.00">/location.h</text>
</a>
</g>
</g>
<!-- Node2 -->
<g id="node2" class="node">
<title>Node2</title>
<g id="a_node2"><a xlink:title=" ">
<polygon fill="none" stroke="#bfbfbf" points="0,-56.5 0,-75.5 48,-75.5 48,-56.5 0,-56.5"/>
<text text-anchor="middle" x="24" y="-63.5" font-family="Helvetica,sans-Serif" font-size="10.00">string.h</text>
</a>
</g>
</g>
<!-- Node1&#45;&gt;Node2 -->
<g id="edge1" class="edge">
<title>Node1&#45;&gt;Node2</title>
<path fill="none" stroke="midnightblue" d="M374.35,-281.18C343.13,-272.49 303.45,-259.83 270,-244 187.21,-204.82 169.86,-187.51 97,-132 76.69,-116.53 55.03,-96.79 40.63,-83.14"/>
<polygon fill="midnightblue" stroke="midnightblue" points="42.7,-80.28 33.06,-75.89 37.86,-85.33 42.7,-80.28"/>
</g>
<!-- Node3 -->
<g id="node3" class="node">
<title>Node3</title>
<g id="a_node3"><a xlink:title=" ">
<polygon fill="none" stroke="#bfbfbf" points="356.5,-56.5 356.5,-75.5 403.5,-75.5 403.5,-56.5 356.5,-56.5"/>
<text text-anchor="middle" x="380" y="-63.5" font-family="Helvetica,sans-Serif" font-size="10.00">stdlib.h</text>
</a>
</g>
</g>
<!-- Node1&#45;&gt;Node3 -->
<g id="edge2" class="edge">
<title>Node1&#45;&gt;Node3</title>
<path fill="none" stroke="midnightblue" d="M415.37,-280.13C407.76,-270.58 398.67,-257.37 394,-244 374.83,-189.07 376.32,-118.92 378.42,-85.86"/>
<polygon fill="midnightblue" stroke="midnightblue" points="381.92,-86.02 379.16,-75.79 374.94,-85.51 381.92,-86.02"/>
</g>
<!-- Node4 -->
<g id="node4" class="node">
<title>Node4</title>
<g id="a_node4"><a xlink:title=" ">
<polygon fill="none" stroke="#bfbfbf" points="665.5,-0.5 665.5,-19.5 710.5,-19.5 710.5,-0.5 665.5,-0.5"/>
<text text-anchor="middle" x="688" y="-7.5" font-family="Helvetica,sans-Serif" font-size="10.00">stdio.h</text>
</a>
</g>
</g>
<!-- Node1&#45;&gt;Node4 -->
<g id="edge3" class="edge">
<title>Node1&#45;&gt;Node4</title>
<path fill="none" stroke="midnightblue" d="M481.56,-293.61C557.67,-289.18 688,-268.52 688,-179 688,-179 688,-179 688,-121 688,-88.95 688,-51.64 688,-29.75"/>
<polygon fill="midnightblue" stroke="midnightblue" points="691.5,-29.56 688,-19.56 684.5,-29.56 691.5,-29.56"/>
</g>
<!-- Node5 -->
<g id="node5" class="node">
<title>Node5</title>
<g id="a_node5"><a xlink:title=" ">
<polygon fill="none" stroke="#bfbfbf" points="716,-224.5 716,-243.5 762,-243.5 762,-224.5 716,-224.5"/>
<text text-anchor="middle" x="739" y="-231.5" font-family="Helvetica,sans-Serif" font-size="10.00">math.h</text>
</a>
</g>
</g>
<!-- Node1&#45;&gt;Node5 -->
<g id="edge4" class="edge">
<title>Node1&#45;&gt;Node5</title>
<path fill="none" stroke="midnightblue" d="M481.73,-285.52C537.1,-276.05 625.84,-260.27 702,-244 703.27,-243.73 704.57,-243.44 705.88,-243.15"/>
<polygon fill="midnightblue" stroke="midnightblue" points="707,-246.49 715.95,-240.82 705.42,-239.67 707,-246.49"/>
</g>
<!-- Node6 -->
<g id="node6" class="node">
<title>Node6</title>
<g id="a_node6"><a xlink:title=" ">
<polygon fill="none" stroke="#bfbfbf" points="570.5,-56.5 570.5,-75.5 653.5,-75.5 653.5,-56.5 570.5,-56.5"/>
<text text-anchor="middle" x="612" y="-63.5" font-family="Helvetica,sans-Serif" font-size="10.00">cjson/cJSON.h</text>
</a>
</g>
</g>
<!-- Node1&#45;&gt;Node6 -->
<g id="edge5" class="edge">
<title>Node1&#45;&gt;Node6</title>
<path fill="none" stroke="midnightblue" d="M481.72,-288.74C512.67,-282.62 549.9,-270.01 573,-244 613.18,-198.77 615,-121.64 613.42,-86.04"/>
<polygon fill="midnightblue" stroke="midnightblue" points="616.89,-85.44 612.81,-75.66 609.91,-85.85 616.89,-85.44"/>
</g>
<!-- Node7 -->
<g id="node7" class="node">
<title>Node7</title>
<g id="a_node7"><a xlink:title=" ">
<polygon fill="none" stroke="#bfbfbf" points="421.5,-56.5 421.5,-75.5 480.5,-75.5 480.5,-56.5 421.5,-56.5"/>
<text text-anchor="middle" x="451" y="-63.5" font-family="Helvetica,sans-Serif" font-size="10.00">curl/curl.h</text>
</a>
</g>
</g>
<!-- Node1&#45;&gt;Node7 -->
<g id="edge6" class="edge">
<title>Node1&#45;&gt;Node7</title>
<path fill="none" stroke="midnightblue" d="M417.56,-280.31C411.1,-270.63 403.41,-257.2 400,-244 397.77,-235.39 398.61,-232.78 400,-224 408.23,-172.04 430.87,-113.88 443.03,-85.12"/>
<polygon fill="midnightblue" stroke="midnightblue" points="446.39,-86.18 447.13,-75.61 439.96,-83.41 446.39,-86.18"/>
</g>
<!-- Node8 -->
<g id="node8" class="node">
<title>Node8</title>
<g id="a_node8"><a xlink:href="log_8h.html" target="_top" xlink:title=" ">
<polygon fill="none" stroke="black" points="507.5,-56.5 507.5,-75.5 544.5,-75.5 544.5,-56.5 507.5,-56.5"/>
<text text-anchor="middle" x="526" y="-63.5" font-family="Helvetica,sans-Serif" font-size="10.00">log.h</text>
</a>
</g>
</g>
<!-- Node1&#45;&gt;Node8 -->
<g id="edge7" class="edge">
<title>Node1&#45;&gt;Node8</title>
<path fill="none" stroke="midnightblue" d="M481.62,-287.41C508.41,-280.85 538.55,-268.25 555,-244 588.89,-194.05 554.82,-118.25 536.29,-84.39"/>
<polygon fill="midnightblue" stroke="midnightblue" points="539.31,-82.63 531.33,-75.66 533.22,-86.08 539.31,-82.63"/>
</g>
<!-- Node12 -->
<g id="node12" class="node">
<title>Node12</title>
<g id="a_node12"><a xlink:href="_willy_weather_2authenticate_8h.html" target="_top" xlink:title=" ">
<polygon fill="none" stroke="black" points="408.5,-224.5 408.5,-243.5 545.5,-243.5 545.5,-224.5 408.5,-224.5"/>
<text text-anchor="middle" x="477" y="-231.5" font-family="Helvetica,sans-Serif" font-size="10.00">WillyWeather/authenticate.h</text>
</a>
</g>
</g>
<!-- Node1&#45;&gt;Node12 -->
<g id="edge12" class="edge">
<title>Node1&#45;&gt;Node12</title>
<path fill="none" stroke="midnightblue" d="M439.61,-280.4C446.73,-271.75 455.88,-260.64 463.35,-251.58"/>
<polygon fill="midnightblue" stroke="midnightblue" points="466.21,-253.6 469.87,-243.66 460.81,-249.15 466.21,-253.6"/>
</g>
<!-- Node13 -->
<g id="node13" class="node">
<title>Node13</title>
<g id="a_node13"><a xlink:href="http_8h.html" target="_top" xlink:title=" ">
<polygon fill="none" stroke="black" points="255.5,-168.5 255.5,-187.5 296.5,-187.5 296.5,-168.5 255.5,-168.5"/>
<text text-anchor="middle" x="276" y="-175.5" font-family="Helvetica,sans-Serif" font-size="10.00">http.h</text>
</a>
</g>
</g>
<!-- Node1&#45;&gt;Node13 -->
<g id="edge33" class="edge">
<title>Node1&#45;&gt;Node13</title>
<path fill="none" stroke="midnightblue" d="M391.07,-280.4C371.16,-271.72 346.88,-259.32 328,-244 311.23,-230.38 296.31,-210.5 286.8,-196.32"/>
<polygon fill="midnightblue" stroke="midnightblue" points="289.5,-194.05 281.13,-187.56 283.62,-197.85 289.5,-194.05"/>
</g>
<!-- Node14 -->
<g id="node14" class="node">
<title>Node14</title>
<g id="a_node14"><a xlink:href="utils_8h.html" target="_top" xlink:title=" ">
<polygon fill="none" stroke="black" points="217,-112.5 217,-131.5 259,-131.5 259,-112.5 217,-112.5"/>
<text text-anchor="middle" x="238" y="-119.5" font-family="Helvetica,sans-Serif" font-size="10.00">utils.h</text>
</a>
</g>
</g>
<!-- Node1&#45;&gt;Node14 -->
<g id="edge34" class="edge">
<title>Node1&#45;&gt;Node14</title>
<path fill="none" stroke="midnightblue" d="M381.71,-280.49C357.45,-271.98 327.89,-259.71 304,-244 274.33,-224.49 262.95,-219.73 247,-188 239.72,-173.53 237.75,-155.08 237.44,-141.54"/>
<polygon fill="midnightblue" stroke="midnightblue" points="240.94,-141.53 237.49,-131.51 233.94,-141.49 240.94,-141.53"/>
</g>
<!-- Node8&#45;&gt;Node4 -->
<g id="edge8" class="edge">
<title>Node8&#45;&gt;Node4</title>
<path fill="none" stroke="midnightblue" d="M544.58,-58.81C571.7,-49.77 622.49,-32.84 655.77,-21.74"/>
<polygon fill="midnightblue" stroke="midnightblue" points="657.12,-24.98 665.5,-18.5 654.9,-18.34 657.12,-24.98"/>
</g>
<!-- Node9 -->
<g id="node9" class="node">
<title>Node9</title>
<g id="a_node9"><a xlink:title=" ">
<polygon fill="none" stroke="#bfbfbf" points="428.5,-0.5 428.5,-19.5 479.5,-19.5 479.5,-0.5 428.5,-0.5"/>
<text text-anchor="middle" x="454" y="-7.5" font-family="Helvetica,sans-Serif" font-size="10.00">stdarg.h</text>
</a>
</g>
</g>
<!-- Node8&#45;&gt;Node9 -->
<g id="edge9" class="edge">
<title>Node8&#45;&gt;Node9</title>
<path fill="none" stroke="midnightblue" d="M514.43,-56.32C503.58,-48.18 487.12,-35.84 474.12,-26.09"/>
<polygon fill="midnightblue" stroke="midnightblue" points="475.88,-23.03 465.78,-19.83 471.68,-28.63 475.88,-23.03"/>
</g>
<!-- Node10 -->
<g id="node10" class="node">
<title>Node10</title>
<g id="a_node10"><a xlink:title=" ">
<polygon fill="none" stroke="#bfbfbf" points="498,-0.5 498,-19.5 554,-19.5 554,-0.5 498,-0.5"/>
<text text-anchor="middle" x="526" y="-7.5" font-family="Helvetica,sans-Serif" font-size="10.00">stdbool.h</text>
</a>
</g>
</g>
<!-- Node8&#45;&gt;Node10 -->
<g id="edge10" class="edge">
<title>Node8&#45;&gt;Node10</title>
<path fill="none" stroke="midnightblue" d="M526,-56.08C526,-49.01 526,-38.86 526,-29.99"/>
<polygon fill="midnightblue" stroke="midnightblue" points="529.5,-29.75 526,-19.75 522.5,-29.75 529.5,-29.75"/>
</g>
<!-- Node11 -->
<g id="node11" class="node">
<title>Node11</title>
<g id="a_node11"><a xlink:title=" ">
<polygon fill="none" stroke="#bfbfbf" points="572.5,-0.5 572.5,-19.5 615.5,-19.5 615.5,-0.5 572.5,-0.5"/>
<text text-anchor="middle" x="594" y="-7.5" font-family="Helvetica,sans-Serif" font-size="10.00">time.h</text>
</a>
</g>
</g>
<!-- Node8&#45;&gt;Node11 -->
<g id="edge11" class="edge">
<title>Node8&#45;&gt;Node11</title>
<path fill="none" stroke="midnightblue" d="M536.93,-56.32C547.17,-48.18 562.72,-35.84 575,-26.09"/>
<polygon fill="midnightblue" stroke="midnightblue" points="577.22,-28.79 582.88,-19.83 572.87,-23.31 577.22,-28.79"/>
</g>
<!-- Node12&#45;&gt;Node2 -->
<g id="edge13" class="edge">
<title>Node12&#45;&gt;Node2</title>
<path fill="none" stroke="midnightblue" d="M408.29,-224.59C361.89,-217.69 299.73,-206.07 247,-188 194.73,-170.08 184.58,-158.32 136,-132 104.87,-115.13 69.65,-94.42 47.16,-80.97"/>
<polygon fill="midnightblue" stroke="midnightblue" points="48.72,-77.83 38.34,-75.69 45.12,-83.83 48.72,-77.83"/>
</g>
<!-- Node12&#45;&gt;Node3 -->
<g id="edge14" class="edge">
<title>Node12&#45;&gt;Node3</title>
<path fill="none" stroke="midnightblue" d="M471.78,-224.08C456.32,-197.61 410.51,-119.21 390.06,-84.21"/>
<polygon fill="midnightblue" stroke="midnightblue" points="393.07,-82.44 385.01,-75.57 387.03,-85.97 393.07,-82.44"/>
</g>
<!-- Node12&#45;&gt;Node4 -->
<g id="edge15" class="edge">
<title>Node12&#45;&gt;Node4</title>
<path fill="none" stroke="midnightblue" d="M502.3,-224.39C551.53,-206.09 659.15,-158.14 702,-76 709.66,-61.32 704.34,-42.68 698.18,-29.13"/>
<polygon fill="midnightblue" stroke="midnightblue" points="701.15,-27.25 693.51,-19.91 694.91,-30.42 701.15,-27.25"/>
</g>
<!-- Node12&#45;&gt;Node6 -->
<g id="edge16" class="edge">
<title>Node12&#45;&gt;Node6</title>
<path fill="none" stroke="midnightblue" d="M484.26,-224.08C505.88,-197.49 570.09,-118.54 598.37,-83.76"/>
<polygon fill="midnightblue" stroke="midnightblue" points="601.44,-85.53 605.03,-75.57 596.01,-81.12 601.44,-85.53"/>
</g>
<!-- Node12&#45;&gt;Node7 -->
<g id="edge17" class="edge">
<title>Node12&#45;&gt;Node7</title>
<path fill="none" stroke="midnightblue" d="M475.6,-224.08C471.51,-197.95 459.49,-121.21 453.91,-85.58"/>
<polygon fill="midnightblue" stroke="midnightblue" points="457.35,-84.91 452.34,-75.57 450.43,-85.99 457.35,-84.91"/>
</g>
<!-- Node12&#45;&gt;Node8 -->
<g id="edge18" class="edge">
<title>Node12&#45;&gt;Node8</title>
<path fill="none" stroke="midnightblue" d="M479.63,-224.08C487.35,-197.95 510,-121.21 520.52,-85.58"/>
<polygon fill="midnightblue" stroke="midnightblue" points="524,-86.15 523.47,-75.57 517.28,-84.17 524,-86.15"/>
</g>
<!-- Node12&#45;&gt;Node13 -->
<g id="edge19" class="edge">
<title>Node12&#45;&gt;Node13</title>
<path fill="none" stroke="midnightblue" d="M445.15,-224.44C407.11,-214.22 343.92,-197.25 306.49,-187.19"/>
<polygon fill="midnightblue" stroke="midnightblue" points="307.22,-183.76 296.65,-184.55 305.4,-190.52 307.22,-183.76"/>
</g>
<!-- Node13&#45;&gt;Node2 -->
<g id="edge21" class="edge">
<title>Node13&#45;&gt;Node2</title>
<path fill="none" stroke="midnightblue" d="M258.45,-168.49C232.07,-155.78 180.52,-131.26 136,-112 109.2,-100.4 78.38,-88.09 55.87,-79.29"/>
<polygon fill="midnightblue" stroke="midnightblue" points="57.04,-75.99 46.46,-75.62 54.5,-82.51 57.04,-75.99"/>
</g>
<!-- Node13&#45;&gt;Node3 -->
<g id="edge20" class="edge">
<title>Node13&#45;&gt;Node3</title>
<path fill="none" stroke="midnightblue" d="M279.13,-168.15C284.18,-154.78 295.21,-129.17 311,-112 322.8,-99.17 339,-88.36 352.74,-80.55"/>
<polygon fill="midnightblue" stroke="midnightblue" points="354.66,-83.49 361.77,-75.63 351.32,-77.34 354.66,-83.49"/>
</g>
<!-- Node13&#45;&gt;Node7 -->
<g id="edge22" class="edge">
<title>Node13&#45;&gt;Node7</title>
<path fill="none" stroke="midnightblue" d="M289.73,-168.37C319.89,-149.41 392.14,-104 428.82,-80.94"/>
<polygon fill="midnightblue" stroke="midnightblue" points="430.73,-83.88 437.33,-75.59 427,-77.95 430.73,-83.88"/>
</g>
<!-- Node13&#45;&gt;Node14 -->
<g id="edge23" class="edge">
<title>Node13&#45;&gt;Node14</title>
<path fill="none" stroke="midnightblue" d="M269.73,-168.08C264.36,-160.46 256.48,-149.26 249.92,-139.94"/>
<polygon fill="midnightblue" stroke="midnightblue" points="252.78,-137.91 244.16,-131.75 247.05,-141.94 252.78,-137.91"/>
</g>
<!-- Node14&#45;&gt;Node2 -->
<g id="edge25" class="edge">
<title>Node14&#45;&gt;Node2</title>
<path fill="none" stroke="midnightblue" d="M216.78,-115.89C184.59,-108.1 121.24,-92.63 57.89,-76.19"/>
<polygon fill="midnightblue" stroke="midnightblue" points="58.69,-72.78 48.13,-73.65 56.93,-79.56 58.69,-72.78"/>
</g>
<!-- Node14&#45;&gt;Node3 -->
<g id="edge24" class="edge">
<title>Node14&#45;&gt;Node3</title>
<path fill="none" stroke="midnightblue" d="M259.26,-112.92C282.69,-104.01 320.64,-89.57 347.74,-79.27"/>
<polygon fill="midnightblue" stroke="midnightblue" points="349.08,-82.5 357.18,-75.68 346.59,-75.96 349.08,-82.5"/>
</g>
<!-- Node14&#45;&gt;Node6 -->
<g id="edge28" class="edge">
<title>Node14&#45;&gt;Node6</title>
<path fill="none" stroke="midnightblue" d="M259.09,-118.09C309.89,-111.06 443.01,-92.51 554,-76 556.05,-75.7 558.13,-75.38 560.24,-75.06"/>
<polygon fill="midnightblue" stroke="midnightblue" points="560.83,-78.52 570.19,-73.55 559.78,-71.59 560.83,-78.52"/>
</g>
<!-- Node14&#45;&gt;Node7 -->
<g id="edge26" class="edge">
<title>Node14&#45;&gt;Node7</title>
<path fill="none" stroke="midnightblue" d="M259.2,-115.62C294.71,-106.62 366.74,-88.36 411.72,-76.96"/>
<polygon fill="midnightblue" stroke="midnightblue" points="412.6,-80.35 421.43,-74.5 410.88,-73.56 412.6,-80.35"/>
</g>
<!-- Node14&#45;&gt;Node8 -->
<g id="edge32" class="edge">
<title>Node14&#45;&gt;Node8</title>
<path fill="none" stroke="midnightblue" d="M259,-117.75C302.36,-110.92 404.82,-94.23 490,-76 492.48,-75.47 495.05,-74.89 497.62,-74.29"/>
<polygon fill="midnightblue" stroke="midnightblue" points="498.48,-77.68 507.37,-71.91 496.83,-70.88 498.48,-77.68"/>
</g>
<!-- Node15 -->
<g id="node15" class="node">
<title>Node15</title>
<g id="a_node15"><a xlink:title=" ">
<polygon fill="none" stroke="#bfbfbf" points="130,-56.5 130,-75.5 178,-75.5 178,-56.5 130,-56.5"/>
<text text-anchor="middle" x="154" y="-63.5" font-family="Helvetica,sans-Serif" font-size="10.00">stdint.h</text>
</a>
</g>
</g>
<!-- Node14&#45;&gt;Node15 -->
<g id="edge27" class="edge">
<title>Node14&#45;&gt;Node15</title>
<path fill="none" stroke="midnightblue" d="M224.5,-112.32C211.4,-103.9 191.29,-90.97 175.89,-81.07"/>
<polygon fill="midnightblue" stroke="midnightblue" points="177.77,-78.12 167.46,-75.65 173.98,-84.01 177.77,-78.12"/>
</g>
<!-- Node16 -->
<g id="node16" class="node">
<title>Node16</title>
<g id="a_node16"><a xlink:title=" ">
<polygon fill="none" stroke="#bfbfbf" points="196.5,-56.5 196.5,-75.5 255.5,-75.5 255.5,-56.5 196.5,-56.5"/>
<text text-anchor="middle" x="226" y="-63.5" font-family="Helvetica,sans-Serif" font-size="10.00">sys/stat.h</text>
</a>
</g>
</g>
<!-- Node14&#45;&gt;Node16 -->
<g id="edge29" class="edge">
<title>Node14&#45;&gt;Node16</title>
<path fill="none" stroke="midnightblue" d="M236.02,-112.08C234.43,-104.93 232.14,-94.64 230.15,-85.69"/>
<polygon fill="midnightblue" stroke="midnightblue" points="233.53,-84.75 227.94,-75.75 226.7,-86.27 233.53,-84.75"/>
</g>
<!-- Node17 -->
<g id="node17" class="node">
<title>Node17</title>
<g id="a_node17"><a xlink:title=" ">
<polygon fill="none" stroke="#bfbfbf" points="273.5,-56.5 273.5,-75.5 338.5,-75.5 338.5,-56.5 273.5,-56.5"/>
<text text-anchor="middle" x="306" y="-63.5" font-family="Helvetica,sans-Serif" font-size="10.00">sys/types.h</text>
</a>
</g>
</g>
<!-- Node14&#45;&gt;Node17 -->
<g id="edge30" class="edge">
<title>Node14&#45;&gt;Node17</title>
<path fill="none" stroke="midnightblue" d="M248.93,-112.32C259.17,-104.18 274.72,-91.84 287,-82.09"/>
<polygon fill="midnightblue" stroke="midnightblue" points="289.22,-84.79 294.88,-75.83 284.87,-79.31 289.22,-84.79"/>
</g>
<!-- Node18 -->
<g id="node18" class="node">
<title>Node18</title>
<g id="a_node18"><a xlink:title=" ">
<polygon fill="none" stroke="#bfbfbf" points="66,-56.5 66,-75.5 112,-75.5 112,-56.5 66,-56.5"/>
<text text-anchor="middle" x="89" y="-63.5" font-family="Helvetica,sans-Serif" font-size="10.00">errno.h</text>
</a>
</g>
</g>
<!-- Node14&#45;&gt;Node18 -->
<g id="edge31" class="edge">
<title>Node14&#45;&gt;Node18</title>
<path fill="none" stroke="midnightblue" d="M216.97,-113.38C192.28,-104.43 151.05,-89.49 122.07,-78.98"/>
<polygon fill="midnightblue" stroke="midnightblue" points="122.97,-75.59 112.38,-75.47 120.59,-82.17 122.97,-75.59"/>
</g>
</g>
</svg>
