<?xml version="1.0" encoding="UTF-8" standalone="no"?>
<!DOCTYPE svg PUBLIC "-//W3C//DTD SVG 1.1//EN"
 "http://www.w3.org/Graphics/SVG/1.1/DTD/svg11.dtd">
<!-- Generated by graphviz version 2.49.3 (20211027.1534)
 -->
<!-- Title: include/WillyWeather/location.h Pages: 1 -->
<svg width="631pt" height="207pt"
 viewBox="0.00 0.00 630.77 207.00" xmlns="http://www.w3.org/2000/svg" xmlns:xlink="http://www.w3.org/1999/xlink">
<g id="graph0" class="graph" transform="scale(1 1) rotate(0) translate(4 203)">
<title>include/WillyWeather/location.h</title>
<!-- Node1 -->
<g id="node1" class="node">
<title>Node1</title>
<g id="a_node1"><a xlink:title=" ">
<polygon fill="#bfbfbf" stroke="black" points="226.77,-168.5 226.77,-198.5 333.77,-198.5 333.77,-168.5 226.77,-168.5"/>
<text text-anchor="start" x="234.77" y="-186.5" font-family="Helvetica,sans-Serif" font-size="10.00">include/WillyWeather</text>
<text text-anchor="middle" x="280.27" y="-175.5" font-family="Helvetica,sans-Serif" font-size="10.00">/location.h</text>
</a>
</g>
</g>
<!-- Node2 -->
<g id="node2" class="node">
<title>Node2</title>
<g id="a_node2"><a xlink:title=" ">
<polygon fill="none" stroke="#bfbfbf" points="152.27,-56.5 152.27,-75.5 200.27,-75.5 200.27,-56.5 152.27,-56.5"/>
<text text-anchor="middle" x="176.27" y="-63.5" font-family="Helvetica,sans-Serif" font-size="10.00">string.h</text>
</a>
</g>
</g>
<!-- Node1&#45;&gt;Node2 -->
<g id="edge1" class="edge">
<title>Node1&#45;&gt;Node2</title>
<path fill="none" stroke="midnightblue" d="M226.34,-174.06C180.83,-165.71 120.82,-151.37 106.27,-132 90.91,-111.54 119.49,-92.13 144.63,-79.94"/>
<polygon fill="midnightblue" stroke="midnightblue" points="146.37,-82.99 153.99,-75.63 143.45,-76.63 146.37,-82.99"/>
</g>
<!-- Node3 -->
<g id="node3" class="node">
<title>Node3</title>
<g id="a_node3"><a xlink:title=" ">
<polygon fill="none" stroke="#bfbfbf" points="218.77,-56.5 218.77,-75.5 265.77,-75.5 265.77,-56.5 218.77,-56.5"/>
<text text-anchor="middle" x="242.27" y="-63.5" font-family="Helvetica,sans-Serif" font-size="10.00">stdlib.h</text>
</a>
</g>
</g>
<!-- Node1&#45;&gt;Node3 -->
<g id="edge2" class="edge">
<title>Node1&#45;&gt;Node3</title>
<path fill="none" stroke="midnightblue" d="M277.04,-168.28C273.64,-153.92 267.87,-131.18 261.27,-112 258.17,-102.98 254.12,-93.2 250.56,-85.06"/>
<polygon fill="midnightblue" stroke="midnightblue" points="253.71,-83.52 246.42,-75.83 247.32,-86.38 253.71,-83.52"/>
</g>
<!-- Node4 -->
<g id="node4" class="node">
<title>Node4</title>
<g id="a_node4"><a xlink:title=" ">
<polygon fill="none" stroke="#bfbfbf" points="101.77,-0.5 101.77,-19.5 146.77,-19.5 146.77,-0.5 101.77,-0.5"/>
<text text-anchor="middle" x="124.27" y="-7.5" font-family="Helvetica,sans-Serif" font-size="10.00">stdio.h</text>
</a>
</g>
</g>
<!-- Node1&#45;&gt;Node4 -->
<g id="edge3" class="edge">
<title>Node1&#45;&gt;Node4</title>
<path fill="none" stroke="midnightblue" d="M226.65,-181.69C157.76,-177.25 42.39,-157.38 3.27,-76 -15.01,-37.96 49.83,-21.45 91.59,-14.88"/>
<polygon fill="midnightblue" stroke="midnightblue" points="92.25,-18.32 101.65,-13.42 91.25,-11.39 92.25,-18.32"/>
</g>
<!-- Node5 -->
<g id="node5" class="node">
<title>Node5</title>
<g id="a_node5"><a xlink:title=" ">
<polygon fill="none" stroke="#bfbfbf" points="444.27,-112.5 444.27,-131.5 490.27,-131.5 490.27,-112.5 444.27,-112.5"/>
<text text-anchor="middle" x="467.27" y="-119.5" font-family="Helvetica,sans-Serif" font-size="10.00">math.h</text>
</a>
</g>
</g>
<!-- Node1&#45;&gt;Node5 -->
<g id="edge4" class="edge">
<title>Node1&#45;&gt;Node5</title>
<path fill="none" stroke="midnightblue" d="M324.59,-168.4C358.26,-157.69 403.83,-143.19 434.32,-133.48"/>
<polygon fill="midnightblue" stroke="midnightblue" points="435.58,-136.76 444.04,-130.39 433.45,-130.09 435.58,-136.76"/>
</g>
<!-- Node6 -->
<g id="node6" class="node">
<title>Node6</title>
<g id="a_node6"><a xlink:title=" ">
<polygon fill="none" stroke="#bfbfbf" points="12.77,-56.5 12.77,-75.5 95.77,-75.5 95.77,-56.5 12.77,-56.5"/>
<text text-anchor="middle" x="54.27" y="-63.5" font-family="Helvetica,sans-Serif" font-size="10.00">cjson/cJSON.h</text>
</a>
</g>
</g>
<!-- Node1&#45;&gt;Node6 -->
<g id="edge5" class="edge">
<title>Node1&#45;&gt;Node6</title>
<path fill="none" stroke="midnightblue" d="M226.67,-177.79C187.68,-172.11 135.28,-159.59 97.27,-132 80.72,-119.99 68.73,-99.51 61.68,-84.74"/>
<polygon fill="midnightblue" stroke="midnightblue" points="64.87,-83.31 57.59,-75.61 58.48,-86.16 64.87,-83.31"/>
</g>
<!-- Node7 -->
<g id="node7" class="node">
<title>Node7</title>
<g id="a_node7"><a xlink:title=" ">
<polygon fill="none" stroke="#bfbfbf" points="283.77,-56.5 283.77,-75.5 342.77,-75.5 342.77,-56.5 283.77,-56.5"/>
<text text-anchor="middle" x="313.27" y="-63.5" font-family="Helvetica,sans-Serif" font-size="10.00">curl/curl.h</text>
</a>
</g>
</g>
<!-- Node1&#45;&gt;Node7 -->
<g id="edge6" class="edge">
<title>Node1&#45;&gt;Node7</title>
<path fill="none" stroke="midnightblue" d="M284.32,-168.34C290.26,-147.53 301.37,-108.66 307.96,-85.58"/>
<polygon fill="midnightblue" stroke="midnightblue" points="311.41,-86.25 310.8,-75.67 304.68,-84.32 311.41,-86.25"/>
</g>
<!-- Node8 -->
<g id="node8" class="node">
<title>Node8</title>
<g id="a_node8"><a xlink:href="log_8h.html" target="_top" xlink:title=" ">
<polygon fill="none" stroke="black" points="425.77,-56.5 425.77,-75.5 462.77,-75.5 462.77,-56.5 425.77,-56.5"/>
<text text-anchor="middle" x="444.27" y="-63.5" font-family="Helvetica,sans-Serif" font-size="10.00">log.h</text>
</a>
</g>
</g>
<!-- Node1&#45;&gt;Node8 -->
<g id="edge7" class="edge">
<title>Node1&#45;&gt;Node8</title>
<path fill="none" stroke="midnightblue" d="M328.15,-168.43C350.68,-160.24 377,-148.27 397.27,-132 413.51,-118.97 426.81,-98.99 435.07,-84.62"/>
<polygon fill="midnightblue" stroke="midnightblue" points="438.21,-86.18 439.95,-75.73 432.07,-82.81 438.21,-86.18"/>
</g>
<!-- Node12 -->
<g id="node12" class="node">
<title>Node12</title>
<g id="a_node12"><a xlink:href="_willy_weather_2authenticate_8h.html" target="_top" xlink:title=" ">
<polygon fill="none" stroke="black" points="114.77,-112.5 114.77,-131.5 251.77,-131.5 251.77,-112.5 114.77,-112.5"/>
<text text-anchor="middle" x="183.27" y="-119.5" font-family="Helvetica,sans-Serif" font-size="10.00">WillyWeather/authenticate.h</text>
</a>
</g>
</g>
<!-- Node1&#45;&gt;Node12 -->
<g id="edge12" class="edge">
<title>Node1&#45;&gt;Node12</title>
<path fill="none" stroke="midnightblue" d="M257.28,-168.4C241.88,-158.95 221.68,-146.56 206.27,-137.11"/>
<polygon fill="midnightblue" stroke="midnightblue" points="207.74,-133.9 197.39,-131.66 204.08,-139.87 207.74,-133.9"/>
</g>
<!-- Node13 -->
<g id="node13" class="node">
<title>Node13</title>
<g id="a_node13"><a xlink:href="utils_8h.html" target="_top" xlink:title=" ">
<polygon fill="none" stroke="black" points="346.27,-112.5 346.27,-131.5 388.27,-131.5 388.27,-112.5 346.27,-112.5"/>
<text text-anchor="middle" x="367.27" y="-119.5" font-family="Helvetica,sans-Serif" font-size="10.00">utils.h</text>
</a>
</g>
</g>
<!-- Node1&#45;&gt;Node13 -->
<g id="edge19" class="edge">
<title>Node1&#45;&gt;Node13</title>
<path fill="none" stroke="midnightblue" d="M300.89,-168.4C314.57,-159.04 332.48,-146.79 346.25,-137.38"/>
<polygon fill="midnightblue" stroke="midnightblue" points="348.33,-140.19 354.61,-131.66 344.38,-134.41 348.33,-140.19"/>
</g>
<!-- Node8&#45;&gt;Node4 -->
<g id="edge8" class="edge">
<title>Node8&#45;&gt;Node4</title>
<path fill="none" stroke="midnightblue" d="M425.71,-58.58C422.58,-57.63 419.35,-56.73 416.27,-56 323.38,-34.06 211.24,-20.24 156.92,-14.33"/>
<polygon fill="midnightblue" stroke="midnightblue" points="157.17,-10.83 146.85,-13.25 156.42,-17.79 157.17,-10.83"/>
</g>
<!-- Node9 -->
<g id="node9" class="node">
<title>Node9</title>
<g id="a_node9"><a xlink:title=" ">
<polygon fill="none" stroke="#bfbfbf" points="418.77,-0.5 418.77,-19.5 469.77,-19.5 469.77,-0.5 418.77,-0.5"/>
<text text-anchor="middle" x="444.27" y="-7.5" font-family="Helvetica,sans-Serif" font-size="10.00">stdarg.h</text>
</a>
</g>
</g>
<!-- Node8&#45;&gt;Node9 -->
<g id="edge9" class="edge">
<title>Node8&#45;&gt;Node9</title>
<path fill="none" stroke="midnightblue" d="M444.27,-56.08C444.27,-49.01 444.27,-38.86 444.27,-29.99"/>
<polygon fill="midnightblue" stroke="midnightblue" points="447.77,-29.75 444.27,-19.75 440.77,-29.75 447.77,-29.75"/>
</g>
<!-- Node10 -->
<g id="node10" class="node">
<title>Node10</title>
<g id="a_node10"><a xlink:title=" ">
<polygon fill="none" stroke="#bfbfbf" points="488.27,-0.5 488.27,-19.5 544.27,-19.5 544.27,-0.5 488.27,-0.5"/>
<text text-anchor="middle" x="516.27" y="-7.5" font-family="Helvetica,sans-Serif" font-size="10.00">stdbool.h</text>
</a>
</g>
</g>
<!-- Node8&#45;&gt;Node10 -->
<g id="edge10" class="edge">
<title>Node8&#45;&gt;Node10</title>
<path fill="none" stroke="midnightblue" d="M455.84,-56.32C466.69,-48.18 483.15,-35.84 496.16,-26.09"/>
<polygon fill="midnightblue" stroke="midnightblue" points="498.59,-28.63 504.49,-19.83 494.39,-23.03 498.59,-28.63"/>
</g>
<!-- Node11 -->
<g id="node11" class="node">
<title>Node11</title>
<g id="a_node11"><a xlink:title=" ">
<polygon fill="none" stroke="#bfbfbf" points="357.77,-0.5 357.77,-19.5 400.77,-19.5 400.77,-0.5 357.77,-0.5"/>
<text text-anchor="middle" x="379.27" y="-7.5" font-family="Helvetica,sans-Serif" font-size="10.00">time.h</text>
</a>
</g>
</g>
<!-- Node8&#45;&gt;Node11 -->
<g id="edge11" class="edge">
<title>Node8&#45;&gt;Node11</title>
<path fill="none" stroke="midnightblue" d="M433.83,-56.32C424.13,-48.26 409.46,-36.08 397.77,-26.37"/>
<polygon fill="midnightblue" stroke="midnightblue" points="399.83,-23.53 389.91,-19.83 395.36,-28.92 399.83,-23.53"/>
</g>
<!-- Node12&#45;&gt;Node2 -->
<g id="edge13" class="edge">
<title>Node12&#45;&gt;Node2</title>
<path fill="none" stroke="midnightblue" d="M182.12,-112.08C181.19,-104.93 179.85,-94.64 178.7,-85.69"/>
<polygon fill="midnightblue" stroke="midnightblue" points="182.16,-85.22 177.41,-75.75 175.22,-86.12 182.16,-85.22"/>
</g>
<!-- Node12&#45;&gt;Node3 -->
<g id="edge14" class="edge">
<title>Node12&#45;&gt;Node3</title>
<path fill="none" stroke="midnightblue" d="M192.75,-112.32C201.47,-104.34 214.62,-92.31 225.17,-82.65"/>
<polygon fill="midnightblue" stroke="midnightblue" points="227.61,-85.17 232.62,-75.83 222.88,-80 227.61,-85.17"/>
</g>
<!-- Node12&#45;&gt;Node4 -->
<g id="edge15" class="edge">
<title>Node12&#45;&gt;Node4</title>
<path fill="none" stroke="midnightblue" d="M173.34,-112.3C164.29,-103.86 151.17,-90.27 143.27,-76 135.27,-61.53 130.32,-43.35 127.49,-29.89"/>
<polygon fill="midnightblue" stroke="midnightblue" points="130.9,-29.06 125.59,-19.89 124.02,-30.37 130.9,-29.06"/>
</g>
<!-- Node12&#45;&gt;Node6 -->
<g id="edge16" class="edge">
<title>Node12&#45;&gt;Node6</title>
<path fill="none" stroke="midnightblue" d="M162.83,-112.44C141.6,-103.56 108.17,-89.56 84.02,-79.45"/>
<polygon fill="midnightblue" stroke="midnightblue" points="85.19,-76.15 74.62,-75.52 82.49,-82.61 85.19,-76.15"/>
</g>
<!-- Node12&#45;&gt;Node7 -->
<g id="edge17" class="edge">
<title>Node12&#45;&gt;Node7</title>
<path fill="none" stroke="midnightblue" d="M203.87,-112.44C225.27,-103.56 258.95,-89.56 283.3,-79.45"/>
<polygon fill="midnightblue" stroke="midnightblue" points="284.88,-82.58 292.77,-75.52 282.19,-76.12 284.88,-82.58"/>
</g>
<!-- Node12&#45;&gt;Node8 -->
<g id="edge18" class="edge">
<title>Node12&#45;&gt;Node8</title>
<path fill="none" stroke="midnightblue" d="M237.36,-112.45C282.62,-104.87 349.03,-92.75 415.83,-75.85"/>
<polygon fill="midnightblue" stroke="midnightblue" points="416.87,-79.19 425.69,-73.32 415.13,-72.41 416.87,-79.19"/>
</g>
<!-- Node13&#45;&gt;Node2 -->
<g id="edge21" class="edge">
<title>Node13&#45;&gt;Node2</title>
<path fill="none" stroke="midnightblue" d="M346.1,-115.01C313.22,-105.72 249.58,-87.72 210.22,-76.6"/>
<polygon fill="midnightblue" stroke="midnightblue" points="211.11,-73.21 200.54,-73.86 209.21,-79.95 211.11,-73.21"/>
</g>
<!-- Node13&#45;&gt;Node3 -->
<g id="edge20" class="edge">
<title>Node13&#45;&gt;Node3</title>
<path fill="none" stroke="midnightblue" d="M347.47,-112.44C326.99,-103.6 294.79,-89.69 271.41,-79.59"/>
<polygon fill="midnightblue" stroke="midnightblue" points="272.55,-76.27 261.99,-75.52 269.78,-82.7 272.55,-76.27"/>
</g>
<!-- Node13&#45;&gt;Node6 -->
<g id="edge23" class="edge">
<title>Node13&#45;&gt;Node6</title>
<path fill="none" stroke="midnightblue" d="M346.25,-117.37C297.52,-108.97 175.69,-87.95 105.77,-75.88"/>
<polygon fill="midnightblue" stroke="midnightblue" points="106.29,-72.42 95.84,-74.17 105.1,-79.32 106.29,-72.42"/>
</g>
<!-- Node13&#45;&gt;Node7 -->
<g id="edge22" class="edge">
<title>Node13&#45;&gt;Node7</title>
<path fill="none" stroke="midnightblue" d="M358.36,-112.08C350.49,-104.22 338.84,-92.57 329.35,-83.08"/>
<polygon fill="midnightblue" stroke="midnightblue" points="331.57,-80.35 322.02,-75.75 326.62,-85.3 331.57,-80.35"/>
</g>
<!-- Node13&#45;&gt;Node8 -->
<g id="edge27" class="edge">
<title>Node13&#45;&gt;Node8</title>
<path fill="none" stroke="midnightblue" d="M379.64,-112.32C391.43,-104.06 409.4,-91.45 423.41,-81.63"/>
<polygon fill="midnightblue" stroke="midnightblue" points="425.75,-84.26 431.93,-75.65 421.73,-78.53 425.75,-84.26"/>
</g>
<!-- Node14 -->
<g id="node14" class="node">
<title>Node14</title>
<g id="a_node14"><a xlink:title=" ">
<polygon fill="none" stroke="#bfbfbf" points="480.77,-56.5 480.77,-75.5 539.77,-75.5 539.77,-56.5 480.77,-56.5"/>
<text text-anchor="middle" x="510.27" y="-63.5" font-family="Helvetica,sans-Serif" font-size="10.00">sys/stat.h</text>
</a>
</g>
</g>
<!-- Node13&#45;&gt;Node14 -->
<g id="edge24" class="edge">
<title>Node13&#45;&gt;Node14</title>
<path fill="none" stroke="midnightblue" d="M388.37,-113.03C412.04,-104.1 450.69,-89.5 478.12,-79.14"/>
<polygon fill="midnightblue" stroke="midnightblue" points="479.55,-82.34 487.67,-75.54 477.08,-75.79 479.55,-82.34"/>
</g>
<!-- Node15 -->
<g id="node15" class="node">
<title>Node15</title>
<g id="a_node15"><a xlink:title=" ">
<polygon fill="none" stroke="#bfbfbf" points="557.77,-56.5 557.77,-75.5 622.77,-75.5 622.77,-56.5 557.77,-56.5"/>
<text text-anchor="middle" x="590.27" y="-63.5" font-family="Helvetica,sans-Serif" font-size="10.00">sys/types.h</text>
</a>
</g>
</g>
<!-- Node13&#45;&gt;Node15 -->
<g id="edge25" class="edge">
<title>Node13&#45;&gt;Node15</title>
<path fill="none" stroke="midnightblue" d="M388.65,-115.82C425.11,-106.99 499.98,-88.87 547.51,-77.36"/>
<polygon fill="midnightblue" stroke="midnightblue" points="548.61,-80.69 557.5,-74.93 546.96,-73.89 548.61,-80.69"/>
</g>
<!-- Node16 -->
<g id="node16" class="node">
<title>Node16</title>
<g id="a_node16"><a xlink:title=" ">
<polygon fill="none" stroke="#bfbfbf" points="361.27,-56.5 361.27,-75.5 407.27,-75.5 407.27,-56.5 361.27,-56.5"/>
<text text-anchor="middle" x="384.27" y="-63.5" font-family="Helvetica,sans-Serif" font-size="10.00">errno.h</text>
</a>
</g>
</g>
<!-- Node13&#45;&gt;Node16 -->
<g id="edge26" class="edge">
<title>Node13&#45;&gt;Node16</title>
<path fill="none" stroke="midnightblue" d="M370.08,-112.08C372.36,-104.85 375.64,-94.41 378.48,-85.4"/>
<polygon fill="midnightblue" stroke="midnightblue" points="381.85,-86.34 381.52,-75.75 375.18,-84.24 381.85,-86.34"/>
</g>
</g>
</svg>
