<?xml version="1.0" encoding="UTF-8" standalone="no"?>
<!DOCTYPE svg PUBLIC "-//W3C//DTD SVG 1.1//EN"
 "http://www.w3.org/Graphics/SVG/1.1/DTD/svg11.dtd">
<!-- Generated by graphviz version 2.49.3 (20211027.1534)
 -->
<!-- Title: include/WillyWeather/location.h Pages: 1 -->
<svg width="668pt" height="319pt"
 viewBox="0.00 0.00 668.00 319.00" xmlns="http://www.w3.org/2000/svg" xmlns:xlink="http://www.w3.org/1999/xlink">
<g id="graph0" class="graph" transform="scale(1 1) rotate(0) translate(4 315)">
<title>include/WillyWeather/location.h</title>
<!-- Node1 -->
<g id="node1" class="node">
<title>Node1</title>
<g id="a_node1"><a xlink:title=" ">
<polygon fill="#bfbfbf" stroke="black" points="235,-280.5 235,-310.5 342,-310.5 342,-280.5 235,-280.5"/>
<text text-anchor="start" x="243" y="-298.5" font-family="Helvetica,sans-Serif" font-size="10.00">include/WillyWeather</text>
<text text-anchor="middle" x="288.5" y="-287.5" font-family="Helvetica,sans-Serif" font-size="10.00">/location.h</text>
</a>
</g>
</g>
<!-- Node2 -->
<g id="node2" class="node">
<title>Node2</title>
<g id="a_node2"><a xlink:title=" ">
<polygon fill="none" stroke="#bfbfbf" points="321.5,-56.5 321.5,-75.5 369.5,-75.5 369.5,-56.5 321.5,-56.5"/>
<text text-anchor="middle" x="345.5" y="-63.5" font-family="Helvetica,sans-Serif" font-size="10.00">string.h</text>
</a>
</g>
</g>
<!-- Node1&#45;&gt;Node2 -->
<g id="edge1" class="edge">
<title>Node1&#45;&gt;Node2</title>
<path fill="none" stroke="midnightblue" d="M319.43,-280.37C336.24,-271.6 356.58,-259.13 371.5,-244 391.78,-223.43 396.9,-215.87 404.5,-188 415.4,-148.04 382.93,-105.41 361.91,-82.97"/>
<polygon fill="midnightblue" stroke="midnightblue" points="364.28,-80.37 354.79,-75.65 359.26,-85.26 364.28,-80.37"/>
</g>
<!-- Node3 -->
<g id="node3" class="node">
<title>Node3</title>
<g id="a_node3"><a xlink:title=" ">
<polygon fill="none" stroke="#bfbfbf" points="613,-56.5 613,-75.5 660,-75.5 660,-56.5 613,-56.5"/>
<text text-anchor="middle" x="636.5" y="-63.5" font-family="Helvetica,sans-Serif" font-size="10.00">stdlib.h</text>
</a>
</g>
</g>
<!-- Node1&#45;&gt;Node3 -->
<g id="edge2" class="edge">
<title>Node1&#45;&gt;Node3</title>
<path fill="none" stroke="midnightblue" d="M342.13,-290.87C386.04,-285.76 448.24,-273.49 494.5,-244 559.51,-202.56 608.1,-121.05 627.39,-84.95"/>
<polygon fill="midnightblue" stroke="midnightblue" points="630.71,-86.15 632.24,-75.66 624.51,-82.91 630.71,-86.15"/>
</g>
<!-- Node4 -->
<g id="node4" class="node">
<title>Node4</title>
<g id="a_node4"><a xlink:title=" ">
<polygon fill="none" stroke="#bfbfbf" points="0,-0.5 0,-19.5 45,-19.5 45,-0.5 0,-0.5"/>
<text text-anchor="middle" x="22.5" y="-7.5" font-family="Helvetica,sans-Serif" font-size="10.00">stdio.h</text>
</a>
</g>
</g>
<!-- Node1&#45;&gt;Node4 -->
<g id="edge3" class="edge">
<title>Node1&#45;&gt;Node4</title>
<path fill="none" stroke="midnightblue" d="M234.86,-290C189.14,-284.36 122.88,-271.78 71.5,-244 34.72,-224.11 3.5,-220.81 3.5,-179 3.5,-179 3.5,-179 3.5,-121 3.5,-88.49 11.66,-51.35 17.28,-29.61"/>
<polygon fill="midnightblue" stroke="midnightblue" points="20.72,-30.32 19.94,-19.75 13.96,-28.5 20.72,-30.32"/>
</g>
<!-- Node5 -->
<g id="node5" class="node">
<title>Node5</title>
<g id="a_node5"><a xlink:title=" ">
<polygon fill="none" stroke="#bfbfbf" points="107.5,-224.5 107.5,-243.5 153.5,-243.5 153.5,-224.5 107.5,-224.5"/>
<text text-anchor="middle" x="130.5" y="-231.5" font-family="Helvetica,sans-Serif" font-size="10.00">math.h</text>
</a>
</g>
</g>
<!-- Node1&#45;&gt;Node5 -->
<g id="edge4" class="edge">
<title>Node1&#45;&gt;Node5</title>
<path fill="none" stroke="midnightblue" d="M251.06,-280.4C224.31,-270.33 188.68,-256.91 163.1,-247.28"/>
<polygon fill="midnightblue" stroke="midnightblue" points="164.08,-243.91 153.49,-243.66 161.62,-250.46 164.08,-243.91"/>
</g>
<!-- Node6 -->
<g id="node6" class="node">
<title>Node6</title>
<g id="a_node6"><a xlink:title=" ">
<polygon fill="none" stroke="#bfbfbf" points="143,-56.5 143,-75.5 226,-75.5 226,-56.5 143,-56.5"/>
<text text-anchor="middle" x="184.5" y="-63.5" font-family="Helvetica,sans-Serif" font-size="10.00">cjson/cJSON.h</text>
</a>
</g>
</g>
<!-- Node1&#45;&gt;Node6 -->
<g id="edge5" class="edge">
<title>Node1&#45;&gt;Node6</title>
<path fill="none" stroke="midnightblue" d="M234.93,-287.58C184.76,-279.87 115.09,-265.58 98.5,-244 57.63,-190.84 129.97,-115.16 165.96,-82.73"/>
<polygon fill="midnightblue" stroke="midnightblue" points="168.64,-85.03 173.84,-75.8 164.02,-79.78 168.64,-85.03"/>
</g>
<!-- Node7 -->
<g id="node7" class="node">
<title>Node7</title>
<g id="a_node7"><a xlink:title=" ">
<polygon fill="none" stroke="#bfbfbf" points="244,-56.5 244,-75.5 303,-75.5 303,-56.5 244,-56.5"/>
<text text-anchor="middle" x="273.5" y="-63.5" font-family="Helvetica,sans-Serif" font-size="10.00">curl/curl.h</text>
</a>
</g>
</g>
<!-- Node1&#45;&gt;Node7 -->
<g id="edge6" class="edge">
<title>Node1&#45;&gt;Node7</title>
<path fill="none" stroke="midnightblue" d="M299.31,-280.37C305.99,-270.71 313.96,-257.29 317.5,-244 319.79,-235.41 318.71,-232.81 317.5,-224 310.42,-172.53 290.87,-114.15 280.38,-85.24"/>
<polygon fill="midnightblue" stroke="midnightblue" points="283.59,-83.84 276.84,-75.67 277.03,-86.27 283.59,-83.84"/>
</g>
<!-- Node8 -->
<g id="node8" class="node">
<title>Node8</title>
<g id="a_node8"><a xlink:href="log_8h.html" target="_top" xlink:title=" ">
<polygon fill="none" stroke="black" points="88,-56.5 88,-75.5 125,-75.5 125,-56.5 88,-56.5"/>
<text text-anchor="middle" x="106.5" y="-63.5" font-family="Helvetica,sans-Serif" font-size="10.00">log.h</text>
</a>
</g>
</g>
<!-- Node1&#45;&gt;Node8 -->
<g id="edge7" class="edge">
<title>Node1&#45;&gt;Node8</title>
<path fill="none" stroke="midnightblue" d="M234.81,-288.58C181.04,-281.42 103.73,-267.32 85.5,-244 48.54,-196.72 79.63,-119.49 96.88,-84.83"/>
<polygon fill="midnightblue" stroke="midnightblue" points="100.21,-86.01 101.7,-75.52 93.99,-82.79 100.21,-86.01"/>
</g>
<!-- Node12 -->
<g id="node12" class="node">
<title>Node12</title>
<g id="a_node12"><a xlink:href="_willy_weather_2authenticate_8h.html" target="_top" xlink:title=" ">
<polygon fill="none" stroke="black" points="172,-224.5 172,-243.5 309,-243.5 309,-224.5 172,-224.5"/>
<text text-anchor="middle" x="240.5" y="-231.5" font-family="Helvetica,sans-Serif" font-size="10.00">WillyWeather/authenticate.h</text>
</a>
</g>
</g>
<!-- Node1&#45;&gt;Node12 -->
<g id="edge12" class="edge">
<title>Node1&#45;&gt;Node12</title>
<path fill="none" stroke="midnightblue" d="M277.12,-280.4C270.15,-271.75 261.19,-260.64 253.87,-251.58"/>
<polygon fill="midnightblue" stroke="midnightblue" points="256.49,-249.24 247.48,-243.66 251.04,-253.64 256.49,-249.24"/>
</g>
<!-- Node13 -->
<g id="node13" class="node">
<title>Node13</title>
<g id="a_node13"><a xlink:href="http_8h.html" target="_top" xlink:title=" ">
<polygon fill="none" stroke="black" points="355,-168.5 355,-187.5 396,-187.5 396,-168.5 355,-168.5"/>
<text text-anchor="middle" x="375.5" y="-175.5" font-family="Helvetica,sans-Serif" font-size="10.00">http.h</text>
</a>
</g>
</g>
<!-- Node1&#45;&gt;Node13 -->
<g id="edge32" class="edge">
<title>Node1&#45;&gt;Node13</title>
<path fill="none" stroke="midnightblue" d="M311.83,-280.38C325.01,-271.38 340.93,-258.67 351.5,-244 361.6,-229.98 367.92,-211.24 371.52,-197.48"/>
<polygon fill="midnightblue" stroke="midnightblue" points="374.94,-198.24 373.85,-187.7 368.13,-196.62 374.94,-198.24"/>
</g>
<!-- Node14 -->
<g id="node14" class="node">
<title>Node14</title>
<g id="a_node14"><a xlink:href="utils_8h.html" target="_top" xlink:title=" ">
<polygon fill="none" stroke="black" points="449.5,-112.5 449.5,-131.5 491.5,-131.5 491.5,-112.5 449.5,-112.5"/>
<text text-anchor="middle" x="470.5" y="-119.5" font-family="Helvetica,sans-Serif" font-size="10.00">utils.h</text>
</a>
</g>
</g>
<!-- Node1&#45;&gt;Node14 -->
<g id="edge33" class="edge">
<title>Node1&#45;&gt;Node14</title>
<path fill="none" stroke="midnightblue" d="M342.45,-287.35C392.02,-279.55 460.2,-265.25 476.5,-244 499.35,-214.21 487.42,-167.13 478.1,-141.36"/>
<polygon fill="midnightblue" stroke="midnightblue" points="481.25,-139.8 474.37,-131.73 474.72,-142.32 481.25,-139.8"/>
</g>
<!-- Node8&#45;&gt;Node4 -->
<g id="edge8" class="edge">
<title>Node8&#45;&gt;Node4</title>
<path fill="none" stroke="midnightblue" d="M93,-56.32C79.9,-47.9 59.79,-34.97 44.39,-25.07"/>
<polygon fill="midnightblue" stroke="midnightblue" points="46.27,-22.12 35.96,-19.65 42.48,-28.01 46.27,-22.12"/>
</g>
<!-- Node9 -->
<g id="node9" class="node">
<title>Node9</title>
<g id="a_node9"><a xlink:title=" ">
<polygon fill="none" stroke="#bfbfbf" points="124,-0.5 124,-19.5 175,-19.5 175,-0.5 124,-0.5"/>
<text text-anchor="middle" x="149.5" y="-7.5" font-family="Helvetica,sans-Serif" font-size="10.00">stdarg.h</text>
</a>
</g>
</g>
<!-- Node8&#45;&gt;Node9 -->
<g id="edge9" class="edge">
<title>Node8&#45;&gt;Node9</title>
<path fill="none" stroke="midnightblue" d="M113.6,-56.08C119.74,-48.38 128.77,-37.03 136.24,-27.65"/>
<polygon fill="midnightblue" stroke="midnightblue" points="139.04,-29.75 142.53,-19.75 133.56,-25.39 139.04,-29.75"/>
</g>
<!-- Node10 -->
<g id="node10" class="node">
<title>Node10</title>
<g id="a_node10"><a xlink:title=" ">
<polygon fill="none" stroke="#bfbfbf" points="193.5,-0.5 193.5,-19.5 249.5,-19.5 249.5,-0.5 193.5,-0.5"/>
<text text-anchor="middle" x="221.5" y="-7.5" font-family="Helvetica,sans-Serif" font-size="10.00">stdbool.h</text>
</a>
</g>
</g>
<!-- Node8&#45;&gt;Node10 -->
<g id="edge10" class="edge">
<title>Node8&#45;&gt;Node10</title>
<path fill="none" stroke="midnightblue" d="M124.72,-56.44C143.4,-47.68 172.66,-33.94 194.12,-23.86"/>
<polygon fill="midnightblue" stroke="midnightblue" points="195.8,-26.93 203.36,-19.52 192.82,-20.6 195.8,-26.93"/>
</g>
<!-- Node11 -->
<g id="node11" class="node">
<title>Node11</title>
<g id="a_node11"><a xlink:title=" ">
<polygon fill="none" stroke="#bfbfbf" points="63,-0.5 63,-19.5 106,-19.5 106,-0.5 63,-0.5"/>
<text text-anchor="middle" x="84.5" y="-7.5" font-family="Helvetica,sans-Serif" font-size="10.00">time.h</text>
</a>
</g>
</g>
<!-- Node8&#45;&gt;Node11 -->
<g id="edge11" class="edge">
<title>Node8&#45;&gt;Node11</title>
<path fill="none" stroke="midnightblue" d="M102.87,-56.08C99.89,-48.77 95.57,-38.18 91.88,-29.1"/>
<polygon fill="midnightblue" stroke="midnightblue" points="95.08,-27.69 88.07,-19.75 88.6,-30.33 95.08,-27.69"/>
</g>
<!-- Node12&#45;&gt;Node2 -->
<g id="edge13" class="edge">
<title>Node12&#45;&gt;Node2</title>
<path fill="none" stroke="midnightblue" d="M246.15,-224.08C262.89,-197.61 312.48,-119.21 334.61,-84.21"/>
<polygon fill="midnightblue" stroke="midnightblue" points="337.69,-85.89 340.08,-75.57 331.78,-82.15 337.69,-85.89"/>
</g>
<!-- Node12&#45;&gt;Node3 -->
<g id="edge14" class="edge">
<title>Node12&#45;&gt;Node3</title>
<path fill="none" stroke="midnightblue" d="M277.43,-224.46C310.98,-216.32 361.61,-203.11 404.5,-188 463.45,-167.23 478.24,-161.21 533.5,-132 563,-116.4 595.28,-95.33 615.69,-81.46"/>
<polygon fill="midnightblue" stroke="midnightblue" points="617.91,-84.19 624.19,-75.65 613.96,-78.41 617.91,-84.19"/>
</g>
<!-- Node12&#45;&gt;Node4 -->
<g id="edge15" class="edge">
<title>Node12&#45;&gt;Node4</title>
<path fill="none" stroke="midnightblue" d="M229.68,-224.32C218.79,-215.47 201.61,-201.19 187.5,-188 136.75,-140.58 125.41,-127.22 78.5,-76 63.65,-59.78 47.3,-40.65 36.12,-27.36"/>
<polygon fill="midnightblue" stroke="midnightblue" points="38.69,-24.98 29.59,-19.56 33.32,-29.47 38.69,-24.98"/>
</g>
<!-- Node12&#45;&gt;Node6 -->
<g id="edge16" class="edge">
<title>Node12&#45;&gt;Node6</title>
<path fill="none" stroke="midnightblue" d="M237.49,-224.08C228.64,-197.83 202.56,-120.55 190.61,-85.12"/>
<polygon fill="midnightblue" stroke="midnightblue" points="193.9,-83.92 187.39,-75.57 187.27,-86.16 193.9,-83.92"/>
</g>
<!-- Node12&#45;&gt;Node7 -->
<g id="edge17" class="edge">
<title>Node12&#45;&gt;Node7</title>
<path fill="none" stroke="midnightblue" d="M240.81,-224.35C241.7,-204.3 244.89,-153.2 255.5,-112 257.86,-102.83 261.62,-93.03 265.1,-84.93"/>
<polygon fill="midnightblue" stroke="midnightblue" points="268.32,-86.29 269.22,-75.74 261.93,-83.43 268.32,-86.29"/>
</g>
<!-- Node12&#45;&gt;Node8 -->
<g id="edge18" class="edge">
<title>Node12&#45;&gt;Node8</title>
<path fill="none" stroke="midnightblue" d="M233.3,-224.08C211.84,-197.49 148.1,-118.54 120.03,-83.76"/>
<polygon fill="midnightblue" stroke="midnightblue" points="122.42,-81.15 113.42,-75.57 116.97,-85.55 122.42,-81.15"/>
</g>
<!-- Node12&#45;&gt;Node13 -->
<g id="edge19" class="edge">
<title>Node12&#45;&gt;Node13</title>
<path fill="none" stroke="midnightblue" d="M261.89,-224.44C284.34,-215.46 319.82,-201.27 345.15,-191.14"/>
<polygon fill="midnightblue" stroke="midnightblue" points="346.67,-194.3 354.65,-187.34 344.07,-187.8 346.67,-194.3"/>
</g>
<!-- Node13&#45;&gt;Node2 -->
<g id="edge21" class="edge">
<title>Node13&#45;&gt;Node2</title>
<path fill="none" stroke="midnightblue" d="M373.49,-168.12C370.62,-155.57 365.05,-131.93 359.5,-112 357.03,-103.12 354.02,-93.34 351.43,-85.18"/>
<polygon fill="midnightblue" stroke="midnightblue" points="354.74,-84.03 348.34,-75.58 348.07,-86.17 354.74,-84.03"/>
</g>
<!-- Node13&#45;&gt;Node3 -->
<g id="edge20" class="edge">
<title>Node13&#45;&gt;Node3</title>
<path fill="none" stroke="midnightblue" d="M396.09,-170.29C421.07,-162 464.32,-147.11 500.5,-132 511.28,-127.5 573.18,-97.66 609.64,-80.01"/>
<polygon fill="midnightblue" stroke="midnightblue" points="611.28,-83.11 618.76,-75.6 608.23,-76.81 611.28,-83.11"/>
</g>
<!-- Node13&#45;&gt;Node7 -->
<g id="edge22" class="edge">
<title>Node13&#45;&gt;Node7</title>
<path fill="none" stroke="midnightblue" d="M367.5,-168.37C350.44,-149.97 310.29,-106.67 288.38,-83.05"/>
<polygon fill="midnightblue" stroke="midnightblue" points="290.83,-80.54 281.47,-75.59 285.7,-85.3 290.83,-80.54"/>
</g>
<!-- Node13&#45;&gt;Node14 -->
<g id="edge23" class="edge">
<title>Node13&#45;&gt;Node14</title>
<path fill="none" stroke="midnightblue" d="M390.76,-168.32C405.72,-159.82 428.75,-146.73 446.23,-136.8"/>
<polygon fill="midnightblue" stroke="midnightblue" points="448.31,-139.64 455.27,-131.65 444.85,-133.55 448.31,-139.64"/>
</g>
<!-- Node14&#45;&gt;Node2 -->
<g id="edge25" class="edge">
<title>Node14&#45;&gt;Node2</title>
<path fill="none" stroke="midnightblue" d="M450.69,-112.44C430.21,-103.6 398.02,-89.69 374.64,-79.59"/>
<polygon fill="midnightblue" stroke="midnightblue" points="375.78,-76.27 365.21,-75.52 373.01,-82.7 375.78,-76.27"/>
</g>
<!-- Node14&#45;&gt;Node3 -->
<g id="edge24" class="edge">
<title>Node14&#45;&gt;Node3</title>
<path fill="none" stroke="midnightblue" d="M491.52,-114.16C519.67,-105 569.91,-88.66 603.22,-77.83"/>
<polygon fill="midnightblue" stroke="midnightblue" points="604.55,-81.07 612.98,-74.65 602.38,-74.42 604.55,-81.07"/>
</g>
<!-- Node14&#45;&gt;Node6 -->
<g id="edge27" class="edge">
<title>Node14&#45;&gt;Node6</title>
<path fill="none" stroke="midnightblue" d="M449.47,-117.03C404.84,-108.6 299.53,-88.72 235.93,-76.71"/>
<polygon fill="midnightblue" stroke="midnightblue" points="236.57,-73.27 226.09,-74.85 235.27,-80.15 236.57,-73.27"/>
</g>
<!-- Node14&#45;&gt;Node7 -->
<g id="edge26" class="edge">
<title>Node14&#45;&gt;Node7</title>
<path fill="none" stroke="midnightblue" d="M449.42,-115.22C416.86,-106.3 353.84,-89.02 312.73,-77.75"/>
<polygon fill="midnightblue" stroke="midnightblue" points="313.61,-74.37 303.04,-75.1 311.76,-81.12 313.61,-74.37"/>
</g>
<!-- Node14&#45;&gt;Node8 -->
<g id="edge31" class="edge">
<title>Node14&#45;&gt;Node8</title>
<path fill="none" stroke="midnightblue" d="M449.35,-119.57C397.28,-115.76 258.68,-103.85 135.25,-76.05"/>
<polygon fill="midnightblue" stroke="midnightblue" points="135.78,-72.58 125.25,-73.75 134.22,-79.4 135.78,-72.58"/>
</g>
<!-- Node15 -->
<g id="node15" class="node">
<title>Node15</title>
<g id="a_node15"><a xlink:title=" ">
<polygon fill="none" stroke="#bfbfbf" points="388,-56.5 388,-75.5 447,-75.5 447,-56.5 388,-56.5"/>
<text text-anchor="middle" x="417.5" y="-63.5" font-family="Helvetica,sans-Serif" font-size="10.00">sys/stat.h</text>
</a>
</g>
</g>
<!-- Node14&#45;&gt;Node15 -->
<g id="edge28" class="edge">
<title>Node14&#45;&gt;Node15</title>
<path fill="none" stroke="midnightblue" d="M461.75,-112.08C454.03,-104.22 442.6,-92.57 433.28,-83.08"/>
<polygon fill="midnightblue" stroke="midnightblue" points="435.59,-80.44 426.09,-75.75 430.6,-85.34 435.59,-80.44"/>
</g>
<!-- Node16 -->
<g id="node16" class="node">
<title>Node16</title>
<g id="a_node16"><a xlink:title=" ">
<polygon fill="none" stroke="#bfbfbf" points="465,-56.5 465,-75.5 530,-75.5 530,-56.5 465,-56.5"/>
<text text-anchor="middle" x="497.5" y="-63.5" font-family="Helvetica,sans-Serif" font-size="10.00">sys/types.h</text>
</a>
</g>
</g>
<!-- Node14&#45;&gt;Node16 -->
<g id="edge29" class="edge">
<title>Node14&#45;&gt;Node16</title>
<path fill="none" stroke="midnightblue" d="M474.96,-112.08C478.65,-104.69 484.02,-93.95 488.59,-84.81"/>
<polygon fill="midnightblue" stroke="midnightblue" points="491.78,-86.26 493.12,-75.75 485.52,-83.13 491.78,-86.26"/>
</g>
<!-- Node17 -->
<g id="node17" class="node">
<title>Node17</title>
<g id="a_node17"><a xlink:title=" ">
<polygon fill="none" stroke="#bfbfbf" points="548.5,-56.5 548.5,-75.5 594.5,-75.5 594.5,-56.5 548.5,-56.5"/>
<text text-anchor="middle" x="571.5" y="-63.5" font-family="Helvetica,sans-Serif" font-size="10.00">errno.h</text>
</a>
</g>
</g>
<!-- Node14&#45;&gt;Node17 -->
<g id="edge30" class="edge">
<title>Node14&#45;&gt;Node17</title>
<path fill="none" stroke="midnightblue" d="M486.73,-112.32C502.85,-103.7 527.8,-90.36 546.46,-80.39"/>
<polygon fill="midnightblue" stroke="midnightblue" points="548.14,-83.46 555.31,-75.65 544.84,-77.28 548.14,-83.46"/>
</g>
</g>
</svg>
