<?xml version="1.0" encoding="UTF-8" standalone="no"?>
<!DOCTYPE svg PUBLIC "-//W3C//DTD SVG 1.1//EN"
 "http://www.w3.org/Graphics/SVG/1.1/DTD/svg11.dtd">
<!-- Generated by graphviz version 2.49.3 (20211027.1534)
 -->
<!-- Title: include/WillyWeather/location.h Pages: 1 -->
<svg width="1036pt" height="296pt"
 viewBox="0.00 0.00 1036.00 296.00" xmlns="http://www.w3.org/2000/svg" xmlns:xlink="http://www.w3.org/1999/xlink">
<g id="graph0" class="graph" transform="scale(1 1) rotate(0) translate(4 292)">
<title>include/WillyWeather/location.h</title>
<!-- Node1 -->
<g id="node1" class="node">
<title>Node1</title>
<g id="a_node1"><a xlink:title=" ">
<polygon fill="#bfbfbf" stroke="black" points="611.5,-257.5 611.5,-287.5 718.5,-287.5 718.5,-257.5 611.5,-257.5"/>
<text text-anchor="start" x="619.5" y="-275.5" font-family="Helvetica,sans-Serif" font-size="10.00">include/WillyWeather</text>
<text text-anchor="middle" x="665" y="-264.5" font-family="Helvetica,sans-Serif" font-size="10.00">/location.h</text>
</a>
</g>
</g>
<!-- Node2 -->
<g id="node2" class="node">
<title>Node2</title>
<g id="a_node2"><a xlink:href="harvest__areas_8h.html" target="_top" xlink:title=" ">
<polygon fill="none" stroke="black" points="9,-123.5 9,-153.5 119,-153.5 119,-123.5 9,-123.5"/>
<text text-anchor="start" x="17" y="-141.5" font-family="Helvetica,sans-Serif" font-size="10.00">include/FoodAuthority</text>
<text text-anchor="middle" x="64" y="-130.5" font-family="Helvetica,sans-Serif" font-size="10.00">/harvest_areas.h</text>
</a>
</g>
</g>
<!-- Node1&#45;&gt;Node2 -->
<g id="edge1" class="edge">
<title>Node1&#45;&gt;Node2</title>
<path fill="none" stroke="midnightblue" d="M601.19,-263.95C535.9,-255.66 431.72,-240.83 343,-221 257.8,-201.96 160.34,-171.43 106.1,-153.64"/>
<polygon fill="midnightblue" stroke="midnightblue" points="600.97,-267.45 611.33,-265.23 601.85,-260.51 600.97,-267.45"/>
</g>
<!-- Node6 -->
<g id="node6" class="node">
<title>Node6</title>
<g id="a_node6"><a xlink:href="precipitation_8h.html" target="_top" xlink:title=" ">
<polygon fill="none" stroke="black" points="611.5,-190.5 611.5,-220.5 718.5,-220.5 718.5,-190.5 611.5,-190.5"/>
<text text-anchor="start" x="619.5" y="-208.5" font-family="Helvetica,sans-Serif" font-size="10.00">include/WillyWeather</text>
<text text-anchor="middle" x="665" y="-197.5" font-family="Helvetica,sans-Serif" font-size="10.00">/precipitation.h</text>
</a>
</g>
</g>
<!-- Node1&#45;&gt;Node6 -->
<g id="edge5" class="edge">
<title>Node1&#45;&gt;Node6</title>
<path fill="none" stroke="midnightblue" d="M665,-247.11C665,-238.15 665,-228.32 665,-220.58"/>
<polygon fill="midnightblue" stroke="midnightblue" points="661.5,-247.4 665,-257.4 668.5,-247.4 661.5,-247.4"/>
</g>
<!-- Node8 -->
<g id="node8" class="node">
<title>Node8</title>
<g id="a_node8"><a xlink:href="tide_8h.html" target="_top" xlink:title=" ">
<polygon fill="none" stroke="black" points="768.5,-190.5 768.5,-220.5 875.5,-220.5 875.5,-190.5 768.5,-190.5"/>
<text text-anchor="start" x="776.5" y="-208.5" font-family="Helvetica,sans-Serif" font-size="10.00">include/WillyWeather</text>
<text text-anchor="middle" x="822" y="-197.5" font-family="Helvetica,sans-Serif" font-size="10.00">/tide.h</text>
</a>
</g>
</g>
<!-- Node1&#45;&gt;Node8 -->
<g id="edge8" class="edge">
<title>Node1&#45;&gt;Node8</title>
<path fill="none" stroke="midnightblue" d="M708.37,-253.54C733.49,-243.14 764.66,-230.24 788,-220.58"/>
<polygon fill="midnightblue" stroke="midnightblue" points="706.97,-250.34 699.07,-257.4 709.64,-256.8 706.97,-250.34"/>
</g>
<!-- Node10 -->
<g id="node10" class="node">
<title>Node10</title>
<g id="a_node10"><a xlink:href="transform_8h.html" target="_top" xlink:title=" ">
<polygon fill="none" stroke="black" points="351.5,-196 351.5,-215 450.5,-215 450.5,-196 351.5,-196"/>
<text text-anchor="middle" x="401" y="-203" font-family="Helvetica,sans-Serif" font-size="10.00">include/transform.h</text>
</a>
</g>
</g>
<!-- Node1&#45;&gt;Node10 -->
<g id="edge11" class="edge">
<title>Node1&#45;&gt;Node10</title>
<path fill="none" stroke="midnightblue" d="M601.46,-255.85C549.44,-243.05 477.8,-225.41 435.75,-215.06"/>
<polygon fill="midnightblue" stroke="midnightblue" points="600.71,-259.28 611.26,-258.27 602.38,-252.48 600.71,-259.28"/>
</g>
<!-- Node16 -->
<g id="node16" class="node">
<title>Node16</title>
<g id="a_node16"><a xlink:href="location_8c.html" target="_top" xlink:title=" ">
<polygon fill="none" stroke="black" points="894,-196 894,-215 1028,-215 1028,-196 894,-196"/>
<text text-anchor="middle" x="961" y="-203" font-family="Helvetica,sans-Serif" font-size="10.00">src/WillyWeather/location.c</text>
</a>
</g>
</g>
<!-- Node1&#45;&gt;Node16 -->
<g id="edge21" class="edge">
<title>Node1&#45;&gt;Node16</title>
<path fill="none" stroke="midnightblue" d="M728.52,-257.55C787.25,-244.65 872.68,-225.9 921.96,-215.07"/>
<polygon fill="midnightblue" stroke="midnightblue" points="727.62,-254.17 718.6,-259.73 729.12,-261 727.62,-254.17"/>
</g>
<!-- Node3 -->
<g id="node3" class="node">
<title>Node3</title>
<g id="a_node3"><a xlink:href="main_8h.html" target="_top" xlink:title=" ">
<polygon fill="none" stroke="black" points="505.5,-62 505.5,-81 584.5,-81 584.5,-62 505.5,-62"/>
<text text-anchor="middle" x="545" y="-69" font-family="Helvetica,sans-Serif" font-size="10.00">include/main.h</text>
</a>
</g>
</g>
<!-- Node2&#45;&gt;Node3 -->
<g id="edge2" class="edge">
<title>Node2&#45;&gt;Node3</title>
<path fill="none" stroke="midnightblue" d="M128.98,-122.99C292.46,-97.59 338.51,-118.35 497,-87 504.51,-85.51 512.54,-83.34 519.83,-81.12"/>
<polygon fill="midnightblue" stroke="midnightblue" points="128.4,-119.54 119.07,-124.56 129.5,-126.45 128.4,-119.54"/>
</g>
<!-- Node5 -->
<g id="node5" class="node">
<title>Node5</title>
<g id="a_node5"><a xlink:href="harvest__areas_8c.html" target="_top" xlink:title=" ">
<polygon fill="none" stroke="black" points="0,-56.5 0,-86.5 128,-86.5 128,-56.5 0,-56.5"/>
<text text-anchor="start" x="8" y="-74.5" font-family="Helvetica,sans-Serif" font-size="10.00">src/FoodAuthority/harvest</text>
<text text-anchor="middle" x="64" y="-63.5" font-family="Helvetica,sans-Serif" font-size="10.00">_areas.c</text>
</a>
</g>
</g>
<!-- Node2&#45;&gt;Node5 -->
<g id="edge4" class="edge">
<title>Node2&#45;&gt;Node5</title>
<path fill="none" stroke="midnightblue" d="M64,-113.11C64,-104.15 64,-94.32 64,-86.58"/>
<polygon fill="midnightblue" stroke="midnightblue" points="60.5,-113.4 64,-123.4 67.5,-113.4 60.5,-113.4"/>
</g>
<!-- Node4 -->
<g id="node4" class="node">
<title>Node4</title>
<g id="a_node4"><a xlink:href="main_8c.html" target="_top" xlink:title=" ">
<polygon fill="none" stroke="black" points="514,-0.5 514,-19.5 576,-19.5 576,-0.5 514,-0.5"/>
<text text-anchor="middle" x="545" y="-7.5" font-family="Helvetica,sans-Serif" font-size="10.00">src/main.c</text>
</a>
</g>
</g>
<!-- Node3&#45;&gt;Node4 -->
<g id="edge3" class="edge">
<title>Node3&#45;&gt;Node4</title>
<path fill="none" stroke="midnightblue" d="M545,-51.82C545,-41 545,-27.9 545,-19.51"/>
<polygon fill="midnightblue" stroke="midnightblue" points="541.5,-51.98 545,-61.98 548.5,-51.98 541.5,-51.98"/>
</g>
<!-- Node6&#45;&gt;Node3 -->
<g id="edge6" class="edge">
<title>Node6&#45;&gt;Node3</title>
<path fill="none" stroke="midnightblue" d="M700.16,-185C724.87,-168.76 750.77,-144.83 734,-123 715.95,-99.5 634.69,-84.57 584.78,-77.45"/>
<polygon fill="midnightblue" stroke="midnightblue" points="698.15,-182.13 691.54,-190.41 701.87,-188.06 698.15,-182.13"/>
</g>
<!-- Node7 -->
<g id="node7" class="node">
<title>Node7</title>
<g id="a_node7"><a xlink:href="precipitation_8c.html" target="_top" xlink:title=" ">
<polygon fill="none" stroke="black" points="573,-129 573,-148 725,-148 725,-129 573,-129"/>
<text text-anchor="middle" x="649" y="-136" font-family="Helvetica,sans-Serif" font-size="10.00">src/WillyWeather/precipitation.c</text>
</a>
</g>
</g>
<!-- Node6&#45;&gt;Node7 -->
<g id="edge7" class="edge">
<title>Node6&#45;&gt;Node7</title>
<path fill="none" stroke="midnightblue" d="M659.12,-180.6C656.33,-169.28 653.18,-156.46 651.14,-148.19"/>
<polygon fill="midnightblue" stroke="midnightblue" points="655.74,-181.52 661.53,-190.4 662.54,-179.85 655.74,-181.52"/>
</g>
<!-- Node8&#45;&gt;Node3 -->
<g id="edge9" class="edge">
<title>Node8&#45;&gt;Node3</title>
<path fill="none" stroke="midnightblue" d="M864.12,-185.69C894.12,-169.73 925.88,-145.86 906,-123 864.67,-75.49 669.46,-71.33 584.57,-71.83"/>
<polygon fill="midnightblue" stroke="midnightblue" points="862.25,-182.71 854.93,-190.37 865.43,-188.95 862.25,-182.71"/>
</g>
<!-- Node9 -->
<g id="node9" class="node">
<title>Node9</title>
<g id="a_node9"><a xlink:href="tide_8c.html" target="_top" xlink:title=" ">
<polygon fill="none" stroke="black" points="781,-129 781,-148 897,-148 897,-129 781,-129"/>
<text text-anchor="middle" x="839" y="-136" font-family="Helvetica,sans-Serif" font-size="10.00">src/WillyWeather/tide.c</text>
</a>
</g>
</g>
<!-- Node8&#45;&gt;Node9 -->
<g id="edge10" class="edge">
<title>Node8&#45;&gt;Node9</title>
<path fill="none" stroke="midnightblue" d="M828.25,-180.6C831.21,-169.28 834.56,-156.46 836.73,-148.19"/>
<polygon fill="midnightblue" stroke="midnightblue" points="824.83,-179.84 825.69,-190.4 831.61,-181.61 824.83,-179.84"/>
</g>
<!-- Node10&#45;&gt;Node2 -->
<g id="edge15" class="edge">
<title>Node10&#45;&gt;Node2</title>
<path fill="none" stroke="midnightblue" d="M341.58,-194.21C286.18,-184.46 201.33,-169.08 128,-154 125.1,-153.4 122.13,-152.78 119.13,-152.14"/>
<polygon fill="midnightblue" stroke="midnightblue" points="341.11,-197.68 351.57,-195.97 342.32,-190.79 341.11,-197.68"/>
</g>
<!-- Node10&#45;&gt;Node3 -->
<g id="edge19" class="edge">
<title>Node10&#45;&gt;Node3</title>
<path fill="none" stroke="midnightblue" d="M459.78,-193.19C483.48,-185.8 509.15,-173.69 526,-154 544.14,-132.81 545.76,-97.56 545.43,-81.26"/>
<polygon fill="midnightblue" stroke="midnightblue" points="458.76,-189.85 450.13,-195.99 460.71,-196.57 458.76,-189.85"/>
</g>
<!-- Node11 -->
<g id="node11" class="node">
<title>Node11</title>
<g id="a_node11"><a xlink:href="historical__weather_8h.html" target="_top" xlink:title=" ">
<polygon fill="none" stroke="black" points="401.5,-123.5 401.5,-153.5 516.5,-153.5 516.5,-123.5 401.5,-123.5"/>
<text text-anchor="start" x="409.5" y="-141.5" font-family="Helvetica,sans-Serif" font-size="10.00">include/BOM/historical</text>
<text text-anchor="middle" x="459" y="-130.5" font-family="Helvetica,sans-Serif" font-size="10.00">_weather.h</text>
</a>
</g>
</g>
<!-- Node10&#45;&gt;Node11 -->
<g id="edge12" class="edge">
<title>Node10&#45;&gt;Node11</title>
<path fill="none" stroke="midnightblue" d="M415.73,-187.99C425.21,-177.36 437.4,-163.7 446.43,-153.59"/>
<polygon fill="midnightblue" stroke="midnightblue" points="412.87,-185.94 408.82,-195.73 418.09,-190.6 412.87,-185.94"/>
</g>
<!-- Node13 -->
<g id="node13" class="node">
<title>Node13</title>
<g id="a_node13"><a xlink:href="timeseries_8h.html" target="_top" xlink:title=" ">
<polygon fill="none" stroke="black" points="137.5,-129 137.5,-148 282.5,-148 282.5,-129 137.5,-129"/>
<text text-anchor="middle" x="210" y="-136" font-family="Helvetica,sans-Serif" font-size="10.00">include/IBM_EIS/timeseries.h</text>
</a>
</g>
</g>
<!-- Node10&#45;&gt;Node13 -->
<g id="edge16" class="edge">
<title>Node10&#45;&gt;Node13</title>
<path fill="none" stroke="midnightblue" d="M366.04,-192.6C328.17,-179.71 268.69,-159.47 235.16,-148.06"/>
<polygon fill="midnightblue" stroke="midnightblue" points="365.04,-195.96 375.64,-195.87 367.3,-189.33 365.04,-195.96"/>
</g>
<!-- Node15 -->
<g id="node15" class="node">
<title>Node15</title>
<g id="a_node15"><a xlink:href="transform_8c.html" target="_top" xlink:title=" ">
<polygon fill="none" stroke="black" points="301,-129 301,-148 383,-148 383,-129 301,-129"/>
<text text-anchor="middle" x="342" y="-136" font-family="Helvetica,sans-Serif" font-size="10.00">src/transform.c</text>
</a>
</g>
</g>
<!-- Node10&#45;&gt;Node15 -->
<g id="edge20" class="edge">
<title>Node10&#45;&gt;Node15</title>
<path fill="none" stroke="midnightblue" d="M386.15,-188.13C374.61,-175.42 359.06,-158.3 349.83,-148.13"/>
<polygon fill="midnightblue" stroke="midnightblue" points="383.73,-190.68 393.04,-195.73 388.91,-185.98 383.73,-190.68"/>
</g>
<!-- Node11&#45;&gt;Node3 -->
<g id="edge13" class="edge">
<title>Node11&#45;&gt;Node3</title>
<path fill="none" stroke="midnightblue" d="M485.67,-117.34C501.72,-105.21 521.33,-90.39 533.5,-81.19"/>
<polygon fill="midnightblue" stroke="midnightblue" points="483.53,-114.57 477.66,-123.4 487.75,-120.16 483.53,-114.57"/>
</g>
<!-- Node12 -->
<g id="node12" class="node">
<title>Node12</title>
<g id="a_node12"><a xlink:href="historical__weather_8c.html" target="_top" xlink:title=" ">
<polygon fill="none" stroke="black" points="390,-56.5 390,-86.5 488,-86.5 488,-56.5 390,-56.5"/>
<text text-anchor="start" x="398" y="-74.5" font-family="Helvetica,sans-Serif" font-size="10.00">src/BOM/historical</text>
<text text-anchor="middle" x="439" y="-63.5" font-family="Helvetica,sans-Serif" font-size="10.00">_weather.c</text>
</a>
</g>
</g>
<!-- Node11&#45;&gt;Node12 -->
<g id="edge14" class="edge">
<title>Node11&#45;&gt;Node12</title>
<path fill="none" stroke="midnightblue" d="M451.68,-113.7C448.87,-104.59 445.77,-94.49 443.33,-86.58"/>
<polygon fill="midnightblue" stroke="midnightblue" points="448.37,-114.87 454.66,-123.4 455.06,-112.81 448.37,-114.87"/>
</g>
<!-- Node13&#45;&gt;Node3 -->
<g id="edge17" class="edge">
<title>Node13&#45;&gt;Node3</title>
<path fill="none" stroke="midnightblue" d="M268.17,-127.2C276.18,-125.79 284.29,-124.36 292,-123 383.1,-106.95 407.01,-108.41 497,-87 504.11,-85.31 511.73,-83.16 518.75,-81.05"/>
<polygon fill="midnightblue" stroke="midnightblue" points="267.37,-123.79 258.13,-128.98 268.58,-130.69 267.37,-123.79"/>
</g>
<!-- Node14 -->
<g id="node14" class="node">
<title>Node14</title>
<g id="a_node14"><a xlink:href="timeseries_8c.html" target="_top" xlink:title=" ">
<polygon fill="none" stroke="black" points="146,-62 146,-81 274,-81 274,-62 146,-62"/>
<text text-anchor="middle" x="210" y="-69" font-family="Helvetica,sans-Serif" font-size="10.00">src/IBM_EIS/timeseries.c</text>
</a>
</g>
</g>
<!-- Node13&#45;&gt;Node14 -->
<g id="edge18" class="edge">
<title>Node13&#45;&gt;Node14</title>
<path fill="none" stroke="midnightblue" d="M210,-118.54C210,-106.17 210,-90.62 210,-81.13"/>
<polygon fill="midnightblue" stroke="midnightblue" points="206.5,-118.73 210,-128.73 213.5,-118.73 206.5,-118.73"/>
</g>
</g>
</svg>
