<?xml version="1.0" encoding="UTF-8" standalone="no"?>
<!DOCTYPE svg PUBLIC "-//W3C//DTD SVG 1.1//EN"
 "http://www.w3.org/Graphics/SVG/1.1/DTD/svg11.dtd">
<!-- Generated by graphviz version 2.49.3 (20211027.1534)
 -->
<!-- Title: include/WillyWeather/location.h Pages: 1 -->
<svg width="869pt" height="296pt"
 viewBox="0.00 0.00 869.00 296.00" xmlns="http://www.w3.org/2000/svg" xmlns:xlink="http://www.w3.org/1999/xlink">
<g id="graph0" class="graph" transform="scale(1 1) rotate(0) translate(4 292)">
<title>include/WillyWeather/location.h</title>
<!-- Node1 -->
<g id="node1" class="node">
<title>Node1</title>
<g id="a_node1"><a xlink:title=" ">
<polygon fill="#bfbfbf" stroke="black" points="445.5,-257.5 445.5,-287.5 552.5,-287.5 552.5,-257.5 445.5,-257.5"/>
<text text-anchor="start" x="453.5" y="-275.5" font-family="Helvetica,sans-Serif" font-size="10.00">include/WillyWeather</text>
<text text-anchor="middle" x="499" y="-264.5" font-family="Helvetica,sans-Serif" font-size="10.00">/location.h</text>
</a>
</g>
</g>
<!-- Node2 -->
<g id="node2" class="node">
<title>Node2</title>
<g id="a_node2"><a xlink:href="harvest__areas_8h.html" target="_top" xlink:title=" ">
<polygon fill="none" stroke="black" points="9,-123.5 9,-153.5 119,-153.5 119,-123.5 9,-123.5"/>
<text text-anchor="start" x="17" y="-141.5" font-family="Helvetica,sans-Serif" font-size="10.00">include/FoodAuthority</text>
<text text-anchor="middle" x="64" y="-130.5" font-family="Helvetica,sans-Serif" font-size="10.00">/harvest_areas.h</text>
</a>
</g>
</g>
<!-- Node1&#45;&gt;Node2 -->
<g id="edge1" class="edge">
<title>Node1&#45;&gt;Node2</title>
<path fill="none" stroke="midnightblue" d="M435.27,-258.7C392.2,-249.52 334.24,-236.14 284,-221 216.92,-200.78 140.67,-170.94 97.85,-153.54"/>
<polygon fill="midnightblue" stroke="midnightblue" points="434.55,-262.13 445.06,-260.77 436,-255.28 434.55,-262.13"/>
</g>
<!-- Node6 -->
<g id="node6" class="node">
<title>Node6</title>
<g id="a_node6"><a xlink:href="precipitation_8h.html" target="_top" xlink:title=" ">
<polygon fill="none" stroke="black" points="601.5,-190.5 601.5,-220.5 708.5,-220.5 708.5,-190.5 601.5,-190.5"/>
<text text-anchor="start" x="609.5" y="-208.5" font-family="Helvetica,sans-Serif" font-size="10.00">include/WillyWeather</text>
<text text-anchor="middle" x="655" y="-197.5" font-family="Helvetica,sans-Serif" font-size="10.00">/precipitation.h</text>
</a>
</g>
</g>
<!-- Node1&#45;&gt;Node6 -->
<g id="edge5" class="edge">
<title>Node1&#45;&gt;Node6</title>
<path fill="none" stroke="midnightblue" d="M542.09,-253.54C567.06,-243.14 598.03,-230.24 621.22,-220.58"/>
<polygon fill="midnightblue" stroke="midnightblue" points="540.73,-250.32 532.85,-257.4 543.43,-256.78 540.73,-250.32"/>
</g>
<!-- Node8 -->
<g id="node8" class="node">
<title>Node8</title>
<g id="a_node8"><a xlink:href="tide_8h.html" target="_top" xlink:title=" ">
<polygon fill="none" stroke="black" points="445.5,-190.5 445.5,-220.5 552.5,-220.5 552.5,-190.5 445.5,-190.5"/>
<text text-anchor="start" x="453.5" y="-208.5" font-family="Helvetica,sans-Serif" font-size="10.00">include/WillyWeather</text>
<text text-anchor="middle" x="499" y="-197.5" font-family="Helvetica,sans-Serif" font-size="10.00">/tide.h</text>
</a>
</g>
</g>
<!-- Node1&#45;&gt;Node8 -->
<g id="edge8" class="edge">
<title>Node1&#45;&gt;Node8</title>
<path fill="none" stroke="midnightblue" d="M499,-247.11C499,-238.15 499,-228.32 499,-220.58"/>
<polygon fill="midnightblue" stroke="midnightblue" points="495.5,-247.4 499,-257.4 502.5,-247.4 495.5,-247.4"/>
</g>
<!-- Node10 -->
<g id="node10" class="node">
<title>Node10</title>
<g id="a_node10"><a xlink:href="transform_8h.html" target="_top" xlink:title=" ">
<polygon fill="none" stroke="black" points="292.5,-196 292.5,-215 391.5,-215 391.5,-196 292.5,-196"/>
<text text-anchor="middle" x="342" y="-203" font-family="Helvetica,sans-Serif" font-size="10.00">include/transform.h</text>
</a>
</g>
</g>
<!-- Node1&#45;&gt;Node10 -->
<g id="edge11" class="edge">
<title>Node1&#45;&gt;Node10</title>
<path fill="none" stroke="midnightblue" d="M455.42,-253.46C425.09,-240.9 386.02,-224.72 362.55,-215.01"/>
<polygon fill="midnightblue" stroke="midnightblue" points="454.36,-256.8 464.93,-257.4 457.03,-250.34 454.36,-256.8"/>
</g>
<!-- Node14 -->
<g id="node14" class="node">
<title>Node14</title>
<g id="a_node14"><a xlink:href="location_8c.html" target="_top" xlink:title=" ">
<polygon fill="none" stroke="black" points="727,-196 727,-215 861,-215 861,-196 727,-196"/>
<text text-anchor="middle" x="794" y="-203" font-family="Helvetica,sans-Serif" font-size="10.00">src/WillyWeather/location.c</text>
</a>
</g>
</g>
<!-- Node1&#45;&gt;Node14 -->
<g id="edge18" class="edge">
<title>Node1&#45;&gt;Node14</title>
<path fill="none" stroke="midnightblue" d="M562.65,-257.48C621.21,-244.57 706.18,-225.85 755.19,-215.05"/>
<polygon fill="midnightblue" stroke="midnightblue" points="561.78,-254.08 552.76,-259.65 563.28,-260.92 561.78,-254.08"/>
</g>
<!-- Node3 -->
<g id="node3" class="node">
<title>Node3</title>
<g id="a_node3"><a xlink:href="main_8h.html" target="_top" xlink:title=" ">
<polygon fill="none" stroke="black" points="371.5,-62 371.5,-81 450.5,-81 450.5,-62 371.5,-62"/>
<text text-anchor="middle" x="411" y="-69" font-family="Helvetica,sans-Serif" font-size="10.00">include/main.h</text>
</a>
</g>
</g>
<!-- Node2&#45;&gt;Node3 -->
<g id="edge2" class="edge">
<title>Node2&#45;&gt;Node3</title>
<path fill="none" stroke="midnightblue" d="M129.19,-122.81C221.44,-104.31 318.08,-87.82 371.05,-79.03"/>
<polygon fill="midnightblue" stroke="midnightblue" points="128.23,-119.43 119.12,-124.84 129.62,-126.3 128.23,-119.43"/>
</g>
<!-- Node5 -->
<g id="node5" class="node">
<title>Node5</title>
<g id="a_node5"><a xlink:href="harvest__areas_8c.html" target="_top" xlink:title=" ">
<polygon fill="none" stroke="black" points="0,-56.5 0,-86.5 128,-86.5 128,-56.5 0,-56.5"/>
<text text-anchor="start" x="8" y="-74.5" font-family="Helvetica,sans-Serif" font-size="10.00">src/FoodAuthority/harvest</text>
<text text-anchor="middle" x="64" y="-63.5" font-family="Helvetica,sans-Serif" font-size="10.00">_areas.c</text>
</a>
</g>
</g>
<!-- Node2&#45;&gt;Node5 -->
<g id="edge4" class="edge">
<title>Node2&#45;&gt;Node5</title>
<path fill="none" stroke="midnightblue" d="M64,-113.11C64,-104.15 64,-94.32 64,-86.58"/>
<polygon fill="midnightblue" stroke="midnightblue" points="60.5,-113.4 64,-123.4 67.5,-113.4 60.5,-113.4"/>
</g>
<!-- Node4 -->
<g id="node4" class="node">
<title>Node4</title>
<g id="a_node4"><a xlink:href="main_8c.html" target="_top" xlink:title=" ">
<polygon fill="none" stroke="black" points="380,-0.5 380,-19.5 442,-19.5 442,-0.5 380,-0.5"/>
<text text-anchor="middle" x="411" y="-7.5" font-family="Helvetica,sans-Serif" font-size="10.00">src/main.c</text>
</a>
</g>
</g>
<!-- Node3&#45;&gt;Node4 -->
<g id="edge3" class="edge">
<title>Node3&#45;&gt;Node4</title>
<path fill="none" stroke="midnightblue" d="M411,-51.82C411,-41 411,-27.9 411,-19.51"/>
<polygon fill="midnightblue" stroke="midnightblue" points="407.5,-51.98 411,-61.98 414.5,-51.98 407.5,-51.98"/>
</g>
<!-- Node6&#45;&gt;Node3 -->
<g id="edge6" class="edge">
<title>Node6&#45;&gt;Node3</title>
<path fill="none" stroke="midnightblue" d="M715.3,-187.06C754.96,-172.6 795.54,-150.06 772,-123 730.67,-75.49 535.46,-71.33 450.57,-71.83"/>
<polygon fill="midnightblue" stroke="midnightblue" points="714.09,-183.77 705.81,-190.38 716.4,-190.38 714.09,-183.77"/>
</g>
<!-- Node7 -->
<g id="node7" class="node">
<title>Node7</title>
<g id="a_node7"><a xlink:href="precipitation_8c.html" target="_top" xlink:title=" ">
<polygon fill="none" stroke="black" points="611,-129 611,-148 763,-148 763,-129 611,-129"/>
<text text-anchor="middle" x="687" y="-136" font-family="Helvetica,sans-Serif" font-size="10.00">src/WillyWeather/precipitation.c</text>
</a>
</g>
</g>
<!-- Node6&#45;&gt;Node7 -->
<g id="edge7" class="edge">
<title>Node6&#45;&gt;Node7</title>
<path fill="none" stroke="midnightblue" d="M666.43,-181.29C672.08,-169.8 678.57,-156.63 682.72,-148.19"/>
<polygon fill="midnightblue" stroke="midnightblue" points="663.22,-179.88 661.94,-190.4 669.5,-182.97 663.22,-179.88"/>
</g>
<!-- Node8&#45;&gt;Node3 -->
<g id="edge9" class="edge">
<title>Node8&#45;&gt;Node3</title>
<path fill="none" stroke="midnightblue" d="M483.92,-181.87C464.08,-152.12 430.17,-101.26 416.73,-81.1"/>
<polygon fill="midnightblue" stroke="midnightblue" points="481.12,-183.99 489.58,-190.37 486.95,-180.11 481.12,-183.99"/>
</g>
<!-- Node9 -->
<g id="node9" class="node">
<title>Node9</title>
<g id="a_node9"><a xlink:href="tide_8c.html" target="_top" xlink:title=" ">
<polygon fill="none" stroke="black" points="477,-129 477,-148 593,-148 593,-129 477,-129"/>
<text text-anchor="middle" x="535" y="-136" font-family="Helvetica,sans-Serif" font-size="10.00">src/WillyWeather/tide.c</text>
</a>
</g>
</g>
<!-- Node8&#45;&gt;Node9 -->
<g id="edge10" class="edge">
<title>Node8&#45;&gt;Node9</title>
<path fill="none" stroke="midnightblue" d="M511.67,-181.63C518.07,-170.07 525.47,-156.71 530.18,-148.19"/>
<polygon fill="midnightblue" stroke="midnightblue" points="508.59,-179.95 506.81,-190.4 514.72,-183.34 508.59,-179.95"/>
</g>
<!-- Node10&#45;&gt;Node2 -->
<g id="edge12" class="edge">
<title>Node10&#45;&gt;Node2</title>
<path fill="none" stroke="midnightblue" d="M295.44,-193.61C246.87,-182.26 170.74,-164.46 119.18,-152.4"/>
<polygon fill="midnightblue" stroke="midnightblue" points="294.84,-197.07 305.37,-195.94 296.43,-190.25 294.84,-197.07"/>
</g>
<!-- Node10&#45;&gt;Node3 -->
<g id="edge16" class="edge">
<title>Node10&#45;&gt;Node3</title>
<path fill="none" stroke="midnightblue" d="M361.71,-189.24C372.2,-180.1 384.47,-167.63 392,-154 405.35,-129.84 409.35,-96.65 410.52,-81.14"/>
<polygon fill="midnightblue" stroke="midnightblue" points="359.25,-186.73 353.79,-195.81 363.72,-192.12 359.25,-186.73"/>
</g>
<!-- Node11 -->
<g id="node11" class="node">
<title>Node11</title>
<g id="a_node11"><a xlink:href="timeseries_8h.html" target="_top" xlink:title=" ">
<polygon fill="none" stroke="black" points="137.5,-129 137.5,-148 282.5,-148 282.5,-129 137.5,-129"/>
<text text-anchor="middle" x="210" y="-136" font-family="Helvetica,sans-Serif" font-size="10.00">include/IBM_EIS/timeseries.h</text>
</a>
</g>
</g>
<!-- Node10&#45;&gt;Node11 -->
<g id="edge13" class="edge">
<title>Node10&#45;&gt;Node11</title>
<path fill="none" stroke="midnightblue" d="M315.49,-191.44C289.34,-178.57 250.12,-159.26 227.6,-148.17"/>
<polygon fill="midnightblue" stroke="midnightblue" points="313.95,-194.59 324.47,-195.87 317.05,-188.31 313.95,-194.59"/>
</g>
<!-- Node13 -->
<g id="node13" class="node">
<title>Node13</title>
<g id="a_node13"><a xlink:href="transform_8c.html" target="_top" xlink:title=" ">
<polygon fill="none" stroke="black" points="301,-129 301,-148 383,-148 383,-129 301,-129"/>
<text text-anchor="middle" x="342" y="-136" font-family="Helvetica,sans-Serif" font-size="10.00">src/transform.c</text>
</a>
</g>
</g>
<!-- Node10&#45;&gt;Node13 -->
<g id="edge17" class="edge">
<title>Node10&#45;&gt;Node13</title>
<path fill="none" stroke="midnightblue" d="M342,-185.54C342,-173.17 342,-157.62 342,-148.13"/>
<polygon fill="midnightblue" stroke="midnightblue" points="338.5,-185.73 342,-195.73 345.5,-185.73 338.5,-185.73"/>
</g>
<!-- Node11&#45;&gt;Node3 -->
<g id="edge14" class="edge">
<title>Node11&#45;&gt;Node3</title>
<path fill="none" stroke="midnightblue" d="M246.29,-125.77C286.11,-112.89 349.09,-92.52 384.52,-81.06"/>
<polygon fill="midnightblue" stroke="midnightblue" points="245.13,-122.46 236.69,-128.87 247.28,-129.12 245.13,-122.46"/>
</g>
<!-- Node12 -->
<g id="node12" class="node">
<title>Node12</title>
<g id="a_node12"><a xlink:href="timeseries_8c.html" target="_top" xlink:title=" ">
<polygon fill="none" stroke="black" points="146,-62 146,-81 274,-81 274,-62 146,-62"/>
<text text-anchor="middle" x="210" y="-69" font-family="Helvetica,sans-Serif" font-size="10.00">src/IBM_EIS/timeseries.c</text>
</a>
</g>
</g>
<!-- Node11&#45;&gt;Node12 -->
<g id="edge15" class="edge">
<title>Node11&#45;&gt;Node12</title>
<path fill="none" stroke="midnightblue" d="M210,-118.54C210,-106.17 210,-90.62 210,-81.13"/>
<polygon fill="midnightblue" stroke="midnightblue" points="206.5,-118.73 210,-128.73 213.5,-118.73 206.5,-118.73"/>
</g>
</g>
</svg>
