<?xml version="1.0" encoding="UTF-8" standalone="no"?>
<!DOCTYPE svg PUBLIC "-//W3C//DTD SVG 1.1//EN"
 "http://www.w3.org/Graphics/SVG/1.1/DTD/svg11.dtd">
<!-- Generated by graphviz version 2.49.3 (20211027.1534)
 -->
<!-- Title: src/WillyWeather/location.c Pages: 1 -->
<svg width="541pt" height="196pt"
 viewBox="0.00 0.00 541.00 196.00" xmlns="http://www.w3.org/2000/svg" xmlns:xlink="http://www.w3.org/1999/xlink">
<g id="graph0" class="graph" transform="scale(1 1) rotate(0) translate(4 192)">
<title>src/WillyWeather/location.c</title>
<!-- Node1 -->
<g id="node1" class="node">
<title>Node1</title>
<g id="a_node1"><a xlink:title=" ">
<polygon fill="#bfbfbf" stroke="black" points="179.5,-168.5 179.5,-187.5 313.5,-187.5 313.5,-168.5 179.5,-168.5"/>
<text text-anchor="middle" x="246.5" y="-175.5" font-family="Helvetica,sans-Serif" font-size="10.00">src/WillyWeather/location.c</text>
</a>
</g>
</g>
<!-- Node2 -->
<g id="node2" class="node">
<title>Node2</title>
<g id="a_node2"><a xlink:href="location_8h.html" target="_top" xlink:title=" ">
<polygon fill="none" stroke="black" points="188,-112.5 188,-131.5 305,-131.5 305,-112.5 188,-112.5"/>
<text text-anchor="middle" x="246.5" y="-119.5" font-family="Helvetica,sans-Serif" font-size="10.00">WillyWeather/location.h</text>
</a>
</g>
</g>
<!-- Node1&#45;&gt;Node2 -->
<g id="edge1" class="edge">
<title>Node1&#45;&gt;Node2</title>
<path fill="none" stroke="midnightblue" d="M246.5,-168.08C246.5,-161.01 246.5,-150.86 246.5,-141.99"/>
<polygon fill="midnightblue" stroke="midnightblue" points="250,-141.75 246.5,-131.75 243,-141.75 250,-141.75"/>
</g>
<!-- Node3 -->
<g id="node3" class="node">
<title>Node3</title>
<g id="a_node3"><a xlink:title=" ">
<polygon fill="none" stroke="#bfbfbf" points="65.5,-0.5 65.5,-19.5 113.5,-19.5 113.5,-0.5 65.5,-0.5"/>
<text text-anchor="middle" x="89.5" y="-7.5" font-family="Helvetica,sans-Serif" font-size="10.00">string.h</text>
</a>
</g>
</g>
<!-- Node2&#45;&gt;Node3 -->
<g id="edge2" class="edge">
<title>Node2&#45;&gt;Node3</title>
<path fill="none" stroke="midnightblue" d="M187.97,-113.78C142.55,-106.84 84.96,-94.62 70.5,-76 59.73,-62.14 67.99,-42.34 76.74,-28.24"/>
<polygon fill="midnightblue" stroke="midnightblue" points="79.66,-30.16 82.37,-19.92 73.86,-26.24 79.66,-30.16"/>
</g>
<!-- Node4 -->
<g id="node4" class="node">
<title>Node4</title>
<g id="a_node4"><a xlink:title=" ">
<polygon fill="none" stroke="#bfbfbf" points="0,-0.5 0,-19.5 47,-19.5 47,-0.5 0,-0.5"/>
<text text-anchor="middle" x="23.5" y="-7.5" font-family="Helvetica,sans-Serif" font-size="10.00">stdlib.h</text>
</a>
</g>
</g>
<!-- Node2&#45;&gt;Node4 -->
<g id="edge3" class="edge">
<title>Node2&#45;&gt;Node4</title>
<path fill="none" stroke="midnightblue" d="M187.71,-118.45C148.61,-114.12 97.95,-103.15 61.5,-76 45.81,-64.31 35.48,-44.07 29.6,-29.28"/>
<polygon fill="midnightblue" stroke="midnightblue" points="32.81,-27.86 26.1,-19.66 26.23,-30.26 32.81,-27.86"/>
</g>
<!-- Node5 -->
<g id="node5" class="node">
<title>Node5</title>
<g id="a_node5"><a xlink:title=" ">
<polygon fill="none" stroke="#bfbfbf" points="334,-0.5 334,-19.5 379,-19.5 379,-0.5 334,-0.5"/>
<text text-anchor="middle" x="356.5" y="-7.5" font-family="Helvetica,sans-Serif" font-size="10.00">stdio.h</text>
</a>
</g>
</g>
<!-- Node2&#45;&gt;Node5 -->
<g id="edge4" class="edge">
<title>Node2&#45;&gt;Node5</title>
<path fill="none" stroke="midnightblue" d="M280.24,-112.43C300.21,-105.68 324.47,-94.29 339.5,-76 350.25,-62.92 354.28,-43.77 355.75,-29.64"/>
<polygon fill="midnightblue" stroke="midnightblue" points="359.24,-29.82 356.46,-19.6 352.26,-29.33 359.24,-29.82"/>
</g>
<!-- Node6 -->
<g id="node6" class="node">
<title>Node6</title>
<g id="a_node6"><a xlink:title=" ">
<polygon fill="none" stroke="#bfbfbf" points="409.5,-56.5 409.5,-75.5 455.5,-75.5 455.5,-56.5 409.5,-56.5"/>
<text text-anchor="middle" x="432.5" y="-63.5" font-family="Helvetica,sans-Serif" font-size="10.00">math.h</text>
</a>
</g>
</g>
<!-- Node2&#45;&gt;Node6 -->
<g id="edge5" class="edge">
<title>Node2&#45;&gt;Node6</title>
<path fill="none" stroke="midnightblue" d="M275.97,-112.44C309.63,-102.67 364.55,-86.73 399.58,-76.56"/>
<polygon fill="midnightblue" stroke="midnightblue" points="400.71,-79.87 409.34,-73.73 398.76,-73.15 400.71,-79.87"/>
</g>
<!-- Node7 -->
<g id="node7" class="node">
<title>Node7</title>
<g id="a_node7"><a xlink:title=" ">
<polygon fill="none" stroke="#bfbfbf" points="132,-0.5 132,-19.5 215,-19.5 215,-0.5 132,-0.5"/>
<text text-anchor="middle" x="173.5" y="-7.5" font-family="Helvetica,sans-Serif" font-size="10.00">cjson/cJSON.h</text>
</a>
</g>
</g>
<!-- Node2&#45;&gt;Node7 -->
<g id="edge6" class="edge">
<title>Node2&#45;&gt;Node7</title>
<path fill="none" stroke="midnightblue" d="M217.38,-112.44C199.86,-105.62 178.98,-94.14 168.5,-76 160.37,-61.93 162.94,-43.19 166.75,-29.45"/>
<polygon fill="midnightblue" stroke="midnightblue" points="170.16,-30.27 169.91,-19.68 163.5,-28.12 170.16,-30.27"/>
</g>
<!-- Node8 -->
<g id="node8" class="node">
<title>Node8</title>
<g id="a_node8"><a xlink:title=" ">
<polygon fill="none" stroke="#bfbfbf" points="233,-0.5 233,-19.5 292,-19.5 292,-0.5 233,-0.5"/>
<text text-anchor="middle" x="262.5" y="-7.5" font-family="Helvetica,sans-Serif" font-size="10.00">curl/curl.h</text>
</a>
</g>
</g>
<!-- Node2&#45;&gt;Node8 -->
<g id="edge7" class="edge">
<title>Node2&#45;&gt;Node8</title>
<path fill="none" stroke="midnightblue" d="M275.62,-112.44C293.14,-105.62 314.02,-94.14 324.5,-76 336.38,-55.44 312.2,-36.34 290.65,-24.24"/>
<polygon fill="midnightblue" stroke="midnightblue" points="292.16,-21.09 281.69,-19.5 288.89,-27.27 292.16,-21.09"/>
</g>
<!-- Node9 -->
<g id="node9" class="node">
<title>Node9</title>
<g id="a_node9"><a xlink:href="_willy_weather_2authenticate_8h.html" target="_top" xlink:title=" ">
<polygon fill="none" stroke="black" points="178,-56.5 178,-75.5 315,-75.5 315,-56.5 178,-56.5"/>
<text text-anchor="middle" x="246.5" y="-63.5" font-family="Helvetica,sans-Serif" font-size="10.00">WillyWeather/authenticate.h</text>
</a>
</g>
</g>
<!-- Node2&#45;&gt;Node9 -->
<g id="edge8" class="edge">
<title>Node2&#45;&gt;Node9</title>
<path fill="none" stroke="midnightblue" d="M246.5,-112.08C246.5,-105.01 246.5,-94.86 246.5,-85.99"/>
<polygon fill="midnightblue" stroke="midnightblue" points="250,-85.75 246.5,-75.75 243,-85.75 250,-85.75"/>
</g>
<!-- Node10 -->
<g id="node10" class="node">
<title>Node10</title>
<g id="a_node10"><a xlink:href="utils_8h.html" target="_top" xlink:title=" ">
<polygon fill="none" stroke="black" points="79.5,-56.5 79.5,-75.5 121.5,-75.5 121.5,-56.5 79.5,-56.5"/>
<text text-anchor="middle" x="100.5" y="-63.5" font-family="Helvetica,sans-Serif" font-size="10.00">utils.h</text>
</a>
</g>
</g>
<!-- Node2&#45;&gt;Node10 -->
<g id="edge14" class="edge">
<title>Node2&#45;&gt;Node10</title>
<path fill="none" stroke="midnightblue" d="M223.37,-112.44C198.44,-103.23 158.67,-88.52 131.16,-78.34"/>
<polygon fill="midnightblue" stroke="midnightblue" points="132.22,-75 121.63,-74.82 129.79,-81.57 132.22,-75"/>
</g>
<!-- Node11 -->
<g id="node11" class="node">
<title>Node11</title>
<g id="a_node11"><a xlink:href="forecast_8h.html" target="_top" xlink:title=" ">
<polygon fill="none" stroke="black" points="474,-56.5 474,-75.5 533,-75.5 533,-56.5 474,-56.5"/>
<text text-anchor="middle" x="503.5" y="-63.5" font-family="Helvetica,sans-Serif" font-size="10.00">forecast.h</text>
</a>
</g>
</g>
<!-- Node2&#45;&gt;Node11 -->
<g id="edge19" class="edge">
<title>Node2&#45;&gt;Node11</title>
<path fill="none" stroke="midnightblue" d="M289.17,-112.5C331.1,-104.07 397.16,-90.62 463.86,-76.1"/>
<polygon fill="midnightblue" stroke="midnightblue" points="464.68,-79.5 473.71,-73.95 463.19,-72.66 464.68,-79.5"/>
</g>
<!-- Node9&#45;&gt;Node3 -->
<g id="edge9" class="edge">
<title>Node9&#45;&gt;Node3</title>
<path fill="none" stroke="midnightblue" d="M221.62,-56.44C195.06,-47.31 152.79,-32.77 123.24,-22.6"/>
<polygon fill="midnightblue" stroke="midnightblue" points="124.34,-19.28 113.74,-19.34 122.06,-25.9 124.34,-19.28"/>
</g>
<!-- Node9&#45;&gt;Node4 -->
<g id="edge10" class="edge">
<title>Node9&#45;&gt;Node4</title>
<path fill="none" stroke="midnightblue" d="M208.92,-56.49C172.55,-48.17 115.63,-34.92 57.06,-20.08"/>
<polygon fill="midnightblue" stroke="midnightblue" points="57.82,-16.66 47.27,-17.58 56.1,-23.44 57.82,-16.66"/>
</g>
<!-- Node9&#45;&gt;Node5 -->
<g id="edge11" class="edge">
<title>Node9&#45;&gt;Node5</title>
<path fill="none" stroke="midnightblue" d="M264.17,-56.32C281.89,-47.62 309.4,-34.12 329.79,-24.11"/>
<polygon fill="midnightblue" stroke="midnightblue" points="331.44,-27.2 338.87,-19.65 328.35,-20.92 331.44,-27.2"/>
</g>
<!-- Node9&#45;&gt;Node7 -->
<g id="edge12" class="edge">
<title>Node9&#45;&gt;Node7</title>
<path fill="none" stroke="midnightblue" d="M234.77,-56.32C223.66,-48.11 206.76,-35.6 193.52,-25.81"/>
<polygon fill="midnightblue" stroke="midnightblue" points="195.56,-22.97 185.44,-19.83 191.4,-28.59 195.56,-22.97"/>
</g>
<!-- Node9&#45;&gt;Node8 -->
<g id="edge13" class="edge">
<title>Node9&#45;&gt;Node8</title>
<path fill="none" stroke="midnightblue" d="M249.14,-56.08C251.29,-48.85 254.38,-38.41 257.05,-29.4"/>
<polygon fill="midnightblue" stroke="midnightblue" points="260.42,-30.33 259.91,-19.75 253.71,-28.34 260.42,-30.33"/>
</g>
<!-- Node10&#45;&gt;Node3 -->
<g id="edge16" class="edge">
<title>Node10&#45;&gt;Node3</title>
<path fill="none" stroke="midnightblue" d="M98.68,-56.08C97.23,-48.93 95.13,-38.64 93.31,-29.69"/>
<polygon fill="midnightblue" stroke="midnightblue" points="96.71,-28.85 91.28,-19.75 89.85,-30.25 96.71,-28.85"/>
</g>
<!-- Node10&#45;&gt;Node4 -->
<g id="edge15" class="edge">
<title>Node10&#45;&gt;Node4</title>
<path fill="none" stroke="midnightblue" d="M88.13,-56.32C76.34,-48.06 58.37,-35.45 44.36,-25.63"/>
<polygon fill="midnightblue" stroke="midnightblue" points="46.04,-22.53 35.84,-19.65 42.02,-28.26 46.04,-22.53"/>
</g>
<!-- Node10&#45;&gt;Node7 -->
<g id="edge18" class="edge">
<title>Node10&#45;&gt;Node7</title>
<path fill="none" stroke="midnightblue" d="M112.23,-56.32C123.34,-48.11 140.24,-35.6 153.48,-25.81"/>
<polygon fill="midnightblue" stroke="midnightblue" points="155.6,-28.59 161.56,-19.83 151.44,-22.97 155.6,-28.59"/>
</g>
<!-- Node10&#45;&gt;Node8 -->
<g id="edge17" class="edge">
<title>Node10&#45;&gt;Node8</title>
<path fill="none" stroke="midnightblue" d="M121.68,-57.94C148.49,-49 195.07,-33.48 227.28,-22.74"/>
<polygon fill="midnightblue" stroke="midnightblue" points="228.39,-26.06 236.77,-19.58 226.18,-19.42 228.39,-26.06"/>
</g>
</g>
</svg>
