<?xml version="1.0" encoding="UTF-8" standalone="no"?>
<!DOCTYPE svg PUBLIC "-//W3C//DTD SVG 1.1//EN"
 "http://www.w3.org/Graphics/SVG/1.1/DTD/svg11.dtd">
<!-- Generated by graphviz version 2.49.3 (20211027.1534)
 -->
<!-- Title: include/log.h Pages: 1 -->
<svg width="1831pt" height="464pt"
 viewBox="0.00 0.00 1830.82 464.00" xmlns="http://www.w3.org/2000/svg" xmlns:xlink="http://www.w3.org/1999/xlink">
<g id="graph0" class="graph" transform="scale(1 1) rotate(0) translate(4 460)">
<title>include/log.h</title>
<!-- Node1 -->
<g id="node1" class="node">
<title>Node1</title>
<g id="a_node1"><a xlink:title=" ">
<polygon fill="#bfbfbf" stroke="black" points="893.82,-436.5 893.82,-455.5 964.82,-455.5 964.82,-436.5 893.82,-436.5"/>
<text text-anchor="middle" x="929.32" y="-443.5" font-family="Helvetica,sans-Serif" font-size="10.00">include/log.h</text>
</a>
</g>
</g>
<!-- Node2 -->
<g id="node2" class="node">
<title>Node2</title>
<g id="a_node2"><a xlink:href="harvest__area_8h.html" target="_top" xlink:title=" ">
<polygon fill="none" stroke="black" points="1071.32,-257.5 1071.32,-287.5 1181.32,-287.5 1181.32,-257.5 1071.32,-257.5"/>
<text text-anchor="start" x="1079.32" y="-275.5" font-family="Helvetica,sans-Serif" font-size="10.00">include/FoodAuthority</text>
<text text-anchor="middle" x="1126.32" y="-264.5" font-family="Helvetica,sans-Serif" font-size="10.00">/harvest_area.h</text>
</a>
</g>
</g>
<!-- Node1&#45;&gt;Node2 -->
<g id="edge1" class="edge">
<title>Node1&#45;&gt;Node2</title>
<path fill="none" stroke="midnightblue" d="M959.63,-432.33C995.06,-416.24 1053.65,-385.5 1091.32,-344 1106.47,-327.3 1116.63,-302.84 1121.94,-287.56"/>
<polygon fill="midnightblue" stroke="midnightblue" points="958,-429.22 950.28,-436.48 960.84,-435.62 958,-429.22"/>
</g>
<!-- Node3 -->
<g id="node3" class="node">
<title>Node3</title>
<g id="a_node3"><a xlink:href="main_8h.html" target="_top" xlink:title=" ">
<polygon fill="none" stroke="black" points="681.82,-62 681.82,-81 760.82,-81 760.82,-62 681.82,-62"/>
<text text-anchor="middle" x="721.32" y="-69" font-family="Helvetica,sans-Serif" font-size="10.00">include/main.h</text>
</a>
</g>
</g>
<!-- Node1&#45;&gt;Node3 -->
<g id="edge29" class="edge">
<title>Node1&#45;&gt;Node3</title>
<path fill="none" stroke="midnightblue" d="M883.51,-444.44C696.68,-441.55 2.32,-424.77 2.32,-335 2.32,-335 2.32,-335 2.32,-204.5 2.32,-167.31 -6.96,-147.16 21.32,-123 46.6,-101.41 537.55,-79.93 681.79,-74.06"/>
<polygon fill="midnightblue" stroke="midnightblue" points="883.5,-447.94 893.55,-444.59 883.6,-440.94 883.5,-447.94"/>
</g>
<!-- Node6 -->
<g id="node6" class="node">
<title>Node6</title>
<g id="a_node6"><a xlink:href="_i_b_m___e_i_s_2authenticate_8h.html" target="_top" xlink:title=" ">
<polygon fill="none" stroke="black" points="709.82,-263 709.82,-282 862.82,-282 862.82,-263 709.82,-263"/>
<text text-anchor="middle" x="786.32" y="-270" font-family="Helvetica,sans-Serif" font-size="10.00">include/IBM_EIS/authenticate.h</text>
</a>
</g>
</g>
<!-- Node1&#45;&gt;Node6 -->
<g id="edge5" class="edge">
<title>Node1&#45;&gt;Node6</title>
<path fill="none" stroke="midnightblue" d="M912.1,-429.73C902.92,-421.3 891.62,-410.43 882.32,-400 845.07,-358.23 806.53,-303.16 792.17,-282.15"/>
<polygon fill="midnightblue" stroke="midnightblue" points="909.76,-432.34 919.52,-436.45 914.46,-427.15 909.76,-432.34"/>
</g>
<!-- Node7 -->
<g id="node7" class="node">
<title>Node7</title>
<g id="a_node7"><a xlink:href="timeseries_8h.html" target="_top" xlink:title=" ">
<polygon fill="none" stroke="black" points="639.82,-196 639.82,-215 784.82,-215 784.82,-196 639.82,-196"/>
<text text-anchor="middle" x="712.32" y="-203" font-family="Helvetica,sans-Serif" font-size="10.00">include/IBM_EIS/timeseries.h</text>
</a>
</g>
</g>
<!-- Node1&#45;&gt;Node7 -->
<g id="edge11" class="edge">
<title>Node1&#45;&gt;Node7</title>
<path fill="none" stroke="midnightblue" d="M891.77,-433.18C836,-413.36 733.24,-367.55 690.32,-288 677.1,-263.49 695.62,-230.47 706.05,-215.07"/>
<polygon fill="midnightblue" stroke="midnightblue" points="890.69,-436.51 901.29,-436.48 892.98,-429.9 890.69,-436.51"/>
</g>
<!-- Node10 -->
<g id="node10" class="node">
<title>Node10</title>
<g id="a_node10"><a xlink:href="_ubidots_2authenticate_8h.html" target="_top" xlink:title=" ">
<polygon fill="none" stroke="black" points="353.32,-263 353.32,-282 501.32,-282 501.32,-263 353.32,-263"/>
<text text-anchor="middle" x="427.32" y="-270" font-family="Helvetica,sans-Serif" font-size="10.00">include/Ubidots/authenticate.h</text>
</a>
</g>
</g>
<!-- Node1&#45;&gt;Node10 -->
<g id="edge12" class="edge">
<title>Node1&#45;&gt;Node10</title>
<path fill="none" stroke="midnightblue" d="M883.4,-444.73C788.95,-443.41 576.59,-436.37 515.32,-400 467.47,-371.6 439.28,-305.84 430.39,-282.18"/>
<polygon fill="midnightblue" stroke="midnightblue" points="883.47,-448.23 893.52,-444.85 883.56,-441.23 883.47,-448.23"/>
</g>
<!-- Node11 -->
<g id="node11" class="node">
<title>Node11</title>
<g id="a_node11"><a xlink:href="devices_8h.html" target="_top" xlink:title=" ">
<polygon fill="none" stroke="black" points="493.32,-196 493.32,-215 621.32,-215 621.32,-196 493.32,-196"/>
<text text-anchor="middle" x="557.32" y="-203" font-family="Helvetica,sans-Serif" font-size="10.00">include/Ubidots/devices.h</text>
</a>
</g>
</g>
<!-- Node1&#45;&gt;Node11 -->
<g id="edge17" class="edge">
<title>Node1&#45;&gt;Node11</title>
<path fill="none" stroke="midnightblue" d="M883.75,-435.44C812.59,-418.21 675.07,-375.3 596.32,-288 576.15,-265.64 564.3,-230.97 559.63,-215.04"/>
<polygon fill="midnightblue" stroke="midnightblue" points="883.22,-438.91 893.76,-437.8 884.83,-432.1 883.22,-438.91"/>
</g>
<!-- Node14 -->
<g id="node14" class="node">
<title>Node14</title>
<g id="a_node14"><a xlink:href="_willy_weather_2authenticate_8h.html" target="_top" xlink:title=" ">
<polygon fill="none" stroke="black" points="1471.82,-257.5 1471.82,-287.5 1578.82,-287.5 1578.82,-257.5 1471.82,-257.5"/>
<text text-anchor="start" x="1479.82" y="-275.5" font-family="Helvetica,sans-Serif" font-size="10.00">include/WillyWeather</text>
<text text-anchor="middle" x="1525.32" y="-264.5" font-family="Helvetica,sans-Serif" font-size="10.00">/authenticate.h</text>
</a>
</g>
</g>
<!-- Node1&#45;&gt;Node14 -->
<g id="edge18" class="edge">
<title>Node1&#45;&gt;Node14</title>
<path fill="none" stroke="midnightblue" d="M975.2,-443.57C1096.22,-439.46 1417.49,-426.17 1457.32,-400 1497.54,-373.58 1515.76,-315.1 1522.3,-287.91"/>
<polygon fill="midnightblue" stroke="midnightblue" points="975.02,-440.08 965.15,-443.91 975.26,-447.07 975.02,-440.08"/>
</g>
<!-- Node15 -->
<g id="node15" class="node">
<title>Node15</title>
<g id="a_node15"><a xlink:href="location_8h.html" target="_top" xlink:title=" ">
<polygon fill="none" stroke="black" points="1319.82,-190.5 1319.82,-220.5 1426.82,-220.5 1426.82,-190.5 1319.82,-190.5"/>
<text text-anchor="start" x="1327.82" y="-208.5" font-family="Helvetica,sans-Serif" font-size="10.00">include/WillyWeather</text>
<text text-anchor="middle" x="1373.32" y="-197.5" font-family="Helvetica,sans-Serif" font-size="10.00">/location.h</text>
</a>
</g>
</g>
<!-- Node1&#45;&gt;Node15 -->
<g id="edge27" class="edge">
<title>Node1&#45;&gt;Node15</title>
<path fill="none" stroke="midnightblue" d="M975.08,-440.47C1077.33,-429.46 1320.03,-398.17 1379.32,-344 1408.47,-317.37 1406.01,-295.52 1397.32,-257 1394.42,-244.12 1387.82,-230.67 1382.28,-220.9"/>
<polygon fill="midnightblue" stroke="midnightblue" points="974.63,-437 965.05,-441.53 975.36,-443.96 974.63,-437"/>
</g>
<!-- Node16 -->
<g id="node16" class="node">
<title>Node16</title>
<g id="a_node16"><a xlink:href="tide_8h.html" target="_top" xlink:title=" ">
<polygon fill="none" stroke="black" points="1483.82,-123.5 1483.82,-153.5 1590.82,-153.5 1590.82,-123.5 1483.82,-123.5"/>
<text text-anchor="start" x="1491.82" y="-141.5" font-family="Helvetica,sans-Serif" font-size="10.00">include/WillyWeather</text>
<text text-anchor="middle" x="1537.32" y="-130.5" font-family="Helvetica,sans-Serif" font-size="10.00">/tide.h</text>
</a>
</g>
</g>
<!-- Node1&#45;&gt;Node16 -->
<g id="edge28" class="edge">
<title>Node1&#45;&gt;Node16</title>
<path fill="none" stroke="midnightblue" d="M975.21,-443.65C1146.87,-438.02 1741.32,-412.9 1741.32,-335 1741.32,-335 1741.32,-335 1741.32,-271.5 1741.32,-230.95 1731.27,-216.2 1700.32,-190 1669.57,-163.96 1625.49,-151.34 1590.92,-145.22"/>
<polygon fill="midnightblue" stroke="midnightblue" points="974.88,-440.16 965,-443.98 975.1,-447.16 974.88,-440.16"/>
</g>
<!-- Node20 -->
<g id="node20" class="node">
<title>Node20</title>
<g id="a_node20"><a xlink:href="utils_8h.html" target="_top" xlink:title=" ">
<polygon fill="none" stroke="black" points="891.32,-380.5 891.32,-399.5 967.32,-399.5 967.32,-380.5 891.32,-380.5"/>
<text text-anchor="middle" x="929.32" y="-387.5" font-family="Helvetica,sans-Serif" font-size="10.00">include/utils.h</text>
</a>
</g>
</g>
<!-- Node1&#45;&gt;Node20 -->
<g id="edge30" class="edge">
<title>Node1&#45;&gt;Node20</title>
<path fill="none" stroke="midnightblue" d="M929.32,-425.8C929.32,-416.91 929.32,-406.78 929.32,-399.75"/>
<polygon fill="midnightblue" stroke="midnightblue" points="925.82,-426.08 929.32,-436.08 932.82,-426.08 925.82,-426.08"/>
</g>
<!-- Node32 -->
<g id="node32" class="node">
<title>Node32</title>
<g id="a_node32"><a xlink:href="log_8c.html" target="_top" xlink:title=" ">
<polygon fill="none" stroke="black" points="1769.82,-380.5 1769.82,-399.5 1822.82,-399.5 1822.82,-380.5 1769.82,-380.5"/>
<text text-anchor="middle" x="1796.32" y="-387.5" font-family="Helvetica,sans-Serif" font-size="10.00">src/log.c</text>
</a>
</g>
</g>
<!-- Node1&#45;&gt;Node32 -->
<g id="edge63" class="edge">
<title>Node1&#45;&gt;Node32</title>
<path fill="none" stroke="midnightblue" d="M974.94,-445.09C1100.2,-444.8 1459.81,-440.21 1755.32,-400 1759.94,-399.37 1764.81,-398.49 1769.53,-397.53"/>
<polygon fill="midnightblue" stroke="midnightblue" points="974.93,-441.59 964.94,-445.11 974.94,-448.59 974.93,-441.59"/>
</g>
<!-- Node2&#45;&gt;Node3 -->
<g id="edge2" class="edge">
<title>Node2&#45;&gt;Node3</title>
<path fill="none" stroke="midnightblue" d="M1174.27,-252.79C1187.7,-245.07 1200.7,-234.65 1208.32,-221 1215.04,-208.97 1216.27,-201.25 1208.32,-190 1156.19,-116.21 867.95,-84.8 761.14,-75.58"/>
<polygon fill="midnightblue" stroke="midnightblue" points="1172.63,-249.7 1165.44,-257.48 1175.91,-255.88 1172.63,-249.7"/>
</g>
<!-- Node5 -->
<g id="node5" class="node">
<title>Node5</title>
<g id="a_node5"><a xlink:href="harvest__area_8c.html" target="_top" xlink:title=" ">
<polygon fill="none" stroke="black" points="1071.32,-190.5 1071.32,-220.5 1199.32,-220.5 1199.32,-190.5 1071.32,-190.5"/>
<text text-anchor="start" x="1079.32" y="-208.5" font-family="Helvetica,sans-Serif" font-size="10.00">src/FoodAuthority/harvest</text>
<text text-anchor="middle" x="1135.32" y="-197.5" font-family="Helvetica,sans-Serif" font-size="10.00">_area.c</text>
</a>
</g>
</g>
<!-- Node2&#45;&gt;Node5 -->
<g id="edge4" class="edge">
<title>Node2&#45;&gt;Node5</title>
<path fill="none" stroke="midnightblue" d="M1129.66,-247.4C1130.91,-238.37 1132.29,-228.41 1133.37,-220.58"/>
<polygon fill="midnightblue" stroke="midnightblue" points="1126.18,-247.01 1128.27,-257.4 1133.11,-247.97 1126.18,-247.01"/>
</g>
<!-- Node4 -->
<g id="node4" class="node">
<title>Node4</title>
<g id="a_node4"><a xlink:href="main_8c.html" target="_top" xlink:title=" ">
<polygon fill="none" stroke="black" points="690.32,-0.5 690.32,-19.5 752.32,-19.5 752.32,-0.5 690.32,-0.5"/>
<text text-anchor="middle" x="721.32" y="-7.5" font-family="Helvetica,sans-Serif" font-size="10.00">src/main.c</text>
</a>
</g>
</g>
<!-- Node3&#45;&gt;Node4 -->
<g id="edge3" class="edge">
<title>Node3&#45;&gt;Node4</title>
<path fill="none" stroke="midnightblue" d="M721.32,-51.82C721.32,-41 721.32,-27.9 721.32,-19.51"/>
<polygon fill="midnightblue" stroke="midnightblue" points="717.82,-51.98 721.32,-61.98 724.82,-51.98 717.82,-51.98"/>
</g>
<!-- Node6&#45;&gt;Node3 -->
<g id="edge9" class="edge">
<title>Node6&#45;&gt;Node3</title>
<path fill="none" stroke="midnightblue" d="M793.03,-253.06C802.53,-223.66 816.43,-165.18 794.32,-123 783.73,-102.8 760.99,-89.08 743.68,-81.09"/>
<polygon fill="midnightblue" stroke="midnightblue" points="789.62,-252.22 789.69,-262.81 796.24,-254.49 789.62,-252.22"/>
</g>
<!-- Node6&#45;&gt;Node7 -->
<g id="edge6" class="edge">
<title>Node6&#45;&gt;Node7</title>
<path fill="none" stroke="midnightblue" d="M768.51,-255.86C753.96,-243.08 733.94,-225.49 722.14,-215.13"/>
<polygon fill="midnightblue" stroke="midnightblue" points="766.52,-258.76 776.34,-262.73 771.14,-253.5 766.52,-258.76"/>
</g>
<!-- Node9 -->
<g id="node9" class="node">
<title>Node9</title>
<g id="a_node9"><a xlink:href="_i_b_m___e_i_s_2authenticate_8c.html" target="_top" xlink:title=" ">
<polygon fill="none" stroke="black" points="841.32,-196 841.32,-215 977.32,-215 977.32,-196 841.32,-196"/>
<text text-anchor="middle" x="909.32" y="-203" font-family="Helvetica,sans-Serif" font-size="10.00">src/IBM_EIS/authenticate.c</text>
</a>
</g>
</g>
<!-- Node6&#45;&gt;Node9 -->
<g id="edge10" class="edge">
<title>Node6&#45;&gt;Node9</title>
<path fill="none" stroke="midnightblue" d="M811.67,-258.1C836.03,-245.23 872.12,-226.16 892.92,-215.17"/>
<polygon fill="midnightblue" stroke="midnightblue" points="809.86,-255.1 802.65,-262.87 813.13,-261.29 809.86,-255.1"/>
</g>
<!-- Node7&#45;&gt;Node3 -->
<g id="edge7" class="edge">
<title>Node7&#45;&gt;Node3</title>
<path fill="none" stroke="midnightblue" d="M685.15,-190.8C671.4,-182.27 656.02,-169.88 648.32,-154 642.31,-141.6 641.92,-135.2 648.32,-123 658.91,-102.8 681.65,-89.08 698.96,-81.09"/>
<polygon fill="midnightblue" stroke="midnightblue" points="683.45,-193.86 693.86,-195.85 686.97,-187.81 683.45,-193.86"/>
</g>
<!-- Node8 -->
<g id="node8" class="node">
<title>Node8</title>
<g id="a_node8"><a xlink:href="timeseries_8c.html" target="_top" xlink:title=" ">
<polygon fill="none" stroke="black" points="657.32,-129 657.32,-148 785.32,-148 785.32,-129 657.32,-129"/>
<text text-anchor="middle" x="721.32" y="-136" font-family="Helvetica,sans-Serif" font-size="10.00">src/IBM_EIS/timeseries.c</text>
</a>
</g>
</g>
<!-- Node7&#45;&gt;Node8 -->
<g id="edge8" class="edge">
<title>Node7&#45;&gt;Node8</title>
<path fill="none" stroke="midnightblue" d="M714.95,-185.54C716.66,-173.17 718.81,-157.62 720.13,-148.13"/>
<polygon fill="midnightblue" stroke="midnightblue" points="711.44,-185.35 713.53,-195.73 718.37,-186.31 711.44,-185.35"/>
</g>
<!-- Node10&#45;&gt;Node11 -->
<g id="edge13" class="edge">
<title>Node10&#45;&gt;Node11</title>
<path fill="none" stroke="midnightblue" d="M453.77,-258.27C479.52,-245.4 517.9,-226.21 539.99,-215.17"/>
<polygon fill="midnightblue" stroke="midnightblue" points="451.96,-255.27 444.58,-262.87 455.09,-261.53 451.96,-255.27"/>
</g>
<!-- Node13 -->
<g id="node13" class="node">
<title>Node13</title>
<g id="a_node13"><a xlink:href="_ubidots_2authenticate_8c.html" target="_top" xlink:title=" ">
<polygon fill="none" stroke="black" points="343.82,-196 343.82,-215 474.82,-215 474.82,-196 343.82,-196"/>
<text text-anchor="middle" x="409.32" y="-203" font-family="Helvetica,sans-Serif" font-size="10.00">src/Ubidots/authenticate.c</text>
</a>
</g>
</g>
<!-- Node10&#45;&gt;Node13 -->
<g id="edge16" class="edge">
<title>Node10&#45;&gt;Node13</title>
<path fill="none" stroke="midnightblue" d="M422.17,-252.91C418.73,-240.49 414.36,-224.72 411.71,-215.13"/>
<polygon fill="midnightblue" stroke="midnightblue" points="418.85,-254.03 424.89,-262.73 425.6,-252.16 418.85,-254.03"/>
</g>
<!-- Node11&#45;&gt;Node3 -->
<g id="edge14" class="edge">
<title>Node11&#45;&gt;Node3</title>
<path fill="none" stroke="midnightblue" d="M571.9,-188.2C587.79,-170.93 614.41,-143.4 640.32,-123 661.54,-106.29 688.58,-90.39 705.42,-81.04"/>
<polygon fill="midnightblue" stroke="midnightblue" points="569.15,-186.02 565.01,-195.77 574.33,-190.73 569.15,-186.02"/>
</g>
<!-- Node12 -->
<g id="node12" class="node">
<title>Node12</title>
<g id="a_node12"><a xlink:href="devices_8c.html" target="_top" xlink:title=" ">
<polygon fill="none" stroke="black" points="451.82,-129 451.82,-148 562.82,-148 562.82,-129 451.82,-129"/>
<text text-anchor="middle" x="507.32" y="-136" font-family="Helvetica,sans-Serif" font-size="10.00">src/Ubidots/devices.c</text>
</a>
</g>
</g>
<!-- Node11&#45;&gt;Node12 -->
<g id="edge15" class="edge">
<title>Node11&#45;&gt;Node12</title>
<path fill="none" stroke="midnightblue" d="M544.45,-187.77C534.7,-175.1 521.71,-158.2 513.96,-148.13"/>
<polygon fill="midnightblue" stroke="midnightblue" points="541.71,-189.94 550.58,-195.73 547.25,-185.67 541.71,-189.94"/>
</g>
<!-- Node14&#45;&gt;Node3 -->
<g id="edge25" class="edge">
<title>Node14&#45;&gt;Node3</title>
<path fill="none" stroke="midnightblue" d="M1514.57,-248.04C1496.64,-210.01 1460.24,-137.69 1436.32,-123 1378.66,-87.59 902.86,-75.9 761.06,-73.18"/>
<polygon fill="midnightblue" stroke="midnightblue" points="1511.51,-249.76 1518.91,-257.34 1517.86,-246.8 1511.51,-249.76"/>
</g>
<!-- Node14&#45;&gt;Node15 -->
<g id="edge19" class="edge">
<title>Node14&#45;&gt;Node15</title>
<path fill="none" stroke="midnightblue" d="M1483.01,-253.41C1458.74,-243.03 1428.73,-230.2 1406.24,-220.58"/>
<polygon fill="midnightblue" stroke="midnightblue" points="1481.77,-256.68 1492.34,-257.4 1484.52,-250.25 1481.77,-256.68"/>
</g>
<!-- Node14&#45;&gt;Node16 -->
<g id="edge24" class="edge">
<title>Node14&#45;&gt;Node16</title>
<path fill="none" stroke="midnightblue" d="M1517.16,-247.43C1512.75,-231.11 1509.01,-209.11 1513.32,-190 1516.22,-177.12 1522.82,-163.67 1528.36,-153.9"/>
<polygon fill="midnightblue" stroke="midnightblue" points="1513.87,-248.66 1520.07,-257.25 1520.58,-246.66 1513.87,-248.66"/>
</g>
<!-- Node19 -->
<g id="node19" class="node">
<title>Node19</title>
<g id="a_node19"><a xlink:href="_willy_weather_2authenticate_8c.html" target="_top" xlink:title=" ">
<polygon fill="none" stroke="black" points="1521.82,-196 1521.82,-215 1674.82,-215 1674.82,-196 1521.82,-196"/>
<text text-anchor="middle" x="1598.32" y="-203" font-family="Helvetica,sans-Serif" font-size="10.00">src/WillyWeather/authenticate.c</text>
</a>
</g>
</g>
<!-- Node14&#45;&gt;Node19 -->
<g id="edge26" class="edge">
<title>Node14&#45;&gt;Node19</title>
<path fill="none" stroke="midnightblue" d="M1548.71,-250.67C1562.19,-238.67 1578.42,-224.22 1588.56,-215.19"/>
<polygon fill="midnightblue" stroke="midnightblue" points="1546.3,-248.13 1541.16,-257.4 1550.96,-253.36 1546.3,-248.13"/>
</g>
<!-- Node15&#45;&gt;Node16 -->
<g id="edge20" class="edge">
<title>Node15&#45;&gt;Node16</title>
<path fill="none" stroke="midnightblue" d="M1418.28,-186.68C1444.58,-176.26 1477.32,-163.28 1501.8,-153.58"/>
<polygon fill="midnightblue" stroke="midnightblue" points="1416.91,-183.46 1408.91,-190.4 1419.49,-189.97 1416.91,-183.46"/>
</g>
<!-- Node18 -->
<g id="node18" class="node">
<title>Node18</title>
<g id="a_node18"><a xlink:href="location_8c.html" target="_top" xlink:title=" ">
<polygon fill="none" stroke="black" points="1293.32,-129 1293.32,-148 1427.32,-148 1427.32,-129 1293.32,-129"/>
<text text-anchor="middle" x="1360.32" y="-136" font-family="Helvetica,sans-Serif" font-size="10.00">src/WillyWeather/location.c</text>
</a>
</g>
</g>
<!-- Node15&#45;&gt;Node18 -->
<g id="edge23" class="edge">
<title>Node15&#45;&gt;Node18</title>
<path fill="none" stroke="midnightblue" d="M1368.47,-180.25C1366.22,-169.02 1363.7,-156.38 1362.06,-148.19"/>
<polygon fill="midnightblue" stroke="midnightblue" points="1365.11,-181.28 1370.5,-190.4 1371.97,-179.9 1365.11,-181.28"/>
</g>
<!-- Node16&#45;&gt;Node3 -->
<g id="edge21" class="edge">
<title>Node16&#45;&gt;Node3</title>
<path fill="none" stroke="midnightblue" d="M1473.73,-123.65C1472.25,-123.42 1470.78,-123.2 1469.32,-123 1200.23,-85.42 872.62,-75.55 760.86,-73.19"/>
<polygon fill="midnightblue" stroke="midnightblue" points="1473.18,-127.11 1483.62,-125.31 1474.34,-120.2 1473.18,-127.11"/>
</g>
<!-- Node17 -->
<g id="node17" class="node">
<title>Node17</title>
<g id="a_node17"><a xlink:href="tide_8c.html" target="_top" xlink:title=" ">
<polygon fill="none" stroke="black" points="1479.32,-62 1479.32,-81 1595.32,-81 1595.32,-62 1479.32,-62"/>
<text text-anchor="middle" x="1537.32" y="-69" font-family="Helvetica,sans-Serif" font-size="10.00">src/WillyWeather/tide.c</text>
</a>
</g>
</g>
<!-- Node16&#45;&gt;Node17 -->
<g id="edge22" class="edge">
<title>Node16&#45;&gt;Node17</title>
<path fill="none" stroke="midnightblue" d="M1537.32,-113.25C1537.32,-102.02 1537.32,-89.38 1537.32,-81.19"/>
<polygon fill="midnightblue" stroke="midnightblue" points="1533.82,-113.4 1537.32,-123.4 1540.82,-113.4 1533.82,-113.4"/>
</g>
<!-- Node20&#45;&gt;Node2 -->
<g id="edge37" class="edge">
<title>Node20&#45;&gt;Node2</title>
<path fill="none" stroke="midnightblue" d="M946.76,-373.75C963.37,-359.7 989.46,-338.84 1014.32,-324 1038.4,-309.62 1067.3,-296.69 1089.7,-287.51"/>
<polygon fill="midnightblue" stroke="midnightblue" points="944.31,-371.24 938.99,-380.41 948.86,-376.56 944.31,-371.24"/>
</g>
<!-- Node20&#45;&gt;Node6 -->
<g id="edge38" class="edge">
<title>Node20&#45;&gt;Node6</title>
<path fill="none" stroke="midnightblue" d="M910.48,-373.78C880.14,-349.28 821.43,-301.86 797.19,-282.28"/>
<polygon fill="midnightblue" stroke="midnightblue" points="908.59,-376.76 918.57,-380.32 912.99,-371.31 908.59,-376.76"/>
</g>
<!-- Node20&#45;&gt;Node7 -->
<g id="edge39" class="edge">
<title>Node20&#45;&gt;Node7</title>
<path fill="none" stroke="midnightblue" d="M898.52,-376.46C837.39,-351.43 706.14,-296.92 700.32,-288 685.4,-265.12 699.42,-231.01 707.51,-215.17"/>
<polygon fill="midnightblue" stroke="midnightblue" points="897.46,-379.81 908.04,-380.35 900.11,-373.33 897.46,-379.81"/>
</g>
<!-- Node20&#45;&gt;Node11 -->
<g id="edge40" class="edge">
<title>Node20&#45;&gt;Node11</title>
<path fill="none" stroke="midnightblue" d="M880.96,-380.63C819.58,-368.26 712.43,-340.64 635.32,-288 604.26,-266.8 575.92,-231.56 563.68,-215.26"/>
<polygon fill="midnightblue" stroke="midnightblue" points="880.65,-384.14 891.13,-382.63 881.99,-377.27 880.65,-384.14"/>
</g>
<!-- Node20&#45;&gt;Node15 -->
<g id="edge41" class="edge">
<title>Node20&#45;&gt;Node15</title>
<path fill="none" stroke="midnightblue" d="M977.73,-386.65C1083.31,-381.14 1327.28,-366.15 1357.32,-344 1395.43,-315.9 1384.36,-249.62 1377.23,-220.57"/>
<polygon fill="midnightblue" stroke="midnightblue" points="977.46,-383.16 967.66,-387.17 977.82,-390.15 977.46,-383.16"/>
</g>
<!-- Node20&#45;&gt;Node16 -->
<g id="edge42" class="edge">
<title>Node20&#45;&gt;Node16</title>
<path fill="none" stroke="midnightblue" d="M977.54,-387.24C1133.46,-380.3 1617.78,-348.59 1684.32,-221 1706.18,-179.09 1641.51,-157.58 1591.07,-147.44"/>
<polygon fill="midnightblue" stroke="midnightblue" points="977.16,-383.75 967.32,-387.68 977.46,-390.74 977.16,-383.75"/>
</g>
<!-- Node21 -->
<g id="node21" class="node">
<title>Node21</title>
<g id="a_node21"><a xlink:href="stations_8h.html" target="_top" xlink:title=" ">
<polygon fill="none" stroke="black" points="61.32,-196 61.32,-215 179.32,-215 179.32,-196 61.32,-196"/>
<text text-anchor="middle" x="120.32" y="-203" font-family="Helvetica,sans-Serif" font-size="10.00">include/BOM/stations.h</text>
</a>
</g>
</g>
<!-- Node20&#45;&gt;Node21 -->
<g id="edge31" class="edge">
<title>Node20&#45;&gt;Node21</title>
<path fill="none" stroke="midnightblue" d="M881.11,-385.78C741.06,-375.87 336.6,-343.1 217.32,-288 178.38,-270.01 142.48,-232.14 127.59,-215.11"/>
<polygon fill="midnightblue" stroke="midnightblue" points="880.9,-389.28 891.12,-386.48 881.39,-382.29 880.9,-389.28"/>
</g>
<!-- Node25 -->
<g id="node25" class="node">
<title>Node25</title>
<g id="a_node25"><a xlink:href="ftp_8h.html" target="_top" xlink:title=" ">
<polygon fill="none" stroke="black" points="226.82,-263 226.82,-282 295.82,-282 295.82,-263 226.82,-263"/>
<text text-anchor="middle" x="261.32" y="-270" font-family="Helvetica,sans-Serif" font-size="10.00">include/ftp.h</text>
</a>
</g>
</g>
<!-- Node20&#45;&gt;Node25 -->
<g id="edge43" class="edge">
<title>Node20&#45;&gt;Node25</title>
<path fill="none" stroke="midnightblue" d="M880.87,-380.67C780.68,-363.43 543.41,-322.58 344.32,-288 328.47,-285.25 310.91,-282.18 296.05,-279.58"/>
<polygon fill="midnightblue" stroke="midnightblue" points="880.54,-384.16 890.99,-382.41 881.72,-377.26 880.54,-384.16"/>
</g>
<!-- Node27 -->
<g id="node27" class="node">
<title>Node27</title>
<g id="a_node27"><a xlink:href="http_8h.html" target="_top" xlink:title=" ">
<polygon fill="none" stroke="black" points="892.32,-324.5 892.32,-343.5 966.32,-343.5 966.32,-324.5 892.32,-324.5"/>
<text text-anchor="middle" x="929.32" y="-331.5" font-family="Helvetica,sans-Serif" font-size="10.00">include/http.h</text>
</a>
</g>
</g>
<!-- Node20&#45;&gt;Node27 -->
<g id="edge48" class="edge">
<title>Node20&#45;&gt;Node27</title>
<path fill="none" stroke="midnightblue" d="M929.32,-369.8C929.32,-360.91 929.32,-350.78 929.32,-343.75"/>
<polygon fill="midnightblue" stroke="midnightblue" points="925.82,-370.08 929.32,-380.08 932.82,-370.08 925.82,-370.08"/>
</g>
<!-- Node29 -->
<g id="node29" class="node">
<title>Node29</title>
<g id="a_node29"><a xlink:href="severity__index_8h.html" target="_top" xlink:title=" ">
<polygon fill="none" stroke="black" points="1228.82,-324.5 1228.82,-343.5 1347.82,-343.5 1347.82,-324.5 1228.82,-324.5"/>
<text text-anchor="middle" x="1288.32" y="-331.5" font-family="Helvetica,sans-Serif" font-size="10.00">include/severity_index.h</text>
</a>
</g>
</g>
<!-- Node20&#45;&gt;Node29 -->
<g id="edge59" class="edge">
<title>Node20&#45;&gt;Node29</title>
<path fill="none" stroke="midnightblue" d="M977.51,-381.75C1043.42,-371.84 1161.45,-354.08 1231.55,-343.54"/>
<polygon fill="midnightblue" stroke="midnightblue" points="976.77,-378.32 967.4,-383.27 977.81,-385.25 976.77,-378.32"/>
</g>
<!-- Node31 -->
<g id="node31" class="node">
<title>Node31</title>
<g id="a_node31"><a xlink:href="utils_8c.html" target="_top" xlink:title=" ">
<polygon fill="none" stroke="black" points="1022.82,-324.5 1022.82,-343.5 1081.82,-343.5 1081.82,-324.5 1022.82,-324.5"/>
<text text-anchor="middle" x="1052.32" y="-331.5" font-family="Helvetica,sans-Serif" font-size="10.00">src/utils.c</text>
</a>
</g>
</g>
<!-- Node20&#45;&gt;Node31 -->
<g id="edge62" class="edge">
<title>Node20&#45;&gt;Node31</title>
<path fill="none" stroke="midnightblue" d="M958.09,-376.37C981.13,-366.26 1012.8,-352.35 1032.92,-343.52"/>
<polygon fill="midnightblue" stroke="midnightblue" points="956.56,-373.22 948.81,-380.44 959.37,-379.63 956.56,-373.22"/>
</g>
<!-- Node21&#45;&gt;Node3 -->
<g id="edge35" class="edge">
<title>Node21&#45;&gt;Node3</title>
<path fill="none" stroke="midnightblue" d="M165.55,-193.36C196.77,-184.77 238.71,-171.42 273.32,-154 294.69,-143.25 295.01,-131.63 317.32,-123 383.33,-97.47 593.27,-80.98 681.58,-75.01"/>
<polygon fill="midnightblue" stroke="midnightblue" points="164.56,-190 155.82,-195.98 166.38,-196.76 164.56,-190"/>
</g>
<!-- Node22 -->
<g id="node22" class="node">
<title>Node22</title>
<g id="a_node22"><a xlink:href="historical__weather_8h.html" target="_top" xlink:title=" ">
<polygon fill="none" stroke="black" points="149.82,-123.5 149.82,-153.5 264.82,-153.5 264.82,-123.5 149.82,-123.5"/>
<text text-anchor="start" x="157.82" y="-141.5" font-family="Helvetica,sans-Serif" font-size="10.00">include/BOM/historical</text>
<text text-anchor="middle" x="207.32" y="-130.5" font-family="Helvetica,sans-Serif" font-size="10.00">_weather.h</text>
</a>
</g>
</g>
<!-- Node21&#45;&gt;Node22 -->
<g id="edge32" class="edge">
<title>Node21&#45;&gt;Node22</title>
<path fill="none" stroke="midnightblue" d="M140.34,-189.54C154.82,-178.73 174.26,-164.2 188.46,-153.59"/>
<polygon fill="midnightblue" stroke="midnightblue" points="137.97,-186.94 132.05,-195.73 142.16,-192.55 137.97,-186.94"/>
</g>
<!-- Node24 -->
<g id="node24" class="node">
<title>Node24</title>
<g id="a_node24"><a xlink:href="stations_8c.html" target="_top" xlink:title=" ">
<polygon fill="none" stroke="black" points="30.82,-129 30.82,-148 131.82,-148 131.82,-129 30.82,-129"/>
<text text-anchor="middle" x="81.32" y="-136" font-family="Helvetica,sans-Serif" font-size="10.00">src/BOM/stations.c</text>
</a>
</g>
</g>
<!-- Node21&#45;&gt;Node24 -->
<g id="edge36" class="edge">
<title>Node21&#45;&gt;Node24</title>
<path fill="none" stroke="midnightblue" d="M109.84,-187.03C102.29,-174.45 92.42,-158.01 86.5,-148.13"/>
<polygon fill="midnightblue" stroke="midnightblue" points="106.91,-188.96 115.06,-195.73 112.92,-185.36 106.91,-188.96"/>
</g>
<!-- Node22&#45;&gt;Node3 -->
<g id="edge33" class="edge">
<title>Node22&#45;&gt;Node3</title>
<path fill="none" stroke="midnightblue" d="M274.91,-123.71C276.39,-123.47 277.86,-123.23 279.32,-123 426.95,-99.74 603.93,-82.79 681.55,-75.9"/>
<polygon fill="midnightblue" stroke="midnightblue" points="274.26,-120.27 265.01,-125.43 275.46,-127.17 274.26,-120.27"/>
</g>
<!-- Node23 -->
<g id="node23" class="node">
<title>Node23</title>
<g id="a_node23"><a xlink:href="historical__weather_8c.html" target="_top" xlink:title=" ">
<polygon fill="none" stroke="black" points="158.32,-56.5 158.32,-86.5 256.32,-86.5 256.32,-56.5 158.32,-56.5"/>
<text text-anchor="start" x="166.32" y="-74.5" font-family="Helvetica,sans-Serif" font-size="10.00">src/BOM/historical</text>
<text text-anchor="middle" x="207.32" y="-63.5" font-family="Helvetica,sans-Serif" font-size="10.00">_weather.c</text>
</a>
</g>
</g>
<!-- Node22&#45;&gt;Node23 -->
<g id="edge34" class="edge">
<title>Node22&#45;&gt;Node23</title>
<path fill="none" stroke="midnightblue" d="M207.32,-113.11C207.32,-104.15 207.32,-94.32 207.32,-86.58"/>
<polygon fill="midnightblue" stroke="midnightblue" points="203.82,-113.4 207.32,-123.4 210.82,-113.4 203.82,-113.4"/>
</g>
<!-- Node25&#45;&gt;Node3 -->
<g id="edge46" class="edge">
<title>Node25&#45;&gt;Node3</title>
<path fill="none" stroke="midnightblue" d="M273.92,-254.81C287.59,-237.38 310.65,-209.85 334.32,-190 377.6,-153.71 389.6,-143.28 442.32,-123 523.87,-91.64 626.46,-79.49 681.71,-74.99"/>
<polygon fill="midnightblue" stroke="midnightblue" points="271.01,-252.86 267.67,-262.91 276.55,-257.13 271.01,-252.86"/>
</g>
<!-- Node25&#45;&gt;Node21 -->
<g id="edge45" class="edge">
<title>Node25&#45;&gt;Node21</title>
<path fill="none" stroke="midnightblue" d="M233.36,-258.61C205.44,-245.74 163.28,-226.31 139.12,-215.17"/>
<polygon fill="midnightblue" stroke="midnightblue" points="232.05,-261.86 242.6,-262.87 234.98,-255.5 232.05,-261.86"/>
</g>
<!-- Node25&#45;&gt;Node22 -->
<g id="edge44" class="edge">
<title>Node25&#45;&gt;Node22</title>
<path fill="none" stroke="midnightblue" d="M247.33,-254.77C240.1,-245.37 231.7,-233.12 226.32,-221 216.36,-198.56 211.27,-170.23 208.96,-153.56"/>
<polygon fill="midnightblue" stroke="midnightblue" points="244.78,-257.19 253.76,-262.82 250.25,-252.82 244.78,-257.19"/>
</g>
<!-- Node26 -->
<g id="node26" class="node">
<title>Node26</title>
<g id="a_node26"><a xlink:href="ftp_8c.html" target="_top" xlink:title=" ">
<polygon fill="none" stroke="black" points="235.32,-196 235.32,-215 287.32,-215 287.32,-196 235.32,-196"/>
<text text-anchor="middle" x="261.32" y="-203" font-family="Helvetica,sans-Serif" font-size="10.00">src/ftp.c</text>
</a>
</g>
</g>
<!-- Node25&#45;&gt;Node26 -->
<g id="edge47" class="edge">
<title>Node25&#45;&gt;Node26</title>
<path fill="none" stroke="midnightblue" d="M261.32,-252.54C261.32,-240.17 261.32,-224.62 261.32,-215.13"/>
<polygon fill="midnightblue" stroke="midnightblue" points="257.82,-252.73 261.32,-262.73 264.82,-252.73 257.82,-252.73"/>
</g>
<!-- Node27&#45;&gt;Node2 -->
<g id="edge49" class="edge">
<title>Node27&#45;&gt;Node2</title>
<path fill="none" stroke="midnightblue" d="M967.45,-321.48C999.57,-311.78 1045.63,-297.87 1079.89,-287.52"/>
<polygon fill="midnightblue" stroke="midnightblue" points="966.11,-318.23 957.55,-324.48 968.13,-324.93 966.11,-318.23"/>
</g>
<!-- Node27&#45;&gt;Node3 -->
<g id="edge57" class="edge">
<title>Node27&#45;&gt;Node3</title>
<path fill="none" stroke="midnightblue" d="M931.4,-314.2C933.83,-298.12 938.92,-274.83 949.32,-257 960.88,-237.18 977.4,-242.14 986.32,-221 991.68,-208.31 993.83,-201.55 986.32,-190 935.96,-112.59 821.64,-85.78 760.93,-76.81"/>
<polygon fill="midnightblue" stroke="midnightblue" points="927.89,-314.08 930.07,-324.45 934.83,-314.99 927.89,-314.08"/>
</g>
<!-- Node27&#45;&gt;Node6 -->
<g id="edge50" class="edge">
<title>Node27&#45;&gt;Node6</title>
<path fill="none" stroke="midnightblue" d="M899.59,-320.63C871.81,-309.07 831.07,-292.12 806.77,-282.01"/>
<polygon fill="midnightblue" stroke="midnightblue" points="898.25,-323.86 908.83,-324.48 900.94,-317.4 898.25,-323.86"/>
</g>
<!-- Node27&#45;&gt;Node7 -->
<g id="edge51" class="edge">
<title>Node27&#45;&gt;Node7</title>
<path fill="none" stroke="midnightblue" d="M920.31,-315.28C910.66,-298.02 893.81,-272.23 872.32,-257 841.07,-234.85 799.71,-222.13 766.87,-215"/>
<polygon fill="midnightblue" stroke="midnightblue" points="917.33,-317.14 925.13,-324.31 923.51,-313.84 917.33,-317.14"/>
</g>
<!-- Node27&#45;&gt;Node10 -->
<g id="edge52" class="edge">
<title>Node27&#45;&gt;Node10</title>
<path fill="none" stroke="midnightblue" d="M882.01,-327.39C793.75,-316.93 603.54,-294.39 499.28,-282.03"/>
<polygon fill="midnightblue" stroke="midnightblue" points="881.66,-330.88 892,-328.58 882.48,-323.92 881.66,-330.88"/>
</g>
<!-- Node27&#45;&gt;Node11 -->
<g id="edge53" class="edge">
<title>Node27&#45;&gt;Node11</title>
<path fill="none" stroke="midnightblue" d="M882,-328.23C834.83,-322.44 760.87,-310.52 700.32,-288 648.36,-268.68 593.03,-231.84 569.28,-215.13"/>
<polygon fill="midnightblue" stroke="midnightblue" points="881.89,-331.74 892.23,-329.44 882.71,-324.79 881.89,-331.74"/>
</g>
<!-- Node27&#45;&gt;Node14 -->
<g id="edge54" class="edge">
<title>Node27&#45;&gt;Node14</title>
<path fill="none" stroke="midnightblue" d="M976.61,-327.93C988.88,-326.63 1002.1,-325.25 1014.32,-324 1181.05,-306.94 1378.48,-287.7 1471.6,-278.68"/>
<polygon fill="midnightblue" stroke="midnightblue" points="976.13,-324.47 966.55,-329 976.87,-331.43 976.13,-324.47"/>
</g>
<!-- Node27&#45;&gt;Node15 -->
<g id="edge55" class="edge">
<title>Node27&#45;&gt;Node15</title>
<path fill="none" stroke="midnightblue" d="M976.78,-327.75C1041.34,-320.11 1153.06,-304.98 1190.32,-288 1210.15,-278.96 1209.3,-267.63 1228.32,-257 1256.94,-241 1291.53,-228.72 1319.75,-220.27"/>
<polygon fill="midnightblue" stroke="midnightblue" points="975.98,-324.32 966.46,-328.95 976.8,-331.27 975.98,-324.32"/>
</g>
<!-- Node27&#45;&gt;Node16 -->
<g id="edge56" class="edge">
<title>Node27&#45;&gt;Node16</title>
<path fill="none" stroke="midnightblue" d="M971.3,-320.97C989.61,-313.9 1010.1,-303.29 1024.32,-288 1056.13,-253.79 1025.09,-218.21 1062.32,-190 1128.87,-139.57 1353.42,-163.94 1436.32,-154 1451.71,-152.16 1468.38,-149.88 1483.65,-147.68"/>
<polygon fill="midnightblue" stroke="midnightblue" points="969.9,-317.75 961.68,-324.44 972.28,-324.33 969.9,-317.75"/>
</g>
<!-- Node28 -->
<g id="node28" class="node">
<title>Node28</title>
<g id="a_node28"><a xlink:href="http_8c.html" target="_top" xlink:title=" ">
<polygon fill="none" stroke="black" points="957.82,-263 957.82,-282 1014.82,-282 1014.82,-263 957.82,-263"/>
<text text-anchor="middle" x="986.32" y="-270" font-family="Helvetica,sans-Serif" font-size="10.00">src/http.c</text>
</a>
</g>
</g>
<!-- Node27&#45;&gt;Node28 -->
<g id="edge58" class="edge">
<title>Node27&#45;&gt;Node28</title>
<path fill="none" stroke="midnightblue" d="M944.65,-317C955.44,-305.74 969.46,-291.1 978.17,-282.01"/>
<polygon fill="midnightblue" stroke="midnightblue" points="941.88,-314.83 937.49,-324.48 946.93,-319.68 941.88,-314.83"/>
</g>
<!-- Node29&#45;&gt;Node3 -->
<g id="edge60" class="edge">
<title>Node29&#45;&gt;Node3</title>
<path fill="none" stroke="midnightblue" d="M1316.61,-319.38C1328.71,-311.93 1341.59,-301.46 1348.32,-288 1354.48,-275.68 1355.07,-269.01 1348.32,-257 1334.3,-232.05 1155.35,-132.42 1128.32,-123 999.39,-78.08 835.26,-72.12 761,-71.96"/>
<polygon fill="midnightblue" stroke="midnightblue" points="1314.59,-316.5 1307.62,-324.48 1318.04,-322.59 1314.59,-316.5"/>
</g>
<!-- Node30 -->
<g id="node30" class="node">
<title>Node30</title>
<g id="a_node30"><a xlink:href="severity__index_8c.html" target="_top" xlink:title=" ">
<polygon fill="none" stroke="black" points="1237.32,-263 1237.32,-282 1339.32,-282 1339.32,-263 1237.32,-263"/>
<text text-anchor="middle" x="1288.32" y="-270" font-family="Helvetica,sans-Serif" font-size="10.00">src/severity_index.c</text>
</a>
</g>
</g>
<!-- Node29&#45;&gt;Node30 -->
<g id="edge61" class="edge">
<title>Node29&#45;&gt;Node30</title>
<path fill="none" stroke="midnightblue" d="M1288.32,-314.32C1288.32,-303.5 1288.32,-290.4 1288.32,-282.01"/>
<polygon fill="midnightblue" stroke="midnightblue" points="1284.82,-314.48 1288.32,-324.48 1291.82,-314.48 1284.82,-314.48"/>
</g>
</g>
</svg>
