<?xml version="1.0" encoding="UTF-8" standalone="no"?>
<!DOCTYPE svg PUBLIC "-//W3C//DTD SVG 1.1//EN"
 "http://www.w3.org/Graphics/SVG/1.1/DTD/svg11.dtd">
<!-- Generated by graphviz version 2.49.3 (20211027.1534)
 -->
<!-- Title: include/log.h Pages: 1 -->
<svg width="1962pt" height="464pt"
 viewBox="0.00 0.00 1961.50 464.00" xmlns="http://www.w3.org/2000/svg" xmlns:xlink="http://www.w3.org/1999/xlink">
<g id="graph0" class="graph" transform="scale(1 1) rotate(0) translate(4 460)">
<title>include/log.h</title>
<!-- Node1 -->
<g id="node1" class="node">
<title>Node1</title>
<g id="a_node1"><a xlink:title=" ">
<polygon fill="#bfbfbf" stroke="black" points="788.5,-436.5 788.5,-455.5 859.5,-455.5 859.5,-436.5 788.5,-436.5"/>
<text text-anchor="middle" x="824" y="-443.5" font-family="Helvetica,sans-Serif" font-size="10.00">include/log.h</text>
</a>
</g>
</g>
<!-- Node2 -->
<g id="node2" class="node">
<title>Node2</title>
<g id="a_node2"><a xlink:href="harvest__area_8h.html" target="_top" xlink:title=" ">
<polygon fill="none" stroke="black" points="505,-257.5 505,-287.5 615,-287.5 615,-257.5 505,-257.5"/>
<text text-anchor="start" x="513" y="-275.5" font-family="Helvetica,sans-Serif" font-size="10.00">include/FoodAuthority</text>
<text text-anchor="middle" x="560" y="-264.5" font-family="Helvetica,sans-Serif" font-size="10.00">/harvest_area.h</text>
</a>
</g>
</g>
<!-- Node1&#45;&gt;Node2 -->
<g id="edge1" class="edge">
<title>Node1&#45;&gt;Node2</title>
<path fill="none" stroke="midnightblue" d="M778.23,-444.79C735.62,-442.38 672.34,-432.89 629,-400 590.74,-370.97 571.06,-314.33 563.61,-287.82"/>
<polygon fill="midnightblue" stroke="midnightblue" points="778.17,-448.29 788.32,-445.25 778.49,-441.3 778.17,-448.29"/>
</g>
<!-- Node3 -->
<g id="node3" class="node">
<title>Node3</title>
<g id="a_node3"><a xlink:href="harvest__areas_8h.html" target="_top" xlink:title=" ">
<polygon fill="none" stroke="black" points="412,-123.5 412,-153.5 522,-153.5 522,-123.5 412,-123.5"/>
<text text-anchor="start" x="420" y="-141.5" font-family="Helvetica,sans-Serif" font-size="10.00">include/FoodAuthority</text>
<text text-anchor="middle" x="467" y="-130.5" font-family="Helvetica,sans-Serif" font-size="10.00">/harvest_areas.h</text>
</a>
</g>
</g>
<!-- Node1&#45;&gt;Node3 -->
<g id="edge8" class="edge">
<title>Node1&#45;&gt;Node3</title>
<path fill="none" stroke="midnightblue" d="M778.21,-443.45C610.28,-437.17 38,-410.25 38,-335 38,-335 38,-335 38,-271.5 38,-221.05 72.07,-212.94 117,-190 118.64,-189.16 313.68,-161.32 411.85,-147.34"/>
<polygon fill="midnightblue" stroke="midnightblue" points="778.32,-446.96 788.44,-443.83 778.58,-439.96 778.32,-446.96"/>
</g>
<!-- Node4 -->
<g id="node4" class="node">
<title>Node4</title>
<g id="a_node4"><a xlink:href="main_8h.html" target="_top" xlink:title=" ">
<polygon fill="none" stroke="black" points="714.5,-62 714.5,-81 793.5,-81 793.5,-62 714.5,-62"/>
<text text-anchor="middle" x="754" y="-69" font-family="Helvetica,sans-Serif" font-size="10.00">include/main.h</text>
</a>
</g>
</g>
<!-- Node1&#45;&gt;Node4 -->
<g id="edge37" class="edge">
<title>Node1&#45;&gt;Node4</title>
<path fill="none" stroke="midnightblue" d="M778.02,-444.76C641.44,-443.62 239.87,-437.12 115,-400 58.72,-383.27 0,-393.71 0,-335 0,-335 0,-335 0,-204.5 0,-156.75 27.37,-144.52 70,-123 77.25,-119.34 569.29,-85.22 714.24,-75.23"/>
<polygon fill="midnightblue" stroke="midnightblue" points="778.12,-448.26 788.15,-444.84 778.17,-441.26 778.12,-448.26"/>
</g>
<!-- Node8 -->
<g id="node8" class="node">
<title>Node8</title>
<g id="a_node8"><a xlink:href="_i_b_m___e_i_s_2authenticate_8h.html" target="_top" xlink:title=" ">
<polygon fill="none" stroke="black" points="785.5,-263 785.5,-282 938.5,-282 938.5,-263 785.5,-263"/>
<text text-anchor="middle" x="862" y="-270" font-family="Helvetica,sans-Serif" font-size="10.00">include/IBM_EIS/authenticate.h</text>
</a>
</g>
</g>
<!-- Node1&#45;&gt;Node8 -->
<g id="edge9" class="edge">
<title>Node1&#45;&gt;Node8</title>
<path fill="none" stroke="midnightblue" d="M828.14,-426.33C836.31,-389.43 854.26,-308.44 860.11,-282.02"/>
<polygon fill="midnightblue" stroke="midnightblue" points="824.68,-425.74 825.94,-436.26 831.52,-427.25 824.68,-425.74"/>
</g>
<!-- Node9 -->
<g id="node9" class="node">
<title>Node9</title>
<g id="a_node9"><a xlink:href="timeseries_8h.html" target="_top" xlink:title=" ">
<polygon fill="none" stroke="black" points="608.5,-196 608.5,-215 753.5,-215 753.5,-196 608.5,-196"/>
<text text-anchor="middle" x="681" y="-203" font-family="Helvetica,sans-Serif" font-size="10.00">include/IBM_EIS/timeseries.h</text>
</a>
</g>
</g>
<!-- Node1&#45;&gt;Node9 -->
<g id="edge15" class="edge">
<title>Node1&#45;&gt;Node9</title>
<path fill="none" stroke="midnightblue" d="M778.04,-444.5C744.12,-441.42 700.01,-431.11 677,-400 634.04,-341.92 666.06,-244.91 677.42,-215.33"/>
<polygon fill="midnightblue" stroke="midnightblue" points="777.97,-448.01 788.2,-445.25 778.48,-441.03 777.97,-448.01"/>
</g>
<!-- Node12 -->
<g id="node12" class="node">
<title>Node12</title>
<g id="a_node12"><a xlink:href="_ubidots_2authenticate_8h.html" target="_top" xlink:title=" ">
<polygon fill="none" stroke="black" points="1261,-263 1261,-282 1409,-282 1409,-263 1261,-263"/>
<text text-anchor="middle" x="1335" y="-270" font-family="Helvetica,sans-Serif" font-size="10.00">include/Ubidots/authenticate.h</text>
</a>
</g>
</g>
<!-- Node1&#45;&gt;Node12 -->
<g id="edge16" class="edge">
<title>Node1&#45;&gt;Node12</title>
<path fill="none" stroke="midnightblue" d="M864.87,-433.71C927.86,-416.04 1052.26,-380.15 1156,-344 1214.35,-323.67 1281.85,-295.91 1314.8,-282.07"/>
<polygon fill="midnightblue" stroke="midnightblue" points="863.62,-430.42 854.93,-436.48 865.51,-437.16 863.62,-430.42"/>
</g>
<!-- Node13 -->
<g id="node13" class="node">
<title>Node13</title>
<g id="a_node13"><a xlink:href="devices_8h.html" target="_top" xlink:title=" ">
<polygon fill="none" stroke="black" points="1002,-196 1002,-215 1130,-215 1130,-196 1002,-196"/>
<text text-anchor="middle" x="1066" y="-203" font-family="Helvetica,sans-Serif" font-size="10.00">include/Ubidots/devices.h</text>
</a>
</g>
</g>
<!-- Node1&#45;&gt;Node13 -->
<g id="edge21" class="edge">
<title>Node1&#45;&gt;Node13</title>
<path fill="none" stroke="midnightblue" d="M811.01,-427.93C785.37,-392.03 734.28,-307.83 777,-257 784.34,-248.26 923.09,-227 1005.63,-215.04"/>
<polygon fill="midnightblue" stroke="midnightblue" points="808.45,-430.35 817.19,-436.34 814.09,-426.21 808.45,-430.35"/>
</g>
<!-- Node16 -->
<g id="node16" class="node">
<title>Node16</title>
<g id="a_node16"><a xlink:href="_willy_weather_2authenticate_8h.html" target="_top" xlink:title=" ">
<polygon fill="none" stroke="black" points="1579.5,-257.5 1579.5,-287.5 1686.5,-287.5 1686.5,-257.5 1579.5,-257.5"/>
<text text-anchor="start" x="1587.5" y="-275.5" font-family="Helvetica,sans-Serif" font-size="10.00">include/WillyWeather</text>
<text text-anchor="middle" x="1633" y="-264.5" font-family="Helvetica,sans-Serif" font-size="10.00">/authenticate.h</text>
</a>
</g>
</g>
<!-- Node1&#45;&gt;Node16 -->
<g id="edge22" class="edge">
<title>Node1&#45;&gt;Node16</title>
<path fill="none" stroke="midnightblue" d="M870.25,-444.78C1023.26,-443.7 1506.62,-437.35 1565,-400 1605.75,-373.93 1623.79,-314.73 1630.14,-287.58"/>
<polygon fill="midnightblue" stroke="midnightblue" points="869.8,-441.28 859.82,-444.85 869.84,-448.28 869.8,-441.28"/>
</g>
<!-- Node17 -->
<g id="node17" class="node">
<title>Node17</title>
<g id="a_node17"><a xlink:href="location_8h.html" target="_top" xlink:title=" ">
<polygon fill="none" stroke="black" points="1450.5,-190.5 1450.5,-220.5 1557.5,-220.5 1557.5,-190.5 1450.5,-190.5"/>
<text text-anchor="start" x="1458.5" y="-208.5" font-family="Helvetica,sans-Serif" font-size="10.00">include/WillyWeather</text>
<text text-anchor="middle" x="1504" y="-197.5" font-family="Helvetica,sans-Serif" font-size="10.00">/location.h</text>
</a>
</g>
</g>
<!-- Node1&#45;&gt;Node17 -->
<g id="edge35" class="edge">
<title>Node1&#45;&gt;Node17</title>
<path fill="none" stroke="midnightblue" d="M869.69,-442.92C1000.73,-436.18 1374.75,-411.35 1474,-344 1497.9,-327.78 1499.4,-315.87 1507,-288 1510.63,-274.71 1507.41,-270.77 1507,-257 1506.64,-244.71 1505.77,-230.76 1505.07,-220.64"/>
<polygon fill="midnightblue" stroke="midnightblue" points="869.4,-439.43 859.59,-443.43 869.76,-446.42 869.4,-439.43"/>
</g>
<!-- Node20 -->
<g id="node20" class="node">
<title>Node20</title>
<g id="a_node20"><a xlink:href="tide_8h.html" target="_top" xlink:title=" ">
<polygon fill="none" stroke="black" points="1614.5,-123.5 1614.5,-153.5 1721.5,-153.5 1721.5,-123.5 1614.5,-123.5"/>
<text text-anchor="start" x="1622.5" y="-141.5" font-family="Helvetica,sans-Serif" font-size="10.00">include/WillyWeather</text>
<text text-anchor="middle" x="1668" y="-130.5" font-family="Helvetica,sans-Serif" font-size="10.00">/tide.h</text>
</a>
</g>
</g>
<!-- Node1&#45;&gt;Node20 -->
<g id="edge36" class="edge">
<title>Node1&#45;&gt;Node20</title>
<path fill="none" stroke="midnightblue" d="M870.05,-445.07C1072.32,-444.81 1872,-437.28 1872,-335 1872,-335 1872,-335 1872,-271.5 1872,-230.95 1861.95,-216.2 1831,-190 1800.25,-163.96 1756.17,-151.34 1721.6,-145.22"/>
<polygon fill="midnightblue" stroke="midnightblue" points="869.77,-441.57 859.77,-445.08 869.77,-448.57 869.77,-441.57"/>
</g>
<!-- Node24 -->
<g id="node24" class="node">
<title>Node24</title>
<g id="a_node24"><a xlink:href="utils_8h.html" target="_top" xlink:title=" ">
<polygon fill="none" stroke="black" points="881,-380.5 881,-399.5 957,-399.5 957,-380.5 881,-380.5"/>
<text text-anchor="middle" x="919" y="-387.5" font-family="Helvetica,sans-Serif" font-size="10.00">include/utils.h</text>
</a>
</g>
</g>
<!-- Node1&#45;&gt;Node24 -->
<g id="edge38" class="edge">
<title>Node1&#45;&gt;Node24</title>
<path fill="none" stroke="midnightblue" d="M848.32,-431.18C865.8,-421.24 888.83,-408.15 903.77,-399.65"/>
<polygon fill="midnightblue" stroke="midnightblue" points="846.23,-428.34 839.26,-436.32 849.69,-434.43 846.23,-428.34"/>
</g>
<!-- Node34 -->
<g id="node34" class="node">
<title>Node34</title>
<g id="a_node34"><a xlink:href="log_8c.html" target="_top" xlink:title=" ">
<polygon fill="none" stroke="black" points="1900.5,-380.5 1900.5,-399.5 1953.5,-399.5 1953.5,-380.5 1900.5,-380.5"/>
<text text-anchor="middle" x="1927" y="-387.5" font-family="Helvetica,sans-Serif" font-size="10.00">src/log.c</text>
</a>
</g>
</g>
<!-- Node1&#45;&gt;Node34 -->
<g id="edge73" class="edge">
<title>Node1&#45;&gt;Node34</title>
<path fill="none" stroke="midnightblue" d="M869.76,-444.12C1046.54,-440.56 1684.93,-426.13 1886,-400 1890.63,-399.4 1895.5,-398.54 1900.21,-397.58"/>
<polygon fill="midnightblue" stroke="midnightblue" points="869.68,-440.62 859.76,-444.32 869.82,-447.62 869.68,-440.62"/>
</g>
<!-- Node2&#45;&gt;Node3 -->
<g id="edge2" class="edge">
<title>Node2&#45;&gt;Node3</title>
<path fill="none" stroke="midnightblue" d="M494.81,-256.65C461.06,-247.51 424.87,-234.89 415,-221 398.67,-198.02 426.17,-170.1 447,-153.62"/>
<polygon fill="midnightblue" stroke="midnightblue" points="494.15,-260.1 504.71,-259.26 495.93,-253.33 494.15,-260.1"/>
</g>
<!-- Node2&#45;&gt;Node4 -->
<g id="edge6" class="edge">
<title>Node2&#45;&gt;Node4</title>
<path fill="none" stroke="midnightblue" d="M561.76,-247.04C564.93,-209.7 572.84,-140.94 589,-123 620.78,-87.72 676.46,-76.77 714.26,-73.54"/>
<polygon fill="midnightblue" stroke="midnightblue" points="558.26,-246.85 560.96,-257.1 565.24,-247.41 558.26,-246.85"/>
</g>
<!-- Node7 -->
<g id="node7" class="node">
<title>Node7</title>
<g id="a_node7"><a xlink:href="harvest__area_8c.html" target="_top" xlink:title=" ">
<polygon fill="none" stroke="black" points="424,-190.5 424,-220.5 552,-220.5 552,-190.5 424,-190.5"/>
<text text-anchor="start" x="432" y="-208.5" font-family="Helvetica,sans-Serif" font-size="10.00">src/FoodAuthority/harvest</text>
<text text-anchor="middle" x="488" y="-197.5" font-family="Helvetica,sans-Serif" font-size="10.00">_area.c</text>
</a>
</g>
</g>
<!-- Node2&#45;&gt;Node7 -->
<g id="edge7" class="edge">
<title>Node2&#45;&gt;Node7</title>
<path fill="none" stroke="midnightblue" d="M536.85,-250.6C525.98,-240.78 513.3,-229.34 503.59,-220.58"/>
<polygon fill="midnightblue" stroke="midnightblue" points="534.61,-253.29 544.38,-257.4 539.3,-248.1 534.61,-253.29"/>
</g>
<!-- Node3&#45;&gt;Node4 -->
<g id="edge3" class="edge">
<title>Node3&#45;&gt;Node4</title>
<path fill="none" stroke="midnightblue" d="M532.3,-122.71C589.12,-109.84 669.48,-91.64 716.22,-81.06"/>
<polygon fill="midnightblue" stroke="midnightblue" points="531.32,-119.34 522.34,-124.97 532.86,-126.17 531.32,-119.34"/>
</g>
<!-- Node6 -->
<g id="node6" class="node">
<title>Node6</title>
<g id="a_node6"><a xlink:href="harvest__areas_8c.html" target="_top" xlink:title=" ">
<polygon fill="none" stroke="black" points="403,-56.5 403,-86.5 531,-86.5 531,-56.5 403,-56.5"/>
<text text-anchor="start" x="411" y="-74.5" font-family="Helvetica,sans-Serif" font-size="10.00">src/FoodAuthority/harvest</text>
<text text-anchor="middle" x="467" y="-63.5" font-family="Helvetica,sans-Serif" font-size="10.00">_areas.c</text>
</a>
</g>
</g>
<!-- Node3&#45;&gt;Node6 -->
<g id="edge5" class="edge">
<title>Node3&#45;&gt;Node6</title>
<path fill="none" stroke="midnightblue" d="M467,-113.11C467,-104.15 467,-94.32 467,-86.58"/>
<polygon fill="midnightblue" stroke="midnightblue" points="463.5,-113.4 467,-123.4 470.5,-113.4 463.5,-113.4"/>
</g>
<!-- Node5 -->
<g id="node5" class="node">
<title>Node5</title>
<g id="a_node5"><a xlink:href="main_8c.html" target="_top" xlink:title=" ">
<polygon fill="none" stroke="black" points="723,-0.5 723,-19.5 785,-19.5 785,-0.5 723,-0.5"/>
<text text-anchor="middle" x="754" y="-7.5" font-family="Helvetica,sans-Serif" font-size="10.00">src/main.c</text>
</a>
</g>
</g>
<!-- Node4&#45;&gt;Node5 -->
<g id="edge4" class="edge">
<title>Node4&#45;&gt;Node5</title>
<path fill="none" stroke="midnightblue" d="M754,-51.82C754,-41 754,-27.9 754,-19.51"/>
<polygon fill="midnightblue" stroke="midnightblue" points="750.5,-51.98 754,-61.98 757.5,-51.98 750.5,-51.98"/>
</g>
<!-- Node8&#45;&gt;Node4 -->
<g id="edge13" class="edge">
<title>Node8&#45;&gt;Node4</title>
<path fill="none" stroke="midnightblue" d="M838.99,-257.27C826.17,-248.29 810.86,-235.64 801,-221 769.57,-174.35 758.19,-105.47 755.02,-81.28"/>
<polygon fill="midnightblue" stroke="midnightblue" points="837.11,-260.23 847.36,-262.88 841,-254.41 837.11,-260.23"/>
</g>
<!-- Node8&#45;&gt;Node9 -->
<g id="edge10" class="edge">
<title>Node8&#45;&gt;Node9</title>
<path fill="none" stroke="midnightblue" d="M828.41,-259.44C792.5,-246.54 736.48,-226.42 704.85,-215.06"/>
<polygon fill="midnightblue" stroke="midnightblue" points="827.37,-262.78 837.96,-262.87 829.74,-256.19 827.37,-262.78"/>
</g>
<!-- Node11 -->
<g id="node11" class="node">
<title>Node11</title>
<g id="a_node11"><a xlink:href="_i_b_m___e_i_s_2authenticate_8c.html" target="_top" xlink:title=" ">
<polygon fill="none" stroke="black" points="810,-196 810,-215 946,-215 946,-196 810,-196"/>
<text text-anchor="middle" x="878" y="-203" font-family="Helvetica,sans-Serif" font-size="10.00">src/IBM_EIS/authenticate.c</text>
</a>
</g>
</g>
<!-- Node8&#45;&gt;Node11 -->
<g id="edge14" class="edge">
<title>Node8&#45;&gt;Node11</title>
<path fill="none" stroke="midnightblue" d="M866.57,-252.91C869.63,-240.49 873.52,-224.72 875.88,-215.13"/>
<polygon fill="midnightblue" stroke="midnightblue" points="863.15,-252.19 864.16,-262.73 869.95,-253.86 863.15,-252.19"/>
</g>
<!-- Node9&#45;&gt;Node4 -->
<g id="edge11" class="edge">
<title>Node9&#45;&gt;Node4</title>
<path fill="none" stroke="midnightblue" d="M702.4,-189.47C713.72,-180.44 726.91,-167.99 735,-154 748.81,-130.1 752.59,-96.78 753.62,-81.19"/>
<polygon fill="midnightblue" stroke="midnightblue" points="700.07,-186.85 694.22,-195.68 704.3,-192.42 700.07,-186.85"/>
</g>
<!-- Node10 -->
<g id="node10" class="node">
<title>Node10</title>
<g id="a_node10"><a xlink:href="timeseries_8c.html" target="_top" xlink:title=" ">
<polygon fill="none" stroke="black" points="598,-129 598,-148 726,-148 726,-129 598,-129"/>
<text text-anchor="middle" x="662" y="-136" font-family="Helvetica,sans-Serif" font-size="10.00">src/IBM_EIS/timeseries.c</text>
</a>
</g>
</g>
<!-- Node9&#45;&gt;Node10 -->
<g id="edge12" class="edge">
<title>Node9&#45;&gt;Node10</title>
<path fill="none" stroke="midnightblue" d="M675.57,-185.91C671.94,-173.49 667.32,-157.72 664.52,-148.13"/>
<polygon fill="midnightblue" stroke="midnightblue" points="672.27,-187.12 678.44,-195.73 678.99,-185.15 672.27,-187.12"/>
</g>
<!-- Node12&#45;&gt;Node13 -->
<g id="edge17" class="edge">
<title>Node12&#45;&gt;Node13</title>
<path fill="none" stroke="midnightblue" d="M1289.74,-260.56C1236.71,-247.75 1149.95,-226.78 1101.52,-215.08"/>
<polygon fill="midnightblue" stroke="midnightblue" points="1289.01,-263.99 1299.56,-262.94 1290.66,-257.18 1289.01,-263.99"/>
</g>
<!-- Node15 -->
<g id="node15" class="node">
<title>Node15</title>
<g id="a_node15"><a xlink:href="_ubidots_2authenticate_8c.html" target="_top" xlink:title=" ">
<polygon fill="none" stroke="black" points="1262.5,-196 1262.5,-215 1393.5,-215 1393.5,-196 1262.5,-196"/>
<text text-anchor="middle" x="1328" y="-203" font-family="Helvetica,sans-Serif" font-size="10.00">src/Ubidots/authenticate.c</text>
</a>
</g>
</g>
<!-- Node12&#45;&gt;Node15 -->
<g id="edge20" class="edge">
<title>Node12&#45;&gt;Node15</title>
<path fill="none" stroke="midnightblue" d="M1332.96,-252.54C1331.63,-240.17 1329.95,-224.62 1328.93,-215.13"/>
<polygon fill="midnightblue" stroke="midnightblue" points="1329.51,-253.17 1334.06,-262.73 1336.47,-252.42 1329.51,-253.17"/>
</g>
<!-- Node13&#45;&gt;Node4 -->
<g id="edge18" class="edge">
<title>Node13&#45;&gt;Node4</title>
<path fill="none" stroke="midnightblue" d="M1067.12,-185.67C1067.13,-167.03 1063.98,-139.02 1047,-123 1011.05,-89.09 864.93,-77.65 793.58,-74.04"/>
<polygon fill="midnightblue" stroke="midnightblue" points="1063.62,-185.77 1066.8,-195.88 1070.61,-185.99 1063.62,-185.77"/>
</g>
<!-- Node14 -->
<g id="node14" class="node">
<title>Node14</title>
<g id="a_node14"><a xlink:href="devices_8c.html" target="_top" xlink:title=" ">
<polygon fill="none" stroke="black" points="926.5,-129 926.5,-148 1037.5,-148 1037.5,-129 926.5,-129"/>
<text text-anchor="middle" x="982" y="-136" font-family="Helvetica,sans-Serif" font-size="10.00">src/Ubidots/devices.c</text>
</a>
</g>
</g>
<!-- Node13&#45;&gt;Node14 -->
<g id="edge19" class="edge">
<title>Node13&#45;&gt;Node14</title>
<path fill="none" stroke="midnightblue" d="M1046.7,-189.57C1030.12,-176.74 1006.79,-158.69 993.15,-148.13"/>
<polygon fill="midnightblue" stroke="midnightblue" points="1044.62,-192.38 1054.67,-195.73 1048.9,-186.85 1044.62,-192.38"/>
</g>
<!-- Node16&#45;&gt;Node4 -->
<g id="edge33" class="edge">
<title>Node16&#45;&gt;Node4</title>
<path fill="none" stroke="midnightblue" d="M1629.99,-247.42C1624.31,-213.33 1608.6,-151.91 1567,-123 1534.92,-100.71 952.34,-79.27 793.64,-73.82"/>
<polygon fill="midnightblue" stroke="midnightblue" points="1626.55,-248.09 1631.5,-257.46 1633.47,-247.05 1626.55,-248.09"/>
</g>
<!-- Node16&#45;&gt;Node17 -->
<g id="edge23" class="edge">
<title>Node16&#45;&gt;Node17</title>
<path fill="none" stroke="midnightblue" d="M1595.99,-252.85C1575.6,-242.58 1550.69,-230.03 1531.94,-220.58"/>
<polygon fill="midnightblue" stroke="midnightblue" points="1594.5,-256.02 1605.01,-257.4 1597.65,-249.77 1594.5,-256.02"/>
</g>
<!-- Node16&#45;&gt;Node20 -->
<g id="edge32" class="edge">
<title>Node16&#45;&gt;Node20</title>
<path fill="none" stroke="midnightblue" d="M1634.32,-247.02C1635.69,-230.61 1638.45,-208.68 1644,-190 1647.82,-177.16 1654.49,-163.49 1659.84,-153.61"/>
<polygon fill="midnightblue" stroke="midnightblue" points="1630.8,-247.16 1633.58,-257.38 1637.79,-247.66 1630.8,-247.16"/>
</g>
<!-- Node23 -->
<g id="node23" class="node">
<title>Node23</title>
<g id="a_node23"><a xlink:href="_willy_weather_2authenticate_8c.html" target="_top" xlink:title=" ">
<polygon fill="none" stroke="black" points="1652.5,-196 1652.5,-215 1805.5,-215 1805.5,-196 1652.5,-196"/>
<text text-anchor="middle" x="1729" y="-203" font-family="Helvetica,sans-Serif" font-size="10.00">src/WillyWeather/authenticate.c</text>
</a>
</g>
</g>
<!-- Node16&#45;&gt;Node23 -->
<g id="edge34" class="edge">
<title>Node16&#45;&gt;Node23</title>
<path fill="none" stroke="midnightblue" d="M1662.33,-251.64C1680.45,-239.37 1702.77,-224.26 1716.44,-215.01"/>
<polygon fill="midnightblue" stroke="midnightblue" points="1660.15,-248.89 1653.83,-257.4 1664.07,-254.69 1660.15,-248.89"/>
</g>
<!-- Node17&#45;&gt;Node3 -->
<g id="edge24" class="edge">
<title>Node17&#45;&gt;Node3</title>
<path fill="none" stroke="midnightblue" d="M1440.19,-194.37C1427.88,-192.69 1415.06,-191.13 1403,-190 1042.45,-156.23 949.94,-183.39 589,-154 567.1,-152.22 543.08,-149.52 522.18,-146.94"/>
<polygon fill="midnightblue" stroke="midnightblue" points="1440,-197.88 1450.39,-195.8 1440.97,-190.95 1440,-197.88"/>
</g>
<!-- Node18 -->
<g id="node18" class="node">
<title>Node18</title>
<g id="a_node18"><a xlink:href="precipitation_8h.html" target="_top" xlink:title=" ">
<polygon fill="none" stroke="black" points="1242.5,-123.5 1242.5,-153.5 1349.5,-153.5 1349.5,-123.5 1242.5,-123.5"/>
<text text-anchor="start" x="1250.5" y="-141.5" font-family="Helvetica,sans-Serif" font-size="10.00">include/WillyWeather</text>
<text text-anchor="middle" x="1296" y="-130.5" font-family="Helvetica,sans-Serif" font-size="10.00">/precipitation.h</text>
</a>
</g>
</g>
<!-- Node17&#45;&gt;Node18 -->
<g id="edge25" class="edge">
<title>Node17&#45;&gt;Node18</title>
<path fill="none" stroke="midnightblue" d="M1449.42,-187.44C1415.7,-176.91 1372.96,-163.55 1341.15,-153.61"/>
<polygon fill="midnightblue" stroke="midnightblue" points="1448.53,-190.83 1459.12,-190.48 1450.62,-184.15 1448.53,-190.83"/>
</g>
<!-- Node17&#45;&gt;Node20 -->
<g id="edge28" class="edge">
<title>Node17&#45;&gt;Node20</title>
<path fill="none" stroke="midnightblue" d="M1548.96,-186.68C1575.26,-176.26 1608,-163.28 1632.48,-153.58"/>
<polygon fill="midnightblue" stroke="midnightblue" points="1547.59,-183.46 1539.59,-190.4 1550.17,-189.97 1547.59,-183.46"/>
</g>
<!-- Node22 -->
<g id="node22" class="node">
<title>Node22</title>
<g id="a_node22"><a xlink:href="location_8c.html" target="_top" xlink:title=" ">
<polygon fill="none" stroke="black" points="1424,-129 1424,-148 1558,-148 1558,-129 1424,-129"/>
<text text-anchor="middle" x="1491" y="-136" font-family="Helvetica,sans-Serif" font-size="10.00">src/WillyWeather/location.c</text>
</a>
</g>
</g>
<!-- Node17&#45;&gt;Node22 -->
<g id="edge31" class="edge">
<title>Node17&#45;&gt;Node22</title>
<path fill="none" stroke="midnightblue" d="M1499.15,-180.25C1496.9,-169.02 1494.38,-156.38 1492.74,-148.19"/>
<polygon fill="midnightblue" stroke="midnightblue" points="1495.79,-181.28 1501.18,-190.4 1502.65,-179.9 1495.79,-181.28"/>
</g>
<!-- Node18&#45;&gt;Node4 -->
<g id="edge26" class="edge">
<title>Node18&#45;&gt;Node4</title>
<path fill="none" stroke="midnightblue" d="M1231.8,-129.8C1118.59,-116.22 886.65,-88.41 793.76,-77.27"/>
<polygon fill="midnightblue" stroke="midnightblue" points="1231.7,-133.31 1242.05,-131.03 1232.54,-126.36 1231.7,-133.31"/>
</g>
<!-- Node19 -->
<g id="node19" class="node">
<title>Node19</title>
<g id="a_node19"><a xlink:href="precipitation_8c.html" target="_top" xlink:title=" ">
<polygon fill="none" stroke="black" points="1220,-62 1220,-81 1372,-81 1372,-62 1220,-62"/>
<text text-anchor="middle" x="1296" y="-69" font-family="Helvetica,sans-Serif" font-size="10.00">src/WillyWeather/precipitation.c</text>
</a>
</g>
</g>
<!-- Node18&#45;&gt;Node19 -->
<g id="edge27" class="edge">
<title>Node18&#45;&gt;Node19</title>
<path fill="none" stroke="midnightblue" d="M1296,-113.25C1296,-102.02 1296,-89.38 1296,-81.19"/>
<polygon fill="midnightblue" stroke="midnightblue" points="1292.5,-113.4 1296,-123.4 1299.5,-113.4 1292.5,-113.4"/>
</g>
<!-- Node20&#45;&gt;Node4 -->
<g id="edge29" class="edge">
<title>Node20&#45;&gt;Node4</title>
<path fill="none" stroke="midnightblue" d="M1604.41,-123.63C1602.93,-123.41 1601.46,-123.2 1600,-123 1291.63,-81.16 915.35,-73.99 793.85,-72.75"/>
<polygon fill="midnightblue" stroke="midnightblue" points="1603.87,-127.09 1614.31,-125.27 1605.02,-120.19 1603.87,-127.09"/>
</g>
<!-- Node21 -->
<g id="node21" class="node">
<title>Node21</title>
<g id="a_node21"><a xlink:href="tide_8c.html" target="_top" xlink:title=" ">
<polygon fill="none" stroke="black" points="1610,-62 1610,-81 1726,-81 1726,-62 1610,-62"/>
<text text-anchor="middle" x="1668" y="-69" font-family="Helvetica,sans-Serif" font-size="10.00">src/WillyWeather/tide.c</text>
</a>
</g>
</g>
<!-- Node20&#45;&gt;Node21 -->
<g id="edge30" class="edge">
<title>Node20&#45;&gt;Node21</title>
<path fill="none" stroke="midnightblue" d="M1668,-113.25C1668,-102.02 1668,-89.38 1668,-81.19"/>
<polygon fill="midnightblue" stroke="midnightblue" points="1664.5,-113.4 1668,-123.4 1671.5,-113.4 1664.5,-113.4"/>
</g>
<!-- Node24&#45;&gt;Node2 -->
<g id="edge46" class="edge">
<title>Node24&#45;&gt;Node2</title>
<path fill="none" stroke="midnightblue" d="M900.78,-374.04C881.61,-359.07 849.96,-336.53 819,-324 782.8,-309.35 679.93,-291.81 615.26,-281.73"/>
<polygon fill="midnightblue" stroke="midnightblue" points="898.66,-376.83 908.67,-380.32 903.02,-371.35 898.66,-376.83"/>
</g>
<!-- Node24&#45;&gt;Node3 -->
<g id="edge47" class="edge">
<title>Node24&#45;&gt;Node3</title>
<path fill="none" stroke="midnightblue" d="M870.61,-387.58C725.18,-382.5 294.92,-361.49 179,-288 138.36,-262.24 101.62,-226.48 133,-190 135.27,-187.36 317.67,-160.89 411.93,-147.37"/>
<polygon fill="midnightblue" stroke="midnightblue" points="870.87,-391.09 880.98,-387.93 871.11,-384.09 870.87,-391.09"/>
</g>
<!-- Node24&#45;&gt;Node8 -->
<g id="edge48" class="edge">
<title>Node24&#45;&gt;Node8</title>
<path fill="none" stroke="midnightblue" d="M913.4,-370.5C909.1,-357.23 902.6,-339.11 895,-324 887.18,-308.47 875.63,-291.85 868.47,-282.08"/>
<polygon fill="midnightblue" stroke="midnightblue" points="910.15,-371.83 916.48,-380.33 916.83,-369.74 910.15,-371.83"/>
</g>
<!-- Node24&#45;&gt;Node9 -->
<g id="edge49" class="edge">
<title>Node24&#45;&gt;Node9</title>
<path fill="none" stroke="midnightblue" d="M905.96,-372.67C893.36,-357.93 873,-336.68 851,-324 801.28,-295.35 771.99,-323.63 727,-288 702.29,-268.43 688.61,-231.72 683.44,-215.08"/>
<polygon fill="midnightblue" stroke="midnightblue" points="903.36,-375.01 912.43,-380.48 908.74,-370.55 903.36,-375.01"/>
</g>
<!-- Node24&#45;&gt;Node13 -->
<g id="edge50" class="edge">
<title>Node24&#45;&gt;Node13</title>
<path fill="none" stroke="midnightblue" d="M932.55,-372.18C963.01,-334.36 1036.04,-243.69 1058.98,-215.21"/>
<polygon fill="midnightblue" stroke="midnightblue" points="929.64,-370.21 926.09,-380.2 935.09,-374.61 929.64,-370.21"/>
</g>
<!-- Node24&#45;&gt;Node17 -->
<g id="edge51" class="edge">
<title>Node24&#45;&gt;Node17</title>
<path fill="none" stroke="midnightblue" d="M967.59,-387.8C1091.61,-384.33 1412.82,-372.65 1451,-344 1491.11,-313.91 1500.87,-249.29 1503.24,-220.66"/>
<polygon fill="midnightblue" stroke="midnightblue" points="967.16,-384.31 957.26,-388.08 967.35,-391.31 967.16,-384.31"/>
</g>
<!-- Node24&#45;&gt;Node18 -->
<g id="edge52" class="edge">
<title>Node24&#45;&gt;Node18</title>
<path fill="none" stroke="midnightblue" d="M967.2,-386.77C1081.1,-380.37 1361.6,-357.72 1418,-288 1433.46,-268.89 1414.23,-204.02 1403,-190 1389.33,-172.92 1368.51,-161.31 1348.87,-153.58"/>
<polygon fill="midnightblue" stroke="midnightblue" points="966.82,-383.28 957.03,-387.32 967.2,-390.27 966.82,-383.28"/>
</g>
<!-- Node24&#45;&gt;Node20 -->
<g id="edge53" class="edge">
<title>Node24&#45;&gt;Node20</title>
<path fill="none" stroke="midnightblue" d="M967.38,-388.83C1141.15,-386.99 1728.07,-369.71 1815,-221 1839,-179.94 1772.85,-158.12 1721.61,-147.7"/>
<polygon fill="midnightblue" stroke="midnightblue" points="967.22,-385.33 957.25,-388.92 967.29,-392.33 967.22,-385.33"/>
</g>
<!-- Node25 -->
<g id="node25" class="node">
<title>Node25</title>
<g id="a_node25"><a xlink:href="stations_8h.html" target="_top" xlink:title=" ">
<polygon fill="none" stroke="black" points="250,-196 250,-215 368,-215 368,-196 250,-196"/>
<text text-anchor="middle" x="309" y="-203" font-family="Helvetica,sans-Serif" font-size="10.00">include/BOM/stations.h</text>
</a>
</g>
</g>
<!-- Node24&#45;&gt;Node25 -->
<g id="edge39" class="edge">
<title>Node24&#45;&gt;Node25</title>
<path fill="none" stroke="midnightblue" d="M870.55,-380.33C791.13,-365.47 628.77,-332.4 496,-288 431.51,-266.44 358.57,-231.37 326.13,-215.19"/>
<polygon fill="midnightblue" stroke="midnightblue" points="870.27,-383.83 880.74,-382.22 871.55,-376.95 870.27,-383.83"/>
</g>
<!-- Node29 -->
<g id="node29" class="node">
<title>Node29</title>
<g id="a_node29"><a xlink:href="ftp_8h.html" target="_top" xlink:title=" ">
<polygon fill="none" stroke="black" points="187.5,-263 187.5,-282 256.5,-282 256.5,-263 187.5,-263"/>
<text text-anchor="middle" x="222" y="-270" font-family="Helvetica,sans-Serif" font-size="10.00">include/ftp.h</text>
</a>
</g>
</g>
<!-- Node24&#45;&gt;Node29 -->
<g id="edge54" class="edge">
<title>Node24&#45;&gt;Node29</title>
<path fill="none" stroke="midnightblue" d="M870.66,-380.99C738.1,-359.02 371.09,-298.21 256.59,-279.23"/>
<polygon fill="midnightblue" stroke="midnightblue" points="870.1,-384.44 880.53,-382.63 871.24,-377.54 870.1,-384.44"/>
</g>
<!-- Node31 -->
<g id="node31" class="node">
<title>Node31</title>
<g id="a_node31"><a xlink:href="http_8h.html" target="_top" xlink:title=" ">
<polygon fill="none" stroke="black" points="1073,-324.5 1073,-343.5 1147,-343.5 1147,-324.5 1073,-324.5"/>
<text text-anchor="middle" x="1110" y="-331.5" font-family="Helvetica,sans-Serif" font-size="10.00">include/http.h</text>
</a>
</g>
</g>
<!-- Node24&#45;&gt;Node31 -->
<g id="edge59" class="edge">
<title>Node24&#45;&gt;Node31</title>
<path fill="none" stroke="midnightblue" d="M958.97,-377.7C995.02,-367.51 1047.24,-352.74 1079.88,-343.52"/>
<polygon fill="midnightblue" stroke="midnightblue" points="957.94,-374.35 949.26,-380.44 959.84,-381.09 957.94,-374.35"/>
</g>
<!-- Node33 -->
<g id="node33" class="node">
<title>Node33</title>
<g id="a_node33"><a xlink:href="utils_8c.html" target="_top" xlink:title=" ">
<polygon fill="none" stroke="black" points="995.5,-324.5 995.5,-343.5 1054.5,-343.5 1054.5,-324.5 995.5,-324.5"/>
<text text-anchor="middle" x="1025" y="-331.5" font-family="Helvetica,sans-Serif" font-size="10.00">src/utils.c</text>
</a>
</g>
</g>
<!-- Node24&#45;&gt;Node33 -->
<g id="edge72" class="edge">
<title>Node24&#45;&gt;Node33</title>
<path fill="none" stroke="midnightblue" d="M945.06,-375.73C964.68,-365.73 991.03,-352.31 1008.01,-343.65"/>
<polygon fill="midnightblue" stroke="midnightblue" points="943.35,-372.67 936.03,-380.32 946.53,-378.9 943.35,-372.67"/>
</g>
<!-- Node25&#45;&gt;Node3 -->
<g id="edge43" class="edge">
<title>Node25&#45;&gt;Node3</title>
<path fill="none" stroke="midnightblue" d="M339.24,-192.06C366.01,-181.05 405.03,-164.99 432.9,-153.53"/>
<polygon fill="midnightblue" stroke="midnightblue" points="337.9,-188.83 329.98,-195.87 340.56,-195.3 337.9,-188.83"/>
</g>
<!-- Node25&#45;&gt;Node4 -->
<g id="edge44" class="edge">
<title>Node25&#45;&gt;Node4</title>
<path fill="none" stroke="midnightblue" d="M326.4,-188.97C352.31,-165.9 398.5,-125.06 403,-123 457.88,-97.93 634.47,-81.64 714.24,-75.39"/>
<polygon fill="midnightblue" stroke="midnightblue" points="323.91,-186.49 318.78,-195.76 328.57,-191.72 323.91,-186.49"/>
</g>
<!-- Node26 -->
<g id="node26" class="node">
<title>Node26</title>
<g id="a_node26"><a xlink:href="historical__weather_8h.html" target="_top" xlink:title=" ">
<polygon fill="none" stroke="black" points="78.5,-123.5 78.5,-153.5 193.5,-153.5 193.5,-123.5 78.5,-123.5"/>
<text text-anchor="start" x="86.5" y="-141.5" font-family="Helvetica,sans-Serif" font-size="10.00">include/BOM/historical</text>
<text text-anchor="middle" x="136" y="-130.5" font-family="Helvetica,sans-Serif" font-size="10.00">_weather.h</text>
</a>
</g>
</g>
<!-- Node25&#45;&gt;Node26 -->
<g id="edge40" class="edge">
<title>Node25&#45;&gt;Node26</title>
<path fill="none" stroke="midnightblue" d="M276.65,-192.35C247.33,-181.33 204.12,-165.09 173.34,-153.53"/>
<polygon fill="midnightblue" stroke="midnightblue" points="275.43,-195.63 286.03,-195.87 277.9,-189.07 275.43,-195.63"/>
</g>
<!-- Node28 -->
<g id="node28" class="node">
<title>Node28</title>
<g id="a_node28"><a xlink:href="stations_8c.html" target="_top" xlink:title=" ">
<polygon fill="none" stroke="black" points="254.5,-129 254.5,-148 355.5,-148 355.5,-129 254.5,-129"/>
<text text-anchor="middle" x="305" y="-136" font-family="Helvetica,sans-Serif" font-size="10.00">src/BOM/stations.c</text>
</a>
</g>
</g>
<!-- Node25&#45;&gt;Node28 -->
<g id="edge45" class="edge">
<title>Node25&#45;&gt;Node28</title>
<path fill="none" stroke="midnightblue" d="M307.83,-185.54C307.07,-173.17 306.12,-157.62 305.53,-148.13"/>
<polygon fill="midnightblue" stroke="midnightblue" points="304.35,-185.97 308.46,-195.73 311.34,-185.54 304.35,-185.97"/>
</g>
<!-- Node26&#45;&gt;Node4 -->
<g id="edge41" class="edge">
<title>Node26&#45;&gt;Node4</title>
<path fill="none" stroke="midnightblue" d="M203.58,-123.67C205.07,-123.44 206.54,-123.21 208,-123 306.08,-108.63 605.9,-84.22 714.34,-75.62"/>
<polygon fill="midnightblue" stroke="midnightblue" points="202.96,-120.23 193.67,-125.32 204.11,-127.13 202.96,-120.23"/>
</g>
<!-- Node27 -->
<g id="node27" class="node">
<title>Node27</title>
<g id="a_node27"><a xlink:href="historical__weather_8c.html" target="_top" xlink:title=" ">
<polygon fill="none" stroke="black" points="87,-56.5 87,-86.5 185,-86.5 185,-56.5 87,-56.5"/>
<text text-anchor="start" x="95" y="-74.5" font-family="Helvetica,sans-Serif" font-size="10.00">src/BOM/historical</text>
<text text-anchor="middle" x="136" y="-63.5" font-family="Helvetica,sans-Serif" font-size="10.00">_weather.c</text>
</a>
</g>
</g>
<!-- Node26&#45;&gt;Node27 -->
<g id="edge42" class="edge">
<title>Node26&#45;&gt;Node27</title>
<path fill="none" stroke="midnightblue" d="M136,-113.11C136,-104.15 136,-94.32 136,-86.58"/>
<polygon fill="midnightblue" stroke="midnightblue" points="132.5,-113.4 136,-123.4 139.5,-113.4 132.5,-113.4"/>
</g>
<!-- Node29&#45;&gt;Node4 -->
<g id="edge57" class="edge">
<title>Node29&#45;&gt;Node4</title>
<path fill="none" stroke="midnightblue" d="M218.6,-252.71C214.05,-220.9 210.25,-156.63 246,-123 263.05,-106.96 597.88,-83.01 714.42,-75.12"/>
<polygon fill="midnightblue" stroke="midnightblue" points="215.19,-253.53 220.24,-262.85 222.1,-252.42 215.19,-253.53"/>
</g>
<!-- Node29&#45;&gt;Node25 -->
<g id="edge56" class="edge">
<title>Node29&#45;&gt;Node25</title>
<path fill="none" stroke="midnightblue" d="M241.99,-256.57C259.16,-243.74 283.32,-225.69 297.45,-215.13"/>
<polygon fill="midnightblue" stroke="midnightblue" points="239.65,-253.94 233.73,-262.73 243.84,-259.55 239.65,-253.94"/>
</g>
<!-- Node29&#45;&gt;Node26 -->
<g id="edge55" class="edge">
<title>Node29&#45;&gt;Node26</title>
<path fill="none" stroke="midnightblue" d="M181.66,-259.16C163.41,-251.34 143.58,-239.17 133,-221 120.82,-200.08 126.25,-170.74 131.2,-153.57"/>
<polygon fill="midnightblue" stroke="midnightblue" points="180.42,-262.44 191.01,-262.87 183,-255.93 180.42,-262.44"/>
</g>
<!-- Node30 -->
<g id="node30" class="node">
<title>Node30</title>
<g id="a_node30"><a xlink:href="ftp_8c.html" target="_top" xlink:title=" ">
<polygon fill="none" stroke="black" points="142,-196 142,-215 194,-215 194,-196 142,-196"/>
<text text-anchor="middle" x="168" y="-203" font-family="Helvetica,sans-Serif" font-size="10.00">src/ftp.c</text>
</a>
</g>
</g>
<!-- Node29&#45;&gt;Node30 -->
<g id="edge58" class="edge">
<title>Node29&#45;&gt;Node30</title>
<path fill="none" stroke="midnightblue" d="M208.1,-254.77C197.57,-242.1 183.54,-225.2 175.17,-215.13"/>
<polygon fill="midnightblue" stroke="midnightblue" points="205.63,-257.28 214.72,-262.73 211.02,-252.81 205.63,-257.28"/>
</g>
<!-- Node31&#45;&gt;Node2 -->
<g id="edge60" class="edge">
<title>Node31&#45;&gt;Node2</title>
<path fill="none" stroke="midnightblue" d="M1062.69,-324.26C1006.01,-318.13 733.75,-290.88 615.2,-279.02"/>
<polygon fill="midnightblue" stroke="midnightblue" points="1062.56,-327.77 1072.89,-325.43 1063.36,-320.81 1062.56,-327.77"/>
</g>
<!-- Node31&#45;&gt;Node3 -->
<g id="edge61" class="edge">
<title>Node31&#45;&gt;Node3</title>
<path fill="none" stroke="midnightblue" d="M1090.96,-317.72C1080.48,-309.17 1067.34,-298.2 1056,-288 1032.75,-267.09 983.37,-203.16 955,-190 880.86,-155.62 670.25,-162.82 589,-154 567.16,-151.63 543.14,-148.82 522.24,-146.31"/>
<polygon fill="midnightblue" stroke="midnightblue" points="1089.07,-320.69 1099.04,-324.27 1093.47,-315.25 1089.07,-320.69"/>
</g>
<!-- Node31&#45;&gt;Node4 -->
<g id="edge70" class="edge">
<title>Node31&#45;&gt;Node4</title>
<path fill="none" stroke="midnightblue" d="M1102.71,-314.47C1097.64,-298.6 1093.07,-275.45 1101,-257 1110.19,-235.63 1129.81,-242.37 1139,-221 1144.44,-208.34 1144.41,-202.67 1139,-190 1122.09,-150.4 1107.57,-142.17 1069,-123 1021.26,-99.27 867.21,-82.68 793.72,-75.9"/>
<polygon fill="midnightblue" stroke="midnightblue" points="1099.51,-315.91 1106.16,-324.15 1106.1,-313.56 1099.51,-315.91"/>
</g>
<!-- Node31&#45;&gt;Node8 -->
<g id="edge62" class="edge">
<title>Node31&#45;&gt;Node8</title>
<path fill="none" stroke="midnightblue" d="M1064.63,-322.11C1016.49,-310.57 941.45,-292.56 897.47,-282.01"/>
<polygon fill="midnightblue" stroke="midnightblue" points="1063.93,-325.55 1074.47,-324.48 1065.56,-318.74 1063.93,-325.55"/>
</g>
<!-- Node31&#45;&gt;Node9 -->
<g id="edge63" class="edge">
<title>Node31&#45;&gt;Node9</title>
<path fill="none" stroke="midnightblue" d="M1062.71,-323.96C934.87,-305.42 891.69,-338.44 777,-288 737.97,-270.84 702.7,-232.53 688.11,-215.25"/>
<polygon fill="midnightblue" stroke="midnightblue" points="1062.47,-327.46 1072.88,-325.51 1063.53,-320.54 1062.47,-327.46"/>
</g>
<!-- Node31&#45;&gt;Node12 -->
<g id="edge64" class="edge">
<title>Node31&#45;&gt;Node12</title>
<path fill="none" stroke="midnightblue" d="M1151.99,-321.9C1195.69,-310.34 1263.17,-292.5 1302.82,-282.01"/>
<polygon fill="midnightblue" stroke="midnightblue" points="1151.01,-318.53 1142.24,-324.48 1152.8,-325.3 1151.01,-318.53"/>
</g>
<!-- Node31&#45;&gt;Node13 -->
<g id="edge65" class="edge">
<title>Node31&#45;&gt;Node13</title>
<path fill="none" stroke="midnightblue" d="M1089.82,-317.83C1081.07,-310 1071.75,-299.64 1067,-288 1056.95,-263.37 1061.12,-230.96 1064.05,-215.48"/>
<polygon fill="midnightblue" stroke="midnightblue" points="1087.63,-320.56 1097.55,-324.28 1092.11,-315.19 1087.63,-320.56"/>
</g>
<!-- Node31&#45;&gt;Node16 -->
<g id="edge66" class="edge">
<title>Node31&#45;&gt;Node16</title>
<path fill="none" stroke="midnightblue" d="M1157.33,-327.62C1254.67,-316.54 1476.78,-291.27 1579.31,-279.61"/>
<polygon fill="midnightblue" stroke="midnightblue" points="1156.73,-324.16 1147.19,-328.77 1157.53,-331.12 1156.73,-324.16"/>
</g>
<!-- Node31&#45;&gt;Node17 -->
<g id="edge67" class="edge">
<title>Node31&#45;&gt;Node17</title>
<path fill="none" stroke="midnightblue" d="M1157.21,-329.6C1231.77,-323.65 1372.96,-309.86 1418,-288 1450.57,-272.19 1479.01,-239.6 1493.6,-220.77"/>
<polygon fill="midnightblue" stroke="midnightblue" points="1156.84,-326.12 1147.15,-330.39 1157.39,-333.1 1156.84,-326.12"/>
</g>
<!-- Node31&#45;&gt;Node18 -->
<g id="edge68" class="edge">
<title>Node31&#45;&gt;Node18</title>
<path fill="none" stroke="midnightblue" d="M1136.43,-319.56C1149.67,-311.78 1165.15,-300.96 1176,-288 1206.65,-251.4 1189.13,-226.42 1220,-190 1232.91,-174.77 1251.52,-162.3 1267.09,-153.56"/>
<polygon fill="midnightblue" stroke="midnightblue" points="1134.72,-316.5 1127.71,-324.45 1138.14,-322.61 1134.72,-316.5"/>
</g>
<!-- Node31&#45;&gt;Node20 -->
<g id="edge69" class="edge">
<title>Node31&#45;&gt;Node20</title>
<path fill="none" stroke="midnightblue" d="M1144.86,-320.71C1162.33,-313.26 1182.92,-302.4 1198,-288 1234.29,-253.36 1212.12,-217.62 1254,-190 1312.45,-151.45 1497.56,-162.98 1567,-154 1582.37,-152.01 1599.04,-149.69 1614.31,-147.49"/>
<polygon fill="midnightblue" stroke="midnightblue" points="1143.48,-317.49 1135.53,-324.49 1146.11,-323.98 1143.48,-317.49"/>
</g>
<!-- Node32 -->
<g id="node32" class="node">
<title>Node32</title>
<g id="a_node32"><a xlink:href="http_8c.html" target="_top" xlink:title=" ">
<polygon fill="none" stroke="black" points="1109.5,-263 1109.5,-282 1166.5,-282 1166.5,-263 1109.5,-263"/>
<text text-anchor="middle" x="1138" y="-270" font-family="Helvetica,sans-Serif" font-size="10.00">src/http.c</text>
</a>
</g>
</g>
<!-- Node31&#45;&gt;Node32 -->
<g id="edge71" class="edge">
<title>Node31&#45;&gt;Node32</title>
<path fill="none" stroke="midnightblue" d="M1118.31,-315.33C1123.49,-304.33 1129.92,-290.66 1134,-282.01"/>
<polygon fill="midnightblue" stroke="midnightblue" points="1115.1,-313.94 1114.01,-324.48 1121.44,-316.92 1115.1,-313.94"/>
</g>
</g>
</svg>
