<?xml version="1.0" encoding="UTF-8" standalone="no"?>
<!DOCTYPE svg PUBLIC "-//W3C//DTD SVG 1.1//EN"
 "http://www.w3.org/Graphics/SVG/1.1/DTD/svg11.dtd">
<!-- Generated by graphviz version 2.49.3 (20211027.1534)
 -->
<!-- Title: include/log.h Pages: 1 -->
<svg width="1510pt" height="341pt"
 viewBox="0.00 0.00 1509.50 341.00" xmlns="http://www.w3.org/2000/svg" xmlns:xlink="http://www.w3.org/1999/xlink">
<g id="graph0" class="graph" transform="scale(1 1) rotate(0) translate(4 337)">
<title>include/log.h</title>
<!-- Node1 -->
<g id="node1" class="node">
<title>Node1</title>
<g id="a_node1"><a xlink:title=" ">
<polygon fill="#bfbfbf" stroke="black" points="851.5,-313.5 851.5,-332.5 922.5,-332.5 922.5,-313.5 851.5,-313.5"/>
<text text-anchor="middle" x="887" y="-320.5" font-family="Helvetica,sans-Serif" font-size="10.00">include/log.h</text>
</a>
</g>
</g>
<!-- Node2 -->
<g id="node2" class="node">
<title>Node2</title>
<g id="a_node2"><a xlink:href="harvest__area_8h.html" target="_top" xlink:title=" ">
<polygon fill="none" stroke="black" points="321,-179.5 321,-209.5 431,-209.5 431,-179.5 321,-179.5"/>
<text text-anchor="start" x="329" y="-197.5" font-family="Helvetica,sans-Serif" font-size="10.00">include/FoodAuthority</text>
<text text-anchor="middle" x="376" y="-186.5" font-family="Helvetica,sans-Serif" font-size="10.00">/harvest_area.h</text>
</a>
</g>
</g>
<!-- Node1&#45;&gt;Node2 -->
<g id="edge1" class="edge">
<title>Node1&#45;&gt;Node2</title>
<path fill="none" stroke="midnightblue" d="M840.77,-319.22C778.19,-314.61 663.49,-303.16 569,-277 507.48,-259.97 439.61,-227.99 403,-209.56"/>
<polygon fill="midnightblue" stroke="midnightblue" points="840.87,-322.74 851.09,-319.95 841.37,-315.75 840.87,-322.74"/>
</g>
<!-- Node3 -->
<g id="node3" class="node">
<title>Node3</title>
<g id="a_node3"><a xlink:href="main_8h.html" target="_top" xlink:title=" ">
<polygon fill="none" stroke="black" points="589.5,-56.5 589.5,-75.5 668.5,-75.5 668.5,-56.5 589.5,-56.5"/>
<text text-anchor="middle" x="629" y="-63.5" font-family="Helvetica,sans-Serif" font-size="10.00">include/main.h</text>
</a>
</g>
</g>
<!-- Node1&#45;&gt;Node3 -->
<g id="edge29" class="edge">
<title>Node1&#45;&gt;Node3</title>
<path fill="none" stroke="midnightblue" d="M923.93,-309.54C940.16,-302.36 958.18,-291.76 970,-277 997.73,-242.37 1012.21,-216.81 989,-179 954.58,-122.93 919.19,-133.46 857,-112 792.92,-89.89 714.76,-77.42 668.59,-71.46"/>
<polygon fill="midnightblue" stroke="midnightblue" points="922.54,-306.33 914.64,-313.39 925.21,-312.8 922.54,-306.33"/>
</g>
<!-- Node6 -->
<g id="node6" class="node">
<title>Node6</title>
<g id="a_node6"><a xlink:href="_i_b_m___e_i_s_2authenticate_8h.html" target="_top" xlink:title=" ">
<polygon fill="none" stroke="black" points="73.5,-185 73.5,-204 226.5,-204 226.5,-185 73.5,-185"/>
<text text-anchor="middle" x="150" y="-192" font-family="Helvetica,sans-Serif" font-size="10.00">include/IBM_EIS/authenticate.h</text>
</a>
</g>
</g>
<!-- Node1&#45;&gt;Node6 -->
<g id="edge5" class="edge">
<title>Node1&#45;&gt;Node6</title>
<path fill="none" stroke="midnightblue" d="M840.84,-322.63C711.72,-323.79 349.27,-322.77 241,-277 202.71,-260.81 169.71,-221.64 156.34,-204.16"/>
<polygon fill="midnightblue" stroke="midnightblue" points="841.2,-326.13 851.16,-322.53 841.13,-319.13 841.2,-326.13"/>
</g>
<!-- Node7 -->
<g id="node7" class="node">
<title>Node7</title>
<g id="a_node7"><a xlink:href="timeseries_8h.html" target="_top" xlink:title=" ">
<polygon fill="none" stroke="black" points="192.5,-118 192.5,-137 337.5,-137 337.5,-118 192.5,-118"/>
<text text-anchor="middle" x="265" y="-125" font-family="Helvetica,sans-Serif" font-size="10.00">include/IBM_EIS/timeseries.h</text>
</a>
</g>
</g>
<!-- Node1&#45;&gt;Node7 -->
<g id="edge11" class="edge">
<title>Node1&#45;&gt;Node7</title>
<path fill="none" stroke="midnightblue" d="M841.07,-320.24C764.83,-316.58 607.68,-305.93 478,-277 388.15,-256.96 342.95,-279 282,-210 263.63,-189.2 263.25,-153.76 264.21,-137.33"/>
<polygon fill="midnightblue" stroke="midnightblue" points="841.13,-323.74 851.28,-320.71 841.46,-316.75 841.13,-323.74"/>
</g>
<!-- Node10 -->
<g id="node10" class="node">
<title>Node10</title>
<g id="a_node10"><a xlink:href="_ubidots_2authenticate_8h.html" target="_top" xlink:title=" ">
<polygon fill="none" stroke="black" points="813,-252 813,-271 961,-271 961,-252 813,-252"/>
<text text-anchor="middle" x="887" y="-259" font-family="Helvetica,sans-Serif" font-size="10.00">include/Ubidots/authenticate.h</text>
</a>
</g>
</g>
<!-- Node1&#45;&gt;Node10 -->
<g id="edge12" class="edge">
<title>Node1&#45;&gt;Node10</title>
<path fill="none" stroke="midnightblue" d="M887,-303.32C887,-292.5 887,-279.4 887,-271.01"/>
<polygon fill="midnightblue" stroke="midnightblue" points="883.5,-303.48 887,-313.48 890.5,-303.48 883.5,-303.48"/>
</g>
<!-- Node11 -->
<g id="node11" class="node">
<title>Node11</title>
<g id="a_node11"><a xlink:href="devices_8h.html" target="_top" xlink:title=" ">
<polygon fill="none" stroke="black" points="664,-185 664,-204 792,-204 792,-185 664,-185"/>
<text text-anchor="middle" x="728" y="-192" font-family="Helvetica,sans-Serif" font-size="10.00">include/Ubidots/devices.h</text>
</a>
</g>
</g>
<!-- Node1&#45;&gt;Node11 -->
<g id="edge17" class="edge">
<title>Node1&#45;&gt;Node11</title>
<path fill="none" stroke="midnightblue" d="M857.91,-309.11C841.31,-301.07 820.58,-289.83 804,-277 774.78,-254.39 746.85,-220.15 734.56,-204.22"/>
<polygon fill="midnightblue" stroke="midnightblue" points="856.6,-312.36 867.14,-313.46 859.58,-306.03 856.6,-312.36"/>
</g>
<!-- Node14 -->
<g id="node14" class="node">
<title>Node14</title>
<g id="a_node14"><a xlink:href="_willy_weather_2authenticate_8h.html" target="_top" xlink:title=" ">
<polygon fill="none" stroke="black" points="1118.5,-246.5 1118.5,-276.5 1225.5,-276.5 1225.5,-246.5 1118.5,-246.5"/>
<text text-anchor="start" x="1126.5" y="-264.5" font-family="Helvetica,sans-Serif" font-size="10.00">include/WillyWeather</text>
<text text-anchor="middle" x="1172" y="-253.5" font-family="Helvetica,sans-Serif" font-size="10.00">/authenticate.h</text>
</a>
</g>
</g>
<!-- Node1&#45;&gt;Node14 -->
<g id="edge18" class="edge">
<title>Node1&#45;&gt;Node14</title>
<path fill="none" stroke="midnightblue" d="M932.51,-312.5C983.05,-301.95 1064.59,-284.92 1118.25,-273.72"/>
<polygon fill="midnightblue" stroke="midnightblue" points="931.59,-309.11 922.52,-314.58 933.02,-315.97 931.59,-309.11"/>
</g>
<!-- Node15 -->
<g id="node15" class="node">
<title>Node15</title>
<g id="a_node15"><a xlink:href="location_8h.html" target="_top" xlink:title=" ">
<polygon fill="none" stroke="black" points="1036.5,-179.5 1036.5,-209.5 1143.5,-209.5 1143.5,-179.5 1036.5,-179.5"/>
<text text-anchor="start" x="1044.5" y="-197.5" font-family="Helvetica,sans-Serif" font-size="10.00">include/WillyWeather</text>
<text text-anchor="middle" x="1090" y="-186.5" font-family="Helvetica,sans-Serif" font-size="10.00">/location.h</text>
</a>
</g>
</g>
<!-- Node1&#45;&gt;Node15 -->
<g id="edge27" class="edge">
<title>Node1&#45;&gt;Node15</title>
<path fill="none" stroke="midnightblue" d="M932.49,-313.46C960.11,-306.73 995.1,-295.35 1022,-277 1048.49,-258.93 1070.38,-227.77 1081.69,-209.67"/>
<polygon fill="midnightblue" stroke="midnightblue" points="931.63,-310.07 922.68,-315.73 933.21,-316.89 931.63,-310.07"/>
</g>
<!-- Node16 -->
<g id="node16" class="node">
<title>Node16</title>
<g id="a_node16"><a xlink:href="tide_8h.html" target="_top" xlink:title=" ">
<polygon fill="none" stroke="black" points="1200.5,-112.5 1200.5,-142.5 1307.5,-142.5 1307.5,-112.5 1200.5,-112.5"/>
<text text-anchor="start" x="1208.5" y="-130.5" font-family="Helvetica,sans-Serif" font-size="10.00">include/WillyWeather</text>
<text text-anchor="middle" x="1254" y="-119.5" font-family="Helvetica,sans-Serif" font-size="10.00">/tide.h</text>
</a>
</g>
</g>
<!-- Node1&#45;&gt;Node16 -->
<g id="edge28" class="edge">
<title>Node1&#45;&gt;Node16</title>
<path fill="none" stroke="midnightblue" d="M932.69,-319.41C1045.35,-311.89 1330.81,-285.57 1379,-210 1400.52,-176.25 1350.54,-153.55 1307.52,-140.86"/>
<polygon fill="midnightblue" stroke="midnightblue" points="932.41,-315.92 922.66,-320.06 932.86,-322.9 932.41,-315.92"/>
</g>
<!-- Node20 -->
<g id="node20" class="node">
<title>Node20</title>
<g id="a_node20"><a xlink:href="utils_8h.html" target="_top" xlink:title=" ">
<polygon fill="none" stroke="black" points="578,-252 578,-271 654,-271 654,-252 578,-252"/>
<text text-anchor="middle" x="616" y="-259" font-family="Helvetica,sans-Serif" font-size="10.00">include/utils.h</text>
</a>
</g>
</g>
<!-- Node1&#45;&gt;Node20 -->
<g id="edge30" class="edge">
<title>Node1&#45;&gt;Node20</title>
<path fill="none" stroke="midnightblue" d="M841.25,-311.96C788.76,-300.43 703.61,-281.73 654.41,-270.93"/>
<polygon fill="midnightblue" stroke="midnightblue" points="840.77,-315.43 851.29,-314.16 842.28,-308.6 840.77,-315.43"/>
</g>
<!-- Node24 -->
<g id="node24" class="node">
<title>Node24</title>
<g id="a_node24"><a xlink:href="log_8c.html" target="_top" xlink:title=" ">
<polygon fill="none" stroke="black" points="1448.5,-252 1448.5,-271 1501.5,-271 1501.5,-252 1448.5,-252"/>
<text text-anchor="middle" x="1475" y="-259" font-family="Helvetica,sans-Serif" font-size="10.00">src/log.c</text>
</a>
</g>
</g>
<!-- Node1&#45;&gt;Node24 -->
<g id="edge41" class="edge">
<title>Node1&#45;&gt;Node24</title>
<path fill="none" stroke="midnightblue" d="M932.75,-322.19C1027.42,-321.72 1251.24,-316.15 1434,-277 1440.64,-275.58 1447.68,-273.36 1454.02,-271.09"/>
<polygon fill="midnightblue" stroke="midnightblue" points="932.65,-318.69 922.66,-322.22 932.67,-325.69 932.65,-318.69"/>
</g>
<!-- Node2&#45;&gt;Node3 -->
<g id="edge2" class="edge">
<title>Node2&#45;&gt;Node3</title>
<path fill="none" stroke="midnightblue" d="M371.67,-169.26C369.93,-151.18 370.96,-127.09 385,-112 412.14,-82.82 527.48,-72.32 589.37,-68.73"/>
<polygon fill="midnightblue" stroke="midnightblue" points="368.22,-169.89 372.99,-179.35 375.17,-168.99 368.22,-169.89"/>
</g>
<!-- Node5 -->
<g id="node5" class="node">
<title>Node5</title>
<g id="a_node5"><a xlink:href="harvest__area_8c.html" target="_top" xlink:title=" ">
<polygon fill="none" stroke="black" points="394,-112.5 394,-142.5 522,-142.5 522,-112.5 394,-112.5"/>
<text text-anchor="start" x="402" y="-130.5" font-family="Helvetica,sans-Serif" font-size="10.00">src/FoodAuthority/harvest</text>
<text text-anchor="middle" x="458" y="-119.5" font-family="Helvetica,sans-Serif" font-size="10.00">_area.c</text>
</a>
</g>
</g>
<!-- Node2&#45;&gt;Node5 -->
<g id="edge4" class="edge">
<title>Node2&#45;&gt;Node5</title>
<path fill="none" stroke="midnightblue" d="M401.65,-173.17C414.19,-163.23 428.97,-151.51 440.24,-142.58"/>
<polygon fill="midnightblue" stroke="midnightblue" points="399.46,-170.44 393.79,-179.4 403.8,-175.93 399.46,-170.44"/>
</g>
<!-- Node4 -->
<g id="node4" class="node">
<title>Node4</title>
<g id="a_node4"><a xlink:href="main_8c.html" target="_top" xlink:title=" ">
<polygon fill="none" stroke="black" points="598,-0.5 598,-19.5 660,-19.5 660,-0.5 598,-0.5"/>
<text text-anchor="middle" x="629" y="-7.5" font-family="Helvetica,sans-Serif" font-size="10.00">src/main.c</text>
</a>
</g>
</g>
<!-- Node3&#45;&gt;Node4 -->
<g id="edge3" class="edge">
<title>Node3&#45;&gt;Node4</title>
<path fill="none" stroke="midnightblue" d="M629,-45.8C629,-36.91 629,-26.78 629,-19.75"/>
<polygon fill="midnightblue" stroke="midnightblue" points="625.5,-46.08 629,-56.08 632.5,-46.08 625.5,-46.08"/>
</g>
<!-- Node6&#45;&gt;Node3 -->
<g id="edge9" class="edge">
<title>Node6&#45;&gt;Node3</title>
<path fill="none" stroke="midnightblue" d="M152.06,-174.69C155.23,-155.62 163.18,-126.86 183,-112 215.18,-87.87 486.29,-73.36 589.4,-68.68"/>
<polygon fill="midnightblue" stroke="midnightblue" points="148.56,-174.48 150.67,-184.86 155.49,-175.43 148.56,-174.48"/>
</g>
<!-- Node6&#45;&gt;Node7 -->
<g id="edge6" class="edge">
<title>Node6&#45;&gt;Node7</title>
<path fill="none" stroke="midnightblue" d="M174.26,-179.79C197.05,-166.9 230.46,-148.02 249.74,-137.13"/>
<polygon fill="midnightblue" stroke="midnightblue" points="172.49,-176.77 165.51,-184.73 175.94,-182.86 172.49,-176.77"/>
</g>
<!-- Node9 -->
<g id="node9" class="node">
<title>Node9</title>
<g id="a_node9"><a xlink:href="_i_b_m___e_i_s_2authenticate_8c.html" target="_top" xlink:title=" ">
<polygon fill="none" stroke="black" points="0,-118 0,-137 136,-137 136,-118 0,-118"/>
<text text-anchor="middle" x="68" y="-125" font-family="Helvetica,sans-Serif" font-size="10.00">src/IBM_EIS/authenticate.c</text>
</a>
</g>
</g>
<!-- Node6&#45;&gt;Node9 -->
<g id="edge10" class="edge">
<title>Node6&#45;&gt;Node9</title>
<path fill="none" stroke="midnightblue" d="M130.72,-178.21C114.56,-165.41 92.08,-147.59 78.88,-137.13"/>
<polygon fill="midnightblue" stroke="midnightblue" points="128.93,-181.26 138.94,-184.73 133.28,-175.78 128.93,-181.26"/>
</g>
<!-- Node7&#45;&gt;Node3 -->
<g id="edge7" class="edge">
<title>Node7&#45;&gt;Node3</title>
<path fill="none" stroke="midnightblue" d="M326.15,-116.28C334.83,-114.83 343.64,-113.38 352,-112 436.37,-98.12 535.24,-82.12 589.08,-73.43"/>
<polygon fill="midnightblue" stroke="midnightblue" points="325.35,-112.86 316.06,-117.95 326.5,-119.77 325.35,-112.86"/>
</g>
<!-- Node8 -->
<g id="node8" class="node">
<title>Node8</title>
<g id="a_node8"><a xlink:href="timeseries_8c.html" target="_top" xlink:title=" ">
<polygon fill="none" stroke="black" points="201,-56.5 201,-75.5 329,-75.5 329,-56.5 201,-56.5"/>
<text text-anchor="middle" x="265" y="-63.5" font-family="Helvetica,sans-Serif" font-size="10.00">src/IBM_EIS/timeseries.c</text>
</a>
</g>
</g>
<!-- Node7&#45;&gt;Node8 -->
<g id="edge8" class="edge">
<title>Node7&#45;&gt;Node8</title>
<path fill="none" stroke="midnightblue" d="M265,-107.82C265,-97 265,-83.9 265,-75.51"/>
<polygon fill="midnightblue" stroke="midnightblue" points="261.5,-107.98 265,-117.98 268.5,-107.98 261.5,-107.98"/>
</g>
<!-- Node10&#45;&gt;Node11 -->
<g id="edge13" class="edge">
<title>Node10&#45;&gt;Node11</title>
<path fill="none" stroke="midnightblue" d="M856.27,-247.94C824.69,-235.03 776.38,-215.28 748.95,-204.06"/>
<polygon fill="midnightblue" stroke="midnightblue" points="855.31,-251.32 865.89,-251.87 857.95,-244.84 855.31,-251.32"/>
</g>
<!-- Node13 -->
<g id="node13" class="node">
<title>Node13</title>
<g id="a_node13"><a xlink:href="_ubidots_2authenticate_8c.html" target="_top" xlink:title=" ">
<polygon fill="none" stroke="black" points="848.5,-185 848.5,-204 979.5,-204 979.5,-185 848.5,-185"/>
<text text-anchor="middle" x="914" y="-192" font-family="Helvetica,sans-Serif" font-size="10.00">src/Ubidots/authenticate.c</text>
</a>
</g>
</g>
<!-- Node10&#45;&gt;Node13 -->
<g id="edge16" class="edge">
<title>Node10&#45;&gt;Node13</title>
<path fill="none" stroke="midnightblue" d="M894.56,-242.29C899.75,-229.81 906.39,-213.81 910.42,-204.13"/>
<polygon fill="midnightblue" stroke="midnightblue" points="891.25,-241.16 890.64,-251.73 897.71,-243.84 891.25,-241.16"/>
</g>
<!-- Node11&#45;&gt;Node3 -->
<g id="edge14" class="edge">
<title>Node11&#45;&gt;Node3</title>
<path fill="none" stroke="midnightblue" d="M722.16,-175.3C715.91,-157.78 704.73,-131.19 689,-112 676.37,-96.59 657.4,-83.53 644.19,-75.51"/>
<polygon fill="midnightblue" stroke="midnightblue" points="718.88,-176.54 725.41,-184.89 725.51,-174.29 718.88,-176.54"/>
</g>
<!-- Node12 -->
<g id="node12" class="node">
<title>Node12</title>
<g id="a_node12"><a xlink:href="devices_8c.html" target="_top" xlink:title=" ">
<polygon fill="none" stroke="black" points="736.5,-118 736.5,-137 847.5,-137 847.5,-118 736.5,-118"/>
<text text-anchor="middle" x="792" y="-125" font-family="Helvetica,sans-Serif" font-size="10.00">src/Ubidots/devices.c</text>
</a>
</g>
</g>
<!-- Node11&#45;&gt;Node12 -->
<g id="edge15" class="edge">
<title>Node11&#45;&gt;Node12</title>
<path fill="none" stroke="midnightblue" d="M743.76,-177.5C756.31,-164.75 773.4,-147.39 783.51,-137.13"/>
<polygon fill="midnightblue" stroke="midnightblue" points="741.15,-175.15 736.63,-184.73 746.14,-180.06 741.15,-175.15"/>
</g>
<!-- Node14&#45;&gt;Node3 -->
<g id="edge25" class="edge">
<title>Node14&#45;&gt;Node3</title>
<path fill="none" stroke="midnightblue" d="M1177.17,-235.9C1182.57,-202.64 1186.2,-143.85 1153,-112 1118.24,-78.66 784.81,-69.71 668.66,-67.59"/>
<polygon fill="midnightblue" stroke="midnightblue" points="1173.66,-235.66 1175.33,-246.12 1180.55,-236.9 1173.66,-235.66"/>
</g>
<!-- Node14&#45;&gt;Node15 -->
<g id="edge19" class="edge">
<title>Node14&#45;&gt;Node15</title>
<path fill="none" stroke="midnightblue" d="M1146.35,-240.17C1133.81,-230.23 1119.03,-218.51 1107.76,-209.58"/>
<polygon fill="midnightblue" stroke="midnightblue" points="1144.2,-242.93 1154.21,-246.4 1148.54,-237.44 1144.2,-242.93"/>
</g>
<!-- Node14&#45;&gt;Node16 -->
<g id="edge24" class="edge">
<title>Node14&#45;&gt;Node16</title>
<path fill="none" stroke="midnightblue" d="M1235.82,-252.05C1285.08,-244.07 1347.39,-230.28 1363,-210 1385.56,-180.7 1339.8,-156.77 1300.82,-142.59"/>
<polygon fill="midnightblue" stroke="midnightblue" points="1235.18,-248.61 1225.85,-253.62 1236.27,-255.53 1235.18,-248.61"/>
</g>
<!-- Node19 -->
<g id="node19" class="node">
<title>Node19</title>
<g id="a_node19"><a xlink:href="_willy_weather_2authenticate_8c.html" target="_top" xlink:title=" ">
<polygon fill="none" stroke="black" points="1200.5,-185 1200.5,-204 1353.5,-204 1353.5,-185 1200.5,-185"/>
<text text-anchor="middle" x="1277" y="-192" font-family="Helvetica,sans-Serif" font-size="10.00">src/WillyWeather/authenticate.c</text>
</a>
</g>
</g>
<!-- Node14&#45;&gt;Node19 -->
<g id="edge26" class="edge">
<title>Node14&#45;&gt;Node19</title>
<path fill="none" stroke="midnightblue" d="M1203.54,-240.97C1223.45,-228.65 1248.17,-213.35 1263.26,-204.01"/>
<polygon fill="midnightblue" stroke="midnightblue" points="1201.44,-238.16 1194.78,-246.4 1205.13,-244.11 1201.44,-238.16"/>
</g>
<!-- Node15&#45;&gt;Node16 -->
<g id="edge20" class="edge">
<title>Node15&#45;&gt;Node16</title>
<path fill="none" stroke="midnightblue" d="M1134.96,-175.68C1161.26,-165.26 1194,-152.28 1218.48,-142.58"/>
<polygon fill="midnightblue" stroke="midnightblue" points="1133.59,-172.46 1125.59,-179.4 1136.17,-178.97 1133.59,-172.46"/>
</g>
<!-- Node18 -->
<g id="node18" class="node">
<title>Node18</title>
<g id="a_node18"><a xlink:href="location_8c.html" target="_top" xlink:title=" ">
<polygon fill="none" stroke="black" points="1010,-118 1010,-137 1144,-137 1144,-118 1010,-118"/>
<text text-anchor="middle" x="1077" y="-125" font-family="Helvetica,sans-Serif" font-size="10.00">src/WillyWeather/location.c</text>
</a>
</g>
</g>
<!-- Node15&#45;&gt;Node18 -->
<g id="edge23" class="edge">
<title>Node15&#45;&gt;Node18</title>
<path fill="none" stroke="midnightblue" d="M1085.15,-169.25C1082.9,-158.02 1080.38,-145.38 1078.74,-137.19"/>
<polygon fill="midnightblue" stroke="midnightblue" points="1081.79,-170.28 1087.18,-179.4 1088.65,-168.9 1081.79,-170.28"/>
</g>
<!-- Node16&#45;&gt;Node3 -->
<g id="edge21" class="edge">
<title>Node16&#45;&gt;Node3</title>
<path fill="none" stroke="midnightblue" d="M1190.41,-112.68C1188.93,-112.44 1187.46,-112.21 1186,-112 993.29,-83.79 760.3,-72.15 668.71,-68.44"/>
<polygon fill="midnightblue" stroke="midnightblue" points="1189.85,-116.13 1200.29,-114.38 1191.03,-109.23 1189.85,-116.13"/>
</g>
<!-- Node17 -->
<g id="node17" class="node">
<title>Node17</title>
<g id="a_node17"><a xlink:href="tide_8c.html" target="_top" xlink:title=" ">
<polygon fill="none" stroke="black" points="1196,-56.5 1196,-75.5 1312,-75.5 1312,-56.5 1196,-56.5"/>
<text text-anchor="middle" x="1254" y="-63.5" font-family="Helvetica,sans-Serif" font-size="10.00">src/WillyWeather/tide.c</text>
</a>
</g>
</g>
<!-- Node16&#45;&gt;Node17 -->
<g id="edge22" class="edge">
<title>Node16&#45;&gt;Node17</title>
<path fill="none" stroke="midnightblue" d="M1254,-102.29C1254,-92.86 1254,-82.65 1254,-75.66"/>
<polygon fill="midnightblue" stroke="midnightblue" points="1250.5,-102.4 1254,-112.4 1257.5,-102.4 1250.5,-102.4"/>
</g>
<!-- Node20&#45;&gt;Node2 -->
<g id="edge31" class="edge">
<title>Node20&#45;&gt;Node2</title>
<path fill="none" stroke="midnightblue" d="M574.27,-249.2C533.58,-238.18 471.61,-221.39 427.8,-209.53"/>
<polygon fill="midnightblue" stroke="midnightblue" points="573.56,-252.63 584.13,-251.87 575.39,-245.88 573.56,-252.63"/>
</g>
<!-- Node20&#45;&gt;Node6 -->
<g id="edge32" class="edge">
<title>Node20&#45;&gt;Node6</title>
<path fill="none" stroke="midnightblue" d="M567.93,-253.8C482.64,-241.9 304.98,-217.12 211.13,-204.03"/>
<polygon fill="midnightblue" stroke="midnightblue" points="567.48,-257.27 577.87,-255.18 568.44,-250.33 567.48,-257.27"/>
</g>
<!-- Node20&#45;&gt;Node7 -->
<g id="edge33" class="edge">
<title>Node20&#45;&gt;Node7</title>
<path fill="none" stroke="midnightblue" d="M567.68,-257.47C492.66,-251.95 352.58,-238.13 312,-210 285.82,-191.85 272.26,-154.06 267.28,-137.09"/>
<polygon fill="midnightblue" stroke="midnightblue" points="567.59,-260.97 577.82,-258.19 568.09,-253.99 567.59,-260.97"/>
</g>
<!-- Node20&#45;&gt;Node11 -->
<g id="edge34" class="edge">
<title>Node20&#45;&gt;Node11</title>
<path fill="none" stroke="midnightblue" d="M639.92,-246.62C662.11,-233.74 694.44,-214.98 713.13,-204.13"/>
<polygon fill="midnightblue" stroke="midnightblue" points="638,-243.69 631.1,-251.73 641.51,-249.74 638,-243.69"/>
</g>
<!-- Node20&#45;&gt;Node15 -->
<g id="edge35" class="edge">
<title>Node20&#45;&gt;Node15</title>
<path fill="none" stroke="midnightblue" d="M664.13,-254.11C735.21,-244.64 872.41,-226.26 989,-210 1004.35,-207.86 1021.01,-205.49 1036.28,-203.29"/>
<polygon fill="midnightblue" stroke="midnightblue" points="663.59,-250.65 654.14,-255.44 664.51,-257.59 663.59,-250.65"/>
</g>
<!-- Node20&#45;&gt;Node16 -->
<g id="edge36" class="edge">
<title>Node20&#45;&gt;Node16</title>
<path fill="none" stroke="midnightblue" d="M664.05,-252.91C702.58,-245.55 757.25,-232.17 801,-210 820.75,-199.99 819.55,-187.48 840,-179 969.35,-125.37 1014.13,-160.95 1153,-143 1168.37,-141.01 1185.04,-138.69 1200.31,-136.49"/>
<polygon fill="midnightblue" stroke="midnightblue" points="663.33,-249.49 654.13,-254.74 664.6,-256.37 663.33,-249.49"/>
</g>
<!-- Node21 -->
<g id="node21" class="node">
<title>Node21</title>
<g id="a_node21"><a xlink:href="severity__index_8h.html" target="_top" xlink:title=" ">
<polygon fill="none" stroke="black" points="449.5,-185 449.5,-204 568.5,-204 568.5,-185 449.5,-185"/>
<text text-anchor="middle" x="509" y="-192" font-family="Helvetica,sans-Serif" font-size="10.00">include/severity_index.h</text>
</a>
</g>
</g>
<!-- Node20&#45;&gt;Node21 -->
<g id="edge37" class="edge">
<title>Node20&#45;&gt;Node21</title>
<path fill="none" stroke="midnightblue" d="M592.86,-246.44C571.67,-233.57 540.98,-214.93 523.2,-204.13"/>
<polygon fill="midnightblue" stroke="midnightblue" points="591.21,-249.53 601.57,-251.73 594.84,-243.55 591.21,-249.53"/>
</g>
<!-- Node23 -->
<g id="node23" class="node">
<title>Node23</title>
<g id="a_node23"><a xlink:href="utils_8c.html" target="_top" xlink:title=" ">
<polygon fill="none" stroke="black" points="586.5,-185 586.5,-204 645.5,-204 645.5,-185 586.5,-185"/>
<text text-anchor="middle" x="616" y="-192" font-family="Helvetica,sans-Serif" font-size="10.00">src/utils.c</text>
</a>
</g>
</g>
<!-- Node20&#45;&gt;Node23 -->
<g id="edge40" class="edge">
<title>Node20&#45;&gt;Node23</title>
<path fill="none" stroke="midnightblue" d="M616,-241.54C616,-229.17 616,-213.62 616,-204.13"/>
<polygon fill="midnightblue" stroke="midnightblue" points="612.5,-241.73 616,-251.73 619.5,-241.73 612.5,-241.73"/>
</g>
<!-- Node21&#45;&gt;Node3 -->
<g id="edge38" class="edge">
<title>Node21&#45;&gt;Node3</title>
<path fill="none" stroke="midnightblue" d="M519.57,-176.24C530.65,-158.92 549.17,-132.01 569,-112 583.3,-97.57 602.45,-84.02 615.23,-75.63"/>
<polygon fill="midnightblue" stroke="midnightblue" points="516.57,-174.44 514.22,-184.77 522.5,-178.16 516.57,-174.44"/>
</g>
<!-- Node22 -->
<g id="node22" class="node">
<title>Node22</title>
<g id="a_node22"><a xlink:href="severity__index_8c.html" target="_top" xlink:title=" ">
<polygon fill="none" stroke="black" points="578,-118 578,-137 680,-137 680,-118 578,-118"/>
<text text-anchor="middle" x="629" y="-125" font-family="Helvetica,sans-Serif" font-size="10.00">src/severity_index.c</text>
</a>
</g>
</g>
<!-- Node21&#45;&gt;Node22 -->
<g id="edge39" class="edge">
<title>Node21&#45;&gt;Node22</title>
<path fill="none" stroke="midnightblue" d="M534,-179.96C557.79,-167.07 592.87,-148.07 613.07,-137.13"/>
<polygon fill="midnightblue" stroke="midnightblue" points="532.31,-176.89 525.18,-184.73 535.64,-183.05 532.31,-176.89"/>
</g>
</g>
</svg>
