<?xml version="1.0" encoding="UTF-8" standalone="no"?>
<!DOCTYPE svg PUBLIC "-//W3C//DTD SVG 1.1//EN"
 "http://www.w3.org/Graphics/SVG/1.1/DTD/svg11.dtd">
<!-- Generated by graphviz version 2.43.0 (0)
 -->
<!-- Title: include/log.h Pages: 1 -->
<svg width="2164pt" height="522pt"
 viewBox="0.00 0.00 2163.50 522.00" xmlns="http://www.w3.org/2000/svg" xmlns:xlink="http://www.w3.org/1999/xlink">
<g id="graph0" class="graph" transform="scale(1 1) rotate(0) translate(4 518)">
<title>include/log.h</title>
<!-- Node1 -->
<g id="node1" class="node">
<title>Node1</title>
<g id="a_node1"><a xlink:title=" ">
<polygon fill="#999999" stroke="#666666" points="817.5,-514 738.5,-514 738.5,-495 817.5,-495 817.5,-514"/>
<text text-anchor="middle" x="778" y="-502" font-family="Helvetica,sans-Serif" font-size="10.00">include/log.h</text>
</a>
</g>
</g>
<!-- Node2 -->
<g id="node2" class="node">
<title>Node2</title>
<g id="a_node2"><a xlink:href="harvest__area_8h.html" target="_top" xlink:title=" ">
<polygon fill="white" stroke="#666666" points="1304.5,-349 1181.5,-349 1181.5,-319 1304.5,-319 1304.5,-349"/>
<text text-anchor="start" x="1189.5" y="-337" font-family="Helvetica,sans-Serif" font-size="10.00">include/FoodAuthority</text>
<text text-anchor="middle" x="1243" y="-326" font-family="Helvetica,sans-Serif" font-size="10.00">/harvest_area.h</text>
</a>
</g>
</g>
<!-- Node1&#45;&gt;Node2 -->
<g id="edge1" class="edge">
<title>Node1&#45;&gt;Node2</title>
<path fill="none" stroke="#63b8ff" d="M828.11,-500.08C908.77,-494.04 1063.46,-480.09 1114,-459 1169.62,-435.79 1215.02,-376.55 1233.75,-349.21"/>
<polygon fill="#63b8ff" stroke="#63b8ff" points="827.43,-496.62 817.71,-500.85 827.94,-503.6 827.43,-496.62"/>
</g>
<!-- Node3 -->
<g id="node3" class="node">
<title>Node3</title>
<g id="a_node3"><a xlink:href="harvest__areas_8h.html" target="_top" xlink:title=" ">
<polygon fill="white" stroke="#666666" points="973.5,-151 850.5,-151 850.5,-121 973.5,-121 973.5,-151"/>
<text text-anchor="start" x="858.5" y="-139" font-family="Helvetica,sans-Serif" font-size="10.00">include/FoodAuthority</text>
<text text-anchor="middle" x="912" y="-128" font-family="Helvetica,sans-Serif" font-size="10.00">/harvest_areas.h</text>
</a>
</g>
</g>
<!-- Node1&#45;&gt;Node3 -->
<g id="edge18" class="edge">
<title>Node1&#45;&gt;Node3</title>
<path fill="none" stroke="#63b8ff" d="M728.33,-501.86C556.83,-495.54 0,-469.33 0,-395.5 0,-395.5 0,-395.5 0,-267 0,-118.4 251.41,-196.27 792,-151 811.02,-149.41 831.68,-147.18 850.41,-144.97"/>
<polygon fill="#63b8ff" stroke="#63b8ff" points="728.23,-505.36 738.35,-502.22 728.48,-498.36 728.23,-505.36"/>
</g>
<!-- Node4 -->
<g id="node4" class="node">
<title>Node4</title>
<g id="a_node4"><a xlink:href="main_8h.html" target="_top" xlink:title=" ">
<polygon fill="white" stroke="#666666" points="1092.5,-79.5 1003.5,-79.5 1003.5,-60.5 1092.5,-60.5 1092.5,-79.5"/>
<text text-anchor="middle" x="1048" y="-67.5" font-family="Helvetica,sans-Serif" font-size="10.00">include/main.h</text>
</a>
</g>
</g>
<!-- Node1&#45;&gt;Node4 -->
<g id="edge46" class="edge">
<title>Node1&#45;&gt;Node4</title>
<path fill="none" stroke="#63b8ff" d="M737.05,-491.98C643.25,-463.16 424.73,-380.97 476,-253 508.9,-170.88 542.71,-153.5 625,-121 777.43,-60.79 830.51,-112.95 992,-85 1000.29,-83.56 1009.18,-81.56 1017.36,-79.52"/>
<polygon fill="#63b8ff" stroke="#63b8ff" points="736.2,-495.38 746.79,-494.91 738.22,-488.67 736.2,-495.38"/>
</g>
<!-- Node7 -->
<g id="node7" class="node">
<title>Node7</title>
<g id="a_node7"><a xlink:href="transform_8h.html" target="_top" xlink:title=" ">
<polygon fill="white" stroke="#666666" points="1390,-211.5 1278,-211.5 1278,-192.5 1390,-192.5 1390,-211.5"/>
<text text-anchor="middle" x="1334" y="-199.5" font-family="Helvetica,sans-Serif" font-size="10.00">include/transform.h</text>
</a>
</g>
</g>
<!-- Node1&#45;&gt;Node7 -->
<g id="edge47" class="edge">
<title>Node1&#45;&gt;Node7</title>
<path fill="none" stroke="#63b8ff" d="M827.67,-504.44C899.61,-504.27 1036.02,-498.13 1144,-459 1228.61,-428.34 1256.1,-417.9 1314,-349 1342.59,-314.97 1345.52,-297.3 1342,-253 1340.84,-238.45 1337.82,-221.75 1335.84,-211.8"/>
<polygon fill="#63b8ff" stroke="#63b8ff" points="827.54,-500.94 817.53,-504.43 827.53,-507.94 827.54,-500.94"/>
</g>
<!-- Node10 -->
<g id="node10" class="node">
<title>Node10</title>
<g id="a_node10"><a xlink:href="timeseries_8h.html" target="_top" xlink:title=" ">
<polygon fill="white" stroke="#666666" points="2070,-145.5 1912,-145.5 1912,-126.5 2070,-126.5 2070,-145.5"/>
<text text-anchor="middle" x="1991" y="-133.5" font-family="Helvetica,sans-Serif" font-size="10.00">include/IBM_EIS/timeseries.h</text>
</a>
</g>
</g>
<!-- Node1&#45;&gt;Node10 -->
<g id="edge23" class="edge">
<title>Node1&#45;&gt;Node10</title>
<path fill="none" stroke="#63b8ff" d="M827.8,-501.99C1065.13,-494.5 2070,-459.02 2070,-395.5 2070,-395.5 2070,-395.5 2070,-267 2070,-214.44 2022.26,-165.04 2001.01,-145.65"/>
<polygon fill="#63b8ff" stroke="#63b8ff" points="827.61,-498.5 817.73,-502.31 827.83,-505.5 827.61,-498.5"/>
</g>
<!-- Node14 -->
<g id="node14" class="node">
<title>Node14</title>
<g id="a_node14"><a xlink:href="_i_b_m___e_i_s_2authenticate_8h.html" target="_top" xlink:title=" ">
<polygon fill="white" stroke="#666666" points="1602.5,-343.5 1435.5,-343.5 1435.5,-324.5 1602.5,-324.5 1602.5,-343.5"/>
<text text-anchor="middle" x="1519" y="-331.5" font-family="Helvetica,sans-Serif" font-size="10.00">include/IBM_EIS/authenticate.h</text>
</a>
</g>
</g>
<!-- Node1&#45;&gt;Node14 -->
<g id="edge19" class="edge">
<title>Node1&#45;&gt;Node14</title>
<path fill="none" stroke="#63b8ff" d="M827.88,-504.01C954.34,-504.65 1284.52,-502.01 1384,-459 1444.76,-432.73 1495.9,-367.29 1512.95,-343.67"/>
<polygon fill="#63b8ff" stroke="#63b8ff" points="827.72,-500.51 817.7,-503.95 827.68,-507.51 827.72,-500.51"/>
</g>
<!-- Node16 -->
<g id="node16" class="node">
<title>Node16</title>
<g id="a_node16"><a xlink:href="_ubidots_2authenticate_8h.html" target="_top" xlink:title=" ">
<polygon fill="white" stroke="#666666" points="261,-343.5 95,-343.5 95,-324.5 261,-324.5 261,-343.5"/>
<text text-anchor="middle" x="178" y="-331.5" font-family="Helvetica,sans-Serif" font-size="10.00">include/Ubidots/authenticate.h</text>
</a>
</g>
</g>
<!-- Node1&#45;&gt;Node16 -->
<g id="edge24" class="edge">
<title>Node1&#45;&gt;Node16</title>
<path fill="none" stroke="#63b8ff" d="M728.2,-503.68C618.85,-503.33 361.37,-498.22 285,-459 232.39,-431.98 194.63,-367.01 182.33,-343.59"/>
<polygon fill="#63b8ff" stroke="#63b8ff" points="728.31,-507.18 738.31,-503.7 728.32,-500.18 728.31,-507.18"/>
</g>
<!-- Node17 -->
<g id="node17" class="node">
<title>Node17</title>
<g id="a_node17"><a xlink:href="devices_8h.html" target="_top" xlink:title=" ">
<polygon fill="white" stroke="#666666" points="370,-277.5 228,-277.5 228,-258.5 370,-258.5 370,-277.5"/>
<text text-anchor="middle" x="299" y="-265.5" font-family="Helvetica,sans-Serif" font-size="10.00">include/Ubidots/devices.h</text>
</a>
</g>
</g>
<!-- Node1&#45;&gt;Node17 -->
<g id="edge29" class="edge">
<title>Node1&#45;&gt;Node17</title>
<path fill="none" stroke="#63b8ff" d="M728.13,-503.29C637.75,-502 451.34,-494.93 399,-459 332.31,-413.22 306.83,-308.53 300.61,-277.7"/>
<polygon fill="#63b8ff" stroke="#63b8ff" points="728.36,-506.79 738.41,-503.42 728.45,-499.79 728.36,-506.79"/>
</g>
<!-- Node20 -->
<g id="node20" class="node">
<title>Node20</title>
<g id="a_node20"><a xlink:href="_willy_weather_2authenticate_8h.html" target="_top" xlink:title=" ">
<polygon fill="white" stroke="#666666" points="712,-349 592,-349 592,-319 712,-319 712,-349"/>
<text text-anchor="start" x="600" y="-337" font-family="Helvetica,sans-Serif" font-size="10.00">include/WillyWeather</text>
<text text-anchor="middle" x="652" y="-326" font-family="Helvetica,sans-Serif" font-size="10.00">/authenticate.h</text>
</a>
</g>
</g>
<!-- Node1&#45;&gt;Node20 -->
<g id="edge30" class="edge">
<title>Node1&#45;&gt;Node20</title>
<path fill="none" stroke="#63b8ff" d="M765.43,-486.69C740.63,-453.52 685.78,-380.18 662.64,-349.22"/>
<polygon fill="#63b8ff" stroke="#63b8ff" points="762.79,-489 771.58,-494.91 768.39,-484.81 762.79,-489"/>
</g>
<!-- Node21 -->
<g id="node21" class="node">
<title>Node21</title>
<g id="a_node21"><a xlink:href="location_8h.html" target="_top" xlink:title=" ">
<polygon fill="white" stroke="#666666" points="964,-283 844,-283 844,-253 964,-253 964,-283"/>
<text text-anchor="start" x="852" y="-271" font-family="Helvetica,sans-Serif" font-size="10.00">include/WillyWeather</text>
<text text-anchor="middle" x="904" y="-260" font-family="Helvetica,sans-Serif" font-size="10.00">/location.h</text>
</a>
</g>
</g>
<!-- Node1&#45;&gt;Node21 -->
<g id="edge44" class="edge">
<title>Node1&#45;&gt;Node21</title>
<path fill="none" stroke="#63b8ff" d="M779.86,-484.63C784.16,-449.16 797.46,-371.4 835,-319 845.77,-303.97 862.47,-291.69 876.75,-283.07"/>
<polygon fill="#63b8ff" stroke="#63b8ff" points="776.34,-484.62 778.73,-494.94 783.3,-485.38 776.34,-484.62"/>
</g>
<!-- Node24 -->
<g id="node24" class="node">
<title>Node24</title>
<g id="a_node24"><a xlink:href="tide_8h.html" target="_top" xlink:title=" ">
<polygon fill="white" stroke="#666666" points="774,-217 654,-217 654,-187 774,-187 774,-217"/>
<text text-anchor="start" x="662" y="-205" font-family="Helvetica,sans-Serif" font-size="10.00">include/WillyWeather</text>
<text text-anchor="middle" x="714" y="-194" font-family="Helvetica,sans-Serif" font-size="10.00">/tide.h</text>
</a>
</g>
</g>
<!-- Node1&#45;&gt;Node24 -->
<g id="edge45" class="edge">
<title>Node1&#45;&gt;Node24</title>
<path fill="none" stroke="#63b8ff" d="M747.29,-490.99C685.4,-463.86 547.02,-393.09 493,-283 461.32,-218.44 578.02,-204.85 653.8,-202.66"/>
<polygon fill="#63b8ff" stroke="#63b8ff" points="745.97,-494.23 756.54,-494.96 748.73,-487.8 745.97,-494.23"/>
</g>
<!-- Node28 -->
<g id="node28" class="node">
<title>Node28</title>
<g id="a_node28"><a xlink:href="utils_8h.html" target="_top" xlink:title=" ">
<polygon fill="white" stroke="#666666" points="1104.5,-459 1019.5,-459 1019.5,-440 1104.5,-440 1104.5,-459"/>
<text text-anchor="middle" x="1062" y="-447" font-family="Helvetica,sans-Serif" font-size="10.00">include/utils.h</text>
</a>
</g>
</g>
<!-- Node1&#45;&gt;Node28 -->
<g id="edge48" class="edge">
<title>Node1&#45;&gt;Node28</title>
<path fill="none" stroke="#63b8ff" d="M827.87,-494.19C882.12,-484.07 967.95,-468.05 1019.23,-458.48"/>
<polygon fill="#63b8ff" stroke="#63b8ff" points="826.98,-490.8 817.79,-496.07 828.26,-497.68 826.98,-490.8"/>
</g>
<!-- Node36 -->
<g id="node36" class="node">
<title>Node36</title>
<g id="a_node36"><a xlink:href="log_8c.html" target="_top" xlink:title=" ">
<polygon fill="white" stroke="#666666" points="2155.5,-459 2098.5,-459 2098.5,-440 2155.5,-440 2155.5,-459"/>
<text text-anchor="middle" x="2127" y="-447" font-family="Helvetica,sans-Serif" font-size="10.00">src/log.c</text>
</a>
</g>
</g>
<!-- Node1&#45;&gt;Node36 -->
<g id="edge83" class="edge">
<title>Node1&#45;&gt;Node36</title>
<path fill="none" stroke="#63b8ff" d="M827.75,-502.88C1035.4,-500.11 1833.83,-487.8 2084,-459 2088.69,-458.46 2093.63,-457.68 2098.42,-456.82"/>
<polygon fill="#63b8ff" stroke="#63b8ff" points="827.69,-499.38 817.74,-503.01 827.79,-506.38 827.69,-499.38"/>
</g>
<!-- Node2&#45;&gt;Node3 -->
<g id="edge2" class="edge">
<title>Node2&#45;&gt;Node3</title>
<path fill="none" stroke="#63b8ff" d="M1195.83,-314.11C1182.86,-306.48 1170.35,-296.27 1163,-283 1142.32,-245.68 1190.06,-219.99 1163,-187 1139.5,-158.36 1040.12,-145.82 973.68,-140.55"/>
<polygon fill="#63b8ff" stroke="#63b8ff" points="1194.36,-317.3 1204.82,-318.99 1197.7,-311.15 1194.36,-317.3"/>
</g>
<!-- Node2&#45;&gt;Node4 -->
<g id="edge6" class="edge">
<title>Node2&#45;&gt;Node4</title>
<path fill="none" stroke="#63b8ff" d="M1288.41,-314.63C1306.06,-306.36 1325.87,-295.6 1342,-283 1402.15,-236.02 1449.02,-178.65 1399,-121 1359.82,-75.84 1178.01,-70.43 1092.58,-70.44"/>
<polygon fill="#63b8ff" stroke="#63b8ff" points="1286.52,-311.64 1278.87,-318.97 1289.42,-318.02 1286.52,-311.64"/>
</g>
<!-- Node2&#45;&gt;Node7 -->
<g id="edge7" class="edge">
<title>Node2&#45;&gt;Node7</title>
<path fill="none" stroke="#63b8ff" d="M1288.41,-313.86C1301.56,-306.15 1314.61,-295.96 1323,-283 1337.55,-260.52 1336.51,-227.05 1335.05,-211.51"/>
<polygon fill="#63b8ff" stroke="#63b8ff" points="1286.45,-310.94 1279.35,-318.81 1289.8,-317.09 1286.45,-310.94"/>
</g>
<!-- Node13 -->
<g id="node13" class="node">
<title>Node13</title>
<g id="a_node13"><a xlink:href="harvest__area_8c.html" target="_top" xlink:title=" ">
<polygon fill="white" stroke="#666666" points="1314,-283 1172,-283 1172,-253 1314,-253 1314,-283"/>
<text text-anchor="start" x="1180" y="-271" font-family="Helvetica,sans-Serif" font-size="10.00">src/FoodAuthority/harvest</text>
<text text-anchor="middle" x="1243" y="-260" font-family="Helvetica,sans-Serif" font-size="10.00">_area.c</text>
</a>
</g>
</g>
<!-- Node2&#45;&gt;Node13 -->
<g id="edge17" class="edge">
<title>Node2&#45;&gt;Node13</title>
<path fill="none" stroke="#63b8ff" d="M1243,-308.54C1243,-299.96 1243,-290.61 1243,-283.16"/>
<polygon fill="#63b8ff" stroke="#63b8ff" points="1239.5,-308.8 1243,-318.8 1246.5,-308.8 1239.5,-308.8"/>
</g>
<!-- Node3&#45;&gt;Node4 -->
<g id="edge3" class="edge">
<title>Node3&#45;&gt;Node4</title>
<path fill="none" stroke="#63b8ff" d="M951.06,-116.62C977.01,-104.41 1009.88,-88.94 1029.9,-79.52"/>
<polygon fill="#63b8ff" stroke="#63b8ff" points="949.4,-113.53 941.85,-120.95 952.38,-119.86 949.4,-113.53"/>
</g>
<!-- Node6 -->
<g id="node6" class="node">
<title>Node6</title>
<g id="a_node6"><a xlink:href="harvest__areas_8c.html" target="_top" xlink:title=" ">
<polygon fill="white" stroke="#666666" points="983,-85 841,-85 841,-55 983,-55 983,-85"/>
<text text-anchor="start" x="849" y="-73" font-family="Helvetica,sans-Serif" font-size="10.00">src/FoodAuthority/harvest</text>
<text text-anchor="middle" x="912" y="-62" font-family="Helvetica,sans-Serif" font-size="10.00">_areas.c</text>
</a>
</g>
</g>
<!-- Node3&#45;&gt;Node6 -->
<g id="edge5" class="edge">
<title>Node3&#45;&gt;Node6</title>
<path fill="none" stroke="#63b8ff" d="M912,-110.54C912,-101.96 912,-92.61 912,-85.16"/>
<polygon fill="#63b8ff" stroke="#63b8ff" points="908.5,-110.8 912,-120.8 915.5,-110.8 908.5,-110.8"/>
</g>
<!-- Node5 -->
<g id="node5" class="node">
<title>Node5</title>
<g id="a_node5"><a xlink:href="main_8c.html" target="_top" xlink:title=" ">
<polygon fill="white" stroke="#666666" points="1081.5,-19 1014.5,-19 1014.5,0 1081.5,0 1081.5,-19"/>
<text text-anchor="middle" x="1048" y="-7" font-family="Helvetica,sans-Serif" font-size="10.00">src/main.c</text>
</a>
</g>
</g>
<!-- Node4&#45;&gt;Node5 -->
<g id="edge4" class="edge">
<title>Node4&#45;&gt;Node5</title>
<path fill="none" stroke="#63b8ff" d="M1048,-50.16C1048,-39.74 1048,-27.3 1048,-19.17"/>
<polygon fill="#63b8ff" stroke="#63b8ff" points="1044.5,-50.37 1048,-60.37 1051.5,-50.37 1044.5,-50.37"/>
</g>
<!-- Node7&#45;&gt;Node3 -->
<g id="edge11" class="edge">
<title>Node7&#45;&gt;Node3</title>
<path fill="none" stroke="#63b8ff" d="M1272.75,-190.79C1264.76,-189.5 1256.69,-188.2 1249,-187 1152.87,-171.95 1041.13,-155.6 973.54,-145.83"/>
<polygon fill="#63b8ff" stroke="#63b8ff" points="1272.35,-194.27 1282.78,-192.43 1273.47,-187.36 1272.35,-194.27"/>
</g>
<!-- Node7&#45;&gt;Node4 -->
<g id="edge15" class="edge">
<title>Node7&#45;&gt;Node4</title>
<path fill="none" stroke="#63b8ff" d="M1319.56,-184.82C1300.66,-163.99 1268.16,-129.46 1253,-121 1202.46,-92.78 1136.22,-80.35 1092.91,-74.97"/>
<polygon fill="#63b8ff" stroke="#63b8ff" points="1317,-187.21 1326.3,-192.29 1322.2,-182.52 1317,-187.21"/>
</g>
<!-- Node8 -->
<g id="node8" class="node">
<title>Node8</title>
<g id="a_node8"><a xlink:href="historical__weather_8h.html" target="_top" xlink:title=" ">
<polygon fill="white" stroke="#666666" points="1854,-151 1728,-151 1728,-121 1854,-121 1854,-151"/>
<text text-anchor="start" x="1736" y="-139" font-family="Helvetica,sans-Serif" font-size="10.00">include/BOM/historical</text>
<text text-anchor="middle" x="1791" y="-128" font-family="Helvetica,sans-Serif" font-size="10.00">_weather.h</text>
</a>
</g>
</g>
<!-- Node7&#45;&gt;Node8 -->
<g id="edge8" class="edge">
<title>Node7&#45;&gt;Node8</title>
<path fill="none" stroke="#63b8ff" d="M1400.14,-191.74C1487.89,-179.45 1641.72,-157.91 1727.91,-145.84"/>
<polygon fill="#63b8ff" stroke="#63b8ff" points="1399.46,-188.3 1390.04,-193.15 1400.43,-195.23 1399.46,-188.3"/>
</g>
<!-- Node7&#45;&gt;Node10 -->
<g id="edge12" class="edge">
<title>Node7&#45;&gt;Node10</title>
<path fill="none" stroke="#63b8ff" d="M1399.98,-195.08C1500.11,-186.02 1696.42,-167.98 1863,-151 1879.79,-149.29 1897.81,-147.37 1914.87,-145.51"/>
<polygon fill="#63b8ff" stroke="#63b8ff" points="1399.65,-191.59 1390.01,-195.98 1400.28,-198.56 1399.65,-191.59"/>
</g>
<!-- Node12 -->
<g id="node12" class="node">
<title>Node12</title>
<g id="a_node12"><a xlink:href="transform_8c.html" target="_top" xlink:title=" ">
<polygon fill="white" stroke="#666666" points="1390,-145.5 1300,-145.5 1300,-126.5 1390,-126.5 1390,-145.5"/>
<text text-anchor="middle" x="1345" y="-133.5" font-family="Helvetica,sans-Serif" font-size="10.00">src/transform.c</text>
</a>
</g>
</g>
<!-- Node7&#45;&gt;Node12 -->
<g id="edge16" class="edge">
<title>Node7&#45;&gt;Node12</title>
<path fill="none" stroke="#63b8ff" d="M1337.19,-182.45C1339.25,-170.43 1341.85,-155.32 1343.47,-145.91"/>
<polygon fill="#63b8ff" stroke="#63b8ff" points="1333.73,-181.92 1335.48,-192.37 1340.63,-183.11 1333.73,-181.92"/>
</g>
<!-- Node8&#45;&gt;Node4 -->
<g id="edge9" class="edge">
<title>Node8&#45;&gt;Node4</title>
<path fill="none" stroke="#63b8ff" d="M1717.36,-121.44C1716.23,-121.29 1715.11,-121.14 1714,-121 1481.1,-91.17 1199.94,-77.25 1092.59,-72.73"/>
<polygon fill="#63b8ff" stroke="#63b8ff" points="1717.23,-124.96 1727.63,-122.93 1718.24,-118.03 1717.23,-124.96"/>
</g>
<!-- Node9 -->
<g id="node9" class="node">
<title>Node9</title>
<g id="a_node9"><a xlink:href="historical__weather_8c.html" target="_top" xlink:title=" ">
<polygon fill="white" stroke="#666666" points="1843.5,-85 1738.5,-85 1738.5,-55 1843.5,-55 1843.5,-85"/>
<text text-anchor="start" x="1746.5" y="-73" font-family="Helvetica,sans-Serif" font-size="10.00">src/BOM/historical</text>
<text text-anchor="middle" x="1791" y="-62" font-family="Helvetica,sans-Serif" font-size="10.00">_weather.c</text>
</a>
</g>
</g>
<!-- Node8&#45;&gt;Node9 -->
<g id="edge10" class="edge">
<title>Node8&#45;&gt;Node9</title>
<path fill="none" stroke="#63b8ff" d="M1791,-110.54C1791,-101.96 1791,-92.61 1791,-85.16"/>
<polygon fill="#63b8ff" stroke="#63b8ff" points="1787.5,-110.8 1791,-120.8 1794.5,-110.8 1787.5,-110.8"/>
</g>
<!-- Node10&#45;&gt;Node4 -->
<g id="edge13" class="edge">
<title>Node10&#45;&gt;Node4</title>
<path fill="none" stroke="#63b8ff" d="M1928.91,-125.05C1917.97,-123.53 1906.67,-122.1 1896,-121 1589.76,-89.47 1219.1,-76.11 1092.7,-72.26"/>
<polygon fill="#63b8ff" stroke="#63b8ff" points="1928.44,-128.52 1938.84,-126.48 1929.43,-121.59 1928.44,-128.52"/>
</g>
<!-- Node11 -->
<g id="node11" class="node">
<title>Node11</title>
<g id="a_node11"><a xlink:href="timeseries_8c.html" target="_top" xlink:title=" ">
<polygon fill="white" stroke="#666666" points="2059,-79.5 1923,-79.5 1923,-60.5 2059,-60.5 2059,-79.5"/>
<text text-anchor="middle" x="1991" y="-67.5" font-family="Helvetica,sans-Serif" font-size="10.00">src/IBM_EIS/timeseries.c</text>
</a>
</g>
</g>
<!-- Node10&#45;&gt;Node11 -->
<g id="edge14" class="edge">
<title>Node10&#45;&gt;Node11</title>
<path fill="none" stroke="#63b8ff" d="M1991,-116.08C1991,-104.13 1991,-89.22 1991,-79.91"/>
<polygon fill="#63b8ff" stroke="#63b8ff" points="1987.5,-116.37 1991,-126.37 1994.5,-116.37 1987.5,-116.37"/>
</g>
<!-- Node14&#45;&gt;Node4 -->
<g id="edge21" class="edge">
<title>Node14&#45;&gt;Node4</title>
<path fill="none" stroke="#63b8ff" d="M1612.51,-324.5C1668.33,-317.28 1731.64,-304.53 1749,-283 1774.86,-250.92 1719.32,-193.47 1711,-187 1613.58,-111.22 1225.47,-81.52 1092.76,-73.45"/>
<polygon fill="#63b8ff" stroke="#63b8ff" points="1612.04,-321.03 1602.55,-325.74 1612.91,-327.98 1612.04,-321.03"/>
</g>
<!-- Node14&#45;&gt;Node10 -->
<g id="edge20" class="edge">
<title>Node14&#45;&gt;Node10</title>
<path fill="none" stroke="#63b8ff" d="M1612.87,-324.87C1664.34,-318.04 1728.4,-305.59 1782,-283 1868.06,-246.73 1954.24,-171.07 1981.87,-145.59"/>
<polygon fill="#63b8ff" stroke="#63b8ff" points="1612.23,-321.42 1602.75,-326.16 1613.11,-328.37 1612.23,-321.42"/>
</g>
<!-- Node15 -->
<g id="node15" class="node">
<title>Node15</title>
<g id="a_node15"><a xlink:href="_i_b_m___e_i_s_2authenticate_8c.html" target="_top" xlink:title=" ">
<polygon fill="white" stroke="#666666" points="1592,-277.5 1446,-277.5 1446,-258.5 1592,-258.5 1592,-277.5"/>
<text text-anchor="middle" x="1519" y="-265.5" font-family="Helvetica,sans-Serif" font-size="10.00">src/IBM_EIS/authenticate.c</text>
</a>
</g>
</g>
<!-- Node14&#45;&gt;Node15 -->
<g id="edge22" class="edge">
<title>Node14&#45;&gt;Node15</title>
<path fill="none" stroke="#63b8ff" d="M1519,-314.08C1519,-302.13 1519,-287.22 1519,-277.91"/>
<polygon fill="#63b8ff" stroke="#63b8ff" points="1515.5,-314.37 1519,-324.37 1522.5,-314.37 1515.5,-314.37"/>
</g>
<!-- Node16&#45;&gt;Node17 -->
<g id="edge25" class="edge">
<title>Node16&#45;&gt;Node17</title>
<path fill="none" stroke="#63b8ff" d="M203.47,-319.53C227.3,-306.92 262.2,-288.47 282.55,-277.7"/>
<polygon fill="#63b8ff" stroke="#63b8ff" points="201.52,-316.6 194.32,-324.37 204.79,-322.79 201.52,-316.6"/>
</g>
<!-- Node19 -->
<g id="node19" class="node">
<title>Node19</title>
<g id="a_node19"><a xlink:href="_ubidots_2authenticate_8c.html" target="_top" xlink:title=" ">
<polygon fill="white" stroke="#666666" points="210,-277.5 66,-277.5 66,-258.5 210,-258.5 210,-277.5"/>
<text text-anchor="middle" x="138" y="-265.5" font-family="Helvetica,sans-Serif" font-size="10.00">src/Ubidots/authenticate.c</text>
</a>
</g>
</g>
<!-- Node16&#45;&gt;Node19 -->
<g id="edge28" class="edge">
<title>Node16&#45;&gt;Node19</title>
<path fill="none" stroke="#63b8ff" d="M167.09,-315.55C159.48,-303.36 149.63,-287.61 143.57,-277.91"/>
<polygon fill="#63b8ff" stroke="#63b8ff" points="164.34,-317.74 172.61,-324.37 170.27,-314.03 164.34,-317.74"/>
</g>
<!-- Node17&#45;&gt;Node4 -->
<g id="edge26" class="edge">
<title>Node17&#45;&gt;Node4</title>
<path fill="none" stroke="#63b8ff" d="M314.45,-250.97C322.98,-241.57 333.36,-229.18 341,-217 365.83,-177.39 345.53,-147.57 384,-121 439.68,-82.54 925.11,-95.25 992,-85 1000.62,-83.68 1009.85,-81.64 1018.27,-79.52"/>
<polygon fill="#63b8ff" stroke="#63b8ff" points="311.81,-248.67 307.55,-258.37 316.93,-253.44 311.81,-248.67"/>
</g>
<!-- Node18 -->
<g id="node18" class="node">
<title>Node18</title>
<g id="a_node18"><a xlink:href="devices_8c.html" target="_top" xlink:title=" ">
<polygon fill="white" stroke="#666666" points="332,-211.5 212,-211.5 212,-192.5 332,-192.5 332,-211.5"/>
<text text-anchor="middle" x="272" y="-199.5" font-family="Helvetica,sans-Serif" font-size="10.00">src/Ubidots/devices.c</text>
</a>
</g>
</g>
<!-- Node17&#45;&gt;Node18 -->
<g id="edge27" class="edge">
<title>Node17&#45;&gt;Node18</title>
<path fill="none" stroke="#63b8ff" d="M291.33,-248.82C286.23,-236.74 279.77,-221.41 275.76,-211.91"/>
<polygon fill="#63b8ff" stroke="#63b8ff" points="288.25,-250.52 295.36,-258.37 294.7,-247.79 288.25,-250.52"/>
</g>
<!-- Node20&#45;&gt;Node4 -->
<g id="edge42" class="edge">
<title>Node20&#45;&gt;Node4</title>
<path fill="none" stroke="#63b8ff" d="M670.39,-310.43C681.19,-294.31 691.24,-272.16 683,-253 673.81,-231.63 654.19,-238.37 645,-217 628.14,-177.81 616.43,-152.69 645,-121 696.91,-63.42 915.65,-98.43 992,-85 1000.19,-83.56 1008.96,-81.58 1017.07,-79.56"/>
<polygon fill="#63b8ff" stroke="#63b8ff" points="667.43,-308.55 664.42,-318.71 673.11,-312.64 667.43,-308.55"/>
</g>
<!-- Node20&#45;&gt;Node21 -->
<g id="edge31" class="edge">
<title>Node20&#45;&gt;Node21</title>
<path fill="none" stroke="#63b8ff" d="M717.16,-316.45C757.99,-306.08 810.04,-292.86 848.83,-283.01"/>
<polygon fill="#63b8ff" stroke="#63b8ff" points="716.13,-313.1 707.3,-318.95 717.86,-319.89 716.13,-313.1"/>
</g>
<!-- Node20&#45;&gt;Node24 -->
<g id="edge41" class="edge">
<title>Node20&#45;&gt;Node24</title>
<path fill="none" stroke="#63b8ff" d="M688.39,-313.37C699.32,-305.49 709.99,-295.32 716,-283 726.29,-261.9 722.12,-233.79 718.1,-217.13"/>
<polygon fill="#63b8ff" stroke="#63b8ff" points="686.41,-310.48 680.05,-318.95 690.31,-316.3 686.41,-310.48"/>
</g>
<!-- Node27 -->
<g id="node27" class="node">
<title>Node27</title>
<g id="a_node27"><a xlink:href="_willy_weather_2authenticate_8c.html" target="_top" xlink:title=" ">
<polygon fill="white" stroke="#666666" points="674,-277.5 502,-277.5 502,-258.5 674,-258.5 674,-277.5"/>
<text text-anchor="middle" x="588" y="-265.5" font-family="Helvetica,sans-Serif" font-size="10.00">src/WillyWeather/authenticate.c</text>
</a>
</g>
</g>
<!-- Node20&#45;&gt;Node27 -->
<g id="edge43" class="edge">
<title>Node20&#45;&gt;Node27</title>
<path fill="none" stroke="#63b8ff" d="M630.6,-311.6C619.1,-300.1 605.52,-286.52 596.84,-277.84"/>
<polygon fill="#63b8ff" stroke="#63b8ff" points="628.25,-314.2 637.8,-318.8 633.2,-309.25 628.25,-314.2"/>
</g>
<!-- Node21&#45;&gt;Node3 -->
<g id="edge32" class="edge">
<title>Node21&#45;&gt;Node3</title>
<path fill="none" stroke="#63b8ff" d="M853.45,-247.99C840.22,-240.44 827.56,-230.31 820,-217 813.41,-205.41 813.19,-198.46 820,-187 829.94,-170.28 847.65,-158.8 864.88,-151.11"/>
<polygon fill="#63b8ff" stroke="#63b8ff" points="852.16,-251.27 862.64,-252.81 855.41,-245.07 852.16,-251.27"/>
</g>
<!-- Node21&#45;&gt;Node7 -->
<g id="edge39" class="edge">
<title>Node21&#45;&gt;Node7</title>
<path fill="none" stroke="#63b8ff" d="M974.3,-256.54C1059.13,-243.91 1200.03,-222.94 1277.92,-211.35"/>
<polygon fill="#63b8ff" stroke="#63b8ff" points="973.62,-253.1 964.24,-258.03 974.65,-260.02 973.62,-253.1"/>
</g>
<!-- Node22 -->
<g id="node22" class="node">
<title>Node22</title>
<g id="a_node22"><a xlink:href="precipitation_8h.html" target="_top" xlink:title=" ">
<polygon fill="white" stroke="#666666" points="1154,-217 1034,-217 1034,-187 1154,-187 1154,-217"/>
<text text-anchor="start" x="1042" y="-205" font-family="Helvetica,sans-Serif" font-size="10.00">include/WillyWeather</text>
<text text-anchor="middle" x="1094" y="-194" font-family="Helvetica,sans-Serif" font-size="10.00">/precipitation.h</text>
</a>
</g>
</g>
<!-- Node21&#45;&gt;Node22 -->
<g id="edge33" class="edge">
<title>Node21&#45;&gt;Node22</title>
<path fill="none" stroke="#63b8ff" d="M955.29,-249.72C985.73,-239.47 1023.84,-226.63 1052.4,-217.01"/>
<polygon fill="#63b8ff" stroke="#63b8ff" points="954.06,-246.45 945.7,-252.95 956.29,-253.08 954.06,-246.45"/>
</g>
<!-- Node21&#45;&gt;Node24 -->
<g id="edge36" class="edge">
<title>Node21&#45;&gt;Node24</title>
<path fill="none" stroke="#63b8ff" d="M852.71,-249.72C822.27,-239.47 784.16,-226.63 755.6,-217.01"/>
<polygon fill="#63b8ff" stroke="#63b8ff" points="851.71,-253.08 862.3,-252.95 853.94,-246.45 851.71,-253.08"/>
</g>
<!-- Node26 -->
<g id="node26" class="node">
<title>Node26</title>
<g id="a_node26"><a xlink:href="location_8c.html" target="_top" xlink:title=" ">
<polygon fill="white" stroke="#666666" points="978.5,-211.5 829.5,-211.5 829.5,-192.5 978.5,-192.5 978.5,-211.5"/>
<text text-anchor="middle" x="904" y="-199.5" font-family="Helvetica,sans-Serif" font-size="10.00">src/WillyWeather/location.c</text>
</a>
</g>
</g>
<!-- Node21&#45;&gt;Node26 -->
<g id="edge40" class="edge">
<title>Node21&#45;&gt;Node26</title>
<path fill="none" stroke="#63b8ff" d="M904,-242.6C904,-231.8 904,-219.78 904,-211.84"/>
<polygon fill="#63b8ff" stroke="#63b8ff" points="900.5,-242.8 904,-252.8 907.5,-242.8 900.5,-242.8"/>
</g>
<!-- Node22&#45;&gt;Node4 -->
<g id="edge34" class="edge">
<title>Node22&#45;&gt;Node4</title>
<path fill="none" stroke="#63b8ff" d="M1077.59,-178.5C1072.22,-170.21 1066.69,-160.51 1063,-151 1053.39,-126.23 1049.8,-94.7 1048.58,-79.69"/>
<polygon fill="#63b8ff" stroke="#63b8ff" points="1074.76,-180.56 1083.26,-186.88 1080.55,-176.63 1074.76,-180.56"/>
</g>
<!-- Node23 -->
<g id="node23" class="node">
<title>Node23</title>
<g id="a_node23"><a xlink:href="precipitation_8c.html" target="_top" xlink:title=" ">
<polygon fill="white" stroke="#666666" points="1244,-145.5 1072,-145.5 1072,-126.5 1244,-126.5 1244,-145.5"/>
<text text-anchor="middle" x="1158" y="-133.5" font-family="Helvetica,sans-Serif" font-size="10.00">src/WillyWeather/precipitation.c</text>
</a>
</g>
</g>
<!-- Node22&#45;&gt;Node23 -->
<g id="edge35" class="edge">
<title>Node22&#45;&gt;Node23</title>
<path fill="none" stroke="#63b8ff" d="M1115.4,-179.6C1126.9,-168.1 1140.48,-154.52 1149.16,-145.84"/>
<polygon fill="#63b8ff" stroke="#63b8ff" points="1112.8,-177.25 1108.2,-186.8 1117.75,-182.2 1112.8,-177.25"/>
</g>
<!-- Node24&#45;&gt;Node4 -->
<g id="edge37" class="edge">
<title>Node24&#45;&gt;Node4</title>
<path fill="none" stroke="#63b8ff" d="M744.71,-181.3C780.62,-158.32 835.85,-123.17 841,-121 904.6,-94.25 924.98,-101.37 992,-85 999.11,-83.26 1006.71,-81.38 1013.96,-79.57"/>
<polygon fill="#63b8ff" stroke="#63b8ff" points="742.58,-178.51 736.04,-186.85 746.35,-184.41 742.58,-178.51"/>
</g>
<!-- Node25 -->
<g id="node25" class="node">
<title>Node25</title>
<g id="a_node25"><a xlink:href="tide_8c.html" target="_top" xlink:title=" ">
<polygon fill="white" stroke="#666666" points="783.5,-145.5 654.5,-145.5 654.5,-126.5 783.5,-126.5 783.5,-145.5"/>
<text text-anchor="middle" x="719" y="-133.5" font-family="Helvetica,sans-Serif" font-size="10.00">src/WillyWeather/tide.c</text>
</a>
</g>
</g>
<!-- Node24&#45;&gt;Node25 -->
<g id="edge38" class="edge">
<title>Node24&#45;&gt;Node25</title>
<path fill="none" stroke="#63b8ff" d="M715.91,-176.6C716.75,-165.8 717.69,-153.78 718.31,-145.84"/>
<polygon fill="#63b8ff" stroke="#63b8ff" points="712.4,-176.55 715.11,-186.8 719.38,-177.1 712.4,-176.55"/>
</g>
<!-- Node28&#45;&gt;Node2 -->
<g id="edge55" class="edge">
<title>Node28&#45;&gt;Node2</title>
<path fill="none" stroke="#63b8ff" d="M1094.02,-436.01C1113.19,-427.97 1137.7,-416.67 1158,-404 1184.28,-387.6 1211.56,-364.11 1227.9,-349.21"/>
<polygon fill="#63b8ff" stroke="#63b8ff" points="1092.46,-432.87 1084.54,-439.91 1095.12,-439.35 1092.46,-432.87"/>
</g>
<!-- Node28&#45;&gt;Node3 -->
<g id="edge56" class="edge">
<title>Node28&#45;&gt;Node3</title>
<path fill="none" stroke="#63b8ff" d="M1009.08,-446.26C816.51,-437.67 160.43,-404.55 86,-349 60.32,-329.84 63.59,-314.36 57,-283 41.04,-207 127.62,-205.67 203,-187 457.57,-123.94 530.76,-174.2 792,-151 811.01,-149.31 831.67,-147.05 850.4,-144.85"/>
<polygon fill="#63b8ff" stroke="#63b8ff" points="1009.09,-449.76 1019.24,-446.71 1009.4,-442.77 1009.09,-449.76"/>
</g>
<!-- Node28&#45;&gt;Node7 -->
<g id="edge81" class="edge">
<title>Node28&#45;&gt;Node7</title>
<path fill="none" stroke="#63b8ff" d="M1072.53,-431.11C1077.37,-422.95 1083.11,-413.06 1088,-404 1123.59,-338.06 1105.55,-301.11 1163,-253 1195.25,-225.99 1241.5,-213.57 1277.76,-207.86"/>
<polygon fill="#63b8ff" stroke="#63b8ff" points="1069.5,-429.36 1067.36,-439.74 1075.5,-432.96 1069.5,-429.36"/>
</g>
<!-- Node28&#45;&gt;Node10 -->
<g id="edge58" class="edge">
<title>Node28&#45;&gt;Node10</title>
<path fill="none" stroke="#63b8ff" d="M1114.69,-447.92C1316.91,-445.02 2032,-428.17 2032,-335 2032,-335 2032,-335 2032,-267 2032,-219.2 2006.47,-165.89 1995.7,-145.53"/>
<polygon fill="#63b8ff" stroke="#63b8ff" points="1114.57,-444.42 1104.62,-448.06 1114.66,-451.42 1114.57,-444.42"/>
</g>
<!-- Node28&#45;&gt;Node14 -->
<g id="edge57" class="edge">
<title>Node28&#45;&gt;Node14</title>
<path fill="none" stroke="#63b8ff" d="M1114.56,-441.13C1164.67,-433.6 1242.06,-420.66 1308,-404 1377.69,-386.39 1457.82,-357.82 1496.2,-343.6"/>
<polygon fill="#63b8ff" stroke="#63b8ff" points="1113.98,-437.68 1104.6,-442.61 1115.01,-444.6 1113.98,-437.68"/>
</g>
<!-- Node28&#45;&gt;Node17 -->
<g id="edge59" class="edge">
<title>Node28&#45;&gt;Node17</title>
<path fill="none" stroke="#63b8ff" d="M1009.11,-444.56C870.91,-433.64 502.08,-400.39 392,-349 354.56,-331.52 320.46,-294.59 306.13,-277.73"/>
<polygon fill="#63b8ff" stroke="#63b8ff" points="1009.19,-448.08 1019.44,-445.37 1009.74,-441.1 1009.19,-448.08"/>
</g>
<!-- Node28&#45;&gt;Node21 -->
<g id="edge60" class="edge">
<title>Node28&#45;&gt;Node21</title>
<path fill="none" stroke="#63b8ff" d="M1034.62,-435.07C1020.53,-427.28 1003.7,-416.54 991,-404 971.26,-384.51 929.64,-313.74 912.08,-283.2"/>
<polygon fill="#63b8ff" stroke="#63b8ff" points="1033.38,-438.37 1043.85,-439.97 1036.66,-432.19 1033.38,-438.37"/>
</g>
<!-- Node28&#45;&gt;Node22 -->
<g id="edge61" class="edge">
<title>Node28&#45;&gt;Node22</title>
<path fill="none" stroke="#63b8ff" d="M1067.18,-430C1069.25,-422.05 1071.49,-412.62 1073,-404 1085.15,-334.53 1091.17,-250.24 1093.19,-217.23"/>
<polygon fill="#63b8ff" stroke="#63b8ff" points="1063.79,-429.14 1064.55,-439.71 1070.54,-430.97 1063.79,-429.14"/>
</g>
<!-- Node28&#45;&gt;Node24 -->
<g id="edge62" class="edge">
<title>Node28&#45;&gt;Node24</title>
<path fill="none" stroke="#63b8ff" d="M1008.95,-448.1C963.53,-445.38 898.18,-435.6 851,-404 778.55,-355.47 733.84,-254.45 719.26,-217.2"/>
<polygon fill="#63b8ff" stroke="#63b8ff" points="1009.02,-451.61 1019.18,-448.61 1009.37,-444.61 1009.02,-451.61"/>
</g>
<!-- Node29 -->
<g id="node29" class="node">
<title>Node29</title>
<g id="a_node29"><a xlink:href="stations_8h.html" target="_top" xlink:title=" ">
<polygon fill="white" stroke="#666666" points="1739.5,-277.5 1610.5,-277.5 1610.5,-258.5 1739.5,-258.5 1739.5,-277.5"/>
<text text-anchor="middle" x="1675" y="-265.5" font-family="Helvetica,sans-Serif" font-size="10.00">include/BOM/stations.h</text>
</a>
</g>
</g>
<!-- Node28&#45;&gt;Node29 -->
<g id="edge49" class="edge">
<title>Node28&#45;&gt;Node29</title>
<path fill="none" stroke="#63b8ff" d="M1095.39,-436.51C1182.35,-405.3 1410.25,-323.64 1427,-319 1446.39,-313.63 1565.1,-290.33 1631,-277.52"/>
<polygon fill="#63b8ff" stroke="#63b8ff" points="1093.98,-433.3 1085.75,-439.97 1096.34,-439.89 1093.98,-433.3"/>
</g>
<!-- Node31 -->
<g id="node31" class="node">
<title>Node31</title>
<g id="a_node31"><a xlink:href="ftp_8h.html" target="_top" xlink:title=" ">
<polygon fill="white" stroke="#666666" points="1844.5,-343.5 1767.5,-343.5 1767.5,-324.5 1844.5,-324.5 1844.5,-343.5"/>
<text text-anchor="middle" x="1806" y="-331.5" font-family="Helvetica,sans-Serif" font-size="10.00">include/ftp.h</text>
</a>
</g>
</g>
<!-- Node28&#45;&gt;Node31 -->
<g id="edge63" class="edge">
<title>Node28&#45;&gt;Node31</title>
<path fill="none" stroke="#63b8ff" d="M1114.66,-440.48C1173.13,-431.57 1270.31,-416.76 1354,-404 1507.02,-380.66 1689.18,-352.84 1767.3,-340.91"/>
<polygon fill="#63b8ff" stroke="#63b8ff" points="1113.91,-437.05 1104.56,-442.02 1114.97,-443.97 1113.91,-437.05"/>
</g>
<!-- Node33 -->
<g id="node33" class="node">
<title>Node33</title>
<g id="a_node33"><a xlink:href="http_8h.html" target="_top" xlink:title=" ">
<polygon fill="white" stroke="#666666" points="943.5,-404 860.5,-404 860.5,-385 943.5,-385 943.5,-404"/>
<text text-anchor="middle" x="902" y="-392" font-family="Helvetica,sans-Serif" font-size="10.00">include/http.h</text>
</a>
</g>
</g>
<!-- Node28&#45;&gt;Node33 -->
<g id="edge68" class="edge">
<title>Node28&#45;&gt;Node33</title>
<path fill="none" stroke="#63b8ff" d="M1026.67,-436.8C996.81,-426.91 954.73,-412.97 927.91,-404.08"/>
<polygon fill="#63b8ff" stroke="#63b8ff" points="1025.7,-440.16 1036.29,-439.98 1027.9,-433.52 1025.7,-440.16"/>
</g>
<!-- Node35 -->
<g id="node35" class="node">
<title>Node35</title>
<g id="a_node35"><a xlink:href="utils_8c.html" target="_top" xlink:title=" ">
<polygon fill="white" stroke="#666666" points="1063.5,-404 1000.5,-404 1000.5,-385 1063.5,-385 1063.5,-404"/>
<text text-anchor="middle" x="1032" y="-392" font-family="Helvetica,sans-Serif" font-size="10.00">src/utils.c</text>
</a>
</g>
</g>
<!-- Node28&#45;&gt;Node35 -->
<g id="edge82" class="edge">
<title>Node28&#45;&gt;Node35</title>
<path fill="none" stroke="#63b8ff" d="M1051.99,-430.82C1046.9,-421.82 1040.94,-411.29 1036.86,-404.09"/>
<polygon fill="#63b8ff" stroke="#63b8ff" points="1049.07,-432.77 1057.05,-439.75 1055.17,-429.32 1049.07,-432.77"/>
</g>
<!-- Node29&#45;&gt;Node3 -->
<g id="edge51" class="edge">
<title>Node29&#45;&gt;Node3</title>
<path fill="none" stroke="#63b8ff" d="M1623.21,-256.66C1615.77,-255.34 1608.2,-254.07 1601,-253 1454.19,-231.19 1412.84,-253.57 1269,-217 1235,-208.36 1229.69,-196.76 1196,-187 1120.87,-165.22 1031.65,-151.4 973.53,-143.94"/>
<polygon fill="#63b8ff" stroke="#63b8ff" points="1622.76,-260.14 1633.22,-258.5 1624.02,-253.25 1622.76,-260.14"/>
</g>
<!-- Node29&#45;&gt;Node4 -->
<g id="edge52" class="edge">
<title>Node29&#45;&gt;Node4</title>
<path fill="none" stroke="#63b8ff" d="M1649.91,-253.31C1631.99,-243.42 1607.36,-229.65 1586,-217 1516.6,-175.9 1507.94,-148.16 1432,-121 1314.57,-79 1165.7,-71.62 1092.61,-70.73"/>
<polygon fill="#63b8ff" stroke="#63b8ff" points="1648.67,-256.62 1659.12,-258.36 1652.04,-250.48 1648.67,-256.62"/>
</g>
<!-- Node29&#45;&gt;Node7 -->
<g id="edge53" class="edge">
<title>Node29&#45;&gt;Node7</title>
<path fill="none" stroke="#63b8ff" d="M1620.01,-256.58C1613.6,-255.37 1607.16,-254.16 1601,-253 1523.37,-238.39 1433.02,-221.49 1379.83,-211.56"/>
<polygon fill="#63b8ff" stroke="#63b8ff" points="1619.52,-260.05 1630,-258.47 1620.82,-253.18 1619.52,-260.05"/>
</g>
<!-- Node29&#45;&gt;Node8 -->
<g id="edge50" class="edge">
<title>Node29&#45;&gt;Node8</title>
<path fill="none" stroke="#63b8ff" d="M1689.52,-250.73C1712.47,-225 1756.78,-175.35 1778.45,-151.07"/>
<polygon fill="#63b8ff" stroke="#63b8ff" points="1686.66,-248.68 1682.61,-258.47 1691.88,-253.34 1686.66,-248.68"/>
</g>
<!-- Node30 -->
<g id="node30" class="node">
<title>Node30</title>
<g id="a_node30"><a xlink:href="stations_8c.html" target="_top" xlink:title=" ">
<polygon fill="white" stroke="#666666" points="1701.5,-211.5 1594.5,-211.5 1594.5,-192.5 1701.5,-192.5 1701.5,-211.5"/>
<text text-anchor="middle" x="1648" y="-199.5" font-family="Helvetica,sans-Serif" font-size="10.00">src/BOM/stations.c</text>
</a>
</g>
</g>
<!-- Node29&#45;&gt;Node30 -->
<g id="edge54" class="edge">
<title>Node29&#45;&gt;Node30</title>
<path fill="none" stroke="#63b8ff" d="M1667.33,-248.82C1662.23,-236.74 1655.77,-221.41 1651.76,-211.91"/>
<polygon fill="#63b8ff" stroke="#63b8ff" points="1664.25,-250.52 1671.36,-258.37 1670.7,-247.79 1664.25,-250.52"/>
</g>
<!-- Node31&#45;&gt;Node4 -->
<g id="edge66" class="edge">
<title>Node31&#45;&gt;Node4</title>
<path fill="none" stroke="#63b8ff" d="M1819.66,-316.06C1849.88,-276.48 1915.7,-177.03 1863,-121 1836.43,-92.75 1259.53,-76.26 1092.77,-72.07"/>
<polygon fill="#63b8ff" stroke="#63b8ff" points="1816.56,-314.34 1813.16,-324.37 1822.08,-318.65 1816.56,-314.34"/>
</g>
<!-- Node31&#45;&gt;Node8 -->
<g id="edge64" class="edge">
<title>Node31&#45;&gt;Node8</title>
<path fill="none" stroke="#63b8ff" d="M1804.57,-314.34C1801.58,-275.28 1794.73,-185.68 1792.07,-151.04"/>
<polygon fill="#63b8ff" stroke="#63b8ff" points="1801.08,-314.62 1805.34,-324.33 1808.06,-314.09 1801.08,-314.62"/>
</g>
<!-- Node31&#45;&gt;Node29 -->
<g id="edge65" class="edge">
<title>Node31&#45;&gt;Node29</title>
<path fill="none" stroke="#63b8ff" d="M1779.11,-319.86C1753.3,-307.25 1715.04,-288.56 1692.81,-277.7"/>
<polygon fill="#63b8ff" stroke="#63b8ff" points="1777.81,-323.12 1788.33,-324.37 1780.88,-316.83 1777.81,-323.12"/>
</g>
<!-- Node32 -->
<g id="node32" class="node">
<title>Node32</title>
<g id="a_node32"><a xlink:href="ftp_8c.html" target="_top" xlink:title=" ">
<polygon fill="white" stroke="#666666" points="1965.5,-277.5 1910.5,-277.5 1910.5,-258.5 1965.5,-258.5 1965.5,-277.5"/>
<text text-anchor="middle" x="1938" y="-265.5" font-family="Helvetica,sans-Serif" font-size="10.00">src/ftp.c</text>
</a>
</g>
</g>
<!-- Node31&#45;&gt;Node32 -->
<g id="edge67" class="edge">
<title>Node31&#45;&gt;Node32</title>
<path fill="none" stroke="#63b8ff" d="M1833.1,-319.86C1859.11,-307.25 1897.65,-288.56 1920.06,-277.7"/>
<polygon fill="#63b8ff" stroke="#63b8ff" points="1831.27,-316.86 1823.8,-324.37 1834.33,-323.16 1831.27,-316.86"/>
</g>
<!-- Node33&#45;&gt;Node2 -->
<g id="edge69" class="edge">
<title>Node33&#45;&gt;Node2</title>
<path fill="none" stroke="#63b8ff" d="M953.99,-384.58C1015.04,-374.11 1116.2,-356.75 1181.2,-345.6"/>
<polygon fill="#63b8ff" stroke="#63b8ff" points="953.08,-381.19 943.81,-386.33 954.26,-388.09 953.08,-381.19"/>
</g>
<!-- Node33&#45;&gt;Node3 -->
<g id="edge70" class="edge">
<title>Node33&#45;&gt;Node3</title>
<path fill="none" stroke="#63b8ff" d="M850.15,-394.32C722.34,-394.4 408.48,-381.84 493,-253 532.28,-193.12 743.53,-158.28 850.23,-144.25"/>
<polygon fill="#63b8ff" stroke="#63b8ff" points="850.49,-397.81 860.48,-394.28 850.46,-390.81 850.49,-397.81"/>
</g>
<!-- Node33&#45;&gt;Node4 -->
<g id="edge79" class="edge">
<title>Node33&#45;&gt;Node4</title>
<path fill="none" stroke="#63b8ff" d="M914.68,-376.53C930.01,-355.44 955.87,-317.96 973,-283 1009.93,-207.62 1037.73,-109.32 1045.69,-79.77"/>
<polygon fill="#63b8ff" stroke="#63b8ff" points="911.74,-374.62 908.63,-384.75 917.38,-378.77 911.74,-374.62"/>
</g>
<!-- Node33&#45;&gt;Node10 -->
<g id="edge72" class="edge">
<title>Node33&#45;&gt;Node10</title>
<path fill="none" stroke="#63b8ff" d="M953.67,-388.09C965.9,-386.94 978.9,-385.83 991,-385 1182.5,-371.87 1669.04,-400.29 1854,-349 1913.03,-332.63 1940.9,-333.89 1975,-283 2004.52,-238.94 1996.63,-170.09 1992.64,-145.83"/>
<polygon fill="#63b8ff" stroke="#63b8ff" points="953.24,-384.62 943.62,-389.06 953.91,-391.59 953.24,-384.62"/>
</g>
<!-- Node33&#45;&gt;Node14 -->
<g id="edge71" class="edge">
<title>Node33&#45;&gt;Node14</title>
<path fill="none" stroke="#63b8ff" d="M953.71,-388.55C965.94,-387.39 978.93,-386.15 991,-385 1147.97,-370.07 1331.21,-352.74 1435.32,-342.9"/>
<polygon fill="#63b8ff" stroke="#63b8ff" points="953.28,-385.08 943.65,-389.51 953.94,-392.05 953.28,-385.08"/>
</g>
<!-- Node33&#45;&gt;Node16 -->
<g id="edge73" class="edge">
<title>Node33&#45;&gt;Node16</title>
<path fill="none" stroke="#63b8ff" d="M850.5,-389.34C726.82,-379.35 412.1,-353.92 261.18,-341.72"/>
<polygon fill="#63b8ff" stroke="#63b8ff" points="850.22,-392.83 860.47,-390.14 850.79,-385.85 850.22,-392.83"/>
</g>
<!-- Node33&#45;&gt;Node17 -->
<g id="edge74" class="edge">
<title>Node33&#45;&gt;Node17</title>
<path fill="none" stroke="#63b8ff" d="M849.79,-393.43C768.32,-392.13 606.65,-384.76 475,-349 411.84,-331.84 342.78,-294.41 313.46,-277.54"/>
<polygon fill="#63b8ff" stroke="#63b8ff" points="850.22,-396.94 860.27,-393.57 850.32,-389.94 850.22,-396.94"/>
</g>
<!-- Node33&#45;&gt;Node20 -->
<g id="edge75" class="edge">
<title>Node33&#45;&gt;Node20</title>
<path fill="none" stroke="#63b8ff" d="M855.78,-382.68C815.31,-373.21 756.24,-359.39 712.1,-349.06"/>
<polygon fill="#63b8ff" stroke="#63b8ff" points="855.11,-386.12 865.65,-384.99 856.71,-379.31 855.11,-386.12"/>
</g>
<!-- Node33&#45;&gt;Node21 -->
<g id="edge76" class="edge">
<title>Node33&#45;&gt;Node21</title>
<path fill="none" stroke="#63b8ff" d="M908.64,-375.14C911.17,-367.21 913.75,-357.76 915,-349 918.3,-325.96 912.69,-299.16 908.34,-283.17"/>
<polygon fill="#63b8ff" stroke="#63b8ff" points="905.26,-374.2 905.34,-384.8 911.88,-376.46 905.26,-374.2"/>
</g>
<!-- Node33&#45;&gt;Node22 -->
<g id="edge77" class="edge">
<title>Node33&#45;&gt;Node22</title>
<path fill="none" stroke="#63b8ff" d="M953.45,-385.6C977.77,-379.41 1005.46,-368.43 1024,-349 1054.86,-316.66 1033.01,-292.47 1054,-253 1060.99,-239.85 1071.63,-226.77 1080.17,-217.28"/>
<polygon fill="#63b8ff" stroke="#63b8ff" points="952.57,-382.21 943.63,-387.89 954.16,-389.03 952.57,-382.21"/>
</g>
<!-- Node33&#45;&gt;Node24 -->
<g id="edge78" class="edge">
<title>Node33&#45;&gt;Node24</title>
<path fill="none" stroke="#63b8ff" d="M874.89,-380.19C861.5,-372.55 845.93,-361.9 835,-349 804.78,-313.33 822.51,-288.43 792,-253 778.98,-237.89 760.28,-225.68 744.45,-217.12"/>
<polygon fill="#63b8ff" stroke="#63b8ff" points="873.26,-383.29 883.72,-385 876.61,-377.14 873.26,-383.29"/>
</g>
<!-- Node34 -->
<g id="node34" class="node">
<title>Node34</title>
<g id="a_node34"><a xlink:href="http_8c.html" target="_top" xlink:title=" ">
<polygon fill="white" stroke="#666666" points="906,-343.5 844,-343.5 844,-324.5 906,-324.5 906,-343.5"/>
<text text-anchor="middle" x="875" y="-331.5" font-family="Helvetica,sans-Serif" font-size="10.00">src/http.c</text>
</a>
</g>
</g>
<!-- Node33&#45;&gt;Node34 -->
<g id="edge80" class="edge">
<title>Node33&#45;&gt;Node34</title>
<path fill="none" stroke="#63b8ff" d="M893.76,-375.65C888.87,-365.04 882.87,-352.06 879,-343.67"/>
<polygon fill="#63b8ff" stroke="#63b8ff" points="890.65,-377.26 898.02,-384.87 897,-374.32 890.65,-377.26"/>
</g>
</g>
</svg>
