<?xml version="1.0" encoding="UTF-8" standalone="no"?>
<!DOCTYPE svg PUBLIC "-//W3C//DTD SVG 1.1//EN"
 "http://www.w3.org/Graphics/SVG/1.1/DTD/svg11.dtd">
<!-- Generated by graphviz version 2.49.3 (20211027.1534)
 -->
<!-- Title: include/log.h Pages: 1 -->
<svg width="1374pt" height="341pt"
 viewBox="0.00 0.00 1373.50 341.00" xmlns="http://www.w3.org/2000/svg" xmlns:xlink="http://www.w3.org/1999/xlink">
<g id="graph0" class="graph" transform="scale(1 1) rotate(0) translate(4 337)">
<title>include/log.h</title>
<!-- Node1 -->
<g id="node1" class="node">
<title>Node1</title>
<g id="a_node1"><a xlink:title=" ">
<polygon fill="#bfbfbf" stroke="black" points="715.5,-313.5 715.5,-332.5 786.5,-332.5 786.5,-313.5 715.5,-313.5"/>
<text text-anchor="middle" x="751" y="-320.5" font-family="Helvetica,sans-Serif" font-size="10.00">include/log.h</text>
</a>
</g>
</g>
<!-- Node2 -->
<g id="node2" class="node">
<title>Node2</title>
<g id="a_node2"><a xlink:href="harvest__area_8h.html" target="_top" xlink:title=" ">
<polygon fill="none" stroke="black" points="75,-179.5 75,-209.5 185,-209.5 185,-179.5 75,-179.5"/>
<text text-anchor="start" x="83" y="-197.5" font-family="Helvetica,sans-Serif" font-size="10.00">include/FoodAuthority</text>
<text text-anchor="middle" x="130" y="-186.5" font-family="Helvetica,sans-Serif" font-size="10.00">/harvest_area.h</text>
</a>
</g>
</g>
<!-- Node1&#45;&gt;Node2 -->
<g id="edge1" class="edge">
<title>Node1&#45;&gt;Node2</title>
<path fill="none" stroke="midnightblue" d="M705.02,-322.71C588.89,-323.81 286.8,-322.13 199,-277 169.82,-262 148,-228.78 137.32,-209.71"/>
<polygon fill="midnightblue" stroke="midnightblue" points="705.38,-326.21 715.34,-322.6 705.3,-319.21 705.38,-326.21"/>
</g>
<!-- Node3 -->
<g id="node3" class="node">
<title>Node3</title>
<g id="a_node3"><a xlink:href="main_8h.html" target="_top" xlink:title=" ">
<polygon fill="none" stroke="black" points="546.5,-56.5 546.5,-75.5 625.5,-75.5 625.5,-56.5 546.5,-56.5"/>
<text text-anchor="middle" x="586" y="-63.5" font-family="Helvetica,sans-Serif" font-size="10.00">include/main.h</text>
</a>
</g>
</g>
<!-- Node1&#45;&gt;Node3 -->
<g id="edge29" class="edge">
<title>Node1&#45;&gt;Node3</title>
<path fill="none" stroke="midnightblue" d="M787.93,-309.54C804.16,-302.36 822.18,-291.76 834,-277 861.73,-242.37 875.39,-217.3 853,-179 806.13,-98.83 687.85,-76.04 625.64,-69.57"/>
<polygon fill="midnightblue" stroke="midnightblue" points="786.54,-306.33 778.64,-313.39 789.21,-312.8 786.54,-306.33"/>
</g>
<!-- Node6 -->
<g id="node6" class="node">
<title>Node6</title>
<g id="a_node6"><a xlink:href="_i_b_m___e_i_s_2authenticate_8h.html" target="_top" xlink:title=" ">
<polygon fill="none" stroke="black" points="279.5,-185 279.5,-204 432.5,-204 432.5,-185 279.5,-185"/>
<text text-anchor="middle" x="356" y="-192" font-family="Helvetica,sans-Serif" font-size="10.00">include/IBM_EIS/authenticate.h</text>
</a>
</g>
</g>
<!-- Node1&#45;&gt;Node6 -->
<g id="edge5" class="edge">
<title>Node1&#45;&gt;Node6</title>
<path fill="none" stroke="midnightblue" d="M705,-322.36C645.13,-321.21 538.42,-313.57 456,-277 416.08,-259.29 378.95,-221.27 363.53,-204.16"/>
<polygon fill="midnightblue" stroke="midnightblue" points="705.22,-325.86 715.27,-322.5 705.31,-318.86 705.22,-325.86"/>
</g>
<!-- Node7 -->
<g id="node7" class="node">
<title>Node7</title>
<g id="a_node7"><a xlink:href="timeseries_8h.html" target="_top" xlink:title=" ">
<polygon fill="none" stroke="black" points="184.5,-118 184.5,-137 329.5,-137 329.5,-118 184.5,-118"/>
<text text-anchor="middle" x="257" y="-125" font-family="Helvetica,sans-Serif" font-size="10.00">include/IBM_EIS/timeseries.h</text>
</a>
</g>
</g>
<!-- Node1&#45;&gt;Node7 -->
<g id="edge11" class="edge">
<title>Node1&#45;&gt;Node7</title>
<path fill="none" stroke="midnightblue" d="M705.25,-320.2C638.24,-316.64 509.95,-306.3 405,-277 333.89,-257.15 293.32,-271.84 253,-210 238.22,-187.33 247.72,-153.12 253.5,-137.21"/>
<polygon fill="midnightblue" stroke="midnightblue" points="705.31,-323.71 715.47,-320.72 705.66,-316.72 705.31,-323.71"/>
</g>
<!-- Node10 -->
<g id="node10" class="node">
<title>Node10</title>
<g id="a_node10"><a xlink:href="_ubidots_2authenticate_8h.html" target="_top" xlink:title=" ">
<polygon fill="none" stroke="black" points="677,-252 677,-271 825,-271 825,-252 677,-252"/>
<text text-anchor="middle" x="751" y="-259" font-family="Helvetica,sans-Serif" font-size="10.00">include/Ubidots/authenticate.h</text>
</a>
</g>
</g>
<!-- Node1&#45;&gt;Node10 -->
<g id="edge12" class="edge">
<title>Node1&#45;&gt;Node10</title>
<path fill="none" stroke="midnightblue" d="M751,-303.32C751,-292.5 751,-279.4 751,-271.01"/>
<polygon fill="midnightblue" stroke="midnightblue" points="747.5,-303.48 751,-313.48 754.5,-303.48 747.5,-303.48"/>
</g>
<!-- Node11 -->
<g id="node11" class="node">
<title>Node11</title>
<g id="a_node11"><a xlink:href="devices_8h.html" target="_top" xlink:title=" ">
<polygon fill="none" stroke="black" points="528,-185 528,-204 656,-204 656,-185 528,-185"/>
<text text-anchor="middle" x="592" y="-192" font-family="Helvetica,sans-Serif" font-size="10.00">include/Ubidots/devices.h</text>
</a>
</g>
</g>
<!-- Node1&#45;&gt;Node11 -->
<g id="edge17" class="edge">
<title>Node1&#45;&gt;Node11</title>
<path fill="none" stroke="midnightblue" d="M721.91,-309.11C705.31,-301.07 684.58,-289.83 668,-277 638.78,-254.39 610.85,-220.15 598.56,-204.22"/>
<polygon fill="midnightblue" stroke="midnightblue" points="720.6,-312.36 731.14,-313.46 723.58,-306.03 720.6,-312.36"/>
</g>
<!-- Node14 -->
<g id="node14" class="node">
<title>Node14</title>
<g id="a_node14"><a xlink:href="_willy_weather_2authenticate_8h.html" target="_top" xlink:title=" ">
<polygon fill="none" stroke="black" points="982.5,-246.5 982.5,-276.5 1089.5,-276.5 1089.5,-246.5 982.5,-246.5"/>
<text text-anchor="start" x="990.5" y="-264.5" font-family="Helvetica,sans-Serif" font-size="10.00">include/WillyWeather</text>
<text text-anchor="middle" x="1036" y="-253.5" font-family="Helvetica,sans-Serif" font-size="10.00">/authenticate.h</text>
</a>
</g>
</g>
<!-- Node1&#45;&gt;Node14 -->
<g id="edge18" class="edge">
<title>Node1&#45;&gt;Node14</title>
<path fill="none" stroke="midnightblue" d="M796.51,-312.5C847.05,-301.95 928.59,-284.92 982.25,-273.72"/>
<polygon fill="midnightblue" stroke="midnightblue" points="795.59,-309.11 786.52,-314.58 797.02,-315.97 795.59,-309.11"/>
</g>
<!-- Node15 -->
<g id="node15" class="node">
<title>Node15</title>
<g id="a_node15"><a xlink:href="location_8h.html" target="_top" xlink:title=" ">
<polygon fill="none" stroke="black" points="900.5,-179.5 900.5,-209.5 1007.5,-209.5 1007.5,-179.5 900.5,-179.5"/>
<text text-anchor="start" x="908.5" y="-197.5" font-family="Helvetica,sans-Serif" font-size="10.00">include/WillyWeather</text>
<text text-anchor="middle" x="954" y="-186.5" font-family="Helvetica,sans-Serif" font-size="10.00">/location.h</text>
</a>
</g>
</g>
<!-- Node1&#45;&gt;Node15 -->
<g id="edge27" class="edge">
<title>Node1&#45;&gt;Node15</title>
<path fill="none" stroke="midnightblue" d="M796.49,-313.46C824.11,-306.73 859.1,-295.35 886,-277 912.49,-258.93 934.38,-227.77 945.69,-209.67"/>
<polygon fill="midnightblue" stroke="midnightblue" points="795.63,-310.07 786.68,-315.73 797.21,-316.89 795.63,-310.07"/>
</g>
<!-- Node16 -->
<g id="node16" class="node">
<title>Node16</title>
<g id="a_node16"><a xlink:href="tide_8h.html" target="_top" xlink:title=" ">
<polygon fill="none" stroke="black" points="1064.5,-112.5 1064.5,-142.5 1171.5,-142.5 1171.5,-112.5 1064.5,-112.5"/>
<text text-anchor="start" x="1072.5" y="-130.5" font-family="Helvetica,sans-Serif" font-size="10.00">include/WillyWeather</text>
<text text-anchor="middle" x="1118" y="-119.5" font-family="Helvetica,sans-Serif" font-size="10.00">/tide.h</text>
</a>
</g>
</g>
<!-- Node1&#45;&gt;Node16 -->
<g id="edge28" class="edge">
<title>Node1&#45;&gt;Node16</title>
<path fill="none" stroke="midnightblue" d="M796.85,-319.73C912.84,-312.88 1212.49,-287.82 1265,-210 1291.77,-170.33 1223.91,-148.04 1171.68,-137.14"/>
<polygon fill="midnightblue" stroke="midnightblue" points="796.32,-316.26 786.53,-320.32 796.72,-323.25 796.32,-316.26"/>
</g>
<!-- Node20 -->
<g id="node20" class="node">
<title>Node20</title>
<g id="a_node20"><a xlink:href="utils_8h.html" target="_top" xlink:title=" ">
<polygon fill="none" stroke="black" points="465,-252 465,-271 541,-271 541,-252 465,-252"/>
<text text-anchor="middle" x="503" y="-259" font-family="Helvetica,sans-Serif" font-size="10.00">include/utils.h</text>
</a>
</g>
</g>
<!-- Node1&#45;&gt;Node20 -->
<g id="edge30" class="edge">
<title>Node1&#45;&gt;Node20</title>
<path fill="none" stroke="midnightblue" d="M705.63,-311.11C657.49,-299.57 582.45,-281.56 538.47,-271.01"/>
<polygon fill="midnightblue" stroke="midnightblue" points="704.93,-314.55 715.47,-313.48 706.56,-307.74 704.93,-314.55"/>
</g>
<!-- Node22 -->
<g id="node22" class="node">
<title>Node22</title>
<g id="a_node22"><a xlink:href="log_8c.html" target="_top" xlink:title=" ">
<polygon fill="none" stroke="black" points="1312.5,-252 1312.5,-271 1365.5,-271 1365.5,-252 1312.5,-252"/>
<text text-anchor="middle" x="1339" y="-259" font-family="Helvetica,sans-Serif" font-size="10.00">src/log.c</text>
</a>
</g>
</g>
<!-- Node1&#45;&gt;Node22 -->
<g id="edge38" class="edge">
<title>Node1&#45;&gt;Node22</title>
<path fill="none" stroke="midnightblue" d="M796.75,-322.19C891.42,-321.72 1115.24,-316.15 1298,-277 1304.64,-275.58 1311.68,-273.36 1318.02,-271.09"/>
<polygon fill="midnightblue" stroke="midnightblue" points="796.65,-318.69 786.66,-322.22 796.67,-325.69 796.65,-318.69"/>
</g>
<!-- Node2&#45;&gt;Node3 -->
<g id="edge2" class="edge">
<title>Node2&#45;&gt;Node3</title>
<path fill="none" stroke="midnightblue" d="M136.57,-169.5C143.08,-150.6 155.02,-125.31 175,-112 235.19,-71.9 455.26,-67.05 546.23,-66.8"/>
<polygon fill="midnightblue" stroke="midnightblue" points="133.18,-168.63 133.5,-179.22 139.85,-170.74 133.18,-168.63"/>
</g>
<!-- Node5 -->
<g id="node5" class="node">
<title>Node5</title>
<g id="a_node5"><a xlink:href="harvest__area_8c.html" target="_top" xlink:title=" ">
<polygon fill="none" stroke="black" points="0,-112.5 0,-142.5 128,-142.5 128,-112.5 0,-112.5"/>
<text text-anchor="start" x="8" y="-130.5" font-family="Helvetica,sans-Serif" font-size="10.00">src/FoodAuthority/harvest</text>
<text text-anchor="middle" x="64" y="-119.5" font-family="Helvetica,sans-Serif" font-size="10.00">_area.c</text>
</a>
</g>
</g>
<!-- Node2&#45;&gt;Node5 -->
<g id="edge4" class="edge">
<title>Node2&#45;&gt;Node5</title>
<path fill="none" stroke="midnightblue" d="M108.49,-172.31C98.59,-162.56 87.11,-151.26 78.29,-142.58"/>
<polygon fill="midnightblue" stroke="midnightblue" points="106.1,-174.87 115.68,-179.4 111.01,-169.89 106.1,-174.87"/>
</g>
<!-- Node4 -->
<g id="node4" class="node">
<title>Node4</title>
<g id="a_node4"><a xlink:href="main_8c.html" target="_top" xlink:title=" ">
<polygon fill="none" stroke="black" points="555,-0.5 555,-19.5 617,-19.5 617,-0.5 555,-0.5"/>
<text text-anchor="middle" x="586" y="-7.5" font-family="Helvetica,sans-Serif" font-size="10.00">src/main.c</text>
</a>
</g>
</g>
<!-- Node3&#45;&gt;Node4 -->
<g id="edge3" class="edge">
<title>Node3&#45;&gt;Node4</title>
<path fill="none" stroke="midnightblue" d="M586,-45.8C586,-36.91 586,-26.78 586,-19.75"/>
<polygon fill="midnightblue" stroke="midnightblue" points="582.5,-46.08 586,-56.08 589.5,-46.08 582.5,-46.08"/>
</g>
<!-- Node6&#45;&gt;Node3 -->
<g id="edge9" class="edge">
<title>Node6&#45;&gt;Node3</title>
<path fill="none" stroke="midnightblue" d="M397.92,-182.02C425.89,-173.43 462.91,-160.19 493,-143 527.4,-123.34 561.96,-91 577.5,-75.63"/>
<polygon fill="midnightblue" stroke="midnightblue" points="396.63,-178.76 388.05,-184.98 398.64,-185.46 396.63,-178.76"/>
</g>
<!-- Node6&#45;&gt;Node7 -->
<g id="edge6" class="edge">
<title>Node6&#45;&gt;Node7</title>
<path fill="none" stroke="midnightblue" d="M334.06,-179.09C314.47,-166.24 286.44,-147.83 270.14,-137.13"/>
<polygon fill="midnightblue" stroke="midnightblue" points="332.37,-182.17 342.65,-184.73 336.21,-176.32 332.37,-182.17"/>
</g>
<!-- Node9 -->
<g id="node9" class="node">
<title>Node9</title>
<g id="a_node9"><a xlink:href="_i_b_m___e_i_s_2authenticate_8c.html" target="_top" xlink:title=" ">
<polygon fill="none" stroke="black" points="348,-118 348,-137 484,-137 484,-118 348,-118"/>
<text text-anchor="middle" x="416" y="-125" font-family="Helvetica,sans-Serif" font-size="10.00">src/IBM_EIS/authenticate.c</text>
</a>
</g>
</g>
<!-- Node6&#45;&gt;Node9 -->
<g id="edge10" class="edge">
<title>Node6&#45;&gt;Node9</title>
<path fill="none" stroke="midnightblue" d="M371.11,-177.13C382.84,-164.42 398.65,-147.3 408.04,-137.13"/>
<polygon fill="midnightblue" stroke="midnightblue" points="368.3,-175.01 364.09,-184.73 373.45,-179.76 368.3,-175.01"/>
</g>
<!-- Node7&#45;&gt;Node3 -->
<g id="edge7" class="edge">
<title>Node7&#45;&gt;Node3</title>
<path fill="none" stroke="midnightblue" d="M314.02,-116.19C380.37,-104.19 488.23,-84.68 546.18,-74.2"/>
<polygon fill="midnightblue" stroke="midnightblue" points="313.36,-112.75 304.14,-117.98 314.6,-119.64 313.36,-112.75"/>
</g>
<!-- Node8 -->
<g id="node8" class="node">
<title>Node8</title>
<g id="a_node8"><a xlink:href="timeseries_8c.html" target="_top" xlink:title=" ">
<polygon fill="none" stroke="black" points="193,-56.5 193,-75.5 321,-75.5 321,-56.5 193,-56.5"/>
<text text-anchor="middle" x="257" y="-63.5" font-family="Helvetica,sans-Serif" font-size="10.00">src/IBM_EIS/timeseries.c</text>
</a>
</g>
</g>
<!-- Node7&#45;&gt;Node8 -->
<g id="edge8" class="edge">
<title>Node7&#45;&gt;Node8</title>
<path fill="none" stroke="midnightblue" d="M257,-107.82C257,-97 257,-83.9 257,-75.51"/>
<polygon fill="midnightblue" stroke="midnightblue" points="253.5,-107.98 257,-117.98 260.5,-107.98 253.5,-107.98"/>
</g>
<!-- Node10&#45;&gt;Node11 -->
<g id="edge13" class="edge">
<title>Node10&#45;&gt;Node11</title>
<path fill="none" stroke="midnightblue" d="M720.27,-247.94C688.69,-235.03 640.38,-215.28 612.95,-204.06"/>
<polygon fill="midnightblue" stroke="midnightblue" points="719.31,-251.32 729.89,-251.87 721.95,-244.84 719.31,-251.32"/>
</g>
<!-- Node13 -->
<g id="node13" class="node">
<title>Node13</title>
<g id="a_node13"><a xlink:href="_ubidots_2authenticate_8c.html" target="_top" xlink:title=" ">
<polygon fill="none" stroke="black" points="712.5,-185 712.5,-204 843.5,-204 843.5,-185 712.5,-185"/>
<text text-anchor="middle" x="778" y="-192" font-family="Helvetica,sans-Serif" font-size="10.00">src/Ubidots/authenticate.c</text>
</a>
</g>
</g>
<!-- Node10&#45;&gt;Node13 -->
<g id="edge16" class="edge">
<title>Node10&#45;&gt;Node13</title>
<path fill="none" stroke="midnightblue" d="M758.56,-242.29C763.75,-229.81 770.39,-213.81 774.42,-204.13"/>
<polygon fill="midnightblue" stroke="midnightblue" points="755.25,-241.16 754.64,-251.73 761.71,-243.84 755.25,-241.16"/>
</g>
<!-- Node11&#45;&gt;Node3 -->
<g id="edge14" class="edge">
<title>Node11&#45;&gt;Node3</title>
<path fill="none" stroke="midnightblue" d="M591.11,-174.81C589.8,-147.08 587.38,-96.13 586.42,-75.76"/>
<polygon fill="midnightblue" stroke="midnightblue" points="587.62,-174.98 591.59,-184.81 594.61,-174.65 587.62,-174.98"/>
</g>
<!-- Node12 -->
<g id="node12" class="node">
<title>Node12</title>
<g id="a_node12"><a xlink:href="devices_8c.html" target="_top" xlink:title=" ">
<polygon fill="none" stroke="black" points="614.5,-118 614.5,-137 725.5,-137 725.5,-118 614.5,-118"/>
<text text-anchor="middle" x="670" y="-125" font-family="Helvetica,sans-Serif" font-size="10.00">src/Ubidots/devices.c</text>
</a>
</g>
</g>
<!-- Node11&#45;&gt;Node12 -->
<g id="edge15" class="edge">
<title>Node11&#45;&gt;Node12</title>
<path fill="none" stroke="midnightblue" d="M610.34,-178.21C625.71,-165.41 647.09,-147.59 659.65,-137.13"/>
<polygon fill="midnightblue" stroke="midnightblue" points="607.96,-175.64 602.52,-184.73 612.44,-181.02 607.96,-175.64"/>
</g>
<!-- Node14&#45;&gt;Node3 -->
<g id="edge25" class="edge">
<title>Node14&#45;&gt;Node3</title>
<path fill="none" stroke="midnightblue" d="M1041.09,-235.98C1046.39,-202.83 1049.9,-144.15 1017,-112 989.29,-84.92 727.09,-72.28 625.73,-68.38"/>
<polygon fill="midnightblue" stroke="midnightblue" points="1037.58,-235.72 1039.27,-246.17 1044.47,-236.94 1037.58,-235.72"/>
</g>
<!-- Node14&#45;&gt;Node15 -->
<g id="edge19" class="edge">
<title>Node14&#45;&gt;Node15</title>
<path fill="none" stroke="midnightblue" d="M1010.35,-240.17C997.81,-230.23 983.03,-218.51 971.76,-209.58"/>
<polygon fill="midnightblue" stroke="midnightblue" points="1008.2,-242.93 1018.21,-246.4 1012.54,-237.44 1008.2,-242.93"/>
</g>
<!-- Node14&#45;&gt;Node16 -->
<g id="edge24" class="edge">
<title>Node14&#45;&gt;Node16</title>
<path fill="none" stroke="midnightblue" d="M1050.08,-237.83C1067.08,-210.47 1095.15,-165.28 1109.29,-142.52"/>
<polygon fill="midnightblue" stroke="midnightblue" points="1047.08,-236.03 1044.78,-246.37 1053.03,-239.73 1047.08,-236.03"/>
</g>
<!-- Node19 -->
<g id="node19" class="node">
<title>Node19</title>
<g id="a_node19"><a xlink:href="_willy_weather_2authenticate_8c.html" target="_top" xlink:title=" ">
<polygon fill="none" stroke="black" points="1102.5,-185 1102.5,-204 1255.5,-204 1255.5,-185 1102.5,-185"/>
<text text-anchor="middle" x="1179" y="-192" font-family="Helvetica,sans-Serif" font-size="10.00">src/WillyWeather/authenticate.c</text>
</a>
</g>
</g>
<!-- Node14&#45;&gt;Node19 -->
<g id="edge26" class="edge">
<title>Node14&#45;&gt;Node19</title>
<path fill="none" stroke="midnightblue" d="M1076.41,-242.13C1103.93,-229.62 1139.09,-213.64 1160.28,-204.01"/>
<polygon fill="midnightblue" stroke="midnightblue" points="1074.68,-239.07 1067.03,-246.4 1077.58,-245.44 1074.68,-239.07"/>
</g>
<!-- Node15&#45;&gt;Node16 -->
<g id="edge20" class="edge">
<title>Node15&#45;&gt;Node16</title>
<path fill="none" stroke="midnightblue" d="M998.96,-175.68C1025.26,-165.26 1058,-152.28 1082.48,-142.58"/>
<polygon fill="midnightblue" stroke="midnightblue" points="997.59,-172.46 989.59,-179.4 1000.17,-178.97 997.59,-172.46"/>
</g>
<!-- Node18 -->
<g id="node18" class="node">
<title>Node18</title>
<g id="a_node18"><a xlink:href="location_8c.html" target="_top" xlink:title=" ">
<polygon fill="none" stroke="black" points="874,-118 874,-137 1008,-137 1008,-118 874,-118"/>
<text text-anchor="middle" x="941" y="-125" font-family="Helvetica,sans-Serif" font-size="10.00">src/WillyWeather/location.c</text>
</a>
</g>
</g>
<!-- Node15&#45;&gt;Node18 -->
<g id="edge23" class="edge">
<title>Node15&#45;&gt;Node18</title>
<path fill="none" stroke="midnightblue" d="M949.15,-169.25C946.9,-158.02 944.38,-145.38 942.74,-137.19"/>
<polygon fill="midnightblue" stroke="midnightblue" points="945.79,-170.28 951.18,-179.4 952.65,-168.9 945.79,-170.28"/>
</g>
<!-- Node16&#45;&gt;Node3 -->
<g id="edge21" class="edge">
<title>Node16&#45;&gt;Node3</title>
<path fill="none" stroke="midnightblue" d="M1054.4,-112.71C1052.92,-112.46 1051.45,-112.22 1050,-112 893.83,-87.86 705.97,-74.36 625.6,-69.32"/>
<polygon fill="midnightblue" stroke="midnightblue" points="1053.82,-116.16 1064.28,-114.46 1055.05,-109.27 1053.82,-116.16"/>
</g>
<!-- Node17 -->
<g id="node17" class="node">
<title>Node17</title>
<g id="a_node17"><a xlink:href="tide_8c.html" target="_top" xlink:title=" ">
<polygon fill="none" stroke="black" points="1060,-56.5 1060,-75.5 1176,-75.5 1176,-56.5 1060,-56.5"/>
<text text-anchor="middle" x="1118" y="-63.5" font-family="Helvetica,sans-Serif" font-size="10.00">src/WillyWeather/tide.c</text>
</a>
</g>
</g>
<!-- Node16&#45;&gt;Node17 -->
<g id="edge22" class="edge">
<title>Node16&#45;&gt;Node17</title>
<path fill="none" stroke="midnightblue" d="M1118,-102.29C1118,-92.86 1118,-82.65 1118,-75.66"/>
<polygon fill="midnightblue" stroke="midnightblue" points="1114.5,-102.4 1118,-112.4 1121.5,-102.4 1114.5,-102.4"/>
</g>
<!-- Node20&#45;&gt;Node2 -->
<g id="edge31" class="edge">
<title>Node20&#45;&gt;Node2</title>
<path fill="none" stroke="midnightblue" d="M454.64,-252.07C385.35,-240 258.17,-217.83 185.26,-205.13"/>
<polygon fill="midnightblue" stroke="midnightblue" points="454.38,-255.58 464.84,-253.85 455.58,-248.68 454.38,-255.58"/>
</g>
<!-- Node20&#45;&gt;Node6 -->
<g id="edge32" class="edge">
<title>Node20&#45;&gt;Node6</title>
<path fill="none" stroke="midnightblue" d="M474.24,-247.78C445.12,-234.91 400.9,-215.35 375.6,-204.17"/>
<polygon fill="midnightblue" stroke="midnightblue" points="472.92,-251.03 483.48,-251.87 475.75,-244.62 472.92,-251.03"/>
</g>
<!-- Node20&#45;&gt;Node7 -->
<g id="edge33" class="edge">
<title>Node20&#45;&gt;Node7</title>
<path fill="none" stroke="midnightblue" d="M454.64,-256.37C393.96,-250.15 294.81,-236.22 270,-210 250.99,-189.91 253.26,-153.79 255.52,-137.23"/>
<polygon fill="midnightblue" stroke="midnightblue" points="454.47,-259.87 464.77,-257.37 455.16,-252.9 454.47,-259.87"/>
</g>
<!-- Node20&#45;&gt;Node11 -->
<g id="edge34" class="edge">
<title>Node20&#45;&gt;Node11</title>
<path fill="none" stroke="midnightblue" d="M523.45,-245.57C541.01,-232.74 565.73,-214.69 580.19,-204.13"/>
<polygon fill="midnightblue" stroke="midnightblue" points="521.01,-243.01 515,-251.73 525.14,-248.66 521.01,-243.01"/>
</g>
<!-- Node20&#45;&gt;Node15 -->
<g id="edge35" class="edge">
<title>Node20&#45;&gt;Node15</title>
<path fill="none" stroke="midnightblue" d="M551.21,-253.55C636.15,-241.31 811.85,-215.99 900.45,-203.22"/>
<polygon fill="midnightblue" stroke="midnightblue" points="550.46,-250.12 541.06,-255.01 551.46,-257.05 550.46,-250.12"/>
</g>
<!-- Node20&#45;&gt;Node16 -->
<g id="edge36" class="edge">
<title>Node20&#45;&gt;Node16</title>
<path fill="none" stroke="midnightblue" d="M551.23,-250.59C584.49,-242.55 629.02,-229.34 665,-210 684.2,-199.68 682.92,-187.47 703,-179 832.42,-124.4 877.69,-160.98 1017,-143 1032.37,-141.02 1049.04,-138.69 1064.31,-136.5"/>
<polygon fill="midnightblue" stroke="midnightblue" points="550.23,-247.23 541.29,-252.92 551.83,-254.04 550.23,-247.23"/>
</g>
<!-- Node21 -->
<g id="node21" class="node">
<title>Node21</title>
<g id="a_node21"><a xlink:href="utils_8c.html" target="_top" xlink:title=" ">
<polygon fill="none" stroke="black" points="450.5,-185 450.5,-204 509.5,-204 509.5,-185 450.5,-185"/>
<text text-anchor="middle" x="480" y="-192" font-family="Helvetica,sans-Serif" font-size="10.00">src/utils.c</text>
</a>
</g>
</g>
<!-- Node20&#45;&gt;Node21 -->
<g id="edge37" class="edge">
<title>Node20&#45;&gt;Node21</title>
<path fill="none" stroke="midnightblue" d="M496.56,-242.29C492.14,-229.81 486.48,-213.81 483.05,-204.13"/>
<polygon fill="midnightblue" stroke="midnightblue" points="493.26,-243.47 499.9,-251.73 499.86,-241.14 493.26,-243.47"/>
</g>
</g>
</svg>
