<?xml version="1.0" encoding="UTF-8" standalone="no"?>
<!DOCTYPE svg PUBLIC "-//W3C//DTD SVG 1.1//EN"
 "http://www.w3.org/Graphics/SVG/1.1/DTD/svg11.dtd">
<!-- Generated by graphviz version 2.49.3 (20211027.1534)
 -->
<!-- Title: include/log.h Pages: 1 -->
<svg width="2064pt" height="531pt"
 viewBox="0.00 0.00 2063.50 531.00" xmlns="http://www.w3.org/2000/svg" xmlns:xlink="http://www.w3.org/1999/xlink">
<g id="graph0" class="graph" transform="scale(1 1) rotate(0) translate(4 527)">
<title>include/log.h</title>
<!-- Node1 -->
<g id="node1" class="node">
<title>Node1</title>
<g id="a_node1"><a xlink:title=" ">
<polygon fill="#bfbfbf" stroke="black" points="1104.5,-503.5 1104.5,-522.5 1175.5,-522.5 1175.5,-503.5 1104.5,-503.5"/>
<text text-anchor="middle" x="1140" y="-510.5" font-family="Helvetica,sans-Serif" font-size="10.00">include/log.h</text>
</a>
</g>
</g>
<!-- Node2 -->
<g id="node2" class="node">
<title>Node2</title>
<g id="a_node2"><a xlink:href="harvest__area_8h.html" target="_top" xlink:title=" ">
<polygon fill="none" stroke="black" points="1284,-324.5 1284,-354.5 1394,-354.5 1394,-324.5 1284,-324.5"/>
<text text-anchor="start" x="1292" y="-342.5" font-family="Helvetica,sans-Serif" font-size="10.00">include/FoodAuthority</text>
<text text-anchor="middle" x="1339" y="-331.5" font-family="Helvetica,sans-Serif" font-size="10.00">/harvest_area.h</text>
</a>
</g>
</g>
<!-- Node1&#45;&gt;Node2 -->
<g id="edge1" class="edge">
<title>Node1&#45;&gt;Node2</title>
<path fill="none" stroke="midnightblue" d="M1168.17,-498.94C1201.91,-482.23 1258.67,-450.67 1297,-411 1313.24,-394.2 1325.91,-369.99 1332.92,-354.76"/>
<polygon fill="midnightblue" stroke="midnightblue" points="1166.36,-495.93 1158.89,-503.44 1169.41,-502.22 1166.36,-495.93"/>
</g>
<!-- Node3 -->
<g id="node3" class="node">
<title>Node3</title>
<g id="a_node3"><a xlink:href="harvest__areas_8h.html" target="_top" xlink:title=" ">
<polygon fill="none" stroke="black" points="1278,-123.5 1278,-153.5 1388,-153.5 1388,-123.5 1278,-123.5"/>
<text text-anchor="start" x="1286" y="-141.5" font-family="Helvetica,sans-Serif" font-size="10.00">include/FoodAuthority</text>
<text text-anchor="middle" x="1333" y="-130.5" font-family="Helvetica,sans-Serif" font-size="10.00">/harvest_areas.h</text>
</a>
</g>
</g>
<!-- Node1&#45;&gt;Node3 -->
<g id="edge15" class="edge">
<title>Node1&#45;&gt;Node3</title>
<path fill="none" stroke="midnightblue" d="M1185.78,-510.21C1349.74,-503.21 1898,-474.38 1898,-402 1898,-402 1898,-402 1898,-271.5 1898,-268.25 1530.37,-184.35 1388.2,-152.03"/>
<polygon fill="midnightblue" stroke="midnightblue" points="1185.39,-506.73 1175.54,-510.64 1185.68,-513.72 1185.39,-506.73"/>
</g>
<!-- Node4 -->
<g id="node4" class="node">
<title>Node4</title>
<g id="a_node4"><a xlink:href="main_8h.html" target="_top" xlink:title=" ">
<polygon fill="none" stroke="black" points="921.5,-62 921.5,-81 1000.5,-81 1000.5,-62 921.5,-62"/>
<text text-anchor="middle" x="961" y="-69" font-family="Helvetica,sans-Serif" font-size="10.00">include/main.h</text>
</a>
</g>
</g>
<!-- Node1&#45;&gt;Node4 -->
<g id="edge43" class="edge">
<title>Node1&#45;&gt;Node4</title>
<path fill="none" stroke="midnightblue" d="M1094.25,-511.31C907.09,-508.3 205.04,-495.23 110,-467 55.56,-450.83 0,-458.79 0,-402 0,-402 0,-402 0,-204.5 0,-109.93 739.88,-79.69 921.23,-73.7"/>
<polygon fill="midnightblue" stroke="midnightblue" points="1094.26,-514.81 1104.31,-511.47 1094.37,-507.81 1094.26,-514.81"/>
</g>
<!-- Node7 -->
<g id="node7" class="node">
<title>Node7</title>
<g id="a_node7"><a xlink:href="transform_8h.html" target="_top" xlink:title=" ">
<polygon fill="none" stroke="black" points="1388.5,-196 1388.5,-215 1487.5,-215 1487.5,-196 1388.5,-196"/>
<text text-anchor="middle" x="1438" y="-203" font-family="Helvetica,sans-Serif" font-size="10.00">include/transform.h</text>
</a>
</g>
</g>
<!-- Node1&#45;&gt;Node7 -->
<g id="edge44" class="edge">
<title>Node1&#45;&gt;Node7</title>
<path fill="none" stroke="midnightblue" d="M1183.55,-500.61C1264.02,-476.87 1433.54,-413.56 1497,-288 1503.21,-275.7 1502.76,-269.52 1497,-257 1488.26,-238.02 1468.48,-223.51 1454.22,-215.01"/>
<polygon fill="midnightblue" stroke="midnightblue" points="1182.37,-497.31 1173.73,-503.44 1184.31,-504.04 1182.37,-497.31"/>
</g>
<!-- Node8 -->
<g id="node8" class="node">
<title>Node8</title>
<g id="a_node8"><a xlink:href="timeseries_8h.html" target="_top" xlink:title=" ">
<polygon fill="none" stroke="black" points="1722.5,-129 1722.5,-148 1867.5,-148 1867.5,-129 1722.5,-129"/>
<text text-anchor="middle" x="1795" y="-136" font-family="Helvetica,sans-Serif" font-size="10.00">include/IBM_EIS/timeseries.h</text>
</a>
</g>
</g>
<!-- Node1&#45;&gt;Node8 -->
<g id="edge20" class="edge">
<title>Node1&#45;&gt;Node8</title>
<path fill="none" stroke="midnightblue" d="M1185.7,-510.83C1360.09,-505.75 1974,-482.19 1974,-402 1974,-402 1974,-402 1974,-271.5 1974,-200.45 1881.53,-163.34 1829.51,-148.09"/>
<polygon fill="midnightblue" stroke="midnightblue" points="1185.47,-507.33 1175.57,-511.11 1185.66,-514.33 1185.47,-507.33"/>
</g>
<!-- Node12 -->
<g id="node12" class="node">
<title>Node12</title>
<g id="a_node12"><a xlink:href="_i_b_m___e_i_s_2authenticate_8h.html" target="_top" xlink:title=" ">
<polygon fill="none" stroke="black" points="1565.5,-330 1565.5,-349 1718.5,-349 1718.5,-330 1565.5,-330"/>
<text text-anchor="middle" x="1642" y="-337" font-family="Helvetica,sans-Serif" font-size="10.00">include/IBM_EIS/authenticate.h</text>
</a>
</g>
</g>
<!-- Node1&#45;&gt;Node12 -->
<g id="edge16" class="edge">
<title>Node1&#45;&gt;Node12</title>
<path fill="none" stroke="midnightblue" d="M1185.54,-511.61C1279.23,-510.08 1489.89,-502.65 1551,-467 1599.61,-438.64 1629.3,-372.86 1638.73,-349.18"/>
<polygon fill="midnightblue" stroke="midnightblue" points="1185.46,-508.11 1175.51,-511.76 1185.56,-515.11 1185.46,-508.11"/>
</g>
<!-- Node14 -->
<g id="node14" class="node">
<title>Node14</title>
<g id="a_node14"><a xlink:href="_ubidots_2authenticate_8h.html" target="_top" xlink:title=" ">
<polygon fill="none" stroke="black" points="204,-330 204,-349 352,-349 352,-330 204,-330"/>
<text text-anchor="middle" x="278" y="-337" font-family="Helvetica,sans-Serif" font-size="10.00">include/Ubidots/authenticate.h</text>
</a>
</g>
</g>
<!-- Node1&#45;&gt;Node14 -->
<g id="edge21" class="edge">
<title>Node1&#45;&gt;Node14</title>
<path fill="none" stroke="midnightblue" d="M1093.84,-509.4C947.9,-500.63 498.27,-469.43 366,-411 331.98,-395.97 299.98,-364.42 285.75,-349.14"/>
<polygon fill="midnightblue" stroke="midnightblue" points="1094.03,-512.91 1104.22,-510.01 1094.44,-505.92 1094.03,-512.91"/>
</g>
<!-- Node15 -->
<g id="node15" class="node">
<title>Node15</title>
<g id="a_node15"><a xlink:href="devices_8h.html" target="_top" xlink:title=" ">
<polygon fill="none" stroke="black" points="66,-263 66,-282 194,-282 194,-263 66,-263"/>
<text text-anchor="middle" x="130" y="-270" font-family="Helvetica,sans-Serif" font-size="10.00">include/Ubidots/devices.h</text>
</a>
</g>
</g>
<!-- Node1&#45;&gt;Node15 -->
<g id="edge26" class="edge">
<title>Node1&#45;&gt;Node15</title>
<path fill="none" stroke="midnightblue" d="M1094.12,-510.7C929.73,-505.47 371.39,-482.69 210,-411 172.31,-394.26 155.71,-391.23 136,-355 123.12,-331.32 126.05,-297.9 128.42,-282.24"/>
<polygon fill="midnightblue" stroke="midnightblue" points="1094.27,-514.2 1104.37,-511.02 1094.48,-507.21 1094.27,-514.2"/>
</g>
<!-- Node18 -->
<g id="node18" class="node">
<title>Node18</title>
<g id="a_node18"><a xlink:href="_willy_weather_2authenticate_8h.html" target="_top" xlink:title=" ">
<polygon fill="none" stroke="black" points="522.5,-324.5 522.5,-354.5 629.5,-354.5 629.5,-324.5 522.5,-324.5"/>
<text text-anchor="start" x="530.5" y="-342.5" font-family="Helvetica,sans-Serif" font-size="10.00">include/WillyWeather</text>
<text text-anchor="middle" x="576" y="-331.5" font-family="Helvetica,sans-Serif" font-size="10.00">/authenticate.h</text>
</a>
</g>
</g>
<!-- Node1&#45;&gt;Node18 -->
<g id="edge27" class="edge">
<title>Node1&#45;&gt;Node18</title>
<path fill="none" stroke="midnightblue" d="M1094.16,-511.57C1002.82,-508.87 794.01,-493.37 644,-411 618.81,-397.17 597.24,-370.87 585.49,-354.6"/>
<polygon fill="midnightblue" stroke="midnightblue" points="1094.1,-515.07 1104.19,-511.83 1094.28,-508.07 1094.1,-515.07"/>
</g>
<!-- Node19 -->
<g id="node19" class="node">
<title>Node19</title>
<g id="a_node19"><a xlink:href="location_8h.html" target="_top" xlink:title=" ">
<polygon fill="none" stroke="black" points="946.5,-257.5 946.5,-287.5 1053.5,-287.5 1053.5,-257.5 946.5,-257.5"/>
<text text-anchor="start" x="954.5" y="-275.5" font-family="Helvetica,sans-Serif" font-size="10.00">include/WillyWeather</text>
<text text-anchor="middle" x="1000" y="-264.5" font-family="Helvetica,sans-Serif" font-size="10.00">/location.h</text>
</a>
</g>
</g>
<!-- Node1&#45;&gt;Node19 -->
<g id="edge41" class="edge">
<title>Node1&#45;&gt;Node19</title>
<path fill="none" stroke="midnightblue" d="M1121.19,-496.82C1111.9,-488.66 1101,-478.03 1093,-467 1048.79,-406.06 1016.45,-320.81 1004.77,-287.56"/>
<polygon fill="midnightblue" stroke="midnightblue" points="1118.94,-499.49 1128.82,-503.3 1123.46,-494.16 1118.94,-499.49"/>
</g>
<!-- Node22 -->
<g id="node22" class="node">
<title>Node22</title>
<g id="a_node22"><a xlink:href="tide_8h.html" target="_top" xlink:title=" ">
<polygon fill="none" stroke="black" points="365.5,-190.5 365.5,-220.5 472.5,-220.5 472.5,-190.5 365.5,-190.5"/>
<text text-anchor="start" x="373.5" y="-208.5" font-family="Helvetica,sans-Serif" font-size="10.00">include/WillyWeather</text>
<text text-anchor="middle" x="419" y="-197.5" font-family="Helvetica,sans-Serif" font-size="10.00">/tide.h</text>
</a>
</g>
</g>
<!-- Node1&#45;&gt;Node22 -->
<g id="edge42" class="edge">
<title>Node1&#45;&gt;Node22</title>
<path fill="none" stroke="midnightblue" d="M1093.97,-512.32C885.28,-513.15 38,-509.9 38,-402 38,-402 38,-402 38,-338.5 38,-301.31 29.54,-282.08 57,-257 79.37,-236.56 269.87,-218.51 365.17,-210.66"/>
<polygon fill="midnightblue" stroke="midnightblue" points="1094.29,-515.81 1104.27,-512.27 1094.26,-508.81 1094.29,-515.81"/>
</g>
<!-- Node26 -->
<g id="node26" class="node">
<title>Node26</title>
<g id="a_node26"><a xlink:href="utils_8h.html" target="_top" xlink:title=" ">
<polygon fill="none" stroke="black" points="1102,-447.5 1102,-466.5 1178,-466.5 1178,-447.5 1102,-447.5"/>
<text text-anchor="middle" x="1140" y="-454.5" font-family="Helvetica,sans-Serif" font-size="10.00">include/utils.h</text>
</a>
</g>
</g>
<!-- Node1&#45;&gt;Node26 -->
<g id="edge45" class="edge">
<title>Node1&#45;&gt;Node26</title>
<path fill="none" stroke="midnightblue" d="M1140,-492.8C1140,-483.91 1140,-473.78 1140,-466.75"/>
<polygon fill="midnightblue" stroke="midnightblue" points="1136.5,-493.08 1140,-503.08 1143.5,-493.08 1136.5,-493.08"/>
</g>
<!-- Node36 -->
<g id="node36" class="node">
<title>Node36</title>
<g id="a_node36"><a xlink:href="log_8c.html" target="_top" xlink:title=" ">
<polygon fill="none" stroke="black" points="2002.5,-447.5 2002.5,-466.5 2055.5,-466.5 2055.5,-447.5 2002.5,-447.5"/>
<text text-anchor="middle" x="2029" y="-454.5" font-family="Helvetica,sans-Serif" font-size="10.00">src/log.c</text>
</a>
</g>
</g>
<!-- Node1&#45;&gt;Node36 -->
<g id="edge82" class="edge">
<title>Node1&#45;&gt;Node36</title>
<path fill="none" stroke="midnightblue" d="M1185.93,-512.19C1313.7,-512.14 1683.9,-508.17 1988,-467 1992.62,-466.37 1997.5,-465.5 2002.21,-464.54"/>
<polygon fill="midnightblue" stroke="midnightblue" points="1185.74,-508.69 1175.74,-512.18 1185.74,-515.69 1185.74,-508.69"/>
</g>
<!-- Node2&#45;&gt;Node3 -->
<g id="edge2" class="edge">
<title>Node2&#45;&gt;Node3</title>
<path fill="none" stroke="midnightblue" d="M1404.41,-335.15C1437.84,-329.71 1475.84,-316.98 1497,-288 1506.01,-275.67 1513.93,-213.95 1496,-190 1489.23,-180.96 1432.68,-164.77 1388.07,-153.16"/>
<polygon fill="midnightblue" stroke="midnightblue" points="1403.61,-331.73 1394.21,-336.61 1404.61,-338.66 1403.61,-331.73"/>
</g>
<!-- Node2&#45;&gt;Node4 -->
<g id="edge6" class="edge">
<title>Node2&#45;&gt;Node4</title>
<path fill="none" stroke="midnightblue" d="M1335.95,-314.4C1335.07,-296.39 1337.09,-272.33 1351,-257 1395.62,-207.82 1454.7,-273 1496,-221 1523.09,-186.89 1526.32,-155.21 1497,-123 1480.29,-104.64 1122,-81.96 1000.72,-74.79"/>
<polygon fill="midnightblue" stroke="midnightblue" points="1332.47,-314.76 1336.76,-324.44 1339.44,-314.2 1332.47,-314.76"/>
</g>
<!-- Node2&#45;&gt;Node7 -->
<g id="edge7" class="edge">
<title>Node2&#45;&gt;Node7</title>
<path fill="none" stroke="midnightblue" d="M1323.83,-315.52C1314.49,-298.22 1306.34,-274.56 1318,-257 1328.38,-241.37 1375.75,-224.78 1407.78,-215.04"/>
<polygon fill="midnightblue" stroke="midnightblue" points="1320.95,-317.53 1329.02,-324.4 1326.99,-314 1320.95,-317.53"/>
</g>
<!-- Node11 -->
<g id="node11" class="node">
<title>Node11</title>
<g id="a_node11"><a xlink:href="harvest__area_8c.html" target="_top" xlink:title=" ">
<polygon fill="none" stroke="black" points="1360,-257.5 1360,-287.5 1488,-287.5 1488,-257.5 1360,-257.5"/>
<text text-anchor="start" x="1368" y="-275.5" font-family="Helvetica,sans-Serif" font-size="10.00">src/FoodAuthority/harvest</text>
<text text-anchor="middle" x="1424" y="-264.5" font-family="Helvetica,sans-Serif" font-size="10.00">_area.c</text>
</a>
</g>
</g>
<!-- Node2&#45;&gt;Node11 -->
<g id="edge14" class="edge">
<title>Node2&#45;&gt;Node11</title>
<path fill="none" stroke="midnightblue" d="M1365.59,-318.17C1378.59,-308.23 1393.9,-296.51 1405.59,-287.58"/>
<polygon fill="midnightblue" stroke="midnightblue" points="1363.26,-315.54 1357.44,-324.4 1367.51,-321.1 1363.26,-315.54"/>
</g>
<!-- Node3&#45;&gt;Node4 -->
<g id="edge3" class="edge">
<title>Node3&#45;&gt;Node4</title>
<path fill="none" stroke="midnightblue" d="M1267.61,-126.07C1190.37,-112.58 1064.33,-90.56 1000.59,-79.42"/>
<polygon fill="midnightblue" stroke="midnightblue" points="1267.26,-129.57 1277.71,-127.84 1268.46,-122.67 1267.26,-129.57"/>
</g>
<!-- Node6 -->
<g id="node6" class="node">
<title>Node6</title>
<g id="a_node6"><a xlink:href="harvest__areas_8c.html" target="_top" xlink:title=" ">
<polygon fill="none" stroke="black" points="1269,-56.5 1269,-86.5 1397,-86.5 1397,-56.5 1269,-56.5"/>
<text text-anchor="start" x="1277" y="-74.5" font-family="Helvetica,sans-Serif" font-size="10.00">src/FoodAuthority/harvest</text>
<text text-anchor="middle" x="1333" y="-63.5" font-family="Helvetica,sans-Serif" font-size="10.00">_areas.c</text>
</a>
</g>
</g>
<!-- Node3&#45;&gt;Node6 -->
<g id="edge5" class="edge">
<title>Node3&#45;&gt;Node6</title>
<path fill="none" stroke="midnightblue" d="M1333,-113.11C1333,-104.15 1333,-94.32 1333,-86.58"/>
<polygon fill="midnightblue" stroke="midnightblue" points="1329.5,-113.4 1333,-123.4 1336.5,-113.4 1329.5,-113.4"/>
</g>
<!-- Node5 -->
<g id="node5" class="node">
<title>Node5</title>
<g id="a_node5"><a xlink:href="main_8c.html" target="_top" xlink:title=" ">
<polygon fill="none" stroke="black" points="930,-0.5 930,-19.5 992,-19.5 992,-0.5 930,-0.5"/>
<text text-anchor="middle" x="961" y="-7.5" font-family="Helvetica,sans-Serif" font-size="10.00">src/main.c</text>
</a>
</g>
</g>
<!-- Node4&#45;&gt;Node5 -->
<g id="edge4" class="edge">
<title>Node4&#45;&gt;Node5</title>
<path fill="none" stroke="midnightblue" d="M961,-51.82C961,-41 961,-27.9 961,-19.51"/>
<polygon fill="midnightblue" stroke="midnightblue" points="957.5,-51.98 961,-61.98 964.5,-51.98 957.5,-51.98"/>
</g>
<!-- Node7&#45;&gt;Node3 -->
<g id="edge8" class="edge">
<title>Node7&#45;&gt;Node3</title>
<path fill="none" stroke="midnightblue" d="M1415.31,-190.45C1397.7,-179.55 1373.39,-164.5 1355.76,-153.59"/>
<polygon fill="midnightblue" stroke="midnightblue" points="1413.49,-193.45 1423.84,-195.73 1417.18,-187.49 1413.49,-193.45"/>
</g>
<!-- Node7&#45;&gt;Node4 -->
<g id="edge12" class="edge">
<title>Node7&#45;&gt;Node4</title>
<path fill="none" stroke="midnightblue" d="M1398.63,-193.19C1364.29,-183.23 1313.2,-168.13 1269,-154 1228.3,-140.99 1219.08,-134.75 1178,-123 1116.64,-105.45 1044.23,-89.55 1000.5,-80.46"/>
<polygon fill="midnightblue" stroke="midnightblue" points="1397.7,-196.57 1408.28,-195.99 1399.65,-189.85 1397.7,-196.57"/>
</g>
<!-- Node7&#45;&gt;Node8 -->
<g id="edge9" class="edge">
<title>Node7&#45;&gt;Node8</title>
<path fill="none" stroke="midnightblue" d="M1495.03,-194.12C1565.2,-181.34 1683,-159.89 1748.14,-148.03"/>
<polygon fill="midnightblue" stroke="midnightblue" points="1494.25,-190.7 1485.04,-195.94 1495.5,-197.59 1494.25,-190.7"/>
</g>
<!-- Node10 -->
<g id="node10" class="node">
<title>Node10</title>
<g id="a_node10"><a xlink:href="transform_8c.html" target="_top" xlink:title=" ">
<polygon fill="none" stroke="black" points="1406,-129 1406,-148 1488,-148 1488,-129 1406,-129"/>
<text text-anchor="middle" x="1447" y="-136" font-family="Helvetica,sans-Serif" font-size="10.00">src/transform.c</text>
</a>
</g>
</g>
<!-- Node7&#45;&gt;Node10 -->
<g id="edge13" class="edge">
<title>Node7&#45;&gt;Node10</title>
<path fill="none" stroke="midnightblue" d="M1440.63,-185.54C1442.34,-173.17 1444.49,-157.62 1445.81,-148.13"/>
<polygon fill="midnightblue" stroke="midnightblue" points="1437.12,-185.35 1439.21,-195.73 1444.05,-186.31 1437.12,-185.35"/>
</g>
<!-- Node8&#45;&gt;Node4 -->
<g id="edge10" class="edge">
<title>Node8&#45;&gt;Node4</title>
<path fill="none" stroke="midnightblue" d="M1712.39,-129.24C1690.19,-127.11 1666.19,-124.89 1644,-123 1399.65,-102.24 1105.7,-82.15 1000.67,-75.13"/>
<polygon fill="midnightblue" stroke="midnightblue" points="1712.16,-132.73 1722.45,-130.21 1712.83,-125.76 1712.16,-132.73"/>
</g>
<!-- Node9 -->
<g id="node9" class="node">
<title>Node9</title>
<g id="a_node9"><a xlink:href="timeseries_8c.html" target="_top" xlink:title=" ">
<polygon fill="none" stroke="black" points="1731,-62 1731,-81 1859,-81 1859,-62 1731,-62"/>
<text text-anchor="middle" x="1795" y="-69" font-family="Helvetica,sans-Serif" font-size="10.00">src/IBM_EIS/timeseries.c</text>
</a>
</g>
</g>
<!-- Node8&#45;&gt;Node9 -->
<g id="edge11" class="edge">
<title>Node8&#45;&gt;Node9</title>
<path fill="none" stroke="midnightblue" d="M1795,-118.54C1795,-106.17 1795,-90.62 1795,-81.13"/>
<polygon fill="midnightblue" stroke="midnightblue" points="1791.5,-118.73 1795,-128.73 1798.5,-118.73 1791.5,-118.73"/>
</g>
<!-- Node12&#45;&gt;Node4 -->
<g id="edge18" class="edge">
<title>Node12&#45;&gt;Node4</title>
<path fill="none" stroke="midnightblue" d="M1641.3,-319.43C1639.4,-289.58 1632.31,-231 1606,-190 1580.02,-149.52 1565.69,-140.79 1521,-123 1472.93,-103.87 1120.43,-81.79 1000.68,-74.77"/>
<polygon fill="midnightblue" stroke="midnightblue" points="1637.82,-319.88 1641.82,-329.69 1644.81,-319.53 1637.82,-319.88"/>
</g>
<!-- Node12&#45;&gt;Node8 -->
<g id="edge17" class="edge">
<title>Node12&#45;&gt;Node8</title>
<path fill="none" stroke="midnightblue" d="M1721.24,-328.41C1770.02,-320.39 1826,-307.28 1841,-288 1875.64,-243.48 1823.06,-172.67 1802.58,-148.18"/>
<polygon fill="midnightblue" stroke="midnightblue" points="1720.61,-324.97 1711.28,-330 1721.71,-331.88 1720.61,-324.97"/>
</g>
<!-- Node13 -->
<g id="node13" class="node">
<title>Node13</title>
<g id="a_node13"><a xlink:href="_i_b_m___e_i_s_2authenticate_8c.html" target="_top" xlink:title=" ">
<polygon fill="none" stroke="black" points="1696,-263 1696,-282 1832,-282 1832,-263 1696,-263"/>
<text text-anchor="middle" x="1764" y="-270" font-family="Helvetica,sans-Serif" font-size="10.00">src/IBM_EIS/authenticate.c</text>
</a>
</g>
</g>
<!-- Node12&#45;&gt;Node13 -->
<g id="edge19" class="edge">
<title>Node12&#45;&gt;Node13</title>
<path fill="none" stroke="midnightblue" d="M1667.14,-325.1C1691.31,-312.23 1727.1,-293.16 1747.73,-282.17"/>
<polygon fill="midnightblue" stroke="midnightblue" points="1665.38,-322.08 1658.2,-329.87 1668.67,-328.26 1665.38,-322.08"/>
</g>
<!-- Node14&#45;&gt;Node15 -->
<g id="edge22" class="edge">
<title>Node14&#45;&gt;Node15</title>
<path fill="none" stroke="midnightblue" d="M249.04,-325.78C219.73,-312.91 175.21,-293.35 149.73,-282.17"/>
<polygon fill="midnightblue" stroke="midnightblue" points="247.78,-329.05 258.35,-329.87 250.6,-322.64 247.78,-329.05"/>
</g>
<!-- Node17 -->
<g id="node17" class="node">
<title>Node17</title>
<g id="a_node17"><a xlink:href="_ubidots_2authenticate_8c.html" target="_top" xlink:title=" ">
<polygon fill="none" stroke="black" points="212.5,-263 212.5,-282 343.5,-282 343.5,-263 212.5,-263"/>
<text text-anchor="middle" x="278" y="-270" font-family="Helvetica,sans-Serif" font-size="10.00">src/Ubidots/authenticate.c</text>
</a>
</g>
</g>
<!-- Node14&#45;&gt;Node17 -->
<g id="edge25" class="edge">
<title>Node14&#45;&gt;Node17</title>
<path fill="none" stroke="midnightblue" d="M278,-319.54C278,-307.17 278,-291.62 278,-282.13"/>
<polygon fill="midnightblue" stroke="midnightblue" points="274.5,-319.73 278,-329.73 281.5,-319.73 274.5,-319.73"/>
</g>
<!-- Node15&#45;&gt;Node4 -->
<g id="edge23" class="edge">
<title>Node15&#45;&gt;Node4</title>
<path fill="none" stroke="midnightblue" d="M150.55,-257.27C196.09,-226.57 309.97,-154.36 417,-123 511.78,-95.23 812.35,-79.22 921.17,-74.22"/>
<polygon fill="midnightblue" stroke="midnightblue" points="148.43,-254.48 142.13,-263 152.37,-260.26 148.43,-254.48"/>
</g>
<!-- Node16 -->
<g id="node16" class="node">
<title>Node16</title>
<g id="a_node16"><a xlink:href="devices_8c.html" target="_top" xlink:title=" ">
<polygon fill="none" stroke="black" points="74.5,-196 74.5,-215 185.5,-215 185.5,-196 74.5,-196"/>
<text text-anchor="middle" x="130" y="-203" font-family="Helvetica,sans-Serif" font-size="10.00">src/Ubidots/devices.c</text>
</a>
</g>
</g>
<!-- Node15&#45;&gt;Node16 -->
<g id="edge24" class="edge">
<title>Node15&#45;&gt;Node16</title>
<path fill="none" stroke="midnightblue" d="M130,-252.54C130,-240.17 130,-224.62 130,-215.13"/>
<polygon fill="midnightblue" stroke="midnightblue" points="126.5,-252.73 130,-262.73 133.5,-252.73 126.5,-252.73"/>
</g>
<!-- Node18&#45;&gt;Node4 -->
<g id="edge39" class="edge">
<title>Node18&#45;&gt;Node4</title>
<path fill="none" stroke="midnightblue" d="M588.84,-315.24C592.98,-306.87 597.21,-297.21 600,-288 621.48,-217.08 571.71,-175.51 624,-123 665.01,-81.81 841.62,-74.1 921.49,-72.74"/>
<polygon fill="midnightblue" stroke="midnightblue" points="585.6,-313.88 584.12,-324.37 591.82,-317.1 585.6,-313.88"/>
</g>
<!-- Node18&#45;&gt;Node19 -->
<g id="edge28" class="edge">
<title>Node18&#45;&gt;Node19</title>
<path fill="none" stroke="midnightblue" d="M640.07,-331.25C712.45,-322.66 833.64,-307.09 937,-288 940.09,-287.43 943.26,-286.81 946.45,-286.16"/>
<polygon fill="midnightblue" stroke="midnightblue" points="639.28,-327.82 629.75,-332.47 640.09,-334.77 639.28,-327.82"/>
</g>
<!-- Node18&#45;&gt;Node22 -->
<g id="edge38" class="edge">
<title>Node18&#45;&gt;Node22</title>
<path fill="none" stroke="midnightblue" d="M512.5,-332.11C482.68,-325.72 449.3,-313.05 429,-288 413.47,-268.84 414.37,-238.36 416.58,-220.6"/>
<polygon fill="midnightblue" stroke="midnightblue" points="511.97,-335.57 522.45,-334.04 513.3,-328.7 511.97,-335.57"/>
</g>
<!-- Node25 -->
<g id="node25" class="node">
<title>Node25</title>
<g id="a_node25"><a xlink:href="_willy_weather_2authenticate_8c.html" target="_top" xlink:title=" ">
<polygon fill="none" stroke="black" points="438.5,-263 438.5,-282 591.5,-282 591.5,-263 438.5,-263"/>
<text text-anchor="middle" x="515" y="-270" font-family="Helvetica,sans-Serif" font-size="10.00">src/WillyWeather/authenticate.c</text>
</a>
</g>
</g>
<!-- Node18&#45;&gt;Node25 -->
<g id="edge40" class="edge">
<title>Node18&#45;&gt;Node25</title>
<path fill="none" stroke="midnightblue" d="M555.82,-317C544.69,-305.13 531.47,-291.05 523.16,-282.19"/>
<polygon fill="midnightblue" stroke="midnightblue" points="553.37,-319.5 562.76,-324.4 558.47,-314.71 553.37,-319.5"/>
</g>
<!-- Node19&#45;&gt;Node3 -->
<g id="edge29" class="edge">
<title>Node19&#45;&gt;Node3</title>
<path fill="none" stroke="midnightblue" d="M1038.78,-252.95C1075.52,-235.68 1132.44,-209.72 1183,-190 1217.69,-176.47 1257.68,-163.12 1287.64,-153.54"/>
<polygon fill="midnightblue" stroke="midnightblue" points="1036.98,-249.93 1029.43,-257.36 1039.97,-256.26 1036.98,-249.93"/>
</g>
<!-- Node19&#45;&gt;Node7 -->
<g id="edge36" class="edge">
<title>Node19&#45;&gt;Node7</title>
<path fill="none" stroke="midnightblue" d="M1063.48,-257.02C1186.05,-235.06 1318.22,-219.39 1388.33,-211.71"/>
<polygon fill="midnightblue" stroke="midnightblue" points="1062.76,-253.6 1053.55,-258.82 1064.01,-260.48 1062.76,-253.6"/>
</g>
<!-- Node20 -->
<g id="node20" class="node">
<title>Node20</title>
<g id="a_node20"><a xlink:href="precipitation_8h.html" target="_top" xlink:title=" ">
<polygon fill="none" stroke="black" points="666.5,-190.5 666.5,-220.5 773.5,-220.5 773.5,-190.5 666.5,-190.5"/>
<text text-anchor="start" x="674.5" y="-208.5" font-family="Helvetica,sans-Serif" font-size="10.00">include/WillyWeather</text>
<text text-anchor="middle" x="720" y="-197.5" font-family="Helvetica,sans-Serif" font-size="10.00">/precipitation.h</text>
</a>
</g>
</g>
<!-- Node19&#45;&gt;Node20 -->
<g id="edge30" class="edge">
<title>Node19&#45;&gt;Node20</title>
<path fill="none" stroke="midnightblue" d="M936.48,-256.75C887.46,-245.37 820.39,-229.8 773.95,-219.02"/>
<polygon fill="midnightblue" stroke="midnightblue" points="935.81,-260.19 946.34,-259.04 937.39,-253.37 935.81,-260.19"/>
</g>
<!-- Node19&#45;&gt;Node22 -->
<g id="edge33" class="edge">
<title>Node19&#45;&gt;Node22</title>
<path fill="none" stroke="midnightblue" d="M936.56,-257.08C761.23,-229.01 565.22,-215.02 472.61,-209.44"/>
<polygon fill="midnightblue" stroke="midnightblue" points="936.05,-260.54 946.48,-258.69 937.17,-253.63 936.05,-260.54"/>
</g>
<!-- Node24 -->
<g id="node24" class="node">
<title>Node24</title>
<g id="a_node24"><a xlink:href="location_8c.html" target="_top" xlink:title=" ">
<polygon fill="none" stroke="black" points="964,-196 964,-215 1098,-215 1098,-196 964,-196"/>
<text text-anchor="middle" x="1031" y="-203" font-family="Helvetica,sans-Serif" font-size="10.00">src/WillyWeather/location.c</text>
</a>
</g>
</g>
<!-- Node19&#45;&gt;Node24 -->
<g id="edge37" class="edge">
<title>Node19&#45;&gt;Node24</title>
<path fill="none" stroke="midnightblue" d="M1011.07,-248.29C1016.55,-236.8 1022.83,-223.63 1026.85,-215.19"/>
<polygon fill="midnightblue" stroke="midnightblue" points="1007.87,-246.86 1006.73,-257.4 1014.19,-249.88 1007.87,-246.86"/>
</g>
<!-- Node20&#45;&gt;Node4 -->
<g id="edge31" class="edge">
<title>Node20&#45;&gt;Node4</title>
<path fill="none" stroke="midnightblue" d="M702.59,-181.68C691.35,-163.97 681.17,-139.7 695,-123 723.29,-88.83 854.47,-77.6 921.43,-74.05"/>
<polygon fill="midnightblue" stroke="midnightblue" points="699.92,-183.97 708.45,-190.27 705.71,-180.03 699.92,-183.97"/>
</g>
<!-- Node21 -->
<g id="node21" class="node">
<title>Node21</title>
<g id="a_node21"><a xlink:href="precipitation_8c.html" target="_top" xlink:title=" ">
<polygon fill="none" stroke="black" points="704,-129 704,-148 856,-148 856,-129 704,-129"/>
<text text-anchor="middle" x="780" y="-136" font-family="Helvetica,sans-Serif" font-size="10.00">src/WillyWeather/precipitation.c</text>
</a>
</g>
</g>
<!-- Node20&#45;&gt;Node21 -->
<g id="edge32" class="edge">
<title>Node20&#45;&gt;Node21</title>
<path fill="none" stroke="midnightblue" d="M739.85,-183C750.8,-171.13 763.8,-157.05 771.97,-148.19"/>
<polygon fill="midnightblue" stroke="midnightblue" points="737.23,-180.67 733.02,-190.4 742.37,-185.42 737.23,-180.67"/>
</g>
<!-- Node22&#45;&gt;Node4 -->
<g id="edge34" class="edge">
<title>Node22&#45;&gt;Node4</title>
<path fill="none" stroke="midnightblue" d="M417.67,-180.14C418.09,-161.61 422.01,-137 438,-123 474.16,-91.34 805.24,-77.58 921.15,-73.71"/>
<polygon fill="midnightblue" stroke="midnightblue" points="414.17,-180.25 417.76,-190.22 421.17,-180.18 414.17,-180.25"/>
</g>
<!-- Node23 -->
<g id="node23" class="node">
<title>Node23</title>
<g id="a_node23"><a xlink:href="tide_8c.html" target="_top" xlink:title=" ">
<polygon fill="none" stroke="black" points="447,-129 447,-148 563,-148 563,-129 447,-129"/>
<text text-anchor="middle" x="505" y="-136" font-family="Helvetica,sans-Serif" font-size="10.00">src/WillyWeather/tide.c</text>
</a>
</g>
</g>
<!-- Node22&#45;&gt;Node23 -->
<g id="edge35" class="edge">
<title>Node22&#45;&gt;Node23</title>
<path fill="none" stroke="midnightblue" d="M445.67,-184.34C461.72,-172.21 481.33,-157.39 493.5,-148.19"/>
<polygon fill="midnightblue" stroke="midnightblue" points="443.53,-181.57 437.66,-190.4 447.75,-187.16 443.53,-181.57"/>
</g>
<!-- Node26&#45;&gt;Node2 -->
<g id="edge54" class="edge">
<title>Node26&#45;&gt;Node2</title>
<path fill="none" stroke="midnightblue" d="M1188.07,-445.09C1213.68,-437.91 1244.98,-426.85 1270,-411 1294.16,-395.69 1316.16,-370.36 1328.54,-354.59"/>
<polygon fill="midnightblue" stroke="midnightblue" points="1186.94,-441.77 1178.2,-447.75 1188.76,-448.53 1186.94,-441.77"/>
</g>
<!-- Node26&#45;&gt;Node3 -->
<g id="edge55" class="edge">
<title>Node26&#45;&gt;Node3</title>
<path fill="none" stroke="midnightblue" d="M1187.71,-445.06C1219.27,-437.16 1261.28,-425.38 1297,-411 1400.56,-369.32 1460.74,-385 1516,-288 1523.98,-274 1530.7,-210.34 1515,-190 1510.98,-184.79 1440.46,-166.26 1388.41,-153.17"/>
<polygon fill="midnightblue" stroke="midnightblue" points="1186.72,-441.7 1177.84,-447.49 1188.39,-448.5 1186.72,-441.7"/>
</g>
<!-- Node26&#45;&gt;Node7 -->
<g id="edge80" class="edge">
<title>Node26&#45;&gt;Node7</title>
<path fill="none" stroke="midnightblue" d="M1181.39,-443.97C1199.98,-436.86 1221.05,-426.2 1236,-411 1289.1,-356.99 1252.92,-307.92 1309,-257 1333.04,-235.17 1367.6,-222.32 1394.9,-215.05"/>
<polygon fill="midnightblue" stroke="midnightblue" points="1180.16,-440.69 1171.94,-447.37 1182.53,-447.28 1180.16,-440.69"/>
</g>
<!-- Node26&#45;&gt;Node8 -->
<g id="edge57" class="edge">
<title>Node26&#45;&gt;Node8</title>
<path fill="none" stroke="midnightblue" d="M1188.33,-453.21C1338.16,-443.38 1789.07,-404.38 1861,-288 1870.45,-272.71 1863.77,-208.61 1854,-190 1844.22,-171.38 1824.45,-156.7 1810.5,-148.07"/>
<polygon fill="midnightblue" stroke="midnightblue" points="1187.83,-449.74 1178.07,-453.87 1188.28,-456.72 1187.83,-449.74"/>
</g>
<!-- Node26&#45;&gt;Node12 -->
<g id="edge56" class="edge">
<title>Node26&#45;&gt;Node12</title>
<path fill="none" stroke="midnightblue" d="M1188.4,-450.86C1240.99,-444.52 1327.11,-431.94 1399,-411 1421.19,-404.54 1425.09,-398.36 1447,-391 1499.87,-373.24 1562.56,-358 1602.3,-349.05"/>
<polygon fill="midnightblue" stroke="midnightblue" points="1187.87,-447.4 1178.35,-452.04 1188.69,-454.35 1187.87,-447.4"/>
</g>
<!-- Node26&#45;&gt;Node15 -->
<g id="edge58" class="edge">
<title>Node26&#45;&gt;Node15</title>
<path fill="none" stroke="midnightblue" d="M1091.69,-456.61C969.36,-457.42 637.77,-455.01 366,-411 271.49,-395.7 227.96,-420.36 158,-355 136.79,-335.19 131.65,-298.6 130.4,-282.04"/>
<polygon fill="midnightblue" stroke="midnightblue" points="1091.87,-460.11 1101.85,-456.53 1091.82,-453.11 1091.87,-460.11"/>
</g>
<!-- Node26&#45;&gt;Node19 -->
<g id="edge59" class="edge">
<title>Node26&#45;&gt;Node19</title>
<path fill="none" stroke="midnightblue" d="M1132.12,-438C1119.86,-411.28 1094.35,-360.36 1063,-324 1050.92,-309.99 1034.54,-297 1021.52,-287.7"/>
<polygon fill="midnightblue" stroke="midnightblue" points="1128.99,-439.59 1136.28,-447.28 1135.38,-436.72 1128.99,-439.59"/>
</g>
<!-- Node26&#45;&gt;Node20 -->
<g id="edge60" class="edge">
<title>Node26&#45;&gt;Node20</title>
<path fill="none" stroke="midnightblue" d="M1091.78,-456.19C1005.34,-455.55 828.73,-449.42 783,-411 724.12,-361.54 719.27,-258.36 719.57,-220.67"/>
<polygon fill="midnightblue" stroke="midnightblue" points="1091.85,-459.69 1101.86,-456.25 1091.88,-452.69 1091.85,-459.69"/>
</g>
<!-- Node26&#45;&gt;Node22 -->
<g id="edge61" class="edge">
<title>Node26&#45;&gt;Node22</title>
<path fill="none" stroke="midnightblue" d="M1091.56,-456.1C983.27,-454.68 715.21,-441.87 513,-355 463.85,-333.88 438.19,-335.2 413,-288 401.64,-266.72 408.02,-237.76 413.58,-220.71"/>
<polygon fill="midnightblue" stroke="midnightblue" points="1091.8,-459.6 1101.84,-456.21 1091.87,-452.61 1091.8,-459.6"/>
</g>
<!-- Node27 -->
<g id="node27" class="node">
<title>Node27</title>
<g id="a_node27"><a xlink:href="stations_8h.html" target="_top" xlink:title=" ">
<polygon fill="none" stroke="black" points="1072,-263 1072,-282 1190,-282 1190,-263 1072,-263"/>
<text text-anchor="middle" x="1131" y="-270" font-family="Helvetica,sans-Serif" font-size="10.00">include/BOM/stations.h</text>
</a>
</g>
</g>
<!-- Node26&#45;&gt;Node27 -->
<g id="edge46" class="edge">
<title>Node26&#45;&gt;Node27</title>
<path fill="none" stroke="midnightblue" d="M1139.05,-436.72C1137.12,-397.56 1132.8,-310.09 1131.43,-282.21"/>
<polygon fill="midnightblue" stroke="midnightblue" points="1135.58,-437.38 1139.57,-447.2 1142.57,-437.04 1135.58,-437.38"/>
</g>
<!-- Node31 -->
<g id="node31" class="node">
<title>Node31</title>
<g id="a_node31"><a xlink:href="ftp_8h.html" target="_top" xlink:title=" ">
<polygon fill="none" stroke="black" points="875.5,-330 875.5,-349 944.5,-349 944.5,-330 875.5,-330"/>
<text text-anchor="middle" x="910" y="-337" font-family="Helvetica,sans-Serif" font-size="10.00">include/ftp.h</text>
</a>
</g>
</g>
<!-- Node26&#45;&gt;Node31 -->
<g id="edge62" class="edge">
<title>Node26&#45;&gt;Node31</title>
<path fill="none" stroke="midnightblue" d="M1113.65,-442.77C1066.06,-418.87 967.04,-369.14 927.17,-349.12"/>
<polygon fill="midnightblue" stroke="midnightblue" points="1112.21,-445.96 1122.71,-447.32 1115.35,-439.7 1112.21,-445.96"/>
</g>
<!-- Node33 -->
<g id="node33" class="node">
<title>Node33</title>
<g id="a_node33"><a xlink:href="http_8h.html" target="_top" xlink:title=" ">
<polygon fill="none" stroke="black" points="792,-391.5 792,-410.5 866,-410.5 866,-391.5 792,-391.5"/>
<text text-anchor="middle" x="829" y="-398.5" font-family="Helvetica,sans-Serif" font-size="10.00">include/http.h</text>
</a>
</g>
</g>
<!-- Node26&#45;&gt;Node33 -->
<g id="edge67" class="edge">
<title>Node26&#45;&gt;Node33</title>
<path fill="none" stroke="midnightblue" d="M1091.92,-447.65C1029.8,-436.87 922.93,-418.31 866.48,-408.51"/>
<polygon fill="midnightblue" stroke="midnightblue" points="1091.41,-451.12 1101.87,-449.38 1092.61,-444.22 1091.41,-451.12"/>
</g>
<!-- Node35 -->
<g id="node35" class="node">
<title>Node35</title>
<g id="a_node35"><a xlink:href="utils_8c.html" target="_top" xlink:title=" ">
<polygon fill="none" stroke="black" points="1168.5,-391.5 1168.5,-410.5 1227.5,-410.5 1227.5,-391.5 1168.5,-391.5"/>
<text text-anchor="middle" x="1198" y="-398.5" font-family="Helvetica,sans-Serif" font-size="10.00">src/utils.c</text>
</a>
</g>
</g>
<!-- Node26&#45;&gt;Node35 -->
<g id="edge81" class="edge">
<title>Node26&#45;&gt;Node35</title>
<path fill="none" stroke="midnightblue" d="M1156.91,-440.25C1167.2,-430.67 1179.97,-418.79 1188.51,-410.83"/>
<polygon fill="midnightblue" stroke="midnightblue" points="1154.25,-437.95 1149.32,-447.32 1159.02,-443.07 1154.25,-437.95"/>
</g>
<!-- Node27&#45;&gt;Node3 -->
<g id="edge50" class="edge">
<title>Node27&#45;&gt;Node3</title>
<path fill="none" stroke="midnightblue" d="M1185.66,-260.87C1228.97,-251.46 1284.94,-236.81 1302,-221 1321.32,-203.1 1328.7,-171.88 1331.44,-153.72"/>
<polygon fill="midnightblue" stroke="midnightblue" points="1184.85,-257.46 1175.8,-262.97 1186.3,-264.31 1184.85,-257.46"/>
</g>
<!-- Node27&#45;&gt;Node4 -->
<g id="edge51" class="edge">
<title>Node27&#45;&gt;Node4</title>
<path fill="none" stroke="midnightblue" d="M1128.38,-252.84C1125.3,-235.54 1119.02,-209.59 1107,-190 1074.5,-137.03 1009.22,-97.7 978.17,-81.13"/>
<polygon fill="midnightblue" stroke="midnightblue" points="1124.93,-253.48 1129.96,-262.8 1131.85,-252.38 1124.93,-253.48"/>
</g>
<!-- Node27&#45;&gt;Node7 -->
<g id="edge52" class="edge">
<title>Node27&#45;&gt;Node7</title>
<path fill="none" stroke="midnightblue" d="M1181.52,-260.8C1241.94,-248.01 1341.85,-226.86 1397.46,-215.08"/>
<polygon fill="midnightblue" stroke="midnightblue" points="1180.51,-257.44 1171.45,-262.94 1181.96,-264.29 1180.51,-257.44"/>
</g>
<!-- Node28 -->
<g id="node28" class="node">
<title>Node28</title>
<g id="a_node28"><a xlink:href="historical__weather_8h.html" target="_top" xlink:title=" ">
<polygon fill="none" stroke="black" points="830.5,-190.5 830.5,-220.5 945.5,-220.5 945.5,-190.5 830.5,-190.5"/>
<text text-anchor="start" x="838.5" y="-208.5" font-family="Helvetica,sans-Serif" font-size="10.00">include/BOM/historical</text>
<text text-anchor="middle" x="888" y="-197.5" font-family="Helvetica,sans-Serif" font-size="10.00">_weather.h</text>
</a>
</g>
</g>
<!-- Node27&#45;&gt;Node28 -->
<g id="edge47" class="edge">
<title>Node27&#45;&gt;Node28</title>
<path fill="none" stroke="midnightblue" d="M1089.27,-260.34C1048.13,-249.33 985.1,-232.47 940.56,-220.56"/>
<polygon fill="midnightblue" stroke="midnightblue" points="1088.42,-263.73 1098.98,-262.94 1090.23,-256.97 1088.42,-263.73"/>
</g>
<!-- Node30 -->
<g id="node30" class="node">
<title>Node30</title>
<g id="a_node30"><a xlink:href="stations_8c.html" target="_top" xlink:title=" ">
<polygon fill="none" stroke="black" points="1192.5,-196 1192.5,-215 1293.5,-215 1293.5,-196 1192.5,-196"/>
<text text-anchor="middle" x="1243" y="-203" font-family="Helvetica,sans-Serif" font-size="10.00">src/BOM/stations.c</text>
</a>
</g>
</g>
<!-- Node27&#45;&gt;Node30 -->
<g id="edge53" class="edge">
<title>Node27&#45;&gt;Node30</title>
<path fill="none" stroke="midnightblue" d="M1154.92,-257.62C1177.11,-244.74 1209.44,-225.98 1228.13,-215.13"/>
<polygon fill="midnightblue" stroke="midnightblue" points="1153,-254.69 1146.1,-262.73 1156.51,-260.74 1153,-254.69"/>
</g>
<!-- Node28&#45;&gt;Node4 -->
<g id="edge48" class="edge">
<title>Node28&#45;&gt;Node4</title>
<path fill="none" stroke="midnightblue" d="M951.7,-187.39C980.79,-178.16 1010.64,-166.19 1019,-154 1037.38,-127.22 997.96,-96.08 975.37,-81.23"/>
<polygon fill="midnightblue" stroke="midnightblue" points="950.42,-184.12 941.89,-190.41 952.48,-190.81 950.42,-184.12"/>
</g>
<!-- Node29 -->
<g id="node29" class="node">
<title>Node29</title>
<g id="a_node29"><a xlink:href="historical__weather_8c.html" target="_top" xlink:title=" ">
<polygon fill="none" stroke="black" points="912,-123.5 912,-153.5 1010,-153.5 1010,-123.5 912,-123.5"/>
<text text-anchor="start" x="920" y="-141.5" font-family="Helvetica,sans-Serif" font-size="10.00">src/BOM/historical</text>
<text text-anchor="middle" x="961" y="-130.5" font-family="Helvetica,sans-Serif" font-size="10.00">_weather.c</text>
</a>
</g>
</g>
<!-- Node28&#45;&gt;Node29 -->
<g id="edge49" class="edge">
<title>Node28&#45;&gt;Node29</title>
<path fill="none" stroke="midnightblue" d="M911.47,-183.6C922.5,-173.78 935.34,-162.34 945.19,-153.58"/>
<polygon fill="midnightblue" stroke="midnightblue" points="908.98,-181.13 903.84,-190.4 913.64,-186.36 908.98,-181.13"/>
</g>
<!-- Node31&#45;&gt;Node4 -->
<g id="edge65" class="edge">
<title>Node31&#45;&gt;Node4</title>
<path fill="none" stroke="midnightblue" d="M889.47,-323.52C856.26,-297.32 796.78,-241.11 821,-190 831.82,-167.17 845.59,-170.18 865,-154 896.57,-127.68 933.55,-96.07 950.96,-81.13"/>
<polygon fill="midnightblue" stroke="midnightblue" points="887.6,-326.49 897.67,-329.8 891.86,-320.94 887.6,-326.49"/>
</g>
<!-- Node31&#45;&gt;Node27 -->
<g id="edge64" class="edge">
<title>Node31&#45;&gt;Node27</title>
<path fill="none" stroke="midnightblue" d="M949.07,-327.01C992.81,-314.15 1062.68,-293.59 1101.88,-282.06"/>
<polygon fill="midnightblue" stroke="midnightblue" points="947.95,-323.69 939.35,-329.87 949.93,-330.4 947.95,-323.69"/>
</g>
<!-- Node31&#45;&gt;Node28 -->
<g id="edge63" class="edge">
<title>Node31&#45;&gt;Node28</title>
<path fill="none" stroke="midnightblue" d="M891.65,-322.97C882.34,-313.86 871.97,-301.51 867,-288 858.52,-264.96 870.21,-237.06 879.26,-220.6"/>
<polygon fill="midnightblue" stroke="midnightblue" points="889.35,-325.62 899.08,-329.82 894.09,-320.47 889.35,-325.62"/>
</g>
<!-- Node32 -->
<g id="node32" class="node">
<title>Node32</title>
<g id="a_node32"><a xlink:href="ftp_8c.html" target="_top" xlink:title=" ">
<polygon fill="none" stroke="black" points="876,-263 876,-282 928,-282 928,-263 876,-263"/>
<text text-anchor="middle" x="902" y="-270" font-family="Helvetica,sans-Serif" font-size="10.00">src/ftp.c</text>
</a>
</g>
</g>
<!-- Node31&#45;&gt;Node32 -->
<g id="edge66" class="edge">
<title>Node31&#45;&gt;Node32</title>
<path fill="none" stroke="midnightblue" d="M907.67,-319.54C906.14,-307.17 904.23,-291.62 903.06,-282.13"/>
<polygon fill="midnightblue" stroke="midnightblue" points="904.23,-320.24 908.92,-329.73 911.17,-319.38 904.23,-320.24"/>
</g>
<!-- Node33&#45;&gt;Node2 -->
<g id="edge68" class="edge">
<title>Node33&#45;&gt;Node2</title>
<path fill="none" stroke="midnightblue" d="M876.21,-394.49C970.74,-383.46 1182.79,-358.72 1283.66,-346.96"/>
<polygon fill="midnightblue" stroke="midnightblue" points="875.62,-391.04 866.09,-395.67 876.43,-397.99 875.62,-391.04"/>
</g>
<!-- Node33&#45;&gt;Node3 -->
<g id="edge69" class="edge">
<title>Node33&#45;&gt;Node3</title>
<path fill="none" stroke="midnightblue" d="M875.51,-389.02C946.64,-371.55 1086.05,-334.58 1199,-288 1228.5,-275.83 1308.37,-247.59 1326,-221 1339.42,-200.76 1338.04,-171.2 1335.64,-153.79"/>
<polygon fill="midnightblue" stroke="midnightblue" points="874.41,-385.69 865.53,-391.46 876.07,-392.49 874.41,-385.69"/>
</g>
<!-- Node33&#45;&gt;Node4 -->
<g id="edge78" class="edge">
<title>Node33&#45;&gt;Node4</title>
<path fill="none" stroke="midnightblue" d="M803.45,-386.5C751.23,-356.85 638.68,-281.35 657,-190 663.35,-158.36 659.86,-143.24 685,-123 720.81,-94.17 853.85,-80.4 921.28,-75.15"/>
<polygon fill="midnightblue" stroke="midnightblue" points="802.01,-389.7 812.45,-391.49 805.41,-383.58 802.01,-389.7"/>
</g>
<!-- Node33&#45;&gt;Node8 -->
<g id="edge71" class="edge">
<title>Node33&#45;&gt;Node8</title>
<path fill="none" stroke="midnightblue" d="M876.47,-398.85C995.62,-395.55 1304.8,-384.35 1403,-355 1566.7,-306.07 1738.54,-182.09 1783.64,-148.18"/>
<polygon fill="midnightblue" stroke="midnightblue" points="876.12,-395.36 866.21,-399.13 876.3,-402.36 876.12,-395.36"/>
</g>
<!-- Node33&#45;&gt;Node12 -->
<g id="edge70" class="edge">
<title>Node33&#45;&gt;Node12</title>
<path fill="none" stroke="midnightblue" d="M876.28,-396.98C983.06,-390.11 1251.01,-372.52 1475,-355 1504.45,-352.7 1536.8,-349.94 1565.12,-347.45"/>
<polygon fill="midnightblue" stroke="midnightblue" points="875.91,-393.5 866.16,-397.63 876.36,-400.49 875.91,-393.5"/>
</g>
<!-- Node33&#45;&gt;Node14 -->
<g id="edge72" class="edge">
<title>Node33&#45;&gt;Node14</title>
<path fill="none" stroke="midnightblue" d="M782.01,-394.93C686.15,-384.57 467.37,-360.95 352.14,-348.51"/>
<polygon fill="midnightblue" stroke="midnightblue" points="781.67,-398.41 791.99,-396 782.43,-391.45 781.67,-398.41"/>
</g>
<!-- Node33&#45;&gt;Node15 -->
<g id="edge73" class="edge">
<title>Node33&#45;&gt;Node15</title>
<path fill="none" stroke="midnightblue" d="M781.42,-398.82C642.9,-395.07 246.46,-382.07 195,-355 163.61,-338.49 142.18,-299.49 133.86,-282.11"/>
<polygon fill="midnightblue" stroke="midnightblue" points="781.62,-402.32 791.71,-399.09 781.81,-395.33 781.62,-402.32"/>
</g>
<!-- Node33&#45;&gt;Node18 -->
<g id="edge74" class="edge">
<title>Node33&#45;&gt;Node18</title>
<path fill="none" stroke="midnightblue" d="M782.81,-389.14C739.68,-378.99 675.32,-363.86 629.87,-353.17"/>
<polygon fill="midnightblue" stroke="midnightblue" points="782.22,-392.59 792.75,-391.48 783.82,-385.78 782.22,-392.59"/>
</g>
<!-- Node33&#45;&gt;Node19 -->
<g id="edge75" class="edge">
<title>Node33&#45;&gt;Node19</title>
<path fill="none" stroke="midnightblue" d="M876.07,-391.13C901.08,-384.52 931.1,-373.37 953,-355 974.78,-336.74 988.66,-305.65 995.33,-287.61"/>
<polygon fill="midnightblue" stroke="midnightblue" points="874.91,-387.81 866.05,-393.61 876.59,-394.6 874.91,-387.81"/>
</g>
<!-- Node33&#45;&gt;Node20 -->
<g id="edge76" class="edge">
<title>Node33&#45;&gt;Node20</title>
<path fill="none" stroke="midnightblue" d="M813.44,-383.9C806.03,-375.69 797.41,-365.28 791,-355 765.84,-314.63 769.11,-299.62 748,-257 741.86,-244.6 734.2,-230.9 728.45,-220.9"/>
<polygon fill="midnightblue" stroke="midnightblue" points="810.94,-386.36 820.31,-391.29 816.07,-381.59 810.94,-386.36"/>
</g>
<!-- Node33&#45;&gt;Node22 -->
<g id="edge77" class="edge">
<title>Node33&#45;&gt;Node22</title>
<path fill="none" stroke="midnightblue" d="M792.86,-388.11C771.01,-380.2 743.02,-368.74 720,-355 660.87,-319.71 661.13,-288.7 600,-257 559.75,-236.12 509.84,-223.03 472.64,-215.42"/>
<polygon fill="midnightblue" stroke="midnightblue" points="791.83,-391.46 802.43,-391.5 794.17,-384.86 791.83,-391.46"/>
</g>
<!-- Node34 -->
<g id="node34" class="node">
<title>Node34</title>
<g id="a_node34"><a xlink:href="http_8c.html" target="_top" xlink:title=" ">
<polygon fill="none" stroke="black" points="800.5,-330 800.5,-349 857.5,-349 857.5,-330 800.5,-330"/>
<text text-anchor="middle" x="829" y="-337" font-family="Helvetica,sans-Serif" font-size="10.00">src/http.c</text>
</a>
</g>
</g>
<!-- Node33&#45;&gt;Node34 -->
<g id="edge79" class="edge">
<title>Node33&#45;&gt;Node34</title>
<path fill="none" stroke="midnightblue" d="M829,-381.32C829,-370.5 829,-357.4 829,-349.01"/>
<polygon fill="midnightblue" stroke="midnightblue" points="825.5,-381.48 829,-391.48 832.5,-381.48 825.5,-381.48"/>
</g>
</g>
</svg>
