<?xml version="1.0" encoding="UTF-8" standalone="no"?>
<!DOCTYPE svg PUBLIC "-//W3C//DTD SVG 1.1//EN"
 "http://www.w3.org/Graphics/SVG/1.1/DTD/svg11.dtd">
<!-- Generated by graphviz version 2.49.3 (20211027.1534)
 -->
<!-- Title: include/log.h Pages: 1 -->
<svg width="2006pt" height="464pt"
 viewBox="0.00 0.00 2006.50 464.00" xmlns="http://www.w3.org/2000/svg" xmlns:xlink="http://www.w3.org/1999/xlink">
<g id="graph0" class="graph" transform="scale(1 1) rotate(0) translate(4 460)">
<title>include/log.h</title>
<!-- Node1 -->
<g id="node1" class="node">
<title>Node1</title>
<g id="a_node1"><a xlink:title=" ">
<polygon fill="#bfbfbf" stroke="black" points="789.5,-436.5 789.5,-455.5 860.5,-455.5 860.5,-436.5 789.5,-436.5"/>
<text text-anchor="middle" x="825" y="-443.5" font-family="Helvetica,sans-Serif" font-size="10.00">include/log.h</text>
</a>
</g>
</g>
<!-- Node2 -->
<g id="node2" class="node">
<title>Node2</title>
<g id="a_node2"><a xlink:href="harvest__area_8h.html" target="_top" xlink:title=" ">
<polygon fill="none" stroke="black" points="261,-257.5 261,-287.5 371,-287.5 371,-257.5 261,-257.5"/>
<text text-anchor="start" x="269" y="-275.5" font-family="Helvetica,sans-Serif" font-size="10.00">include/FoodAuthority</text>
<text text-anchor="middle" x="316" y="-264.5" font-family="Helvetica,sans-Serif" font-size="10.00">/harvest_area.h</text>
</a>
</g>
</g>
<!-- Node1&#45;&gt;Node2 -->
<g id="edge1" class="edge">
<title>Node1&#45;&gt;Node2</title>
<path fill="none" stroke="midnightblue" d="M779.39,-445.59C680.23,-446.04 448.76,-442.39 385,-400 344.79,-373.27 325.99,-314.94 319.17,-287.86"/>
<polygon fill="midnightblue" stroke="midnightblue" points="779.43,-449.09 789.41,-445.53 779.39,-442.09 779.43,-449.09"/>
</g>
<!-- Node3 -->
<g id="node3" class="node">
<title>Node3</title>
<g id="a_node3"><a xlink:href="harvest__areas_8h.html" target="_top" xlink:title=" ">
<polygon fill="none" stroke="black" points="281,-190.5 281,-220.5 391,-220.5 391,-190.5 281,-190.5"/>
<text text-anchor="start" x="289" y="-208.5" font-family="Helvetica,sans-Serif" font-size="10.00">include/FoodAuthority</text>
<text text-anchor="middle" x="336" y="-197.5" font-family="Helvetica,sans-Serif" font-size="10.00">/harvest_areas.h</text>
</a>
</g>
</g>
<!-- Node1&#45;&gt;Node3 -->
<g id="edge8" class="edge">
<title>Node1&#45;&gt;Node3</title>
<path fill="none" stroke="midnightblue" d="M779.31,-436.39C742.23,-428.75 688.94,-416.28 644,-400 536.72,-361.14 505.01,-355.46 413,-288 398.79,-277.58 366.18,-241.16 348.29,-220.7"/>
<polygon fill="midnightblue" stroke="midnightblue" points="778.82,-439.86 789.31,-438.41 780.21,-433 778.82,-439.86"/>
</g>
<!-- Node4 -->
<g id="node4" class="node">
<title>Node4</title>
<g id="a_node4"><a xlink:href="main_8h.html" target="_top" xlink:title=" ">
<polygon fill="none" stroke="black" points="923.5,-62 923.5,-81 1002.5,-81 1002.5,-62 923.5,-62"/>
<text text-anchor="middle" x="963" y="-69" font-family="Helvetica,sans-Serif" font-size="10.00">include/main.h</text>
</a>
</g>
</g>
<!-- Node1&#45;&gt;Node4 -->
<g id="edge36" class="edge">
<title>Node1&#45;&gt;Node4</title>
<path fill="none" stroke="midnightblue" d="M779.06,-443.19C615.19,-436.12 69,-407.15 69,-335 69,-335 69,-335 69,-204.5 69,-163.32 -171.23,-221.82 252,-123 381.24,-92.82 793.06,-77.76 923.19,-73.67"/>
<polygon fill="midnightblue" stroke="midnightblue" points="779.16,-446.69 789.29,-443.62 779.45,-439.7 779.16,-446.69"/>
</g>
<!-- Node8 -->
<g id="node8" class="node">
<title>Node8</title>
<g id="a_node8"><a xlink:href="_i_b_m___e_i_s_2authenticate_8h.html" target="_top" xlink:title=" ">
<polygon fill="none" stroke="black" points="503.5,-263 503.5,-282 656.5,-282 656.5,-263 503.5,-263"/>
<text text-anchor="middle" x="580" y="-270" font-family="Helvetica,sans-Serif" font-size="10.00">include/IBM_EIS/authenticate.h</text>
</a>
</g>
</g>
<!-- Node1&#45;&gt;Node8 -->
<g id="edge9" class="edge">
<title>Node1&#45;&gt;Node8</title>
<path fill="none" stroke="midnightblue" d="M779.25,-439.67C746.65,-434.07 703.11,-422.72 671,-400 625.28,-367.66 594,-304.91 583.7,-282.07"/>
<polygon fill="midnightblue" stroke="midnightblue" points="778.99,-443.18 789.42,-441.3 780.09,-436.27 778.99,-443.18"/>
</g>
<!-- Node9 -->
<g id="node9" class="node">
<title>Node9</title>
<g id="a_node9"><a xlink:href="timeseries_8h.html" target="_top" xlink:title=" ">
<polygon fill="none" stroke="black" points="601.5,-196 601.5,-215 746.5,-215 746.5,-196 601.5,-196"/>
<text text-anchor="middle" x="674" y="-203" font-family="Helvetica,sans-Serif" font-size="10.00">include/IBM_EIS/timeseries.h</text>
</a>
</g>
</g>
<!-- Node1&#45;&gt;Node9 -->
<g id="edge15" class="edge">
<title>Node1&#45;&gt;Node9</title>
<path fill="none" stroke="midnightblue" d="M814.03,-427.68C784.04,-380.32 701.44,-249.85 679.44,-215.1"/>
<polygon fill="midnightblue" stroke="midnightblue" points="811.14,-429.65 819.44,-436.23 817.05,-425.91 811.14,-429.65"/>
</g>
<!-- Node12 -->
<g id="node12" class="node">
<title>Node12</title>
<g id="a_node12"><a xlink:href="_ubidots_2authenticate_8h.html" target="_top" xlink:title=" ">
<polygon fill="none" stroke="black" points="1025,-263 1025,-282 1173,-282 1173,-263 1025,-263"/>
<text text-anchor="middle" x="1099" y="-270" font-family="Helvetica,sans-Serif" font-size="10.00">include/Ubidots/authenticate.h</text>
</a>
</g>
</g>
<!-- Node1&#45;&gt;Node12 -->
<g id="edge16" class="edge">
<title>Node1&#45;&gt;Node12</title>
<path fill="none" stroke="midnightblue" d="M870.8,-441.91C976.01,-433.77 1229.78,-407.8 1281,-344 1314.56,-302.18 1237.08,-285.13 1173.02,-278.2"/>
<polygon fill="midnightblue" stroke="midnightblue" points="870.51,-438.42 860.8,-442.67 871.04,-445.4 870.51,-438.42"/>
</g>
<!-- Node13 -->
<g id="node13" class="node">
<title>Node13</title>
<g id="a_node13"><a xlink:href="devices_8h.html" target="_top" xlink:title=" ">
<polygon fill="none" stroke="black" points="765,-196 765,-215 893,-215 893,-196 765,-196"/>
<text text-anchor="middle" x="829" y="-203" font-family="Helvetica,sans-Serif" font-size="10.00">include/Ubidots/devices.h</text>
</a>
</g>
</g>
<!-- Node1&#45;&gt;Node13 -->
<g id="edge21" class="edge">
<title>Node1&#45;&gt;Node13</title>
<path fill="none" stroke="midnightblue" d="M825.31,-426.17C826.13,-377.6 828.28,-249.49 828.85,-215.1"/>
<polygon fill="midnightblue" stroke="midnightblue" points="821.81,-426.17 825.14,-436.23 828.81,-426.29 821.81,-426.17"/>
</g>
<!-- Node16 -->
<g id="node16" class="node">
<title>Node16</title>
<g id="a_node16"><a xlink:href="_willy_weather_2authenticate_8h.html" target="_top" xlink:title=" ">
<polygon fill="none" stroke="black" points="1646.5,-257.5 1646.5,-287.5 1753.5,-287.5 1753.5,-257.5 1646.5,-257.5"/>
<text text-anchor="start" x="1654.5" y="-275.5" font-family="Helvetica,sans-Serif" font-size="10.00">include/WillyWeather</text>
<text text-anchor="middle" x="1700" y="-264.5" font-family="Helvetica,sans-Serif" font-size="10.00">/authenticate.h</text>
</a>
</g>
</g>
<!-- Node1&#45;&gt;Node16 -->
<g id="edge22" class="edge">
<title>Node1&#45;&gt;Node16</title>
<path fill="none" stroke="midnightblue" d="M870.76,-445.03C1032.05,-444.79 1567.74,-440.88 1632,-400 1672.81,-374.03 1690.82,-314.78 1697.14,-287.6"/>
<polygon fill="midnightblue" stroke="midnightblue" points="870.69,-441.53 860.69,-445.04 870.7,-448.53 870.69,-441.53"/>
</g>
<!-- Node17 -->
<g id="node17" class="node">
<title>Node17</title>
<g id="a_node17"><a xlink:href="location_8h.html" target="_top" xlink:title=" ">
<polygon fill="none" stroke="black" points="1495.5,-190.5 1495.5,-220.5 1602.5,-220.5 1602.5,-190.5 1495.5,-190.5"/>
<text text-anchor="start" x="1503.5" y="-208.5" font-family="Helvetica,sans-Serif" font-size="10.00">include/WillyWeather</text>
<text text-anchor="middle" x="1549" y="-197.5" font-family="Helvetica,sans-Serif" font-size="10.00">/location.h</text>
</a>
</g>
</g>
<!-- Node1&#45;&gt;Node17 -->
<g id="edge34" class="edge">
<title>Node1&#45;&gt;Node17</title>
<path fill="none" stroke="midnightblue" d="M870.71,-442.73C942.77,-438.45 1086.82,-427.06 1206,-400 1356.21,-365.89 1433.37,-404.63 1534,-288 1550.26,-269.16 1551.39,-238.56 1550.42,-220.7"/>
<polygon fill="midnightblue" stroke="midnightblue" points="870.4,-439.24 860.61,-443.31 870.8,-446.23 870.4,-439.24"/>
</g>
<!-- Node20 -->
<g id="node20" class="node">
<title>Node20</title>
<g id="a_node20"><a xlink:href="tide_8h.html" target="_top" xlink:title=" ">
<polygon fill="none" stroke="black" points="1723.5,-123.5 1723.5,-153.5 1830.5,-153.5 1830.5,-123.5 1723.5,-123.5"/>
<text text-anchor="start" x="1731.5" y="-141.5" font-family="Helvetica,sans-Serif" font-size="10.00">include/WillyWeather</text>
<text text-anchor="middle" x="1777" y="-130.5" font-family="Helvetica,sans-Serif" font-size="10.00">/tide.h</text>
</a>
</g>
</g>
<!-- Node1&#45;&gt;Node20 -->
<g id="edge35" class="edge">
<title>Node1&#45;&gt;Node20</title>
<path fill="none" stroke="midnightblue" d="M870.94,-445.27C1078.32,-445.91 1917,-441.87 1917,-335 1917,-335 1917,-335 1917,-271.5 1917,-213.37 1852.32,-173.28 1810.89,-153.56"/>
<polygon fill="midnightblue" stroke="midnightblue" points="870.72,-441.77 860.71,-445.24 870.7,-448.77 870.72,-441.77"/>
</g>
<!-- Node24 -->
<g id="node24" class="node">
<title>Node24</title>
<g id="a_node24"><a xlink:href="utils_8h.html" target="_top" xlink:title=" ">
<polygon fill="none" stroke="black" points="911,-380.5 911,-399.5 987,-399.5 987,-380.5 911,-380.5"/>
<text text-anchor="middle" x="949" y="-387.5" font-family="Helvetica,sans-Serif" font-size="10.00">include/utils.h</text>
</a>
</g>
</g>
<!-- Node1&#45;&gt;Node24 -->
<g id="edge37" class="edge">
<title>Node1&#45;&gt;Node24</title>
<path fill="none" stroke="midnightblue" d="M854,-432.37C877.22,-422.26 909.16,-408.35 929.44,-399.52"/>
<polygon fill="midnightblue" stroke="midnightblue" points="852.42,-429.24 844.64,-436.44 855.21,-435.66 852.42,-429.24"/>
</g>
<!-- Node34 -->
<g id="node34" class="node">
<title>Node34</title>
<g id="a_node34"><a xlink:href="log_8c.html" target="_top" xlink:title=" ">
<polygon fill="none" stroke="black" points="1945.5,-380.5 1945.5,-399.5 1998.5,-399.5 1998.5,-380.5 1945.5,-380.5"/>
<text text-anchor="middle" x="1972" y="-387.5" font-family="Helvetica,sans-Serif" font-size="10.00">src/log.c</text>
</a>
</g>
</g>
<!-- Node1&#45;&gt;Node34 -->
<g id="edge71" class="edge">
<title>Node1&#45;&gt;Node34</title>
<path fill="none" stroke="midnightblue" d="M870.82,-444.21C1052.3,-440.91 1720.89,-427.12 1931,-400 1935.62,-399.4 1940.5,-398.54 1945.21,-397.59"/>
<polygon fill="midnightblue" stroke="midnightblue" points="870.5,-440.71 860.56,-444.39 870.63,-447.71 870.5,-440.71"/>
</g>
<!-- Node2&#45;&gt;Node3 -->
<g id="edge2" class="edge">
<title>Node2&#45;&gt;Node3</title>
<path fill="none" stroke="midnightblue" d="M323.32,-247.7C326.12,-238.59 329.23,-228.49 331.66,-220.58"/>
<polygon fill="midnightblue" stroke="midnightblue" points="319.93,-246.81 320.34,-257.4 326.62,-248.87 319.93,-246.81"/>
</g>
<!-- Node2&#45;&gt;Node4 -->
<g id="edge6" class="edge">
<title>Node2&#45;&gt;Node4</title>
<path fill="none" stroke="midnightblue" d="M291.09,-249.86C283.46,-241.68 276.01,-231.73 272,-221 256.72,-180.21 242.34,-154.9 272,-123 316.48,-75.15 783.1,-72.15 923.35,-72.33"/>
<polygon fill="midnightblue" stroke="midnightblue" points="288.82,-252.54 298.37,-257.13 293.77,-247.59 288.82,-252.54"/>
</g>
<!-- Node7 -->
<g id="node7" class="node">
<title>Node7</title>
<g id="a_node7"><a xlink:href="harvest__area_8c.html" target="_top" xlink:title=" ">
<polygon fill="none" stroke="black" points="97,-190.5 97,-220.5 225,-220.5 225,-190.5 97,-190.5"/>
<text text-anchor="start" x="105" y="-208.5" font-family="Helvetica,sans-Serif" font-size="10.00">src/FoodAuthority/harvest</text>
<text text-anchor="middle" x="161" y="-197.5" font-family="Helvetica,sans-Serif" font-size="10.00">_area.c</text>
</a>
</g>
</g>
<!-- Node2&#45;&gt;Node7 -->
<g id="edge7" class="edge">
<title>Node2&#45;&gt;Node7</title>
<path fill="none" stroke="midnightblue" d="M272.85,-253.41C248.1,-243.03 217.5,-230.2 194.56,-220.58"/>
<polygon fill="midnightblue" stroke="midnightblue" points="271.79,-256.76 282.36,-257.4 274.5,-250.3 271.79,-256.76"/>
</g>
<!-- Node3&#45;&gt;Node4 -->
<g id="edge3" class="edge">
<title>Node3&#45;&gt;Node4</title>
<path fill="none" stroke="midnightblue" d="M376.64,-186.48C420.69,-167.7 493.49,-138.85 559,-123 690.22,-91.25 850.52,-78.77 923.47,-74.47"/>
<polygon fill="midnightblue" stroke="midnightblue" points="375.23,-183.27 367.42,-190.44 377.99,-189.71 375.23,-183.27"/>
</g>
<!-- Node6 -->
<g id="node6" class="node">
<title>Node6</title>
<g id="a_node6"><a xlink:href="harvest__areas_8c.html" target="_top" xlink:title=" ">
<polygon fill="none" stroke="black" points="281,-123.5 281,-153.5 409,-153.5 409,-123.5 281,-123.5"/>
<text text-anchor="start" x="289" y="-141.5" font-family="Helvetica,sans-Serif" font-size="10.00">src/FoodAuthority/harvest</text>
<text text-anchor="middle" x="345" y="-130.5" font-family="Helvetica,sans-Serif" font-size="10.00">_areas.c</text>
</a>
</g>
</g>
<!-- Node3&#45;&gt;Node6 -->
<g id="edge5" class="edge">
<title>Node3&#45;&gt;Node6</title>
<path fill="none" stroke="midnightblue" d="M339.33,-180.4C340.58,-171.37 341.96,-161.41 343.05,-153.58"/>
<polygon fill="midnightblue" stroke="midnightblue" points="335.85,-180.01 337.95,-190.4 342.79,-180.97 335.85,-180.01"/>
</g>
<!-- Node5 -->
<g id="node5" class="node">
<title>Node5</title>
<g id="a_node5"><a xlink:href="main_8c.html" target="_top" xlink:title=" ">
<polygon fill="none" stroke="black" points="932,-0.5 932,-19.5 994,-19.5 994,-0.5 932,-0.5"/>
<text text-anchor="middle" x="963" y="-7.5" font-family="Helvetica,sans-Serif" font-size="10.00">src/main.c</text>
</a>
</g>
</g>
<!-- Node4&#45;&gt;Node5 -->
<g id="edge4" class="edge">
<title>Node4&#45;&gt;Node5</title>
<path fill="none" stroke="midnightblue" d="M963,-51.82C963,-41 963,-27.9 963,-19.51"/>
<polygon fill="midnightblue" stroke="midnightblue" points="959.5,-51.98 963,-61.98 966.5,-51.98 959.5,-51.98"/>
</g>
<!-- Node8&#45;&gt;Node4 -->
<g id="edge13" class="edge">
<title>Node8&#45;&gt;Node4</title>
<path fill="none" stroke="midnightblue" d="M574.9,-252.62C567.67,-221.19 558.74,-158.13 592,-123 636.58,-75.91 836.98,-71.55 923.27,-71.91"/>
<polygon fill="midnightblue" stroke="midnightblue" points="571.59,-253.8 577.4,-262.66 578.38,-252.11 571.59,-253.8"/>
</g>
<!-- Node8&#45;&gt;Node9 -->
<g id="edge10" class="edge">
<title>Node8&#45;&gt;Node9</title>
<path fill="none" stroke="midnightblue" d="M601.08,-256.92C619.66,-244.07 646.11,-225.78 661.52,-215.13"/>
<polygon fill="midnightblue" stroke="midnightblue" points="598.91,-254.17 592.67,-262.73 602.89,-259.93 598.91,-254.17"/>
</g>
<!-- Node11 -->
<g id="node11" class="node">
<title>Node11</title>
<g id="a_node11"><a xlink:href="_i_b_m___e_i_s_2authenticate_8c.html" target="_top" xlink:title=" ">
<polygon fill="none" stroke="black" points="409,-196 409,-215 545,-215 545,-196 409,-196"/>
<text text-anchor="middle" x="477" y="-203" font-family="Helvetica,sans-Serif" font-size="10.00">src/IBM_EIS/authenticate.c</text>
</a>
</g>
</g>
<!-- Node8&#45;&gt;Node11 -->
<g id="edge14" class="edge">
<title>Node8&#45;&gt;Node11</title>
<path fill="none" stroke="midnightblue" d="M557.45,-257.27C537.06,-244.4 507.7,-225.88 490.67,-215.13"/>
<polygon fill="midnightblue" stroke="midnightblue" points="555.78,-260.36 566.11,-262.73 559.52,-254.44 555.78,-260.36"/>
</g>
<!-- Node9&#45;&gt;Node4 -->
<g id="edge11" class="edge">
<title>Node9&#45;&gt;Node4</title>
<path fill="none" stroke="midnightblue" d="M692.91,-189.6C705.66,-179.56 722.85,-165.99 738,-154 755.35,-140.25 757.24,-133 777,-123 824.32,-99.06 884.34,-85.4 923.2,-78.48"/>
<polygon fill="midnightblue" stroke="midnightblue" points="690.57,-187 684.88,-195.93 694.9,-192.49 690.57,-187"/>
</g>
<!-- Node10 -->
<g id="node10" class="node">
<title>Node10</title>
<g id="a_node10"><a xlink:href="timeseries_8c.html" target="_top" xlink:title=" ">
<polygon fill="none" stroke="black" points="601,-129 601,-148 729,-148 729,-129 601,-129"/>
<text text-anchor="middle" x="665" y="-136" font-family="Helvetica,sans-Serif" font-size="10.00">src/IBM_EIS/timeseries.c</text>
</a>
</g>
</g>
<!-- Node9&#45;&gt;Node10 -->
<g id="edge12" class="edge">
<title>Node9&#45;&gt;Node10</title>
<path fill="none" stroke="midnightblue" d="M671.37,-185.54C669.66,-173.17 667.51,-157.62 666.19,-148.13"/>
<polygon fill="midnightblue" stroke="midnightblue" points="667.94,-186.31 672.78,-195.73 674.88,-185.35 667.94,-186.31"/>
</g>
<!-- Node12&#45;&gt;Node13 -->
<g id="edge17" class="edge">
<title>Node12&#45;&gt;Node13</title>
<path fill="none" stroke="midnightblue" d="M1053.57,-260.56C1000.34,-247.75 913.26,-226.78 864.65,-215.08"/>
<polygon fill="midnightblue" stroke="midnightblue" points="1052.88,-264 1063.42,-262.94 1054.52,-257.19 1052.88,-264"/>
</g>
<!-- Node15 -->
<g id="node15" class="node">
<title>Node15</title>
<g id="a_node15"><a xlink:href="_ubidots_2authenticate_8c.html" target="_top" xlink:title=" ">
<polygon fill="none" stroke="black" points="949.5,-196 949.5,-215 1080.5,-215 1080.5,-196 949.5,-196"/>
<text text-anchor="middle" x="1015" y="-203" font-family="Helvetica,sans-Serif" font-size="10.00">src/Ubidots/authenticate.c</text>
</a>
</g>
</g>
<!-- Node12&#45;&gt;Node15 -->
<g id="edge20" class="edge">
<title>Node12&#45;&gt;Node15</title>
<path fill="none" stroke="midnightblue" d="M1079.7,-256.57C1063.12,-243.74 1039.79,-225.69 1026.15,-215.13"/>
<polygon fill="midnightblue" stroke="midnightblue" points="1077.62,-259.38 1087.67,-262.73 1081.9,-253.85 1077.62,-259.38"/>
</g>
<!-- Node13&#45;&gt;Node4 -->
<g id="edge18" class="edge">
<title>Node13&#45;&gt;Node4</title>
<path fill="none" stroke="midnightblue" d="M854.71,-190.97C870.58,-181.84 890.75,-168.8 906,-154 929.66,-131.03 949.74,-96.97 958.42,-81.15"/>
<polygon fill="midnightblue" stroke="midnightblue" points="852.95,-187.94 845.93,-195.87 856.36,-194.05 852.95,-187.94"/>
</g>
<!-- Node14 -->
<g id="node14" class="node">
<title>Node14</title>
<g id="a_node14"><a xlink:href="devices_8c.html" target="_top" xlink:title=" ">
<polygon fill="none" stroke="black" points="785.5,-129 785.5,-148 896.5,-148 896.5,-129 785.5,-129"/>
<text text-anchor="middle" x="841" y="-136" font-family="Helvetica,sans-Serif" font-size="10.00">src/Ubidots/devices.c</text>
</a>
</g>
</g>
<!-- Node13&#45;&gt;Node14 -->
<g id="edge19" class="edge">
<title>Node13&#45;&gt;Node14</title>
<path fill="none" stroke="midnightblue" d="M832.5,-185.54C834.78,-173.17 837.65,-157.62 839.4,-148.13"/>
<polygon fill="midnightblue" stroke="midnightblue" points="828.99,-185.26 830.61,-195.73 835.87,-186.54 828.99,-185.26"/>
</g>
<!-- Node16&#45;&gt;Node4 -->
<g id="edge32" class="edge">
<title>Node16&#45;&gt;Node4</title>
<path fill="none" stroke="midnightblue" d="M1675.9,-250.42C1667.22,-241.93 1657.88,-231.63 1651,-221 1625.52,-181.65 1649.74,-150.8 1612,-123 1599.66,-113.91 1141.92,-83.95 1002.73,-75.03"/>
<polygon fill="midnightblue" stroke="midnightblue" points="1673.6,-253.07 1683.28,-257.39 1678.41,-247.98 1673.6,-253.07"/>
</g>
<!-- Node16&#45;&gt;Node17 -->
<g id="edge23" class="edge">
<title>Node16&#45;&gt;Node17</title>
<path fill="none" stroke="midnightblue" d="M1657.96,-253.41C1633.86,-243.03 1604.04,-230.2 1581.7,-220.58"/>
<polygon fill="midnightblue" stroke="midnightblue" points="1656.66,-256.66 1667.23,-257.4 1659.43,-250.23 1656.66,-256.66"/>
</g>
<!-- Node16&#45;&gt;Node20 -->
<g id="edge31" class="edge">
<title>Node16&#45;&gt;Node20</title>
<path fill="none" stroke="midnightblue" d="M1763.6,-260.31C1785.9,-252.99 1808.68,-240.92 1822,-221 1837.08,-198.42 1812.99,-170.38 1794.64,-153.77"/>
<polygon fill="midnightblue" stroke="midnightblue" points="1762.34,-257.03 1753.77,-263.25 1764.35,-263.74 1762.34,-257.03"/>
</g>
<!-- Node23 -->
<g id="node23" class="node">
<title>Node23</title>
<g id="a_node23"><a xlink:href="_willy_weather_2authenticate_8c.html" target="_top" xlink:title=" ">
<polygon fill="none" stroke="black" points="1659.5,-196 1659.5,-215 1812.5,-215 1812.5,-196 1659.5,-196"/>
<text text-anchor="middle" x="1736" y="-203" font-family="Helvetica,sans-Serif" font-size="10.00">src/WillyWeather/authenticate.c</text>
</a>
</g>
</g>
<!-- Node16&#45;&gt;Node23 -->
<g id="edge33" class="edge">
<title>Node16&#45;&gt;Node23</title>
<path fill="none" stroke="midnightblue" d="M1712.66,-248.63C1719.07,-237.07 1726.46,-223.71 1731.18,-215.19"/>
<polygon fill="midnightblue" stroke="midnightblue" points="1709.59,-246.95 1707.81,-257.4 1715.71,-250.34 1709.59,-246.95"/>
</g>
<!-- Node18 -->
<g id="node18" class="node">
<title>Node18</title>
<g id="a_node18"><a xlink:href="precipitation_8h.html" target="_top" xlink:title=" ">
<polygon fill="none" stroke="black" points="1343.5,-123.5 1343.5,-153.5 1450.5,-153.5 1450.5,-123.5 1343.5,-123.5"/>
<text text-anchor="start" x="1351.5" y="-141.5" font-family="Helvetica,sans-Serif" font-size="10.00">include/WillyWeather</text>
<text text-anchor="middle" x="1397" y="-130.5" font-family="Helvetica,sans-Serif" font-size="10.00">/precipitation.h</text>
</a>
</g>
</g>
<!-- Node17&#45;&gt;Node18 -->
<g id="edge24" class="edge">
<title>Node17&#45;&gt;Node18</title>
<path fill="none" stroke="midnightblue" d="M1506.69,-186.41C1482.42,-176.03 1452.41,-163.2 1429.91,-153.58"/>
<polygon fill="midnightblue" stroke="midnightblue" points="1505.44,-189.68 1516.01,-190.4 1508.2,-183.25 1505.44,-189.68"/>
</g>
<!-- Node17&#45;&gt;Node20 -->
<g id="edge27" class="edge">
<title>Node17&#45;&gt;Node20</title>
<path fill="none" stroke="midnightblue" d="M1607.87,-187.71C1644.98,-177.14 1692.34,-163.63 1727.5,-153.61"/>
<polygon fill="midnightblue" stroke="midnightblue" points="1606.85,-184.37 1598.19,-190.48 1608.76,-191.1 1606.85,-184.37"/>
</g>
<!-- Node22 -->
<g id="node22" class="node">
<title>Node22</title>
<g id="a_node22"><a xlink:href="location_8c.html" target="_top" xlink:title=" ">
<polygon fill="none" stroke="black" points="1469,-129 1469,-148 1603,-148 1603,-129 1469,-129"/>
<text text-anchor="middle" x="1536" y="-136" font-family="Helvetica,sans-Serif" font-size="10.00">src/WillyWeather/location.c</text>
</a>
</g>
</g>
<!-- Node17&#45;&gt;Node22 -->
<g id="edge30" class="edge">
<title>Node17&#45;&gt;Node22</title>
<path fill="none" stroke="midnightblue" d="M1544.15,-180.25C1541.9,-169.02 1539.37,-156.38 1537.74,-148.19"/>
<polygon fill="midnightblue" stroke="midnightblue" points="1540.78,-181.28 1546.18,-190.4 1547.65,-179.9 1540.78,-181.28"/>
</g>
<!-- Node18&#45;&gt;Node4 -->
<g id="edge25" class="edge">
<title>Node18&#45;&gt;Node4</title>
<path fill="none" stroke="midnightblue" d="M1333.09,-122.74C1207.12,-99.93 1068.94,-83.81 1002.56,-76.62"/>
<polygon fill="midnightblue" stroke="midnightblue" points="1332.83,-126.25 1343.29,-124.61 1334.09,-119.37 1332.83,-126.25"/>
</g>
<!-- Node19 -->
<g id="node19" class="node">
<title>Node19</title>
<g id="a_node19"><a xlink:href="precipitation_8c.html" target="_top" xlink:title=" ">
<polygon fill="none" stroke="black" points="1328,-62 1328,-81 1480,-81 1480,-62 1328,-62"/>
<text text-anchor="middle" x="1404" y="-69" font-family="Helvetica,sans-Serif" font-size="10.00">src/WillyWeather/precipitation.c</text>
</a>
</g>
</g>
<!-- Node18&#45;&gt;Node19 -->
<g id="edge26" class="edge">
<title>Node18&#45;&gt;Node19</title>
<path fill="none" stroke="midnightblue" d="M1399.61,-113.25C1400.82,-102.02 1402.18,-89.38 1403.06,-81.19"/>
<polygon fill="midnightblue" stroke="midnightblue" points="1396.11,-113.08 1398.52,-123.4 1403.07,-113.83 1396.11,-113.08"/>
</g>
<!-- Node20&#45;&gt;Node4 -->
<g id="edge28" class="edge">
<title>Node20&#45;&gt;Node4</title>
<path fill="none" stroke="midnightblue" d="M1713.34,-130.05C1691.67,-127.63 1667.29,-125.05 1645,-123 1401.15,-100.59 1107.54,-81.51 1002.63,-74.94"/>
<polygon fill="midnightblue" stroke="midnightblue" points="1713.08,-133.54 1723.41,-131.18 1713.87,-126.58 1713.08,-133.54"/>
</g>
<!-- Node21 -->
<g id="node21" class="node">
<title>Node21</title>
<g id="a_node21"><a xlink:href="tide_8c.html" target="_top" xlink:title=" ">
<polygon fill="none" stroke="black" points="1719,-62 1719,-81 1835,-81 1835,-62 1719,-62"/>
<text text-anchor="middle" x="1777" y="-69" font-family="Helvetica,sans-Serif" font-size="10.00">src/WillyWeather/tide.c</text>
</a>
</g>
</g>
<!-- Node20&#45;&gt;Node21 -->
<g id="edge29" class="edge">
<title>Node20&#45;&gt;Node21</title>
<path fill="none" stroke="midnightblue" d="M1777,-113.25C1777,-102.02 1777,-89.38 1777,-81.19"/>
<polygon fill="midnightblue" stroke="midnightblue" points="1773.5,-113.4 1777,-123.4 1780.5,-113.4 1773.5,-113.4"/>
</g>
<!-- Node24&#45;&gt;Node2 -->
<g id="edge44" class="edge">
<title>Node24&#45;&gt;Node2</title>
<path fill="none" stroke="midnightblue" d="M900.64,-388.39C817.45,-386.4 642.38,-378.13 499,-344 442.86,-330.64 380.83,-304.06 345.33,-287.63"/>
<polygon fill="midnightblue" stroke="midnightblue" points="900.72,-391.89 910.8,-388.61 900.88,-384.89 900.72,-391.89"/>
</g>
<!-- Node24&#45;&gt;Node3 -->
<g id="edge45" class="edge">
<title>Node24&#45;&gt;Node3</title>
<path fill="none" stroke="midnightblue" d="M900.7,-386.89C808.85,-381.26 604.46,-360.87 451,-288 431.31,-278.65 430.58,-269.88 413,-257 395.33,-244.05 374.52,-230.5 358.99,-220.7"/>
<polygon fill="midnightblue" stroke="midnightblue" points="900.63,-390.39 910.81,-387.48 901.03,-383.41 900.63,-390.39"/>
</g>
<!-- Node24&#45;&gt;Node8 -->
<g id="edge46" class="edge">
<title>Node24&#45;&gt;Node8</title>
<path fill="none" stroke="midnightblue" d="M905.68,-377.92C872.49,-369.23 825.65,-356.55 785,-344 718.47,-323.46 641.04,-295.79 603.2,-282.02"/>
<polygon fill="midnightblue" stroke="midnightblue" points="904.96,-381.35 915.52,-380.48 906.73,-374.57 904.96,-381.35"/>
</g>
<!-- Node24&#45;&gt;Node9 -->
<g id="edge47" class="edge">
<title>Node24&#45;&gt;Node9</title>
<path fill="none" stroke="midnightblue" d="M927.57,-374.78C873.08,-338.62 730.49,-243.99 686.86,-215.04"/>
<polygon fill="midnightblue" stroke="midnightblue" points="925.83,-377.83 936.1,-380.44 929.7,-372 925.83,-377.83"/>
</g>
<!-- Node24&#45;&gt;Node13 -->
<g id="edge48" class="edge">
<title>Node24&#45;&gt;Node13</title>
<path fill="none" stroke="midnightblue" d="M930.89,-373.66C921.84,-365.44 911.12,-354.8 903,-344 869.42,-299.38 841.96,-237.53 832.52,-215.08"/>
<polygon fill="midnightblue" stroke="midnightblue" points="928.79,-376.48 938.6,-380.47 933.42,-371.23 928.79,-376.48"/>
</g>
<!-- Node24&#45;&gt;Node17 -->
<g id="edge49" class="edge">
<title>Node24&#45;&gt;Node17</title>
<path fill="none" stroke="midnightblue" d="M997.58,-388.15C1105.74,-385.69 1363.09,-376.5 1443,-344 1479.58,-329.12 1487.86,-319.26 1512,-288 1528.24,-266.97 1539.29,-237.67 1544.84,-220.53"/>
<polygon fill="midnightblue" stroke="midnightblue" points="997.21,-384.66 987.29,-388.38 997.36,-391.66 997.21,-384.66"/>
</g>
<!-- Node24&#45;&gt;Node18 -->
<g id="edge50" class="edge">
<title>Node24&#45;&gt;Node18</title>
<path fill="none" stroke="midnightblue" d="M997.46,-386.58C1080.69,-381.79 1246.88,-369.32 1299,-344 1361.87,-313.46 1378.04,-288.28 1397,-221 1403.44,-198.12 1401.43,-170.17 1399.28,-153.66"/>
<polygon fill="midnightblue" stroke="midnightblue" points="997.04,-383.09 987.25,-387.15 997.43,-390.08 997.04,-383.09"/>
</g>
<!-- Node24&#45;&gt;Node20 -->
<g id="edge51" class="edge">
<title>Node24&#45;&gt;Node20</title>
<path fill="none" stroke="midnightblue" d="M997.39,-387.17C1151.21,-380.7 1626.76,-355.6 1763,-288 1803.04,-268.13 1819.74,-261.8 1838,-221 1843.62,-208.42 1843.86,-202.47 1838,-190 1830.74,-174.57 1816.2,-162.24 1803.14,-153.63"/>
<polygon fill="midnightblue" stroke="midnightblue" points="997.15,-383.68 987.31,-387.58 997.44,-390.67 997.15,-383.68"/>
</g>
<!-- Node25 -->
<g id="node25" class="node">
<title>Node25</title>
<g id="a_node25"><a xlink:href="stations_8h.html" target="_top" xlink:title=" ">
<polygon fill="none" stroke="black" points="1099,-196 1099,-215 1217,-215 1217,-196 1099,-196"/>
<text text-anchor="middle" x="1158" y="-203" font-family="Helvetica,sans-Serif" font-size="10.00">include/BOM/stations.h</text>
</a>
</g>
</g>
<!-- Node24&#45;&gt;Node25 -->
<g id="edge38" class="edge">
<title>Node24&#45;&gt;Node25</title>
<path fill="none" stroke="midnightblue" d="M997.29,-383.51C1052.68,-374.35 1141.11,-350.28 1182,-288 1197.46,-264.45 1176.49,-230.67 1164.84,-215.04"/>
<polygon fill="midnightblue" stroke="midnightblue" points="996.69,-380.06 987.35,-385.06 997.76,-386.98 996.69,-380.06"/>
</g>
<!-- Node29 -->
<g id="node29" class="node">
<title>Node29</title>
<g id="a_node29"><a xlink:href="ftp_8h.html" target="_top" xlink:title=" ">
<polygon fill="none" stroke="black" points="1248.5,-263 1248.5,-282 1317.5,-282 1317.5,-263 1248.5,-263"/>
<text text-anchor="middle" x="1283" y="-270" font-family="Helvetica,sans-Serif" font-size="10.00">include/ftp.h</text>
</a>
</g>
</g>
<!-- Node24&#45;&gt;Node29 -->
<g id="edge52" class="edge">
<title>Node24&#45;&gt;Node29</title>
<path fill="none" stroke="midnightblue" d="M997.24,-389.77C1080.11,-389.95 1244.17,-384.96 1281,-344 1296.39,-326.88 1290.25,-296.88 1285.91,-282.16"/>
<polygon fill="midnightblue" stroke="midnightblue" points="997.08,-386.26 987.07,-389.72 997.05,-393.26 997.08,-386.26"/>
</g>
<!-- Node31 -->
<g id="node31" class="node">
<title>Node31</title>
<g id="a_node31"><a xlink:href="http_8h.html" target="_top" xlink:title=" ">
<polygon fill="none" stroke="black" points="912,-324.5 912,-343.5 986,-343.5 986,-324.5 912,-324.5"/>
<text text-anchor="middle" x="949" y="-331.5" font-family="Helvetica,sans-Serif" font-size="10.00">include/http.h</text>
</a>
</g>
</g>
<!-- Node24&#45;&gt;Node31 -->
<g id="edge57" class="edge">
<title>Node24&#45;&gt;Node31</title>
<path fill="none" stroke="midnightblue" d="M949,-369.8C949,-360.91 949,-350.78 949,-343.75"/>
<polygon fill="midnightblue" stroke="midnightblue" points="945.5,-370.08 949,-380.08 952.5,-370.08 945.5,-370.08"/>
</g>
<!-- Node33 -->
<g id="node33" class="node">
<title>Node33</title>
<g id="a_node33"><a xlink:href="utils_8c.html" target="_top" xlink:title=" ">
<polygon fill="none" stroke="black" points="1212.5,-324.5 1212.5,-343.5 1271.5,-343.5 1271.5,-324.5 1212.5,-324.5"/>
<text text-anchor="middle" x="1242" y="-331.5" font-family="Helvetica,sans-Serif" font-size="10.00">src/utils.c</text>
</a>
</g>
</g>
<!-- Node24&#45;&gt;Node33 -->
<g id="edge70" class="edge">
<title>Node24&#45;&gt;Node33</title>
<path fill="none" stroke="midnightblue" d="M996.93,-380.67C1047.12,-371.88 1128.18,-357.45 1198,-344 1202.59,-343.12 1207.45,-342.15 1212.19,-341.19"/>
<polygon fill="midnightblue" stroke="midnightblue" points="996.26,-377.24 987.01,-382.41 997.47,-384.13 996.26,-377.24"/>
</g>
<!-- Node25&#45;&gt;Node4 -->
<g id="edge42" class="edge">
<title>Node25&#45;&gt;Node4</title>
<path fill="none" stroke="midnightblue" d="M1155.18,-185.89C1151.42,-167.45 1143.03,-139.6 1125,-123 1091.29,-91.97 1038.76,-80.01 1002.71,-75.39"/>
<polygon fill="midnightblue" stroke="midnightblue" points="1151.73,-186.51 1156.92,-195.75 1158.62,-185.29 1151.73,-186.51"/>
</g>
<!-- Node26 -->
<g id="node26" class="node">
<title>Node26</title>
<g id="a_node26"><a xlink:href="historical__weather_8h.html" target="_top" xlink:title=" ">
<polygon fill="none" stroke="black" points="1210.5,-123.5 1210.5,-153.5 1325.5,-153.5 1325.5,-123.5 1210.5,-123.5"/>
<text text-anchor="start" x="1218.5" y="-141.5" font-family="Helvetica,sans-Serif" font-size="10.00">include/BOM/historical</text>
<text text-anchor="middle" x="1268" y="-130.5" font-family="Helvetica,sans-Serif" font-size="10.00">_weather.h</text>
</a>
</g>
</g>
<!-- Node25&#45;&gt;Node26 -->
<g id="edge39" class="edge">
<title>Node25&#45;&gt;Node26</title>
<path fill="none" stroke="midnightblue" d="M1181.51,-190.6C1199.98,-179.69 1225.6,-164.55 1244.15,-153.59"/>
<polygon fill="midnightblue" stroke="midnightblue" points="1179.66,-187.63 1172.83,-195.73 1183.22,-193.66 1179.66,-187.63"/>
</g>
<!-- Node28 -->
<g id="node28" class="node">
<title>Node28</title>
<g id="a_node28"><a xlink:href="stations_8c.html" target="_top" xlink:title=" ">
<polygon fill="none" stroke="black" points="1014.5,-129 1014.5,-148 1115.5,-148 1115.5,-129 1014.5,-129"/>
<text text-anchor="middle" x="1065" y="-136" font-family="Helvetica,sans-Serif" font-size="10.00">src/BOM/stations.c</text>
</a>
</g>
</g>
<!-- Node25&#45;&gt;Node28 -->
<g id="edge43" class="edge">
<title>Node25&#45;&gt;Node28</title>
<path fill="none" stroke="midnightblue" d="M1137.13,-189.92C1118.75,-177.07 1092.58,-158.78 1077.34,-148.13"/>
<polygon fill="midnightblue" stroke="midnightblue" points="1135.25,-192.87 1145.45,-195.73 1139.26,-187.14 1135.25,-192.87"/>
</g>
<!-- Node26&#45;&gt;Node4 -->
<g id="edge40" class="edge">
<title>Node26&#45;&gt;Node4</title>
<path fill="none" stroke="midnightblue" d="M1200.39,-123.09C1139.67,-110.15 1052.61,-91.6 1002.54,-80.93"/>
<polygon fill="midnightblue" stroke="midnightblue" points="1199.76,-126.54 1210.27,-125.2 1201.22,-119.69 1199.76,-126.54"/>
</g>
<!-- Node27 -->
<g id="node27" class="node">
<title>Node27</title>
<g id="a_node27"><a xlink:href="historical__weather_8c.html" target="_top" xlink:title=" ">
<polygon fill="none" stroke="black" points="1212,-56.5 1212,-86.5 1310,-86.5 1310,-56.5 1212,-56.5"/>
<text text-anchor="start" x="1220" y="-74.5" font-family="Helvetica,sans-Serif" font-size="10.00">src/BOM/historical</text>
<text text-anchor="middle" x="1261" y="-63.5" font-family="Helvetica,sans-Serif" font-size="10.00">_weather.c</text>
</a>
</g>
</g>
<!-- Node26&#45;&gt;Node27 -->
<g id="edge41" class="edge">
<title>Node26&#45;&gt;Node27</title>
<path fill="none" stroke="midnightblue" d="M1265.4,-113.4C1264.43,-104.37 1263.36,-94.41 1262.51,-86.58"/>
<polygon fill="midnightblue" stroke="midnightblue" points="1261.93,-113.83 1266.48,-123.4 1268.89,-113.08 1261.93,-113.83"/>
</g>
<!-- Node29&#45;&gt;Node4 -->
<g id="edge55" class="edge">
<title>Node29&#45;&gt;Node4</title>
<path fill="none" stroke="midnightblue" d="M1273.02,-254.24C1253.54,-222.3 1207.12,-154.39 1148,-123 1101.39,-98.25 1041.58,-84.79 1002.78,-78.13"/>
<polygon fill="midnightblue" stroke="midnightblue" points="1270.06,-256.12 1278.18,-262.92 1276.08,-252.53 1270.06,-256.12"/>
</g>
<!-- Node29&#45;&gt;Node25 -->
<g id="edge54" class="edge">
<title>Node29&#45;&gt;Node25</title>
<path fill="none" stroke="midnightblue" d="M1257.23,-258.1C1232.48,-245.23 1195.8,-226.16 1174.66,-215.17"/>
<polygon fill="midnightblue" stroke="midnightblue" points="1255.91,-261.36 1266.4,-262.87 1259.14,-255.15 1255.91,-261.36"/>
</g>
<!-- Node29&#45;&gt;Node26 -->
<g id="edge53" class="edge">
<title>Node29&#45;&gt;Node26</title>
<path fill="none" stroke="midnightblue" d="M1280.88,-252.89C1277.85,-226.24 1272.35,-177.8 1269.62,-153.78"/>
<polygon fill="midnightblue" stroke="midnightblue" points="1277.41,-253.3 1282.01,-262.84 1284.36,-252.51 1277.41,-253.3"/>
</g>
<!-- Node30 -->
<g id="node30" class="node">
<title>Node30</title>
<g id="a_node30"><a xlink:href="ftp_8c.html" target="_top" xlink:title=" ">
<polygon fill="none" stroke="black" points="1311,-196 1311,-215 1363,-215 1363,-196 1311,-196"/>
<text text-anchor="middle" x="1337" y="-203" font-family="Helvetica,sans-Serif" font-size="10.00">src/ftp.c</text>
</a>
</g>
</g>
<!-- Node29&#45;&gt;Node30 -->
<g id="edge56" class="edge">
<title>Node29&#45;&gt;Node30</title>
<path fill="none" stroke="midnightblue" d="M1296.89,-254.77C1307.42,-242.1 1321.46,-225.2 1329.83,-215.13"/>
<polygon fill="midnightblue" stroke="midnightblue" points="1293.98,-252.81 1290.28,-262.73 1299.36,-257.28 1293.98,-252.81"/>
</g>
<!-- Node31&#45;&gt;Node2 -->
<g id="edge58" class="edge">
<title>Node31&#45;&gt;Node2</title>
<path fill="none" stroke="midnightblue" d="M901.86,-328.77C814.76,-320.94 622.75,-303.54 461,-288 431.28,-285.14 398.15,-281.84 371.07,-279.11"/>
<polygon fill="midnightblue" stroke="midnightblue" points="901.68,-332.27 911.95,-329.68 902.3,-325.3 901.68,-332.27"/>
</g>
<!-- Node31&#45;&gt;Node3 -->
<g id="edge59" class="edge">
<title>Node31&#45;&gt;Node3</title>
<path fill="none" stroke="midnightblue" d="M901.69,-331.36C800.99,-327.37 568.66,-315.42 495,-288 472.58,-279.66 471.83,-268.76 451,-257 425.83,-242.8 395.91,-229.77 372.9,-220.5"/>
<polygon fill="midnightblue" stroke="midnightblue" points="901.74,-334.86 911.87,-331.75 902.01,-327.87 901.74,-334.86"/>
</g>
<!-- Node31&#45;&gt;Node4 -->
<g id="edge68" class="edge">
<title>Node31&#45;&gt;Node4</title>
<path fill="none" stroke="midnightblue" d="M944.96,-314.57C943.39,-306.46 941.77,-296.8 941,-288 937.17,-244.61 936.97,-233.37 941,-190 944.81,-148.88 955.99,-100.69 960.78,-81.27"/>
<polygon fill="midnightblue" stroke="midnightblue" points="941.55,-315.35 947.01,-324.43 948.41,-313.93 941.55,-315.35"/>
</g>
<!-- Node31&#45;&gt;Node8 -->
<g id="edge60" class="edge">
<title>Node31&#45;&gt;Node8</title>
<path fill="none" stroke="midnightblue" d="M901.79,-325.39C832.86,-314.27 705.06,-293.67 632.99,-282.05"/>
<polygon fill="midnightblue" stroke="midnightblue" points="901.5,-328.89 911.93,-327.02 902.61,-321.98 901.5,-328.89"/>
</g>
<!-- Node31&#45;&gt;Node9 -->
<g id="edge61" class="edge">
<title>Node31&#45;&gt;Node9</title>
<path fill="none" stroke="midnightblue" d="M920.74,-320C864.5,-294.13 739.92,-236.83 692.67,-215.09"/>
<polygon fill="midnightblue" stroke="midnightblue" points="919.55,-323.31 930.09,-324.31 922.47,-316.95 919.55,-323.31"/>
</g>
<!-- Node31&#45;&gt;Node12 -->
<g id="edge62" class="edge">
<title>Node31&#45;&gt;Node12</title>
<path fill="none" stroke="midnightblue" d="M979.8,-320.78C1008.95,-309.22 1051.94,-292.16 1077.54,-282.01"/>
<polygon fill="midnightblue" stroke="midnightblue" points="978.49,-317.53 970.49,-324.48 981.07,-324.04 978.49,-317.53"/>
</g>
<!-- Node31&#45;&gt;Node13 -->
<g id="edge63" class="edge">
<title>Node31&#45;&gt;Node13</title>
<path fill="none" stroke="midnightblue" d="M933.65,-316.83C907.99,-289.78 857.23,-236.26 837.3,-215.26"/>
<polygon fill="midnightblue" stroke="midnightblue" points="931.33,-319.46 940.75,-324.31 936.41,-314.64 931.33,-319.46"/>
</g>
<!-- Node31&#45;&gt;Node16 -->
<g id="edge64" class="edge">
<title>Node31&#45;&gt;Node16</title>
<path fill="none" stroke="midnightblue" d="M996.13,-329.3C1093.71,-321.63 1324.94,-303.43 1519,-288 1561.73,-284.6 1610.15,-280.72 1646.14,-277.83"/>
<polygon fill="midnightblue" stroke="midnightblue" points="995.7,-325.82 986.01,-330.09 996.25,-332.8 995.7,-325.82"/>
</g>
<!-- Node31&#45;&gt;Node17 -->
<g id="edge65" class="edge">
<title>Node31&#45;&gt;Node17</title>
<path fill="none" stroke="midnightblue" d="M996.25,-331.08C1118.48,-325.82 1438.55,-310.09 1481,-288 1509.93,-272.94 1531.36,-239.75 1541.83,-220.69"/>
<polygon fill="midnightblue" stroke="midnightblue" points="995.92,-327.59 986.07,-331.51 996.21,-334.58 995.92,-327.59"/>
</g>
<!-- Node31&#45;&gt;Node18 -->
<g id="edge66" class="edge">
<title>Node31&#45;&gt;Node18</title>
<path fill="none" stroke="midnightblue" d="M996.38,-332.21C1085.17,-329.96 1272.56,-321.29 1327,-288 1375.38,-258.41 1390.84,-185.09 1395.33,-153.91"/>
<polygon fill="midnightblue" stroke="midnightblue" points="996.22,-328.72 986.31,-332.45 996.39,-335.72 996.22,-328.72"/>
</g>
<!-- Node31&#45;&gt;Node20 -->
<g id="edge67" class="edge">
<title>Node31&#45;&gt;Node20</title>
<path fill="none" stroke="midnightblue" d="M996.35,-330.89C1089.16,-326.24 1291.54,-313.46 1356,-288 1423.62,-261.29 1420.23,-218.81 1487,-190 1564.77,-156.44 1663.4,-145.17 1723.28,-141.39"/>
<polygon fill="midnightblue" stroke="midnightblue" points="995.94,-327.4 986.12,-331.39 996.28,-334.4 995.94,-327.4"/>
</g>
<!-- Node32 -->
<g id="node32" class="node">
<title>Node32</title>
<g id="a_node32"><a xlink:href="http_8c.html" target="_top" xlink:title=" ">
<polygon fill="none" stroke="black" points="949.5,-263 949.5,-282 1006.5,-282 1006.5,-263 949.5,-263"/>
<text text-anchor="middle" x="978" y="-270" font-family="Helvetica,sans-Serif" font-size="10.00">src/http.c</text>
</a>
</g>
</g>
<!-- Node31&#45;&gt;Node32 -->
<g id="edge69" class="edge">
<title>Node31&#45;&gt;Node32</title>
<path fill="none" stroke="midnightblue" d="M957.61,-315.33C962.97,-304.33 969.63,-290.66 973.85,-282.01"/>
<polygon fill="midnightblue" stroke="midnightblue" points="954.39,-313.95 953.15,-324.48 960.68,-317.02 954.39,-313.95"/>
</g>
</g>
</svg>
