<?xml version="1.0" encoding="UTF-8" standalone="no"?>
<!DOCTYPE svg PUBLIC "-//W3C//DTD SVG 1.1//EN"
 "http://www.w3.org/Graphics/SVG/1.1/DTD/svg11.dtd">
<!-- Generated by graphviz version 2.49.3 (20211027.1534)
 -->
<!-- Title: include/log.h Pages: 1 -->
<svg width="2079pt" height="464pt"
 viewBox="0.00 0.00 2078.81 464.00" xmlns="http://www.w3.org/2000/svg" xmlns:xlink="http://www.w3.org/1999/xlink">
<g id="graph0" class="graph" transform="scale(1 1) rotate(0) translate(4 460)">
<title>include/log.h</title>
<!-- Node1 -->
<g id="node1" class="node">
<title>Node1</title>
<g id="a_node1"><a xlink:title=" ">
<polygon fill="#bfbfbf" stroke="black" points="1039.81,-436.5 1039.81,-455.5 1110.81,-455.5 1110.81,-436.5 1039.81,-436.5"/>
<text text-anchor="middle" x="1075.31" y="-443.5" font-family="Helvetica,sans-Serif" font-size="10.00">include/log.h</text>
</a>
</g>
</g>
<!-- Node2 -->
<g id="node2" class="node">
<title>Node2</title>
<g id="a_node2"><a xlink:href="harvest__area_8h.html" target="_top" xlink:title=" ">
<polygon fill="none" stroke="black" points="455.31,-257.5 455.31,-287.5 565.31,-287.5 565.31,-257.5 455.31,-257.5"/>
<text text-anchor="start" x="463.31" y="-275.5" font-family="Helvetica,sans-Serif" font-size="10.00">include/FoodAuthority</text>
<text text-anchor="middle" x="510.31" y="-264.5" font-family="Helvetica,sans-Serif" font-size="10.00">/harvest_area.h</text>
</a>
</g>
</g>
<!-- Node1&#45;&gt;Node2 -->
<g id="edge1" class="edge">
<title>Node1&#45;&gt;Node2</title>
<path fill="none" stroke="midnightblue" d="M1029.3,-440.17C918.7,-427.9 641.37,-392.99 563.31,-344 541.39,-330.24 525.32,-303.93 516.92,-287.63"/>
<polygon fill="midnightblue" stroke="midnightblue" points="1029.14,-443.67 1039.47,-441.29 1029.91,-436.72 1029.14,-443.67"/>
</g>
<!-- Node3 -->
<g id="node3" class="node">
<title>Node3</title>
<g id="a_node3"><a xlink:href="harvest__areas_8h.html" target="_top" xlink:title=" ">
<polygon fill="none" stroke="black" points="359.31,-190.5 359.31,-220.5 469.31,-220.5 469.31,-190.5 359.31,-190.5"/>
<text text-anchor="start" x="367.31" y="-208.5" font-family="Helvetica,sans-Serif" font-size="10.00">include/FoodAuthority</text>
<text text-anchor="middle" x="414.31" y="-197.5" font-family="Helvetica,sans-Serif" font-size="10.00">/harvest_areas.h</text>
</a>
</g>
</g>
<!-- Node1&#45;&gt;Node3 -->
<g id="edge8" class="edge">
<title>Node1&#45;&gt;Node3</title>
<path fill="none" stroke="midnightblue" d="M1029.41,-443.23C952.06,-439.55 791.18,-428.84 658.31,-400 580.99,-383.22 558.16,-383.01 489.31,-344 456.14,-325.2 442.29,-321.63 424.31,-288 412.89,-266.63 412.23,-237.7 413.07,-220.68"/>
<polygon fill="midnightblue" stroke="midnightblue" points="1029.61,-446.75 1039.76,-443.71 1029.93,-439.75 1029.61,-446.75"/>
</g>
<!-- Node4 -->
<g id="node4" class="node">
<title>Node4</title>
<g id="a_node4"><a xlink:href="main_8h.html" target="_top" xlink:title=" ">
<polygon fill="none" stroke="black" points="660.81,-62 660.81,-81 739.81,-81 739.81,-62 660.81,-62"/>
<text text-anchor="middle" x="700.31" y="-69" font-family="Helvetica,sans-Serif" font-size="10.00">include/main.h</text>
</a>
</g>
</g>
<!-- Node1&#45;&gt;Node4 -->
<g id="edge36" class="edge">
<title>Node1&#45;&gt;Node4</title>
<path fill="none" stroke="midnightblue" d="M1029.49,-445.19C824.59,-445.44 2.31,-439.91 2.31,-335 2.31,-335 2.31,-335 2.31,-204.5 2.31,-167.31 -6.94,-147.19 21.31,-123 69.97,-81.34 522.99,-74.03 660.76,-72.76"/>
<polygon fill="midnightblue" stroke="midnightblue" points="1029.62,-448.69 1039.61,-445.17 1029.61,-441.69 1029.62,-448.69"/>
</g>
<!-- Node8 -->
<g id="node8" class="node">
<title>Node8</title>
<g id="a_node8"><a xlink:href="_i_b_m___e_i_s_2authenticate_8h.html" target="_top" xlink:title=" ">
<polygon fill="none" stroke="black" points="779.81,-263 779.81,-282 932.81,-282 932.81,-263 779.81,-263"/>
<text text-anchor="middle" x="856.31" y="-270" font-family="Helvetica,sans-Serif" font-size="10.00">include/IBM_EIS/authenticate.h</text>
</a>
</g>
</g>
<!-- Node1&#45;&gt;Node8 -->
<g id="edge9" class="edge">
<title>Node1&#45;&gt;Node8</title>
<path fill="none" stroke="midnightblue" d="M1029.69,-436.12C1003.67,-429.4 971.53,-418.13 947.31,-400 902.7,-366.6 870.96,-305.04 860.27,-282.27"/>
<polygon fill="midnightblue" stroke="midnightblue" points="1029.15,-439.59 1039.69,-438.57 1030.81,-432.79 1029.15,-439.59"/>
</g>
<!-- Node9 -->
<g id="node9" class="node">
<title>Node9</title>
<g id="a_node9"><a xlink:href="timeseries_8h.html" target="_top" xlink:title=" ">
<polygon fill="none" stroke="black" points="901.81,-196 901.81,-215 1046.81,-215 1046.81,-196 901.81,-196"/>
<text text-anchor="middle" x="974.31" y="-203" font-family="Helvetica,sans-Serif" font-size="10.00">include/IBM_EIS/timeseries.h</text>
</a>
</g>
</g>
<!-- Node1&#45;&gt;Node9 -->
<g id="edge15" class="edge">
<title>Node1&#45;&gt;Node9</title>
<path fill="none" stroke="midnightblue" d="M1029.78,-432.88C1013,-426.04 995.59,-415.62 985.31,-400 945.55,-339.57 964.82,-244.16 972.01,-215.15"/>
<polygon fill="midnightblue" stroke="midnightblue" points="1028.94,-436.3 1039.53,-436.51 1031.38,-429.74 1028.94,-436.3"/>
</g>
<!-- Node12 -->
<g id="node12" class="node">
<title>Node12</title>
<g id="a_node12"><a xlink:href="_ubidots_2authenticate_8h.html" target="_top" xlink:title=" ">
<polygon fill="none" stroke="black" points="1331.31,-263 1331.31,-282 1479.31,-282 1479.31,-263 1331.31,-263"/>
<text text-anchor="middle" x="1405.31" y="-270" font-family="Helvetica,sans-Serif" font-size="10.00">include/Ubidots/authenticate.h</text>
</a>
</g>
</g>
<!-- Node1&#45;&gt;Node12 -->
<g id="edge16" class="edge">
<title>Node1&#45;&gt;Node12</title>
<path fill="none" stroke="midnightblue" d="M1109.18,-433C1155.54,-415.99 1240.72,-382.59 1308.31,-344 1341.94,-324.8 1377.91,-296.28 1395.07,-282.12"/>
<polygon fill="midnightblue" stroke="midnightblue" points="1107.83,-429.77 1099.62,-436.48 1110.22,-436.35 1107.83,-429.77"/>
</g>
<!-- Node13 -->
<g id="node13" class="node">
<title>Node13</title>
<g id="a_node13"><a xlink:href="devices_8h.html" target="_top" xlink:title=" ">
<polygon fill="none" stroke="black" points="1065.31,-196 1065.31,-215 1193.31,-215 1193.31,-196 1065.31,-196"/>
<text text-anchor="middle" x="1129.31" y="-203" font-family="Helvetica,sans-Serif" font-size="10.00">include/Ubidots/devices.h</text>
</a>
</g>
</g>
<!-- Node1&#45;&gt;Node13 -->
<g id="edge21" class="edge">
<title>Node1&#45;&gt;Node13</title>
<path fill="none" stroke="midnightblue" d="M1079.58,-426.17C1090.57,-377.6 1119.58,-249.49 1127.37,-215.1"/>
<polygon fill="midnightblue" stroke="midnightblue" points="1076.09,-425.7 1077.3,-436.23 1082.92,-427.25 1076.09,-425.7"/>
</g>
<!-- Node16 -->
<g id="node16" class="node">
<title>Node16</title>
<g id="a_node16"><a xlink:href="_willy_weather_2authenticate_8h.html" target="_top" xlink:title=" ">
<polygon fill="none" stroke="black" points="1687.81,-257.5 1687.81,-287.5 1794.81,-287.5 1794.81,-257.5 1687.81,-257.5"/>
<text text-anchor="start" x="1695.81" y="-275.5" font-family="Helvetica,sans-Serif" font-size="10.00">include/WillyWeather</text>
<text text-anchor="middle" x="1741.31" y="-264.5" font-family="Helvetica,sans-Serif" font-size="10.00">/authenticate.h</text>
</a>
</g>
</g>
<!-- Node1&#45;&gt;Node16 -->
<g id="edge22" class="edge">
<title>Node1&#45;&gt;Node16</title>
<path fill="none" stroke="midnightblue" d="M1121.3,-444.84C1259.87,-443.92 1666.61,-437.98 1711.31,-400 1744.51,-371.79 1744.7,-314.22 1742.79,-287.59"/>
<polygon fill="midnightblue" stroke="midnightblue" points="1121.01,-441.34 1111.03,-444.9 1121.05,-448.34 1121.01,-441.34"/>
</g>
<!-- Node17 -->
<g id="node17" class="node">
<title>Node17</title>
<g id="a_node17"><a xlink:href="location_8h.html" target="_top" xlink:title=" ">
<polygon fill="none" stroke="black" points="1567.81,-190.5 1567.81,-220.5 1674.81,-220.5 1674.81,-190.5 1567.81,-190.5"/>
<text text-anchor="start" x="1575.81" y="-208.5" font-family="Helvetica,sans-Serif" font-size="10.00">include/WillyWeather</text>
<text text-anchor="middle" x="1621.31" y="-197.5" font-family="Helvetica,sans-Serif" font-size="10.00">/location.h</text>
</a>
</g>
</g>
<!-- Node1&#45;&gt;Node17 -->
<g id="edge34" class="edge">
<title>Node1&#45;&gt;Node17</title>
<path fill="none" stroke="midnightblue" d="M1121.11,-443.63C1209.67,-439.26 1408.43,-420.91 1553.31,-344 1584.96,-327.2 1595.33,-320.07 1611.31,-288 1622.13,-266.31 1622.99,-237.49 1622.35,-220.57"/>
<polygon fill="midnightblue" stroke="midnightblue" points="1120.69,-440.15 1110.86,-444.1 1121.01,-447.14 1120.69,-440.15"/>
</g>
<!-- Node20 -->
<g id="node20" class="node">
<title>Node20</title>
<g id="a_node20"><a xlink:href="tide_8h.html" target="_top" xlink:title=" ">
<polygon fill="none" stroke="black" points="1731.81,-123.5 1731.81,-153.5 1838.81,-153.5 1838.81,-123.5 1731.81,-123.5"/>
<text text-anchor="start" x="1739.81" y="-141.5" font-family="Helvetica,sans-Serif" font-size="10.00">include/WillyWeather</text>
<text text-anchor="middle" x="1785.31" y="-130.5" font-family="Helvetica,sans-Serif" font-size="10.00">/tide.h</text>
</a>
</g>
</g>
<!-- Node1&#45;&gt;Node20 -->
<g id="edge35" class="edge">
<title>Node1&#45;&gt;Node20</title>
<path fill="none" stroke="midnightblue" d="M1121.07,-444.36C1306.12,-441.18 1989.31,-423.43 1989.31,-335 1989.31,-335 1989.31,-335 1989.31,-271.5 1989.31,-230.95 1979.26,-216.2 1948.31,-190 1917.56,-163.96 1873.48,-151.34 1838.91,-145.22"/>
<polygon fill="midnightblue" stroke="midnightblue" points="1120.8,-440.86 1110.86,-444.53 1120.92,-447.86 1120.8,-440.86"/>
</g>
<!-- Node24 -->
<g id="node24" class="node">
<title>Node24</title>
<g id="a_node24"><a xlink:href="utils_8h.html" target="_top" xlink:title=" ">
<polygon fill="none" stroke="black" points="994.31,-380.5 994.31,-399.5 1070.31,-399.5 1070.31,-380.5 994.31,-380.5"/>
<text text-anchor="middle" x="1032.31" y="-387.5" font-family="Helvetica,sans-Serif" font-size="10.00">include/utils.h</text>
</a>
</g>
</g>
<!-- Node1&#45;&gt;Node24 -->
<g id="edge37" class="edge">
<title>Node1&#45;&gt;Node24</title>
<path fill="none" stroke="midnightblue" d="M1061.89,-428.14C1054.4,-418.74 1045.38,-407.4 1039.28,-399.75"/>
<polygon fill="midnightblue" stroke="midnightblue" points="1059.25,-430.44 1068.21,-436.08 1064.72,-426.08 1059.25,-430.44"/>
</g>
<!-- Node36 -->
<g id="node36" class="node">
<title>Node36</title>
<g id="a_node36"><a xlink:href="log_8c.html" target="_top" xlink:title=" ">
<polygon fill="none" stroke="black" points="2017.81,-380.5 2017.81,-399.5 2070.81,-399.5 2070.81,-380.5 2017.81,-380.5"/>
<text text-anchor="middle" x="2044.31" y="-387.5" font-family="Helvetica,sans-Serif" font-size="10.00">src/log.c</text>
</a>
</g>
</g>
<!-- Node1&#45;&gt;Node36 -->
<g id="edge74" class="edge">
<title>Node1&#45;&gt;Node36</title>
<path fill="none" stroke="midnightblue" d="M1120.91,-445.48C1256.17,-446.34 1666.72,-444.78 2003.31,-400 2007.94,-399.38 2012.81,-398.51 2017.52,-397.56"/>
<polygon fill="midnightblue" stroke="midnightblue" points="1120.93,-441.98 1110.91,-445.41 1120.88,-448.98 1120.93,-441.98"/>
</g>
<!-- Node2&#45;&gt;Node3 -->
<g id="edge2" class="edge">
<title>Node2&#45;&gt;Node3</title>
<path fill="none" stroke="midnightblue" d="M481.12,-251.73C466.27,-241.68 448.56,-229.68 435.1,-220.58"/>
<polygon fill="midnightblue" stroke="midnightblue" points="479.24,-254.69 489.48,-257.4 483.16,-248.89 479.24,-254.69"/>
</g>
<!-- Node2&#45;&gt;Node4 -->
<g id="edge6" class="edge">
<title>Node2&#45;&gt;Node4</title>
<path fill="none" stroke="midnightblue" d="M572.18,-253.77C590.72,-246.07 609.94,-235.43 624.31,-221 657.89,-187.31 644.67,-164.83 667.31,-123 675.59,-107.71 687.01,-91.02 694.01,-81.17"/>
<polygon fill="midnightblue" stroke="midnightblue" points="570.89,-250.51 562.86,-257.42 573.45,-257.03 570.89,-250.51"/>
</g>
<!-- Node7 -->
<g id="node7" class="node">
<title>Node7</title>
<g id="a_node7"><a xlink:href="harvest__area_8c.html" target="_top" xlink:title=" ">
<polygon fill="none" stroke="black" points="487.31,-190.5 487.31,-220.5 615.31,-220.5 615.31,-190.5 487.31,-190.5"/>
<text text-anchor="start" x="495.31" y="-208.5" font-family="Helvetica,sans-Serif" font-size="10.00">src/FoodAuthority/harvest</text>
<text text-anchor="middle" x="551.31" y="-197.5" font-family="Helvetica,sans-Serif" font-size="10.00">_area.c</text>
</a>
</g>
</g>
<!-- Node2&#45;&gt;Node7 -->
<g id="edge7" class="edge">
<title>Node2&#45;&gt;Node7</title>
<path fill="none" stroke="midnightblue" d="M524.59,-248.87C530.52,-239.46 537.23,-228.83 542.43,-220.58"/>
<polygon fill="midnightblue" stroke="midnightblue" points="521.58,-247.07 519.21,-257.4 527.51,-250.81 521.58,-247.07"/>
</g>
<!-- Node3&#45;&gt;Node4 -->
<g id="edge3" class="edge">
<title>Node3&#45;&gt;Node4</title>
<path fill="none" stroke="midnightblue" d="M453.81,-186.27C516.33,-157.42 635.69,-102.32 681.64,-81.12"/>
<polygon fill="midnightblue" stroke="midnightblue" points="452.26,-183.13 444.65,-190.5 455.2,-189.49 452.26,-183.13"/>
</g>
<!-- Node6 -->
<g id="node6" class="node">
<title>Node6</title>
<g id="a_node6"><a xlink:href="harvest__areas_8c.html" target="_top" xlink:title=" ">
<polygon fill="none" stroke="black" points="359.31,-123.5 359.31,-153.5 487.31,-153.5 487.31,-123.5 359.31,-123.5"/>
<text text-anchor="start" x="367.31" y="-141.5" font-family="Helvetica,sans-Serif" font-size="10.00">src/FoodAuthority/harvest</text>
<text text-anchor="middle" x="423.31" y="-130.5" font-family="Helvetica,sans-Serif" font-size="10.00">_areas.c</text>
</a>
</g>
</g>
<!-- Node3&#45;&gt;Node6 -->
<g id="edge5" class="edge">
<title>Node3&#45;&gt;Node6</title>
<path fill="none" stroke="midnightblue" d="M417.65,-180.4C418.9,-171.37 420.28,-161.41 421.36,-153.58"/>
<polygon fill="midnightblue" stroke="midnightblue" points="414.17,-180.01 416.27,-190.4 421.11,-180.97 414.17,-180.01"/>
</g>
<!-- Node5 -->
<g id="node5" class="node">
<title>Node5</title>
<g id="a_node5"><a xlink:href="main_8c.html" target="_top" xlink:title=" ">
<polygon fill="none" stroke="black" points="669.31,-0.5 669.31,-19.5 731.31,-19.5 731.31,-0.5 669.31,-0.5"/>
<text text-anchor="middle" x="700.31" y="-7.5" font-family="Helvetica,sans-Serif" font-size="10.00">src/main.c</text>
</a>
</g>
</g>
<!-- Node4&#45;&gt;Node5 -->
<g id="edge4" class="edge">
<title>Node4&#45;&gt;Node5</title>
<path fill="none" stroke="midnightblue" d="M700.31,-51.82C700.31,-41 700.31,-27.9 700.31,-19.51"/>
<polygon fill="midnightblue" stroke="midnightblue" points="696.81,-51.98 700.31,-61.98 703.81,-51.98 696.81,-51.98"/>
</g>
<!-- Node8&#45;&gt;Node4 -->
<g id="edge13" class="edge">
<title>Node8&#45;&gt;Node4</title>
<path fill="none" stroke="midnightblue" d="M803.31,-260.05C780.33,-252.55 754.93,-240.4 738.31,-221 701.95,-178.56 699.68,-105.82 700.03,-81.05"/>
<polygon fill="midnightblue" stroke="midnightblue" points="802.39,-263.43 812.97,-262.99 804.42,-256.73 802.39,-263.43"/>
</g>
<!-- Node8&#45;&gt;Node9 -->
<g id="edge10" class="edge">
<title>Node8&#45;&gt;Node9</title>
<path fill="none" stroke="midnightblue" d="M881.21,-257.79C904.59,-244.9 938.87,-226.02 958.65,-215.13"/>
<polygon fill="midnightblue" stroke="midnightblue" points="879.3,-254.84 872.23,-262.73 882.68,-260.97 879.3,-254.84"/>
</g>
<!-- Node11 -->
<g id="node11" class="node">
<title>Node11</title>
<g id="a_node11"><a xlink:href="_i_b_m___e_i_s_2authenticate_8c.html" target="_top" xlink:title=" ">
<polygon fill="none" stroke="black" points="747.31,-196 747.31,-215 883.31,-215 883.31,-196 747.31,-196"/>
<text text-anchor="middle" x="815.31" y="-203" font-family="Helvetica,sans-Serif" font-size="10.00">src/IBM_EIS/authenticate.c</text>
</a>
</g>
</g>
<!-- Node8&#45;&gt;Node11 -->
<g id="edge14" class="edge">
<title>Node8&#45;&gt;Node11</title>
<path fill="none" stroke="midnightblue" d="M845.3,-254.03C837.36,-241.45 826.99,-225.01 820.76,-215.13"/>
<polygon fill="midnightblue" stroke="midnightblue" points="842.49,-256.14 850.78,-262.73 848.41,-252.41 842.49,-256.14"/>
</g>
<!-- Node9&#45;&gt;Node4 -->
<g id="edge11" class="edge">
<title>Node9&#45;&gt;Node4</title>
<path fill="none" stroke="midnightblue" d="M973.57,-185.64C971.78,-166.97 966.07,-138.94 948.31,-123 918.07,-95.85 802.02,-81.57 739.98,-75.73"/>
<polygon fill="midnightblue" stroke="midnightblue" points="970.09,-186.12 974.25,-195.86 977.08,-185.65 970.09,-186.12"/>
</g>
<!-- Node10 -->
<g id="node10" class="node">
<title>Node10</title>
<g id="a_node10"><a xlink:href="timeseries_8c.html" target="_top" xlink:title=" ">
<polygon fill="none" stroke="black" points="811.31,-129 811.31,-148 939.31,-148 939.31,-129 811.31,-129"/>
<text text-anchor="middle" x="875.31" y="-136" font-family="Helvetica,sans-Serif" font-size="10.00">src/IBM_EIS/timeseries.c</text>
</a>
</g>
</g>
<!-- Node9&#45;&gt;Node10 -->
<g id="edge12" class="edge">
<title>Node9&#45;&gt;Node10</title>
<path fill="none" stroke="midnightblue" d="M952.37,-190.09C932.79,-177.24 904.76,-158.83 888.45,-148.13"/>
<polygon fill="midnightblue" stroke="midnightblue" points="950.68,-193.17 960.96,-195.73 954.52,-187.32 950.68,-193.17"/>
</g>
<!-- Node12&#45;&gt;Node13 -->
<g id="edge17" class="edge">
<title>Node12&#45;&gt;Node13</title>
<path fill="none" stroke="midnightblue" d="M1358.88,-260.56C1304.47,-247.75 1215.45,-226.78 1165.76,-215.08"/>
<polygon fill="midnightblue" stroke="midnightblue" points="1358.41,-264.05 1368.95,-262.94 1360.02,-257.24 1358.41,-264.05"/>
</g>
<!-- Node15 -->
<g id="node15" class="node">
<title>Node15</title>
<g id="a_node15"><a xlink:href="_ubidots_2authenticate_8c.html" target="_top" xlink:title=" ">
<polygon fill="none" stroke="black" points="1339.81,-196 1339.81,-215 1470.81,-215 1470.81,-196 1339.81,-196"/>
<text text-anchor="middle" x="1405.31" y="-203" font-family="Helvetica,sans-Serif" font-size="10.00">src/Ubidots/authenticate.c</text>
</a>
</g>
</g>
<!-- Node12&#45;&gt;Node15 -->
<g id="edge20" class="edge">
<title>Node12&#45;&gt;Node15</title>
<path fill="none" stroke="midnightblue" d="M1405.31,-252.54C1405.31,-240.17 1405.31,-224.62 1405.31,-215.13"/>
<polygon fill="midnightblue" stroke="midnightblue" points="1401.81,-252.73 1405.31,-262.73 1408.81,-252.73 1401.81,-252.73"/>
</g>
<!-- Node13&#45;&gt;Node4 -->
<g id="edge18" class="edge">
<title>Node13&#45;&gt;Node4</title>
<path fill="none" stroke="midnightblue" d="M1132.12,-185.92C1133.79,-167.26 1132.97,-139.05 1116.31,-123 1089.46,-97.13 838.85,-80.31 740.07,-74.63"/>
<polygon fill="midnightblue" stroke="midnightblue" points="1128.64,-185.52 1130.92,-195.87 1135.59,-186.36 1128.64,-185.52"/>
</g>
<!-- Node14 -->
<g id="node14" class="node">
<title>Node14</title>
<g id="a_node14"><a xlink:href="devices_8c.html" target="_top" xlink:title=" ">
<polygon fill="none" stroke="black" points="995.81,-129 995.81,-148 1106.81,-148 1106.81,-129 995.81,-129"/>
<text text-anchor="middle" x="1051.31" y="-136" font-family="Helvetica,sans-Serif" font-size="10.00">src/Ubidots/devices.c</text>
</a>
</g>
</g>
<!-- Node13&#45;&gt;Node14 -->
<g id="edge19" class="edge">
<title>Node13&#45;&gt;Node14</title>
<path fill="none" stroke="midnightblue" d="M1110.97,-189.21C1095.6,-176.41 1074.22,-158.59 1061.67,-148.13"/>
<polygon fill="midnightblue" stroke="midnightblue" points="1108.87,-192.02 1118.79,-195.73 1113.35,-186.64 1108.87,-192.02"/>
</g>
<!-- Node16&#45;&gt;Node4 -->
<g id="edge32" class="edge">
<title>Node16&#45;&gt;Node4</title>
<path fill="none" stroke="midnightblue" d="M1739.84,-247.48C1736.32,-213.45 1724.45,-152.13 1684.31,-123 1645.48,-94.82 918.82,-77.24 739.88,-73.33"/>
<polygon fill="midnightblue" stroke="midnightblue" points="1736.35,-247.83 1740.71,-257.49 1743.33,-247.23 1736.35,-247.83"/>
</g>
<!-- Node16&#45;&gt;Node17 -->
<g id="edge23" class="edge">
<title>Node16&#45;&gt;Node17</title>
<path fill="none" stroke="midnightblue" d="M1706.38,-252.57C1687.5,-242.35 1664.59,-229.94 1647.3,-220.58"/>
<polygon fill="midnightblue" stroke="midnightblue" points="1704.82,-255.71 1715.28,-257.4 1708.15,-249.56 1704.82,-255.71"/>
</g>
<!-- Node16&#45;&gt;Node20 -->
<g id="edge31" class="edge">
<title>Node16&#45;&gt;Node20</title>
<path fill="none" stroke="midnightblue" d="M1745.86,-247.52C1749.3,-231.08 1754.58,-208.91 1761.31,-190 1765.81,-177.38 1772.43,-163.69 1777.58,-153.75"/>
<polygon fill="midnightblue" stroke="midnightblue" points="1742.41,-246.91 1743.87,-257.4 1749.27,-248.29 1742.41,-246.91"/>
</g>
<!-- Node23 -->
<g id="node23" class="node">
<title>Node23</title>
<g id="a_node23"><a xlink:href="_willy_weather_2authenticate_8c.html" target="_top" xlink:title=" ">
<polygon fill="none" stroke="black" points="1769.81,-196 1769.81,-215 1922.81,-215 1922.81,-196 1769.81,-196"/>
<text text-anchor="middle" x="1846.31" y="-203" font-family="Helvetica,sans-Serif" font-size="10.00">src/WillyWeather/authenticate.c</text>
</a>
</g>
</g>
<!-- Node16&#45;&gt;Node23 -->
<g id="edge33" class="edge">
<title>Node16&#45;&gt;Node23</title>
<path fill="none" stroke="midnightblue" d="M1772.85,-251.97C1792.76,-239.65 1817.49,-224.35 1832.57,-215.01"/>
<polygon fill="midnightblue" stroke="midnightblue" points="1770.76,-249.16 1764.1,-257.4 1774.44,-255.11 1770.76,-249.16"/>
</g>
<!-- Node18 -->
<g id="node18" class="node">
<title>Node18</title>
<g id="a_node18"><a xlink:href="precipitation_8h.html" target="_top" xlink:title=" ">
<polygon fill="none" stroke="black" points="1325.81,-123.5 1325.81,-153.5 1432.81,-153.5 1432.81,-123.5 1325.81,-123.5"/>
<text text-anchor="start" x="1333.81" y="-141.5" font-family="Helvetica,sans-Serif" font-size="10.00">include/WillyWeather</text>
<text text-anchor="middle" x="1379.31" y="-130.5" font-family="Helvetica,sans-Serif" font-size="10.00">/precipitation.h</text>
</a>
</g>
</g>
<!-- Node17&#45;&gt;Node18 -->
<g id="edge24" class="edge">
<title>Node17&#45;&gt;Node18</title>
<path fill="none" stroke="midnightblue" d="M1559.32,-187.85C1519.87,-177.25 1469.33,-163.68 1431.85,-153.61"/>
<polygon fill="midnightblue" stroke="midnightblue" points="1558.54,-191.26 1569.1,-190.48 1560.35,-184.5 1558.54,-191.26"/>
</g>
<!-- Node17&#45;&gt;Node20 -->
<g id="edge27" class="edge">
<title>Node17&#45;&gt;Node20</title>
<path fill="none" stroke="midnightblue" d="M1666.27,-186.68C1692.57,-176.26 1725.31,-163.28 1749.8,-153.58"/>
<polygon fill="midnightblue" stroke="midnightblue" points="1664.91,-183.46 1656.9,-190.4 1667.49,-189.97 1664.91,-183.46"/>
</g>
<!-- Node22 -->
<g id="node22" class="node">
<title>Node22</title>
<g id="a_node22"><a xlink:href="location_8c.html" target="_top" xlink:title=" ">
<polygon fill="none" stroke="black" points="1541.31,-129 1541.31,-148 1675.31,-148 1675.31,-129 1541.31,-129"/>
<text text-anchor="middle" x="1608.31" y="-136" font-family="Helvetica,sans-Serif" font-size="10.00">src/WillyWeather/location.c</text>
</a>
</g>
</g>
<!-- Node17&#45;&gt;Node22 -->
<g id="edge30" class="edge">
<title>Node17&#45;&gt;Node22</title>
<path fill="none" stroke="midnightblue" d="M1616.46,-180.25C1614.22,-169.02 1611.69,-156.38 1610.05,-148.19"/>
<polygon fill="midnightblue" stroke="midnightblue" points="1613.1,-181.28 1618.49,-190.4 1619.96,-179.9 1613.1,-181.28"/>
</g>
<!-- Node18&#45;&gt;Node4 -->
<g id="edge25" class="edge">
<title>Node18&#45;&gt;Node4</title>
<path fill="none" stroke="midnightblue" d="M1315.54,-130.99C1290.53,-128.46 1261.58,-125.56 1235.31,-123 1050.07,-104.93 828.64,-84.36 739.92,-76.15"/>
<polygon fill="midnightblue" stroke="midnightblue" points="1315.34,-134.49 1325.64,-132.02 1316.04,-127.53 1315.34,-134.49"/>
</g>
<!-- Node19 -->
<g id="node19" class="node">
<title>Node19</title>
<g id="a_node19"><a xlink:href="precipitation_8c.html" target="_top" xlink:title=" ">
<polygon fill="none" stroke="black" points="1303.31,-62 1303.31,-81 1455.31,-81 1455.31,-62 1303.31,-62"/>
<text text-anchor="middle" x="1379.31" y="-69" font-family="Helvetica,sans-Serif" font-size="10.00">src/WillyWeather/precipitation.c</text>
</a>
</g>
</g>
<!-- Node18&#45;&gt;Node19 -->
<g id="edge26" class="edge">
<title>Node18&#45;&gt;Node19</title>
<path fill="none" stroke="midnightblue" d="M1379.31,-113.25C1379.31,-102.02 1379.31,-89.38 1379.31,-81.19"/>
<polygon fill="midnightblue" stroke="midnightblue" points="1375.81,-113.4 1379.31,-123.4 1382.81,-113.4 1375.81,-113.4"/>
</g>
<!-- Node20&#45;&gt;Node4 -->
<g id="edge28" class="edge">
<title>Node20&#45;&gt;Node4</title>
<path fill="none" stroke="midnightblue" d="M1721.73,-123.61C1720.25,-123.4 1718.77,-123.19 1717.31,-123 1523.07,-97.63 902.93,-78.34 739.89,-73.62"/>
<polygon fill="midnightblue" stroke="midnightblue" points="1721.2,-127.07 1731.63,-125.22 1722.32,-120.16 1721.2,-127.07"/>
</g>
<!-- Node21 -->
<g id="node21" class="node">
<title>Node21</title>
<g id="a_node21"><a xlink:href="tide_8c.html" target="_top" xlink:title=" ">
<polygon fill="none" stroke="black" points="1727.31,-62 1727.31,-81 1843.31,-81 1843.31,-62 1727.31,-62"/>
<text text-anchor="middle" x="1785.31" y="-69" font-family="Helvetica,sans-Serif" font-size="10.00">src/WillyWeather/tide.c</text>
</a>
</g>
</g>
<!-- Node20&#45;&gt;Node21 -->
<g id="edge29" class="edge">
<title>Node20&#45;&gt;Node21</title>
<path fill="none" stroke="midnightblue" d="M1785.31,-113.25C1785.31,-102.02 1785.31,-89.38 1785.31,-81.19"/>
<polygon fill="midnightblue" stroke="midnightblue" points="1781.81,-113.4 1785.31,-123.4 1788.81,-113.4 1781.81,-113.4"/>
</g>
<!-- Node24&#45;&gt;Node2 -->
<g id="edge44" class="edge">
<title>Node24&#45;&gt;Node2</title>
<path fill="none" stroke="midnightblue" d="M984.19,-387.16C887.38,-382.93 672.51,-370.77 604.31,-344 572.03,-331.33 541.17,-304.4 524.08,-287.73"/>
<polygon fill="midnightblue" stroke="midnightblue" points="984.15,-390.66 994.29,-387.59 984.45,-383.67 984.15,-390.66"/>
</g>
<!-- Node24&#45;&gt;Node3 -->
<g id="edge45" class="edge">
<title>Node24&#45;&gt;Node3</title>
<path fill="none" stroke="midnightblue" d="M984.11,-389.87C897.98,-390.22 712.7,-385.51 563.31,-344 507.77,-328.57 485.58,-330.21 446.31,-288 428.4,-268.75 420.09,-238.3 416.58,-220.57"/>
<polygon fill="midnightblue" stroke="midnightblue" points="984.13,-393.37 994.11,-389.8 984.09,-386.37 984.13,-393.37"/>
</g>
<!-- Node24&#45;&gt;Node8 -->
<g id="edge46" class="edge">
<title>Node24&#45;&gt;Node8</title>
<path fill="none" stroke="midnightblue" d="M1010.55,-374.72C973.66,-350.51 899.91,-302.11 869.7,-282.28"/>
<polygon fill="midnightblue" stroke="midnightblue" points="1008.8,-377.76 1019.09,-380.32 1012.64,-371.91 1008.8,-377.76"/>
</g>
<!-- Node24&#45;&gt;Node9 -->
<g id="edge47" class="edge">
<title>Node24&#45;&gt;Node9</title>
<path fill="none" stroke="midnightblue" d="M1026.35,-370.22C1013.98,-331.32 985.98,-243.21 977.08,-215.21"/>
<polygon fill="midnightblue" stroke="midnightblue" points="1023.15,-371.73 1029.52,-380.2 1029.82,-369.61 1023.15,-371.73"/>
</g>
<!-- Node24&#45;&gt;Node13 -->
<g id="edge48" class="edge">
<title>Node24&#45;&gt;Node13</title>
<path fill="none" stroke="midnightblue" d="M1040.96,-371.05C1053.38,-345.47 1077.22,-297.18 1099.31,-257 1107.47,-242.17 1117.66,-225.34 1123.82,-215.34"/>
<polygon fill="midnightblue" stroke="midnightblue" points="1037.71,-369.72 1036.51,-380.25 1044.01,-372.77 1037.71,-369.72"/>
</g>
<!-- Node24&#45;&gt;Node17 -->
<g id="edge49" class="edge">
<title>Node24&#45;&gt;Node17</title>
<path fill="none" stroke="midnightblue" d="M1080.82,-388.14C1188.14,-385.67 1442.44,-376.45 1521.31,-344 1557.52,-329.1 1566.31,-319.68 1589.31,-288 1604.59,-266.97 1613.73,-237.67 1618.12,-220.53"/>
<polygon fill="midnightblue" stroke="midnightblue" points="1080.52,-384.65 1070.6,-388.37 1080.67,-391.65 1080.52,-384.65"/>
</g>
<!-- Node24&#45;&gt;Node18 -->
<g id="edge50" class="edge">
<title>Node24&#45;&gt;Node18</title>
<path fill="none" stroke="midnightblue" d="M1080.8,-386.03C1188.13,-378.3 1440.16,-353.41 1488.31,-288 1499.83,-272.35 1493.09,-208.17 1480.31,-190 1468.3,-172.92 1448.8,-161.31 1430.13,-153.58"/>
<polygon fill="midnightblue" stroke="midnightblue" points="1080.3,-382.55 1070.57,-386.74 1080.79,-389.54 1080.3,-382.55"/>
</g>
<!-- Node24&#45;&gt;Node20 -->
<g id="edge51" class="edge">
<title>Node24&#45;&gt;Node20</title>
<path fill="none" stroke="midnightblue" d="M1080.46,-388.79C1254.12,-386.8 1842.68,-369.08 1932.31,-221 1956.94,-180.31 1890.61,-158.39 1839.17,-147.84"/>
<polygon fill="midnightblue" stroke="midnightblue" points="1080.31,-385.29 1070.35,-388.89 1080.38,-392.29 1080.31,-385.29"/>
</g>
<!-- Node25 -->
<g id="node25" class="node">
<title>Node25</title>
<g id="a_node25"><a xlink:href="stations_8h.html" target="_top" xlink:title=" ">
<polygon fill="none" stroke="black" points="115.31,-196 115.31,-215 233.31,-215 233.31,-196 115.31,-196"/>
<text text-anchor="middle" x="174.31" y="-203" font-family="Helvetica,sans-Serif" font-size="10.00">include/BOM/stations.h</text>
</a>
</g>
</g>
<!-- Node24&#45;&gt;Node25 -->
<g id="edge38" class="edge">
<title>Node24&#45;&gt;Node25</title>
<path fill="none" stroke="midnightblue" d="M983.84,-387.96C850.07,-384.74 477.88,-373.33 359.31,-344 299.82,-329.28 280.92,-326.59 233.31,-288 207.26,-266.88 187.1,-231.6 178.65,-215.27"/>
<polygon fill="midnightblue" stroke="midnightblue" points="984.09,-391.47 994.17,-388.2 984.25,-384.47 984.09,-391.47"/>
</g>
<!-- Node29 -->
<g id="node29" class="node">
<title>Node29</title>
<g id="a_node29"><a xlink:href="ftp_8h.html" target="_top" xlink:title=" ">
<polygon fill="none" stroke="black" points="242.81,-263 242.81,-282 311.81,-282 311.81,-263 242.81,-263"/>
<text text-anchor="middle" x="277.31" y="-270" font-family="Helvetica,sans-Serif" font-size="10.00">include/ftp.h</text>
</a>
</g>
</g>
<!-- Node24&#45;&gt;Node29 -->
<g id="edge52" class="edge">
<title>Node24&#45;&gt;Node29</title>
<path fill="none" stroke="midnightblue" d="M984.19,-388C858.1,-385 520.47,-374.28 413.31,-344 364.43,-330.19 312.79,-297.74 289.71,-282.16"/>
<polygon fill="midnightblue" stroke="midnightblue" points="984.23,-391.51 994.31,-388.24 984.4,-384.51 984.23,-391.51"/>
</g>
<!-- Node31 -->
<g id="node31" class="node">
<title>Node31</title>
<g id="a_node31"><a xlink:href="http_8h.html" target="_top" xlink:title=" ">
<polygon fill="none" stroke="black" points="1147.31,-324.5 1147.31,-343.5 1221.31,-343.5 1221.31,-324.5 1147.31,-324.5"/>
<text text-anchor="middle" x="1184.31" y="-331.5" font-family="Helvetica,sans-Serif" font-size="10.00">include/http.h</text>
</a>
</g>
</g>
<!-- Node24&#45;&gt;Node31 -->
<g id="edge57" class="edge">
<title>Node24&#45;&gt;Node31</title>
<path fill="none" stroke="midnightblue" d="M1065.98,-377.04C1094.58,-366.88 1134.93,-352.55 1160.34,-343.52"/>
<polygon fill="midnightblue" stroke="midnightblue" points="1064.65,-373.8 1056.4,-380.44 1066.99,-380.39 1064.65,-373.8"/>
</g>
<!-- Node33 -->
<g id="node33" class="node">
<title>Node33</title>
<g id="a_node33"><a xlink:href="severity__index_8h.html" target="_top" xlink:title=" ">
<polygon fill="none" stroke="black" points="612.81,-324.5 612.81,-343.5 731.81,-343.5 731.81,-324.5 612.81,-324.5"/>
<text text-anchor="middle" x="672.31" y="-331.5" font-family="Helvetica,sans-Serif" font-size="10.00">include/severity_index.h</text>
</a>
</g>
</g>
<!-- Node24&#45;&gt;Node33 -->
<g id="edge70" class="edge">
<title>Node24&#45;&gt;Node33</title>
<path fill="none" stroke="midnightblue" d="M983.99,-381.75C917.9,-371.84 799.54,-354.08 729.24,-343.54"/>
<polygon fill="midnightblue" stroke="midnightblue" points="983.72,-385.25 994.13,-383.27 984.76,-378.33 983.72,-385.25"/>
</g>
<!-- Node35 -->
<g id="node35" class="node">
<title>Node35</title>
<g id="a_node35"><a xlink:href="utils_8c.html" target="_top" xlink:title=" ">
<polygon fill="none" stroke="black" points="1239.81,-324.5 1239.81,-343.5 1298.81,-343.5 1298.81,-324.5 1239.81,-324.5"/>
<text text-anchor="middle" x="1269.31" y="-331.5" font-family="Helvetica,sans-Serif" font-size="10.00">src/utils.c</text>
</a>
</g>
</g>
<!-- Node24&#45;&gt;Node35 -->
<g id="edge73" class="edge">
<title>Node24&#45;&gt;Node35</title>
<path fill="none" stroke="midnightblue" d="M1079.69,-378.28C1119.81,-369.19 1178.84,-355.79 1230.31,-344 1233.29,-343.32 1236.4,-342.6 1239.51,-341.89"/>
<polygon fill="midnightblue" stroke="midnightblue" points="1078.89,-374.87 1069.91,-380.49 1080.44,-381.7 1078.89,-374.87"/>
</g>
<!-- Node25&#45;&gt;Node4 -->
<g id="edge42" class="edge">
<title>Node25&#45;&gt;Node4</title>
<path fill="none" stroke="midnightblue" d="M202.22,-191.58C222.38,-181.93 250.03,-168.04 273.31,-154 293.8,-141.64 295.03,-131.7 317.31,-123 436.01,-76.63 589.49,-71.27 660.74,-71.59"/>
<polygon fill="midnightblue" stroke="midnightblue" points="200.52,-188.51 192.98,-195.95 203.52,-194.84 200.52,-188.51"/>
</g>
<!-- Node26 -->
<g id="node26" class="node">
<title>Node26</title>
<g id="a_node26"><a xlink:href="historical__weather_8h.html" target="_top" xlink:title=" ">
<polygon fill="none" stroke="black" points="30.81,-123.5 30.81,-153.5 145.81,-153.5 145.81,-123.5 30.81,-123.5"/>
<text text-anchor="start" x="38.81" y="-141.5" font-family="Helvetica,sans-Serif" font-size="10.00">include/BOM/historical</text>
<text text-anchor="middle" x="88.31" y="-130.5" font-family="Helvetica,sans-Serif" font-size="10.00">_weather.h</text>
</a>
</g>
</g>
<!-- Node25&#45;&gt;Node26 -->
<g id="edge39" class="edge">
<title>Node25&#45;&gt;Node26</title>
<path fill="none" stroke="midnightblue" d="M154.53,-189.54C140.21,-178.73 121,-164.2 106.95,-153.59"/>
<polygon fill="midnightblue" stroke="midnightblue" points="152.63,-192.5 162.72,-195.73 156.85,-186.91 152.63,-192.5"/>
</g>
<!-- Node28 -->
<g id="node28" class="node">
<title>Node28</title>
<g id="a_node28"><a xlink:href="stations_8c.html" target="_top" xlink:title=" ">
<polygon fill="none" stroke="black" points="163.81,-129 163.81,-148 264.81,-148 264.81,-129 163.81,-129"/>
<text text-anchor="middle" x="214.31" y="-136" font-family="Helvetica,sans-Serif" font-size="10.00">src/BOM/stations.c</text>
</a>
</g>
</g>
<!-- Node25&#45;&gt;Node28 -->
<g id="edge43" class="edge">
<title>Node25&#45;&gt;Node28</title>
<path fill="none" stroke="midnightblue" d="M185.06,-187.03C192.81,-174.45 202.92,-158.01 209,-148.13"/>
<polygon fill="midnightblue" stroke="midnightblue" points="181.97,-185.38 179.71,-195.73 187.93,-189.05 181.97,-185.38"/>
</g>
<!-- Node26&#45;&gt;Node4 -->
<g id="edge40" class="edge">
<title>Node26&#45;&gt;Node4</title>
<path fill="none" stroke="midnightblue" d="M155.95,-122.86C350.43,-93.22 571.98,-79.26 660.71,-74.47"/>
<polygon fill="midnightblue" stroke="midnightblue" points="155.18,-119.44 145.83,-124.42 156.24,-126.36 155.18,-119.44"/>
</g>
<!-- Node27 -->
<g id="node27" class="node">
<title>Node27</title>
<g id="a_node27"><a xlink:href="historical__weather_8c.html" target="_top" xlink:title=" ">
<polygon fill="none" stroke="black" points="39.31,-56.5 39.31,-86.5 137.31,-86.5 137.31,-56.5 39.31,-56.5"/>
<text text-anchor="start" x="47.31" y="-74.5" font-family="Helvetica,sans-Serif" font-size="10.00">src/BOM/historical</text>
<text text-anchor="middle" x="88.31" y="-63.5" font-family="Helvetica,sans-Serif" font-size="10.00">_weather.c</text>
</a>
</g>
</g>
<!-- Node26&#45;&gt;Node27 -->
<g id="edge41" class="edge">
<title>Node26&#45;&gt;Node27</title>
<path fill="none" stroke="midnightblue" d="M88.31,-113.11C88.31,-104.15 88.31,-94.32 88.31,-86.58"/>
<polygon fill="midnightblue" stroke="midnightblue" points="84.81,-113.4 88.31,-123.4 91.81,-113.4 84.81,-113.4"/>
</g>
<!-- Node29&#45;&gt;Node4 -->
<g id="edge55" class="edge">
<title>Node29&#45;&gt;Node4</title>
<path fill="none" stroke="midnightblue" d="M290.38,-254.8C297.46,-245.25 306.02,-232.85 312.31,-221 334.22,-179.74 313.76,-152.09 350.31,-123 397.63,-85.35 579.39,-75.74 660.65,-73.31"/>
<polygon fill="midnightblue" stroke="midnightblue" points="287.44,-252.89 284.17,-262.96 293.01,-257.12 287.44,-252.89"/>
</g>
<!-- Node29&#45;&gt;Node25 -->
<g id="edge54" class="edge">
<title>Node29&#45;&gt;Node25</title>
<path fill="none" stroke="midnightblue" d="M254.76,-257.27C234.37,-244.4 205.02,-225.88 187.98,-215.13"/>
<polygon fill="midnightblue" stroke="midnightblue" points="253.1,-260.36 263.42,-262.73 256.83,-254.44 253.1,-260.36"/>
</g>
<!-- Node29&#45;&gt;Node26 -->
<g id="edge53" class="edge">
<title>Node29&#45;&gt;Node26</title>
<path fill="none" stroke="midnightblue" d="M232.81,-270.43C193.93,-267.02 138.77,-255.81 106.31,-221 89.12,-202.56 86.98,-171.54 87.38,-153.55"/>
<polygon fill="midnightblue" stroke="midnightblue" points="232.58,-273.92 242.81,-271.16 233.1,-266.94 232.58,-273.92"/>
</g>
<!-- Node30 -->
<g id="node30" class="node">
<title>Node30</title>
<g id="a_node30"><a xlink:href="ftp_8c.html" target="_top" xlink:title=" ">
<polygon fill="none" stroke="black" points="251.31,-196 251.31,-215 303.31,-215 303.31,-196 251.31,-196"/>
<text text-anchor="middle" x="277.31" y="-203" font-family="Helvetica,sans-Serif" font-size="10.00">src/ftp.c</text>
</a>
</g>
</g>
<!-- Node29&#45;&gt;Node30 -->
<g id="edge56" class="edge">
<title>Node29&#45;&gt;Node30</title>
<path fill="none" stroke="midnightblue" d="M277.31,-252.54C277.31,-240.17 277.31,-224.62 277.31,-215.13"/>
<polygon fill="midnightblue" stroke="midnightblue" points="273.81,-252.73 277.31,-262.73 280.81,-252.73 273.81,-252.73"/>
</g>
<!-- Node31&#45;&gt;Node2 -->
<g id="edge58" class="edge">
<title>Node31&#45;&gt;Node2</title>
<path fill="none" stroke="midnightblue" d="M1136.92,-330.28C1038.82,-324.43 806.48,-309.42 612.31,-288 597.11,-286.32 580.69,-284.15 565.55,-282"/>
<polygon fill="midnightblue" stroke="midnightblue" points="1136.91,-333.79 1147.1,-330.88 1137.32,-326.8 1136.91,-333.79"/>
</g>
<!-- Node31&#45;&gt;Node3 -->
<g id="edge59" class="edge">
<title>Node31&#45;&gt;Node3</title>
<path fill="none" stroke="midnightblue" d="M1137.18,-331.15C1043.34,-326.94 836.58,-314.83 771.31,-288 750.83,-279.58 752.65,-265.75 732.31,-257 627.57,-211.95 590.45,-241.61 478.31,-221 475.4,-220.46 472.42,-219.89 469.41,-219.28"/>
<polygon fill="midnightblue" stroke="midnightblue" points="1137.1,-334.65 1147.24,-331.59 1137.41,-327.66 1137.1,-334.65"/>
</g>
<!-- Node31&#45;&gt;Node4 -->
<g id="edge68" class="edge">
<title>Node31&#45;&gt;Node4</title>
<path fill="none" stroke="midnightblue" d="M1192.13,-314.95C1202.99,-287.07 1219.48,-232.36 1202.31,-190 1186.73,-151.55 1174.53,-141.34 1137.31,-123 1067.86,-88.78 834.31,-77.09 740.16,-73.7"/>
<polygon fill="midnightblue" stroke="midnightblue" points="1188.87,-313.65 1188.32,-324.23 1195.35,-316.31 1188.87,-313.65"/>
</g>
<!-- Node31&#45;&gt;Node8 -->
<g id="edge60" class="edge">
<title>Node31&#45;&gt;Node8</title>
<path fill="none" stroke="midnightblue" d="M1137.04,-324.43C1074.69,-313.11 965.59,-293.32 903.35,-282.03"/>
<polygon fill="midnightblue" stroke="midnightblue" points="1136.54,-327.89 1147.01,-326.23 1137.79,-321 1136.54,-327.89"/>
</g>
<!-- Node31&#45;&gt;Node9 -->
<g id="edge61" class="edge">
<title>Node31&#45;&gt;Node9</title>
<path fill="none" stroke="midnightblue" d="M1161.11,-319.02C1117.43,-292.71 1024.21,-236.56 988.57,-215.09"/>
<polygon fill="midnightblue" stroke="midnightblue" points="1159.51,-322.14 1169.88,-324.31 1163.12,-316.15 1159.51,-322.14"/>
</g>
<!-- Node31&#45;&gt;Node12 -->
<g id="edge62" class="edge">
<title>Node31&#45;&gt;Node12</title>
<path fill="none" stroke="midnightblue" d="M1225.83,-321.82C1268.76,-310.26 1334.84,-292.47 1373.71,-282.01"/>
<polygon fill="midnightblue" stroke="midnightblue" points="1224.72,-318.5 1215.98,-324.48 1226.54,-325.25 1224.72,-318.5"/>
</g>
<!-- Node31&#45;&gt;Node13 -->
<g id="edge63" class="edge">
<title>Node31&#45;&gt;Node13</title>
<path fill="none" stroke="midnightblue" d="M1176.51,-315.04C1164.52,-287.48 1142.06,-235.81 1133.12,-215.26"/>
<polygon fill="midnightblue" stroke="midnightblue" points="1173.34,-316.53 1180.53,-324.31 1179.76,-313.74 1173.34,-316.53"/>
</g>
<!-- Node31&#45;&gt;Node16 -->
<g id="edge64" class="edge">
<title>Node31&#45;&gt;Node16</title>
<path fill="none" stroke="midnightblue" d="M1231.37,-324.13C1394.75,-300.74 1437.84,-303.87 1597.31,-288 1627.19,-285.03 1660.55,-281.67 1687.64,-278.93"/>
<polygon fill="midnightblue" stroke="midnightblue" points="1230.86,-320.67 1221.46,-325.56 1231.86,-327.6 1230.86,-320.67"/>
</g>
<!-- Node31&#45;&gt;Node17 -->
<g id="edge65" class="edge">
<title>Node31&#45;&gt;Node17</title>
<path fill="none" stroke="midnightblue" d="M1231.6,-324.24C1318.6,-313.88 1497.99,-322.7 1559.31,-288 1586.7,-272.5 1605.86,-239.48 1615.07,-220.57"/>
<polygon fill="midnightblue" stroke="midnightblue" points="1230.91,-320.8 1221.47,-325.6 1231.84,-327.74 1230.91,-320.8"/>
</g>
<!-- Node31&#45;&gt;Node18 -->
<g id="edge66" class="edge">
<title>Node31&#45;&gt;Node18</title>
<path fill="none" stroke="midnightblue" d="M1227.4,-321.09C1246.69,-314.02 1268.58,-303.36 1284.31,-288 1318.88,-254.26 1303.89,-229.77 1331.31,-190 1340.51,-176.66 1353.23,-163.44 1363.27,-153.88"/>
<polygon fill="midnightblue" stroke="midnightblue" points="1226.2,-317.8 1217.89,-324.37 1228.48,-324.42 1226.2,-317.8"/>
</g>
<!-- Node31&#45;&gt;Node20 -->
<g id="edge67" class="edge">
<title>Node31&#45;&gt;Node20</title>
<path fill="none" stroke="midnightblue" d="M1231.45,-324.16C1347.57,-307.39 1392.18,-345.82 1488.31,-288 1534.4,-260.28 1514.38,-219.56 1559.31,-190 1587.23,-171.63 1674.2,-155.82 1731.75,-147"/>
<polygon fill="midnightblue" stroke="midnightblue" points="1230.83,-320.71 1221.48,-325.7 1231.9,-327.63 1230.83,-320.71"/>
</g>
<!-- Node32 -->
<g id="node32" class="node">
<title>Node32</title>
<g id="a_node32"><a xlink:href="http_8c.html" target="_top" xlink:title=" ">
<polygon fill="none" stroke="black" points="1217.81,-263 1217.81,-282 1274.81,-282 1274.81,-263 1217.81,-263"/>
<text text-anchor="middle" x="1246.31" y="-270" font-family="Helvetica,sans-Serif" font-size="10.00">src/http.c</text>
</a>
</g>
</g>
<!-- Node31&#45;&gt;Node32 -->
<g id="edge69" class="edge">
<title>Node31&#45;&gt;Node32</title>
<path fill="none" stroke="midnightblue" d="M1200.65,-317.32C1212.43,-306.02 1227.88,-291.19 1237.45,-282.01"/>
<polygon fill="midnightblue" stroke="midnightblue" points="1197.99,-315.03 1193.2,-324.48 1202.84,-320.08 1197.99,-315.03"/>
</g>
<!-- Node33&#45;&gt;Node4 -->
<g id="edge71" class="edge">
<title>Node33&#45;&gt;Node4</title>
<path fill="none" stroke="midnightblue" d="M644.03,-319.38C631.92,-311.93 619.04,-301.46 612.31,-288 606.15,-275.68 607.04,-269.73 612.31,-257 620.97,-236.09 636.27,-240.16 648.31,-221 678.55,-172.89 693.98,-104.93 698.7,-81.13"/>
<polygon fill="midnightblue" stroke="midnightblue" points="642.59,-322.59 653.02,-324.48 646.05,-316.5 642.59,-322.59"/>
</g>
<!-- Node34 -->
<g id="node34" class="node">
<title>Node34</title>
<g id="a_node34"><a xlink:href="severity__index_8c.html" target="_top" xlink:title=" ">
<polygon fill="none" stroke="black" points="621.31,-263 621.31,-282 723.31,-282 723.31,-263 621.31,-263"/>
<text text-anchor="middle" x="672.31" y="-270" font-family="Helvetica,sans-Serif" font-size="10.00">src/severity_index.c</text>
</a>
</g>
</g>
<!-- Node33&#45;&gt;Node34 -->
<g id="edge72" class="edge">
<title>Node33&#45;&gt;Node34</title>
<path fill="none" stroke="midnightblue" d="M672.31,-314.32C672.31,-303.5 672.31,-290.4 672.31,-282.01"/>
<polygon fill="midnightblue" stroke="midnightblue" points="668.81,-314.48 672.31,-324.48 675.81,-314.48 668.81,-314.48"/>
</g>
</g>
</svg>
