<?xml version="1.0" encoding="UTF-8" standalone="no"?>
<!DOCTYPE svg PUBLIC "-//W3C//DTD SVG 1.1//EN"
 "http://www.w3.org/Graphics/SVG/1.1/DTD/svg11.dtd">
<!-- Generated by graphviz version 2.49.3 (20211027.1534)
 -->
<!-- Title: include/log.h Pages: 1 -->
<svg width="2064pt" height="531pt"
 viewBox="0.00 0.00 2063.50 531.00" xmlns="http://www.w3.org/2000/svg" xmlns:xlink="http://www.w3.org/1999/xlink">
<g id="graph0" class="graph" transform="scale(1 1) rotate(0) translate(4 527)">
<title>include/log.h</title>
<!-- Node1 -->
<g id="node1" class="node">
<title>Node1</title>
<g id="a_node1"><a xlink:title=" ">
<polygon fill="#bfbfbf" stroke="black" points="698.5,-503.5 698.5,-522.5 769.5,-522.5 769.5,-503.5 698.5,-503.5"/>
<text text-anchor="middle" x="734" y="-510.5" font-family="Helvetica,sans-Serif" font-size="10.00">include/log.h</text>
</a>
</g>
</g>
<!-- Node2 -->
<g id="node2" class="node">
<title>Node2</title>
<g id="a_node2"><a xlink:href="harvest__area_8h.html" target="_top" xlink:title=" ">
<polygon fill="none" stroke="black" points="1125,-324.5 1125,-354.5 1235,-354.5 1235,-324.5 1125,-324.5"/>
<text text-anchor="start" x="1133" y="-342.5" font-family="Helvetica,sans-Serif" font-size="10.00">include/FoodAuthority</text>
<text text-anchor="middle" x="1180" y="-331.5" font-family="Helvetica,sans-Serif" font-size="10.00">/harvest_area.h</text>
</a>
</g>
</g>
<!-- Node1&#45;&gt;Node2 -->
<g id="edge1" class="edge">
<title>Node1&#45;&gt;Node2</title>
<path fill="none" stroke="midnightblue" d="M779.87,-508.64C856.97,-502.5 1008.93,-488.12 1058,-467 1112.65,-443.48 1154.83,-382.39 1171.83,-354.62"/>
<polygon fill="midnightblue" stroke="midnightblue" points="779.2,-505.18 769.51,-509.45 779.75,-512.16 779.2,-505.18"/>
</g>
<!-- Node3 -->
<g id="node3" class="node">
<title>Node3</title>
<g id="a_node3"><a xlink:href="harvest__areas_8h.html" target="_top" xlink:title=" ">
<polygon fill="none" stroke="black" points="807,-123.5 807,-153.5 917,-153.5 917,-123.5 807,-123.5"/>
<text text-anchor="start" x="815" y="-141.5" font-family="Helvetica,sans-Serif" font-size="10.00">include/FoodAuthority</text>
<text text-anchor="middle" x="862" y="-130.5" font-family="Helvetica,sans-Serif" font-size="10.00">/harvest_areas.h</text>
</a>
</g>
</g>
<!-- Node1&#45;&gt;Node3 -->
<g id="edge18" class="edge">
<title>Node1&#45;&gt;Node3</title>
<path fill="none" stroke="midnightblue" d="M688.05,-509.98C527.33,-502.33 0,-471.9 0,-402 0,-402 0,-402 0,-271.5 0,-126.82 296.11,-194.95 748,-154 767.17,-152.26 788.09,-149.77 806.71,-147.35"/>
<polygon fill="midnightblue" stroke="midnightblue" points="687.95,-513.48 698.1,-510.46 688.28,-506.49 687.95,-513.48"/>
</g>
<!-- Node4 -->
<g id="node4" class="node">
<title>Node4</title>
<g id="a_node4"><a xlink:href="main_8h.html" target="_top" xlink:title=" ">
<polygon fill="none" stroke="black" points="1061.5,-62 1061.5,-81 1140.5,-81 1140.5,-62 1061.5,-62"/>
<text text-anchor="middle" x="1101" y="-69" font-family="Helvetica,sans-Serif" font-size="10.00">include/main.h</text>
</a>
</g>
</g>
<!-- Node1&#45;&gt;Node4 -->
<g id="edge46" class="edge">
<title>Node1&#45;&gt;Node4</title>
<path fill="none" stroke="midnightblue" d="M694.26,-500.37C670.47,-492.58 640.07,-481.18 615,-467 511.92,-408.71 407.37,-367.09 451,-257 483.21,-175.73 514.32,-156.66 595,-123 605.77,-118.51 944.12,-86.97 1061.42,-76.14"/>
<polygon fill="midnightblue" stroke="midnightblue" points="693.43,-503.78 704.02,-503.48 695.56,-497.11 693.43,-503.78"/>
</g>
<!-- Node7 -->
<g id="node7" class="node">
<title>Node7</title>
<g id="a_node7"><a xlink:href="transform_8h.html" target="_top" xlink:title=" ">
<polygon fill="none" stroke="black" points="1220.5,-196 1220.5,-215 1319.5,-215 1319.5,-196 1220.5,-196"/>
<text text-anchor="middle" x="1270" y="-203" font-family="Helvetica,sans-Serif" font-size="10.00">include/transform.h</text>
</a>
</g>
</g>
<!-- Node1&#45;&gt;Node7 -->
<g id="edge47" class="edge">
<title>Node1&#45;&gt;Node7</title>
<path fill="none" stroke="midnightblue" d="M779.81,-508.99C862.42,-503.09 1032.85,-488.68 1088,-467 1167.43,-435.77 1190.44,-421.46 1244,-355 1264.36,-329.74 1266.42,-319.77 1273,-288 1275.79,-274.51 1273.41,-270.77 1273,-257 1272.56,-242.25 1271.41,-225.11 1270.66,-215.07"/>
<polygon fill="midnightblue" stroke="midnightblue" points="779.44,-505.5 769.71,-509.7 779.93,-512.49 779.44,-505.5"/>
</g>
<!-- Node10 -->
<g id="node10" class="node">
<title>Node10</title>
<g id="a_node10"><a xlink:href="timeseries_8h.html" target="_top" xlink:title=" ">
<polygon fill="none" stroke="black" points="1821.5,-129 1821.5,-148 1966.5,-148 1966.5,-129 1821.5,-129"/>
<text text-anchor="middle" x="1894" y="-136" font-family="Helvetica,sans-Serif" font-size="10.00">include/IBM_EIS/timeseries.h</text>
</a>
</g>
</g>
<!-- Node1&#45;&gt;Node10 -->
<g id="edge23" class="edge">
<title>Node1&#45;&gt;Node10</title>
<path fill="none" stroke="midnightblue" d="M779.88,-510.38C1004.12,-502.18 1974,-463.16 1974,-402 1974,-402 1974,-402 1974,-271.5 1974,-218.17 1925.66,-167.99 1904.13,-148.29"/>
<polygon fill="midnightblue" stroke="midnightblue" points="779.64,-506.89 769.77,-510.75 779.89,-513.88 779.64,-506.89"/>
</g>
<!-- Node14 -->
<g id="node14" class="node">
<title>Node14</title>
<g id="a_node14"><a xlink:href="_i_b_m___e_i_s_2authenticate_8h.html" target="_top" xlink:title=" ">
<polygon fill="none" stroke="black" points="1367.5,-330 1367.5,-349 1520.5,-349 1520.5,-330 1367.5,-330"/>
<text text-anchor="middle" x="1444" y="-337" font-family="Helvetica,sans-Serif" font-size="10.00">include/IBM_EIS/authenticate.h</text>
</a>
</g>
</g>
<!-- Node1&#45;&gt;Node14 -->
<g id="edge19" class="edge">
<title>Node1&#45;&gt;Node14</title>
<path fill="none" stroke="midnightblue" d="M780.07,-512.45C900.13,-512.99 1219.89,-510.21 1315,-467 1374.4,-440.01 1422.44,-373.37 1438.36,-349.33"/>
<polygon fill="midnightblue" stroke="midnightblue" points="779.78,-508.95 769.76,-512.39 779.74,-515.95 779.78,-508.95"/>
</g>
<!-- Node16 -->
<g id="node16" class="node">
<title>Node16</title>
<g id="a_node16"><a xlink:href="_ubidots_2authenticate_8h.html" target="_top" xlink:title=" ">
<polygon fill="none" stroke="black" points="94,-330 94,-349 242,-349 242,-330 94,-330"/>
<text text-anchor="middle" x="168" y="-337" font-family="Helvetica,sans-Serif" font-size="10.00">include/Ubidots/authenticate.h</text>
</a>
</g>
</g>
<!-- Node1&#45;&gt;Node16 -->
<g id="edge24" class="edge">
<title>Node1&#45;&gt;Node16</title>
<path fill="none" stroke="midnightblue" d="M688.2,-512.14C585.01,-511.75 337.79,-506.57 266,-467 215.39,-439.11 182.33,-373.03 171.71,-349.23"/>
<polygon fill="midnightblue" stroke="midnightblue" points="688.3,-515.64 698.31,-512.17 688.31,-508.64 688.3,-515.64"/>
</g>
<!-- Node17 -->
<g id="node17" class="node">
<title>Node17</title>
<g id="a_node17"><a xlink:href="devices_8h.html" target="_top" xlink:title=" ">
<polygon fill="none" stroke="black" points="216,-263 216,-282 344,-282 344,-263 216,-263"/>
<text text-anchor="middle" x="280" y="-270" font-family="Helvetica,sans-Serif" font-size="10.00">include/Ubidots/devices.h</text>
</a>
</g>
</g>
<!-- Node1&#45;&gt;Node17 -->
<g id="edge29" class="edge">
<title>Node1&#45;&gt;Node17</title>
<path fill="none" stroke="midnightblue" d="M688.45,-511.37C604.36,-509.39 428.86,-501.16 380,-467 312.75,-419.98 287.66,-313.64 281.57,-282.33"/>
<polygon fill="midnightblue" stroke="midnightblue" points="688.4,-514.87 698.48,-511.59 688.55,-507.87 688.4,-514.87"/>
</g>
<!-- Node20 -->
<g id="node20" class="node">
<title>Node20</title>
<g id="a_node20"><a xlink:href="_willy_weather_2authenticate_8h.html" target="_top" xlink:title=" ">
<polygon fill="none" stroke="black" points="560.5,-324.5 560.5,-354.5 667.5,-354.5 667.5,-324.5 560.5,-324.5"/>
<text text-anchor="start" x="568.5" y="-342.5" font-family="Helvetica,sans-Serif" font-size="10.00">include/WillyWeather</text>
<text text-anchor="middle" x="614" y="-331.5" font-family="Helvetica,sans-Serif" font-size="10.00">/authenticate.h</text>
</a>
</g>
</g>
<!-- Node1&#45;&gt;Node20 -->
<g id="edge30" class="edge">
<title>Node1&#45;&gt;Node20</title>
<path fill="none" stroke="midnightblue" d="M722.01,-494.87C698.32,-461 645.89,-386.07 623.95,-354.72"/>
<polygon fill="midnightblue" stroke="midnightblue" points="719.28,-497.07 727.88,-503.26 725.02,-493.06 719.28,-497.07"/>
</g>
<!-- Node21 -->
<g id="node21" class="node">
<title>Node21</title>
<g id="a_node21"><a xlink:href="location_8h.html" target="_top" xlink:title=" ">
<polygon fill="none" stroke="black" points="800.5,-257.5 800.5,-287.5 907.5,-287.5 907.5,-257.5 800.5,-257.5"/>
<text text-anchor="start" x="808.5" y="-275.5" font-family="Helvetica,sans-Serif" font-size="10.00">include/WillyWeather</text>
<text text-anchor="middle" x="854" y="-264.5" font-family="Helvetica,sans-Serif" font-size="10.00">/location.h</text>
</a>
</g>
</g>
<!-- Node1&#45;&gt;Node21 -->
<g id="edge44" class="edge">
<title>Node1&#45;&gt;Node21</title>
<path fill="none" stroke="midnightblue" d="M735.95,-493.41C740.44,-457.77 754.1,-378.55 791,-324 801.05,-309.14 816.8,-296.51 830.04,-287.6"/>
<polygon fill="midnightblue" stroke="midnightblue" points="732.47,-493.03 734.8,-503.36 739.42,-493.83 732.47,-493.03"/>
</g>
<!-- Node24 -->
<g id="node24" class="node">
<title>Node24</title>
<g id="a_node24"><a xlink:href="tide_8h.html" target="_top" xlink:title=" ">
<polygon fill="none" stroke="black" points="623.5,-190.5 623.5,-220.5 730.5,-220.5 730.5,-190.5 623.5,-190.5"/>
<text text-anchor="start" x="631.5" y="-208.5" font-family="Helvetica,sans-Serif" font-size="10.00">include/WillyWeather</text>
<text text-anchor="middle" x="677" y="-197.5" font-family="Helvetica,sans-Serif" font-size="10.00">/tide.h</text>
</a>
</g>
</g>
<!-- Node1&#45;&gt;Node24 -->
<g id="edge45" class="edge">
<title>Node1&#45;&gt;Node24</title>
<path fill="none" stroke="midnightblue" d="M705.69,-498.84C647.84,-470.16 517.28,-395.82 467,-288 437.41,-224.56 551.87,-209.99 623.4,-206.97"/>
<polygon fill="midnightblue" stroke="midnightblue" points="704.45,-502.13 714.97,-503.36 707.51,-495.83 704.45,-502.13"/>
</g>
<!-- Node28 -->
<g id="node28" class="node">
<title>Node28</title>
<g id="a_node28"><a xlink:href="utils_8h.html" target="_top" xlink:title=" ">
<polygon fill="none" stroke="black" points="973,-447.5 973,-466.5 1049,-466.5 1049,-447.5 973,-447.5"/>
<text text-anchor="middle" x="1011" y="-454.5" font-family="Helvetica,sans-Serif" font-size="10.00">include/utils.h</text>
</a>
</g>
</g>
<!-- Node1&#45;&gt;Node28 -->
<g id="edge48" class="edge">
<title>Node1&#45;&gt;Node28</title>
<path fill="none" stroke="midnightblue" d="M779.62,-503.11C833.56,-492.59 922.37,-475.28 972.83,-465.44"/>
<polygon fill="midnightblue" stroke="midnightblue" points="778.79,-499.7 769.65,-505.05 780.13,-506.57 778.79,-499.7"/>
</g>
<!-- Node36 -->
<g id="node36" class="node">
<title>Node36</title>
<g id="a_node36"><a xlink:href="log_8c.html" target="_top" xlink:title=" ">
<polygon fill="none" stroke="black" points="2002.5,-447.5 2002.5,-466.5 2055.5,-466.5 2055.5,-447.5 2002.5,-447.5"/>
<text text-anchor="middle" x="2029" y="-454.5" font-family="Helvetica,sans-Serif" font-size="10.00">src/log.c</text>
</a>
</g>
</g>
<!-- Node1&#45;&gt;Node36 -->
<g id="edge83" class="edge">
<title>Node1&#45;&gt;Node36</title>
<path fill="none" stroke="midnightblue" d="M780.04,-511.46C976.73,-508.98 1747.4,-497.47 1988,-467 1992.63,-466.41 1997.5,-465.56 2002.21,-464.6"/>
<polygon fill="midnightblue" stroke="midnightblue" points="779.73,-507.96 769.77,-511.59 779.82,-514.96 779.73,-507.96"/>
</g>
<!-- Node2&#45;&gt;Node3 -->
<g id="edge2" class="edge">
<title>Node2&#45;&gt;Node3</title>
<path fill="none" stroke="midnightblue" d="M1140.02,-319.34C1127.5,-311.37 1114.9,-300.93 1107,-288 1084.08,-250.51 1123.76,-222.32 1094,-190 1070.55,-164.53 977.96,-150.74 917.08,-144.27"/>
<polygon fill="midnightblue" stroke="midnightblue" points="1138.24,-322.35 1148.62,-324.45 1141.82,-316.33 1138.24,-322.35"/>
</g>
<!-- Node2&#45;&gt;Node4 -->
<g id="edge6" class="edge">
<title>Node2&#45;&gt;Node4</title>
<path fill="none" stroke="midnightblue" d="M1224.24,-319.93C1261.62,-301.31 1311.75,-268.53 1329,-221 1336.09,-201.47 1331.67,-131.9 1324,-123 1300.48,-95.71 1198.22,-81.73 1140.69,-75.91"/>
<polygon fill="midnightblue" stroke="midnightblue" points="1222.53,-316.87 1215.04,-324.36 1225.57,-323.18 1222.53,-316.87"/>
</g>
<!-- Node2&#45;&gt;Node7 -->
<g id="edge7" class="edge">
<title>Node2&#45;&gt;Node7</title>
<path fill="none" stroke="midnightblue" d="M1219.13,-319.19C1231.71,-311.17 1244.56,-300.73 1253,-288 1268.26,-264.99 1270.21,-230.95 1270.22,-215.14"/>
<polygon fill="midnightblue" stroke="midnightblue" points="1217.3,-316.21 1210.52,-324.35 1220.9,-322.21 1217.3,-316.21"/>
</g>
<!-- Node13 -->
<g id="node13" class="node">
<title>Node13</title>
<g id="a_node13"><a xlink:href="harvest__area_8c.html" target="_top" xlink:title=" ">
<polygon fill="none" stroke="black" points="1116,-257.5 1116,-287.5 1244,-287.5 1244,-257.5 1116,-257.5"/>
<text text-anchor="start" x="1124" y="-275.5" font-family="Helvetica,sans-Serif" font-size="10.00">src/FoodAuthority/harvest</text>
<text text-anchor="middle" x="1180" y="-264.5" font-family="Helvetica,sans-Serif" font-size="10.00">_area.c</text>
</a>
</g>
</g>
<!-- Node2&#45;&gt;Node13 -->
<g id="edge17" class="edge">
<title>Node2&#45;&gt;Node13</title>
<path fill="none" stroke="midnightblue" d="M1180,-314.11C1180,-305.15 1180,-295.32 1180,-287.58"/>
<polygon fill="midnightblue" stroke="midnightblue" points="1176.5,-314.4 1180,-324.4 1183.5,-314.4 1176.5,-314.4"/>
</g>
<!-- Node3&#45;&gt;Node4 -->
<g id="edge3" class="edge">
<title>Node3&#45;&gt;Node4</title>
<path fill="none" stroke="midnightblue" d="M923.29,-120.83C970.07,-108.11 1032.59,-91.11 1069.64,-81.03"/>
<polygon fill="midnightblue" stroke="midnightblue" points="922.3,-117.47 913.57,-123.48 924.13,-124.23 922.3,-117.47"/>
</g>
<!-- Node6 -->
<g id="node6" class="node">
<title>Node6</title>
<g id="a_node6"><a xlink:href="harvest__areas_8c.html" target="_top" xlink:title=" ">
<polygon fill="none" stroke="black" points="798,-56.5 798,-86.5 926,-86.5 926,-56.5 798,-56.5"/>
<text text-anchor="start" x="806" y="-74.5" font-family="Helvetica,sans-Serif" font-size="10.00">src/FoodAuthority/harvest</text>
<text text-anchor="middle" x="862" y="-63.5" font-family="Helvetica,sans-Serif" font-size="10.00">_areas.c</text>
</a>
</g>
</g>
<!-- Node3&#45;&gt;Node6 -->
<g id="edge5" class="edge">
<title>Node3&#45;&gt;Node6</title>
<path fill="none" stroke="midnightblue" d="M862,-113.11C862,-104.15 862,-94.32 862,-86.58"/>
<polygon fill="midnightblue" stroke="midnightblue" points="858.5,-113.4 862,-123.4 865.5,-113.4 858.5,-113.4"/>
</g>
<!-- Node5 -->
<g id="node5" class="node">
<title>Node5</title>
<g id="a_node5"><a xlink:href="main_8c.html" target="_top" xlink:title=" ">
<polygon fill="none" stroke="black" points="1070,-0.5 1070,-19.5 1132,-19.5 1132,-0.5 1070,-0.5"/>
<text text-anchor="middle" x="1101" y="-7.5" font-family="Helvetica,sans-Serif" font-size="10.00">src/main.c</text>
</a>
</g>
</g>
<!-- Node4&#45;&gt;Node5 -->
<g id="edge4" class="edge">
<title>Node4&#45;&gt;Node5</title>
<path fill="none" stroke="midnightblue" d="M1101,-51.82C1101,-41 1101,-27.9 1101,-19.51"/>
<polygon fill="midnightblue" stroke="midnightblue" points="1097.5,-51.98 1101,-61.98 1104.5,-51.98 1097.5,-51.98"/>
</g>
<!-- Node7&#45;&gt;Node3 -->
<g id="edge11" class="edge">
<title>Node7&#45;&gt;Node3</title>
<path fill="none" stroke="midnightblue" d="M1210.6,-194.26C1202.01,-192.81 1193.28,-191.35 1185,-190 1091.04,-174.64 981.53,-157.73 917.19,-147.89"/>
<polygon fill="midnightblue" stroke="midnightblue" points="1210.13,-197.73 1220.58,-195.95 1211.3,-190.83 1210.13,-197.73"/>
</g>
<!-- Node7&#45;&gt;Node4 -->
<g id="edge15" class="edge">
<title>Node7&#45;&gt;Node4</title>
<path fill="none" stroke="midnightblue" d="M1255.55,-188.38C1239.54,-171.05 1212.49,-143.27 1186,-123 1163.92,-106.1 1135.74,-90.37 1118.03,-81.09"/>
<polygon fill="midnightblue" stroke="midnightblue" points="1253.14,-190.94 1262.46,-195.97 1258.31,-186.22 1253.14,-190.94"/>
</g>
<!-- Node8 -->
<g id="node8" class="node">
<title>Node8</title>
<g id="a_node8"><a xlink:href="historical__weather_8h.html" target="_top" xlink:title=" ">
<polygon fill="none" stroke="black" points="1646.5,-123.5 1646.5,-153.5 1761.5,-153.5 1761.5,-123.5 1646.5,-123.5"/>
<text text-anchor="start" x="1654.5" y="-141.5" font-family="Helvetica,sans-Serif" font-size="10.00">include/BOM/historical</text>
<text text-anchor="middle" x="1704" y="-130.5" font-family="Helvetica,sans-Serif" font-size="10.00">_weather.h</text>
</a>
</g>
</g>
<!-- Node7&#45;&gt;Node8 -->
<g id="edge8" class="edge">
<title>Node7&#45;&gt;Node8</title>
<path fill="none" stroke="midnightblue" d="M1329.88,-195.53C1413.39,-183.02 1563.83,-160.49 1646.21,-148.16"/>
<polygon fill="midnightblue" stroke="midnightblue" points="1329.16,-192.1 1319.79,-197.04 1330.19,-199.02 1329.16,-192.1"/>
</g>
<!-- Node7&#45;&gt;Node10 -->
<g id="edge12" class="edge">
<title>Node7&#45;&gt;Node10</title>
<path fill="none" stroke="midnightblue" d="M1329.98,-198.78C1424.01,-189.75 1611.85,-171.4 1771,-154 1787.99,-152.14 1806.29,-150.04 1823.45,-148.02"/>
<polygon fill="midnightblue" stroke="midnightblue" points="1329.43,-195.32 1319.81,-199.76 1330.09,-202.29 1329.43,-195.32"/>
</g>
<!-- Node12 -->
<g id="node12" class="node">
<title>Node12</title>
<g id="a_node12"><a xlink:href="transform_8c.html" target="_top" xlink:title=" ">
<polygon fill="none" stroke="black" points="1233,-129 1233,-148 1315,-148 1315,-129 1233,-129"/>
<text text-anchor="middle" x="1274" y="-136" font-family="Helvetica,sans-Serif" font-size="10.00">src/transform.c</text>
</a>
</g>
</g>
<!-- Node7&#45;&gt;Node12 -->
<g id="edge16" class="edge">
<title>Node7&#45;&gt;Node12</title>
<path fill="none" stroke="midnightblue" d="M1271.17,-185.54C1271.93,-173.17 1272.88,-157.62 1273.47,-148.13"/>
<polygon fill="midnightblue" stroke="midnightblue" points="1267.66,-185.54 1270.54,-195.73 1274.65,-185.97 1267.66,-185.54"/>
</g>
<!-- Node8&#45;&gt;Node4 -->
<g id="edge9" class="edge">
<title>Node8&#45;&gt;Node4</title>
<path fill="none" stroke="midnightblue" d="M1636.42,-123.68C1634.93,-123.44 1633.46,-123.22 1632,-123 1449.47,-96.02 1229.4,-80.44 1140.8,-74.87"/>
<polygon fill="midnightblue" stroke="midnightblue" points="1635.88,-127.14 1646.32,-125.34 1637.04,-120.23 1635.88,-127.14"/>
</g>
<!-- Node9 -->
<g id="node9" class="node">
<title>Node9</title>
<g id="a_node9"><a xlink:href="historical__weather_8c.html" target="_top" xlink:title=" ">
<polygon fill="none" stroke="black" points="1655,-56.5 1655,-86.5 1753,-86.5 1753,-56.5 1655,-56.5"/>
<text text-anchor="start" x="1663" y="-74.5" font-family="Helvetica,sans-Serif" font-size="10.00">src/BOM/historical</text>
<text text-anchor="middle" x="1704" y="-63.5" font-family="Helvetica,sans-Serif" font-size="10.00">_weather.c</text>
</a>
</g>
</g>
<!-- Node8&#45;&gt;Node9 -->
<g id="edge10" class="edge">
<title>Node8&#45;&gt;Node9</title>
<path fill="none" stroke="midnightblue" d="M1704,-113.11C1704,-104.15 1704,-94.32 1704,-86.58"/>
<polygon fill="midnightblue" stroke="midnightblue" points="1700.5,-113.4 1704,-123.4 1707.5,-113.4 1700.5,-113.4"/>
</g>
<!-- Node10&#45;&gt;Node4 -->
<g id="edge13" class="edge">
<title>Node10&#45;&gt;Node4</title>
<path fill="none" stroke="midnightblue" d="M1835.97,-127.38C1825.36,-125.75 1814.36,-124.2 1804,-123 1552.4,-93.75 1248.05,-78.79 1140.75,-74.13"/>
<polygon fill="midnightblue" stroke="midnightblue" points="1835.58,-130.86 1846,-128.96 1836.67,-123.95 1835.58,-130.86"/>
</g>
<!-- Node11 -->
<g id="node11" class="node">
<title>Node11</title>
<g id="a_node11"><a xlink:href="timeseries_8c.html" target="_top" xlink:title=" ">
<polygon fill="none" stroke="black" points="1830,-62 1830,-81 1958,-81 1958,-62 1830,-62"/>
<text text-anchor="middle" x="1894" y="-69" font-family="Helvetica,sans-Serif" font-size="10.00">src/IBM_EIS/timeseries.c</text>
</a>
</g>
</g>
<!-- Node10&#45;&gt;Node11 -->
<g id="edge14" class="edge">
<title>Node10&#45;&gt;Node11</title>
<path fill="none" stroke="midnightblue" d="M1894,-118.54C1894,-106.17 1894,-90.62 1894,-81.13"/>
<polygon fill="midnightblue" stroke="midnightblue" points="1890.5,-118.73 1894,-128.73 1897.5,-118.73 1890.5,-118.73"/>
</g>
<!-- Node14&#45;&gt;Node4 -->
<g id="edge21" class="edge">
<title>Node14&#45;&gt;Node4</title>
<path fill="none" stroke="midnightblue" d="M1530.52,-328.89C1582.28,-321.17 1641.03,-308.2 1657,-288 1682.8,-255.36 1625.65,-195.35 1619,-190 1544.17,-129.84 1248.3,-89.8 1140.53,-76.96"/>
<polygon fill="midnightblue" stroke="midnightblue" points="1530.01,-325.43 1520.61,-330.32 1531.01,-332.36 1530.01,-325.43"/>
</g>
<!-- Node14&#45;&gt;Node10 -->
<g id="edge20" class="edge">
<title>Node14&#45;&gt;Node10</title>
<path fill="none" stroke="midnightblue" d="M1530.7,-329.87C1579.11,-322.83 1639.64,-310.24 1690,-288 1774.55,-250.66 1858.31,-173.99 1885.14,-148.19"/>
<polygon fill="midnightblue" stroke="midnightblue" points="1529.98,-326.44 1520.56,-331.29 1530.95,-333.37 1529.98,-326.44"/>
</g>
<!-- Node15 -->
<g id="node15" class="node">
<title>Node15</title>
<g id="a_node15"><a xlink:href="_i_b_m___e_i_s_2authenticate_8c.html" target="_top" xlink:title=" ">
<polygon fill="none" stroke="black" points="1376,-263 1376,-282 1512,-282 1512,-263 1376,-263"/>
<text text-anchor="middle" x="1444" y="-270" font-family="Helvetica,sans-Serif" font-size="10.00">src/IBM_EIS/authenticate.c</text>
</a>
</g>
</g>
<!-- Node14&#45;&gt;Node15 -->
<g id="edge22" class="edge">
<title>Node14&#45;&gt;Node15</title>
<path fill="none" stroke="midnightblue" d="M1444,-319.54C1444,-307.17 1444,-291.62 1444,-282.13"/>
<polygon fill="midnightblue" stroke="midnightblue" points="1440.5,-319.73 1444,-329.73 1447.5,-319.73 1440.5,-319.73"/>
</g>
<!-- Node16&#45;&gt;Node17 -->
<g id="edge25" class="edge">
<title>Node16&#45;&gt;Node17</title>
<path fill="none" stroke="midnightblue" d="M191.92,-324.62C214.11,-311.74 246.44,-292.98 265.13,-282.13"/>
<polygon fill="midnightblue" stroke="midnightblue" points="190,-321.69 183.1,-329.73 193.51,-327.74 190,-321.69"/>
</g>
<!-- Node19 -->
<g id="node19" class="node">
<title>Node19</title>
<g id="a_node19"><a xlink:href="_ubidots_2authenticate_8c.html" target="_top" xlink:title=" ">
<polygon fill="none" stroke="black" points="66.5,-263 66.5,-282 197.5,-282 197.5,-263 66.5,-263"/>
<text text-anchor="middle" x="132" y="-270" font-family="Helvetica,sans-Serif" font-size="10.00">src/Ubidots/authenticate.c</text>
</a>
</g>
</g>
<!-- Node16&#45;&gt;Node19 -->
<g id="edge28" class="edge">
<title>Node16&#45;&gt;Node19</title>
<path fill="none" stroke="midnightblue" d="M158.12,-320.66C151.18,-308.13 142.2,-291.91 136.78,-282.13"/>
<polygon fill="midnightblue" stroke="midnightblue" points="155.24,-322.68 163.14,-329.73 161.36,-319.29 155.24,-322.68"/>
</g>
<!-- Node17&#45;&gt;Node4 -->
<g id="edge26" class="edge">
<title>Node17&#45;&gt;Node4</title>
<path fill="none" stroke="midnightblue" d="M292.43,-254.62C299.22,-245.02 307.54,-232.62 314,-221 337.19,-179.27 318.75,-150.18 358,-123 410.81,-86.44 870.94,-91.8 935,-87 978.27,-83.76 1027.83,-79.34 1061.44,-76.23"/>
<polygon fill="midnightblue" stroke="midnightblue" points="289.5,-252.69 286.49,-262.85 295.18,-256.78 289.5,-252.69"/>
</g>
<!-- Node18 -->
<g id="node18" class="node">
<title>Node18</title>
<g id="a_node18"><a xlink:href="devices_8c.html" target="_top" xlink:title=" ">
<polygon fill="none" stroke="black" points="194.5,-196 194.5,-215 305.5,-215 305.5,-196 194.5,-196"/>
<text text-anchor="middle" x="250" y="-203" font-family="Helvetica,sans-Serif" font-size="10.00">src/Ubidots/devices.c</text>
</a>
</g>
</g>
<!-- Node17&#45;&gt;Node18 -->
<g id="edge27" class="edge">
<title>Node17&#45;&gt;Node18</title>
<path fill="none" stroke="midnightblue" d="M271.6,-253.29C265.83,-240.81 258.45,-224.81 253.98,-215.13"/>
<polygon fill="midnightblue" stroke="midnightblue" points="268.59,-255.12 275.95,-262.73 274.94,-252.19 268.59,-255.12"/>
</g>
<!-- Node20&#45;&gt;Node4 -->
<g id="edge42" class="edge">
<title>Node20&#45;&gt;Node4</title>
<path fill="none" stroke="midnightblue" d="M627.78,-315.08C631.92,-306.81 635.91,-297.26 638,-288 641.03,-274.56 641.99,-270.19 638,-257 632.43,-238.6 619.57,-239.4 614,-221 601.38,-179.31 584.83,-155.35 614,-123 621.5,-114.68 946.7,-85.84 1061.44,-75.9"/>
<polygon fill="midnightblue" stroke="midnightblue" points="624.58,-313.63 622.96,-324.1 630.76,-316.93 624.58,-313.63"/>
</g>
<!-- Node20&#45;&gt;Node21 -->
<g id="edge31" class="edge">
<title>Node20&#45;&gt;Node21</title>
<path fill="none" stroke="midnightblue" d="M675.48,-321.85C714.61,-311.25 764.73,-297.68 801.9,-287.61"/>
<polygon fill="midnightblue" stroke="midnightblue" points="674.52,-318.48 665.78,-324.48 676.35,-325.24 674.52,-318.48"/>
</g>
<!-- Node20&#45;&gt;Node24 -->
<g id="edge41" class="edge">
<title>Node20&#45;&gt;Node24</title>
<path fill="none" stroke="midnightblue" d="M645.97,-318.3C656.07,-310.18 666.13,-299.91 672,-288 682.65,-266.38 681.36,-237.54 679.29,-220.59"/>
<polygon fill="midnightblue" stroke="midnightblue" points="643.82,-315.53 637.93,-324.33 648.03,-321.13 643.82,-315.53"/>
</g>
<!-- Node27 -->
<g id="node27" class="node">
<title>Node27</title>
<g id="a_node27"><a xlink:href="_willy_weather_2authenticate_8c.html" target="_top" xlink:title=" ">
<polygon fill="none" stroke="black" points="476.5,-263 476.5,-282 629.5,-282 629.5,-263 476.5,-263"/>
<text text-anchor="middle" x="553" y="-270" font-family="Helvetica,sans-Serif" font-size="10.00">src/WillyWeather/authenticate.c</text>
</a>
</g>
</g>
<!-- Node20&#45;&gt;Node27 -->
<g id="edge43" class="edge">
<title>Node20&#45;&gt;Node27</title>
<path fill="none" stroke="midnightblue" d="M593.82,-317C582.69,-305.13 569.47,-291.05 561.16,-282.19"/>
<polygon fill="midnightblue" stroke="midnightblue" points="591.37,-319.5 600.76,-324.4 596.47,-314.71 591.37,-319.5"/>
</g>
<!-- Node21&#45;&gt;Node3 -->
<g id="edge32" class="edge">
<title>Node21&#45;&gt;Node3</title>
<path fill="none" stroke="midnightblue" d="M810.09,-252.46C797.43,-244.65 785.12,-234.27 778,-221 771.49,-208.86 771.22,-201.99 778,-190 787.47,-173.26 804.94,-161.46 821.51,-153.5"/>
<polygon fill="midnightblue" stroke="midnightblue" points="808.44,-255.54 818.86,-257.45 811.9,-249.46 808.44,-255.54"/>
</g>
<!-- Node21&#45;&gt;Node7 -->
<g id="edge39" class="edge">
<title>Node21&#45;&gt;Node7</title>
<path fill="none" stroke="midnightblue" d="M917.61,-261.56C1000.74,-248.57 1144.6,-226.09 1220.24,-214.28"/>
<polygon fill="midnightblue" stroke="midnightblue" points="916.87,-258.13 907.53,-263.14 917.95,-265.05 916.87,-258.13"/>
</g>
<!-- Node22 -->
<g id="node22" class="node">
<title>Node22</title>
<g id="a_node22"><a xlink:href="precipitation_8h.html" target="_top" xlink:title=" ">
<polygon fill="none" stroke="black" points="977.5,-190.5 977.5,-220.5 1084.5,-220.5 1084.5,-190.5 977.5,-190.5"/>
<text text-anchor="start" x="985.5" y="-208.5" font-family="Helvetica,sans-Serif" font-size="10.00">include/WillyWeather</text>
<text text-anchor="middle" x="1031" y="-197.5" font-family="Helvetica,sans-Serif" font-size="10.00">/precipitation.h</text>
</a>
</g>
</g>
<!-- Node21&#45;&gt;Node22 -->
<g id="edge33" class="edge">
<title>Node21&#45;&gt;Node22</title>
<path fill="none" stroke="midnightblue" d="M902.15,-253.82C930.6,-243.37 966.13,-230.32 992.67,-220.58"/>
<polygon fill="midnightblue" stroke="midnightblue" points="900.59,-250.66 892.41,-257.4 903,-257.23 900.59,-250.66"/>
</g>
<!-- Node21&#45;&gt;Node24 -->
<g id="edge36" class="edge">
<title>Node21&#45;&gt;Node24</title>
<path fill="none" stroke="midnightblue" d="M805.85,-253.82C777.4,-243.37 741.87,-230.32 715.33,-220.58"/>
<polygon fill="midnightblue" stroke="midnightblue" points="805,-257.23 815.59,-257.4 807.41,-250.66 805,-257.23"/>
</g>
<!-- Node26 -->
<g id="node26" class="node">
<title>Node26</title>
<g id="a_node26"><a xlink:href="location_8c.html" target="_top" xlink:title=" ">
<polygon fill="none" stroke="black" points="787,-196 787,-215 921,-215 921,-196 787,-196"/>
<text text-anchor="middle" x="854" y="-203" font-family="Helvetica,sans-Serif" font-size="10.00">src/WillyWeather/location.c</text>
</a>
</g>
</g>
<!-- Node21&#45;&gt;Node26 -->
<g id="edge40" class="edge">
<title>Node21&#45;&gt;Node26</title>
<path fill="none" stroke="midnightblue" d="M854,-247.25C854,-236.02 854,-223.38 854,-215.19"/>
<polygon fill="midnightblue" stroke="midnightblue" points="850.5,-247.4 854,-257.4 857.5,-247.4 850.5,-247.4"/>
</g>
<!-- Node22&#45;&gt;Node4 -->
<g id="edge34" class="edge">
<title>Node22&#45;&gt;Node4</title>
<path fill="none" stroke="midnightblue" d="M1018.73,-181.01C1011.63,-163.93 1005.89,-140.77 1016,-123 1028.06,-101.82 1052.89,-88.59 1072.62,-81.02"/>
<polygon fill="midnightblue" stroke="midnightblue" points="1015.63,-182.64 1022.96,-190.28 1021.99,-179.73 1015.63,-182.64"/>
</g>
<!-- Node23 -->
<g id="node23" class="node">
<title>Node23</title>
<g id="a_node23"><a xlink:href="precipitation_8c.html" target="_top" xlink:title=" ">
<polygon fill="none" stroke="black" points="1025,-129 1025,-148 1177,-148 1177,-129 1025,-129"/>
<text text-anchor="middle" x="1101" y="-136" font-family="Helvetica,sans-Serif" font-size="10.00">src/WillyWeather/precipitation.c</text>
</a>
</g>
</g>
<!-- Node22&#45;&gt;Node23 -->
<g id="edge35" class="edge">
<title>Node22&#45;&gt;Node23</title>
<path fill="none" stroke="midnightblue" d="M1053.79,-183.34C1066.65,-171.4 1082.01,-157.14 1091.64,-148.19"/>
<polygon fill="midnightblue" stroke="midnightblue" points="1051.14,-181.03 1046.19,-190.4 1055.9,-186.16 1051.14,-181.03"/>
</g>
<!-- Node24&#45;&gt;Node4 -->
<g id="edge37" class="edge">
<title>Node24&#45;&gt;Node4</title>
<path fill="none" stroke="midnightblue" d="M705.24,-184.55C737.76,-161.73 787.98,-126.99 798,-123 887.68,-87.29 1002.01,-76.83 1061.31,-73.77"/>
<polygon fill="midnightblue" stroke="midnightblue" points="703.16,-181.74 696.99,-190.35 707.19,-187.46 703.16,-181.74"/>
</g>
<!-- Node25 -->
<g id="node25" class="node">
<title>Node25</title>
<g id="a_node25"><a xlink:href="tide_8c.html" target="_top" xlink:title=" ">
<polygon fill="none" stroke="black" points="623,-129 623,-148 739,-148 739,-129 623,-129"/>
<text text-anchor="middle" x="681" y="-136" font-family="Helvetica,sans-Serif" font-size="10.00">src/WillyWeather/tide.c</text>
</a>
</g>
</g>
<!-- Node24&#45;&gt;Node25 -->
<g id="edge38" class="edge">
<title>Node24&#45;&gt;Node25</title>
<path fill="none" stroke="midnightblue" d="M678.49,-180.25C679.18,-169.02 679.96,-156.38 680.46,-148.19"/>
<polygon fill="midnightblue" stroke="midnightblue" points="674.99,-180.2 677.87,-190.4 681.98,-180.63 674.99,-180.2"/>
</g>
<!-- Node28&#45;&gt;Node2 -->
<g id="edge55" class="edge">
<title>Node28&#45;&gt;Node2</title>
<path fill="none" stroke="midnightblue" d="M1041.79,-443.33C1059.99,-435.23 1083.1,-423.85 1102,-411 1126.76,-394.17 1151.8,-369.97 1166.61,-354.75"/>
<polygon fill="midnightblue" stroke="midnightblue" points="1040.28,-440.17 1032.51,-447.37 1043.08,-446.59 1040.28,-440.17"/>
</g>
<!-- Node28&#45;&gt;Node3 -->
<g id="edge56" class="edge">
<title>Node28&#45;&gt;Node3</title>
<path fill="none" stroke="midnightblue" d="M962.69,-453.65C782.33,-444.47 155.17,-408.92 85,-355 59.41,-335.34 63.35,-319.64 57,-288 42.91,-217.75 116.01,-209.32 185,-190 426.45,-122.39 498.4,-177.83 748,-154 767.26,-152.16 788.3,-149.63 806.99,-147.2"/>
<polygon fill="midnightblue" stroke="midnightblue" points="962.76,-457.16 972.93,-454.16 963.12,-450.16 962.76,-457.16"/>
</g>
<!-- Node28&#45;&gt;Node7 -->
<g id="edge81" class="edge">
<title>Node28&#45;&gt;Node7</title>
<path fill="none" stroke="midnightblue" d="M1020.99,-438.73C1025.69,-430.43 1031.29,-420.28 1036,-411 1070.1,-343.79 1050.32,-306.68 1107,-257 1138.53,-229.37 1185,-216.86 1220.27,-211.19"/>
<polygon fill="midnightblue" stroke="midnightblue" points="1017.92,-437.06 1015.99,-447.48 1023.99,-440.54 1017.92,-437.06"/>
</g>
<!-- Node28&#45;&gt;Node10 -->
<g id="edge58" class="edge">
<title>Node28&#45;&gt;Node10</title>
<path fill="none" stroke="midnightblue" d="M1059.54,-455.1C1250.02,-450.92 1936,-429.7 1936,-340.5 1936,-340.5 1936,-340.5 1936,-271.5 1936,-222.92 1909.85,-168.82 1898.82,-148.16"/>
<polygon fill="midnightblue" stroke="midnightblue" points="1059.2,-451.6 1049.28,-455.32 1059.35,-458.6 1059.2,-451.6"/>
</g>
<!-- Node28&#45;&gt;Node14 -->
<g id="edge57" class="edge">
<title>Node28&#45;&gt;Node14</title>
<path fill="none" stroke="midnightblue" d="M1059.37,-448.42C1105.83,-440.68 1177.79,-427.48 1239,-411 1307.14,-392.65 1385.44,-363.36 1422.46,-349"/>
<polygon fill="midnightblue" stroke="midnightblue" points="1058.59,-445.01 1049.29,-450.08 1059.72,-451.91 1058.59,-445.01"/>
</g>
<!-- Node28&#45;&gt;Node17 -->
<g id="edge59" class="edge">
<title>Node28&#45;&gt;Node17</title>
<path fill="none" stroke="midnightblue" d="M962.5,-451.96C832.3,-440.55 477.86,-405.58 373,-355 335.29,-336.81 301.07,-299.04 286.9,-282.08"/>
<polygon fill="midnightblue" stroke="midnightblue" points="962.31,-455.46 972.58,-452.84 962.92,-448.48 962.31,-455.46"/>
</g>
<!-- Node28&#45;&gt;Node21 -->
<g id="edge60" class="edge">
<title>Node28&#45;&gt;Node21</title>
<path fill="none" stroke="midnightblue" d="M985.36,-442.46C971.77,-434.48 955.38,-423.51 943,-411 923.1,-390.89 880.36,-318.96 862.31,-287.92"/>
<polygon fill="midnightblue" stroke="midnightblue" points="983.81,-445.6 994.23,-447.48 987.26,-439.51 983.81,-445.6"/>
</g>
<!-- Node28&#45;&gt;Node22 -->
<g id="edge61" class="edge">
<title>Node28&#45;&gt;Node22</title>
<path fill="none" stroke="midnightblue" d="M1015.83,-437.6C1017.76,-429.5 1019.81,-419.83 1021,-411 1030.53,-340.19 1031.26,-254.51 1031.13,-220.96"/>
<polygon fill="midnightblue" stroke="midnightblue" points="1012.4,-436.9 1013.36,-447.45 1019.19,-438.61 1012.4,-436.9"/>
</g>
<!-- Node28&#45;&gt;Node24 -->
<g id="edge62" class="edge">
<title>Node28&#45;&gt;Node24</title>
<path fill="none" stroke="midnightblue" d="M962.6,-454.13C920.18,-450.47 858.38,-440.07 813,-411 738.5,-363.28 695.42,-258.56 681.77,-220.6"/>
<polygon fill="midnightblue" stroke="midnightblue" points="962.44,-457.63 972.68,-454.9 962.98,-450.65 962.44,-457.63"/>
</g>
<!-- Node29 -->
<g id="node29" class="node">
<title>Node29</title>
<g id="a_node29"><a xlink:href="stations_8h.html" target="_top" xlink:title=" ">
<polygon fill="none" stroke="black" points="1530,-263 1530,-282 1648,-282 1648,-263 1530,-263"/>
<text text-anchor="middle" x="1589" y="-270" font-family="Helvetica,sans-Serif" font-size="10.00">include/BOM/stations.h</text>
</a>
</g>
</g>
<!-- Node28&#45;&gt;Node29 -->
<g id="edge49" class="edge">
<title>Node28&#45;&gt;Node29</title>
<path fill="none" stroke="midnightblue" d="M1042.8,-443.79C1125.67,-412 1342.99,-328.77 1359,-324 1368.13,-321.28 1486.03,-295.72 1549.37,-282.04"/>
<polygon fill="midnightblue" stroke="midnightblue" points="1041.46,-440.56 1033.38,-447.41 1043.97,-447.09 1041.46,-440.56"/>
</g>
<!-- Node31 -->
<g id="node31" class="node">
<title>Node31</title>
<g id="a_node31"><a xlink:href="ftp_8h.html" target="_top" xlink:title=" ">
<polygon fill="none" stroke="black" points="1679.5,-330 1679.5,-349 1748.5,-349 1748.5,-330 1679.5,-330"/>
<text text-anchor="middle" x="1714" y="-337" font-family="Helvetica,sans-Serif" font-size="10.00">include/ftp.h</text>
</a>
</g>
</g>
<!-- Node28&#45;&gt;Node31 -->
<g id="edge63" class="edge">
<title>Node28&#45;&gt;Node31</title>
<path fill="none" stroke="midnightblue" d="M1058.96,-448.12C1192.09,-426.25 1564.03,-365.14 1679.42,-346.18"/>
<polygon fill="midnightblue" stroke="midnightblue" points="1058.35,-444.67 1049.05,-449.75 1059.48,-451.58 1058.35,-444.67"/>
</g>
<!-- Node33 -->
<g id="node33" class="node">
<title>Node33</title>
<g id="a_node33"><a xlink:href="http_8h.html" target="_top" xlink:title=" ">
<polygon fill="none" stroke="black" points="822,-391.5 822,-410.5 896,-410.5 896,-391.5 822,-391.5"/>
<text text-anchor="middle" x="859" y="-398.5" font-family="Helvetica,sans-Serif" font-size="10.00">include/http.h</text>
</a>
</g>
</g>
<!-- Node28&#45;&gt;Node33 -->
<g id="edge68" class="edge">
<title>Node28&#45;&gt;Node33</title>
<path fill="none" stroke="midnightblue" d="M977.33,-444.04C948.73,-433.88 908.39,-419.55 882.97,-410.52"/>
<polygon fill="midnightblue" stroke="midnightblue" points="976.32,-447.39 986.92,-447.44 978.66,-440.8 976.32,-447.39"/>
</g>
<!-- Node35 -->
<g id="node35" class="node">
<title>Node35</title>
<g id="a_node35"><a xlink:href="utils_8c.html" target="_top" xlink:title=" ">
<polygon fill="none" stroke="black" points="952.5,-391.5 952.5,-410.5 1011.5,-410.5 1011.5,-391.5 952.5,-391.5"/>
<text text-anchor="middle" x="982" y="-398.5" font-family="Helvetica,sans-Serif" font-size="10.00">src/utils.c</text>
</a>
</g>
</g>
<!-- Node28&#45;&gt;Node35 -->
<g id="edge82" class="edge">
<title>Node28&#45;&gt;Node35</title>
<path fill="none" stroke="midnightblue" d="M1001.32,-437.98C996.4,-428.82 990.64,-418.09 986.7,-410.75"/>
<polygon fill="midnightblue" stroke="midnightblue" points="998.4,-439.93 1006.21,-447.08 1004.56,-436.62 998.4,-439.93"/>
</g>
<!-- Node29&#45;&gt;Node3 -->
<g id="edge51" class="edge">
<title>Node29&#45;&gt;Node3</title>
<path fill="none" stroke="midnightblue" d="M1541.96,-260.87C1534.95,-259.46 1527.8,-258.12 1521,-257 1384.57,-234.56 1346.53,-252.9 1212,-221 1172.87,-211.72 1165.77,-200.69 1127,-190 1055.55,-170.3 971.17,-155.66 917.15,-147.35"/>
<polygon fill="midnightblue" stroke="midnightblue" points="1541.56,-264.36 1552.06,-262.96 1542.98,-257.51 1541.56,-264.36"/>
</g>
<!-- Node29&#45;&gt;Node4 -->
<g id="edge52" class="edge">
<title>Node29&#45;&gt;Node4</title>
<path fill="none" stroke="midnightblue" d="M1563.36,-257.85C1545.36,-248.05 1520.87,-234.28 1500,-221 1436.54,-180.61 1431.16,-152.59 1362,-123 1287.74,-91.23 1193.04,-79.29 1140.55,-74.93"/>
<polygon fill="midnightblue" stroke="midnightblue" points="1562.17,-261.19 1572.63,-262.86 1565.5,-255.03 1562.17,-261.19"/>
</g>
<!-- Node29&#45;&gt;Node7 -->
<g id="edge53" class="edge">
<title>Node29&#45;&gt;Node7</title>
<path fill="none" stroke="midnightblue" d="M1539.24,-260.82C1533.1,-259.52 1526.91,-258.22 1521,-257 1448.1,-241.89 1363.14,-224.94 1313.11,-215.02"/>
<polygon fill="midnightblue" stroke="midnightblue" points="1538.95,-264.34 1549.46,-262.99 1540.41,-257.49 1538.95,-264.34"/>
</g>
<!-- Node29&#45;&gt;Node8 -->
<g id="edge50" class="edge">
<title>Node29&#45;&gt;Node8</title>
<path fill="none" stroke="midnightblue" d="M1603.39,-254.98C1626.15,-228.86 1670.07,-178.44 1691.56,-153.78"/>
<polygon fill="midnightblue" stroke="midnightblue" points="1600.48,-253 1596.55,-262.84 1605.75,-257.6 1600.48,-253"/>
</g>
<!-- Node30 -->
<g id="node30" class="node">
<title>Node30</title>
<g id="a_node30"><a xlink:href="stations_8c.html" target="_top" xlink:title=" ">
<polygon fill="none" stroke="black" points="1508.5,-196 1508.5,-215 1609.5,-215 1609.5,-196 1508.5,-196"/>
<text text-anchor="middle" x="1559" y="-203" font-family="Helvetica,sans-Serif" font-size="10.00">src/BOM/stations.c</text>
</a>
</g>
</g>
<!-- Node29&#45;&gt;Node30 -->
<g id="edge54" class="edge">
<title>Node29&#45;&gt;Node30</title>
<path fill="none" stroke="midnightblue" d="M1580.6,-253.29C1574.83,-240.81 1567.45,-224.81 1562.98,-215.13"/>
<polygon fill="midnightblue" stroke="midnightblue" points="1577.59,-255.12 1584.95,-262.73 1583.94,-252.19 1577.59,-255.12"/>
</g>
<!-- Node31&#45;&gt;Node4 -->
<g id="edge66" class="edge">
<title>Node31&#45;&gt;Node4</title>
<path fill="none" stroke="midnightblue" d="M1727.33,-321.83C1757.5,-282.03 1824.34,-180.51 1771,-123 1728.07,-76.71 1278.56,-72.6 1140.86,-72.43"/>
<polygon fill="midnightblue" stroke="midnightblue" points="1724.55,-319.71 1721.19,-329.75 1730.08,-324 1724.55,-319.71"/>
</g>
<!-- Node31&#45;&gt;Node8 -->
<g id="edge64" class="edge">
<title>Node31&#45;&gt;Node8</title>
<path fill="none" stroke="midnightblue" d="M1713.06,-319.86C1711.07,-280.28 1706.47,-188.64 1704.71,-153.53"/>
<polygon fill="midnightblue" stroke="midnightblue" points="1709.57,-320.14 1713.57,-329.95 1716.56,-319.79 1709.57,-320.14"/>
</g>
<!-- Node31&#45;&gt;Node29 -->
<g id="edge65" class="edge">
<title>Node31&#45;&gt;Node29</title>
<path fill="none" stroke="midnightblue" d="M1688.24,-325.1C1663.48,-312.23 1626.81,-293.16 1605.67,-282.17"/>
<polygon fill="midnightblue" stroke="midnightblue" points="1686.91,-328.36 1697.4,-329.87 1690.14,-322.15 1686.91,-328.36"/>
</g>
<!-- Node32 -->
<g id="node32" class="node">
<title>Node32</title>
<g id="a_node32"><a xlink:href="ftp_8c.html" target="_top" xlink:title=" ">
<polygon fill="none" stroke="black" points="1818,-263 1818,-282 1870,-282 1870,-263 1818,-263"/>
<text text-anchor="middle" x="1844" y="-270" font-family="Helvetica,sans-Serif" font-size="10.00">src/ftp.c</text>
</a>
</g>
</g>
<!-- Node31&#45;&gt;Node32 -->
<g id="edge67" class="edge">
<title>Node31&#45;&gt;Node32</title>
<path fill="none" stroke="midnightblue" d="M1740.45,-325.27C1766.2,-312.4 1804.58,-293.21 1826.67,-282.17"/>
<polygon fill="midnightblue" stroke="midnightblue" points="1738.64,-322.27 1731.26,-329.87 1741.77,-328.53 1738.64,-322.27"/>
</g>
<!-- Node33&#45;&gt;Node2 -->
<g id="edge69" class="edge">
<title>Node33&#45;&gt;Node2</title>
<path fill="none" stroke="midnightblue" d="M906.17,-391.26C964.43,-380.46 1063.34,-362.12 1124.99,-350.7"/>
<polygon fill="midnightblue" stroke="midnightblue" points="905.33,-387.85 896.14,-393.12 906.61,-394.74 905.33,-387.85"/>
</g>
<!-- Node33&#45;&gt;Node3 -->
<g id="edge70" class="edge">
<title>Node33&#45;&gt;Node3</title>
<path fill="none" stroke="midnightblue" d="M811.59,-400.14C690.71,-398.7 386.08,-382.8 467,-257 504.11,-199.31 707.24,-162.12 806.86,-147.09"/>
<polygon fill="midnightblue" stroke="midnightblue" points="811.65,-403.64 821.68,-400.23 811.71,-396.64 811.65,-403.64"/>
</g>
<!-- Node33&#45;&gt;Node4 -->
<g id="edge79" class="edge">
<title>Node33&#45;&gt;Node4</title>
<path fill="none" stroke="midnightblue" d="M868.06,-382.22C898.47,-322.64 995.54,-133.29 1006,-123 1026.1,-103.22 1055.54,-89.2 1076.31,-81.03"/>
<polygon fill="midnightblue" stroke="midnightblue" points="864.77,-380.98 863.34,-391.48 871,-384.16 864.77,-380.98"/>
</g>
<!-- Node33&#45;&gt;Node10 -->
<g id="edge72" class="edge">
<title>Node33&#45;&gt;Node10</title>
<path fill="none" stroke="midnightblue" d="M906.39,-394.4C918.33,-393.13 931.12,-391.9 943,-391 1123.77,-377.34 1583.52,-404.21 1758,-355 1817.16,-338.31 1845.16,-339.32 1879,-288 1908.81,-242.79 1899.94,-172.42 1895.68,-148.11"/>
<polygon fill="midnightblue" stroke="midnightblue" points="905.73,-390.95 896.17,-395.51 906.49,-397.91 905.73,-390.95"/>
</g>
<!-- Node33&#45;&gt;Node14 -->
<g id="edge71" class="edge">
<title>Node33&#45;&gt;Node14</title>
<path fill="none" stroke="midnightblue" d="M906.43,-394.87C918.37,-393.59 931.15,-392.23 943,-391 1093.21,-375.38 1268.83,-357.85 1367.17,-348.09"/>
<polygon fill="midnightblue" stroke="midnightblue" points="905.78,-391.42 896.21,-395.96 906.53,-398.38 905.78,-391.42"/>
</g>
<!-- Node33&#45;&gt;Node16 -->
<g id="edge73" class="edge">
<title>Node33&#45;&gt;Node16</title>
<path fill="none" stroke="midnightblue" d="M811.68,-395.93C693.53,-385.75 384.83,-359.17 242.21,-346.89"/>
<polygon fill="midnightblue" stroke="midnightblue" points="811.59,-399.43 821.85,-396.8 812.19,-392.46 811.59,-399.43"/>
</g>
<!-- Node33&#45;&gt;Node17 -->
<g id="edge74" class="edge">
<title>Node33&#45;&gt;Node17</title>
<path fill="none" stroke="midnightblue" d="M811.61,-399.61C735.32,-397.9 581.14,-389.96 456,-355 392.76,-337.33 323.74,-299.29 294.44,-282.17"/>
<polygon fill="midnightblue" stroke="midnightblue" points="811.78,-403.11 821.85,-399.81 811.92,-396.12 811.78,-403.11"/>
</g>
<!-- Node33&#45;&gt;Node20 -->
<g id="edge75" class="edge">
<title>Node33&#45;&gt;Node20</title>
<path fill="none" stroke="midnightblue" d="M814.1,-389.1C772.77,-379.06 711.41,-364.16 667.54,-353.5"/>
<polygon fill="midnightblue" stroke="midnightblue" points="813.35,-392.52 823.9,-391.48 815.01,-385.71 813.35,-392.52"/>
</g>
<!-- Node33&#45;&gt;Node21 -->
<g id="edge76" class="edge">
<title>Node33&#45;&gt;Node21</title>
<path fill="none" stroke="midnightblue" d="M862.53,-381.55C863.91,-373.44 865.32,-363.78 866,-355 867.06,-341.26 867.6,-337.68 866,-324 864.55,-311.65 861.18,-297.94 858.38,-287.92"/>
<polygon fill="midnightblue" stroke="midnightblue" points="859.08,-380.96 860.74,-391.42 865.97,-382.2 859.08,-380.96"/>
</g>
<!-- Node33&#45;&gt;Node22 -->
<g id="edge77" class="edge">
<title>Node33&#45;&gt;Node22</title>
<path fill="none" stroke="midnightblue" d="M905.96,-392.79C930.2,-386.69 958.31,-375.49 976,-355 1005.17,-321.21 980.62,-298.12 998,-257 1003.54,-243.88 1012.51,-230.45 1019.7,-220.74"/>
<polygon fill="midnightblue" stroke="midnightblue" points="905.16,-389.38 896.2,-395.03 906.73,-396.21 905.16,-389.38"/>
</g>
<!-- Node33&#45;&gt;Node24 -->
<g id="edge78" class="edge">
<title>Node33&#45;&gt;Node24</title>
<path fill="none" stroke="midnightblue" d="M831.44,-386.6C817.84,-378.88 802.04,-368.11 791,-355 760.36,-318.62 778.02,-293.89 748,-257 735.88,-242.1 718.31,-229.55 703.68,-220.69"/>
<polygon fill="midnightblue" stroke="midnightblue" points="829.95,-389.77 840.41,-391.44 833.28,-383.61 829.95,-389.77"/>
</g>
<!-- Node34 -->
<g id="node34" class="node">
<title>Node34</title>
<g id="a_node34"><a xlink:href="http_8c.html" target="_top" xlink:title=" ">
<polygon fill="none" stroke="black" points="800.5,-330 800.5,-349 857.5,-349 857.5,-330 800.5,-330"/>
<text text-anchor="middle" x="829" y="-337" font-family="Helvetica,sans-Serif" font-size="10.00">src/http.c</text>
</a>
</g>
</g>
<!-- Node33&#45;&gt;Node34 -->
<g id="edge80" class="edge">
<title>Node33&#45;&gt;Node34</title>
<path fill="none" stroke="midnightblue" d="M850.09,-382.33C844.54,-371.33 837.65,-357.66 833.29,-349.01"/>
<polygon fill="midnightblue" stroke="midnightblue" points="847.07,-384.12 854.7,-391.48 853.32,-380.97 847.07,-384.12"/>
</g>
</g>
</svg>
