<?xml version="1.0" encoding="UTF-8" standalone="no"?>
<!DOCTYPE svg PUBLIC "-//W3C//DTD SVG 1.1//EN"
 "http://www.w3.org/Graphics/SVG/1.1/DTD/svg11.dtd">
<!-- Generated by graphviz version 2.49.3 (20211027.1534)
 -->
<!-- Title: include/log.h Pages: 1 -->
<svg width="1897pt" height="464pt"
 viewBox="0.00 0.00 1896.85 464.00" xmlns="http://www.w3.org/2000/svg" xmlns:xlink="http://www.w3.org/1999/xlink">
<g id="graph0" class="graph" transform="scale(1 1) rotate(0) translate(4 460)">
<title>include/log.h</title>
<!-- Node1 -->
<g id="node1" class="node">
<title>Node1</title>
<g id="a_node1"><a xlink:title=" ">
<polygon fill="#bfbfbf" stroke="black" points="995.85,-436.5 995.85,-455.5 1066.85,-455.5 1066.85,-436.5 995.85,-436.5"/>
<text text-anchor="middle" x="1031.35" y="-443.5" font-family="Helvetica,sans-Serif" font-size="10.00">include/log.h</text>
</a>
</g>
</g>
<!-- Node2 -->
<g id="node2" class="node">
<title>Node2</title>
<g id="a_node2"><a xlink:href="harvest__area_8h.html" target="_top" xlink:title=" ">
<polygon fill="none" stroke="black" points="711.35,-257.5 711.35,-287.5 821.35,-287.5 821.35,-257.5 711.35,-257.5"/>
<text text-anchor="start" x="719.35" y="-275.5" font-family="Helvetica,sans-Serif" font-size="10.00">include/FoodAuthority</text>
<text text-anchor="middle" x="766.35" y="-264.5" font-family="Helvetica,sans-Serif" font-size="10.00">/harvest_area.h</text>
</a>
</g>
</g>
<!-- Node1&#45;&gt;Node2 -->
<g id="edge1" class="edge">
<title>Node1&#45;&gt;Node2</title>
<path fill="none" stroke="midnightblue" d="M993.22,-433.19C970.63,-425.38 941.91,-414.01 918.35,-400 862.29,-366.66 805.72,-313.13 780.27,-287.74"/>
<polygon fill="midnightblue" stroke="midnightblue" points="992.21,-436.54 1002.81,-436.42 994.45,-429.91 992.21,-436.54"/>
</g>
<!-- Node3 -->
<g id="node3" class="node">
<title>Node3</title>
<g id="a_node3"><a xlink:href="main_8h.html" target="_top" xlink:title=" ">
<polygon fill="none" stroke="black" points="809.85,-62 809.85,-81 888.85,-81 888.85,-62 809.85,-62"/>
<text text-anchor="middle" x="849.35" y="-69" font-family="Helvetica,sans-Serif" font-size="10.00">include/main.h</text>
</a>
</g>
</g>
<!-- Node1&#45;&gt;Node3 -->
<g id="edge32" class="edge">
<title>Node1&#45;&gt;Node3</title>
<path fill="none" stroke="midnightblue" d="M985.49,-444.98C785.81,-444.32 2.35,-435.33 2.35,-335 2.35,-335 2.35,-335 2.35,-204.5 2.35,-167.31 -7.06,-147 21.35,-123 82.04,-71.75 653.1,-71.33 809.77,-72.19"/>
<polygon fill="midnightblue" stroke="midnightblue" points="985.62,-448.48 995.63,-445.01 985.64,-441.48 985.62,-448.48"/>
</g>
<!-- Node6 -->
<g id="node6" class="node">
<title>Node6</title>
<g id="a_node6"><a xlink:href="_i_b_m___e_i_s_2authenticate_8h.html" target="_top" xlink:title=" ">
<polygon fill="none" stroke="black" points="915.85,-263 915.85,-282 1068.85,-282 1068.85,-263 915.85,-263"/>
<text text-anchor="middle" x="992.35" y="-270" font-family="Helvetica,sans-Serif" font-size="10.00">include/IBM_EIS/authenticate.h</text>
</a>
</g>
</g>
<!-- Node1&#45;&gt;Node6 -->
<g id="edge5" class="edge">
<title>Node1&#45;&gt;Node6</title>
<path fill="none" stroke="midnightblue" d="M1027.11,-426.33C1018.72,-389.43 1000.3,-308.44 994.29,-282.02"/>
<polygon fill="midnightblue" stroke="midnightblue" points="1023.74,-427.28 1029.37,-436.26 1030.56,-425.73 1023.74,-427.28"/>
</g>
<!-- Node7 -->
<g id="node7" class="node">
<title>Node7</title>
<g id="a_node7"><a xlink:href="timeseries_8h.html" target="_top" xlink:title=" ">
<polygon fill="none" stroke="black" points="1107.85,-196 1107.85,-215 1252.85,-215 1252.85,-196 1107.85,-196"/>
<text text-anchor="middle" x="1180.35" y="-203" font-family="Helvetica,sans-Serif" font-size="10.00">include/IBM_EIS/timeseries.h</text>
</a>
</g>
</g>
<!-- Node1&#45;&gt;Node7 -->
<g id="edge11" class="edge">
<title>Node1&#45;&gt;Node7</title>
<path fill="none" stroke="midnightblue" d="M1059.92,-432.05C1104.08,-410.02 1186.07,-360.47 1207.35,-288 1211.24,-274.78 1210.7,-270.36 1207.35,-257 1203.39,-241.18 1193.42,-224.91 1186.77,-215.25"/>
<polygon fill="midnightblue" stroke="midnightblue" points="1058.31,-428.94 1050.84,-436.45 1061.37,-435.24 1058.31,-428.94"/>
</g>
<!-- Node10 -->
<g id="node10" class="node">
<title>Node10</title>
<g id="a_node10"><a xlink:href="_ubidots_2authenticate_8h.html" target="_top" xlink:title=" ">
<polygon fill="none" stroke="black" points="469.35,-263 469.35,-282 617.35,-282 617.35,-263 469.35,-263"/>
<text text-anchor="middle" x="543.35" y="-270" font-family="Helvetica,sans-Serif" font-size="10.00">include/Ubidots/authenticate.h</text>
</a>
</g>
</g>
<!-- Node1&#45;&gt;Node10 -->
<g id="edge12" class="edge">
<title>Node1&#45;&gt;Node10</title>
<path fill="none" stroke="midnightblue" d="M985.7,-444.53C893.79,-442.83 690.24,-435.1 631.35,-400 583.55,-371.51 555.34,-305.81 546.43,-282.17"/>
<polygon fill="midnightblue" stroke="midnightblue" points="985.75,-448.03 995.81,-444.7 985.87,-441.03 985.75,-448.03"/>
</g>
<!-- Node11 -->
<g id="node11" class="node">
<title>Node11</title>
<g id="a_node11"><a xlink:href="devices_8h.html" target="_top" xlink:title=" ">
<polygon fill="none" stroke="black" points="547.35,-196 547.35,-215 675.35,-215 675.35,-196 547.35,-196"/>
<text text-anchor="middle" x="611.35" y="-203" font-family="Helvetica,sans-Serif" font-size="10.00">include/Ubidots/devices.h</text>
</a>
</g>
</g>
<!-- Node1&#45;&gt;Node11 -->
<g id="edge17" class="edge">
<title>Node1&#45;&gt;Node11</title>
<path fill="none" stroke="midnightblue" d="M985.42,-436.32C909.12,-419.78 755.18,-377.15 659.35,-288 636.27,-266.52 620.81,-231.42 614.53,-215.21"/>
<polygon fill="midnightblue" stroke="midnightblue" points="985.15,-439.84 995.66,-438.48 986.6,-432.99 985.15,-439.84"/>
</g>
<!-- Node14 -->
<g id="node14" class="node">
<title>Node14</title>
<g id="a_node14"><a xlink:href="_willy_weather_2authenticate_8h.html" target="_top" xlink:title=" ">
<polygon fill="none" stroke="black" points="1543.85,-257.5 1543.85,-287.5 1650.85,-287.5 1650.85,-257.5 1543.85,-257.5"/>
<text text-anchor="start" x="1551.85" y="-275.5" font-family="Helvetica,sans-Serif" font-size="10.00">include/WillyWeather</text>
<text text-anchor="middle" x="1597.35" y="-264.5" font-family="Helvetica,sans-Serif" font-size="10.00">/authenticate.h</text>
</a>
</g>
</g>
<!-- Node1&#45;&gt;Node14 -->
<g id="edge18" class="edge">
<title>Node1&#45;&gt;Node14</title>
<path fill="none" stroke="midnightblue" d="M1077.36,-443.31C1193.53,-438.71 1492.13,-424.59 1529.35,-400 1569.5,-373.47 1587.76,-315.04 1594.32,-287.89"/>
<polygon fill="midnightblue" stroke="midnightblue" points="1076.88,-439.83 1067.03,-443.72 1077.16,-446.82 1076.88,-439.83"/>
</g>
<!-- Node15 -->
<g id="node15" class="node">
<title>Node15</title>
<g id="a_node15"><a xlink:href="location_8h.html" target="_top" xlink:title=" ">
<polygon fill="none" stroke="black" points="1385.85,-190.5 1385.85,-220.5 1492.85,-220.5 1492.85,-190.5 1385.85,-190.5"/>
<text text-anchor="start" x="1393.85" y="-208.5" font-family="Helvetica,sans-Serif" font-size="10.00">include/WillyWeather</text>
<text text-anchor="middle" x="1439.35" y="-197.5" font-family="Helvetica,sans-Serif" font-size="10.00">/location.h</text>
</a>
</g>
</g>
<!-- Node1&#45;&gt;Node15 -->
<g id="edge30" class="edge">
<title>Node1&#45;&gt;Node15</title>
<path fill="none" stroke="midnightblue" d="M1077.04,-438.63C1155.56,-425.24 1316.15,-386.83 1404.35,-288 1421.99,-268.24 1431.73,-238.24 1436.22,-220.68"/>
<polygon fill="midnightblue" stroke="midnightblue" points="1076.27,-435.21 1066.97,-440.28 1077.41,-442.11 1076.27,-435.21"/>
</g>
<!-- Node18 -->
<g id="node18" class="node">
<title>Node18</title>
<g id="a_node18"><a xlink:href="tide_8h.html" target="_top" xlink:title=" ">
<polygon fill="none" stroke="black" points="1613.85,-123.5 1613.85,-153.5 1720.85,-153.5 1720.85,-123.5 1613.85,-123.5"/>
<text text-anchor="start" x="1621.85" y="-141.5" font-family="Helvetica,sans-Serif" font-size="10.00">include/WillyWeather</text>
<text text-anchor="middle" x="1667.35" y="-130.5" font-family="Helvetica,sans-Serif" font-size="10.00">/tide.h</text>
</a>
</g>
</g>
<!-- Node1&#45;&gt;Node18 -->
<g id="edge31" class="edge">
<title>Node1&#45;&gt;Node18</title>
<path fill="none" stroke="midnightblue" d="M1077.37,-443.36C1244.18,-436.8 1807.35,-409.19 1807.35,-335 1807.35,-335 1807.35,-335 1807.35,-271.5 1807.35,-213.37 1742.68,-173.28 1701.24,-153.56"/>
<polygon fill="midnightblue" stroke="midnightblue" points="1076.83,-439.88 1066.97,-443.76 1077.1,-446.87 1076.83,-439.88"/>
</g>
<!-- Node22 -->
<g id="node22" class="node">
<title>Node22</title>
<g id="a_node22"><a xlink:href="utils_8h.html" target="_top" xlink:title=" ">
<polygon fill="none" stroke="black" points="927.35,-380.5 927.35,-399.5 1003.35,-399.5 1003.35,-380.5 927.35,-380.5"/>
<text text-anchor="middle" x="965.35" y="-387.5" font-family="Helvetica,sans-Serif" font-size="10.00">include/utils.h</text>
</a>
</g>
</g>
<!-- Node1&#45;&gt;Node22 -->
<g id="edge33" class="edge">
<title>Node1&#45;&gt;Node22</title>
<path fill="none" stroke="midnightblue" d="M1012.8,-429.82C1000.98,-420.15 986.07,-407.95 976.15,-399.83"/>
<polygon fill="midnightblue" stroke="midnightblue" points="1010.79,-432.7 1020.75,-436.32 1015.23,-427.28 1010.79,-432.7"/>
</g>
<!-- Node34 -->
<g id="node34" class="node">
<title>Node34</title>
<g id="a_node34"><a xlink:href="log_8c.html" target="_top" xlink:title=" ">
<polygon fill="none" stroke="black" points="1835.85,-380.5 1835.85,-399.5 1888.85,-399.5 1888.85,-380.5 1835.85,-380.5"/>
<text text-anchor="middle" x="1862.35" y="-387.5" font-family="Helvetica,sans-Serif" font-size="10.00">src/log.c</text>
</a>
</g>
</g>
<!-- Node1&#45;&gt;Node34 -->
<g id="edge68" class="edge">
<title>Node1&#45;&gt;Node34</title>
<path fill="none" stroke="midnightblue" d="M1077.05,-444.93C1198.7,-444.21 1540.34,-438.6 1821.35,-400 1825.97,-399.37 1830.85,-398.49 1835.56,-397.52"/>
<polygon fill="midnightblue" stroke="midnightblue" points="1076.96,-441.43 1066.98,-444.98 1077,-448.43 1076.96,-441.43"/>
</g>
<!-- Node2&#45;&gt;Node3 -->
<g id="edge2" class="edge">
<title>Node2&#45;&gt;Node3</title>
<path fill="none" stroke="midnightblue" d="M801.05,-251.72C812.18,-243.64 823.41,-233.27 830.35,-221 856.98,-173.95 852.88,-105.32 850.41,-81.24"/>
<polygon fill="midnightblue" stroke="midnightblue" points="798.93,-248.94 792.63,-257.46 802.87,-254.72 798.93,-248.94"/>
</g>
<!-- Node5 -->
<g id="node5" class="node">
<title>Node5</title>
<g id="a_node5"><a xlink:href="harvest__area_8c.html" target="_top" xlink:title=" ">
<polygon fill="none" stroke="black" points="693.35,-190.5 693.35,-220.5 821.35,-220.5 821.35,-190.5 693.35,-190.5"/>
<text text-anchor="start" x="701.35" y="-208.5" font-family="Helvetica,sans-Serif" font-size="10.00">src/FoodAuthority/harvest</text>
<text text-anchor="middle" x="757.35" y="-197.5" font-family="Helvetica,sans-Serif" font-size="10.00">_area.c</text>
</a>
</g>
</g>
<!-- Node2&#45;&gt;Node5 -->
<g id="edge4" class="edge">
<title>Node2&#45;&gt;Node5</title>
<path fill="none" stroke="midnightblue" d="M763.02,-247.4C761.77,-238.37 760.39,-228.41 759.3,-220.58"/>
<polygon fill="midnightblue" stroke="midnightblue" points="759.56,-247.97 764.4,-257.4 766.5,-247.01 759.56,-247.97"/>
</g>
<!-- Node4 -->
<g id="node4" class="node">
<title>Node4</title>
<g id="a_node4"><a xlink:href="main_8c.html" target="_top" xlink:title=" ">
<polygon fill="none" stroke="black" points="818.35,-0.5 818.35,-19.5 880.35,-19.5 880.35,-0.5 818.35,-0.5"/>
<text text-anchor="middle" x="849.35" y="-7.5" font-family="Helvetica,sans-Serif" font-size="10.00">src/main.c</text>
</a>
</g>
</g>
<!-- Node3&#45;&gt;Node4 -->
<g id="edge3" class="edge">
<title>Node3&#45;&gt;Node4</title>
<path fill="none" stroke="midnightblue" d="M849.35,-51.82C849.35,-41 849.35,-27.9 849.35,-19.51"/>
<polygon fill="midnightblue" stroke="midnightblue" points="845.85,-51.98 849.35,-61.98 852.85,-51.98 845.85,-51.98"/>
</g>
<!-- Node6&#45;&gt;Node3 -->
<g id="edge9" class="edge">
<title>Node6&#45;&gt;Node3</title>
<path fill="none" stroke="midnightblue" d="M1021.46,-258.03C1035.99,-249.62 1052.17,-237.27 1060.35,-221 1066.54,-208.69 1067.33,-201.88 1060.35,-190 1022.96,-126.38 937.25,-94.7 887.34,-81.11"/>
<polygon fill="midnightblue" stroke="midnightblue" points="1019.4,-255.17 1012.25,-262.99 1022.72,-261.33 1019.4,-255.17"/>
</g>
<!-- Node6&#45;&gt;Node7 -->
<g id="edge6" class="edge">
<title>Node6&#45;&gt;Node7</title>
<path fill="none" stroke="midnightblue" d="M1027.25,-259.44C1064.54,-246.54 1122.73,-226.42 1155.59,-215.06"/>
<polygon fill="midnightblue" stroke="midnightblue" points="1025.63,-256.29 1017.32,-262.87 1027.91,-262.91 1025.63,-256.29"/>
</g>
<!-- Node9 -->
<g id="node9" class="node">
<title>Node9</title>
<g id="a_node9"><a xlink:href="_i_b_m___e_i_s_2authenticate_8c.html" target="_top" xlink:title=" ">
<polygon fill="none" stroke="black" points="915.35,-196 915.35,-215 1051.35,-215 1051.35,-196 915.35,-196"/>
<text text-anchor="middle" x="983.35" y="-203" font-family="Helvetica,sans-Serif" font-size="10.00">src/IBM_EIS/authenticate.c</text>
</a>
</g>
</g>
<!-- Node6&#45;&gt;Node9 -->
<g id="edge10" class="edge">
<title>Node6&#45;&gt;Node9</title>
<path fill="none" stroke="midnightblue" d="M989.73,-252.54C988.02,-240.17 985.86,-224.62 984.55,-215.13"/>
<polygon fill="midnightblue" stroke="midnightblue" points="986.3,-253.31 991.14,-262.73 993.24,-252.35 986.3,-253.31"/>
</g>
<!-- Node7&#45;&gt;Node3 -->
<g id="edge7" class="edge">
<title>Node7&#45;&gt;Node3</title>
<path fill="none" stroke="midnightblue" d="M1188.44,-186.14C1195.08,-167.91 1201.21,-140.25 1186.35,-123 1148.37,-78.9 969.71,-72.76 889.05,-72.28"/>
<polygon fill="midnightblue" stroke="midnightblue" points="1185.11,-185.05 1184.62,-195.64 1191.6,-187.66 1185.11,-185.05"/>
</g>
<!-- Node8 -->
<g id="node8" class="node">
<title>Node8</title>
<g id="a_node8"><a xlink:href="timeseries_8c.html" target="_top" xlink:title=" ">
<polygon fill="none" stroke="black" points="1049.35,-129 1049.35,-148 1177.35,-148 1177.35,-129 1049.35,-129"/>
<text text-anchor="middle" x="1113.35" y="-136" font-family="Helvetica,sans-Serif" font-size="10.00">src/IBM_EIS/timeseries.c</text>
</a>
</g>
</g>
<!-- Node7&#45;&gt;Node8 -->
<g id="edge8" class="edge">
<title>Node7&#45;&gt;Node8</title>
<path fill="none" stroke="midnightblue" d="M1163.86,-188.5C1150.72,-175.75 1132.83,-158.39 1122.25,-148.13"/>
<polygon fill="midnightblue" stroke="midnightblue" points="1161.7,-191.28 1171.32,-195.73 1166.58,-186.26 1161.7,-191.28"/>
</g>
<!-- Node10&#45;&gt;Node11 -->
<g id="edge13" class="edge">
<title>Node10&#45;&gt;Node11</title>
<path fill="none" stroke="midnightblue" d="M560.1,-255.5C573.43,-242.75 591.59,-225.39 602.33,-215.13"/>
<polygon fill="midnightblue" stroke="midnightblue" points="557.33,-253.29 552.52,-262.73 562.17,-258.35 557.33,-253.29"/>
</g>
<!-- Node13 -->
<g id="node13" class="node">
<title>Node13</title>
<g id="a_node13"><a xlink:href="_ubidots_2authenticate_8c.html" target="_top" xlink:title=" ">
<polygon fill="none" stroke="black" points="397.85,-196 397.85,-215 528.85,-215 528.85,-196 397.85,-196"/>
<text text-anchor="middle" x="463.35" y="-203" font-family="Helvetica,sans-Serif" font-size="10.00">src/Ubidots/authenticate.c</text>
</a>
</g>
</g>
<!-- Node10&#45;&gt;Node13 -->
<g id="edge16" class="edge">
<title>Node10&#45;&gt;Node13</title>
<path fill="none" stroke="midnightblue" d="M524.54,-256.21C508.78,-243.41 486.85,-225.59 473.97,-215.13"/>
<polygon fill="midnightblue" stroke="midnightblue" points="522.6,-259.14 532.56,-262.73 527.01,-253.71 522.6,-259.14"/>
</g>
<!-- Node11&#45;&gt;Node3 -->
<g id="edge14" class="edge">
<title>Node11&#45;&gt;Node3</title>
<path fill="none" stroke="midnightblue" d="M635.95,-190.86C685,-163.65 793.75,-103.34 833.99,-81.02"/>
<polygon fill="midnightblue" stroke="midnightblue" points="634.02,-187.93 626.97,-195.84 637.41,-194.05 634.02,-187.93"/>
</g>
<!-- Node12 -->
<g id="node12" class="node">
<title>Node12</title>
<g id="a_node12"><a xlink:href="devices_8c.html" target="_top" xlink:title=" ">
<polygon fill="none" stroke="black" points="555.85,-129 555.85,-148 666.85,-148 666.85,-129 555.85,-129"/>
<text text-anchor="middle" x="611.35" y="-136" font-family="Helvetica,sans-Serif" font-size="10.00">src/Ubidots/devices.c</text>
</a>
</g>
</g>
<!-- Node11&#45;&gt;Node12 -->
<g id="edge15" class="edge">
<title>Node11&#45;&gt;Node12</title>
<path fill="none" stroke="midnightblue" d="M611.35,-185.54C611.35,-173.17 611.35,-157.62 611.35,-148.13"/>
<polygon fill="midnightblue" stroke="midnightblue" points="607.85,-185.73 611.35,-195.73 614.85,-185.73 607.85,-185.73"/>
</g>
<!-- Node14&#45;&gt;Node3 -->
<g id="edge28" class="edge">
<title>Node14&#45;&gt;Node3</title>
<path fill="none" stroke="midnightblue" d="M1569.84,-251.09C1559.86,-242.64 1549.14,-232.19 1541.35,-221 1514.58,-182.52 1540.1,-150.79 1502.35,-123 1477.54,-104.74 1026.63,-81.2 888.95,-74.41"/>
<polygon fill="midnightblue" stroke="midnightblue" points="1567.65,-253.82 1577.61,-257.42 1572.07,-248.39 1567.65,-253.82"/>
</g>
<!-- Node14&#45;&gt;Node15 -->
<g id="edge19" class="edge">
<title>Node14&#45;&gt;Node15</title>
<path fill="none" stroke="midnightblue" d="M1553.71,-253.54C1528.42,-243.14 1497.06,-230.24 1473.57,-220.58"/>
<polygon fill="midnightblue" stroke="midnightblue" points="1552.49,-256.83 1563.07,-257.4 1555.15,-250.35 1552.49,-256.83"/>
</g>
<!-- Node14&#45;&gt;Node18 -->
<g id="edge27" class="edge">
<title>Node14&#45;&gt;Node18</title>
<path fill="none" stroke="midnightblue" d="M1660.57,-258.27C1680.57,-250.79 1700.52,-239.13 1712.35,-221 1727.2,-198.26 1703.18,-170.27 1684.91,-153.71"/>
<polygon fill="midnightblue" stroke="midnightblue" points="1659.43,-254.97 1651.11,-261.52 1661.7,-261.59 1659.43,-254.97"/>
</g>
<!-- Node21 -->
<g id="node21" class="node">
<title>Node21</title>
<g id="a_node21"><a xlink:href="_willy_weather_2authenticate_8c.html" target="_top" xlink:title=" ">
<polygon fill="none" stroke="black" points="1549.85,-196 1549.85,-215 1702.85,-215 1702.85,-196 1549.85,-196"/>
<text text-anchor="middle" x="1626.35" y="-203" font-family="Helvetica,sans-Serif" font-size="10.00">src/WillyWeather/authenticate.c</text>
</a>
</g>
</g>
<!-- Node14&#45;&gt;Node21 -->
<g id="edge29" class="edge">
<title>Node14&#45;&gt;Node21</title>
<path fill="none" stroke="midnightblue" d="M1607.86,-247.94C1612.95,-236.54 1618.75,-223.55 1622.47,-215.19"/>
<polygon fill="midnightblue" stroke="midnightblue" points="1604.52,-246.84 1603.65,-257.4 1610.92,-249.69 1604.52,-246.84"/>
</g>
<!-- Node16 -->
<g id="node16" class="node">
<title>Node16</title>
<g id="a_node16"><a xlink:href="precipitation_8h.html" target="_top" xlink:title=" ">
<polygon fill="none" stroke="black" points="1233.85,-123.5 1233.85,-153.5 1340.85,-153.5 1340.85,-123.5 1233.85,-123.5"/>
<text text-anchor="start" x="1241.85" y="-141.5" font-family="Helvetica,sans-Serif" font-size="10.00">include/WillyWeather</text>
<text text-anchor="middle" x="1287.35" y="-130.5" font-family="Helvetica,sans-Serif" font-size="10.00">/precipitation.h</text>
</a>
</g>
</g>
<!-- Node15&#45;&gt;Node16 -->
<g id="edge20" class="edge">
<title>Node15&#45;&gt;Node16</title>
<path fill="none" stroke="midnightblue" d="M1397.04,-186.41C1372.78,-176.03 1342.76,-163.2 1320.27,-153.58"/>
<polygon fill="midnightblue" stroke="midnightblue" points="1395.8,-189.68 1406.37,-190.4 1398.55,-183.25 1395.8,-189.68"/>
</g>
<!-- Node15&#45;&gt;Node18 -->
<g id="edge23" class="edge">
<title>Node15&#45;&gt;Node18</title>
<path fill="none" stroke="midnightblue" d="M1498.23,-187.71C1535.33,-177.14 1582.7,-163.63 1617.86,-153.61"/>
<polygon fill="midnightblue" stroke="midnightblue" points="1497.2,-184.37 1488.55,-190.48 1499.12,-191.1 1497.2,-184.37"/>
</g>
<!-- Node20 -->
<g id="node20" class="node">
<title>Node20</title>
<g id="a_node20"><a xlink:href="location_8c.html" target="_top" xlink:title=" ">
<polygon fill="none" stroke="black" points="1359.35,-129 1359.35,-148 1493.35,-148 1493.35,-129 1359.35,-129"/>
<text text-anchor="middle" x="1426.35" y="-136" font-family="Helvetica,sans-Serif" font-size="10.00">src/WillyWeather/location.c</text>
</a>
</g>
</g>
<!-- Node15&#45;&gt;Node20 -->
<g id="edge26" class="edge">
<title>Node15&#45;&gt;Node20</title>
<path fill="none" stroke="midnightblue" d="M1434.5,-180.25C1432.26,-169.02 1429.73,-156.38 1428.09,-148.19"/>
<polygon fill="midnightblue" stroke="midnightblue" points="1431.14,-181.28 1436.53,-190.4 1438,-179.9 1431.14,-181.28"/>
</g>
<!-- Node16&#45;&gt;Node3 -->
<g id="edge21" class="edge">
<title>Node16&#45;&gt;Node3</title>
<path fill="none" stroke="midnightblue" d="M1223.75,-123.78C1222.27,-123.51 1220.8,-123.25 1219.35,-123 1099.61,-102.09 956.79,-84.72 888.93,-76.92"/>
<polygon fill="midnightblue" stroke="midnightblue" points="1223.13,-127.23 1233.6,-125.65 1224.43,-120.35 1223.13,-127.23"/>
</g>
<!-- Node17 -->
<g id="node17" class="node">
<title>Node17</title>
<g id="a_node17"><a xlink:href="precipitation_8c.html" target="_top" xlink:title=" ">
<polygon fill="none" stroke="black" points="1211.35,-62 1211.35,-81 1363.35,-81 1363.35,-62 1211.35,-62"/>
<text text-anchor="middle" x="1287.35" y="-69" font-family="Helvetica,sans-Serif" font-size="10.00">src/WillyWeather/precipitation.c</text>
</a>
</g>
</g>
<!-- Node16&#45;&gt;Node17 -->
<g id="edge22" class="edge">
<title>Node16&#45;&gt;Node17</title>
<path fill="none" stroke="midnightblue" d="M1287.35,-113.25C1287.35,-102.02 1287.35,-89.38 1287.35,-81.19"/>
<polygon fill="midnightblue" stroke="midnightblue" points="1283.85,-113.4 1287.35,-123.4 1290.85,-113.4 1283.85,-113.4"/>
</g>
<!-- Node18&#45;&gt;Node3 -->
<g id="edge24" class="edge">
<title>Node18&#45;&gt;Node3</title>
<path fill="none" stroke="midnightblue" d="M1603.7,-130.04C1582.03,-127.62 1557.65,-125.04 1535.35,-123 1290.08,-100.51 994.74,-81.48 889.22,-74.93"/>
<polygon fill="midnightblue" stroke="midnightblue" points="1603.44,-133.53 1613.77,-131.17 1604.22,-126.58 1603.44,-133.53"/>
</g>
<!-- Node19 -->
<g id="node19" class="node">
<title>Node19</title>
<g id="a_node19"><a xlink:href="tide_8c.html" target="_top" xlink:title=" ">
<polygon fill="none" stroke="black" points="1609.35,-62 1609.35,-81 1725.35,-81 1725.35,-62 1609.35,-62"/>
<text text-anchor="middle" x="1667.35" y="-69" font-family="Helvetica,sans-Serif" font-size="10.00">src/WillyWeather/tide.c</text>
</a>
</g>
</g>
<!-- Node18&#45;&gt;Node19 -->
<g id="edge25" class="edge">
<title>Node18&#45;&gt;Node19</title>
<path fill="none" stroke="midnightblue" d="M1667.35,-113.25C1667.35,-102.02 1667.35,-89.38 1667.35,-81.19"/>
<polygon fill="midnightblue" stroke="midnightblue" points="1663.85,-113.4 1667.35,-123.4 1670.85,-113.4 1663.85,-113.4"/>
</g>
<!-- Node22&#45;&gt;Node2 -->
<g id="edge40" class="edge">
<title>Node22&#45;&gt;Node2</title>
<path fill="none" stroke="midnightblue" d="M960.98,-370.55C956.59,-355.95 948.42,-336.06 934.35,-324 917.25,-309.33 863.77,-294.74 821.69,-285.05"/>
<polygon fill="midnightblue" stroke="midnightblue" points="957.66,-371.72 963.63,-380.47 964.43,-369.91 957.66,-371.72"/>
</g>
<!-- Node22&#45;&gt;Node6 -->
<g id="edge41" class="edge">
<title>Node22&#45;&gt;Node6</title>
<path fill="none" stroke="midnightblue" d="M969.68,-370.5C975.58,-345.26 985.92,-301.02 990.3,-282.28"/>
<polygon fill="midnightblue" stroke="midnightblue" points="966.25,-369.78 967.38,-380.32 973.07,-371.38 966.25,-369.78"/>
</g>
<!-- Node22&#45;&gt;Node7 -->
<g id="edge42" class="edge">
<title>Node22&#45;&gt;Node7</title>
<path fill="none" stroke="midnightblue" d="M1013.6,-384.82C1051.29,-379.75 1103.73,-368.56 1143.35,-344 1171.22,-326.73 1179.98,-318.74 1191.35,-288 1200.67,-262.83 1190.37,-230.67 1184.24,-215.37"/>
<polygon fill="midnightblue" stroke="midnightblue" points="1012.88,-381.38 1003.39,-386.1 1013.74,-388.33 1012.88,-381.38"/>
</g>
<!-- Node22&#45;&gt;Node11 -->
<g id="edge43" class="edge">
<title>Node22&#45;&gt;Node11</title>
<path fill="none" stroke="midnightblue" d="M922.1,-377.66C868.1,-362.35 774.11,-331.85 702.35,-288 667.61,-266.77 633.79,-231.54 619.06,-215.25"/>
<polygon fill="midnightblue" stroke="midnightblue" points="921.45,-381.11 932.02,-380.43 923.33,-374.37 921.45,-381.11"/>
</g>
<!-- Node22&#45;&gt;Node15 -->
<g id="edge44" class="edge">
<title>Node22&#45;&gt;Node15</title>
<path fill="none" stroke="midnightblue" d="M1013.64,-386.31C1073.45,-381.95 1177.9,-370.9 1263.35,-344 1316.82,-327.17 1333,-323.52 1376.35,-288 1400.15,-268.51 1420.41,-238.42 1431.14,-220.77"/>
<polygon fill="midnightblue" stroke="midnightblue" points="1013.1,-382.84 1003.36,-387.03 1013.58,-389.83 1013.1,-382.84"/>
</g>
<!-- Node22&#45;&gt;Node16 -->
<g id="edge45" class="edge">
<title>Node22&#45;&gt;Node16</title>
<path fill="none" stroke="midnightblue" d="M1013.78,-386.26C1057.37,-382.03 1121.96,-371.29 1171.35,-344 1235.81,-308.39 1255.13,-289.42 1282.35,-221 1291.21,-198.74 1290.55,-170.35 1289.08,-153.63"/>
<polygon fill="midnightblue" stroke="midnightblue" points="1013.37,-382.78 1003.72,-387.15 1013.99,-389.75 1013.37,-382.78"/>
</g>
<!-- Node22&#45;&gt;Node18 -->
<g id="edge46" class="edge">
<title>Node22&#45;&gt;Node18</title>
<path fill="none" stroke="midnightblue" d="M1013.96,-385.95C1152.42,-376.63 1546.18,-345.63 1660.35,-288 1707.68,-264.11 1750.92,-237.97 1728.35,-190 1721.1,-174.57 1706.56,-162.24 1693.5,-153.63"/>
<polygon fill="midnightblue" stroke="midnightblue" points="1013.42,-382.48 1003.67,-386.63 1013.88,-389.46 1013.42,-382.48"/>
</g>
<!-- Node23 -->
<g id="node23" class="node">
<title>Node23</title>
<g id="a_node23"><a xlink:href="stations_8h.html" target="_top" xlink:title=" ">
<polygon fill="none" stroke="black" points="115.35,-196 115.35,-215 233.35,-215 233.35,-196 115.35,-196"/>
<text text-anchor="middle" x="174.35" y="-203" font-family="Helvetica,sans-Serif" font-size="10.00">include/BOM/stations.h</text>
</a>
</g>
</g>
<!-- Node22&#45;&gt;Node23 -->
<g id="edge34" class="edge">
<title>Node22&#45;&gt;Node23</title>
<path fill="none" stroke="midnightblue" d="M917.01,-388.95C783.67,-388.31 412.97,-382.96 298.35,-344 255.87,-329.56 243.92,-321.75 214.35,-288 194.51,-265.36 182.01,-231.13 176.94,-215.22"/>
<polygon fill="midnightblue" stroke="midnightblue" points="917.3,-392.45 927.31,-388.99 917.33,-385.45 917.3,-392.45"/>
</g>
<!-- Node27 -->
<g id="node27" class="node">
<title>Node27</title>
<g id="a_node27"><a xlink:href="ftp_8h.html" target="_top" xlink:title=" ">
<polygon fill="none" stroke="black" points="223.85,-263 223.85,-282 292.85,-282 292.85,-263 223.85,-263"/>
<text text-anchor="middle" x="258.35" y="-270" font-family="Helvetica,sans-Serif" font-size="10.00">include/ftp.h</text>
</a>
</g>
</g>
<!-- Node22&#45;&gt;Node27 -->
<g id="edge47" class="edge">
<title>Node22&#45;&gt;Node27</title>
<path fill="none" stroke="midnightblue" d="M916.96,-387.47C778.01,-382.8 384.33,-367.62 331.35,-344 300.62,-330.3 275.11,-297.8 264.14,-282.18"/>
<polygon fill="midnightblue" stroke="midnightblue" points="917.18,-390.98 927.3,-387.81 917.42,-383.98 917.18,-390.98"/>
</g>
<!-- Node29 -->
<g id="node29" class="node">
<title>Node29</title>
<g id="a_node29"><a xlink:href="http_8h.html" target="_top" xlink:title=" ">
<polygon fill="none" stroke="black" points="1060.35,-324.5 1060.35,-343.5 1134.35,-343.5 1134.35,-324.5 1060.35,-324.5"/>
<text text-anchor="middle" x="1097.35" y="-331.5" font-family="Helvetica,sans-Serif" font-size="10.00">include/http.h</text>
</a>
</g>
</g>
<!-- Node22&#45;&gt;Node29 -->
<g id="edge52" class="edge">
<title>Node22&#45;&gt;Node29</title>
<path fill="none" stroke="midnightblue" d="M995.57,-376.64C1020.34,-366.5 1054.75,-352.43 1076.54,-343.52"/>
<polygon fill="midnightblue" stroke="midnightblue" points="994.2,-373.42 986.27,-380.44 996.85,-379.9 994.2,-373.42"/>
</g>
<!-- Node31 -->
<g id="node31" class="node">
<title>Node31</title>
<g id="a_node31"><a xlink:href="severity__index_8h.html" target="_top" xlink:title=" ">
<polygon fill="none" stroke="black" points="340.85,-324.5 340.85,-343.5 459.85,-343.5 459.85,-324.5 340.85,-324.5"/>
<text text-anchor="middle" x="400.35" y="-331.5" font-family="Helvetica,sans-Serif" font-size="10.00">include/severity_index.h</text>
</a>
</g>
</g>
<!-- Node22&#45;&gt;Node31 -->
<g id="edge64" class="edge">
<title>Node22&#45;&gt;Node31</title>
<path fill="none" stroke="midnightblue" d="M916.83,-384.36C813.65,-374.5 572.7,-351.47 460.2,-340.72"/>
<polygon fill="midnightblue" stroke="midnightblue" points="916.68,-387.86 926.96,-385.33 917.34,-380.9 916.68,-387.86"/>
</g>
<!-- Node33 -->
<g id="node33" class="node">
<title>Node33</title>
<g id="a_node33"><a xlink:href="utils_8c.html" target="_top" xlink:title=" ">
<polygon fill="none" stroke="black" points="866.85,-324.5 866.85,-343.5 925.85,-343.5 925.85,-324.5 866.85,-324.5"/>
<text text-anchor="middle" x="896.35" y="-331.5" font-family="Helvetica,sans-Serif" font-size="10.00">src/utils.c</text>
</a>
</g>
</g>
<!-- Node22&#45;&gt;Node33 -->
<g id="edge67" class="edge">
<title>Node22&#45;&gt;Node33</title>
<path fill="none" stroke="midnightblue" d="M946.32,-374.1C933.9,-364.38 918.11,-352.03 907.64,-343.83"/>
<polygon fill="midnightblue" stroke="midnightblue" points="944.24,-376.92 954.27,-380.32 948.55,-371.4 944.24,-376.92"/>
</g>
<!-- Node23&#45;&gt;Node3 -->
<g id="edge38" class="edge">
<title>Node23&#45;&gt;Node3</title>
<path fill="none" stroke="midnightblue" d="M202.26,-191.58C222.42,-181.93 250.07,-168.04 273.35,-154 293.84,-141.64 294.92,-131.3 317.35,-123 407.85,-89.53 702.49,-77.11 809.8,-73.63"/>
<polygon fill="midnightblue" stroke="midnightblue" points="200.56,-188.51 193.02,-195.95 203.56,-194.84 200.56,-188.51"/>
</g>
<!-- Node24 -->
<g id="node24" class="node">
<title>Node24</title>
<g id="a_node24"><a xlink:href="historical__weather_8h.html" target="_top" xlink:title=" ">
<polygon fill="none" stroke="black" points="30.85,-123.5 30.85,-153.5 145.85,-153.5 145.85,-123.5 30.85,-123.5"/>
<text text-anchor="start" x="38.85" y="-141.5" font-family="Helvetica,sans-Serif" font-size="10.00">include/BOM/historical</text>
<text text-anchor="middle" x="88.35" y="-130.5" font-family="Helvetica,sans-Serif" font-size="10.00">_weather.h</text>
</a>
</g>
</g>
<!-- Node23&#45;&gt;Node24 -->
<g id="edge35" class="edge">
<title>Node23&#45;&gt;Node24</title>
<path fill="none" stroke="midnightblue" d="M154.57,-189.54C140.25,-178.73 121.04,-164.2 106.99,-153.59"/>
<polygon fill="midnightblue" stroke="midnightblue" points="152.67,-192.5 162.76,-195.73 156.89,-186.91 152.67,-192.5"/>
</g>
<!-- Node26 -->
<g id="node26" class="node">
<title>Node26</title>
<g id="a_node26"><a xlink:href="stations_8c.html" target="_top" xlink:title=" ">
<polygon fill="none" stroke="black" points="163.85,-129 163.85,-148 264.85,-148 264.85,-129 163.85,-129"/>
<text text-anchor="middle" x="214.35" y="-136" font-family="Helvetica,sans-Serif" font-size="10.00">src/BOM/stations.c</text>
</a>
</g>
</g>
<!-- Node23&#45;&gt;Node26 -->
<g id="edge39" class="edge">
<title>Node23&#45;&gt;Node26</title>
<path fill="none" stroke="midnightblue" d="M185.1,-187.03C192.85,-174.45 202.96,-158.01 209.04,-148.13"/>
<polygon fill="midnightblue" stroke="midnightblue" points="182.01,-185.38 179.75,-195.73 187.97,-189.05 182.01,-185.38"/>
</g>
<!-- Node24&#45;&gt;Node3 -->
<g id="edge36" class="edge">
<title>Node24&#45;&gt;Node3</title>
<path fill="none" stroke="midnightblue" d="M156.01,-122.89C409.78,-86.73 704.31,-76.18 809.57,-73.39"/>
<polygon fill="midnightblue" stroke="midnightblue" points="155.26,-119.47 145.86,-124.36 156.25,-126.39 155.26,-119.47"/>
</g>
<!-- Node25 -->
<g id="node25" class="node">
<title>Node25</title>
<g id="a_node25"><a xlink:href="historical__weather_8c.html" target="_top" xlink:title=" ">
<polygon fill="none" stroke="black" points="39.35,-56.5 39.35,-86.5 137.35,-86.5 137.35,-56.5 39.35,-56.5"/>
<text text-anchor="start" x="47.35" y="-74.5" font-family="Helvetica,sans-Serif" font-size="10.00">src/BOM/historical</text>
<text text-anchor="middle" x="88.35" y="-63.5" font-family="Helvetica,sans-Serif" font-size="10.00">_weather.c</text>
</a>
</g>
</g>
<!-- Node24&#45;&gt;Node25 -->
<g id="edge37" class="edge">
<title>Node24&#45;&gt;Node25</title>
<path fill="none" stroke="midnightblue" d="M88.35,-113.11C88.35,-104.15 88.35,-94.32 88.35,-86.58"/>
<polygon fill="midnightblue" stroke="midnightblue" points="84.85,-113.4 88.35,-123.4 91.85,-113.4 84.85,-113.4"/>
</g>
<!-- Node27&#45;&gt;Node3 -->
<g id="edge50" class="edge">
<title>Node27&#45;&gt;Node3</title>
<path fill="none" stroke="midnightblue" d="M277.95,-256.54C289.13,-247.25 302.78,-234.52 312.35,-221 339.84,-182.18 316.91,-151.01 355.35,-123 391.81,-96.44 698.72,-79.56 809.59,-74.28"/>
<polygon fill="midnightblue" stroke="midnightblue" points="275.59,-253.95 269.99,-262.94 279.98,-259.4 275.59,-253.95"/>
</g>
<!-- Node27&#45;&gt;Node23 -->
<g id="edge49" class="edge">
<title>Node27&#45;&gt;Node23</title>
<path fill="none" stroke="midnightblue" d="M239.06,-256.57C222.48,-243.74 199.15,-225.69 185.5,-215.13"/>
<polygon fill="midnightblue" stroke="midnightblue" points="236.97,-259.38 247.03,-262.73 241.26,-253.85 236.97,-259.38"/>
</g>
<!-- Node27&#45;&gt;Node24 -->
<g id="edge48" class="edge">
<title>Node27&#45;&gt;Node24</title>
<path fill="none" stroke="midnightblue" d="M213.59,-268.28C179.38,-263.4 133.61,-251.23 106.35,-221 89.57,-202.38 87.25,-171.71 87.51,-153.77"/>
<polygon fill="midnightblue" stroke="midnightblue" points="213.44,-271.79 223.8,-269.57 214.32,-264.84 213.44,-271.79"/>
</g>
<!-- Node28 -->
<g id="node28" class="node">
<title>Node28</title>
<g id="a_node28"><a xlink:href="ftp_8c.html" target="_top" xlink:title=" ">
<polygon fill="none" stroke="black" points="251.35,-196 251.35,-215 303.35,-215 303.35,-196 251.35,-196"/>
<text text-anchor="middle" x="277.35" y="-203" font-family="Helvetica,sans-Serif" font-size="10.00">src/ftp.c</text>
</a>
</g>
</g>
<!-- Node27&#45;&gt;Node28 -->
<g id="edge51" class="edge">
<title>Node27&#45;&gt;Node28</title>
<path fill="none" stroke="midnightblue" d="M263.79,-252.91C267.42,-240.49 272.03,-224.72 274.83,-215.13"/>
<polygon fill="midnightblue" stroke="midnightblue" points="260.36,-252.15 260.92,-262.73 267.08,-254.12 260.36,-252.15"/>
</g>
<!-- Node29&#45;&gt;Node2 -->
<g id="edge53" class="edge">
<title>Node29&#45;&gt;Node2</title>
<path fill="none" stroke="midnightblue" d="M1049.93,-325.4C997.37,-316.84 910.15,-302.28 835.35,-288 830.91,-287.15 826.3,-286.24 821.68,-285.31"/>
<polygon fill="midnightblue" stroke="midnightblue" points="1049.53,-328.88 1059.96,-327.02 1050.65,-321.97 1049.53,-328.88"/>
</g>
<!-- Node29&#45;&gt;Node3 -->
<g id="edge62" class="edge">
<title>Node29&#45;&gt;Node3</title>
<path fill="none" stroke="midnightblue" d="M1050.22,-327.54C1000.44,-320.83 926.42,-307.82 906.35,-288 852.6,-234.89 885.89,-195.72 865.35,-123 861.16,-108.13 855.58,-91.03 852.24,-81.03"/>
<polygon fill="midnightblue" stroke="midnightblue" points="1049.77,-331.01 1060.14,-328.84 1050.68,-324.07 1049.77,-331.01"/>
</g>
<!-- Node29&#45;&gt;Node6 -->
<g id="edge54" class="edge">
<title>Node29&#45;&gt;Node6</title>
<path fill="none" stroke="midnightblue" d="M1073.35,-319.4C1053.05,-307.9 1024.59,-291.77 1007.37,-282.01"/>
<polygon fill="midnightblue" stroke="midnightblue" points="1071.88,-322.59 1082.31,-324.48 1075.34,-316.5 1071.88,-322.59"/>
</g>
<!-- Node29&#45;&gt;Node7 -->
<g id="edge55" class="edge">
<title>Node29&#45;&gt;Node7</title>
<path fill="none" stroke="midnightblue" d="M1098.68,-313.93C1100.58,-297.68 1105.18,-274.28 1116.35,-257 1128.34,-238.46 1149.48,-223.76 1164.17,-215.11"/>
<polygon fill="midnightblue" stroke="midnightblue" points="1095.16,-314.03 1097.73,-324.31 1102.13,-314.67 1095.16,-314.03"/>
</g>
<!-- Node29&#45;&gt;Node10 -->
<g id="edge56" class="edge">
<title>Node29&#45;&gt;Node10</title>
<path fill="none" stroke="midnightblue" d="M1050.1,-327.92C953.57,-317.56 733.14,-293.88 617.41,-281.45"/>
<polygon fill="midnightblue" stroke="midnightblue" points="1049.83,-331.42 1060.14,-329 1050.58,-324.46 1049.83,-331.42"/>
</g>
<!-- Node29&#45;&gt;Node11 -->
<g id="edge57" class="edge">
<title>Node29&#45;&gt;Node11</title>
<path fill="none" stroke="midnightblue" d="M1050.12,-329.38C1003.55,-324.47 931.15,-313.22 873.35,-288 851.76,-278.58 851.81,-266.73 830.35,-257 814.27,-249.71 711.45,-227.48 652.59,-215.09"/>
<polygon fill="midnightblue" stroke="midnightblue" points="1049.93,-332.87 1060.23,-330.38 1050.63,-325.91 1049.93,-332.87"/>
</g>
<!-- Node29&#45;&gt;Node14 -->
<g id="edge58" class="edge">
<title>Node29&#45;&gt;Node14</title>
<path fill="none" stroke="midnightblue" d="M1144.53,-327.39C1237.83,-316.28 1445.4,-291.58 1543.73,-279.88"/>
<polygon fill="midnightblue" stroke="midnightblue" points="1144.04,-323.92 1134.53,-328.58 1144.87,-330.87 1144.04,-323.92"/>
</g>
<!-- Node29&#45;&gt;Node15 -->
<g id="edge59" class="edge">
<title>Node29&#45;&gt;Node15</title>
<path fill="none" stroke="midnightblue" d="M1145.02,-331.09C1195.41,-327.51 1276.18,-317.26 1339.35,-288 1375.12,-271.43 1408.97,-239.12 1426.64,-220.55"/>
<polygon fill="midnightblue" stroke="midnightblue" points="1144.5,-327.61 1134.75,-331.75 1144.95,-334.6 1144.5,-327.61"/>
</g>
<!-- Node29&#45;&gt;Node16 -->
<g id="edge60" class="edge">
<title>Node29&#45;&gt;Node16</title>
<path fill="none" stroke="midnightblue" d="M1129.44,-320.65C1148.28,-312.67 1172.09,-301.32 1191.35,-288 1226.78,-263.51 1238.55,-257.53 1261.35,-221 1274.72,-199.58 1281.8,-170.67 1285.05,-153.66"/>
<polygon fill="midnightblue" stroke="midnightblue" points="1128,-317.45 1120.09,-324.5 1130.67,-323.92 1128,-317.45"/>
</g>
<!-- Node29&#45;&gt;Node18 -->
<g id="edge61" class="edge">
<title>Node29&#45;&gt;Node18</title>
<path fill="none" stroke="midnightblue" d="M1138.28,-321.49C1164.16,-313.54 1197.96,-301.91 1226.35,-288 1298.2,-252.79 1302.88,-219.23 1377.35,-190 1456.08,-159.1 1554.22,-147.04 1613.77,-142.38"/>
<polygon fill="midnightblue" stroke="midnightblue" points="1136.99,-318.22 1128.42,-324.45 1139.01,-324.92 1136.99,-318.22"/>
</g>
<!-- Node30 -->
<g id="node30" class="node">
<title>Node30</title>
<g id="a_node30"><a xlink:href="http_8c.html" target="_top" xlink:title=" ">
<polygon fill="none" stroke="black" points="1125.85,-263 1125.85,-282 1182.85,-282 1182.85,-263 1125.85,-263"/>
<text text-anchor="middle" x="1154.35" y="-270" font-family="Helvetica,sans-Serif" font-size="10.00">src/http.c</text>
</a>
</g>
</g>
<!-- Node29&#45;&gt;Node30 -->
<g id="edge63" class="edge">
<title>Node29&#45;&gt;Node30</title>
<path fill="none" stroke="midnightblue" d="M1112.68,-317C1123.47,-305.74 1137.49,-291.1 1146.2,-282.01"/>
<polygon fill="midnightblue" stroke="midnightblue" points="1109.91,-314.83 1105.52,-324.48 1114.97,-319.68 1109.91,-314.83"/>
</g>
<!-- Node31&#45;&gt;Node3 -->
<g id="edge65" class="edge">
<title>Node31&#45;&gt;Node3</title>
<path fill="none" stroke="midnightblue" d="M372.07,-319.38C359.96,-311.93 347.08,-301.46 340.35,-288 318.66,-244.62 350.49,-220.31 388.35,-190 516.5,-87.41 723.54,-73.29 809.73,-72.11"/>
<polygon fill="midnightblue" stroke="midnightblue" points="370.63,-322.59 381.06,-324.48 374.09,-316.5 370.63,-322.59"/>
</g>
<!-- Node32 -->
<g id="node32" class="node">
<title>Node32</title>
<g id="a_node32"><a xlink:href="severity__index_8c.html" target="_top" xlink:title=" ">
<polygon fill="none" stroke="black" points="349.35,-263 349.35,-282 451.35,-282 451.35,-263 349.35,-263"/>
<text text-anchor="middle" x="400.35" y="-270" font-family="Helvetica,sans-Serif" font-size="10.00">src/severity_index.c</text>
</a>
</g>
</g>
<!-- Node31&#45;&gt;Node32 -->
<g id="edge66" class="edge">
<title>Node31&#45;&gt;Node32</title>
<path fill="none" stroke="midnightblue" d="M400.35,-314.32C400.35,-303.5 400.35,-290.4 400.35,-282.01"/>
<polygon fill="midnightblue" stroke="midnightblue" points="396.85,-314.48 400.35,-324.48 403.85,-314.48 396.85,-314.48"/>
</g>
</g>
</svg>
