<?xml version="1.0" encoding="UTF-8" standalone="no"?>
<!DOCTYPE svg PUBLIC "-//W3C//DTD SVG 1.1//EN"
 "http://www.w3.org/Graphics/SVG/1.1/DTD/svg11.dtd">
<!-- Generated by graphviz version 2.49.3 (20211027.1534)
 -->
<!-- Title: src/main.c Pages: 1 -->
<svg width="1784pt" height="375pt"
 viewBox="0.00 0.00 1784.22 375.00" xmlns="http://www.w3.org/2000/svg" xmlns:xlink="http://www.w3.org/1999/xlink">
<g id="graph0" class="graph" transform="scale(1 1) rotate(0) translate(4 371)">
<title>src/main.c</title>
<!-- Node1 -->
<g id="node1" class="node">
<title>Node1</title>
<g id="a_node1"><a xlink:title=" ">
<polygon fill="#bfbfbf" stroke="black" points="917,-347.5 917,-366.5 979,-366.5 979,-347.5 917,-347.5"/>
<text text-anchor="middle" x="948" y="-354.5" font-family="Helvetica,sans-Serif" font-size="10.00">src/main.c</text>
</a>
</g>
</g>
<!-- Node2 -->
<g id="node2" class="node">
<title>Node2</title>
<g id="a_node2"><a xlink:href="main_8h.html" target="_top" xlink:title=" ">
<polygon fill="none" stroke="black" points="925.5,-291.5 925.5,-310.5 970.5,-310.5 970.5,-291.5 925.5,-291.5"/>
<text text-anchor="middle" x="948" y="-298.5" font-family="Helvetica,sans-Serif" font-size="10.00">main.h</text>
</a>
</g>
</g>
<!-- Node1&#45;&gt;Node2 -->
<g id="edge1" class="edge">
<title>Node1&#45;&gt;Node2</title>
<path fill="none" stroke="midnightblue" d="M948,-347.08C948,-340.01 948,-329.86 948,-320.99"/>
<polygon fill="midnightblue" stroke="midnightblue" points="951.5,-320.75 948,-310.75 944.5,-320.75 951.5,-320.75"/>
</g>
<!-- Node3 -->
<g id="node3" class="node">
<title>Node3</title>
<g id="a_node3"><a xlink:title=" ">
<polygon fill="none" stroke="#bfbfbf" points="312.5,-56.5 312.5,-75.5 359.5,-75.5 359.5,-56.5 312.5,-56.5"/>
<text text-anchor="middle" x="336" y="-63.5" font-family="Helvetica,sans-Serif" font-size="10.00">stdlib.h</text>
</a>
</g>
</g>
<!-- Node2&#45;&gt;Node3 -->
<g id="edge2" class="edge">
<title>Node2&#45;&gt;Node3</title>
<path fill="none" stroke="midnightblue" d="M925.18,-299.84C800.74,-298.81 206.99,-291.98 135,-255 70.61,-221.92 10.06,-167.12 57,-112 88.18,-75.39 235.18,-68.46 302.36,-67.22"/>
<polygon fill="midnightblue" stroke="midnightblue" points="302.48,-70.72 312.42,-67.07 302.37,-63.72 302.48,-70.72"/>
</g>
<!-- Node4 -->
<g id="node4" class="node">
<title>Node4</title>
<g id="a_node4"><a xlink:title=" ">
<polygon fill="none" stroke="#bfbfbf" points="521.5,-0.5 521.5,-19.5 566.5,-19.5 566.5,-0.5 521.5,-0.5"/>
<text text-anchor="middle" x="544" y="-7.5" font-family="Helvetica,sans-Serif" font-size="10.00">stdio.h</text>
</a>
</g>
</g>
<!-- Node2&#45;&gt;Node4 -->
<g id="edge3" class="edge">
<title>Node2&#45;&gt;Node4</title>
<path fill="none" stroke="midnightblue" d="M925.13,-299.56C797.69,-296.99 177.98,-283.14 98,-255 47.39,-237.19 0,-238.16 0,-184.5 0,-184.5 0,-184.5 0,-121 0,-16.11 393.41,-10.07 511.12,-10.61"/>
<polygon fill="midnightblue" stroke="midnightblue" points="511.29,-14.11 521.32,-10.67 511.34,-7.11 511.29,-14.11"/>
</g>
<!-- Node5 -->
<g id="node5" class="node">
<title>Node5</title>
<g id="a_node5"><a xlink:title=" ">
<polygon fill="none" stroke="#bfbfbf" points="1326.5,-56.5 1326.5,-75.5 1385.5,-75.5 1385.5,-56.5 1326.5,-56.5"/>
<text text-anchor="middle" x="1356" y="-63.5" font-family="Helvetica,sans-Serif" font-size="10.00">curl/curl.h</text>
</a>
</g>
</g>
<!-- Node2&#45;&gt;Node5 -->
<g id="edge4" class="edge">
<title>Node2&#45;&gt;Node5</title>
<path fill="none" stroke="midnightblue" d="M970.69,-300.45C1043.89,-301.39 1279.95,-300.46 1468,-255 1531.94,-239.54 1568.33,-253.61 1605,-199 1628.43,-164.12 1602.73,-135.66 1568,-112 1515.93,-76.53 1441.27,-68.21 1395.85,-66.69"/>
<polygon fill="midnightblue" stroke="midnightblue" points="1395.88,-63.19 1385.8,-66.46 1395.71,-70.19 1395.88,-63.19"/>
</g>
<!-- Node6 -->
<g id="node6" class="node">
<title>Node6</title>
<g id="a_node6"><a xlink:title=" ">
<polygon fill="none" stroke="#bfbfbf" points="66.5,-112.5 66.5,-131.5 117.5,-131.5 117.5,-112.5 66.5,-112.5"/>
<text text-anchor="middle" x="92" y="-119.5" font-family="Helvetica,sans-Serif" font-size="10.00">assert.h</text>
</a>
</g>
</g>
<!-- Node2&#45;&gt;Node6 -->
<g id="edge5" class="edge">
<title>Node2&#45;&gt;Node6</title>
<path fill="none" stroke="midnightblue" d="M925.26,-300.3C814.13,-301.5 327.73,-303.85 186,-255 144.62,-240.74 128.53,-235.9 105,-199 94.11,-181.93 91.55,-158.49 91.28,-142.18"/>
<polygon fill="midnightblue" stroke="midnightblue" points="94.79,-141.79 91.4,-131.75 87.79,-141.71 94.79,-141.79"/>
</g>
<!-- Node7 -->
<g id="node7" class="node">
<title>Node7</title>
<g id="a_node7"><a xlink:title=" ">
<polygon fill="none" stroke="#bfbfbf" points="1688,-235.5 1688,-254.5 1738,-254.5 1738,-235.5 1688,-235.5"/>
<text text-anchor="middle" x="1713" y="-242.5" font-family="Helvetica,sans-Serif" font-size="10.00">unistd.h</text>
</a>
</g>
</g>
<!-- Node2&#45;&gt;Node7 -->
<g id="edge6" class="edge">
<title>Node2&#45;&gt;Node7</title>
<path fill="none" stroke="midnightblue" d="M970.72,-299.95C1060.51,-299.47 1399.07,-294.97 1674,-255 1675.28,-254.81 1676.57,-254.61 1677.88,-254.39"/>
<polygon fill="midnightblue" stroke="midnightblue" points="1678.8,-257.77 1687.94,-252.42 1677.45,-250.9 1678.8,-257.77"/>
</g>
<!-- Node8 -->
<g id="node8" class="node">
<title>Node8</title>
<g id="a_node8"><a xlink:href="log_8h.html" target="_top" xlink:title=" ">
<polygon fill="none" stroke="black" points="993.5,-56.5 993.5,-75.5 1030.5,-75.5 1030.5,-56.5 993.5,-56.5"/>
<text text-anchor="middle" x="1012" y="-63.5" font-family="Helvetica,sans-Serif" font-size="10.00">log.h</text>
</a>
</g>
</g>
<!-- Node2&#45;&gt;Node8 -->
<g id="edge7" class="edge">
<title>Node2&#45;&gt;Node8</title>
<path fill="none" stroke="midnightblue" d="M963.54,-291.36C988.47,-276.42 1036.22,-243.07 1052,-199 1055.62,-188.89 1055.96,-124.95 1051,-112 1046.73,-100.85 1038.37,-90.6 1030.49,-82.71"/>
<polygon fill="midnightblue" stroke="midnightblue" points="1032.63,-79.92 1022.93,-75.66 1027.85,-85.04 1032.63,-79.92"/>
</g>
<!-- Node12 -->
<g id="node12" class="node">
<title>Node12</title>
<g id="a_node12"><a xlink:href="devices_8h.html" target="_top" xlink:title=" ">
<polygon fill="none" stroke="black" points="775.5,-174 775.5,-193 870.5,-193 870.5,-174 775.5,-174"/>
<text text-anchor="middle" x="823" y="-181" font-family="Helvetica,sans-Serif" font-size="10.00">Ubidots/devices.h</text>
</a>
</g>
</g>
<!-- Node2&#45;&gt;Node12 -->
<g id="edge12" class="edge">
<title>Node2&#45;&gt;Node12</title>
<path fill="none" stroke="midnightblue" d="M935.32,-291.27C923.04,-282.59 904.1,-268.65 889,-255 869.87,-237.71 849.9,-215.74 837.01,-200.97"/>
<polygon fill="midnightblue" stroke="midnightblue" points="839.48,-198.47 830.29,-193.18 834.18,-203.04 839.48,-198.47"/>
</g>
<!-- Node21 -->
<g id="node21" class="node">
<title>Node21</title>
<g id="a_node21"><a xlink:href="_willy_weather_2authenticate_8h.html" target="_top" xlink:title=" ">
<polygon fill="none" stroke="black" points="534.5,-112.5 534.5,-131.5 671.5,-131.5 671.5,-112.5 534.5,-112.5"/>
<text text-anchor="middle" x="603" y="-119.5" font-family="Helvetica,sans-Serif" font-size="10.00">WillyWeather/authenticate.h</text>
</a>
</g>
</g>
<!-- Node2&#45;&gt;Node21 -->
<g id="edge32" class="edge">
<title>Node2&#45;&gt;Node21</title>
<path fill="none" stroke="midnightblue" d="M925.34,-297.9C847.47,-290.16 592.98,-260.49 545,-199 536.52,-188.14 538.94,-180.37 545,-168 551.52,-154.68 564.1,-144.18 575.87,-136.68"/>
<polygon fill="midnightblue" stroke="midnightblue" points="577.77,-139.62 584.61,-131.53 574.22,-133.59 577.77,-139.62"/>
</g>
<!-- Node22 -->
<g id="node22" class="node">
<title>Node22</title>
<g id="a_node22"><a xlink:href="tide_8h.html" target="_top" xlink:title=" ">
<polygon fill="none" stroke="black" points="898.5,-235.5 898.5,-254.5 997.5,-254.5 997.5,-235.5 898.5,-235.5"/>
<text text-anchor="middle" x="948" y="-242.5" font-family="Helvetica,sans-Serif" font-size="10.00">WillyWeather/tide.h</text>
</a>
</g>
</g>
<!-- Node2&#45;&gt;Node22 -->
<g id="edge39" class="edge">
<title>Node2&#45;&gt;Node22</title>
<path fill="none" stroke="midnightblue" d="M948,-291.08C948,-284.01 948,-273.86 948,-264.99"/>
<polygon fill="midnightblue" stroke="midnightblue" points="951.5,-264.75 948,-254.75 944.5,-264.75 951.5,-264.75"/>
</g>
<!-- Node25 -->
<g id="node25" class="node">
<title>Node25</title>
<g id="a_node25"><a xlink:href="_i_b_m___e_i_s_2authenticate_8h.html" target="_top" xlink:title=" ">
<polygon fill="none" stroke="black" points="1460.5,-174 1460.5,-193 1579.5,-193 1579.5,-174 1460.5,-174"/>
<text text-anchor="middle" x="1520" y="-181" font-family="Helvetica,sans-Serif" font-size="10.00">IBM_EIS/authenticate.h</text>
</a>
</g>
</g>
<!-- Node2&#45;&gt;Node25 -->
<g id="edge60" class="edge">
<title>Node2&#45;&gt;Node25</title>
<path fill="none" stroke="midnightblue" d="M970.59,-299.71C1054.94,-298.37 1351.04,-291.14 1437,-255 1465.2,-243.15 1490.91,-218.11 1506.01,-201.3"/>
<polygon fill="midnightblue" stroke="midnightblue" points="1508.98,-203.21 1512.9,-193.37 1503.7,-198.62 1508.98,-203.21"/>
</g>
<!-- Node26 -->
<g id="node26" class="node">
<title>Node26</title>
<g id="a_node26"><a xlink:href="timeseries_8h.html" target="_top" xlink:title=" ">
<polygon fill="none" stroke="black" points="1317.5,-235.5 1317.5,-254.5 1428.5,-254.5 1428.5,-235.5 1317.5,-235.5"/>
<text text-anchor="middle" x="1373" y="-242.5" font-family="Helvetica,sans-Serif" font-size="10.00">IBM_EIS/timeseries.h</text>
</a>
</g>
</g>
<!-- Node2&#45;&gt;Node26 -->
<g id="edge66" class="edge">
<title>Node2&#45;&gt;Node26</title>
<path fill="none" stroke="midnightblue" d="M970.55,-297.13C1033.03,-289.2 1210.18,-266.69 1307.31,-254.35"/>
<polygon fill="midnightblue" stroke="midnightblue" points="1307.83,-257.81 1317.31,-253.08 1306.95,-250.86 1307.83,-257.81"/>
</g>
<!-- Node27 -->
<g id="node27" class="node">
<title>Node27</title>
<g id="a_node27"><a xlink:href="harvest__area_8h.html" target="_top" xlink:title=" ">
<polygon fill="none" stroke="black" points="1254,-168.5 1254,-198.5 1366,-198.5 1366,-168.5 1254,-168.5"/>
<text text-anchor="start" x="1262" y="-186.5" font-family="Helvetica,sans-Serif" font-size="10.00">FoodAuthority/harvest</text>
<text text-anchor="middle" x="1310" y="-175.5" font-family="Helvetica,sans-Serif" font-size="10.00">_area.h</text>
</a>
</g>
</g>
<!-- Node2&#45;&gt;Node27 -->
<g id="edge74" class="edge">
<title>Node2&#45;&gt;Node27</title>
<path fill="none" stroke="midnightblue" d="M970.56,-299.03C1015.93,-296.42 1120.8,-287.14 1202,-255 1232.93,-242.76 1264.32,-220.99 1285.23,-204.87"/>
<polygon fill="midnightblue" stroke="midnightblue" points="1287.55,-207.5 1293.25,-198.57 1283.22,-202 1287.55,-207.5"/>
</g>
<!-- Node28 -->
<g id="node28" class="node">
<title>Node28</title>
<g id="a_node28"><a xlink:href="severity__index_8h.html" target="_top" xlink:title=" ">
<polygon fill="none" stroke="black" points="114,-174 114,-193 200,-193 200,-174 114,-174"/>
<text text-anchor="middle" x="157" y="-181" font-family="Helvetica,sans-Serif" font-size="10.00">severity_index.h</text>
</a>
</g>
</g>
<!-- Node2&#45;&gt;Node28 -->
<g id="edge80" class="edge">
<title>Node2&#45;&gt;Node28</title>
<path fill="none" stroke="midnightblue" d="M925.13,-299.69C808.04,-297.95 278.54,-288.28 214,-255 191.66,-243.48 175.02,-218.91 165.65,-202.04"/>
<polygon fill="midnightblue" stroke="midnightblue" points="168.74,-200.39 160.99,-193.16 162.54,-203.64 168.74,-200.39"/>
</g>
<!-- Node8&#45;&gt;Node4 -->
<g id="edge8" class="edge">
<title>Node8&#45;&gt;Node4</title>
<path fill="none" stroke="midnightblue" d="M993.25,-62.42C979.6,-60.56 960.67,-58.04 944,-56 807.71,-39.32 644.99,-21.73 576.7,-14.46"/>
<polygon fill="midnightblue" stroke="midnightblue" points="576.89,-10.96 566.57,-13.38 576.15,-17.92 576.89,-10.96"/>
</g>
<!-- Node9 -->
<g id="node9" class="node">
<title>Node9</title>
<g id="a_node9"><a xlink:title=" ">
<polygon fill="none" stroke="#bfbfbf" points="950.5,-0.5 950.5,-19.5 1001.5,-19.5 1001.5,-0.5 950.5,-0.5"/>
<text text-anchor="middle" x="976" y="-7.5" font-family="Helvetica,sans-Serif" font-size="10.00">stdarg.h</text>
</a>
</g>
</g>
<!-- Node8&#45;&gt;Node9 -->
<g id="edge9" class="edge">
<title>Node8&#45;&gt;Node9</title>
<path fill="none" stroke="midnightblue" d="M1006.06,-56.08C1001.02,-48.53 993.66,-37.49 987.49,-28.23"/>
<polygon fill="midnightblue" stroke="midnightblue" points="990.29,-26.13 981.83,-19.75 984.47,-30.01 990.29,-26.13"/>
</g>
<!-- Node10 -->
<g id="node10" class="node">
<title>Node10</title>
<g id="a_node10"><a xlink:title=" ">
<polygon fill="none" stroke="#bfbfbf" points="1020,-0.5 1020,-19.5 1076,-19.5 1076,-0.5 1020,-0.5"/>
<text text-anchor="middle" x="1048" y="-7.5" font-family="Helvetica,sans-Serif" font-size="10.00">stdbool.h</text>
</a>
</g>
</g>
<!-- Node8&#45;&gt;Node10 -->
<g id="edge10" class="edge">
<title>Node8&#45;&gt;Node10</title>
<path fill="none" stroke="midnightblue" d="M1017.94,-56.08C1022.98,-48.53 1030.34,-37.49 1036.51,-28.23"/>
<polygon fill="midnightblue" stroke="midnightblue" points="1039.53,-30.01 1042.17,-19.75 1033.71,-26.13 1039.53,-30.01"/>
</g>
<!-- Node11 -->
<g id="node11" class="node">
<title>Node11</title>
<g id="a_node11"><a xlink:title=" ">
<polygon fill="none" stroke="#bfbfbf" points="1676.5,-0.5 1676.5,-19.5 1719.5,-19.5 1719.5,-0.5 1676.5,-0.5"/>
<text text-anchor="middle" x="1698" y="-7.5" font-family="Helvetica,sans-Serif" font-size="10.00">time.h</text>
</a>
</g>
</g>
<!-- Node8&#45;&gt;Node11 -->
<g id="edge11" class="edge">
<title>Node8&#45;&gt;Node11</title>
<path fill="none" stroke="midnightblue" d="M1030.67,-62.83C1047.68,-60.89 1073.51,-58.05 1096,-56 1313.9,-36.19 1576.75,-18.76 1666.33,-13.01"/>
<polygon fill="midnightblue" stroke="midnightblue" points="1666.63,-16.5 1676.38,-12.36 1666.18,-9.51 1666.63,-16.5"/>
</g>
<!-- Node12&#45;&gt;Node5 -->
<g id="edge15" class="edge">
<title>Node12&#45;&gt;Node5</title>
<path fill="none" stroke="midnightblue" d="M853.69,-174C861.87,-171.88 870.74,-169.73 879,-168 978.13,-147.28 1004.86,-152.67 1104,-132 1180.14,-116.13 1267.83,-92.21 1317.1,-78.24"/>
<polygon fill="midnightblue" stroke="midnightblue" points="1318.07,-81.61 1326.72,-75.51 1316.15,-74.88 1318.07,-81.61"/>
</g>
<!-- Node12&#45;&gt;Node8 -->
<g id="edge17" class="edge">
<title>Node12&#45;&gt;Node8</title>
<path fill="none" stroke="midnightblue" d="M836.5,-173.93C857.64,-160.56 899.84,-133.98 936,-112 953.58,-101.31 973.6,-89.47 988.69,-80.62"/>
<polygon fill="midnightblue" stroke="midnightblue" points="990.51,-83.6 997.37,-75.53 986.97,-77.56 990.51,-83.6"/>
</g>
<!-- Node13 -->
<g id="node13" class="node">
<title>Node13</title>
<g id="a_node13"><a xlink:title=" ">
<polygon fill="none" stroke="#bfbfbf" points="435,-56.5 435,-75.5 483,-75.5 483,-56.5 435,-56.5"/>
<text text-anchor="middle" x="459" y="-63.5" font-family="Helvetica,sans-Serif" font-size="10.00">string.h</text>
</a>
</g>
</g>
<!-- Node12&#45;&gt;Node13 -->
<g id="edge13" class="edge">
<title>Node12&#45;&gt;Node13</title>
<path fill="none" stroke="midnightblue" d="M808.51,-173.78C783.28,-158.97 729.24,-128.84 680,-112 615.82,-90.06 537.31,-77.21 493.25,-71.19"/>
<polygon fill="midnightblue" stroke="midnightblue" points="493.45,-67.69 483.08,-69.84 492.53,-74.63 493.45,-67.69"/>
</g>
<!-- Node14 -->
<g id="node14" class="node">
<title>Node14</title>
<g id="a_node14"><a xlink:title=" ">
<polygon fill="none" stroke="#bfbfbf" points="978,-112.5 978,-131.5 1024,-131.5 1024,-112.5 978,-112.5"/>
<text text-anchor="middle" x="1001" y="-119.5" font-family="Helvetica,sans-Serif" font-size="10.00">math.h</text>
</a>
</g>
</g>
<!-- Node12&#45;&gt;Node14 -->
<g id="edge14" class="edge">
<title>Node12&#45;&gt;Node14</title>
<path fill="none" stroke="midnightblue" d="M848.5,-173.98C880,-163.45 933.64,-145.52 968.18,-133.97"/>
<polygon fill="midnightblue" stroke="midnightblue" points="969.43,-137.24 977.81,-130.75 967.22,-130.6 969.43,-137.24"/>
</g>
<!-- Node15 -->
<g id="node15" class="node">
<title>Node15</title>
<g id="a_node15"><a xlink:title=" ">
<polygon fill="none" stroke="#bfbfbf" points="1105.5,-56.5 1105.5,-75.5 1188.5,-75.5 1188.5,-56.5 1105.5,-56.5"/>
<text text-anchor="middle" x="1147" y="-63.5" font-family="Helvetica,sans-Serif" font-size="10.00">cjson/cJSON.h</text>
</a>
</g>
</g>
<!-- Node12&#45;&gt;Node15 -->
<g id="edge16" class="edge">
<title>Node12&#45;&gt;Node15</title>
<path fill="none" stroke="midnightblue" d="M843.96,-173.85C866.71,-164.28 903.93,-148.08 935,-132 950.57,-123.94 952.78,-118.66 969,-112 1010.1,-95.12 1059.22,-83.28 1095.43,-76"/>
<polygon fill="midnightblue" stroke="midnightblue" points="1096.15,-79.42 1105.29,-74.06 1094.8,-72.55 1096.15,-79.42"/>
</g>
<!-- Node16 -->
<g id="node16" class="node">
<title>Node16</title>
<g id="a_node16"><a xlink:href="_ubidots_2authenticate_8h.html" target="_top" xlink:title=" ">
<polygon fill="none" stroke="black" points="402,-112.5 402,-131.5 516,-131.5 516,-112.5 402,-112.5"/>
<text text-anchor="middle" x="459" y="-119.5" font-family="Helvetica,sans-Serif" font-size="10.00">Ubidots/authenticate.h</text>
</a>
</g>
</g>
<!-- Node12&#45;&gt;Node16 -->
<g id="edge18" class="edge">
<title>Node12&#45;&gt;Node16</title>
<path fill="none" stroke="midnightblue" d="M775.41,-174.72C710.3,-164.08 593.33,-144.96 521.3,-133.18"/>
<polygon fill="midnightblue" stroke="midnightblue" points="521.44,-129.66 511.01,-131.5 520.31,-136.57 521.44,-129.66"/>
</g>
<!-- Node17 -->
<g id="node17" class="node">
<title>Node17</title>
<g id="a_node17"><a xlink:href="utils_8h.html" target="_top" xlink:title=" ">
<polygon fill="none" stroke="black" points="804,-112.5 804,-131.5 846,-131.5 846,-112.5 804,-112.5"/>
<text text-anchor="middle" x="825" y="-119.5" font-family="Helvetica,sans-Serif" font-size="10.00">utils.h</text>
</a>
</g>
</g>
<!-- Node12&#45;&gt;Node17 -->
<g id="edge23" class="edge">
<title>Node12&#45;&gt;Node17</title>
<path fill="none" stroke="midnightblue" d="M823.29,-173.98C823.57,-165.58 824.01,-152.48 824.37,-141.66"/>
<polygon fill="midnightblue" stroke="midnightblue" points="827.88,-141.62 824.71,-131.51 820.88,-141.39 827.88,-141.62"/>
</g>
<!-- Node16&#45;&gt;Node3 -->
<g id="edge20" class="edge">
<title>Node16&#45;&gt;Node3</title>
<path fill="none" stroke="midnightblue" d="M439.51,-112.44C419.36,-103.6 387.68,-89.69 364.67,-79.59"/>
<polygon fill="midnightblue" stroke="midnightblue" points="365.96,-76.33 355.4,-75.52 363.15,-82.74 365.96,-76.33"/>
</g>
<!-- Node16&#45;&gt;Node4 -->
<g id="edge19" class="edge">
<title>Node16&#45;&gt;Node4</title>
<path fill="none" stroke="midnightblue" d="M465.67,-112.37C479.76,-94.14 512.76,-51.43 531.11,-27.68"/>
<polygon fill="midnightblue" stroke="midnightblue" points="534.02,-29.64 537.36,-19.59 528.48,-25.36 534.02,-29.64"/>
</g>
<!-- Node16&#45;&gt;Node8 -->
<g id="edge22" class="edge">
<title>Node16&#45;&gt;Node8</title>
<path fill="none" stroke="midnightblue" d="M516.22,-113.02C519.18,-112.66 522.13,-112.32 525,-112 710.77,-91.37 758.19,-96.27 944,-76 956.91,-74.59 971.16,-72.75 983.27,-71.1"/>
<polygon fill="midnightblue" stroke="midnightblue" points="983.84,-74.55 993.27,-69.71 982.88,-67.62 983.84,-74.55"/>
</g>
<!-- Node16&#45;&gt;Node13 -->
<g id="edge21" class="edge">
<title>Node16&#45;&gt;Node13</title>
<path fill="none" stroke="midnightblue" d="M459,-112.08C459,-105.01 459,-94.86 459,-85.99"/>
<polygon fill="midnightblue" stroke="midnightblue" points="462.5,-85.75 459,-75.75 455.5,-85.75 462.5,-85.75"/>
</g>
<!-- Node17&#45;&gt;Node3 -->
<g id="edge24" class="edge">
<title>Node17&#45;&gt;Node3</title>
<path fill="none" stroke="midnightblue" d="M803.99,-118.68C727.59,-110.24 464.14,-81.15 369.88,-70.74"/>
<polygon fill="midnightblue" stroke="midnightblue" points="370.07,-67.24 359.75,-69.62 369.31,-74.2 370.07,-67.24"/>
</g>
<!-- Node17&#45;&gt;Node5 -->
<g id="edge26" class="edge">
<title>Node17&#45;&gt;Node5</title>
<path fill="none" stroke="midnightblue" d="M846.14,-118.85C926.05,-110.72 1210.44,-81.8 1316.1,-71.06"/>
<polygon fill="midnightblue" stroke="midnightblue" points="1316.74,-74.51 1326.34,-70.02 1316.03,-67.55 1316.74,-74.51"/>
</g>
<!-- Node17&#45;&gt;Node8 -->
<g id="edge31" class="edge">
<title>Node17&#45;&gt;Node8</title>
<path fill="none" stroke="midnightblue" d="M846.09,-114.91C879.7,-105.2 945.49,-86.21 983.34,-75.28"/>
<polygon fill="midnightblue" stroke="midnightblue" points="984.59,-78.56 993.23,-72.42 982.65,-71.83 984.59,-78.56"/>
</g>
<!-- Node17&#45;&gt;Node13 -->
<g id="edge25" class="edge">
<title>Node17&#45;&gt;Node13</title>
<path fill="none" stroke="midnightblue" d="M803.99,-115.17C799.4,-114.02 794.56,-112.89 790,-112 682.62,-90.97 553.73,-76.5 493.36,-70.34"/>
<polygon fill="midnightblue" stroke="midnightblue" points="493.55,-66.84 483.25,-69.32 492.85,-73.8 493.55,-66.84"/>
</g>
<!-- Node17&#45;&gt;Node15 -->
<g id="edge27" class="edge">
<title>Node17&#45;&gt;Node15</title>
<path fill="none" stroke="midnightblue" d="M846.02,-115.24C850.61,-114.09 855.45,-112.94 860,-112 941.78,-95.12 1037.82,-81.25 1095.47,-73.56"/>
<polygon fill="midnightblue" stroke="midnightblue" points="1095.97,-77.02 1105.43,-72.24 1095.05,-70.08 1095.97,-77.02"/>
</g>
<!-- Node18 -->
<g id="node18" class="node">
<title>Node18</title>
<g id="a_node18"><a xlink:title=" ">
<polygon fill="none" stroke="#bfbfbf" points="876.5,-56.5 876.5,-75.5 935.5,-75.5 935.5,-56.5 876.5,-56.5"/>
<text text-anchor="middle" x="906" y="-63.5" font-family="Helvetica,sans-Serif" font-size="10.00">sys/stat.h</text>
</a>
</g>
</g>
<!-- Node17&#45;&gt;Node18 -->
<g id="edge28" class="edge">
<title>Node17&#45;&gt;Node18</title>
<path fill="none" stroke="midnightblue" d="M838.01,-112.32C850.53,-103.98 869.68,-91.21 884.47,-81.35"/>
<polygon fill="midnightblue" stroke="midnightblue" points="886.64,-84.11 893.02,-75.65 882.76,-78.29 886.64,-84.11"/>
</g>
<!-- Node19 -->
<g id="node19" class="node">
<title>Node19</title>
<g id="a_node19"><a xlink:title=" ">
<polygon fill="none" stroke="#bfbfbf" points="728.5,-56.5 728.5,-75.5 793.5,-75.5 793.5,-56.5 728.5,-56.5"/>
<text text-anchor="middle" x="761" y="-63.5" font-family="Helvetica,sans-Serif" font-size="10.00">sys/types.h</text>
</a>
</g>
</g>
<!-- Node17&#45;&gt;Node19 -->
<g id="edge29" class="edge">
<title>Node17&#45;&gt;Node19</title>
<path fill="none" stroke="midnightblue" d="M814.72,-112.32C805.16,-104.26 790.72,-92.08 779.22,-82.37"/>
<polygon fill="midnightblue" stroke="midnightblue" points="781.37,-79.61 771.47,-75.83 776.86,-84.96 781.37,-79.61"/>
</g>
<!-- Node20 -->
<g id="node20" class="node">
<title>Node20</title>
<g id="a_node20"><a xlink:title=" ">
<polygon fill="none" stroke="#bfbfbf" points="812,-56.5 812,-75.5 858,-75.5 858,-56.5 812,-56.5"/>
<text text-anchor="middle" x="835" y="-63.5" font-family="Helvetica,sans-Serif" font-size="10.00">errno.h</text>
</a>
</g>
</g>
<!-- Node17&#45;&gt;Node20 -->
<g id="edge30" class="edge">
<title>Node17&#45;&gt;Node20</title>
<path fill="none" stroke="midnightblue" d="M826.65,-112.08C827.98,-104.93 829.88,-94.64 831.54,-85.69"/>
<polygon fill="midnightblue" stroke="midnightblue" points="835,-86.22 833.38,-75.75 828.12,-84.95 835,-86.22"/>
</g>
<!-- Node21&#45;&gt;Node3 -->
<g id="edge34" class="edge">
<title>Node21&#45;&gt;Node3</title>
<path fill="none" stroke="midnightblue" d="M560.69,-112.44C507.81,-101.75 418.37,-83.66 369.81,-73.84"/>
<polygon fill="midnightblue" stroke="midnightblue" points="370.31,-70.37 359.81,-71.82 368.92,-77.23 370.31,-70.37"/>
</g>
<!-- Node21&#45;&gt;Node4 -->
<g id="edge35" class="edge">
<title>Node21&#45;&gt;Node4</title>
<path fill="none" stroke="midnightblue" d="M598.37,-112.37C588.72,-94.38 566.29,-52.55 553.45,-28.63"/>
<polygon fill="midnightblue" stroke="midnightblue" points="556.42,-26.75 548.61,-19.59 550.25,-30.06 556.42,-26.75"/>
</g>
<!-- Node21&#45;&gt;Node5 -->
<g id="edge37" class="edge">
<title>Node21&#45;&gt;Node5</title>
<path fill="none" stroke="midnightblue" d="M671.82,-116.06C825.98,-105.01 1195.02,-78.54 1316.49,-69.83"/>
<polygon fill="midnightblue" stroke="midnightblue" points="1316.75,-73.32 1326.47,-69.12 1316.25,-66.34 1316.75,-73.32"/>
</g>
<!-- Node21&#45;&gt;Node8 -->
<g id="edge38" class="edge">
<title>Node21&#45;&gt;Node8</title>
<path fill="none" stroke="midnightblue" d="M667.74,-112.46C736.33,-103.42 847.8,-88.71 944,-76 956.87,-74.3 971.12,-72.41 983.23,-70.81"/>
<polygon fill="midnightblue" stroke="midnightblue" points="983.79,-74.27 993.24,-69.48 982.87,-67.33 983.79,-74.27"/>
</g>
<!-- Node21&#45;&gt;Node13 -->
<g id="edge33" class="edge">
<title>Node21&#45;&gt;Node13</title>
<path fill="none" stroke="midnightblue" d="M580.18,-112.44C556.17,-103.44 518.17,-89.19 491.13,-79.05"/>
<polygon fill="midnightblue" stroke="midnightblue" points="492.3,-75.75 481.71,-75.52 489.84,-82.3 492.3,-75.75"/>
</g>
<!-- Node21&#45;&gt;Node15 -->
<g id="edge36" class="edge">
<title>Node21&#45;&gt;Node15</title>
<path fill="none" stroke="midnightblue" d="M671.62,-114.19C782.11,-103.22 996.98,-81.89 1095.45,-72.12"/>
<polygon fill="midnightblue" stroke="midnightblue" points="1095.86,-75.59 1105.46,-71.12 1095.16,-68.63 1095.86,-75.59"/>
</g>
<!-- Node22&#45;&gt;Node3 -->
<g id="edge41" class="edge">
<title>Node22&#45;&gt;Node3</title>
<path fill="none" stroke="midnightblue" d="M898.18,-244.79C784.12,-245.79 507.77,-243.41 428,-199 382.57,-173.71 354.57,-115.41 342.66,-85.47"/>
<polygon fill="midnightblue" stroke="midnightblue" points="345.83,-83.95 339.01,-75.84 339.29,-86.43 345.83,-83.95"/>
</g>
<!-- Node22&#45;&gt;Node5 -->
<g id="edge44" class="edge">
<title>Node22&#45;&gt;Node5</title>
<path fill="none" stroke="midnightblue" d="M997.58,-242.43C1104.7,-238.53 1350.13,-226.63 1375,-199 1403.56,-167.28 1381.13,-112.79 1366.34,-84.77"/>
<polygon fill="midnightblue" stroke="midnightblue" points="1369.25,-82.8 1361.35,-75.74 1363.12,-86.19 1369.25,-82.8"/>
</g>
<!-- Node22&#45;&gt;Node8 -->
<g id="edge46" class="edge">
<title>Node22&#45;&gt;Node8</title>
<path fill="none" stroke="midnightblue" d="M981.8,-235.39C1000.39,-228.74 1021.89,-217.45 1033,-199 1054.76,-162.86 1035.03,-111.49 1021.76,-84.74"/>
<polygon fill="midnightblue" stroke="midnightblue" points="1024.81,-83.03 1017.09,-75.78 1018.61,-86.26 1024.81,-83.03"/>
</g>
<!-- Node22&#45;&gt;Node11 -->
<g id="edge43" class="edge">
<title>Node22&#45;&gt;Node11</title>
<path fill="none" stroke="midnightblue" d="M997.5,-243.16C1139.01,-240.38 1538.3,-229.87 1588,-199 1651.58,-159.51 1682.6,-68.7 1693.4,-29.54"/>
<polygon fill="midnightblue" stroke="midnightblue" points="1696.82,-30.31 1695.97,-19.75 1690.05,-28.53 1696.82,-30.31"/>
</g>
<!-- Node22&#45;&gt;Node13 -->
<g id="edge40" class="edge">
<title>Node22&#45;&gt;Node13</title>
<path fill="none" stroke="midnightblue" d="M898.47,-242.63C771.77,-237.9 441.86,-217.46 385,-132 370.57,-110.32 399.5,-91.43 425.31,-79.68"/>
<polygon fill="midnightblue" stroke="midnightblue" points="426.79,-82.86 434.59,-75.69 424.02,-76.43 426.79,-82.86"/>
</g>
<!-- Node22&#45;&gt;Node14 -->
<g id="edge42" class="edge">
<title>Node22&#45;&gt;Node14</title>
<path fill="none" stroke="midnightblue" d="M971.45,-235.41C987.16,-228.28 1006.62,-216.46 1016,-199 1025.82,-180.73 1018.36,-156.89 1010.88,-140.82"/>
<polygon fill="midnightblue" stroke="midnightblue" points="1013.8,-138.85 1006.15,-131.52 1007.57,-142.02 1013.8,-138.85"/>
</g>
<!-- Node22&#45;&gt;Node15 -->
<g id="edge45" class="edge">
<title>Node22&#45;&gt;Node15</title>
<path fill="none" stroke="midnightblue" d="M979.02,-235.44C1001.04,-228.28 1030.39,-216.39 1052,-199 1092.55,-166.36 1123.97,-112.28 1138.37,-84.56"/>
<polygon fill="midnightblue" stroke="midnightblue" points="1141.5,-86.13 1142.9,-75.63 1135.25,-82.97 1141.5,-86.13"/>
</g>
<!-- Node22&#45;&gt;Node17 -->
<g id="edge59" class="edge">
<title>Node22&#45;&gt;Node17</title>
<path fill="none" stroke="midnightblue" d="M898.43,-240.69C841.54,-235.75 753.44,-224.16 733,-199 724.31,-188.31 725.71,-179.69 733,-168 746.27,-146.74 772.81,-135.25 793.99,-129.22"/>
<polygon fill="midnightblue" stroke="midnightblue" points="795.06,-132.55 803.88,-126.67 793.32,-125.78 795.06,-132.55"/>
</g>
<!-- Node22&#45;&gt;Node21 -->
<g id="edge47" class="edge">
<title>Node22&#45;&gt;Node21</title>
<path fill="none" stroke="midnightblue" d="M898.46,-241.96C797.72,-237.31 576.57,-224.3 554,-199 536.81,-179.73 561.94,-153.84 582.11,-137.8"/>
<polygon fill="midnightblue" stroke="midnightblue" points="584.46,-140.41 590.31,-131.58 580.22,-134.84 584.46,-140.41"/>
</g>
<!-- Node23 -->
<g id="node23" class="node">
<title>Node23</title>
<g id="a_node23"><a xlink:href="location_8h.html" target="_top" xlink:title=" ">
<polygon fill="none" stroke="black" points="563.5,-174 563.5,-193 680.5,-193 680.5,-174 563.5,-174"/>
<text text-anchor="middle" x="622" y="-181" font-family="Helvetica,sans-Serif" font-size="10.00">WillyWeather/location.h</text>
</a>
</g>
</g>
<!-- Node22&#45;&gt;Node23 -->
<g id="edge48" class="edge">
<title>Node22&#45;&gt;Node23</title>
<path fill="none" stroke="midnightblue" d="M898.5,-235.5C847.46,-226.66 765.59,-212.29 695,-199 688.26,-197.73 681.18,-196.37 674.18,-195"/>
<polygon fill="midnightblue" stroke="midnightblue" points="674.54,-191.5 664.05,-193 673.18,-198.37 674.54,-191.5"/>
</g>
<!-- Node24 -->
<g id="node24" class="node">
<title>Node24</title>
<g id="a_node24"><a xlink:href="forecast_8h.html" target="_top" xlink:title=" ">
<polygon fill="none" stroke="black" points="888.5,-174 888.5,-193 1007.5,-193 1007.5,-174 888.5,-174"/>
<text text-anchor="middle" x="948" y="-181" font-family="Helvetica,sans-Serif" font-size="10.00">WillyWeather/forecast.h</text>
</a>
</g>
</g>
<!-- Node22&#45;&gt;Node24 -->
<g id="edge58" class="edge">
<title>Node22&#45;&gt;Node24</title>
<path fill="none" stroke="midnightblue" d="M948,-235.48C948,-227.08 948,-213.98 948,-203.16"/>
<polygon fill="midnightblue" stroke="midnightblue" points="951.5,-203.01 948,-193.01 944.5,-203.01 951.5,-203.01"/>
</g>
<!-- Node23&#45;&gt;Node3 -->
<g id="edge50" class="edge">
<title>Node23&#45;&gt;Node3</title>
<path fill="none" stroke="midnightblue" d="M563.14,-181.28C512.37,-177.73 438.93,-166.37 385,-132 366.99,-120.52 353.17,-99.94 344.86,-85.01"/>
<polygon fill="midnightblue" stroke="midnightblue" points="347.76,-82.99 340.02,-75.75 341.56,-86.24 347.76,-82.99"/>
</g>
<!-- Node23&#45;&gt;Node4 -->
<g id="edge51" class="edge">
<title>Node23&#45;&gt;Node4</title>
<path fill="none" stroke="midnightblue" d="M638.4,-173.87C659.68,-161.44 692.68,-137.2 680,-112 658.17,-68.6 607.88,-39.15 574.96,-23.73"/>
<polygon fill="midnightblue" stroke="midnightblue" points="576.31,-20.5 565.76,-19.57 573.43,-26.88 576.31,-20.5"/>
</g>
<!-- Node23&#45;&gt;Node5 -->
<g id="edge54" class="edge">
<title>Node23&#45;&gt;Node5</title>
<path fill="none" stroke="midnightblue" d="M680.73,-176.4C777.67,-166.14 967.01,-145.27 1033,-132 1065.14,-125.54 1072.05,-119.33 1104,-112 1178.41,-94.92 1266.43,-80.5 1316.28,-72.86"/>
<polygon fill="midnightblue" stroke="midnightblue" points="1316.96,-76.3 1326.33,-71.33 1315.91,-69.38 1316.96,-76.3"/>
</g>
<!-- Node23&#45;&gt;Node8 -->
<g id="edge55" class="edge">
<title>Node23&#45;&gt;Node8</title>
<path fill="none" stroke="midnightblue" d="M639.79,-173.98C670.71,-159.46 736.67,-129.77 795,-112 861.19,-91.83 941.48,-77.79 983.39,-71.22"/>
<polygon fill="midnightblue" stroke="midnightblue" points="984.07,-74.66 993.43,-69.68 983.01,-67.74 984.07,-74.66"/>
</g>
<!-- Node23&#45;&gt;Node13 -->
<g id="edge49" class="edge">
<title>Node23&#45;&gt;Node13</title>
<path fill="none" stroke="midnightblue" d="M563.46,-177.79C502.82,-171.55 414.01,-158.14 393,-132 377.28,-112.43 405.25,-92.57 429.49,-80.04"/>
<polygon fill="midnightblue" stroke="midnightblue" points="431.07,-83.16 438.5,-75.61 427.98,-76.88 431.07,-83.16"/>
</g>
<!-- Node23&#45;&gt;Node14 -->
<g id="edge52" class="edge">
<title>Node23&#45;&gt;Node14</title>
<path fill="none" stroke="midnightblue" d="M676.3,-173.98C755.99,-161.46 902.23,-138.51 967.74,-128.22"/>
<polygon fill="midnightblue" stroke="midnightblue" points="968.56,-131.64 977.9,-126.63 967.48,-124.72 968.56,-131.64"/>
</g>
<!-- Node23&#45;&gt;Node15 -->
<g id="edge53" class="edge">
<title>Node23&#45;&gt;Node15</title>
<path fill="none" stroke="midnightblue" d="M664.22,-173.93C710.99,-164.3 788.59,-147.93 855,-132 888.96,-123.85 897,-120.01 931,-112 987.04,-98.8 1051.72,-85.59 1095.59,-76.93"/>
<polygon fill="midnightblue" stroke="midnightblue" points="1096.31,-80.35 1105.45,-74.99 1094.96,-73.49 1096.31,-80.35"/>
</g>
<!-- Node23&#45;&gt;Node17 -->
<g id="edge57" class="edge">
<title>Node23&#45;&gt;Node17</title>
<path fill="none" stroke="midnightblue" d="M651.08,-173.98C689.03,-162.85 755.13,-143.48 794,-132.09"/>
<polygon fill="midnightblue" stroke="midnightblue" points="795.11,-135.41 803.72,-129.24 793.14,-128.69 795.11,-135.41"/>
</g>
<!-- Node23&#45;&gt;Node21 -->
<g id="edge56" class="edge">
<title>Node23&#45;&gt;Node21</title>
<path fill="none" stroke="midnightblue" d="M619.28,-173.98C616.57,-165.49 612.33,-152.2 608.85,-141.32"/>
<polygon fill="midnightblue" stroke="midnightblue" points="612.09,-139.97 605.72,-131.51 605.43,-142.1 612.09,-139.97"/>
</g>
<!-- Node25&#45;&gt;Node5 -->
<g id="edge61" class="edge">
<title>Node25&#45;&gt;Node5</title>
<path fill="none" stroke="midnightblue" d="M1523.47,-173.63C1528.51,-159.11 1535.84,-130.09 1522,-112 1506.76,-92.08 1440.01,-78.92 1395.93,-72.23"/>
<polygon fill="midnightblue" stroke="midnightblue" points="1396.21,-68.73 1385.81,-70.75 1395.2,-75.66 1396.21,-68.73"/>
</g>
<!-- Node25&#45;&gt;Node8 -->
<g id="edge64" class="edge">
<title>Node25&#45;&gt;Node8</title>
<path fill="none" stroke="midnightblue" d="M1494.8,-173.97C1451.51,-159.56 1360.05,-130.2 1281,-112 1194.38,-92.06 1090.15,-77.16 1040.71,-70.64"/>
<polygon fill="midnightblue" stroke="midnightblue" points="1041.11,-67.16 1030.74,-69.34 1040.21,-74.1 1041.11,-67.16"/>
</g>
<!-- Node25&#45;&gt;Node11 -->
<g id="edge63" class="edge">
<title>Node25&#45;&gt;Node11</title>
<path fill="none" stroke="midnightblue" d="M1529.07,-173.76C1557.53,-146.35 1645.28,-61.79 1681.8,-26.61"/>
<polygon fill="midnightblue" stroke="midnightblue" points="1684.38,-28.98 1689.16,-19.52 1679.53,-23.94 1684.38,-28.98"/>
</g>
<!-- Node25&#45;&gt;Node15 -->
<g id="edge62" class="edge">
<title>Node25&#45;&gt;Node15</title>
<path fill="none" stroke="midnightblue" d="M1518.31,-173.87C1514.82,-158.61 1505.32,-127.08 1484,-112 1461.17,-95.85 1287.49,-78.95 1198.79,-71.26"/>
<polygon fill="midnightblue" stroke="midnightblue" points="1198.93,-67.76 1188.67,-70.39 1198.33,-74.74 1198.93,-67.76"/>
</g>
<!-- Node25&#45;&gt;Node17 -->
<g id="edge65" class="edge">
<title>Node25&#45;&gt;Node17</title>
<path fill="none" stroke="midnightblue" d="M1460.41,-176.3C1434.22,-173.63 1403.09,-170.55 1375,-168 1177.79,-150.07 940.5,-131.76 856.41,-125.37"/>
<polygon fill="midnightblue" stroke="midnightblue" points="856.48,-121.87 846.25,-124.6 855.95,-128.85 856.48,-121.87"/>
</g>
<!-- Node26&#45;&gt;Node5 -->
<g id="edge67" class="edge">
<title>Node26&#45;&gt;Node5</title>
<path fill="none" stroke="midnightblue" d="M1428.7,-240.15C1485.59,-234.91 1568.28,-223.27 1588,-199 1596.69,-188.31 1592.78,-180.92 1588,-168 1560.25,-92.99 1454.62,-73.59 1395.93,-68.64"/>
<polygon fill="midnightblue" stroke="midnightblue" points="1396.12,-65.14 1385.89,-67.89 1395.61,-72.12 1396.12,-65.14"/>
</g>
<!-- Node26&#45;&gt;Node8 -->
<g id="edge71" class="edge">
<title>Node26&#45;&gt;Node8</title>
<path fill="none" stroke="midnightblue" d="M1329.34,-235.44C1303.05,-228.71 1269.96,-217.34 1245,-199 1206.1,-170.42 1219.96,-139.07 1180,-112 1137.07,-82.92 1076.13,-72.6 1040.67,-68.96"/>
<polygon fill="midnightblue" stroke="midnightblue" points="1040.81,-65.46 1030.53,-68.04 1040.17,-72.43 1040.81,-65.46"/>
</g>
<!-- Node26&#45;&gt;Node11 -->
<g id="edge70" class="edge">
<title>Node26&#45;&gt;Node11</title>
<path fill="none" stroke="midnightblue" d="M1428.75,-241.36C1528.48,-236.07 1729.05,-222.6 1750,-199 1792.19,-151.47 1776.42,-113.8 1750,-56 1744.22,-43.36 1732.95,-32.91 1722.37,-25.27"/>
<polygon fill="midnightblue" stroke="midnightblue" points="1724.04,-22.18 1713.78,-19.53 1720.15,-28 1724.04,-22.18"/>
</g>
<!-- Node26&#45;&gt;Node14 -->
<g id="edge69" class="edge">
<title>Node26&#45;&gt;Node14</title>
<path fill="none" stroke="midnightblue" d="M1339.8,-235.48C1307.1,-226.91 1255.82,-213 1212,-199 1147.58,-178.43 1073.45,-150.79 1032.44,-135.14"/>
<polygon fill="midnightblue" stroke="midnightblue" points="1033.58,-131.83 1022.99,-131.52 1031.08,-138.37 1033.58,-131.83"/>
</g>
<!-- Node26&#45;&gt;Node15 -->
<g id="edge68" class="edge">
<title>Node26&#45;&gt;Node15</title>
<path fill="none" stroke="midnightblue" d="M1375.58,-235.1C1379.35,-220.41 1384.88,-190.48 1375,-168 1360.19,-134.31 1346.25,-129.74 1314,-112 1278.12,-92.26 1233.07,-80.78 1198.8,-74.36"/>
<polygon fill="midnightblue" stroke="midnightblue" points="1199,-70.84 1188.54,-72.53 1197.77,-77.73 1199,-70.84"/>
</g>
<!-- Node26&#45;&gt;Node17 -->
<g id="edge73" class="edge">
<title>Node26&#45;&gt;Node17</title>
<path fill="none" stroke="midnightblue" d="M1317.37,-241.91C1170.92,-236.13 784.63,-219.06 766,-199 756.62,-188.9 759.89,-180.35 766,-168 772.6,-154.66 785.26,-144.19 797.17,-136.73"/>
<polygon fill="midnightblue" stroke="midnightblue" points="799.12,-139.64 806.02,-131.6 795.61,-133.59 799.12,-139.64"/>
</g>
<!-- Node26&#45;&gt;Node25 -->
<g id="edge72" class="edge">
<title>Node26&#45;&gt;Node25</title>
<path fill="none" stroke="midnightblue" d="M1394.06,-235.48C1419.06,-225.36 1460.94,-208.4 1489.49,-196.85"/>
<polygon fill="midnightblue" stroke="midnightblue" points="1491.02,-200.01 1498.98,-193.01 1488.39,-193.52 1491.02,-200.01"/>
</g>
<!-- Node27&#45;&gt;Node5 -->
<g id="edge75" class="edge">
<title>Node27&#45;&gt;Node5</title>
<path fill="none" stroke="midnightblue" d="M1316.38,-168.44C1320.89,-158.36 1327.01,-144.42 1332,-132 1338.24,-116.48 1344.78,-98.64 1349.46,-85.58"/>
<polygon fill="midnightblue" stroke="midnightblue" points="1352.85,-86.49 1352.9,-75.89 1346.25,-84.15 1352.85,-86.49"/>
</g>
<!-- Node27&#45;&gt;Node8 -->
<g id="edge78" class="edge">
<title>Node27&#45;&gt;Node8</title>
<path fill="none" stroke="midnightblue" d="M1303.23,-168.32C1294.63,-151.98 1278.22,-125.61 1256,-112 1237.77,-100.83 1101.01,-79.91 1040.57,-71.09"/>
<polygon fill="midnightblue" stroke="midnightblue" points="1040.95,-67.61 1030.55,-69.64 1039.95,-74.54 1040.95,-67.61"/>
</g>
<!-- Node27&#45;&gt;Node11 -->
<g id="edge77" class="edge">
<title>Node27&#45;&gt;Node11</title>
<path fill="none" stroke="midnightblue" d="M1341.75,-168.47C1415.73,-135.76 1598.66,-54.91 1669.42,-23.63"/>
<polygon fill="midnightblue" stroke="midnightblue" points="1670.9,-26.8 1678.63,-19.56 1668.07,-20.4 1670.9,-26.8"/>
</g>
<!-- Node27&#45;&gt;Node15 -->
<g id="edge76" class="edge">
<title>Node27&#45;&gt;Node15</title>
<path fill="none" stroke="midnightblue" d="M1310.71,-168.43C1310.73,-152.68 1308.26,-127.36 1294,-112 1269.66,-85.79 1230.53,-74.69 1198.75,-70.06"/>
<polygon fill="midnightblue" stroke="midnightblue" points="1199.09,-66.58 1188.73,-68.78 1198.2,-73.52 1199.09,-66.58"/>
</g>
<!-- Node27&#45;&gt;Node17 -->
<g id="edge79" class="edge">
<title>Node27&#45;&gt;Node17</title>
<path fill="none" stroke="midnightblue" d="M1253.89,-175.62C1151.28,-163.03 936.54,-136.68 856.21,-126.83"/>
<polygon fill="midnightblue" stroke="midnightblue" points="856.58,-123.35 846.23,-125.6 855.73,-130.3 856.58,-123.35"/>
</g>
<!-- Node28&#45;&gt;Node3 -->
<g id="edge81" class="edge">
<title>Node28&#45;&gt;Node3</title>
<path fill="none" stroke="midnightblue" d="M161.07,-173.82C168.41,-159.05 185.24,-128.99 208,-112 236.12,-91.01 274.86,-79.21 302.33,-73.01"/>
<polygon fill="midnightblue" stroke="midnightblue" points="303.21,-76.4 312.26,-70.9 301.76,-69.56 303.21,-76.4"/>
</g>
<!-- Node28&#45;&gt;Node4 -->
<g id="edge82" class="edge">
<title>Node28&#45;&gt;Node4</title>
<path fill="none" stroke="midnightblue" d="M158.23,-173.58C160.68,-158.99 167.41,-129.86 184,-112 223.77,-69.17 247.37,-73.95 303,-56 375.34,-32.65 464.03,-19.98 511.06,-14.45"/>
<polygon fill="midnightblue" stroke="midnightblue" points="511.73,-17.9 521.26,-13.29 510.93,-10.94 511.73,-17.9"/>
</g>
<!-- Node28&#45;&gt;Node6 -->
<g id="edge83" class="edge">
<title>Node28&#45;&gt;Node6</title>
<path fill="none" stroke="midnightblue" d="M147.69,-173.98C137.55,-164.7 121.14,-149.67 108.75,-138.33"/>
<polygon fill="midnightblue" stroke="midnightblue" points="111.04,-135.68 101.3,-131.51 106.31,-140.84 111.04,-135.68"/>
</g>
<!-- Node28&#45;&gt;Node13 -->
<g id="edge84" class="edge">
<title>Node28&#45;&gt;Node13</title>
<path fill="none" stroke="midnightblue" d="M169.8,-173.93C192.11,-159.35 239.96,-129.55 284,-112 331.34,-93.13 389.08,-80.09 424.95,-73.08"/>
<polygon fill="midnightblue" stroke="midnightblue" points="425.73,-76.49 434.9,-71.18 424.42,-69.61 425.73,-76.49"/>
</g>
<!-- Node28&#45;&gt;Node17 -->
<g id="edge85" class="edge">
<title>Node28&#45;&gt;Node17</title>
<path fill="none" stroke="midnightblue" d="M200.06,-178.66C324.89,-167.55 684.98,-135.47 793.61,-125.8"/>
<polygon fill="midnightblue" stroke="midnightblue" points="794.24,-129.25 803.89,-124.88 793.62,-122.28 794.24,-129.25"/>
</g>
</g>
</svg>
