<?xml version="1.0" encoding="UTF-8" standalone="no"?>
<!DOCTYPE svg PUBLIC "-//W3C//DTD SVG 1.1//EN"
 "http://www.w3.org/Graphics/SVG/1.1/DTD/svg11.dtd">
<!-- Generated by graphviz version 2.49.3 (20211027.1534)
 -->
<!-- Title: src/main.c Pages: 1 -->
<svg width="1138pt" height="319pt"
 viewBox="0.00 0.00 1137.61 319.00" xmlns="http://www.w3.org/2000/svg" xmlns:xlink="http://www.w3.org/1999/xlink">
<g id="graph0" class="graph" transform="scale(1 1) rotate(0) translate(4 315)">
<title>src/main.c</title>
<!-- Node1 -->
<g id="node1" class="node">
<title>Node1</title>
<g id="a_node1"><a xlink:title=" ">
<polygon fill="#bfbfbf" stroke="black" points="443.11,-291.5 443.11,-310.5 505.11,-310.5 505.11,-291.5 443.11,-291.5"/>
<text text-anchor="middle" x="474.11" y="-298.5" font-family="Helvetica,sans-Serif" font-size="10.00">src/main.c</text>
</a>
</g>
</g>
<!-- Node2 -->
<g id="node2" class="node">
<title>Node2</title>
<g id="a_node2"><a xlink:href="main_8h.html" target="_top" xlink:title=" ">
<polygon fill="none" stroke="black" points="451.61,-235.5 451.61,-254.5 496.61,-254.5 496.61,-235.5 451.61,-235.5"/>
<text text-anchor="middle" x="474.11" y="-242.5" font-family="Helvetica,sans-Serif" font-size="10.00">main.h</text>
</a>
</g>
</g>
<!-- Node1&#45;&gt;Node2 -->
<g id="edge1" class="edge">
<title>Node1&#45;&gt;Node2</title>
<path fill="none" stroke="midnightblue" d="M474.11,-291.08C474.11,-284.01 474.11,-273.86 474.11,-264.99"/>
<polygon fill="midnightblue" stroke="midnightblue" points="477.61,-264.75 474.11,-254.75 470.61,-264.75 477.61,-264.75"/>
</g>
<!-- Node3 -->
<g id="node3" class="node">
<title>Node3</title>
<g id="a_node3"><a xlink:title=" ">
<polygon fill="none" stroke="#bfbfbf" points="920.61,-0.5 920.61,-19.5 967.61,-19.5 967.61,-0.5 920.61,-0.5"/>
<text text-anchor="middle" x="944.11" y="-7.5" font-family="Helvetica,sans-Serif" font-size="10.00">stdlib.h</text>
</a>
</g>
</g>
<!-- Node2&#45;&gt;Node3 -->
<g id="edge2" class="edge">
<title>Node2&#45;&gt;Node3</title>
<path fill="none" stroke="midnightblue" d="M496.87,-243.01C576,-239.36 838.53,-225.5 918.11,-199 963.88,-183.75 987.37,-185 1011.11,-143 1020.66,-126.09 1002.89,-58.98 1001.11,-56 993.49,-43.28 980.85,-32.76 969.4,-25.09"/>
<polygon fill="midnightblue" stroke="midnightblue" points="970.93,-21.91 960.6,-19.57 967.21,-27.84 970.93,-21.91"/>
</g>
<!-- Node4 -->
<g id="node4" class="node">
<title>Node4</title>
<g id="a_node4"><a xlink:title=" ">
<polygon fill="none" stroke="#bfbfbf" points="1084.61,-0.5 1084.61,-19.5 1129.61,-19.5 1129.61,-0.5 1084.61,-0.5"/>
<text text-anchor="middle" x="1107.11" y="-7.5" font-family="Helvetica,sans-Serif" font-size="10.00">stdio.h</text>
</a>
</g>
</g>
<!-- Node2&#45;&gt;Node4 -->
<g id="edge3" class="edge">
<title>Node2&#45;&gt;Node4</title>
<path fill="none" stroke="midnightblue" d="M496.61,-243.73C580.64,-242.42 875.63,-235.31 961.11,-199 1037.22,-166.67 1083.55,-70 1100.15,-29.34"/>
<polygon fill="midnightblue" stroke="midnightblue" points="1103.48,-30.46 1103.89,-19.87 1096.97,-27.89 1103.48,-30.46"/>
</g>
<!-- Node5 -->
<g id="node5" class="node">
<title>Node5</title>
<g id="a_node5"><a xlink:title=" ">
<polygon fill="none" stroke="#bfbfbf" points="168.61,-0.5 168.61,-19.5 227.61,-19.5 227.61,-0.5 168.61,-0.5"/>
<text text-anchor="middle" x="198.11" y="-7.5" font-family="Helvetica,sans-Serif" font-size="10.00">curl/curl.h</text>
</a>
</g>
</g>
<!-- Node2&#45;&gt;Node5 -->
<g id="edge4" class="edge">
<title>Node2&#45;&gt;Node5</title>
<path fill="none" stroke="midnightblue" d="M451.41,-242.69C366.19,-237.26 67.33,-213.39 11.11,-143 -14.33,-111.15 8.55,-81.79 40.11,-56 73.83,-28.44 123.54,-17.75 158.16,-13.6"/>
<polygon fill="midnightblue" stroke="midnightblue" points="158.82,-17.06 168.39,-12.52 158.08,-10.09 158.82,-17.06"/>
</g>
<!-- Node6 -->
<g id="node6" class="node">
<title>Node6</title>
<g id="a_node6"><a xlink:href="ubidots_8h.html" target="_top" xlink:title=" ">
<polygon fill="none" stroke="black" points="428.11,-118 428.11,-137 520.11,-137 520.11,-118 428.11,-118"/>
<text text-anchor="middle" x="474.11" y="-125" font-family="Helvetica,sans-Serif" font-size="10.00">Ubidots/ubidots.h</text>
</a>
</g>
</g>
<!-- Node2&#45;&gt;Node6 -->
<g id="edge5" class="edge">
<title>Node2&#45;&gt;Node6</title>
<path fill="none" stroke="midnightblue" d="M474.11,-235.32C474.11,-216.76 474.11,-172.84 474.11,-147.47"/>
<polygon fill="midnightblue" stroke="midnightblue" points="477.61,-147.28 474.11,-137.28 470.61,-147.28 477.61,-147.28"/>
</g>
<!-- Node13 -->
<g id="node13" class="node">
<title>Node13</title>
<g id="a_node13"><a xlink:href="_willy_weather_2authenticate_8h.html" target="_top" xlink:title=" ">
<polygon fill="none" stroke="black" points="740.61,-56.5 740.61,-75.5 877.61,-75.5 877.61,-56.5 740.61,-56.5"/>
<text text-anchor="middle" x="809.11" y="-63.5" font-family="Helvetica,sans-Serif" font-size="10.00">WillyWeather/authenticate.h</text>
</a>
</g>
</g>
<!-- Node2&#45;&gt;Node13 -->
<g id="edge17" class="edge">
<title>Node2&#45;&gt;Node13</title>
<path fill="none" stroke="midnightblue" d="M496.63,-243.25C587.91,-239.72 928.52,-221.36 993.11,-143 1027.22,-101.61 952.35,-82.47 888.09,-73.82"/>
<polygon fill="midnightblue" stroke="midnightblue" points="888.25,-70.31 877.89,-72.52 887.37,-77.25 888.25,-70.31"/>
</g>
<!-- Node14 -->
<g id="node14" class="node">
<title>Node14</title>
<g id="a_node14"><a xlink:href="tide_8h.html" target="_top" xlink:title=" ">
<polygon fill="none" stroke="black" points="574.61,-179.5 574.61,-198.5 673.61,-198.5 673.61,-179.5 574.61,-179.5"/>
<text text-anchor="middle" x="624.11" y="-186.5" font-family="Helvetica,sans-Serif" font-size="10.00">WillyWeather/tide.h</text>
</a>
</g>
</g>
<!-- Node2&#45;&gt;Node14 -->
<g id="edge23" class="edge">
<title>Node2&#45;&gt;Node14</title>
<path fill="none" stroke="midnightblue" d="M496.89,-235.8C521.81,-226.83 562.02,-212.35 590.55,-202.08"/>
<polygon fill="midnightblue" stroke="midnightblue" points="591.89,-205.32 600.12,-198.64 589.52,-198.73 591.89,-205.32"/>
</g>
<!-- Node19 -->
<g id="node19" class="node">
<title>Node19</title>
<g id="a_node19"><a xlink:href="_i_b_m___e_i_s_2authenticate_8h.html" target="_top" xlink:title=" ">
<polygon fill="none" stroke="black" points="161.61,-118 161.61,-137 280.61,-137 280.61,-118 161.61,-118"/>
<text text-anchor="middle" x="221.11" y="-125" font-family="Helvetica,sans-Serif" font-size="10.00">IBM_EIS/authenticate.h</text>
</a>
</g>
</g>
<!-- Node2&#45;&gt;Node19 -->
<g id="edge42" class="edge">
<title>Node2&#45;&gt;Node19</title>
<path fill="none" stroke="midnightblue" d="M455.09,-235.32C410.93,-215.16 301.28,-165.1 249.3,-141.37"/>
<polygon fill="midnightblue" stroke="midnightblue" points="250.55,-138.09 240,-137.12 247.64,-144.46 250.55,-138.09"/>
</g>
<!-- Node20 -->
<g id="node20" class="node">
<title>Node20</title>
<g id="a_node20"><a xlink:href="timeseries_8h.html" target="_top" xlink:title=" ">
<polygon fill="none" stroke="black" points="298.61,-118 298.61,-137 409.61,-137 409.61,-118 298.61,-118"/>
<text text-anchor="middle" x="354.11" y="-125" font-family="Helvetica,sans-Serif" font-size="10.00">IBM_EIS/timeseries.h</text>
</a>
</g>
</g>
<!-- Node2&#45;&gt;Node20 -->
<g id="edge47" class="edge">
<title>Node2&#45;&gt;Node20</title>
<path fill="none" stroke="midnightblue" d="M465.09,-235.32C445.02,-216 396.43,-169.24 370.71,-144.48"/>
<polygon fill="midnightblue" stroke="midnightblue" points="372.86,-141.7 363.23,-137.28 368.01,-146.74 372.86,-141.7"/>
</g>
<!-- Node21 -->
<g id="node21" class="node">
<title>Node21</title>
<g id="a_node21"><a xlink:href="food__auth_8h.html" target="_top" xlink:title=" ">
<polygon fill="none" stroke="black" points="45.11,-112.5 45.11,-142.5 143.11,-142.5 143.11,-112.5 45.11,-112.5"/>
<text text-anchor="start" x="53.11" y="-130.5" font-family="Helvetica,sans-Serif" font-size="10.00">FoodAuthority/food</text>
<text text-anchor="middle" x="94.11" y="-119.5" font-family="Helvetica,sans-Serif" font-size="10.00">_auth.h</text>
</a>
</g>
</g>
<!-- Node2&#45;&gt;Node21 -->
<g id="edge53" class="edge">
<title>Node2&#45;&gt;Node21</title>
<path fill="none" stroke="midnightblue" d="M451.47,-237.12C392.92,-219.32 235.09,-171.35 150.1,-145.52"/>
<polygon fill="midnightblue" stroke="midnightblue" points="150.95,-142.12 140.36,-142.56 148.91,-148.82 150.95,-142.12"/>
</g>
<!-- Node6&#45;&gt;Node5 -->
<g id="edge7" class="edge">
<title>Node6&#45;&gt;Node5</title>
<path fill="none" stroke="midnightblue" d="M451.8,-118C426.18,-108.16 382.93,-91.34 346.11,-76 304.21,-58.54 256.19,-37.2 226.5,-23.85"/>
<polygon fill="midnightblue" stroke="midnightblue" points="227.72,-20.56 217.17,-19.65 224.84,-26.95 227.72,-20.56"/>
</g>
<!-- Node7 -->
<g id="node7" class="node">
<title>Node7</title>
<g id="a_node7"><a xlink:title=" ">
<polygon fill="none" stroke="#bfbfbf" points="688.11,-0.5 688.11,-19.5 736.11,-19.5 736.11,-0.5 688.11,-0.5"/>
<text text-anchor="middle" x="712.11" y="-7.5" font-family="Helvetica,sans-Serif" font-size="10.00">string.h</text>
</a>
</g>
</g>
<!-- Node6&#45;&gt;Node7 -->
<g id="edge6" class="edge">
<title>Node6&#45;&gt;Node7</title>
<path fill="none" stroke="midnightblue" d="M486.65,-117.87C507.61,-103.69 551.37,-75.15 591.11,-56 619.68,-42.23 653.63,-29.93 678.29,-21.69"/>
<polygon fill="midnightblue" stroke="midnightblue" points="679.51,-24.97 687.91,-18.52 677.32,-18.32 679.51,-24.97"/>
</g>
<!-- Node8 -->
<g id="node8" class="node">
<title>Node8</title>
<g id="a_node8"><a xlink:title=" ">
<polygon fill="none" stroke="#bfbfbf" points="470.61,-0.5 470.61,-19.5 553.61,-19.5 553.61,-0.5 470.61,-0.5"/>
<text text-anchor="middle" x="512.11" y="-7.5" font-family="Helvetica,sans-Serif" font-size="10.00">cjson/cJSON.h</text>
</a>
</g>
</g>
<!-- Node6&#45;&gt;Node8 -->
<g id="edge8" class="edge">
<title>Node6&#45;&gt;Node8</title>
<path fill="none" stroke="midnightblue" d="M476.96,-117.82C483.12,-99.09 497.78,-54.55 506.09,-29.29"/>
<polygon fill="midnightblue" stroke="midnightblue" points="509.42,-30.37 509.22,-19.78 502.77,-28.19 509.42,-30.37"/>
</g>
<!-- Node9 -->
<g id="node9" class="node">
<title>Node9</title>
<g id="a_node9"><a xlink:href="utils_8h.html" target="_top" xlink:title=" ">
<polygon fill="none" stroke="black" points="388.11,-56.5 388.11,-75.5 430.11,-75.5 430.11,-56.5 388.11,-56.5"/>
<text text-anchor="middle" x="409.11" y="-63.5" font-family="Helvetica,sans-Serif" font-size="10.00">utils.h</text>
</a>
</g>
</g>
<!-- Node6&#45;&gt;Node9 -->
<g id="edge9" class="edge">
<title>Node6&#45;&gt;Node9</title>
<path fill="none" stroke="midnightblue" d="M464.79,-117.98C454.66,-108.7 438.24,-93.67 425.85,-82.33"/>
<polygon fill="midnightblue" stroke="midnightblue" points="428.14,-79.68 418.4,-75.51 423.42,-84.84 428.14,-79.68"/>
</g>
<!-- Node9&#45;&gt;Node3 -->
<g id="edge10" class="edge">
<title>Node9&#45;&gt;Node3</title>
<path fill="none" stroke="midnightblue" d="M430.41,-62.85C512.54,-54.56 809.06,-24.63 910.1,-14.43"/>
<polygon fill="midnightblue" stroke="midnightblue" points="910.75,-17.88 920.35,-13.4 910.05,-10.92 910.75,-17.88"/>
</g>
<!-- Node9&#45;&gt;Node5 -->
<g id="edge12" class="edge">
<title>Node9&#45;&gt;Node5</title>
<path fill="none" stroke="midnightblue" d="M388.01,-59.57C383.43,-58.39 378.6,-57.15 374.11,-56 327.25,-43.99 273.37,-30.22 237.7,-21.11"/>
<polygon fill="midnightblue" stroke="midnightblue" points="238.25,-17.63 227.69,-18.55 236.52,-24.42 238.25,-17.63"/>
</g>
<!-- Node9&#45;&gt;Node7 -->
<g id="edge11" class="edge">
<title>Node9&#45;&gt;Node7</title>
<path fill="none" stroke="midnightblue" d="M430.41,-61.2C482.11,-51.99 614.59,-28.38 677.69,-17.13"/>
<polygon fill="midnightblue" stroke="midnightblue" points="678.69,-20.51 687.92,-15.31 677.46,-13.62 678.69,-20.51"/>
</g>
<!-- Node9&#45;&gt;Node8 -->
<g id="edge13" class="edge">
<title>Node9&#45;&gt;Node8</title>
<path fill="none" stroke="midnightblue" d="M425.66,-56.32C442.1,-47.7 467.54,-34.36 486.58,-24.39"/>
<polygon fill="midnightblue" stroke="midnightblue" points="488.37,-27.4 495.6,-19.65 485.12,-21.2 488.37,-27.4"/>
</g>
<!-- Node10 -->
<g id="node10" class="node">
<title>Node10</title>
<g id="a_node10"><a xlink:title=" ">
<polygon fill="none" stroke="#bfbfbf" points="310.61,-0.5 310.61,-19.5 369.61,-19.5 369.61,-0.5 310.61,-0.5"/>
<text text-anchor="middle" x="340.11" y="-7.5" font-family="Helvetica,sans-Serif" font-size="10.00">sys/stat.h</text>
</a>
</g>
</g>
<!-- Node9&#45;&gt;Node10 -->
<g id="edge14" class="edge">
<title>Node9&#45;&gt;Node10</title>
<path fill="none" stroke="midnightblue" d="M398.02,-56.32C387.62,-48.18 371.85,-35.84 359.39,-26.09"/>
<polygon fill="midnightblue" stroke="midnightblue" points="361.43,-23.24 351.39,-19.83 357.11,-28.75 361.43,-23.24"/>
</g>
<!-- Node11 -->
<g id="node11" class="node">
<title>Node11</title>
<g id="a_node11"><a xlink:title=" ">
<polygon fill="none" stroke="#bfbfbf" points="387.61,-0.5 387.61,-19.5 452.61,-19.5 452.61,-0.5 387.61,-0.5"/>
<text text-anchor="middle" x="420.11" y="-7.5" font-family="Helvetica,sans-Serif" font-size="10.00">sys/types.h</text>
</a>
</g>
</g>
<!-- Node9&#45;&gt;Node11 -->
<g id="edge15" class="edge">
<title>Node9&#45;&gt;Node11</title>
<path fill="none" stroke="midnightblue" d="M410.92,-56.08C412.38,-48.93 414.48,-38.64 416.3,-29.69"/>
<polygon fill="midnightblue" stroke="midnightblue" points="419.76,-30.25 418.32,-19.75 412.9,-28.85 419.76,-30.25"/>
</g>
<!-- Node12 -->
<g id="node12" class="node">
<title>Node12</title>
<g id="a_node12"><a xlink:title=" ">
<polygon fill="none" stroke="#bfbfbf" points="246.11,-0.5 246.11,-19.5 292.11,-19.5 292.11,-0.5 246.11,-0.5"/>
<text text-anchor="middle" x="269.11" y="-7.5" font-family="Helvetica,sans-Serif" font-size="10.00">errno.h</text>
</a>
</g>
</g>
<!-- Node9&#45;&gt;Node12 -->
<g id="edge16" class="edge">
<title>Node9&#45;&gt;Node12</title>
<path fill="none" stroke="midnightblue" d="M387.84,-56.8C364.78,-47.9 327.71,-33.6 301.12,-23.35"/>
<polygon fill="midnightblue" stroke="midnightblue" points="302.09,-19.97 291.5,-19.64 299.57,-26.5 302.09,-19.97"/>
</g>
<!-- Node13&#45;&gt;Node3 -->
<g id="edge19" class="edge">
<title>Node13&#45;&gt;Node3</title>
<path fill="none" stroke="midnightblue" d="M830.5,-56.44C852.81,-47.52 888.01,-33.44 913.31,-23.32"/>
<polygon fill="midnightblue" stroke="midnightblue" points="914.83,-26.48 922.82,-19.52 912.23,-19.98 914.83,-26.48"/>
</g>
<!-- Node13&#45;&gt;Node4 -->
<g id="edge20" class="edge">
<title>Node13&#45;&gt;Node4</title>
<path fill="none" stroke="midnightblue" d="M856.33,-56.44C917.25,-45.4 1021.68,-26.48 1074.48,-16.91"/>
<polygon fill="midnightblue" stroke="midnightblue" points="1075.11,-20.35 1084.33,-15.13 1073.87,-13.47 1075.11,-20.35"/>
</g>
<!-- Node13&#45;&gt;Node5 -->
<g id="edge22" class="edge">
<title>Node13&#45;&gt;Node5</title>
<path fill="none" stroke="midnightblue" d="M740.51,-60.88C614.35,-53.11 349.06,-35.75 237.79,-19.82"/>
<polygon fill="midnightblue" stroke="midnightblue" points="238.24,-16.35 227.83,-18.34 237.2,-23.28 238.24,-16.35"/>
</g>
<!-- Node13&#45;&gt;Node7 -->
<g id="edge18" class="edge">
<title>Node13&#45;&gt;Node7</title>
<path fill="none" stroke="midnightblue" d="M793.52,-56.32C778.11,-47.74 754.29,-34.49 736.4,-24.52"/>
<polygon fill="midnightblue" stroke="midnightblue" points="738.09,-21.46 727.65,-19.65 734.69,-27.58 738.09,-21.46"/>
</g>
<!-- Node13&#45;&gt;Node8 -->
<g id="edge21" class="edge">
<title>Node13&#45;&gt;Node8</title>
<path fill="none" stroke="midnightblue" d="M762.05,-56.44C708,-46.62 619.61,-30.55 563.72,-20.38"/>
<polygon fill="midnightblue" stroke="midnightblue" points="564.14,-16.9 553.68,-18.56 562.89,-23.79 564.14,-16.9"/>
</g>
<!-- Node14&#45;&gt;Node3 -->
<g id="edge25" class="edge">
<title>Node14&#45;&gt;Node3</title>
<path fill="none" stroke="midnightblue" d="M673.79,-185.54C769.59,-180.3 972.28,-166.52 993.11,-143 1023.36,-108.83 983.43,-54.3 959.59,-27.28"/>
<polygon fill="midnightblue" stroke="midnightblue" points="962.13,-24.86 952.8,-19.82 956.95,-29.57 962.13,-24.86"/>
</g>
<!-- Node14&#45;&gt;Node5 -->
<g id="edge28" class="edge">
<title>Node14&#45;&gt;Node5</title>
<path fill="none" stroke="midnightblue" d="M574.29,-188.04C437.37,-187.63 63.06,-182.84 26.11,-143 -22.25,-90.87 94.4,-43.8 158.88,-22.71"/>
<polygon fill="midnightblue" stroke="midnightblue" points="160.29,-25.93 168.75,-19.55 158.16,-19.27 160.29,-25.93"/>
</g>
<!-- Node14&#45;&gt;Node7 -->
<g id="edge24" class="edge">
<title>Node14&#45;&gt;Node7</title>
<path fill="none" stroke="midnightblue" d="M673.63,-181.21C710.47,-174.82 761.21,-163.14 802.11,-143 823.68,-132.37 876.61,-97.64 887.11,-76 913.94,-20.68 804.92,-11.66 746.65,-10.69"/>
<polygon fill="midnightblue" stroke="midnightblue" points="746.43,-7.19 736.4,-10.59 746.37,-14.19 746.43,-7.19"/>
</g>
<!-- Node14&#45;&gt;Node8 -->
<g id="edge29" class="edge">
<title>Node14&#45;&gt;Node8</title>
<path fill="none" stroke="midnightblue" d="M618.7,-179.46C601.38,-152.08 546.94,-66.05 523.28,-28.65"/>
<polygon fill="midnightblue" stroke="midnightblue" points="526.02,-26.45 517.72,-19.87 520.11,-30.19 526.02,-26.45"/>
</g>
<!-- Node14&#45;&gt;Node9 -->
<g id="edge41" class="edge">
<title>Node14&#45;&gt;Node9</title>
<path fill="none" stroke="midnightblue" d="M614.18,-179.39C593.7,-161.74 547.19,-122.28 529.11,-112 500.54,-95.77 465.01,-83.29 440.05,-75.64"/>
<polygon fill="midnightblue" stroke="midnightblue" points="440.96,-72.26 430.38,-72.75 438.96,-78.96 440.96,-72.26"/>
</g>
<!-- Node14&#45;&gt;Node13 -->
<g id="edge30" class="edge">
<title>Node14&#45;&gt;Node13</title>
<path fill="none" stroke="midnightblue" d="M673.96,-184.78C707.4,-180.16 750.41,-169.13 779.11,-143 795.54,-128.04 803.09,-102.92 806.48,-85.68"/>
<polygon fill="midnightblue" stroke="midnightblue" points="809.96,-86.12 808.16,-75.68 803.06,-84.97 809.96,-86.12"/>
</g>
<!-- Node15 -->
<g id="node15" class="node">
<title>Node15</title>
<g id="a_node15"><a xlink:title=" ">
<polygon fill="none" stroke="#bfbfbf" points="600.11,-56.5 600.11,-75.5 646.11,-75.5 646.11,-56.5 600.11,-56.5"/>
<text text-anchor="middle" x="623.11" y="-63.5" font-family="Helvetica,sans-Serif" font-size="10.00">math.h</text>
</a>
</g>
</g>
<!-- Node14&#45;&gt;Node15 -->
<g id="edge26" class="edge">
<title>Node14&#45;&gt;Node15</title>
<path fill="none" stroke="midnightblue" d="M624.03,-179.3C623.87,-159.85 623.48,-112.49 623.26,-85.9"/>
<polygon fill="midnightblue" stroke="midnightblue" points="626.76,-85.59 623.18,-75.62 619.76,-85.65 626.76,-85.59"/>
</g>
<!-- Node16 -->
<g id="node16" class="node">
<title>Node16</title>
<g id="a_node16"><a xlink:title=" ">
<polygon fill="none" stroke="#bfbfbf" points="98.61,-56.5 98.61,-75.5 141.61,-75.5 141.61,-56.5 98.61,-56.5"/>
<text text-anchor="middle" x="120.11" y="-63.5" font-family="Helvetica,sans-Serif" font-size="10.00">time.h</text>
</a>
</g>
</g>
<!-- Node14&#45;&gt;Node16 -->
<g id="edge27" class="edge">
<title>Node14&#45;&gt;Node16</title>
<path fill="none" stroke="midnightblue" d="M574.15,-187.97C438.73,-187.37 72.33,-182.1 36.11,-143 26.74,-132.89 29.03,-123.82 36.11,-112 47.49,-92.99 69.95,-81.55 88.79,-74.97"/>
<polygon fill="midnightblue" stroke="midnightblue" points="90.04,-78.24 98.51,-71.87 87.91,-71.57 90.04,-78.24"/>
</g>
<!-- Node17 -->
<g id="node17" class="node">
<title>Node17</title>
<g id="a_node17"><a xlink:href="location_8h.html" target="_top" xlink:title=" ">
<polygon fill="none" stroke="black" points="652.61,-118 652.61,-137 769.61,-137 769.61,-118 652.61,-118"/>
<text text-anchor="middle" x="711.11" y="-125" font-family="Helvetica,sans-Serif" font-size="10.00">WillyWeather/location.h</text>
</a>
</g>
</g>
<!-- Node14&#45;&gt;Node17 -->
<g id="edge31" class="edge">
<title>Node14&#45;&gt;Node17</title>
<path fill="none" stroke="midnightblue" d="M636.57,-179.48C650.53,-169.93 673.37,-154.31 690.1,-142.87"/>
<polygon fill="midnightblue" stroke="midnightblue" points="692.39,-145.54 698.66,-137.01 688.43,-139.77 692.39,-145.54"/>
</g>
<!-- Node18 -->
<g id="node18" class="node">
<title>Node18</title>
<g id="a_node18"><a xlink:href="forecast_8h.html" target="_top" xlink:title=" ">
<polygon fill="none" stroke="black" points="864.61,-118 864.61,-137 983.61,-137 983.61,-118 864.61,-118"/>
<text text-anchor="middle" x="924.11" y="-125" font-family="Helvetica,sans-Serif" font-size="10.00">WillyWeather/forecast.h</text>
</a>
</g>
</g>
<!-- Node14&#45;&gt;Node18 -->
<g id="edge40" class="edge">
<title>Node14&#45;&gt;Node18</title>
<path fill="none" stroke="midnightblue" d="M667.09,-179.48C720.89,-168.8 813.01,-150.53 871.12,-139.01"/>
<polygon fill="midnightblue" stroke="midnightblue" points="872.08,-142.39 881.2,-137.01 870.71,-135.52 872.08,-142.39"/>
</g>
<!-- Node17&#45;&gt;Node3 -->
<g id="edge33" class="edge">
<title>Node17&#45;&gt;Node3</title>
<path fill="none" stroke="midnightblue" d="M769.63,-118.33C805.64,-111.29 851.54,-98.56 887.11,-76 906.45,-63.74 922.98,-43 933.18,-28.25"/>
<polygon fill="midnightblue" stroke="midnightblue" points="936.33,-29.84 938.94,-19.57 930.5,-25.97 936.33,-29.84"/>
</g>
<!-- Node17&#45;&gt;Node4 -->
<g id="edge34" class="edge">
<title>Node17&#45;&gt;Node4</title>
<path fill="none" stroke="midnightblue" d="M748.75,-117.94C789.31,-108.51 855.63,-92.48 912.11,-76 969.97,-59.11 1036.36,-36.21 1074.85,-22.59"/>
<polygon fill="midnightblue" stroke="midnightblue" points="1076.22,-25.81 1084.47,-19.17 1073.87,-19.22 1076.22,-25.81"/>
</g>
<!-- Node17&#45;&gt;Node5 -->
<g id="edge37" class="edge">
<title>Node17&#45;&gt;Node5</title>
<path fill="none" stroke="midnightblue" d="M652.33,-122.95C585.02,-117.65 472.05,-105 379.11,-76 359.75,-69.96 356.92,-63.57 338.11,-56 304.88,-42.64 266.03,-30.41 237.7,-22.08"/>
<polygon fill="midnightblue" stroke="midnightblue" points="238.35,-18.62 227.77,-19.2 236.39,-25.35 238.35,-18.62"/>
</g>
<!-- Node17&#45;&gt;Node7 -->
<g id="edge32" class="edge">
<title>Node17&#45;&gt;Node7</title>
<path fill="none" stroke="midnightblue" d="M711.18,-117.82C711.34,-99.26 711.72,-55.34 711.94,-29.97"/>
<polygon fill="midnightblue" stroke="midnightblue" points="715.44,-29.81 712.03,-19.78 708.44,-29.75 715.44,-29.81"/>
</g>
<!-- Node17&#45;&gt;Node8 -->
<g id="edge36" class="edge">
<title>Node17&#45;&gt;Node8</title>
<path fill="none" stroke="midnightblue" d="M706.48,-117.74C698.17,-102.86 679.32,-72.65 655.11,-56 627.86,-37.27 592.45,-26.05 563.68,-19.5"/>
<polygon fill="midnightblue" stroke="midnightblue" points="564.32,-16.05 553.8,-17.37 562.84,-22.9 564.32,-16.05"/>
</g>
<!-- Node17&#45;&gt;Node9 -->
<g id="edge39" class="edge">
<title>Node17&#45;&gt;Node9</title>
<path fill="none" stroke="midnightblue" d="M667.84,-117.98C606.22,-105.83 494.65,-83.85 440.41,-73.17"/>
<polygon fill="midnightblue" stroke="midnightblue" points="440.84,-69.69 430.36,-71.19 439.49,-76.55 440.84,-69.69"/>
</g>
<!-- Node17&#45;&gt;Node13 -->
<g id="edge38" class="edge">
<title>Node17&#45;&gt;Node13</title>
<path fill="none" stroke="midnightblue" d="M725.15,-117.98C741.16,-108.25 767.56,-92.23 786.48,-80.74"/>
<polygon fill="midnightblue" stroke="midnightblue" points="788.36,-83.69 795.09,-75.51 784.73,-77.71 788.36,-83.69"/>
</g>
<!-- Node17&#45;&gt;Node15 -->
<g id="edge35" class="edge">
<title>Node17&#45;&gt;Node15</title>
<path fill="none" stroke="midnightblue" d="M698.5,-117.98C684.38,-108.43 661.28,-92.81 644.36,-81.37"/>
<polygon fill="midnightblue" stroke="midnightblue" points="645.94,-78.21 635.69,-75.51 642.02,-84.01 645.94,-78.21"/>
</g>
<!-- Node19&#45;&gt;Node5 -->
<g id="edge43" class="edge">
<title>Node19&#45;&gt;Node5</title>
<path fill="none" stroke="midnightblue" d="M214.69,-117.75C208.04,-108.09 198.07,-91.82 194.11,-76 190.28,-60.73 191.8,-42.85 193.98,-29.71"/>
<polygon fill="midnightblue" stroke="midnightblue" points="197.48,-30.05 195.95,-19.57 190.61,-28.71 197.48,-30.05"/>
</g>
<!-- Node19&#45;&gt;Node8 -->
<g id="edge44" class="edge">
<title>Node19&#45;&gt;Node8</title>
<path fill="none" stroke="midnightblue" d="M238.88,-117.91C267.89,-104.05 327.36,-76.25 379.11,-56 410.91,-43.56 447.74,-31.25 474.56,-22.67"/>
<polygon fill="midnightblue" stroke="midnightblue" points="475.86,-25.93 484.33,-19.56 473.74,-19.26 475.86,-25.93"/>
</g>
<!-- Node19&#45;&gt;Node9 -->
<g id="edge46" class="edge">
<title>Node19&#45;&gt;Node9</title>
<path fill="none" stroke="midnightblue" d="M248.04,-117.98C282.57,-107.05 342.27,-88.15 378.49,-76.69"/>
<polygon fill="midnightblue" stroke="midnightblue" points="379.56,-80.02 388.04,-73.67 377.45,-73.35 379.56,-80.02"/>
</g>
<!-- Node19&#45;&gt;Node16 -->
<g id="edge45" class="edge">
<title>Node19&#45;&gt;Node16</title>
<path fill="none" stroke="midnightblue" d="M206.64,-117.98C190.14,-108.25 162.93,-92.23 143.43,-80.74"/>
<polygon fill="midnightblue" stroke="midnightblue" points="144.94,-77.57 134.55,-75.51 141.39,-83.6 144.94,-77.57"/>
</g>
<!-- Node20&#45;&gt;Node5 -->
<g id="edge48" class="edge">
<title>Node20&#45;&gt;Node5</title>
<path fill="none" stroke="midnightblue" d="M342.38,-117.82C315.96,-98.25 251.48,-50.52 218.41,-26.03"/>
<polygon fill="midnightblue" stroke="midnightblue" points="220.09,-22.92 209.97,-19.78 215.92,-28.55 220.09,-22.92"/>
</g>
<!-- Node20&#45;&gt;Node8 -->
<g id="edge49" class="edge">
<title>Node20&#45;&gt;Node8</title>
<path fill="none" stroke="midnightblue" d="M370.67,-117.89C388.24,-108.48 416.53,-92.52 439.11,-76 459.94,-60.75 481.79,-40.67 496.1,-26.89"/>
<polygon fill="midnightblue" stroke="midnightblue" points="498.87,-29.07 503.58,-19.58 493.98,-24.06 498.87,-29.07"/>
</g>
<!-- Node20&#45;&gt;Node9 -->
<g id="edge52" class="edge">
<title>Node20&#45;&gt;Node9</title>
<path fill="none" stroke="midnightblue" d="M361.99,-117.98C370.4,-108.87 383.93,-94.24 394.33,-82.98"/>
<polygon fill="midnightblue" stroke="midnightblue" points="397.02,-85.23 401.24,-75.51 391.88,-80.48 397.02,-85.23"/>
</g>
<!-- Node20&#45;&gt;Node15 -->
<g id="edge50" class="edge">
<title>Node20&#45;&gt;Node15</title>
<path fill="none" stroke="midnightblue" d="M392.25,-117.97C401.07,-116.01 410.42,-113.93 419.11,-112 479.36,-98.63 549.66,-83.15 590.02,-74.27"/>
<polygon fill="midnightblue" stroke="midnightblue" points="590.84,-77.68 599.85,-72.11 589.33,-70.84 590.84,-77.68"/>
</g>
<!-- Node20&#45;&gt;Node16 -->
<g id="edge51" class="edge">
<title>Node20&#45;&gt;Node16</title>
<path fill="none" stroke="midnightblue" d="M320.58,-117.98C275.42,-106.49 195.64,-86.21 151.57,-75"/>
<polygon fill="midnightblue" stroke="midnightblue" points="152.25,-71.56 141.69,-72.49 150.52,-78.34 152.25,-71.56"/>
</g>
<!-- Node21&#45;&gt;Node5 -->
<g id="edge54" class="edge">
<title>Node21&#45;&gt;Node5</title>
<path fill="none" stroke="midnightblue" d="M88.39,-112.49C83.18,-97.25 77.85,-72.83 89.11,-56 104.5,-33 134.03,-21.74 158.47,-16.24"/>
<polygon fill="midnightblue" stroke="midnightblue" points="159.47,-19.61 168.58,-14.21 158.09,-12.74 159.47,-19.61"/>
</g>
<!-- Node21&#45;&gt;Node8 -->
<g id="edge55" class="edge">
<title>Node21&#45;&gt;Node8</title>
<path fill="none" stroke="midnightblue" d="M138.13,-112.39C184.83,-97.6 260.85,-74.07 327.11,-56 373.45,-43.36 426.8,-30.57 464.27,-21.87"/>
<polygon fill="midnightblue" stroke="midnightblue" points="465.44,-25.19 474.39,-19.53 463.86,-18.37 465.44,-25.19"/>
</g>
<!-- Node21&#45;&gt;Node9 -->
<g id="edge57" class="edge">
<title>Node21&#45;&gt;Node9</title>
<path fill="none" stroke="midnightblue" d="M143.41,-113.92C146.35,-113.25 149.26,-112.6 152.11,-112 233.05,-94.82 329.35,-79.24 377.86,-71.73"/>
<polygon fill="midnightblue" stroke="midnightblue" points="378.67,-75.15 388.02,-70.17 377.61,-68.23 378.67,-75.15"/>
</g>
<!-- Node21&#45;&gt;Node16 -->
<g id="edge56" class="edge">
<title>Node21&#45;&gt;Node16</title>
<path fill="none" stroke="midnightblue" d="M100.27,-112.4C103.85,-104.2 108.4,-93.78 112.24,-84.99"/>
<polygon fill="midnightblue" stroke="midnightblue" points="115.53,-86.22 116.32,-75.66 109.11,-83.42 115.53,-86.22"/>
</g>
</g>
</svg>
