<?xml version="1.0" encoding="UTF-8" standalone="no"?>
<!DOCTYPE svg PUBLIC "-//W3C//DTD SVG 1.1//EN"
 "http://www.w3.org/Graphics/SVG/1.1/DTD/svg11.dtd">
<!-- Generated by graphviz version 2.49.3 (20211027.1534)
 -->
<!-- Title: src/main.c Pages: 1 -->
<svg width="1182pt" height="319pt"
 viewBox="0.00 0.00 1182.26 319.00" xmlns="http://www.w3.org/2000/svg" xmlns:xlink="http://www.w3.org/1999/xlink">
<g id="graph0" class="graph" transform="scale(1 1) rotate(0) translate(4 315)">
<title>src/main.c</title>
<!-- Node1 -->
<g id="node1" class="node">
<title>Node1</title>
<g id="a_node1"><a xlink:title=" ">
<polygon fill="#bfbfbf" stroke="black" points="581.5,-291.5 581.5,-310.5 643.5,-310.5 643.5,-291.5 581.5,-291.5"/>
<text text-anchor="middle" x="612.5" y="-298.5" font-family="Helvetica,sans-Serif" font-size="10.00">src/main.c</text>
</a>
</g>
</g>
<!-- Node2 -->
<g id="node2" class="node">
<title>Node2</title>
<g id="a_node2"><a xlink:href="main_8h.html" target="_top" xlink:title=" ">
<polygon fill="none" stroke="black" points="590,-235.5 590,-254.5 635,-254.5 635,-235.5 590,-235.5"/>
<text text-anchor="middle" x="612.5" y="-242.5" font-family="Helvetica,sans-Serif" font-size="10.00">main.h</text>
</a>
</g>
</g>
<!-- Node1&#45;&gt;Node2 -->
<g id="edge1" class="edge">
<title>Node1&#45;&gt;Node2</title>
<path fill="none" stroke="midnightblue" d="M612.5,-291.08C612.5,-284.01 612.5,-273.86 612.5,-264.99"/>
<polygon fill="midnightblue" stroke="midnightblue" points="616,-264.75 612.5,-254.75 609,-264.75 616,-264.75"/>
</g>
<!-- Node3 -->
<g id="node3" class="node">
<title>Node3</title>
<g id="a_node3"><a xlink:title=" ">
<polygon fill="none" stroke="#bfbfbf" points="78,-0.5 78,-19.5 125,-19.5 125,-0.5 78,-0.5"/>
<text text-anchor="middle" x="101.5" y="-7.5" font-family="Helvetica,sans-Serif" font-size="10.00">stdlib.h</text>
</a>
</g>
</g>
<!-- Node2&#45;&gt;Node3 -->
<g id="edge2" class="edge">
<title>Node2&#45;&gt;Node3</title>
<path fill="none" stroke="midnightblue" d="M589.91,-243.76C528.21,-242.61 352.06,-236.07 211.5,-199 150.27,-182.85 125.65,-187.39 80.5,-143 51.33,-114.33 33.68,-93.28 50.5,-56 56.12,-43.56 67.06,-33.17 77.38,-25.53"/>
<polygon fill="midnightblue" stroke="midnightblue" points="79.51,-28.31 85.77,-19.76 75.54,-22.54 79.51,-28.31"/>
</g>
<!-- Node4 -->
<g id="node4" class="node">
<title>Node4</title>
<g id="a_node4"><a xlink:title=" ">
<polygon fill="none" stroke="#bfbfbf" points="0,-0.5 0,-19.5 45,-19.5 45,-0.5 0,-0.5"/>
<text text-anchor="middle" x="22.5" y="-7.5" font-family="Helvetica,sans-Serif" font-size="10.00">stdio.h</text>
</a>
</g>
</g>
<!-- Node2&#45;&gt;Node4 -->
<g id="edge3" class="edge">
<title>Node2&#45;&gt;Node4</title>
<path fill="none" stroke="midnightblue" d="M590,-243.44C506.64,-241.15 215.78,-230.96 129.5,-199 89.14,-184.05 74.14,-178.96 50.5,-143 27.3,-107.72 22.89,-56.68 22.31,-29.56"/>
<polygon fill="midnightblue" stroke="midnightblue" points="25.81,-29.5 22.25,-19.52 18.81,-29.54 25.81,-29.5"/>
</g>
<!-- Node5 -->
<g id="node5" class="node">
<title>Node5</title>
<g id="a_node5"><a xlink:title=" ">
<polygon fill="none" stroke="#bfbfbf" points="971,-0.5 971,-19.5 1030,-19.5 1030,-0.5 971,-0.5"/>
<text text-anchor="middle" x="1000.5" y="-7.5" font-family="Helvetica,sans-Serif" font-size="10.00">curl/curl.h</text>
</a>
</g>
</g>
<!-- Node2&#45;&gt;Node5 -->
<g id="edge4" class="edge">
<title>Node2&#45;&gt;Node5</title>
<path fill="none" stroke="midnightblue" d="M635.04,-243.62C730.5,-241.48 1099.76,-227.78 1168.5,-143 1176.84,-132.71 1175.85,-68.83 1165.5,-56 1149.88,-36.64 1084.01,-23.35 1040.37,-16.47"/>
<polygon fill="midnightblue" stroke="midnightblue" points="1040.76,-12.99 1030.34,-14.94 1039.7,-19.91 1040.76,-12.99"/>
</g>
<!-- Node6 -->
<g id="node6" class="node">
<title>Node6</title>
<g id="a_node6"><a xlink:href="devices_8h.html" target="_top" xlink:title=" ">
<polygon fill="none" stroke="black" points="565,-118 565,-137 660,-137 660,-118 565,-118"/>
<text text-anchor="middle" x="612.5" y="-125" font-family="Helvetica,sans-Serif" font-size="10.00">Ubidots/devices.h</text>
</a>
</g>
</g>
<!-- Node2&#45;&gt;Node6 -->
<g id="edge5" class="edge">
<title>Node2&#45;&gt;Node6</title>
<path fill="none" stroke="midnightblue" d="M612.5,-235.32C612.5,-216.76 612.5,-172.84 612.5,-147.47"/>
<polygon fill="midnightblue" stroke="midnightblue" points="616,-147.28 612.5,-137.28 609,-147.28 616,-147.28"/>
</g>
<!-- Node15 -->
<g id="node15" class="node">
<title>Node15</title>
<g id="a_node15"><a xlink:href="_willy_weather_2authenticate_8h.html" target="_top" xlink:title=" ">
<polygon fill="none" stroke="black" points="244,-56.5 244,-75.5 381,-75.5 381,-56.5 244,-56.5"/>
<text text-anchor="middle" x="312.5" y="-63.5" font-family="Helvetica,sans-Serif" font-size="10.00">WillyWeather/authenticate.h</text>
</a>
</g>
</g>
<!-- Node2&#45;&gt;Node15 -->
<g id="edge22" class="edge">
<title>Node2&#45;&gt;Node15</title>
<path fill="none" stroke="midnightblue" d="M589.91,-242.6C505.78,-236.88 212.67,-212.2 157.5,-143 129.68,-108.1 186.66,-88.09 239.21,-77.45"/>
<polygon fill="midnightblue" stroke="midnightblue" points="240.13,-80.84 249.29,-75.51 238.81,-73.97 240.13,-80.84"/>
</g>
<!-- Node16 -->
<g id="node16" class="node">
<title>Node16</title>
<g id="a_node16"><a xlink:href="tide_8h.html" target="_top" xlink:title=" ">
<polygon fill="none" stroke="black" points="411,-179.5 411,-198.5 510,-198.5 510,-179.5 411,-179.5"/>
<text text-anchor="middle" x="460.5" y="-186.5" font-family="Helvetica,sans-Serif" font-size="10.00">WillyWeather/tide.h</text>
</a>
</g>
</g>
<!-- Node2&#45;&gt;Node16 -->
<g id="edge28" class="edge">
<title>Node2&#45;&gt;Node16</title>
<path fill="none" stroke="midnightblue" d="M589.74,-235.92C564.48,-226.94 523.45,-212.36 494.4,-202.04"/>
<polygon fill="midnightblue" stroke="midnightblue" points="495.26,-198.64 484.67,-198.59 492.92,-205.23 495.26,-198.64"/>
</g>
<!-- Node20 -->
<g id="node20" class="node">
<title>Node20</title>
<g id="a_node20"><a xlink:href="_i_b_m___e_i_s_2authenticate_8h.html" target="_top" xlink:title=" ">
<polygon fill="none" stroke="black" points="869,-118 869,-137 988,-137 988,-118 869,-118"/>
<text text-anchor="middle" x="928.5" y="-125" font-family="Helvetica,sans-Serif" font-size="10.00">IBM_EIS/authenticate.h</text>
</a>
</g>
</g>
<!-- Node2&#45;&gt;Node20 -->
<g id="edge47" class="edge">
<title>Node2&#45;&gt;Node20</title>
<path fill="none" stroke="midnightblue" d="M635.29,-242.37C675.88,-238.81 762.68,-228.17 829.5,-199 861.19,-185.16 892.88,-160.15 911.58,-143.94"/>
<polygon fill="midnightblue" stroke="midnightblue" points="914.05,-146.43 919.22,-137.18 909.41,-141.19 914.05,-146.43"/>
</g>
<!-- Node21 -->
<g id="node21" class="node">
<title>Node21</title>
<g id="a_node21"><a xlink:href="timeseries_8h.html" target="_top" xlink:title=" ">
<polygon fill="none" stroke="black" points="709,-179.5 709,-198.5 820,-198.5 820,-179.5 709,-179.5"/>
<text text-anchor="middle" x="764.5" y="-186.5" font-family="Helvetica,sans-Serif" font-size="10.00">IBM_EIS/timeseries.h</text>
</a>
</g>
</g>
<!-- Node2&#45;&gt;Node21 -->
<g id="edge52" class="edge">
<title>Node2&#45;&gt;Node21</title>
<path fill="none" stroke="midnightblue" d="M635.26,-235.92C660.52,-226.94 701.55,-212.36 730.6,-202.04"/>
<polygon fill="midnightblue" stroke="midnightblue" points="732.08,-205.23 740.33,-198.59 729.74,-198.64 732.08,-205.23"/>
</g>
<!-- Node22 -->
<g id="node22" class="node">
<title>Node22</title>
<g id="a_node22"><a xlink:href="food__auth_8h.html" target="_top" xlink:title=" ">
<polygon fill="none" stroke="black" points="1006.5,-112.5 1006.5,-142.5 1104.5,-142.5 1104.5,-112.5 1006.5,-112.5"/>
<text text-anchor="start" x="1014.5" y="-130.5" font-family="Helvetica,sans-Serif" font-size="10.00">FoodAuthority/food</text>
<text text-anchor="middle" x="1055.5" y="-119.5" font-family="Helvetica,sans-Serif" font-size="10.00">_auth.h</text>
</a>
</g>
</g>
<!-- Node2&#45;&gt;Node22 -->
<g id="edge59" class="edge">
<title>Node2&#45;&gt;Node22</title>
<path fill="none" stroke="midnightblue" d="M635.01,-241.2C678.89,-235.47 778.74,-221.03 860.5,-199 913.85,-184.62 973.33,-162.14 1012.4,-146.44"/>
<polygon fill="midnightblue" stroke="midnightblue" points="1013.93,-149.6 1021.88,-142.61 1011.3,-143.11 1013.93,-149.6"/>
</g>
<!-- Node6&#45;&gt;Node5 -->
<g id="edge8" class="edge">
<title>Node6&#45;&gt;Node5</title>
<path fill="none" stroke="midnightblue" d="M651.6,-117.98C690.03,-109.14 750.08,-94.09 800.5,-76 820.72,-68.74 824.35,-63.44 844.5,-56 883.39,-41.64 929.09,-28.93 960.93,-20.71"/>
<polygon fill="midnightblue" stroke="midnightblue" points="961.93,-24.06 970.76,-18.2 960.2,-17.28 961.93,-24.06"/>
</g>
<!-- Node7 -->
<g id="node7" class="node">
<title>Node7</title>
<g id="a_node7"><a xlink:title=" ">
<polygon fill="none" stroke="#bfbfbf" points="336.5,-0.5 336.5,-19.5 384.5,-19.5 384.5,-0.5 336.5,-0.5"/>
<text text-anchor="middle" x="360.5" y="-7.5" font-family="Helvetica,sans-Serif" font-size="10.00">string.h</text>
</a>
</g>
</g>
<!-- Node6&#45;&gt;Node7 -->
<g id="edge6" class="edge">
<title>Node6&#45;&gt;Node7</title>
<path fill="none" stroke="midnightblue" d="M609.53,-117.52C604.02,-102.31 590.69,-71.6 568.5,-56 516.01,-19.08 439.01,-11.55 394.91,-10.52"/>
<polygon fill="midnightblue" stroke="midnightblue" points="394.75,-7.01 384.7,-10.38 394.66,-14.01 394.75,-7.01"/>
</g>
<!-- Node8 -->
<g id="node8" class="node">
<title>Node8</title>
<g id="a_node8"><a xlink:title=" ">
<polygon fill="none" stroke="#bfbfbf" points="513.5,-56.5 513.5,-75.5 559.5,-75.5 559.5,-56.5 513.5,-56.5"/>
<text text-anchor="middle" x="536.5" y="-63.5" font-family="Helvetica,sans-Serif" font-size="10.00">math.h</text>
</a>
</g>
</g>
<!-- Node6&#45;&gt;Node8 -->
<g id="edge7" class="edge">
<title>Node6&#45;&gt;Node8</title>
<path fill="none" stroke="midnightblue" d="M601.61,-117.98C589.53,-108.52 569.83,-93.1 555.26,-81.69"/>
<polygon fill="midnightblue" stroke="midnightblue" points="557.4,-78.92 547.37,-75.51 553.09,-84.43 557.4,-78.92"/>
</g>
<!-- Node9 -->
<g id="node9" class="node">
<title>Node9</title>
<g id="a_node9"><a xlink:title=" ">
<polygon fill="none" stroke="#bfbfbf" points="584,-0.5 584,-19.5 667,-19.5 667,-0.5 584,-0.5"/>
<text text-anchor="middle" x="625.5" y="-7.5" font-family="Helvetica,sans-Serif" font-size="10.00">cjson/cJSON.h</text>
</a>
</g>
</g>
<!-- Node6&#45;&gt;Node9 -->
<g id="edge9" class="edge">
<title>Node6&#45;&gt;Node9</title>
<path fill="none" stroke="midnightblue" d="M613.48,-117.82C615.57,-99.26 620.51,-55.34 623.36,-29.97"/>
<polygon fill="midnightblue" stroke="midnightblue" points="626.87,-30.11 624.51,-19.78 619.91,-29.33 626.87,-30.11"/>
</g>
<!-- Node10 -->
<g id="node10" class="node">
<title>Node10</title>
<g id="a_node10"><a xlink:href="_ubidots_2authenticate_8h.html" target="_top" xlink:title=" ">
<polygon fill="none" stroke="black" points="73.5,-56.5 73.5,-75.5 187.5,-75.5 187.5,-56.5 73.5,-56.5"/>
<text text-anchor="middle" x="130.5" y="-63.5" font-family="Helvetica,sans-Serif" font-size="10.00">Ubidots/authenticate.h</text>
</a>
</g>
</g>
<!-- Node6&#45;&gt;Node10 -->
<g id="edge10" class="edge">
<title>Node6&#45;&gt;Node10</title>
<path fill="none" stroke="midnightblue" d="M564.96,-120.63C478.83,-110 296.73,-87.52 197.84,-75.31"/>
<polygon fill="midnightblue" stroke="midnightblue" points="198.01,-71.81 187.66,-74.06 197.15,-78.75 198.01,-71.81"/>
</g>
<!-- Node11 -->
<g id="node11" class="node">
<title>Node11</title>
<g id="a_node11"><a xlink:href="utils_8h.html" target="_top" xlink:title=" ">
<polygon fill="none" stroke="black" points="716.5,-56.5 716.5,-75.5 758.5,-75.5 758.5,-56.5 716.5,-56.5"/>
<text text-anchor="middle" x="737.5" y="-63.5" font-family="Helvetica,sans-Serif" font-size="10.00">utils.h</text>
</a>
</g>
</g>
<!-- Node6&#45;&gt;Node11 -->
<g id="edge14" class="edge">
<title>Node6&#45;&gt;Node11</title>
<path fill="none" stroke="midnightblue" d="M630.41,-117.98C651.39,-107.99 686.35,-91.35 710.59,-79.81"/>
<polygon fill="midnightblue" stroke="midnightblue" points="712.1,-82.97 719.62,-75.51 709.09,-76.65 712.1,-82.97"/>
</g>
<!-- Node10&#45;&gt;Node3 -->
<g id="edge12" class="edge">
<title>Node10&#45;&gt;Node3</title>
<path fill="none" stroke="midnightblue" d="M125.71,-56.08C121.74,-48.69 115.97,-37.95 111.07,-28.81"/>
<polygon fill="midnightblue" stroke="midnightblue" points="114.01,-26.91 106.2,-19.75 107.85,-30.22 114.01,-26.91"/>
</g>
<!-- Node10&#45;&gt;Node4 -->
<g id="edge11" class="edge">
<title>Node10&#45;&gt;Node4</title>
<path fill="none" stroke="midnightblue" d="M113.15,-56.32C95.83,-47.66 68.98,-34.24 49,-24.25"/>
<polygon fill="midnightblue" stroke="midnightblue" points="50.32,-21 39.81,-19.65 47.19,-27.26 50.32,-21"/>
</g>
<!-- Node10&#45;&gt;Node7 -->
<g id="edge13" class="edge">
<title>Node10&#45;&gt;Node7</title>
<path fill="none" stroke="midnightblue" d="M166.94,-56.44C210.71,-46.17 283.55,-29.07 326.29,-19.03"/>
<polygon fill="midnightblue" stroke="midnightblue" points="327.29,-22.39 336.22,-16.7 325.69,-15.58 327.29,-22.39"/>
</g>
<!-- Node11&#45;&gt;Node3 -->
<g id="edge15" class="edge">
<title>Node11&#45;&gt;Node3</title>
<path fill="none" stroke="midnightblue" d="M716.34,-63.2C623.32,-55.31 250.26,-23.63 135.36,-13.87"/>
<polygon fill="midnightblue" stroke="midnightblue" points="135.32,-10.36 125.06,-13 134.73,-17.33 135.32,-10.36"/>
</g>
<!-- Node11&#45;&gt;Node5 -->
<g id="edge17" class="edge">
<title>Node11&#45;&gt;Node5</title>
<path fill="none" stroke="midnightblue" d="M758.55,-59.38C763.14,-58.21 767.97,-57.03 772.5,-56 838.2,-41.08 915.21,-26.48 960.81,-18.13"/>
<polygon fill="midnightblue" stroke="midnightblue" points="961.66,-21.53 970.87,-16.29 960.41,-14.64 961.66,-21.53"/>
</g>
<!-- Node11&#45;&gt;Node7 -->
<g id="edge16" class="edge">
<title>Node11&#45;&gt;Node7</title>
<path fill="none" stroke="midnightblue" d="M716.42,-61.98C654.22,-53.07 471.01,-26.83 394.59,-15.88"/>
<polygon fill="midnightblue" stroke="midnightblue" points="394.93,-12.4 384.54,-14.44 393.94,-19.33 394.93,-12.4"/>
</g>
<!-- Node11&#45;&gt;Node9 -->
<g id="edge18" class="edge">
<title>Node11&#45;&gt;Node9</title>
<path fill="none" stroke="midnightblue" d="M719.51,-56.32C701.46,-47.62 673.45,-34.12 652.7,-24.11"/>
<polygon fill="midnightblue" stroke="midnightblue" points="653.98,-20.84 643.45,-19.65 650.94,-27.15 653.98,-20.84"/>
</g>
<!-- Node12 -->
<g id="node12" class="node">
<title>Node12</title>
<g id="a_node12"><a xlink:title=" ">
<polygon fill="none" stroke="#bfbfbf" points="833,-0.5 833,-19.5 892,-19.5 892,-0.5 833,-0.5"/>
<text text-anchor="middle" x="862.5" y="-7.5" font-family="Helvetica,sans-Serif" font-size="10.00">sys/stat.h</text>
</a>
</g>
</g>
<!-- Node11&#45;&gt;Node12 -->
<g id="edge19" class="edge">
<title>Node11&#45;&gt;Node12</title>
<path fill="none" stroke="midnightblue" d="M757.31,-56.44C777.79,-47.6 809.98,-33.69 833.36,-23.59"/>
<polygon fill="midnightblue" stroke="midnightblue" points="834.99,-26.7 842.79,-19.52 832.22,-20.27 834.99,-26.7"/>
</g>
<!-- Node13 -->
<g id="node13" class="node">
<title>Node13</title>
<g id="a_node13"><a xlink:title=" ">
<polygon fill="none" stroke="#bfbfbf" points="685,-0.5 685,-19.5 750,-19.5 750,-0.5 685,-0.5"/>
<text text-anchor="middle" x="717.5" y="-7.5" font-family="Helvetica,sans-Serif" font-size="10.00">sys/types.h</text>
</a>
</g>
</g>
<!-- Node11&#45;&gt;Node13 -->
<g id="edge20" class="edge">
<title>Node11&#45;&gt;Node13</title>
<path fill="none" stroke="midnightblue" d="M734.2,-56.08C731.52,-48.85 727.65,-38.41 724.31,-29.4"/>
<polygon fill="midnightblue" stroke="midnightblue" points="727.5,-27.91 720.74,-19.75 720.93,-30.34 727.5,-27.91"/>
</g>
<!-- Node14 -->
<g id="node14" class="node">
<title>Node14</title>
<g id="a_node14"><a xlink:title=" ">
<polygon fill="none" stroke="#bfbfbf" points="768.5,-0.5 768.5,-19.5 814.5,-19.5 814.5,-0.5 768.5,-0.5"/>
<text text-anchor="middle" x="791.5" y="-7.5" font-family="Helvetica,sans-Serif" font-size="10.00">errno.h</text>
</a>
</g>
</g>
<!-- Node11&#45;&gt;Node14 -->
<g id="edge21" class="edge">
<title>Node11&#45;&gt;Node14</title>
<path fill="none" stroke="midnightblue" d="M746.42,-56.08C754.28,-48.22 765.93,-36.57 775.42,-27.08"/>
<polygon fill="midnightblue" stroke="midnightblue" points="778.15,-29.3 782.75,-19.75 773.2,-24.35 778.15,-29.3"/>
</g>
<!-- Node15&#45;&gt;Node3 -->
<g id="edge24" class="edge">
<title>Node15&#45;&gt;Node3</title>
<path fill="none" stroke="midnightblue" d="M279.07,-56.44C239.7,-46.37 174.71,-29.74 135.22,-19.63"/>
<polygon fill="midnightblue" stroke="midnightblue" points="135.84,-16.18 125.28,-17.09 134.1,-22.96 135.84,-16.18"/>
</g>
<!-- Node15&#45;&gt;Node4 -->
<g id="edge25" class="edge">
<title>Node15&#45;&gt;Node4</title>
<path fill="none" stroke="midnightblue" d="M265.24,-56.44C216.06,-47.5 136.84,-32.99 68.5,-20 64.27,-19.2 59.83,-18.34 55.44,-17.49"/>
<polygon fill="midnightblue" stroke="midnightblue" points="55.91,-14.01 45.42,-15.54 54.57,-20.89 55.91,-14.01"/>
</g>
<!-- Node15&#45;&gt;Node5 -->
<g id="edge27" class="edge">
<title>Node15&#45;&gt;Node5</title>
<path fill="none" stroke="midnightblue" d="M381.44,-60.06C491.45,-52.1 713.46,-35.73 901.5,-20 920.91,-18.38 942.44,-16.44 960.46,-14.77"/>
<polygon fill="midnightblue" stroke="midnightblue" points="960.98,-18.24 970.62,-13.83 960.34,-11.27 960.98,-18.24"/>
</g>
<!-- Node15&#45;&gt;Node7 -->
<g id="edge23" class="edge">
<title>Node15&#45;&gt;Node7</title>
<path fill="none" stroke="midnightblue" d="M320.43,-56.08C327.35,-48.3 337.57,-36.8 345.95,-27.37"/>
<polygon fill="midnightblue" stroke="midnightblue" points="348.69,-29.55 352.72,-19.75 343.46,-24.9 348.69,-29.55"/>
</g>
<!-- Node15&#45;&gt;Node9 -->
<g id="edge26" class="edge">
<title>Node15&#45;&gt;Node9</title>
<path fill="none" stroke="midnightblue" d="M362.1,-56.44C419.82,-46.48 514.73,-30.11 573.47,-19.98"/>
<polygon fill="midnightblue" stroke="midnightblue" points="574.39,-23.37 583.65,-18.22 573.2,-16.47 574.39,-23.37"/>
</g>
<!-- Node16&#45;&gt;Node3 -->
<g id="edge30" class="edge">
<title>Node16&#45;&gt;Node3</title>
<path fill="none" stroke="midnightblue" d="M410.85,-188.23C347.43,-186.89 235.39,-179 147.5,-143 101.02,-123.96 79.16,-120.82 56.5,-76 47.25,-57.71 64.11,-38.64 79.76,-25.92"/>
<polygon fill="midnightblue" stroke="midnightblue" points="82.3,-28.39 88.16,-19.56 78.07,-22.81 82.3,-28.39"/>
</g>
<!-- Node16&#45;&gt;Node5 -->
<g id="edge33" class="edge">
<title>Node16&#45;&gt;Node5</title>
<path fill="none" stroke="midnightblue" d="M510.03,-185.49C660.58,-177.73 1103.21,-154.03 1113.5,-143 1152.7,-101 1071.03,-48.43 1026.64,-24.27"/>
<polygon fill="midnightblue" stroke="midnightblue" points="1028.26,-21.17 1017.79,-19.56 1024.97,-27.35 1028.26,-21.17"/>
</g>
<!-- Node16&#45;&gt;Node7 -->
<g id="edge29" class="edge">
<title>Node16&#45;&gt;Node7</title>
<path fill="none" stroke="midnightblue" d="M410.92,-188.13C333.56,-187.16 189.63,-180.25 157.5,-143 148.5,-132.57 151.21,-124.26 157.5,-112 167.24,-93.02 216.61,-65.93 235.5,-56 264.88,-40.55 300.72,-28.25 326.48,-20.44"/>
<polygon fill="midnightblue" stroke="midnightblue" points="327.58,-23.77 336.17,-17.57 325.59,-17.06 327.58,-23.77"/>
</g>
<!-- Node16&#45;&gt;Node8 -->
<g id="edge31" class="edge">
<title>Node16&#45;&gt;Node8</title>
<path fill="none" stroke="midnightblue" d="M465.97,-179.3C478.45,-159.41 509.27,-110.35 525.73,-84.15"/>
<polygon fill="midnightblue" stroke="midnightblue" points="528.73,-85.95 531.08,-75.62 522.8,-82.23 528.73,-85.95"/>
</g>
<!-- Node16&#45;&gt;Node9 -->
<g id="edge34" class="edge">
<title>Node16&#45;&gt;Node9</title>
<path fill="none" stroke="midnightblue" d="M460.86,-179.25C462.28,-155.93 469.37,-91.59 504.5,-56 523.03,-37.23 550.09,-26.2 573.93,-19.77"/>
<polygon fill="midnightblue" stroke="midnightblue" points="575.06,-23.1 583.91,-17.29 573.37,-16.31 575.06,-23.1"/>
</g>
<!-- Node16&#45;&gt;Node11 -->
<g id="edge46" class="edge">
<title>Node16&#45;&gt;Node11</title>
<path fill="none" stroke="midnightblue" d="M510.06,-185.94C554.49,-182.17 620.08,-171.72 669.5,-143 694.3,-128.59 714.94,-101.98 726.76,-84.39"/>
<polygon fill="midnightblue" stroke="midnightblue" points="729.9,-85.97 732.39,-75.67 724.02,-82.17 729.9,-85.97"/>
</g>
<!-- Node16&#45;&gt;Node15 -->
<g id="edge35" class="edge">
<title>Node16&#45;&gt;Node15</title>
<path fill="none" stroke="midnightblue" d="M410.74,-187.78C335.93,-186.27 199.99,-178.56 169.5,-143 141.11,-109.88 199.66,-88.99 250.2,-77.67"/>
<polygon fill="midnightblue" stroke="midnightblue" points="251.12,-81.05 260.17,-75.53 249.66,-74.21 251.12,-81.05"/>
</g>
<!-- Node17 -->
<g id="node17" class="node">
<title>Node17</title>
<g id="a_node17"><a xlink:title=" ">
<polygon fill="none" stroke="#bfbfbf" points="853,-56.5 853,-75.5 896,-75.5 896,-56.5 853,-56.5"/>
<text text-anchor="middle" x="874.5" y="-63.5" font-family="Helvetica,sans-Serif" font-size="10.00">time.h</text>
</a>
</g>
</g>
<!-- Node16&#45;&gt;Node17 -->
<g id="edge32" class="edge">
<title>Node16&#45;&gt;Node17</title>
<path fill="none" stroke="midnightblue" d="M510.01,-182.05C559.1,-175.38 636.08,-162.83 700.5,-143 755.27,-126.14 815.89,-97.13 849.16,-80.25"/>
<polygon fill="midnightblue" stroke="midnightblue" points="850.88,-83.3 858.18,-75.63 847.69,-77.07 850.88,-83.3"/>
</g>
<!-- Node18 -->
<g id="node18" class="node">
<title>Node18</title>
<g id="a_node18"><a xlink:href="location_8h.html" target="_top" xlink:title=" ">
<polygon fill="none" stroke="black" points="315,-118 315,-137 432,-137 432,-118 315,-118"/>
<text text-anchor="middle" x="373.5" y="-125" font-family="Helvetica,sans-Serif" font-size="10.00">WillyWeather/location.h</text>
</a>
</g>
</g>
<!-- Node16&#45;&gt;Node18 -->
<g id="edge36" class="edge">
<title>Node16&#45;&gt;Node18</title>
<path fill="none" stroke="midnightblue" d="M448.04,-179.48C434.08,-169.93 411.24,-154.31 394.51,-142.87"/>
<polygon fill="midnightblue" stroke="midnightblue" points="396.17,-139.77 385.94,-137.01 392.22,-145.54 396.17,-139.77"/>
</g>
<!-- Node19 -->
<g id="node19" class="node">
<title>Node19</title>
<g id="a_node19"><a xlink:href="forecast_8h.html" target="_top" xlink:title=" ">
<polygon fill="none" stroke="black" points="178,-118 178,-137 297,-137 297,-118 178,-118"/>
<text text-anchor="middle" x="237.5" y="-125" font-family="Helvetica,sans-Serif" font-size="10.00">WillyWeather/forecast.h</text>
</a>
</g>
</g>
<!-- Node16&#45;&gt;Node19 -->
<g id="edge45" class="edge">
<title>Node16&#45;&gt;Node19</title>
<path fill="none" stroke="midnightblue" d="M428.55,-179.48C389.3,-169 322.62,-151.21 279.33,-139.66"/>
<polygon fill="midnightblue" stroke="midnightblue" points="279.96,-136.21 269.39,-137.01 278.15,-142.97 279.96,-136.21"/>
</g>
<!-- Node18&#45;&gt;Node3 -->
<g id="edge38" class="edge">
<title>Node18&#45;&gt;Node3</title>
<path fill="none" stroke="midnightblue" d="M336.02,-117.94C326.43,-115.87 316.1,-113.75 306.5,-112 253.01,-102.24 100,-117.18 64.5,-76 51.48,-60.9 67.39,-40.53 82.21,-26.64"/>
<polygon fill="midnightblue" stroke="midnightblue" points="84.94,-28.9 90.14,-19.67 80.32,-23.64 84.94,-28.9"/>
</g>
<!-- Node18&#45;&gt;Node4 -->
<g id="edge39" class="edge">
<title>Node18&#45;&gt;Node4</title>
<path fill="none" stroke="midnightblue" d="M336.38,-117.98C326.68,-115.89 316.22,-113.75 306.5,-112 196.02,-92.12 148.13,-140.85 56.5,-76 40.94,-64.99 31.95,-44.63 27.17,-29.63"/>
<polygon fill="midnightblue" stroke="midnightblue" points="30.5,-28.52 24.4,-19.85 23.76,-30.43 30.5,-28.52"/>
</g>
<!-- Node18&#45;&gt;Node5 -->
<g id="edge42" class="edge">
<title>Node18&#45;&gt;Node5</title>
<path fill="none" stroke="midnightblue" d="M432.19,-121.98C526.4,-114.23 706.95,-97.16 767.5,-76 783.69,-70.34 784.59,-62.41 800.5,-56 853.91,-34.48 919.69,-22.19 960.88,-16.05"/>
<polygon fill="midnightblue" stroke="midnightblue" points="961.4,-19.51 970.79,-14.62 960.4,-12.59 961.4,-19.51"/>
</g>
<!-- Node18&#45;&gt;Node7 -->
<g id="edge37" class="edge">
<title>Node18&#45;&gt;Node7</title>
<path fill="none" stroke="midnightblue" d="M378.6,-117.73C385.75,-104.31 397.14,-77.93 390.5,-56 387.38,-45.7 381.05,-35.61 375,-27.6"/>
<polygon fill="midnightblue" stroke="midnightblue" points="377.72,-25.4 368.71,-19.82 372.27,-29.8 377.72,-25.4"/>
</g>
<!-- Node18&#45;&gt;Node8 -->
<g id="edge40" class="edge">
<title>Node18&#45;&gt;Node8</title>
<path fill="none" stroke="midnightblue" d="M396.85,-117.98C424.89,-107.74 472.09,-90.51 503.76,-78.95"/>
<polygon fill="midnightblue" stroke="midnightblue" points="505.26,-82.13 513.45,-75.41 502.86,-75.55 505.26,-82.13"/>
</g>
<!-- Node18&#45;&gt;Node9 -->
<g id="edge41" class="edge">
<title>Node18&#45;&gt;Node9</title>
<path fill="none" stroke="midnightblue" d="M383.07,-117.88C399.84,-103.2 436.09,-73.28 471.5,-56 504,-40.14 543.14,-28.8 573.83,-21.46"/>
<polygon fill="midnightblue" stroke="midnightblue" points="574.94,-24.8 583.89,-19.13 573.36,-17.98 574.94,-24.8"/>
</g>
<!-- Node18&#45;&gt;Node11 -->
<g id="edge44" class="edge">
<title>Node18&#45;&gt;Node11</title>
<path fill="none" stroke="midnightblue" d="M425.65,-117.98C502.4,-105.43 643.43,-82.38 706.08,-72.14"/>
<polygon fill="midnightblue" stroke="midnightblue" points="706.83,-75.56 716.14,-70.49 705.7,-68.65 706.83,-75.56"/>
</g>
<!-- Node18&#45;&gt;Node15 -->
<g id="edge43" class="edge">
<title>Node18&#45;&gt;Node15</title>
<path fill="none" stroke="midnightblue" d="M364.76,-117.98C355.34,-108.78 340.14,-93.96 328.55,-82.66"/>
<polygon fill="midnightblue" stroke="midnightblue" points="330.83,-79.99 321.22,-75.51 325.94,-85 330.83,-79.99"/>
</g>
<!-- Node20&#45;&gt;Node5 -->
<g id="edge48" class="edge">
<title>Node20&#45;&gt;Node5</title>
<path fill="none" stroke="midnightblue" d="M933.91,-117.82C945.74,-98.84 974.1,-53.35 989.72,-28.29"/>
<polygon fill="midnightblue" stroke="midnightblue" points="992.71,-30.12 995.03,-19.78 986.77,-26.42 992.71,-30.12"/>
</g>
<!-- Node20&#45;&gt;Node9 -->
<g id="edge49" class="edge">
<title>Node20&#45;&gt;Node9</title>
<path fill="none" stroke="midnightblue" d="M928.39,-117.54C927.69,-102.36 923.92,-71.7 905.5,-56 868.36,-24.35 741.69,-27.97 677.37,-19.9"/>
<polygon fill="midnightblue" stroke="midnightblue" points="677.64,-16.4 667.24,-18.43 676.63,-23.33 677.64,-16.4"/>
</g>
<!-- Node20&#45;&gt;Node11 -->
<g id="edge51" class="edge">
<title>Node20&#45;&gt;Node11</title>
<path fill="none" stroke="midnightblue" d="M901.13,-117.98C865.97,-107.02 805.07,-88.05 768.31,-76.6"/>
<polygon fill="midnightblue" stroke="midnightblue" points="769.21,-73.21 758.63,-73.58 767.13,-79.9 769.21,-73.21"/>
</g>
<!-- Node20&#45;&gt;Node17 -->
<g id="edge50" class="edge">
<title>Node20&#45;&gt;Node17</title>
<path fill="none" stroke="midnightblue" d="M920.76,-117.98C912.5,-108.87 899.22,-94.24 889.01,-82.98"/>
<polygon fill="midnightblue" stroke="midnightblue" points="891.53,-80.56 882.22,-75.51 886.35,-85.27 891.53,-80.56"/>
</g>
<!-- Node21&#45;&gt;Node5 -->
<g id="edge53" class="edge">
<title>Node21&#45;&gt;Node5</title>
<path fill="none" stroke="midnightblue" d="M820.19,-185.46C920.98,-180.29 1125.2,-166.95 1146.5,-143 1172.19,-114.1 1169.46,-87.11 1146.5,-56 1122.3,-23.22 1074.58,-13.58 1040.27,-11.11"/>
<polygon fill="midnightblue" stroke="midnightblue" points="1040.27,-7.6 1030.1,-10.55 1039.89,-14.59 1040.27,-7.6"/>
</g>
<!-- Node21&#45;&gt;Node8 -->
<g id="edge55" class="edge">
<title>Node21&#45;&gt;Node8</title>
<path fill="none" stroke="midnightblue" d="M708.96,-182.53C654.96,-176.1 578.02,-163.59 556.5,-143 541.05,-128.22 537.02,-103.07 536.22,-85.77"/>
<polygon fill="midnightblue" stroke="midnightblue" points="539.72,-85.67 536.07,-75.73 532.72,-85.78 539.72,-85.67"/>
</g>
<!-- Node21&#45;&gt;Node9 -->
<g id="edge54" class="edge">
<title>Node21&#45;&gt;Node9</title>
<path fill="none" stroke="midnightblue" d="M757.8,-179.46C736.2,-151.96 668.16,-65.32 638.99,-28.18"/>
<polygon fill="midnightblue" stroke="midnightblue" points="641.39,-25.57 632.46,-19.87 635.89,-29.89 641.39,-25.57"/>
</g>
<!-- Node21&#45;&gt;Node11 -->
<g id="edge58" class="edge">
<title>Node21&#45;&gt;Node11</title>
<path fill="none" stroke="midnightblue" d="M762.56,-179.3C758.2,-159.76 747.56,-112.06 741.64,-85.55"/>
<polygon fill="midnightblue" stroke="midnightblue" points="745.02,-84.62 739.42,-75.62 738.19,-86.15 745.02,-84.62"/>
</g>
<!-- Node21&#45;&gt;Node17 -->
<g id="edge56" class="edge">
<title>Node21&#45;&gt;Node17</title>
<path fill="none" stroke="midnightblue" d="M775.85,-179.31C786.8,-170.66 803.58,-156.74 816.5,-143 834.18,-124.2 851.78,-100.2 862.87,-84.25"/>
<polygon fill="midnightblue" stroke="midnightblue" points="865.84,-86.12 868.61,-75.89 860.06,-82.16 865.84,-86.12"/>
</g>
<!-- Node21&#45;&gt;Node20 -->
<g id="edge57" class="edge">
<title>Node21&#45;&gt;Node20</title>
<path fill="none" stroke="midnightblue" d="M788,-179.48C816.13,-169.27 863.43,-152.11 895.29,-140.55"/>
<polygon fill="midnightblue" stroke="midnightblue" points="896.84,-143.71 905.05,-137.01 894.45,-137.13 896.84,-143.71"/>
</g>
<!-- Node22&#45;&gt;Node5 -->
<g id="edge60" class="edge">
<title>Node22&#45;&gt;Node5</title>
<path fill="none" stroke="midnightblue" d="M1048.76,-112.34C1038.76,-91.34 1020,-51.96 1009.05,-28.96"/>
<polygon fill="midnightblue" stroke="midnightblue" points="1012.09,-27.19 1004.63,-19.67 1005.77,-30.2 1012.09,-27.19"/>
</g>
<!-- Node22&#45;&gt;Node9 -->
<g id="edge61" class="edge">
<title>Node22&#45;&gt;Node9</title>
<path fill="none" stroke="midnightblue" d="M1034.93,-112.34C1010.15,-96.01 966.68,-69.66 925.5,-56 822.37,-21.8 788.8,-36.8 677.19,-20.02"/>
<polygon fill="midnightblue" stroke="midnightblue" points="677.65,-16.55 667.23,-18.47 676.57,-23.47 677.65,-16.55"/>
</g>
<!-- Node22&#45;&gt;Node11 -->
<g id="edge63" class="edge">
<title>Node22&#45;&gt;Node11</title>
<path fill="none" stroke="midnightblue" d="M1006.2,-113.91C1003.26,-113.24 1000.34,-112.6 997.5,-112 915.45,-94.67 817.79,-79.11 768.8,-71.66"/>
<polygon fill="midnightblue" stroke="midnightblue" points="769.24,-68.18 758.83,-70.15 768.2,-75.1 769.24,-68.18"/>
</g>
<!-- Node22&#45;&gt;Node17 -->
<g id="edge62" class="edge">
<title>Node22&#45;&gt;Node17</title>
<path fill="none" stroke="midnightblue" d="M1012.61,-112.4C979.88,-101.64 935.53,-87.06 906.02,-77.36"/>
<polygon fill="midnightblue" stroke="midnightblue" points="906.83,-73.94 896.24,-74.15 904.65,-80.59 906.83,-73.94"/>
</g>
</g>
</svg>
