<?xml version="1.0" encoding="UTF-8" standalone="no"?>
<!DOCTYPE svg PUBLIC "-//W3C//DTD SVG 1.1//EN"
 "http://www.w3.org/Graphics/SVG/1.1/DTD/svg11.dtd">
<!-- Generated by graphviz version 2.49.3 (20211027.1534)
 -->
<!-- Title: include/main.h Pages: 1 -->
<svg width="1073pt" height="263pt"
 viewBox="0.00 0.00 1072.54 263.00" xmlns="http://www.w3.org/2000/svg" xmlns:xlink="http://www.w3.org/1999/xlink">
<g id="graph0" class="graph" transform="scale(1 1) rotate(0) translate(4 259)">
<title>include/main.h</title>
<!-- Node1 -->
<g id="node1" class="node">
<title>Node1</title>
<g id="a_node1"><a xlink:title=" ">
<polygon fill="#bfbfbf" stroke="black" points="454.54,-235.5 454.54,-254.5 533.54,-254.5 533.54,-235.5 454.54,-235.5"/>
<text text-anchor="middle" x="494.04" y="-242.5" font-family="Helvetica,sans-Serif" font-size="10.00">include/main.h</text>
</a>
</g>
</g>
<!-- Node2 -->
<g id="node2" class="node">
<title>Node2</title>
<g id="a_node2"><a xlink:title=" ">
<polygon fill="none" stroke="#bfbfbf" points="883.54,-0.5 883.54,-19.5 930.54,-19.5 930.54,-0.5 883.54,-0.5"/>
<text text-anchor="middle" x="907.04" y="-7.5" font-family="Helvetica,sans-Serif" font-size="10.00">stdlib.h</text>
</a>
</g>
</g>
<!-- Node1&#45;&gt;Node2 -->
<g id="edge1" class="edge">
<title>Node1&#45;&gt;Node2</title>
<path fill="none" stroke="midnightblue" d="M533.9,-242.91C645.3,-238.91 955.39,-220.83 1011.04,-143 1033.61,-111.44 1039.72,-88.17 1018.04,-56 1000.99,-30.69 967,-19.61 941.11,-14.76"/>
<polygon fill="midnightblue" stroke="midnightblue" points="941.36,-11.26 930.93,-13.09 940.23,-18.16 941.36,-11.26"/>
</g>
<!-- Node3 -->
<g id="node3" class="node">
<title>Node3</title>
<g id="a_node3"><a xlink:title=" ">
<polygon fill="none" stroke="#bfbfbf" points="1019.54,-0.5 1019.54,-19.5 1064.54,-19.5 1064.54,-0.5 1019.54,-0.5"/>
<text text-anchor="middle" x="1042.04" y="-7.5" font-family="Helvetica,sans-Serif" font-size="10.00">stdio.h</text>
</a>
</g>
</g>
<!-- Node1&#45;&gt;Node3 -->
<g id="edge2" class="edge">
<title>Node1&#45;&gt;Node3</title>
<path fill="none" stroke="midnightblue" d="M533.78,-242.32C628.96,-237.94 867.68,-224.67 943.04,-199 987.64,-183.81 1008.78,-183.38 1033.04,-143 1054.27,-107.68 1050.17,-57.05 1045.81,-29.91"/>
<polygon fill="midnightblue" stroke="midnightblue" points="1049.21,-29.05 1044,-19.82 1042.32,-30.28 1049.21,-29.05"/>
</g>
<!-- Node4 -->
<g id="node4" class="node">
<title>Node4</title>
<g id="a_node4"><a xlink:title=" ">
<polygon fill="none" stroke="#bfbfbf" points="201.54,-0.5 201.54,-19.5 260.54,-19.5 260.54,-0.5 201.54,-0.5"/>
<text text-anchor="middle" x="231.04" y="-7.5" font-family="Helvetica,sans-Serif" font-size="10.00">curl/curl.h</text>
</a>
</g>
</g>
<!-- Node1&#45;&gt;Node4 -->
<g id="edge3" class="edge">
<title>Node1&#45;&gt;Node4</title>
<path fill="none" stroke="midnightblue" d="M454.23,-241.93C348.81,-235.53 66.73,-212.13 11.04,-143 -14.71,-111.03 9.35,-80.82 42.04,-56 85.66,-22.88 149.98,-13.67 191.19,-11.36"/>
<polygon fill="midnightblue" stroke="midnightblue" points="191.57,-14.85 201.4,-10.91 191.25,-7.86 191.57,-14.85"/>
</g>
<!-- Node5 -->
<g id="node5" class="node">
<title>Node5</title>
<g id="a_node5"><a xlink:href="ubidots_8h.html" target="_top" xlink:title=" ">
<polygon fill="none" stroke="black" points="328.04,-118 328.04,-137 420.04,-137 420.04,-118 328.04,-118"/>
<text text-anchor="middle" x="374.04" y="-125" font-family="Helvetica,sans-Serif" font-size="10.00">Ubidots/ubidots.h</text>
</a>
</g>
</g>
<!-- Node1&#45;&gt;Node5 -->
<g id="edge4" class="edge">
<title>Node1&#45;&gt;Node5</title>
<path fill="none" stroke="midnightblue" d="M485.02,-235.32C464.96,-216 416.37,-169.24 390.65,-144.48"/>
<polygon fill="midnightblue" stroke="midnightblue" points="392.8,-141.7 383.17,-137.28 387.95,-146.74 392.8,-141.7"/>
</g>
<!-- Node12 -->
<g id="node12" class="node">
<title>Node12</title>
<g id="a_node12"><a xlink:href="_willy_weather_2authenticate_8h.html" target="_top" xlink:title=" ">
<polygon fill="none" stroke="black" points="838.54,-56.5 838.54,-75.5 975.54,-75.5 975.54,-56.5 838.54,-56.5"/>
<text text-anchor="middle" x="907.04" y="-63.5" font-family="Helvetica,sans-Serif" font-size="10.00">WillyWeather/authenticate.h</text>
</a>
</g>
</g>
<!-- Node1&#45;&gt;Node12 -->
<g id="edge16" class="edge">
<title>Node1&#45;&gt;Node12</title>
<path fill="none" stroke="midnightblue" d="M533.66,-241.84C637.12,-235.27 911.01,-211.6 963.04,-143 971.37,-132.02 969,-124.42 963.04,-112 956.79,-98.95 944.71,-88.49 933.36,-80.95"/>
<polygon fill="midnightblue" stroke="midnightblue" points="934.9,-77.79 924.55,-75.54 931.23,-83.75 934.9,-77.79"/>
</g>
<!-- Node13 -->
<g id="node13" class="node">
<title>Node13</title>
<g id="a_node13"><a xlink:href="tide_8h.html" target="_top" xlink:title=" ">
<polygon fill="none" stroke="black" points="654.54,-179.5 654.54,-198.5 753.54,-198.5 753.54,-179.5 654.54,-179.5"/>
<text text-anchor="middle" x="704.04" y="-186.5" font-family="Helvetica,sans-Serif" font-size="10.00">WillyWeather/tide.h</text>
</a>
</g>
</g>
<!-- Node1&#45;&gt;Node13 -->
<g id="edge22" class="edge">
<title>Node1&#45;&gt;Node13</title>
<path fill="none" stroke="midnightblue" d="M527.32,-235.44C563.49,-226.14 621.42,-211.25 661.03,-201.06"/>
<polygon fill="midnightblue" stroke="midnightblue" points="662.11,-204.4 670.92,-198.52 660.37,-197.62 662.11,-204.4"/>
</g>
<!-- Node18 -->
<g id="node18" class="node">
<title>Node18</title>
<g id="a_node18"><a xlink:href="_i_b_m___e_i_s_2authenticate_8h.html" target="_top" xlink:title=" ">
<polygon fill="none" stroke="black" points="36.54,-118 36.54,-137 155.54,-137 155.54,-118 36.54,-118"/>
<text text-anchor="middle" x="96.04" y="-125" font-family="Helvetica,sans-Serif" font-size="10.00">IBM_EIS/authenticate.h</text>
</a>
</g>
</g>
<!-- Node1&#45;&gt;Node18 -->
<g id="edge41" class="edge">
<title>Node1&#45;&gt;Node18</title>
<path fill="none" stroke="midnightblue" d="M464.45,-235.41C393.71,-214.88 214.76,-162.95 135.2,-139.86"/>
<polygon fill="midnightblue" stroke="midnightblue" points="136.14,-136.49 125.56,-137.06 134.19,-143.21 136.14,-136.49"/>
</g>
<!-- Node19 -->
<g id="node19" class="node">
<title>Node19</title>
<g id="a_node19"><a xlink:href="timeseries_8h.html" target="_top" xlink:title=" ">
<polygon fill="none" stroke="black" points="438.54,-118 438.54,-137 549.54,-137 549.54,-118 438.54,-118"/>
<text text-anchor="middle" x="494.04" y="-125" font-family="Helvetica,sans-Serif" font-size="10.00">IBM_EIS/timeseries.h</text>
</a>
</g>
</g>
<!-- Node1&#45;&gt;Node19 -->
<g id="edge45" class="edge">
<title>Node1&#45;&gt;Node19</title>
<path fill="none" stroke="midnightblue" d="M494.04,-235.32C494.04,-216.76 494.04,-172.84 494.04,-147.47"/>
<polygon fill="midnightblue" stroke="midnightblue" points="497.54,-147.28 494.04,-137.28 490.54,-147.28 497.54,-147.28"/>
</g>
<!-- Node20 -->
<g id="node20" class="node">
<title>Node20</title>
<g id="a_node20"><a xlink:href="food__auth_8h.html" target="_top" xlink:title=" ">
<polygon fill="none" stroke="black" points="174.04,-112.5 174.04,-142.5 272.04,-142.5 272.04,-112.5 174.04,-112.5"/>
<text text-anchor="start" x="182.04" y="-130.5" font-family="Helvetica,sans-Serif" font-size="10.00">FoodAuthority/food</text>
<text text-anchor="middle" x="223.04" y="-119.5" font-family="Helvetica,sans-Serif" font-size="10.00">_auth.h</text>
</a>
</g>
</g>
<!-- Node1&#45;&gt;Node20 -->
<g id="edge51" class="edge">
<title>Node1&#45;&gt;Node20</title>
<path fill="none" stroke="midnightblue" d="M473.68,-235.32C429.6,-216.53 324.59,-171.78 265.43,-146.57"/>
<polygon fill="midnightblue" stroke="midnightblue" points="266.57,-143.25 256,-142.55 263.83,-149.69 266.57,-143.25"/>
</g>
<!-- Node5&#45;&gt;Node4 -->
<g id="edge6" class="edge">
<title>Node5&#45;&gt;Node4</title>
<path fill="none" stroke="midnightblue" d="M361.8,-117.83C348.02,-107.98 325.08,-91.28 306.04,-76 285.64,-59.62 263.05,-39.8 248.05,-26.38"/>
<polygon fill="midnightblue" stroke="midnightblue" points="250.33,-23.73 240.56,-19.65 245.65,-28.94 250.33,-23.73"/>
</g>
<!-- Node6 -->
<g id="node6" class="node">
<title>Node6</title>
<g id="a_node6"><a xlink:title=" ">
<polygon fill="none" stroke="#bfbfbf" points="748.04,-0.5 748.04,-19.5 796.04,-19.5 796.04,-0.5 748.04,-0.5"/>
<text text-anchor="middle" x="772.04" y="-7.5" font-family="Helvetica,sans-Serif" font-size="10.00">string.h</text>
</a>
</g>
</g>
<!-- Node5&#45;&gt;Node6 -->
<g id="edge5" class="edge">
<title>Node5&#45;&gt;Node6</title>
<path fill="none" stroke="midnightblue" d="M385.73,-117.89C410.17,-99.95 465.21,-59.93 475.04,-56 565.14,-20.03 681.11,-12.57 737.79,-11.19"/>
<polygon fill="midnightblue" stroke="midnightblue" points="738.05,-14.68 747.98,-10.99 737.92,-7.68 738.05,-14.68"/>
</g>
<!-- Node7 -->
<g id="node7" class="node">
<title>Node7</title>
<g id="a_node7"><a xlink:title=" ">
<polygon fill="none" stroke="#bfbfbf" points="507.54,-0.5 507.54,-19.5 590.54,-19.5 590.54,-0.5 507.54,-0.5"/>
<text text-anchor="middle" x="549.04" y="-7.5" font-family="Helvetica,sans-Serif" font-size="10.00">cjson/cJSON.h</text>
</a>
</g>
</g>
<!-- Node5&#45;&gt;Node7 -->
<g id="edge7" class="edge">
<title>Node5&#45;&gt;Node7</title>
<path fill="none" stroke="midnightblue" d="M380.66,-117.58C391.88,-102.99 415.95,-73.88 442.04,-56 463,-41.64 489.25,-30.51 510.51,-22.92"/>
<polygon fill="midnightblue" stroke="midnightblue" points="511.89,-26.14 520.2,-19.57 509.6,-19.53 511.89,-26.14"/>
</g>
<!-- Node8 -->
<g id="node8" class="node">
<title>Node8</title>
<g id="a_node8"><a xlink:href="utils_8h.html" target="_top" xlink:title=" ">
<polygon fill="none" stroke="black" points="348.04,-56.5 348.04,-75.5 390.04,-75.5 390.04,-56.5 348.04,-56.5"/>
<text text-anchor="middle" x="369.04" y="-63.5" font-family="Helvetica,sans-Serif" font-size="10.00">utils.h</text>
</a>
</g>
</g>
<!-- Node5&#45;&gt;Node8 -->
<g id="edge8" class="edge">
<title>Node5&#45;&gt;Node8</title>
<path fill="none" stroke="midnightblue" d="M373.33,-117.98C372.62,-109.58 371.52,-96.48 370.61,-85.66"/>
<polygon fill="midnightblue" stroke="midnightblue" points="374.08,-85.18 369.76,-75.51 367.11,-85.77 374.08,-85.18"/>
</g>
<!-- Node8&#45;&gt;Node2 -->
<g id="edge9" class="edge">
<title>Node8&#45;&gt;Node2</title>
<path fill="none" stroke="midnightblue" d="M390.13,-62.88C472.41,-54.62 772.25,-24.53 873.43,-14.37"/>
<polygon fill="midnightblue" stroke="midnightblue" points="873.81,-17.85 883.41,-13.37 873.11,-10.89 873.81,-17.85"/>
</g>
<!-- Node8&#45;&gt;Node4 -->
<g id="edge11" class="edge">
<title>Node8&#45;&gt;Node4</title>
<path fill="none" stroke="midnightblue" d="M347.78,-56.68C324.99,-47.76 288.56,-33.51 262.46,-23.29"/>
<polygon fill="midnightblue" stroke="midnightblue" points="263.6,-19.98 253.01,-19.6 261.05,-26.5 263.6,-19.98"/>
</g>
<!-- Node8&#45;&gt;Node6 -->
<g id="edge10" class="edge">
<title>Node8&#45;&gt;Node6</title>
<path fill="none" stroke="midnightblue" d="M390.14,-62.17C455.78,-53.38 656.82,-26.44 737.75,-15.59"/>
<polygon fill="midnightblue" stroke="midnightblue" points="738.46,-19.03 747.91,-14.23 737.53,-12.09 738.46,-19.03"/>
</g>
<!-- Node8&#45;&gt;Node7 -->
<g id="edge12" class="edge">
<title>Node8&#45;&gt;Node7</title>
<path fill="none" stroke="midnightblue" d="M390.04,-58.7C419.54,-49.85 473.76,-33.59 510.6,-22.53"/>
<polygon fill="midnightblue" stroke="midnightblue" points="511.92,-25.79 520.49,-19.57 509.9,-19.09 511.92,-25.79"/>
</g>
<!-- Node9 -->
<g id="node9" class="node">
<title>Node9</title>
<g id="a_node9"><a xlink:title=" ">
<polygon fill="none" stroke="#bfbfbf" points="343.54,-0.5 343.54,-19.5 402.54,-19.5 402.54,-0.5 343.54,-0.5"/>
<text text-anchor="middle" x="373.04" y="-7.5" font-family="Helvetica,sans-Serif" font-size="10.00">sys/stat.h</text>
</a>
</g>
</g>
<!-- Node8&#45;&gt;Node9 -->
<g id="edge13" class="edge">
<title>Node8&#45;&gt;Node9</title>
<path fill="none" stroke="midnightblue" d="M369.7,-56.08C370.23,-49.01 370.98,-38.86 371.64,-29.99"/>
<polygon fill="midnightblue" stroke="midnightblue" points="375.15,-29.98 372.4,-19.75 368.17,-29.47 375.15,-29.98"/>
</g>
<!-- Node10 -->
<g id="node10" class="node">
<title>Node10</title>
<g id="a_node10"><a xlink:title=" ">
<polygon fill="none" stroke="#bfbfbf" points="420.54,-0.5 420.54,-19.5 485.54,-19.5 485.54,-0.5 420.54,-0.5"/>
<text text-anchor="middle" x="453.04" y="-7.5" font-family="Helvetica,sans-Serif" font-size="10.00">sys/types.h</text>
</a>
</g>
</g>
<!-- Node8&#45;&gt;Node10 -->
<g id="edge14" class="edge">
<title>Node8&#45;&gt;Node10</title>
<path fill="none" stroke="midnightblue" d="M382.54,-56.32C395.64,-47.9 415.76,-34.97 431.15,-25.07"/>
<polygon fill="midnightblue" stroke="midnightblue" points="433.06,-28.01 439.58,-19.65 429.28,-22.12 433.06,-28.01"/>
</g>
<!-- Node11 -->
<g id="node11" class="node">
<title>Node11</title>
<g id="a_node11"><a xlink:title=" ">
<polygon fill="none" stroke="#bfbfbf" points="279.04,-0.5 279.04,-19.5 325.04,-19.5 325.04,-0.5 279.04,-0.5"/>
<text text-anchor="middle" x="302.04" y="-7.5" font-family="Helvetica,sans-Serif" font-size="10.00">errno.h</text>
</a>
</g>
</g>
<!-- Node8&#45;&gt;Node11 -->
<g id="edge15" class="edge">
<title>Node8&#45;&gt;Node11</title>
<path fill="none" stroke="midnightblue" d="M358.28,-56.32C348.28,-48.26 333.16,-36.08 321.11,-26.37"/>
<polygon fill="midnightblue" stroke="midnightblue" points="322.99,-23.38 313,-19.83 318.59,-28.83 322.99,-23.38"/>
</g>
<!-- Node12&#45;&gt;Node2 -->
<g id="edge18" class="edge">
<title>Node12&#45;&gt;Node2</title>
<path fill="none" stroke="midnightblue" d="M907.04,-56.08C907.04,-49.01 907.04,-38.86 907.04,-29.99"/>
<polygon fill="midnightblue" stroke="midnightblue" points="910.54,-29.75 907.04,-19.75 903.54,-29.75 910.54,-29.75"/>
</g>
<!-- Node12&#45;&gt;Node3 -->
<g id="edge19" class="edge">
<title>Node12&#45;&gt;Node3</title>
<path fill="none" stroke="midnightblue" d="M928.44,-56.44C950.75,-47.52 985.95,-33.44 1011.25,-23.32"/>
<polygon fill="midnightblue" stroke="midnightblue" points="1012.77,-26.48 1020.75,-19.52 1010.17,-19.98 1012.77,-26.48"/>
</g>
<!-- Node12&#45;&gt;Node4 -->
<g id="edge21" class="edge">
<title>Node12&#45;&gt;Node4</title>
<path fill="none" stroke="midnightblue" d="M838.34,-61.51C700.91,-54.31 395.36,-37.15 270.83,-19.82"/>
<polygon fill="midnightblue" stroke="midnightblue" points="271.16,-16.34 260.76,-18.36 270.16,-23.26 271.16,-16.34"/>
</g>
<!-- Node12&#45;&gt;Node6 -->
<g id="edge17" class="edge">
<title>Node12&#45;&gt;Node6</title>
<path fill="none" stroke="midnightblue" d="M885.65,-56.44C863.34,-47.52 828.14,-33.44 802.84,-23.32"/>
<polygon fill="midnightblue" stroke="midnightblue" points="803.92,-19.98 793.34,-19.52 801.32,-26.48 803.92,-19.98"/>
</g>
<!-- Node12&#45;&gt;Node7 -->
<g id="edge20" class="edge">
<title>Node12&#45;&gt;Node7</title>
<path fill="none" stroke="midnightblue" d="M850.32,-56.44C781.73,-46.1 667.26,-28.83 600.92,-18.82"/>
<polygon fill="midnightblue" stroke="midnightblue" points="601.11,-15.31 590.7,-17.28 600.07,-22.24 601.11,-15.31"/>
</g>
<!-- Node13&#45;&gt;Node2 -->
<g id="edge24" class="edge">
<title>Node13&#45;&gt;Node2</title>
<path fill="none" stroke="midnightblue" d="M753.82,-186.66C825.69,-183.66 953.52,-174 986.04,-143 1014.39,-115.98 1020.85,-89.18 1000.04,-56 987.11,-35.37 961.73,-23.96 940.75,-17.8"/>
<polygon fill="midnightblue" stroke="midnightblue" points="941.44,-14.36 930.88,-15.18 939.64,-21.13 941.44,-14.36"/>
</g>
<!-- Node13&#45;&gt;Node4 -->
<g id="edge27" class="edge">
<title>Node13&#45;&gt;Node4</title>
<path fill="none" stroke="midnightblue" d="M654.44,-188.51C505.47,-189.53 69.68,-188.56 27.04,-143 -28.97,-83.13 117.65,-38.08 191.51,-19.86"/>
<polygon fill="midnightblue" stroke="midnightblue" points="192.52,-23.22 201.42,-17.47 190.88,-16.41 192.52,-23.22"/>
</g>
<!-- Node13&#45;&gt;Node6 -->
<g id="edge23" class="edge">
<title>Node13&#45;&gt;Node6</title>
<path fill="none" stroke="midnightblue" d="M753.8,-185.35C820.05,-180.85 932.44,-169.45 963.04,-143 986.76,-122.5 980.09,-106.95 985.04,-76 986.45,-67.22 990.64,-62.9 985.04,-56 962.95,-28.75 860.91,-17.36 806.48,-13.15"/>
<polygon fill="midnightblue" stroke="midnightblue" points="806.49,-9.65 796.26,-12.41 805.98,-16.63 806.49,-9.65"/>
</g>
<!-- Node13&#45;&gt;Node7 -->
<g id="edge28" class="edge">
<title>Node13&#45;&gt;Node7</title>
<path fill="none" stroke="midnightblue" d="M687.31,-179.45C672.65,-171.41 651.35,-158.33 636.04,-143 600.63,-107.52 571.46,-55.47 557.65,-28.56"/>
<polygon fill="midnightblue" stroke="midnightblue" points="560.75,-26.92 553.13,-19.56 554.5,-30.07 560.75,-26.92"/>
</g>
<!-- Node13&#45;&gt;Node8 -->
<g id="edge40" class="edge">
<title>Node13&#45;&gt;Node8</title>
<path fill="none" stroke="midnightblue" d="M654.5,-185.82C555.55,-180.96 340.99,-167.66 319.04,-143 301.7,-123.5 327.57,-97.51 348.1,-81.53"/>
<polygon fill="midnightblue" stroke="midnightblue" points="350.22,-84.32 356.16,-75.54 346.04,-78.7 350.22,-84.32"/>
</g>
<!-- Node13&#45;&gt;Node12 -->
<g id="edge29" class="edge">
<title>Node13&#45;&gt;Node12</title>
<path fill="none" stroke="midnightblue" d="M753.6,-186.05C817.4,-182.38 922.93,-171.99 947.04,-143 962.45,-124.48 942.48,-99.07 925.65,-82.84"/>
<polygon fill="midnightblue" stroke="midnightblue" points="927.55,-79.83 917.81,-75.68 922.83,-85 927.55,-79.83"/>
</g>
<!-- Node14 -->
<g id="node14" class="node">
<title>Node14</title>
<g id="a_node14"><a xlink:title=" ">
<polygon fill="none" stroke="#bfbfbf" points="622.04,-56.5 622.04,-75.5 668.04,-75.5 668.04,-56.5 622.04,-56.5"/>
<text text-anchor="middle" x="645.04" y="-63.5" font-family="Helvetica,sans-Serif" font-size="10.00">math.h</text>
</a>
</g>
</g>
<!-- Node13&#45;&gt;Node14 -->
<g id="edge25" class="edge">
<title>Node13&#45;&gt;Node14</title>
<path fill="none" stroke="midnightblue" d="M727.83,-179.5C743.77,-172.41 763.51,-160.61 773.04,-143 779.61,-130.89 781.01,-123.24 773.04,-112 767.32,-103.92 713.87,-87.03 677.87,-76.4"/>
<polygon fill="midnightblue" stroke="midnightblue" points="678.82,-73.03 668.24,-73.58 676.85,-79.75 678.82,-73.03"/>
</g>
<!-- Node15 -->
<g id="node15" class="node">
<title>Node15</title>
<g id="a_node15"><a xlink:title=" ">
<polygon fill="none" stroke="#bfbfbf" points="484.54,-56.5 484.54,-75.5 527.54,-75.5 527.54,-56.5 484.54,-56.5"/>
<text text-anchor="middle" x="506.04" y="-63.5" font-family="Helvetica,sans-Serif" font-size="10.00">time.h</text>
</a>
</g>
</g>
<!-- Node13&#45;&gt;Node15 -->
<g id="edge26" class="edge">
<title>Node13&#45;&gt;Node15</title>
<path fill="none" stroke="midnightblue" d="M680.11,-179.43C658.89,-171.38 627.4,-158.29 602.04,-143 586.07,-133.37 546.9,-101.24 523.83,-81.98"/>
<polygon fill="midnightblue" stroke="midnightblue" points="526.05,-79.27 516.13,-75.53 521.55,-84.63 526.05,-79.27"/>
</g>
<!-- Node16 -->
<g id="node16" class="node">
<title>Node16</title>
<g id="a_node16"><a xlink:href="location_8h.html" target="_top" xlink:title=" ">
<polygon fill="none" stroke="black" points="820.54,-118 820.54,-137 937.54,-137 937.54,-118 820.54,-118"/>
<text text-anchor="middle" x="879.04" y="-125" font-family="Helvetica,sans-Serif" font-size="10.00">WillyWeather/location.h</text>
</a>
</g>
</g>
<!-- Node13&#45;&gt;Node16 -->
<g id="edge30" class="edge">
<title>Node13&#45;&gt;Node16</title>
<path fill="none" stroke="midnightblue" d="M729.12,-179.48C759.4,-169.18 810.48,-151.81 844.48,-140.25"/>
<polygon fill="midnightblue" stroke="midnightblue" points="845.68,-143.54 854.02,-137.01 843.42,-136.91 845.68,-143.54"/>
</g>
<!-- Node17 -->
<g id="node17" class="node">
<title>Node17</title>
<g id="a_node17"><a xlink:href="forecast_8h.html" target="_top" xlink:title=" ">
<polygon fill="none" stroke="black" points="644.54,-118 644.54,-137 763.54,-137 763.54,-118 644.54,-118"/>
<text text-anchor="middle" x="704.04" y="-125" font-family="Helvetica,sans-Serif" font-size="10.00">WillyWeather/forecast.h</text>
</a>
</g>
</g>
<!-- Node13&#45;&gt;Node17 -->
<g id="edge39" class="edge">
<title>Node13&#45;&gt;Node17</title>
<path fill="none" stroke="midnightblue" d="M704.04,-179.48C704.04,-171.08 704.04,-157.98 704.04,-147.16"/>
<polygon fill="midnightblue" stroke="midnightblue" points="707.54,-147.01 704.04,-137.01 700.54,-147.01 707.54,-147.01"/>
</g>
<!-- Node16&#45;&gt;Node2 -->
<g id="edge32" class="edge">
<title>Node16&#45;&gt;Node2</title>
<path fill="none" stroke="midnightblue" d="M865.43,-117.92C846.67,-104.95 816.62,-79.4 830.04,-56 839.43,-39.65 857.3,-28.68 873.46,-21.66"/>
<polygon fill="midnightblue" stroke="midnightblue" points="875.21,-24.73 883.21,-17.79 872.63,-18.22 875.21,-24.73"/>
</g>
<!-- Node16&#45;&gt;Node3 -->
<g id="edge33" class="edge">
<title>Node16&#45;&gt;Node3</title>
<path fill="none" stroke="midnightblue" d="M904.2,-117.86C926.74,-109.37 960.01,-94.94 985.04,-76 1003.11,-62.33 1019.69,-42.18 1030.25,-27.95"/>
<polygon fill="midnightblue" stroke="midnightblue" points="1033.28,-29.74 1036.28,-19.58 1027.6,-25.65 1033.28,-29.74"/>
</g>
<!-- Node16&#45;&gt;Node4 -->
<g id="edge36" class="edge">
<title>Node16&#45;&gt;Node4</title>
<path fill="none" stroke="midnightblue" d="M840.47,-117.95C805.55,-109.52 753.15,-95.13 710.04,-76 694.37,-69.04 693.34,-61.34 677.04,-56 507.59,-0.49 451.42,-46.75 270.87,-19.87"/>
<polygon fill="midnightblue" stroke="midnightblue" points="271.19,-16.37 260.77,-18.31 270.12,-23.29 271.19,-16.37"/>
</g>
<!-- Node16&#45;&gt;Node6 -->
<g id="edge31" class="edge">
<title>Node16&#45;&gt;Node6</title>
<path fill="none" stroke="midnightblue" d="M867.98,-117.76C856.07,-108.12 836.84,-91.85 822.04,-76 807.84,-60.78 793.55,-41.73 783.9,-28.2"/>
<polygon fill="midnightblue" stroke="midnightblue" points="786.64,-26 778.03,-19.83 780.91,-30.03 786.64,-26"/>
</g>
<!-- Node16&#45;&gt;Node7 -->
<g id="edge35" class="edge">
<title>Node16&#45;&gt;Node7</title>
<path fill="none" stroke="midnightblue" d="M860.58,-117.92C829.81,-103.81 765.91,-75.38 710.04,-56 671.57,-42.65 626.9,-30.42 594.39,-22.09"/>
<polygon fill="midnightblue" stroke="midnightblue" points="594.84,-18.59 584.29,-19.52 593.12,-25.38 594.84,-18.59"/>
</g>
<!-- Node16&#45;&gt;Node8 -->
<g id="edge38" class="edge">
<title>Node16&#45;&gt;Node8</title>
<path fill="none" stroke="midnightblue" d="M820.48,-118.22C805.06,-116.12 788.44,-113.91 773.04,-112 634.1,-94.76 467.89,-77.22 400.11,-70.19"/>
<polygon fill="midnightblue" stroke="midnightblue" points="400.4,-66.7 390.1,-69.16 399.68,-73.67 400.4,-66.7"/>
</g>
<!-- Node16&#45;&gt;Node12 -->
<g id="edge37" class="edge">
<title>Node16&#45;&gt;Node12</title>
<path fill="none" stroke="midnightblue" d="M883.06,-117.98C887.13,-109.32 893.56,-95.65 898.74,-84.65"/>
<polygon fill="midnightblue" stroke="midnightblue" points="901.95,-86.05 903.04,-75.51 895.62,-83.07 901.95,-86.05"/>
</g>
<!-- Node16&#45;&gt;Node14 -->
<g id="edge34" class="edge">
<title>Node16&#45;&gt;Node14</title>
<path fill="none" stroke="midnightblue" d="M845.52,-117.98C800.85,-106.62 722.31,-86.65 677.95,-75.37"/>
<polygon fill="midnightblue" stroke="midnightblue" points="678.8,-71.97 668.24,-72.9 677.07,-78.76 678.8,-71.97"/>
</g>
<!-- Node18&#45;&gt;Node4 -->
<g id="edge42" class="edge">
<title>Node18&#45;&gt;Node4</title>
<path fill="none" stroke="midnightblue" d="M100.51,-117.7C108.18,-103.29 125.07,-74.41 146.04,-56 161.57,-42.37 181.94,-31.41 198.85,-23.71"/>
<polygon fill="midnightblue" stroke="midnightblue" points="200.58,-26.78 208.34,-19.57 197.78,-20.36 200.58,-26.78"/>
</g>
<!-- Node18&#45;&gt;Node7 -->
<g id="edge43" class="edge">
<title>Node18&#45;&gt;Node7</title>
<path fill="none" stroke="midnightblue" d="M116.6,-117.94C152.33,-103.36 228.42,-73.58 295.04,-56 314.25,-50.93 428.8,-31.28 497.34,-19.69"/>
<polygon fill="midnightblue" stroke="midnightblue" points="498.23,-23.09 507.51,-17.97 497.07,-16.19 498.23,-23.09"/>
</g>
<!-- Node18&#45;&gt;Node8 -->
<g id="edge44" class="edge">
<title>Node18&#45;&gt;Node8</title>
<path fill="none" stroke="midnightblue" d="M135.16,-117.98C189.8,-106.07 287.9,-84.69 337.9,-73.79"/>
<polygon fill="midnightblue" stroke="midnightblue" points="338.78,-77.18 347.81,-71.63 337.29,-70.34 338.78,-77.18"/>
</g>
<!-- Node19&#45;&gt;Node4 -->
<g id="edge46" class="edge">
<title>Node19&#45;&gt;Node4</title>
<path fill="none" stroke="midnightblue" d="M460.55,-117.99C428.58,-109.32 379.44,-94.52 339.04,-76 323.45,-68.85 320.73,-64.86 306.04,-56 288.76,-45.58 269.21,-33.85 254.41,-24.98"/>
<polygon fill="midnightblue" stroke="midnightblue" points="255.81,-21.74 245.43,-19.61 252.21,-27.75 255.81,-21.74"/>
</g>
<!-- Node19&#45;&gt;Node7 -->
<g id="edge47" class="edge">
<title>Node19&#45;&gt;Node7</title>
<path fill="none" stroke="midnightblue" d="M503.65,-117.82C513.38,-108.46 528.08,-92.67 536.04,-76 543.02,-61.4 546.25,-43.22 547.75,-29.81"/>
<polygon fill="midnightblue" stroke="midnightblue" points="551.24,-30.12 548.65,-19.84 544.27,-29.49 551.24,-30.12"/>
</g>
<!-- Node19&#45;&gt;Node8 -->
<g id="edge50" class="edge">
<title>Node19&#45;&gt;Node8</title>
<path fill="none" stroke="midnightblue" d="M476.13,-117.98C455.16,-107.99 420.19,-91.35 395.95,-79.81"/>
<polygon fill="midnightblue" stroke="midnightblue" points="397.45,-76.65 386.92,-75.51 394.45,-82.97 397.45,-76.65"/>
</g>
<!-- Node19&#45;&gt;Node14 -->
<g id="edge48" class="edge">
<title>Node19&#45;&gt;Node14</title>
<path fill="none" stroke="midnightblue" d="M515.68,-117.98C541.47,-107.81 584.75,-90.76 614.08,-79.2"/>
<polygon fill="midnightblue" stroke="midnightblue" points="615.43,-82.43 623.45,-75.51 612.86,-75.92 615.43,-82.43"/>
</g>
<!-- Node19&#45;&gt;Node15 -->
<g id="edge49" class="edge">
<title>Node19&#45;&gt;Node15</title>
<path fill="none" stroke="midnightblue" d="M495.76,-117.98C497.47,-109.49 500.15,-96.2 502.35,-85.32"/>
<polygon fill="midnightblue" stroke="midnightblue" points="505.78,-86 504.33,-75.51 498.92,-84.62 505.78,-86"/>
</g>
<!-- Node20&#45;&gt;Node4 -->
<g id="edge52" class="edge">
<title>Node20&#45;&gt;Node4</title>
<path fill="none" stroke="midnightblue" d="M224.03,-112.34C225.46,-91.62 228.13,-53.02 229.74,-29.9"/>
<polygon fill="midnightblue" stroke="midnightblue" points="233.24,-29.89 230.44,-19.67 226.26,-29.4 233.24,-29.89"/>
</g>
<!-- Node20&#45;&gt;Node7 -->
<g id="edge53" class="edge">
<title>Node20&#45;&gt;Node7</title>
<path fill="none" stroke="midnightblue" d="M241.7,-112.42C263.8,-96.42 302.26,-70.63 339.04,-56 367.3,-44.76 444.81,-29.57 497.34,-20.03"/>
<polygon fill="midnightblue" stroke="midnightblue" points="498.27,-23.42 507.49,-18.2 497.02,-16.53 498.27,-23.42"/>
</g>
<!-- Node20&#45;&gt;Node8 -->
<g id="edge55" class="edge">
<title>Node20&#45;&gt;Node8</title>
<path fill="none" stroke="midnightblue" d="M257.64,-112.4C282.14,-102.42 314.7,-89.15 338.29,-79.53"/>
<polygon fill="midnightblue" stroke="midnightblue" points="339.86,-82.67 347.8,-75.66 337.22,-76.19 339.86,-82.67"/>
</g>
<!-- Node20&#45;&gt;Node15 -->
<g id="edge54" class="edge">
<title>Node20&#45;&gt;Node15</title>
<path fill="none" stroke="midnightblue" d="M272.34,-116.14C330.47,-103.91 425.37,-83.96 474.44,-73.64"/>
<polygon fill="midnightblue" stroke="midnightblue" points="475.4,-77.02 484.47,-71.54 473.96,-70.17 475.4,-77.02"/>
</g>
</g>
</svg>
