<?xml version="1.0" encoding="UTF-8" standalone="no"?>
<!DOCTYPE svg PUBLIC "-//W3C//DTD SVG 1.1//EN"
 "http://www.w3.org/Graphics/SVG/1.1/DTD/svg11.dtd">
<!-- Generated by graphviz version 2.43.0 (0)
 -->
<!-- Title: include/main.h Pages: 1 -->
<svg width="383pt" height="196pt"
 viewBox="0.00 0.00 382.50 196.00" xmlns="http://www.w3.org/2000/svg" xmlns:xlink="http://www.w3.org/1999/xlink">
<g id="graph0" class="graph" transform="scale(1 1) rotate(0) translate(4 192)">
<title>include/main.h</title>
<!-- Node1 -->
<g id="node1" class="node">
<title>Node1</title>
<g id="a_node1"><a xlink:title=" ">
<polygon fill="#bfbfbf" stroke="black" points="96,-168.5 96,-187.5 185,-187.5 185,-168.5 96,-168.5"/>
<text text-anchor="middle" x="140.5" y="-175.5" font-family="Helvetica,sans-Serif" font-size="10.00">include/main.h</text>
</a>
</g>
</g>
<!-- Node2 -->
<g id="node2" class="node">
<title>Node2</title>
<g id="a_node2"><a xlink:title=" ">
<polygon fill="none" stroke="#bfbfbf" points="0,-0.5 0,-19.5 53,-19.5 53,-0.5 0,-0.5"/>
<text text-anchor="middle" x="26.5" y="-7.5" font-family="Helvetica,sans-Serif" font-size="10.00">stdlib.h</text>
</a>
</g>
</g>
<!-- Node1&#45;&gt;Node2 -->
<g id="edge1" class="edge">
<title>Node1&#45;&gt;Node2</title>
<path fill="none" stroke="midnightblue" d="M97.78,-168.48C76.87,-162.04 53.29,-150.93 39.5,-132 17.5,-101.78 19.7,-55.55 23.16,-29.86"/>
<polygon fill="midnightblue" stroke="midnightblue" points="26.67,-30.06 24.75,-19.64 19.75,-28.98 26.67,-30.06"/>
</g>
<!-- Node3 -->
<g id="node3" class="node">
<title>Node3</title>
<g id="a_node3"><a xlink:title=" ">
<polygon fill="none" stroke="#bfbfbf" points="324.5,-112.5 324.5,-131.5 374.5,-131.5 374.5,-112.5 324.5,-112.5"/>
<text text-anchor="middle" x="349.5" y="-119.5" font-family="Helvetica,sans-Serif" font-size="10.00">stdio.h</text>
</a>
</g>
</g>
<!-- Node1&#45;&gt;Node3 -->
<g id="edge2" class="edge">
<title>Node1&#45;&gt;Node3</title>
<path fill="none" stroke="midnightblue" d="M174.07,-168.44C207.31,-159.95 259.94,-146.47 314.42,-132.27"/>
<polygon fill="midnightblue" stroke="midnightblue" points="315.46,-135.61 324.25,-129.7 313.69,-128.84 315.46,-135.61"/>
</g>
<!-- Node4 -->
<g id="node4" class="node">
<title>Node4</title>
<g id="a_node4"><a xlink:title=" ">
<polygon fill="none" stroke="#bfbfbf" points="88,-0.5 88,-19.5 153,-19.5 153,-0.5 88,-0.5"/>
<text text-anchor="middle" x="120.5" y="-7.5" font-family="Helvetica,sans-Serif" font-size="10.00">curl/curl.h</text>
</a>
</g>
</g>
<!-- Node1&#45;&gt;Node4 -->
<g id="edge3" class="edge">
<title>Node1&#45;&gt;Node4</title>
<path fill="none" stroke="midnightblue" d="M102.53,-168.41C83.09,-161.88 61.12,-150.72 49.5,-132 26.09,-94.31 71.94,-48.99 100.34,-25.99"/>
<polygon fill="midnightblue" stroke="midnightblue" points="102.79,-28.52 108.5,-19.6 98.47,-23.01 102.79,-28.52"/>
</g>
<!-- Node5 -->
<g id="node5" class="node">
<title>Node5</title>
<g id="a_node5"><a xlink:href="ubidots_8h.html" target="_top" xlink:title=" ">
<polygon fill="none" stroke="black" points="244.5,-112.5 244.5,-131.5 306.5,-131.5 306.5,-112.5 244.5,-112.5"/>
<text text-anchor="middle" x="275.5" y="-119.5" font-family="Helvetica,sans-Serif" font-size="10.00">ubidots.h</text>
</a>
</g>
</g>
<!-- Node1&#45;&gt;Node5 -->
<g id="edge4" class="edge">
<title>Node1&#45;&gt;Node5</title>
<path fill="none" stroke="midnightblue" d="M161.89,-168.44C184.21,-159.52 219.4,-145.44 244.71,-135.32"/>
<polygon fill="midnightblue" stroke="midnightblue" points="246.22,-138.48 254.21,-131.52 243.62,-131.98 246.22,-138.48"/>
</g>
<!-- Node9 -->
<g id="node9" class="node">
<title>Node9</title>
<g id="a_node9"><a xlink:href="w__weather_8h.html" target="_top" xlink:title=" ">
<polygon fill="none" stroke="black" points="148.5,-112.5 148.5,-131.5 226.5,-131.5 226.5,-112.5 148.5,-112.5"/>
<text text-anchor="middle" x="187.5" y="-119.5" font-family="Helvetica,sans-Serif" font-size="10.00">w_weather.h</text>
</a>
</g>
</g>
<!-- Node1&#45;&gt;Node9 -->
<g id="edge13" class="edge">
<title>Node1&#45;&gt;Node9</title>
<path fill="none" stroke="midnightblue" d="M148.26,-168.08C155.04,-160.3 165.04,-148.8 173.26,-139.37"/>
<polygon fill="midnightblue" stroke="midnightblue" points="175.96,-141.59 179.88,-131.75 170.68,-137 175.96,-141.59"/>
</g>
<!-- Node10 -->
<g id="node10" class="node">
<title>Node10</title>
<g id="a_node10"><a xlink:href="ibm__ems_8h.html" target="_top" xlink:title=" ">
<polygon fill="none" stroke="black" points="59,-112.5 59,-131.5 130,-131.5 130,-112.5 59,-112.5"/>
<text text-anchor="middle" x="94.5" y="-119.5" font-family="Helvetica,sans-Serif" font-size="10.00">ibm_ems.h</text>
</a>
</g>
</g>
<!-- Node1&#45;&gt;Node10 -->
<g id="edge17" class="edge">
<title>Node1&#45;&gt;Node10</title>
<path fill="none" stroke="midnightblue" d="M132.9,-168.08C126.27,-160.3 116.48,-148.8 108.44,-139.37"/>
<polygon fill="midnightblue" stroke="midnightblue" points="111.1,-137.09 101.95,-131.75 105.77,-141.63 111.1,-137.09"/>
</g>
<!-- Node5&#45;&gt;Node4 -->
<g id="edge6" class="edge">
<title>Node5&#45;&gt;Node4</title>
<path fill="none" stroke="midnightblue" d="M270.77,-112.28C262.97,-98.61 246.2,-72.06 225.5,-56 206.29,-41.09 181.4,-30.14 160.68,-22.78"/>
<polygon fill="midnightblue" stroke="midnightblue" points="161.78,-19.46 151.19,-19.55 159.53,-26.09 161.78,-19.46"/>
</g>
<!-- Node6 -->
<g id="node6" class="node">
<title>Node6</title>
<g id="a_node6"><a xlink:title=" ">
<polygon fill="none" stroke="#bfbfbf" points="294,-0.5 294,-19.5 347,-19.5 347,-0.5 294,-0.5"/>
<text text-anchor="middle" x="320.5" y="-7.5" font-family="Helvetica,sans-Serif" font-size="10.00">string.h</text>
</a>
</g>
</g>
<!-- Node5&#45;&gt;Node6 -->
<g id="edge5" class="edge">
<title>Node5&#45;&gt;Node6</title>
<path fill="none" stroke="midnightblue" d="M294.48,-112.4C308.39,-104.95 326.21,-92.74 334.5,-76 341.84,-61.16 336.56,-42.54 330.5,-29.04"/>
<polygon fill="midnightblue" stroke="midnightblue" points="333.51,-27.24 325.91,-19.86 327.25,-30.37 333.51,-27.24"/>
</g>
<!-- Node7 -->
<g id="node7" class="node">
<title>Node7</title>
<g id="a_node7"><a xlink:title=" ">
<polygon fill="none" stroke="#bfbfbf" points="171,-0.5 171,-19.5 254,-19.5 254,-0.5 171,-0.5"/>
<text text-anchor="middle" x="212.5" y="-7.5" font-family="Helvetica,sans-Serif" font-size="10.00">cjson/cJSON.h</text>
</a>
</g>
</g>
<!-- Node5&#45;&gt;Node7 -->
<g id="edge7" class="edge">
<title>Node5&#45;&gt;Node7</title>
<path fill="none" stroke="midnightblue" d="M274.73,-112.45C273.26,-99.47 269.16,-74.36 258.5,-56 251.89,-44.61 241.61,-34.16 232.44,-26.21"/>
<polygon fill="midnightblue" stroke="midnightblue" points="234.42,-23.31 224.47,-19.65 229.97,-28.71 234.42,-23.31"/>
</g>
<!-- Node8 -->
<g id="node8" class="node">
<title>Node8</title>
<g id="a_node8"><a xlink:href="utils_8h.html" target="_top" xlink:title=" ">
<polygon fill="none" stroke="black" points="169,-56.5 169,-75.5 216,-75.5 216,-56.5 169,-56.5"/>
<text text-anchor="middle" x="192.5" y="-63.5" font-family="Helvetica,sans-Serif" font-size="10.00">utils.h</text>
</a>
</g>
</g>
<!-- Node5&#45;&gt;Node8 -->
<g id="edge8" class="edge">
<title>Node5&#45;&gt;Node8</title>
<path fill="none" stroke="midnightblue" d="M262.16,-112.32C249.34,-103.98 229.72,-91.21 214.56,-81.35"/>
<polygon fill="midnightblue" stroke="midnightblue" points="216.09,-78.17 205.8,-75.65 212.28,-84.04 216.09,-78.17"/>
</g>
<!-- Node8&#45;&gt;Node2 -->
<g id="edge9" class="edge">
<title>Node8&#45;&gt;Node2</title>
<path fill="none" stroke="midnightblue" d="M168.72,-57.26C140.97,-48.24 94.8,-33.22 62.62,-22.75"/>
<polygon fill="midnightblue" stroke="midnightblue" points="63.3,-19.29 52.7,-19.52 61.13,-25.95 63.3,-19.29"/>
</g>
<!-- Node8&#45;&gt;Node4 -->
<g id="edge11" class="edge">
<title>Node8&#45;&gt;Node4</title>
<path fill="none" stroke="midnightblue" d="M180.93,-56.32C170.08,-48.18 153.62,-35.84 140.62,-26.09"/>
<polygon fill="midnightblue" stroke="midnightblue" points="142.38,-23.03 132.28,-19.83 138.18,-28.63 142.38,-23.03"/>
</g>
<!-- Node8&#45;&gt;Node6 -->
<g id="edge10" class="edge">
<title>Node8&#45;&gt;Node6</title>
<path fill="none" stroke="midnightblue" d="M212.78,-56.44C233.85,-47.56 267.02,-33.56 290.99,-23.45"/>
<polygon fill="midnightblue" stroke="midnightblue" points="292.46,-26.63 300.31,-19.52 289.74,-20.18 292.46,-26.63"/>
</g>
<!-- Node8&#45;&gt;Node7 -->
<g id="edge12" class="edge">
<title>Node8&#45;&gt;Node7</title>
<path fill="none" stroke="midnightblue" d="M195.8,-56.08C198.48,-48.85 202.35,-38.41 205.69,-29.4"/>
<polygon fill="midnightblue" stroke="midnightblue" points="209.07,-30.34 209.26,-19.75 202.5,-27.91 209.07,-30.34"/>
</g>
<!-- Node9&#45;&gt;Node4 -->
<g id="edge15" class="edge">
<title>Node9&#45;&gt;Node4</title>
<path fill="none" stroke="midnightblue" d="M182.24,-112.37C171.23,-94.3 145.58,-52.18 131.04,-28.31"/>
<polygon fill="midnightblue" stroke="midnightblue" points="133.92,-26.31 125.73,-19.59 127.95,-29.95 133.92,-26.31"/>
</g>
<!-- Node9&#45;&gt;Node6 -->
<g id="edge14" class="edge">
<title>Node9&#45;&gt;Node6</title>
<path fill="none" stroke="midnightblue" d="M197.94,-112.37C220.47,-93.73 273.91,-49.53 302.2,-26.13"/>
<polygon fill="midnightblue" stroke="midnightblue" points="304.64,-28.66 310.11,-19.59 300.18,-23.27 304.64,-28.66"/>
</g>
<!-- Node9&#45;&gt;Node8 -->
<g id="edge16" class="edge">
<title>Node9&#45;&gt;Node8</title>
<path fill="none" stroke="midnightblue" d="M188.33,-112.08C188.98,-105.01 189.92,-94.86 190.74,-85.99"/>
<polygon fill="midnightblue" stroke="midnightblue" points="194.25,-86.03 191.69,-75.75 187.28,-85.39 194.25,-86.03"/>
</g>
<!-- Node10&#45;&gt;Node4 -->
<g id="edge18" class="edge">
<title>Node10&#45;&gt;Node4</title>
<path fill="none" stroke="midnightblue" d="M91.59,-112.35C87.78,-99.67 82.3,-75.43 88.5,-56 91.84,-45.54 98.6,-35.43 105.05,-27.45"/>
<polygon fill="midnightblue" stroke="midnightblue" points="107.85,-29.56 111.75,-19.71 102.56,-24.98 107.85,-29.56"/>
</g>
<!-- Node10&#45;&gt;Node7 -->
<g id="edge19" class="edge">
<title>Node10&#45;&gt;Node7</title>
<path fill="none" stroke="midnightblue" d="M102.87,-112.41C115.24,-99.8 139.23,-75.64 160.5,-56 171.46,-45.88 184.12,-34.91 194.2,-26.34"/>
<polygon fill="midnightblue" stroke="midnightblue" points="196.59,-28.9 201.97,-19.77 192.07,-23.55 196.59,-28.9"/>
</g>
<!-- Node10&#45;&gt;Node8 -->
<g id="edge20" class="edge">
<title>Node10&#45;&gt;Node8</title>
<path fill="none" stroke="midnightblue" d="M110.25,-112.32C125.82,-103.74 149.88,-90.49 167.96,-80.52"/>
<polygon fill="midnightblue" stroke="midnightblue" points="169.72,-83.55 176.79,-75.65 166.35,-77.42 169.72,-83.55"/>
</g>
</g>
</svg>
