<?xml version="1.0" encoding="UTF-8" standalone="no"?>
<!DOCTYPE svg PUBLIC "-//W3C//DTD SVG 1.1//EN"
 "http://www.w3.org/Graphics/SVG/1.1/DTD/svg11.dtd">
<!-- Generated by graphviz version 2.49.3 (20211027.1534)
 -->
<!-- Title: src/main.c Pages: 1 -->
<svg width="2954pt" height="554pt"
 viewBox="0.00 0.00 2954.00 554.00" xmlns="http://www.w3.org/2000/svg" xmlns:xlink="http://www.w3.org/1999/xlink">
<g id="graph0" class="graph" transform="scale(1 1) rotate(0) translate(4 550)">
<title>src/main.c</title>
<!-- Node1 -->
<g id="node1" class="node">
<title>Node1</title>
<g id="a_node1"><a xlink:title=" ">
<polygon fill="#bfbfbf" stroke="black" points="1295,-526.5 1295,-545.5 1357,-545.5 1357,-526.5 1295,-526.5"/>
<text text-anchor="middle" x="1326" y="-533.5" font-family="Helvetica,sans-Serif" font-size="10.00">src/main.c</text>
</a>
</g>
</g>
<!-- Node2 -->
<g id="node2" class="node">
<title>Node2</title>
<g id="a_node2"><a xlink:href="main_8h.html" target="_top" xlink:title=" ">
<polygon fill="none" stroke="black" points="1303.5,-470.5 1303.5,-489.5 1348.5,-489.5 1348.5,-470.5 1303.5,-470.5"/>
<text text-anchor="middle" x="1326" y="-477.5" font-family="Helvetica,sans-Serif" font-size="10.00">main.h</text>
</a>
</g>
</g>
<!-- Node1&#45;&gt;Node2 -->
<g id="edge1" class="edge">
<title>Node1&#45;&gt;Node2</title>
<path fill="none" stroke="midnightblue" d="M1326,-526.08C1326,-519.01 1326,-508.86 1326,-499.99"/>
<polygon fill="midnightblue" stroke="midnightblue" points="1329.5,-499.75 1326,-489.75 1322.5,-499.75 1329.5,-499.75"/>
</g>
<!-- Node3 -->
<g id="node3" class="node">
<title>Node3</title>
<g id="a_node3"><a xlink:title=" ">
<polygon fill="none" stroke="#bfbfbf" points="1326.5,-56.5 1326.5,-75.5 1373.5,-75.5 1373.5,-56.5 1326.5,-56.5"/>
<text text-anchor="middle" x="1350" y="-63.5" font-family="Helvetica,sans-Serif" font-size="10.00">stdlib.h</text>
</a>
</g>
</g>
<!-- Node2&#45;&gt;Node3 -->
<g id="edge2" class="edge">
<title>Node2&#45;&gt;Node3</title>
<path fill="none" stroke="midnightblue" d="M1348.77,-479.29C1461.84,-480.48 1959.24,-482.9 2005,-434 2205.91,-219.33 1544.24,-98.03 1384.09,-72.23"/>
<polygon fill="midnightblue" stroke="midnightblue" points="1384.28,-68.71 1373.86,-70.6 1383.18,-75.63 1384.28,-68.71"/>
</g>
<!-- Node4 -->
<g id="node4" class="node">
<title>Node4</title>
<g id="a_node4"><a xlink:title=" ">
<polygon fill="none" stroke="#bfbfbf" points="331.5,-0.5 331.5,-19.5 376.5,-19.5 376.5,-0.5 331.5,-0.5"/>
<text text-anchor="middle" x="354" y="-7.5" font-family="Helvetica,sans-Serif" font-size="10.00">stdio.h</text>
</a>
</g>
</g>
<!-- Node2&#45;&gt;Node4 -->
<g id="edge3" class="edge">
<title>Node2&#45;&gt;Node4</title>
<path fill="none" stroke="midnightblue" d="M1303.28,-479.05C1164.32,-479.19 427.74,-477.83 207,-434 110.87,-414.91 0,-456 0,-358 0,-358 0,-358 0,-121 0,-54.12 233.32,-23.33 321.12,-14.11"/>
<polygon fill="midnightblue" stroke="midnightblue" points="321.72,-17.57 331.32,-13.07 321.01,-10.61 321.72,-17.57"/>
</g>
<!-- Node5 -->
<g id="node5" class="node">
<title>Node5</title>
<g id="a_node5"><a xlink:title=" ">
<polygon fill="none" stroke="#bfbfbf" points="2080.5,-56.5 2080.5,-75.5 2139.5,-75.5 2139.5,-56.5 2080.5,-56.5"/>
<text text-anchor="middle" x="2110" y="-63.5" font-family="Helvetica,sans-Serif" font-size="10.00">curl/curl.h</text>
</a>
</g>
</g>
<!-- Node2&#45;&gt;Node5 -->
<g id="edge4" class="edge">
<title>Node2&#45;&gt;Node5</title>
<path fill="none" stroke="midnightblue" d="M1348.9,-478.54C1485.78,-475.72 2197.2,-460 2414,-434 2585.01,-413.49 2794,-530.23 2794,-358 2794,-358 2794,-358 2794,-300 2794,-116.34 2601.08,-167.48 2426,-112 2330.07,-81.6 2211.23,-71.69 2150.25,-68.49"/>
<polygon fill="midnightblue" stroke="midnightblue" points="2150.07,-64.98 2139.91,-67.98 2149.73,-71.97 2150.07,-64.98"/>
</g>
<!-- Node6 -->
<g id="node6" class="node">
<title>Node6</title>
<g id="a_node6"><a xlink:title=" ">
<polygon fill="none" stroke="#bfbfbf" points="376.5,-409 376.5,-428 427.5,-428 427.5,-409 376.5,-409"/>
<text text-anchor="middle" x="402" y="-416" font-family="Helvetica,sans-Serif" font-size="10.00">assert.h</text>
</a>
</g>
</g>
<!-- Node2&#45;&gt;Node6 -->
<g id="edge5" class="edge">
<title>Node2&#45;&gt;Node6</title>
<path fill="none" stroke="midnightblue" d="M1303.39,-478.9C1182.27,-478.19 609.24,-472.82 437,-434 434.33,-433.4 431.59,-432.61 428.89,-431.7"/>
<polygon fill="midnightblue" stroke="midnightblue" points="430.01,-428.38 419.42,-428.09 427.52,-434.92 430.01,-428.38"/>
</g>
<!-- Node7 -->
<g id="node7" class="node">
<title>Node7</title>
<g id="a_node7"><a xlink:title=" ">
<polygon fill="none" stroke="#bfbfbf" points="446,-409 446,-428 496,-428 496,-409 446,-409"/>
<text text-anchor="middle" x="471" y="-416" font-family="Helvetica,sans-Serif" font-size="10.00">unistd.h</text>
</a>
</g>
</g>
<!-- Node2&#45;&gt;Node7 -->
<g id="edge6" class="edge">
<title>Node2&#45;&gt;Node7</title>
<path fill="none" stroke="midnightblue" d="M1303.41,-478.67C1188.46,-476.85 667.82,-466.9 510,-434 506.75,-433.32 503.4,-432.42 500.11,-431.39"/>
<polygon fill="midnightblue" stroke="midnightblue" points="501.09,-428.03 490.5,-428.06 498.8,-434.64 501.09,-428.03"/>
</g>
<!-- Node8 -->
<g id="node8" class="node">
<title>Node8</title>
<g id="a_node8"><a xlink:title=" ">
<polygon fill="none" stroke="#bfbfbf" points="438,-291.5 438,-310.5 494,-310.5 494,-291.5 438,-291.5"/>
<text text-anchor="middle" x="466" y="-298.5" font-family="Helvetica,sans-Serif" font-size="10.00">libpq&#45;fe.h</text>
</a>
</g>
</g>
<!-- Node2&#45;&gt;Node8 -->
<g id="edge7" class="edge">
<title>Node2&#45;&gt;Node8</title>
<path fill="none" stroke="midnightblue" d="M1303.24,-475.64C1255.72,-468.56 1142.5,-451.32 1048,-434 902.08,-407.25 865.59,-400.22 721,-367 643.52,-349.2 553.55,-325.56 503.87,-312.25"/>
<polygon fill="midnightblue" stroke="midnightblue" points="504.76,-308.87 494.19,-309.65 502.94,-315.63 504.76,-308.87"/>
</g>
<!-- Node9 -->
<g id="node9" class="node">
<title>Node9</title>
<g id="a_node9"><a xlink:href="log_8h.html" target="_top" xlink:title=" ">
<polygon fill="none" stroke="black" points="1768.5,-56.5 1768.5,-75.5 1805.5,-75.5 1805.5,-56.5 1768.5,-56.5"/>
<text text-anchor="middle" x="1787" y="-63.5" font-family="Helvetica,sans-Serif" font-size="10.00">log.h</text>
</a>
</g>
</g>
<!-- Node2&#45;&gt;Node9 -->
<g id="edge8" class="edge">
<title>Node2&#45;&gt;Node9</title>
<path fill="none" stroke="midnightblue" d="M1348.52,-478.98C1462.64,-478.7 1973.87,-475.12 2030,-434 2105.71,-378.54 2059.8,-302.26 2008,-224 1967.91,-163.44 1950.7,-150.32 1889,-112 1865.55,-97.43 1836.56,-85.12 1815.49,-77.08"/>
<polygon fill="midnightblue" stroke="midnightblue" points="1816.43,-73.7 1805.84,-73.49 1813.98,-80.26 1816.43,-73.7"/>
</g>
<!-- Node13 -->
<g id="node13" class="node">
<title>Node13</title>
<g id="a_node13"><a xlink:href="historical__weather_8h.html" target="_top" xlink:title=" ">
<polygon fill="none" stroke="black" points="230,-409 230,-428 358,-428 358,-409 230,-409"/>
<text text-anchor="middle" x="294" y="-416" font-family="Helvetica,sans-Serif" font-size="10.00">BOM/historical_weather.h</text>
</a>
</g>
</g>
<!-- Node2&#45;&gt;Node13 -->
<g id="edge13" class="edge">
<title>Node2&#45;&gt;Node13</title>
<path fill="none" stroke="midnightblue" d="M1303.24,-479.18C1196.94,-479.77 738.84,-479.4 367,-434 358.61,-432.98 349.74,-431.53 341.19,-429.94"/>
<polygon fill="midnightblue" stroke="midnightblue" points="341.82,-426.5 331.34,-428.03 340.49,-433.37 341.82,-426.5"/>
</g>
<!-- Node16 -->
<g id="node16" class="node">
<title>Node16</title>
<g id="a_node16"><a xlink:href="transform_8h.html" target="_top" xlink:title=" ">
<polygon fill="none" stroke="black" points="1018.5,-347.5 1018.5,-366.5 1083.5,-366.5 1083.5,-347.5 1018.5,-347.5"/>
<text text-anchor="middle" x="1051" y="-354.5" font-family="Helvetica,sans-Serif" font-size="10.00">transform.h</text>
</a>
</g>
</g>
<!-- Node2&#45;&gt;Node16 -->
<g id="edge145" class="edge">
<title>Node2&#45;&gt;Node16</title>
<path fill="none" stroke="midnightblue" d="M1306.66,-470.49C1259.15,-449.58 1136.44,-395.6 1080.09,-370.8"/>
<polygon fill="midnightblue" stroke="midnightblue" points="1081.25,-367.48 1070.68,-366.66 1078.43,-373.89 1081.25,-367.48"/>
</g>
<!-- Node17 -->
<g id="node17" class="node">
<title>Node17</title>
<g id="a_node17"><a xlink:href="stations_8h.html" target="_top" xlink:title=" ">
<polygon fill="none" stroke="black" points="252,-291.5 252,-310.5 336,-310.5 336,-291.5 252,-291.5"/>
<text text-anchor="middle" x="294" y="-298.5" font-family="Helvetica,sans-Serif" font-size="10.00">BOM/stations.h</text>
</a>
</g>
</g>
<!-- Node2&#45;&gt;Node17 -->
<g id="edge76" class="edge">
<title>Node2&#45;&gt;Node17</title>
<path fill="none" stroke="midnightblue" d="M1303.29,-478.96C1149.02,-478.55 259.85,-474.47 221,-434 186.7,-398.28 242.91,-343.3 274.62,-317.01"/>
<polygon fill="midnightblue" stroke="midnightblue" points="276.88,-319.69 282.46,-310.69 272.48,-314.25 276.88,-319.69"/>
</g>
<!-- Node19 -->
<g id="node19" class="node">
<title>Node19</title>
<g id="a_node19"><a xlink:href="ftp_8h.html" target="_top" xlink:title=" ">
<polygon fill="none" stroke="black" points="648.5,-168.5 648.5,-187.5 683.5,-187.5 683.5,-168.5 648.5,-168.5"/>
<text text-anchor="middle" x="666" y="-175.5" font-family="Helvetica,sans-Serif" font-size="10.00">ftp.h</text>
</a>
</g>
</g>
<!-- Node2&#45;&gt;Node19 -->
<g id="edge147" class="edge">
<title>Node2&#45;&gt;Node19</title>
<path fill="none" stroke="midnightblue" d="M1303.36,-478.66C1174.26,-476.2 533.03,-456.68 421,-311 359.52,-231.06 561.18,-193.72 637.74,-182.66"/>
<polygon fill="midnightblue" stroke="midnightblue" points="638.66,-186.07 648.08,-181.22 637.7,-179.13 638.66,-186.07"/>
</g>
<!-- Node26 -->
<g id="node26" class="node">
<title>Node26</title>
<g id="a_node26"><a xlink:href="harvest__area_8h.html" target="_top" xlink:title=" ">
<polygon fill="none" stroke="black" points="2092,-224.5 2092,-254.5 2204,-254.5 2204,-224.5 2092,-224.5"/>
<text text-anchor="start" x="2100" y="-242.5" font-family="Helvetica,sans-Serif" font-size="10.00">FoodAuthority/harvest</text>
<text text-anchor="middle" x="2148" y="-231.5" font-family="Helvetica,sans-Serif" font-size="10.00">_area.h</text>
</a>
</g>
</g>
<!-- Node2&#45;&gt;Node26 -->
<g id="edge132" class="edge">
<title>Node2&#45;&gt;Node26</title>
<path fill="none" stroke="midnightblue" d="M1348.79,-478.9C1497.94,-478.11 2329.59,-472.02 2366,-434 2392.74,-406.07 2386.48,-379.8 2366,-347 2333.06,-294.24 2265.59,-266.92 2214.39,-253.23"/>
<polygon fill="midnightblue" stroke="midnightblue" points="2214.93,-249.76 2204.38,-250.67 2213.2,-256.54 2214.93,-249.76"/>
</g>
<!-- Node27 -->
<g id="node27" class="node">
<title>Node27</title>
<g id="a_node27"><a xlink:href="http_8h.html" target="_top" xlink:title=" ">
<polygon fill="none" stroke="black" points="1301.5,-168.5 1301.5,-187.5 1342.5,-187.5 1342.5,-168.5 1301.5,-168.5"/>
<text text-anchor="middle" x="1322" y="-175.5" font-family="Helvetica,sans-Serif" font-size="10.00">http.h</text>
</a>
</g>
</g>
<!-- Node2&#45;&gt;Node27 -->
<g id="edge146" class="edge">
<title>Node2&#45;&gt;Node27</title>
<path fill="none" stroke="midnightblue" d="M1348.74,-475.55C1373.16,-470.64 1411.36,-459.24 1433,-434 1455.66,-407.57 1452,-392.82 1452,-358 1452,-358 1452,-358 1452,-300 1452,-245.57 1390.18,-208.67 1351.8,-191"/>
<polygon fill="midnightblue" stroke="midnightblue" points="1353.16,-187.78 1342.6,-186.93 1350.32,-194.18 1353.16,-187.78"/>
</g>
<!-- Node29 -->
<g id="node29" class="node">
<title>Node29</title>
<g id="a_node29"><a xlink:href="_willy_weather_2authenticate_8h.html" target="_top" xlink:title=" ">
<polygon fill="none" stroke="black" points="1670.5,-230 1670.5,-249 1807.5,-249 1807.5,-230 1670.5,-230"/>
<text text-anchor="middle" x="1739" y="-237" font-family="Helvetica,sans-Serif" font-size="10.00">WillyWeather/authenticate.h</text>
</a>
</g>
</g>
<!-- Node2&#45;&gt;Node29 -->
<g id="edge91" class="edge">
<title>Node2&#45;&gt;Node29</title>
<path fill="none" stroke="midnightblue" d="M1348.57,-476.95C1434.06,-468.69 1736.33,-435.05 1799,-367 1822.08,-341.94 1824.52,-321.33 1809,-291 1800.52,-274.43 1783.79,-262.05 1768.81,-253.69"/>
<polygon fill="midnightblue" stroke="midnightblue" points="1770.29,-250.52 1759.8,-249.01 1767.06,-256.73 1770.29,-250.52"/>
</g>
<!-- Node30 -->
<g id="node30" class="node">
<title>Node30</title>
<g id="a_node30"><a xlink:href="devices_8h.html" target="_top" xlink:title=" ">
<polygon fill="none" stroke="black" points="942.5,-291.5 942.5,-310.5 1037.5,-310.5 1037.5,-291.5 942.5,-291.5"/>
<text text-anchor="middle" x="990" y="-298.5" font-family="Helvetica,sans-Serif" font-size="10.00">Ubidots/devices.h</text>
</a>
</g>
</g>
<!-- Node2&#45;&gt;Node30 -->
<g id="edge77" class="edge">
<title>Node2&#45;&gt;Node30</title>
<path fill="none" stroke="midnightblue" d="M1303.4,-478.3C1244.83,-475.19 1087.24,-458.3 1009,-367 997.89,-354.04 993.27,-334.87 991.35,-320.71"/>
<polygon fill="midnightblue" stroke="midnightblue" points="994.82,-320.23 990.32,-310.63 987.86,-320.94 994.82,-320.23"/>
</g>
<!-- Node32 -->
<g id="node32" class="node">
<title>Node32</title>
<g id="a_node32"><a xlink:href="tide_8h.html" target="_top" xlink:title=" ">
<polygon fill="none" stroke="black" points="1690.5,-347.5 1690.5,-366.5 1789.5,-366.5 1789.5,-347.5 1690.5,-347.5"/>
<text text-anchor="middle" x="1740" y="-354.5" font-family="Helvetica,sans-Serif" font-size="10.00">WillyWeather/tide.h</text>
</a>
</g>
</g>
<!-- Node2&#45;&gt;Node32 -->
<g id="edge92" class="edge">
<title>Node2&#45;&gt;Node32</title>
<path fill="none" stroke="midnightblue" d="M1348.55,-472.41C1415.84,-452.74 1615.79,-394.3 1700.92,-369.42"/>
<polygon fill="midnightblue" stroke="midnightblue" points="1702.1,-372.72 1710.71,-366.56 1700.13,-366.01 1702.1,-372.72"/>
</g>
<!-- Node34 -->
<g id="node34" class="node">
<title>Node34</title>
<g id="a_node34"><a xlink:href="precipitation_8h.html" target="_top" xlink:title=" ">
<polygon fill="none" stroke="black" points="1216,-347.5 1216,-366.5 1352,-366.5 1352,-347.5 1216,-347.5"/>
<text text-anchor="middle" x="1284" y="-354.5" font-family="Helvetica,sans-Serif" font-size="10.00">WillyWeather/precipitation.h</text>
</a>
</g>
</g>
<!-- Node2&#45;&gt;Node34 -->
<g id="edge105" class="edge">
<title>Node2&#45;&gt;Node34</title>
<path fill="none" stroke="midnightblue" d="M1320.8,-470.31C1315.68,-461.44 1307.93,-447.14 1303,-434 1295.85,-414.94 1290.57,-392.19 1287.41,-376.58"/>
<polygon fill="midnightblue" stroke="midnightblue" points="1290.82,-375.78 1285.49,-366.63 1283.95,-377.11 1290.82,-375.78"/>
</g>
<!-- Node35 -->
<g id="node35" class="node">
<title>Node35</title>
<g id="a_node35"><a xlink:href="_i_b_m___e_i_s_2authenticate_8h.html" target="_top" xlink:title=" ">
<polygon fill="none" stroke="black" points="2380.5,-230 2380.5,-249 2499.5,-249 2499.5,-230 2380.5,-230"/>
<text text-anchor="middle" x="2440" y="-237" font-family="Helvetica,sans-Serif" font-size="10.00">IBM_EIS/authenticate.h</text>
</a>
</g>
</g>
<!-- Node2&#45;&gt;Node35 -->
<g id="edge114" class="edge">
<title>Node2&#45;&gt;Node35</title>
<path fill="none" stroke="midnightblue" d="M1348.68,-478.79C1498.9,-477.34 2346,-467.64 2388,-434 2441.62,-391.05 2443.46,-299.2 2441.5,-259.46"/>
<polygon fill="midnightblue" stroke="midnightblue" points="2444.98,-259.08 2440.85,-249.32 2437.99,-259.52 2444.98,-259.08"/>
</g>
<!-- Node36 -->
<g id="node36" class="node">
<title>Node36</title>
<g id="a_node36"><a xlink:href="timeseries_8h.html" target="_top" xlink:title=" ">
<polygon fill="none" stroke="black" points="1884.5,-409 1884.5,-428 1995.5,-428 1995.5,-409 1884.5,-409"/>
<text text-anchor="middle" x="1940" y="-416" font-family="Helvetica,sans-Serif" font-size="10.00">IBM_EIS/timeseries.h</text>
</a>
</g>
</g>
<!-- Node2&#45;&gt;Node36 -->
<g id="edge121" class="edge">
<title>Node2&#45;&gt;Node36</title>
<path fill="none" stroke="midnightblue" d="M1348.65,-478.11C1423.42,-474.98 1669.05,-463.01 1870,-434 1877.52,-432.91 1885.44,-431.52 1893.14,-430.03"/>
<polygon fill="midnightblue" stroke="midnightblue" points="1893.98,-433.43 1903.09,-428.02 1892.6,-426.56 1893.98,-433.43"/>
</g>
<!-- Node37 -->
<g id="node37" class="node">
<title>Node37</title>
<g id="a_node37"><a xlink:href="harvest__areas_8h.html" target="_top" xlink:title=" ">
<polygon fill="none" stroke="black" points="1312,-403.5 1312,-433.5 1424,-433.5 1424,-403.5 1312,-403.5"/>
<text text-anchor="start" x="1320" y="-421.5" font-family="Helvetica,sans-Serif" font-size="10.00">FoodAuthority/harvest</text>
<text text-anchor="middle" x="1368" y="-410.5" font-family="Helvetica,sans-Serif" font-size="10.00">_areas.h</text>
</a>
</g>
</g>
<!-- Node2&#45;&gt;Node37 -->
<g id="edge133" class="edge">
<title>Node2&#45;&gt;Node37</title>
<path fill="none" stroke="midnightblue" d="M1332.02,-470.48C1337.28,-463.02 1345.16,-451.85 1352.21,-441.87"/>
<polygon fill="midnightblue" stroke="midnightblue" points="1355.19,-443.71 1358.1,-433.52 1349.48,-439.67 1355.19,-443.71"/>
</g>
<!-- Node9&#45;&gt;Node4 -->
<g id="edge9" class="edge">
<title>Node9&#45;&gt;Node4</title>
<path fill="none" stroke="midnightblue" d="M1768.46,-63.36C1745.07,-61.35 1703.58,-57.95 1668,-56 1157.7,-27.98 534.91,-14.55 386.73,-11.62"/>
<polygon fill="midnightblue" stroke="midnightblue" points="386.58,-8.12 376.51,-11.42 386.44,-15.12 386.58,-8.12"/>
</g>
<!-- Node10 -->
<g id="node10" class="node">
<title>Node10</title>
<g id="a_node10"><a xlink:title=" ">
<polygon fill="none" stroke="#bfbfbf" points="1797.5,-0.5 1797.5,-19.5 1848.5,-19.5 1848.5,-0.5 1797.5,-0.5"/>
<text text-anchor="middle" x="1823" y="-7.5" font-family="Helvetica,sans-Serif" font-size="10.00">stdarg.h</text>
</a>
</g>
</g>
<!-- Node9&#45;&gt;Node10 -->
<g id="edge10" class="edge">
<title>Node9&#45;&gt;Node10</title>
<path fill="none" stroke="midnightblue" d="M1792.94,-56.08C1797.98,-48.53 1805.34,-37.49 1811.51,-28.23"/>
<polygon fill="midnightblue" stroke="midnightblue" points="1814.53,-30.01 1817.17,-19.75 1808.71,-26.13 1814.53,-30.01"/>
</g>
<!-- Node11 -->
<g id="node11" class="node">
<title>Node11</title>
<g id="a_node11"><a xlink:title=" ">
<polygon fill="none" stroke="#bfbfbf" points="1723,-0.5 1723,-19.5 1779,-19.5 1779,-0.5 1723,-0.5"/>
<text text-anchor="middle" x="1751" y="-7.5" font-family="Helvetica,sans-Serif" font-size="10.00">stdbool.h</text>
</a>
</g>
</g>
<!-- Node9&#45;&gt;Node11 -->
<g id="edge11" class="edge">
<title>Node9&#45;&gt;Node11</title>
<path fill="none" stroke="midnightblue" d="M1781.06,-56.08C1776.02,-48.53 1768.66,-37.49 1762.49,-28.23"/>
<polygon fill="midnightblue" stroke="midnightblue" points="1765.29,-26.13 1756.83,-19.75 1759.47,-30.01 1765.29,-26.13"/>
</g>
<!-- Node12 -->
<g id="node12" class="node">
<title>Node12</title>
<g id="a_node12"><a xlink:title=" ">
<polygon fill="none" stroke="#bfbfbf" points="2791.5,-0.5 2791.5,-19.5 2834.5,-19.5 2834.5,-0.5 2791.5,-0.5"/>
<text text-anchor="middle" x="2813" y="-7.5" font-family="Helvetica,sans-Serif" font-size="10.00">time.h</text>
</a>
</g>
</g>
<!-- Node9&#45;&gt;Node12 -->
<g id="edge12" class="edge">
<title>Node9&#45;&gt;Node12</title>
<path fill="none" stroke="midnightblue" d="M1805.68,-64.02C1928.75,-57.54 2622.96,-21 2780.99,-12.68"/>
<polygon fill="midnightblue" stroke="midnightblue" points="2781.62,-16.16 2791.42,-12.14 2781.25,-9.17 2781.62,-16.16"/>
</g>
<!-- Node13&#45;&gt;Node5 -->
<g id="edge15" class="edge">
<title>Node13&#45;&gt;Node5</title>
<path fill="none" stroke="midnightblue" d="M330.57,-408.96C342.16,-406.6 355.06,-404.33 367,-403 999.76,-332.73 1168.48,-455.11 1799,-367 1897.65,-353.21 2172,-333.74 2233,-255 2273.89,-202.22 2236.84,-156.43 2187,-112 2172.55,-99.12 2153.84,-88.08 2138.49,-80.16"/>
<polygon fill="midnightblue" stroke="midnightblue" points="2139.94,-76.98 2129.43,-75.65 2136.82,-83.24 2139.94,-76.98"/>
</g>
<!-- Node13&#45;&gt;Node8 -->
<g id="edge17" class="edge">
<title>Node13&#45;&gt;Node8</title>
<path fill="none" stroke="midnightblue" d="M306.93,-408.82C336.31,-389.09 408.37,-340.7 444.55,-316.41"/>
<polygon fill="midnightblue" stroke="midnightblue" points="446.57,-319.26 452.92,-310.78 442.67,-313.45 446.57,-319.26"/>
</g>
<!-- Node13&#45;&gt;Node12 -->
<g id="edge14" class="edge">
<title>Node13&#45;&gt;Node12</title>
<path fill="none" stroke="midnightblue" d="M330.57,-408.95C342.16,-406.59 355.06,-404.32 367,-403 1040.44,-328.73 1214.92,-411.17 1891,-367 2123.83,-351.79 2182.62,-347.97 2413,-311 2530.14,-292.2 2562.98,-296.83 2674,-255 2731.16,-233.47 2751.19,-231.57 2794,-188 2836.62,-144.63 2840.92,-115.82 2830,-56 2828.31,-46.76 2824.83,-36.95 2821.45,-28.85"/>
<polygon fill="midnightblue" stroke="midnightblue" points="2824.63,-27.4 2817.37,-19.69 2818.24,-30.25 2824.63,-27.4"/>
</g>
<!-- Node14 -->
<g id="node14" class="node">
<title>Node14</title>
<g id="a_node14"><a xlink:title=" ">
<polygon fill="none" stroke="#bfbfbf" points="104.5,-230 104.5,-249 151.5,-249 151.5,-230 104.5,-230"/>
<text text-anchor="middle" x="128" y="-237" font-family="Helvetica,sans-Serif" font-size="10.00">ctype.h</text>
</a>
</g>
</g>
<!-- Node13&#45;&gt;Node14 -->
<g id="edge16" class="edge">
<title>Node13&#45;&gt;Node14</title>
<path fill="none" stroke="midnightblue" d="M285.99,-408.96C259.98,-381.23 177.56,-293.35 143.24,-256.74"/>
<polygon fill="midnightblue" stroke="midnightblue" points="145.71,-254.27 136.32,-249.37 140.61,-259.06 145.71,-254.27"/>
</g>
<!-- Node15 -->
<g id="node15" class="node">
<title>Node15</title>
<g id="a_node15"><a xlink:title=" ">
<polygon fill="none" stroke="#bfbfbf" points="512,-56.5 512,-75.5 560,-75.5 560,-56.5 512,-56.5"/>
<text text-anchor="middle" x="536" y="-63.5" font-family="Helvetica,sans-Serif" font-size="10.00">stdint.h</text>
</a>
</g>
</g>
<!-- Node13&#45;&gt;Node15 -->
<g id="edge18" class="edge">
<title>Node13&#45;&gt;Node15</title>
<path fill="none" stroke="midnightblue" d="M255.82,-408.97C225.2,-401.06 181.89,-387.41 148,-367 87.04,-330.3 40.84,-285.87 76,-224 124.05,-139.44 172.66,-145.41 264,-112 346.01,-82.01 449.26,-71.91 501.84,-68.58"/>
<polygon fill="midnightblue" stroke="midnightblue" points="502.18,-72.07 511.96,-67.99 501.77,-65.08 502.18,-72.07"/>
</g>
<!-- Node13&#45;&gt;Node16 -->
<g id="edge19" class="edge">
<title>Node13&#45;&gt;Node16</title>
<path fill="none" stroke="midnightblue" d="M332.11,-408.96C343.3,-406.71 355.6,-404.5 367,-403 608.22,-371.25 900.39,-361.51 1008.3,-358.88"/>
<polygon fill="midnightblue" stroke="midnightblue" points="1008.54,-362.37 1018.45,-358.64 1008.37,-355.37 1008.54,-362.37"/>
</g>
<!-- Node13&#45;&gt;Node17 -->
<g id="edge74" class="edge">
<title>Node13&#45;&gt;Node17</title>
<path fill="none" stroke="midnightblue" d="M294,-408.82C294,-390.26 294,-346.34 294,-320.97"/>
<polygon fill="midnightblue" stroke="midnightblue" points="297.5,-320.78 294,-310.78 290.5,-320.78 297.5,-320.78"/>
</g>
<!-- Node13&#45;&gt;Node19 -->
<g id="edge75" class="edge">
<title>Node13&#45;&gt;Node19</title>
<path fill="none" stroke="midnightblue" d="M272.24,-408.97C207.64,-382.49 25.66,-299.02 95,-224 132.2,-183.76 528.68,-179.45 638.15,-179.03"/>
<polygon fill="midnightblue" stroke="midnightblue" points="638.39,-182.53 648.38,-179 638.37,-175.53 638.39,-182.53"/>
</g>
<!-- Node16&#45;&gt;Node3 -->
<g id="edge22" class="edge">
<title>Node16&#45;&gt;Node3</title>
<path fill="none" stroke="midnightblue" d="M1056.2,-347.32C1073.44,-319.04 1131.29,-227.94 1196,-168 1236.18,-130.79 1291.53,-98.16 1323.77,-80.64"/>
<polygon fill="midnightblue" stroke="midnightblue" points="1325.82,-83.5 1332.99,-75.69 1322.52,-77.33 1325.82,-83.5"/>
</g>
<!-- Node16&#45;&gt;Node4 -->
<g id="edge21" class="edge">
<title>Node16&#45;&gt;Node4</title>
<path fill="none" stroke="midnightblue" d="M1018.4,-352.63C949.92,-345.48 786.12,-328.06 649,-311 584.01,-302.91 567.96,-299.36 503,-291 436.62,-282.46 251.55,-302.1 204,-255 140.96,-192.56 134.09,-126.47 188,-56 204.09,-34.97 277.58,-21.48 321.2,-15.17"/>
<polygon fill="midnightblue" stroke="midnightblue" points="321.91,-18.61 331.33,-13.76 320.94,-11.68 321.91,-18.61"/>
</g>
<!-- Node16&#45;&gt;Node8 -->
<g id="edge20" class="edge">
<title>Node16&#45;&gt;Node8</title>
<path fill="none" stroke="midnightblue" d="M1018.26,-353.84C916.66,-347.06 607.54,-325.73 508,-311 506.76,-310.82 505.49,-310.62 504.22,-310.41"/>
<polygon fill="midnightblue" stroke="midnightblue" points="504.84,-306.96 494.38,-308.6 503.58,-313.85 504.84,-306.96"/>
</g>
<!-- Node16&#45;&gt;Node9 -->
<g id="edge23" class="edge">
<title>Node16&#45;&gt;Node9</title>
<path fill="none" stroke="midnightblue" d="M1060.81,-347.34C1099.11,-313.71 1238.99,-192.43 1292,-168 1457.09,-91.91 1679.3,-72.83 1757.95,-68.32"/>
<polygon fill="midnightblue" stroke="midnightblue" points="1758.27,-71.8 1768.07,-67.77 1757.9,-64.81 1758.27,-71.8"/>
</g>
<!-- Node16&#45;&gt;Node17 -->
<g id="edge24" class="edge">
<title>Node16&#45;&gt;Node17</title>
<path fill="none" stroke="midnightblue" d="M1018.47,-353.68C900.19,-345.24 492.22,-316.14 346.36,-305.74"/>
<polygon fill="midnightblue" stroke="midnightblue" points="346.55,-302.24 336.32,-305.02 346.05,-309.22 346.55,-302.24"/>
</g>
<!-- Node22 -->
<g id="node22" class="node">
<title>Node22</title>
<g id="a_node22"><a xlink:href="utils_8h.html" target="_top" xlink:title=" ">
<polygon fill="none" stroke="black" points="872,-112.5 872,-131.5 914,-131.5 914,-112.5 872,-112.5"/>
<text text-anchor="middle" x="893" y="-119.5" font-family="Helvetica,sans-Serif" font-size="10.00">utils.h</text>
</a>
</g>
</g>
<!-- Node16&#45;&gt;Node22 -->
<g id="edge73" class="edge">
<title>Node16&#45;&gt;Node22</title>
<path fill="none" stroke="midnightblue" d="M1018.35,-352.79C936.58,-344.6 727.43,-322.79 698,-311 659.05,-295.4 640.92,-292.45 622,-255 615.79,-242.7 613.54,-234.87 622,-224 661.98,-172.62 703.01,-210.78 764,-188 802.33,-173.68 844.2,-151.21 869.53,-136.8"/>
<polygon fill="midnightblue" stroke="midnightblue" points="871.46,-139.72 878.39,-131.7 867.97,-133.66 871.46,-139.72"/>
</g>
<!-- Node16&#45;&gt;Node26 -->
<g id="edge44" class="edge">
<title>Node16&#45;&gt;Node26</title>
<path fill="none" stroke="midnightblue" d="M1083.63,-351.72C1191.11,-337.61 1528.55,-293.38 1552,-291 1768.36,-269 1823.69,-277.48 2040,-255 2053.42,-253.61 2067.75,-251.86 2081.43,-250.07"/>
<polygon fill="midnightblue" stroke="midnightblue" points="2082.29,-253.49 2091.74,-248.7 2081.37,-246.55 2082.29,-253.49"/>
</g>
<!-- Node28 -->
<g id="node28" class="node">
<title>Node28</title>
<g id="a_node28"><a xlink:href="location_8h.html" target="_top" xlink:title=" ">
<polygon fill="none" stroke="black" points="1268.5,-291.5 1268.5,-310.5 1385.5,-310.5 1385.5,-291.5 1268.5,-291.5"/>
<text text-anchor="middle" x="1327" y="-298.5" font-family="Helvetica,sans-Serif" font-size="10.00">WillyWeather/location.h</text>
</a>
</g>
</g>
<!-- Node16&#45;&gt;Node28 -->
<g id="edge55" class="edge">
<title>Node16&#45;&gt;Node28</title>
<path fill="none" stroke="midnightblue" d="M1083.74,-349.59C1130.52,-340.44 1217.03,-323.52 1273.28,-312.51"/>
<polygon fill="midnightblue" stroke="midnightblue" points="1274.27,-315.88 1283.41,-310.53 1272.92,-309.01 1274.27,-315.88"/>
</g>
<!-- Node17&#45;&gt;Node14 -->
<g id="edge26" class="edge">
<title>Node17&#45;&gt;Node14</title>
<path fill="none" stroke="midnightblue" d="M268.91,-291.4C243.05,-282.48 201.61,-268.05 166,-255 163.9,-254.23 161.74,-253.43 159.56,-252.62"/>
<polygon fill="midnightblue" stroke="midnightblue" points="160.66,-249.29 150.07,-249.03 158.19,-255.84 160.66,-249.29"/>
</g>
<!-- Node18 -->
<g id="node18" class="node">
<title>Node18</title>
<g id="a_node18"><a xlink:title=" ">
<polygon fill="none" stroke="#bfbfbf" points="578,-56.5 578,-75.5 624,-75.5 624,-56.5 578,-56.5"/>
<text text-anchor="middle" x="601" y="-63.5" font-family="Helvetica,sans-Serif" font-size="10.00">math.h</text>
</a>
</g>
</g>
<!-- Node17&#45;&gt;Node18 -->
<g id="edge25" class="edge">
<title>Node17&#45;&gt;Node18</title>
<path fill="none" stroke="midnightblue" d="M295.07,-291.17C299.26,-260.8 317.4,-159.86 378,-112 443.34,-60.4 482.03,-93.14 568.11,-75.89"/>
<polygon fill="midnightblue" stroke="midnightblue" points="568.97,-79.28 577.99,-73.73 567.47,-72.45 568.97,-79.28"/>
</g>
<!-- Node17&#45;&gt;Node19 -->
<g id="edge27" class="edge">
<title>Node17&#45;&gt;Node19</title>
<path fill="none" stroke="midnightblue" d="M306.3,-291.47C329.68,-275.67 382.61,-241.84 432,-224 503.89,-198.03 593.9,-186.1 638.43,-181.48"/>
<polygon fill="midnightblue" stroke="midnightblue" points="638.87,-184.95 648.48,-180.48 638.18,-177.99 638.87,-184.95"/>
</g>
<!-- Node17&#45;&gt;Node22 -->
<g id="edge43" class="edge">
<title>Node17&#45;&gt;Node22</title>
<path fill="none" stroke="midnightblue" d="M316.89,-291.38C364.01,-273.73 470.54,-234.25 508,-224 588.37,-202 612.64,-213.41 692,-188 712.46,-181.45 715.84,-175.42 736,-168 778.79,-152.24 829.78,-138.52 861.78,-130.5"/>
<polygon fill="midnightblue" stroke="midnightblue" points="862.99,-133.8 871.86,-128 861.31,-127.01 862.99,-133.8"/>
</g>
<!-- Node19&#45;&gt;Node3 -->
<g id="edge28" class="edge">
<title>Node19&#45;&gt;Node3</title>
<path fill="none" stroke="midnightblue" d="M683.56,-169.7C717.54,-155.92 794.95,-126.18 863,-112 1030.51,-77.1 1236.08,-69.26 1315.98,-67.5"/>
<polygon fill="midnightblue" stroke="midnightblue" points="1316.48,-71 1326.4,-67.29 1316.34,-64 1316.48,-71"/>
</g>
<!-- Node19&#45;&gt;Node5 -->
<g id="edge30" class="edge">
<title>Node19&#45;&gt;Node5</title>
<path fill="none" stroke="midnightblue" d="M683.64,-175.56C770.89,-168.45 1165.04,-136.45 1488,-112 1707.79,-95.36 1971.36,-76.73 2070.09,-69.79"/>
<polygon fill="midnightblue" stroke="midnightblue" points="2070.48,-73.28 2080.22,-69.08 2069.99,-66.29 2070.48,-73.28"/>
</g>
<!-- Node20 -->
<g id="node20" class="node">
<title>Node20</title>
<g id="a_node20"><a xlink:title=" ">
<polygon fill="none" stroke="#bfbfbf" points="642,-56.5 642,-75.5 690,-75.5 690,-56.5 642,-56.5"/>
<text text-anchor="middle" x="666" y="-63.5" font-family="Helvetica,sans-Serif" font-size="10.00">string.h</text>
</a>
</g>
</g>
<!-- Node19&#45;&gt;Node20 -->
<g id="edge29" class="edge">
<title>Node19&#45;&gt;Node20</title>
<path fill="none" stroke="midnightblue" d="M666,-168.37C666,-150.62 666,-109.67 666,-85.6"/>
<polygon fill="midnightblue" stroke="midnightblue" points="669.5,-85.59 666,-75.59 662.5,-85.59 669.5,-85.59"/>
</g>
<!-- Node21 -->
<g id="node21" class="node">
<title>Node21</title>
<g id="a_node21"><a xlink:title=" ">
<polygon fill="none" stroke="#bfbfbf" points="751,-56.5 751,-75.5 797,-75.5 797,-56.5 751,-56.5"/>
<text text-anchor="middle" x="774" y="-63.5" font-family="Helvetica,sans-Serif" font-size="10.00">errno.h</text>
</a>
</g>
</g>
<!-- Node19&#45;&gt;Node21 -->
<g id="edge31" class="edge">
<title>Node19&#45;&gt;Node21</title>
<path fill="none" stroke="midnightblue" d="M674.47,-168.37C692.61,-149.89 735.42,-106.29 758.54,-82.74"/>
<polygon fill="midnightblue" stroke="midnightblue" points="761.06,-85.18 765.56,-75.59 756.06,-80.28 761.06,-85.18"/>
</g>
<!-- Node19&#45;&gt;Node22 -->
<g id="edge32" class="edge">
<title>Node19&#45;&gt;Node22</title>
<path fill="none" stroke="midnightblue" d="M683.56,-171.9C688.24,-170.58 693.3,-169.2 698,-168 755.53,-153.28 823.17,-138.15 861.77,-129.73"/>
<polygon fill="midnightblue" stroke="midnightblue" points="862.83,-133.08 871.86,-127.54 861.34,-126.24 862.83,-133.08"/>
</g>
<!-- Node22&#45;&gt;Node3 -->
<g id="edge33" class="edge">
<title>Node22&#45;&gt;Node3</title>
<path fill="none" stroke="midnightblue" d="M914.08,-118.37C928.66,-116.55 948.5,-114.1 966,-112 1095.36,-96.45 1249.33,-78.61 1316.21,-70.89"/>
<polygon fill="midnightblue" stroke="midnightblue" points="1316.64,-74.36 1326.18,-69.74 1315.84,-67.41 1316.64,-74.36"/>
</g>
<!-- Node22&#45;&gt;Node5 -->
<g id="edge35" class="edge">
<title>Node22&#45;&gt;Node5</title>
<path fill="none" stroke="midnightblue" d="M914.04,-117.93C928.6,-115.93 948.44,-113.43 966,-112 1077.74,-102.93 1881.04,-74.9 2070.19,-68.37"/>
<polygon fill="midnightblue" stroke="midnightblue" points="2070.37,-71.86 2080.25,-68.02 2070.13,-64.87 2070.37,-71.86"/>
</g>
<!-- Node22&#45;&gt;Node9 -->
<g id="edge42" class="edge">
<title>Node22&#45;&gt;Node9</title>
<path fill="none" stroke="midnightblue" d="M914.04,-118.02C928.61,-116.05 948.45,-113.56 966,-112 1275.67,-84.46 1652.66,-71.21 1758.29,-67.87"/>
<polygon fill="midnightblue" stroke="midnightblue" points="1758.58,-71.36 1768.47,-67.55 1758.37,-64.36 1758.58,-71.36"/>
</g>
<!-- Node22&#45;&gt;Node15 -->
<g id="edge36" class="edge">
<title>Node22&#45;&gt;Node15</title>
<path fill="none" stroke="midnightblue" d="M871.99,-119.03C821.59,-114.09 689.69,-100 570.12,-75.99"/>
<polygon fill="midnightblue" stroke="midnightblue" points="570.56,-72.51 560.06,-73.95 569.16,-79.37 570.56,-72.51"/>
</g>
<!-- Node22&#45;&gt;Node18 -->
<g id="edge41" class="edge">
<title>Node22&#45;&gt;Node18</title>
<path fill="none" stroke="midnightblue" d="M871.97,-115.26C867.39,-114.1 862.55,-112.95 858,-112 761.95,-92.01 733.66,-97.37 634.19,-76.05"/>
<polygon fill="midnightblue" stroke="midnightblue" points="634.86,-72.61 624.34,-73.9 633.36,-79.45 634.86,-72.61"/>
</g>
<!-- Node22&#45;&gt;Node20 -->
<g id="edge34" class="edge">
<title>Node22&#45;&gt;Node20</title>
<path fill="none" stroke="midnightblue" d="M871.92,-115.5C867.34,-114.33 862.51,-113.11 858,-112 802.99,-98.48 738.89,-83.64 700.43,-74.83"/>
<polygon fill="midnightblue" stroke="midnightblue" points="700.82,-71.33 690.29,-72.52 699.26,-78.16 700.82,-71.33"/>
</g>
<!-- Node22&#45;&gt;Node21 -->
<g id="edge40" class="edge">
<title>Node22&#45;&gt;Node21</title>
<path fill="none" stroke="midnightblue" d="M874.14,-112.44C854.73,-103.64 824.27,-89.81 802.04,-79.72"/>
<polygon fill="midnightblue" stroke="midnightblue" points="803.32,-76.46 792.77,-75.52 800.43,-82.84 803.32,-76.46"/>
</g>
<!-- Node23 -->
<g id="node23" class="node">
<title>Node23</title>
<g id="a_node23"><a xlink:title=" ">
<polygon fill="none" stroke="#bfbfbf" points="2486.5,-56.5 2486.5,-75.5 2569.5,-75.5 2569.5,-56.5 2486.5,-56.5"/>
<text text-anchor="middle" x="2528" y="-63.5" font-family="Helvetica,sans-Serif" font-size="10.00">cjson/cJSON.h</text>
</a>
</g>
</g>
<!-- Node22&#45;&gt;Node23 -->
<g id="edge37" class="edge">
<title>Node22&#45;&gt;Node23</title>
<path fill="none" stroke="midnightblue" d="M914.27,-120.3C1084.01,-114.69 2218.92,-77.21 2476.2,-68.71"/>
<polygon fill="midnightblue" stroke="midnightblue" points="2476.51,-72.2 2486.39,-68.37 2476.28,-65.21 2476.51,-72.2"/>
</g>
<!-- Node24 -->
<g id="node24" class="node">
<title>Node24</title>
<g id="a_node24"><a xlink:title=" ">
<polygon fill="none" stroke="#bfbfbf" points="903.5,-56.5 903.5,-75.5 962.5,-75.5 962.5,-56.5 903.5,-56.5"/>
<text text-anchor="middle" x="933" y="-63.5" font-family="Helvetica,sans-Serif" font-size="10.00">sys/stat.h</text>
</a>
</g>
</g>
<!-- Node22&#45;&gt;Node24 -->
<g id="edge38" class="edge">
<title>Node22&#45;&gt;Node24</title>
<path fill="none" stroke="midnightblue" d="M899.61,-112.08C905.26,-104.46 913.54,-93.26 920.45,-83.94"/>
<polygon fill="midnightblue" stroke="midnightblue" points="923.38,-85.87 926.52,-75.75 917.75,-81.7 923.38,-85.87"/>
</g>
<!-- Node25 -->
<g id="node25" class="node">
<title>Node25</title>
<g id="a_node25"><a xlink:title=" ">
<polygon fill="none" stroke="#bfbfbf" points="820.5,-56.5 820.5,-75.5 885.5,-75.5 885.5,-56.5 820.5,-56.5"/>
<text text-anchor="middle" x="853" y="-63.5" font-family="Helvetica,sans-Serif" font-size="10.00">sys/types.h</text>
</a>
</g>
</g>
<!-- Node22&#45;&gt;Node25 -->
<g id="edge39" class="edge">
<title>Node22&#45;&gt;Node25</title>
<path fill="none" stroke="midnightblue" d="M886.39,-112.08C880.74,-104.46 872.46,-93.26 865.55,-83.94"/>
<polygon fill="midnightblue" stroke="midnightblue" points="868.25,-81.7 859.48,-75.75 862.62,-85.87 868.25,-81.7"/>
</g>
<!-- Node26&#45;&gt;Node5 -->
<g id="edge45" class="edge">
<title>Node26&#45;&gt;Node5</title>
<path fill="none" stroke="midnightblue" d="M2144.89,-224.47C2138.07,-193.7 2121.82,-120.33 2114.14,-85.7"/>
<polygon fill="midnightblue" stroke="midnightblue" points="2117.48,-84.57 2111.9,-75.56 2110.64,-86.08 2117.48,-84.57"/>
</g>
<!-- Node26&#45;&gt;Node9 -->
<g id="edge48" class="edge">
<title>Node26&#45;&gt;Node9</title>
<path fill="none" stroke="midnightblue" d="M2137.2,-224.45C2115.95,-197.9 2065.91,-140.44 2010,-112 1945.77,-79.33 1859.82,-70.37 1815.74,-67.92"/>
<polygon fill="midnightblue" stroke="midnightblue" points="1815.88,-64.42 1805.72,-67.44 1815.54,-71.41 1815.88,-64.42"/>
</g>
<!-- Node26&#45;&gt;Node12 -->
<g id="edge47" class="edge">
<title>Node26&#45;&gt;Node12</title>
<path fill="none" stroke="midnightblue" d="M2167.26,-224.42C2216.27,-189.37 2350.88,-98.03 2478,-56 2585.22,-20.55 2720.55,-12.97 2781.14,-11.39"/>
<polygon fill="midnightblue" stroke="midnightblue" points="2781.3,-14.89 2791.22,-11.16 2781.14,-7.89 2781.3,-14.89"/>
</g>
<!-- Node26&#45;&gt;Node22 -->
<g id="edge54" class="edge">
<title>Node26&#45;&gt;Node22</title>
<path fill="none" stroke="midnightblue" d="M2091.64,-233.31C1873.92,-213.28 1091.65,-141.28 924.55,-125.9"/>
<polygon fill="midnightblue" stroke="midnightblue" points="924.72,-122.4 914.44,-124.97 924.08,-129.38 924.72,-122.4"/>
</g>
<!-- Node26&#45;&gt;Node23 -->
<g id="edge46" class="edge">
<title>Node26&#45;&gt;Node23</title>
<path fill="none" stroke="midnightblue" d="M2204.34,-230.17C2246.34,-222.64 2304.41,-209.39 2352,-188 2415.1,-159.63 2479.71,-108.34 2510.11,-82.61"/>
<polygon fill="midnightblue" stroke="midnightblue" points="2512.77,-84.95 2518.08,-75.78 2508.21,-79.63 2512.77,-84.95"/>
</g>
<!-- Node26&#45;&gt;Node27 -->
<g id="edge49" class="edge">
<title>Node26&#45;&gt;Node27</title>
<path fill="none" stroke="midnightblue" d="M2091.88,-234.46C1931.68,-222.92 1475.92,-190.09 1352.92,-181.23"/>
<polygon fill="midnightblue" stroke="midnightblue" points="1352.93,-177.72 1342.7,-180.49 1352.43,-184.7 1352.93,-177.72"/>
</g>
<!-- Node27&#45;&gt;Node3 -->
<g id="edge50" class="edge">
<title>Node27&#45;&gt;Node3</title>
<path fill="none" stroke="midnightblue" d="M1324.2,-168.37C1328.72,-150.62 1339.14,-109.67 1345.27,-85.6"/>
<polygon fill="midnightblue" stroke="midnightblue" points="1348.74,-86.15 1347.81,-75.59 1341.95,-84.42 1348.74,-86.15"/>
</g>
<!-- Node27&#45;&gt;Node5 -->
<g id="edge52" class="edge">
<title>Node27&#45;&gt;Node5</title>
<path fill="none" stroke="midnightblue" d="M1342.67,-174.11C1448.33,-159.36 1928.57,-92.33 2070.43,-72.52"/>
<polygon fill="midnightblue" stroke="midnightblue" points="2071.01,-75.98 2080.43,-71.13 2070.05,-69.04 2071.01,-75.98"/>
</g>
<!-- Node27&#45;&gt;Node20 -->
<g id="edge51" class="edge">
<title>Node27&#45;&gt;Node20</title>
<path fill="none" stroke="midnightblue" d="M1301.28,-173.53C1207,-157.72 817.94,-92.48 700.03,-72.71"/>
<polygon fill="midnightblue" stroke="midnightblue" points="700.55,-69.24 690.11,-71.04 699.39,-76.15 700.55,-69.24"/>
</g>
<!-- Node27&#45;&gt;Node22 -->
<g id="edge53" class="edge">
<title>Node27&#45;&gt;Node22</title>
<path fill="none" stroke="midnightblue" d="M1301.34,-175.65C1242.56,-171.59 1069.5,-158.14 928,-132 926.75,-131.77 925.48,-131.52 924.2,-131.25"/>
<polygon fill="midnightblue" stroke="midnightblue" points="924.9,-127.82 914.37,-128.99 923.33,-134.64 924.9,-127.82"/>
</g>
<!-- Node28&#45;&gt;Node3 -->
<g id="edge57" class="edge">
<title>Node28&#45;&gt;Node3</title>
<path fill="none" stroke="midnightblue" d="M1338.54,-291.49C1348.48,-283.38 1362.12,-270.18 1368,-255 1390.76,-196.23 1369.2,-119.74 1357.04,-85.26"/>
<polygon fill="midnightblue" stroke="midnightblue" points="1360.23,-83.79 1353.49,-75.62 1353.66,-86.21 1360.23,-83.79"/>
</g>
<!-- Node28&#45;&gt;Node4 -->
<g id="edge58" class="edge">
<title>Node28&#45;&gt;Node4</title>
<path fill="none" stroke="midnightblue" d="M1268.38,-298.08C1133.1,-293.28 802.43,-279.37 694,-255 546.96,-221.95 474.82,-247.49 378,-132 353.55,-102.84 351.48,-55.86 352.5,-29.85"/>
<polygon fill="midnightblue" stroke="midnightblue" points="356,-29.99 353.09,-19.81 349.01,-29.58 356,-29.99"/>
</g>
<!-- Node28&#45;&gt;Node5 -->
<g id="edge61" class="edge">
<title>Node28&#45;&gt;Node5</title>
<path fill="none" stroke="midnightblue" d="M1385.53,-292.79C1391.09,-292.16 1396.65,-291.55 1402,-291 1586.16,-271.97 1641.76,-314.73 1817,-255 1933.38,-215.33 2049.82,-119.99 2092.73,-82.51"/>
<polygon fill="midnightblue" stroke="midnightblue" points="2095.13,-85.06 2100.31,-75.81 2090.5,-79.81 2095.13,-85.06"/>
</g>
<!-- Node28&#45;&gt;Node9 -->
<g id="edge62" class="edge">
<title>Node28&#45;&gt;Node9</title>
<path fill="none" stroke="midnightblue" d="M1343.92,-291.43C1413.3,-256.29 1676.37,-123.04 1760.77,-80.29"/>
<polygon fill="midnightblue" stroke="midnightblue" points="1762.59,-83.29 1769.93,-75.65 1759.43,-77.04 1762.59,-83.29"/>
</g>
<!-- Node28&#45;&gt;Node18 -->
<g id="edge59" class="edge">
<title>Node28&#45;&gt;Node18</title>
<path fill="none" stroke="midnightblue" d="M1268.13,-296.51C1171.56,-290.28 983.93,-275.91 921,-255 796.34,-213.58 667.3,-118.91 619.9,-82.06"/>
<polygon fill="midnightblue" stroke="midnightblue" points="621.81,-79.11 611.78,-75.69 617.49,-84.62 621.81,-79.11"/>
</g>
<!-- Node28&#45;&gt;Node20 -->
<g id="edge56" class="edge">
<title>Node28&#45;&gt;Node20</title>
<path fill="none" stroke="midnightblue" d="M1268.39,-296.76C1183.85,-291.47 1023.02,-279.05 888,-255 828.84,-244.46 662.86,-235.47 626,-188 619.68,-179.86 613.28,-150.14 628,-112 632.25,-100.98 640.4,-90.75 648.07,-82.83"/>
<polygon fill="midnightblue" stroke="midnightblue" points="650.65,-85.21 655.41,-75.74 645.79,-80.17 650.65,-85.21"/>
</g>
<!-- Node28&#45;&gt;Node22 -->
<g id="edge72" class="edge">
<title>Node28&#45;&gt;Node22</title>
<path fill="none" stroke="midnightblue" d="M1306.07,-291.46C1235.53,-262.7 1006.34,-169.22 923.35,-135.38"/>
<polygon fill="midnightblue" stroke="midnightblue" points="924.56,-132.09 913.98,-131.55 921.91,-138.57 924.56,-132.09"/>
</g>
<!-- Node28&#45;&gt;Node23 -->
<g id="edge60" class="edge">
<title>Node28&#45;&gt;Node23</title>
<path fill="none" stroke="midnightblue" d="M1385.74,-297.61C1431.14,-295.78 1495.55,-293.19 1552,-291 1605.16,-288.94 2467.78,-288.64 2509,-255 2559.19,-214.03 2543.25,-124.38 2533.34,-85.54"/>
<polygon fill="midnightblue" stroke="midnightblue" points="2536.65,-84.36 2530.65,-75.63 2529.89,-86.19 2536.65,-84.36"/>
</g>
<!-- Node28&#45;&gt;Node27 -->
<g id="edge71" class="edge">
<title>Node28&#45;&gt;Node27</title>
<path fill="none" stroke="midnightblue" d="M1333.63,-291.27C1339.77,-282.61 1348.46,-268.67 1352,-255 1355.46,-241.66 1355.99,-237.19 1352,-224 1348.88,-213.7 1342.55,-203.61 1336.5,-195.6"/>
<polygon fill="midnightblue" stroke="midnightblue" points="1339.22,-193.4 1330.21,-187.82 1333.77,-197.8 1339.22,-193.4"/>
</g>
<!-- Node28&#45;&gt;Node29 -->
<g id="edge63" class="edge">
<title>Node28&#45;&gt;Node29</title>
<path fill="none" stroke="midnightblue" d="M1385.63,-292.65C1451.51,-284.23 1561.58,-269.7 1656,-255 1664.41,-253.69 1673.29,-252.23 1681.99,-250.75"/>
<polygon fill="midnightblue" stroke="midnightblue" points="1682.82,-254.15 1692.08,-249.01 1681.63,-247.26 1682.82,-254.15"/>
</g>
<!-- Node29&#45;&gt;Node3 -->
<g id="edge65" class="edge">
<title>Node29&#45;&gt;Node3</title>
<path fill="none" stroke="midnightblue" d="M1718.44,-229.85C1697.81,-220.76 1665.52,-205.37 1640,-188 1597.84,-159.29 1599.47,-135.12 1554,-112 1498.54,-83.8 1425.79,-73.18 1383.84,-69.25"/>
<polygon fill="midnightblue" stroke="midnightblue" points="1383.88,-65.74 1373.61,-68.37 1383.27,-72.72 1383.88,-65.74"/>
</g>
<!-- Node29&#45;&gt;Node4 -->
<g id="edge66" class="edge">
<title>Node29&#45;&gt;Node4</title>
<path fill="none" stroke="midnightblue" d="M1730.71,-229.69C1708.7,-206.81 1646.1,-145.02 1582,-112 1499.94,-69.73 1473.15,-70.56 1382,-56 1183.46,-24.29 539.27,-13.55 386.64,-11.42"/>
<polygon fill="midnightblue" stroke="midnightblue" points="386.56,-7.92 376.52,-11.28 386.47,-14.92 386.56,-7.92"/>
</g>
<!-- Node29&#45;&gt;Node5 -->
<g id="edge68" class="edge">
<title>Node29&#45;&gt;Node5</title>
<path fill="none" stroke="midnightblue" d="M1757.4,-230C1817.72,-202.11 2009.8,-113.32 2082.11,-79.89"/>
<polygon fill="midnightblue" stroke="midnightblue" points="2083.88,-82.93 2091.49,-75.56 2080.95,-76.58 2083.88,-82.93"/>
</g>
<!-- Node29&#45;&gt;Node9 -->
<g id="edge69" class="edge">
<title>Node29&#45;&gt;Node9</title>
<path fill="none" stroke="midnightblue" d="M1732.57,-229.83C1723.54,-216.55 1708.93,-190.34 1716,-168 1726.76,-134 1753.52,-101.53 1770.94,-82.97"/>
<polygon fill="midnightblue" stroke="midnightblue" points="1773.55,-85.3 1777.98,-75.68 1768.52,-80.44 1773.55,-85.3"/>
</g>
<!-- Node29&#45;&gt;Node20 -->
<g id="edge64" class="edge">
<title>Node29&#45;&gt;Node20</title>
<path fill="none" stroke="midnightblue" d="M1694.21,-229.94C1580.07,-208.32 1268.89,-150.45 1008,-112 895.43,-95.41 761.56,-78.66 700.02,-71.12"/>
<polygon fill="midnightblue" stroke="midnightblue" points="700.44,-67.65 690.08,-69.91 699.59,-74.59 700.44,-67.65"/>
</g>
<!-- Node29&#45;&gt;Node23 -->
<g id="edge67" class="edge">
<title>Node29&#45;&gt;Node23</title>
<path fill="none" stroke="midnightblue" d="M1778.13,-230C1909.31,-201.48 2333.42,-109.29 2478.67,-77.72"/>
<polygon fill="midnightblue" stroke="midnightblue" points="2479.61,-81.1 2488.64,-75.56 2478.12,-74.26 2479.61,-81.1"/>
</g>
<!-- Node29&#45;&gt;Node27 -->
<g id="edge70" class="edge">
<title>Node29&#45;&gt;Node27</title>
<path fill="none" stroke="midnightblue" d="M1670.28,-231.93C1593.5,-224.01 1465.69,-209.08 1357,-188 1355.54,-187.72 1354.04,-187.41 1352.54,-187.08"/>
<polygon fill="midnightblue" stroke="midnightblue" points="1353.17,-183.63 1342.63,-184.74 1351.56,-190.45 1353.17,-183.63"/>
</g>
<!-- Node30&#45;&gt;Node5 -->
<g id="edge80" class="edge">
<title>Node30&#45;&gt;Node5</title>
<path fill="none" stroke="midnightblue" d="M1009.56,-291.38C1030.09,-282.33 1063.32,-267.68 1092,-255 1180.66,-215.81 1198.92,-195.06 1292,-168 1582.1,-83.66 1950.07,-69.74 2070.15,-67.45"/>
<polygon fill="midnightblue" stroke="midnightblue" points="2070.4,-70.94 2080.34,-67.27 2070.28,-63.95 2070.4,-70.94"/>
</g>
<!-- Node30&#45;&gt;Node9 -->
<g id="edge82" class="edge">
<title>Node30&#45;&gt;Node9</title>
<path fill="none" stroke="midnightblue" d="M1002.24,-291.43C1040,-265.09 1154.64,-186.06 1196,-168 1398.14,-79.72 1670.59,-68.38 1758.44,-67.1"/>
<polygon fill="midnightblue" stroke="midnightblue" points="1758.49,-70.6 1768.45,-66.99 1758.41,-63.6 1758.49,-70.6"/>
</g>
<!-- Node30&#45;&gt;Node18 -->
<g id="edge79" class="edge">
<title>Node30&#45;&gt;Node18</title>
<path fill="none" stroke="midnightblue" d="M955.45,-291.5C869.04,-269.95 648.83,-213.1 626,-188 600.23,-159.66 598.25,-111.98 599.4,-85.73"/>
<polygon fill="midnightblue" stroke="midnightblue" points="602.91,-85.83 600.06,-75.62 595.92,-85.37 602.91,-85.83"/>
</g>
<!-- Node30&#45;&gt;Node20 -->
<g id="edge78" class="edge">
<title>Node30&#45;&gt;Node20</title>
<path fill="none" stroke="midnightblue" d="M942.39,-297.38C883.68,-293.09 781.41,-282.12 698,-255 636.19,-234.9 601.83,-243.5 568,-188 550.42,-159.16 549.77,-140.43 568,-112 575.45,-100.38 606.82,-87.22 632.09,-78.15"/>
<polygon fill="midnightblue" stroke="midnightblue" points="633.48,-81.37 641.76,-74.76 631.17,-74.76 633.48,-81.37"/>
</g>
<!-- Node30&#45;&gt;Node22 -->
<g id="edge90" class="edge">
<title>Node30&#45;&gt;Node22</title>
<path fill="none" stroke="midnightblue" d="M966.21,-291.5C950.28,-284.41 930.54,-272.61 921,-255 914.44,-242.89 916.01,-236.84 921,-224 928.87,-203.77 946.13,-208.23 954,-188 957.22,-179.72 958.01,-175.93 954,-168 947.19,-154.52 934.23,-144.08 922,-136.67"/>
<polygon fill="midnightblue" stroke="midnightblue" points="923.34,-133.41 912.91,-131.59 919.93,-139.52 923.34,-133.41"/>
</g>
<!-- Node30&#45;&gt;Node23 -->
<g id="edge81" class="edge">
<title>Node30&#45;&gt;Node23</title>
<path fill="none" stroke="midnightblue" d="M1037.78,-297.97C1202.42,-290.9 1740.17,-267.12 1817,-255 2082.2,-213.17 2391.44,-113.22 2493.44,-78.85"/>
<polygon fill="midnightblue" stroke="midnightblue" points="2494.86,-82.06 2503.21,-75.54 2492.61,-75.43 2494.86,-82.06"/>
</g>
<!-- Node30&#45;&gt;Node27 -->
<g id="edge89" class="edge">
<title>Node30&#45;&gt;Node27</title>
<path fill="none" stroke="midnightblue" d="M1031.32,-291.48C1066.58,-283.67 1118.36,-270.91 1162,-255 1211.53,-236.94 1266.48,-208.98 1297.38,-192.48"/>
<polygon fill="midnightblue" stroke="midnightblue" points="1299.38,-195.38 1306.53,-187.56 1296.06,-189.22 1299.38,-195.38"/>
</g>
<!-- Node31 -->
<g id="node31" class="node">
<title>Node31</title>
<g id="a_node31"><a xlink:href="_ubidots_2authenticate_8h.html" target="_top" xlink:title=" ">
<polygon fill="none" stroke="black" points="930,-230 930,-249 1044,-249 1044,-230 930,-230"/>
<text text-anchor="middle" x="987" y="-237" font-family="Helvetica,sans-Serif" font-size="10.00">Ubidots/authenticate.h</text>
</a>
</g>
</g>
<!-- Node30&#45;&gt;Node31 -->
<g id="edge83" class="edge">
<title>Node30&#45;&gt;Node31</title>
<path fill="none" stroke="midnightblue" d="M989.57,-291.48C989.15,-283.08 988.49,-269.98 987.94,-259.16"/>
<polygon fill="midnightblue" stroke="midnightblue" points="991.43,-258.82 987.43,-249.01 984.44,-259.17 991.43,-258.82"/>
</g>
<!-- Node31&#45;&gt;Node3 -->
<g id="edge85" class="edge">
<title>Node31&#45;&gt;Node3</title>
<path fill="none" stroke="midnightblue" d="M987.95,-229.68C990.97,-206.24 1002.62,-142.11 1042,-112 1084.46,-79.53 1245.25,-70.37 1316.11,-67.88"/>
<polygon fill="midnightblue" stroke="midnightblue" points="1316.4,-71.38 1326.28,-67.55 1316.18,-64.38 1316.4,-71.38"/>
</g>
<!-- Node31&#45;&gt;Node4 -->
<g id="edge84" class="edge">
<title>Node31&#45;&gt;Node4</title>
<path fill="none" stroke="midnightblue" d="M929.79,-238.1C856.98,-235.91 728.39,-226.3 626,-188 520.08,-148.38 413.04,-62.08 371.75,-26.65"/>
<polygon fill="midnightblue" stroke="midnightblue" points="373.81,-23.81 363.97,-19.9 369.23,-29.1 373.81,-23.81"/>
</g>
<!-- Node31&#45;&gt;Node9 -->
<g id="edge87" class="edge">
<title>Node31&#45;&gt;Node9</title>
<path fill="none" stroke="midnightblue" d="M992.52,-229.98C1008.51,-206.15 1057.6,-138.8 1118,-112 1177.07,-85.79 1637.06,-71.19 1757.97,-67.78"/>
<polygon fill="midnightblue" stroke="midnightblue" points="1758.38,-71.27 1768.28,-67.49 1758.18,-64.27 1758.38,-71.27"/>
</g>
<!-- Node31&#45;&gt;Node20 -->
<g id="edge86" class="edge">
<title>Node31&#45;&gt;Node20</title>
<path fill="none" stroke="midnightblue" d="M929.98,-234.27C836.18,-226.72 657.75,-209.67 639,-188 613.4,-158.41 637.77,-109.84 654.05,-84.16"/>
<polygon fill="midnightblue" stroke="midnightblue" points="657.17,-85.79 659.77,-75.52 651.33,-81.92 657.17,-85.79"/>
</g>
<!-- Node31&#45;&gt;Node27 -->
<g id="edge88" class="edge">
<title>Node31&#45;&gt;Node27</title>
<path fill="none" stroke="midnightblue" d="M1035,-229.98C1104.83,-217.57 1232.48,-194.9 1291.09,-184.49"/>
<polygon fill="midnightblue" stroke="midnightblue" points="1291.96,-187.89 1301.2,-182.69 1290.74,-181 1291.96,-187.89"/>
</g>
<!-- Node32&#45;&gt;Node3 -->
<g id="edge94" class="edge">
<title>Node32&#45;&gt;Node3</title>
<path fill="none" stroke="midnightblue" d="M1743.2,-347.17C1747.44,-333.83 1753.16,-308.26 1742,-291 1720.83,-258.26 1696.54,-273.09 1662,-255 1549.41,-196.01 1421.29,-113.76 1371.43,-81.14"/>
<polygon fill="midnightblue" stroke="midnightblue" points="1373.33,-78.2 1363.05,-75.64 1369.49,-84.06 1373.33,-78.2"/>
</g>
<!-- Node32&#45;&gt;Node5 -->
<g id="edge97" class="edge">
<title>Node32&#45;&gt;Node5</title>
<path fill="none" stroke="midnightblue" d="M1763.98,-347.46C1803.5,-333.69 1885.04,-306.55 1956,-291 2012.33,-278.65 2175.16,-298.51 2213,-255 2261.9,-198.78 2171.32,-115.51 2129.51,-81.89"/>
<polygon fill="midnightblue" stroke="midnightblue" points="2131.65,-79.11 2121.63,-75.67 2127.31,-84.61 2131.65,-79.11"/>
</g>
<!-- Node32&#45;&gt;Node9 -->
<g id="edge99" class="edge">
<title>Node32&#45;&gt;Node9</title>
<path fill="none" stroke="midnightblue" d="M1762.37,-347.37C1778.05,-340.1 1798.09,-328.13 1809,-311 1855.25,-238.43 1814.65,-128.17 1795.6,-85.11"/>
<polygon fill="midnightblue" stroke="midnightblue" points="1798.72,-83.53 1791.38,-75.89 1792.36,-86.44 1798.72,-83.53"/>
</g>
<!-- Node32&#45;&gt;Node12 -->
<g id="edge96" class="edge">
<title>Node32&#45;&gt;Node12</title>
<path fill="none" stroke="midnightblue" d="M1789.51,-355.47C1924.74,-352.93 2310.72,-338.34 2618,-255 2653.63,-245.34 2741.65,-211.64 2770,-188 2793.1,-168.74 2798.57,-160.56 2808,-132 2819.43,-97.36 2817.66,-54.09 2815.34,-29.8"/>
<polygon fill="midnightblue" stroke="midnightblue" points="2818.81,-29.36 2814.24,-19.8 2811.85,-30.12 2818.81,-29.36"/>
</g>
<!-- Node32&#45;&gt;Node18 -->
<g id="edge95" class="edge">
<title>Node32&#45;&gt;Node18</title>
<path fill="none" stroke="midnightblue" d="M1690.47,-354.61C1535.61,-350.07 1061.87,-334.56 910,-311 812,-295.8 782.84,-299.08 694,-255 650.91,-233.62 634.78,-228.61 609,-188 589.14,-156.71 592.81,-111.24 597.04,-85.88"/>
<polygon fill="midnightblue" stroke="midnightblue" points="600.53,-86.25 598.94,-75.77 593.65,-84.95 600.53,-86.25"/>
</g>
<!-- Node32&#45;&gt;Node20 -->
<g id="edge93" class="edge">
<title>Node32&#45;&gt;Node20</title>
<path fill="none" stroke="midnightblue" d="M1690.3,-354.76C1500.79,-349.91 829.54,-331.44 736,-311 640.98,-290.24 583.21,-281.08 555,-188 545.2,-155.67 535.08,-139.99 554,-112 558.67,-105.09 600.88,-89.36 632.11,-78.46"/>
<polygon fill="midnightblue" stroke="midnightblue" points="633.5,-81.68 641.8,-75.11 631.21,-75.07 633.5,-81.68"/>
</g>
<!-- Node32&#45;&gt;Node22 -->
<g id="edge104" class="edge">
<title>Node32&#45;&gt;Node22</title>
<path fill="none" stroke="midnightblue" d="M1690.46,-354.74C1519.56,-350.2 963.42,-333.73 933,-311 880.21,-271.55 885.06,-181.07 890.04,-141.78"/>
<polygon fill="midnightblue" stroke="midnightblue" points="893.53,-142.13 891.46,-131.74 886.6,-141.15 893.53,-142.13"/>
</g>
<!-- Node32&#45;&gt;Node23 -->
<g id="edge98" class="edge">
<title>Node32&#45;&gt;Node23</title>
<path fill="none" stroke="midnightblue" d="M1789.74,-348.06C1872.03,-335.08 2041.77,-308.96 2186,-291 2263.15,-281.39 2473.14,-303.38 2534,-255 2584.24,-215.07 2572.27,-173.52 2554,-112 2551.08,-102.18 2545.64,-92.21 2540.48,-84.17"/>
<polygon fill="midnightblue" stroke="midnightblue" points="2543.25,-82.02 2534.73,-75.73 2537.47,-85.96 2543.25,-82.02"/>
</g>
<!-- Node32&#45;&gt;Node27 -->
<g id="edge103" class="edge">
<title>Node32&#45;&gt;Node27</title>
<path fill="none" stroke="midnightblue" d="M1740.31,-347.08C1740.28,-333.15 1738.11,-306.24 1723,-291 1679.88,-247.51 1648.41,-273.4 1590,-255 1551.25,-242.79 1542.9,-235.74 1504,-224 1439.6,-204.57 1422.24,-204.38 1357,-188 1355.55,-187.64 1354.08,-187.26 1352.58,-186.89"/>
<polygon fill="midnightblue" stroke="midnightblue" points="1353.27,-183.45 1342.72,-184.37 1351.54,-190.23 1353.27,-183.45"/>
</g>
<!-- Node32&#45;&gt;Node28 -->
<g id="edge101" class="edge">
<title>Node32&#45;&gt;Node28</title>
<path fill="none" stroke="midnightblue" d="M1690.18,-349.49C1616.66,-339.87 1478.84,-321.85 1395.75,-310.99"/>
<polygon fill="midnightblue" stroke="midnightblue" points="1396.01,-307.49 1385.64,-309.67 1395.11,-314.43 1396.01,-307.49"/>
</g>
<!-- Node32&#45;&gt;Node29 -->
<g id="edge100" class="edge">
<title>Node32&#45;&gt;Node29</title>
<path fill="none" stroke="midnightblue" d="M1756.23,-347.46C1775.63,-336 1804.27,-314.37 1794,-291 1787.45,-276.1 1774.1,-263.67 1762.19,-254.87"/>
<polygon fill="midnightblue" stroke="midnightblue" points="1764.11,-251.94 1753.9,-249.12 1760.12,-257.69 1764.11,-251.94"/>
</g>
<!-- Node33 -->
<g id="node33" class="node">
<title>Node33</title>
<g id="a_node33"><a xlink:href="forecast_8h.html" target="_top" xlink:title=" ">
<polygon fill="none" stroke="black" points="1594.5,-291.5 1594.5,-310.5 1713.5,-310.5 1713.5,-291.5 1594.5,-291.5"/>
<text text-anchor="middle" x="1654" y="-298.5" font-family="Helvetica,sans-Serif" font-size="10.00">WillyWeather/forecast.h</text>
</a>
</g>
</g>
<!-- Node32&#45;&gt;Node33 -->
<g id="edge102" class="edge">
<title>Node32&#45;&gt;Node33</title>
<path fill="none" stroke="midnightblue" d="M1726.18,-347.32C1712.77,-338.9 1692.18,-325.97 1676.41,-316.07"/>
<polygon fill="midnightblue" stroke="midnightblue" points="1678.11,-313.01 1667.78,-310.65 1674.39,-318.94 1678.11,-313.01"/>
</g>
<!-- Node34&#45;&gt;Node3 -->
<g id="edge108" class="edge">
<title>Node34&#45;&gt;Node3</title>
<path fill="none" stroke="midnightblue" d="M1337.32,-347.43C1358.66,-341.1 1381.18,-330.1 1394,-311 1443.37,-237.46 1417.17,-193.72 1383,-112 1378.66,-101.63 1371.48,-91.41 1364.92,-83.35"/>
<polygon fill="midnightblue" stroke="midnightblue" points="1367.38,-80.84 1358.21,-75.53 1362.06,-85.39 1367.38,-80.84"/>
</g>
<!-- Node34&#45;&gt;Node4 -->
<g id="edge107" class="edge">
<title>Node34&#45;&gt;Node4</title>
<path fill="none" stroke="midnightblue" d="M1215.78,-350.83C1198.86,-349.56 1180.77,-348.22 1164,-347 936.93,-330.49 874.85,-362.16 653,-311 620.55,-303.52 543.57,-270.31 514,-255 465.17,-229.72 451.25,-224.36 410,-188 385.62,-166.52 377.76,-160.95 363,-132 347.4,-101.4 347.1,-90.29 349,-56 349.48,-47.36 350.47,-37.83 351.45,-29.77"/>
<polygon fill="midnightblue" stroke="midnightblue" points="354.95,-29.97 352.76,-19.6 348.01,-29.07 354.95,-29.97"/>
</g>
<!-- Node34&#45;&gt;Node8 -->
<g id="edge109" class="edge">
<title>Node34&#45;&gt;Node8</title>
<path fill="none" stroke="midnightblue" d="M1215.66,-351.49C1050.4,-340.58 633.23,-313.04 504.46,-304.54"/>
<polygon fill="midnightblue" stroke="midnightblue" points="504.51,-301.03 494.3,-303.87 504.05,-308.02 504.51,-301.03"/>
</g>
<!-- Node34&#45;&gt;Node12 -->
<g id="edge106" class="edge">
<title>Node34&#45;&gt;Node12</title>
<path fill="none" stroke="midnightblue" d="M1314.99,-347.45C1369.37,-332.89 1485.69,-303.6 1586,-291 1690.59,-277.86 2436.04,-293.93 2534,-255 2658.74,-205.43 2765.43,-74.64 2800.67,-27.9"/>
<polygon fill="midnightblue" stroke="midnightblue" points="2803.6,-29.84 2806.75,-19.73 2797.98,-25.66 2803.6,-29.84"/>
</g>
<!-- Node34&#45;&gt;Node22 -->
<g id="edge113" class="edge">
<title>Node34&#45;&gt;Node22</title>
<path fill="none" stroke="midnightblue" d="M1216,-348.44C1211.26,-347.95 1206.56,-347.46 1202,-347 1158.7,-342.63 841.32,-343.15 812,-311 785.95,-282.43 799.18,-260.48 812,-224 812.88,-221.49 856.8,-167.41 879.59,-139.44"/>
<polygon fill="midnightblue" stroke="midnightblue" points="882.3,-141.65 885.91,-131.68 876.88,-137.22 882.3,-141.65"/>
</g>
<!-- Node34&#45;&gt;Node27 -->
<g id="edge110" class="edge">
<title>Node34&#45;&gt;Node27</title>
<path fill="none" stroke="midnightblue" d="M1276.93,-347.37C1267.76,-335.11 1253.55,-311.82 1259,-291 1261.65,-280.87 1294.31,-225.34 1311.53,-196.47"/>
<polygon fill="midnightblue" stroke="midnightblue" points="1314.58,-198.18 1316.71,-187.8 1308.57,-194.59 1314.58,-198.18"/>
</g>
<!-- Node34&#45;&gt;Node28 -->
<g id="edge112" class="edge">
<title>Node34&#45;&gt;Node28</title>
<path fill="none" stroke="midnightblue" d="M1291.1,-347.08C1297.24,-339.38 1306.27,-328.03 1313.74,-318.65"/>
<polygon fill="midnightblue" stroke="midnightblue" points="1316.54,-320.75 1320.03,-310.75 1311.06,-316.39 1316.54,-320.75"/>
</g>
<!-- Node34&#45;&gt;Node33 -->
<g id="edge111" class="edge">
<title>Node34&#45;&gt;Node33</title>
<path fill="none" stroke="midnightblue" d="M1342.63,-347.44C1408.66,-337.81 1515.84,-322.16 1585.63,-311.98"/>
<polygon fill="midnightblue" stroke="midnightblue" points="1586.26,-315.42 1595.65,-310.52 1585.25,-308.5 1586.26,-315.42"/>
</g>
<!-- Node35&#45;&gt;Node5 -->
<g id="edge115" class="edge">
<title>Node35&#45;&gt;Node5</title>
<path fill="none" stroke="midnightblue" d="M2447.58,-229.99C2458.66,-216.47 2476.83,-189.42 2466,-168 2447.08,-130.55 2428.69,-128.23 2390,-112 2309.39,-78.18 2205.9,-69.63 2150.05,-67.56"/>
<polygon fill="midnightblue" stroke="midnightblue" points="2149.97,-64.06 2139.87,-67.24 2149.75,-71.05 2149.97,-64.06"/>
</g>
<!-- Node35&#45;&gt;Node9 -->
<g id="edge118" class="edge">
<title>Node35&#45;&gt;Node9</title>
<path fill="none" stroke="midnightblue" d="M2416.35,-229.86C2354.87,-207.65 2184.67,-147.83 2039,-112 1958.93,-92.31 1862.54,-77.52 1815.56,-70.87"/>
<polygon fill="midnightblue" stroke="midnightblue" points="1815.9,-67.39 1805.51,-69.47 1814.93,-74.32 1815.9,-67.39"/>
</g>
<!-- Node35&#45;&gt;Node12 -->
<g id="edge117" class="edge">
<title>Node35&#45;&gt;Node12</title>
<path fill="none" stroke="midnightblue" d="M2454.17,-229.86C2510.6,-195.44 2719.7,-67.91 2789.87,-25.11"/>
<polygon fill="midnightblue" stroke="midnightblue" points="2792.1,-27.84 2798.82,-19.65 2788.46,-21.87 2792.1,-27.84"/>
</g>
<!-- Node35&#45;&gt;Node22 -->
<g id="edge120" class="edge">
<title>Node35&#45;&gt;Node22</title>
<path fill="none" stroke="midnightblue" d="M2380.49,-233.88C2233.57,-222.51 1841.85,-192.28 1515,-168 1288.56,-151.18 1015.68,-131.72 924.43,-125.23"/>
<polygon fill="midnightblue" stroke="midnightblue" points="924.44,-121.72 914.21,-124.51 923.94,-128.71 924.44,-121.72"/>
</g>
<!-- Node35&#45;&gt;Node23 -->
<g id="edge116" class="edge">
<title>Node35&#45;&gt;Node23</title>
<path fill="none" stroke="midnightblue" d="M2456.68,-229.86C2471.5,-221.28 2492.55,-206.71 2504,-188 2523.59,-155.99 2527.61,-111.1 2528.19,-85.97"/>
<polygon fill="midnightblue" stroke="midnightblue" points="2531.69,-85.67 2528.26,-75.64 2524.69,-85.62 2531.69,-85.67"/>
</g>
<!-- Node35&#45;&gt;Node27 -->
<g id="edge119" class="edge">
<title>Node35&#45;&gt;Node27</title>
<path fill="none" stroke="midnightblue" d="M2380.27,-234.47C2334.5,-231.43 2269.77,-227.25 2213,-224 1875.95,-204.72 1466.92,-185.65 1352.83,-180.41"/>
<polygon fill="midnightblue" stroke="midnightblue" points="1352.88,-176.91 1342.73,-179.94 1352.56,-183.9 1352.88,-176.91"/>
</g>
<!-- Node36&#45;&gt;Node5 -->
<g id="edge122" class="edge">
<title>Node36&#45;&gt;Node5</title>
<path fill="none" stroke="midnightblue" d="M1995.69,-417.07C2092.95,-412.82 2286.81,-387.52 2322,-255 2339.14,-190.47 2330.35,-150.77 2276,-112 2238.39,-85.17 2185.6,-74.33 2149.72,-69.96"/>
<polygon fill="midnightblue" stroke="midnightblue" points="2149.95,-66.46 2139.62,-68.84 2149.18,-73.42 2149.95,-66.46"/>
</g>
<!-- Node36&#45;&gt;Node8 -->
<g id="edge126" class="edge">
<title>Node36&#45;&gt;Node8</title>
<path fill="none" stroke="midnightblue" d="M1884.31,-415.59C1739.71,-410.39 1340.5,-394.5 1009,-367 953.18,-362.37 563.29,-319.99 508,-311 506.76,-310.8 505.5,-310.58 504.23,-310.36"/>
<polygon fill="midnightblue" stroke="midnightblue" points="504.87,-306.92 494.39,-308.49 503.56,-313.8 504.87,-306.92"/>
</g>
<!-- Node36&#45;&gt;Node9 -->
<g id="edge127" class="edge">
<title>Node36&#45;&gt;Node9</title>
<path fill="none" stroke="midnightblue" d="M1967.01,-408.87C1986.12,-401.18 2010.34,-387.87 2022,-367 2038.47,-337.51 2034.24,-322.48 2022,-291 1981.71,-187.39 1864.02,-110.48 1812.1,-80.62"/>
<polygon fill="midnightblue" stroke="midnightblue" points="1813.64,-77.46 1803.21,-75.59 1810.19,-83.56 1813.64,-77.46"/>
</g>
<!-- Node36&#45;&gt;Node12 -->
<g id="edge125" class="edge">
<title>Node36&#45;&gt;Node12</title>
<path fill="none" stroke="midnightblue" d="M1995.52,-417.01C2206.42,-414.42 2946,-398.47 2946,-302 2946,-302 2946,-302 2946,-121 2946,-90.2 2943.36,-78.18 2922,-56 2901.25,-34.45 2868.67,-22.84 2844.53,-16.84"/>
<polygon fill="midnightblue" stroke="midnightblue" points="2845.29,-13.43 2834.76,-14.6 2843.73,-20.25 2845.29,-13.43"/>
</g>
<!-- Node36&#45;&gt;Node16 -->
<g id="edge129" class="edge">
<title>Node36&#45;&gt;Node16</title>
<path fill="none" stroke="midnightblue" d="M1884.38,-414.83C1753.68,-408.37 1416.82,-390.68 1136,-367 1122.21,-365.84 1107.19,-364.33 1093.67,-362.88"/>
<polygon fill="midnightblue" stroke="midnightblue" points="1093.98,-359.39 1083.66,-361.79 1093.23,-366.35 1093.98,-359.39"/>
</g>
<!-- Node36&#45;&gt;Node18 -->
<g id="edge124" class="edge">
<title>Node36&#45;&gt;Node18</title>
<path fill="none" stroke="midnightblue" d="M1884.03,-417.79C1755.72,-417.6 1430.88,-412.25 1164,-367 1131.26,-361.45 1124.7,-352.83 1092,-347 899.27,-312.65 843.5,-356.09 653,-311 588.19,-295.66 571.78,-288.13 514,-255 436.5,-210.55 394.36,-212.21 355,-132 300.49,-20.92 266.02,-141.41 567.71,-76.07"/>
<polygon fill="midnightblue" stroke="midnightblue" points="568.64,-79.45 577.66,-73.88 567.14,-72.62 568.64,-79.45"/>
</g>
<!-- Node36&#45;&gt;Node22 -->
<g id="edge131" class="edge">
<title>Node36&#45;&gt;Node22</title>
<path fill="none" stroke="midnightblue" d="M1884.31,-416.29C1736.16,-412.65 1335.01,-399.97 1207,-367 1186.59,-361.74 1184.33,-352.55 1164,-347 1084.73,-325.37 851.2,-371.86 796,-311 788.51,-302.74 775.84,-287.33 798,-224 811.26,-186.12 847.53,-154.75 871.23,-137.47"/>
<polygon fill="midnightblue" stroke="midnightblue" points="873.46,-140.17 879.62,-131.55 869.43,-134.45 873.46,-140.17"/>
</g>
<!-- Node36&#45;&gt;Node23 -->
<g id="edge123" class="edge">
<title>Node36&#45;&gt;Node23</title>
<path fill="none" stroke="midnightblue" d="M1995.59,-414.61C2155.4,-404.99 2610.03,-367.98 2694,-255 2731.91,-203.99 2732.62,-162.48 2694,-112 2680.06,-93.78 2623.03,-81.22 2579.68,-74.09"/>
<polygon fill="midnightblue" stroke="midnightblue" points="2579.97,-70.59 2569.54,-72.48 2578.87,-77.5 2579.97,-70.59"/>
</g>
<!-- Node36&#45;&gt;Node27 -->
<g id="edge130" class="edge">
<title>Node36&#45;&gt;Node27</title>
<path fill="none" stroke="midnightblue" d="M1884.42,-412.06C1831.15,-405.6 1749.15,-392.33 1682,-367 1594.55,-334.01 1578.87,-310.95 1504,-255 1486.54,-241.95 1485.19,-234.33 1466,-224 1446.32,-213.41 1388.89,-196.94 1352.78,-187.14"/>
<polygon fill="midnightblue" stroke="midnightblue" points="1353.33,-183.66 1342.77,-184.44 1351.51,-190.42 1353.33,-183.66"/>
</g>
<!-- Node36&#45;&gt;Node35 -->
<g id="edge128" class="edge">
<title>Node36&#45;&gt;Node35</title>
<path fill="none" stroke="midnightblue" d="M1995.53,-417.72C2066.44,-416.19 2191.73,-407.3 2290,-367 2349.41,-342.64 2402.66,-285.57 2426.61,-257.16"/>
<polygon fill="midnightblue" stroke="midnightblue" points="2429.4,-259.28 2433.07,-249.34 2424,-254.82 2429.4,-259.28"/>
</g>
<!-- Node37&#45;&gt;Node5 -->
<g id="edge134" class="edge">
<title>Node37&#45;&gt;Node5</title>
<path fill="none" stroke="midnightblue" d="M1424.07,-416.06C1565.51,-412 1933.96,-398.62 2052,-367 2162.6,-337.37 2223.13,-351.98 2284,-255 2319.49,-198.45 2290.89,-152.74 2238,-112 2212.1,-92.05 2176.67,-80.51 2149.65,-74.12"/>
<polygon fill="midnightblue" stroke="midnightblue" points="2150.26,-70.67 2139.74,-71.91 2148.74,-77.5 2150.26,-70.67"/>
</g>
<!-- Node37&#45;&gt;Node8 -->
<g id="edge137" class="edge">
<title>Node37&#45;&gt;Node8</title>
<path fill="none" stroke="midnightblue" d="M1311.76,-412.79C1219.25,-404.82 1029.21,-387.52 869,-367 707.95,-346.37 667.67,-340.47 508,-311 506.76,-310.77 505.51,-310.53 504.24,-310.29"/>
<polygon fill="midnightblue" stroke="midnightblue" points="504.92,-306.86 494.42,-308.32 503.54,-313.72 504.92,-306.86"/>
</g>
<!-- Node37&#45;&gt;Node9 -->
<g id="edge138" class="edge">
<title>Node37&#45;&gt;Node9</title>
<path fill="none" stroke="midnightblue" d="M1424.24,-417.4C1526.96,-416.18 1739.8,-408.54 1799,-367 1892.18,-301.61 1870.01,-215.67 1823,-112 1818.22,-101.45 1810.4,-91.24 1803.26,-83.22"/>
<polygon fill="midnightblue" stroke="midnightblue" points="1805.63,-80.63 1796.24,-75.73 1800.53,-85.42 1805.63,-80.63"/>
</g>
<!-- Node37&#45;&gt;Node12 -->
<g id="edge136" class="edge">
<title>Node37&#45;&gt;Node12</title>
<path fill="none" stroke="midnightblue" d="M1424.23,-415.76C1557.95,-411.26 1905.38,-397.37 2194,-367 2361.15,-349.41 2404.7,-350.76 2568,-311 2714.43,-275.35 2801.68,-314.24 2884,-188 2916.04,-138.86 2912.28,-107.4 2884,-56 2875.46,-40.48 2859.05,-29.56 2844.16,-22.36"/>
<polygon fill="midnightblue" stroke="midnightblue" points="2845.25,-19.02 2834.69,-18.17 2842.41,-25.42 2845.25,-19.02"/>
</g>
<!-- Node37&#45;&gt;Node16 -->
<g id="edge140" class="edge">
<title>Node37&#45;&gt;Node16</title>
<path fill="none" stroke="midnightblue" d="M1311.88,-407.08C1257.26,-396.91 1171.92,-380.99 1098,-367 1096.55,-366.72 1095.07,-366.44 1093.57,-366.16"/>
<polygon fill="midnightblue" stroke="midnightblue" points="1094.09,-362.7 1083.61,-364.26 1092.78,-369.57 1094.09,-362.7"/>
</g>
<!-- Node37&#45;&gt;Node17 -->
<g id="edge144" class="edge">
<title>Node37&#45;&gt;Node17</title>
<path fill="none" stroke="midnightblue" d="M1311.72,-416.99C1181.89,-415.13 851.69,-406.56 579,-367 490.35,-354.14 388.45,-328.11 333.73,-313.19"/>
<polygon fill="midnightblue" stroke="midnightblue" points="334.64,-309.81 324.07,-310.54 332.79,-316.56 334.64,-309.81"/>
</g>
<!-- Node37&#45;&gt;Node22 -->
<g id="edge142" class="edge">
<title>Node37&#45;&gt;Node22</title>
<path fill="none" stroke="midnightblue" d="M1311.96,-415.23C1199.5,-410.22 938.46,-396.25 721,-367 688.26,-362.6 450.05,-336.46 429,-311 423.34,-304.15 423.9,-298.28 429,-291 449.15,-262.22 695.71,-201.85 728,-188 744.82,-180.78 747.3,-175.49 764,-168 796.48,-153.44 835.22,-140.49 861.71,-132.26"/>
<polygon fill="midnightblue" stroke="midnightblue" points="863.03,-135.51 871.56,-129.24 860.98,-128.82 863.03,-135.51"/>
</g>
<!-- Node37&#45;&gt;Node23 -->
<g id="edge135" class="edge">
<title>Node37&#45;&gt;Node23</title>
<path fill="none" stroke="midnightblue" d="M1424.3,-417.05C1548.85,-415.3 1856.83,-406.95 2111,-367 2212.8,-351 2485.51,-325.15 2561,-255 2607.65,-211.65 2599.94,-168.2 2570,-112 2564.14,-100.99 2554.89,-90.67 2546.56,-82.69"/>
<polygon fill="midnightblue" stroke="midnightblue" points="2548.76,-79.96 2539,-75.82 2544.05,-85.14 2548.76,-79.96"/>
</g>
<!-- Node37&#45;&gt;Node26 -->
<g id="edge139" class="edge">
<title>Node37&#45;&gt;Node26</title>
<path fill="none" stroke="midnightblue" d="M1424.17,-418.11C1562.56,-418.85 1916.33,-415.75 2022,-367 2071.49,-344.17 2112.43,-293.04 2133.22,-263.24"/>
<polygon fill="midnightblue" stroke="midnightblue" points="2136.28,-264.97 2139.02,-254.73 2130.49,-261.03 2136.28,-264.97"/>
</g>
<!-- Node37&#45;&gt;Node27 -->
<g id="edge141" class="edge">
<title>Node37&#45;&gt;Node27</title>
<path fill="none" stroke="midnightblue" d="M1311.77,-415.92C1275.52,-411.62 1230.84,-399.47 1207,-367 1161.87,-305.55 1256.68,-225.85 1300.91,-193.55"/>
<polygon fill="midnightblue" stroke="midnightblue" points="1303.18,-196.24 1309.27,-187.57 1299.1,-190.54 1303.18,-196.24"/>
</g>
<!-- Node37&#45;&gt;Node28 -->
<g id="edge143" class="edge">
<title>Node37&#45;&gt;Node28</title>
<path fill="none" stroke="midnightblue" d="M1368.8,-403.47C1369.14,-388.86 1368.26,-365.56 1361,-347 1356.87,-336.44 1349.52,-326.23 1342.71,-318.21"/>
<polygon fill="midnightblue" stroke="midnightblue" points="1345.26,-315.81 1335.96,-310.72 1340.06,-320.5 1345.26,-315.81"/>
</g>
</g>
</svg>
