<?xml version="1.0" encoding="UTF-8" standalone="no"?>
<!DOCTYPE svg PUBLIC "-//W3C//DTD SVG 1.1//EN"
 "http://www.w3.org/Graphics/SVG/1.1/DTD/svg11.dtd">
<!-- Generated by graphviz version 2.49.3 (20211027.1534)
 -->
<!-- Title: src/main.c Pages: 1 -->
<svg width="729pt" height="263pt"
 viewBox="0.00 0.00 729.46 263.00" xmlns="http://www.w3.org/2000/svg" xmlns:xlink="http://www.w3.org/1999/xlink">
<g id="graph0" class="graph" transform="scale(1 1) rotate(0) translate(4 259)">
<title>src/main.c</title>
<!-- Node1 -->
<g id="node1" class="node">
<title>Node1</title>
<g id="a_node1"><a xlink:title=" ">
<polygon fill="#bfbfbf" stroke="black" points="299.29,-235.5 299.29,-254.5 361.29,-254.5 361.29,-235.5 299.29,-235.5"/>
<text text-anchor="middle" x="330.29" y="-242.5" font-family="Helvetica,sans-Serif" font-size="10.00">src/main.c</text>
</a>
</g>
</g>
<!-- Node2 -->
<g id="node2" class="node">
<title>Node2</title>
<g id="a_node2"><a xlink:href="main_8h.html" target="_top" xlink:title=" ">
<polygon fill="none" stroke="black" points="307.79,-179.5 307.79,-198.5 352.79,-198.5 352.79,-179.5 307.79,-179.5"/>
<text text-anchor="middle" x="330.29" y="-186.5" font-family="Helvetica,sans-Serif" font-size="10.00">main.h</text>
</a>
</g>
</g>
<!-- Node1&#45;&gt;Node2 -->
<g id="edge1" class="edge">
<title>Node1&#45;&gt;Node2</title>
<path fill="none" stroke="midnightblue" d="M330.29,-235.08C330.29,-228.01 330.29,-217.86 330.29,-208.99"/>
<polygon fill="midnightblue" stroke="midnightblue" points="333.79,-208.75 330.29,-198.75 326.79,-208.75 333.79,-208.75"/>
</g>
<!-- Node3 -->
<g id="node3" class="node">
<title>Node3</title>
<g id="a_node3"><a xlink:title=" ">
<polygon fill="none" stroke="#bfbfbf" points="53.79,-0.5 53.79,-19.5 100.79,-19.5 100.79,-0.5 53.79,-0.5"/>
<text text-anchor="middle" x="77.29" y="-7.5" font-family="Helvetica,sans-Serif" font-size="10.00">stdlib.h</text>
</a>
</g>
</g>
<!-- Node2&#45;&gt;Node3 -->
<g id="edge2" class="edge">
<title>Node2&#45;&gt;Node3</title>
<path fill="none" stroke="midnightblue" d="M307.7,-188.46C241.33,-189.27 49.12,-187.67 10.29,-143 -21.45,-106.48 29.75,-52.27 59.05,-26.15"/>
<polygon fill="midnightblue" stroke="midnightblue" points="61.38,-28.76 66.65,-19.57 56.8,-23.47 61.38,-28.76"/>
</g>
<!-- Node4 -->
<g id="node4" class="node">
<title>Node4</title>
<g id="a_node4"><a xlink:title=" ">
<polygon fill="none" stroke="#bfbfbf" points="19.79,-118 19.79,-137 64.79,-137 64.79,-118 19.79,-118"/>
<text text-anchor="middle" x="42.29" y="-125" font-family="Helvetica,sans-Serif" font-size="10.00">stdio.h</text>
</a>
</g>
</g>
<!-- Node2&#45;&gt;Node4 -->
<g id="edge3" class="edge">
<title>Node2&#45;&gt;Node4</title>
<path fill="none" stroke="midnightblue" d="M307.59,-185.94C262.36,-181.43 158.15,-168.91 74.29,-143 72.41,-142.42 70.5,-141.75 68.59,-141.04"/>
<polygon fill="midnightblue" stroke="midnightblue" points="69.83,-137.76 59.25,-137.14 67.14,-144.22 69.83,-137.76"/>
</g>
<!-- Node5 -->
<g id="node5" class="node">
<title>Node5</title>
<g id="a_node5"><a xlink:title=" ">
<polygon fill="none" stroke="#bfbfbf" points="489.79,-0.5 489.79,-19.5 548.79,-19.5 548.79,-0.5 489.79,-0.5"/>
<text text-anchor="middle" x="519.29" y="-7.5" font-family="Helvetica,sans-Serif" font-size="10.00">curl/curl.h</text>
</a>
</g>
</g>
<!-- Node2&#45;&gt;Node5 -->
<g id="edge4" class="edge">
<title>Node2&#45;&gt;Node5</title>
<path fill="none" stroke="midnightblue" d="M352.96,-187.07C431.86,-183.61 691.05,-170.24 715.29,-143 737.8,-117.71 689.26,-57.61 687.29,-56 650.78,-26.2 596.33,-16.01 559.4,-12.6"/>
<polygon fill="midnightblue" stroke="midnightblue" points="559.25,-9.07 549.01,-11.77 558.7,-16.05 559.25,-9.07"/>
</g>
<!-- Node6 -->
<g id="node6" class="node">
<title>Node6</title>
<g id="a_node6"><a xlink:href="ubidots_8h.html" target="_top" xlink:title=" ">
<polygon fill="none" stroke="black" points="83.29,-118 83.29,-137 175.29,-137 175.29,-118 83.29,-118"/>
<text text-anchor="middle" x="129.29" y="-125" font-family="Helvetica,sans-Serif" font-size="10.00">Ubidots/ubidots.h</text>
</a>
</g>
</g>
<!-- Node2&#45;&gt;Node6 -->
<g id="edge5" class="edge">
<title>Node2&#45;&gt;Node6</title>
<path fill="none" stroke="midnightblue" d="M307.63,-181.29C273.67,-171.24 209.17,-152.15 167.76,-139.89"/>
<polygon fill="midnightblue" stroke="midnightblue" points="168.59,-136.48 158.01,-137 166.61,-143.2 168.59,-136.48"/>
</g>
<!-- Node10 -->
<g id="node10" class="node">
<title>Node10</title>
<g id="a_node10"><a xlink:href="w__weather_8h.html" target="_top" xlink:title=" ">
<polygon fill="none" stroke="black" points="193.79,-118 193.79,-137 324.79,-137 324.79,-118 193.79,-118"/>
<text text-anchor="middle" x="259.29" y="-125" font-family="Helvetica,sans-Serif" font-size="10.00">WillyWeather/w_weather.h</text>
</a>
</g>
</g>
<!-- Node2&#45;&gt;Node10 -->
<g id="edge14" class="edge">
<title>Node2&#45;&gt;Node10</title>
<path fill="none" stroke="midnightblue" d="M320.12,-179.48C308.94,-170.11 290.78,-154.88 277.2,-143.51"/>
<polygon fill="midnightblue" stroke="midnightblue" points="279.36,-140.75 269.45,-137.01 274.86,-146.11 279.36,-140.75"/>
</g>
<!-- Node12 -->
<g id="node12" class="node">
<title>Node12</title>
<g id="a_node12"><a xlink:href="authenticate_8h.html" target="_top" xlink:title=" ">
<polygon fill="none" stroke="black" points="342.79,-118 342.79,-137 461.79,-137 461.79,-118 342.79,-118"/>
<text text-anchor="middle" x="402.29" y="-125" font-family="Helvetica,sans-Serif" font-size="10.00">IBM_EIS/authenticate.h</text>
</a>
</g>
</g>
<!-- Node2&#45;&gt;Node12 -->
<g id="edge21" class="edge">
<title>Node2&#45;&gt;Node12</title>
<path fill="none" stroke="midnightblue" d="M340.61,-179.48C351.94,-170.11 370.37,-154.88 384.13,-143.51"/>
<polygon fill="midnightblue" stroke="midnightblue" points="386.52,-146.08 392,-137.01 382.06,-140.68 386.52,-146.08"/>
</g>
<!-- Node13 -->
<g id="node13" class="node">
<title>Node13</title>
<g id="a_node13"><a xlink:href="timeseries_8h.html" target="_top" xlink:title=" ">
<polygon fill="none" stroke="black" points="479.79,-118 479.79,-137 590.79,-137 590.79,-118 479.79,-118"/>
<text text-anchor="middle" x="535.29" y="-125" font-family="Helvetica,sans-Serif" font-size="10.00">IBM_EIS/timeseries.h</text>
</a>
</g>
</g>
<!-- Node2&#45;&gt;Node13 -->
<g id="edge25" class="edge">
<title>Node2&#45;&gt;Node13</title>
<path fill="none" stroke="midnightblue" d="M353.01,-181.41C387.56,-171.38 453.76,-152.16 496.16,-139.86"/>
<polygon fill="midnightblue" stroke="midnightblue" points="497.24,-143.19 505.87,-137.04 495.29,-136.47 497.24,-143.19"/>
</g>
<!-- Node15 -->
<g id="node15" class="node">
<title>Node15</title>
<g id="a_node15"><a xlink:href="food__auth_8h.html" target="_top" xlink:title=" ">
<polygon fill="none" stroke="black" points="608.29,-112.5 608.29,-142.5 706.29,-142.5 706.29,-112.5 608.29,-112.5"/>
<text text-anchor="start" x="616.29" y="-130.5" font-family="Helvetica,sans-Serif" font-size="10.00">FoodAuthority/food</text>
<text text-anchor="middle" x="657.29" y="-119.5" font-family="Helvetica,sans-Serif" font-size="10.00">_auth.h</text>
</a>
</g>
</g>
<!-- Node2&#45;&gt;Node15 -->
<g id="edge31" class="edge">
<title>Node2&#45;&gt;Node15</title>
<path fill="none" stroke="midnightblue" d="M352.81,-184.9C397.75,-178.57 501.92,-163.22 598.33,-143.33"/>
<polygon fill="midnightblue" stroke="midnightblue" points="599.15,-146.73 608.23,-141.26 597.72,-139.88 599.15,-146.73"/>
</g>
<!-- Node6&#45;&gt;Node5 -->
<g id="edge7" class="edge">
<title>Node6&#45;&gt;Node5</title>
<path fill="none" stroke="midnightblue" d="M142.25,-117.83C165.34,-102.81 215.57,-72.02 262.29,-56 336.65,-30.5 428.3,-18.89 479.62,-14.06"/>
<polygon fill="midnightblue" stroke="midnightblue" points="479.99,-17.54 489.64,-13.16 479.36,-10.57 479.99,-17.54"/>
</g>
<!-- Node7 -->
<g id="node7" class="node">
<title>Node7</title>
<g id="a_node7"><a xlink:title=" ">
<polygon fill="none" stroke="#bfbfbf" points="119.29,-0.5 119.29,-19.5 167.29,-19.5 167.29,-0.5 119.29,-0.5"/>
<text text-anchor="middle" x="143.29" y="-7.5" font-family="Helvetica,sans-Serif" font-size="10.00">string.h</text>
</a>
</g>
</g>
<!-- Node6&#45;&gt;Node7 -->
<g id="edge6" class="edge">
<title>Node6&#45;&gt;Node7</title>
<path fill="none" stroke="midnightblue" d="M124.89,-117.71C118.76,-104.26 109.05,-77.84 115.29,-56 118.19,-45.84 124.12,-35.75 129.78,-27.7"/>
<polygon fill="midnightblue" stroke="midnightblue" points="132.67,-29.69 135.88,-19.59 127.07,-25.48 132.67,-29.69"/>
</g>
<!-- Node8 -->
<g id="node8" class="node">
<title>Node8</title>
<g id="a_node8"><a xlink:title=" ">
<polygon fill="none" stroke="#bfbfbf" points="293.79,-0.5 293.79,-19.5 376.79,-19.5 376.79,-0.5 293.79,-0.5"/>
<text text-anchor="middle" x="335.29" y="-7.5" font-family="Helvetica,sans-Serif" font-size="10.00">cjson/cJSON.h</text>
</a>
</g>
</g>
<!-- Node6&#45;&gt;Node8 -->
<g id="edge8" class="edge">
<title>Node6&#45;&gt;Node8</title>
<path fill="none" stroke="midnightblue" d="M134.65,-117.75C144.2,-102.89 165.6,-72.69 191.29,-56 219.19,-37.87 254.86,-26.66 283.71,-19.95"/>
<polygon fill="midnightblue" stroke="midnightblue" points="284.6,-23.34 293.61,-17.77 283.09,-16.51 284.6,-23.34"/>
</g>
<!-- Node9 -->
<g id="node9" class="node">
<title>Node9</title>
<g id="a_node9"><a xlink:href="utils_8h.html" target="_top" xlink:title=" ">
<polygon fill="none" stroke="black" points="271.29,-56.5 271.29,-75.5 313.29,-75.5 313.29,-56.5 271.29,-56.5"/>
<text text-anchor="middle" x="292.29" y="-63.5" font-family="Helvetica,sans-Serif" font-size="10.00">utils.h</text>
</a>
</g>
</g>
<!-- Node6&#45;&gt;Node9 -->
<g id="edge9" class="edge">
<title>Node6&#45;&gt;Node9</title>
<path fill="none" stroke="midnightblue" d="M152.65,-117.98C181.24,-107.54 229.76,-89.82 261.42,-78.27"/>
<polygon fill="midnightblue" stroke="midnightblue" points="262.86,-81.47 271.06,-74.75 260.46,-74.89 262.86,-81.47"/>
</g>
<!-- Node9&#45;&gt;Node3 -->
<g id="edge10" class="edge">
<title>Node9&#45;&gt;Node3</title>
<path fill="none" stroke="midnightblue" d="M271.23,-59.97C238.95,-52.21 175.06,-36.72 110.94,-20.12"/>
<polygon fill="midnightblue" stroke="midnightblue" points="111.63,-16.68 101.07,-17.56 109.87,-23.46 111.63,-16.68"/>
</g>
<!-- Node9&#45;&gt;Node5 -->
<g id="edge12" class="edge">
<title>Node9&#45;&gt;Node5</title>
<path fill="none" stroke="midnightblue" d="M313.37,-59.5C317.96,-58.33 322.78,-57.11 327.29,-56 379.94,-43.06 440.92,-28.91 479.78,-20"/>
<polygon fill="midnightblue" stroke="midnightblue" points="480.68,-23.39 489.64,-17.74 479.11,-16.56 480.68,-23.39"/>
</g>
<!-- Node9&#45;&gt;Node7 -->
<g id="edge11" class="edge">
<title>Node9&#45;&gt;Node7</title>
<path fill="none" stroke="midnightblue" d="M271.26,-57.38C246.65,-48.46 205.58,-33.57 176.61,-23.08"/>
<polygon fill="midnightblue" stroke="midnightblue" points="177.52,-19.68 166.92,-19.56 175.13,-26.26 177.52,-19.68"/>
</g>
<!-- Node9&#45;&gt;Node8 -->
<g id="edge13" class="edge">
<title>Node9&#45;&gt;Node8</title>
<path fill="none" stroke="midnightblue" d="M299.39,-56.08C305.53,-48.38 314.56,-37.03 322.03,-27.65"/>
<polygon fill="midnightblue" stroke="midnightblue" points="324.83,-29.75 328.32,-19.75 319.36,-25.39 324.83,-29.75"/>
</g>
<!-- Node10&#45;&gt;Node3 -->
<g id="edge16" class="edge">
<title>Node10&#45;&gt;Node3</title>
<path fill="none" stroke="midnightblue" d="M245.61,-117.82C214.52,-98.09 138.27,-49.7 99.99,-25.41"/>
<polygon fill="midnightblue" stroke="midnightblue" points="101.45,-22.19 91.13,-19.78 97.7,-28.1 101.45,-22.19"/>
</g>
<!-- Node10&#45;&gt;Node5 -->
<g id="edge18" class="edge">
<title>Node10&#45;&gt;Node5</title>
<path fill="none" stroke="midnightblue" d="M274.86,-117.87C300.27,-103.95 352.44,-76.08 398.29,-56 426.62,-43.6 459.57,-31.49 483.92,-22.96"/>
<polygon fill="midnightblue" stroke="midnightblue" points="485.16,-26.24 493.46,-19.65 482.87,-19.62 485.16,-26.24"/>
</g>
<!-- Node10&#45;&gt;Node7 -->
<g id="edge15" class="edge">
<title>Node10&#45;&gt;Node7</title>
<path fill="none" stroke="midnightblue" d="M250.57,-117.82C231.18,-98.5 184.2,-51.74 159.34,-26.98"/>
<polygon fill="midnightblue" stroke="midnightblue" points="161.67,-24.36 152.11,-19.78 156.73,-29.32 161.67,-24.36"/>
</g>
<!-- Node10&#45;&gt;Node8 -->
<g id="edge19" class="edge">
<title>Node10&#45;&gt;Node8</title>
<path fill="none" stroke="midnightblue" d="M257.26,-117.98C254.4,-103.97 250.76,-75.65 262.29,-56 270.82,-41.46 286.08,-30.98 300.45,-23.81"/>
<polygon fill="midnightblue" stroke="midnightblue" points="302.06,-26.93 309.69,-19.57 299.14,-20.57 302.06,-26.93"/>
</g>
<!-- Node10&#45;&gt;Node9 -->
<g id="edge20" class="edge">
<title>Node10&#45;&gt;Node9</title>
<path fill="none" stroke="midnightblue" d="M264.02,-117.98C268.87,-109.23 276.56,-95.37 282.69,-84.31"/>
<polygon fill="midnightblue" stroke="midnightblue" points="285.78,-85.95 287.57,-75.51 279.66,-82.56 285.78,-85.95"/>
</g>
<!-- Node11 -->
<g id="node11" class="node">
<title>Node11</title>
<g id="a_node11"><a xlink:title=" ">
<polygon fill="none" stroke="#bfbfbf" points="407.29,-56.5 407.29,-75.5 453.29,-75.5 453.29,-56.5 407.29,-56.5"/>
<text text-anchor="middle" x="430.29" y="-63.5" font-family="Helvetica,sans-Serif" font-size="10.00">math.h</text>
</a>
</g>
</g>
<!-- Node10&#45;&gt;Node11 -->
<g id="edge17" class="edge">
<title>Node10&#45;&gt;Node11</title>
<path fill="none" stroke="midnightblue" d="M283.79,-117.98C313.67,-107.58 364.28,-89.97 397.5,-78.41"/>
<polygon fill="midnightblue" stroke="midnightblue" points="398.91,-81.62 407.21,-75.03 396.61,-75.01 398.91,-81.62"/>
</g>
<!-- Node12&#45;&gt;Node5 -->
<g id="edge22" class="edge">
<title>Node12&#45;&gt;Node5</title>
<path fill="none" stroke="midnightblue" d="M413.79,-117.68C426.21,-107.96 446.34,-91.63 462.29,-76 478.12,-60.49 494.65,-41.25 505.81,-27.74"/>
<polygon fill="midnightblue" stroke="midnightblue" points="508.69,-29.74 512.31,-19.79 503.27,-25.32 508.69,-29.74"/>
</g>
<!-- Node12&#45;&gt;Node8 -->
<g id="edge23" class="edge">
<title>Node12&#45;&gt;Node8</title>
<path fill="none" stroke="midnightblue" d="M397.26,-117.82C386.29,-98.92 360.09,-53.75 345.51,-28.62"/>
<polygon fill="midnightblue" stroke="midnightblue" points="348.43,-26.68 340.39,-19.78 342.38,-30.19 348.43,-26.68"/>
</g>
<!-- Node12&#45;&gt;Node9 -->
<g id="edge24" class="edge">
<title>Node12&#45;&gt;Node9</title>
<path fill="none" stroke="midnightblue" d="M386.53,-117.98C368.32,-108.12 338.12,-91.79 316.82,-80.27"/>
<polygon fill="midnightblue" stroke="midnightblue" points="318.48,-77.19 308.02,-75.51 315.15,-83.35 318.48,-77.19"/>
</g>
<!-- Node13&#45;&gt;Node5 -->
<g id="edge26" class="edge">
<title>Node13&#45;&gt;Node5</title>
<path fill="none" stroke="midnightblue" d="M535.8,-117.74C536.42,-104.34 536.95,-77.98 533.29,-56 531.8,-47.02 528.96,-37.35 526.22,-29.28"/>
<polygon fill="midnightblue" stroke="midnightblue" points="529.49,-28.02 522.81,-19.79 522.9,-30.39 529.49,-28.02"/>
</g>
<!-- Node13&#45;&gt;Node8 -->
<g id="edge27" class="edge">
<title>Node13&#45;&gt;Node8</title>
<path fill="none" stroke="midnightblue" d="M528.54,-117.91C516.62,-103.28 490.46,-73.43 462.29,-56 437.53,-40.68 406.83,-29.61 381.81,-22.29"/>
<polygon fill="midnightblue" stroke="midnightblue" points="382.75,-18.92 372.17,-19.58 380.85,-25.66 382.75,-18.92"/>
</g>
<!-- Node13&#45;&gt;Node9 -->
<g id="edge30" class="edge">
<title>Node13&#45;&gt;Node9</title>
<path fill="none" stroke="midnightblue" d="M500.48,-117.98C452.99,-106.35 368.66,-85.7 323.26,-74.58"/>
<polygon fill="midnightblue" stroke="midnightblue" points="323.95,-71.15 313.4,-72.17 322.28,-77.95 323.95,-71.15"/>
</g>
<!-- Node13&#45;&gt;Node11 -->
<g id="edge28" class="edge">
<title>Node13&#45;&gt;Node11</title>
<path fill="none" stroke="midnightblue" d="M520.25,-117.98C503.02,-108.21 474.55,-92.08 454.26,-80.58"/>
<polygon fill="midnightblue" stroke="midnightblue" points="455.73,-77.39 445.31,-75.51 452.28,-83.48 455.73,-77.39"/>
</g>
<!-- Node14 -->
<g id="node14" class="node">
<title>Node14</title>
<g id="a_node14"><a xlink:title=" ">
<polygon fill="none" stroke="#bfbfbf" points="585.79,-56.5 585.79,-75.5 628.79,-75.5 628.79,-56.5 585.79,-56.5"/>
<text text-anchor="middle" x="607.29" y="-63.5" font-family="Helvetica,sans-Serif" font-size="10.00">time.h</text>
</a>
</g>
</g>
<!-- Node13&#45;&gt;Node14 -->
<g id="edge29" class="edge">
<title>Node13&#45;&gt;Node14</title>
<path fill="none" stroke="midnightblue" d="M545.61,-117.98C556.94,-108.61 575.37,-93.38 589.13,-82.01"/>
<polygon fill="midnightblue" stroke="midnightblue" points="591.52,-84.58 597,-75.51 587.06,-79.18 591.52,-84.58"/>
</g>
<!-- Node15&#45;&gt;Node5 -->
<g id="edge32" class="edge">
<title>Node15&#45;&gt;Node5</title>
<path fill="none" stroke="midnightblue" d="M666.01,-112.36C674.24,-97.02 683.61,-72.5 671.29,-56 645.59,-21.58 594.72,-12.41 558.93,-10.49"/>
<polygon fill="midnightblue" stroke="midnightblue" points="558.93,-6.98 548.81,-10.11 558.67,-13.98 558.93,-6.98"/>
</g>
<!-- Node15&#45;&gt;Node8 -->
<g id="edge33" class="edge">
<title>Node15&#45;&gt;Node8</title>
<path fill="none" stroke="midnightblue" d="M657.74,-112.26C657.41,-96.1 654.2,-70.16 638.29,-56 619.84,-39.57 468.56,-23.29 386.98,-15.59"/>
<polygon fill="midnightblue" stroke="midnightblue" points="387.2,-12.09 376.91,-14.65 386.55,-19.06 387.2,-12.09"/>
</g>
<!-- Node15&#45;&gt;Node9 -->
<g id="edge35" class="edge">
<title>Node15&#45;&gt;Node9</title>
<path fill="none" stroke="midnightblue" d="M608.24,-113.68C605.56,-113.08 602.9,-112.52 600.29,-112 499.73,-91.92 379.01,-76.88 323.28,-70.45"/>
<polygon fill="midnightblue" stroke="midnightblue" points="323.67,-66.97 313.33,-69.31 322.87,-73.92 323.67,-66.97"/>
</g>
<!-- Node15&#45;&gt;Node14 -->
<g id="edge34" class="edge">
<title>Node15&#45;&gt;Node14</title>
<path fill="none" stroke="midnightblue" d="M645.44,-112.4C638.18,-103.75 628.84,-92.64 621.22,-83.58"/>
<polygon fill="midnightblue" stroke="midnightblue" points="623.68,-81.06 614.57,-75.66 618.32,-85.57 623.68,-81.06"/>
</g>
</g>
</svg>
