<?xml version="1.0" encoding="UTF-8" standalone="no"?>
<!DOCTYPE svg PUBLIC "-//W3C//DTD SVG 1.1//EN"
 "http://www.w3.org/Graphics/SVG/1.1/DTD/svg11.dtd">
<!-- Generated by graphviz version 2.49.3 (20211027.1534)
 -->
<!-- Title: src/main.c Pages: 1 -->
<svg width="1678pt" height="375pt"
 viewBox="0.00 0.00 1677.50 375.00" xmlns="http://www.w3.org/2000/svg" xmlns:xlink="http://www.w3.org/1999/xlink">
<g id="graph0" class="graph" transform="scale(1 1) rotate(0) translate(4 371)">
<title>src/main.c</title>
<!-- Node1 -->
<g id="node1" class="node">
<title>Node1</title>
<g id="a_node1"><a xlink:title=" ">
<polygon fill="#bfbfbf" stroke="black" points="853,-347.5 853,-366.5 915,-366.5 915,-347.5 853,-347.5"/>
<text text-anchor="middle" x="884" y="-354.5" font-family="Helvetica,sans-Serif" font-size="10.00">src/main.c</text>
</a>
</g>
</g>
<!-- Node2 -->
<g id="node2" class="node">
<title>Node2</title>
<g id="a_node2"><a xlink:href="main_8h.html" target="_top" xlink:title=" ">
<polygon fill="none" stroke="black" points="861.5,-291.5 861.5,-310.5 906.5,-310.5 906.5,-291.5 861.5,-291.5"/>
<text text-anchor="middle" x="884" y="-298.5" font-family="Helvetica,sans-Serif" font-size="10.00">main.h</text>
</a>
</g>
</g>
<!-- Node1&#45;&gt;Node2 -->
<g id="edge1" class="edge">
<title>Node1&#45;&gt;Node2</title>
<path fill="none" stroke="midnightblue" d="M884,-347.08C884,-340.01 884,-329.86 884,-320.99"/>
<polygon fill="midnightblue" stroke="midnightblue" points="887.5,-320.75 884,-310.75 880.5,-320.75 887.5,-320.75"/>
</g>
<!-- Node3 -->
<g id="node3" class="node">
<title>Node3</title>
<g id="a_node3"><a xlink:title=" ">
<polygon fill="none" stroke="#bfbfbf" points="173.5,-56.5 173.5,-75.5 220.5,-75.5 220.5,-56.5 173.5,-56.5"/>
<text text-anchor="middle" x="197" y="-63.5" font-family="Helvetica,sans-Serif" font-size="10.00">stdlib.h</text>
</a>
</g>
</g>
<!-- Node2&#45;&gt;Node3 -->
<g id="edge2" class="edge">
<title>Node2&#45;&gt;Node3</title>
<path fill="none" stroke="midnightblue" d="M861.18,-299.91C754.08,-299.03 302.28,-289.9 203,-199 173.58,-172.07 174.22,-151.3 181,-112 182.57,-102.91 185.79,-93.22 188.94,-85.17"/>
<polygon fill="midnightblue" stroke="midnightblue" points="192.26,-86.3 192.89,-75.72 185.81,-83.6 192.26,-86.3"/>
</g>
<!-- Node4 -->
<g id="node4" class="node">
<title>Node4</title>
<g id="a_node4"><a xlink:title=" ">
<polygon fill="none" stroke="#bfbfbf" points="434.5,-0.5 434.5,-19.5 479.5,-19.5 479.5,-0.5 434.5,-0.5"/>
<text text-anchor="middle" x="457" y="-7.5" font-family="Helvetica,sans-Serif" font-size="10.00">stdio.h</text>
</a>
</g>
</g>
<!-- Node2&#45;&gt;Node4 -->
<g id="edge3" class="edge">
<title>Node2&#45;&gt;Node4</title>
<path fill="none" stroke="midnightblue" d="M861.26,-299.49C722.89,-296.1 0,-274.08 0,-184.5 0,-184.5 0,-184.5 0,-121 0,-33.71 319.14,-15.49 424.03,-11.86"/>
<polygon fill="midnightblue" stroke="midnightblue" points="424.46,-15.35 434.34,-11.53 424.23,-8.36 424.46,-15.35"/>
</g>
<!-- Node5 -->
<g id="node5" class="node">
<title>Node5</title>
<g id="a_node5"><a xlink:title=" ">
<polygon fill="none" stroke="#bfbfbf" points="1266.5,-56.5 1266.5,-75.5 1325.5,-75.5 1325.5,-56.5 1266.5,-56.5"/>
<text text-anchor="middle" x="1296" y="-63.5" font-family="Helvetica,sans-Serif" font-size="10.00">curl/curl.h</text>
</a>
</g>
</g>
<!-- Node2&#45;&gt;Node5 -->
<g id="edge4" class="edge">
<title>Node2&#45;&gt;Node5</title>
<path fill="none" stroke="midnightblue" d="M906.58,-299.79C1003.96,-298.35 1386.15,-287.11 1456,-199 1482,-166.21 1452.7,-138.11 1420,-112 1395.51,-92.45 1361.77,-80.94 1335.67,-74.46"/>
<polygon fill="midnightblue" stroke="midnightblue" points="1336.25,-71.01 1325.72,-72.14 1334.66,-77.82 1336.25,-71.01"/>
</g>
<!-- Node6 -->
<g id="node6" class="node">
<title>Node6</title>
<g id="a_node6"><a xlink:title=" ">
<polygon fill="none" stroke="#bfbfbf" points="1618.5,-235.5 1618.5,-254.5 1669.5,-254.5 1669.5,-235.5 1618.5,-235.5"/>
<text text-anchor="middle" x="1644" y="-242.5" font-family="Helvetica,sans-Serif" font-size="10.00">assert.h</text>
</a>
</g>
</g>
<!-- Node2&#45;&gt;Node6 -->
<g id="edge5" class="edge">
<title>Node2&#45;&gt;Node6</title>
<path fill="none" stroke="midnightblue" d="M906.53,-299.89C995.55,-299.19 1331.23,-293.96 1604,-255 1605.45,-254.79 1606.93,-254.56 1608.42,-254.31"/>
<polygon fill="midnightblue" stroke="midnightblue" points="1609.13,-257.74 1618.29,-252.42 1607.81,-250.86 1609.13,-257.74"/>
</g>
<!-- Node7 -->
<g id="node7" class="node">
<title>Node7</title>
<g id="a_node7"><a xlink:href="log_8h.html" target="_top" xlink:title=" ">
<polygon fill="none" stroke="black" points="676.5,-56.5 676.5,-75.5 713.5,-75.5 713.5,-56.5 676.5,-56.5"/>
<text text-anchor="middle" x="695" y="-63.5" font-family="Helvetica,sans-Serif" font-size="10.00">log.h</text>
</a>
</g>
</g>
<!-- Node2&#45;&gt;Node7 -->
<g id="edge6" class="edge">
<title>Node2&#45;&gt;Node7</title>
<path fill="none" stroke="midnightblue" d="M861.49,-298.67C774.05,-293.04 458.47,-268.15 392,-199 364.91,-170.82 353.38,-141.53 379,-112 416.06,-69.29 594.86,-66.08 665.85,-66.53"/>
<polygon fill="midnightblue" stroke="midnightblue" points="666.25,-70.04 676.28,-66.63 666.32,-63.04 666.25,-70.04"/>
</g>
<!-- Node11 -->
<g id="node11" class="node">
<title>Node11</title>
<g id="a_node11"><a xlink:href="devices_8h.html" target="_top" xlink:title=" ">
<polygon fill="none" stroke="black" points="836.5,-174 836.5,-193 931.5,-193 931.5,-174 836.5,-174"/>
<text text-anchor="middle" x="884" y="-181" font-family="Helvetica,sans-Serif" font-size="10.00">Ubidots/devices.h</text>
</a>
</g>
</g>
<!-- Node2&#45;&gt;Node11 -->
<g id="edge11" class="edge">
<title>Node2&#45;&gt;Node11</title>
<path fill="none" stroke="midnightblue" d="M884,-291.32C884,-272.76 884,-228.84 884,-203.47"/>
<polygon fill="midnightblue" stroke="midnightblue" points="887.5,-203.28 884,-193.28 880.5,-203.28 887.5,-203.28"/>
</g>
<!-- Node20 -->
<g id="node20" class="node">
<title>Node20</title>
<g id="a_node20"><a xlink:href="_willy_weather_2authenticate_8h.html" target="_top" xlink:title=" ">
<polygon fill="none" stroke="black" points="388.5,-112.5 388.5,-131.5 525.5,-131.5 525.5,-112.5 388.5,-112.5"/>
<text text-anchor="middle" x="457" y="-119.5" font-family="Helvetica,sans-Serif" font-size="10.00">WillyWeather/authenticate.h</text>
</a>
</g>
</g>
<!-- Node2&#45;&gt;Node20 -->
<g id="edge31" class="edge">
<title>Node2&#45;&gt;Node20</title>
<path fill="none" stroke="midnightblue" d="M861.38,-299.05C772.83,-294.79 451.62,-274.28 392,-199 383.45,-188.2 385.61,-180.2 392,-168 399.28,-154.11 413.01,-143.65 425.98,-136.33"/>
<polygon fill="midnightblue" stroke="midnightblue" points="427.93,-139.27 435.19,-131.55 424.7,-133.05 427.93,-139.27"/>
</g>
<!-- Node21 -->
<g id="node21" class="node">
<title>Node21</title>
<g id="a_node21"><a xlink:href="tide_8h.html" target="_top" xlink:title=" ">
<polygon fill="none" stroke="black" points="638.5,-235.5 638.5,-254.5 737.5,-254.5 737.5,-235.5 638.5,-235.5"/>
<text text-anchor="middle" x="688" y="-242.5" font-family="Helvetica,sans-Serif" font-size="10.00">WillyWeather/tide.h</text>
</a>
</g>
</g>
<!-- Node2&#45;&gt;Node21 -->
<g id="edge38" class="edge">
<title>Node2&#45;&gt;Node21</title>
<path fill="none" stroke="midnightblue" d="M861.13,-293.7C828.74,-284.77 768.96,-268.31 728.84,-257.25"/>
<polygon fill="midnightblue" stroke="midnightblue" points="729.66,-253.85 719.09,-254.57 727.81,-260.6 729.66,-253.85"/>
</g>
<!-- Node24 -->
<g id="node24" class="node">
<title>Node24</title>
<g id="a_node24"><a xlink:href="_i_b_m___e_i_s_2authenticate_8h.html" target="_top" xlink:title=" ">
<polygon fill="none" stroke="black" points="1178.5,-174 1178.5,-193 1297.5,-193 1297.5,-174 1178.5,-174"/>
<text text-anchor="middle" x="1238" y="-181" font-family="Helvetica,sans-Serif" font-size="10.00">IBM_EIS/authenticate.h</text>
</a>
</g>
</g>
<!-- Node2&#45;&gt;Node24 -->
<g id="edge59" class="edge">
<title>Node2&#45;&gt;Node24</title>
<path fill="none" stroke="midnightblue" d="M906.76,-299.32C952.51,-297.25 1058.15,-288.87 1139,-255 1171.07,-241.57 1202.87,-216.22 1221.46,-199.86"/>
<polygon fill="midnightblue" stroke="midnightblue" points="1223.93,-202.34 1229.03,-193.05 1219.25,-197.14 1223.93,-202.34"/>
</g>
<!-- Node25 -->
<g id="node25" class="node">
<title>Node25</title>
<g id="a_node25"><a xlink:href="timeseries_8h.html" target="_top" xlink:title=" ">
<polygon fill="none" stroke="black" points="1018.5,-235.5 1018.5,-254.5 1129.5,-254.5 1129.5,-235.5 1018.5,-235.5"/>
<text text-anchor="middle" x="1074" y="-242.5" font-family="Helvetica,sans-Serif" font-size="10.00">IBM_EIS/timeseries.h</text>
</a>
</g>
</g>
<!-- Node2&#45;&gt;Node25 -->
<g id="edge65" class="edge">
<title>Node2&#45;&gt;Node25</title>
<path fill="none" stroke="midnightblue" d="M906.54,-293.59C937.94,-284.67 995.35,-268.35 1034.09,-257.34"/>
<polygon fill="midnightblue" stroke="midnightblue" points="1035.33,-260.63 1043.99,-254.53 1033.42,-253.9 1035.33,-260.63"/>
</g>
<!-- Node26 -->
<g id="node26" class="node">
<title>Node26</title>
<g id="a_node26"><a xlink:href="harvest__area_8h.html" target="_top" xlink:title=" ">
<polygon fill="none" stroke="black" points="1316,-168.5 1316,-198.5 1428,-198.5 1428,-168.5 1316,-168.5"/>
<text text-anchor="start" x="1324" y="-186.5" font-family="Helvetica,sans-Serif" font-size="10.00">FoodAuthority/harvest</text>
<text text-anchor="middle" x="1372" y="-175.5" font-family="Helvetica,sans-Serif" font-size="10.00">_area.h</text>
</a>
</g>
</g>
<!-- Node2&#45;&gt;Node26 -->
<g id="edge73" class="edge">
<title>Node2&#45;&gt;Node26</title>
<path fill="none" stroke="midnightblue" d="M906.53,-297.85C955.17,-292.9 1073.47,-279.23 1170,-255 1225.75,-241.01 1287.91,-218.17 1328.36,-202.3"/>
<polygon fill="midnightblue" stroke="midnightblue" points="1329.89,-205.45 1337.9,-198.52 1327.32,-198.94 1329.89,-205.45"/>
</g>
<!-- Node7&#45;&gt;Node4 -->
<g id="edge7" class="edge">
<title>Node7&#45;&gt;Node4</title>
<path fill="none" stroke="midnightblue" d="M676.32,-60.76C635.93,-51.6 540.02,-29.84 489.47,-18.37"/>
<polygon fill="midnightblue" stroke="midnightblue" points="490.23,-14.95 479.7,-16.15 488.68,-21.78 490.23,-14.95"/>
</g>
<!-- Node8 -->
<g id="node8" class="node">
<title>Node8</title>
<g id="a_node8"><a xlink:title=" ">
<polygon fill="none" stroke="#bfbfbf" points="633.5,-0.5 633.5,-19.5 684.5,-19.5 684.5,-0.5 633.5,-0.5"/>
<text text-anchor="middle" x="659" y="-7.5" font-family="Helvetica,sans-Serif" font-size="10.00">stdarg.h</text>
</a>
</g>
</g>
<!-- Node7&#45;&gt;Node8 -->
<g id="edge8" class="edge">
<title>Node7&#45;&gt;Node8</title>
<path fill="none" stroke="midnightblue" d="M689.06,-56.08C684.02,-48.53 676.66,-37.49 670.49,-28.23"/>
<polygon fill="midnightblue" stroke="midnightblue" points="673.29,-26.13 664.83,-19.75 667.47,-30.01 673.29,-26.13"/>
</g>
<!-- Node9 -->
<g id="node9" class="node">
<title>Node9</title>
<g id="a_node9"><a xlink:title=" ">
<polygon fill="none" stroke="#bfbfbf" points="703,-0.5 703,-19.5 759,-19.5 759,-0.5 703,-0.5"/>
<text text-anchor="middle" x="731" y="-7.5" font-family="Helvetica,sans-Serif" font-size="10.00">stdbool.h</text>
</a>
</g>
</g>
<!-- Node7&#45;&gt;Node9 -->
<g id="edge9" class="edge">
<title>Node7&#45;&gt;Node9</title>
<path fill="none" stroke="midnightblue" d="M700.94,-56.08C705.98,-48.53 713.34,-37.49 719.51,-28.23"/>
<polygon fill="midnightblue" stroke="midnightblue" points="722.53,-30.01 725.17,-19.75 716.71,-26.13 722.53,-30.01"/>
</g>
<!-- Node10 -->
<g id="node10" class="node">
<title>Node10</title>
<g id="a_node10"><a xlink:title=" ">
<polygon fill="none" stroke="#bfbfbf" points="1416.5,-0.5 1416.5,-19.5 1459.5,-19.5 1459.5,-0.5 1416.5,-0.5"/>
<text text-anchor="middle" x="1438" y="-7.5" font-family="Helvetica,sans-Serif" font-size="10.00">time.h</text>
</a>
</g>
</g>
<!-- Node7&#45;&gt;Node10 -->
<g id="edge10" class="edge">
<title>Node7&#45;&gt;Node10</title>
<path fill="none" stroke="midnightblue" d="M713.6,-63.19C733.49,-61.29 765.96,-58.25 794,-56 1028.81,-37.13 1312.15,-18.91 1406.06,-12.99"/>
<polygon fill="midnightblue" stroke="midnightblue" points="1406.55,-16.47 1416.31,-12.35 1406.11,-9.49 1406.55,-16.47"/>
</g>
<!-- Node11&#45;&gt;Node5 -->
<g id="edge14" class="edge">
<title>Node11&#45;&gt;Node5</title>
<path fill="none" stroke="midnightblue" d="M931.52,-178.85C1012.41,-172.08 1173.07,-156.03 1224,-132 1247.9,-120.72 1269.56,-98.84 1282.74,-83.6"/>
<polygon fill="midnightblue" stroke="midnightblue" points="1285.42,-85.84 1289.15,-75.92 1280.05,-81.36 1285.42,-85.84"/>
</g>
<!-- Node11&#45;&gt;Node7 -->
<g id="edge16" class="edge">
<title>Node11&#45;&gt;Node7</title>
<path fill="none" stroke="midnightblue" d="M869.79,-173.82C837.29,-153.95 757.26,-105.05 717.78,-80.92"/>
<polygon fill="midnightblue" stroke="midnightblue" points="719.47,-77.85 709.11,-75.62 715.82,-83.83 719.47,-77.85"/>
</g>
<!-- Node12 -->
<g id="node12" class="node">
<title>Node12</title>
<g id="a_node12"><a xlink:title=" ">
<polygon fill="none" stroke="#bfbfbf" points="342,-56.5 342,-75.5 390,-75.5 390,-56.5 342,-56.5"/>
<text text-anchor="middle" x="366" y="-63.5" font-family="Helvetica,sans-Serif" font-size="10.00">string.h</text>
</a>
</g>
</g>
<!-- Node11&#45;&gt;Node12 -->
<g id="edge12" class="edge">
<title>Node11&#45;&gt;Node12</title>
<path fill="none" stroke="midnightblue" d="M864.95,-173.9C827.06,-156.93 743.33,-120.07 713,-112 601.18,-82.25 463.65,-71.86 400.58,-68.49"/>
<polygon fill="midnightblue" stroke="midnightblue" points="400.57,-64.98 390.4,-67.97 400.21,-71.97 400.57,-64.98"/>
</g>
<!-- Node13 -->
<g id="node13" class="node">
<title>Node13</title>
<g id="a_node13"><a xlink:title=" ">
<polygon fill="none" stroke="#bfbfbf" points="658,-112.5 658,-131.5 704,-131.5 704,-112.5 658,-112.5"/>
<text text-anchor="middle" x="681" y="-119.5" font-family="Helvetica,sans-Serif" font-size="10.00">math.h</text>
</a>
</g>
</g>
<!-- Node11&#45;&gt;Node13 -->
<g id="edge13" class="edge">
<title>Node11&#45;&gt;Node13</title>
<path fill="none" stroke="midnightblue" d="M854.92,-173.98C817.58,-163.03 752.96,-144.09 713.88,-132.64"/>
<polygon fill="midnightblue" stroke="midnightblue" points="714.63,-129.21 704.05,-129.76 712.66,-135.93 714.63,-129.21"/>
</g>
<!-- Node14 -->
<g id="node14" class="node">
<title>Node14</title>
<g id="a_node14"><a xlink:title=" ">
<polygon fill="none" stroke="#bfbfbf" points="940.5,-56.5 940.5,-75.5 1023.5,-75.5 1023.5,-56.5 940.5,-56.5"/>
<text text-anchor="middle" x="982" y="-63.5" font-family="Helvetica,sans-Serif" font-size="10.00">cjson/cJSON.h</text>
</a>
</g>
</g>
<!-- Node11&#45;&gt;Node14 -->
<g id="edge15" class="edge">
<title>Node11&#45;&gt;Node14</title>
<path fill="none" stroke="midnightblue" d="M891.37,-173.82C907.61,-154.67 946.75,-108.54 967.89,-83.63"/>
<polygon fill="midnightblue" stroke="midnightblue" points="970.75,-85.67 974.55,-75.78 965.41,-81.14 970.75,-85.67"/>
</g>
<!-- Node15 -->
<g id="node15" class="node">
<title>Node15</title>
<g id="a_node15"><a xlink:href="_ubidots_2authenticate_8h.html" target="_top" xlink:title=" ">
<polygon fill="none" stroke="black" points="218,-112.5 218,-131.5 332,-131.5 332,-112.5 218,-112.5"/>
<text text-anchor="middle" x="275" y="-119.5" font-family="Helvetica,sans-Serif" font-size="10.00">Ubidots/authenticate.h</text>
</a>
</g>
</g>
<!-- Node11&#45;&gt;Node15 -->
<g id="edge17" class="edge">
<title>Node11&#45;&gt;Node15</title>
<path fill="none" stroke="midnightblue" d="M836.47,-177.86C728.92,-167.35 466.62,-141.72 342.38,-129.58"/>
<polygon fill="midnightblue" stroke="midnightblue" points="342.53,-126.08 332.24,-128.59 341.85,-133.05 342.53,-126.08"/>
</g>
<!-- Node16 -->
<g id="node16" class="node">
<title>Node16</title>
<g id="a_node16"><a xlink:href="utils_8h.html" target="_top" xlink:title=" ">
<polygon fill="none" stroke="black" points="1064,-112.5 1064,-131.5 1106,-131.5 1106,-112.5 1064,-112.5"/>
<text text-anchor="middle" x="1085" y="-119.5" font-family="Helvetica,sans-Serif" font-size="10.00">utils.h</text>
</a>
</g>
</g>
<!-- Node11&#45;&gt;Node16 -->
<g id="edge22" class="edge">
<title>Node11&#45;&gt;Node16</title>
<path fill="none" stroke="midnightblue" d="M912.8,-173.98C950.37,-162.85 1015.82,-143.48 1054.3,-132.09"/>
<polygon fill="midnightblue" stroke="midnightblue" points="1055.34,-135.43 1063.93,-129.24 1053.35,-128.72 1055.34,-135.43"/>
</g>
<!-- Node15&#45;&gt;Node3 -->
<g id="edge19" class="edge">
<title>Node15&#45;&gt;Node3</title>
<path fill="none" stroke="midnightblue" d="M262.47,-112.32C250.41,-103.98 231.97,-91.21 217.73,-81.35"/>
<polygon fill="midnightblue" stroke="midnightblue" points="219.72,-78.47 209.5,-75.65 215.73,-84.22 219.72,-78.47"/>
</g>
<!-- Node15&#45;&gt;Node4 -->
<g id="edge18" class="edge">
<title>Node15&#45;&gt;Node4</title>
<path fill="none" stroke="midnightblue" d="M280.71,-112.17C290.08,-98.36 309.96,-71.6 333,-56 361.13,-36.96 398.28,-24.87 424.56,-18.08"/>
<polygon fill="midnightblue" stroke="midnightblue" points="425.54,-21.44 434.41,-15.65 423.86,-14.65 425.54,-21.44"/>
</g>
<!-- Node15&#45;&gt;Node7 -->
<g id="edge21" class="edge">
<title>Node15&#45;&gt;Node7</title>
<path fill="none" stroke="midnightblue" d="M332.08,-113.66C422.99,-101.97 597.4,-79.55 666.14,-70.71"/>
<polygon fill="midnightblue" stroke="midnightblue" points="666.76,-74.16 676.23,-69.41 665.87,-67.22 666.76,-74.16"/>
</g>
<!-- Node15&#45;&gt;Node12 -->
<g id="edge20" class="edge">
<title>Node15&#45;&gt;Node12</title>
<path fill="none" stroke="midnightblue" d="M289.62,-112.32C303.95,-103.82 326.01,-90.73 342.75,-80.8"/>
<polygon fill="midnightblue" stroke="midnightblue" points="344.6,-83.77 351.42,-75.65 341.03,-77.75 344.6,-83.77"/>
</g>
<!-- Node16&#45;&gt;Node3 -->
<g id="edge23" class="edge">
<title>Node16&#45;&gt;Node3</title>
<path fill="none" stroke="midnightblue" d="M1063.76,-119.78C974.69,-114.64 622.45,-94.24 333,-76 298.18,-73.81 258.36,-71.15 230.85,-69.3"/>
<polygon fill="midnightblue" stroke="midnightblue" points="230.8,-65.79 220.58,-68.61 230.32,-72.77 230.8,-65.79"/>
</g>
<!-- Node16&#45;&gt;Node5 -->
<g id="edge25" class="edge">
<title>Node16&#45;&gt;Node5</title>
<path fill="none" stroke="midnightblue" d="M1106,-115.62C1141.01,-106.67 1211.84,-88.54 1256.43,-77.13"/>
<polygon fill="midnightblue" stroke="midnightblue" points="1257.53,-80.46 1266.35,-74.59 1255.79,-73.68 1257.53,-80.46"/>
</g>
<!-- Node16&#45;&gt;Node7 -->
<g id="edge30" class="edge">
<title>Node16&#45;&gt;Node7</title>
<path fill="none" stroke="midnightblue" d="M1063.75,-118.06C998.15,-108.98 798.72,-81.36 723.83,-70.99"/>
<polygon fill="midnightblue" stroke="midnightblue" points="724.1,-67.5 713.71,-69.59 723.14,-74.43 724.1,-67.5"/>
</g>
<!-- Node16&#45;&gt;Node12 -->
<g id="edge24" class="edge">
<title>Node16&#45;&gt;Node12</title>
<path fill="none" stroke="midnightblue" d="M1063.87,-119.41C962.67,-111.81 527.21,-79.11 400.63,-69.6"/>
<polygon fill="midnightblue" stroke="midnightblue" points="400.6,-66.09 390.37,-68.83 400.08,-73.07 400.6,-66.09"/>
</g>
<!-- Node16&#45;&gt;Node14 -->
<g id="edge26" class="edge">
<title>Node16&#45;&gt;Node14</title>
<path fill="none" stroke="midnightblue" d="M1068.45,-112.32C1052.01,-103.7 1026.57,-90.36 1007.53,-80.39"/>
<polygon fill="midnightblue" stroke="midnightblue" points="1008.99,-77.2 998.51,-75.65 1005.74,-83.4 1008.99,-77.2"/>
</g>
<!-- Node17 -->
<g id="node17" class="node">
<title>Node17</title>
<g id="a_node17"><a xlink:title=" ">
<polygon fill="none" stroke="#bfbfbf" points="1189.5,-56.5 1189.5,-75.5 1248.5,-75.5 1248.5,-56.5 1189.5,-56.5"/>
<text text-anchor="middle" x="1219" y="-63.5" font-family="Helvetica,sans-Serif" font-size="10.00">sys/stat.h</text>
</a>
</g>
</g>
<!-- Node16&#45;&gt;Node17 -->
<g id="edge27" class="edge">
<title>Node16&#45;&gt;Node17</title>
<path fill="none" stroke="midnightblue" d="M1106.23,-112.44C1128.38,-103.52 1163.32,-89.44 1188.44,-79.32"/>
<polygon fill="midnightblue" stroke="midnightblue" points="1189.9,-82.5 1197.87,-75.52 1187.28,-76.01 1189.9,-82.5"/>
</g>
<!-- Node18 -->
<g id="node18" class="node">
<title>Node18</title>
<g id="a_node18"><a xlink:title=" ">
<polygon fill="none" stroke="#bfbfbf" points="1041.5,-56.5 1041.5,-75.5 1106.5,-75.5 1106.5,-56.5 1041.5,-56.5"/>
<text text-anchor="middle" x="1074" y="-63.5" font-family="Helvetica,sans-Serif" font-size="10.00">sys/types.h</text>
</a>
</g>
</g>
<!-- Node16&#45;&gt;Node18 -->
<g id="edge28" class="edge">
<title>Node16&#45;&gt;Node18</title>
<path fill="none" stroke="midnightblue" d="M1083.18,-112.08C1081.73,-104.93 1079.63,-94.64 1077.81,-85.69"/>
<polygon fill="midnightblue" stroke="midnightblue" points="1081.21,-84.85 1075.78,-75.75 1074.35,-86.25 1081.21,-84.85"/>
</g>
<!-- Node19 -->
<g id="node19" class="node">
<title>Node19</title>
<g id="a_node19"><a xlink:title=" ">
<polygon fill="none" stroke="#bfbfbf" points="1125,-56.5 1125,-75.5 1171,-75.5 1171,-56.5 1125,-56.5"/>
<text text-anchor="middle" x="1148" y="-63.5" font-family="Helvetica,sans-Serif" font-size="10.00">errno.h</text>
</a>
</g>
</g>
<!-- Node16&#45;&gt;Node19 -->
<g id="edge29" class="edge">
<title>Node16&#45;&gt;Node19</title>
<path fill="none" stroke="midnightblue" d="M1095.12,-112.32C1104.53,-104.26 1118.74,-92.08 1130.07,-82.37"/>
<polygon fill="midnightblue" stroke="midnightblue" points="1132.38,-85 1137.69,-75.83 1127.82,-79.68 1132.38,-85"/>
</g>
<!-- Node20&#45;&gt;Node3 -->
<g id="edge33" class="edge">
<title>Node20&#45;&gt;Node3</title>
<path fill="none" stroke="midnightblue" d="M415.8,-112.44C364.55,-101.8 278.03,-83.83 230.59,-73.98"/>
<polygon fill="midnightblue" stroke="midnightblue" points="231.04,-70.49 220.53,-71.89 229.61,-77.35 231.04,-70.49"/>
</g>
<!-- Node20&#45;&gt;Node4 -->
<g id="edge34" class="edge">
<title>Node20&#45;&gt;Node4</title>
<path fill="none" stroke="midnightblue" d="M457,-112.37C457,-94.62 457,-53.67 457,-29.6"/>
<polygon fill="midnightblue" stroke="midnightblue" points="460.5,-29.59 457,-19.59 453.5,-29.59 460.5,-29.59"/>
</g>
<!-- Node20&#45;&gt;Node5 -->
<g id="edge36" class="edge">
<title>Node20&#45;&gt;Node5</title>
<path fill="none" stroke="midnightblue" d="M525.64,-117.84C699.87,-109.72 1152.32,-88.02 1256.06,-75.9"/>
<polygon fill="midnightblue" stroke="midnightblue" points="1256.76,-79.34 1266.22,-74.58 1255.86,-72.4 1256.76,-79.34"/>
</g>
<!-- Node20&#45;&gt;Node7 -->
<g id="edge37" class="edge">
<title>Node20&#45;&gt;Node7</title>
<path fill="none" stroke="midnightblue" d="M494.71,-112.44C542.42,-101.62 623.52,-83.22 666.42,-73.48"/>
<polygon fill="midnightblue" stroke="midnightblue" points="667.24,-76.89 676.22,-71.26 665.69,-70.06 667.24,-76.89"/>
</g>
<!-- Node20&#45;&gt;Node12 -->
<g id="edge32" class="edge">
<title>Node20&#45;&gt;Node12</title>
<path fill="none" stroke="midnightblue" d="M442.38,-112.32C428.05,-103.82 405.99,-90.73 389.25,-80.8"/>
<polygon fill="midnightblue" stroke="midnightblue" points="390.97,-77.75 380.58,-75.65 387.4,-83.77 390.97,-77.75"/>
</g>
<!-- Node20&#45;&gt;Node14 -->
<g id="edge35" class="edge">
<title>Node20&#45;&gt;Node14</title>
<path fill="none" stroke="midnightblue" d="M525.63,-113.94C632.23,-102.98 835.2,-82.1 930.35,-72.31"/>
<polygon fill="midnightblue" stroke="midnightblue" points="930.72,-75.79 940.31,-71.29 930.01,-68.83 930.72,-75.79"/>
</g>
<!-- Node21&#45;&gt;Node3 -->
<g id="edge40" class="edge">
<title>Node21&#45;&gt;Node3</title>
<path fill="none" stroke="midnightblue" d="M638.39,-243.32C538.32,-241.25 316.12,-232.86 249,-199 213.04,-180.86 202.54,-169.56 188,-132 182.16,-116.91 185.57,-98.56 189.76,-85.21"/>
<polygon fill="midnightblue" stroke="midnightblue" points="193.08,-86.32 193.13,-75.73 186.49,-83.98 193.08,-86.32"/>
</g>
<!-- Node21&#45;&gt;Node5 -->
<g id="edge43" class="edge">
<title>Node21&#45;&gt;Node5</title>
<path fill="none" stroke="midnightblue" d="M737.59,-240.7C807,-235.42 936.77,-223.11 1045,-199 1092.19,-188.49 1213.35,-161.04 1252,-132 1268.46,-119.63 1280.82,-99.21 1288.19,-84.56"/>
<polygon fill="midnightblue" stroke="midnightblue" points="1291.36,-86.04 1292.47,-75.51 1285.03,-83.05 1291.36,-86.04"/>
</g>
<!-- Node21&#45;&gt;Node7 -->
<g id="edge45" class="edge">
<title>Node21&#45;&gt;Node7</title>
<path fill="none" stroke="midnightblue" d="M638.39,-236.96C615.36,-230.93 590.02,-219.75 576,-199 568.28,-187.59 570.21,-180.5 576,-168 586.41,-145.51 642.71,-103.58 674,-81.49"/>
<polygon fill="midnightblue" stroke="midnightblue" points="676.28,-84.16 682.47,-75.56 672.27,-78.43 676.28,-84.16"/>
</g>
<!-- Node21&#45;&gt;Node10 -->
<g id="edge42" class="edge">
<title>Node21&#45;&gt;Node10</title>
<path fill="none" stroke="midnightblue" d="M695.74,-235.18C723.75,-203.95 823.92,-98.24 932,-56 1019.19,-21.92 1309.74,-13.42 1406.41,-11.51"/>
<polygon fill="midnightblue" stroke="midnightblue" points="1406.51,-15.01 1416.44,-11.32 1406.38,-8.01 1406.51,-15.01"/>
</g>
<!-- Node21&#45;&gt;Node12 -->
<g id="edge39" class="edge">
<title>Node21&#45;&gt;Node12</title>
<path fill="none" stroke="midnightblue" d="M638.19,-240.7C523.98,-231.94 249.08,-203.69 198,-132 163.49,-83.57 272.95,-71.22 331.53,-68.08"/>
<polygon fill="midnightblue" stroke="midnightblue" points="332.01,-71.56 341.83,-67.59 331.68,-64.57 332.01,-71.56"/>
</g>
<!-- Node21&#45;&gt;Node13 -->
<g id="edge41" class="edge">
<title>Node21&#45;&gt;Node13</title>
<path fill="none" stroke="midnightblue" d="M694.63,-235.27C700.77,-226.61 709.46,-212.67 713,-199 716.46,-185.66 717.19,-181.12 713,-168 709.66,-157.54 702.9,-147.43 696.45,-139.45"/>
<polygon fill="midnightblue" stroke="midnightblue" points="698.94,-136.98 689.75,-131.71 693.65,-141.56 698.94,-136.98"/>
</g>
<!-- Node21&#45;&gt;Node14 -->
<g id="edge44" class="edge">
<title>Node21&#45;&gt;Node14</title>
<path fill="none" stroke="midnightblue" d="M737.5,-241.21C802.4,-236.57 911.47,-225.04 941,-199 973.9,-169.98 980.72,-115.09 981.93,-86.08"/>
<polygon fill="midnightblue" stroke="midnightblue" points="985.44,-85.78 982.16,-75.7 978.44,-85.62 985.44,-85.78"/>
</g>
<!-- Node21&#45;&gt;Node16 -->
<g id="edge58" class="edge">
<title>Node21&#45;&gt;Node16</title>
<path fill="none" stroke="midnightblue" d="M737.51,-241.09C816.04,-235.81 965.08,-222.94 1012,-199 1038.65,-185.41 1061.03,-158.18 1073.73,-140.27"/>
<polygon fill="midnightblue" stroke="midnightblue" points="1076.71,-142.11 1079.46,-131.88 1070.93,-138.17 1076.71,-142.11"/>
</g>
<!-- Node21&#45;&gt;Node20 -->
<g id="edge46" class="edge">
<title>Node21&#45;&gt;Node20</title>
<path fill="none" stroke="midnightblue" d="M638.31,-243.66C564.4,-241.97 430.96,-234.02 401,-199 392.04,-188.53 395.05,-180.42 401,-168 407.25,-154.95 419.34,-144.49 430.68,-136.95"/>
<polygon fill="midnightblue" stroke="midnightblue" points="432.81,-139.75 439.5,-131.54 429.15,-133.79 432.81,-139.75"/>
</g>
<!-- Node22 -->
<g id="node22" class="node">
<title>Node22</title>
<g id="a_node22"><a xlink:href="location_8h.html" target="_top" xlink:title=" ">
<polygon fill="none" stroke="black" points="410.5,-174 410.5,-193 527.5,-193 527.5,-174 410.5,-174"/>
<text text-anchor="middle" x="469" y="-181" font-family="Helvetica,sans-Serif" font-size="10.00">WillyWeather/location.h</text>
</a>
</g>
</g>
<!-- Node21&#45;&gt;Node22 -->
<g id="edge47" class="edge">
<title>Node21&#45;&gt;Node22</title>
<path fill="none" stroke="midnightblue" d="M656.62,-235.48C618.08,-225 552.59,-207.21 510.08,-195.66"/>
<polygon fill="midnightblue" stroke="midnightblue" points="510.89,-192.25 500.32,-193.01 509.05,-199.01 510.89,-192.25"/>
</g>
<!-- Node23 -->
<g id="node23" class="node">
<title>Node23</title>
<g id="a_node23"><a xlink:href="forecast_8h.html" target="_top" xlink:title=" ">
<polygon fill="none" stroke="black" points="584.5,-174 584.5,-193 703.5,-193 703.5,-174 584.5,-174"/>
<text text-anchor="middle" x="644" y="-181" font-family="Helvetica,sans-Serif" font-size="10.00">WillyWeather/forecast.h</text>
</a>
</g>
</g>
<!-- Node21&#45;&gt;Node23 -->
<g id="edge57" class="edge">
<title>Node21&#45;&gt;Node23</title>
<path fill="none" stroke="midnightblue" d="M681.7,-235.48C675.1,-226.55 664.56,-212.31 656.31,-201.14"/>
<polygon fill="midnightblue" stroke="midnightblue" points="659.05,-198.97 650.29,-193.01 653.42,-203.13 659.05,-198.97"/>
</g>
<!-- Node22&#45;&gt;Node3 -->
<g id="edge49" class="edge">
<title>Node22&#45;&gt;Node3</title>
<path fill="none" stroke="midnightblue" d="M410.43,-179.99C339.07,-175.58 224.7,-163.64 198,-132 187.33,-119.35 188.55,-99.87 191.55,-85.53"/>
<polygon fill="midnightblue" stroke="midnightblue" points="194.96,-86.32 194.01,-75.77 188.17,-84.6 194.96,-86.32"/>
</g>
<!-- Node22&#45;&gt;Node4 -->
<g id="edge50" class="edge">
<title>Node22&#45;&gt;Node4</title>
<path fill="none" stroke="midnightblue" d="M488.33,-173.84C504.12,-165.59 525.35,-151.53 535,-132 538.94,-124.03 537.87,-120.41 535,-112 523.11,-77.14 493.76,-44.96 474.65,-26.68"/>
<polygon fill="midnightblue" stroke="midnightblue" points="476.88,-23.97 467.17,-19.73 472.12,-29.1 476.88,-23.97"/>
</g>
<!-- Node22&#45;&gt;Node5 -->
<g id="edge53" class="edge">
<title>Node22&#45;&gt;Node5</title>
<path fill="none" stroke="midnightblue" d="M526.39,-173.99C542.42,-171.81 559.87,-169.63 576,-168 814.87,-143.87 879.97,-181.05 1115,-132 1170.93,-120.33 1232.95,-95.22 1267.94,-79.85"/>
<polygon fill="midnightblue" stroke="midnightblue" points="1269.77,-82.87 1277.48,-75.61 1266.92,-76.48 1269.77,-82.87"/>
</g>
<!-- Node22&#45;&gt;Node7 -->
<g id="edge54" class="edge">
<title>Node22&#45;&gt;Node7</title>
<path fill="none" stroke="midnightblue" d="M485.82,-173.93C505.52,-163.89 539.13,-146.75 568,-132 603.01,-114.11 643.43,-93.42 669.09,-80.28"/>
<polygon fill="midnightblue" stroke="midnightblue" points="670.85,-83.3 678.16,-75.63 667.66,-77.07 670.85,-83.3"/>
</g>
<!-- Node22&#45;&gt;Node12 -->
<g id="edge48" class="edge">
<title>Node22&#45;&gt;Node12</title>
<path fill="none" stroke="midnightblue" d="M410.32,-179.53C341.62,-174.68 234.01,-162.33 209,-132 173.65,-89.13 275.32,-74.15 331.51,-69.24"/>
<polygon fill="midnightblue" stroke="midnightblue" points="332.07,-72.7 341.76,-68.41 331.51,-65.72 332.07,-72.7"/>
</g>
<!-- Node22&#45;&gt;Node13 -->
<g id="edge51" class="edge">
<title>Node22&#45;&gt;Node13</title>
<path fill="none" stroke="midnightblue" d="M499.37,-173.98C538.85,-162.9 607.52,-143.62 648.17,-132.22"/>
<polygon fill="midnightblue" stroke="midnightblue" points="649.18,-135.57 657.86,-129.49 647.29,-128.83 649.18,-135.57"/>
</g>
<!-- Node22&#45;&gt;Node14 -->
<g id="edge52" class="edge">
<title>Node22&#45;&gt;Node14</title>
<path fill="none" stroke="midnightblue" d="M512.29,-173.99C561.14,-164.28 642.93,-147.71 713,-132 792.72,-114.12 885.22,-91.32 938.34,-78.02"/>
<polygon fill="midnightblue" stroke="midnightblue" points="939.26,-81.4 948.11,-75.57 937.56,-74.61 939.26,-81.4"/>
</g>
<!-- Node22&#45;&gt;Node16 -->
<g id="edge56" class="edge">
<title>Node22&#45;&gt;Node16</title>
<path fill="none" stroke="midnightblue" d="M527.53,-174.07C543.25,-171.94 560.26,-169.76 576,-168 756.19,-147.84 973.11,-131.19 1053.25,-125.29"/>
<polygon fill="midnightblue" stroke="midnightblue" points="1053.91,-128.75 1063.63,-124.53 1053.4,-121.77 1053.91,-128.75"/>
</g>
<!-- Node22&#45;&gt;Node20 -->
<g id="edge55" class="edge">
<title>Node22&#45;&gt;Node20</title>
<path fill="none" stroke="midnightblue" d="M467.28,-173.98C465.57,-165.49 462.89,-152.2 460.7,-141.32"/>
<polygon fill="midnightblue" stroke="midnightblue" points="464.12,-140.62 458.72,-131.51 457.26,-142 464.12,-140.62"/>
</g>
<!-- Node24&#45;&gt;Node5 -->
<g id="edge60" class="edge">
<title>Node24&#45;&gt;Node5</title>
<path fill="none" stroke="midnightblue" d="M1255.61,-173.87C1270.52,-165.48 1290.88,-151.18 1300,-132 1306.82,-117.64 1304.94,-99.44 1301.86,-85.96"/>
<polygon fill="midnightblue" stroke="midnightblue" points="1305.14,-84.67 1299.16,-75.92 1298.38,-86.49 1305.14,-84.67"/>
</g>
<!-- Node24&#45;&gt;Node7 -->
<g id="edge63" class="edge">
<title>Node24&#45;&gt;Node7</title>
<path fill="none" stroke="midnightblue" d="M1197.63,-173.91C1092.78,-151.61 813.7,-92.25 723.53,-73.07"/>
<polygon fill="midnightblue" stroke="midnightblue" points="724.24,-69.64 713.73,-70.98 722.78,-76.49 724.24,-69.64"/>
</g>
<!-- Node24&#45;&gt;Node10 -->
<g id="edge62" class="edge">
<title>Node24&#45;&gt;Node10</title>
<path fill="none" stroke="midnightblue" d="M1253.29,-173.88C1269.5,-164.46 1295.52,-148.49 1316,-132 1358.19,-98.03 1401.91,-51.37 1423.76,-27.11"/>
<polygon fill="midnightblue" stroke="midnightblue" points="1426.49,-29.32 1430.54,-19.53 1421.27,-24.65 1426.49,-29.32"/>
</g>
<!-- Node24&#45;&gt;Node14 -->
<g id="edge61" class="edge">
<title>Node24&#45;&gt;Node14</title>
<path fill="none" stroke="midnightblue" d="M1224.8,-173.79C1202.76,-159.5 1156.74,-130.81 1115,-112 1084.85,-98.41 1049.3,-86.59 1022.55,-78.48"/>
<polygon fill="midnightblue" stroke="midnightblue" points="1023.34,-75.06 1012.75,-75.55 1021.33,-81.77 1023.34,-75.06"/>
</g>
<!-- Node24&#45;&gt;Node16 -->
<g id="edge64" class="edge">
<title>Node24&#45;&gt;Node16</title>
<path fill="none" stroke="midnightblue" d="M1216.08,-173.98C1189.8,-163.76 1145.59,-146.56 1115.87,-135"/>
<polygon fill="midnightblue" stroke="midnightblue" points="1116.98,-131.68 1106.39,-131.32 1114.44,-138.2 1116.98,-131.68"/>
</g>
<!-- Node25&#45;&gt;Node5 -->
<g id="edge66" class="edge">
<title>Node25&#45;&gt;Node5</title>
<path fill="none" stroke="midnightblue" d="M1129.58,-241.1C1226.24,-235.48 1417,-221.63 1437,-199 1479.12,-151.34 1381.4,-101.83 1327.95,-79.39"/>
<polygon fill="midnightblue" stroke="midnightblue" points="1329.11,-76.08 1318.53,-75.52 1326.45,-82.55 1329.11,-76.08"/>
</g>
<!-- Node25&#45;&gt;Node7 -->
<g id="edge70" class="edge">
<title>Node25&#45;&gt;Node7</title>
<path fill="none" stroke="midnightblue" d="M1060.34,-235.41C1036.59,-220.64 985.92,-189.94 941,-168 864.06,-130.42 769.48,-94.28 723.21,-77.22"/>
<polygon fill="midnightblue" stroke="midnightblue" points="724.16,-73.84 713.57,-73.68 721.75,-80.41 724.16,-73.84"/>
</g>
<!-- Node25&#45;&gt;Node10 -->
<g id="edge69" class="edge">
<title>Node25&#45;&gt;Node10</title>
<path fill="none" stroke="midnightblue" d="M1129.82,-241.19C1230.3,-235.59 1433.32,-221.59 1456,-199 1501.28,-153.91 1490.88,-116.73 1471,-56 1467.51,-45.34 1460.43,-35.12 1453.71,-27.12"/>
<polygon fill="midnightblue" stroke="midnightblue" points="1456.3,-24.76 1447.02,-19.66 1451.1,-29.44 1456.3,-24.76"/>
</g>
<!-- Node25&#45;&gt;Node13 -->
<g id="edge68" class="edge">
<title>Node25&#45;&gt;Node13</title>
<path fill="none" stroke="midnightblue" d="M1018.1,-238.55C967.44,-232.5 891.28,-220.61 828,-199 781.1,-182.99 730.66,-154.05 702.75,-136.87"/>
<polygon fill="midnightblue" stroke="midnightblue" points="704.52,-133.85 694.18,-131.53 700.82,-139.79 704.52,-133.85"/>
</g>
<!-- Node25&#45;&gt;Node14 -->
<g id="edge67" class="edge">
<title>Node25&#45;&gt;Node14</title>
<path fill="none" stroke="midnightblue" d="M1070.51,-235.44C1061.68,-214.1 1037.37,-156.99 1012,-112 1006.64,-102.49 999.96,-92.34 994.27,-84.09"/>
<polygon fill="midnightblue" stroke="midnightblue" points="996.99,-81.88 988.38,-75.72 991.27,-85.91 996.99,-81.88"/>
</g>
<!-- Node25&#45;&gt;Node16 -->
<g id="edge72" class="edge">
<title>Node25&#45;&gt;Node16</title>
<path fill="none" stroke="midnightblue" d="M1077.6,-235.22C1081.06,-226.28 1086.03,-211.94 1088,-199 1090.91,-179.86 1089.5,-157.71 1087.77,-142.28"/>
<polygon fill="midnightblue" stroke="midnightblue" points="1091.19,-141.43 1086.44,-131.95 1084.24,-142.32 1091.19,-141.43"/>
</g>
<!-- Node25&#45;&gt;Node24 -->
<g id="edge71" class="edge">
<title>Node25&#45;&gt;Node24</title>
<path fill="none" stroke="midnightblue" d="M1097.5,-235.48C1125.63,-225.27 1172.93,-208.11 1204.79,-196.55"/>
<polygon fill="midnightblue" stroke="midnightblue" points="1206.34,-199.71 1214.55,-193.01 1203.95,-193.13 1206.34,-199.71"/>
</g>
<!-- Node26&#45;&gt;Node5 -->
<g id="edge74" class="edge">
<title>Node26&#45;&gt;Node5</title>
<path fill="none" stroke="midnightblue" d="M1362.68,-168.34C1348.68,-147.05 1322.25,-106.89 1307.21,-84.03"/>
<polygon fill="midnightblue" stroke="midnightblue" points="1310.13,-82.1 1301.7,-75.67 1304.28,-85.95 1310.13,-82.1"/>
</g>
<!-- Node26&#45;&gt;Node7 -->
<g id="edge77" class="edge">
<title>Node26&#45;&gt;Node7</title>
<path fill="none" stroke="midnightblue" d="M1319.85,-168.48C1282.54,-158.42 1231.15,-144.49 1186,-132 1154.4,-123.26 1147.19,-118.21 1115,-112 969.42,-83.9 791.82,-72.12 723.58,-68.4"/>
<polygon fill="midnightblue" stroke="midnightblue" points="723.76,-64.91 713.59,-67.88 723.39,-71.9 723.76,-64.91"/>
</g>
<!-- Node26&#45;&gt;Node10 -->
<g id="edge76" class="edge">
<title>Node26&#45;&gt;Node10</title>
<path fill="none" stroke="midnightblue" d="M1409.77,-168.47C1425.81,-160.41 1442.88,-148.54 1452,-132 1470.14,-99.11 1456.36,-53.61 1446.23,-28.83"/>
<polygon fill="midnightblue" stroke="midnightblue" points="1449.41,-27.36 1442.22,-19.58 1442.99,-30.14 1449.41,-27.36"/>
</g>
<!-- Node26&#45;&gt;Node14 -->
<g id="edge75" class="edge">
<title>Node26&#45;&gt;Node14</title>
<path fill="none" stroke="midnightblue" d="M1339.23,-168.42C1302.46,-153.01 1240.77,-128.33 1186,-112 1134.95,-96.78 1075.32,-84.21 1033.76,-76.26"/>
<polygon fill="midnightblue" stroke="midnightblue" points="1034.34,-72.81 1023.87,-74.39 1033.04,-79.69 1034.34,-72.81"/>
</g>
<!-- Node26&#45;&gt;Node16 -->
<g id="edge78" class="edge">
<title>Node26&#45;&gt;Node16</title>
<path fill="none" stroke="midnightblue" d="M1316,-169.93C1312.95,-169.27 1309.94,-168.63 1307,-168 1238.95,-153.51 1158.93,-137.56 1115.99,-129.08"/>
<polygon fill="midnightblue" stroke="midnightblue" points="1116.64,-125.64 1106.15,-127.14 1115.28,-132.51 1116.64,-125.64"/>
</g>
</g>
</svg>
