<?xml version="1.0" encoding="UTF-8" standalone="no"?>
<!DOCTYPE svg PUBLIC "-//W3C//DTD SVG 1.1//EN"
 "http://www.w3.org/Graphics/SVG/1.1/DTD/svg11.dtd">
<!-- Generated by graphviz version 2.49.3 (20211027.1534)
 -->
<!-- Title: include/main.h Pages: 1 -->
<svg width="769pt" height="207pt"
 viewBox="0.00 0.00 768.81 207.00" xmlns="http://www.w3.org/2000/svg" xmlns:xlink="http://www.w3.org/1999/xlink">
<g id="graph0" class="graph" transform="scale(1 1) rotate(0) translate(4 203)">
<title>include/main.h</title>
<!-- Node1 -->
<g id="node1" class="node">
<title>Node1</title>
<g id="a_node1"><a xlink:title=" ">
<polygon fill="#bfbfbf" stroke="black" points="280.81,-179.5 280.81,-198.5 359.81,-198.5 359.81,-179.5 280.81,-179.5"/>
<text text-anchor="middle" x="320.31" y="-186.5" font-family="Helvetica,sans-Serif" font-size="10.00">include/main.h</text>
</a>
</g>
</g>
<!-- Node2 -->
<g id="node2" class="node">
<title>Node2</title>
<g id="a_node2"><a xlink:title=" ">
<polygon fill="none" stroke="#bfbfbf" points="7.81,-0.5 7.81,-19.5 54.81,-19.5 54.81,-0.5 7.81,-0.5"/>
<text text-anchor="middle" x="31.31" y="-7.5" font-family="Helvetica,sans-Serif" font-size="10.00">stdlib.h</text>
</a>
</g>
</g>
<!-- Node1&#45;&gt;Node2 -->
<g id="edge1" class="edge">
<title>Node1&#45;&gt;Node2</title>
<path fill="none" stroke="midnightblue" d="M280.57,-188.29C205.71,-187.91 48.26,-182.32 14.31,-143 -13.54,-110.76 7.54,-56.5 21.52,-28.65"/>
<polygon fill="midnightblue" stroke="midnightblue" points="24.68,-30.16 26.24,-19.68 18.49,-26.9 24.68,-30.16"/>
</g>
<!-- Node3 -->
<g id="node3" class="node">
<title>Node3</title>
<g id="a_node3"><a xlink:title=" ">
<polygon fill="none" stroke="#bfbfbf" points="715.81,-118 715.81,-137 760.81,-137 760.81,-118 715.81,-118"/>
<text text-anchor="middle" x="738.31" y="-125" font-family="Helvetica,sans-Serif" font-size="10.00">stdio.h</text>
</a>
</g>
</g>
<!-- Node1&#45;&gt;Node3 -->
<g id="edge2" class="edge">
<title>Node1&#45;&gt;Node3</title>
<path fill="none" stroke="midnightblue" d="M359.98,-187.39C430.8,-185.42 583.11,-177.19 706.31,-143 708.46,-142.4 710.64,-141.68 712.82,-140.88"/>
<polygon fill="midnightblue" stroke="midnightblue" points="714.18,-144.11 722.06,-137.03 711.49,-137.64 714.18,-144.11"/>
</g>
<!-- Node4 -->
<g id="node4" class="node">
<title>Node4</title>
<g id="a_node4"><a xlink:title=" ">
<polygon fill="none" stroke="#bfbfbf" points="278.81,-0.5 278.81,-19.5 337.81,-19.5 337.81,-0.5 278.81,-0.5"/>
<text text-anchor="middle" x="308.31" y="-7.5" font-family="Helvetica,sans-Serif" font-size="10.00">curl/curl.h</text>
</a>
</g>
</g>
<!-- Node1&#45;&gt;Node4 -->
<g id="edge3" class="edge">
<title>Node1&#45;&gt;Node4</title>
<path fill="none" stroke="midnightblue" d="M280.59,-184.28C253.62,-179.45 219.78,-168.37 202.31,-143 171.06,-97.64 242.36,-47.96 282.82,-24.58"/>
<polygon fill="midnightblue" stroke="midnightblue" points="284.65,-27.57 291.65,-19.62 281.22,-21.47 284.65,-27.57"/>
</g>
<!-- Node5 -->
<g id="node5" class="node">
<title>Node5</title>
<g id="a_node5"><a xlink:href="ubidots_8h.html" target="_top" xlink:title=" ">
<polygon fill="none" stroke="black" points="211.31,-118 211.31,-137 303.31,-137 303.31,-118 211.31,-118"/>
<text text-anchor="middle" x="257.31" y="-125" font-family="Helvetica,sans-Serif" font-size="10.00">Ubidots/ubidots.h</text>
</a>
</g>
</g>
<!-- Node1&#45;&gt;Node5 -->
<g id="edge4" class="edge">
<title>Node1&#45;&gt;Node5</title>
<path fill="none" stroke="midnightblue" d="M311.28,-179.48C301.55,-170.28 285.85,-155.46 273.88,-144.16"/>
<polygon fill="midnightblue" stroke="midnightblue" points="275.99,-141.33 266.32,-137.01 271.18,-146.42 275.99,-141.33"/>
</g>
<!-- Node9 -->
<g id="node9" class="node">
<title>Node9</title>
<g id="a_node9"><a xlink:href="w__weather_8h.html" target="_top" xlink:title=" ">
<polygon fill="none" stroke="black" points="23.81,-118 23.81,-137 154.81,-137 154.81,-118 23.81,-118"/>
<text text-anchor="middle" x="89.31" y="-125" font-family="Helvetica,sans-Serif" font-size="10.00">WillyWeather/w_weather.h</text>
</a>
</g>
</g>
<!-- Node1&#45;&gt;Node9 -->
<g id="edge13" class="edge">
<title>Node1&#45;&gt;Node9</title>
<path fill="none" stroke="midnightblue" d="M287.21,-179.48C246.38,-168.96 176.9,-151.06 132.07,-139.51"/>
<polygon fill="midnightblue" stroke="midnightblue" points="132.9,-136.11 122.34,-137.01 131.15,-142.89 132.9,-136.11"/>
</g>
<!-- Node10 -->
<g id="node10" class="node">
<title>Node10</title>
<g id="a_node10"><a xlink:href="authenticate_8h.html" target="_top" xlink:title=" ">
<polygon fill="none" stroke="black" points="321.81,-118 321.81,-137 446.81,-137 446.81,-118 321.81,-118"/>
<text text-anchor="middle" x="384.31" y="-125" font-family="Helvetica,sans-Serif" font-size="10.00">IBM_EMS/authenticate.h</text>
</a>
</g>
</g>
<!-- Node1&#45;&gt;Node10 -->
<g id="edge19" class="edge">
<title>Node1&#45;&gt;Node10</title>
<path fill="none" stroke="midnightblue" d="M329.48,-179.48C339.46,-170.2 355.62,-155.17 367.82,-143.83"/>
<polygon fill="midnightblue" stroke="midnightblue" points="370.21,-146.38 375.15,-137.01 365.45,-141.25 370.21,-146.38"/>
</g>
<!-- Node11 -->
<g id="node11" class="node">
<title>Node11</title>
<g id="a_node11"><a xlink:href="food__auth_8h.html" target="_top" xlink:title=" ">
<polygon fill="none" stroke="black" points="465.31,-112.5 465.31,-142.5 563.31,-142.5 563.31,-112.5 465.31,-112.5"/>
<text text-anchor="start" x="473.31" y="-130.5" font-family="Helvetica,sans-Serif" font-size="10.00">FoodAuthority/food</text>
<text text-anchor="middle" x="514.31" y="-119.5" font-family="Helvetica,sans-Serif" font-size="10.00">_auth.h</text>
</a>
</g>
</g>
<!-- Node1&#45;&gt;Node11 -->
<g id="edge23" class="edge">
<title>Node1&#45;&gt;Node11</title>
<path fill="none" stroke="midnightblue" d="M348.1,-179.48C376.83,-170.66 422.46,-156.67 458.65,-145.57"/>
<polygon fill="midnightblue" stroke="midnightblue" points="460.05,-148.8 468.59,-142.52 458,-142.11 460.05,-148.8"/>
</g>
<!-- Node13 -->
<g id="node13" class="node">
<title>Node13</title>
<g id="a_node13"><a xlink:href="timeseries_8h.html" target="_top" xlink:title=" ">
<polygon fill="none" stroke="black" points="581.31,-118 581.31,-137 697.31,-137 697.31,-118 581.31,-118"/>
<text text-anchor="middle" x="639.31" y="-125" font-family="Helvetica,sans-Serif" font-size="10.00">IBM_EMS/timeseries.h</text>
</a>
</g>
</g>
<!-- Node1&#45;&gt;Node13 -->
<g id="edge28" class="edge">
<title>Node1&#45;&gt;Node13</title>
<path fill="none" stroke="midnightblue" d="M360.11,-181.35C409.85,-172.94 497.53,-157.76 572.31,-143 578.44,-141.79 584.87,-140.47 591.23,-139.13"/>
<polygon fill="midnightblue" stroke="midnightblue" points="592.04,-142.53 601.09,-137.02 590.58,-135.69 592.04,-142.53"/>
</g>
<!-- Node5&#45;&gt;Node4 -->
<g id="edge6" class="edge">
<title>Node5&#45;&gt;Node4</title>
<path fill="none" stroke="midnightblue" d="M258.99,-117.96C261.84,-104.39 268.32,-77.27 278.31,-56 282.94,-46.12 289.56,-35.93 295.39,-27.76"/>
<polygon fill="midnightblue" stroke="midnightblue" points="298.37,-29.62 301.51,-19.5 292.74,-25.45 298.37,-29.62"/>
</g>
<!-- Node6 -->
<g id="node6" class="node">
<title>Node6</title>
<g id="a_node6"><a xlink:title=" ">
<polygon fill="none" stroke="#bfbfbf" points="197.31,-0.5 197.31,-19.5 245.31,-19.5 245.31,-0.5 197.31,-0.5"/>
<text text-anchor="middle" x="221.31" y="-7.5" font-family="Helvetica,sans-Serif" font-size="10.00">string.h</text>
</a>
</g>
</g>
<!-- Node5&#45;&gt;Node6 -->
<g id="edge5" class="edge">
<title>Node5&#45;&gt;Node6</title>
<path fill="none" stroke="midnightblue" d="M254.6,-117.82C248.79,-99.17 235,-54.94 227.11,-29.63"/>
<polygon fill="midnightblue" stroke="midnightblue" points="230.36,-28.29 224.04,-19.78 223.68,-30.37 230.36,-28.29"/>
</g>
<!-- Node7 -->
<g id="node7" class="node">
<title>Node7</title>
<g id="a_node7"><a xlink:title=" ">
<polygon fill="none" stroke="#bfbfbf" points="410.81,-0.5 410.81,-19.5 493.81,-19.5 493.81,-0.5 410.81,-0.5"/>
<text text-anchor="middle" x="452.31" y="-7.5" font-family="Helvetica,sans-Serif" font-size="10.00">cjson/cJSON.h</text>
</a>
</g>
</g>
<!-- Node5&#45;&gt;Node7 -->
<g id="edge7" class="edge">
<title>Node5&#45;&gt;Node7</title>
<path fill="none" stroke="midnightblue" d="M271.96,-117.82C305.57,-97.91 388.42,-48.84 429.06,-24.77"/>
<polygon fill="midnightblue" stroke="midnightblue" points="430.93,-27.73 437.75,-19.62 427.36,-21.71 430.93,-27.73"/>
</g>
<!-- Node8 -->
<g id="node8" class="node">
<title>Node8</title>
<g id="a_node8"><a xlink:href="utils_8h.html" target="_top" xlink:title=" ">
<polygon fill="none" stroke="black" points="287.31,-56.5 287.31,-75.5 329.31,-75.5 329.31,-56.5 287.31,-56.5"/>
<text text-anchor="middle" x="308.31" y="-63.5" font-family="Helvetica,sans-Serif" font-size="10.00">utils.h</text>
</a>
</g>
</g>
<!-- Node5&#45;&gt;Node8 -->
<g id="edge8" class="edge">
<title>Node5&#45;&gt;Node8</title>
<path fill="none" stroke="midnightblue" d="M264.61,-117.98C272.34,-108.96 284.71,-94.52 294.33,-83.31"/>
<polygon fill="midnightblue" stroke="midnightblue" points="297.16,-85.38 301.01,-75.51 291.85,-80.82 297.16,-85.38"/>
</g>
<!-- Node8&#45;&gt;Node2 -->
<g id="edge9" class="edge">
<title>Node8&#45;&gt;Node2</title>
<path fill="none" stroke="midnightblue" d="M287.03,-60.85C239.21,-51.53 122.89,-28.85 65.07,-17.58"/>
<polygon fill="midnightblue" stroke="midnightblue" points="65.48,-14.1 54.99,-15.62 64.14,-20.97 65.48,-14.1"/>
</g>
<!-- Node8&#45;&gt;Node4 -->
<g id="edge11" class="edge">
<title>Node8&#45;&gt;Node4</title>
<path fill="none" stroke="midnightblue" d="M308.31,-56.08C308.31,-49.01 308.31,-38.86 308.31,-29.99"/>
<polygon fill="midnightblue" stroke="midnightblue" points="311.81,-29.75 308.31,-19.75 304.81,-29.75 311.81,-29.75"/>
</g>
<!-- Node8&#45;&gt;Node6 -->
<g id="edge10" class="edge">
<title>Node8&#45;&gt;Node6</title>
<path fill="none" stroke="midnightblue" d="M294.33,-56.32C280.76,-47.9 259.93,-34.97 243.98,-25.07"/>
<polygon fill="midnightblue" stroke="midnightblue" points="245.59,-21.95 235.25,-19.65 241.9,-27.9 245.59,-21.95"/>
</g>
<!-- Node8&#45;&gt;Node7 -->
<g id="edge12" class="edge">
<title>Node8&#45;&gt;Node7</title>
<path fill="none" stroke="midnightblue" d="M329.55,-57.03C353.38,-48.1 392.31,-33.5 419.93,-23.14"/>
<polygon fill="midnightblue" stroke="midnightblue" points="421.41,-26.32 429.54,-19.54 418.95,-19.77 421.41,-26.32"/>
</g>
<!-- Node9&#45;&gt;Node2 -->
<g id="edge15" class="edge">
<title>Node9&#45;&gt;Node2</title>
<path fill="none" stroke="midnightblue" d="M82.62,-117.95C75.22,-108.21 63.3,-91.62 55.31,-76 47.6,-60.94 41.12,-42.81 36.84,-29.53"/>
<polygon fill="midnightblue" stroke="midnightblue" points="40.09,-28.2 33.79,-19.69 33.41,-30.28 40.09,-28.2"/>
</g>
<!-- Node9&#45;&gt;Node4 -->
<g id="edge16" class="edge">
<title>Node9&#45;&gt;Node4</title>
<path fill="none" stroke="midnightblue" d="M92.08,-117.61C97.25,-102.53 109.84,-72.02 131.31,-56 152.82,-39.94 223.3,-25.44 268.56,-17.46"/>
<polygon fill="midnightblue" stroke="midnightblue" points="269.39,-20.87 278.65,-15.72 268.2,-13.97 269.39,-20.87"/>
</g>
<!-- Node9&#45;&gt;Node6 -->
<g id="edge14" class="edge">
<title>Node9&#45;&gt;Node6</title>
<path fill="none" stroke="midnightblue" d="M86.97,-117.66C83.7,-103.18 79.6,-74.23 93.31,-56 115.15,-26.95 157.17,-16.57 187.1,-12.91"/>
<polygon fill="midnightblue" stroke="midnightblue" points="187.54,-16.38 197.13,-11.87 186.82,-9.42 187.54,-16.38"/>
</g>
<!-- Node9&#45;&gt;Node7 -->
<g id="edge17" class="edge">
<title>Node9&#45;&gt;Node7</title>
<path fill="none" stroke="midnightblue" d="M110.04,-117.96C144.56,-103.92 216.18,-75.56 278.31,-56 320.56,-42.69 369.47,-30.31 404.65,-21.91"/>
<polygon fill="midnightblue" stroke="midnightblue" points="405.73,-25.25 414.65,-19.54 404.11,-18.44 405.73,-25.25"/>
</g>
<!-- Node9&#45;&gt;Node8 -->
<g id="edge18" class="edge">
<title>Node9&#45;&gt;Node8</title>
<path fill="none" stroke="midnightblue" d="M120.68,-117.98C162.44,-106.63 235.83,-86.69 277.37,-75.41"/>
<polygon fill="midnightblue" stroke="midnightblue" points="278.47,-78.73 287.2,-72.73 276.64,-71.98 278.47,-78.73"/>
</g>
<!-- Node10&#45;&gt;Node4 -->
<g id="edge20" class="edge">
<title>Node10&#45;&gt;Node4</title>
<path fill="none" stroke="midnightblue" d="M378.67,-117.8C370.02,-104.47 352.95,-78.2 338.31,-56 332.22,-46.77 325.39,-36.52 319.79,-28.13"/>
<polygon fill="midnightblue" stroke="midnightblue" points="322.55,-25.97 314.08,-19.61 316.74,-29.87 322.55,-25.97"/>
</g>
<!-- Node10&#45;&gt;Node7 -->
<g id="edge21" class="edge">
<title>Node10&#45;&gt;Node7</title>
<path fill="none" stroke="midnightblue" d="M401.54,-117.93C416.47,-109.49 437.23,-95.09 447.31,-76 454.82,-61.77 455.53,-43.3 454.68,-29.68"/>
<polygon fill="midnightblue" stroke="midnightblue" points="458.15,-29.21 453.71,-19.59 451.18,-29.88 458.15,-29.21"/>
</g>
<!-- Node10&#45;&gt;Node8 -->
<g id="edge22" class="edge">
<title>Node10&#45;&gt;Node8</title>
<path fill="none" stroke="midnightblue" d="M373.42,-117.98C361.34,-108.52 341.64,-93.1 327.07,-81.69"/>
<polygon fill="midnightblue" stroke="midnightblue" points="329.21,-78.92 319.18,-75.51 324.89,-84.43 329.21,-78.92"/>
</g>
<!-- Node11&#45;&gt;Node4 -->
<g id="edge24" class="edge">
<title>Node11&#45;&gt;Node4</title>
<path fill="none" stroke="midnightblue" d="M489.05,-112.34C449.13,-89.96 371.98,-46.7 332.65,-24.65"/>
<polygon fill="midnightblue" stroke="midnightblue" points="333.94,-21.36 323.51,-19.52 330.52,-27.47 333.94,-21.36"/>
</g>
<!-- Node11&#45;&gt;Node7 -->
<g id="edge25" class="edge">
<title>Node11&#45;&gt;Node7</title>
<path fill="none" stroke="midnightblue" d="M509.6,-112.26C504.52,-97.67 495.74,-74.58 485.31,-56 479.73,-46.07 472.33,-35.78 465.94,-27.55"/>
<polygon fill="midnightblue" stroke="midnightblue" points="468.52,-25.17 459.55,-19.54 463.05,-29.54 468.52,-25.17"/>
</g>
<!-- Node11&#45;&gt;Node8 -->
<g id="edge27" class="edge">
<title>Node11&#45;&gt;Node8</title>
<path fill="none" stroke="midnightblue" d="M465.75,-112.47C426.51,-101.14 372.48,-85.53 339,-75.87"/>
<polygon fill="midnightblue" stroke="midnightblue" points="339.89,-72.48 329.31,-73.07 337.95,-79.21 339.89,-72.48"/>
</g>
<!-- Node12 -->
<g id="node12" class="node">
<title>Node12</title>
<g id="a_node12"><a xlink:title=" ">
<polygon fill="none" stroke="#bfbfbf" points="537.81,-56.5 537.81,-75.5 580.81,-75.5 580.81,-56.5 537.81,-56.5"/>
<text text-anchor="middle" x="559.31" y="-63.5" font-family="Helvetica,sans-Serif" font-size="10.00">time.h</text>
</a>
</g>
</g>
<!-- Node11&#45;&gt;Node12 -->
<g id="edge26" class="edge">
<title>Node11&#45;&gt;Node12</title>
<path fill="none" stroke="midnightblue" d="M524.97,-112.4C531.44,-103.84 539.74,-92.87 546.56,-83.86"/>
<polygon fill="midnightblue" stroke="midnightblue" points="549.52,-85.74 552.76,-75.66 543.94,-81.52 549.52,-85.74"/>
</g>
<!-- Node13&#45;&gt;Node4 -->
<g id="edge29" class="edge">
<title>Node13&#45;&gt;Node4</title>
<path fill="none" stroke="midnightblue" d="M636,-117.86C629.66,-102.6 614.29,-71.06 590.31,-56 570.1,-43.31 420.78,-24.25 347.99,-15.59"/>
<polygon fill="midnightblue" stroke="midnightblue" points="348.17,-12.08 337.83,-14.38 347.35,-19.03 348.17,-12.08"/>
</g>
<!-- Node13&#45;&gt;Node7 -->
<g id="edge30" class="edge">
<title>Node13&#45;&gt;Node7</title>
<path fill="none" stroke="midnightblue" d="M639.99,-117.81C640.65,-103.03 639.7,-72.97 623.31,-56 592.59,-24.22 542.35,-13.95 504.25,-11.05"/>
<polygon fill="midnightblue" stroke="midnightblue" points="504.04,-7.53 493.85,-10.42 503.62,-14.52 504.04,-7.53"/>
</g>
<!-- Node13&#45;&gt;Node8 -->
<g id="edge33" class="edge">
<title>Node13&#45;&gt;Node8</title>
<path fill="none" stroke="midnightblue" d="M601.1,-117.93C591.7,-115.9 581.65,-113.81 572.31,-112 488.53,-95.8 389.18,-79.7 339.65,-71.88"/>
<polygon fill="midnightblue" stroke="midnightblue" points="340,-68.39 329.58,-70.3 338.92,-75.31 340,-68.39"/>
</g>
<!-- Node13&#45;&gt;Node12 -->
<g id="edge32" class="edge">
<title>Node13&#45;&gt;Node12</title>
<path fill="none" stroke="midnightblue" d="M627.84,-117.98C615.13,-108.52 594.39,-93.1 579.05,-81.69"/>
<polygon fill="midnightblue" stroke="midnightblue" points="580.86,-78.67 570.75,-75.51 576.68,-84.29 580.86,-78.67"/>
</g>
<!-- Node14 -->
<g id="node14" class="node">
<title>Node14</title>
<g id="a_node14"><a xlink:title=" ">
<polygon fill="none" stroke="#bfbfbf" points="675.31,-56.5 675.31,-75.5 721.31,-75.5 721.31,-56.5 675.31,-56.5"/>
<text text-anchor="middle" x="698.31" y="-63.5" font-family="Helvetica,sans-Serif" font-size="10.00">math.h</text>
</a>
</g>
</g>
<!-- Node13&#45;&gt;Node14 -->
<g id="edge31" class="edge">
<title>Node13&#45;&gt;Node14</title>
<path fill="none" stroke="midnightblue" d="M647.76,-117.98C656.87,-108.78 671.58,-93.96 682.78,-82.66"/>
<polygon fill="midnightblue" stroke="midnightblue" points="685.31,-85.07 689.87,-75.51 680.34,-80.15 685.31,-85.07"/>
</g>
</g>
</svg>
