<?xml version="1.0" encoding="UTF-8" standalone="no"?>
<!DOCTYPE svg PUBLIC "-//W3C//DTD SVG 1.1//EN"
 "http://www.w3.org/Graphics/SVG/1.1/DTD/svg11.dtd">
<!-- Generated by graphviz version 2.43.0 (0)
 -->
<!-- Title: src/main.c Pages: 1 -->
<svg width="3204pt" height="544pt"
 viewBox="0.00 0.00 3204.00 544.00" xmlns="http://www.w3.org/2000/svg" xmlns:xlink="http://www.w3.org/1999/xlink">
<g id="graph0" class="graph" transform="scale(1 1) rotate(0) translate(4 540)">
<title>src/main.c</title>
<!-- Node1 -->
<g id="node1" class="node">
<title>Node1</title>
<g id="a_node1"><a xlink:title=" ">
<polygon fill="#999999" stroke="#666666" points="990.5,-536 923.5,-536 923.5,-517 990.5,-517 990.5,-536"/>
<text text-anchor="middle" x="957" y="-524" font-family="Helvetica,sans-Serif" font-size="10.00">src/main.c</text>
</a>
</g>
</g>
<!-- Node2 -->
<g id="node2" class="node">
<title>Node2</title>
<g id="a_node2"><a xlink:href="main_8h.html" target="_top" xlink:title=" ">
<polygon fill="white" stroke="#666666" points="982,-481 932,-481 932,-462 982,-462 982,-481"/>
<text text-anchor="middle" x="957" y="-469" font-family="Helvetica,sans-Serif" font-size="10.00">main.h</text>
</a>
</g>
</g>
<!-- Node1&#45;&gt;Node2 -->
<g id="edge1" class="edge">
<title>Node1&#45;&gt;Node2</title>
<path fill="none" stroke="#63b8ff" d="M957,-516.75C957,-509.8 957,-499.85 957,-491.13"/>
<polygon fill="#63b8ff" stroke="#63b8ff" points="960.5,-491.09 957,-481.09 953.5,-491.09 960.5,-491.09"/>
</g>
<!-- Node3 -->
<g id="node3" class="node">
<title>Node3</title>
<g id="a_node3"><a xlink:title=" ">
<polygon fill="#e0e0e0" stroke="#999999" points="839.5,-74 786.5,-74 786.5,-55 839.5,-55 839.5,-74"/>
<text text-anchor="middle" x="813" y="-62" font-family="Helvetica,sans-Serif" font-size="10.00">stdlib.h</text>
</a>
</g>
</g>
<!-- Node2&#45;&gt;Node3 -->
<g id="edge2" class="edge">
<title>Node2&#45;&gt;Node3</title>
<path fill="none" stroke="#63b8ff" d="M931.94,-470.53C867.8,-470.01 692.97,-464.84 554,-426 414.25,-386.94 340.79,-381.3 279,-250 273.32,-237.94 270.99,-230.66 279,-220 340.44,-138.26 666.08,-85.98 776.41,-70.4"/>
<polygon fill="#63b8ff" stroke="#63b8ff" points="776.98,-73.85 786.4,-69 776.01,-66.92 776.98,-73.85"/>
</g>
<!-- Node4 -->
<g id="node4" class="node">
<title>Node4</title>
<g id="a_node4"><a xlink:title=" ">
<polygon fill="#e0e0e0" stroke="#999999" points="667,-19 617,-19 617,0 667,0 667,-19"/>
<text text-anchor="middle" x="642" y="-7" font-family="Helvetica,sans-Serif" font-size="10.00">stdio.h</text>
</a>
</g>
</g>
<!-- Node2&#45;&gt;Node4 -->
<g id="edge3" class="edge">
<title>Node2&#45;&gt;Node4</title>
<path fill="none" stroke="#63b8ff" d="M931.8,-470.65C792.9,-471.33 124.15,-472.13 46,-426 12.49,-406.22 0,-390.41 0,-351.5 0,-351.5 0,-351.5 0,-118.5 0,-56.46 472.21,-21.4 606.67,-12.67"/>
<polygon fill="#63b8ff" stroke="#63b8ff" points="607.08,-16.15 616.83,-12.02 606.63,-9.17 607.08,-16.15"/>
</g>
<!-- Node5 -->
<g id="node5" class="node">
<title>Node5</title>
<g id="a_node5"><a xlink:title=" ">
<polygon fill="#e0e0e0" stroke="#999999" points="2088.5,-74 2023.5,-74 2023.5,-55 2088.5,-55 2088.5,-74"/>
<text text-anchor="middle" x="2056" y="-62" font-family="Helvetica,sans-Serif" font-size="10.00">curl/curl.h</text>
</a>
</g>
</g>
<!-- Node2&#45;&gt;Node5 -->
<g id="edge4" class="edge">
<title>Node2&#45;&gt;Node5</title>
<path fill="none" stroke="#63b8ff" d="M982.32,-470.64C1189.04,-471.73 2593.52,-477.2 2665,-426 2743.05,-370.1 2786.28,-297.78 2730,-220 2654.82,-116.08 2235.55,-78 2099,-68.25"/>
<polygon fill="#63b8ff" stroke="#63b8ff" points="2099.13,-64.75 2088.91,-67.55 2098.64,-71.73 2099.13,-64.75"/>
</g>
<!-- Node6 -->
<g id="node6" class="node">
<title>Node6</title>
<g id="a_node6"><a xlink:title=" ">
<polygon fill="#e0e0e0" stroke="#999999" points="297,-420.5 241,-420.5 241,-401.5 297,-401.5 297,-420.5"/>
<text text-anchor="middle" x="269" y="-408.5" font-family="Helvetica,sans-Serif" font-size="10.00">assert.h</text>
</a>
</g>
</g>
<!-- Node2&#45;&gt;Node6 -->
<g id="edge5" class="edge">
<title>Node2&#45;&gt;Node6</title>
<path fill="none" stroke="#63b8ff" d="M931.75,-469.76C827.29,-466.56 428.71,-452.8 306,-426 303.32,-425.42 300.58,-424.67 297.87,-423.84"/>
<polygon fill="#63b8ff" stroke="#63b8ff" points="298.86,-420.48 288.26,-420.51 296.56,-427.09 298.86,-420.48"/>
</g>
<!-- Node7 -->
<g id="node7" class="node">
<title>Node7</title>
<g id="a_node7"><a xlink:title=" ">
<polygon fill="#e0e0e0" stroke="#999999" points="371,-420.5 315,-420.5 315,-401.5 371,-401.5 371,-420.5"/>
<text text-anchor="middle" x="343" y="-408.5" font-family="Helvetica,sans-Serif" font-size="10.00">unistd.h</text>
</a>
</g>
</g>
<!-- Node2&#45;&gt;Node7 -->
<g id="edge6" class="edge">
<title>Node2&#45;&gt;Node7</title>
<path fill="none" stroke="#63b8ff" d="M931.89,-470.72C851.44,-470.95 593.19,-468.14 385,-426 381.76,-425.34 378.42,-424.51 375.12,-423.59"/>
<polygon fill="#63b8ff" stroke="#63b8ff" points="375.98,-420.19 365.39,-420.59 373.92,-426.88 375.98,-420.19"/>
</g>
<!-- Node8 -->
<g id="node8" class="node">
<title>Node8</title>
<g id="a_node8"><a xlink:title=" ">
<polygon fill="#e0e0e0" stroke="#999999" points="391.5,-74 328.5,-74 328.5,-55 391.5,-55 391.5,-74"/>
<text text-anchor="middle" x="360" y="-62" font-family="Helvetica,sans-Serif" font-size="10.00">libpq&#45;fe.h</text>
</a>
</g>
</g>
<!-- Node2&#45;&gt;Node8 -->
<g id="edge7" class="edge">
<title>Node2&#45;&gt;Node8</title>
<path fill="none" stroke="#63b8ff" d="M931.95,-470.2C791.05,-468.41 102.45,-458.02 72,-426 -29.89,-318.86 54.12,-193.7 176,-110 187.72,-101.95 267.7,-84.44 318.28,-73.95"/>
<polygon fill="#63b8ff" stroke="#63b8ff" points="319.2,-77.33 328.28,-71.88 317.78,-70.48 319.2,-77.33"/>
</g>
<!-- Node9 -->
<g id="node9" class="node">
<title>Node9</title>
<g id="a_node9"><a xlink:href="log_8h.html" target="_top" xlink:title=" ">
<polygon fill="white" stroke="#666666" points="2864.5,-74 2823.5,-74 2823.5,-55 2864.5,-55 2864.5,-74"/>
<text text-anchor="middle" x="2844" y="-62" font-family="Helvetica,sans-Serif" font-size="10.00">log.h</text>
</a>
</g>
</g>
<!-- Node2&#45;&gt;Node9 -->
<g id="edge8" class="edge">
<title>Node2&#45;&gt;Node9</title>
<path fill="none" stroke="#63b8ff" d="M982.08,-470.52C1182.63,-470.61 2522.64,-469.59 2696,-426 2889.82,-377.27 3032.69,-379.32 3075,-184 3082.32,-150.21 3077.76,-131.89 3051,-110 3024.3,-88.17 2925.52,-74.43 2874.68,-68.65"/>
<polygon fill="#63b8ff" stroke="#63b8ff" points="2874.92,-65.16 2864.6,-67.54 2874.15,-72.12 2874.92,-65.16"/>
</g>
<!-- Node13 -->
<g id="node13" class="node">
<title>Node13</title>
<g id="a_node13"><a xlink:href="historical__weather_8h.html" target="_top" xlink:title=" ">
<polygon fill="white" stroke="#666666" points="222.5,-420.5 81.5,-420.5 81.5,-401.5 222.5,-401.5 222.5,-420.5"/>
<text text-anchor="middle" x="152" y="-408.5" font-family="Helvetica,sans-Serif" font-size="10.00">BOM/historical_weather.h</text>
</a>
</g>
</g>
<!-- Node2&#45;&gt;Node13 -->
<g id="edge13" class="edge">
<title>Node2&#45;&gt;Node13</title>
<path fill="none" stroke="#63b8ff" d="M931.87,-469.98C838.79,-467.82 505.02,-458.17 232,-426 223.35,-424.98 214.22,-423.64 205.34,-422.19"/>
<polygon fill="#63b8ff" stroke="#63b8ff" points="205.91,-418.74 195.47,-420.52 204.74,-425.64 205.91,-418.74"/>
</g>
<!-- Node16 -->
<g id="node16" class="node">
<title>Node16</title>
<g id="a_node16"><a xlink:href="transform_8h.html" target="_top" xlink:title=" ">
<polygon fill="white" stroke="#666666" points="774,-360 700,-360 700,-341 774,-341 774,-360"/>
<text text-anchor="middle" x="737" y="-348" font-family="Helvetica,sans-Serif" font-size="10.00">transform.h</text>
</a>
</g>
</g>
<!-- Node2&#45;&gt;Node16 -->
<g id="edge146" class="edge">
<title>Node2&#45;&gt;Node16</title>
<path fill="none" stroke="#63b8ff" d="M941.18,-461.94C903.37,-441.49 807.56,-389.67 761.91,-364.98"/>
<polygon fill="#63b8ff" stroke="#63b8ff" points="763.44,-361.82 752.97,-360.14 760.1,-367.98 763.44,-361.82"/>
</g>
<!-- Node17 -->
<g id="node17" class="node">
<title>Node17</title>
<g id="a_node17"><a xlink:href="stations_8h.html" target="_top" xlink:title=" ">
<polygon fill="white" stroke="#666666" points="499.5,-305 408.5,-305 408.5,-286 499.5,-286 499.5,-305"/>
<text text-anchor="middle" x="454" y="-293" font-family="Helvetica,sans-Serif" font-size="10.00">BOM/stations.h</text>
</a>
</g>
</g>
<!-- Node2&#45;&gt;Node17 -->
<g id="edge77" class="edge">
<title>Node2&#45;&gt;Node17</title>
<path fill="none" stroke="#63b8ff" d="M931.87,-463.28C874.27,-446.58 728.47,-403.36 609,-360 564.35,-343.8 513.59,-322.42 482.68,-309.07"/>
<polygon fill="#63b8ff" stroke="#63b8ff" points="483.94,-305.8 473.38,-305.03 481.16,-312.22 483.94,-305.8"/>
</g>
<!-- Node19 -->
<g id="node19" class="node">
<title>Node19</title>
<g id="a_node19"><a xlink:href="ftp_8h.html" target="_top" xlink:title=" ">
<polygon fill="white" stroke="#666666" points="860,-184 822,-184 822,-165 860,-165 860,-184"/>
<text text-anchor="middle" x="841" y="-172" font-family="Helvetica,sans-Serif" font-size="10.00">ftp.h</text>
</a>
</g>
</g>
<!-- Node2&#45;&gt;Node19 -->
<g id="edge148" class="edge">
<title>Node2&#45;&gt;Node19</title>
<path fill="none" stroke="#63b8ff" d="M931.81,-467.46C887.3,-461.73 792.04,-447.93 714,-426 545.23,-378.58 413.19,-417.36 361,-250 357.03,-237.27 352.02,-229.85 361,-220 391.43,-186.62 711.95,-177.89 811.61,-175.98"/>
<polygon fill="#63b8ff" stroke="#63b8ff" points="811.92,-179.47 821.85,-175.79 811.79,-172.47 811.92,-179.47"/>
</g>
<!-- Node26 -->
<g id="node26" class="node">
<title>Node26</title>
<g id="a_node26"><a xlink:href="harvest__area_8h.html" target="_top" xlink:title=" ">
<polygon fill="white" stroke="#666666" points="2445.5,-250 2320.5,-250 2320.5,-220 2445.5,-220 2445.5,-250"/>
<text text-anchor="start" x="2328.5" y="-238" font-family="Helvetica,sans-Serif" font-size="10.00">FoodAuthority/harvest</text>
<text text-anchor="middle" x="2383" y="-227" font-family="Helvetica,sans-Serif" font-size="10.00">_area.h</text>
</a>
</g>
</g>
<!-- Node2&#45;&gt;Node26 -->
<g id="edge133" class="edge">
<title>Node2&#45;&gt;Node26</title>
<path fill="none" stroke="#63b8ff" d="M982.29,-470.31C1188.64,-468.7 2589.16,-456.65 2619,-426 2688.5,-354.62 2525.98,-284.86 2436.72,-253.39"/>
<polygon fill="#63b8ff" stroke="#63b8ff" points="2437.6,-249.99 2427,-250.02 2435.3,-256.61 2437.6,-249.99"/>
</g>
<!-- Node27 -->
<g id="node27" class="node">
<title>Node27</title>
<g id="a_node27"><a xlink:href="http_8h.html" target="_top" xlink:title=" ">
<polygon fill="white" stroke="#666666" points="1329.5,-184 1284.5,-184 1284.5,-165 1329.5,-165 1329.5,-184"/>
<text text-anchor="middle" x="1307" y="-172" font-family="Helvetica,sans-Serif" font-size="10.00">http.h</text>
</a>
</g>
</g>
<!-- Node2&#45;&gt;Node27 -->
<g id="edge147" class="edge">
<title>Node2&#45;&gt;Node27</title>
<path fill="none" stroke="#63b8ff" d="M965.35,-461.8C1005.67,-419.86 1179.36,-239.74 1208,-220 1228.67,-205.76 1254.63,-194.29 1274.78,-186.56"/>
<polygon fill="#63b8ff" stroke="#63b8ff" points="1276.01,-189.84 1284.16,-183.07 1273.57,-183.28 1276.01,-189.84"/>
</g>
<!-- Node29 -->
<g id="node29" class="node">
<title>Node29</title>
<g id="a_node29"><a xlink:href="_willy_weather_2authenticate_8h.html" target="_top" xlink:title=" ">
<polygon fill="white" stroke="#666666" points="1959.5,-244.5 1804.5,-244.5 1804.5,-225.5 1959.5,-225.5 1959.5,-244.5"/>
<text text-anchor="middle" x="1882" y="-232.5" font-family="Helvetica,sans-Serif" font-size="10.00">WillyWeather/authenticate.h</text>
</a>
</g>
</g>
<!-- Node2&#45;&gt;Node29 -->
<g id="edge92" class="edge">
<title>Node2&#45;&gt;Node29</title>
<path fill="none" stroke="#63b8ff" d="M982.26,-469.36C1103.25,-463.53 1623.6,-434.48 1765,-360 1813.49,-334.46 1853.05,-280.99 1871.22,-253.36"/>
<polygon fill="#63b8ff" stroke="#63b8ff" points="1874.29,-255.06 1876.74,-244.75 1868.4,-251.28 1874.29,-255.06"/>
</g>
<!-- Node30 -->
<g id="node30" class="node">
<title>Node30</title>
<g id="a_node30"><a xlink:href="devices_8h.html" target="_top" xlink:title=" ">
<polygon fill="white" stroke="#666666" points="2074,-305 1970,-305 1970,-286 2074,-286 2074,-305"/>
<text text-anchor="middle" x="2022" y="-293" font-family="Helvetica,sans-Serif" font-size="10.00">Ubidots/devices.h</text>
</a>
</g>
</g>
<!-- Node2&#45;&gt;Node30 -->
<g id="edge78" class="edge">
<title>Node2&#45;&gt;Node30</title>
<path fill="none" stroke="#63b8ff" d="M982.32,-470.29C1121.88,-469.02 1794.12,-461.09 1879,-426 1937.37,-401.86 1987.35,-343.01 2009.62,-313.69"/>
<polygon fill="#63b8ff" stroke="#63b8ff" points="2012.7,-315.4 2015.85,-305.29 2007.08,-311.23 2012.7,-315.4"/>
</g>
<!-- Node32 -->
<g id="node32" class="node">
<title>Node32</title>
<g id="a_node32"><a xlink:href="tide_8h.html" target="_top" xlink:title=" ">
<polygon fill="white" stroke="#666666" points="1756.5,-360 1643.5,-360 1643.5,-341 1756.5,-341 1756.5,-360"/>
<text text-anchor="middle" x="1700" y="-348" font-family="Helvetica,sans-Serif" font-size="10.00">WillyWeather/tide.h</text>
</a>
</g>
</g>
<!-- Node2&#45;&gt;Node32 -->
<g id="edge93" class="edge">
<title>Node2&#45;&gt;Node32</title>
<path fill="none" stroke="#63b8ff" d="M982.15,-466.47C1085.77,-449.88 1481.51,-386.49 1636.87,-361.61"/>
<polygon fill="#63b8ff" stroke="#63b8ff" points="1637.42,-365.07 1646.75,-360.03 1636.32,-358.15 1637.42,-365.07"/>
</g>
<!-- Node34 -->
<g id="node34" class="node">
<title>Node34</title>
<g id="a_node34"><a xlink:href="precipitation_8h.html" target="_top" xlink:title=" ">
<polygon fill="white" stroke="#666666" points="947.5,-360 792.5,-360 792.5,-341 947.5,-341 947.5,-360"/>
<text text-anchor="middle" x="870" y="-348" font-family="Helvetica,sans-Serif" font-size="10.00">WillyWeather/precipitation.h</text>
</a>
</g>
</g>
<!-- Node2&#45;&gt;Node34 -->
<g id="edge106" class="edge">
<title>Node2&#45;&gt;Node34</title>
<path fill="none" stroke="#63b8ff" d="M950.74,-461.94C936.45,-442.4 901.21,-394.18 882.36,-368.4"/>
<polygon fill="#63b8ff" stroke="#63b8ff" points="885.16,-366.31 876.43,-360.3 879.51,-370.44 885.16,-366.31"/>
</g>
<!-- Node35 -->
<g id="node35" class="node">
<title>Node35</title>
<g id="a_node35"><a xlink:href="_i_b_m___e_i_s_2authenticate_8h.html" target="_top" xlink:title=" ">
<polygon fill="white" stroke="#666666" points="2720.5,-244.5 2591.5,-244.5 2591.5,-225.5 2720.5,-225.5 2720.5,-244.5"/>
<text text-anchor="middle" x="2656" y="-232.5" font-family="Helvetica,sans-Serif" font-size="10.00">IBM_EIS/authenticate.h</text>
</a>
</g>
</g>
<!-- Node2&#45;&gt;Node35 -->
<g id="edge115" class="edge">
<title>Node2&#45;&gt;Node35</title>
<path fill="none" stroke="#63b8ff" d="M982.27,-470.3C1190.04,-468.59 2609.54,-455.85 2641,-426 2688.19,-381.22 2671.75,-293.17 2661.57,-254.71"/>
<polygon fill="#63b8ff" stroke="#63b8ff" points="2664.88,-253.55 2658.81,-244.86 2658.14,-255.44 2664.88,-253.55"/>
</g>
<!-- Node36 -->
<g id="node36" class="node">
<title>Node36</title>
<g id="a_node36"><a xlink:href="timeseries_8h.html" target="_top" xlink:title=" ">
<polygon fill="white" stroke="#666666" points="2609.5,-420.5 2490.5,-420.5 2490.5,-401.5 2609.5,-401.5 2609.5,-420.5"/>
<text text-anchor="middle" x="2550" y="-408.5" font-family="Helvetica,sans-Serif" font-size="10.00">IBM_EIS/timeseries.h</text>
</a>
</g>
</g>
<!-- Node2&#45;&gt;Node36 -->
<g id="edge122" class="edge">
<title>Node2&#45;&gt;Node36</title>
<path fill="none" stroke="#63b8ff" d="M982.09,-470.03C1119.38,-467.39 1793.58,-453.52 2344,-426 2389.29,-423.74 2440.11,-420.29 2479.95,-417.39"/>
<polygon fill="#63b8ff" stroke="#63b8ff" points="2480.37,-420.86 2490.09,-416.64 2479.86,-413.88 2480.37,-420.86"/>
</g>
<!-- Node37 -->
<g id="node37" class="node">
<title>Node37</title>
<g id="a_node37"><a xlink:href="harvest__areas_8h.html" target="_top" xlink:title=" ">
<polygon fill="white" stroke="#666666" points="1179.5,-426 1054.5,-426 1054.5,-396 1179.5,-396 1179.5,-426"/>
<text text-anchor="start" x="1062.5" y="-414" font-family="Helvetica,sans-Serif" font-size="10.00">FoodAuthority/harvest</text>
<text text-anchor="middle" x="1117" y="-403" font-family="Helvetica,sans-Serif" font-size="10.00">_areas.h</text>
</a>
</g>
</g>
<!-- Node2&#45;&gt;Node37 -->
<g id="edge134" class="edge">
<title>Node2&#45;&gt;Node37</title>
<path fill="none" stroke="#63b8ff" d="M980.27,-461.99C1003.39,-453.54 1039.55,-440.32 1068.88,-429.59"/>
<polygon fill="#63b8ff" stroke="#63b8ff" points="1070.34,-432.79 1078.53,-426.06 1067.94,-426.21 1070.34,-432.79"/>
</g>
<!-- Node9&#45;&gt;Node4 -->
<g id="edge9" class="edge">
<title>Node9&#45;&gt;Node4</title>
<path fill="none" stroke="#63b8ff" d="M2823.26,-63C2617.41,-58.05 942.85,-17.74 677.39,-11.35"/>
<polygon fill="#63b8ff" stroke="#63b8ff" points="677.26,-7.85 667.17,-11.11 677.09,-14.85 677.26,-7.85"/>
</g>
<!-- Node10 -->
<g id="node10" class="node">
<title>Node10</title>
<g id="a_node10"><a xlink:title=" ">
<polygon fill="#e0e0e0" stroke="#999999" points="2812,-19 2756,-19 2756,0 2812,0 2812,-19"/>
<text text-anchor="middle" x="2784" y="-7" font-family="Helvetica,sans-Serif" font-size="10.00">stdarg.h</text>
</a>
</g>
</g>
<!-- Node9&#45;&gt;Node10 -->
<g id="edge10" class="edge">
<title>Node9&#45;&gt;Node10</title>
<path fill="none" stroke="#63b8ff" d="M2834.36,-54.98C2825.49,-47.15 2812.13,-35.34 2801.39,-25.86"/>
<polygon fill="#63b8ff" stroke="#63b8ff" points="2803.63,-23.17 2793.82,-19.17 2798.99,-28.41 2803.63,-23.17"/>
</g>
<!-- Node11 -->
<g id="node11" class="node">
<title>Node11</title>
<g id="a_node11"><a xlink:title=" ">
<polygon fill="#e0e0e0" stroke="#999999" points="2892,-19 2830,-19 2830,0 2892,0 2892,-19"/>
<text text-anchor="middle" x="2861" y="-7" font-family="Helvetica,sans-Serif" font-size="10.00">stdbool.h</text>
</a>
</g>
</g>
<!-- Node9&#45;&gt;Node11 -->
<g id="edge11" class="edge">
<title>Node9&#45;&gt;Node11</title>
<path fill="none" stroke="#63b8ff" d="M2846.81,-54.75C2849.06,-47.72 2852.3,-37.62 2855.12,-28.84"/>
<polygon fill="#63b8ff" stroke="#63b8ff" points="2858.52,-29.68 2858.25,-19.09 2851.86,-27.54 2858.52,-29.68"/>
</g>
<!-- Node12 -->
<g id="node12" class="node">
<title>Node12</title>
<g id="a_node12"><a xlink:title=" ">
<polygon fill="#e0e0e0" stroke="#999999" points="2736,-19 2688,-19 2688,0 2736,0 2736,-19"/>
<text text-anchor="middle" x="2712" y="-7" font-family="Helvetica,sans-Serif" font-size="10.00">time.h</text>
</a>
</g>
</g>
<!-- Node9&#45;&gt;Node12 -->
<g id="edge12" class="edge">
<title>Node9&#45;&gt;Node12</title>
<path fill="none" stroke="#63b8ff" d="M2823.38,-55.22C2801.74,-46.53 2767.49,-32.78 2742.68,-22.82"/>
<polygon fill="#63b8ff" stroke="#63b8ff" points="2743.94,-19.55 2733.35,-19.07 2741.33,-26.05 2743.94,-19.55"/>
</g>
<!-- Node13&#45;&gt;Node5 -->
<g id="edge15" class="edge">
<title>Node13&#45;&gt;Node5</title>
<path fill="none" stroke="#63b8ff" d="M193.77,-401.47C206.04,-399.3 219.51,-397.23 232,-396 910.23,-329.07 1086.39,-422.88 1765,-360 1916.55,-345.96 1998.25,-415.42 2103,-305 2162.77,-241.99 2096.71,-126.36 2067.99,-82.75"/>
<polygon fill="#63b8ff" stroke="#63b8ff" points="2070.83,-80.7 2062.33,-74.36 2065.02,-84.61 2070.83,-80.7"/>
</g>
<!-- Node13&#45;&gt;Node8 -->
<g id="edge17" class="edge">
<title>Node13&#45;&gt;Node8</title>
<path fill="none" stroke="#63b8ff" d="M152,-401.46C152,-382.55 152,-335.71 152,-296.5 152,-296.5 152,-296.5 152,-173.5 152,-134.06 180.3,-130.5 214,-110 231.64,-99.27 281.91,-85.11 318.55,-75.68"/>
<polygon fill="#63b8ff" stroke="#63b8ff" points="319.65,-79.01 328.48,-73.15 317.92,-72.22 319.65,-79.01"/>
</g>
<!-- Node13&#45;&gt;Node12 -->
<g id="edge14" class="edge">
<title>Node13&#45;&gt;Node12</title>
<path fill="none" stroke="#63b8ff" d="M148.25,-401.38C131.69,-361.77 69.29,-195.56 149,-110 190.16,-65.82 223.51,-95.31 280,-74 298.04,-67.19 300.25,-59.51 319,-55 438.85,-26.18 2393.06,-12.55 2677.56,-10.72"/>
<polygon fill="#63b8ff" stroke="#63b8ff" points="2677.72,-14.21 2687.7,-10.65 2677.68,-7.22 2677.72,-14.21"/>
</g>
<!-- Node14 -->
<g id="node14" class="node">
<title>Node14</title>
<g id="a_node14"><a xlink:title=" ">
<polygon fill="#e0e0e0" stroke="#999999" points="423.5,-244.5 370.5,-244.5 370.5,-225.5 423.5,-225.5 423.5,-244.5"/>
<text text-anchor="middle" x="397" y="-232.5" font-family="Helvetica,sans-Serif" font-size="10.00">ctype.h</text>
</a>
</g>
</g>
<!-- Node13&#45;&gt;Node14 -->
<g id="edge16" class="edge">
<title>Node13&#45;&gt;Node14</title>
<path fill="none" stroke="#63b8ff" d="M169.42,-401.42C187.93,-392.06 217.81,-376.23 242,-360 294.65,-324.68 351.67,-276.09 379.6,-251.54"/>
<polygon fill="#63b8ff" stroke="#63b8ff" points="382.12,-253.98 387.29,-244.73 377.48,-248.74 382.12,-253.98"/>
</g>
<!-- Node15 -->
<g id="node15" class="node">
<title>Node15</title>
<g id="a_node15"><a xlink:title=" ">
<polygon fill="#e0e0e0" stroke="#999999" points="271.5,-74 218.5,-74 218.5,-55 271.5,-55 271.5,-74"/>
<text text-anchor="middle" x="245" y="-62" font-family="Helvetica,sans-Serif" font-size="10.00">stdint.h</text>
</a>
</g>
</g>
<!-- Node13&#45;&gt;Node15 -->
<g id="edge18" class="edge">
<title>Node13&#45;&gt;Node15</title>
<path fill="none" stroke="#63b8ff" d="M140.65,-401.19C111.82,-377.73 38,-310.4 38,-236 38,-236 38,-236 38,-173.5 38,-143.33 39.4,-129.98 62,-110 102.79,-73.94 167.93,-65.96 208.5,-64.79"/>
<polygon fill="#63b8ff" stroke="#63b8ff" points="208.56,-68.29 218.5,-64.63 208.44,-61.29 208.56,-68.29"/>
</g>
<!-- Node13&#45;&gt;Node16 -->
<g id="edge19" class="edge">
<title>Node13&#45;&gt;Node16</title>
<path fill="none" stroke="#63b8ff" d="M196.75,-401.48C208.21,-399.48 220.54,-397.51 232,-396 399.67,-373.98 600.13,-359.95 689.71,-354.32"/>
<polygon fill="#63b8ff" stroke="#63b8ff" points="690.05,-357.8 699.82,-353.69 689.62,-350.81 690.05,-357.8"/>
</g>
<!-- Node13&#45;&gt;Node17 -->
<g id="edge75" class="edge">
<title>Node13&#45;&gt;Node17</title>
<path fill="none" stroke="#63b8ff" d="M193.74,-401.49C244.54,-390.84 327.13,-372.47 356,-360 385.72,-347.16 416.5,-325.63 435.45,-311.25"/>
<polygon fill="#63b8ff" stroke="#63b8ff" points="437.74,-313.9 443.51,-305.01 433.46,-308.36 437.74,-313.9"/>
</g>
<!-- Node13&#45;&gt;Node19 -->
<g id="edge76" class="edge">
<title>Node13&#45;&gt;Node19</title>
<path fill="none" stroke="#63b8ff" d="M156.91,-401.1C174.84,-369.59 240.36,-262.89 328,-220 371.53,-198.7 709.4,-181.55 811.73,-176.81"/>
<polygon fill="#63b8ff" stroke="#63b8ff" points="812.12,-180.3 821.95,-176.34 811.8,-173.3 812.12,-180.3"/>
</g>
<!-- Node16&#45;&gt;Node3 -->
<g id="edge22" class="edge">
<title>Node16&#45;&gt;Node3</title>
<path fill="none" stroke="#63b8ff" d="M733.74,-340.84C721.93,-307.9 684.42,-188.28 731,-110 740.97,-93.24 759.7,-82.41 776.74,-75.63"/>
<polygon fill="#63b8ff" stroke="#63b8ff" points="778.29,-78.79 786.5,-72.09 775.9,-72.21 778.29,-78.79"/>
</g>
<!-- Node16&#45;&gt;Node4 -->
<g id="edge21" class="edge">
<title>Node16&#45;&gt;Node4</title>
<path fill="none" stroke="#63b8ff" d="M699.99,-344.08C663.11,-337.8 605.44,-325.6 559,-305 496.91,-277.47 488.64,-257.49 432,-220 333.22,-154.61 265.33,-178.21 209,-74 204.98,-66.57 203.34,-61.27 209,-55 235.5,-25.64 508.28,-14.54 606.77,-11.47"/>
<polygon fill="#63b8ff" stroke="#63b8ff" points="606.94,-14.97 616.83,-11.16 606.73,-7.97 606.94,-14.97"/>
</g>
<!-- Node16&#45;&gt;Node8 -->
<g id="edge20" class="edge">
<title>Node16&#45;&gt;Node8</title>
<path fill="none" stroke="#63b8ff" d="M699.8,-343.68C668.71,-337.58 624.1,-325.9 590,-305 489.26,-243.26 402.4,-126.86 371.77,-82.9"/>
<polygon fill="#63b8ff" stroke="#63b8ff" points="374.5,-80.7 365.95,-74.45 368.73,-84.67 374.5,-80.7"/>
</g>
<!-- Node16&#45;&gt;Node9 -->
<g id="edge23" class="edge">
<title>Node16&#45;&gt;Node9</title>
<path fill="none" stroke="#63b8ff" d="M774.08,-342.13C777.09,-341.69 780.09,-341.3 783,-341 1388.33,-277.51 1544.28,-338.71 2152,-305 2296.52,-296.98 2670.96,-313.56 2801,-250 2859.36,-221.47 2871.22,-192.89 2883,-129 2884.53,-120.7 2885.97,-117.9 2883,-110 2878.82,-98.89 2870.48,-88.75 2862.57,-80.96"/>
<polygon fill="#63b8ff" stroke="#63b8ff" points="2864.72,-78.19 2854.99,-74.01 2859.99,-83.35 2864.72,-78.19"/>
</g>
<!-- Node16&#45;&gt;Node17 -->
<g id="edge24" class="edge">
<title>Node16&#45;&gt;Node17</title>
<path fill="none" stroke="#63b8ff" d="M699.71,-342.52C651.25,-333.44 566.18,-317.51 509.96,-306.98"/>
<polygon fill="#63b8ff" stroke="#63b8ff" points="510.29,-303.48 499.81,-305.08 509,-310.36 510.29,-303.48"/>
</g>
<!-- Node22 -->
<g id="node22" class="node">
<title>Node22</title>
<g id="a_node22"><a xlink:href="utils_8h.html" target="_top" xlink:title=" ">
<polygon fill="white" stroke="#666666" points="1177.5,-129 1130.5,-129 1130.5,-110 1177.5,-110 1177.5,-129"/>
<text text-anchor="middle" x="1154" y="-117" font-family="Helvetica,sans-Serif" font-size="10.00">utils.h</text>
</a>
</g>
</g>
<!-- Node16&#45;&gt;Node22 -->
<g id="edge74" class="edge">
<title>Node16&#45;&gt;Node22</title>
<path fill="none" stroke="#63b8ff" d="M744.73,-340.8C764.7,-318.68 820.26,-259.25 875,-220 917.17,-189.76 929.6,-183.72 978,-165 1026.02,-146.43 1084.43,-133.44 1120.41,-126.47"/>
<polygon fill="#63b8ff" stroke="#63b8ff" points="1121.2,-129.88 1130.38,-124.58 1119.9,-123 1121.2,-129.88"/>
</g>
<!-- Node16&#45;&gt;Node26 -->
<g id="edge45" class="edge">
<title>Node16&#45;&gt;Node26</title>
<path fill="none" stroke="#63b8ff" d="M774.09,-342.14C777.09,-341.7 780.09,-341.31 783,-341 1357.8,-280.3 1509.65,-378.14 2083,-305 2168.75,-294.06 2265.9,-269.4 2325.82,-252.72"/>
<polygon fill="#63b8ff" stroke="#63b8ff" points="2326.78,-256.09 2335.47,-250.02 2324.89,-249.35 2326.78,-256.09"/>
</g>
<!-- Node28 -->
<g id="node28" class="node">
<title>Node28</title>
<g id="a_node28"><a xlink:href="location_8h.html" target="_top" xlink:title=" ">
<polygon fill="white" stroke="#666666" points="1449.5,-305 1316.5,-305 1316.5,-286 1449.5,-286 1449.5,-305"/>
<text text-anchor="middle" x="1383" y="-293" font-family="Helvetica,sans-Serif" font-size="10.00">WillyWeather/location.h</text>
</a>
</g>
</g>
<!-- Node16&#45;&gt;Node28 -->
<g id="edge56" class="edge">
<title>Node16&#45;&gt;Node28</title>
<path fill="none" stroke="#63b8ff" d="M774.1,-342.29C777.11,-341.81 780.1,-341.37 783,-341 970.04,-316.86 1191.7,-304.63 1306.11,-299.53"/>
<polygon fill="#63b8ff" stroke="#63b8ff" points="1306.33,-303.02 1316.17,-299.08 1306.03,-296.03 1306.33,-303.02"/>
</g>
<!-- Node17&#45;&gt;Node14 -->
<g id="edge26" class="edge">
<title>Node17&#45;&gt;Node14</title>
<path fill="none" stroke="#63b8ff" d="M445.59,-285.87C436.92,-276.97 423.2,-262.89 412.54,-251.95"/>
<polygon fill="#63b8ff" stroke="#63b8ff" points="414.93,-249.39 405.45,-244.67 409.92,-254.27 414.93,-249.39"/>
</g>
<!-- Node18 -->
<g id="node18" class="node">
<title>Node18</title>
<g id="a_node18"><a xlink:title=" ">
<polygon fill="#e0e0e0" stroke="#999999" points="1720.5,-74 1669.5,-74 1669.5,-55 1720.5,-55 1720.5,-74"/>
<text text-anchor="middle" x="1695" y="-62" font-family="Helvetica,sans-Serif" font-size="10.00">math.h</text>
</a>
</g>
</g>
<!-- Node17&#45;&gt;Node18 -->
<g id="edge25" class="edge">
<title>Node17&#45;&gt;Node18</title>
<path fill="none" stroke="#63b8ff" d="M499.6,-293.81C702.99,-290.59 1519.54,-276.06 1567,-250 1634.78,-212.78 1674.37,-122.48 1688.76,-83.69"/>
<polygon fill="#63b8ff" stroke="#63b8ff" points="1692.08,-84.8 1692.16,-74.21 1685.49,-82.44 1692.08,-84.8"/>
</g>
<!-- Node17&#45;&gt;Node19 -->
<g id="edge27" class="edge">
<title>Node17&#45;&gt;Node19</title>
<path fill="none" stroke="#63b8ff" d="M476.37,-285.9C514.8,-271.29 595.98,-241.16 666,-220 716.86,-204.63 777.07,-190.11 811.96,-182.05"/>
<polygon fill="#63b8ff" stroke="#63b8ff" points="812.98,-185.41 821.94,-179.76 811.41,-178.58 812.98,-185.41"/>
</g>
<!-- Node17&#45;&gt;Node22 -->
<g id="edge44" class="edge">
<title>Node17&#45;&gt;Node22</title>
<path fill="none" stroke="#63b8ff" d="M490.91,-285.98C527.95,-277.32 586.58,-263.33 637,-250 683.92,-237.6 695.2,-232.87 742,-220 834.2,-194.64 857.04,-187.42 950,-165 1009.81,-150.58 1079.98,-135.72 1120.49,-127.34"/>
<polygon fill="#63b8ff" stroke="#63b8ff" points="1121.28,-130.75 1130.36,-125.31 1119.86,-123.9 1121.28,-130.75"/>
</g>
<!-- Node19&#45;&gt;Node3 -->
<g id="edge28" class="edge">
<title>Node19&#45;&gt;Node3</title>
<path fill="none" stroke="#63b8ff" d="M838.71,-164.66C834.15,-147.09 823.88,-107.45 817.78,-83.95"/>
<polygon fill="#63b8ff" stroke="#63b8ff" points="821.14,-82.96 815.24,-74.16 814.37,-84.72 821.14,-82.96"/>
</g>
<!-- Node19&#45;&gt;Node5 -->
<g id="edge30" class="edge">
<title>Node19&#45;&gt;Node5</title>
<path fill="none" stroke="#63b8ff" d="M860.13,-167.91C905.14,-155.03 1021.45,-123.35 1121,-110 1296.95,-86.4 1853.59,-70.67 2012.97,-66.57"/>
<polygon fill="#63b8ff" stroke="#63b8ff" points="2013.41,-70.06 2023.32,-66.3 2013.23,-63.06 2013.41,-70.06"/>
</g>
<!-- Node20 -->
<g id="node20" class="node">
<title>Node20</title>
<g id="a_node20"><a xlink:title=" ">
<polygon fill="#e0e0e0" stroke="#999999" points="1479.5,-74 1426.5,-74 1426.5,-55 1479.5,-55 1479.5,-74"/>
<text text-anchor="middle" x="1453" y="-62" font-family="Helvetica,sans-Serif" font-size="10.00">string.h</text>
</a>
</g>
</g>
<!-- Node19&#45;&gt;Node20 -->
<g id="edge29" class="edge">
<title>Node19&#45;&gt;Node20</title>
<path fill="none" stroke="#63b8ff" d="M857.88,-164.78C886.08,-150.66 944.89,-123.05 998,-110 1077.23,-90.53 1322.62,-73.64 1416.22,-67.73"/>
<polygon fill="#63b8ff" stroke="#63b8ff" points="1416.58,-71.22 1426.35,-67.1 1416.15,-64.23 1416.58,-71.22"/>
</g>
<!-- Node21 -->
<g id="node21" class="node">
<title>Node21</title>
<g id="a_node21"><a xlink:title=" ">
<polygon fill="#e0e0e0" stroke="#999999" points="1044.5,-74 993.5,-74 993.5,-55 1044.5,-55 1044.5,-74"/>
<text text-anchor="middle" x="1019" y="-62" font-family="Helvetica,sans-Serif" font-size="10.00">errno.h</text>
</a>
</g>
</g>
<!-- Node19&#45;&gt;Node21 -->
<g id="edge31" class="edge">
<title>Node19&#45;&gt;Node21</title>
<path fill="none" stroke="#63b8ff" d="M846.07,-164.84C854.43,-151.3 872.32,-125.11 894,-110 921.03,-91.16 956.87,-79.49 983.24,-72.85"/>
<polygon fill="#63b8ff" stroke="#63b8ff" points="984.29,-76.19 993.2,-70.46 982.66,-69.39 984.29,-76.19"/>
</g>
<!-- Node19&#45;&gt;Node22 -->
<g id="edge32" class="edge">
<title>Node19&#45;&gt;Node22</title>
<path fill="none" stroke="#63b8ff" d="M860.12,-168.25C864.65,-167.09 869.48,-165.94 874,-165 962.14,-146.69 1067.26,-131.83 1120.11,-124.83"/>
<polygon fill="#63b8ff" stroke="#63b8ff" points="1120.8,-128.27 1130.26,-123.5 1119.89,-121.33 1120.8,-128.27"/>
</g>
<!-- Node22&#45;&gt;Node3 -->
<g id="edge33" class="edge">
<title>Node22&#45;&gt;Node3</title>
<path fill="none" stroke="#63b8ff" d="M1130.29,-114.82C1071.82,-105.73 920.38,-82.19 849.98,-71.25"/>
<polygon fill="#63b8ff" stroke="#63b8ff" points="850.22,-67.74 839.8,-69.67 849.15,-74.66 850.22,-67.74"/>
</g>
<!-- Node22&#45;&gt;Node5 -->
<g id="edge35" class="edge">
<title>Node22&#45;&gt;Node5</title>
<path fill="none" stroke="#63b8ff" d="M1177.66,-117.11C1299.12,-109.97 1853.01,-77.43 2012.76,-68.04"/>
<polygon fill="#63b8ff" stroke="#63b8ff" points="2013.36,-71.51 2023.13,-67.43 2012.95,-64.52 2013.36,-71.51"/>
</g>
<!-- Node22&#45;&gt;Node8 -->
<g id="edge43" class="edge">
<title>Node22&#45;&gt;Node8</title>
<path fill="none" stroke="#63b8ff" d="M1130.24,-116.91C1018.59,-109.46 545.59,-77.89 401.7,-68.28"/>
<polygon fill="#63b8ff" stroke="#63b8ff" points="401.74,-64.78 391.53,-67.6 401.27,-71.76 401.74,-64.78"/>
</g>
<!-- Node22&#45;&gt;Node9 -->
<g id="edge42" class="edge">
<title>Node22&#45;&gt;Node9</title>
<path fill="none" stroke="#63b8ff" d="M1177.57,-117.76C1364.16,-111.91 2601.26,-73.11 2813.15,-66.47"/>
<polygon fill="#63b8ff" stroke="#63b8ff" points="2813.37,-69.96 2823.26,-66.15 2813.15,-62.97 2813.37,-69.96"/>
</g>
<!-- Node22&#45;&gt;Node15 -->
<g id="edge36" class="edge">
<title>Node22&#45;&gt;Node15</title>
<path fill="none" stroke="#63b8ff" d="M1130.39,-117.77C1031.35,-114.6 639.79,-100.95 319,-74 306.84,-72.98 293.59,-71.56 281.71,-70.17"/>
<polygon fill="#63b8ff" stroke="#63b8ff" points="282.02,-66.68 271.68,-68.96 281.19,-73.63 282.02,-66.68"/>
</g>
<!-- Node22&#45;&gt;Node18 -->
<g id="edge41" class="edge">
<title>Node22&#45;&gt;Node18</title>
<path fill="none" stroke="#63b8ff" d="M1177.59,-116.19C1263.04,-107.82 1556.64,-79.05 1659.26,-69"/>
<polygon fill="#63b8ff" stroke="#63b8ff" points="1659.8,-72.46 1669.42,-68.01 1659.12,-65.5 1659.8,-72.46"/>
</g>
<!-- Node22&#45;&gt;Node20 -->
<g id="edge34" class="edge">
<title>Node22&#45;&gt;Node20</title>
<path fill="none" stroke="#63b8ff" d="M1177.71,-114.3C1229.68,-105.09 1353.92,-83.06 1416.16,-72.03"/>
<polygon fill="#63b8ff" stroke="#63b8ff" points="1417.08,-75.42 1426.31,-70.23 1415.85,-68.53 1417.08,-75.42"/>
</g>
<!-- Node22&#45;&gt;Node21 -->
<g id="edge40" class="edge">
<title>Node22&#45;&gt;Node21</title>
<path fill="none" stroke="#63b8ff" d="M1132.31,-109.98C1110.2,-101.3 1075.68,-87.75 1050.55,-77.88"/>
<polygon fill="#63b8ff" stroke="#63b8ff" points="1051.67,-74.57 1041.08,-74.17 1049.11,-81.08 1051.67,-74.57"/>
</g>
<!-- Node23 -->
<g id="node23" class="node">
<title>Node23</title>
<g id="a_node23"><a xlink:title=" ">
<polygon fill="#e0e0e0" stroke="#999999" points="2439.5,-74 2356.5,-74 2356.5,-55 2439.5,-55 2439.5,-74"/>
<text text-anchor="middle" x="2398" y="-62" font-family="Helvetica,sans-Serif" font-size="10.00">cjson/cJSON.h</text>
</a>
</g>
</g>
<!-- Node22&#45;&gt;Node23 -->
<g id="edge37" class="edge">
<title>Node22&#45;&gt;Node23</title>
<path fill="none" stroke="#63b8ff" d="M1177.74,-117.49C1326.63,-111.14 2132.34,-76.82 2345.98,-67.72"/>
<polygon fill="#63b8ff" stroke="#63b8ff" points="2346.45,-71.2 2356.29,-67.28 2346.15,-64.21 2346.45,-71.2"/>
</g>
<!-- Node24 -->
<g id="node24" class="node">
<title>Node24</title>
<g id="a_node24"><a xlink:title=" ">
<polygon fill="#e0e0e0" stroke="#999999" points="1254,-74 1190,-74 1190,-55 1254,-55 1254,-74"/>
<text text-anchor="middle" x="1222" y="-62" font-family="Helvetica,sans-Serif" font-size="10.00">sys/stat.h</text>
</a>
</g>
</g>
<!-- Node22&#45;&gt;Node24 -->
<g id="edge38" class="edge">
<title>Node22&#45;&gt;Node24</title>
<path fill="none" stroke="#63b8ff" d="M1164.93,-109.98C1175.08,-102.07 1190.42,-90.11 1202.65,-80.58"/>
<polygon fill="#63b8ff" stroke="#63b8ff" points="1205.14,-83.08 1210.88,-74.17 1200.84,-77.56 1205.14,-83.08"/>
</g>
<!-- Node25 -->
<g id="node25" class="node">
<title>Node25</title>
<g id="a_node25"><a xlink:title=" ">
<polygon fill="#e0e0e0" stroke="#999999" points="1172,-74 1100,-74 1100,-55 1172,-55 1172,-74"/>
<text text-anchor="middle" x="1136" y="-62" font-family="Helvetica,sans-Serif" font-size="10.00">sys/types.h</text>
</a>
</g>
</g>
<!-- Node22&#45;&gt;Node25 -->
<g id="edge39" class="edge">
<title>Node22&#45;&gt;Node25</title>
<path fill="none" stroke="#63b8ff" d="M1151.03,-109.75C1148.64,-102.72 1145.21,-92.62 1142.23,-83.84"/>
<polygon fill="#63b8ff" stroke="#63b8ff" points="1145.45,-82.43 1138.92,-74.09 1138.82,-84.68 1145.45,-82.43"/>
</g>
<!-- Node26&#45;&gt;Node5 -->
<g id="edge46" class="edge">
<title>Node26&#45;&gt;Node5</title>
<path fill="none" stroke="#63b8ff" d="M2368.82,-219.85C2342.3,-194.19 2282.41,-139.86 2222,-110 2182.49,-90.47 2133.3,-78.66 2098.77,-72.17"/>
<polygon fill="#63b8ff" stroke="#63b8ff" points="2099.01,-68.65 2088.54,-70.32 2097.76,-75.54 2099.01,-68.65"/>
</g>
<!-- Node26&#45;&gt;Node9 -->
<g id="edge49" class="edge">
<title>Node26&#45;&gt;Node9</title>
<path fill="none" stroke="#63b8ff" d="M2421.51,-219.92C2511.16,-187.16 2732.34,-106.31 2813.5,-76.65"/>
<polygon fill="#63b8ff" stroke="#63b8ff" points="2814.94,-79.85 2823.13,-73.13 2812.53,-73.28 2814.94,-79.85"/>
</g>
<!-- Node26&#45;&gt;Node12 -->
<g id="edge48" class="edge">
<title>Node26&#45;&gt;Node12</title>
<path fill="none" stroke="#63b8ff" d="M2403.83,-219.85C2462.96,-179.68 2631.4,-65.26 2690.88,-24.85"/>
<polygon fill="#63b8ff" stroke="#63b8ff" points="2693.15,-27.53 2699.46,-19.02 2689.22,-21.74 2693.15,-27.53"/>
</g>
<!-- Node26&#45;&gt;Node22 -->
<g id="edge55" class="edge">
<title>Node26&#45;&gt;Node22</title>
<path fill="none" stroke="#63b8ff" d="M2320.26,-232.04C2183.84,-227.36 1850.09,-213.64 1572,-184 1428.64,-168.72 1259.2,-139.51 1188.09,-126.74"/>
<polygon fill="#63b8ff" stroke="#63b8ff" points="1188.4,-123.23 1177.94,-124.9 1187.15,-130.12 1188.4,-123.23"/>
</g>
<!-- Node26&#45;&gt;Node23 -->
<g id="edge47" class="edge">
<title>Node26&#45;&gt;Node23</title>
<path fill="none" stroke="#63b8ff" d="M2384.25,-219.92C2386.95,-189.65 2393.3,-118.35 2396.33,-84.27"/>
<polygon fill="#63b8ff" stroke="#63b8ff" points="2399.82,-84.53 2397.22,-74.25 2392.85,-83.91 2399.82,-84.53"/>
</g>
<!-- Node26&#45;&gt;Node27 -->
<g id="edge50" class="edge">
<title>Node26&#45;&gt;Node27</title>
<path fill="none" stroke="#63b8ff" d="M2320.25,-232.24C2162.41,-227.51 1736.22,-212.89 1382,-184 1368.09,-182.87 1352.77,-181.2 1339.62,-179.65"/>
<polygon fill="#63b8ff" stroke="#63b8ff" points="1339.96,-176.16 1329.61,-178.44 1339.12,-183.11 1339.96,-176.16"/>
</g>
<!-- Node27&#45;&gt;Node3 -->
<g id="edge51" class="edge">
<title>Node27&#45;&gt;Node3</title>
<path fill="none" stroke="#63b8ff" d="M1294.26,-164.79C1272.92,-150.68 1228.14,-123.08 1186,-110 1123.71,-90.66 931.05,-74.38 849.77,-68.18"/>
<polygon fill="#63b8ff" stroke="#63b8ff" points="849.75,-64.67 839.52,-67.41 849.23,-71.65 849.75,-64.67"/>
</g>
<!-- Node27&#45;&gt;Node5 -->
<g id="edge53" class="edge">
<title>Node27&#45;&gt;Node5</title>
<path fill="none" stroke="#63b8ff" d="M1329.83,-170.21C1434.96,-155.05 1873.39,-91.83 2013.06,-71.69"/>
<polygon fill="#63b8ff" stroke="#63b8ff" points="2013.96,-75.1 2023.36,-70.21 2012.96,-68.17 2013.96,-75.1"/>
</g>
<!-- Node27&#45;&gt;Node20 -->
<g id="edge52" class="edge">
<title>Node27&#45;&gt;Node20</title>
<path fill="none" stroke="#63b8ff" d="M1318.7,-164.84C1343.58,-146.44 1401.99,-103.23 1432.94,-80.34"/>
<polygon fill="#63b8ff" stroke="#63b8ff" points="1435.29,-82.96 1441.24,-74.2 1431.12,-77.33 1435.29,-82.96"/>
</g>
<!-- Node27&#45;&gt;Node22 -->
<g id="edge54" class="edge">
<title>Node27&#45;&gt;Node22</title>
<path fill="none" stroke="#63b8ff" d="M1284.42,-165.68C1258.85,-156.82 1216.9,-142.29 1187.5,-132.11"/>
<polygon fill="#63b8ff" stroke="#63b8ff" points="1188.27,-128.67 1177.68,-128.7 1185.98,-135.28 1188.27,-128.67"/>
</g>
<!-- Node28&#45;&gt;Node3 -->
<g id="edge58" class="edge">
<title>Node28&#45;&gt;Node3</title>
<path fill="none" stroke="#63b8ff" d="M1334.73,-285.98C1198.69,-261.86 821.41,-194.19 813,-184 789.63,-155.67 798.85,-109.23 806.58,-83.72"/>
<polygon fill="#63b8ff" stroke="#63b8ff" points="809.91,-84.77 809.69,-74.17 803.26,-82.59 809.91,-84.77"/>
</g>
<!-- Node28&#45;&gt;Node4 -->
<g id="edge59" class="edge">
<title>Node28&#45;&gt;Node4</title>
<path fill="none" stroke="#63b8ff" d="M1316.39,-292.09C1235.62,-288.04 1095.78,-277.41 979,-250 896.05,-230.53 871.22,-229.22 799,-184 731.65,-141.82 675.56,-62.8 652.85,-27.87"/>
<polygon fill="#63b8ff" stroke="#63b8ff" points="655.67,-25.8 647.34,-19.25 649.77,-29.56 655.67,-25.8"/>
</g>
<!-- Node28&#45;&gt;Node5 -->
<g id="edge62" class="edge">
<title>Node28&#45;&gt;Node5</title>
<path fill="none" stroke="#63b8ff" d="M1449.78,-289.28C1507.48,-283.51 1592.6,-271.97 1664,-250 1811.1,-204.74 1973.47,-113.97 2032.73,-79.35"/>
<polygon fill="#63b8ff" stroke="#63b8ff" points="2034.81,-82.19 2041.65,-74.11 2031.26,-76.16 2034.81,-82.19"/>
</g>
<!-- Node28&#45;&gt;Node9 -->
<g id="edge63" class="edge">
<title>Node28&#45;&gt;Node9</title>
<path fill="none" stroke="#63b8ff" d="M1449.63,-293.15C1717.38,-287.62 2702.02,-266.21 2730,-250 2763.11,-230.82 2815.5,-125.8 2835.69,-83.33"/>
<polygon fill="#63b8ff" stroke="#63b8ff" points="2838.9,-84.73 2840,-74.19 2832.57,-81.74 2838.9,-84.73"/>
</g>
<!-- Node28&#45;&gt;Node18 -->
<g id="edge60" class="edge">
<title>Node28&#45;&gt;Node18</title>
<path fill="none" stroke="#63b8ff" d="M1449.54,-290.66C1515.53,-285.52 1610.64,-274.09 1638,-250 1687.25,-206.63 1694.51,-121.71 1695.2,-84.14"/>
<polygon fill="#63b8ff" stroke="#63b8ff" points="1698.7,-84.12 1695.24,-74.1 1691.7,-84.09 1698.7,-84.12"/>
</g>
<!-- Node28&#45;&gt;Node20 -->
<g id="edge57" class="edge">
<title>Node28&#45;&gt;Node20</title>
<path fill="none" stroke="#63b8ff" d="M1449.92,-287.01C1496.37,-280.27 1552.42,-268.53 1567,-250 1608.82,-196.86 1500.41,-188.98 1496,-184 1470.33,-155.02 1459.6,-109.5 1455.43,-84.14"/>
<polygon fill="#63b8ff" stroke="#63b8ff" points="1458.86,-83.43 1453.94,-74.04 1451.93,-84.45 1458.86,-83.43"/>
</g>
<!-- Node28&#45;&gt;Node22 -->
<g id="edge73" class="edge">
<title>Node28&#45;&gt;Node22</title>
<path fill="none" stroke="#63b8ff" d="M1364.14,-285.95C1346.83,-277.75 1320.79,-264.49 1300,-250 1248.59,-214.15 1195.25,-162.5 1169.6,-136.59"/>
<polygon fill="#63b8ff" stroke="#63b8ff" points="1171.79,-133.83 1162.29,-129.14 1166.8,-138.73 1171.79,-133.83"/>
</g>
<!-- Node28&#45;&gt;Node23 -->
<g id="edge61" class="edge">
<title>Node28&#45;&gt;Node23</title>
<path fill="none" stroke="#63b8ff" d="M1449.64,-292.22C1581.53,-287.26 1871.42,-273.94 1968,-250 2119.47,-212.45 2146.3,-170.84 2290,-110 2316.07,-98.96 2345.83,-86.73 2367.5,-77.89"/>
<polygon fill="#63b8ff" stroke="#63b8ff" points="2368.9,-81.09 2376.84,-74.08 2366.26,-74.61 2368.9,-81.09"/>
</g>
<!-- Node28&#45;&gt;Node27 -->
<g id="edge72" class="edge">
<title>Node28&#45;&gt;Node27</title>
<path fill="none" stroke="#63b8ff" d="M1358.57,-285.99C1342.42,-278.98 1322.38,-267.35 1312,-250 1301.93,-233.17 1302.02,-210.21 1303.77,-194.25"/>
<polygon fill="#63b8ff" stroke="#63b8ff" points="1307.28,-194.44 1305.22,-184.05 1300.35,-193.46 1307.28,-194.44"/>
</g>
<!-- Node28&#45;&gt;Node29 -->
<g id="edge64" class="edge">
<title>Node28&#45;&gt;Node29</title>
<path fill="none" stroke="#63b8ff" d="M1449.72,-288.07C1530.43,-280.1 1670.36,-265.64 1790,-250 1799.27,-248.79 1809.06,-247.41 1818.65,-246"/>
<polygon fill="#63b8ff" stroke="#63b8ff" points="1819.17,-249.46 1828.54,-244.52 1818.13,-242.54 1819.17,-249.46"/>
</g>
<!-- Node29&#45;&gt;Node3 -->
<g id="edge66" class="edge">
<title>Node29&#45;&gt;Node3</title>
<path fill="none" stroke="#63b8ff" d="M1842.44,-225.44C1740.33,-203.59 1459.37,-145.01 1223,-110 1086.24,-89.74 922.54,-74.73 850.34,-68.57"/>
<polygon fill="#63b8ff" stroke="#63b8ff" points="850.22,-65.05 839.96,-67.69 849.63,-72.02 850.22,-65.05"/>
</g>
<!-- Node29&#45;&gt;Node4 -->
<g id="edge67" class="edge">
<title>Node29&#45;&gt;Node4</title>
<path fill="none" stroke="#63b8ff" d="M1877.78,-225.08C1862.74,-194.49 1808.43,-93.59 1729,-55 1632.65,-8.19 853.41,-9.4 677.29,-10.28"/>
<polygon fill="#63b8ff" stroke="#63b8ff" points="677.24,-6.78 667.26,-10.33 677.28,-13.78 677.24,-6.78"/>
</g>
<!-- Node29&#45;&gt;Node5 -->
<g id="edge69" class="edge">
<title>Node29&#45;&gt;Node5</title>
<path fill="none" stroke="#63b8ff" d="M1890.04,-225.33C1909.22,-204.76 1959.39,-151.61 2004,-110 2014.86,-99.87 2027.51,-89.02 2037.62,-80.57"/>
<polygon fill="#63b8ff" stroke="#63b8ff" points="2039.95,-83.19 2045.41,-74.11 2035.48,-77.8 2039.95,-83.19"/>
</g>
<!-- Node29&#45;&gt;Node9 -->
<g id="edge70" class="edge">
<title>Node29&#45;&gt;Node9</title>
<path fill="none" stroke="#63b8ff" d="M1930.7,-225.47C2102.12,-195.45 2674.78,-95.14 2813.53,-70.84"/>
<polygon fill="#63b8ff" stroke="#63b8ff" points="2814.23,-74.27 2823.48,-69.09 2813.02,-67.37 2814.23,-74.27"/>
</g>
<!-- Node29&#45;&gt;Node20 -->
<g id="edge65" class="edge">
<title>Node29&#45;&gt;Node20</title>
<path fill="none" stroke="#63b8ff" d="M1860.14,-225.41C1789.42,-197.64 1566.7,-110.16 1484.17,-77.74"/>
<polygon fill="#63b8ff" stroke="#63b8ff" points="1485.41,-74.47 1474.82,-74.07 1482.85,-80.98 1485.41,-74.47"/>
</g>
<!-- Node29&#45;&gt;Node23 -->
<g id="edge68" class="edge">
<title>Node29&#45;&gt;Node23</title>
<path fill="none" stroke="#63b8ff" d="M1897.23,-225.5C1937.92,-203.14 2053.1,-142.22 2156,-110 2219.94,-89.98 2296.37,-77.79 2345.99,-71.35"/>
<polygon fill="#63b8ff" stroke="#63b8ff" points="2346.67,-74.79 2356.15,-70.06 2345.79,-67.84 2346.67,-74.79"/>
</g>
<!-- Node29&#45;&gt;Node27 -->
<g id="edge71" class="edge">
<title>Node29&#45;&gt;Node27</title>
<path fill="none" stroke="#63b8ff" d="M1804.45,-226.56C1706.13,-217.06 1531.42,-199.94 1382,-184 1368.12,-182.52 1352.8,-180.8 1339.65,-179.3"/>
<polygon fill="#63b8ff" stroke="#63b8ff" points="1339.97,-175.81 1329.64,-178.14 1339.17,-182.76 1339.97,-175.81"/>
</g>
<!-- Node30&#45;&gt;Node5 -->
<g id="edge81" class="edge">
<title>Node30&#45;&gt;Node5</title>
<path fill="none" stroke="#63b8ff" d="M2039.77,-285.96C2053.01,-278.51 2070.12,-266.33 2078,-250 2095.43,-213.88 2045.97,-149.8 2042,-129 2039.06,-113.58 2043.45,-96.17 2048.07,-83.49"/>
<polygon fill="#63b8ff" stroke="#63b8ff" points="2051.36,-84.68 2051.85,-74.1 2044.87,-82.07 2051.36,-84.68"/>
</g>
<!-- Node30&#45;&gt;Node9 -->
<g id="edge83" class="edge">
<title>Node30&#45;&gt;Node9</title>
<path fill="none" stroke="#63b8ff" d="M2074.04,-291.92C2240.12,-283.6 2747.54,-257.62 2763,-250 2826.86,-218.52 2843.09,-195.7 2868,-129 2873.9,-113.19 2865.69,-95.19 2857.31,-82.4"/>
<polygon fill="#63b8ff" stroke="#63b8ff" points="2860.04,-80.21 2851.37,-74.12 2854.35,-84.29 2860.04,-80.21"/>
</g>
<!-- Node30&#45;&gt;Node18 -->
<g id="edge80" class="edge">
<title>Node30&#45;&gt;Node18</title>
<path fill="none" stroke="#63b8ff" d="M2021.91,-285.63C2021.31,-270.48 2018.05,-239.4 2002,-220 1942.83,-148.47 1896.74,-171.08 1814,-129 1781.16,-112.3 1743.74,-92.14 1719.77,-79.09"/>
<polygon fill="#63b8ff" stroke="#63b8ff" points="1721.14,-75.84 1710.68,-74.12 1717.78,-81.99 1721.14,-75.84"/>
</g>
<!-- Node30&#45;&gt;Node20 -->
<g id="edge79" class="edge">
<title>Node30&#45;&gt;Node20</title>
<path fill="none" stroke="#63b8ff" d="M2018.01,-285.71C2010.49,-270.12 1992.71,-237.62 1968,-220 1888.36,-163.23 1594.02,-95.88 1489.84,-73.31"/>
<polygon fill="#63b8ff" stroke="#63b8ff" points="1490.31,-69.83 1479.8,-71.14 1488.84,-76.67 1490.31,-69.83"/>
</g>
<!-- Node30&#45;&gt;Node22 -->
<g id="edge91" class="edge">
<title>Node30&#45;&gt;Node22</title>
<path fill="none" stroke="#63b8ff" d="M1969.56,-293.92C1836.43,-291.95 1488.13,-283.65 1378,-250 1356.27,-243.36 1228.94,-166.31 1176.53,-134.3"/>
<polygon fill="#63b8ff" stroke="#63b8ff" points="1178.29,-131.28 1167.94,-129.05 1174.64,-137.25 1178.29,-131.28"/>
</g>
<!-- Node30&#45;&gt;Node23 -->
<g id="edge82" class="edge">
<title>Node30&#45;&gt;Node23</title>
<path fill="none" stroke="#63b8ff" d="M2036.28,-285.8C2093.28,-251.09 2304.81,-122.25 2375.12,-79.44"/>
<polygon fill="#63b8ff" stroke="#63b8ff" points="2376.99,-82.4 2383.71,-74.21 2373.34,-76.42 2376.99,-82.4"/>
</g>
<!-- Node30&#45;&gt;Node27 -->
<g id="edge90" class="edge">
<title>Node30&#45;&gt;Node27</title>
<path fill="none" stroke="#63b8ff" d="M1969.66,-294.16C1842.7,-292.76 1521.43,-285.7 1421,-250 1399.04,-242.2 1397.43,-232.86 1378,-220 1362.08,-209.46 1343.82,-198.03 1329.8,-189.4"/>
<polygon fill="#63b8ff" stroke="#63b8ff" points="1331.63,-186.41 1321.28,-184.16 1327.97,-192.38 1331.63,-186.41"/>
</g>
<!-- Node31 -->
<g id="node31" class="node">
<title>Node31</title>
<g id="a_node31"><a xlink:href="_ubidots_2authenticate_8h.html" target="_top" xlink:title=" ">
<polygon fill="white" stroke="#666666" points="1558,-244.5 1430,-244.5 1430,-225.5 1558,-225.5 1558,-244.5"/>
<text text-anchor="middle" x="1494" y="-232.5" font-family="Helvetica,sans-Serif" font-size="10.00">Ubidots/authenticate.h</text>
</a>
</g>
</g>
<!-- Node30&#45;&gt;Node31 -->
<g id="edge84" class="edge">
<title>Node30&#45;&gt;Node31</title>
<path fill="none" stroke="#63b8ff" d="M1969.93,-288.73C1875.79,-278.3 1677.02,-256.28 1568.52,-244.26"/>
<polygon fill="#63b8ff" stroke="#63b8ff" points="1568.63,-240.75 1558.3,-243.12 1567.86,-247.7 1568.63,-240.75"/>
</g>
<!-- Node31&#45;&gt;Node3 -->
<g id="edge86" class="edge">
<title>Node31&#45;&gt;Node3</title>
<path fill="none" stroke="#63b8ff" d="M1455.16,-225.46C1411.32,-215.75 1337.92,-199.25 1275,-184 1115.96,-145.46 927.14,-95.8 849.3,-75.16"/>
<polygon fill="#63b8ff" stroke="#63b8ff" points="850.06,-71.74 839.5,-72.56 848.27,-78.51 850.06,-71.74"/>
</g>
<!-- Node31&#45;&gt;Node4 -->
<g id="edge85" class="edge">
<title>Node31&#45;&gt;Node4</title>
<path fill="none" stroke="#63b8ff" d="M1486.34,-225.12C1459.44,-194.67 1365.35,-94.16 1263,-55 1154.7,-13.57 791.74,-10.33 677.05,-10.36"/>
<polygon fill="#63b8ff" stroke="#63b8ff" points="677.04,-6.86 667.05,-10.38 677.05,-13.86 677.04,-6.86"/>
</g>
<!-- Node31&#45;&gt;Node9 -->
<g id="edge88" class="edge">
<title>Node31&#45;&gt;Node9</title>
<path fill="none" stroke="#63b8ff" d="M1558.21,-225.99C1798.54,-195.99 2640.14,-90.95 2812.87,-69.39"/>
<polygon fill="#63b8ff" stroke="#63b8ff" points="2813.56,-72.83 2823.05,-68.11 2812.69,-65.88 2813.56,-72.83"/>
</g>
<!-- Node31&#45;&gt;Node20 -->
<g id="edge87" class="edge">
<title>Node31&#45;&gt;Node20</title>
<path fill="none" stroke="#63b8ff" d="M1485.29,-225.35C1476.58,-216.05 1463.67,-200.38 1458,-184 1446.37,-150.39 1448.16,-108.18 1450.55,-84.29"/>
<polygon fill="#63b8ff" stroke="#63b8ff" points="1454.05,-84.48 1451.72,-74.14 1447.1,-83.68 1454.05,-84.48"/>
</g>
<!-- Node31&#45;&gt;Node27 -->
<g id="edge89" class="edge">
<title>Node31&#45;&gt;Node27</title>
<path fill="none" stroke="#63b8ff" d="M1466.81,-225.49C1433.06,-214.94 1375.58,-196.95 1339.53,-185.68"/>
<polygon fill="#63b8ff" stroke="#63b8ff" points="1340.12,-182.19 1329.53,-182.55 1338.03,-188.87 1340.12,-182.19"/>
</g>
<!-- Node32&#45;&gt;Node3 -->
<g id="edge95" class="edge">
<title>Node32&#45;&gt;Node3</title>
<path fill="none" stroke="#63b8ff" d="M1643.4,-346.16C1561.76,-340.75 1406.43,-328.26 1276,-305 1168.34,-285.8 869.24,-267.82 799,-184 775.14,-155.53 791.57,-108.81 803.56,-83.37"/>
<polygon fill="#63b8ff" stroke="#63b8ff" points="806.81,-84.68 808.14,-74.17 800.55,-81.56 806.81,-84.68"/>
</g>
<!-- Node32&#45;&gt;Node5 -->
<g id="edge98" class="edge">
<title>Node32&#45;&gt;Node5</title>
<path fill="none" stroke="#63b8ff" d="M1756.59,-346.56C1857.34,-340.81 2059.46,-326.69 2083,-305 2101.33,-288.11 2091.54,-274.81 2094,-250 2100.11,-188.31 2076.33,-116.81 2063.58,-83.86"/>
<polygon fill="#63b8ff" stroke="#63b8ff" points="2066.7,-82.22 2059.74,-74.23 2060.2,-84.82 2066.7,-82.22"/>
</g>
<!-- Node32&#45;&gt;Node9 -->
<g id="edge100" class="edge">
<title>Node32&#45;&gt;Node9</title>
<path fill="none" stroke="#63b8ff" d="M1756.73,-349.86C1963.44,-350.41 2674.74,-345.16 2877,-250 2939.42,-220.63 2981.58,-167.85 2944,-110 2928.76,-86.54 2897.98,-75.35 2874.57,-70.07"/>
<polygon fill="#63b8ff" stroke="#63b8ff" points="2875.23,-66.63 2864.74,-68.09 2873.85,-73.49 2875.23,-66.63"/>
</g>
<!-- Node32&#45;&gt;Node12 -->
<g id="edge97" class="edge">
<title>Node32&#45;&gt;Node12</title>
<path fill="none" stroke="#63b8ff" d="M1756.77,-348.8C1943.1,-346.22 2534.72,-335.76 2723,-305 2886.27,-278.33 2982.84,-321.38 3075,-184 3096.31,-152.23 3158.88,-152.11 3058,-55 3007.88,-6.75 2815.49,-31.23 2747,-19 2746.67,-18.94 2746.33,-18.88 2745.99,-18.82"/>
<polygon fill="#63b8ff" stroke="#63b8ff" points="2746.52,-15.35 2736.02,-16.74 2745.1,-22.21 2746.52,-15.35"/>
</g>
<!-- Node32&#45;&gt;Node18 -->
<g id="edge96" class="edge">
<title>Node32&#45;&gt;Node18</title>
<path fill="none" stroke="#63b8ff" d="M1703.6,-340.82C1707.06,-331.99 1712.03,-317.81 1714,-305 1726.56,-223.23 1708.25,-124.39 1699.37,-84.02"/>
<polygon fill="#63b8ff" stroke="#63b8ff" points="1702.78,-83.23 1697.15,-74.25 1695.95,-84.78 1702.78,-83.23"/>
</g>
<!-- Node32&#45;&gt;Node20 -->
<g id="edge94" class="edge">
<title>Node32&#45;&gt;Node20</title>
<path fill="none" stroke="#63b8ff" d="M1692.34,-340.69C1657.47,-300.6 1513.54,-135.11 1467.35,-81.99"/>
<polygon fill="#63b8ff" stroke="#63b8ff" points="1469.78,-79.46 1460.57,-74.21 1464.5,-84.05 1469.78,-79.46"/>
</g>
<!-- Node32&#45;&gt;Node22 -->
<g id="edge105" class="edge">
<title>Node32&#45;&gt;Node22</title>
<path fill="none" stroke="#63b8ff" d="M1643.33,-347.96C1548.98,-344.59 1364.39,-334.36 1307,-305 1233.52,-267.41 1182.05,-177.31 1162.6,-138.64"/>
<polygon fill="#63b8ff" stroke="#63b8ff" points="1165.51,-136.62 1157.97,-129.18 1159.23,-139.7 1165.51,-136.62"/>
</g>
<!-- Node32&#45;&gt;Node23 -->
<g id="edge99" class="edge">
<title>Node32&#45;&gt;Node23</title>
<path fill="none" stroke="#63b8ff" d="M1756.6,-347.16C1935.03,-339.05 2474,-308.53 2474,-236 2474,-236 2474,-236 2474,-173.5 2474,-134.47 2440.39,-99.58 2417.87,-80.6"/>
<polygon fill="#63b8ff" stroke="#63b8ff" points="2419.85,-77.7 2409.88,-74.12 2415.44,-83.14 2419.85,-77.7"/>
</g>
<!-- Node32&#45;&gt;Node27 -->
<g id="edge104" class="edge">
<title>Node32&#45;&gt;Node27</title>
<path fill="none" stroke="#63b8ff" d="M1663.3,-340.94C1588.86,-323.15 1423.03,-281.24 1374,-250 1350.48,-235.02 1330.14,-209.58 1318.23,-192.66"/>
<polygon fill="#63b8ff" stroke="#63b8ff" points="1321.03,-190.56 1312.51,-184.26 1315.24,-194.5 1321.03,-190.56"/>
</g>
<!-- Node32&#45;&gt;Node28 -->
<g id="edge102" class="edge">
<title>Node32&#45;&gt;Node28</title>
<path fill="none" stroke="#63b8ff" d="M1649.07,-340.98C1593.23,-331.65 1503.67,-316.67 1444.09,-306.71"/>
<polygon fill="#63b8ff" stroke="#63b8ff" points="1444.51,-303.24 1434.07,-305.04 1443.35,-310.14 1444.51,-303.24"/>
</g>
<!-- Node32&#45;&gt;Node29 -->
<g id="edge101" class="edge">
<title>Node32&#45;&gt;Node29</title>
<path fill="none" stroke="#63b8ff" d="M1713.68,-340.97C1744.77,-321.58 1821.02,-274.03 1859.3,-250.16"/>
<polygon fill="#63b8ff" stroke="#63b8ff" points="1861.53,-252.89 1868.16,-244.63 1857.82,-246.95 1861.53,-252.89"/>
</g>
<!-- Node33 -->
<g id="node33" class="node">
<title>Node33</title>
<g id="a_node33"><a xlink:href="forecast_8h.html" target="_top" xlink:title=" ">
<polygon fill="white" stroke="#666666" points="1108,-305 974,-305 974,-286 1108,-286 1108,-305"/>
<text text-anchor="middle" x="1041" y="-293" font-family="Helvetica,sans-Serif" font-size="10.00">WillyWeather/forecast.h</text>
</a>
</g>
</g>
<!-- Node32&#45;&gt;Node33 -->
<g id="edge103" class="edge">
<title>Node32&#45;&gt;Node33</title>
<path fill="none" stroke="#63b8ff" d="M1643.24,-344.94C1525.03,-335.43 1252.3,-313.49 1118.24,-302.71"/>
<polygon fill="#63b8ff" stroke="#63b8ff" points="1118.29,-299.21 1108.05,-301.89 1117.73,-306.18 1118.29,-299.21"/>
</g>
<!-- Node34&#45;&gt;Node3 -->
<g id="edge109" class="edge">
<title>Node34&#45;&gt;Node3</title>
<path fill="none" stroke="#63b8ff" d="M859.65,-340.8C833.67,-318.2 766.07,-254.47 742,-184 731.37,-152.88 726.07,-138.78 742,-110 749.84,-95.83 764.29,-85.57 778.11,-78.5"/>
<polygon fill="#63b8ff" stroke="#63b8ff" points="779.92,-81.52 787.49,-74.1 776.95,-75.18 779.92,-81.52"/>
</g>
<!-- Node34&#45;&gt;Node4 -->
<g id="edge108" class="edge">
<title>Node34&#45;&gt;Node4</title>
<path fill="none" stroke="#63b8ff" d="M854.54,-340.85C840.4,-332.57 819.28,-319.27 803,-305 711.56,-224.84 662.21,-79.67 647.1,-28.74"/>
<polygon fill="#63b8ff" stroke="#63b8ff" points="650.45,-27.76 644.32,-19.12 643.73,-29.7 650.45,-27.76"/>
</g>
<!-- Node34&#45;&gt;Node8 -->
<g id="edge110" class="edge">
<title>Node34&#45;&gt;Node8</title>
<path fill="none" stroke="#63b8ff" d="M792.76,-340.99C753.44,-334.62 705.69,-323.66 666,-305 633.19,-289.58 439.78,-131.23 378.57,-80.82"/>
<polygon fill="#63b8ff" stroke="#63b8ff" points="380.47,-77.86 370.53,-74.2 376.02,-83.26 380.47,-77.86"/>
</g>
<!-- Node34&#45;&gt;Node12 -->
<g id="edge107" class="edge">
<title>Node34&#45;&gt;Node12</title>
<path fill="none" stroke="#63b8ff" d="M870.16,-340.99C871.46,-300.47 882.92,-126.19 984,-55 1055.77,-4.45 2440.43,-9.13 2677.58,-10.31"/>
<polygon fill="#63b8ff" stroke="#63b8ff" points="2677.68,-13.81 2687.7,-10.36 2677.71,-6.81 2677.68,-13.81"/>
</g>
<!-- Node34&#45;&gt;Node22 -->
<g id="edge114" class="edge">
<title>Node34&#45;&gt;Node22</title>
<path fill="none" stroke="#63b8ff" d="M869,-340.8C866.9,-318.17 864.4,-256.64 894,-220 896.5,-216.91 1022.29,-166.42 1026,-165 1057.82,-152.85 1094.59,-140.21 1120.53,-131.52"/>
<polygon fill="#63b8ff" stroke="#63b8ff" points="1121.87,-134.76 1130.25,-128.28 1119.66,-128.12 1121.87,-134.76"/>
</g>
<!-- Node34&#45;&gt;Node27 -->
<g id="edge111" class="edge">
<title>Node34&#45;&gt;Node27</title>
<path fill="none" stroke="#63b8ff" d="M878.58,-340.8C902.58,-317.06 973.37,-250.84 1046,-220 1123.42,-187.12 1223.51,-178.51 1274.31,-176.27"/>
<polygon fill="#63b8ff" stroke="#63b8ff" points="1274.52,-179.77 1284.37,-175.88 1274.25,-172.77 1274.52,-179.77"/>
</g>
<!-- Node34&#45;&gt;Node28 -->
<g id="edge113" class="edge">
<title>Node34&#45;&gt;Node28</title>
<path fill="none" stroke="#63b8ff" d="M947.64,-341.48C1044.62,-331.46 1209.54,-314.42 1306.15,-304.44"/>
<polygon fill="#63b8ff" stroke="#63b8ff" points="1306.56,-307.92 1316.15,-303.41 1305.84,-300.95 1306.56,-307.92"/>
</g>
<!-- Node34&#45;&gt;Node33 -->
<g id="edge112" class="edge">
<title>Node34&#45;&gt;Node33</title>
<path fill="none" stroke="#63b8ff" d="M897.47,-340.98C926.18,-332.09 971.42,-318.07 1003.42,-308.15"/>
<polygon fill="#63b8ff" stroke="#63b8ff" points="1004.8,-311.39 1013.31,-305.08 1002.72,-304.7 1004.8,-311.39"/>
</g>
<!-- Node35&#45;&gt;Node5 -->
<g id="edge116" class="edge">
<title>Node35&#45;&gt;Node5</title>
<path fill="none" stroke="#63b8ff" d="M2642.04,-225.35C2618.72,-211.18 2570.05,-182.84 2526,-165 2375.91,-104.2 2183.14,-78.39 2098.76,-69.47"/>
<polygon fill="#63b8ff" stroke="#63b8ff" points="2099.09,-65.99 2088.78,-68.44 2098.37,-72.95 2099.09,-65.99"/>
</g>
<!-- Node35&#45;&gt;Node9 -->
<g id="edge119" class="edge">
<title>Node35&#45;&gt;Node9</title>
<path fill="none" stroke="#63b8ff" d="M2666.76,-225.31C2678.88,-215.47 2699.09,-198.86 2716,-184 2756.88,-148.09 2803.43,-104.21 2827.56,-81.24"/>
<polygon fill="#63b8ff" stroke="#63b8ff" points="2830.02,-83.73 2834.84,-74.29 2825.19,-78.66 2830.02,-83.73"/>
</g>
<!-- Node35&#45;&gt;Node12 -->
<g id="edge118" class="edge">
<title>Node35&#45;&gt;Node12</title>
<path fill="none" stroke="#63b8ff" d="M2660.02,-225.32C2664.44,-215.47 2671.52,-198.86 2676,-184 2692.59,-128.91 2704.16,-61.71 2709.18,-29.5"/>
<polygon fill="#63b8ff" stroke="#63b8ff" points="2712.69,-29.71 2710.74,-19.3 2705.77,-28.66 2712.69,-29.71"/>
</g>
<!-- Node35&#45;&gt;Node22 -->
<g id="edge121" class="edge">
<title>Node35&#45;&gt;Node22</title>
<path fill="none" stroke="#63b8ff" d="M2591.46,-229.12C2333.28,-209.61 1379.49,-137.54 1187.72,-123.05"/>
<polygon fill="#63b8ff" stroke="#63b8ff" points="1187.9,-119.55 1177.67,-122.29 1187.38,-126.53 1187.9,-119.55"/>
</g>
<!-- Node35&#45;&gt;Node23 -->
<g id="edge117" class="edge">
<title>Node35&#45;&gt;Node23</title>
<path fill="none" stroke="#63b8ff" d="M2657.93,-225.37C2662.38,-202.97 2670.76,-142.45 2640,-110 2614.56,-83.16 2512.87,-72.27 2449.68,-68.03"/>
<polygon fill="#63b8ff" stroke="#63b8ff" points="2449.71,-64.53 2439.51,-67.39 2449.26,-71.52 2449.71,-64.53"/>
</g>
<!-- Node35&#45;&gt;Node27 -->
<g id="edge120" class="edge">
<title>Node35&#45;&gt;Node27</title>
<path fill="none" stroke="#63b8ff" d="M2591.31,-228.99C2551.92,-226.06 2500.58,-222.47 2455,-220 2229.4,-207.77 1504.07,-182.34 1340.14,-176.65"/>
<polygon fill="#63b8ff" stroke="#63b8ff" points="1339.85,-173.13 1329.74,-176.29 1339.61,-180.13 1339.85,-173.13"/>
</g>
<!-- Node36&#45;&gt;Node5 -->
<g id="edge123" class="edge">
<title>Node36&#45;&gt;Node5</title>
<path fill="none" stroke="#63b8ff" d="M2554.83,-401.24C2561.53,-387.88 2571.97,-361.77 2564,-341 2538.05,-273.43 2511.91,-264.72 2455,-220 2374.01,-156.36 2347.42,-146.23 2251,-110 2200.17,-90.9 2138.67,-78.53 2098.51,-71.79"/>
<polygon fill="#63b8ff" stroke="#63b8ff" points="2098.96,-68.32 2088.53,-70.16 2097.83,-75.23 2098.96,-68.32"/>
</g>
<!-- Node36&#45;&gt;Node8 -->
<g id="edge127" class="edge">
<title>Node36&#45;&gt;Node8</title>
<path fill="none" stroke="#63b8ff" d="M2490.25,-409.67C2213.21,-407.97 1051.96,-398.6 691,-360 601.21,-350.4 304,-326.31 304,-236 304,-236 304,-236 304,-173.5 304,-137.65 328.62,-101.86 345.21,-81.81"/>
<polygon fill="#63b8ff" stroke="#63b8ff" points="347.87,-84.09 351.74,-74.23 342.56,-79.52 347.87,-84.09"/>
</g>
<!-- Node36&#45;&gt;Node9 -->
<g id="edge128" class="edge">
<title>Node36&#45;&gt;Node9</title>
<path fill="none" stroke="#63b8ff" d="M2609.74,-404.05C2720.97,-389.37 2957.65,-340.39 3058,-184 3104.36,-111.76 2944.11,-79.72 2874.6,-69.44"/>
<polygon fill="#63b8ff" stroke="#63b8ff" points="2875.05,-65.97 2864.66,-68.02 2874.07,-72.9 2875.05,-65.97"/>
</g>
<!-- Node36&#45;&gt;Node12 -->
<g id="edge126" class="edge">
<title>Node36&#45;&gt;Node12</title>
<path fill="none" stroke="#63b8ff" d="M2609.7,-405.31C2669.87,-399.32 2764.77,-386.39 2843,-360 3010.74,-303.42 3196,-352.53 3196,-175.5 3196,-175.5 3196,-175.5 3196,-118.5 3196,-60.11 3136.67,-72.59 3081,-55 2938.63,-10.03 2894.08,-44.67 2747,-19 2746.67,-18.94 2746.33,-18.88 2745.99,-18.82"/>
<polygon fill="#63b8ff" stroke="#63b8ff" points="2746.51,-15.35 2736.01,-16.77 2745.1,-22.21 2746.51,-15.35"/>
</g>
<!-- Node36&#45;&gt;Node16 -->
<g id="edge130" class="edge">
<title>Node36&#45;&gt;Node16</title>
<path fill="none" stroke="#63b8ff" d="M2490.1,-409.55C2223.81,-407.35 1145.08,-396.4 784.04,-359.89"/>
<polygon fill="#63b8ff" stroke="#63b8ff" points="784.39,-356.41 774.09,-358.86 783.67,-363.37 784.39,-356.41"/>
</g>
<!-- Node36&#45;&gt;Node18 -->
<g id="edge125" class="edge">
<title>Node36&#45;&gt;Node18</title>
<path fill="none" stroke="#63b8ff" d="M2529.86,-401.43C2454.66,-369.49 2183.01,-254.58 1957,-165 1874.91,-132.46 1777.52,-96.05 1727.8,-77.61"/>
<polygon fill="#63b8ff" stroke="#63b8ff" points="1728.81,-74.25 1718.22,-74.06 1726.38,-80.82 1728.81,-74.25"/>
</g>
<!-- Node36&#45;&gt;Node22 -->
<g id="edge132" class="edge">
<title>Node36&#45;&gt;Node22</title>
<path fill="none" stroke="#63b8ff" d="M2490.06,-408.37C2207.08,-400.36 1016.44,-363.28 965,-305 933.67,-269.5 1075.87,-171.22 1132.02,-134.54"/>
<polygon fill="#63b8ff" stroke="#63b8ff" points="1134.07,-137.39 1140.56,-129.01 1130.26,-131.51 1134.07,-137.39"/>
</g>
<!-- Node36&#45;&gt;Node23 -->
<g id="edge124" class="edge">
<title>Node36&#45;&gt;Node23</title>
<path fill="none" stroke="#63b8ff" d="M2570.95,-401.36C2623.78,-378.1 2756.46,-309.79 2730,-220 2713.55,-164.18 2707.57,-142.05 2659,-110 2625.45,-87.86 2515.92,-75.2 2449.89,-69.4"/>
<polygon fill="#63b8ff" stroke="#63b8ff" points="2449.95,-65.9 2439.69,-68.53 2449.35,-72.87 2449.95,-65.9"/>
</g>
<!-- Node36&#45;&gt;Node27 -->
<g id="edge131" class="edge">
<title>Node36&#45;&gt;Node27</title>
<path fill="none" stroke="#63b8ff" d="M2490.5,-409.48C2254.06,-406.81 1389.8,-391.19 1307,-305 1278.54,-275.37 1290.71,-222.06 1300.01,-193.97"/>
<polygon fill="#63b8ff" stroke="#63b8ff" points="1303.42,-194.82 1303.46,-184.23 1296.82,-192.49 1303.42,-194.82"/>
</g>
<!-- Node36&#45;&gt;Node35 -->
<g id="edge129" class="edge">
<title>Node36&#45;&gt;Node35</title>
<path fill="none" stroke="#63b8ff" d="M2561.2,-401.46C2572.67,-392.25 2590.41,-376.65 2602,-360 2625.71,-325.92 2642.43,-279.75 2650.5,-254.46"/>
<polygon fill="#63b8ff" stroke="#63b8ff" points="2653.91,-255.3 2653.52,-244.71 2647.22,-253.24 2653.91,-255.3"/>
</g>
<!-- Node37&#45;&gt;Node5 -->
<g id="edge135" class="edge">
<title>Node37&#45;&gt;Node5</title>
<path fill="none" stroke="#63b8ff" d="M1179.86,-409.44C1404.61,-407.16 2156.91,-396.76 2192,-360 2251.89,-297.26 2227.64,-239.96 2184,-165 2160.49,-124.61 2113.63,-94.76 2083.6,-78.77"/>
<polygon fill="#63b8ff" stroke="#63b8ff" points="2084.99,-75.54 2074.5,-74.06 2081.78,-81.76 2084.99,-75.54"/>
</g>
<!-- Node37&#45;&gt;Node8 -->
<g id="edge138" class="edge">
<title>Node37&#45;&gt;Node8</title>
<path fill="none" stroke="#63b8ff" d="M1054.07,-409.29C939.13,-407.05 687.91,-397.84 480,-360 393.51,-344.26 342.82,-375.28 290,-305 237.93,-235.72 248.28,-185.96 290,-110 297.77,-95.85 312.17,-85.56 325.89,-78.46"/>
<polygon fill="#63b8ff" stroke="#63b8ff" points="327.66,-81.49 335.19,-74.05 324.66,-75.17 327.66,-81.49"/>
</g>
<!-- Node37&#45;&gt;Node9 -->
<g id="edge139" class="edge">
<title>Node37&#45;&gt;Node9</title>
<path fill="none" stroke="#63b8ff" d="M1179.69,-409.05C1416.9,-405.25 2259.49,-389.91 2526,-360 2558.48,-356.35 2784.27,-316.13 2815,-305 2896.51,-275.47 2938.85,-265.65 2968,-184 2974.31,-166.33 2971.45,-122.19 2962,-110 2941.28,-83.27 2902.59,-72.59 2875.17,-68.33"/>
<polygon fill="#63b8ff" stroke="#63b8ff" points="2875.29,-64.82 2864.91,-66.95 2874.36,-71.75 2875.29,-64.82"/>
</g>
<!-- Node37&#45;&gt;Node12 -->
<g id="edge137" class="edge">
<title>Node37&#45;&gt;Node12</title>
<path fill="none" stroke="#63b8ff" d="M1179.81,-410.05C1363.52,-409.64 1915.62,-404.51 2371,-360 2449.8,-352.3 2645.7,-322.1 2723,-305 2766.13,-295.46 2877.12,-274.31 2914,-250 2968.92,-213.8 2996.96,-165.72 2962,-110 2937.48,-70.93 2916.24,-73.53 2874,-55 2862.23,-49.84 2789.86,-30.69 2745.93,-19.26"/>
<polygon fill="#63b8ff" stroke="#63b8ff" points="2746.78,-15.86 2736.22,-16.74 2745.02,-22.64 2746.78,-15.86"/>
</g>
<!-- Node37&#45;&gt;Node16 -->
<g id="edge141" class="edge">
<title>Node37&#45;&gt;Node16</title>
<path fill="none" stroke="#63b8ff" d="M1054.42,-401.28C989.4,-392.08 884.44,-376.81 784.14,-360.14"/>
<polygon fill="#63b8ff" stroke="#63b8ff" points="784.58,-356.67 774.14,-358.47 783.43,-363.57 784.58,-356.67"/>
</g>
<!-- Node37&#45;&gt;Node17 -->
<g id="edge145" class="edge">
<title>Node37&#45;&gt;Node17</title>
<path fill="none" stroke="#63b8ff" d="M1054.48,-405.52C971.06,-398.88 818.99,-384.52 691,-360 618.89,-346.18 536.45,-322.19 490.28,-307.98"/>
<polygon fill="#63b8ff" stroke="#63b8ff" points="491.31,-304.64 480.72,-305.02 489.23,-311.32 491.31,-304.64"/>
</g>
<!-- Node37&#45;&gt;Node22 -->
<g id="edge143" class="edge">
<title>Node37&#45;&gt;Node22</title>
<path fill="none" stroke="#63b8ff" d="M1063.76,-395.97C1019.78,-381.25 960.15,-353.35 932,-305 927.75,-297.7 929.82,-294.16 932,-286 940.74,-253.3 945.75,-243.61 970,-220 994.24,-196.4 1080.67,-154.44 1125.92,-133.35"/>
<polygon fill="#63b8ff" stroke="#63b8ff" points="1127.57,-136.44 1135.17,-129.06 1124.63,-130.09 1127.57,-136.44"/>
</g>
<!-- Node37&#45;&gt;Node23 -->
<g id="edge136" class="edge">
<title>Node37&#45;&gt;Node23</title>
<path fill="none" stroke="#63b8ff" d="M1179.64,-409.49C1412.56,-407.3 2220.87,-397.1 2330,-360 2410.32,-332.7 2445.81,-324.72 2486,-250 2515.74,-194.7 2506.55,-158.77 2467,-110 2456.35,-96.87 2440.75,-86.35 2427.08,-78.84"/>
<polygon fill="#63b8ff" stroke="#63b8ff" points="2428.5,-75.64 2418.01,-74.13 2425.27,-81.85 2428.5,-75.64"/>
</g>
<!-- Node37&#45;&gt;Node26 -->
<g id="edge140" class="edge">
<title>Node37&#45;&gt;Node26</title>
<path fill="none" stroke="#63b8ff" d="M1179.63,-408.98C1417.92,-404.91 2257.05,-388.59 2306,-360 2343.78,-337.94 2365.62,-289.24 2375.84,-259.86"/>
<polygon fill="#63b8ff" stroke="#63b8ff" points="2379.17,-260.94 2378.98,-250.35 2372.52,-258.75 2379.17,-260.94"/>
</g>
<!-- Node37&#45;&gt;Node27 -->
<g id="edge142" class="edge">
<title>Node37&#45;&gt;Node27</title>
<path fill="none" stroke="#63b8ff" d="M1123.23,-395.63C1138.46,-361.76 1180.41,-275.6 1236,-220 1248.53,-207.46 1265.23,-196.78 1279.28,-189.02"/>
<polygon fill="#63b8ff" stroke="#63b8ff" points="1281.3,-191.91 1288.5,-184.13 1278.02,-185.72 1281.3,-191.91"/>
</g>
<!-- Node37&#45;&gt;Node28 -->
<g id="edge144" class="edge">
<title>Node37&#45;&gt;Node28</title>
<path fill="none" stroke="#63b8ff" d="M1149.88,-395.97C1202.14,-373.67 1303.34,-330.49 1353.43,-309.12"/>
<polygon fill="#63b8ff" stroke="#63b8ff" points="1354.92,-312.29 1362.74,-305.14 1352.17,-305.85 1354.92,-312.29"/>
</g>
</g>
</svg>
