<?xml version="1.0" encoding="UTF-8" standalone="no"?>
<!DOCTYPE svg PUBLIC "-//W3C//DTD SVG 1.1//EN"
 "http://www.w3.org/Graphics/SVG/1.1/DTD/svg11.dtd">
<!-- Generated by graphviz version 2.49.3 (20211027.1534)
 -->
<!-- Title: src/main.c Pages: 1 -->
<svg width="498pt" height="252pt"
 viewBox="0.00 0.00 498.00 252.00" xmlns="http://www.w3.org/2000/svg" xmlns:xlink="http://www.w3.org/1999/xlink">
<g id="graph0" class="graph" transform="scale(1 1) rotate(0) translate(4 248)">
<title>src/main.c</title>
<!-- Node1 -->
<g id="node1" class="node">
<title>Node1</title>
<g id="a_node1"><a xlink:title=" ">
<polygon fill="#bfbfbf" stroke="black" points="218.5,-224.5 218.5,-243.5 280.5,-243.5 280.5,-224.5 218.5,-224.5"/>
<text text-anchor="middle" x="249.5" y="-231.5" font-family="Helvetica,sans-Serif" font-size="10.00">src/main.c</text>
</a>
</g>
</g>
<!-- Node2 -->
<g id="node2" class="node">
<title>Node2</title>
<g id="a_node2"><a xlink:href="main_8h.html" target="_top" xlink:title=" ">
<polygon fill="none" stroke="black" points="206.5,-168.5 206.5,-187.5 292.5,-187.5 292.5,-168.5 206.5,-168.5"/>
<text text-anchor="middle" x="249.5" y="-175.5" font-family="Helvetica,sans-Serif" font-size="10.00">../include/main.h</text>
</a>
</g>
</g>
<!-- Node1&#45;&gt;Node2 -->
<g id="edge1" class="edge">
<title>Node1&#45;&gt;Node2</title>
<path fill="none" stroke="midnightblue" d="M249.5,-224.08C249.5,-217.01 249.5,-206.86 249.5,-197.99"/>
<polygon fill="midnightblue" stroke="midnightblue" points="253,-197.75 249.5,-187.75 246,-197.75 253,-197.75"/>
</g>
<!-- Node3 -->
<g id="node3" class="node">
<title>Node3</title>
<g id="a_node3"><a xlink:title=" ">
<polygon fill="none" stroke="#bfbfbf" points="0,-0.5 0,-19.5 47,-19.5 47,-0.5 0,-0.5"/>
<text text-anchor="middle" x="23.5" y="-7.5" font-family="Helvetica,sans-Serif" font-size="10.00">stdlib.h</text>
</a>
</g>
</g>
<!-- Node2&#45;&gt;Node3 -->
<g id="edge2" class="edge">
<title>Node2&#45;&gt;Node3</title>
<path fill="none" stroke="midnightblue" d="M206.2,-172.78C153.87,-166.78 70.13,-153.99 48.5,-132 21.64,-104.69 20.09,-56.6 21.61,-30.02"/>
<polygon fill="midnightblue" stroke="midnightblue" points="25.12,-30 22.41,-19.76 18.14,-29.46 25.12,-30"/>
</g>
<!-- Node4 -->
<g id="node4" class="node">
<title>Node4</title>
<g id="a_node4"><a xlink:title=" ">
<polygon fill="none" stroke="#bfbfbf" points="445,-112.5 445,-131.5 490,-131.5 490,-112.5 445,-112.5"/>
<text text-anchor="middle" x="467.5" y="-119.5" font-family="Helvetica,sans-Serif" font-size="10.00">stdio.h</text>
</a>
</g>
</g>
<!-- Node2&#45;&gt;Node4 -->
<g id="edge3" class="edge">
<title>Node2&#45;&gt;Node4</title>
<path fill="none" stroke="midnightblue" d="M287.24,-168.46C323.03,-160.24 378.53,-147.19 435.03,-132.31"/>
<polygon fill="midnightblue" stroke="midnightblue" points="436.08,-135.65 444.85,-129.71 434.28,-128.89 436.08,-135.65"/>
</g>
<!-- Node5 -->
<g id="node5" class="node">
<title>Node5</title>
<g id="a_node5"><a xlink:title=" ">
<polygon fill="none" stroke="#bfbfbf" points="201,-0.5 201,-19.5 260,-19.5 260,-0.5 201,-0.5"/>
<text text-anchor="middle" x="230.5" y="-7.5" font-family="Helvetica,sans-Serif" font-size="10.00">curl/curl.h</text>
</a>
</g>
</g>
<!-- Node2&#45;&gt;Node5 -->
<g id="edge4" class="edge">
<title>Node2&#45;&gt;Node5</title>
<path fill="none" stroke="midnightblue" d="M248.48,-168.08C245.49,-141.95 236.7,-65.21 232.63,-29.58"/>
<polygon fill="midnightblue" stroke="midnightblue" points="236.1,-29.11 231.48,-19.57 229.14,-29.9 236.1,-29.11"/>
</g>
<!-- Node6 -->
<g id="node6" class="node">
<title>Node6</title>
<g id="a_node6"><a xlink:href="ubidots_8h.html" target="_top" xlink:title=" ">
<polygon fill="none" stroke="black" points="165.5,-112.5 165.5,-131.5 221.5,-131.5 221.5,-112.5 165.5,-112.5"/>
<text text-anchor="middle" x="193.5" y="-119.5" font-family="Helvetica,sans-Serif" font-size="10.00">ubidots.h</text>
</a>
</g>
</g>
<!-- Node2&#45;&gt;Node6 -->
<g id="edge5" class="edge">
<title>Node2&#45;&gt;Node6</title>
<path fill="none" stroke="midnightblue" d="M240.5,-168.32C232.31,-160.42 219.99,-148.55 210.03,-138.94"/>
<polygon fill="midnightblue" stroke="midnightblue" points="212.29,-136.26 202.66,-131.83 207.43,-141.29 212.29,-136.26"/>
</g>
<!-- Node10 -->
<g id="node10" class="node">
<title>Node10</title>
<g id="a_node10"><a xlink:href="w__weather_8h.html" target="_top" xlink:title=" ">
<polygon fill="none" stroke="black" points="58,-112.5 58,-131.5 129,-131.5 129,-112.5 58,-112.5"/>
<text text-anchor="middle" x="93.5" y="-119.5" font-family="Helvetica,sans-Serif" font-size="10.00">w_weather.h</text>
</a>
</g>
</g>
<!-- Node2&#45;&gt;Node10 -->
<g id="edge14" class="edge">
<title>Node2&#45;&gt;Node10</title>
<path fill="none" stroke="midnightblue" d="M224.78,-168.44C198.65,-159.4 157.24,-145.06 127.92,-134.92"/>
<polygon fill="midnightblue" stroke="midnightblue" points="128.7,-131.48 118.1,-131.52 126.41,-138.1 128.7,-131.48"/>
</g>
<!-- Node11 -->
<g id="node11" class="node">
<title>Node11</title>
<g id="a_node11"><a xlink:href="ibm__ems_8h.html" target="_top" xlink:title=" ">
<polygon fill="none" stroke="black" points="277.5,-112.5 277.5,-131.5 341.5,-131.5 341.5,-112.5 277.5,-112.5"/>
<text text-anchor="middle" x="309.5" y="-119.5" font-family="Helvetica,sans-Serif" font-size="10.00">ibm_ems.h</text>
</a>
</g>
</g>
<!-- Node2&#45;&gt;Node11 -->
<g id="edge18" class="edge">
<title>Node2&#45;&gt;Node11</title>
<path fill="none" stroke="midnightblue" d="M259.14,-168.32C268.01,-160.34 281.37,-148.31 292.11,-138.65"/>
<polygon fill="midnightblue" stroke="midnightblue" points="294.59,-141.13 299.68,-131.83 289.91,-135.92 294.59,-141.13"/>
</g>
<!-- Node12 -->
<g id="node12" class="node">
<title>Node12</title>
<g id="a_node12"><a xlink:href="food__auth_8h.html" target="_top" xlink:title=" ">
<polygon fill="none" stroke="black" points="360,-112.5 360,-131.5 427,-131.5 427,-112.5 360,-112.5"/>
<text text-anchor="middle" x="393.5" y="-119.5" font-family="Helvetica,sans-Serif" font-size="10.00">food_auth.h</text>
</a>
</g>
</g>
<!-- Node2&#45;&gt;Node12 -->
<g id="edge22" class="edge">
<title>Node2&#45;&gt;Node12</title>
<path fill="none" stroke="midnightblue" d="M272.32,-168.44C296.33,-159.44 334.33,-145.19 361.37,-135.05"/>
<polygon fill="midnightblue" stroke="midnightblue" points="362.66,-138.3 370.79,-131.52 360.2,-131.75 362.66,-138.3"/>
</g>
<!-- Node6&#45;&gt;Node5 -->
<g id="edge7" class="edge">
<title>Node6&#45;&gt;Node5</title>
<path fill="none" stroke="midnightblue" d="M196.4,-112.37C202.4,-94.54 216.27,-53.3 224.35,-29.27"/>
<polygon fill="midnightblue" stroke="midnightblue" points="227.74,-30.19 227.61,-19.59 221.1,-27.95 227.74,-30.19"/>
</g>
<!-- Node7 -->
<g id="node7" class="node">
<title>Node7</title>
<g id="a_node7"><a xlink:title=" ">
<polygon fill="none" stroke="#bfbfbf" points="89.5,-0.5 89.5,-19.5 137.5,-19.5 137.5,-0.5 89.5,-0.5"/>
<text text-anchor="middle" x="113.5" y="-7.5" font-family="Helvetica,sans-Serif" font-size="10.00">string.h</text>
</a>
</g>
</g>
<!-- Node6&#45;&gt;Node7 -->
<g id="edge6" class="edge">
<title>Node6&#45;&gt;Node7</title>
<path fill="none" stroke="midnightblue" d="M176.32,-112.41C162.55,-104.68 143.73,-92.07 132.5,-76 122.93,-62.3 118.13,-43.76 115.75,-29.99"/>
<polygon fill="midnightblue" stroke="midnightblue" points="119.17,-29.15 114.27,-19.76 112.24,-30.15 119.17,-29.15"/>
</g>
<!-- Node8 -->
<g id="node8" class="node">
<title>Node8</title>
<g id="a_node8"><a xlink:title=" ">
<polygon fill="none" stroke="#bfbfbf" points="328,-0.5 328,-19.5 411,-19.5 411,-0.5 328,-0.5"/>
<text text-anchor="middle" x="369.5" y="-7.5" font-family="Helvetica,sans-Serif" font-size="10.00">cjson/cJSON.h</text>
</a>
</g>
</g>
<!-- Node6&#45;&gt;Node8 -->
<g id="edge8" class="edge">
<title>Node6&#45;&gt;Node8</title>
<path fill="none" stroke="midnightblue" d="M207.31,-112.37C237.64,-93.41 310.3,-48 347.19,-24.94"/>
<polygon fill="midnightblue" stroke="midnightblue" points="349.13,-27.86 355.75,-19.59 345.42,-21.92 349.13,-27.86"/>
</g>
<!-- Node9 -->
<g id="node9" class="node">
<title>Node9</title>
<g id="a_node9"><a xlink:href="utils_8h.html" target="_top" xlink:title=" ">
<polygon fill="none" stroke="black" points="141.5,-56.5 141.5,-75.5 183.5,-75.5 183.5,-56.5 141.5,-56.5"/>
<text text-anchor="middle" x="162.5" y="-63.5" font-family="Helvetica,sans-Serif" font-size="10.00">utils.h</text>
</a>
</g>
</g>
<!-- Node6&#45;&gt;Node9 -->
<g id="edge9" class="edge">
<title>Node6&#45;&gt;Node9</title>
<path fill="none" stroke="midnightblue" d="M188.38,-112.08C184.09,-104.61 177.84,-93.72 172.56,-84.52"/>
<polygon fill="midnightblue" stroke="midnightblue" points="175.54,-82.68 167.52,-75.75 169.47,-86.17 175.54,-82.68"/>
</g>
<!-- Node9&#45;&gt;Node3 -->
<g id="edge10" class="edge">
<title>Node9&#45;&gt;Node3</title>
<path fill="none" stroke="midnightblue" d="M141.39,-56.8C118.49,-47.9 81.68,-33.6 55.29,-23.35"/>
<polygon fill="midnightblue" stroke="midnightblue" points="56.32,-20 45.73,-19.64 53.79,-26.52 56.32,-20"/>
</g>
<!-- Node9&#45;&gt;Node5 -->
<g id="edge12" class="edge">
<title>Node9&#45;&gt;Node5</title>
<path fill="none" stroke="midnightblue" d="M173.43,-56.32C183.67,-48.18 199.22,-35.84 211.5,-26.09"/>
<polygon fill="midnightblue" stroke="midnightblue" points="213.72,-28.79 219.38,-19.83 209.37,-23.31 213.72,-28.79"/>
</g>
<!-- Node9&#45;&gt;Node7 -->
<g id="edge11" class="edge">
<title>Node9&#45;&gt;Node7</title>
<path fill="none" stroke="midnightblue" d="M154.41,-56.08C147.34,-48.3 136.91,-36.8 128.35,-27.37"/>
<polygon fill="midnightblue" stroke="midnightblue" points="130.75,-24.8 121.44,-19.75 125.57,-29.51 130.75,-24.8"/>
</g>
<!-- Node9&#45;&gt;Node8 -->
<g id="edge13" class="edge">
<title>Node9&#45;&gt;Node8</title>
<path fill="none" stroke="midnightblue" d="M183.87,-59.42C217.51,-50.65 283.45,-33.45 326.99,-22.09"/>
<polygon fill="midnightblue" stroke="midnightblue" points="327.94,-25.46 336.73,-19.55 326.17,-18.69 327.94,-25.46"/>
</g>
<!-- Node10&#45;&gt;Node5 -->
<g id="edge16" class="edge">
<title>Node10&#45;&gt;Node5</title>
<path fill="none" stroke="midnightblue" d="M96.74,-112.3C102.21,-98.67 114.46,-72.16 132.5,-56 149.32,-40.93 172.05,-30.07 191.38,-22.8"/>
<polygon fill="midnightblue" stroke="midnightblue" points="192.6,-26.08 200.84,-19.42 190.25,-19.49 192.6,-26.08"/>
</g>
<!-- Node10&#45;&gt;Node7 -->
<g id="edge15" class="edge">
<title>Node10&#45;&gt;Node7</title>
<path fill="none" stroke="midnightblue" d="M83.81,-112.25C71.3,-99.83 52.19,-76.36 61.5,-56 67.28,-43.36 78.55,-32.91 89.13,-25.27"/>
<polygon fill="midnightblue" stroke="midnightblue" points="91.35,-28 97.72,-19.53 87.46,-22.18 91.35,-28"/>
</g>
<!-- Node10&#45;&gt;Node9 -->
<g id="edge17" class="edge">
<title>Node10&#45;&gt;Node9</title>
<path fill="none" stroke="midnightblue" d="M104.59,-112.32C114.99,-104.18 130.76,-91.84 143.22,-82.09"/>
<polygon fill="midnightblue" stroke="midnightblue" points="145.49,-84.75 151.21,-75.83 141.18,-79.24 145.49,-84.75"/>
</g>
<!-- Node11&#45;&gt;Node5 -->
<g id="edge19" class="edge">
<title>Node11&#45;&gt;Node5</title>
<path fill="none" stroke="midnightblue" d="M303.3,-112.14C294.5,-99.59 277.88,-75.97 263.5,-56 256.76,-46.65 249.16,-36.27 242.95,-27.84"/>
<polygon fill="midnightblue" stroke="midnightblue" points="245.62,-25.56 236.87,-19.6 239.99,-29.72 245.62,-25.56"/>
</g>
<!-- Node11&#45;&gt;Node8 -->
<g id="edge20" class="edge">
<title>Node11&#45;&gt;Node8</title>
<path fill="none" stroke="midnightblue" d="M315.9,-112.29C322.28,-103.41 332.16,-89.11 339.5,-76 348.12,-60.6 356.41,-42.28 362.08,-29.02"/>
<polygon fill="midnightblue" stroke="midnightblue" points="365.38,-30.2 366.03,-19.62 358.93,-27.49 365.38,-30.2"/>
</g>
<!-- Node11&#45;&gt;Node9 -->
<g id="edge21" class="edge">
<title>Node11&#45;&gt;Node9</title>
<path fill="none" stroke="midnightblue" d="M286.21,-112.44C261.12,-103.23 221.07,-88.52 193.37,-78.34"/>
<polygon fill="midnightblue" stroke="midnightblue" points="194.37,-74.98 183.77,-74.82 191.95,-81.55 194.37,-74.98"/>
</g>
<!-- Node12&#45;&gt;Node5 -->
<g id="edge23" class="edge">
<title>Node12&#45;&gt;Node5</title>
<path fill="none" stroke="midnightblue" d="M380.71,-112.37C352.74,-93.49 285.9,-48.38 251.6,-25.24"/>
<polygon fill="midnightblue" stroke="midnightblue" points="253.48,-22.28 243.23,-19.59 249.56,-28.09 253.48,-22.28"/>
</g>
<!-- Node12&#45;&gt;Node8 -->
<g id="edge24" class="edge">
<title>Node12&#45;&gt;Node8</title>
<path fill="none" stroke="midnightblue" d="M400.36,-112.44C409.56,-99.87 423.82,-75.77 415.5,-56 410.47,-44.05 400.56,-33.69 391.21,-25.93"/>
<polygon fill="midnightblue" stroke="midnightblue" points="393.34,-23.15 383.29,-19.81 389.06,-28.69 393.34,-23.15"/>
</g>
<!-- Node12&#45;&gt;Node9 -->
<g id="edge25" class="edge">
<title>Node12&#45;&gt;Node9</title>
<path fill="none" stroke="midnightblue" d="M359.91,-113.15C315.29,-102.72 237.06,-84.43 193.69,-74.29"/>
<polygon fill="midnightblue" stroke="midnightblue" points="194.24,-70.83 183.71,-71.96 192.65,-77.64 194.24,-70.83"/>
</g>
</g>
</svg>
