<?xml version="1.0" encoding="UTF-8" standalone="no"?>
<!DOCTYPE svg PUBLIC "-//W3C//DTD SVG 1.1//EN"
 "http://www.w3.org/Graphics/SVG/1.1/DTD/svg11.dtd">
<!-- Generated by graphviz version 2.49.3 (20211027.1534)
 -->
<!-- Title: src/main.c Pages: 1 -->
<svg width="1187pt" height="319pt"
 viewBox="0.00 0.00 1186.96 319.00" xmlns="http://www.w3.org/2000/svg" xmlns:xlink="http://www.w3.org/1999/xlink">
<g id="graph0" class="graph" transform="scale(1 1) rotate(0) translate(4 315)">
<title>src/main.c</title>
<!-- Node1 -->
<g id="node1" class="node">
<title>Node1</title>
<g id="a_node1"><a xlink:title=" ">
<polygon fill="#bfbfbf" stroke="black" points="492.5,-291.5 492.5,-310.5 554.5,-310.5 554.5,-291.5 492.5,-291.5"/>
<text text-anchor="middle" x="523.5" y="-298.5" font-family="Helvetica,sans-Serif" font-size="10.00">src/main.c</text>
</a>
</g>
</g>
<!-- Node2 -->
<g id="node2" class="node">
<title>Node2</title>
<g id="a_node2"><a xlink:href="main_8h.html" target="_top" xlink:title=" ">
<polygon fill="none" stroke="black" points="501,-235.5 501,-254.5 546,-254.5 546,-235.5 501,-235.5"/>
<text text-anchor="middle" x="523.5" y="-242.5" font-family="Helvetica,sans-Serif" font-size="10.00">main.h</text>
</a>
</g>
</g>
<!-- Node1&#45;&gt;Node2 -->
<g id="edge1" class="edge">
<title>Node1&#45;&gt;Node2</title>
<path fill="none" stroke="midnightblue" d="M523.5,-291.08C523.5,-284.01 523.5,-273.86 523.5,-264.99"/>
<polygon fill="midnightblue" stroke="midnightblue" points="527,-264.75 523.5,-254.75 520,-264.75 527,-264.75"/>
</g>
<!-- Node3 -->
<g id="node3" class="node">
<title>Node3</title>
<g id="a_node3"><a xlink:title=" ">
<polygon fill="none" stroke="#bfbfbf" points="128,-0.5 128,-19.5 175,-19.5 175,-0.5 128,-0.5"/>
<text text-anchor="middle" x="151.5" y="-7.5" font-family="Helvetica,sans-Serif" font-size="10.00">stdlib.h</text>
</a>
</g>
</g>
<!-- Node2&#45;&gt;Node3 -->
<g id="edge2" class="edge">
<title>Node2&#45;&gt;Node3</title>
<path fill="none" stroke="midnightblue" d="M500.82,-242.5C436.72,-237.99 255.37,-223.38 201.5,-199 166.76,-183.28 155.87,-175.85 136.5,-143 121.05,-116.8 125.63,-106.26 122.5,-76 121.59,-67.16 119.99,-64.53 122.5,-56 125.51,-45.76 131.65,-35.66 137.51,-27.63"/>
<polygon fill="midnightblue" stroke="midnightblue" points="140.43,-29.58 143.83,-19.54 134.91,-25.27 140.43,-29.58"/>
</g>
<!-- Node4 -->
<g id="node4" class="node">
<title>Node4</title>
<g id="a_node4"><a xlink:title=" ">
<polygon fill="none" stroke="#bfbfbf" points="0,-0.5 0,-19.5 45,-19.5 45,-0.5 0,-0.5"/>
<text text-anchor="middle" x="22.5" y="-7.5" font-family="Helvetica,sans-Serif" font-size="10.00">stdio.h</text>
</a>
</g>
</g>
<!-- Node2&#45;&gt;Node4 -->
<g id="edge3" class="edge">
<title>Node2&#45;&gt;Node4</title>
<path fill="none" stroke="midnightblue" d="M500.8,-243.47C430.95,-241.48 220.49,-232.77 162.5,-199 92.75,-158.38 47.04,-67.84 29.99,-29.13"/>
<polygon fill="midnightblue" stroke="midnightblue" points="33.09,-27.48 25.94,-19.67 26.66,-30.24 33.09,-27.48"/>
</g>
<!-- Node5 -->
<g id="node5" class="node">
<title>Node5</title>
<g id="a_node5"><a xlink:title=" ">
<polygon fill="none" stroke="#bfbfbf" points="603,-0.5 603,-19.5 662,-19.5 662,-0.5 603,-0.5"/>
<text text-anchor="middle" x="632.5" y="-7.5" font-family="Helvetica,sans-Serif" font-size="10.00">curl/curl.h</text>
</a>
</g>
</g>
<!-- Node2&#45;&gt;Node5 -->
<g id="edge4" class="edge">
<title>Node2&#45;&gt;Node5</title>
<path fill="none" stroke="midnightblue" d="M527.51,-235.43C543.36,-201.54 601.9,-76.42 623.99,-29.2"/>
<polygon fill="midnightblue" stroke="midnightblue" points="627.27,-30.44 628.34,-19.9 620.93,-27.47 627.27,-30.44"/>
</g>
<!-- Node6 -->
<g id="node6" class="node">
<title>Node6</title>
<g id="a_node6"><a xlink:href="ubidots_8h.html" target="_top" xlink:title=" ">
<polygon fill="none" stroke="black" points="627.5,-118 627.5,-137 719.5,-137 719.5,-118 627.5,-118"/>
<text text-anchor="middle" x="673.5" y="-125" font-family="Helvetica,sans-Serif" font-size="10.00">Ubidots/ubidots.h</text>
</a>
</g>
</g>
<!-- Node2&#45;&gt;Node6 -->
<g id="edge5" class="edge">
<title>Node2&#45;&gt;Node6</title>
<path fill="none" stroke="midnightblue" d="M534.77,-235.32C560.18,-215.75 622.18,-168.02 653.98,-143.53"/>
<polygon fill="midnightblue" stroke="midnightblue" points="656.31,-146.16 662.09,-137.28 652.04,-140.61 656.31,-146.16"/>
</g>
<!-- Node13 -->
<g id="node13" class="node">
<title>Node13</title>
<g id="a_node13"><a xlink:href="_willy_weather_2authenticate_8h.html" target="_top" xlink:title=" ">
<polygon fill="none" stroke="black" points="180,-56.5 180,-75.5 317,-75.5 317,-56.5 180,-56.5"/>
<text text-anchor="middle" x="248.5" y="-63.5" font-family="Helvetica,sans-Serif" font-size="10.00">WillyWeather/authenticate.h</text>
</a>
</g>
</g>
<!-- Node2&#45;&gt;Node13 -->
<g id="edge17" class="edge">
<title>Node2&#45;&gt;Node13</title>
<path fill="none" stroke="midnightblue" d="M500.94,-241.51C426.36,-232.79 189.97,-200.92 145.5,-143 137.11,-132.07 137.96,-123.53 145.5,-112 156,-95.95 173.63,-85.59 191.35,-78.92"/>
<polygon fill="midnightblue" stroke="midnightblue" points="192.83,-82.11 201.17,-75.58 190.57,-75.49 192.83,-82.11"/>
</g>
<!-- Node14 -->
<g id="node14" class="node">
<title>Node14</title>
<g id="a_node14"><a xlink:href="tide_8h.html" target="_top" xlink:title=" ">
<polygon fill="none" stroke="black" points="396,-179.5 396,-198.5 495,-198.5 495,-179.5 396,-179.5"/>
<text text-anchor="middle" x="445.5" y="-186.5" font-family="Helvetica,sans-Serif" font-size="10.00">WillyWeather/tide.h</text>
</a>
</g>
</g>
<!-- Node2&#45;&gt;Node14 -->
<g id="edge23" class="edge">
<title>Node2&#45;&gt;Node14</title>
<path fill="none" stroke="midnightblue" d="M510.97,-235.32C498.91,-226.98 480.47,-214.21 466.23,-204.35"/>
<polygon fill="midnightblue" stroke="midnightblue" points="468.22,-201.47 458,-198.65 464.23,-207.22 468.22,-201.47"/>
</g>
<!-- Node19 -->
<g id="node19" class="node">
<title>Node19</title>
<g id="a_node19"><a xlink:href="_i_b_m___e_i_s_2authenticate_8h.html" target="_top" xlink:title=" ">
<polygon fill="none" stroke="black" points="928,-118 928,-137 1047,-137 1047,-118 928,-118"/>
<text text-anchor="middle" x="987.5" y="-125" font-family="Helvetica,sans-Serif" font-size="10.00">IBM_EIS/authenticate.h</text>
</a>
</g>
</g>
<!-- Node2&#45;&gt;Node19 -->
<g id="edge42" class="edge">
<title>Node2&#45;&gt;Node19</title>
<path fill="none" stroke="midnightblue" d="M546.05,-243.62C620.8,-242.03 859.53,-234.24 926.5,-199 949.25,-187.03 967.25,-162.78 977.64,-146.09"/>
<polygon fill="midnightblue" stroke="midnightblue" points="980.77,-147.67 982.85,-137.29 974.75,-144.11 980.77,-147.67"/>
</g>
<!-- Node20 -->
<g id="node20" class="node">
<title>Node20</title>
<g id="a_node20"><a xlink:href="timeseries_8h.html" target="_top" xlink:title=" ">
<polygon fill="none" stroke="black" points="806,-179.5 806,-198.5 917,-198.5 917,-179.5 806,-179.5"/>
<text text-anchor="middle" x="861.5" y="-186.5" font-family="Helvetica,sans-Serif" font-size="10.00">IBM_EIS/timeseries.h</text>
</a>
</g>
</g>
<!-- Node2&#45;&gt;Node20 -->
<g id="edge47" class="edge">
<title>Node2&#45;&gt;Node20</title>
<path fill="none" stroke="midnightblue" d="M546.2,-240.37C597.06,-232.25 721.64,-212.34 798.1,-200.13"/>
<polygon fill="midnightblue" stroke="midnightblue" points="798.77,-203.57 808.1,-198.53 797.67,-196.65 798.77,-203.57"/>
</g>
<!-- Node21 -->
<g id="node21" class="node">
<title>Node21</title>
<g id="a_node21"><a xlink:href="food__auth_8h.html" target="_top" xlink:title=" ">
<polygon fill="none" stroke="black" points="1065.5,-112.5 1065.5,-142.5 1163.5,-142.5 1163.5,-112.5 1065.5,-112.5"/>
<text text-anchor="start" x="1073.5" y="-130.5" font-family="Helvetica,sans-Serif" font-size="10.00">FoodAuthority/food</text>
<text text-anchor="middle" x="1114.5" y="-119.5" font-family="Helvetica,sans-Serif" font-size="10.00">_auth.h</text>
</a>
</g>
</g>
<!-- Node2&#45;&gt;Node21 -->
<g id="edge54" class="edge">
<title>Node2&#45;&gt;Node21</title>
<path fill="none" stroke="midnightblue" d="M546.27,-244.04C610.99,-243.63 801.14,-238.86 952.5,-199 998.39,-186.91 1047.99,-163.68 1080.05,-147.2"/>
<polygon fill="midnightblue" stroke="midnightblue" points="1081.76,-150.25 1089.01,-142.53 1078.52,-144.04 1081.76,-150.25"/>
</g>
<!-- Node6&#45;&gt;Node5 -->
<g id="edge7" class="edge">
<title>Node6&#45;&gt;Node5</title>
<path fill="none" stroke="midnightblue" d="M670.42,-117.82C663.77,-99.09 647.96,-54.55 638.99,-29.29"/>
<polygon fill="midnightblue" stroke="midnightblue" points="642.26,-28.04 635.62,-19.78 635.66,-30.38 642.26,-28.04"/>
</g>
<!-- Node7 -->
<g id="node7" class="node">
<title>Node7</title>
<g id="a_node7"><a xlink:title=" ">
<polygon fill="none" stroke="#bfbfbf" points="321.5,-0.5 321.5,-19.5 369.5,-19.5 369.5,-0.5 321.5,-0.5"/>
<text text-anchor="middle" x="345.5" y="-7.5" font-family="Helvetica,sans-Serif" font-size="10.00">string.h</text>
</a>
</g>
</g>
<!-- Node6&#45;&gt;Node7 -->
<g id="edge6" class="edge">
<title>Node6&#45;&gt;Node7</title>
<path fill="none" stroke="midnightblue" d="M649.11,-117.91C591.22,-97.52 445.37,-46.17 379.15,-22.85"/>
<polygon fill="midnightblue" stroke="midnightblue" points="380.2,-19.51 369.6,-19.49 377.87,-26.11 380.2,-19.51"/>
</g>
<!-- Node8 -->
<g id="node8" class="node">
<title>Node8</title>
<g id="a_node8"><a xlink:title=" ">
<polygon fill="none" stroke="#bfbfbf" points="680,-0.5 680,-19.5 763,-19.5 763,-0.5 680,-0.5"/>
<text text-anchor="middle" x="721.5" y="-7.5" font-family="Helvetica,sans-Serif" font-size="10.00">cjson/cJSON.h</text>
</a>
</g>
</g>
<!-- Node6&#45;&gt;Node8 -->
<g id="edge8" class="edge">
<title>Node6&#45;&gt;Node8</title>
<path fill="none" stroke="midnightblue" d="M687.88,-117.98C700.98,-109.29 719.48,-94.49 727.5,-76 733.84,-61.38 731.41,-43.21 727.92,-29.8"/>
<polygon fill="midnightblue" stroke="midnightblue" points="731.16,-28.4 724.92,-19.84 724.46,-30.42 731.16,-28.4"/>
</g>
<!-- Node9 -->
<g id="node9" class="node">
<title>Node9</title>
<g id="a_node9"><a xlink:href="utils_8h.html" target="_top" xlink:title=" ">
<polygon fill="none" stroke="black" points="779.5,-56.5 779.5,-75.5 821.5,-75.5 821.5,-56.5 779.5,-56.5"/>
<text text-anchor="middle" x="800.5" y="-63.5" font-family="Helvetica,sans-Serif" font-size="10.00">utils.h</text>
</a>
</g>
</g>
<!-- Node6&#45;&gt;Node9 -->
<g id="edge9" class="edge">
<title>Node6&#45;&gt;Node9</title>
<path fill="none" stroke="midnightblue" d="M691.7,-117.98C713.01,-107.99 748.53,-91.35 773.16,-79.81"/>
<polygon fill="midnightblue" stroke="midnightblue" points="774.77,-82.92 782.34,-75.51 771.8,-76.58 774.77,-82.92"/>
</g>
<!-- Node9&#45;&gt;Node3 -->
<g id="edge10" class="edge">
<title>Node9&#45;&gt;Node3</title>
<path fill="none" stroke="midnightblue" d="M779.28,-63.23C684.79,-55.37 301.98,-23.52 185.37,-13.82"/>
<polygon fill="midnightblue" stroke="midnightblue" points="185.5,-10.32 175.25,-12.98 184.92,-17.29 185.5,-10.32"/>
</g>
<!-- Node9&#45;&gt;Node5 -->
<g id="edge12" class="edge">
<title>Node9&#45;&gt;Node5</title>
<path fill="none" stroke="midnightblue" d="M779.22,-58.16C751.54,-49.26 702.73,-33.57 669.06,-22.75"/>
<polygon fill="midnightblue" stroke="midnightblue" points="669.73,-19.29 659.13,-19.56 667.58,-25.95 669.73,-19.29"/>
</g>
<!-- Node9&#45;&gt;Node7 -->
<g id="edge11" class="edge">
<title>Node9&#45;&gt;Node7</title>
<path fill="none" stroke="midnightblue" d="M779.47,-62.5C707.25,-53.93 468.95,-25.65 379.67,-15.06"/>
<polygon fill="midnightblue" stroke="midnightblue" points="379.89,-11.56 369.55,-13.85 379.06,-18.51 379.89,-11.56"/>
</g>
<!-- Node9&#45;&gt;Node8 -->
<g id="edge13" class="edge">
<title>Node9&#45;&gt;Node8</title>
<path fill="none" stroke="midnightblue" d="M787.81,-56.32C775.6,-47.98 756.92,-35.21 742.5,-25.35"/>
<polygon fill="midnightblue" stroke="midnightblue" points="744.39,-22.41 734.16,-19.65 740.44,-28.19 744.39,-22.41"/>
</g>
<!-- Node10 -->
<g id="node10" class="node">
<title>Node10</title>
<g id="a_node10"><a xlink:title=" ">
<polygon fill="none" stroke="#bfbfbf" points="846,-0.5 846,-19.5 905,-19.5 905,-0.5 846,-0.5"/>
<text text-anchor="middle" x="875.5" y="-7.5" font-family="Helvetica,sans-Serif" font-size="10.00">sys/stat.h</text>
</a>
</g>
</g>
<!-- Node9&#45;&gt;Node10 -->
<g id="edge14" class="edge">
<title>Node9&#45;&gt;Node10</title>
<path fill="none" stroke="midnightblue" d="M812.55,-56.32C823.96,-48.11 841.33,-35.6 854.93,-25.81"/>
<polygon fill="midnightblue" stroke="midnightblue" points="857.16,-28.52 863.23,-19.83 853.07,-22.84 857.16,-28.52"/>
</g>
<!-- Node11 -->
<g id="node11" class="node">
<title>Node11</title>
<g id="a_node11"><a xlink:title=" ">
<polygon fill="none" stroke="#bfbfbf" points="923,-0.5 923,-19.5 988,-19.5 988,-0.5 923,-0.5"/>
<text text-anchor="middle" x="955.5" y="-7.5" font-family="Helvetica,sans-Serif" font-size="10.00">sys/types.h</text>
</a>
</g>
</g>
<!-- Node9&#45;&gt;Node11 -->
<g id="edge15" class="edge">
<title>Node9&#45;&gt;Node11</title>
<path fill="none" stroke="midnightblue" d="M821.73,-57.6C847.35,-48.68 890.78,-33.55 921.19,-22.95"/>
<polygon fill="midnightblue" stroke="midnightblue" points="922.66,-26.15 930.96,-19.55 920.36,-19.54 922.66,-26.15"/>
</g>
<!-- Node12 -->
<g id="node12" class="node">
<title>Node12</title>
<g id="a_node12"><a xlink:title=" ">
<polygon fill="none" stroke="#bfbfbf" points="781.5,-0.5 781.5,-19.5 827.5,-19.5 827.5,-0.5 781.5,-0.5"/>
<text text-anchor="middle" x="804.5" y="-7.5" font-family="Helvetica,sans-Serif" font-size="10.00">errno.h</text>
</a>
</g>
</g>
<!-- Node9&#45;&gt;Node12 -->
<g id="edge16" class="edge">
<title>Node9&#45;&gt;Node12</title>
<path fill="none" stroke="midnightblue" d="M801.16,-56.08C801.68,-49.01 802.44,-38.86 803.09,-29.99"/>
<polygon fill="midnightblue" stroke="midnightblue" points="806.6,-29.98 803.85,-19.75 799.62,-29.47 806.6,-29.98"/>
</g>
<!-- Node13&#45;&gt;Node3 -->
<g id="edge19" class="edge">
<title>Node13&#45;&gt;Node3</title>
<path fill="none" stroke="midnightblue" d="M232.92,-56.32C217.5,-47.74 193.69,-34.49 175.79,-24.52"/>
<polygon fill="midnightblue" stroke="midnightblue" points="177.49,-21.46 167.05,-19.65 174.08,-27.58 177.49,-21.46"/>
</g>
<!-- Node13&#45;&gt;Node4 -->
<g id="edge20" class="edge">
<title>Node13&#45;&gt;Node4</title>
<path fill="none" stroke="midnightblue" d="M212.69,-56.44C169.32,-46.08 96.88,-28.77 55.04,-18.77"/>
<polygon fill="midnightblue" stroke="midnightblue" points="55.63,-15.32 45.1,-16.4 54.01,-22.13 55.63,-15.32"/>
</g>
<!-- Node13&#45;&gt;Node5 -->
<g id="edge22" class="edge">
<title>Node13&#45;&gt;Node5</title>
<path fill="none" stroke="midnightblue" d="M309.35,-56.44C388.64,-45.29 525.1,-26.1 592.47,-16.63"/>
<polygon fill="midnightblue" stroke="midnightblue" points="593.26,-20.05 602.67,-15.19 592.28,-13.12 593.26,-20.05"/>
</g>
<!-- Node13&#45;&gt;Node7 -->
<g id="edge18" class="edge">
<title>Node13&#45;&gt;Node7</title>
<path fill="none" stroke="midnightblue" d="M264.08,-56.32C279.5,-47.74 303.31,-34.49 321.21,-24.52"/>
<polygon fill="midnightblue" stroke="midnightblue" points="322.92,-27.58 329.95,-19.65 319.51,-21.46 322.92,-27.58"/>
</g>
<!-- Node13&#45;&gt;Node8 -->
<g id="edge21" class="edge">
<title>Node13&#45;&gt;Node8</title>
<path fill="none" stroke="midnightblue" d="M317.19,-59.23C398.91,-52.01 539.66,-38.51 669.66,-20.18"/>
<polygon fill="midnightblue" stroke="midnightblue" points="670.39,-23.61 679.79,-18.74 669.4,-16.68 670.39,-23.61"/>
</g>
<!-- Node14&#45;&gt;Node3 -->
<g id="edge25" class="edge">
<title>Node14&#45;&gt;Node3</title>
<path fill="none" stroke="midnightblue" d="M395.91,-188.3C317.26,-187.59 169.44,-181.08 136.5,-143 108.68,-110.84 128.71,-56.54 142.1,-28.67"/>
<polygon fill="midnightblue" stroke="midnightblue" points="145.25,-30.19 146.63,-19.69 139,-27.04 145.25,-30.19"/>
</g>
<!-- Node14&#45;&gt;Node5 -->
<g id="edge28" class="edge">
<title>Node14&#45;&gt;Node5</title>
<path fill="none" stroke="midnightblue" d="M452.12,-179.12C463.23,-164.45 486.67,-134.55 509.5,-112 543.44,-78.48 587.54,-44.23 612.67,-25.49"/>
<polygon fill="midnightblue" stroke="midnightblue" points="614.76,-28.29 620.71,-19.53 610.59,-22.67 614.76,-28.29"/>
</g>
<!-- Node14&#45;&gt;Node7 -->
<g id="edge24" class="edge">
<title>Node14&#45;&gt;Node7</title>
<path fill="none" stroke="midnightblue" d="M395.79,-188.05C319.03,-186.94 177.2,-179.81 145.5,-143 125,-119.2 168.9,-57.35 170.5,-56 210.48,-22.24 272.66,-13.37 311.14,-11.29"/>
<polygon fill="midnightblue" stroke="midnightblue" points="311.48,-14.77 321.32,-10.86 311.19,-7.78 311.48,-14.77"/>
</g>
<!-- Node14&#45;&gt;Node8 -->
<g id="edge29" class="edge">
<title>Node14&#45;&gt;Node8</title>
<path fill="none" stroke="midnightblue" d="M458.81,-179.46C502.89,-151.2 644.38,-60.46 699.36,-25.2"/>
<polygon fill="midnightblue" stroke="midnightblue" points="701.47,-28 708,-19.66 697.69,-22.11 701.47,-28"/>
</g>
<!-- Node14&#45;&gt;Node9 -->
<g id="edge41" class="edge">
<title>Node14&#45;&gt;Node9</title>
<path fill="none" stroke="midnightblue" d="M495.04,-183.98C565.07,-177.64 688.89,-163.88 728.5,-143 754.79,-129.14 776.87,-101.99 789.39,-84.17"/>
<polygon fill="midnightblue" stroke="midnightblue" points="792.33,-86.07 795.04,-75.82 786.53,-82.14 792.33,-86.07"/>
</g>
<!-- Node14&#45;&gt;Node13 -->
<g id="edge30" class="edge">
<title>Node14&#45;&gt;Node13</title>
<path fill="none" stroke="midnightblue" d="M395.91,-187.75C321.36,-186.21 185.87,-178.45 155.5,-143 146.54,-132.54 148.18,-123.67 155.5,-112 165.38,-96.25 182.5,-85.87 199.39,-79.11"/>
<polygon fill="midnightblue" stroke="midnightblue" points="201.04,-82.23 209.25,-75.52 198.65,-75.65 201.04,-82.23"/>
</g>
<!-- Node15 -->
<g id="node15" class="node">
<title>Node15</title>
<g id="a_node15"><a xlink:title=" ">
<polygon fill="none" stroke="#bfbfbf" points="411.5,-56.5 411.5,-75.5 457.5,-75.5 457.5,-56.5 411.5,-56.5"/>
<text text-anchor="middle" x="434.5" y="-63.5" font-family="Helvetica,sans-Serif" font-size="10.00">math.h</text>
</a>
</g>
</g>
<!-- Node14&#45;&gt;Node15 -->
<g id="edge26" class="edge">
<title>Node14&#45;&gt;Node15</title>
<path fill="none" stroke="midnightblue" d="M444.71,-179.3C442.94,-159.85 438.64,-112.49 436.22,-85.9"/>
<polygon fill="midnightblue" stroke="midnightblue" points="439.67,-85.27 435.28,-75.62 432.7,-85.9 439.67,-85.27"/>
</g>
<!-- Node16 -->
<g id="node16" class="node">
<title>Node16</title>
<g id="a_node16"><a xlink:title=" ">
<polygon fill="none" stroke="#bfbfbf" points="859,-56.5 859,-75.5 902,-75.5 902,-56.5 859,-56.5"/>
<text text-anchor="middle" x="880.5" y="-63.5" font-family="Helvetica,sans-Serif" font-size="10.00">time.h</text>
</a>
</g>
</g>
<!-- Node14&#45;&gt;Node16 -->
<g id="edge27" class="edge">
<title>Node14&#45;&gt;Node16</title>
<path fill="none" stroke="midnightblue" d="M495.09,-187.3C558.5,-184.99 670.83,-176.06 760.5,-143 799.92,-128.47 840.03,-99.61 862.44,-81.94"/>
<polygon fill="midnightblue" stroke="midnightblue" points="864.79,-84.54 870.39,-75.55 860.4,-79.09 864.79,-84.54"/>
</g>
<!-- Node17 -->
<g id="node17" class="node">
<title>Node17</title>
<g id="a_node17"><a xlink:href="location_8h.html" target="_top" xlink:title=" ">
<polygon fill="none" stroke="black" points="302,-118 302,-137 419,-137 419,-118 302,-118"/>
<text text-anchor="middle" x="360.5" y="-125" font-family="Helvetica,sans-Serif" font-size="10.00">WillyWeather/location.h</text>
</a>
</g>
</g>
<!-- Node14&#45;&gt;Node17 -->
<g id="edge31" class="edge">
<title>Node14&#45;&gt;Node17</title>
<path fill="none" stroke="midnightblue" d="M433.32,-179.48C419.69,-169.93 397.37,-154.31 381.03,-142.87"/>
<polygon fill="midnightblue" stroke="midnightblue" points="382.86,-139.88 372.66,-137.01 378.84,-145.61 382.86,-139.88"/>
</g>
<!-- Node18 -->
<g id="node18" class="node">
<title>Node18</title>
<g id="a_node18"><a xlink:href="forecast_8h.html" target="_top" xlink:title=" ">
<polygon fill="none" stroke="black" points="165,-118 165,-137 284,-137 284,-118 165,-118"/>
<text text-anchor="middle" x="224.5" y="-125" font-family="Helvetica,sans-Serif" font-size="10.00">WillyWeather/forecast.h</text>
</a>
</g>
</g>
<!-- Node14&#45;&gt;Node18 -->
<g id="edge40" class="edge">
<title>Node14&#45;&gt;Node18</title>
<path fill="none" stroke="midnightblue" d="M413.84,-179.48C374.94,-169 308.86,-151.21 265.95,-139.66"/>
<polygon fill="midnightblue" stroke="midnightblue" points="266.67,-136.23 256.11,-137.01 264.85,-142.99 266.67,-136.23"/>
</g>
<!-- Node17&#45;&gt;Node3 -->
<g id="edge33" class="edge">
<title>Node17&#45;&gt;Node3</title>
<path fill="none" stroke="midnightblue" d="M320.03,-117.96C267.51,-106.54 181.28,-86.52 170.5,-76 158.28,-64.08 153.81,-44.77 152.23,-30.29"/>
<polygon fill="midnightblue" stroke="midnightblue" points="155.7,-29.67 151.49,-19.95 148.71,-30.17 155.7,-29.67"/>
</g>
<!-- Node17&#45;&gt;Node4 -->
<g id="edge34" class="edge">
<title>Node17&#45;&gt;Node4</title>
<path fill="none" stroke="midnightblue" d="M321.21,-117.94C270.41,-106.68 184.86,-87.05 154.5,-76 115.16,-61.69 72.1,-39.06 46.2,-24.63"/>
<polygon fill="midnightblue" stroke="midnightblue" points="47.9,-21.58 37.47,-19.72 44.47,-27.68 47.9,-21.58"/>
</g>
<!-- Node17&#45;&gt;Node5 -->
<g id="edge37" class="edge">
<title>Node17&#45;&gt;Node5</title>
<path fill="none" stroke="midnightblue" d="M363.02,-117.97C367.95,-102.87 380.37,-71.58 402.5,-56 432.65,-34.78 535.37,-21.05 592.81,-14.84"/>
<polygon fill="midnightblue" stroke="midnightblue" points="593.4,-18.3 602.98,-13.77 592.67,-11.34 593.4,-18.3"/>
</g>
<!-- Node17&#45;&gt;Node7 -->
<g id="edge32" class="edge">
<title>Node17&#45;&gt;Node7</title>
<path fill="none" stroke="midnightblue" d="M359.37,-117.82C356.96,-99.26 351.26,-55.34 347.96,-29.97"/>
<polygon fill="midnightblue" stroke="midnightblue" points="351.4,-29.25 346.64,-19.78 344.46,-30.15 351.4,-29.25"/>
</g>
<!-- Node17&#45;&gt;Node8 -->
<g id="edge36" class="edge">
<title>Node17&#45;&gt;Node8</title>
<path fill="none" stroke="midnightblue" d="M387.34,-117.91C451.17,-97.49 612.11,-46 684.83,-22.73"/>
<polygon fill="midnightblue" stroke="midnightblue" points="686.03,-26.02 694.48,-19.64 683.89,-19.36 686.03,-26.02"/>
</g>
<!-- Node17&#45;&gt;Node9 -->
<g id="edge39" class="edge">
<title>Node17&#45;&gt;Node9</title>
<path fill="none" stroke="midnightblue" d="M419.38,-118.54C514.02,-105.74 696.7,-81.04 769.48,-71.2"/>
<polygon fill="midnightblue" stroke="midnightblue" points="769.95,-74.66 779.39,-69.85 769.01,-67.73 769.95,-74.66"/>
</g>
<!-- Node17&#45;&gt;Node13 -->
<g id="edge38" class="edge">
<title>Node17&#45;&gt;Node13</title>
<path fill="none" stroke="midnightblue" d="M344.45,-117.98C325.91,-108.12 295.16,-91.79 273.48,-80.27"/>
<polygon fill="midnightblue" stroke="midnightblue" points="274.99,-77.11 264.52,-75.51 271.71,-83.29 274.99,-77.11"/>
</g>
<!-- Node17&#45;&gt;Node15 -->
<g id="edge35" class="edge">
<title>Node17&#45;&gt;Node15</title>
<path fill="none" stroke="midnightblue" d="M371.1,-117.98C382.75,-108.61 401.69,-93.38 415.83,-82.01"/>
<polygon fill="midnightblue" stroke="midnightblue" points="418.32,-84.5 423.92,-75.51 413.93,-79.05 418.32,-84.5"/>
</g>
<!-- Node19&#45;&gt;Node5 -->
<g id="edge43" class="edge">
<title>Node19&#45;&gt;Node5</title>
<path fill="none" stroke="midnightblue" d="M981.09,-117.81C969.25,-102.48 942.31,-70.82 911.5,-56 817.15,-10.61 779.67,-38.4 672.19,-19.92"/>
<polygon fill="midnightblue" stroke="midnightblue" points="672.72,-16.46 662.26,-18.12 671.47,-23.35 672.72,-16.46"/>
</g>
<!-- Node19&#45;&gt;Node8 -->
<g id="edge44" class="edge">
<title>Node19&#45;&gt;Node8</title>
<path fill="none" stroke="midnightblue" d="M984.85,-117.97C979.69,-102.89 966.81,-71.63 944.5,-56 937.46,-51.07 836.76,-32.01 773.12,-20.34"/>
<polygon fill="midnightblue" stroke="midnightblue" points="773.71,-16.89 763.24,-18.53 772.45,-23.78 773.71,-16.89"/>
</g>
<!-- Node19&#45;&gt;Node9 -->
<g id="edge46" class="edge">
<title>Node19&#45;&gt;Node9</title>
<path fill="none" stroke="midnightblue" d="M960.71,-117.98C926.61,-107.12 867.8,-88.41 831.71,-76.93"/>
<polygon fill="midnightblue" stroke="midnightblue" points="832.32,-73.45 821.73,-73.76 830.2,-80.12 832.32,-73.45"/>
</g>
<!-- Node19&#45;&gt;Node16 -->
<g id="edge45" class="edge">
<title>Node19&#45;&gt;Node16</title>
<path fill="none" stroke="midnightblue" d="M972.17,-117.98C954.53,-108.17 925.34,-91.93 904.64,-80.42"/>
<polygon fill="midnightblue" stroke="midnightblue" points="906.24,-77.31 895.8,-75.51 902.84,-83.43 906.24,-77.31"/>
</g>
<!-- Node20&#45;&gt;Node5 -->
<g id="edge48" class="edge">
<title>Node20&#45;&gt;Node5</title>
<path fill="none" stroke="midnightblue" d="M850.45,-179.46C814.11,-151.37 697.94,-61.58 651.73,-25.86"/>
<polygon fill="midnightblue" stroke="midnightblue" points="653.76,-23.01 643.7,-19.66 649.47,-28.54 653.76,-23.01"/>
</g>
<!-- Node20&#45;&gt;Node8 -->
<g id="edge49" class="edge">
<title>Node20&#45;&gt;Node8</title>
<path fill="none" stroke="midnightblue" d="M917.29,-188.29C997.71,-187.39 1140.14,-180.38 1172.5,-143 1181.52,-132.58 1180.55,-123.18 1172.5,-112 1067.84,33.48 956.46,-46.83 773.15,-19.99"/>
<polygon fill="midnightblue" stroke="midnightblue" points="773.66,-16.52 763.24,-18.44 772.58,-23.44 773.66,-16.52"/>
</g>
<!-- Node20&#45;&gt;Node9 -->
<g id="edge53" class="edge">
<title>Node20&#45;&gt;Node9</title>
<path fill="none" stroke="midnightblue" d="M859.85,-179.13C856.88,-164.49 849.77,-134.62 837.5,-112 831.79,-101.46 823.43,-91.04 816.11,-82.88"/>
<polygon fill="midnightblue" stroke="midnightblue" points="818.65,-80.48 809.27,-75.56 813.54,-85.25 818.65,-80.48"/>
</g>
<!-- Node20&#45;&gt;Node15 -->
<g id="edge50" class="edge">
<title>Node20&#45;&gt;Node15</title>
<path fill="none" stroke="midnightblue" d="M805.72,-181.04C755.95,-174.05 681.45,-161.61 618.5,-143 560.63,-125.9 496.12,-96.77 460.93,-79.98"/>
<polygon fill="midnightblue" stroke="midnightblue" points="462.35,-76.78 451.82,-75.59 459.31,-83.08 462.35,-76.78"/>
</g>
<!-- Node20&#45;&gt;Node16 -->
<g id="edge51" class="edge">
<title>Node20&#45;&gt;Node16</title>
<path fill="none" stroke="midnightblue" d="M864.92,-179.19C868.24,-170.23 873.11,-155.87 875.5,-143 879.08,-123.73 880.19,-101.3 880.49,-85.82"/>
<polygon fill="midnightblue" stroke="midnightblue" points="883.99,-85.55 880.59,-75.52 876.99,-85.48 883.99,-85.55"/>
</g>
<!-- Node20&#45;&gt;Node19 -->
<g id="edge52" class="edge">
<title>Node20&#45;&gt;Node19</title>
<path fill="none" stroke="midnightblue" d="M879.55,-179.48C900.7,-169.49 935.94,-152.85 960.38,-141.31"/>
<polygon fill="midnightblue" stroke="midnightblue" points="961.93,-144.44 969.48,-137.01 958.94,-138.11 961.93,-144.44"/>
</g>
<!-- Node21&#45;&gt;Node5 -->
<g id="edge55" class="edge">
<title>Node21&#45;&gt;Node5</title>
<path fill="none" stroke="midnightblue" d="M1075.52,-112.4C1049.08,-102.64 1013.46,-89.1 982.5,-76 963.09,-67.78 959.73,-61.91 939.5,-56 827.19,-23.16 791.61,-40.56 672.14,-19.93"/>
<polygon fill="midnightblue" stroke="midnightblue" points="672.71,-16.47 662.25,-18.17 671.48,-23.37 672.71,-16.47"/>
</g>
<!-- Node21&#45;&gt;Node8 -->
<g id="edge56" class="edge">
<title>Node21&#45;&gt;Node8</title>
<path fill="none" stroke="midnightblue" d="M1090.36,-112.44C1061.9,-96.46 1012.73,-70.69 967.5,-56 962.87,-54.5 843.89,-32.99 773.12,-20.27"/>
<polygon fill="midnightblue" stroke="midnightblue" points="773.51,-16.78 763.05,-18.46 772.27,-23.67 773.51,-16.78"/>
</g>
<!-- Node21&#45;&gt;Node9 -->
<g id="edge58" class="edge">
<title>Node21&#45;&gt;Node9</title>
<path fill="none" stroke="midnightblue" d="M1065.2,-113.92C1062.26,-113.25 1059.34,-112.6 1056.5,-112 965.58,-92.72 942.01,-92.23 850.5,-76 844.49,-74.93 838.08,-73.79 831.92,-72.68"/>
<polygon fill="midnightblue" stroke="midnightblue" points="832.37,-69.21 821.91,-70.88 831.13,-76.09 832.37,-69.21"/>
</g>
<!-- Node21&#45;&gt;Node16 -->
<g id="edge57" class="edge">
<title>Node21&#45;&gt;Node16</title>
<path fill="none" stroke="midnightblue" d="M1065.45,-114.03C1019.19,-102.27 951.25,-84.99 911.88,-74.98"/>
<polygon fill="midnightblue" stroke="midnightblue" points="912.6,-71.55 902.05,-72.48 910.88,-78.34 912.6,-71.55"/>
</g>
</g>
</svg>
