<?xml version="1.0" encoding="UTF-8" standalone="no"?>
<!DOCTYPE svg PUBLIC "-//W3C//DTD SVG 1.1//EN"
 "http://www.w3.org/Graphics/SVG/1.1/DTD/svg11.dtd">
<!-- Generated by graphviz version 2.49.3 (20211027.1534)
 -->
<!-- Title: src/main.c Pages: 1 -->
<svg width="1116pt" height="319pt"
 viewBox="0.00 0.00 1115.93 319.00" xmlns="http://www.w3.org/2000/svg" xmlns:xlink="http://www.w3.org/1999/xlink">
<g id="graph0" class="graph" transform="scale(1 1) rotate(0) translate(4 315)">
<title>src/main.c</title>
<!-- Node1 -->
<g id="node1" class="node">
<title>Node1</title>
<g id="a_node1"><a xlink:title=" ">
<polygon fill="#bfbfbf" stroke="black" points="508.43,-291.5 508.43,-310.5 570.43,-310.5 570.43,-291.5 508.43,-291.5"/>
<text text-anchor="middle" x="539.43" y="-298.5" font-family="Helvetica,sans-Serif" font-size="10.00">src/main.c</text>
</a>
</g>
</g>
<!-- Node2 -->
<g id="node2" class="node">
<title>Node2</title>
<g id="a_node2"><a xlink:href="main_8h.html" target="_top" xlink:title=" ">
<polygon fill="none" stroke="black" points="516.93,-235.5 516.93,-254.5 561.93,-254.5 561.93,-235.5 516.93,-235.5"/>
<text text-anchor="middle" x="539.43" y="-242.5" font-family="Helvetica,sans-Serif" font-size="10.00">main.h</text>
</a>
</g>
</g>
<!-- Node1&#45;&gt;Node2 -->
<g id="edge1" class="edge">
<title>Node1&#45;&gt;Node2</title>
<path fill="none" stroke="midnightblue" d="M539.43,-291.08C539.43,-284.01 539.43,-273.86 539.43,-264.99"/>
<polygon fill="midnightblue" stroke="midnightblue" points="542.93,-264.75 539.43,-254.75 535.93,-264.75 542.93,-264.75"/>
</g>
<!-- Node3 -->
<g id="node3" class="node">
<title>Node3</title>
<g id="a_node3"><a xlink:title=" ">
<polygon fill="none" stroke="#bfbfbf" points="926.93,-0.5 926.93,-19.5 973.93,-19.5 973.93,-0.5 926.93,-0.5"/>
<text text-anchor="middle" x="950.43" y="-7.5" font-family="Helvetica,sans-Serif" font-size="10.00">stdlib.h</text>
</a>
</g>
</g>
<!-- Node2&#45;&gt;Node3 -->
<g id="edge2" class="edge">
<title>Node2&#45;&gt;Node3</title>
<path fill="none" stroke="midnightblue" d="M562.03,-243.78C631.57,-242.16 846.58,-229.98 994.43,-143 1036.03,-118.53 1086.27,-96.12 1059.43,-56 1042.82,-31.17 1009.74,-20.03 984.36,-15.04"/>
<polygon fill="midnightblue" stroke="midnightblue" points="984.82,-11.56 974.37,-13.3 983.62,-18.46 984.82,-11.56"/>
</g>
<!-- Node4 -->
<g id="node4" class="node">
<title>Node4</title>
<g id="a_node4"><a xlink:title=" ">
<polygon fill="none" stroke="#bfbfbf" points="1062.93,-0.5 1062.93,-19.5 1107.93,-19.5 1107.93,-0.5 1062.93,-0.5"/>
<text text-anchor="middle" x="1085.43" y="-7.5" font-family="Helvetica,sans-Serif" font-size="10.00">stdio.h</text>
</a>
</g>
</g>
<!-- Node2&#45;&gt;Node4 -->
<g id="edge3" class="edge">
<title>Node2&#45;&gt;Node4</title>
<path fill="none" stroke="midnightblue" d="M562.16,-243.5C620.32,-241.74 778.9,-233.86 905.43,-199 964.91,-182.62 985.35,-182.86 1032.43,-143 1059.62,-119.98 1063.91,-109.35 1076.43,-76 1082.01,-61.15 1084.18,-43.23 1085,-29.97"/>
<polygon fill="midnightblue" stroke="midnightblue" points="1088.51,-29.85 1085.43,-19.71 1081.52,-29.56 1088.51,-29.85"/>
</g>
<!-- Node5 -->
<g id="node5" class="node">
<title>Node5</title>
<g id="a_node5"><a xlink:title=" ">
<polygon fill="none" stroke="#bfbfbf" points="280.93,-0.5 280.93,-19.5 339.93,-19.5 339.93,-0.5 280.93,-0.5"/>
<text text-anchor="middle" x="310.43" y="-7.5" font-family="Helvetica,sans-Serif" font-size="10.00">curl/curl.h</text>
</a>
</g>
</g>
<!-- Node2&#45;&gt;Node5 -->
<g id="edge4" class="edge">
<title>Node2&#45;&gt;Node5</title>
<path fill="none" stroke="midnightblue" d="M516.87,-243.41C423.82,-240.45 71.64,-223.99 5.43,-143 -14.96,-118.05 31.28,-56.12 31.43,-56 68.38,-28.03 202.7,-16.84 270.59,-12.89"/>
<polygon fill="midnightblue" stroke="midnightblue" points="271.1,-16.37 280.89,-12.32 270.71,-9.38 271.1,-16.37"/>
</g>
<!-- Node6 -->
<g id="node6" class="node">
<title>Node6</title>
<g id="a_node6"><a xlink:href="ubidots_8h.html" target="_top" xlink:title=" ">
<polygon fill="none" stroke="black" points="493.43,-118 493.43,-137 585.43,-137 585.43,-118 493.43,-118"/>
<text text-anchor="middle" x="539.43" y="-125" font-family="Helvetica,sans-Serif" font-size="10.00">Ubidots/ubidots.h</text>
</a>
</g>
</g>
<!-- Node2&#45;&gt;Node6 -->
<g id="edge5" class="edge">
<title>Node2&#45;&gt;Node6</title>
<path fill="none" stroke="midnightblue" d="M539.43,-235.32C539.43,-216.76 539.43,-172.84 539.43,-147.47"/>
<polygon fill="midnightblue" stroke="midnightblue" points="542.93,-147.28 539.43,-137.28 535.93,-147.28 542.93,-147.28"/>
</g>
<!-- Node10 -->
<g id="node10" class="node">
<title>Node10</title>
<g id="a_node10"><a xlink:href="_willy_weather_2authenticate_8h.html" target="_top" xlink:title=" ">
<polygon fill="none" stroke="black" points="881.93,-56.5 881.93,-75.5 1018.93,-75.5 1018.93,-56.5 881.93,-56.5"/>
<text text-anchor="middle" x="950.43" y="-63.5" font-family="Helvetica,sans-Serif" font-size="10.00">WillyWeather/authenticate.h</text>
</a>
</g>
</g>
<!-- Node2&#45;&gt;Node10 -->
<g id="edge14" class="edge">
<title>Node2&#45;&gt;Node10</title>
<path fill="none" stroke="midnightblue" d="M562.32,-241.04C618.47,-232.96 766.09,-206.72 870.43,-143 896.89,-126.85 921.86,-100.75 936.65,-83.74"/>
<polygon fill="midnightblue" stroke="midnightblue" points="939.61,-85.66 943.42,-75.77 934.28,-81.13 939.61,-85.66"/>
</g>
<!-- Node11 -->
<g id="node11" class="node">
<title>Node11</title>
<g id="a_node11"><a xlink:href="tide_8h.html" target="_top" xlink:title=" ">
<polygon fill="none" stroke="black" points="601.93,-179.5 601.93,-198.5 700.93,-198.5 700.93,-179.5 601.93,-179.5"/>
<text text-anchor="middle" x="651.43" y="-186.5" font-family="Helvetica,sans-Serif" font-size="10.00">WillyWeather/tide.h</text>
</a>
</g>
</g>
<!-- Node2&#45;&gt;Node11 -->
<g id="edge20" class="edge">
<title>Node2&#45;&gt;Node11</title>
<path fill="none" stroke="midnightblue" d="M557.43,-235.32C575.47,-226.62 603.48,-213.12 624.24,-203.11"/>
<polygon fill="midnightblue" stroke="midnightblue" points="625.99,-206.15 633.48,-198.65 622.95,-199.84 625.99,-206.15"/>
</g>
<!-- Node16 -->
<g id="node16" class="node">
<title>Node16</title>
<g id="a_node16"><a xlink:href="_i_b_m___e_i_s_2authenticate_8h.html" target="_top" xlink:title=" ">
<polygon fill="none" stroke="black" points="33.93,-118 33.93,-137 152.93,-137 152.93,-118 33.93,-118"/>
<text text-anchor="middle" x="93.43" y="-125" font-family="Helvetica,sans-Serif" font-size="10.00">IBM_EIS/authenticate.h</text>
</a>
</g>
</g>
<!-- Node2&#45;&gt;Node16 -->
<g id="edge40" class="edge">
<title>Node2&#45;&gt;Node16</title>
<path fill="none" stroke="midnightblue" d="M516.7,-238.52C482.22,-230.18 414.65,-213.71 357.43,-199 278.39,-178.68 186.36,-153.83 134.5,-139.72"/>
<polygon fill="midnightblue" stroke="midnightblue" points="135.24,-136.3 124.68,-137.04 133.4,-143.05 135.24,-136.3"/>
</g>
<!-- Node17 -->
<g id="node17" class="node">
<title>Node17</title>
<g id="a_node17"><a xlink:href="timeseries_8h.html" target="_top" xlink:title=" ">
<polygon fill="none" stroke="black" points="325.93,-118 325.93,-137 436.93,-137 436.93,-118 325.93,-118"/>
<text text-anchor="middle" x="381.43" y="-125" font-family="Helvetica,sans-Serif" font-size="10.00">IBM_EIS/timeseries.h</text>
</a>
</g>
</g>
<!-- Node2&#45;&gt;Node17 -->
<g id="edge44" class="edge">
<title>Node2&#45;&gt;Node17</title>
<path fill="none" stroke="midnightblue" d="M527.56,-235.32C500.68,-215.67 434.93,-167.61 401.56,-143.22"/>
<polygon fill="midnightblue" stroke="midnightblue" points="403.58,-140.36 393.45,-137.28 399.45,-146.01 403.58,-140.36"/>
</g>
<!-- Node18 -->
<g id="node18" class="node">
<title>Node18</title>
<g id="a_node18"><a xlink:href="food__auth_8h.html" target="_top" xlink:title=" ">
<polygon fill="none" stroke="black" points="171.43,-112.5 171.43,-142.5 269.43,-142.5 269.43,-112.5 171.43,-112.5"/>
<text text-anchor="start" x="179.43" y="-130.5" font-family="Helvetica,sans-Serif" font-size="10.00">FoodAuthority/food</text>
<text text-anchor="middle" x="220.43" y="-119.5" font-family="Helvetica,sans-Serif" font-size="10.00">_auth.h</text>
</a>
</g>
</g>
<!-- Node2&#45;&gt;Node18 -->
<g id="edge50" class="edge">
<title>Node2&#45;&gt;Node18</title>
<path fill="none" stroke="midnightblue" d="M516.75,-235.79C465.22,-217.13 338.45,-171.23 268.58,-145.93"/>
<polygon fill="midnightblue" stroke="midnightblue" points="269.7,-142.62 259.11,-142.5 267.32,-149.2 269.7,-142.62"/>
</g>
<!-- Node6&#45;&gt;Node5 -->
<g id="edge7" class="edge">
<title>Node6&#45;&gt;Node5</title>
<path fill="none" stroke="midnightblue" d="M527.46,-117.86C507.45,-103.69 465.64,-75.14 427.43,-56 401.21,-42.86 370.18,-31.09 346.66,-22.88"/>
<polygon fill="midnightblue" stroke="midnightblue" points="347.68,-19.53 337.08,-19.59 345.4,-26.15 347.68,-19.53"/>
</g>
<!-- Node7 -->
<g id="node7" class="node">
<title>Node7</title>
<g id="a_node7"><a xlink:title=" ">
<polygon fill="none" stroke="#bfbfbf" points="714.43,-0.5 714.43,-19.5 762.43,-19.5 762.43,-0.5 714.43,-0.5"/>
<text text-anchor="middle" x="738.43" y="-7.5" font-family="Helvetica,sans-Serif" font-size="10.00">string.h</text>
</a>
</g>
</g>
<!-- Node6&#45;&gt;Node7 -->
<g id="edge6" class="edge">
<title>Node6&#45;&gt;Node7</title>
<path fill="none" stroke="midnightblue" d="M541.99,-117.68C546.8,-102.7 558.62,-72.33 579.43,-56 615.84,-27.43 669.5,-17 704.21,-13.19"/>
<polygon fill="midnightblue" stroke="midnightblue" points="704.72,-16.66 714.33,-12.21 704.04,-9.69 704.72,-16.66"/>
</g>
<!-- Node8 -->
<g id="node8" class="node">
<title>Node8</title>
<g id="a_node8"><a xlink:title=" ">
<polygon fill="none" stroke="#bfbfbf" points="400.93,-0.5 400.93,-19.5 483.93,-19.5 483.93,-0.5 400.93,-0.5"/>
<text text-anchor="middle" x="442.43" y="-7.5" font-family="Helvetica,sans-Serif" font-size="10.00">cjson/cJSON.h</text>
</a>
</g>
</g>
<!-- Node6&#45;&gt;Node8 -->
<g id="edge8" class="edge">
<title>Node6&#45;&gt;Node8</title>
<path fill="none" stroke="midnightblue" d="M532.14,-117.82C516.06,-98.67 477.32,-52.54 456.4,-27.63"/>
<polygon fill="midnightblue" stroke="midnightblue" points="458.92,-25.19 449.81,-19.78 453.56,-29.69 458.92,-25.19"/>
</g>
<!-- Node9 -->
<g id="node9" class="node">
<title>Node9</title>
<g id="a_node9"><a xlink:href="utils_8h.html" target="_top" xlink:title=" ">
<polygon fill="none" stroke="black" points="376.43,-56.5 376.43,-75.5 418.43,-75.5 418.43,-56.5 376.43,-56.5"/>
<text text-anchor="middle" x="397.43" y="-63.5" font-family="Helvetica,sans-Serif" font-size="10.00">utils.h</text>
</a>
</g>
</g>
<!-- Node6&#45;&gt;Node9 -->
<g id="edge9" class="edge">
<title>Node6&#45;&gt;Node9</title>
<path fill="none" stroke="midnightblue" d="M519.09,-117.98C495.05,-107.9 454.84,-91.05 427.27,-79.5"/>
<polygon fill="midnightblue" stroke="midnightblue" points="428.32,-76.15 417.74,-75.51 425.61,-82.6 428.32,-76.15"/>
</g>
<!-- Node9&#45;&gt;Node3 -->
<g id="edge10" class="edge">
<title>Node9&#45;&gt;Node3</title>
<path fill="none" stroke="midnightblue" d="M418.44,-62.95C502.18,-54.77 812.73,-24.45 916.45,-14.32"/>
<polygon fill="midnightblue" stroke="midnightblue" points="917.06,-17.78 926.67,-13.32 916.38,-10.81 917.06,-17.78"/>
</g>
<!-- Node9&#45;&gt;Node5 -->
<g id="edge12" class="edge">
<title>Node9&#45;&gt;Node5</title>
<path fill="none" stroke="midnightblue" d="M383.45,-56.32C369.88,-47.9 349.05,-34.97 333.11,-25.07"/>
<polygon fill="midnightblue" stroke="midnightblue" points="334.72,-21.95 324.38,-19.65 331.03,-27.9 334.72,-21.95"/>
</g>
<!-- Node9&#45;&gt;Node7 -->
<g id="edge11" class="edge">
<title>Node9&#45;&gt;Node7</title>
<path fill="none" stroke="midnightblue" d="M418.51,-61.66C475.69,-52.61 634.16,-27.51 704.29,-16.41"/>
<polygon fill="midnightblue" stroke="midnightblue" points="705.03,-19.83 714.36,-14.81 703.94,-12.92 705.03,-19.83"/>
</g>
<!-- Node9&#45;&gt;Node8 -->
<g id="edge13" class="edge">
<title>Node9&#45;&gt;Node8</title>
<path fill="none" stroke="midnightblue" d="M404.86,-56.08C411.29,-48.38 420.74,-37.03 428.56,-27.65"/>
<polygon fill="midnightblue" stroke="midnightblue" points="431.43,-29.67 435.14,-19.75 426.05,-25.19 431.43,-29.67"/>
</g>
<!-- Node10&#45;&gt;Node3 -->
<g id="edge16" class="edge">
<title>Node10&#45;&gt;Node3</title>
<path fill="none" stroke="midnightblue" d="M950.43,-56.08C950.43,-49.01 950.43,-38.86 950.43,-29.99"/>
<polygon fill="midnightblue" stroke="midnightblue" points="953.93,-29.75 950.43,-19.75 946.93,-29.75 953.93,-29.75"/>
</g>
<!-- Node10&#45;&gt;Node4 -->
<g id="edge17" class="edge">
<title>Node10&#45;&gt;Node4</title>
<path fill="none" stroke="midnightblue" d="M971.82,-56.44C994.14,-47.52 1029.34,-33.44 1054.64,-23.32"/>
<polygon fill="midnightblue" stroke="midnightblue" points="1056.16,-26.48 1064.14,-19.52 1053.56,-19.98 1056.16,-26.48"/>
</g>
<!-- Node10&#45;&gt;Node5 -->
<g id="edge19" class="edge">
<title>Node10&#45;&gt;Node5</title>
<path fill="none" stroke="midnightblue" d="M881.6,-56.81C878.84,-56.53 876.11,-56.26 873.43,-56 659.59,-35.53 605.33,-39.86 391.43,-20 377.98,-18.75 363.3,-17.18 350.17,-15.7"/>
<polygon fill="midnightblue" stroke="midnightblue" points="350.36,-12.2 340.03,-14.55 349.57,-19.16 350.36,-12.2"/>
</g>
<!-- Node10&#45;&gt;Node7 -->
<g id="edge15" class="edge">
<title>Node10&#45;&gt;Node7</title>
<path fill="none" stroke="midnightblue" d="M916.84,-56.44C877.32,-46.38 812.06,-29.75 772.38,-19.65"/>
<polygon fill="midnightblue" stroke="midnightblue" points="773.19,-16.24 762.64,-17.16 771.46,-23.03 773.19,-16.24"/>
</g>
<!-- Node10&#45;&gt;Node8 -->
<g id="edge18" class="edge">
<title>Node10&#45;&gt;Node8</title>
<path fill="none" stroke="midnightblue" d="M881.59,-56.91C878.84,-56.6 876.11,-56.3 873.43,-56 736.75,-40.88 575.51,-24.41 494.48,-16.22"/>
<polygon fill="midnightblue" stroke="midnightblue" points="494.36,-12.7 484.06,-15.17 493.66,-19.66 494.36,-12.7"/>
</g>
<!-- Node11&#45;&gt;Node3 -->
<g id="edge22" class="edge">
<title>Node11&#45;&gt;Node3</title>
<path fill="none" stroke="midnightblue" d="M700.94,-187.12C760.99,-184.57 864.38,-175.35 946.43,-143 995.52,-123.65 1019.81,-122.66 1044.43,-76 1059.66,-47.14 1016.52,-28.53 983.72,-18.92"/>
<polygon fill="midnightblue" stroke="midnightblue" points="984.52,-15.51 973.95,-16.22 982.66,-22.25 984.52,-15.51"/>
</g>
<!-- Node11&#45;&gt;Node5 -->
<g id="edge25" class="edge">
<title>Node11&#45;&gt;Node5</title>
<path fill="none" stroke="midnightblue" d="M601.76,-188.23C460.38,-188.35 63.47,-184.94 24.43,-143 -51.61,-61.3 175.39,-25.97 270.56,-15"/>
<polygon fill="midnightblue" stroke="midnightblue" points="271.13,-18.46 280.68,-13.87 270.35,-11.5 271.13,-18.46"/>
</g>
<!-- Node11&#45;&gt;Node7 -->
<g id="edge21" class="edge">
<title>Node11&#45;&gt;Node7</title>
<path fill="none" stroke="midnightblue" d="M700.99,-181.14C794.73,-166.98 991.91,-131.15 1028.43,-76 1033.34,-68.59 1034.22,-62.75 1028.43,-56 995.86,-17.99 842.45,-11.82 772.88,-11"/>
<polygon fill="midnightblue" stroke="midnightblue" points="772.5,-7.5 762.47,-10.91 772.44,-14.5 772.5,-7.5"/>
</g>
<!-- Node11&#45;&gt;Node8 -->
<g id="edge26" class="edge">
<title>Node11&#45;&gt;Node8</title>
<path fill="none" stroke="midnightblue" d="M646.28,-179.27C637.15,-164.3 616.97,-133.29 594.43,-112 554.98,-74.74 500.28,-42.12 468.39,-24.62"/>
<polygon fill="midnightblue" stroke="midnightblue" points="469.73,-21.36 459.27,-19.68 466.4,-27.52 469.73,-21.36"/>
</g>
<!-- Node11&#45;&gt;Node9 -->
<g id="edge39" class="edge">
<title>Node11&#45;&gt;Node9</title>
<path fill="none" stroke="midnightblue" d="M601.74,-180.72C567.32,-174.24 521.25,-162.67 484.43,-143 476.56,-138.79 437.52,-103.65 414.5,-82.65"/>
<polygon fill="midnightblue" stroke="midnightblue" points="416.57,-79.8 406.83,-75.64 411.85,-84.97 416.57,-79.8"/>
</g>
<!-- Node11&#45;&gt;Node10 -->
<g id="edge28" class="edge">
<title>Node11&#45;&gt;Node10</title>
<path fill="none" stroke="midnightblue" d="M701.13,-179.77C737.6,-172.7 787.82,-160.8 829.43,-143 867.89,-126.55 908.18,-98.8 931.21,-81.77"/>
<polygon fill="midnightblue" stroke="midnightblue" points="933.52,-84.41 939.42,-75.61 929.32,-78.81 933.52,-84.41"/>
</g>
<!-- Node12 -->
<g id="node12" class="node">
<title>Node12</title>
<g id="a_node12"><a xlink:title=" ">
<polygon fill="none" stroke="#bfbfbf" points="588.43,-56.5 588.43,-75.5 634.43,-75.5 634.43,-56.5 588.43,-56.5"/>
<text text-anchor="middle" x="611.43" y="-63.5" font-family="Helvetica,sans-Serif" font-size="10.00">math.h</text>
</a>
</g>
</g>
<!-- Node11&#45;&gt;Node12 -->
<g id="edge23" class="edge">
<title>Node11&#45;&gt;Node12</title>
<path fill="none" stroke="midnightblue" d="M648.73,-179.07C644.39,-164.84 635.53,-136.14 627.43,-112 624.46,-103.15 621.01,-93.37 618.07,-85.2"/>
<polygon fill="midnightblue" stroke="midnightblue" points="621.29,-83.81 614.59,-75.6 614.71,-86.19 621.29,-83.81"/>
</g>
<!-- Node13 -->
<g id="node13" class="node">
<title>Node13</title>
<g id="a_node13"><a xlink:title=" ">
<polygon fill="none" stroke="#bfbfbf" points="238.93,-56.5 238.93,-75.5 281.93,-75.5 281.93,-56.5 238.93,-56.5"/>
<text text-anchor="middle" x="260.43" y="-63.5" font-family="Helvetica,sans-Serif" font-size="10.00">time.h</text>
</a>
</g>
</g>
<!-- Node11&#45;&gt;Node13 -->
<g id="edge24" class="edge">
<title>Node11&#45;&gt;Node13</title>
<path fill="none" stroke="midnightblue" d="M601.83,-186.05C520.63,-182.08 363.64,-170.96 316.43,-143 293.69,-129.53 277.38,-102.88 268.42,-84.99"/>
<polygon fill="midnightblue" stroke="midnightblue" points="271.55,-83.41 264.11,-75.87 265.22,-86.4 271.55,-83.41"/>
</g>
<!-- Node14 -->
<g id="node14" class="node">
<title>Node14</title>
<g id="a_node14"><a xlink:href="forecast_8h.html" target="_top" xlink:title=" ">
<polygon fill="none" stroke="black" points="804.93,-56.5 804.93,-75.5 863.93,-75.5 863.93,-56.5 804.93,-56.5"/>
<text text-anchor="middle" x="834.43" y="-63.5" font-family="Helvetica,sans-Serif" font-size="10.00">forecast.h</text>
</a>
</g>
</g>
<!-- Node11&#45;&gt;Node14 -->
<g id="edge27" class="edge">
<title>Node11&#45;&gt;Node14</title>
<path fill="none" stroke="midnightblue" d="M701.11,-185.03C734.69,-180.54 777.94,-169.55 806.43,-143 822.55,-127.98 829.43,-102.88 832.34,-85.66"/>
<polygon fill="midnightblue" stroke="midnightblue" points="835.82,-86.06 833.73,-75.67 828.88,-85.09 835.82,-86.06"/>
</g>
<!-- Node15 -->
<g id="node15" class="node">
<title>Node15</title>
<g id="a_node15"><a xlink:href="location_8h.html" target="_top" xlink:title=" ">
<polygon fill="none" stroke="black" points="679.93,-118 679.93,-137 796.93,-137 796.93,-118 679.93,-118"/>
<text text-anchor="middle" x="738.43" y="-125" font-family="Helvetica,sans-Serif" font-size="10.00">WillyWeather/location.h</text>
</a>
</g>
</g>
<!-- Node11&#45;&gt;Node15 -->
<g id="edge29" class="edge">
<title>Node11&#45;&gt;Node15</title>
<path fill="none" stroke="midnightblue" d="M663.9,-179.48C677.85,-169.93 700.7,-154.31 717.42,-142.87"/>
<polygon fill="midnightblue" stroke="midnightblue" points="719.71,-145.54 725.99,-137.01 715.76,-139.77 719.71,-145.54"/>
</g>
<!-- Node15&#45;&gt;Node3 -->
<g id="edge31" class="edge">
<title>Node15&#45;&gt;Node3</title>
<path fill="none" stroke="midnightblue" d="M743.27,-117.69C751.94,-102.74 771.56,-72.41 796.43,-56 833.35,-31.63 883.73,-20.18 916.66,-15"/>
<polygon fill="midnightblue" stroke="midnightblue" points="917.32,-18.44 926.7,-13.53 916.3,-11.51 917.32,-18.44"/>
</g>
<!-- Node15&#45;&gt;Node4 -->
<g id="edge32" class="edge">
<title>Node15&#45;&gt;Node4</title>
<path fill="none" stroke="midnightblue" d="M797.02,-120.94C869.97,-113.23 989.72,-97.74 1028.43,-76 1048.59,-64.68 1065.13,-43.45 1075.1,-28.33"/>
<polygon fill="midnightblue" stroke="midnightblue" points="1078.07,-30.18 1080.44,-19.86 1072.15,-26.45 1078.07,-30.18"/>
</g>
<!-- Node15&#45;&gt;Node5 -->
<g id="edge35" class="edge">
<title>Node15&#45;&gt;Node5</title>
<path fill="none" stroke="midnightblue" d="M728.3,-117.95C707.86,-100.88 662.08,-63.58 643.43,-56 629.96,-50.52 435.39,-26.27 350.05,-15.82"/>
<polygon fill="midnightblue" stroke="midnightblue" points="350.32,-12.32 339.97,-14.58 349.47,-19.27 350.32,-12.32"/>
</g>
<!-- Node15&#45;&gt;Node7 -->
<g id="edge30" class="edge">
<title>Node15&#45;&gt;Node7</title>
<path fill="none" stroke="midnightblue" d="M738.43,-117.82C738.43,-99.26 738.43,-55.34 738.43,-29.97"/>
<polygon fill="midnightblue" stroke="midnightblue" points="741.93,-29.78 738.43,-19.78 734.93,-29.78 741.93,-29.78"/>
</g>
<!-- Node15&#45;&gt;Node8 -->
<g id="edge34" class="edge">
<title>Node15&#45;&gt;Node8</title>
<path fill="none" stroke="midnightblue" d="M733.55,-117.93C724.44,-102.76 703.31,-71.38 676.43,-56 619.78,-23.58 544.07,-14.03 494.32,-11.47"/>
<polygon fill="midnightblue" stroke="midnightblue" points="494.26,-7.97 484.11,-11.03 493.95,-14.96 494.26,-7.97"/>
</g>
<!-- Node15&#45;&gt;Node9 -->
<g id="edge37" class="edge">
<title>Node15&#45;&gt;Node9</title>
<path fill="none" stroke="midnightblue" d="M689.58,-117.98C618.35,-105.55 488.02,-82.81 428.53,-72.43"/>
<polygon fill="midnightblue" stroke="midnightblue" points="429.06,-68.97 418.61,-70.69 427.86,-75.86 429.06,-68.97"/>
</g>
<!-- Node15&#45;&gt;Node10 -->
<g id="edge36" class="edge">
<title>Node15&#45;&gt;Node10</title>
<path fill="none" stroke="midnightblue" d="M768.81,-117.98C806.04,-107.53 869.24,-89.79 910.41,-78.23"/>
<polygon fill="midnightblue" stroke="midnightblue" points="911.43,-81.58 920.11,-75.51 909.54,-74.84 911.43,-81.58"/>
</g>
<!-- Node15&#45;&gt;Node12 -->
<g id="edge33" class="edge">
<title>Node15&#45;&gt;Node12</title>
<path fill="none" stroke="midnightblue" d="M720.24,-117.98C698.92,-107.99 663.4,-91.35 638.77,-79.81"/>
<polygon fill="midnightblue" stroke="midnightblue" points="640.14,-76.58 629.59,-75.51 637.17,-82.92 640.14,-76.58"/>
</g>
<!-- Node15&#45;&gt;Node14 -->
<g id="edge38" class="edge">
<title>Node15&#45;&gt;Node14</title>
<path fill="none" stroke="midnightblue" d="M752.19,-117.98C767.8,-108.3 793.5,-92.37 812.02,-80.89"/>
<polygon fill="midnightblue" stroke="midnightblue" points="814.05,-83.75 820.7,-75.51 810.36,-77.8 814.05,-83.75"/>
</g>
<!-- Node16&#45;&gt;Node5 -->
<g id="edge41" class="edge">
<title>Node16&#45;&gt;Node5</title>
<path fill="none" stroke="midnightblue" d="M94.07,-117.66C95.65,-102.66 101.07,-72.25 119.43,-56 141.58,-36.4 221.56,-22.68 270.73,-15.89"/>
<polygon fill="midnightblue" stroke="midnightblue" points="271.28,-19.35 280.72,-14.54 270.34,-12.41 271.28,-19.35"/>
</g>
<!-- Node16&#45;&gt;Node8 -->
<g id="edge42" class="edge">
<title>Node16&#45;&gt;Node8</title>
<path fill="none" stroke="midnightblue" d="M105.24,-117.89C126.28,-102.95 172.16,-72.28 215.43,-56 273.41,-34.19 343.9,-22.33 390.79,-16.34"/>
<polygon fill="midnightblue" stroke="midnightblue" points="391.22,-19.81 400.72,-15.12 390.36,-12.87 391.22,-19.81"/>
</g>
<!-- Node16&#45;&gt;Node9 -->
<g id="edge43" class="edge">
<title>Node16&#45;&gt;Node9</title>
<path fill="none" stroke="midnightblue" d="M133.54,-117.94C143.01,-115.96 153.07,-113.88 162.43,-112 235.39,-97.35 321.31,-81.17 366.33,-72.77"/>
<polygon fill="midnightblue" stroke="midnightblue" points="367.15,-76.18 376.34,-70.91 365.87,-69.3 367.15,-76.18"/>
</g>
<!-- Node17&#45;&gt;Node5 -->
<g id="edge45" class="edge">
<title>Node17&#45;&gt;Node5</title>
<path fill="none" stroke="midnightblue" d="M376.1,-117.82C364.48,-98.92 336.71,-53.75 321.26,-28.62"/>
<polygon fill="midnightblue" stroke="midnightblue" points="324.05,-26.47 315.83,-19.78 318.09,-30.13 324.05,-26.47"/>
</g>
<!-- Node17&#45;&gt;Node8 -->
<g id="edge46" class="edge">
<title>Node17&#45;&gt;Node8</title>
<path fill="none" stroke="midnightblue" d="M376.05,-117.65C368.3,-103.66 356.12,-75.98 367.43,-56 375.78,-41.26 391.09,-30.82 405.72,-23.73"/>
<polygon fill="midnightblue" stroke="midnightblue" points="407.43,-26.8 415.15,-19.55 404.59,-20.4 407.43,-26.8"/>
</g>
<!-- Node17&#45;&gt;Node9 -->
<g id="edge49" class="edge">
<title>Node17&#45;&gt;Node9</title>
<path fill="none" stroke="midnightblue" d="M383.73,-117.98C386.01,-109.49 389.58,-96.2 392.51,-85.32"/>
<polygon fill="midnightblue" stroke="midnightblue" points="395.93,-86.07 395.14,-75.51 389.17,-84.26 395.93,-86.07"/>
</g>
<!-- Node17&#45;&gt;Node12 -->
<g id="edge47" class="edge">
<title>Node17&#45;&gt;Node12</title>
<path fill="none" stroke="midnightblue" d="M414.39,-117.98C458.08,-106.67 534.76,-86.83 578.46,-75.53"/>
<polygon fill="midnightblue" stroke="midnightblue" points="579.5,-78.88 588.31,-72.98 577.75,-72.1 579.5,-78.88"/>
</g>
<!-- Node17&#45;&gt;Node13 -->
<g id="edge48" class="edge">
<title>Node17&#45;&gt;Node13</title>
<path fill="none" stroke="midnightblue" d="M364.1,-117.98C343.88,-108.03 310.25,-91.49 286.79,-79.96"/>
<polygon fill="midnightblue" stroke="midnightblue" points="288.26,-76.78 277.74,-75.51 285.17,-83.06 288.26,-76.78"/>
</g>
<!-- Node18&#45;&gt;Node5 -->
<g id="edge51" class="edge">
<title>Node18&#45;&gt;Node5</title>
<path fill="none" stroke="midnightblue" d="M208.54,-112.25C197.55,-97.24 184.58,-73.42 196.43,-56 213.02,-31.62 245.06,-20.45 270.96,-15.33"/>
<polygon fill="midnightblue" stroke="midnightblue" points="271.65,-18.76 280.9,-13.59 270.45,-11.86 271.65,-18.76"/>
</g>
<!-- Node18&#45;&gt;Node8 -->
<g id="edge52" class="edge">
<title>Node18&#45;&gt;Node8</title>
<path fill="none" stroke="midnightblue" d="M217.88,-112.36C215.89,-96.54 215.47,-71.15 229.43,-56 250.78,-32.85 334.58,-20.77 390.48,-15.16"/>
<polygon fill="midnightblue" stroke="midnightblue" points="390.96,-18.63 400.58,-14.19 390.29,-11.66 390.96,-18.63"/>
</g>
<!-- Node18&#45;&gt;Node9 -->
<g id="edge54" class="edge">
<title>Node18&#45;&gt;Node9</title>
<path fill="none" stroke="midnightblue" d="M262.38,-112.4C294.39,-101.64 337.75,-87.06 366.61,-77.36"/>
<polygon fill="midnightblue" stroke="midnightblue" points="367.81,-80.65 376.17,-74.15 365.58,-74.02 367.81,-80.65"/>
</g>
<!-- Node18&#45;&gt;Node13 -->
<g id="edge53" class="edge">
<title>Node18&#45;&gt;Node13</title>
<path fill="none" stroke="midnightblue" d="M229.91,-112.4C235.6,-103.93 242.89,-93.1 248.91,-84.14"/>
<polygon fill="midnightblue" stroke="midnightblue" points="251.94,-85.91 254.61,-75.66 246.13,-82 251.94,-85.91"/>
</g>
</g>
</svg>
