<?xml version="1.0" encoding="UTF-8" standalone="no"?>
<!DOCTYPE svg PUBLIC "-//W3C//DTD SVG 1.1//EN"
 "http://www.w3.org/Graphics/SVG/1.1/DTD/svg11.dtd">
<!-- Generated by graphviz version 2.49.3 (20211027.1534)
 -->
<!-- Title: include/main.h Pages: 1 -->
<svg width="633pt" height="207pt"
 viewBox="0.00 0.00 632.72 207.00" xmlns="http://www.w3.org/2000/svg" xmlns:xlink="http://www.w3.org/1999/xlink">
<g id="graph0" class="graph" transform="scale(1 1) rotate(0) translate(4 203)">
<title>include/main.h</title>
<!-- Node1 -->
<g id="node1" class="node">
<title>Node1</title>
<g id="a_node1"><a xlink:title=" ">
<polygon fill="#bfbfbf" stroke="black" points="251.72,-179.5 251.72,-198.5 330.72,-198.5 330.72,-179.5 251.72,-179.5"/>
<text text-anchor="middle" x="291.22" y="-186.5" font-family="Helvetica,sans-Serif" font-size="10.00">include/main.h</text>
</a>
</g>
</g>
<!-- Node2 -->
<g id="node2" class="node">
<title>Node2</title>
<g id="a_node2"><a xlink:title=" ">
<polygon fill="none" stroke="#bfbfbf" points="17.72,-0.5 17.72,-19.5 64.72,-19.5 64.72,-0.5 17.72,-0.5"/>
<text text-anchor="middle" x="41.22" y="-7.5" font-family="Helvetica,sans-Serif" font-size="10.00">stdlib.h</text>
</a>
</g>
</g>
<!-- Node1&#45;&gt;Node2 -->
<g id="edge1" class="edge">
<title>Node1&#45;&gt;Node2</title>
<path fill="none" stroke="midnightblue" d="M251.45,-187.65C181.85,-186.11 42.48,-178.53 12.22,-143 -15.95,-109.92 11.8,-55.64 29.32,-28.13"/>
<polygon fill="midnightblue" stroke="midnightblue" points="32.37,-29.86 34.98,-19.59 26.53,-25.99 32.37,-29.86"/>
</g>
<!-- Node3 -->
<g id="node3" class="node">
<title>Node3</title>
<g id="a_node3"><a xlink:title=" ">
<polygon fill="none" stroke="#bfbfbf" points="579.72,-118 579.72,-137 624.72,-137 624.72,-118 579.72,-118"/>
<text text-anchor="middle" x="602.22" y="-125" font-family="Helvetica,sans-Serif" font-size="10.00">stdio.h</text>
</a>
</g>
</g>
<!-- Node1&#45;&gt;Node3 -->
<g id="edge2" class="edge">
<title>Node1&#45;&gt;Node3</title>
<path fill="none" stroke="midnightblue" d="M330.77,-184.95C385.53,-179.98 487.07,-168.06 570.22,-143 572.15,-142.42 574.11,-141.75 576.06,-141.02"/>
<polygon fill="midnightblue" stroke="midnightblue" points="577.72,-144.12 585.6,-137.04 575.03,-137.66 577.72,-144.12"/>
</g>
<!-- Node4 -->
<g id="node4" class="node">
<title>Node4</title>
<g id="a_node4"><a xlink:title=" ">
<polygon fill="none" stroke="#bfbfbf" points="242.72,-0.5 242.72,-19.5 301.72,-19.5 301.72,-0.5 242.72,-0.5"/>
<text text-anchor="middle" x="272.22" y="-7.5" font-family="Helvetica,sans-Serif" font-size="10.00">curl/curl.h</text>
</a>
</g>
</g>
<!-- Node1&#45;&gt;Node4 -->
<g id="edge3" class="edge">
<title>Node1&#45;&gt;Node4</title>
<path fill="none" stroke="midnightblue" d="M290.3,-179.46C287.4,-152.43 278.36,-68.24 274.27,-30.11"/>
<polygon fill="midnightblue" stroke="midnightblue" points="277.72,-29.44 273.17,-19.87 270.76,-30.18 277.72,-29.44"/>
</g>
<!-- Node5 -->
<g id="node5" class="node">
<title>Node5</title>
<g id="a_node5"><a xlink:href="ubidots_8h.html" target="_top" xlink:title=" ">
<polygon fill="none" stroke="black" points="171.22,-118 171.22,-137 263.22,-137 263.22,-118 171.22,-118"/>
<text text-anchor="middle" x="217.22" y="-125" font-family="Helvetica,sans-Serif" font-size="10.00">Ubidots/ubidots.h</text>
</a>
</g>
</g>
<!-- Node1&#45;&gt;Node5 -->
<g id="edge4" class="edge">
<title>Node1&#45;&gt;Node5</title>
<path fill="none" stroke="midnightblue" d="M280.62,-179.48C268.97,-170.11 250.03,-154.88 235.88,-143.51"/>
<polygon fill="midnightblue" stroke="midnightblue" points="237.79,-140.55 227.8,-137.01 233.4,-146 237.79,-140.55"/>
</g>
<!-- Node9 -->
<g id="node9" class="node">
<title>Node9</title>
<g id="a_node9"><a xlink:href="w__weather_8h.html" target="_top" xlink:title=" ">
<polygon fill="none" stroke="black" points="21.72,-118 21.72,-137 152.72,-137 152.72,-118 21.72,-118"/>
<text text-anchor="middle" x="87.22" y="-125" font-family="Helvetica,sans-Serif" font-size="10.00">WillyWeather/w_weather.h</text>
</a>
</g>
</g>
<!-- Node1&#45;&gt;Node9 -->
<g id="edge13" class="edge">
<title>Node1&#45;&gt;Node9</title>
<path fill="none" stroke="midnightblue" d="M261.99,-179.48C226.31,-169.07 165.86,-151.44 126.24,-139.88"/>
<polygon fill="midnightblue" stroke="midnightblue" points="126.97,-136.45 116.39,-137.01 125.01,-143.17 126.97,-136.45"/>
</g>
<!-- Node10 -->
<g id="node10" class="node">
<title>Node10</title>
<g id="a_node10"><a xlink:href="authenticate_8h.html" target="_top" xlink:title=" ">
<polygon fill="none" stroke="black" points="319.72,-118 319.72,-137 444.72,-137 444.72,-118 319.72,-118"/>
<text text-anchor="middle" x="382.22" y="-125" font-family="Helvetica,sans-Serif" font-size="10.00">IBM_EMS/authenticate.h</text>
</a>
</g>
</g>
<!-- Node1&#45;&gt;Node10 -->
<g id="edge17" class="edge">
<title>Node1&#45;&gt;Node10</title>
<path fill="none" stroke="midnightblue" d="M304.26,-179.48C318.99,-169.84 343.19,-154.02 360.73,-142.55"/>
<polygon fill="midnightblue" stroke="midnightblue" points="362.75,-145.41 369.2,-137.01 358.92,-139.55 362.75,-145.41"/>
</g>
<!-- Node11 -->
<g id="node11" class="node">
<title>Node11</title>
<g id="a_node11"><a xlink:href="food__auth_8h.html" target="_top" xlink:title=" ">
<polygon fill="none" stroke="black" points="463.22,-112.5 463.22,-142.5 561.22,-142.5 561.22,-112.5 463.22,-112.5"/>
<text text-anchor="start" x="471.22" y="-130.5" font-family="Helvetica,sans-Serif" font-size="10.00">FoodAuthority/food</text>
<text text-anchor="middle" x="512.22" y="-119.5" font-family="Helvetica,sans-Serif" font-size="10.00">_auth.h</text>
</a>
</g>
</g>
<!-- Node1&#45;&gt;Node11 -->
<g id="edge21" class="edge">
<title>Node1&#45;&gt;Node11</title>
<path fill="none" stroke="midnightblue" d="M322.88,-179.48C356.8,-170.34 411.41,-155.64 453.28,-144.37"/>
<polygon fill="midnightblue" stroke="midnightblue" points="454.34,-147.71 463.09,-141.73 452.52,-140.95 454.34,-147.71"/>
</g>
<!-- Node5&#45;&gt;Node4 -->
<g id="edge6" class="edge">
<title>Node5&#45;&gt;Node4</title>
<path fill="none" stroke="midnightblue" d="M221.35,-117.82C230.31,-99.01 251.67,-54.15 263.67,-28.96"/>
<polygon fill="midnightblue" stroke="midnightblue" points="266.9,-30.32 268.04,-19.78 260.58,-27.31 266.9,-30.32"/>
</g>
<!-- Node6 -->
<g id="node6" class="node">
<title>Node6</title>
<g id="a_node6"><a xlink:title=" ">
<polygon fill="none" stroke="#bfbfbf" points="131.22,-0.5 131.22,-19.5 179.22,-19.5 179.22,-0.5 131.22,-0.5"/>
<text text-anchor="middle" x="155.22" y="-7.5" font-family="Helvetica,sans-Serif" font-size="10.00">string.h</text>
</a>
</g>
</g>
<!-- Node5&#45;&gt;Node6 -->
<g id="edge5" class="edge">
<title>Node5&#45;&gt;Node6</title>
<path fill="none" stroke="midnightblue" d="M207.67,-117.71C197.94,-108.28 183.08,-92.42 174.22,-76 166.37,-61.45 161.41,-43.27 158.53,-29.84"/>
<polygon fill="midnightblue" stroke="midnightblue" points="161.94,-29.01 156.59,-19.86 155.07,-30.35 161.94,-29.01"/>
</g>
<!-- Node7 -->
<g id="node7" class="node">
<title>Node7</title>
<g id="a_node7"><a xlink:title=" ">
<polygon fill="none" stroke="#bfbfbf" points="369.72,-0.5 369.72,-19.5 452.72,-19.5 452.72,-0.5 369.72,-0.5"/>
<text text-anchor="middle" x="411.22" y="-7.5" font-family="Helvetica,sans-Serif" font-size="10.00">cjson/cJSON.h</text>
</a>
</g>
</g>
<!-- Node5&#45;&gt;Node7 -->
<g id="edge7" class="edge">
<title>Node5&#45;&gt;Node7</title>
<path fill="none" stroke="midnightblue" d="M231.8,-117.82C265.24,-97.91 347.65,-48.84 388.09,-24.77"/>
<polygon fill="midnightblue" stroke="midnightblue" points="389.93,-27.75 396.73,-19.62 386.35,-21.73 389.93,-27.75"/>
</g>
<!-- Node8 -->
<g id="node8" class="node">
<title>Node8</title>
<g id="a_node8"><a xlink:href="utils_8h.html" target="_top" xlink:title=" ">
<polygon fill="none" stroke="black" points="183.22,-56.5 183.22,-75.5 225.22,-75.5 225.22,-56.5 183.22,-56.5"/>
<text text-anchor="middle" x="204.22" y="-63.5" font-family="Helvetica,sans-Serif" font-size="10.00">utils.h</text>
</a>
</g>
</g>
<!-- Node5&#45;&gt;Node8 -->
<g id="edge8" class="edge">
<title>Node5&#45;&gt;Node8</title>
<path fill="none" stroke="midnightblue" d="M215.36,-117.98C213.5,-109.49 210.6,-96.2 208.22,-85.32"/>
<polygon fill="midnightblue" stroke="midnightblue" points="211.63,-84.53 206.08,-75.51 204.79,-86.03 211.63,-84.53"/>
</g>
<!-- Node8&#45;&gt;Node2 -->
<g id="edge9" class="edge">
<title>Node8&#45;&gt;Node2</title>
<path fill="none" stroke="midnightblue" d="M182.91,-57.94C155.3,-48.79 106.88,-32.75 74.43,-22"/>
<polygon fill="midnightblue" stroke="midnightblue" points="75.5,-18.67 64.91,-18.85 73.3,-25.32 75.5,-18.67"/>
</g>
<!-- Node8&#45;&gt;Node4 -->
<g id="edge11" class="edge">
<title>Node8&#45;&gt;Node4</title>
<path fill="none" stroke="midnightblue" d="M215.14,-56.32C225.39,-48.18 240.94,-35.84 253.22,-26.09"/>
<polygon fill="midnightblue" stroke="midnightblue" points="255.44,-28.79 261.09,-19.83 251.09,-23.31 255.44,-28.79"/>
</g>
<!-- Node8&#45;&gt;Node6 -->
<g id="edge10" class="edge">
<title>Node8&#45;&gt;Node6</title>
<path fill="none" stroke="midnightblue" d="M196.13,-56.08C189.06,-48.3 178.63,-36.8 170.07,-27.37"/>
<polygon fill="midnightblue" stroke="midnightblue" points="172.47,-24.8 163.16,-19.75 167.29,-29.51 172.47,-24.8"/>
</g>
<!-- Node8&#45;&gt;Node7 -->
<g id="edge12" class="edge">
<title>Node8&#45;&gt;Node7</title>
<path fill="none" stroke="midnightblue" d="M225.59,-59.42C259.23,-50.65 325.17,-33.45 368.71,-22.09"/>
<polygon fill="midnightblue" stroke="midnightblue" points="369.66,-25.46 378.45,-19.55 367.89,-18.69 369.66,-25.46"/>
</g>
<!-- Node9&#45;&gt;Node4 -->
<g id="edge15" class="edge">
<title>Node9&#45;&gt;Node4</title>
<path fill="none" stroke="midnightblue" d="M96.29,-117.85C111.49,-103.65 143.5,-75.08 174.22,-56 195.03,-43.07 220.18,-31.6 239.79,-23.48"/>
<polygon fill="midnightblue" stroke="midnightblue" points="241.26,-26.66 249.21,-19.65 238.63,-20.17 241.26,-26.66"/>
</g>
<!-- Node9&#45;&gt;Node6 -->
<g id="edge14" class="edge">
<title>Node9&#45;&gt;Node6</title>
<path fill="none" stroke="midnightblue" d="M87.48,-117.61C88.27,-103.56 91.34,-75.8 103.22,-56 110.51,-43.84 122.23,-33.28 132.69,-25.45"/>
<polygon fill="midnightblue" stroke="midnightblue" points="134.91,-28.17 141.07,-19.54 130.88,-22.45 134.91,-28.17"/>
</g>
<!-- Node9&#45;&gt;Node8 -->
<g id="edge16" class="edge">
<title>Node9&#45;&gt;Node8</title>
<path fill="none" stroke="midnightblue" d="M103.98,-117.98C123.44,-108.08 155.76,-91.64 178.43,-80.12"/>
<polygon fill="midnightblue" stroke="midnightblue" points="180.16,-83.16 187.49,-75.51 176.99,-76.92 180.16,-83.16"/>
</g>
<!-- Node10&#45;&gt;Node4 -->
<g id="edge18" class="edge">
<title>Node10&#45;&gt;Node4</title>
<path fill="none" stroke="midnightblue" d="M373.95,-117.82C355.64,-98.59 311.4,-52.14 287.75,-27.31"/>
<polygon fill="midnightblue" stroke="midnightblue" points="290.01,-24.61 280.58,-19.78 284.94,-29.44 290.01,-24.61"/>
</g>
<!-- Node10&#45;&gt;Node7 -->
<g id="edge19" class="edge">
<title>Node10&#45;&gt;Node7</title>
<path fill="none" stroke="midnightblue" d="M384.4,-117.82C389.08,-99.17 400.18,-54.94 406.54,-29.63"/>
<polygon fill="midnightblue" stroke="midnightblue" points="409.97,-30.33 409.01,-19.78 403.18,-28.63 409.97,-30.33"/>
</g>
<!-- Node10&#45;&gt;Node8 -->
<g id="edge20" class="edge">
<title>Node10&#45;&gt;Node8</title>
<path fill="none" stroke="midnightblue" d="M356.72,-117.98C324.52,-107.21 269.19,-88.72 234.77,-77.21"/>
<polygon fill="midnightblue" stroke="midnightblue" points="235.82,-73.87 225.23,-74.02 233.6,-80.51 235.82,-73.87"/>
</g>
<!-- Node11&#45;&gt;Node4 -->
<g id="edge22" class="edge">
<title>Node11&#45;&gt;Node4</title>
<path fill="none" stroke="midnightblue" d="M482.79,-112.34C435.79,-89.72 344.49,-45.78 299.13,-23.95"/>
<polygon fill="midnightblue" stroke="midnightblue" points="300.46,-20.71 289.93,-19.52 297.42,-27.01 300.46,-20.71"/>
</g>
<!-- Node11&#45;&gt;Node7 -->
<g id="edge23" class="edge">
<title>Node11&#45;&gt;Node7</title>
<path fill="none" stroke="midnightblue" d="M499.83,-112.34C481.06,-90.86 445.47,-50.17 425.58,-27.43"/>
<polygon fill="midnightblue" stroke="midnightblue" points="428.02,-24.89 418.8,-19.67 422.75,-29.5 428.02,-24.89"/>
</g>
<!-- Node11&#45;&gt;Node8 -->
<g id="edge24" class="edge">
<title>Node11&#45;&gt;Node8</title>
<path fill="none" stroke="midnightblue" d="M462.91,-113.93C459.97,-113.26 457.06,-112.61 454.22,-112 375.85,-95.17 282.74,-79.56 235.33,-71.91"/>
<polygon fill="midnightblue" stroke="midnightblue" points="235.81,-68.45 225.38,-70.32 234.7,-75.36 235.81,-68.45"/>
</g>
</g>
</svg>
