<?xml version="1.0" encoding="UTF-8" standalone="no"?>
<!DOCTYPE svg PUBLIC "-//W3C//DTD SVG 1.1//EN"
 "http://www.w3.org/Graphics/SVG/1.1/DTD/svg11.dtd">
<!-- Generated by graphviz version 2.49.3 (20211027.1534)
 -->
<!-- Title: src/main.c Pages: 1 -->
<svg width="774pt" height="263pt"
 viewBox="0.00 0.00 774.00 263.00" xmlns="http://www.w3.org/2000/svg" xmlns:xlink="http://www.w3.org/1999/xlink">
<g id="graph0" class="graph" transform="scale(1 1) rotate(0) translate(4 259)">
<title>src/main.c</title>
<!-- Node1 -->
<g id="node1" class="node">
<title>Node1</title>
<g id="a_node1"><a xlink:title=" ">
<polygon fill="#bfbfbf" stroke="black" points="287.5,-235.5 287.5,-254.5 349.5,-254.5 349.5,-235.5 287.5,-235.5"/>
<text text-anchor="middle" x="318.5" y="-242.5" font-family="Helvetica,sans-Serif" font-size="10.00">src/main.c</text>
</a>
</g>
</g>
<!-- Node2 -->
<g id="node2" class="node">
<title>Node2</title>
<g id="a_node2"><a xlink:href="main_8h.html" target="_top" xlink:title=" ">
<polygon fill="none" stroke="black" points="296,-179.5 296,-198.5 341,-198.5 341,-179.5 296,-179.5"/>
<text text-anchor="middle" x="318.5" y="-186.5" font-family="Helvetica,sans-Serif" font-size="10.00">main.h</text>
</a>
</g>
</g>
<!-- Node1&#45;&gt;Node2 -->
<g id="edge1" class="edge">
<title>Node1&#45;&gt;Node2</title>
<path fill="none" stroke="midnightblue" d="M318.5,-235.08C318.5,-228.01 318.5,-217.86 318.5,-208.99"/>
<polygon fill="midnightblue" stroke="midnightblue" points="322,-208.75 318.5,-198.75 315,-208.75 322,-208.75"/>
</g>
<!-- Node3 -->
<g id="node3" class="node">
<title>Node3</title>
<g id="a_node3"><a xlink:title=" ">
<polygon fill="none" stroke="#bfbfbf" points="0,-0.5 0,-19.5 47,-19.5 47,-0.5 0,-0.5"/>
<text text-anchor="middle" x="23.5" y="-7.5" font-family="Helvetica,sans-Serif" font-size="10.00">stdlib.h</text>
</a>
</g>
</g>
<!-- Node2&#45;&gt;Node3 -->
<g id="edge2" class="edge">
<title>Node2&#45;&gt;Node3</title>
<path fill="none" stroke="midnightblue" d="M295.58,-188.21C231.93,-188.26 55.29,-184.58 19.5,-143 -7.95,-111.11 6.02,-57.09 16.12,-29.07"/>
<polygon fill="midnightblue" stroke="midnightblue" points="19.4,-30.29 19.71,-19.7 12.87,-27.79 19.4,-30.29"/>
</g>
<!-- Node4 -->
<g id="node4" class="node">
<title>Node4</title>
<g id="a_node4"><a xlink:title=" ">
<polygon fill="none" stroke="#bfbfbf" points="721,-118 721,-137 766,-137 766,-118 721,-118"/>
<text text-anchor="middle" x="743.5" y="-125" font-family="Helvetica,sans-Serif" font-size="10.00">stdio.h</text>
</a>
</g>
</g>
<!-- Node2&#45;&gt;Node4 -->
<g id="edge3" class="edge">
<title>Node2&#45;&gt;Node4</title>
<path fill="none" stroke="midnightblue" d="M341.12,-187.85C402.1,-186.92 574.48,-180.88 711.5,-143 713.65,-142.41 715.84,-141.69 718.01,-140.89"/>
<polygon fill="midnightblue" stroke="midnightblue" points="719.37,-144.11 727.26,-137.04 716.68,-137.65 719.37,-144.11"/>
</g>
<!-- Node5 -->
<g id="node5" class="node">
<title>Node5</title>
<g id="a_node5"><a xlink:title=" ">
<polygon fill="none" stroke="#bfbfbf" points="246,-0.5 246,-19.5 305,-19.5 305,-0.5 246,-0.5"/>
<text text-anchor="middle" x="275.5" y="-7.5" font-family="Helvetica,sans-Serif" font-size="10.00">curl/curl.h</text>
</a>
</g>
</g>
<!-- Node2&#45;&gt;Node5 -->
<g id="edge4" class="edge">
<title>Node2&#45;&gt;Node5</title>
<path fill="none" stroke="midnightblue" d="M295.56,-186.04C269.22,-182.42 227.13,-172.15 207.5,-143 180.76,-103.3 228.58,-51.75 256.87,-26.42"/>
<polygon fill="midnightblue" stroke="midnightblue" points="259.33,-28.93 264.59,-19.73 254.74,-23.64 259.33,-28.93"/>
</g>
<!-- Node6 -->
<g id="node6" class="node">
<title>Node6</title>
<g id="a_node6"><a xlink:href="ubidots_8h.html" target="_top" xlink:title=" ">
<polygon fill="none" stroke="black" points="216.5,-118 216.5,-137 308.5,-137 308.5,-118 216.5,-118"/>
<text text-anchor="middle" x="262.5" y="-125" font-family="Helvetica,sans-Serif" font-size="10.00">Ubidots/ubidots.h</text>
</a>
</g>
</g>
<!-- Node2&#45;&gt;Node6 -->
<g id="edge5" class="edge">
<title>Node2&#45;&gt;Node6</title>
<path fill="none" stroke="midnightblue" d="M310.48,-179.48C301.91,-170.37 288.14,-155.74 277.54,-144.48"/>
<polygon fill="midnightblue" stroke="midnightblue" points="279.91,-141.89 270.51,-137.01 274.81,-146.69 279.91,-141.89"/>
</g>
<!-- Node10 -->
<g id="node10" class="node">
<title>Node10</title>
<g id="a_node10"><a xlink:href="w__weather_8h.html" target="_top" xlink:title=" ">
<polygon fill="none" stroke="black" points="29,-118 29,-137 160,-137 160,-118 29,-118"/>
<text text-anchor="middle" x="94.5" y="-125" font-family="Helvetica,sans-Serif" font-size="10.00">WillyWeather/w_weather.h</text>
</a>
</g>
</g>
<!-- Node2&#45;&gt;Node10 -->
<g id="edge14" class="edge">
<title>Node2&#45;&gt;Node10</title>
<path fill="none" stroke="midnightblue" d="M295.79,-181.97C258.49,-172.06 183.68,-152.19 136.51,-139.66"/>
<polygon fill="midnightblue" stroke="midnightblue" points="137.16,-136.21 126.6,-137.03 135.37,-142.98 137.16,-136.21"/>
</g>
<!-- Node11 -->
<g id="node11" class="node">
<title>Node11</title>
<g id="a_node11"><a xlink:href="authenticate_8h.html" target="_top" xlink:title=" ">
<polygon fill="none" stroke="black" points="443,-118 443,-137 568,-137 568,-118 443,-118"/>
<text text-anchor="middle" x="505.5" y="-125" font-family="Helvetica,sans-Serif" font-size="10.00">IBM_EMS/authenticate.h</text>
</a>
</g>
</g>
<!-- Node2&#45;&gt;Node11 -->
<g id="edge18" class="edge">
<title>Node2&#45;&gt;Node11</title>
<path fill="none" stroke="midnightblue" d="M341.06,-180.82C372.8,-170.72 431.02,-152.2 468.98,-140.12"/>
<polygon fill="midnightblue" stroke="midnightblue" points="470.17,-143.41 478.64,-137.05 468.05,-136.74 470.17,-143.41"/>
</g>
<!-- Node12 -->
<g id="node12" class="node">
<title>Node12</title>
<g id="a_node12"><a xlink:href="food__auth_8h.html" target="_top" xlink:title=" ">
<polygon fill="none" stroke="black" points="326.5,-112.5 326.5,-142.5 424.5,-142.5 424.5,-112.5 326.5,-112.5"/>
<text text-anchor="start" x="334.5" y="-130.5" font-family="Helvetica,sans-Serif" font-size="10.00">FoodAuthority/food</text>
<text text-anchor="middle" x="375.5" y="-119.5" font-family="Helvetica,sans-Serif" font-size="10.00">_auth.h</text>
</a>
</g>
</g>
<!-- Node2&#45;&gt;Node12 -->
<g id="edge22" class="edge">
<title>Node2&#45;&gt;Node12</title>
<path fill="none" stroke="midnightblue" d="M326.67,-179.48C334.03,-171.79 345.16,-160.17 354.94,-149.96"/>
<polygon fill="midnightblue" stroke="midnightblue" points="357.68,-152.17 362.07,-142.52 352.62,-147.32 357.68,-152.17"/>
</g>
<!-- Node13 -->
<g id="node13" class="node">
<title>Node13</title>
<g id="a_node13"><a xlink:href="timeseries_8h.html" target="_top" xlink:title=" ">
<polygon fill="none" stroke="black" points="586.5,-118 586.5,-137 702.5,-137 702.5,-118 586.5,-118"/>
<text text-anchor="middle" x="644.5" y="-125" font-family="Helvetica,sans-Serif" font-size="10.00">IBM_EMS/timeseries.h</text>
</a>
</g>
</g>
<!-- Node2&#45;&gt;Node13 -->
<g id="edge26" class="edge">
<title>Node2&#45;&gt;Node13</title>
<path fill="none" stroke="midnightblue" d="M341.33,-184.31C386.39,-176.97 489.9,-159.78 576.5,-143 582.72,-141.79 589.25,-140.47 595.7,-139.14"/>
<polygon fill="midnightblue" stroke="midnightblue" points="596.65,-142.51 605.71,-137.03 595.21,-135.66 596.65,-142.51"/>
</g>
<!-- Node6&#45;&gt;Node5 -->
<g id="edge7" class="edge">
<title>Node6&#45;&gt;Node5</title>
<path fill="none" stroke="midnightblue" d="M257.4,-117.73C250.25,-104.31 238.86,-77.93 245.5,-56 248.62,-45.7 254.95,-35.61 261,-27.6"/>
<polygon fill="midnightblue" stroke="midnightblue" points="263.73,-29.8 267.29,-19.82 258.28,-25.4 263.73,-29.8"/>
</g>
<!-- Node7 -->
<g id="node7" class="node">
<title>Node7</title>
<g id="a_node7"><a xlink:title=" ">
<polygon fill="none" stroke="#bfbfbf" points="88.5,-0.5 88.5,-19.5 136.5,-19.5 136.5,-0.5 88.5,-0.5"/>
<text text-anchor="middle" x="112.5" y="-7.5" font-family="Helvetica,sans-Serif" font-size="10.00">string.h</text>
</a>
</g>
</g>
<!-- Node6&#45;&gt;Node7 -->
<g id="edge6" class="edge">
<title>Node6&#45;&gt;Node7</title>
<path fill="none" stroke="midnightblue" d="M251.23,-117.82C225.82,-98.25 163.82,-50.52 132.02,-26.03"/>
<polygon fill="midnightblue" stroke="midnightblue" points="133.96,-23.11 123.91,-19.78 129.69,-28.66 133.96,-23.11"/>
</g>
<!-- Node8 -->
<g id="node8" class="node">
<title>Node8</title>
<g id="a_node8"><a xlink:title=" ">
<polygon fill="none" stroke="#bfbfbf" points="397,-0.5 397,-19.5 480,-19.5 480,-0.5 397,-0.5"/>
<text text-anchor="middle" x="438.5" y="-7.5" font-family="Helvetica,sans-Serif" font-size="10.00">cjson/cJSON.h</text>
</a>
</g>
</g>
<!-- Node6&#45;&gt;Node8 -->
<g id="edge8" class="edge">
<title>Node6&#45;&gt;Node8</title>
<path fill="none" stroke="midnightblue" d="M275.73,-117.82C305.8,-98.09 379.53,-49.7 416.55,-25.41"/>
<polygon fill="midnightblue" stroke="midnightblue" points="418.68,-28.19 425.12,-19.78 414.84,-22.34 418.68,-28.19"/>
</g>
<!-- Node9 -->
<g id="node9" class="node">
<title>Node9</title>
<g id="a_node9"><a xlink:href="utils_8h.html" target="_top" xlink:title=" ">
<polygon fill="none" stroke="black" points="254.5,-56.5 254.5,-75.5 296.5,-75.5 296.5,-56.5 254.5,-56.5"/>
<text text-anchor="middle" x="275.5" y="-63.5" font-family="Helvetica,sans-Serif" font-size="10.00">utils.h</text>
</a>
</g>
</g>
<!-- Node6&#45;&gt;Node9 -->
<g id="edge9" class="edge">
<title>Node6&#45;&gt;Node9</title>
<path fill="none" stroke="midnightblue" d="M264.36,-117.98C266.22,-109.49 269.12,-96.2 271.5,-85.32"/>
<polygon fill="midnightblue" stroke="midnightblue" points="274.93,-86.03 273.64,-75.51 268.09,-84.53 274.93,-86.03"/>
</g>
<!-- Node9&#45;&gt;Node3 -->
<g id="edge10" class="edge">
<title>Node9&#45;&gt;Node3</title>
<path fill="none" stroke="midnightblue" d="M254.45,-60.49C210.75,-51.13 109.9,-29.52 57.11,-18.2"/>
<polygon fill="midnightblue" stroke="midnightblue" points="57.73,-14.76 47.22,-16.08 56.26,-21.6 57.73,-14.76"/>
</g>
<!-- Node9&#45;&gt;Node5 -->
<g id="edge12" class="edge">
<title>Node9&#45;&gt;Node5</title>
<path fill="none" stroke="midnightblue" d="M275.5,-56.08C275.5,-49.01 275.5,-38.86 275.5,-29.99"/>
<polygon fill="midnightblue" stroke="midnightblue" points="279,-29.75 275.5,-19.75 272,-29.75 279,-29.75"/>
</g>
<!-- Node9&#45;&gt;Node7 -->
<g id="edge11" class="edge">
<title>Node9&#45;&gt;Node7</title>
<path fill="none" stroke="midnightblue" d="M254.19,-57.94C226.74,-48.85 178.71,-32.93 146.26,-22.19"/>
<polygon fill="midnightblue" stroke="midnightblue" points="147.33,-18.85 136.73,-19.03 145.13,-25.5 147.33,-18.85"/>
</g>
<!-- Node9&#45;&gt;Node8 -->
<g id="edge13" class="edge">
<title>Node9&#45;&gt;Node8</title>
<path fill="none" stroke="midnightblue" d="M296.81,-57.94C323.79,-49 370.66,-33.48 403.06,-22.74"/>
<polygon fill="midnightblue" stroke="midnightblue" points="404.22,-26.04 412.61,-19.58 402.02,-19.4 404.22,-26.04"/>
</g>
<!-- Node10&#45;&gt;Node5 -->
<g id="edge16" class="edge">
<title>Node10&#45;&gt;Node5</title>
<path fill="none" stroke="midnightblue" d="M102.67,-117.74C116.42,-103.39 145.52,-74.6 174.5,-56 195.46,-42.54 221.12,-31.16 241.34,-23.22"/>
<polygon fill="midnightblue" stroke="midnightblue" points="242.69,-26.45 250.78,-19.6 240.18,-19.91 242.69,-26.45"/>
</g>
<!-- Node10&#45;&gt;Node7 -->
<g id="edge15" class="edge">
<title>Node10&#45;&gt;Node7</title>
<path fill="none" stroke="midnightblue" d="M94.31,-117.74C94.18,-104.33 94.52,-77.95 98.5,-56 100.12,-47.04 102.98,-37.37 105.69,-29.3"/>
<polygon fill="midnightblue" stroke="midnightblue" points="109.01,-30.4 109.05,-19.8 102.42,-28.06 109.01,-30.4"/>
</g>
<!-- Node10&#45;&gt;Node9 -->
<g id="edge17" class="edge">
<title>Node10&#45;&gt;Node9</title>
<path fill="none" stroke="midnightblue" d="M120.43,-117.98C153.26,-107.18 209.74,-88.62 244.72,-77.12"/>
<polygon fill="midnightblue" stroke="midnightblue" points="246,-80.38 254.41,-73.93 243.82,-73.73 246,-80.38"/>
</g>
<!-- Node11&#45;&gt;Node5 -->
<g id="edge19" class="edge">
<title>Node11&#45;&gt;Node5</title>
<path fill="none" stroke="midnightblue" d="M488.21,-117.82C448.24,-97.74 349.21,-48.01 301.72,-24.17"/>
<polygon fill="midnightblue" stroke="midnightblue" points="303.18,-20.98 292.67,-19.62 300.04,-27.24 303.18,-20.98"/>
</g>
<!-- Node11&#45;&gt;Node8 -->
<g id="edge20" class="edge">
<title>Node11&#45;&gt;Node8</title>
<path fill="none" stroke="midnightblue" d="M500.46,-117.82C489.5,-98.92 463.3,-53.75 448.72,-28.62"/>
<polygon fill="midnightblue" stroke="midnightblue" points="451.64,-26.68 443.59,-19.78 445.58,-30.19 451.64,-26.68"/>
</g>
<!-- Node11&#45;&gt;Node9 -->
<g id="edge21" class="edge">
<title>Node11&#45;&gt;Node9</title>
<path fill="none" stroke="midnightblue" d="M472.55,-117.98C428.16,-106.49 349.74,-86.21 306.42,-75"/>
<polygon fill="midnightblue" stroke="midnightblue" points="307.27,-71.6 296.72,-72.49 305.52,-78.38 307.27,-71.6"/>
</g>
<!-- Node12&#45;&gt;Node5 -->
<g id="edge23" class="edge">
<title>Node12&#45;&gt;Node5</title>
<path fill="none" stroke="midnightblue" d="M363.24,-112.34C344.65,-90.86 309.41,-50.17 289.72,-27.43"/>
<polygon fill="midnightblue" stroke="midnightblue" points="292.2,-24.94 283.01,-19.67 286.91,-29.52 292.2,-24.94"/>
</g>
<!-- Node12&#45;&gt;Node8 -->
<g id="edge24" class="edge">
<title>Node12&#45;&gt;Node8</title>
<path fill="none" stroke="midnightblue" d="M383.23,-112.34C394.73,-91.24 416.35,-51.6 428.87,-28.65"/>
<polygon fill="midnightblue" stroke="midnightblue" points="432.06,-30.12 433.77,-19.67 425.91,-26.77 432.06,-30.12"/>
</g>
<!-- Node12&#45;&gt;Node9 -->
<g id="edge25" class="edge">
<title>Node12&#45;&gt;Node9</title>
<path fill="none" stroke="midnightblue" d="M351.8,-112.4C335.77,-102.86 314.7,-90.32 298.76,-80.84"/>
<polygon fill="midnightblue" stroke="midnightblue" points="300.43,-77.76 290.05,-75.66 296.86,-83.78 300.43,-77.76"/>
</g>
<!-- Node13&#45;&gt;Node5 -->
<g id="edge27" class="edge">
<title>Node13&#45;&gt;Node5</title>
<path fill="none" stroke="midnightblue" d="M617.07,-117.91C551.74,-97.47 386.91,-45.87 312.71,-22.65"/>
<polygon fill="midnightblue" stroke="midnightblue" points="313.45,-19.21 302.86,-19.56 311.36,-25.89 313.45,-19.21"/>
</g>
<!-- Node13&#45;&gt;Node8 -->
<g id="edge28" class="edge">
<title>Node13&#45;&gt;Node8</title>
<path fill="none" stroke="midnightblue" d="M629.02,-117.82C593.44,-97.87 505.63,-48.64 462.79,-24.62"/>
<polygon fill="midnightblue" stroke="midnightblue" points="464.32,-21.46 453.88,-19.62 460.89,-27.57 464.32,-21.46"/>
</g>
<!-- Node13&#45;&gt;Node9 -->
<g id="edge31" class="edge">
<title>Node13&#45;&gt;Node9</title>
<path fill="none" stroke="midnightblue" d="M606.46,-117.96C596.72,-115.89 586.24,-113.76 576.5,-112 478.53,-94.25 361.7,-78.25 306.86,-71.04"/>
<polygon fill="midnightblue" stroke="midnightblue" points="307.11,-67.54 296.74,-69.72 306.2,-74.48 307.11,-67.54"/>
</g>
<!-- Node14 -->
<g id="node14" class="node">
<title>Node14</title>
<g id="a_node14"><a xlink:title=" ">
<polygon fill="none" stroke="#bfbfbf" points="610.5,-56.5 610.5,-75.5 656.5,-75.5 656.5,-56.5 610.5,-56.5"/>
<text text-anchor="middle" x="633.5" y="-63.5" font-family="Helvetica,sans-Serif" font-size="10.00">math.h</text>
</a>
</g>
</g>
<!-- Node13&#45;&gt;Node14 -->
<g id="edge29" class="edge">
<title>Node13&#45;&gt;Node14</title>
<path fill="none" stroke="midnightblue" d="M642.92,-117.98C641.37,-109.58 638.95,-96.48 636.95,-85.66"/>
<polygon fill="midnightblue" stroke="midnightblue" points="640.33,-84.71 635.07,-75.51 633.45,-85.98 640.33,-84.71"/>
</g>
<!-- Node15 -->
<g id="node15" class="node">
<title>Node15</title>
<g id="a_node15"><a xlink:title=" ">
<polygon fill="none" stroke="#bfbfbf" points="675,-56.5 675,-75.5 718,-75.5 718,-56.5 675,-56.5"/>
<text text-anchor="middle" x="696.5" y="-63.5" font-family="Helvetica,sans-Serif" font-size="10.00">time.h</text>
</a>
</g>
</g>
<!-- Node13&#45;&gt;Node15 -->
<g id="edge30" class="edge">
<title>Node13&#45;&gt;Node15</title>
<path fill="none" stroke="midnightblue" d="M651.95,-117.98C659.83,-108.96 672.44,-94.52 682.24,-83.31"/>
<polygon fill="midnightblue" stroke="midnightblue" points="685.12,-85.34 689.06,-75.51 679.85,-80.74 685.12,-85.34"/>
</g>
</g>
</svg>
