<?xml version="1.0" encoding="UTF-8" standalone="no"?>
<!DOCTYPE svg PUBLIC "-//W3C//DTD SVG 1.1//EN"
 "http://www.w3.org/Graphics/SVG/1.1/DTD/svg11.dtd">
<!-- Generated by graphviz version 2.49.3 (20211027.1534)
 -->
<!-- Title: src/main.c Pages: 1 -->
<svg width="356pt" height="252pt"
 viewBox="0.00 0.00 356.00 252.00" xmlns="http://www.w3.org/2000/svg" xmlns:xlink="http://www.w3.org/1999/xlink">
<g id="graph0" class="graph" transform="scale(1 1) rotate(0) translate(4 248)">
<title>src/main.c</title>
<!-- Node1 -->
<g id="node1" class="node">
<title>Node1</title>
<g id="a_node1"><a xlink:title=" ">
<polygon fill="#bfbfbf" stroke="black" points="100.5,-224.5 100.5,-243.5 162.5,-243.5 162.5,-224.5 100.5,-224.5"/>
<text text-anchor="middle" x="131.5" y="-231.5" font-family="Helvetica,sans-Serif" font-size="10.00">src/main.c</text>
</a>
</g>
</g>
<!-- Node2 -->
<g id="node2" class="node">
<title>Node2</title>
<g id="a_node2"><a xlink:href="main_8h.html" target="_top" xlink:title=" ">
<polygon fill="none" stroke="black" points="88.5,-168.5 88.5,-187.5 174.5,-187.5 174.5,-168.5 88.5,-168.5"/>
<text text-anchor="middle" x="131.5" y="-175.5" font-family="Helvetica,sans-Serif" font-size="10.00">../include/main.h</text>
</a>
</g>
</g>
<!-- Node1&#45;&gt;Node2 -->
<g id="edge1" class="edge">
<title>Node1&#45;&gt;Node2</title>
<path fill="none" stroke="midnightblue" d="M131.5,-224.08C131.5,-217.01 131.5,-206.86 131.5,-197.99"/>
<polygon fill="midnightblue" stroke="midnightblue" points="135,-197.75 131.5,-187.75 128,-197.75 135,-197.75"/>
</g>
<!-- Node3 -->
<g id="node3" class="node">
<title>Node3</title>
<g id="a_node3"><a xlink:title=" ">
<polygon fill="none" stroke="#bfbfbf" points="0,-0.5 0,-19.5 47,-19.5 47,-0.5 0,-0.5"/>
<text text-anchor="middle" x="23.5" y="-7.5" font-family="Helvetica,sans-Serif" font-size="10.00">stdlib.h</text>
</a>
</g>
</g>
<!-- Node2&#45;&gt;Node3 -->
<g id="edge2" class="edge">
<title>Node2&#45;&gt;Node3</title>
<path fill="none" stroke="midnightblue" d="M94.12,-168.48C74.09,-161.93 50.85,-150.7 37.5,-132 15.77,-101.55 17.39,-55.4 20.46,-29.79"/>
<polygon fill="midnightblue" stroke="midnightblue" points="23.97,-29.99 21.9,-19.6 17.04,-29.02 23.97,-29.99"/>
</g>
<!-- Node4 -->
<g id="node4" class="node">
<title>Node4</title>
<g id="a_node4"><a xlink:title=" ">
<polygon fill="none" stroke="#bfbfbf" points="303,-112.5 303,-131.5 348,-131.5 348,-112.5 303,-112.5"/>
<text text-anchor="middle" x="325.5" y="-119.5" font-family="Helvetica,sans-Serif" font-size="10.00">stdio.h</text>
</a>
</g>
</g>
<!-- Node2&#45;&gt;Node4 -->
<g id="edge3" class="edge">
<title>Node2&#45;&gt;Node4</title>
<path fill="none" stroke="midnightblue" d="M162.26,-168.49C192.95,-159.99 241.68,-146.47 293.14,-132.09"/>
<polygon fill="midnightblue" stroke="midnightblue" points="294.09,-135.46 302.78,-129.4 292.2,-128.72 294.09,-135.46"/>
</g>
<!-- Node5 -->
<g id="node5" class="node">
<title>Node5</title>
<g id="a_node5"><a xlink:title=" ">
<polygon fill="none" stroke="#bfbfbf" points="85,-0.5 85,-19.5 144,-19.5 144,-0.5 85,-0.5"/>
<text text-anchor="middle" x="114.5" y="-7.5" font-family="Helvetica,sans-Serif" font-size="10.00">curl/curl.h</text>
</a>
</g>
</g>
<!-- Node2&#45;&gt;Node5 -->
<g id="edge4" class="edge">
<title>Node2&#45;&gt;Node5</title>
<path fill="none" stroke="midnightblue" d="M98.51,-168.44C80.04,-161.77 58.55,-150.45 47.5,-132 25.03,-94.47 68.46,-49.09 95.38,-26.03"/>
<polygon fill="midnightblue" stroke="midnightblue" points="97.65,-28.7 103.12,-19.62 93.18,-23.3 97.65,-28.7"/>
</g>
<!-- Node6 -->
<g id="node6" class="node">
<title>Node6</title>
<g id="a_node6"><a xlink:href="ubidots_8h.html" target="_top" xlink:title=" ">
<polygon fill="none" stroke="black" points="228.5,-112.5 228.5,-131.5 284.5,-131.5 284.5,-112.5 228.5,-112.5"/>
<text text-anchor="middle" x="256.5" y="-119.5" font-family="Helvetica,sans-Serif" font-size="10.00">ubidots.h</text>
</a>
</g>
</g>
<!-- Node2&#45;&gt;Node6 -->
<g id="edge5" class="edge">
<title>Node2&#45;&gt;Node6</title>
<path fill="none" stroke="midnightblue" d="M151.31,-168.44C171.79,-159.6 203.98,-145.69 227.36,-135.59"/>
<polygon fill="midnightblue" stroke="midnightblue" points="228.99,-138.7 236.79,-131.52 226.22,-132.27 228.99,-138.7"/>
</g>
<!-- Node10 -->
<g id="node10" class="node">
<title>Node10</title>
<g id="a_node10"><a xlink:href="w__weather_8h.html" target="_top" xlink:title=" ">
<polygon fill="none" stroke="black" points="139,-112.5 139,-131.5 210,-131.5 210,-112.5 139,-112.5"/>
<text text-anchor="middle" x="174.5" y="-119.5" font-family="Helvetica,sans-Serif" font-size="10.00">w_weather.h</text>
</a>
</g>
</g>
<!-- Node2&#45;&gt;Node10 -->
<g id="edge14" class="edge">
<title>Node2&#45;&gt;Node10</title>
<path fill="none" stroke="midnightblue" d="M138.6,-168.08C144.74,-160.38 153.77,-149.03 161.24,-139.65"/>
<polygon fill="midnightblue" stroke="midnightblue" points="164.04,-141.75 167.53,-131.75 158.56,-137.39 164.04,-141.75"/>
</g>
<!-- Node11 -->
<g id="node11" class="node">
<title>Node11</title>
<g id="a_node11"><a xlink:href="ibm__ems_8h.html" target="_top" xlink:title=" ">
<polygon fill="none" stroke="black" points="56.5,-112.5 56.5,-131.5 120.5,-131.5 120.5,-112.5 56.5,-112.5"/>
<text text-anchor="middle" x="88.5" y="-119.5" font-family="Helvetica,sans-Serif" font-size="10.00">ibm_ems.h</text>
</a>
</g>
</g>
<!-- Node2&#45;&gt;Node11 -->
<g id="edge18" class="edge">
<title>Node2&#45;&gt;Node11</title>
<path fill="none" stroke="midnightblue" d="M124.4,-168.08C118.26,-160.38 109.23,-149.03 101.76,-139.65"/>
<polygon fill="midnightblue" stroke="midnightblue" points="104.44,-137.39 95.47,-131.75 98.96,-141.75 104.44,-137.39"/>
</g>
<!-- Node6&#45;&gt;Node5 -->
<g id="edge7" class="edge">
<title>Node6&#45;&gt;Node5</title>
<path fill="none" stroke="midnightblue" d="M252.7,-112.3C246.37,-98.67 232.44,-72.16 213.5,-56 196.18,-41.22 173.2,-30.37 153.74,-23.04"/>
<polygon fill="midnightblue" stroke="midnightblue" points="154.82,-19.71 144.23,-19.62 152.45,-26.3 154.82,-19.71"/>
</g>
<!-- Node7 -->
<g id="node7" class="node">
<title>Node7</title>
<g id="a_node7"><a xlink:title=" ">
<polygon fill="none" stroke="#bfbfbf" points="284.5,-0.5 284.5,-19.5 332.5,-19.5 332.5,-0.5 284.5,-0.5"/>
<text text-anchor="middle" x="308.5" y="-7.5" font-family="Helvetica,sans-Serif" font-size="10.00">string.h</text>
</a>
</g>
</g>
<!-- Node6&#45;&gt;Node7 -->
<g id="edge6" class="edge">
<title>Node6&#45;&gt;Node7</title>
<path fill="none" stroke="midnightblue" d="M278.96,-112.38C294.27,-105.18 313.36,-93.29 322.5,-76 330.24,-61.36 324.91,-42.72 318.73,-29.16"/>
<polygon fill="midnightblue" stroke="midnightblue" points="321.69,-27.26 314.04,-19.93 315.45,-30.43 321.69,-27.26"/>
</g>
<!-- Node8 -->
<g id="node8" class="node">
<title>Node8</title>
<g id="a_node8"><a xlink:title=" ">
<polygon fill="none" stroke="#bfbfbf" points="162,-0.5 162,-19.5 245,-19.5 245,-0.5 162,-0.5"/>
<text text-anchor="middle" x="203.5" y="-7.5" font-family="Helvetica,sans-Serif" font-size="10.00">cjson/cJSON.h</text>
</a>
</g>
</g>
<!-- Node6&#45;&gt;Node8 -->
<g id="edge8" class="edge">
<title>Node6&#45;&gt;Node8</title>
<path fill="none" stroke="midnightblue" d="M256.78,-112.09C256.84,-99.08 255.58,-74.44 246.5,-56 240.87,-44.57 231.31,-34.12 222.62,-26.18"/>
<polygon fill="midnightblue" stroke="midnightblue" points="224.89,-23.51 215.04,-19.63 220.32,-28.81 224.89,-23.51"/>
</g>
<!-- Node9 -->
<g id="node9" class="node">
<title>Node9</title>
<g id="a_node9"><a xlink:href="utils_8h.html" target="_top" xlink:title=" ">
<polygon fill="none" stroke="black" points="162.5,-56.5 162.5,-75.5 204.5,-75.5 204.5,-56.5 162.5,-56.5"/>
<text text-anchor="middle" x="183.5" y="-63.5" font-family="Helvetica,sans-Serif" font-size="10.00">utils.h</text>
</a>
</g>
</g>
<!-- Node6&#45;&gt;Node9 -->
<g id="edge9" class="edge">
<title>Node6&#45;&gt;Node9</title>
<path fill="none" stroke="midnightblue" d="M244.77,-112.32C233.66,-104.11 216.76,-91.6 203.52,-81.81"/>
<polygon fill="midnightblue" stroke="midnightblue" points="205.56,-78.97 195.44,-75.83 201.4,-84.59 205.56,-78.97"/>
</g>
<!-- Node9&#45;&gt;Node3 -->
<g id="edge10" class="edge">
<title>Node9&#45;&gt;Node3</title>
<path fill="none" stroke="midnightblue" d="M162.25,-57.83C135.33,-48.74 88.62,-32.98 56.91,-22.27"/>
<polygon fill="midnightblue" stroke="midnightblue" points="57.77,-18.87 47.18,-18.99 55.54,-25.51 57.77,-18.87"/>
</g>
<!-- Node9&#45;&gt;Node5 -->
<g id="edge12" class="edge">
<title>Node9&#45;&gt;Node5</title>
<path fill="none" stroke="midnightblue" d="M172.41,-56.32C162.01,-48.18 146.24,-35.84 133.78,-26.09"/>
<polygon fill="midnightblue" stroke="midnightblue" points="135.82,-23.24 125.79,-19.83 131.51,-28.75 135.82,-23.24"/>
</g>
<!-- Node9&#45;&gt;Node7 -->
<g id="edge11" class="edge">
<title>Node9&#45;&gt;Node7</title>
<path fill="none" stroke="midnightblue" d="M203.31,-56.44C223.79,-47.6 255.98,-33.69 279.36,-23.59"/>
<polygon fill="midnightblue" stroke="midnightblue" points="280.99,-26.7 288.79,-19.52 278.22,-20.27 280.99,-26.7"/>
</g>
<!-- Node9&#45;&gt;Node8 -->
<g id="edge13" class="edge">
<title>Node9&#45;&gt;Node8</title>
<path fill="none" stroke="midnightblue" d="M186.8,-56.08C189.48,-48.85 193.35,-38.41 196.69,-29.4"/>
<polygon fill="midnightblue" stroke="midnightblue" points="200.07,-30.34 200.26,-19.75 193.5,-27.91 200.07,-30.34"/>
</g>
<!-- Node10&#45;&gt;Node5 -->
<g id="edge16" class="edge">
<title>Node10&#45;&gt;Node5</title>
<path fill="none" stroke="midnightblue" d="M169.79,-112.37C159.98,-94.38 137.16,-52.55 124.11,-28.63"/>
<polygon fill="midnightblue" stroke="midnightblue" points="127.05,-26.69 119.19,-19.59 120.9,-30.05 127.05,-26.69"/>
</g>
<!-- Node10&#45;&gt;Node7 -->
<g id="edge15" class="edge">
<title>Node10&#45;&gt;Node7</title>
<path fill="none" stroke="midnightblue" d="M185.01,-112.37C207.72,-93.73 261.56,-49.53 290.06,-26.13"/>
<polygon fill="midnightblue" stroke="midnightblue" points="292.53,-28.64 298.03,-19.59 288.08,-23.23 292.53,-28.64"/>
</g>
<!-- Node10&#45;&gt;Node9 -->
<g id="edge17" class="edge">
<title>Node10&#45;&gt;Node9</title>
<path fill="none" stroke="midnightblue" d="M175.99,-112.08C177.18,-104.93 178.89,-94.64 180.38,-85.69"/>
<polygon fill="midnightblue" stroke="midnightblue" points="183.85,-86.19 182.04,-75.75 176.95,-85.04 183.85,-86.19"/>
</g>
<!-- Node11&#45;&gt;Node5 -->
<g id="edge19" class="edge">
<title>Node11&#45;&gt;Node5</title>
<path fill="none" stroke="midnightblue" d="M85.59,-112.35C81.78,-99.67 76.3,-75.43 82.5,-56 85.84,-45.54 92.6,-35.43 99.05,-27.45"/>
<polygon fill="midnightblue" stroke="midnightblue" points="101.85,-29.56 105.75,-19.71 96.56,-24.98 101.85,-29.56"/>
</g>
<!-- Node11&#45;&gt;Node8 -->
<g id="edge20" class="edge">
<title>Node11&#45;&gt;Node8</title>
<path fill="none" stroke="midnightblue" d="M96.77,-112.44C108.99,-99.87 132.66,-75.77 153.5,-56 163.98,-46.05 176.02,-35.21 185.65,-26.66"/>
<polygon fill="midnightblue" stroke="midnightblue" points="188.22,-29.06 193.4,-19.81 183.59,-23.81 188.22,-29.06"/>
</g>
<!-- Node11&#45;&gt;Node9 -->
<g id="edge21" class="edge">
<title>Node11&#45;&gt;Node9</title>
<path fill="none" stroke="midnightblue" d="M103.76,-112.32C118.72,-103.82 141.75,-90.73 159.23,-80.8"/>
<polygon fill="midnightblue" stroke="midnightblue" points="161.31,-83.64 168.27,-75.65 157.85,-77.55 161.31,-83.64"/>
</g>
</g>
</svg>
