<?xml version="1.0" encoding="UTF-8" standalone="no"?>
<!DOCTYPE svg PUBLIC "-//W3C//DTD SVG 1.1//EN"
 "http://www.w3.org/Graphics/SVG/1.1/DTD/svg11.dtd">
<!-- Generated by graphviz version 2.49.3 (20211027.1534)
 -->
<!-- Title: include/main.h Pages: 1 -->
<svg width="788pt" height="207pt"
 viewBox="0.00 0.00 787.88 207.00" xmlns="http://www.w3.org/2000/svg" xmlns:xlink="http://www.w3.org/1999/xlink">
<g id="graph0" class="graph" transform="scale(1 1) rotate(0) translate(4 203)">
<title>include/main.h</title>
<!-- Node1 -->
<g id="node1" class="node">
<title>Node1</title>
<g id="a_node1"><a xlink:title=" ">
<polygon fill="#bfbfbf" stroke="black" points="239.38,-179.5 239.38,-198.5 318.38,-198.5 318.38,-179.5 239.38,-179.5"/>
<text text-anchor="middle" x="278.88" y="-186.5" font-family="Helvetica,sans-Serif" font-size="10.00">include/main.h</text>
</a>
</g>
</g>
<!-- Node2 -->
<g id="node2" class="node">
<title>Node2</title>
<g id="a_node2"><a xlink:title=" ">
<polygon fill="none" stroke="#bfbfbf" points="66.38,-0.5 66.38,-19.5 113.38,-19.5 113.38,-0.5 66.38,-0.5"/>
<text text-anchor="middle" x="89.88" y="-7.5" font-family="Helvetica,sans-Serif" font-size="10.00">stdlib.h</text>
</a>
</g>
</g>
<!-- Node1&#45;&gt;Node2 -->
<g id="edge1" class="edge">
<title>Node1&#45;&gt;Node2</title>
<path fill="none" stroke="midnightblue" d="M239.19,-187.38C171.64,-185.4 38.79,-177.15 9.88,-143 -22.7,-104.51 35.85,-51.28 69.15,-25.78"/>
<polygon fill="midnightblue" stroke="midnightblue" points="71.47,-28.42 77.4,-19.64 67.29,-22.81 71.47,-28.42"/>
</g>
<!-- Node3 -->
<g id="node3" class="node">
<title>Node3</title>
<g id="a_node3"><a xlink:title=" ">
<polygon fill="none" stroke="#bfbfbf" points="19.38,-118 19.38,-137 64.38,-137 64.38,-118 19.38,-118"/>
<text text-anchor="middle" x="41.88" y="-125" font-family="Helvetica,sans-Serif" font-size="10.00">stdio.h</text>
</a>
</g>
</g>
<!-- Node1&#45;&gt;Node3 -->
<g id="edge2" class="edge">
<title>Node1&#45;&gt;Node3</title>
<path fill="none" stroke="midnightblue" d="M239.07,-182.01C197.05,-175.06 129.23,-162.07 72.88,-143 71.22,-142.44 69.53,-141.81 67.83,-141.14"/>
<polygon fill="midnightblue" stroke="midnightblue" points="68.9,-137.79 58.33,-137.02 66.12,-144.21 68.9,-137.79"/>
</g>
<!-- Node4 -->
<g id="node4" class="node">
<title>Node4</title>
<g id="a_node4"><a xlink:title=" ">
<polygon fill="none" stroke="#bfbfbf" points="337.38,-0.5 337.38,-19.5 396.38,-19.5 396.38,-0.5 337.38,-0.5"/>
<text text-anchor="middle" x="366.88" y="-7.5" font-family="Helvetica,sans-Serif" font-size="10.00">curl/curl.h</text>
</a>
</g>
</g>
<!-- Node1&#45;&gt;Node4 -->
<g id="edge3" class="edge">
<title>Node1&#45;&gt;Node4</title>
<path fill="none" stroke="midnightblue" d="M273.35,-179.26C264.95,-164.8 250.95,-135.18 260.88,-112 277.63,-72.92 317.75,-41.79 343.55,-24.9"/>
<polygon fill="midnightblue" stroke="midnightblue" points="345.44,-27.84 352.01,-19.53 341.69,-21.93 345.44,-27.84"/>
</g>
<!-- Node5 -->
<g id="node5" class="node">
<title>Node5</title>
<g id="a_node5"><a xlink:href="ubidots_8h.html" target="_top" xlink:title=" ">
<polygon fill="none" stroke="black" points="269.88,-118 269.88,-137 361.88,-137 361.88,-118 269.88,-118"/>
<text text-anchor="middle" x="315.88" y="-125" font-family="Helvetica,sans-Serif" font-size="10.00">Ubidots/ubidots.h</text>
</a>
</g>
</g>
<!-- Node1&#45;&gt;Node5 -->
<g id="edge4" class="edge">
<title>Node1&#45;&gt;Node5</title>
<path fill="none" stroke="midnightblue" d="M284.18,-179.48C289.62,-170.73 298.24,-156.87 305.12,-145.81"/>
<polygon fill="midnightblue" stroke="midnightblue" points="308.28,-147.35 310.59,-137.01 302.34,-143.65 308.28,-147.35"/>
</g>
<!-- Node9 -->
<g id="node9" class="node">
<title>Node9</title>
<g id="a_node9"><a xlink:href="w__weather_8h.html" target="_top" xlink:title=" ">
<polygon fill="none" stroke="black" points="82.38,-118 82.38,-137 213.38,-137 213.38,-118 82.38,-118"/>
<text text-anchor="middle" x="147.88" y="-125" font-family="Helvetica,sans-Serif" font-size="10.00">WillyWeather/w_weather.h</text>
</a>
</g>
</g>
<!-- Node1&#45;&gt;Node9 -->
<g id="edge13" class="edge">
<title>Node1&#45;&gt;Node9</title>
<path fill="none" stroke="midnightblue" d="M260.11,-179.48C238.03,-169.45 201.16,-152.7 175.74,-141.15"/>
<polygon fill="midnightblue" stroke="midnightblue" points="177.17,-137.96 166.62,-137.01 174.27,-144.33 177.17,-137.96"/>
</g>
<!-- Node10 -->
<g id="node10" class="node">
<title>Node10</title>
<g id="a_node10"><a xlink:href="authenticate_8h.html" target="_top" xlink:title=" ">
<polygon fill="none" stroke="black" points="380.38,-118 380.38,-137 499.38,-137 499.38,-118 380.38,-118"/>
<text text-anchor="middle" x="439.88" y="-125" font-family="Helvetica,sans-Serif" font-size="10.00">IBM_EIS/authenticate.h</text>
</a>
</g>
</g>
<!-- Node1&#45;&gt;Node10 -->
<g id="edge19" class="edge">
<title>Node1&#45;&gt;Node10</title>
<path fill="none" stroke="midnightblue" d="M301.95,-179.48C329.57,-169.27 376,-152.11 407.28,-140.55"/>
<polygon fill="midnightblue" stroke="midnightblue" points="408.69,-143.76 416.86,-137.01 406.26,-137.19 408.69,-143.76"/>
</g>
<!-- Node11 -->
<g id="node11" class="node">
<title>Node11</title>
<g id="a_node11"><a xlink:href="timeseries_8h.html" target="_top" xlink:title=" ">
<polygon fill="none" stroke="black" points="633.38,-118 633.38,-137 744.38,-137 744.38,-118 633.38,-118"/>
<text text-anchor="middle" x="688.88" y="-125" font-family="Helvetica,sans-Serif" font-size="10.00">IBM_EIS/timeseries.h</text>
</a>
</g>
</g>
<!-- Node1&#45;&gt;Node11 -->
<g id="edge23" class="edge">
<title>Node1&#45;&gt;Node11</title>
<path fill="none" stroke="midnightblue" d="M318.5,-184.07C382.99,-177.39 514.55,-162.63 624.88,-143 631.07,-141.9 637.55,-140.6 643.93,-139.24"/>
<polygon fill="midnightblue" stroke="midnightblue" points="644.78,-142.64 653.79,-137.07 643.27,-135.8 644.78,-142.64"/>
</g>
<!-- Node14 -->
<g id="node14" class="node">
<title>Node14</title>
<g id="a_node14"><a xlink:href="food__auth_8h.html" target="_top" xlink:title=" ">
<polygon fill="none" stroke="black" points="517.88,-112.5 517.88,-142.5 615.88,-142.5 615.88,-112.5 517.88,-112.5"/>
<text text-anchor="start" x="525.88" y="-130.5" font-family="Helvetica,sans-Serif" font-size="10.00">FoodAuthority/food</text>
<text text-anchor="middle" x="566.88" y="-119.5" font-family="Helvetica,sans-Serif" font-size="10.00">_auth.h</text>
</a>
</g>
</g>
<!-- Node1&#45;&gt;Node14 -->
<g id="edge29" class="edge">
<title>Node1&#45;&gt;Node14</title>
<path fill="none" stroke="midnightblue" d="M318.49,-180.9C362.36,-172.88 435.42,-159.12 507.69,-143.2"/>
<polygon fill="midnightblue" stroke="midnightblue" points="508.87,-146.52 517.88,-140.94 507.36,-139.69 508.87,-146.52"/>
</g>
<!-- Node5&#45;&gt;Node4 -->
<g id="edge6" class="edge">
<title>Node5&#45;&gt;Node4</title>
<path fill="none" stroke="midnightblue" d="M317.56,-117.96C320.42,-104.39 326.9,-77.27 336.88,-56 341.52,-46.12 348.13,-35.93 353.97,-27.76"/>
<polygon fill="midnightblue" stroke="midnightblue" points="356.94,-29.62 360.08,-19.5 351.32,-25.45 356.94,-29.62"/>
</g>
<!-- Node6 -->
<g id="node6" class="node">
<title>Node6</title>
<g id="a_node6"><a xlink:title=" ">
<polygon fill="none" stroke="#bfbfbf" points="255.88,-0.5 255.88,-19.5 303.88,-19.5 303.88,-0.5 255.88,-0.5"/>
<text text-anchor="middle" x="279.88" y="-7.5" font-family="Helvetica,sans-Serif" font-size="10.00">string.h</text>
</a>
</g>
</g>
<!-- Node5&#45;&gt;Node6 -->
<g id="edge5" class="edge">
<title>Node5&#45;&gt;Node6</title>
<path fill="none" stroke="midnightblue" d="M313.18,-117.82C307.36,-99.17 293.58,-54.94 285.69,-29.63"/>
<polygon fill="midnightblue" stroke="midnightblue" points="288.94,-28.29 282.62,-19.78 282.25,-30.37 288.94,-28.29"/>
</g>
<!-- Node7 -->
<g id="node7" class="node">
<title>Node7</title>
<g id="a_node7"><a xlink:title=" ">
<polygon fill="none" stroke="#bfbfbf" points="469.38,-0.5 469.38,-19.5 552.38,-19.5 552.38,-0.5 469.38,-0.5"/>
<text text-anchor="middle" x="510.88" y="-7.5" font-family="Helvetica,sans-Serif" font-size="10.00">cjson/cJSON.h</text>
</a>
</g>
</g>
<!-- Node5&#45;&gt;Node7 -->
<g id="edge7" class="edge">
<title>Node5&#45;&gt;Node7</title>
<path fill="none" stroke="midnightblue" d="M330.54,-117.82C364.15,-97.91 446.99,-48.84 487.64,-24.77"/>
<polygon fill="midnightblue" stroke="midnightblue" points="489.5,-27.73 496.32,-19.62 485.93,-21.71 489.5,-27.73"/>
</g>
<!-- Node8 -->
<g id="node8" class="node">
<title>Node8</title>
<g id="a_node8"><a xlink:href="utils_8h.html" target="_top" xlink:title=" ">
<polygon fill="none" stroke="black" points="345.88,-56.5 345.88,-75.5 387.88,-75.5 387.88,-56.5 345.88,-56.5"/>
<text text-anchor="middle" x="366.88" y="-63.5" font-family="Helvetica,sans-Serif" font-size="10.00">utils.h</text>
</a>
</g>
</g>
<!-- Node5&#45;&gt;Node8 -->
<g id="edge8" class="edge">
<title>Node5&#45;&gt;Node8</title>
<path fill="none" stroke="midnightblue" d="M323.19,-117.98C330.92,-108.96 343.29,-94.52 352.9,-83.31"/>
<polygon fill="midnightblue" stroke="midnightblue" points="355.74,-85.38 359.59,-75.51 350.42,-80.82 355.74,-85.38"/>
</g>
<!-- Node8&#45;&gt;Node2 -->
<g id="edge9" class="edge">
<title>Node8&#45;&gt;Node2</title>
<path fill="none" stroke="midnightblue" d="M345.61,-60.85C297.78,-51.53 181.46,-28.85 123.65,-17.58"/>
<polygon fill="midnightblue" stroke="midnightblue" points="124.05,-14.1 113.57,-15.62 122.71,-20.97 124.05,-14.1"/>
</g>
<!-- Node8&#45;&gt;Node4 -->
<g id="edge11" class="edge">
<title>Node8&#45;&gt;Node4</title>
<path fill="none" stroke="midnightblue" d="M366.88,-56.08C366.88,-49.01 366.88,-38.86 366.88,-29.99"/>
<polygon fill="midnightblue" stroke="midnightblue" points="370.38,-29.75 366.88,-19.75 363.38,-29.75 370.38,-29.75"/>
</g>
<!-- Node8&#45;&gt;Node6 -->
<g id="edge10" class="edge">
<title>Node8&#45;&gt;Node6</title>
<path fill="none" stroke="midnightblue" d="M352.9,-56.32C339.33,-47.9 318.5,-34.97 302.56,-25.07"/>
<polygon fill="midnightblue" stroke="midnightblue" points="304.17,-21.95 293.83,-19.65 300.48,-27.9 304.17,-21.95"/>
</g>
<!-- Node8&#45;&gt;Node7 -->
<g id="edge12" class="edge">
<title>Node8&#45;&gt;Node7</title>
<path fill="none" stroke="midnightblue" d="M388.13,-57.03C411.96,-48.1 450.88,-33.5 478.5,-23.14"/>
<polygon fill="midnightblue" stroke="midnightblue" points="479.99,-26.32 488.12,-19.54 477.53,-19.77 479.99,-26.32"/>
</g>
<!-- Node9&#45;&gt;Node2 -->
<g id="edge15" class="edge">
<title>Node9&#45;&gt;Node2</title>
<path fill="none" stroke="midnightblue" d="M141.19,-117.95C133.8,-108.21 121.88,-91.62 113.88,-76 106.17,-60.94 99.69,-42.81 95.42,-29.53"/>
<polygon fill="midnightblue" stroke="midnightblue" points="98.67,-28.2 92.36,-19.69 91.98,-30.28 98.67,-28.2"/>
</g>
<!-- Node9&#45;&gt;Node4 -->
<g id="edge16" class="edge">
<title>Node9&#45;&gt;Node4</title>
<path fill="none" stroke="midnightblue" d="M150.65,-117.61C155.83,-102.53 168.42,-72.02 189.88,-56 211.39,-39.94 281.87,-25.44 327.14,-17.46"/>
<polygon fill="midnightblue" stroke="midnightblue" points="327.97,-20.87 337.22,-15.72 326.77,-13.97 327.97,-20.87"/>
</g>
<!-- Node9&#45;&gt;Node6 -->
<g id="edge14" class="edge">
<title>Node9&#45;&gt;Node6</title>
<path fill="none" stroke="midnightblue" d="M145.54,-117.66C142.28,-103.18 138.18,-74.23 151.88,-56 173.73,-26.95 215.74,-16.57 245.68,-12.91"/>
<polygon fill="midnightblue" stroke="midnightblue" points="246.12,-16.38 255.71,-11.87 245.4,-9.42 246.12,-16.38"/>
</g>
<!-- Node9&#45;&gt;Node7 -->
<g id="edge17" class="edge">
<title>Node9&#45;&gt;Node7</title>
<path fill="none" stroke="midnightblue" d="M168.61,-117.96C203.13,-103.92 274.75,-75.56 336.88,-56 379.14,-42.69 428.05,-30.31 463.23,-21.91"/>
<polygon fill="midnightblue" stroke="midnightblue" points="464.3,-25.25 473.23,-19.54 462.69,-18.44 464.3,-25.25"/>
</g>
<!-- Node9&#45;&gt;Node8 -->
<g id="edge18" class="edge">
<title>Node9&#45;&gt;Node8</title>
<path fill="none" stroke="midnightblue" d="M179.26,-117.98C221.02,-106.63 294.41,-86.69 335.94,-75.41"/>
<polygon fill="midnightblue" stroke="midnightblue" points="337.05,-78.73 345.78,-72.73 335.21,-71.98 337.05,-78.73"/>
</g>
<!-- Node10&#45;&gt;Node4 -->
<g id="edge20" class="edge">
<title>Node10&#45;&gt;Node4</title>
<path fill="none" stroke="midnightblue" d="M434.7,-117.75C426.73,-104.35 410.92,-78 396.88,-56 390.94,-46.68 384.12,-36.42 378.48,-28.05"/>
<polygon fill="midnightblue" stroke="midnightblue" points="381.24,-25.88 372.74,-19.56 375.44,-29.8 381.24,-25.88"/>
</g>
<!-- Node10&#45;&gt;Node7 -->
<g id="edge21" class="edge">
<title>Node10&#45;&gt;Node7</title>
<path fill="none" stroke="midnightblue" d="M458.22,-117.98C473.83,-109.65 495.35,-95.4 505.88,-76 513.56,-61.86 514.25,-43.37 513.35,-29.73"/>
<polygon fill="midnightblue" stroke="midnightblue" points="516.81,-29.22 512.33,-19.62 509.85,-29.91 516.81,-29.22"/>
</g>
<!-- Node10&#45;&gt;Node8 -->
<g id="edge22" class="edge">
<title>Node10&#45;&gt;Node8</title>
<path fill="none" stroke="midnightblue" d="M429.42,-117.98C417.93,-108.61 399.25,-93.38 385.3,-82.01"/>
<polygon fill="midnightblue" stroke="midnightblue" points="387.28,-79.11 377.32,-75.51 382.86,-84.54 387.28,-79.11"/>
</g>
<!-- Node11&#45;&gt;Node4 -->
<g id="edge24" class="edge">
<title>Node11&#45;&gt;Node4</title>
<path fill="none" stroke="midnightblue" d="M686.66,-117.9C682.24,-102.69 670.85,-71.24 648.88,-56 629.27,-42.4 479.66,-23.8 406.67,-15.42"/>
<polygon fill="midnightblue" stroke="midnightblue" points="406.82,-11.91 396.49,-14.26 406.02,-18.87 406.82,-11.91"/>
</g>
<!-- Node11&#45;&gt;Node7 -->
<g id="edge25" class="edge">
<title>Node11&#45;&gt;Node7</title>
<path fill="none" stroke="midnightblue" d="M690.84,-117.94C693.63,-103.37 696.89,-73.59 681.88,-56 666.45,-37.91 607.06,-25.23 562.58,-18.04"/>
<polygon fill="midnightblue" stroke="midnightblue" points="562.9,-14.55 552.48,-16.46 561.82,-21.47 562.9,-14.55"/>
</g>
<!-- Node11&#45;&gt;Node8 -->
<g id="edge28" class="edge">
<title>Node11&#45;&gt;Node8</title>
<path fill="none" stroke="midnightblue" d="M652.73,-117.98C643.66,-115.93 633.93,-113.81 624.88,-112 543.27,-95.65 446.44,-79.67 397.9,-71.89"/>
<polygon fill="midnightblue" stroke="midnightblue" points="398.44,-68.44 388.02,-70.32 397.34,-75.35 398.44,-68.44"/>
</g>
<!-- Node12 -->
<g id="node12" class="node">
<title>Node12</title>
<g id="a_node12"><a xlink:title=" ">
<polygon fill="none" stroke="#bfbfbf" points="733.88,-56.5 733.88,-75.5 779.88,-75.5 779.88,-56.5 733.88,-56.5"/>
<text text-anchor="middle" x="756.88" y="-63.5" font-family="Helvetica,sans-Serif" font-size="10.00">math.h</text>
</a>
</g>
</g>
<!-- Node11&#45;&gt;Node12 -->
<g id="edge26" class="edge">
<title>Node11&#45;&gt;Node12</title>
<path fill="none" stroke="midnightblue" d="M698.62,-117.98C709.23,-108.7 726.4,-93.67 739.36,-82.33"/>
<polygon fill="midnightblue" stroke="midnightblue" points="741.94,-84.73 747.16,-75.51 737.33,-79.46 741.94,-84.73"/>
</g>
<!-- Node13 -->
<g id="node13" class="node">
<title>Node13</title>
<g id="a_node13"><a xlink:title=" ">
<polygon fill="none" stroke="#bfbfbf" points="596.38,-56.5 596.38,-75.5 639.38,-75.5 639.38,-56.5 596.38,-56.5"/>
<text text-anchor="middle" x="617.88" y="-63.5" font-family="Helvetica,sans-Serif" font-size="10.00">time.h</text>
</a>
</g>
</g>
<!-- Node11&#45;&gt;Node13 -->
<g id="edge27" class="edge">
<title>Node11&#45;&gt;Node13</title>
<path fill="none" stroke="midnightblue" d="M678.71,-117.98C667.53,-108.61 649.37,-93.38 635.79,-82.01"/>
<polygon fill="midnightblue" stroke="midnightblue" points="637.95,-79.25 628.04,-75.51 633.45,-84.61 637.95,-79.25"/>
</g>
<!-- Node14&#45;&gt;Node4 -->
<g id="edge30" class="edge">
<title>Node14&#45;&gt;Node4</title>
<path fill="none" stroke="midnightblue" d="M542.36,-112.34C503.61,-89.96 428.7,-46.7 390.51,-24.65"/>
<polygon fill="midnightblue" stroke="midnightblue" points="392.05,-21.49 381.64,-19.52 388.55,-27.55 392.05,-21.49"/>
</g>
<!-- Node14&#45;&gt;Node7 -->
<g id="edge31" class="edge">
<title>Node14&#45;&gt;Node7</title>
<path fill="none" stroke="midnightblue" d="M563.71,-112.47C560.08,-97.86 553.4,-74.56 543.88,-56 538.75,-46 531.49,-35.82 525.09,-27.68"/>
<polygon fill="midnightblue" stroke="midnightblue" points="527.65,-25.28 518.62,-19.75 522.23,-29.71 527.65,-25.28"/>
</g>
<!-- Node14&#45;&gt;Node8 -->
<g id="edge33" class="edge">
<title>Node14&#45;&gt;Node8</title>
<path fill="none" stroke="midnightblue" d="M519.74,-112.47C482.12,-101.28 430.5,-85.92 397.91,-76.23"/>
<polygon fill="midnightblue" stroke="midnightblue" points="398.63,-72.79 388.05,-73.3 396.63,-79.5 398.63,-72.79"/>
</g>
<!-- Node14&#45;&gt;Node13 -->
<g id="edge32" class="edge">
<title>Node14&#45;&gt;Node13</title>
<path fill="none" stroke="midnightblue" d="M578.97,-112.4C586.46,-103.66 596.1,-92.41 603.91,-83.3"/>
<polygon fill="midnightblue" stroke="midnightblue" points="606.61,-85.53 610.46,-75.66 601.3,-80.97 606.61,-85.53"/>
</g>
</g>
</svg>
