<?xml version="1.0" encoding="UTF-8" standalone="no"?>
<!DOCTYPE svg PUBLIC "-//W3C//DTD SVG 1.1//EN"
 "http://www.w3.org/Graphics/SVG/1.1/DTD/svg11.dtd">
<!-- Generated by graphviz version 2.43.0 (0)
 -->
<!-- Title: src/WillyWeather/precipitation.c Pages: 1 -->
<svg width="1195pt" height="412pt"
 viewBox="0.00 0.00 1195.00 412.00" xmlns="http://www.w3.org/2000/svg" xmlns:xlink="http://www.w3.org/1999/xlink">
<g id="graph0" class="graph" transform="scale(1 1) rotate(0) translate(4 408)">
<title>src/WillyWeather/precipitation.c</title>
<!-- Node1 -->
<g id="node1" class="node">
<title>Node1</title>
<g id="a_node1"><a xlink:title=" ">
<polygon fill="#999999" stroke="#666666" points="905,-404 733,-404 733,-385 905,-385 905,-404"/>
<text text-anchor="middle" x="819" y="-392" font-family="Helvetica,sans-Serif" font-size="10.00">src/WillyWeather/precipitation.c</text>
</a>
</g>
</g>
<!-- Node2 -->
<g id="node2" class="node">
<title>Node2</title>
<g id="a_node2"><a xlink:href="precipitation_8h.html" target="_top" xlink:title=" ">
<polygon fill="white" stroke="#666666" points="896.5,-349 741.5,-349 741.5,-330 896.5,-330 896.5,-349"/>
<text text-anchor="middle" x="819" y="-337" font-family="Helvetica,sans-Serif" font-size="10.00">WillyWeather/precipitation.h</text>
</a>
</g>
</g>
<!-- Node1&#45;&gt;Node2 -->
<g id="edge1" class="edge">
<title>Node1&#45;&gt;Node2</title>
<path fill="none" stroke="#63b8ff" d="M819,-384.75C819,-377.8 819,-367.85 819,-359.13"/>
<polygon fill="#63b8ff" stroke="#63b8ff" points="822.5,-359.09 819,-349.09 815.5,-359.09 822.5,-359.09"/>
</g>
<!-- Node3 -->
<g id="node3" class="node">
<title>Node3</title>
<g id="a_node3"><a xlink:title=" ">
<polygon fill="#e0e0e0" stroke="#999999" points="48,-19 0,-19 0,0 48,0 48,-19"/>
<text text-anchor="middle" x="24" y="-7" font-family="Helvetica,sans-Serif" font-size="10.00">time.h</text>
</a>
</g>
</g>
<!-- Node2&#45;&gt;Node3 -->
<g id="edge2" class="edge">
<title>Node2&#45;&gt;Node3</title>
<path fill="none" stroke="#63b8ff" d="M741.47,-336.1C540.45,-328.85 18,-303.03 18,-230.5 18,-230.5 18,-230.5 18,-118.5 18,-87.14 20.55,-50.74 22.33,-29.22"/>
<polygon fill="#63b8ff" stroke="#63b8ff" points="25.82,-29.43 23.19,-19.17 18.85,-28.83 25.82,-29.43"/>
</g>
<!-- Node4 -->
<g id="node4" class="node">
<title>Node4</title>
<g id="a_node4"><a xlink:title=" ">
<polygon fill="#e0e0e0" stroke="#999999" points="644,-19 594,-19 594,0 644,0 644,-19"/>
<text text-anchor="middle" x="619" y="-7" font-family="Helvetica,sans-Serif" font-size="10.00">stdio.h</text>
</a>
</g>
</g>
<!-- Node2&#45;&gt;Node4 -->
<g id="edge3" class="edge">
<title>Node2&#45;&gt;Node4</title>
<path fill="none" stroke="#63b8ff" d="M893.08,-329.96C952.14,-318.53 1025,-291.98 1025,-230.5 1025,-230.5 1025,-230.5 1025,-118.5 1025,-84.66 1011.78,-72.8 983,-55 928.47,-21.26 734.35,-13.07 654.1,-11.1"/>
<polygon fill="#63b8ff" stroke="#63b8ff" points="654.08,-7.6 644.01,-10.88 653.93,-14.6 654.08,-7.6"/>
</g>
<!-- Node5 -->
<g id="node5" class="node">
<title>Node5</title>
<g id="a_node5"><a xlink:title=" ">
<polygon fill="#e0e0e0" stroke="#999999" points="394.5,-74 341.5,-74 341.5,-55 394.5,-55 394.5,-74"/>
<text text-anchor="middle" x="368" y="-62" font-family="Helvetica,sans-Serif" font-size="10.00">stdlib.h</text>
</a>
</g>
</g>
<!-- Node2&#45;&gt;Node5 -->
<g id="edge4" class="edge">
<title>Node2&#45;&gt;Node5</title>
<path fill="none" stroke="#63b8ff" d="M806.51,-329.91C760.89,-298.7 598.66,-189 458,-110 437.74,-98.62 414.17,-87.03 396.24,-78.52"/>
<polygon fill="#63b8ff" stroke="#63b8ff" points="397.45,-75.23 386.91,-74.14 394.47,-81.56 397.45,-75.23"/>
</g>
<!-- Node6 -->
<g id="node6" class="node">
<title>Node6</title>
<g id="a_node6"><a xlink:title=" ">
<polygon fill="#e0e0e0" stroke="#999999" points="958.5,-74 895.5,-74 895.5,-55 958.5,-55 958.5,-74"/>
<text text-anchor="middle" x="927" y="-62" font-family="Helvetica,sans-Serif" font-size="10.00">libpq&#45;fe.h</text>
</a>
</g>
</g>
<!-- Node2&#45;&gt;Node6 -->
<g id="edge5" class="edge">
<title>Node2&#45;&gt;Node6</title>
<path fill="none" stroke="#63b8ff" d="M838.13,-329.95C868.91,-314.73 926,-279.86 926,-230.5 926,-230.5 926,-230.5 926,-173.5 926,-142.19 926.43,-105.77 926.72,-84.23"/>
<polygon fill="#63b8ff" stroke="#63b8ff" points="930.22,-84.23 926.87,-74.18 923.22,-84.13 930.22,-84.23"/>
</g>
<!-- Node7 -->
<g id="node7" class="node">
<title>Node7</title>
<g id="a_node7"><a xlink:href="http_8h.html" target="_top" xlink:title=" ">
<polygon fill="white" stroke="#666666" points="287.5,-184 242.5,-184 242.5,-165 287.5,-165 287.5,-184"/>
<text text-anchor="middle" x="265" y="-172" font-family="Helvetica,sans-Serif" font-size="10.00">http.h</text>
</a>
</g>
</g>
<!-- Node2&#45;&gt;Node7 -->
<g id="edge6" class="edge">
<title>Node2&#45;&gt;Node7</title>
<path fill="none" stroke="#63b8ff" d="M741.32,-334.18C662.45,-328.73 537.17,-317.12 431,-294 353.82,-277.19 308.41,-302.91 262,-239 252.69,-226.18 254.77,-207.76 258.39,-194.06"/>
<polygon fill="#63b8ff" stroke="#63b8ff" points="261.8,-194.86 261.43,-184.28 255.12,-192.78 261.8,-194.86"/>
</g>
<!-- Node10 -->
<g id="node10" class="node">
<title>Node10</title>
<g id="a_node10"><a xlink:href="utils_8h.html" target="_top" xlink:title=" ">
<polygon fill="white" stroke="#666666" points="619.5,-129 572.5,-129 572.5,-110 619.5,-110 619.5,-129"/>
<text text-anchor="middle" x="596" y="-117" font-family="Helvetica,sans-Serif" font-size="10.00">utils.h</text>
</a>
</g>
</g>
<!-- Node2&#45;&gt;Node10 -->
<g id="edge45" class="edge">
<title>Node2&#45;&gt;Node10</title>
<path fill="none" stroke="#63b8ff" d="M821.45,-329.82C826.81,-308.87 837.34,-254.68 814,-220 771.71,-157.17 679.32,-133.38 629.48,-124.88"/>
<polygon fill="#63b8ff" stroke="#63b8ff" points="629.95,-121.41 619.52,-123.29 628.84,-128.33 629.95,-121.41"/>
</g>
<!-- Node20 -->
<g id="node20" class="node">
<title>Node20</title>
<g id="a_node20"><a xlink:href="forecast_8h.html" target="_top" xlink:title=" ">
<polygon fill="white" stroke="#666666" points="1187,-294 1053,-294 1053,-275 1187,-275 1187,-294"/>
<text text-anchor="middle" x="1120" y="-282" font-family="Helvetica,sans-Serif" font-size="10.00">WillyWeather/forecast.h</text>
</a>
</g>
</g>
<!-- Node2&#45;&gt;Node20 -->
<g id="edge26" class="edge">
<title>Node2&#45;&gt;Node20</title>
<path fill="none" stroke="#63b8ff" d="M867.36,-329.98C920.19,-320.68 1004.82,-305.78 1061.39,-295.82"/>
<polygon fill="#63b8ff" stroke="#63b8ff" points="1062.02,-299.26 1071.26,-294.08 1060.8,-292.37 1062.02,-299.26"/>
</g>
<!-- Node21 -->
<g id="node21" class="node">
<title>Node21</title>
<g id="a_node21"><a xlink:href="location_8h.html" target="_top" xlink:title=" ">
<polygon fill="white" stroke="#666666" points="572.5,-294 439.5,-294 439.5,-275 572.5,-275 572.5,-294"/>
<text text-anchor="middle" x="506" y="-282" font-family="Helvetica,sans-Serif" font-size="10.00">WillyWeather/location.h</text>
</a>
</g>
</g>
<!-- Node2&#45;&gt;Node21 -->
<g id="edge27" class="edge">
<title>Node2&#45;&gt;Node21</title>
<path fill="none" stroke="#63b8ff" d="M768.71,-329.98C713.58,-320.65 625.15,-305.67 566.32,-295.71"/>
<polygon fill="#63b8ff" stroke="#63b8ff" points="566.87,-292.26 556.42,-294.04 565.7,-299.16 566.87,-292.26"/>
</g>
<!-- Node7&#45;&gt;Node5 -->
<g id="edge7" class="edge">
<title>Node7&#45;&gt;Node5</title>
<path fill="none" stroke="#63b8ff" d="M273.43,-164.66C290.79,-146.46 330.76,-104.55 352.77,-81.47"/>
<polygon fill="#63b8ff" stroke="#63b8ff" points="355.37,-83.81 359.74,-74.16 350.31,-78.98 355.37,-83.81"/>
</g>
<!-- Node8 -->
<g id="node8" class="node">
<title>Node8</title>
<g id="a_node8"><a xlink:title=" ">
<polygon fill="#e0e0e0" stroke="#999999" points="201.5,-74 148.5,-74 148.5,-55 201.5,-55 201.5,-74"/>
<text text-anchor="middle" x="175" y="-62" font-family="Helvetica,sans-Serif" font-size="10.00">string.h</text>
</a>
</g>
</g>
<!-- Node7&#45;&gt;Node8 -->
<g id="edge8" class="edge">
<title>Node7&#45;&gt;Node8</title>
<path fill="none" stroke="#63b8ff" d="M258.58,-164.68C249.43,-152.24 231.98,-128.94 216,-110 207.79,-100.27 198.16,-89.77 190.29,-81.42"/>
<polygon fill="#63b8ff" stroke="#63b8ff" points="192.82,-79 183.4,-74.16 187.75,-83.82 192.82,-79"/>
</g>
<!-- Node9 -->
<g id="node9" class="node">
<title>Node9</title>
<g id="a_node9"><a xlink:title=" ">
<polygon fill="#e0e0e0" stroke="#999999" points="323.5,-74 258.5,-74 258.5,-55 323.5,-55 323.5,-74"/>
<text text-anchor="middle" x="291" y="-62" font-family="Helvetica,sans-Serif" font-size="10.00">curl/curl.h</text>
</a>
</g>
</g>
<!-- Node7&#45;&gt;Node9 -->
<g id="edge9" class="edge">
<title>Node7&#45;&gt;Node9</title>
<path fill="none" stroke="#63b8ff" d="M267.13,-164.66C271.36,-147.09 280.9,-107.45 286.56,-83.95"/>
<polygon fill="#63b8ff" stroke="#63b8ff" points="289.98,-84.7 288.92,-74.16 283.17,-83.06 289.98,-84.7"/>
</g>
<!-- Node7&#45;&gt;Node10 -->
<g id="edge10" class="edge">
<title>Node7&#45;&gt;Node10</title>
<path fill="none" stroke="#63b8ff" d="M287.75,-169.86C344.87,-160.71 494.57,-136.74 562.1,-125.93"/>
<polygon fill="#63b8ff" stroke="#63b8ff" points="562.88,-129.35 572.2,-124.31 561.78,-122.44 562.88,-129.35"/>
</g>
<!-- Node10&#45;&gt;Node5 -->
<g id="edge11" class="edge">
<title>Node10&#45;&gt;Node5</title>
<path fill="none" stroke="#63b8ff" d="M572.35,-113.05C537.8,-105.08 471.26,-89.72 404.57,-74.13"/>
<polygon fill="#63b8ff" stroke="#63b8ff" points="405.27,-70.69 394.73,-71.82 403.67,-77.51 405.27,-70.69"/>
</g>
<!-- Node10&#45;&gt;Node6 -->
<g id="edge25" class="edge">
<title>Node10&#45;&gt;Node6</title>
<path fill="none" stroke="#63b8ff" d="M619.84,-115.33C668.07,-108.81 780.86,-93.06 885.1,-74.27"/>
<polygon fill="#63b8ff" stroke="#63b8ff" points="885.94,-77.67 895.16,-72.44 884.69,-70.78 885.94,-77.67"/>
</g>
<!-- Node10&#45;&gt;Node8 -->
<g id="edge12" class="edge">
<title>Node10&#45;&gt;Node8</title>
<path fill="none" stroke="#63b8ff" d="M572.46,-115.54C502.63,-106.75 296.25,-80.76 211.72,-70.12"/>
<polygon fill="#63b8ff" stroke="#63b8ff" points="211.93,-66.62 201.57,-68.84 211.05,-73.57 211.93,-66.62"/>
</g>
<!-- Node10&#45;&gt;Node9 -->
<g id="edge13" class="edge">
<title>Node10&#45;&gt;Node9</title>
<path fill="none" stroke="#63b8ff" d="M572.38,-114.76C527.85,-107.67 428.22,-91.52 333.57,-74.05"/>
<polygon fill="#63b8ff" stroke="#63b8ff" points="334.01,-70.57 323.54,-72.19 332.73,-77.46 334.01,-70.57"/>
</g>
<!-- Node11 -->
<g id="node11" class="node">
<title>Node11</title>
<g id="a_node11"><a xlink:title=" ">
<polygon fill="#e0e0e0" stroke="#999999" points="534.5,-74 481.5,-74 481.5,-55 534.5,-55 534.5,-74"/>
<text text-anchor="middle" x="508" y="-62" font-family="Helvetica,sans-Serif" font-size="10.00">stdint.h</text>
</a>
</g>
</g>
<!-- Node10&#45;&gt;Node11 -->
<g id="edge14" class="edge">
<title>Node10&#45;&gt;Node11</title>
<path fill="none" stroke="#63b8ff" d="M581.86,-109.98C568.21,-101.77 547.31,-89.18 531.22,-79.49"/>
<polygon fill="#63b8ff" stroke="#63b8ff" points="532.77,-76.33 522.4,-74.17 529.16,-82.33 532.77,-76.33"/>
</g>
<!-- Node12 -->
<g id="node12" class="node">
<title>Node12</title>
<g id="a_node12"><a xlink:title=" ">
<polygon fill="#e0e0e0" stroke="#999999" points="808.5,-74 725.5,-74 725.5,-55 808.5,-55 808.5,-74"/>
<text text-anchor="middle" x="767" y="-62" font-family="Helvetica,sans-Serif" font-size="10.00">cjson/cJSON.h</text>
</a>
</g>
</g>
<!-- Node10&#45;&gt;Node12 -->
<g id="edge15" class="edge">
<title>Node10&#45;&gt;Node12</title>
<path fill="none" stroke="#63b8ff" d="M619.78,-111.13C648.22,-102.31 696.18,-87.45 729.6,-77.09"/>
<polygon fill="#63b8ff" stroke="#63b8ff" points="730.95,-80.34 739.47,-74.03 728.88,-73.65 730.95,-80.34"/>
</g>
<!-- Node13 -->
<g id="node13" class="node">
<title>Node13</title>
<g id="a_node13"><a xlink:title=" ">
<polygon fill="#e0e0e0" stroke="#999999" points="617,-74 553,-74 553,-55 617,-55 617,-74"/>
<text text-anchor="middle" x="585" y="-62" font-family="Helvetica,sans-Serif" font-size="10.00">sys/stat.h</text>
</a>
</g>
</g>
<!-- Node10&#45;&gt;Node13 -->
<g id="edge16" class="edge">
<title>Node10&#45;&gt;Node13</title>
<path fill="none" stroke="#63b8ff" d="M594.18,-109.75C592.74,-102.8 590.68,-92.85 588.87,-84.13"/>
<polygon fill="#63b8ff" stroke="#63b8ff" points="592.24,-83.17 586.78,-74.09 585.39,-84.59 592.24,-83.17"/>
</g>
<!-- Node14 -->
<g id="node14" class="node">
<title>Node14</title>
<g id="a_node14"><a xlink:title=" ">
<polygon fill="#e0e0e0" stroke="#999999" points="707,-74 635,-74 635,-55 707,-55 707,-74"/>
<text text-anchor="middle" x="671" y="-62" font-family="Helvetica,sans-Serif" font-size="10.00">sys/types.h</text>
</a>
</g>
</g>
<!-- Node10&#45;&gt;Node14 -->
<g id="edge17" class="edge">
<title>Node10&#45;&gt;Node14</title>
<path fill="none" stroke="#63b8ff" d="M608.05,-109.98C619.46,-101.92 636.83,-89.65 650.43,-80.03"/>
<polygon fill="#63b8ff" stroke="#63b8ff" points="652.58,-82.8 658.73,-74.17 648.54,-77.08 652.58,-82.8"/>
</g>
<!-- Node15 -->
<g id="node15" class="node">
<title>Node15</title>
<g id="a_node15"><a xlink:title=" ">
<polygon fill="#e0e0e0" stroke="#999999" points="463.5,-74 412.5,-74 412.5,-55 463.5,-55 463.5,-74"/>
<text text-anchor="middle" x="438" y="-62" font-family="Helvetica,sans-Serif" font-size="10.00">errno.h</text>
</a>
</g>
</g>
<!-- Node10&#45;&gt;Node15 -->
<g id="edge18" class="edge">
<title>Node10&#45;&gt;Node15</title>
<path fill="none" stroke="#63b8ff" d="M572.35,-110.57C546.05,-101.74 503.31,-87.41 473.11,-77.28"/>
<polygon fill="#63b8ff" stroke="#63b8ff" points="473.98,-73.88 463.39,-74.02 471.76,-80.51 473.98,-73.88"/>
</g>
<!-- Node16 -->
<g id="node16" class="node">
<title>Node16</title>
<g id="a_node16"><a xlink:title=" ">
<polygon fill="#e0e0e0" stroke="#999999" points="877.5,-74 826.5,-74 826.5,-55 877.5,-55 877.5,-74"/>
<text text-anchor="middle" x="852" y="-62" font-family="Helvetica,sans-Serif" font-size="10.00">math.h</text>
</a>
</g>
</g>
<!-- Node10&#45;&gt;Node16 -->
<g id="edge19" class="edge">
<title>Node10&#45;&gt;Node16</title>
<path fill="none" stroke="#63b8ff" d="M619.73,-114.12C658.76,-106.84 739.14,-91.51 816.5,-74.26"/>
<polygon fill="#63b8ff" stroke="#63b8ff" points="817.42,-77.64 826.41,-72.03 815.89,-70.81 817.42,-77.64"/>
</g>
<!-- Node17 -->
<g id="node17" class="node">
<title>Node17</title>
<g id="a_node17"><a xlink:href="log_8h.html" target="_top" xlink:title=" ">
<polygon fill="white" stroke="#666666" points="130.5,-74 89.5,-74 89.5,-55 130.5,-55 130.5,-74"/>
<text text-anchor="middle" x="110" y="-62" font-family="Helvetica,sans-Serif" font-size="10.00">log.h</text>
</a>
</g>
</g>
<!-- Node10&#45;&gt;Node17 -->
<g id="edge20" class="edge">
<title>Node10&#45;&gt;Node17</title>
<path fill="none" stroke="#63b8ff" d="M572.05,-117.67C505.21,-115.04 310.95,-105.24 140.44,-73.7"/>
<polygon fill="#63b8ff" stroke="#63b8ff" points="141.02,-70.25 130.54,-71.84 139.72,-77.13 141.02,-70.25"/>
</g>
<!-- Node17&#45;&gt;Node3 -->
<g id="edge24" class="edge">
<title>Node17&#45;&gt;Node3</title>
<path fill="none" stroke="#63b8ff" d="M96.18,-54.98C82.85,-46.77 62.42,-34.18 46.69,-24.49"/>
<polygon fill="#63b8ff" stroke="#63b8ff" points="48.42,-21.44 38.07,-19.17 44.75,-27.4 48.42,-21.44"/>
</g>
<!-- Node17&#45;&gt;Node4 -->
<g id="edge21" class="edge">
<title>Node17&#45;&gt;Node4</title>
<path fill="none" stroke="#63b8ff" d="M130.54,-57.14C133.69,-56.33 136.91,-55.58 140,-55 303.89,-24.44 503.42,-14.48 583.37,-11.58"/>
<polygon fill="#63b8ff" stroke="#63b8ff" points="583.97,-15.06 593.84,-11.21 583.73,-8.06 583.97,-15.06"/>
</g>
<!-- Node18 -->
<g id="node18" class="node">
<title>Node18</title>
<g id="a_node18"><a xlink:title=" ">
<polygon fill="#e0e0e0" stroke="#999999" points="133,-19 77,-19 77,0 133,0 133,-19"/>
<text text-anchor="middle" x="105" y="-7" font-family="Helvetica,sans-Serif" font-size="10.00">stdarg.h</text>
</a>
</g>
</g>
<!-- Node17&#45;&gt;Node18 -->
<g id="edge22" class="edge">
<title>Node17&#45;&gt;Node18</title>
<path fill="none" stroke="#63b8ff" d="M109.17,-54.75C108.52,-47.8 107.58,-37.85 106.76,-29.13"/>
<polygon fill="#63b8ff" stroke="#63b8ff" points="110.23,-28.72 105.81,-19.09 103.27,-29.37 110.23,-28.72"/>
</g>
<!-- Node19 -->
<g id="node19" class="node">
<title>Node19</title>
<g id="a_node19"><a xlink:title=" ">
<polygon fill="#e0e0e0" stroke="#999999" points="213,-19 151,-19 151,0 213,0 213,-19"/>
<text text-anchor="middle" x="182" y="-7" font-family="Helvetica,sans-Serif" font-size="10.00">stdbool.h</text>
</a>
</g>
</g>
<!-- Node17&#45;&gt;Node19 -->
<g id="edge23" class="edge">
<title>Node17&#45;&gt;Node19</title>
<path fill="none" stroke="#63b8ff" d="M121.57,-54.98C132.42,-47 148.88,-34.88 161.88,-25.31"/>
<polygon fill="#63b8ff" stroke="#63b8ff" points="164.24,-27.92 170.22,-19.17 160.09,-22.28 164.24,-27.92"/>
</g>
<!-- Node21&#45;&gt;Node4 -->
<g id="edge30" class="edge">
<title>Node21&#45;&gt;Node4</title>
<path fill="none" stroke="#63b8ff" d="M572.63,-275.76C678,-259.52 880.15,-211.22 968,-74 972.55,-66.89 973.58,-61.34 968,-55 947.46,-31.67 738.95,-17.31 654.37,-12.4"/>
<polygon fill="#63b8ff" stroke="#63b8ff" points="654.4,-8.9 644.22,-11.82 654,-15.89 654.4,-8.9"/>
</g>
<!-- Node21&#45;&gt;Node5 -->
<g id="edge29" class="edge">
<title>Node21&#45;&gt;Node5</title>
<path fill="none" stroke="#63b8ff" d="M506.01,-274.85C505.68,-254.39 502.7,-202 482,-165 460.66,-126.86 418.9,-96.26 392.28,-79.52"/>
<polygon fill="#63b8ff" stroke="#63b8ff" points="393.91,-76.42 383.56,-74.19 390.26,-82.39 393.91,-76.42"/>
</g>
<!-- Node21&#45;&gt;Node7 -->
<g id="edge43" class="edge">
<title>Node21&#45;&gt;Node7</title>
<path fill="none" stroke="#63b8ff" d="M439.44,-278.91C379.8,-273.37 298.35,-261.8 276,-239 264.63,-227.4 262.62,-208.53 263.01,-194.37"/>
<polygon fill="#63b8ff" stroke="#63b8ff" points="266.51,-194.47 263.7,-184.26 259.52,-193.99 266.51,-194.47"/>
</g>
<!-- Node21&#45;&gt;Node8 -->
<g id="edge28" class="edge">
<title>Node21&#45;&gt;Node8</title>
<path fill="none" stroke="#63b8ff" d="M439.48,-282.78C388.11,-279.62 316.78,-269.4 262,-239 209.37,-209.79 201.09,-186.41 183,-129 178.45,-114.56 176.48,-97.5 175.63,-84.7"/>
<polygon fill="#63b8ff" stroke="#63b8ff" points="179.1,-84.16 175.12,-74.34 172.11,-84.5 179.1,-84.16"/>
</g>
<!-- Node21&#45;&gt;Node9 -->
<g id="edge33" class="edge">
<title>Node21&#45;&gt;Node9</title>
<path fill="none" stroke="#63b8ff" d="M498.93,-274.71C477.54,-248.36 411.16,-168.31 348,-110 336.5,-99.38 322.68,-88.55 311.53,-80.24"/>
<polygon fill="#63b8ff" stroke="#63b8ff" points="313.39,-77.26 303.26,-74.16 309.24,-82.9 313.39,-77.26"/>
</g>
<!-- Node21&#45;&gt;Node10 -->
<g id="edge44" class="edge">
<title>Node21&#45;&gt;Node10</title>
<path fill="none" stroke="#63b8ff" d="M510.84,-274.74C525.06,-248.98 566.94,-173.13 586.16,-138.33"/>
<polygon fill="#63b8ff" stroke="#63b8ff" points="589.37,-139.75 591.14,-129.31 583.24,-136.37 589.37,-139.75"/>
</g>
<!-- Node21&#45;&gt;Node12 -->
<g id="edge32" class="edge">
<title>Node21&#45;&gt;Node12</title>
<path fill="none" stroke="#63b8ff" d="M516.06,-274.68C545.53,-248.92 634.32,-171.68 710,-110 722.29,-99.99 736.32,-89.03 747.38,-80.49"/>
<polygon fill="#63b8ff" stroke="#63b8ff" points="749.74,-83.1 755.53,-74.23 745.47,-77.54 749.74,-83.1"/>
</g>
<!-- Node21&#45;&gt;Node16 -->
<g id="edge31" class="edge">
<title>Node21&#45;&gt;Node16</title>
<path fill="none" stroke="#63b8ff" d="M520.96,-274.98C536.37,-266.16 561.02,-251.88 582,-239 675.52,-181.61 784.94,-109.84 830.45,-79.78"/>
<polygon fill="#63b8ff" stroke="#63b8ff" points="832.51,-82.62 838.92,-74.18 828.65,-76.78 832.51,-82.62"/>
</g>
<!-- Node21&#45;&gt;Node17 -->
<g id="edge34" class="edge">
<title>Node21&#45;&gt;Node17</title>
<path fill="none" stroke="#63b8ff" d="M439.42,-278.03C369.51,-271.36 264.96,-258.52 230,-239 173.6,-207.51 168.42,-184.28 135,-129 126.38,-114.74 119.69,-96.99 115.4,-83.88"/>
<polygon fill="#63b8ff" stroke="#63b8ff" points="118.69,-82.66 112.38,-74.14 112,-84.73 118.69,-82.66"/>
</g>
<!-- Node22 -->
<g id="node22" class="node">
<title>Node22</title>
<g id="a_node22"><a xlink:href="_willy_weather_2authenticate_8h.html" target="_top" xlink:title=" ">
<polygon fill="white" stroke="#666666" points="439.5,-239 284.5,-239 284.5,-220 439.5,-220 439.5,-239"/>
<text text-anchor="middle" x="362" y="-227" font-family="Helvetica,sans-Serif" font-size="10.00">WillyWeather/authenticate.h</text>
</a>
</g>
</g>
<!-- Node21&#45;&gt;Node22 -->
<g id="edge35" class="edge">
<title>Node21&#45;&gt;Node22</title>
<path fill="none" stroke="#63b8ff" d="M482.86,-274.98C459.18,-266.27 422.13,-252.63 395.29,-242.75"/>
<polygon fill="#63b8ff" stroke="#63b8ff" points="396.15,-239.34 385.56,-239.17 393.73,-245.91 396.15,-239.34"/>
</g>
<!-- Node22&#45;&gt;Node4 -->
<g id="edge38" class="edge">
<title>Node22&#45;&gt;Node4</title>
<path fill="none" stroke="#63b8ff" d="M353.2,-219.67C322.61,-188.53 224.19,-84.11 250,-55 271.96,-30.24 495.71,-16.58 583.72,-12.14"/>
<polygon fill="#63b8ff" stroke="#63b8ff" points="583.94,-15.63 593.76,-11.64 583.6,-8.64 583.94,-15.63"/>
</g>
<!-- Node22&#45;&gt;Node5 -->
<g id="edge37" class="edge">
<title>Node22&#45;&gt;Node5</title>
<path fill="none" stroke="#63b8ff" d="M374.78,-220C385.39,-212.1 399.72,-199.27 406,-184 418.5,-153.58 417.38,-140.86 406,-110 401.94,-98.99 393.81,-88.86 386.1,-81.05"/>
<polygon fill="#63b8ff" stroke="#63b8ff" points="388.39,-78.39 378.71,-74.07 383.58,-83.48 388.39,-78.39"/>
</g>
<!-- Node22&#45;&gt;Node7 -->
<g id="edge42" class="edge">
<title>Node22&#45;&gt;Node7</title>
<path fill="none" stroke="#63b8ff" d="M346.42,-219.98C331.23,-211.69 307.9,-198.94 290.1,-189.22"/>
<polygon fill="#63b8ff" stroke="#63b8ff" points="291.32,-185.89 280.87,-184.17 287.97,-192.04 291.32,-185.89"/>
</g>
<!-- Node22&#45;&gt;Node8 -->
<g id="edge36" class="edge">
<title>Node22&#45;&gt;Node8</title>
<path fill="none" stroke="#63b8ff" d="M309.95,-219.96C284.64,-213.6 255.19,-202.65 234,-184 203.19,-156.89 186.66,-109.94 179.47,-84.02"/>
<polygon fill="#63b8ff" stroke="#63b8ff" points="182.78,-82.83 176.88,-74.03 176,-84.59 182.78,-82.83"/>
</g>
<!-- Node22&#45;&gt;Node9 -->
<g id="edge40" class="edge">
<title>Node22&#45;&gt;Node9</title>
<path fill="none" stroke="#63b8ff" d="M361.04,-219.97C358.5,-199.79 350.32,-147.95 330,-110 324.33,-99.4 315.69,-89.2 307.99,-81.24"/>
<polygon fill="#63b8ff" stroke="#63b8ff" points="310.32,-78.62 300.74,-74.1 305.41,-83.61 310.32,-78.62"/>
</g>
<!-- Node22&#45;&gt;Node12 -->
<g id="edge39" class="edge">
<title>Node22&#45;&gt;Node12</title>
<path fill="none" stroke="#63b8ff" d="M386.9,-219.92C434.41,-203.4 541.07,-165.55 629,-129 650.06,-120.25 705.64,-94.34 739.49,-78.45"/>
<polygon fill="#63b8ff" stroke="#63b8ff" points="741.26,-81.49 748.83,-74.07 738.29,-75.15 741.26,-81.49"/>
</g>
<!-- Node22&#45;&gt;Node17 -->
<g id="edge41" class="edge">
<title>Node22&#45;&gt;Node17</title>
<path fill="none" stroke="#63b8ff" d="M306.76,-219.96C276.94,-213.49 240.51,-202.44 212,-184 170.57,-157.2 136.55,-108.71 120.3,-82.85"/>
<polygon fill="#63b8ff" stroke="#63b8ff" points="123.18,-80.84 114.97,-74.14 117.21,-84.49 123.18,-80.84"/>
</g>
</g>
</svg>
