<?xml version="1.0" encoding="UTF-8" standalone="no"?>
<!DOCTYPE svg PUBLIC "-//W3C//DTD SVG 1.1//EN"
 "http://www.w3.org/Graphics/SVG/1.1/DTD/svg11.dtd">
<!-- Generated by graphviz version 2.49.3 (20211027.1534)
 -->
<!-- Title: include/WillyWeather/precipitation.h Pages: 1 -->
<svg width="885pt" height="375pt"
 viewBox="0.00 0.00 885.00 375.00" xmlns="http://www.w3.org/2000/svg" xmlns:xlink="http://www.w3.org/1999/xlink">
<g id="graph0" class="graph" transform="scale(1 1) rotate(0) translate(4 371)">
<title>include/WillyWeather/precipitation.h</title>
<!-- Node1 -->
<g id="node1" class="node">
<title>Node1</title>
<g id="a_node1"><a xlink:title=" ">
<polygon fill="#bfbfbf" stroke="black" points="182.5,-336.5 182.5,-366.5 289.5,-366.5 289.5,-336.5 182.5,-336.5"/>
<text text-anchor="start" x="190.5" y="-354.5" font-family="Helvetica,sans-Serif" font-size="10.00">include/WillyWeather</text>
<text text-anchor="middle" x="236" y="-343.5" font-family="Helvetica,sans-Serif" font-size="10.00">/precipitation.h</text>
</a>
</g>
</g>
<!-- Node2 -->
<g id="node2" class="node">
<title>Node2</title>
<g id="a_node2"><a xlink:title=" ">
<polygon fill="none" stroke="#bfbfbf" points="286.5,-0.5 286.5,-19.5 329.5,-19.5 329.5,-0.5 286.5,-0.5"/>
<text text-anchor="middle" x="308" y="-7.5" font-family="Helvetica,sans-Serif" font-size="10.00">time.h</text>
</a>
</g>
</g>
<!-- Node1&#45;&gt;Node2 -->
<g id="edge1" class="edge">
<title>Node1&#45;&gt;Node2</title>
<path fill="none" stroke="midnightblue" d="M182.28,-343.56C127.44,-335.47 47.18,-320.55 24,-300 0.96,-279.57 0,-265.8 0,-235 0,-235 0,-235 0,-121 0,-90.2 0.19,-75.53 24,-56 62.11,-24.73 210.46,-14.92 276.26,-12.08"/>
<polygon fill="midnightblue" stroke="midnightblue" points="276.6,-15.57 286.45,-11.66 276.32,-8.57 276.6,-15.57"/>
</g>
<!-- Node3 -->
<g id="node3" class="node">
<title>Node3</title>
<g id="a_node3"><a xlink:title=" ">
<polygon fill="none" stroke="#bfbfbf" points="666.5,-0.5 666.5,-19.5 711.5,-19.5 711.5,-0.5 666.5,-0.5"/>
<text text-anchor="middle" x="689" y="-7.5" font-family="Helvetica,sans-Serif" font-size="10.00">stdio.h</text>
</a>
</g>
</g>
<!-- Node1&#45;&gt;Node3 -->
<g id="edge2" class="edge">
<title>Node1&#45;&gt;Node3</title>
<path fill="none" stroke="midnightblue" d="M182.42,-342.75C123.78,-330.88 38,-302.06 38,-235 38,-235 38,-235 38,-121 38,-90.9 33.57,-74.9 57,-56 80.53,-37.02 529.73,-17.45 656.15,-12.3"/>
<polygon fill="midnightblue" stroke="midnightblue" points="656.51,-15.79 666.36,-11.89 656.23,-8.8 656.51,-15.79"/>
</g>
<!-- Node4 -->
<g id="node4" class="node">
<title>Node4</title>
<g id="a_node4"><a xlink:title=" ">
<polygon fill="none" stroke="#bfbfbf" points="66.5,-56.5 66.5,-75.5 113.5,-75.5 113.5,-56.5 66.5,-56.5"/>
<text text-anchor="middle" x="90" y="-63.5" font-family="Helvetica,sans-Serif" font-size="10.00">stdlib.h</text>
</a>
</g>
</g>
<!-- Node1&#45;&gt;Node4 -->
<g id="edge3" class="edge">
<title>Node1&#45;&gt;Node4</title>
<path fill="none" stroke="midnightblue" d="M201.51,-336.38C164.51,-318.66 111,-284.49 111,-235 111,-235 111,-235 111,-177 111,-144.38 101.98,-107.28 95.77,-85.57"/>
<polygon fill="midnightblue" stroke="midnightblue" points="99.04,-84.32 92.83,-75.73 92.33,-86.32 99.04,-84.32"/>
</g>
<!-- Node5 -->
<g id="node5" class="node">
<title>Node5</title>
<g id="a_node5"><a xlink:title=" ">
<polygon fill="none" stroke="#bfbfbf" points="487,-280.5 487,-299.5 543,-299.5 543,-280.5 487,-280.5"/>
<text text-anchor="middle" x="515" y="-287.5" font-family="Helvetica,sans-Serif" font-size="10.00">libpq&#45;fe.h</text>
</a>
</g>
</g>
<!-- Node1&#45;&gt;Node5 -->
<g id="edge4" class="edge">
<title>Node1&#45;&gt;Node5</title>
<path fill="none" stroke="midnightblue" d="M289.69,-339.67C338.59,-329.7 412.75,-314.34 477,-300 477.1,-299.98 477.2,-299.96 477.3,-299.93"/>
<polygon fill="midnightblue" stroke="midnightblue" points="477.83,-303.4 486.8,-297.77 476.27,-296.58 477.83,-303.4"/>
</g>
<!-- Node6 -->
<g id="node6" class="node">
<title>Node6</title>
<g id="a_node6"><a xlink:href="http_8h.html" target="_top" xlink:title=" ">
<polygon fill="none" stroke="black" points="340.5,-168.5 340.5,-187.5 381.5,-187.5 381.5,-168.5 340.5,-168.5"/>
<text text-anchor="middle" x="361" y="-175.5" font-family="Helvetica,sans-Serif" font-size="10.00">http.h</text>
</a>
</g>
</g>
<!-- Node1&#45;&gt;Node6 -->
<g id="edge5" class="edge">
<title>Node1&#45;&gt;Node6</title>
<path fill="none" stroke="midnightblue" d="M246.23,-336.47C269.04,-305.17 324,-229.76 348.66,-195.93"/>
<polygon fill="midnightblue" stroke="midnightblue" points="351.7,-197.7 354.76,-187.56 346.04,-193.58 351.7,-197.7"/>
</g>
<!-- Node9 -->
<g id="node9" class="node">
<title>Node9</title>
<g id="a_node9"><a xlink:href="utils_8h.html" target="_top" xlink:title=" ">
<polygon fill="none" stroke="black" points="302,-112.5 302,-131.5 344,-131.5 344,-112.5 302,-112.5"/>
<text text-anchor="middle" x="323" y="-119.5" font-family="Helvetica,sans-Serif" font-size="10.00">utils.h</text>
</a>
</g>
</g>
<!-- Node1&#45;&gt;Node9 -->
<g id="edge43" class="edge">
<title>Node1&#45;&gt;Node9</title>
<path fill="none" stroke="midnightblue" d="M241.44,-336.27C256.56,-296.73 299.08,-185.55 315.96,-141.4"/>
<polygon fill="midnightblue" stroke="midnightblue" points="319.28,-142.52 319.59,-131.93 312.75,-140.02 319.28,-142.52"/>
</g>
<!-- Node19 -->
<g id="node19" class="node">
<title>Node19</title>
<g id="a_node19"><a xlink:href="forecast_8h.html" target="_top" xlink:title=" ">
<polygon fill="none" stroke="black" points="561.5,-280.5 561.5,-299.5 680.5,-299.5 680.5,-280.5 561.5,-280.5"/>
<text text-anchor="middle" x="621" y="-287.5" font-family="Helvetica,sans-Serif" font-size="10.00">WillyWeather/forecast.h</text>
</a>
</g>
</g>
<!-- Node1&#45;&gt;Node19 -->
<g id="edge24" class="edge">
<title>Node1&#45;&gt;Node19</title>
<path fill="none" stroke="midnightblue" d="M289.53,-342.23C359.09,-331.48 480.49,-312.71 555.48,-301.13"/>
<polygon fill="midnightblue" stroke="midnightblue" points="556.39,-304.53 565.74,-299.54 555.33,-297.61 556.39,-304.53"/>
</g>
<!-- Node20 -->
<g id="node20" class="node">
<title>Node20</title>
<g id="a_node20"><a xlink:href="location_8h.html" target="_top" xlink:title=" ">
<polygon fill="none" stroke="black" points="351.5,-280.5 351.5,-299.5 468.5,-299.5 468.5,-280.5 351.5,-280.5"/>
<text text-anchor="middle" x="410" y="-287.5" font-family="Helvetica,sans-Serif" font-size="10.00">WillyWeather/location.h</text>
</a>
</g>
</g>
<!-- Node1&#45;&gt;Node20 -->
<g id="edge25" class="edge">
<title>Node1&#45;&gt;Node20</title>
<path fill="none" stroke="midnightblue" d="M277.24,-336.4C307.17,-326.16 347.21,-312.47 375.47,-302.81"/>
<polygon fill="midnightblue" stroke="midnightblue" points="376.61,-306.12 384.94,-299.57 374.34,-299.49 376.61,-306.12"/>
</g>
<!-- Node6&#45;&gt;Node4 -->
<g id="edge6" class="edge">
<title>Node6&#45;&gt;Node4</title>
<path fill="none" stroke="midnightblue" d="M340.19,-168.55C292.72,-149.28 176.27,-102.02 120.6,-79.42"/>
<polygon fill="midnightblue" stroke="midnightblue" points="121.84,-76.15 111.26,-75.63 119.21,-82.63 121.84,-76.15"/>
</g>
<!-- Node7 -->
<g id="node7" class="node">
<title>Node7</title>
<g id="a_node7"><a xlink:title=" ">
<polygon fill="none" stroke="#bfbfbf" points="423,-56.5 423,-75.5 471,-75.5 471,-56.5 423,-56.5"/>
<text text-anchor="middle" x="447" y="-63.5" font-family="Helvetica,sans-Serif" font-size="10.00">string.h</text>
</a>
</g>
</g>
<!-- Node6&#45;&gt;Node7 -->
<g id="edge7" class="edge">
<title>Node6&#45;&gt;Node7</title>
<path fill="none" stroke="midnightblue" d="M364.45,-168.43C369.93,-155.42 381.5,-130.27 396,-112 404.95,-100.73 416.93,-89.99 427.04,-81.83"/>
<polygon fill="midnightblue" stroke="midnightblue" points="429.25,-84.54 434.98,-75.63 424.94,-79.03 429.25,-84.54"/>
</g>
<!-- Node8 -->
<g id="node8" class="node">
<title>Node8</title>
<g id="a_node8"><a xlink:title=" ">
<polygon fill="none" stroke="#bfbfbf" points="489.5,-56.5 489.5,-75.5 548.5,-75.5 548.5,-56.5 489.5,-56.5"/>
<text text-anchor="middle" x="519" y="-63.5" font-family="Helvetica,sans-Serif" font-size="10.00">curl/curl.h</text>
</a>
</g>
</g>
<!-- Node6&#45;&gt;Node8 -->
<g id="edge8" class="edge">
<title>Node6&#45;&gt;Node8</title>
<path fill="none" stroke="midnightblue" d="M373.4,-168.37C400.4,-149.57 464.75,-104.77 498.12,-81.53"/>
<polygon fill="midnightblue" stroke="midnightblue" points="500.45,-84.18 506.66,-75.59 496.45,-78.43 500.45,-84.18"/>
</g>
<!-- Node6&#45;&gt;Node9 -->
<g id="edge9" class="edge">
<title>Node6&#45;&gt;Node9</title>
<path fill="none" stroke="midnightblue" d="M354.73,-168.08C349.36,-160.46 341.48,-149.26 334.92,-139.94"/>
<polygon fill="midnightblue" stroke="midnightblue" points="337.78,-137.91 329.16,-131.75 332.05,-141.94 337.78,-137.91"/>
</g>
<!-- Node9&#45;&gt;Node4 -->
<g id="edge10" class="edge">
<title>Node9&#45;&gt;Node4</title>
<path fill="none" stroke="midnightblue" d="M301.93,-115.45C297.35,-114.28 292.52,-113.07 288,-112 217.97,-95.36 197.55,-93.97 123.55,-76.03"/>
<polygon fill="midnightblue" stroke="midnightblue" points="124.3,-72.61 113.76,-73.64 122.64,-79.41 124.3,-72.61"/>
</g>
<!-- Node9&#45;&gt;Node7 -->
<g id="edge11" class="edge">
<title>Node9&#45;&gt;Node7</title>
<path fill="none" stroke="midnightblue" d="M342.65,-112.44C362.96,-103.6 394.9,-89.69 418.1,-79.59"/>
<polygon fill="midnightblue" stroke="midnightblue" points="419.67,-82.72 427.44,-75.52 416.88,-76.3 419.67,-82.72"/>
</g>
<!-- Node9&#45;&gt;Node8 -->
<g id="edge12" class="edge">
<title>Node9&#45;&gt;Node8</title>
<path fill="none" stroke="midnightblue" d="M344.35,-115.12C376.73,-106.2 438.79,-89.1 479.53,-77.87"/>
<polygon fill="midnightblue" stroke="midnightblue" points="480.69,-81.18 489.4,-75.15 478.83,-74.44 480.69,-81.18"/>
</g>
<!-- Node10 -->
<g id="node10" class="node">
<title>Node10</title>
<g id="a_node10"><a xlink:title=" ">
<polygon fill="none" stroke="#bfbfbf" points="132,-56.5 132,-75.5 180,-75.5 180,-56.5 132,-56.5"/>
<text text-anchor="middle" x="156" y="-63.5" font-family="Helvetica,sans-Serif" font-size="10.00">stdint.h</text>
</a>
</g>
</g>
<!-- Node9&#45;&gt;Node10 -->
<g id="edge13" class="edge">
<title>Node9&#45;&gt;Node10</title>
<path fill="none" stroke="midnightblue" d="M301.85,-114.16C273.69,-105.06 223.56,-88.85 190.04,-78.01"/>
<polygon fill="midnightblue" stroke="midnightblue" points="190.81,-74.58 180.22,-74.83 188.66,-81.24 190.81,-74.58"/>
</g>
<!-- Node11 -->
<g id="node11" class="node">
<title>Node11</title>
<g id="a_node11"><a xlink:title=" ">
<polygon fill="none" stroke="#bfbfbf" points="566.5,-56.5 566.5,-75.5 649.5,-75.5 649.5,-56.5 566.5,-56.5"/>
<text text-anchor="middle" x="608" y="-63.5" font-family="Helvetica,sans-Serif" font-size="10.00">cjson/cJSON.h</text>
</a>
</g>
</g>
<!-- Node9&#45;&gt;Node11 -->
<g id="edge14" class="edge">
<title>Node9&#45;&gt;Node11</title>
<path fill="none" stroke="midnightblue" d="M344.42,-116.94C389.06,-108.48 493.11,-88.77 556.31,-76.79"/>
<polygon fill="midnightblue" stroke="midnightblue" points="557.3,-80.17 566.47,-74.87 556,-73.29 557.3,-80.17"/>
</g>
<!-- Node12 -->
<g id="node12" class="node">
<title>Node12</title>
<g id="a_node12"><a xlink:title=" ">
<polygon fill="none" stroke="#bfbfbf" points="198.5,-56.5 198.5,-75.5 257.5,-75.5 257.5,-56.5 198.5,-56.5"/>
<text text-anchor="middle" x="228" y="-63.5" font-family="Helvetica,sans-Serif" font-size="10.00">sys/stat.h</text>
</a>
</g>
</g>
<!-- Node9&#45;&gt;Node12 -->
<g id="edge15" class="edge">
<title>Node9&#45;&gt;Node12</title>
<path fill="none" stroke="midnightblue" d="M307.74,-112.32C292.78,-103.82 269.75,-90.73 252.27,-80.8"/>
<polygon fill="midnightblue" stroke="midnightblue" points="253.65,-77.55 243.23,-75.65 250.19,-83.64 253.65,-77.55"/>
</g>
<!-- Node13 -->
<g id="node13" class="node">
<title>Node13</title>
<g id="a_node13"><a xlink:title=" ">
<polygon fill="none" stroke="#bfbfbf" points="275.5,-56.5 275.5,-75.5 340.5,-75.5 340.5,-56.5 275.5,-56.5"/>
<text text-anchor="middle" x="308" y="-63.5" font-family="Helvetica,sans-Serif" font-size="10.00">sys/types.h</text>
</a>
</g>
</g>
<!-- Node9&#45;&gt;Node13 -->
<g id="edge16" class="edge">
<title>Node9&#45;&gt;Node13</title>
<path fill="none" stroke="midnightblue" d="M320.52,-112.08C318.51,-104.85 315.61,-94.41 313.11,-85.4"/>
<polygon fill="midnightblue" stroke="midnightblue" points="316.48,-84.45 310.43,-75.75 309.74,-86.32 316.48,-84.45"/>
</g>
<!-- Node14 -->
<g id="node14" class="node">
<title>Node14</title>
<g id="a_node14"><a xlink:title=" ">
<polygon fill="none" stroke="#bfbfbf" points="359,-56.5 359,-75.5 405,-75.5 405,-56.5 359,-56.5"/>
<text text-anchor="middle" x="382" y="-63.5" font-family="Helvetica,sans-Serif" font-size="10.00">errno.h</text>
</a>
</g>
</g>
<!-- Node9&#45;&gt;Node14 -->
<g id="edge17" class="edge">
<title>Node9&#45;&gt;Node14</title>
<path fill="none" stroke="midnightblue" d="M332.48,-112.32C341.2,-104.34 354.34,-92.31 364.9,-82.65"/>
<polygon fill="midnightblue" stroke="midnightblue" points="367.33,-85.17 372.35,-75.83 362.61,-80 367.33,-85.17"/>
</g>
<!-- Node15 -->
<g id="node15" class="node">
<title>Node15</title>
<g id="a_node15"><a xlink:title=" ">
<polygon fill="none" stroke="#bfbfbf" points="706,-56.5 706,-75.5 752,-75.5 752,-56.5 706,-56.5"/>
<text text-anchor="middle" x="729" y="-63.5" font-family="Helvetica,sans-Serif" font-size="10.00">math.h</text>
</a>
</g>
</g>
<!-- Node9&#45;&gt;Node15 -->
<g id="edge18" class="edge">
<title>Node9&#45;&gt;Node15</title>
<path fill="none" stroke="midnightblue" d="M344.26,-118.17C410.78,-109.33 615.31,-82.12 695.89,-71.4"/>
<polygon fill="midnightblue" stroke="midnightblue" points="696.51,-74.85 705.96,-70.06 695.59,-67.91 696.51,-74.85"/>
</g>
<!-- Node16 -->
<g id="node16" class="node">
<title>Node16</title>
<g id="a_node16"><a xlink:href="log_8h.html" target="_top" xlink:title=" ">
<polygon fill="none" stroke="black" points="770.5,-56.5 770.5,-75.5 807.5,-75.5 807.5,-56.5 770.5,-56.5"/>
<text text-anchor="middle" x="789" y="-63.5" font-family="Helvetica,sans-Serif" font-size="10.00">log.h</text>
</a>
</g>
</g>
<!-- Node9&#45;&gt;Node16 -->
<g id="edge19" class="edge">
<title>Node9&#45;&gt;Node16</title>
<path fill="none" stroke="midnightblue" d="M344.21,-120.39C406.71,-118.25 595.57,-109.45 760.63,-75.61"/>
<polygon fill="midnightblue" stroke="midnightblue" points="761.4,-79.02 770.47,-73.55 759.97,-72.17 761.4,-79.02"/>
</g>
<!-- Node16&#45;&gt;Node2 -->
<g id="edge23" class="edge">
<title>Node16&#45;&gt;Node2</title>
<path fill="none" stroke="midnightblue" d="M770.47,-58.44C767.34,-57.5 764.1,-56.64 761,-56 605.39,-23.64 414.7,-14.35 340.09,-11.86"/>
<polygon fill="midnightblue" stroke="midnightblue" points="340.04,-8.35 329.94,-11.54 339.82,-15.35 340.04,-8.35"/>
</g>
<!-- Node16&#45;&gt;Node3 -->
<g id="edge20" class="edge">
<title>Node16&#45;&gt;Node3</title>
<path fill="none" stroke="midnightblue" d="M772.93,-56.32C757.04,-47.74 732.49,-34.49 714.04,-24.52"/>
<polygon fill="midnightblue" stroke="midnightblue" points="715.49,-21.33 705.03,-19.65 712.16,-27.49 715.49,-21.33"/>
</g>
<!-- Node17 -->
<g id="node17" class="node">
<title>Node17</title>
<g id="a_node17"><a xlink:title=" ">
<polygon fill="none" stroke="#bfbfbf" points="751.5,-0.5 751.5,-19.5 802.5,-19.5 802.5,-0.5 751.5,-0.5"/>
<text text-anchor="middle" x="777" y="-7.5" font-family="Helvetica,sans-Serif" font-size="10.00">stdarg.h</text>
</a>
</g>
</g>
<!-- Node16&#45;&gt;Node17 -->
<g id="edge21" class="edge">
<title>Node16&#45;&gt;Node17</title>
<path fill="none" stroke="midnightblue" d="M787.02,-56.08C785.43,-48.93 783.14,-38.64 781.15,-29.69"/>
<polygon fill="midnightblue" stroke="midnightblue" points="784.53,-28.75 778.94,-19.75 777.7,-30.27 784.53,-28.75"/>
</g>
<!-- Node18 -->
<g id="node18" class="node">
<title>Node18</title>
<g id="a_node18"><a xlink:title=" ">
<polygon fill="none" stroke="#bfbfbf" points="821,-0.5 821,-19.5 877,-19.5 877,-0.5 821,-0.5"/>
<text text-anchor="middle" x="849" y="-7.5" font-family="Helvetica,sans-Serif" font-size="10.00">stdbool.h</text>
</a>
</g>
</g>
<!-- Node16&#45;&gt;Node18 -->
<g id="edge22" class="edge">
<title>Node16&#45;&gt;Node18</title>
<path fill="none" stroke="midnightblue" d="M798.64,-56.32C807.51,-48.34 820.87,-36.31 831.61,-26.65"/>
<polygon fill="midnightblue" stroke="midnightblue" points="834.09,-29.13 839.18,-19.83 829.41,-23.92 834.09,-29.13"/>
</g>
<!-- Node20&#45;&gt;Node3 -->
<g id="edge28" class="edge">
<title>Node20&#45;&gt;Node3</title>
<path fill="none" stroke="midnightblue" d="M465.87,-280.46C529.45,-270.51 629.25,-254.16 666,-244 743.97,-222.46 836,-259.89 836,-179 836,-179 836,-179 836,-121 836,-90.9 837.7,-77.85 817,-56 803.71,-41.98 754.9,-27.45 721.54,-18.82"/>
<polygon fill="midnightblue" stroke="midnightblue" points="722.3,-15.4 711.75,-16.34 720.58,-22.19 722.3,-15.4"/>
</g>
<!-- Node20&#45;&gt;Node4 -->
<g id="edge27" class="edge">
<title>Node20&#45;&gt;Node4</title>
<path fill="none" stroke="midnightblue" d="M397.46,-280.3C348.76,-246.52 171.98,-123.87 110.91,-81.51"/>
<polygon fill="midnightblue" stroke="midnightblue" points="112.67,-78.47 102.46,-75.64 108.68,-84.22 112.67,-78.47"/>
</g>
<!-- Node20&#45;&gt;Node6 -->
<g id="edge41" class="edge">
<title>Node20&#45;&gt;Node6</title>
<path fill="none" stroke="midnightblue" d="M406.16,-280.37C398.18,-262.46 379.67,-220.92 369,-196.95"/>
<polygon fill="midnightblue" stroke="midnightblue" points="372.09,-195.3 364.83,-187.59 365.7,-198.15 372.09,-195.3"/>
</g>
<!-- Node20&#45;&gt;Node7 -->
<g id="edge26" class="edge">
<title>Node20&#45;&gt;Node7</title>
<path fill="none" stroke="midnightblue" d="M411.45,-280.3C416.89,-247.63 436.19,-131.87 443.84,-85.96"/>
<polygon fill="midnightblue" stroke="midnightblue" points="447.33,-86.32 445.52,-75.88 440.42,-85.17 447.33,-86.32"/>
</g>
<!-- Node20&#45;&gt;Node8 -->
<g id="edge31" class="edge">
<title>Node20&#45;&gt;Node8</title>
<path fill="none" stroke="midnightblue" d="M414.71,-280.43C419.63,-271.42 427.52,-256.8 434,-244 463.2,-186.35 495.76,-117.02 510.7,-84.92"/>
<polygon fill="midnightblue" stroke="midnightblue" points="514.02,-86.08 515.06,-75.54 507.67,-83.13 514.02,-86.08"/>
</g>
<!-- Node20&#45;&gt;Node9 -->
<g id="edge42" class="edge">
<title>Node20&#45;&gt;Node9</title>
<path fill="none" stroke="midnightblue" d="M400.46,-280.37C383.25,-264.17 347.29,-227.28 331,-188 324.94,-173.38 323.1,-155.44 322.69,-142.11"/>
<polygon fill="midnightblue" stroke="midnightblue" points="326.19,-141.76 322.62,-131.79 319.19,-141.81 326.19,-141.76"/>
</g>
<!-- Node20&#45;&gt;Node11 -->
<g id="edge30" class="edge">
<title>Node20&#45;&gt;Node11</title>
<path fill="none" stroke="midnightblue" d="M468.16,-280.47C527.5,-271.18 612.26,-256.02 622,-244 659.63,-197.55 632.21,-119.89 616.7,-84.97"/>
<polygon fill="midnightblue" stroke="midnightblue" points="619.74,-83.19 612.36,-75.59 613.38,-86.14 619.74,-83.19"/>
</g>
<!-- Node20&#45;&gt;Node15 -->
<g id="edge29" class="edge">
<title>Node20&#45;&gt;Node15</title>
<path fill="none" stroke="midnightblue" d="M468.26,-280.46C532.39,-270.62 628.29,-254.48 642,-244 695,-203.48 717.72,-122.11 725.55,-85.54"/>
<polygon fill="midnightblue" stroke="midnightblue" points="728.98,-86.22 727.52,-75.73 722.12,-84.84 728.98,-86.22"/>
</g>
<!-- Node20&#45;&gt;Node16 -->
<g id="edge32" class="edge">
<title>Node20&#45;&gt;Node16</title>
<path fill="none" stroke="midnightblue" d="M468.59,-281.11C471.77,-280.73 474.92,-280.35 478,-280 519.26,-275.27 822.09,-274.75 850,-244 893.1,-196.53 833.55,-117.11 803.96,-83.17"/>
<polygon fill="midnightblue" stroke="midnightblue" points="806.44,-80.69 797.16,-75.57 801.22,-85.36 806.44,-80.69"/>
</g>
<!-- Node21 -->
<g id="node21" class="node">
<title>Node21</title>
<g id="a_node21"><a xlink:href="_willy_weather_2authenticate_8h.html" target="_top" xlink:title=" ">
<polygon fill="none" stroke="black" points="476.5,-224.5 476.5,-243.5 613.5,-243.5 613.5,-224.5 476.5,-224.5"/>
<text text-anchor="middle" x="545" y="-231.5" font-family="Helvetica,sans-Serif" font-size="10.00">WillyWeather/authenticate.h</text>
</a>
</g>
</g>
<!-- Node20&#45;&gt;Node21 -->
<g id="edge33" class="edge">
<title>Node20&#45;&gt;Node21</title>
<path fill="none" stroke="midnightblue" d="M431.39,-280.44C453.71,-271.52 488.9,-257.44 514.21,-247.32"/>
<polygon fill="midnightblue" stroke="midnightblue" points="515.72,-250.48 523.71,-243.52 513.12,-243.98 515.72,-250.48"/>
</g>
<!-- Node21&#45;&gt;Node3 -->
<g id="edge36" class="edge">
<title>Node21&#45;&gt;Node3</title>
<path fill="none" stroke="midnightblue" d="M551.85,-224.48C559,-215.5 570.49,-200.91 580,-188 615.97,-139.15 627.51,-128.44 658,-76 666.93,-60.65 675.49,-42.32 681.35,-29.05"/>
<polygon fill="midnightblue" stroke="midnightblue" points="684.66,-30.21 685.42,-19.64 678.23,-27.43 684.66,-30.21"/>
</g>
<!-- Node21&#45;&gt;Node4 -->
<g id="edge35" class="edge">
<title>Node21&#45;&gt;Node4</title>
<path fill="none" stroke="midnightblue" d="M525.04,-224.32C495.63,-211.59 438.85,-187.3 390,-168 347.23,-151.1 336.07,-148.12 293,-132 269.42,-123.18 263.85,-120.07 240,-112 200.2,-98.54 153.79,-84.93 123.26,-76.26"/>
<polygon fill="midnightblue" stroke="midnightblue" points="124.12,-72.87 113.54,-73.52 122.21,-79.6 124.12,-72.87"/>
</g>
<!-- Node21&#45;&gt;Node6 -->
<g id="edge40" class="edge">
<title>Node21&#45;&gt;Node6</title>
<path fill="none" stroke="midnightblue" d="M515.84,-224.44C481.96,-214.5 426.28,-198.16 391.73,-188.02"/>
<polygon fill="midnightblue" stroke="midnightblue" points="392.32,-184.54 381.74,-185.09 390.35,-191.26 392.32,-184.54"/>
</g>
<!-- Node21&#45;&gt;Node7 -->
<g id="edge34" class="edge">
<title>Node21&#45;&gt;Node7</title>
<path fill="none" stroke="midnightblue" d="M539.73,-224.08C524.1,-197.61 477.82,-119.21 457.16,-84.21"/>
<polygon fill="midnightblue" stroke="midnightblue" points="460.16,-82.4 452.06,-75.57 454.13,-85.96 460.16,-82.4"/>
</g>
<!-- Node21&#45;&gt;Node8 -->
<g id="edge38" class="edge">
<title>Node21&#45;&gt;Node8</title>
<path fill="none" stroke="midnightblue" d="M545.5,-224.35C546.43,-204.29 547.59,-153.19 538,-112 535.84,-102.71 531.91,-92.89 528.18,-84.81"/>
<polygon fill="midnightblue" stroke="midnightblue" points="531.25,-83.11 523.71,-75.66 524.96,-86.18 531.25,-83.11"/>
</g>
<!-- Node21&#45;&gt;Node11 -->
<g id="edge37" class="edge">
<title>Node21&#45;&gt;Node11</title>
<path fill="none" stroke="midnightblue" d="M548.39,-224.08C558.35,-197.83 587.68,-120.55 601.12,-85.12"/>
<polygon fill="midnightblue" stroke="midnightblue" points="604.47,-86.16 604.75,-75.57 597.93,-83.68 604.47,-86.16"/>
</g>
<!-- Node21&#45;&gt;Node16 -->
<g id="edge39" class="edge">
<title>Node21&#45;&gt;Node16</title>
<path fill="none" stroke="midnightblue" d="M599.39,-224.42C628.7,-217.9 664.39,-206.73 692,-188 732.5,-160.53 764.39,-111.06 779.48,-84.69"/>
<polygon fill="midnightblue" stroke="midnightblue" points="782.62,-86.24 784.42,-75.8 776.5,-82.84 782.62,-86.24"/>
</g>
</g>
</svg>
