<?xml version="1.0" encoding="UTF-8" standalone="no"?>
<!DOCTYPE svg PUBLIC "-//W3C//DTD SVG 1.1//EN"
 "http://www.w3.org/Graphics/SVG/1.1/DTD/svg11.dtd">
<!-- Generated by graphviz version 2.49.3 (20211027.1534)
 -->
<!-- Title: include/WillyWeather/precipitation.h Pages: 1 -->
<svg width="908pt" height="375pt"
 viewBox="0.00 0.00 907.50 375.00" xmlns="http://www.w3.org/2000/svg" xmlns:xlink="http://www.w3.org/1999/xlink">
<g id="graph0" class="graph" transform="scale(1 1) rotate(0) translate(4 371)">
<title>include/WillyWeather/precipitation.h</title>
<!-- Node1 -->
<g id="node1" class="node">
<title>Node1</title>
<g id="a_node1"><a xlink:title=" ">
<polygon fill="#bfbfbf" stroke="black" points="98.5,-336.5 98.5,-366.5 205.5,-366.5 205.5,-336.5 98.5,-336.5"/>
<text text-anchor="start" x="106.5" y="-354.5" font-family="Helvetica,sans-Serif" font-size="10.00">include/WillyWeather</text>
<text text-anchor="middle" x="152" y="-343.5" font-family="Helvetica,sans-Serif" font-size="10.00">/precipitation.h</text>
</a>
</g>
</g>
<!-- Node2 -->
<g id="node2" class="node">
<title>Node2</title>
<g id="a_node2"><a xlink:title=" ">
<polygon fill="none" stroke="#bfbfbf" points="150.5,-0.5 150.5,-19.5 193.5,-19.5 193.5,-0.5 150.5,-0.5"/>
<text text-anchor="middle" x="172" y="-7.5" font-family="Helvetica,sans-Serif" font-size="10.00">time.h</text>
</a>
</g>
</g>
<!-- Node1&#45;&gt;Node2 -->
<g id="edge1" class="edge">
<title>Node1&#45;&gt;Node2</title>
<path fill="none" stroke="midnightblue" d="M104.32,-336.48C59.75,-320.09 0,-288.19 0,-235 0,-235 0,-235 0,-121 0,-89.72 3.88,-77.07 27,-56 58.42,-27.37 107.8,-16.95 140.04,-13.16"/>
<polygon fill="midnightblue" stroke="midnightblue" points="140.67,-16.62 150.26,-12.12 139.96,-9.65 140.67,-16.62"/>
</g>
<!-- Node3 -->
<g id="node3" class="node">
<title>Node3</title>
<g id="a_node3"><a xlink:title=" ">
<polygon fill="none" stroke="#bfbfbf" points="653.5,-0.5 653.5,-19.5 698.5,-19.5 698.5,-0.5 653.5,-0.5"/>
<text text-anchor="middle" x="676" y="-7.5" font-family="Helvetica,sans-Serif" font-size="10.00">stdio.h</text>
</a>
</g>
</g>
<!-- Node1&#45;&gt;Node3 -->
<g id="edge2" class="edge">
<title>Node1&#45;&gt;Node3</title>
<path fill="none" stroke="midnightblue" d="M205.51,-345.83C352.57,-332.28 752,-290.39 752,-235 752,-235 752,-235 752,-121 752,-81.28 718.04,-45.5 695.52,-26.15"/>
<polygon fill="midnightblue" stroke="midnightblue" points="697.48,-23.24 687.54,-19.57 693.02,-28.63 697.48,-23.24"/>
</g>
<!-- Node4 -->
<g id="node4" class="node">
<title>Node4</title>
<g id="a_node4"><a xlink:title=" ">
<polygon fill="none" stroke="#bfbfbf" points="36.5,-56.5 36.5,-75.5 83.5,-75.5 83.5,-56.5 36.5,-56.5"/>
<text text-anchor="middle" x="60" y="-63.5" font-family="Helvetica,sans-Serif" font-size="10.00">stdlib.h</text>
</a>
</g>
</g>
<!-- Node1&#45;&gt;Node4 -->
<g id="edge3" class="edge">
<title>Node1&#45;&gt;Node4</title>
<path fill="none" stroke="midnightblue" d="M122.05,-336.37C88.27,-318.11 38,-282.9 38,-235 38,-235 38,-235 38,-177 38,-144.33 47.45,-107.24 53.96,-85.55"/>
<polygon fill="midnightblue" stroke="midnightblue" points="57.39,-86.31 57.03,-75.72 50.71,-84.22 57.39,-86.31"/>
</g>
<!-- Node5 -->
<g id="node5" class="node">
<title>Node5</title>
<g id="a_node5"><a xlink:href="http_8h.html" target="_top" xlink:title=" ">
<polygon fill="none" stroke="black" points="235.5,-168.5 235.5,-187.5 276.5,-187.5 276.5,-168.5 235.5,-168.5"/>
<text text-anchor="middle" x="256" y="-175.5" font-family="Helvetica,sans-Serif" font-size="10.00">http.h</text>
</a>
</g>
</g>
<!-- Node1&#45;&gt;Node5 -->
<g id="edge4" class="edge">
<title>Node1&#45;&gt;Node5</title>
<path fill="none" stroke="midnightblue" d="M156.4,-336.29C164.37,-311.87 182.86,-260.98 209,-224 216.87,-212.87 227.76,-202.23 237.08,-194.1"/>
<polygon fill="midnightblue" stroke="midnightblue" points="239.35,-196.76 244.74,-187.65 234.84,-191.41 239.35,-196.76"/>
</g>
<!-- Node8 -->
<g id="node8" class="node">
<title>Node8</title>
<g id="a_node8"><a xlink:href="utils_8h.html" target="_top" xlink:title=" ">
<polygon fill="none" stroke="black" points="226,-112.5 226,-131.5 268,-131.5 268,-112.5 226,-112.5"/>
<text text-anchor="middle" x="247" y="-119.5" font-family="Helvetica,sans-Serif" font-size="10.00">utils.h</text>
</a>
</g>
</g>
<!-- Node1&#45;&gt;Node8 -->
<g id="edge40" class="edge">
<title>Node1&#45;&gt;Node8</title>
<path fill="none" stroke="midnightblue" d="M153.34,-336.19C156.91,-303.98 168.8,-224.21 203,-168 209.78,-156.85 219.81,-146.31 228.59,-138.24"/>
<polygon fill="midnightblue" stroke="midnightblue" points="230.97,-140.8 236.16,-131.57 226.34,-135.55 230.97,-140.8"/>
</g>
<!-- Node16 -->
<g id="node16" class="node">
<title>Node16</title>
<g id="a_node16"><a xlink:href="forecast_8h.html" target="_top" xlink:title=" ">
<polygon fill="none" stroke="black" points="780.5,-280.5 780.5,-299.5 899.5,-299.5 899.5,-280.5 780.5,-280.5"/>
<text text-anchor="middle" x="840" y="-287.5" font-family="Helvetica,sans-Serif" font-size="10.00">WillyWeather/forecast.h</text>
</a>
</g>
</g>
<!-- Node1&#45;&gt;Node16 -->
<g id="edge21" class="edge">
<title>Node1&#45;&gt;Node16</title>
<path fill="none" stroke="midnightblue" d="M205.86,-346.78C312.77,-339.24 559.31,-321.06 766,-300 767.3,-299.87 768.62,-299.73 769.95,-299.59"/>
<polygon fill="midnightblue" stroke="midnightblue" points="770.69,-303.03 780.25,-298.47 769.93,-296.07 770.69,-303.03"/>
</g>
<!-- Node17 -->
<g id="node17" class="node">
<title>Node17</title>
<g id="a_node17"><a xlink:href="location_8h.html" target="_top" xlink:title=" ">
<polygon fill="none" stroke="black" points="271.5,-280.5 271.5,-299.5 388.5,-299.5 388.5,-280.5 271.5,-280.5"/>
<text text-anchor="middle" x="330" y="-287.5" font-family="Helvetica,sans-Serif" font-size="10.00">WillyWeather/location.h</text>
</a>
</g>
</g>
<!-- Node1&#45;&gt;Node17 -->
<g id="edge22" class="edge">
<title>Node1&#45;&gt;Node17</title>
<path fill="none" stroke="midnightblue" d="M194.18,-336.4C224.81,-326.16 265.77,-312.47 294.67,-302.81"/>
<polygon fill="midnightblue" stroke="midnightblue" points="295.98,-306.06 304.36,-299.57 293.77,-299.42 295.98,-306.06"/>
</g>
<!-- Node5&#45;&gt;Node4 -->
<g id="edge5" class="edge">
<title>Node5&#45;&gt;Node4</title>
<path fill="none" stroke="midnightblue" d="M240.62,-168.37C206.63,-149.29 124.9,-103.42 84.06,-80.51"/>
<polygon fill="midnightblue" stroke="midnightblue" points="85.74,-77.43 75.31,-75.59 82.32,-83.54 85.74,-77.43"/>
</g>
<!-- Node6 -->
<g id="node6" class="node">
<title>Node6</title>
<g id="a_node6"><a xlink:title=" ">
<polygon fill="none" stroke="#bfbfbf" points="327,-56.5 327,-75.5 375,-75.5 375,-56.5 327,-56.5"/>
<text text-anchor="middle" x="351" y="-63.5" font-family="Helvetica,sans-Serif" font-size="10.00">string.h</text>
</a>
</g>
</g>
<!-- Node5&#45;&gt;Node6 -->
<g id="edge6" class="edge">
<title>Node5&#45;&gt;Node6</title>
<path fill="none" stroke="midnightblue" d="M263.45,-168.37C279.27,-150.05 316.41,-107.05 336.87,-83.36"/>
<polygon fill="midnightblue" stroke="midnightblue" points="339.69,-85.45 343.58,-75.59 334.4,-80.87 339.69,-85.45"/>
</g>
<!-- Node7 -->
<g id="node7" class="node">
<title>Node7</title>
<g id="a_node7"><a xlink:title=" ">
<polygon fill="none" stroke="#bfbfbf" points="448.5,-56.5 448.5,-75.5 507.5,-75.5 507.5,-56.5 448.5,-56.5"/>
<text text-anchor="middle" x="478" y="-63.5" font-family="Helvetica,sans-Serif" font-size="10.00">curl/curl.h</text>
</a>
</g>
</g>
<!-- Node5&#45;&gt;Node7 -->
<g id="edge7" class="edge">
<title>Node5&#45;&gt;Node7</title>
<path fill="none" stroke="midnightblue" d="M273.42,-168.37C312.16,-149.17 405.66,-102.84 451.61,-80.07"/>
<polygon fill="midnightblue" stroke="midnightblue" points="453.25,-83.17 460.66,-75.59 450.15,-76.9 453.25,-83.17"/>
</g>
<!-- Node5&#45;&gt;Node8 -->
<g id="edge8" class="edge">
<title>Node5&#45;&gt;Node8</title>
<path fill="none" stroke="midnightblue" d="M254.51,-168.08C253.32,-160.93 251.61,-150.64 250.12,-141.69"/>
<polygon fill="midnightblue" stroke="midnightblue" points="253.55,-141.04 248.46,-131.75 246.65,-142.19 253.55,-141.04"/>
</g>
<!-- Node8&#45;&gt;Node4 -->
<g id="edge9" class="edge">
<title>Node8&#45;&gt;Node4</title>
<path fill="none" stroke="midnightblue" d="M225.91,-114.91C193.65,-105.59 131.73,-87.71 93.34,-76.63"/>
<polygon fill="midnightblue" stroke="midnightblue" points="94.23,-73.24 83.65,-73.83 92.28,-79.97 94.23,-73.24"/>
</g>
<!-- Node8&#45;&gt;Node6 -->
<g id="edge10" class="edge">
<title>Node8&#45;&gt;Node6</title>
<path fill="none" stroke="midnightblue" d="M263.71,-112.32C280.31,-103.7 306,-90.36 325.22,-80.39"/>
<polygon fill="midnightblue" stroke="midnightblue" points="327.07,-83.37 334.33,-75.65 323.84,-77.16 327.07,-83.37"/>
</g>
<!-- Node8&#45;&gt;Node7 -->
<g id="edge11" class="edge">
<title>Node8&#45;&gt;Node7</title>
<path fill="none" stroke="midnightblue" d="M268.32,-116.02C307,-106.97 389.31,-87.73 438.51,-76.23"/>
<polygon fill="midnightblue" stroke="midnightblue" points="439.54,-79.59 448.48,-73.9 437.95,-72.77 439.54,-79.59"/>
</g>
<!-- Node9 -->
<g id="node9" class="node">
<title>Node9</title>
<g id="a_node9"><a xlink:title=" ">
<polygon fill="none" stroke="#bfbfbf" points="525.5,-56.5 525.5,-75.5 608.5,-75.5 608.5,-56.5 525.5,-56.5"/>
<text text-anchor="middle" x="567" y="-63.5" font-family="Helvetica,sans-Serif" font-size="10.00">cjson/cJSON.h</text>
</a>
</g>
</g>
<!-- Node8&#45;&gt;Node9 -->
<g id="edge12" class="edge">
<title>Node8&#45;&gt;Node9</title>
<path fill="none" stroke="midnightblue" d="M268.02,-117.59C311.97,-110.45 417,-93.26 515.18,-76.3"/>
<polygon fill="midnightblue" stroke="midnightblue" points="516.01,-79.71 525.27,-74.55 514.81,-72.81 516.01,-79.71"/>
</g>
<!-- Node10 -->
<g id="node10" class="node">
<title>Node10</title>
<g id="a_node10"><a xlink:title=" ">
<polygon fill="none" stroke="#bfbfbf" points="249.5,-56.5 249.5,-75.5 308.5,-75.5 308.5,-56.5 249.5,-56.5"/>
<text text-anchor="middle" x="279" y="-63.5" font-family="Helvetica,sans-Serif" font-size="10.00">sys/stat.h</text>
</a>
</g>
</g>
<!-- Node8&#45;&gt;Node10 -->
<g id="edge13" class="edge">
<title>Node8&#45;&gt;Node10</title>
<path fill="none" stroke="midnightblue" d="M252.28,-112.08C256.71,-104.61 263.16,-93.72 268.62,-84.52"/>
<polygon fill="midnightblue" stroke="midnightblue" points="271.73,-86.14 273.81,-75.75 265.71,-82.57 271.73,-86.14"/>
</g>
<!-- Node11 -->
<g id="node11" class="node">
<title>Node11</title>
<g id="a_node11"><a xlink:title=" ">
<polygon fill="none" stroke="#bfbfbf" points="101.5,-56.5 101.5,-75.5 166.5,-75.5 166.5,-56.5 101.5,-56.5"/>
<text text-anchor="middle" x="134" y="-63.5" font-family="Helvetica,sans-Serif" font-size="10.00">sys/types.h</text>
</a>
</g>
</g>
<!-- Node8&#45;&gt;Node11 -->
<g id="edge14" class="edge">
<title>Node8&#45;&gt;Node11</title>
<path fill="none" stroke="midnightblue" d="M229.09,-112.44C210.75,-103.68 181.99,-89.94 160.91,-79.86"/>
<polygon fill="midnightblue" stroke="midnightblue" points="162.35,-76.67 151.82,-75.52 159.33,-82.99 162.35,-76.67"/>
</g>
<!-- Node12 -->
<g id="node12" class="node">
<title>Node12</title>
<g id="a_node12"><a xlink:title=" ">
<polygon fill="none" stroke="#bfbfbf" points="185,-56.5 185,-75.5 231,-75.5 231,-56.5 185,-56.5"/>
<text text-anchor="middle" x="208" y="-63.5" font-family="Helvetica,sans-Serif" font-size="10.00">errno.h</text>
</a>
</g>
</g>
<!-- Node8&#45;&gt;Node12 -->
<g id="edge15" class="edge">
<title>Node8&#45;&gt;Node12</title>
<path fill="none" stroke="midnightblue" d="M240.56,-112.08C235.05,-104.46 226.97,-93.26 220.24,-83.94"/>
<polygon fill="midnightblue" stroke="midnightblue" points="223.01,-81.81 214.32,-75.75 217.34,-85.91 223.01,-81.81"/>
</g>
<!-- Node13 -->
<g id="node13" class="node">
<title>Node13</title>
<g id="a_node13"><a xlink:href="log_8h.html" target="_top" xlink:title=" ">
<polygon fill="none" stroke="black" points="393.5,-56.5 393.5,-75.5 430.5,-75.5 430.5,-56.5 393.5,-56.5"/>
<text text-anchor="middle" x="412" y="-63.5" font-family="Helvetica,sans-Serif" font-size="10.00">log.h</text>
</a>
</g>
</g>
<!-- Node8&#45;&gt;Node13 -->
<g id="edge16" class="edge">
<title>Node8&#45;&gt;Node13</title>
<path fill="none" stroke="midnightblue" d="M268.23,-114.05C297.61,-104.44 350.72,-87.06 383.51,-76.32"/>
<polygon fill="midnightblue" stroke="midnightblue" points="384.98,-79.53 393.39,-73.09 382.8,-72.87 384.98,-79.53"/>
</g>
<!-- Node13&#45;&gt;Node2 -->
<g id="edge20" class="edge">
<title>Node13&#45;&gt;Node2</title>
<path fill="none" stroke="midnightblue" d="M393.4,-58.73C390.28,-57.76 387.06,-56.81 384,-56 320.61,-39.13 245.25,-24.37 203.61,-16.67"/>
<polygon fill="midnightblue" stroke="midnightblue" points="204,-13.18 193.54,-14.82 202.74,-20.07 204,-13.18"/>
</g>
<!-- Node13&#45;&gt;Node3 -->
<g id="edge17" class="edge">
<title>Node13&#45;&gt;Node3</title>
<path fill="none" stroke="midnightblue" d="M430.79,-58.38C433.52,-57.52 436.32,-56.7 439,-56 511.01,-37.25 597.21,-22.85 643.23,-15.8"/>
<polygon fill="midnightblue" stroke="midnightblue" points="643.86,-19.24 653.23,-14.28 642.82,-12.32 643.86,-19.24"/>
</g>
<!-- Node14 -->
<g id="node14" class="node">
<title>Node14</title>
<g id="a_node14"><a xlink:title=" ">
<polygon fill="none" stroke="#bfbfbf" points="422.5,-0.5 422.5,-19.5 473.5,-19.5 473.5,-0.5 422.5,-0.5"/>
<text text-anchor="middle" x="448" y="-7.5" font-family="Helvetica,sans-Serif" font-size="10.00">stdarg.h</text>
</a>
</g>
</g>
<!-- Node13&#45;&gt;Node14 -->
<g id="edge18" class="edge">
<title>Node13&#45;&gt;Node14</title>
<path fill="none" stroke="midnightblue" d="M417.94,-56.08C422.98,-48.53 430.34,-37.49 436.51,-28.23"/>
<polygon fill="midnightblue" stroke="midnightblue" points="439.53,-30.01 442.17,-19.75 433.71,-26.13 439.53,-30.01"/>
</g>
<!-- Node15 -->
<g id="node15" class="node">
<title>Node15</title>
<g id="a_node15"><a xlink:title=" ">
<polygon fill="none" stroke="#bfbfbf" points="348,-0.5 348,-19.5 404,-19.5 404,-0.5 348,-0.5"/>
<text text-anchor="middle" x="376" y="-7.5" font-family="Helvetica,sans-Serif" font-size="10.00">stdbool.h</text>
</a>
</g>
</g>
<!-- Node13&#45;&gt;Node15 -->
<g id="edge19" class="edge">
<title>Node13&#45;&gt;Node15</title>
<path fill="none" stroke="midnightblue" d="M406.06,-56.08C401.02,-48.53 393.66,-37.49 387.49,-28.23"/>
<polygon fill="midnightblue" stroke="midnightblue" points="390.29,-26.13 381.83,-19.75 384.47,-30.01 390.29,-26.13"/>
</g>
<!-- Node17&#45;&gt;Node3 -->
<g id="edge25" class="edge">
<title>Node17&#45;&gt;Node3</title>
<path fill="none" stroke="midnightblue" d="M388.74,-284.41C496.31,-274.38 714,-245.83 714,-179 714,-179 714,-179 714,-121 714,-86.81 697.4,-49.76 686.14,-28.57"/>
<polygon fill="midnightblue" stroke="midnightblue" points="689.18,-26.83 681.28,-19.77 683.05,-30.22 689.18,-26.83"/>
</g>
<!-- Node17&#45;&gt;Node4 -->
<g id="edge24" class="edge">
<title>Node17&#45;&gt;Node4</title>
<path fill="none" stroke="midnightblue" d="M284.8,-280.45C257.8,-273.74 223.84,-262.39 198,-244 136.17,-199.99 88.54,-120.49 69.29,-84.98"/>
<polygon fill="midnightblue" stroke="midnightblue" points="72.22,-83.02 64.44,-75.82 66.03,-86.3 72.22,-83.02"/>
</g>
<!-- Node17&#45;&gt;Node5 -->
<g id="edge38" class="edge">
<title>Node17&#45;&gt;Node5</title>
<path fill="none" stroke="midnightblue" d="M324.19,-280.37C311.98,-262.22 283.45,-219.8 267.43,-195.99"/>
<polygon fill="midnightblue" stroke="midnightblue" points="270.27,-193.94 261.78,-187.59 264.46,-197.84 270.27,-193.94"/>
</g>
<!-- Node17&#45;&gt;Node6 -->
<g id="edge23" class="edge">
<title>Node17&#45;&gt;Node6</title>
<path fill="none" stroke="midnightblue" d="M330.82,-280.3C333.91,-247.63 344.86,-131.87 349.21,-85.96"/>
<polygon fill="midnightblue" stroke="midnightblue" points="352.7,-86.17 350.16,-75.88 345.73,-85.51 352.7,-86.17"/>
</g>
<!-- Node17&#45;&gt;Node7 -->
<g id="edge28" class="edge">
<title>Node17&#45;&gt;Node7</title>
<path fill="none" stroke="midnightblue" d="M388.68,-283.27C439.17,-276.98 506.42,-264.89 523,-244 561.38,-195.65 515.35,-118.46 491.11,-84.27"/>
<polygon fill="midnightblue" stroke="midnightblue" points="493.66,-81.83 484.94,-75.83 488.01,-85.97 493.66,-81.83"/>
</g>
<!-- Node17&#45;&gt;Node8 -->
<g id="edge39" class="edge">
<title>Node17&#45;&gt;Node8</title>
<path fill="none" stroke="midnightblue" d="M271.5,-281.79C248.05,-275.7 223.26,-264.52 209,-244 186.28,-211.31 214.61,-164.44 233.21,-139.73"/>
<polygon fill="midnightblue" stroke="midnightblue" points="236.09,-141.72 239.51,-131.69 230.58,-137.4 236.09,-141.72"/>
</g>
<!-- Node17&#45;&gt;Node9 -->
<g id="edge27" class="edge">
<title>Node17&#45;&gt;Node9</title>
<path fill="none" stroke="midnightblue" d="M388.67,-284.02C444.03,-278.04 521.49,-265.97 542,-244 582.89,-200.19 576.32,-121.76 570.62,-85.87"/>
<polygon fill="midnightblue" stroke="midnightblue" points="574.03,-85.06 568.86,-75.81 567.14,-86.26 574.03,-85.06"/>
</g>
<!-- Node17&#45;&gt;Node13 -->
<g id="edge29" class="edge">
<title>Node17&#45;&gt;Node13</title>
<path fill="none" stroke="midnightblue" d="M388.65,-281.67C433.75,-274.68 490.68,-262.47 505,-244 546.92,-189.93 469.17,-114.2 431.17,-82.21"/>
<polygon fill="midnightblue" stroke="midnightblue" points="433.24,-79.39 423.29,-75.73 428.79,-84.79 433.24,-79.39"/>
</g>
<!-- Node18 -->
<g id="node18" class="node">
<title>Node18</title>
<g id="a_node18"><a xlink:title=" ">
<polygon fill="none" stroke="#bfbfbf" points="218,-224.5 218,-243.5 264,-243.5 264,-224.5 218,-224.5"/>
<text text-anchor="middle" x="241" y="-231.5" font-family="Helvetica,sans-Serif" font-size="10.00">math.h</text>
</a>
</g>
</g>
<!-- Node17&#45;&gt;Node18 -->
<g id="edge26" class="edge">
<title>Node17&#45;&gt;Node18</title>
<path fill="none" stroke="midnightblue" d="M315.7,-280.32C301.82,-271.9 280.51,-258.97 264.2,-249.07"/>
<polygon fill="midnightblue" stroke="midnightblue" points="265.63,-245.85 255.26,-243.65 262,-251.83 265.63,-245.85"/>
</g>
<!-- Node19 -->
<g id="node19" class="node">
<title>Node19</title>
<g id="a_node19"><a xlink:href="_willy_weather_2authenticate_8h.html" target="_top" xlink:title=" ">
<polygon fill="none" stroke="black" points="358.5,-224.5 358.5,-243.5 495.5,-243.5 495.5,-224.5 358.5,-224.5"/>
<text text-anchor="middle" x="427" y="-231.5" font-family="Helvetica,sans-Serif" font-size="10.00">WillyWeather/authenticate.h</text>
</a>
</g>
</g>
<!-- Node17&#45;&gt;Node19 -->
<g id="edge30" class="edge">
<title>Node17&#45;&gt;Node19</title>
<path fill="none" stroke="midnightblue" d="M345.58,-280.32C361,-271.74 384.81,-258.49 402.71,-248.52"/>
<polygon fill="midnightblue" stroke="midnightblue" points="404.42,-251.58 411.45,-243.65 401.01,-245.46 404.42,-251.58"/>
</g>
<!-- Node19&#45;&gt;Node3 -->
<g id="edge33" class="edge">
<title>Node19&#45;&gt;Node3</title>
<path fill="none" stroke="midnightblue" d="M438.89,-224.21C450.91,-215.27 469.94,-200.92 486,-188 545.94,-139.77 562.92,-129.72 618,-76 633.99,-60.41 650.83,-41.18 662.22,-27.69"/>
<polygon fill="midnightblue" stroke="midnightblue" points="665.12,-29.68 668.85,-19.76 659.75,-25.19 665.12,-29.68"/>
</g>
<!-- Node19&#45;&gt;Node4 -->
<g id="edge32" class="edge">
<title>Node19&#45;&gt;Node4</title>
<path fill="none" stroke="midnightblue" d="M409.85,-224.42C369.02,-204.08 262.68,-151.69 172,-112 145.24,-100.29 114.42,-87.99 91.9,-79.22"/>
<polygon fill="midnightblue" stroke="midnightblue" points="93.07,-75.92 82.48,-75.57 90.54,-82.45 93.07,-75.92"/>
</g>
<!-- Node19&#45;&gt;Node5 -->
<g id="edge37" class="edge">
<title>Node19&#45;&gt;Node5</title>
<path fill="none" stroke="midnightblue" d="M399.9,-224.44C368.97,-214.68 318.51,-198.74 286.3,-188.57"/>
<polygon fill="midnightblue" stroke="midnightblue" points="287.12,-185.16 276.53,-185.48 285.01,-191.83 287.12,-185.16"/>
</g>
<!-- Node19&#45;&gt;Node6 -->
<g id="edge31" class="edge">
<title>Node19&#45;&gt;Node6</title>
<path fill="none" stroke="midnightblue" d="M422.91,-224.08C410.85,-197.72 375.21,-119.88 359.09,-84.66"/>
<polygon fill="midnightblue" stroke="midnightblue" points="362.27,-83.2 354.92,-75.57 355.9,-86.12 362.27,-83.2"/>
</g>
<!-- Node19&#45;&gt;Node7 -->
<g id="edge35" class="edge">
<title>Node19&#45;&gt;Node7</title>
<path fill="none" stroke="midnightblue" d="M429.74,-224.08C437.77,-197.95 461.34,-121.21 472.29,-85.58"/>
<polygon fill="midnightblue" stroke="midnightblue" points="475.78,-86.16 475.37,-75.57 469.09,-84.1 475.78,-86.16"/>
</g>
<!-- Node19&#45;&gt;Node9 -->
<g id="edge34" class="edge">
<title>Node19&#45;&gt;Node9</title>
<path fill="none" stroke="midnightblue" d="M434.53,-224.08C457.04,-197.38 524.1,-117.87 553.23,-83.32"/>
<polygon fill="midnightblue" stroke="midnightblue" points="556,-85.47 559.77,-75.57 550.65,-80.96 556,-85.47"/>
</g>
<!-- Node19&#45;&gt;Node13 -->
<g id="edge36" class="edge">
<title>Node19&#45;&gt;Node13</title>
<path fill="none" stroke="midnightblue" d="M426.19,-224.08C423.83,-197.95 416.9,-121.21 413.68,-85.58"/>
<polygon fill="midnightblue" stroke="midnightblue" points="417.16,-85.21 412.77,-75.57 410.19,-85.84 417.16,-85.21"/>
</g>
</g>
</svg>
