<?xml version="1.0" encoding="UTF-8" standalone="no"?>
<!DOCTYPE svg PUBLIC "-//W3C//DTD SVG 1.1//EN"
 "http://www.w3.org/Graphics/SVG/1.1/DTD/svg11.dtd">
<!-- Generated by graphviz version 2.49.3 (20211027.1534)
 -->
<!-- Title: include/WillyWeather/precipitation.h Pages: 1 -->
<svg width="927pt" height="375pt"
 viewBox="0.00 0.00 927.06 375.00" xmlns="http://www.w3.org/2000/svg" xmlns:xlink="http://www.w3.org/1999/xlink">
<g id="graph0" class="graph" transform="scale(1 1) rotate(0) translate(4 371)">
<title>include/WillyWeather/precipitation.h</title>
<!-- Node1 -->
<g id="node1" class="node">
<title>Node1</title>
<g id="a_node1"><a xlink:title=" ">
<polygon fill="#bfbfbf" stroke="black" points="259.06,-336.5 259.06,-366.5 366.06,-366.5 366.06,-336.5 259.06,-336.5"/>
<text text-anchor="start" x="267.06" y="-354.5" font-family="Helvetica,sans-Serif" font-size="10.00">include/WillyWeather</text>
<text text-anchor="middle" x="312.56" y="-343.5" font-family="Helvetica,sans-Serif" font-size="10.00">/precipitation.h</text>
</a>
</g>
</g>
<!-- Node2 -->
<g id="node2" class="node">
<title>Node2</title>
<g id="a_node2"><a xlink:title=" ">
<polygon fill="none" stroke="#bfbfbf" points="150.06,-0.5 150.06,-19.5 193.06,-19.5 193.06,-0.5 150.06,-0.5"/>
<text text-anchor="middle" x="171.56" y="-7.5" font-family="Helvetica,sans-Serif" font-size="10.00">time.h</text>
</a>
</g>
</g>
<!-- Node1&#45;&gt;Node2 -->
<g id="edge1" class="edge">
<title>Node1&#45;&gt;Node2</title>
<path fill="none" stroke="midnightblue" d="M258.93,-342C169.72,-326.33 0.56,-289.44 0.56,-235 0.56,-235 0.56,-235 0.56,-121 0.56,-90.9 -1.68,-77.32 19.56,-56 51.55,-23.9 105.28,-14.48 139.55,-11.84"/>
<polygon fill="midnightblue" stroke="midnightblue" points="140.17,-15.31 149.93,-11.2 139.74,-8.32 140.17,-15.31"/>
</g>
<!-- Node3 -->
<g id="node3" class="node">
<title>Node3</title>
<g id="a_node3"><a xlink:title=" ">
<polygon fill="none" stroke="#bfbfbf" points="692.06,-0.5 692.06,-19.5 737.06,-19.5 737.06,-0.5 692.06,-0.5"/>
<text text-anchor="middle" x="714.56" y="-7.5" font-family="Helvetica,sans-Serif" font-size="10.00">stdio.h</text>
</a>
</g>
</g>
<!-- Node1&#45;&gt;Node3 -->
<g id="edge2" class="edge">
<title>Node1&#45;&gt;Node3</title>
<path fill="none" stroke="midnightblue" d="M366.11,-348.28C487.19,-341.81 771.56,-317.79 771.56,-235 771.56,-235 771.56,-235 771.56,-121 771.56,-84.3 746.24,-47.66 729.35,-27.3"/>
<polygon fill="midnightblue" stroke="midnightblue" points="731.91,-24.9 722.73,-19.62 726.61,-29.48 731.91,-24.9"/>
</g>
<!-- Node4 -->
<g id="node4" class="node">
<title>Node4</title>
<g id="a_node4"><a xlink:title=" ">
<polygon fill="none" stroke="#bfbfbf" points="106.06,-56.5 106.06,-75.5 153.06,-75.5 153.06,-56.5 106.06,-56.5"/>
<text text-anchor="middle" x="129.56" y="-63.5" font-family="Helvetica,sans-Serif" font-size="10.00">stdlib.h</text>
</a>
</g>
</g>
<!-- Node1&#45;&gt;Node4 -->
<g id="edge3" class="edge">
<title>Node1&#45;&gt;Node4</title>
<path fill="none" stroke="midnightblue" d="M258.82,-346.49C191.41,-338.19 84.56,-312.76 84.56,-235 84.56,-235 84.56,-235 84.56,-177 84.56,-141.93 104.4,-104.94 117.73,-84.04"/>
<polygon fill="midnightblue" stroke="midnightblue" points="120.7,-85.9 123.3,-75.63 114.86,-82.03 120.7,-85.9"/>
</g>
<!-- Node5 -->
<g id="node5" class="node">
<title>Node5</title>
<g id="a_node5"><a xlink:href="http_8h.html" target="_top" xlink:title=" ">
<polygon fill="none" stroke="black" points="227.06,-168.5 227.06,-187.5 268.06,-187.5 268.06,-168.5 227.06,-168.5"/>
<text text-anchor="middle" x="247.56" y="-175.5" font-family="Helvetica,sans-Serif" font-size="10.00">http.h</text>
</a>
</g>
</g>
<!-- Node1&#45;&gt;Node5 -->
<g id="edge4" class="edge">
<title>Node1&#45;&gt;Node5</title>
<path fill="none" stroke="midnightblue" d="M307.24,-336.47C295.53,-305.57 267.53,-231.69 254.48,-197.25"/>
<polygon fill="midnightblue" stroke="midnightblue" points="257.62,-195.67 250.81,-187.56 251.08,-198.15 257.62,-195.67"/>
</g>
<!-- Node8 -->
<g id="node8" class="node">
<title>Node8</title>
<g id="a_node8"><a xlink:href="utils_8h.html" target="_top" xlink:title=" ">
<polygon fill="none" stroke="black" points="350.56,-112.5 350.56,-131.5 392.56,-131.5 392.56,-112.5 350.56,-112.5"/>
<text text-anchor="middle" x="371.56" y="-119.5" font-family="Helvetica,sans-Serif" font-size="10.00">utils.h</text>
</a>
</g>
</g>
<!-- Node1&#45;&gt;Node8 -->
<g id="edge41" class="edge">
<title>Node1&#45;&gt;Node8</title>
<path fill="none" stroke="midnightblue" d="M315.38,-336.16C321.59,-305.19 337.35,-229.82 355.56,-168 358.2,-159.04 361.62,-149.25 364.61,-141.1"/>
<polygon fill="midnightblue" stroke="midnightblue" points="367.97,-142.13 368.21,-131.53 361.41,-139.66 367.97,-142.13"/>
</g>
<!-- Node17 -->
<g id="node17" class="node">
<title>Node17</title>
<g id="a_node17"><a xlink:href="forecast_8h.html" target="_top" xlink:title=" ">
<polygon fill="none" stroke="black" points="800.06,-280.5 800.06,-299.5 919.06,-299.5 919.06,-280.5 800.06,-280.5"/>
<text text-anchor="middle" x="859.56" y="-287.5" font-family="Helvetica,sans-Serif" font-size="10.00">WillyWeather/forecast.h</text>
</a>
</g>
</g>
<!-- Node1&#45;&gt;Node17 -->
<g id="edge22" class="edge">
<title>Node1&#45;&gt;Node17</title>
<path fill="none" stroke="midnightblue" d="M366.15,-345.04C453.86,-336.04 633.56,-317.36 785.56,-300 786.86,-299.85 788.18,-299.7 789.5,-299.55"/>
<polygon fill="midnightblue" stroke="midnightblue" points="790.27,-302.98 799.8,-298.35 789.46,-296.03 790.27,-302.98"/>
</g>
<!-- Node18 -->
<g id="node18" class="node">
<title>Node18</title>
<g id="a_node18"><a xlink:href="location_8h.html" target="_top" xlink:title=" ">
<polygon fill="none" stroke="black" points="390.06,-280.5 390.06,-299.5 507.06,-299.5 507.06,-280.5 390.06,-280.5"/>
<text text-anchor="middle" x="448.56" y="-287.5" font-family="Helvetica,sans-Serif" font-size="10.00">WillyWeather/location.h</text>
</a>
</g>
</g>
<!-- Node1&#45;&gt;Node18 -->
<g id="edge23" class="edge">
<title>Node1&#45;&gt;Node18</title>
<path fill="none" stroke="midnightblue" d="M344.79,-336.4C367.41,-326.51 397.4,-313.38 419.32,-303.79"/>
<polygon fill="midnightblue" stroke="midnightblue" points="421.01,-306.87 428.77,-299.66 418.21,-300.46 421.01,-306.87"/>
</g>
<!-- Node5&#45;&gt;Node4 -->
<g id="edge5" class="edge">
<title>Node5&#45;&gt;Node4</title>
<path fill="none" stroke="midnightblue" d="M244.76,-168.43C240.01,-154.97 229.21,-128.7 212.56,-112 198.53,-97.93 179.18,-87.1 162.69,-79.59"/>
<polygon fill="midnightblue" stroke="midnightblue" points="163.94,-76.32 153.38,-75.55 161.16,-82.74 163.94,-76.32"/>
</g>
<!-- Node6 -->
<g id="node6" class="node">
<title>Node6</title>
<g id="a_node6"><a xlink:title=" ">
<polygon fill="none" stroke="#bfbfbf" points="517.56,-56.5 517.56,-75.5 565.56,-75.5 565.56,-56.5 517.56,-56.5"/>
<text text-anchor="middle" x="541.56" y="-63.5" font-family="Helvetica,sans-Serif" font-size="10.00">string.h</text>
</a>
</g>
</g>
<!-- Node5&#45;&gt;Node6 -->
<g id="edge6" class="edge">
<title>Node5&#45;&gt;Node6</title>
<path fill="none" stroke="midnightblue" d="M268.31,-172C298.19,-164.55 354.89,-149.54 401.56,-132 442.62,-116.57 488.42,-94.29 516.1,-80.24"/>
<polygon fill="midnightblue" stroke="midnightblue" points="517.79,-83.3 525.1,-75.63 514.6,-77.07 517.79,-83.3"/>
</g>
<!-- Node7 -->
<g id="node7" class="node">
<title>Node7</title>
<g id="a_node7"><a xlink:title=" ">
<polygon fill="none" stroke="#bfbfbf" points="29.06,-56.5 29.06,-75.5 88.06,-75.5 88.06,-56.5 29.06,-56.5"/>
<text text-anchor="middle" x="58.56" y="-63.5" font-family="Helvetica,sans-Serif" font-size="10.00">curl/curl.h</text>
</a>
</g>
</g>
<!-- Node5&#45;&gt;Node7 -->
<g id="edge7" class="edge">
<title>Node5&#45;&gt;Node7</title>
<path fill="none" stroke="midnightblue" d="M232.86,-168.35C211.62,-155.86 171.12,-132.09 136.56,-112 118.43,-101.46 97.88,-89.61 82.43,-80.72"/>
<polygon fill="midnightblue" stroke="midnightblue" points="83.94,-77.55 73.53,-75.6 80.45,-83.62 83.94,-77.55"/>
</g>
<!-- Node5&#45;&gt;Node8 -->
<g id="edge8" class="edge">
<title>Node5&#45;&gt;Node8</title>
<path fill="none" stroke="midnightblue" d="M267.21,-168.44C287.53,-159.6 319.46,-145.69 342.66,-135.59"/>
<polygon fill="midnightblue" stroke="midnightblue" points="344.23,-138.72 352.01,-131.52 341.44,-132.3 344.23,-138.72"/>
</g>
<!-- Node8&#45;&gt;Node4 -->
<g id="edge9" class="edge">
<title>Node8&#45;&gt;Node4</title>
<path fill="none" stroke="midnightblue" d="M350.5,-115.41C345.92,-114.24 341.08,-113.05 336.56,-112 262.64,-94.86 241.03,-94.41 163.1,-76"/>
<polygon fill="midnightblue" stroke="midnightblue" points="163.85,-72.58 153.31,-73.67 162.22,-79.39 163.85,-72.58"/>
</g>
<!-- Node8&#45;&gt;Node6 -->
<g id="edge10" class="edge">
<title>Node8&#45;&gt;Node6</title>
<path fill="none" stroke="midnightblue" d="M392.75,-114.27C421.59,-105.11 473.52,-88.61 507.77,-77.73"/>
<polygon fill="midnightblue" stroke="midnightblue" points="508.89,-81.05 517.36,-74.69 506.77,-74.38 508.89,-81.05"/>
</g>
<!-- Node8&#45;&gt;Node7 -->
<g id="edge11" class="edge">
<title>Node8&#45;&gt;Node7</title>
<path fill="none" stroke="midnightblue" d="M350.42,-118.06C305.69,-111.73 197.97,-95.9 98.31,-76.25"/>
<polygon fill="midnightblue" stroke="midnightblue" points="98.88,-72.79 88.39,-74.27 97.51,-79.66 98.88,-72.79"/>
</g>
<!-- Node9 -->
<g id="node9" class="node">
<title>Node9</title>
<g id="a_node9"><a xlink:title=" ">
<polygon fill="none" stroke="#bfbfbf" points="235.56,-56.5 235.56,-75.5 283.56,-75.5 283.56,-56.5 235.56,-56.5"/>
<text text-anchor="middle" x="259.56" y="-63.5" font-family="Helvetica,sans-Serif" font-size="10.00">stdint.h</text>
</a>
</g>
</g>
<!-- Node8&#45;&gt;Node9 -->
<g id="edge12" class="edge">
<title>Node8&#45;&gt;Node9</title>
<path fill="none" stroke="midnightblue" d="M353.57,-112.32C335.52,-103.62 307.51,-90.12 286.76,-80.11"/>
<polygon fill="midnightblue" stroke="midnightblue" points="288.04,-76.84 277.51,-75.65 285,-83.15 288.04,-76.84"/>
</g>
<!-- Node10 -->
<g id="node10" class="node">
<title>Node10</title>
<g id="a_node10"><a xlink:title=" ">
<polygon fill="none" stroke="#bfbfbf" points="584.06,-56.5 584.06,-75.5 667.06,-75.5 667.06,-56.5 584.06,-56.5"/>
<text text-anchor="middle" x="625.56" y="-63.5" font-family="Helvetica,sans-Serif" font-size="10.00">cjson/cJSON.h</text>
</a>
</g>
</g>
<!-- Node8&#45;&gt;Node10 -->
<g id="edge13" class="edge">
<title>Node8&#45;&gt;Node10</title>
<path fill="none" stroke="midnightblue" d="M392.78,-116.49C432.63,-108.02 519.63,-89.52 575.26,-77.69"/>
<polygon fill="midnightblue" stroke="midnightblue" points="576.21,-81.07 585.26,-75.57 574.75,-74.22 576.21,-81.07"/>
</g>
<!-- Node11 -->
<g id="node11" class="node">
<title>Node11</title>
<g id="a_node11"><a xlink:title=" ">
<polygon fill="none" stroke="#bfbfbf" points="302.06,-56.5 302.06,-75.5 361.06,-75.5 361.06,-56.5 302.06,-56.5"/>
<text text-anchor="middle" x="331.56" y="-63.5" font-family="Helvetica,sans-Serif" font-size="10.00">sys/stat.h</text>
</a>
</g>
</g>
<!-- Node8&#45;&gt;Node11 -->
<g id="edge14" class="edge">
<title>Node8&#45;&gt;Node11</title>
<path fill="none" stroke="midnightblue" d="M364.96,-112.08C359.31,-104.46 351.02,-93.26 344.11,-83.94"/>
<polygon fill="midnightblue" stroke="midnightblue" points="346.81,-81.7 338.04,-75.75 341.18,-85.87 346.81,-81.7"/>
</g>
<!-- Node12 -->
<g id="node12" class="node">
<title>Node12</title>
<g id="a_node12"><a xlink:title=" ">
<polygon fill="none" stroke="#bfbfbf" points="379.06,-56.5 379.06,-75.5 444.06,-75.5 444.06,-56.5 379.06,-56.5"/>
<text text-anchor="middle" x="411.56" y="-63.5" font-family="Helvetica,sans-Serif" font-size="10.00">sys/types.h</text>
</a>
</g>
</g>
<!-- Node8&#45;&gt;Node12 -->
<g id="edge15" class="edge">
<title>Node8&#45;&gt;Node12</title>
<path fill="none" stroke="midnightblue" d="M378.17,-112.08C383.82,-104.46 392.11,-93.26 399.01,-83.94"/>
<polygon fill="midnightblue" stroke="midnightblue" points="401.94,-85.87 405.08,-75.75 396.31,-81.7 401.94,-85.87"/>
</g>
<!-- Node13 -->
<g id="node13" class="node">
<title>Node13</title>
<g id="a_node13"><a xlink:title=" ">
<polygon fill="none" stroke="#bfbfbf" points="171.56,-56.5 171.56,-75.5 217.56,-75.5 217.56,-56.5 171.56,-56.5"/>
<text text-anchor="middle" x="194.56" y="-63.5" font-family="Helvetica,sans-Serif" font-size="10.00">errno.h</text>
</a>
</g>
</g>
<!-- Node8&#45;&gt;Node13 -->
<g id="edge16" class="edge">
<title>Node8&#45;&gt;Node13</title>
<path fill="none" stroke="midnightblue" d="M350.21,-114.49C319.75,-105.19 263.54,-88.04 227.66,-77.1"/>
<polygon fill="midnightblue" stroke="midnightblue" points="228.26,-73.62 217.67,-74.05 226.21,-80.32 228.26,-73.62"/>
</g>
<!-- Node14 -->
<g id="node14" class="node">
<title>Node14</title>
<g id="a_node14"><a xlink:href="log_8h.html" target="_top" xlink:title=" ">
<polygon fill="none" stroke="black" points="462.06,-56.5 462.06,-75.5 499.06,-75.5 499.06,-56.5 462.06,-56.5"/>
<text text-anchor="middle" x="480.56" y="-63.5" font-family="Helvetica,sans-Serif" font-size="10.00">log.h</text>
</a>
</g>
</g>
<!-- Node8&#45;&gt;Node14 -->
<g id="edge17" class="edge">
<title>Node8&#45;&gt;Node14</title>
<path fill="none" stroke="midnightblue" d="M389.07,-112.32C406.63,-103.62 433.89,-90.12 454.09,-80.11"/>
<polygon fill="midnightblue" stroke="midnightblue" points="455.69,-83.23 463.09,-75.65 452.58,-76.96 455.69,-83.23"/>
</g>
<!-- Node14&#45;&gt;Node2 -->
<g id="edge21" class="edge">
<title>Node14&#45;&gt;Node2</title>
<path fill="none" stroke="midnightblue" d="M462,-58.6C458.87,-57.64 455.64,-56.74 452.56,-56 363.33,-34.65 255.69,-20.59 203.3,-14.49"/>
<polygon fill="midnightblue" stroke="midnightblue" points="203.62,-11 193.29,-13.34 202.82,-17.95 203.62,-11"/>
</g>
<!-- Node14&#45;&gt;Node3 -->
<g id="edge18" class="edge">
<title>Node14&#45;&gt;Node3</title>
<path fill="none" stroke="midnightblue" d="M499.16,-58.75C502.29,-57.78 505.5,-56.82 508.56,-56 569.21,-39.67 641.09,-25.02 681.91,-17.13"/>
<polygon fill="midnightblue" stroke="midnightblue" points="682.67,-20.54 691.83,-15.22 681.35,-13.67 682.67,-20.54"/>
</g>
<!-- Node15 -->
<g id="node15" class="node">
<title>Node15</title>
<g id="a_node15"><a xlink:title=" ">
<polygon fill="none" stroke="#bfbfbf" points="419.06,-0.5 419.06,-19.5 470.06,-19.5 470.06,-0.5 419.06,-0.5"/>
<text text-anchor="middle" x="444.56" y="-7.5" font-family="Helvetica,sans-Serif" font-size="10.00">stdarg.h</text>
</a>
</g>
</g>
<!-- Node14&#45;&gt;Node15 -->
<g id="edge19" class="edge">
<title>Node14&#45;&gt;Node15</title>
<path fill="none" stroke="midnightblue" d="M474.62,-56.08C469.58,-48.53 462.22,-37.49 456.05,-28.23"/>
<polygon fill="midnightblue" stroke="midnightblue" points="458.85,-26.13 450.4,-19.75 453.03,-30.01 458.85,-26.13"/>
</g>
<!-- Node16 -->
<g id="node16" class="node">
<title>Node16</title>
<g id="a_node16"><a xlink:title=" ">
<polygon fill="none" stroke="#bfbfbf" points="488.56,-0.5 488.56,-19.5 544.56,-19.5 544.56,-0.5 488.56,-0.5"/>
<text text-anchor="middle" x="516.56" y="-7.5" font-family="Helvetica,sans-Serif" font-size="10.00">stdbool.h</text>
</a>
</g>
</g>
<!-- Node14&#45;&gt;Node16 -->
<g id="edge20" class="edge">
<title>Node14&#45;&gt;Node16</title>
<path fill="none" stroke="midnightblue" d="M486.51,-56.08C491.54,-48.53 498.9,-37.49 505.07,-28.23"/>
<polygon fill="midnightblue" stroke="midnightblue" points="508.09,-30.01 510.73,-19.75 502.27,-26.13 508.09,-30.01"/>
</g>
<!-- Node18&#45;&gt;Node3 -->
<g id="edge26" class="edge">
<title>Node18&#45;&gt;Node3</title>
<path fill="none" stroke="midnightblue" d="M507.39,-282.2C547.92,-275.96 602.23,-264.47 646.56,-244 690.38,-223.77 733.56,-227.27 733.56,-179 733.56,-179 733.56,-179 733.56,-121 733.56,-88.49 725.4,-51.35 719.78,-29.61"/>
<polygon fill="midnightblue" stroke="midnightblue" points="723.1,-28.5 717.12,-19.75 716.34,-30.32 723.1,-28.5"/>
</g>
<!-- Node18&#45;&gt;Node4 -->
<g id="edge25" class="edge">
<title>Node18&#45;&gt;Node4</title>
<path fill="none" stroke="midnightblue" d="M410.57,-280.44C380.44,-272.92 337.71,-260.58 302.56,-244 261.65,-224.7 250.28,-219.24 217.56,-188 183.89,-155.85 154.24,-109.42 139.48,-84.45"/>
<polygon fill="midnightblue" stroke="midnightblue" points="142.46,-82.62 134.41,-75.73 136.41,-86.13 142.46,-82.62"/>
</g>
<!-- Node18&#45;&gt;Node5 -->
<g id="edge39" class="edge">
<title>Node18&#45;&gt;Node5</title>
<path fill="none" stroke="midnightblue" d="M422.63,-280.49C399.61,-272.47 365.4,-259.4 337.56,-244 311.04,-229.33 283.14,-208.15 265.56,-194"/>
<polygon fill="midnightblue" stroke="midnightblue" points="267.77,-191.29 257.81,-187.68 263.35,-196.71 267.77,-191.29"/>
</g>
<!-- Node18&#45;&gt;Node6 -->
<g id="edge24" class="edge">
<title>Node18&#45;&gt;Node6</title>
<path fill="none" stroke="midnightblue" d="M505.17,-280.44C545.93,-272.98 595.89,-260.73 608.56,-244 647.52,-192.57 587.3,-115.9 557.12,-82.97"/>
<polygon fill="midnightblue" stroke="midnightblue" points="559.57,-80.47 550.17,-75.58 554.47,-85.27 559.57,-80.47"/>
</g>
<!-- Node18&#45;&gt;Node7 -->
<g id="edge29" class="edge">
<title>Node18&#45;&gt;Node7</title>
<path fill="none" stroke="midnightblue" d="M393.86,-280.49C355.38,-273.42 303.18,-261.64 259.56,-244 169.04,-207.39 126.43,-212.08 70.56,-132 61.22,-118.62 58.56,-100.05 58.03,-86.18"/>
<polygon fill="midnightblue" stroke="midnightblue" points="61.53,-85.85 57.99,-75.86 54.53,-85.87 61.53,-85.85"/>
</g>
<!-- Node18&#45;&gt;Node8 -->
<g id="edge40" class="edge">
<title>Node18&#45;&gt;Node8</title>
<path fill="none" stroke="midnightblue" d="M419.44,-280.44C401.92,-273.62 381.04,-262.14 370.56,-244 351.98,-211.83 359.55,-166.37 366,-141.33"/>
<polygon fill="midnightblue" stroke="midnightblue" points="369.38,-142.24 368.71,-131.66 362.64,-140.35 369.38,-142.24"/>
</g>
<!-- Node18&#45;&gt;Node10 -->
<g id="edge28" class="edge">
<title>Node18&#45;&gt;Node10</title>
<path fill="none" stroke="midnightblue" d="M507.49,-281.67C553.26,-274.66 611.43,-262.4 626.56,-244 664.42,-197.97 644.34,-120.1 632.38,-85.05"/>
<polygon fill="midnightblue" stroke="midnightblue" points="635.68,-83.86 629.01,-75.63 629.09,-86.22 635.68,-83.86"/>
</g>
<!-- Node18&#45;&gt;Node14 -->
<g id="edge30" class="edge">
<title>Node18&#45;&gt;Node14</title>
<path fill="none" stroke="midnightblue" d="M507.42,-286.14C537.44,-281.33 571.54,-269.98 590.56,-244 632.76,-186.36 544.42,-112.34 501.81,-81.49"/>
<polygon fill="midnightblue" stroke="midnightblue" points="503.66,-78.51 493.47,-75.59 499.61,-84.22 503.66,-78.51"/>
</g>
<!-- Node19 -->
<g id="node19" class="node">
<title>Node19</title>
<g id="a_node19"><a xlink:title=" ">
<polygon fill="none" stroke="#bfbfbf" points="535.56,-224.5 535.56,-243.5 581.56,-243.5 581.56,-224.5 535.56,-224.5"/>
<text text-anchor="middle" x="558.56" y="-231.5" font-family="Helvetica,sans-Serif" font-size="10.00">math.h</text>
</a>
</g>
</g>
<!-- Node18&#45;&gt;Node19 -->
<g id="edge27" class="edge">
<title>Node18&#45;&gt;Node19</title>
<path fill="none" stroke="midnightblue" d="M466.23,-280.32C483.96,-271.62 511.46,-258.12 531.85,-248.11"/>
<polygon fill="midnightblue" stroke="midnightblue" points="533.5,-251.2 540.93,-243.65 530.41,-244.92 533.5,-251.2"/>
</g>
<!-- Node20 -->
<g id="node20" class="node">
<title>Node20</title>
<g id="a_node20"><a xlink:href="_willy_weather_2authenticate_8h.html" target="_top" xlink:title=" ">
<polygon fill="none" stroke="black" points="380.06,-224.5 380.06,-243.5 517.06,-243.5 517.06,-224.5 380.06,-224.5"/>
<text text-anchor="middle" x="448.56" y="-231.5" font-family="Helvetica,sans-Serif" font-size="10.00">WillyWeather/authenticate.h</text>
</a>
</g>
</g>
<!-- Node18&#45;&gt;Node20 -->
<g id="edge31" class="edge">
<title>Node18&#45;&gt;Node20</title>
<path fill="none" stroke="midnightblue" d="M448.56,-280.08C448.56,-273.01 448.56,-262.86 448.56,-253.99"/>
<polygon fill="midnightblue" stroke="midnightblue" points="452.06,-253.75 448.56,-243.75 445.06,-253.75 452.06,-253.75"/>
</g>
<!-- Node20&#45;&gt;Node3 -->
<g id="edge34" class="edge">
<title>Node20&#45;&gt;Node3</title>
<path fill="none" stroke="midnightblue" d="M466.28,-224.41C507.5,-203.71 611.26,-147.51 676.56,-76 689.35,-62 699.84,-43 706.54,-29.16"/>
<polygon fill="midnightblue" stroke="midnightblue" points="709.87,-30.3 710.89,-19.75 703.52,-27.36 709.87,-30.3"/>
</g>
<!-- Node20&#45;&gt;Node4 -->
<g id="edge33" class="edge">
<title>Node20&#45;&gt;Node4</title>
<path fill="none" stroke="midnightblue" d="M434.33,-224.23C400.4,-203.48 311.82,-150.26 234.56,-112 210.32,-100 182.1,-88.01 161.03,-79.43"/>
<polygon fill="midnightblue" stroke="midnightblue" points="162.18,-76.12 151.6,-75.62 159.56,-82.61 162.18,-76.12"/>
</g>
<!-- Node20&#45;&gt;Node5 -->
<g id="edge38" class="edge">
<title>Node20&#45;&gt;Node5</title>
<path fill="none" stroke="midnightblue" d="M416.71,-224.44C378.67,-214.22 315.48,-197.25 278.05,-187.19"/>
<polygon fill="midnightblue" stroke="midnightblue" points="278.78,-183.76 268.22,-184.55 276.96,-190.52 278.78,-183.76"/>
</g>
<!-- Node20&#45;&gt;Node6 -->
<g id="edge32" class="edge">
<title>Node20&#45;&gt;Node6</title>
<path fill="none" stroke="midnightblue" d="M453.56,-224.08C468.33,-197.72 511.94,-119.88 531.67,-84.66"/>
<polygon fill="midnightblue" stroke="midnightblue" points="534.93,-86 536.76,-75.57 528.82,-82.58 534.93,-86"/>
</g>
<!-- Node20&#45;&gt;Node7 -->
<g id="edge36" class="edge">
<title>Node20&#45;&gt;Node7</title>
<path fill="none" stroke="midnightblue" d="M379.95,-227.11C332.82,-221.29 269.62,-209.93 217.56,-188 157.59,-162.74 100.13,-109.53 73.71,-82.89"/>
<polygon fill="midnightblue" stroke="midnightblue" points="76.02,-80.25 66.53,-75.54 71.01,-85.14 76.02,-80.25"/>
</g>
<!-- Node20&#45;&gt;Node10 -->
<g id="edge35" class="edge">
<title>Node20&#45;&gt;Node10</title>
<path fill="none" stroke="midnightblue" d="M458.08,-224.08C486.78,-197.15 572.77,-116.51 609.08,-82.45"/>
<polygon fill="midnightblue" stroke="midnightblue" points="611.53,-84.96 616.43,-75.57 606.74,-79.86 611.53,-84.96"/>
</g>
<!-- Node20&#45;&gt;Node14 -->
<g id="edge37" class="edge">
<title>Node20&#45;&gt;Node14</title>
<path fill="none" stroke="midnightblue" d="M450.28,-224.08C455.32,-197.95 470.11,-121.21 476.98,-85.58"/>
<polygon fill="midnightblue" stroke="midnightblue" points="480.45,-86.05 478.91,-75.57 473.58,-84.72 480.45,-86.05"/>
</g>
</g>
</svg>
