<?xml version="1.0" encoding="UTF-8" standalone="no"?>
<!DOCTYPE svg PUBLIC "-//W3C//DTD SVG 1.1//EN"
 "http://www.w3.org/Graphics/SVG/1.1/DTD/svg11.dtd">
<!-- Generated by graphviz version 2.49.3 (20211027.1534)
 -->
<!-- Title: src/severity_index.c Pages: 1 -->
<svg width="754pt" height="252pt"
 viewBox="0.00 0.00 754.00 252.00" xmlns="http://www.w3.org/2000/svg" xmlns:xlink="http://www.w3.org/1999/xlink">
<g id="graph0" class="graph" transform="scale(1 1) rotate(0) translate(4 248)">
<title>src/severity_index.c</title>
<!-- Node1 -->
<g id="node1" class="node">
<title>Node1</title>
<g id="a_node1"><a xlink:title=" ">
<polygon fill="#bfbfbf" stroke="black" points="291.5,-224.5 291.5,-243.5 393.5,-243.5 393.5,-224.5 291.5,-224.5"/>
<text text-anchor="middle" x="342.5" y="-231.5" font-family="Helvetica,sans-Serif" font-size="10.00">src/severity_index.c</text>
</a>
</g>
</g>
<!-- Node2 -->
<g id="node2" class="node">
<title>Node2</title>
<g id="a_node2"><a xlink:href="severity__index_8h.html" target="_top" xlink:title=" ">
<polygon fill="none" stroke="black" points="299.5,-168.5 299.5,-187.5 385.5,-187.5 385.5,-168.5 299.5,-168.5"/>
<text text-anchor="middle" x="342.5" y="-175.5" font-family="Helvetica,sans-Serif" font-size="10.00">severity_index.h</text>
</a>
</g>
</g>
<!-- Node1&#45;&gt;Node2 -->
<g id="edge1" class="edge">
<title>Node1&#45;&gt;Node2</title>
<path fill="none" stroke="midnightblue" d="M342.5,-224.08C342.5,-217.01 342.5,-206.86 342.5,-197.99"/>
<polygon fill="midnightblue" stroke="midnightblue" points="346,-197.75 342.5,-187.75 339,-197.75 346,-197.75"/>
</g>
<!-- Node3 -->
<g id="node3" class="node">
<title>Node3</title>
<g id="a_node3"><a xlink:title=" ">
<polygon fill="none" stroke="#bfbfbf" points="0,-56.5 0,-75.5 47,-75.5 47,-56.5 0,-56.5"/>
<text text-anchor="middle" x="23.5" y="-63.5" font-family="Helvetica,sans-Serif" font-size="10.00">stdlib.h</text>
</a>
</g>
</g>
<!-- Node2&#45;&gt;Node3 -->
<g id="edge2" class="edge">
<title>Node2&#45;&gt;Node3</title>
<path fill="none" stroke="midnightblue" d="M310.6,-168.49C279.47,-159.98 230.89,-146.16 189.5,-132 141.2,-115.48 86.23,-93.26 53.24,-79.55"/>
<polygon fill="midnightblue" stroke="midnightblue" points="54.31,-76.21 43.73,-75.58 51.61,-82.67 54.31,-76.21"/>
</g>
<!-- Node4 -->
<g id="node4" class="node">
<title>Node4</title>
<g id="a_node4"><a xlink:title=" ">
<polygon fill="none" stroke="#bfbfbf" points="644,-0.5 644,-19.5 689,-19.5 689,-0.5 644,-0.5"/>
<text text-anchor="middle" x="666.5" y="-7.5" font-family="Helvetica,sans-Serif" font-size="10.00">stdio.h</text>
</a>
</g>
</g>
<!-- Node2&#45;&gt;Node4 -->
<g id="edge3" class="edge">
<title>Node2&#45;&gt;Node4</title>
<path fill="none" stroke="midnightblue" d="M385.73,-174.94C451.56,-169.44 576.71,-149.34 647.5,-76 659.35,-63.72 663.87,-44.46 665.57,-30.09"/>
<polygon fill="midnightblue" stroke="midnightblue" points="669.08,-30.09 666.4,-19.84 662.1,-29.52 669.08,-30.09"/>
</g>
<!-- Node5 -->
<g id="node5" class="node">
<title>Node5</title>
<g id="a_node5"><a xlink:title=" ">
<polygon fill="none" stroke="#bfbfbf" points="695,-112.5 695,-131.5 746,-131.5 746,-112.5 695,-112.5"/>
<text text-anchor="middle" x="720.5" y="-119.5" font-family="Helvetica,sans-Serif" font-size="10.00">assert.h</text>
</a>
</g>
</g>
<!-- Node2&#45;&gt;Node5 -->
<g id="edge4" class="edge">
<title>Node2&#45;&gt;Node5</title>
<path fill="none" stroke="midnightblue" d="M385.64,-172.5C450.08,-165.5 575.17,-150.82 680.5,-132 681.95,-131.74 683.42,-131.47 684.9,-131.18"/>
<polygon fill="midnightblue" stroke="midnightblue" points="685.66,-134.6 694.75,-129.15 684.25,-127.74 685.66,-134.6"/>
</g>
<!-- Node6 -->
<g id="node6" class="node">
<title>Node6</title>
<g id="a_node6"><a xlink:title=" ">
<polygon fill="none" stroke="#bfbfbf" points="65.5,-56.5 65.5,-75.5 113.5,-75.5 113.5,-56.5 65.5,-56.5"/>
<text text-anchor="middle" x="89.5" y="-63.5" font-family="Helvetica,sans-Serif" font-size="10.00">string.h</text>
</a>
</g>
</g>
<!-- Node2&#45;&gt;Node6 -->
<g id="edge5" class="edge">
<title>Node2&#45;&gt;Node6</title>
<path fill="none" stroke="midnightblue" d="M322.65,-168.37C278.22,-149.05 170.6,-102.26 118.59,-79.65"/>
<polygon fill="midnightblue" stroke="midnightblue" points="119.83,-76.37 109.26,-75.59 117.04,-82.79 119.83,-76.37"/>
</g>
<!-- Node7 -->
<g id="node7" class="node">
<title>Node7</title>
<g id="a_node7"><a xlink:href="utils_8h.html" target="_top" xlink:title=" ">
<polygon fill="none" stroke="black" points="321.5,-112.5 321.5,-131.5 363.5,-131.5 363.5,-112.5 321.5,-112.5"/>
<text text-anchor="middle" x="342.5" y="-119.5" font-family="Helvetica,sans-Serif" font-size="10.00">utils.h</text>
</a>
</g>
</g>
<!-- Node2&#45;&gt;Node7 -->
<g id="edge6" class="edge">
<title>Node2&#45;&gt;Node7</title>
<path fill="none" stroke="midnightblue" d="M342.5,-168.08C342.5,-161.01 342.5,-150.86 342.5,-141.99"/>
<polygon fill="midnightblue" stroke="midnightblue" points="346,-141.75 342.5,-131.75 339,-141.75 346,-141.75"/>
</g>
<!-- Node7&#45;&gt;Node3 -->
<g id="edge7" class="edge">
<title>Node7&#45;&gt;Node3</title>
<path fill="none" stroke="midnightblue" d="M321.18,-118.46C274.96,-112.79 161.91,-97.98 57.31,-75.96"/>
<polygon fill="midnightblue" stroke="midnightblue" points="57.73,-72.47 47.22,-73.8 56.27,-79.31 57.73,-72.47"/>
</g>
<!-- Node7&#45;&gt;Node6 -->
<g id="edge8" class="edge">
<title>Node7&#45;&gt;Node6</title>
<path fill="none" stroke="midnightblue" d="M321.47,-117.17C283.81,-110.2 202.18,-94.66 123.66,-76.16"/>
<polygon fill="midnightblue" stroke="midnightblue" points="124.14,-72.67 113.6,-73.77 122.52,-79.48 124.14,-72.67"/>
</g>
<!-- Node8 -->
<g id="node8" class="node">
<title>Node8</title>
<g id="a_node8"><a xlink:title=" ">
<polygon fill="none" stroke="#bfbfbf" points="458,-56.5 458,-75.5 517,-75.5 517,-56.5 458,-56.5"/>
<text text-anchor="middle" x="487.5" y="-63.5" font-family="Helvetica,sans-Serif" font-size="10.00">curl/curl.h</text>
</a>
</g>
</g>
<!-- Node7&#45;&gt;Node8 -->
<g id="edge9" class="edge">
<title>Node7&#45;&gt;Node8</title>
<path fill="none" stroke="midnightblue" d="M363.58,-113.15C387.51,-104.24 426.82,-89.6 454.75,-79.2"/>
<polygon fill="midnightblue" stroke="midnightblue" points="456.32,-82.35 464.47,-75.58 453.88,-75.79 456.32,-82.35"/>
</g>
<!-- Node9 -->
<g id="node9" class="node">
<title>Node9</title>
<g id="a_node9"><a xlink:title=" ">
<polygon fill="none" stroke="#bfbfbf" points="590.5,-56.5 590.5,-75.5 638.5,-75.5 638.5,-56.5 590.5,-56.5"/>
<text text-anchor="middle" x="614.5" y="-63.5" font-family="Helvetica,sans-Serif" font-size="10.00">stdint.h</text>
</a>
</g>
</g>
<!-- Node7&#45;&gt;Node9 -->
<g id="edge10" class="edge">
<title>Node7&#45;&gt;Node9</title>
<path fill="none" stroke="midnightblue" d="M363.62,-117.53C405.28,-110.57 500.94,-94.03 580.5,-76 580.6,-75.98 580.7,-75.95 580.8,-75.93"/>
<polygon fill="midnightblue" stroke="midnightblue" points="581.51,-79.36 590.41,-73.61 579.86,-72.56 581.51,-79.36"/>
</g>
<!-- Node10 -->
<g id="node10" class="node">
<title>Node10</title>
<g id="a_node10"><a xlink:title=" ">
<polygon fill="none" stroke="#bfbfbf" points="132,-56.5 132,-75.5 215,-75.5 215,-56.5 132,-56.5"/>
<text text-anchor="middle" x="173.5" y="-63.5" font-family="Helvetica,sans-Serif" font-size="10.00">cjson/cJSON.h</text>
</a>
</g>
</g>
<!-- Node7&#45;&gt;Node10 -->
<g id="edge11" class="edge">
<title>Node7&#45;&gt;Node10</title>
<path fill="none" stroke="midnightblue" d="M321.44,-114.27C293.49,-105.34 243.73,-89.44 209.7,-78.57"/>
<polygon fill="midnightblue" stroke="midnightblue" points="210.71,-75.22 200.12,-75.51 208.58,-81.88 210.71,-75.22"/>
</g>
<!-- Node11 -->
<g id="node11" class="node">
<title>Node11</title>
<g id="a_node11"><a xlink:title=" ">
<polygon fill="none" stroke="#bfbfbf" points="233,-56.5 233,-75.5 292,-75.5 292,-56.5 233,-56.5"/>
<text text-anchor="middle" x="262.5" y="-63.5" font-family="Helvetica,sans-Serif" font-size="10.00">sys/stat.h</text>
</a>
</g>
</g>
<!-- Node7&#45;&gt;Node11 -->
<g id="edge12" class="edge">
<title>Node7&#45;&gt;Node11</title>
<path fill="none" stroke="midnightblue" d="M329.65,-112.32C317.28,-103.98 298.37,-91.21 283.76,-81.35"/>
<polygon fill="midnightblue" stroke="midnightblue" points="285.57,-78.35 275.32,-75.65 281.65,-84.15 285.57,-78.35"/>
</g>
<!-- Node12 -->
<g id="node12" class="node">
<title>Node12</title>
<g id="a_node12"><a xlink:title=" ">
<polygon fill="none" stroke="#bfbfbf" points="310,-56.5 310,-75.5 375,-75.5 375,-56.5 310,-56.5"/>
<text text-anchor="middle" x="342.5" y="-63.5" font-family="Helvetica,sans-Serif" font-size="10.00">sys/types.h</text>
</a>
</g>
</g>
<!-- Node7&#45;&gt;Node12 -->
<g id="edge13" class="edge">
<title>Node7&#45;&gt;Node12</title>
<path fill="none" stroke="midnightblue" d="M342.5,-112.08C342.5,-105.01 342.5,-94.86 342.5,-85.99"/>
<polygon fill="midnightblue" stroke="midnightblue" points="346,-85.75 342.5,-75.75 339,-85.75 346,-85.75"/>
</g>
<!-- Node13 -->
<g id="node13" class="node">
<title>Node13</title>
<g id="a_node13"><a xlink:title=" ">
<polygon fill="none" stroke="#bfbfbf" points="393.5,-56.5 393.5,-75.5 439.5,-75.5 439.5,-56.5 393.5,-56.5"/>
<text text-anchor="middle" x="416.5" y="-63.5" font-family="Helvetica,sans-Serif" font-size="10.00">errno.h</text>
</a>
</g>
</g>
<!-- Node7&#45;&gt;Node13 -->
<g id="edge14" class="edge">
<title>Node7&#45;&gt;Node13</title>
<path fill="none" stroke="midnightblue" d="M354.39,-112.32C365.65,-104.11 382.79,-91.6 396.21,-81.81"/>
<polygon fill="midnightblue" stroke="midnightblue" points="398.38,-84.56 404.39,-75.83 394.25,-78.9 398.38,-84.56"/>
</g>
<!-- Node14 -->
<g id="node14" class="node">
<title>Node14</title>
<g id="a_node14"><a xlink:href="log_8h.html" target="_top" xlink:title=" ">
<polygon fill="none" stroke="black" points="535,-56.5 535,-75.5 572,-75.5 572,-56.5 535,-56.5"/>
<text text-anchor="middle" x="553.5" y="-63.5" font-family="Helvetica,sans-Serif" font-size="10.00">log.h</text>
</a>
</g>
</g>
<!-- Node7&#45;&gt;Node14 -->
<g id="edge15" class="edge">
<title>Node7&#45;&gt;Node14</title>
<path fill="none" stroke="midnightblue" d="M363.76,-116.28C396.33,-108.94 460.73,-94.01 524.99,-75.98"/>
<polygon fill="midnightblue" stroke="midnightblue" points="526.21,-79.28 534.88,-73.19 524.3,-72.54 526.21,-79.28"/>
</g>
<!-- Node14&#45;&gt;Node4 -->
<g id="edge16" class="edge">
<title>Node14&#45;&gt;Node4</title>
<path fill="none" stroke="midnightblue" d="M571.41,-56.44C589.75,-47.68 618.51,-33.94 639.59,-23.86"/>
<polygon fill="midnightblue" stroke="midnightblue" points="641.17,-26.99 648.68,-19.52 638.15,-20.67 641.17,-26.99"/>
</g>
<!-- Node15 -->
<g id="node15" class="node">
<title>Node15</title>
<g id="a_node15"><a xlink:title=" ">
<polygon fill="none" stroke="#bfbfbf" points="500,-0.5 500,-19.5 551,-19.5 551,-0.5 500,-0.5"/>
<text text-anchor="middle" x="525.5" y="-7.5" font-family="Helvetica,sans-Serif" font-size="10.00">stdarg.h</text>
</a>
</g>
</g>
<!-- Node14&#45;&gt;Node15 -->
<g id="edge17" class="edge">
<title>Node14&#45;&gt;Node15</title>
<path fill="none" stroke="midnightblue" d="M548.88,-56.08C545.04,-48.69 539.48,-37.95 534.74,-28.81"/>
<polygon fill="midnightblue" stroke="midnightblue" points="537.75,-27.02 530.04,-19.75 531.53,-30.24 537.75,-27.02"/>
</g>
<!-- Node16 -->
<g id="node16" class="node">
<title>Node16</title>
<g id="a_node16"><a xlink:title=" ">
<polygon fill="none" stroke="#bfbfbf" points="569.5,-0.5 569.5,-19.5 625.5,-19.5 625.5,-0.5 569.5,-0.5"/>
<text text-anchor="middle" x="597.5" y="-7.5" font-family="Helvetica,sans-Serif" font-size="10.00">stdbool.h</text>
</a>
</g>
</g>
<!-- Node14&#45;&gt;Node16 -->
<g id="edge18" class="edge">
<title>Node14&#45;&gt;Node16</title>
<path fill="none" stroke="midnightblue" d="M560.77,-56.08C567.04,-48.38 576.29,-37.03 583.93,-27.65"/>
<polygon fill="midnightblue" stroke="midnightblue" points="586.77,-29.71 590.37,-19.75 581.34,-25.29 586.77,-29.71"/>
</g>
<!-- Node17 -->
<g id="node17" class="node">
<title>Node17</title>
<g id="a_node17"><a xlink:title=" ">
<polygon fill="none" stroke="#bfbfbf" points="439,-0.5 439,-19.5 482,-19.5 482,-0.5 439,-0.5"/>
<text text-anchor="middle" x="460.5" y="-7.5" font-family="Helvetica,sans-Serif" font-size="10.00">time.h</text>
</a>
</g>
</g>
<!-- Node14&#45;&gt;Node17 -->
<g id="edge19" class="edge">
<title>Node14&#45;&gt;Node17</title>
<path fill="none" stroke="midnightblue" d="M538.56,-56.32C523.91,-47.82 501.37,-34.73 484.26,-24.8"/>
<polygon fill="midnightblue" stroke="midnightblue" points="485.81,-21.65 475.4,-19.65 482.3,-27.7 485.81,-21.65"/>
</g>
</g>
</svg>
