<?xml version="1.0" encoding="UTF-8" standalone="no"?>
<!DOCTYPE svg PUBLIC "-//W3C//DTD SVG 1.1//EN"
 "http://www.w3.org/Graphics/SVG/1.1/DTD/svg11.dtd">
<!-- Generated by graphviz version 2.49.3 (20211027.1534)
 -->
<!-- Title: include/severity_index.h Pages: 1 -->
<svg width="688pt" height="196pt"
 viewBox="0.00 0.00 688.00 196.00" xmlns="http://www.w3.org/2000/svg" xmlns:xlink="http://www.w3.org/1999/xlink">
<g id="graph0" class="graph" transform="scale(1 1) rotate(0) translate(4 192)">
<title>include/severity_index.h</title>
<!-- Node1 -->
<g id="node1" class="node">
<title>Node1</title>
<g id="a_node1"><a xlink:title=" ">
<polygon fill="#bfbfbf" stroke="black" points="214,-168.5 214,-187.5 333,-187.5 333,-168.5 214,-168.5"/>
<text text-anchor="middle" x="273.5" y="-175.5" font-family="Helvetica,sans-Serif" font-size="10.00">include/severity_index.h</text>
</a>
</g>
</g>
<!-- Node2 -->
<g id="node2" class="node">
<title>Node2</title>
<g id="a_node2"><a xlink:title=" ">
<polygon fill="none" stroke="#bfbfbf" points="0,-56.5 0,-75.5 47,-75.5 47,-56.5 0,-56.5"/>
<text text-anchor="middle" x="23.5" y="-63.5" font-family="Helvetica,sans-Serif" font-size="10.00">stdlib.h</text>
</a>
</g>
</g>
<!-- Node1&#45;&gt;Node2 -->
<g id="edge1" class="edge">
<title>Node1&#45;&gt;Node2</title>
<path fill="none" stroke="midnightblue" d="M251.03,-168.41C228.3,-159.63 192.23,-145.4 161.5,-132 122.19,-114.86 77.41,-93.4 49.79,-79.94"/>
<polygon fill="midnightblue" stroke="midnightblue" points="51.3,-76.78 40.78,-75.54 48.23,-83.07 51.3,-76.78"/>
</g>
<!-- Node3 -->
<g id="node3" class="node">
<title>Node3</title>
<g id="a_node3"><a xlink:title=" ">
<polygon fill="none" stroke="#bfbfbf" points="536,-0.5 536,-19.5 581,-19.5 581,-0.5 536,-0.5"/>
<text text-anchor="middle" x="558.5" y="-7.5" font-family="Helvetica,sans-Serif" font-size="10.00">stdio.h</text>
</a>
</g>
</g>
<!-- Node1&#45;&gt;Node3 -->
<g id="edge2" class="edge">
<title>Node1&#45;&gt;Node3</title>
<path fill="none" stroke="midnightblue" d="M333.01,-176.75C405.13,-172.84 524,-154.07 580.5,-76 590.93,-61.59 581.71,-41.88 572.22,-27.95"/>
<polygon fill="midnightblue" stroke="midnightblue" points="574.9,-25.7 566.14,-19.75 569.28,-29.87 574.9,-25.7"/>
</g>
<!-- Node4 -->
<g id="node4" class="node">
<title>Node4</title>
<g id="a_node4"><a xlink:title=" ">
<polygon fill="none" stroke="#bfbfbf" points="629,-112.5 629,-131.5 680,-131.5 680,-112.5 629,-112.5"/>
<text text-anchor="middle" x="654.5" y="-119.5" font-family="Helvetica,sans-Serif" font-size="10.00">assert.h</text>
</a>
</g>
</g>
<!-- Node1&#45;&gt;Node4 -->
<g id="edge3" class="edge">
<title>Node1&#45;&gt;Node4</title>
<path fill="none" stroke="midnightblue" d="M333.2,-170.77C401.47,-163.27 516.47,-149.46 614.5,-132 615.95,-131.74 617.42,-131.47 618.9,-131.18"/>
<polygon fill="midnightblue" stroke="midnightblue" points="619.66,-134.6 628.75,-129.15 618.25,-127.74 619.66,-134.6"/>
</g>
<!-- Node5 -->
<g id="node5" class="node">
<title>Node5</title>
<g id="a_node5"><a xlink:title=" ">
<polygon fill="none" stroke="#bfbfbf" points="65.5,-56.5 65.5,-75.5 113.5,-75.5 113.5,-56.5 65.5,-56.5"/>
<text text-anchor="middle" x="89.5" y="-63.5" font-family="Helvetica,sans-Serif" font-size="10.00">string.h</text>
</a>
</g>
</g>
<!-- Node1&#45;&gt;Node5 -->
<g id="edge4" class="edge">
<title>Node1&#45;&gt;Node5</title>
<path fill="none" stroke="midnightblue" d="M259.06,-168.37C227.35,-149.41 151.39,-104 112.82,-80.94"/>
<polygon fill="midnightblue" stroke="midnightblue" points="114.25,-77.72 103.87,-75.59 110.66,-83.73 114.25,-77.72"/>
</g>
<!-- Node6 -->
<g id="node6" class="node">
<title>Node6</title>
<g id="a_node6"><a xlink:href="utils_8h.html" target="_top" xlink:title=" ">
<polygon fill="none" stroke="black" points="252.5,-112.5 252.5,-131.5 294.5,-131.5 294.5,-112.5 252.5,-112.5"/>
<text text-anchor="middle" x="273.5" y="-119.5" font-family="Helvetica,sans-Serif" font-size="10.00">utils.h</text>
</a>
</g>
</g>
<!-- Node1&#45;&gt;Node6 -->
<g id="edge5" class="edge">
<title>Node1&#45;&gt;Node6</title>
<path fill="none" stroke="midnightblue" d="M273.5,-168.08C273.5,-161.01 273.5,-150.86 273.5,-141.99"/>
<polygon fill="midnightblue" stroke="midnightblue" points="277,-141.75 273.5,-131.75 270,-141.75 277,-141.75"/>
</g>
<!-- Node6&#45;&gt;Node2 -->
<g id="edge6" class="edge">
<title>Node6&#45;&gt;Node2</title>
<path fill="none" stroke="midnightblue" d="M252.46,-117.08C215.18,-110.05 134.91,-94.48 57.2,-76.05"/>
<polygon fill="midnightblue" stroke="midnightblue" points="57.79,-72.59 47.25,-73.67 56.16,-79.4 57.79,-72.59"/>
</g>
<!-- Node6&#45;&gt;Node5 -->
<g id="edge7" class="edge">
<title>Node6&#45;&gt;Node5</title>
<path fill="none" stroke="midnightblue" d="M252.39,-114.81C220.9,-105.56 161.28,-88.07 123.57,-77"/>
<polygon fill="midnightblue" stroke="midnightblue" points="124.13,-73.52 113.55,-74.06 122.16,-80.23 124.13,-73.52"/>
</g>
<!-- Node7 -->
<g id="node7" class="node">
<title>Node7</title>
<g id="a_node7"><a xlink:title=" ">
<polygon fill="none" stroke="#bfbfbf" points="280,-56.5 280,-75.5 339,-75.5 339,-56.5 280,-56.5"/>
<text text-anchor="middle" x="309.5" y="-63.5" font-family="Helvetica,sans-Serif" font-size="10.00">curl/curl.h</text>
</a>
</g>
</g>
<!-- Node6&#45;&gt;Node7 -->
<g id="edge8" class="edge">
<title>Node6&#45;&gt;Node7</title>
<path fill="none" stroke="midnightblue" d="M279.44,-112.08C284.48,-104.53 291.84,-93.49 298.01,-84.23"/>
<polygon fill="midnightblue" stroke="midnightblue" points="301.03,-86.01 303.67,-75.75 295.21,-82.13 301.03,-86.01"/>
</g>
<!-- Node8 -->
<g id="node8" class="node">
<title>Node8</title>
<g id="a_node8"><a xlink:title=" ">
<polygon fill="none" stroke="#bfbfbf" points="412,-56.5 412,-75.5 495,-75.5 495,-56.5 412,-56.5"/>
<text text-anchor="middle" x="453.5" y="-63.5" font-family="Helvetica,sans-Serif" font-size="10.00">cjson/cJSON.h</text>
</a>
</g>
</g>
<!-- Node6&#45;&gt;Node8 -->
<g id="edge9" class="edge">
<title>Node6&#45;&gt;Node8</title>
<path fill="none" stroke="midnightblue" d="M294.5,-114.7C324,-105.85 378.22,-89.59 415.05,-78.53"/>
<polygon fill="midnightblue" stroke="midnightblue" points="416.37,-81.79 424.94,-75.57 414.36,-75.09 416.37,-81.79"/>
</g>
<!-- Node9 -->
<g id="node9" class="node">
<title>Node9</title>
<g id="a_node9"><a xlink:title=" ">
<polygon fill="none" stroke="#bfbfbf" points="513,-56.5 513,-75.5 572,-75.5 572,-56.5 513,-56.5"/>
<text text-anchor="middle" x="542.5" y="-63.5" font-family="Helvetica,sans-Serif" font-size="10.00">sys/stat.h</text>
</a>
</g>
</g>
<!-- Node6&#45;&gt;Node9 -->
<g id="edge10" class="edge">
<title>Node6&#45;&gt;Node9</title>
<path fill="none" stroke="midnightblue" d="M294.79,-117.08C333.9,-109.83 420,-93.63 502.89,-76.07"/>
<polygon fill="midnightblue" stroke="midnightblue" points="503.66,-79.49 512.71,-73.98 502.2,-72.64 503.66,-79.49"/>
</g>
<!-- Node10 -->
<g id="node10" class="node">
<title>Node10</title>
<g id="a_node10"><a xlink:title=" ">
<polygon fill="none" stroke="#bfbfbf" points="132,-56.5 132,-75.5 197,-75.5 197,-56.5 132,-56.5"/>
<text text-anchor="middle" x="164.5" y="-63.5" font-family="Helvetica,sans-Serif" font-size="10.00">sys/types.h</text>
</a>
</g>
</g>
<!-- Node6&#45;&gt;Node10 -->
<g id="edge11" class="edge">
<title>Node6&#45;&gt;Node10</title>
<path fill="none" stroke="midnightblue" d="M255.99,-112.32C238.43,-103.62 211.17,-90.12 190.97,-80.11"/>
<polygon fill="midnightblue" stroke="midnightblue" points="192.48,-76.96 181.97,-75.65 189.38,-83.23 192.48,-76.96"/>
</g>
<!-- Node11 -->
<g id="node11" class="node">
<title>Node11</title>
<g id="a_node11"><a xlink:title=" ">
<polygon fill="none" stroke="#bfbfbf" points="215.5,-56.5 215.5,-75.5 261.5,-75.5 261.5,-56.5 215.5,-56.5"/>
<text text-anchor="middle" x="238.5" y="-63.5" font-family="Helvetica,sans-Serif" font-size="10.00">errno.h</text>
</a>
</g>
</g>
<!-- Node6&#45;&gt;Node11 -->
<g id="edge12" class="edge">
<title>Node6&#45;&gt;Node11</title>
<path fill="none" stroke="midnightblue" d="M267.72,-112.08C262.83,-104.53 255.67,-93.49 249.67,-84.23"/>
<polygon fill="midnightblue" stroke="midnightblue" points="252.55,-82.24 244.17,-75.75 246.67,-86.05 252.55,-82.24"/>
</g>
<!-- Node12 -->
<g id="node12" class="node">
<title>Node12</title>
<g id="a_node12"><a xlink:href="log_8h.html" target="_top" xlink:title=" ">
<polygon fill="none" stroke="black" points="357,-56.5 357,-75.5 394,-75.5 394,-56.5 357,-56.5"/>
<text text-anchor="middle" x="375.5" y="-63.5" font-family="Helvetica,sans-Serif" font-size="10.00">log.h</text>
</a>
</g>
</g>
<!-- Node6&#45;&gt;Node12 -->
<g id="edge13" class="edge">
<title>Node6&#45;&gt;Node12</title>
<path fill="none" stroke="midnightblue" d="M289.89,-112.32C306.17,-103.7 331.37,-90.36 350.22,-80.39"/>
<polygon fill="midnightblue" stroke="midnightblue" points="351.95,-83.43 359.15,-75.65 348.68,-77.24 351.95,-83.43"/>
</g>
<!-- Node12&#45;&gt;Node3 -->
<g id="edge14" class="edge">
<title>Node12&#45;&gt;Node3</title>
<path fill="none" stroke="midnightblue" d="M394.06,-58.7C396.88,-57.78 399.76,-56.85 402.5,-56 444.94,-42.81 494.28,-28.8 525.92,-19.98"/>
<polygon fill="midnightblue" stroke="midnightblue" points="527.24,-23.25 535.94,-17.2 525.37,-16.5 527.24,-23.25"/>
</g>
<!-- Node13 -->
<g id="node13" class="node">
<title>Node13</title>
<g id="a_node13"><a xlink:title=" ">
<polygon fill="none" stroke="#bfbfbf" points="350,-0.5 350,-19.5 401,-19.5 401,-0.5 350,-0.5"/>
<text text-anchor="middle" x="375.5" y="-7.5" font-family="Helvetica,sans-Serif" font-size="10.00">stdarg.h</text>
</a>
</g>
</g>
<!-- Node12&#45;&gt;Node13 -->
<g id="edge15" class="edge">
<title>Node12&#45;&gt;Node13</title>
<path fill="none" stroke="midnightblue" d="M375.5,-56.08C375.5,-49.01 375.5,-38.86 375.5,-29.99"/>
<polygon fill="midnightblue" stroke="midnightblue" points="379,-29.75 375.5,-19.75 372,-29.75 379,-29.75"/>
</g>
<!-- Node14 -->
<g id="node14" class="node">
<title>Node14</title>
<g id="a_node14"><a xlink:title=" ">
<polygon fill="none" stroke="#bfbfbf" points="419.5,-0.5 419.5,-19.5 475.5,-19.5 475.5,-0.5 419.5,-0.5"/>
<text text-anchor="middle" x="447.5" y="-7.5" font-family="Helvetica,sans-Serif" font-size="10.00">stdbool.h</text>
</a>
</g>
</g>
<!-- Node12&#45;&gt;Node14 -->
<g id="edge16" class="edge">
<title>Node12&#45;&gt;Node14</title>
<path fill="none" stroke="midnightblue" d="M387.07,-56.32C397.92,-48.18 414.38,-35.84 427.38,-26.09"/>
<polygon fill="midnightblue" stroke="midnightblue" points="429.82,-28.63 435.72,-19.83 425.62,-23.03 429.82,-28.63"/>
</g>
<!-- Node15 -->
<g id="node15" class="node">
<title>Node15</title>
<g id="a_node15"><a xlink:title=" ">
<polygon fill="none" stroke="#bfbfbf" points="289,-0.5 289,-19.5 332,-19.5 332,-0.5 289,-0.5"/>
<text text-anchor="middle" x="310.5" y="-7.5" font-family="Helvetica,sans-Serif" font-size="10.00">time.h</text>
</a>
</g>
</g>
<!-- Node12&#45;&gt;Node15 -->
<g id="edge17" class="edge">
<title>Node12&#45;&gt;Node15</title>
<path fill="none" stroke="midnightblue" d="M365.06,-56.32C355.35,-48.26 340.68,-36.08 329,-26.37"/>
<polygon fill="midnightblue" stroke="midnightblue" points="331.06,-23.53 321.13,-19.83 326.59,-28.92 331.06,-23.53"/>
</g>
</g>
</svg>
