<?xml version="1.0" encoding="UTF-8" standalone="no"?>
<!DOCTYPE svg PUBLIC "-//W3C//DTD SVG 1.1//EN"
 "http://www.w3.org/Graphics/SVG/1.1/DTD/svg11.dtd">
<!-- Generated by graphviz version 2.49.3 (20211027.1534)
 -->
<!-- Title: include/BOM/stations.h Pages: 1 -->
<svg width="597pt" height="285pt"
 viewBox="0.00 0.00 597.48 285.00" xmlns="http://www.w3.org/2000/svg" xmlns:xlink="http://www.w3.org/1999/xlink">
<g id="graph0" class="graph" transform="scale(1 1) rotate(0) translate(4 281)">
<title>include/BOM/stations.h</title>
<!-- Node1 -->
<g id="node1" class="node">
<title>Node1</title>
<g id="a_node1"><a xlink:title=" ">
<polygon fill="#bfbfbf" stroke="black" points="219.48,-257.5 219.48,-276.5 337.48,-276.5 337.48,-257.5 219.48,-257.5"/>
<text text-anchor="middle" x="278.48" y="-264.5" font-family="Helvetica,sans-Serif" font-size="10.00">include/BOM/stations.h</text>
</a>
</g>
</g>
<!-- Node2 -->
<g id="node2" class="node">
<title>Node2</title>
<g id="a_node2"><a xlink:href="historical__weather_8h.html" target="_top" xlink:title=" ">
<polygon fill="none" stroke="black" points="82.98,-190.5 82.98,-220.5 197.98,-220.5 197.98,-190.5 82.98,-190.5"/>
<text text-anchor="start" x="90.98" y="-208.5" font-family="Helvetica,sans-Serif" font-size="10.00">include/BOM/historical</text>
<text text-anchor="middle" x="140.48" y="-197.5" font-family="Helvetica,sans-Serif" font-size="10.00">_weather.h</text>
</a>
</g>
</g>
<!-- Node1&#45;&gt;Node2 -->
<g id="edge1" class="edge">
<title>Node1&#45;&gt;Node2</title>
<path fill="none" stroke="midnightblue" d="M249.4,-253.46C227.05,-243.82 196.18,-230.51 173.01,-220.52"/>
<polygon fill="midnightblue" stroke="midnightblue" points="248.14,-256.73 258.71,-257.48 250.91,-250.3 248.14,-256.73"/>
</g>
<!-- Node3 -->
<g id="node3" class="node">
<title>Node3</title>
<g id="a_node3"><a xlink:href="main_8h.html" target="_top" xlink:title=" ">
<polygon fill="none" stroke="black" points="217.98,-62 217.98,-81 296.98,-81 296.98,-62 217.98,-62"/>
<text text-anchor="middle" x="257.48" y="-69" font-family="Helvetica,sans-Serif" font-size="10.00">include/main.h</text>
</a>
</g>
</g>
<!-- Node1&#45;&gt;Node3 -->
<g id="edge8" class="edge">
<title>Node1&#45;&gt;Node3</title>
<path fill="none" stroke="midnightblue" d="M209.32,-262.89C139.57,-255.37 37.72,-231.02 5.48,-154 0.16,-141.29 -3.25,-133.66 5.48,-123 31.89,-90.77 153.87,-78.69 217.94,-74.51"/>
<polygon fill="midnightblue" stroke="midnightblue" points="209.07,-266.38 219.37,-263.88 209.76,-259.42 209.07,-266.38"/>
</g>
<!-- Node6 -->
<g id="node6" class="node">
<title>Node6</title>
<g id="a_node6"><a xlink:href="harvest__areas_8h.html" target="_top" xlink:title=" ">
<polygon fill="none" stroke="black" points="470.48,-123.5 470.48,-153.5 580.48,-153.5 580.48,-123.5 470.48,-123.5"/>
<text text-anchor="start" x="478.48" y="-141.5" font-family="Helvetica,sans-Serif" font-size="10.00">include/FoodAuthority</text>
<text text-anchor="middle" x="525.48" y="-130.5" font-family="Helvetica,sans-Serif" font-size="10.00">/harvest_areas.h</text>
</a>
</g>
</g>
<!-- Node1&#45;&gt;Node6 -->
<g id="edge5" class="edge">
<title>Node1&#45;&gt;Node6</title>
<path fill="none" stroke="midnightblue" d="M297.93,-251.32C309.47,-242.57 324.36,-231.22 337.48,-221 354.95,-207.4 357.04,-200.6 376.48,-190 405.86,-173.98 441.24,-161.73 470.15,-153.31"/>
<polygon fill="midnightblue" stroke="midnightblue" points="295.71,-248.61 289.85,-257.44 299.93,-254.2 295.71,-248.61"/>
</g>
<!-- Node8 -->
<g id="node8" class="node">
<title>Node8</title>
<g id="a_node8"><a xlink:href="transform_8h.html" target="_top" xlink:title=" ">
<polygon fill="none" stroke="black" points="228.98,-196 228.98,-215 327.98,-215 327.98,-196 228.98,-196"/>
<text text-anchor="middle" x="278.48" y="-203" font-family="Helvetica,sans-Serif" font-size="10.00">include/transform.h</text>
</a>
</g>
</g>
<!-- Node1&#45;&gt;Node8 -->
<g id="edge9" class="edge">
<title>Node1&#45;&gt;Node8</title>
<path fill="none" stroke="midnightblue" d="M278.48,-247.32C278.48,-236.5 278.48,-223.4 278.48,-215.01"/>
<polygon fill="midnightblue" stroke="midnightblue" points="274.98,-247.48 278.48,-257.48 281.98,-247.48 274.98,-247.48"/>
</g>
<!-- Node12 -->
<g id="node12" class="node">
<title>Node12</title>
<g id="a_node12"><a xlink:href="stations_8c.html" target="_top" xlink:title=" ">
<polygon fill="none" stroke="black" points="384.98,-196 384.98,-215 485.98,-215 485.98,-196 384.98,-196"/>
<text text-anchor="middle" x="435.48" y="-203" font-family="Helvetica,sans-Serif" font-size="10.00">src/BOM/stations.c</text>
</a>
</g>
</g>
<!-- Node1&#45;&gt;Node12 -->
<g id="edge16" class="edge">
<title>Node1&#45;&gt;Node12</title>
<path fill="none" stroke="midnightblue" d="M310.72,-253.78C341.23,-242.22 386.23,-225.16 413.03,-215.01"/>
<polygon fill="midnightblue" stroke="midnightblue" points="309.09,-250.66 300.98,-257.48 311.57,-257.2 309.09,-250.66"/>
</g>
<!-- Node2&#45;&gt;Node3 -->
<g id="edge2" class="edge">
<title>Node2&#45;&gt;Node3</title>
<path fill="none" stroke="midnightblue" d="M140.87,-180.25C142.32,-162.71 146.76,-139.32 159.48,-123 176.07,-101.71 204.12,-88.56 225.97,-81.03"/>
<polygon fill="midnightblue" stroke="midnightblue" points="137.37,-180.12 140.32,-190.3 144.36,-180.51 137.37,-180.12"/>
</g>
<!-- Node5 -->
<g id="node5" class="node">
<title>Node5</title>
<g id="a_node5"><a xlink:href="historical__weather_8c.html" target="_top" xlink:title=" ">
<polygon fill="none" stroke="black" points="14.48,-123.5 14.48,-153.5 112.48,-153.5 112.48,-123.5 14.48,-123.5"/>
<text text-anchor="start" x="22.48" y="-141.5" font-family="Helvetica,sans-Serif" font-size="10.00">src/BOM/historical</text>
<text text-anchor="middle" x="63.48" y="-130.5" font-family="Helvetica,sans-Serif" font-size="10.00">_weather.c</text>
</a>
</g>
</g>
<!-- Node2&#45;&gt;Node5 -->
<g id="edge4" class="edge">
<title>Node2&#45;&gt;Node5</title>
<path fill="none" stroke="midnightblue" d="M116.06,-183.88C104.36,-174.01 90.65,-162.43 80.16,-153.58"/>
<polygon fill="midnightblue" stroke="midnightblue" points="113.88,-186.62 123.78,-190.4 118.39,-181.27 113.88,-186.62"/>
</g>
<!-- Node4 -->
<g id="node4" class="node">
<title>Node4</title>
<g id="a_node4"><a xlink:href="main_8c.html" target="_top" xlink:title=" ">
<polygon fill="none" stroke="black" points="226.48,-0.5 226.48,-19.5 288.48,-19.5 288.48,-0.5 226.48,-0.5"/>
<text text-anchor="middle" x="257.48" y="-7.5" font-family="Helvetica,sans-Serif" font-size="10.00">src/main.c</text>
</a>
</g>
</g>
<!-- Node3&#45;&gt;Node4 -->
<g id="edge3" class="edge">
<title>Node3&#45;&gt;Node4</title>
<path fill="none" stroke="midnightblue" d="M257.48,-51.82C257.48,-41 257.48,-27.9 257.48,-19.51"/>
<polygon fill="midnightblue" stroke="midnightblue" points="253.98,-51.98 257.48,-61.98 260.98,-51.98 253.98,-51.98"/>
</g>
<!-- Node6&#45;&gt;Node3 -->
<g id="edge6" class="edge">
<title>Node6&#45;&gt;Node3</title>
<path fill="none" stroke="midnightblue" d="M460.44,-122.71C401.42,-109.26 321.4,-90.92 306.48,-87 299.53,-85.17 292.08,-83.05 285.13,-81"/>
<polygon fill="midnightblue" stroke="midnightblue" points="459.93,-126.19 470.46,-125 461.49,-119.36 459.93,-126.19"/>
</g>
<!-- Node7 -->
<g id="node7" class="node">
<title>Node7</title>
<g id="a_node7"><a xlink:href="harvest__areas_8c.html" target="_top" xlink:title=" ">
<polygon fill="none" stroke="black" points="461.48,-56.5 461.48,-86.5 589.48,-86.5 589.48,-56.5 461.48,-56.5"/>
<text text-anchor="start" x="469.48" y="-74.5" font-family="Helvetica,sans-Serif" font-size="10.00">src/FoodAuthority/harvest</text>
<text text-anchor="middle" x="525.48" y="-63.5" font-family="Helvetica,sans-Serif" font-size="10.00">_areas.c</text>
</a>
</g>
</g>
<!-- Node6&#45;&gt;Node7 -->
<g id="edge7" class="edge">
<title>Node6&#45;&gt;Node7</title>
<path fill="none" stroke="midnightblue" d="M525.48,-113.11C525.48,-104.15 525.48,-94.32 525.48,-86.58"/>
<polygon fill="midnightblue" stroke="midnightblue" points="521.98,-113.4 525.48,-123.4 528.98,-113.4 521.98,-113.4"/>
</g>
<!-- Node8&#45;&gt;Node3 -->
<g id="edge14" class="edge">
<title>Node8&#45;&gt;Node3</title>
<path fill="none" stroke="midnightblue" d="M275.5,-185.78C270.89,-156.75 262.18,-102.04 258.84,-81.02"/>
<polygon fill="midnightblue" stroke="midnightblue" points="272.08,-186.51 277.11,-195.84 278.99,-185.41 272.08,-186.51"/>
</g>
<!-- Node8&#45;&gt;Node6 -->
<g id="edge10" class="edge">
<title>Node8&#45;&gt;Node6</title>
<path fill="none" stroke="midnightblue" d="M320.9,-193.34C362.72,-182.33 426.78,-165.47 472.06,-153.56"/>
<polygon fill="midnightblue" stroke="midnightblue" points="319.81,-190.01 311.03,-195.94 321.59,-196.78 319.81,-190.01"/>
</g>
<!-- Node9 -->
<g id="node9" class="node">
<title>Node9</title>
<g id="a_node9"><a xlink:href="timeseries_8h.html" target="_top" xlink:title=" ">
<polygon fill="none" stroke="black" points="306.98,-129 306.98,-148 451.98,-148 451.98,-129 306.98,-129"/>
<text text-anchor="middle" x="379.48" y="-136" font-family="Helvetica,sans-Serif" font-size="10.00">include/IBM_EIS/timeseries.h</text>
</a>
</g>
</g>
<!-- Node8&#45;&gt;Node9 -->
<g id="edge11" class="edge">
<title>Node8&#45;&gt;Node9</title>
<path fill="none" stroke="midnightblue" d="M300.6,-190.27C320.59,-177.4 349.37,-158.88 366.08,-148.13"/>
<polygon fill="midnightblue" stroke="midnightblue" points="298.62,-187.38 292.1,-195.73 302.41,-193.27 298.62,-187.38"/>
</g>
<!-- Node11 -->
<g id="node11" class="node">
<title>Node11</title>
<g id="a_node11"><a xlink:href="transform_8c.html" target="_top" xlink:title=" ">
<polygon fill="none" stroke="black" points="168.48,-129 168.48,-148 250.48,-148 250.48,-129 168.48,-129"/>
<text text-anchor="middle" x="209.48" y="-136" font-family="Helvetica,sans-Serif" font-size="10.00">src/transform.c</text>
</a>
</g>
</g>
<!-- Node8&#45;&gt;Node11 -->
<g id="edge15" class="edge">
<title>Node8&#45;&gt;Node11</title>
<path fill="none" stroke="midnightblue" d="M261.88,-188.86C248.31,-176.08 229.64,-158.49 218.64,-148.13"/>
<polygon fill="midnightblue" stroke="midnightblue" points="259.5,-191.42 269.18,-195.73 264.3,-186.33 259.5,-191.42"/>
</g>
<!-- Node9&#45;&gt;Node3 -->
<g id="edge12" class="edge">
<title>Node9&#45;&gt;Node3</title>
<path fill="none" stroke="midnightblue" d="M354.34,-124.1C330.18,-111.23 294.38,-92.16 273.75,-81.17"/>
<polygon fill="midnightblue" stroke="midnightblue" points="352.81,-127.26 363.28,-128.87 356.1,-121.08 352.81,-127.26"/>
</g>
<!-- Node10 -->
<g id="node10" class="node">
<title>Node10</title>
<g id="a_node10"><a xlink:href="timeseries_8c.html" target="_top" xlink:title=" ">
<polygon fill="none" stroke="black" points="315.48,-62 315.48,-81 443.48,-81 443.48,-62 315.48,-62"/>
<text text-anchor="middle" x="379.48" y="-69" font-family="Helvetica,sans-Serif" font-size="10.00">src/IBM_EIS/timeseries.c</text>
</a>
</g>
</g>
<!-- Node9&#45;&gt;Node10 -->
<g id="edge13" class="edge">
<title>Node9&#45;&gt;Node10</title>
<path fill="none" stroke="midnightblue" d="M379.48,-118.54C379.48,-106.17 379.48,-90.62 379.48,-81.13"/>
<polygon fill="midnightblue" stroke="midnightblue" points="375.98,-118.73 379.48,-128.73 382.98,-118.73 375.98,-118.73"/>
</g>
</g>
</svg>
