<?xml version="1.0" encoding="UTF-8" standalone="no"?>
<!DOCTYPE svg PUBLIC "-//W3C//DTD SVG 1.1//EN"
 "http://www.w3.org/Graphics/SVG/1.1/DTD/svg11.dtd">
<!-- Generated by graphviz version 2.49.3 (20211027.1534)
 -->
<!-- Title: src/BOM/stations.c Pages: 1 -->
<svg width="754pt" height="308pt"
 viewBox="0.00 0.00 753.50 308.00" xmlns="http://www.w3.org/2000/svg" xmlns:xlink="http://www.w3.org/1999/xlink">
<g id="graph0" class="graph" transform="scale(1 1) rotate(0) translate(4 304)">
<title>src/BOM/stations.c</title>
<!-- Node1 -->
<g id="node1" class="node">
<title>Node1</title>
<g id="a_node1"><a xlink:title=" ">
<polygon fill="#bfbfbf" stroke="black" points="198.5,-280.5 198.5,-299.5 299.5,-299.5 299.5,-280.5 198.5,-280.5"/>
<text text-anchor="middle" x="249" y="-287.5" font-family="Helvetica,sans-Serif" font-size="10.00">src/BOM/stations.c</text>
</a>
</g>
</g>
<!-- Node2 -->
<g id="node2" class="node">
<title>Node2</title>
<g id="a_node2"><a xlink:href="stations_8h.html" target="_top" xlink:title=" ">
<polygon fill="none" stroke="black" points="207,-224.5 207,-243.5 291,-243.5 291,-224.5 207,-224.5"/>
<text text-anchor="middle" x="249" y="-231.5" font-family="Helvetica,sans-Serif" font-size="10.00">BOM/stations.h</text>
</a>
</g>
</g>
<!-- Node1&#45;&gt;Node2 -->
<g id="edge1" class="edge">
<title>Node1&#45;&gt;Node2</title>
<path fill="none" stroke="midnightblue" d="M249,-280.08C249,-273.01 249,-262.86 249,-253.99"/>
<polygon fill="midnightblue" stroke="midnightblue" points="252.5,-253.75 249,-243.75 245.5,-253.75 252.5,-253.75"/>
</g>
<!-- Node3 -->
<g id="node3" class="node">
<title>Node3</title>
<g id="a_node3"><a xlink:title=" ">
<polygon fill="none" stroke="#bfbfbf" points="0,-56.5 0,-75.5 46,-75.5 46,-56.5 0,-56.5"/>
<text text-anchor="middle" x="23" y="-63.5" font-family="Helvetica,sans-Serif" font-size="10.00">math.h</text>
</a>
</g>
</g>
<!-- Node2&#45;&gt;Node3 -->
<g id="edge2" class="edge">
<title>Node2&#45;&gt;Node3</title>
<path fill="none" stroke="midnightblue" d="M237.17,-224.31C200.55,-197.42 88.83,-115.35 42.97,-81.67"/>
<polygon fill="midnightblue" stroke="midnightblue" points="44.85,-78.7 34.72,-75.61 40.7,-84.35 44.85,-78.7"/>
</g>
<!-- Node4 -->
<g id="node4" class="node">
<title>Node4</title>
<g id="a_node4"><a xlink:title=" ">
<polygon fill="none" stroke="#bfbfbf" points="300.5,-168.5 300.5,-187.5 347.5,-187.5 347.5,-168.5 300.5,-168.5"/>
<text text-anchor="middle" x="324" y="-175.5" font-family="Helvetica,sans-Serif" font-size="10.00">ctype.h</text>
</a>
</g>
</g>
<!-- Node2&#45;&gt;Node4 -->
<g id="edge3" class="edge">
<title>Node2&#45;&gt;Node4</title>
<path fill="none" stroke="midnightblue" d="M261.05,-224.32C272.46,-216.11 289.83,-203.6 303.43,-193.81"/>
<polygon fill="midnightblue" stroke="midnightblue" points="305.66,-196.52 311.73,-187.83 301.57,-190.84 305.66,-196.52"/>
</g>
<!-- Node5 -->
<g id="node5" class="node">
<title>Node5</title>
<g id="a_node5"><a xlink:href="ftp_8h.html" target="_top" xlink:title=" ">
<polygon fill="none" stroke="black" points="208.5,-168.5 208.5,-187.5 243.5,-187.5 243.5,-168.5 208.5,-168.5"/>
<text text-anchor="middle" x="226" y="-175.5" font-family="Helvetica,sans-Serif" font-size="10.00">ftp.h</text>
</a>
</g>
</g>
<!-- Node2&#45;&gt;Node5 -->
<g id="edge4" class="edge">
<title>Node2&#45;&gt;Node5</title>
<path fill="none" stroke="midnightblue" d="M245.2,-224.08C242.09,-216.77 237.58,-206.18 233.71,-197.1"/>
<polygon fill="midnightblue" stroke="midnightblue" points="236.87,-195.58 229.73,-187.75 230.43,-198.32 236.87,-195.58"/>
</g>
<!-- Node10 -->
<g id="node10" class="node">
<title>Node10</title>
<g id="a_node10"><a xlink:href="utils_8h.html" target="_top" xlink:title=" ">
<polygon fill="none" stroke="black" points="265,-112.5 265,-131.5 307,-131.5 307,-112.5 265,-112.5"/>
<text text-anchor="middle" x="286" y="-119.5" font-family="Helvetica,sans-Serif" font-size="10.00">utils.h</text>
</a>
</g>
</g>
<!-- Node2&#45;&gt;Node10 -->
<g id="edge24" class="edge">
<title>Node2&#45;&gt;Node10</title>
<path fill="none" stroke="midnightblue" d="M251.9,-224.37C257.9,-206.54 271.77,-165.3 279.85,-141.27"/>
<polygon fill="midnightblue" stroke="midnightblue" points="283.24,-142.19 283.11,-131.59 276.6,-139.95 283.24,-142.19"/>
</g>
<!-- Node6 -->
<g id="node6" class="node">
<title>Node6</title>
<g id="a_node6"><a xlink:title=" ">
<polygon fill="none" stroke="#bfbfbf" points="64.5,-56.5 64.5,-75.5 111.5,-75.5 111.5,-56.5 64.5,-56.5"/>
<text text-anchor="middle" x="88" y="-63.5" font-family="Helvetica,sans-Serif" font-size="10.00">stdlib.h</text>
</a>
</g>
</g>
<!-- Node5&#45;&gt;Node6 -->
<g id="edge5" class="edge">
<title>Node5&#45;&gt;Node6</title>
<path fill="none" stroke="midnightblue" d="M215.17,-168.37C191.69,-149.65 135.86,-105.15 106.61,-81.83"/>
<polygon fill="midnightblue" stroke="midnightblue" points="108.78,-79.09 98.78,-75.59 104.42,-84.56 108.78,-79.09"/>
</g>
<!-- Node7 -->
<g id="node7" class="node">
<title>Node7</title>
<g id="a_node7"><a xlink:title=" ">
<polygon fill="none" stroke="#bfbfbf" points="130,-56.5 130,-75.5 178,-75.5 178,-56.5 130,-56.5"/>
<text text-anchor="middle" x="154" y="-63.5" font-family="Helvetica,sans-Serif" font-size="10.00">string.h</text>
</a>
</g>
</g>
<!-- Node5&#45;&gt;Node7 -->
<g id="edge6" class="edge">
<title>Node5&#45;&gt;Node7</title>
<path fill="none" stroke="midnightblue" d="M220.35,-168.37C208.47,-150.22 180.71,-107.8 165.12,-83.99"/>
<polygon fill="midnightblue" stroke="midnightblue" points="168.03,-82.04 159.62,-75.59 162.17,-85.88 168.03,-82.04"/>
</g>
<!-- Node8 -->
<g id="node8" class="node">
<title>Node8</title>
<g id="a_node8"><a xlink:title=" ">
<polygon fill="none" stroke="#bfbfbf" points="196.5,-56.5 196.5,-75.5 255.5,-75.5 255.5,-56.5 196.5,-56.5"/>
<text text-anchor="middle" x="226" y="-63.5" font-family="Helvetica,sans-Serif" font-size="10.00">curl/curl.h</text>
</a>
</g>
</g>
<!-- Node5&#45;&gt;Node8 -->
<g id="edge7" class="edge">
<title>Node5&#45;&gt;Node8</title>
<path fill="none" stroke="midnightblue" d="M226,-168.37C226,-150.62 226,-109.67 226,-85.6"/>
<polygon fill="midnightblue" stroke="midnightblue" points="229.5,-85.59 226,-75.59 222.5,-85.59 229.5,-85.59"/>
</g>
<!-- Node9 -->
<g id="node9" class="node">
<title>Node9</title>
<g id="a_node9"><a xlink:title=" ">
<polygon fill="none" stroke="#bfbfbf" points="657,-56.5 657,-75.5 703,-75.5 703,-56.5 657,-56.5"/>
<text text-anchor="middle" x="680" y="-63.5" font-family="Helvetica,sans-Serif" font-size="10.00">errno.h</text>
</a>
</g>
</g>
<!-- Node5&#45;&gt;Node9 -->
<g id="edge8" class="edge">
<title>Node5&#45;&gt;Node9</title>
<path fill="none" stroke="midnightblue" d="M243.7,-172.96C301.68,-159.68 491.18,-115.93 647,-76 647.1,-75.97 647.2,-75.95 647.3,-75.92"/>
<polygon fill="midnightblue" stroke="midnightblue" points="648.17,-79.31 656.95,-73.38 646.38,-72.55 648.17,-79.31"/>
</g>
<!-- Node5&#45;&gt;Node10 -->
<g id="edge9" class="edge">
<title>Node5&#45;&gt;Node10</title>
<path fill="none" stroke="midnightblue" d="M235.64,-168.32C244.51,-160.34 257.87,-148.31 268.61,-138.65"/>
<polygon fill="midnightblue" stroke="midnightblue" points="271.09,-141.13 276.18,-131.83 266.41,-135.92 271.09,-141.13"/>
</g>
<!-- Node10&#45;&gt;Node3 -->
<g id="edge18" class="edge">
<title>Node10&#45;&gt;Node3</title>
<path fill="none" stroke="midnightblue" d="M264.86,-117.48C225.61,-110.81 138.68,-95.46 55.83,-76.04"/>
<polygon fill="midnightblue" stroke="midnightblue" points="56.55,-72.61 46.01,-73.72 54.94,-79.43 56.55,-72.61"/>
</g>
<!-- Node10&#45;&gt;Node6 -->
<g id="edge10" class="edge">
<title>Node10&#45;&gt;Node6</title>
<path fill="none" stroke="midnightblue" d="M264.81,-115.22C230.51,-105.87 162.53,-87.33 121.58,-76.16"/>
<polygon fill="midnightblue" stroke="midnightblue" points="122.36,-72.74 111.79,-73.49 120.52,-79.5 122.36,-72.74"/>
</g>
<!-- Node10&#45;&gt;Node7 -->
<g id="edge11" class="edge">
<title>Node10&#45;&gt;Node7</title>
<path fill="none" stroke="midnightblue" d="M265.08,-112.44C243.26,-103.52 208.85,-89.44 184.11,-79.32"/>
<polygon fill="midnightblue" stroke="midnightblue" points="185.4,-76.06 174.82,-75.52 182.75,-82.54 185.4,-76.06"/>
</g>
<!-- Node10&#45;&gt;Node8 -->
<g id="edge12" class="edge">
<title>Node10&#45;&gt;Node8</title>
<path fill="none" stroke="midnightblue" d="M276.36,-112.32C267.49,-104.34 254.13,-92.31 243.39,-82.65"/>
<polygon fill="midnightblue" stroke="midnightblue" points="245.59,-79.92 235.82,-75.83 240.91,-85.13 245.59,-79.92"/>
</g>
<!-- Node10&#45;&gt;Node9 -->
<g id="edge17" class="edge">
<title>Node10&#45;&gt;Node9</title>
<path fill="none" stroke="midnightblue" d="M307.33,-119.41C362.02,-115.1 511.81,-101.89 646.57,-75.79"/>
<polygon fill="midnightblue" stroke="midnightblue" points="647.53,-79.17 656.66,-73.81 646.17,-72.3 647.53,-79.17"/>
</g>
<!-- Node11 -->
<g id="node11" class="node">
<title>Node11</title>
<g id="a_node11"><a xlink:title=" ">
<polygon fill="none" stroke="#bfbfbf" points="274,-56.5 274,-75.5 322,-75.5 322,-56.5 274,-56.5"/>
<text text-anchor="middle" x="298" y="-63.5" font-family="Helvetica,sans-Serif" font-size="10.00">stdint.h</text>
</a>
</g>
</g>
<!-- Node10&#45;&gt;Node11 -->
<g id="edge13" class="edge">
<title>Node10&#45;&gt;Node11</title>
<path fill="none" stroke="midnightblue" d="M287.98,-112.08C289.57,-104.93 291.86,-94.64 293.85,-85.69"/>
<polygon fill="midnightblue" stroke="midnightblue" points="297.3,-86.27 296.06,-75.75 290.47,-84.75 297.3,-86.27"/>
</g>
<!-- Node12 -->
<g id="node12" class="node">
<title>Node12</title>
<g id="a_node12"><a xlink:title=" ">
<polygon fill="none" stroke="#bfbfbf" points="340.5,-56.5 340.5,-75.5 423.5,-75.5 423.5,-56.5 340.5,-56.5"/>
<text text-anchor="middle" x="382" y="-63.5" font-family="Helvetica,sans-Serif" font-size="10.00">cjson/cJSON.h</text>
</a>
</g>
</g>
<!-- Node10&#45;&gt;Node12 -->
<g id="edge14" class="edge">
<title>Node10&#45;&gt;Node12</title>
<path fill="none" stroke="midnightblue" d="M301.42,-112.32C316.54,-103.82 339.82,-90.73 357.47,-80.8"/>
<polygon fill="midnightblue" stroke="midnightblue" points="359.61,-83.61 366.61,-75.65 356.18,-77.51 359.61,-83.61"/>
</g>
<!-- Node13 -->
<g id="node13" class="node">
<title>Node13</title>
<g id="a_node13"><a xlink:title=" ">
<polygon fill="none" stroke="#bfbfbf" points="441.5,-56.5 441.5,-75.5 500.5,-75.5 500.5,-56.5 441.5,-56.5"/>
<text text-anchor="middle" x="471" y="-63.5" font-family="Helvetica,sans-Serif" font-size="10.00">sys/stat.h</text>
</a>
</g>
</g>
<!-- Node10&#45;&gt;Node13 -->
<g id="edge15" class="edge">
<title>Node10&#45;&gt;Node13</title>
<path fill="none" stroke="midnightblue" d="M307.22,-114.81C337.63,-105.93 394.11,-89.44 432.12,-78.35"/>
<polygon fill="midnightblue" stroke="midnightblue" points="433.22,-81.67 441.84,-75.51 431.26,-74.95 433.22,-81.67"/>
</g>
<!-- Node14 -->
<g id="node14" class="node">
<title>Node14</title>
<g id="a_node14"><a xlink:title=" ">
<polygon fill="none" stroke="#bfbfbf" points="518.5,-56.5 518.5,-75.5 583.5,-75.5 583.5,-56.5 518.5,-56.5"/>
<text text-anchor="middle" x="551" y="-63.5" font-family="Helvetica,sans-Serif" font-size="10.00">sys/types.h</text>
</a>
</g>
</g>
<!-- Node10&#45;&gt;Node14 -->
<g id="edge16" class="edge">
<title>Node10&#45;&gt;Node14</title>
<path fill="none" stroke="midnightblue" d="M307.23,-116.8C345.35,-109.25 428.15,-92.76 508.65,-76.05"/>
<polygon fill="midnightblue" stroke="midnightblue" points="509.37,-79.48 518.45,-74.02 507.95,-72.62 509.37,-79.48"/>
</g>
<!-- Node15 -->
<g id="node15" class="node">
<title>Node15</title>
<g id="a_node15"><a xlink:href="log_8h.html" target="_top" xlink:title=" ">
<polygon fill="none" stroke="black" points="601.5,-56.5 601.5,-75.5 638.5,-75.5 638.5,-56.5 601.5,-56.5"/>
<text text-anchor="middle" x="620" y="-63.5" font-family="Helvetica,sans-Serif" font-size="10.00">log.h</text>
</a>
</g>
</g>
<!-- Node10&#45;&gt;Node15 -->
<g id="edge19" class="edge">
<title>Node10&#45;&gt;Node15</title>
<path fill="none" stroke="midnightblue" d="M307.37,-119.08C356.13,-114.45 479.37,-101.28 591.66,-75.7"/>
<polygon fill="midnightblue" stroke="midnightblue" points="592.49,-79.1 601.44,-73.44 590.91,-72.28 592.49,-79.1"/>
</g>
<!-- Node16 -->
<g id="node16" class="node">
<title>Node16</title>
<g id="a_node16"><a xlink:title=" ">
<polygon fill="none" stroke="#bfbfbf" points="495.5,-0.5 495.5,-19.5 540.5,-19.5 540.5,-0.5 495.5,-0.5"/>
<text text-anchor="middle" x="518" y="-7.5" font-family="Helvetica,sans-Serif" font-size="10.00">stdio.h</text>
</a>
</g>
</g>
<!-- Node15&#45;&gt;Node16 -->
<g id="edge20" class="edge">
<title>Node15&#45;&gt;Node16</title>
<path fill="none" stroke="midnightblue" d="M603.61,-56.32C587.33,-47.7 562.13,-34.36 543.28,-24.39"/>
<polygon fill="midnightblue" stroke="midnightblue" points="544.82,-21.24 534.35,-19.65 541.55,-27.43 544.82,-21.24"/>
</g>
<!-- Node17 -->
<g id="node17" class="node">
<title>Node17</title>
<g id="a_node17"><a xlink:title=" ">
<polygon fill="none" stroke="#bfbfbf" points="558.5,-0.5 558.5,-19.5 609.5,-19.5 609.5,-0.5 558.5,-0.5"/>
<text text-anchor="middle" x="584" y="-7.5" font-family="Helvetica,sans-Serif" font-size="10.00">stdarg.h</text>
</a>
</g>
</g>
<!-- Node15&#45;&gt;Node17 -->
<g id="edge21" class="edge">
<title>Node15&#45;&gt;Node17</title>
<path fill="none" stroke="midnightblue" d="M614.06,-56.08C609.02,-48.53 601.66,-37.49 595.49,-28.23"/>
<polygon fill="midnightblue" stroke="midnightblue" points="598.29,-26.13 589.83,-19.75 592.47,-30.01 598.29,-26.13"/>
</g>
<!-- Node18 -->
<g id="node18" class="node">
<title>Node18</title>
<g id="a_node18"><a xlink:title=" ">
<polygon fill="none" stroke="#bfbfbf" points="628,-0.5 628,-19.5 684,-19.5 684,-0.5 628,-0.5"/>
<text text-anchor="middle" x="656" y="-7.5" font-family="Helvetica,sans-Serif" font-size="10.00">stdbool.h</text>
</a>
</g>
</g>
<!-- Node15&#45;&gt;Node18 -->
<g id="edge22" class="edge">
<title>Node15&#45;&gt;Node18</title>
<path fill="none" stroke="midnightblue" d="M625.94,-56.08C630.98,-48.53 638.34,-37.49 644.51,-28.23"/>
<polygon fill="midnightblue" stroke="midnightblue" points="647.53,-30.01 650.17,-19.75 641.71,-26.13 647.53,-30.01"/>
</g>
<!-- Node19 -->
<g id="node19" class="node">
<title>Node19</title>
<g id="a_node19"><a xlink:title=" ">
<polygon fill="none" stroke="#bfbfbf" points="702.5,-0.5 702.5,-19.5 745.5,-19.5 745.5,-0.5 702.5,-0.5"/>
<text text-anchor="middle" x="724" y="-7.5" font-family="Helvetica,sans-Serif" font-size="10.00">time.h</text>
</a>
</g>
</g>
<!-- Node15&#45;&gt;Node19 -->
<g id="edge23" class="edge">
<title>Node15&#45;&gt;Node19</title>
<path fill="none" stroke="midnightblue" d="M636.71,-56.32C653.31,-47.7 679,-34.36 698.22,-24.39"/>
<polygon fill="midnightblue" stroke="midnightblue" points="700.07,-27.37 707.33,-19.65 696.84,-21.16 700.07,-27.37"/>
</g>
</g>
</svg>
