<?xml version="1.0" encoding="UTF-8" standalone="no"?>
<!DOCTYPE svg PUBLIC "-//W3C//DTD SVG 1.1//EN"
 "http://www.w3.org/Graphics/SVG/1.1/DTD/svg11.dtd">
<!-- Generated by graphviz version 2.49.3 (20211027.1534)
 -->
<!-- Title: src/BOM/stations.c Pages: 1 -->
<svg width="622pt" height="308pt"
 viewBox="0.00 0.00 622.00 308.00" xmlns="http://www.w3.org/2000/svg" xmlns:xlink="http://www.w3.org/1999/xlink">
<g id="graph0" class="graph" transform="scale(1 1) rotate(0) translate(4 304)">
<title>src/BOM/stations.c</title>
<!-- Node1 -->
<g id="node1" class="node">
<title>Node1</title>
<g id="a_node1"><a xlink:title=" ">
<polygon fill="#bfbfbf" stroke="black" points="97,-280.5 97,-299.5 198,-299.5 198,-280.5 97,-280.5"/>
<text text-anchor="middle" x="147.5" y="-287.5" font-family="Helvetica,sans-Serif" font-size="10.00">src/BOM/stations.c</text>
</a>
</g>
</g>
<!-- Node2 -->
<g id="node2" class="node">
<title>Node2</title>
<g id="a_node2"><a xlink:href="stations_8h.html" target="_top" xlink:title=" ">
<polygon fill="none" stroke="black" points="105.5,-224.5 105.5,-243.5 189.5,-243.5 189.5,-224.5 105.5,-224.5"/>
<text text-anchor="middle" x="147.5" y="-231.5" font-family="Helvetica,sans-Serif" font-size="10.00">BOM/stations.h</text>
</a>
</g>
</g>
<!-- Node1&#45;&gt;Node2 -->
<g id="edge1" class="edge">
<title>Node1&#45;&gt;Node2</title>
<path fill="none" stroke="midnightblue" d="M147.5,-280.08C147.5,-273.01 147.5,-262.86 147.5,-253.99"/>
<polygon fill="midnightblue" stroke="midnightblue" points="151,-253.75 147.5,-243.75 144,-253.75 151,-253.75"/>
</g>
<!-- Node3 -->
<g id="node3" class="node">
<title>Node3</title>
<g id="a_node3"><a xlink:title=" ">
<polygon fill="none" stroke="#bfbfbf" points="30.5,-168.5 30.5,-187.5 76.5,-187.5 76.5,-168.5 30.5,-168.5"/>
<text text-anchor="middle" x="53.5" y="-175.5" font-family="Helvetica,sans-Serif" font-size="10.00">math.h</text>
</a>
</g>
</g>
<!-- Node2&#45;&gt;Node3 -->
<g id="edge2" class="edge">
<title>Node2&#45;&gt;Node3</title>
<path fill="none" stroke="midnightblue" d="M132.4,-224.32C117.6,-215.82 94.81,-202.73 77.52,-192.8"/>
<polygon fill="midnightblue" stroke="midnightblue" points="78.98,-189.6 68.57,-187.65 75.49,-195.67 78.98,-189.6"/>
</g>
<!-- Node4 -->
<g id="node4" class="node">
<title>Node4</title>
<g id="a_node4"><a xlink:title=" ">
<polygon fill="none" stroke="#bfbfbf" points="95,-168.5 95,-187.5 142,-187.5 142,-168.5 95,-168.5"/>
<text text-anchor="middle" x="118.5" y="-175.5" font-family="Helvetica,sans-Serif" font-size="10.00">ctype.h</text>
</a>
</g>
</g>
<!-- Node2&#45;&gt;Node4 -->
<g id="edge3" class="edge">
<title>Node2&#45;&gt;Node4</title>
<path fill="none" stroke="midnightblue" d="M142.71,-224.08C138.74,-216.69 132.97,-205.95 128.07,-196.81"/>
<polygon fill="midnightblue" stroke="midnightblue" points="131.01,-194.91 123.2,-187.75 124.85,-198.22 131.01,-194.91"/>
</g>
<!-- Node5 -->
<g id="node5" class="node">
<title>Node5</title>
<g id="a_node5"><a xlink:href="ftp_8h.html" target="_top" xlink:title=" ">
<polygon fill="none" stroke="black" points="160,-168.5 160,-187.5 195,-187.5 195,-168.5 160,-168.5"/>
<text text-anchor="middle" x="177.5" y="-175.5" font-family="Helvetica,sans-Serif" font-size="10.00">ftp.h</text>
</a>
</g>
</g>
<!-- Node2&#45;&gt;Node5 -->
<g id="edge4" class="edge">
<title>Node2&#45;&gt;Node5</title>
<path fill="none" stroke="midnightblue" d="M152.45,-224.08C156.6,-216.61 162.65,-205.72 167.77,-196.52"/>
<polygon fill="midnightblue" stroke="midnightblue" points="170.84,-198.19 172.64,-187.75 164.72,-194.79 170.84,-198.19"/>
</g>
<!-- Node10 -->
<g id="node10" class="node">
<title>Node10</title>
<g id="a_node10"><a xlink:href="utils_8h.html" target="_top" xlink:title=" ">
<polygon fill="none" stroke="black" points="219.5,-112.5 219.5,-131.5 261.5,-131.5 261.5,-112.5 219.5,-112.5"/>
<text text-anchor="middle" x="240.5" y="-119.5" font-family="Helvetica,sans-Serif" font-size="10.00">utils.h</text>
</a>
</g>
</g>
<!-- Node2&#45;&gt;Node10 -->
<g id="edge22" class="edge">
<title>Node2&#45;&gt;Node10</title>
<path fill="none" stroke="midnightblue" d="M161.15,-224.22C173.31,-215.93 191.04,-202.62 203.5,-188 215.71,-173.67 225.96,-154.71 232.56,-140.97"/>
<polygon fill="midnightblue" stroke="midnightblue" points="235.85,-142.19 236.85,-131.64 229.49,-139.26 235.85,-142.19"/>
</g>
<!-- Node6 -->
<g id="node6" class="node">
<title>Node6</title>
<g id="a_node6"><a xlink:title=" ">
<polygon fill="none" stroke="#bfbfbf" points="0,-56.5 0,-75.5 47,-75.5 47,-56.5 0,-56.5"/>
<text text-anchor="middle" x="23.5" y="-63.5" font-family="Helvetica,sans-Serif" font-size="10.00">stdlib.h</text>
</a>
</g>
</g>
<!-- Node5&#45;&gt;Node6 -->
<g id="edge5" class="edge">
<title>Node5&#45;&gt;Node6</title>
<path fill="none" stroke="midnightblue" d="M165.42,-168.37C139.1,-149.57 76.38,-104.77 43.85,-81.53"/>
<polygon fill="midnightblue" stroke="midnightblue" points="45.7,-78.56 35.53,-75.59 41.63,-84.25 45.7,-78.56"/>
</g>
<!-- Node7 -->
<g id="node7" class="node">
<title>Node7</title>
<g id="a_node7"><a xlink:title=" ">
<polygon fill="none" stroke="#bfbfbf" points="65.5,-56.5 65.5,-75.5 113.5,-75.5 113.5,-56.5 65.5,-56.5"/>
<text text-anchor="middle" x="89.5" y="-63.5" font-family="Helvetica,sans-Serif" font-size="10.00">string.h</text>
</a>
</g>
</g>
<!-- Node5&#45;&gt;Node7 -->
<g id="edge6" class="edge">
<title>Node5&#45;&gt;Node7</title>
<path fill="none" stroke="midnightblue" d="M170.59,-168.37C156.01,-150.14 121.84,-107.43 102.84,-83.68"/>
<polygon fill="midnightblue" stroke="midnightblue" points="105.35,-81.21 96.37,-75.59 99.89,-85.59 105.35,-81.21"/>
</g>
<!-- Node8 -->
<g id="node8" class="node">
<title>Node8</title>
<g id="a_node8"><a xlink:title=" ">
<polygon fill="none" stroke="#bfbfbf" points="132,-56.5 132,-75.5 191,-75.5 191,-56.5 132,-56.5"/>
<text text-anchor="middle" x="161.5" y="-63.5" font-family="Helvetica,sans-Serif" font-size="10.00">curl/curl.h</text>
</a>
</g>
</g>
<!-- Node5&#45;&gt;Node8 -->
<g id="edge7" class="edge">
<title>Node5&#45;&gt;Node8</title>
<path fill="none" stroke="midnightblue" d="M176.24,-168.37C173.66,-150.62 167.71,-109.67 164.21,-85.6"/>
<polygon fill="midnightblue" stroke="midnightblue" points="167.65,-84.98 162.75,-75.59 160.73,-85.99 167.65,-84.98"/>
</g>
<!-- Node9 -->
<g id="node9" class="node">
<title>Node9</title>
<g id="a_node9"><a xlink:title=" ">
<polygon fill="none" stroke="#bfbfbf" points="525.5,-56.5 525.5,-75.5 571.5,-75.5 571.5,-56.5 525.5,-56.5"/>
<text text-anchor="middle" x="548.5" y="-63.5" font-family="Helvetica,sans-Serif" font-size="10.00">errno.h</text>
</a>
</g>
</g>
<!-- Node5&#45;&gt;Node9 -->
<g id="edge8" class="edge">
<title>Node5&#45;&gt;Node9</title>
<path fill="none" stroke="midnightblue" d="M195.39,-171.69C253.73,-154.4 439.03,-99.46 515.26,-76.86"/>
<polygon fill="midnightblue" stroke="midnightblue" points="516.67,-80.09 525.27,-73.89 514.68,-73.38 516.67,-80.09"/>
</g>
<!-- Node5&#45;&gt;Node10 -->
<g id="edge9" class="edge">
<title>Node5&#45;&gt;Node10</title>
<path fill="none" stroke="midnightblue" d="M187.62,-168.32C197.03,-160.26 211.24,-148.08 222.57,-138.37"/>
<polygon fill="midnightblue" stroke="midnightblue" points="224.88,-141 230.19,-131.83 220.32,-135.68 224.88,-141"/>
</g>
<!-- Node10&#45;&gt;Node6 -->
<g id="edge10" class="edge">
<title>Node10&#45;&gt;Node6</title>
<path fill="none" stroke="midnightblue" d="M219.48,-116.05C186.93,-108.34 122.14,-92.84 57.26,-76.14"/>
<polygon fill="midnightblue" stroke="midnightblue" points="57.83,-72.68 47.27,-73.56 56.08,-79.45 57.83,-72.68"/>
</g>
<!-- Node10&#45;&gt;Node7 -->
<g id="edge11" class="edge">
<title>Node10&#45;&gt;Node7</title>
<path fill="none" stroke="midnightblue" d="M219.19,-113.38C194.13,-104.42 152.26,-89.44 122.89,-78.94"/>
<polygon fill="midnightblue" stroke="midnightblue" points="124.04,-75.64 113.45,-75.56 121.68,-82.23 124.04,-75.64"/>
</g>
<!-- Node10&#45;&gt;Node8 -->
<g id="edge12" class="edge">
<title>Node10&#45;&gt;Node8</title>
<path fill="none" stroke="midnightblue" d="M227.81,-112.32C215.6,-103.98 196.92,-91.21 182.5,-81.35"/>
<polygon fill="midnightblue" stroke="midnightblue" points="184.39,-78.41 174.16,-75.65 180.44,-84.19 184.39,-78.41"/>
</g>
<!-- Node10&#45;&gt;Node9 -->
<g id="edge16" class="edge">
<title>Node10&#45;&gt;Node9</title>
<path fill="none" stroke="midnightblue" d="M261.69,-118.3C308.01,-112.23 421.66,-96.42 515.5,-76 515.6,-75.98 515.7,-75.96 515.81,-75.93"/>
<polygon fill="midnightblue" stroke="midnightblue" points="516.59,-79.34 525.5,-73.6 514.96,-72.54 516.59,-79.34"/>
</g>
<!-- Node11 -->
<g id="node11" class="node">
<title>Node11</title>
<g id="a_node11"><a xlink:title=" ">
<polygon fill="none" stroke="#bfbfbf" points="209,-56.5 209,-75.5 292,-75.5 292,-56.5 209,-56.5"/>
<text text-anchor="middle" x="250.5" y="-63.5" font-family="Helvetica,sans-Serif" font-size="10.00">cjson/cJSON.h</text>
</a>
</g>
</g>
<!-- Node10&#45;&gt;Node11 -->
<g id="edge13" class="edge">
<title>Node10&#45;&gt;Node11</title>
<path fill="none" stroke="midnightblue" d="M242.15,-112.08C243.48,-104.93 245.38,-94.64 247.04,-85.69"/>
<polygon fill="midnightblue" stroke="midnightblue" points="250.5,-86.22 248.88,-75.75 243.62,-84.95 250.5,-86.22"/>
</g>
<!-- Node12 -->
<g id="node12" class="node">
<title>Node12</title>
<g id="a_node12"><a xlink:title=" ">
<polygon fill="none" stroke="#bfbfbf" points="310,-56.5 310,-75.5 369,-75.5 369,-56.5 310,-56.5"/>
<text text-anchor="middle" x="339.5" y="-63.5" font-family="Helvetica,sans-Serif" font-size="10.00">sys/stat.h</text>
</a>
</g>
</g>
<!-- Node10&#45;&gt;Node12 -->
<g id="edge14" class="edge">
<title>Node10&#45;&gt;Node12</title>
<path fill="none" stroke="midnightblue" d="M256.41,-112.32C272.14,-103.74 296.44,-90.49 314.71,-80.52"/>
<polygon fill="midnightblue" stroke="midnightblue" points="316.53,-83.52 323.63,-75.65 313.18,-77.37 316.53,-83.52"/>
</g>
<!-- Node13 -->
<g id="node13" class="node">
<title>Node13</title>
<g id="a_node13"><a xlink:title=" ">
<polygon fill="none" stroke="#bfbfbf" points="387,-56.5 387,-75.5 452,-75.5 452,-56.5 387,-56.5"/>
<text text-anchor="middle" x="419.5" y="-63.5" font-family="Helvetica,sans-Serif" font-size="10.00">sys/types.h</text>
</a>
</g>
</g>
<!-- Node10&#45;&gt;Node13 -->
<g id="edge15" class="edge">
<title>Node10&#45;&gt;Node13</title>
<path fill="none" stroke="midnightblue" d="M261.74,-114.59C291.19,-105.71 344.94,-89.49 381.43,-78.48"/>
<polygon fill="midnightblue" stroke="midnightblue" points="382.67,-81.77 391.23,-75.53 380.64,-75.07 382.67,-81.77"/>
</g>
<!-- Node14 -->
<g id="node14" class="node">
<title>Node14</title>
<g id="a_node14"><a xlink:href="log_8h.html" target="_top" xlink:title=" ">
<polygon fill="none" stroke="black" points="470,-56.5 470,-75.5 507,-75.5 507,-56.5 470,-56.5"/>
<text text-anchor="middle" x="488.5" y="-63.5" font-family="Helvetica,sans-Serif" font-size="10.00">log.h</text>
</a>
</g>
</g>
<!-- Node10&#45;&gt;Node14 -->
<g id="edge17" class="edge">
<title>Node10&#45;&gt;Node14</title>
<path fill="none" stroke="midnightblue" d="M261.61,-117.47C299.39,-111 381.2,-96.21 459.84,-75.92"/>
<polygon fill="midnightblue" stroke="midnightblue" points="461.12,-79.21 469.91,-73.29 459.35,-72.43 461.12,-79.21"/>
</g>
<!-- Node15 -->
<g id="node15" class="node">
<title>Node15</title>
<g id="a_node15"><a xlink:title=" ">
<polygon fill="none" stroke="#bfbfbf" points="364,-0.5 364,-19.5 409,-19.5 409,-0.5 364,-0.5"/>
<text text-anchor="middle" x="386.5" y="-7.5" font-family="Helvetica,sans-Serif" font-size="10.00">stdio.h</text>
</a>
</g>
</g>
<!-- Node14&#45;&gt;Node15 -->
<g id="edge18" class="edge">
<title>Node14&#45;&gt;Node15</title>
<path fill="none" stroke="midnightblue" d="M472.11,-56.32C455.83,-47.7 430.63,-34.36 411.78,-24.39"/>
<polygon fill="midnightblue" stroke="midnightblue" points="413.32,-21.24 402.85,-19.65 410.05,-27.43 413.32,-21.24"/>
</g>
<!-- Node16 -->
<g id="node16" class="node">
<title>Node16</title>
<g id="a_node16"><a xlink:title=" ">
<polygon fill="none" stroke="#bfbfbf" points="427,-0.5 427,-19.5 478,-19.5 478,-0.5 427,-0.5"/>
<text text-anchor="middle" x="452.5" y="-7.5" font-family="Helvetica,sans-Serif" font-size="10.00">stdarg.h</text>
</a>
</g>
</g>
<!-- Node14&#45;&gt;Node16 -->
<g id="edge19" class="edge">
<title>Node14&#45;&gt;Node16</title>
<path fill="none" stroke="midnightblue" d="M482.56,-56.08C477.52,-48.53 470.16,-37.49 463.99,-28.23"/>
<polygon fill="midnightblue" stroke="midnightblue" points="466.79,-26.13 458.33,-19.75 460.97,-30.01 466.79,-26.13"/>
</g>
<!-- Node17 -->
<g id="node17" class="node">
<title>Node17</title>
<g id="a_node17"><a xlink:title=" ">
<polygon fill="none" stroke="#bfbfbf" points="496.5,-0.5 496.5,-19.5 552.5,-19.5 552.5,-0.5 496.5,-0.5"/>
<text text-anchor="middle" x="524.5" y="-7.5" font-family="Helvetica,sans-Serif" font-size="10.00">stdbool.h</text>
</a>
</g>
</g>
<!-- Node14&#45;&gt;Node17 -->
<g id="edge20" class="edge">
<title>Node14&#45;&gt;Node17</title>
<path fill="none" stroke="midnightblue" d="M494.44,-56.08C499.48,-48.53 506.84,-37.49 513.01,-28.23"/>
<polygon fill="midnightblue" stroke="midnightblue" points="516.03,-30.01 518.67,-19.75 510.21,-26.13 516.03,-30.01"/>
</g>
<!-- Node18 -->
<g id="node18" class="node">
<title>Node18</title>
<g id="a_node18"><a xlink:title=" ">
<polygon fill="none" stroke="#bfbfbf" points="571,-0.5 571,-19.5 614,-19.5 614,-0.5 571,-0.5"/>
<text text-anchor="middle" x="592.5" y="-7.5" font-family="Helvetica,sans-Serif" font-size="10.00">time.h</text>
</a>
</g>
</g>
<!-- Node14&#45;&gt;Node18 -->
<g id="edge21" class="edge">
<title>Node14&#45;&gt;Node18</title>
<path fill="none" stroke="midnightblue" d="M505.21,-56.32C521.81,-47.7 547.5,-34.36 566.72,-24.39"/>
<polygon fill="midnightblue" stroke="midnightblue" points="568.57,-27.37 575.83,-19.65 565.34,-21.16 568.57,-27.37"/>
</g>
</g>
</svg>
