<?xml version="1.0" encoding="UTF-8" standalone="no"?>
<!DOCTYPE svg PUBLIC "-//W3C//DTD SVG 1.1//EN"
 "http://www.w3.org/Graphics/SVG/1.1/DTD/svg11.dtd">
<!-- Generated by graphviz version 2.49.3 (20211027.1534)
 -->
<!-- Title: include/BOM/stations.h Pages: 1 -->
<svg width="310pt" height="218pt"
 viewBox="0.00 0.00 310.00 218.00" xmlns="http://www.w3.org/2000/svg" xmlns:xlink="http://www.w3.org/1999/xlink">
<g id="graph0" class="graph" transform="scale(1 1) rotate(0) translate(4 214)">
<title>include/BOM/stations.h</title>
<!-- Node1 -->
<g id="node1" class="node">
<title>Node1</title>
<g id="a_node1"><a xlink:title=" ">
<polygon fill="#bfbfbf" stroke="black" points="66.5,-190.5 66.5,-209.5 184.5,-209.5 184.5,-190.5 66.5,-190.5"/>
<text text-anchor="middle" x="125.5" y="-197.5" font-family="Helvetica,sans-Serif" font-size="10.00">include/BOM/stations.h</text>
</a>
</g>
</g>
<!-- Node2 -->
<g id="node2" class="node">
<title>Node2</title>
<g id="a_node2"><a xlink:href="historical__weather_8h.html" target="_top" xlink:title=" ">
<polygon fill="none" stroke="black" points="68,-123.5 68,-153.5 183,-153.5 183,-123.5 68,-123.5"/>
<text text-anchor="start" x="76" y="-141.5" font-family="Helvetica,sans-Serif" font-size="10.00">include/BOM/historical</text>
<text text-anchor="middle" x="125.5" y="-130.5" font-family="Helvetica,sans-Serif" font-size="10.00">_weather.h</text>
</a>
</g>
</g>
<!-- Node1&#45;&gt;Node2 -->
<g id="edge1" class="edge">
<title>Node1&#45;&gt;Node2</title>
<path fill="none" stroke="midnightblue" d="M125.5,-180.23C125.5,-171.59 125.5,-161.5 125.5,-153.52"/>
<polygon fill="midnightblue" stroke="midnightblue" points="122,-180.48 125.5,-190.48 129,-180.48 122,-180.48"/>
</g>
<!-- Node3 -->
<g id="node3" class="node">
<title>Node3</title>
<g id="a_node3"><a xlink:href="main_8h.html" target="_top" xlink:title=" ">
<polygon fill="none" stroke="black" points="0,-62 0,-81 79,-81 79,-62 0,-62"/>
<text text-anchor="middle" x="39.5" y="-69" font-family="Helvetica,sans-Serif" font-size="10.00">include/main.h</text>
</a>
</g>
</g>
<!-- Node1&#45;&gt;Node3 -->
<g id="edge5" class="edge">
<title>Node1&#45;&gt;Node3</title>
<path fill="none" stroke="midnightblue" d="M96.21,-185.69C82.81,-178.2 67.88,-167.59 58.5,-154 42.74,-131.16 39.92,-97.04 39.5,-81.18"/>
<polygon fill="midnightblue" stroke="midnightblue" points="94.66,-188.84 105.14,-190.39 97.92,-182.64 94.66,-188.84"/>
</g>
<!-- Node6 -->
<g id="node6" class="node">
<title>Node6</title>
<g id="a_node6"><a xlink:href="stations_8c.html" target="_top" xlink:title=" ">
<polygon fill="none" stroke="black" points="201,-129 201,-148 302,-148 302,-129 201,-129"/>
<text text-anchor="middle" x="251.5" y="-136" font-family="Helvetica,sans-Serif" font-size="10.00">src/BOM/stations.c</text>
</a>
</g>
</g>
<!-- Node1&#45;&gt;Node6 -->
<g id="edge6" class="edge">
<title>Node1&#45;&gt;Node6</title>
<path fill="none" stroke="midnightblue" d="M152.66,-186.17C177.11,-174.63 212.35,-157.99 233.48,-148.01"/>
<polygon fill="midnightblue" stroke="midnightblue" points="151.1,-183.04 143.55,-190.48 154.09,-189.37 151.1,-183.04"/>
</g>
<!-- Node2&#45;&gt;Node3 -->
<g id="edge2" class="edge">
<title>Node2&#45;&gt;Node3</title>
<path fill="none" stroke="midnightblue" d="M98.83,-117.34C82.78,-105.21 63.17,-90.39 51,-81.19"/>
<polygon fill="midnightblue" stroke="midnightblue" points="96.75,-120.16 106.84,-123.4 100.97,-114.57 96.75,-120.16"/>
</g>
<!-- Node5 -->
<g id="node5" class="node">
<title>Node5</title>
<g id="a_node5"><a xlink:href="historical__weather_8c.html" target="_top" xlink:title=" ">
<polygon fill="none" stroke="black" points="96.5,-56.5 96.5,-86.5 194.5,-86.5 194.5,-56.5 96.5,-56.5"/>
<text text-anchor="start" x="104.5" y="-74.5" font-family="Helvetica,sans-Serif" font-size="10.00">src/BOM/historical</text>
<text text-anchor="middle" x="145.5" y="-63.5" font-family="Helvetica,sans-Serif" font-size="10.00">_weather.c</text>
</a>
</g>
</g>
<!-- Node2&#45;&gt;Node5 -->
<g id="edge4" class="edge">
<title>Node2&#45;&gt;Node5</title>
<path fill="none" stroke="midnightblue" d="M132.82,-113.7C135.63,-104.59 138.73,-94.49 141.17,-86.58"/>
<polygon fill="midnightblue" stroke="midnightblue" points="129.44,-112.81 129.84,-123.4 136.13,-114.87 129.44,-112.81"/>
</g>
<!-- Node4 -->
<g id="node4" class="node">
<title>Node4</title>
<g id="a_node4"><a xlink:href="main_8c.html" target="_top" xlink:title=" ">
<polygon fill="none" stroke="black" points="8.5,-0.5 8.5,-19.5 70.5,-19.5 70.5,-0.5 8.5,-0.5"/>
<text text-anchor="middle" x="39.5" y="-7.5" font-family="Helvetica,sans-Serif" font-size="10.00">src/main.c</text>
</a>
</g>
</g>
<!-- Node3&#45;&gt;Node4 -->
<g id="edge3" class="edge">
<title>Node3&#45;&gt;Node4</title>
<path fill="none" stroke="midnightblue" d="M39.5,-51.82C39.5,-41 39.5,-27.9 39.5,-19.51"/>
<polygon fill="midnightblue" stroke="midnightblue" points="36,-51.98 39.5,-61.98 43,-51.98 36,-51.98"/>
</g>
</g>
</svg>
