<?xml version="1.0" encoding="UTF-8" standalone="no"?>
<!DOCTYPE svg PUBLIC "-//W3C//DTD SVG 1.1//EN"
 "http://www.w3.org/Graphics/SVG/1.1/DTD/svg11.dtd">
<!-- Generated by graphviz version 2.43.0 (0)
 -->
<!-- Title: include/BOM/stations.h Pages: 1 -->
<svg width="839pt" height="247pt"
 viewBox="0.00 0.00 838.50 247.00" xmlns="http://www.w3.org/2000/svg" xmlns:xlink="http://www.w3.org/1999/xlink">
<g id="graph0" class="graph" transform="scale(1 1) rotate(0) translate(4 243)">
<title>include/BOM/stations.h</title>
<!-- Node1 -->
<g id="node1" class="node">
<title>Node1</title>
<g id="a_node1"><a xlink:title=" ">
<polygon fill="#999999" stroke="#666666" points="325,-239 196,-239 196,-220 325,-220 325,-239"/>
<text text-anchor="middle" x="260.5" y="-227" font-family="Helvetica,sans-Serif" font-size="10.00">include/BOM/stations.h</text>
</a>
</g>
</g>
<!-- Node2 -->
<g id="node2" class="node">
<title>Node2</title>
<g id="a_node2"><a xlink:title=" ">
<polygon fill="#e0e0e0" stroke="#999999" points="51,-74 0,-74 0,-55 51,-55 51,-74"/>
<text text-anchor="middle" x="25.5" y="-62" font-family="Helvetica,sans-Serif" font-size="10.00">math.h</text>
</a>
</g>
</g>
<!-- Node1&#45;&gt;Node2 -->
<g id="edge1" class="edge">
<title>Node1&#45;&gt;Node2</title>
<path fill="none" stroke="#63b8ff" d="M248.2,-219.97C210.13,-193.57 94.01,-113.02 46.3,-79.93"/>
<polygon fill="#63b8ff" stroke="#63b8ff" points="48.18,-76.97 37.97,-74.15 44.19,-82.72 48.18,-76.97"/>
</g>
<!-- Node3 -->
<g id="node3" class="node">
<title>Node3</title>
<g id="a_node3"><a xlink:title=" ">
<polygon fill="#e0e0e0" stroke="#999999" points="366,-184 313,-184 313,-165 366,-165 366,-184"/>
<text text-anchor="middle" x="339.5" y="-172" font-family="Helvetica,sans-Serif" font-size="10.00">ctype.h</text>
</a>
</g>
</g>
<!-- Node1&#45;&gt;Node3 -->
<g id="edge2" class="edge">
<title>Node1&#45;&gt;Node3</title>
<path fill="none" stroke="#63b8ff" d="M273.19,-219.98C285.33,-211.84 303.86,-199.41 318.25,-189.76"/>
<polygon fill="#63b8ff" stroke="#63b8ff" points="320.22,-192.65 326.58,-184.17 316.32,-186.84 320.22,-192.65"/>
</g>
<!-- Node4 -->
<g id="node4" class="node">
<title>Node4</title>
<g id="a_node4"><a xlink:href="ftp_8h.html" target="_top" xlink:title=" ">
<polygon fill="white" stroke="#666666" points="256.5,-184 218.5,-184 218.5,-165 256.5,-165 256.5,-184"/>
<text text-anchor="middle" x="237.5" y="-172" font-family="Helvetica,sans-Serif" font-size="10.00">ftp.h</text>
</a>
</g>
</g>
<!-- Node1&#45;&gt;Node4 -->
<g id="edge3" class="edge">
<title>Node1&#45;&gt;Node4</title>
<path fill="none" stroke="#63b8ff" d="M256.7,-219.75C253.59,-212.57 249.08,-202.18 245.21,-193.27"/>
<polygon fill="#63b8ff" stroke="#63b8ff" points="248.42,-191.87 241.23,-184.09 242,-194.66 248.42,-191.87"/>
</g>
<!-- Node9 -->
<g id="node9" class="node">
<title>Node9</title>
<g id="a_node9"><a xlink:href="utils_8h.html" target="_top" xlink:title=" ">
<polygon fill="white" stroke="#666666" points="351,-129 304,-129 304,-110 351,-110 351,-129"/>
<text text-anchor="middle" x="327.5" y="-117" font-family="Helvetica,sans-Serif" font-size="10.00">utils.h</text>
</a>
</g>
</g>
<!-- Node1&#45;&gt;Node9 -->
<g id="edge24" class="edge">
<title>Node1&#45;&gt;Node9</title>
<path fill="none" stroke="#63b8ff" d="M265.98,-219.66C277.08,-201.77 302.37,-161 316.83,-137.69"/>
<polygon fill="#63b8ff" stroke="#63b8ff" points="319.83,-139.5 322.13,-129.16 313.88,-135.81 319.83,-139.5"/>
</g>
<!-- Node5 -->
<g id="node5" class="node">
<title>Node5</title>
<g id="a_node5"><a xlink:title=" ">
<polygon fill="#e0e0e0" stroke="#999999" points="274,-74 221,-74 221,-55 274,-55 274,-74"/>
<text text-anchor="middle" x="247.5" y="-62" font-family="Helvetica,sans-Serif" font-size="10.00">stdlib.h</text>
</a>
</g>
</g>
<!-- Node4&#45;&gt;Node5 -->
<g id="edge4" class="edge">
<title>Node4&#45;&gt;Node5</title>
<path fill="none" stroke="#63b8ff" d="M238.32,-164.66C239.94,-147.17 243.58,-107.8 245.76,-84.27"/>
<polygon fill="#63b8ff" stroke="#63b8ff" points="249.26,-84.44 246.7,-74.16 242.29,-83.79 249.26,-84.44"/>
</g>
<!-- Node6 -->
<g id="node6" class="node">
<title>Node6</title>
<g id="a_node6"><a xlink:title=" ">
<polygon fill="#e0e0e0" stroke="#999999" points="345,-74 292,-74 292,-55 345,-55 345,-74"/>
<text text-anchor="middle" x="318.5" y="-62" font-family="Helvetica,sans-Serif" font-size="10.00">string.h</text>
</a>
</g>
</g>
<!-- Node4&#45;&gt;Node6 -->
<g id="edge5" class="edge">
<title>Node4&#45;&gt;Node6</title>
<path fill="none" stroke="#63b8ff" d="M244.13,-164.66C257.6,-146.69 288.39,-105.64 305.84,-82.38"/>
<polygon fill="#63b8ff" stroke="#63b8ff" points="308.81,-84.26 312.01,-74.16 303.21,-80.06 308.81,-84.26"/>
</g>
<!-- Node7 -->
<g id="node7" class="node">
<title>Node7</title>
<g id="a_node7"><a xlink:title=" ">
<polygon fill="#e0e0e0" stroke="#999999" points="134,-74 69,-74 69,-55 134,-55 134,-74"/>
<text text-anchor="middle" x="101.5" y="-62" font-family="Helvetica,sans-Serif" font-size="10.00">curl/curl.h</text>
</a>
</g>
</g>
<!-- Node4&#45;&gt;Node7 -->
<g id="edge6" class="edge">
<title>Node4&#45;&gt;Node7</title>
<path fill="none" stroke="#63b8ff" d="M226.37,-164.66C203.14,-146.22 149.28,-103.45 120.48,-80.57"/>
<polygon fill="#63b8ff" stroke="#63b8ff" points="122.41,-77.64 112.4,-74.16 118.06,-83.12 122.41,-77.64"/>
</g>
<!-- Node8 -->
<g id="node8" class="node">
<title>Node8</title>
<g id="a_node8"><a xlink:title=" ">
<polygon fill="#e0e0e0" stroke="#999999" points="203,-74 152,-74 152,-55 203,-55 203,-74"/>
<text text-anchor="middle" x="177.5" y="-62" font-family="Helvetica,sans-Serif" font-size="10.00">errno.h</text>
</a>
</g>
</g>
<!-- Node4&#45;&gt;Node8 -->
<g id="edge7" class="edge">
<title>Node4&#45;&gt;Node8</title>
<path fill="none" stroke="#63b8ff" d="M232.59,-164.66C222.7,-146.85 200.2,-106.37 187.23,-83.01"/>
<polygon fill="#63b8ff" stroke="#63b8ff" points="190.23,-81.2 182.31,-74.16 184.11,-84.6 190.23,-81.2"/>
</g>
<!-- Node4&#45;&gt;Node9 -->
<g id="edge8" class="edge">
<title>Node4&#45;&gt;Node9</title>
<path fill="none" stroke="#63b8ff" d="M251.96,-164.98C265.92,-156.77 287.29,-144.18 303.75,-134.49"/>
<polygon fill="#63b8ff" stroke="#63b8ff" points="305.94,-137.26 312.78,-129.17 302.38,-131.23 305.94,-137.26"/>
</g>
<!-- Node9&#45;&gt;Node2 -->
<g id="edge17" class="edge">
<title>Node9&#45;&gt;Node2</title>
<path fill="none" stroke="#63b8ff" d="M303.72,-115.21C258.36,-108.79 156.17,-93.65 60.86,-74.15"/>
<polygon fill="#63b8ff" stroke="#63b8ff" points="61.57,-70.72 51.07,-72.13 60.15,-77.58 61.57,-70.72"/>
</g>
<!-- Node9&#45;&gt;Node5 -->
<g id="edge9" class="edge">
<title>Node9&#45;&gt;Node5</title>
<path fill="none" stroke="#63b8ff" d="M314.65,-109.98C302.36,-101.84 283.59,-89.41 269.02,-79.76"/>
<polygon fill="#63b8ff" stroke="#63b8ff" points="270.86,-76.78 260.59,-74.17 266.99,-82.61 270.86,-76.78"/>
</g>
<!-- Node9&#45;&gt;Node6 -->
<g id="edge10" class="edge">
<title>Node9&#45;&gt;Node6</title>
<path fill="none" stroke="#63b8ff" d="M326.01,-109.75C324.83,-102.8 323.14,-92.85 321.66,-84.13"/>
<polygon fill="#63b8ff" stroke="#63b8ff" points="325.08,-83.36 319.96,-74.09 318.18,-84.53 325.08,-83.36"/>
</g>
<!-- Node9&#45;&gt;Node7 -->
<g id="edge11" class="edge">
<title>Node9&#45;&gt;Node7</title>
<path fill="none" stroke="#63b8ff" d="M303.74,-112.93C265.94,-104.06 191.57,-86.62 144.31,-75.54"/>
<polygon fill="#63b8ff" stroke="#63b8ff" points="144.91,-72.08 134.37,-73.21 143.31,-78.9 144.91,-72.08"/>
</g>
<!-- Node9&#45;&gt;Node8 -->
<g id="edge16" class="edge">
<title>Node9&#45;&gt;Node8</title>
<path fill="none" stroke="#63b8ff" d="M303.73,-110.1C278.76,-101.28 239.26,-87.32 211.1,-77.37"/>
<polygon fill="#63b8ff" stroke="#63b8ff" points="212.25,-74.07 201.65,-74.03 209.92,-80.67 212.25,-74.07"/>
</g>
<!-- Node10 -->
<g id="node10" class="node">
<title>Node10</title>
<g id="a_node10"><a xlink:title=" ">
<polygon fill="#e0e0e0" stroke="#999999" points="647,-74 594,-74 594,-55 647,-55 647,-74"/>
<text text-anchor="middle" x="620.5" y="-62" font-family="Helvetica,sans-Serif" font-size="10.00">stdint.h</text>
</a>
</g>
</g>
<!-- Node9&#45;&gt;Node10 -->
<g id="edge12" class="edge">
<title>Node9&#45;&gt;Node10</title>
<path fill="none" stroke="#63b8ff" d="M351.33,-114.87C395.22,-108.07 491.98,-92.6 583.79,-74.03"/>
<polygon fill="#63b8ff" stroke="#63b8ff" points="584.7,-77.42 593.8,-71.99 583.31,-70.56 584.7,-77.42"/>
</g>
<!-- Node11 -->
<g id="node11" class="node">
<title>Node11</title>
<g id="a_node11"><a xlink:title=" ">
<polygon fill="#e0e0e0" stroke="#999999" points="748,-74 665,-74 665,-55 748,-55 748,-74"/>
<text text-anchor="middle" x="706.5" y="-62" font-family="Helvetica,sans-Serif" font-size="10.00">cjson/cJSON.h</text>
</a>
</g>
</g>
<!-- Node9&#45;&gt;Node11 -->
<g id="edge13" class="edge">
<title>Node9&#45;&gt;Node11</title>
<path fill="none" stroke="#63b8ff" d="M351,-115.56C403.43,-108.95 534.16,-92.17 654.63,-74.09"/>
<polygon fill="#63b8ff" stroke="#63b8ff" points="655.4,-77.51 664.77,-72.56 654.36,-70.59 655.4,-77.51"/>
</g>
<!-- Node12 -->
<g id="node12" class="node">
<title>Node12</title>
<g id="a_node12"><a xlink:title=" ">
<polygon fill="#e0e0e0" stroke="#999999" points="830.5,-74 766.5,-74 766.5,-55 830.5,-55 830.5,-74"/>
<text text-anchor="middle" x="798.5" y="-62" font-family="Helvetica,sans-Serif" font-size="10.00">sys/stat.h</text>
</a>
</g>
</g>
<!-- Node9&#45;&gt;Node12 -->
<g id="edge14" class="edge">
<title>Node9&#45;&gt;Node12</title>
<path fill="none" stroke="#63b8ff" d="M351.38,-116.88C415.35,-112.37 595.99,-98.44 756.29,-74.04"/>
<polygon fill="#63b8ff" stroke="#63b8ff" points="756.98,-77.47 766.33,-72.49 755.91,-70.55 756.98,-77.47"/>
</g>
<!-- Node13 -->
<g id="node13" class="node">
<title>Node13</title>
<g id="a_node13"><a xlink:title=" ">
<polygon fill="#e0e0e0" stroke="#999999" points="435.5,-74 363.5,-74 363.5,-55 435.5,-55 435.5,-74"/>
<text text-anchor="middle" x="399.5" y="-62" font-family="Helvetica,sans-Serif" font-size="10.00">sys/types.h</text>
</a>
</g>
</g>
<!-- Node9&#45;&gt;Node13 -->
<g id="edge15" class="edge">
<title>Node9&#45;&gt;Node13</title>
<path fill="none" stroke="#63b8ff" d="M339.07,-109.98C349.92,-102 366.38,-89.88 379.38,-80.31"/>
<polygon fill="#63b8ff" stroke="#63b8ff" points="381.74,-82.92 387.72,-74.17 377.59,-77.28 381.74,-82.92"/>
</g>
<!-- Node14 -->
<g id="node14" class="node">
<title>Node14</title>
<g id="a_node14"><a xlink:href="log_8h.html" target="_top" xlink:title=" ">
<polygon fill="white" stroke="#666666" points="495,-74 454,-74 454,-55 495,-55 495,-74"/>
<text text-anchor="middle" x="474.5" y="-62" font-family="Helvetica,sans-Serif" font-size="10.00">log.h</text>
</a>
</g>
</g>
<!-- Node9&#45;&gt;Node14 -->
<g id="edge18" class="edge">
<title>Node9&#45;&gt;Node14</title>
<path fill="none" stroke="#63b8ff" d="M351.12,-109.98C376.42,-100.86 416.64,-86.36 444.25,-76.41"/>
<polygon fill="#63b8ff" stroke="#63b8ff" points="445.57,-79.65 453.79,-72.97 443.2,-73.07 445.57,-79.65"/>
</g>
<!-- Node19 -->
<g id="node19" class="node">
<title>Node19</title>
<g id="a_node19"><a xlink:title=" ">
<polygon fill="#e0e0e0" stroke="#999999" points="576,-74 513,-74 513,-55 576,-55 576,-74"/>
<text text-anchor="middle" x="544.5" y="-62" font-family="Helvetica,sans-Serif" font-size="10.00">libpq&#45;fe.h</text>
</a>
</g>
</g>
<!-- Node9&#45;&gt;Node19 -->
<g id="edge23" class="edge">
<title>Node9&#45;&gt;Node19</title>
<path fill="none" stroke="#63b8ff" d="M351.14,-112.73C387.59,-103.82 458.04,-86.62 503.09,-75.61"/>
<polygon fill="#63b8ff" stroke="#63b8ff" points="503.96,-79 512.85,-73.23 502.3,-72.2 503.96,-79"/>
</g>
<!-- Node15 -->
<g id="node15" class="node">
<title>Node15</title>
<g id="a_node15"><a xlink:title=" ">
<polygon fill="#e0e0e0" stroke="#999999" points="390.5,-19 340.5,-19 340.5,0 390.5,0 390.5,-19"/>
<text text-anchor="middle" x="365.5" y="-7" font-family="Helvetica,sans-Serif" font-size="10.00">stdio.h</text>
</a>
</g>
</g>
<!-- Node14&#45;&gt;Node15 -->
<g id="edge19" class="edge">
<title>Node14&#45;&gt;Node15</title>
<path fill="none" stroke="#63b8ff" d="M456.99,-54.98C439.53,-46.5 412.49,-33.35 392.33,-23.54"/>
<polygon fill="#63b8ff" stroke="#63b8ff" points="393.86,-20.4 383.33,-19.17 390.79,-26.69 393.86,-20.4"/>
</g>
<!-- Node16 -->
<g id="node16" class="node">
<title>Node16</title>
<g id="a_node16"><a xlink:title=" ">
<polygon fill="#e0e0e0" stroke="#999999" points="464.5,-19 408.5,-19 408.5,0 464.5,0 464.5,-19"/>
<text text-anchor="middle" x="436.5" y="-7" font-family="Helvetica,sans-Serif" font-size="10.00">stdarg.h</text>
</a>
</g>
</g>
<!-- Node14&#45;&gt;Node16 -->
<g id="edge20" class="edge">
<title>Node14&#45;&gt;Node16</title>
<path fill="none" stroke="#63b8ff" d="M468.23,-54.75C462.91,-47.34 455.14,-36.5 448.62,-27.41"/>
<polygon fill="#63b8ff" stroke="#63b8ff" points="451.33,-25.18 442.66,-19.09 445.64,-29.26 451.33,-25.18"/>
</g>
<!-- Node17 -->
<g id="node17" class="node">
<title>Node17</title>
<g id="a_node17"><a xlink:title=" ">
<polygon fill="#e0e0e0" stroke="#999999" points="544.5,-19 482.5,-19 482.5,0 544.5,0 544.5,-19"/>
<text text-anchor="middle" x="513.5" y="-7" font-family="Helvetica,sans-Serif" font-size="10.00">stdbool.h</text>
</a>
</g>
</g>
<!-- Node14&#45;&gt;Node17 -->
<g id="edge21" class="edge">
<title>Node14&#45;&gt;Node17</title>
<path fill="none" stroke="#63b8ff" d="M480.94,-54.75C486.39,-47.34 494.36,-36.5 501.06,-27.41"/>
<polygon fill="#63b8ff" stroke="#63b8ff" points="504.07,-29.22 507.18,-19.09 498.43,-25.07 504.07,-29.22"/>
</g>
<!-- Node18 -->
<g id="node18" class="node">
<title>Node18</title>
<g id="a_node18"><a xlink:title=" ">
<polygon fill="#e0e0e0" stroke="#999999" points="610.5,-19 562.5,-19 562.5,0 610.5,0 610.5,-19"/>
<text text-anchor="middle" x="586.5" y="-7" font-family="Helvetica,sans-Serif" font-size="10.00">time.h</text>
</a>
</g>
</g>
<!-- Node14&#45;&gt;Node18 -->
<g id="edge22" class="edge">
<title>Node14&#45;&gt;Node18</title>
<path fill="none" stroke="#63b8ff" d="M492.49,-54.98C510.43,-46.5 538.22,-33.35 558.93,-23.54"/>
<polygon fill="#63b8ff" stroke="#63b8ff" points="560.64,-26.61 568.18,-19.17 557.64,-20.28 560.64,-26.61"/>
</g>
</g>
</svg>
