<?xml version="1.0" encoding="UTF-8" standalone="no"?>
<!DOCTYPE svg PUBLIC "-//W3C//DTD SVG 1.1//EN"
 "http://www.w3.org/Graphics/SVG/1.1/DTD/svg11.dtd">
<!-- Generated by graphviz version 2.49.3 (20211027.1534)
 -->
<!-- Title: src/BOM/stations.c Pages: 1 -->
<svg width="647pt" height="308pt"
 viewBox="0.00 0.00 646.50 308.00" xmlns="http://www.w3.org/2000/svg" xmlns:xlink="http://www.w3.org/1999/xlink">
<g id="graph0" class="graph" transform="scale(1 1) rotate(0) translate(4 304)">
<title>src/BOM/stations.c</title>
<!-- Node1 -->
<g id="node1" class="node">
<title>Node1</title>
<g id="a_node1"><a xlink:title=" ">
<polygon fill="#bfbfbf" stroke="black" points="92.5,-280.5 92.5,-299.5 193.5,-299.5 193.5,-280.5 92.5,-280.5"/>
<text text-anchor="middle" x="143" y="-287.5" font-family="Helvetica,sans-Serif" font-size="10.00">src/BOM/stations.c</text>
</a>
</g>
</g>
<!-- Node2 -->
<g id="node2" class="node">
<title>Node2</title>
<g id="a_node2"><a xlink:href="stations_8h.html" target="_top" xlink:title=" ">
<polygon fill="none" stroke="black" points="101,-224.5 101,-243.5 185,-243.5 185,-224.5 101,-224.5"/>
<text text-anchor="middle" x="143" y="-231.5" font-family="Helvetica,sans-Serif" font-size="10.00">BOM/stations.h</text>
</a>
</g>
</g>
<!-- Node1&#45;&gt;Node2 -->
<g id="edge1" class="edge">
<title>Node1&#45;&gt;Node2</title>
<path fill="none" stroke="midnightblue" d="M143,-280.08C143,-273.01 143,-262.86 143,-253.99"/>
<polygon fill="midnightblue" stroke="midnightblue" points="146.5,-253.75 143,-243.75 139.5,-253.75 146.5,-253.75"/>
</g>
<!-- Node3 -->
<g id="node3" class="node">
<title>Node3</title>
<g id="a_node3"><a xlink:title=" ">
<polygon fill="none" stroke="#bfbfbf" points="26,-168.5 26,-187.5 72,-187.5 72,-168.5 26,-168.5"/>
<text text-anchor="middle" x="49" y="-175.5" font-family="Helvetica,sans-Serif" font-size="10.00">math.h</text>
</a>
</g>
</g>
<!-- Node2&#45;&gt;Node3 -->
<g id="edge2" class="edge">
<title>Node2&#45;&gt;Node3</title>
<path fill="none" stroke="midnightblue" d="M127.9,-224.32C113.1,-215.82 90.31,-202.73 73.02,-192.8"/>
<polygon fill="midnightblue" stroke="midnightblue" points="74.48,-189.6 64.07,-187.65 70.99,-195.67 74.48,-189.6"/>
</g>
<!-- Node4 -->
<g id="node4" class="node">
<title>Node4</title>
<g id="a_node4"><a xlink:title=" ">
<polygon fill="none" stroke="#bfbfbf" points="90.5,-168.5 90.5,-187.5 137.5,-187.5 137.5,-168.5 90.5,-168.5"/>
<text text-anchor="middle" x="114" y="-175.5" font-family="Helvetica,sans-Serif" font-size="10.00">ctype.h</text>
</a>
</g>
</g>
<!-- Node2&#45;&gt;Node4 -->
<g id="edge3" class="edge">
<title>Node2&#45;&gt;Node4</title>
<path fill="none" stroke="midnightblue" d="M138.21,-224.08C134.24,-216.69 128.47,-205.95 123.57,-196.81"/>
<polygon fill="midnightblue" stroke="midnightblue" points="126.51,-194.91 118.7,-187.75 120.35,-198.22 126.51,-194.91"/>
</g>
<!-- Node5 -->
<g id="node5" class="node">
<title>Node5</title>
<g id="a_node5"><a xlink:href="ftp_8h.html" target="_top" xlink:title=" ">
<polygon fill="none" stroke="black" points="155.5,-168.5 155.5,-187.5 190.5,-187.5 190.5,-168.5 155.5,-168.5"/>
<text text-anchor="middle" x="173" y="-175.5" font-family="Helvetica,sans-Serif" font-size="10.00">ftp.h</text>
</a>
</g>
</g>
<!-- Node2&#45;&gt;Node5 -->
<g id="edge4" class="edge">
<title>Node2&#45;&gt;Node5</title>
<path fill="none" stroke="midnightblue" d="M147.95,-224.08C152.1,-216.61 158.15,-205.72 163.27,-196.52"/>
<polygon fill="midnightblue" stroke="midnightblue" points="166.34,-198.19 168.14,-187.75 160.22,-194.79 166.34,-198.19"/>
</g>
<!-- Node10 -->
<g id="node10" class="node">
<title>Node10</title>
<g id="a_node10"><a xlink:href="utils_8h.html" target="_top" xlink:title=" ">
<polygon fill="none" stroke="black" points="220,-112.5 220,-131.5 262,-131.5 262,-112.5 220,-112.5"/>
<text text-anchor="middle" x="241" y="-119.5" font-family="Helvetica,sans-Serif" font-size="10.00">utils.h</text>
</a>
</g>
</g>
<!-- Node2&#45;&gt;Node10 -->
<g id="edge23" class="edge">
<title>Node2&#45;&gt;Node10</title>
<path fill="none" stroke="midnightblue" d="M155.99,-224.38C168.03,-216 185.97,-202.45 199,-188 212.18,-173.39 224.02,-154.22 231.75,-140.49"/>
<polygon fill="midnightblue" stroke="midnightblue" points="234.88,-142.06 236.61,-131.6 228.74,-138.7 234.88,-142.06"/>
</g>
<!-- Node6 -->
<g id="node6" class="node">
<title>Node6</title>
<g id="a_node6"><a xlink:title=" ">
<polygon fill="none" stroke="#bfbfbf" points="64.5,-56.5 64.5,-75.5 111.5,-75.5 111.5,-56.5 64.5,-56.5"/>
<text text-anchor="middle" x="88" y="-63.5" font-family="Helvetica,sans-Serif" font-size="10.00">stdlib.h</text>
</a>
</g>
</g>
<!-- Node5&#45;&gt;Node6 -->
<g id="edge5" class="edge">
<title>Node5&#45;&gt;Node6</title>
<path fill="none" stroke="midnightblue" d="M166.33,-168.37C152.24,-150.14 119.24,-107.43 100.89,-83.68"/>
<polygon fill="midnightblue" stroke="midnightblue" points="103.52,-81.36 94.64,-75.59 97.98,-85.64 103.52,-81.36"/>
</g>
<!-- Node7 -->
<g id="node7" class="node">
<title>Node7</title>
<g id="a_node7"><a xlink:title=" ">
<polygon fill="none" stroke="#bfbfbf" points="130,-56.5 130,-75.5 178,-75.5 178,-56.5 130,-56.5"/>
<text text-anchor="middle" x="154" y="-63.5" font-family="Helvetica,sans-Serif" font-size="10.00">string.h</text>
</a>
</g>
</g>
<!-- Node5&#45;&gt;Node7 -->
<g id="edge6" class="edge">
<title>Node5&#45;&gt;Node7</title>
<path fill="none" stroke="midnightblue" d="M171.51,-168.37C168.44,-150.62 161.37,-109.67 157.21,-85.6"/>
<polygon fill="midnightblue" stroke="midnightblue" points="160.64,-84.85 155.48,-75.59 153.74,-86.04 160.64,-84.85"/>
</g>
<!-- Node8 -->
<g id="node8" class="node">
<title>Node8</title>
<g id="a_node8"><a xlink:title=" ">
<polygon fill="none" stroke="#bfbfbf" points="196.5,-56.5 196.5,-75.5 255.5,-75.5 255.5,-56.5 196.5,-56.5"/>
<text text-anchor="middle" x="226" y="-63.5" font-family="Helvetica,sans-Serif" font-size="10.00">curl/curl.h</text>
</a>
</g>
</g>
<!-- Node5&#45;&gt;Node8 -->
<g id="edge7" class="edge">
<title>Node5&#45;&gt;Node8</title>
<path fill="none" stroke="midnightblue" d="M177.16,-168.37C185.83,-150.38 205.98,-108.55 217.51,-84.63"/>
<polygon fill="midnightblue" stroke="midnightblue" points="220.67,-86.12 221.86,-75.59 214.37,-83.08 220.67,-86.12"/>
</g>
<!-- Node9 -->
<g id="node9" class="node">
<title>Node9</title>
<g id="a_node9"><a xlink:title=" ">
<polygon fill="none" stroke="#bfbfbf" points="0,-56.5 0,-75.5 46,-75.5 46,-56.5 0,-56.5"/>
<text text-anchor="middle" x="23" y="-63.5" font-family="Helvetica,sans-Serif" font-size="10.00">errno.h</text>
</a>
</g>
</g>
<!-- Node5&#45;&gt;Node9 -->
<g id="edge8" class="edge">
<title>Node5&#45;&gt;Node9</title>
<path fill="none" stroke="midnightblue" d="M161.23,-168.37C135.6,-149.57 74.5,-104.77 42.82,-81.53"/>
<polygon fill="midnightblue" stroke="midnightblue" points="44.85,-78.68 34.72,-75.59 40.71,-84.33 44.85,-78.68"/>
</g>
<!-- Node5&#45;&gt;Node10 -->
<g id="edge9" class="edge">
<title>Node5&#45;&gt;Node10</title>
<path fill="none" stroke="midnightblue" d="M183.93,-168.32C194.17,-160.18 209.72,-147.84 222,-138.09"/>
<polygon fill="midnightblue" stroke="midnightblue" points="224.22,-140.79 229.88,-131.83 219.87,-135.31 224.22,-140.79"/>
</g>
<!-- Node10&#45;&gt;Node6 -->
<g id="edge10" class="edge">
<title>Node10&#45;&gt;Node6</title>
<path fill="none" stroke="midnightblue" d="M219.73,-113.49C194.2,-104.48 151.11,-89.28 121.2,-78.72"/>
<polygon fill="midnightblue" stroke="midnightblue" points="122.2,-75.36 111.6,-75.33 119.87,-81.96 122.2,-75.36"/>
</g>
<!-- Node10&#45;&gt;Node7 -->
<g id="edge11" class="edge">
<title>Node10&#45;&gt;Node7</title>
<path fill="none" stroke="midnightblue" d="M227.02,-112.32C213.45,-103.9 192.62,-90.97 176.68,-81.07"/>
<polygon fill="midnightblue" stroke="midnightblue" points="178.29,-77.95 167.94,-75.65 174.59,-83.9 178.29,-77.95"/>
</g>
<!-- Node10&#45;&gt;Node8 -->
<g id="edge12" class="edge">
<title>Node10&#45;&gt;Node8</title>
<path fill="none" stroke="midnightblue" d="M238.52,-112.08C236.51,-104.85 233.61,-94.41 231.11,-85.4"/>
<polygon fill="midnightblue" stroke="midnightblue" points="234.48,-84.45 228.43,-75.75 227.74,-86.32 234.48,-84.45"/>
</g>
<!-- Node10&#45;&gt;Node9 -->
<g id="edge17" class="edge">
<title>Node10&#45;&gt;Node9</title>
<path fill="none" stroke="midnightblue" d="M219.74,-116.12C186.81,-108.52 121.28,-93.15 56.08,-76.21"/>
<polygon fill="midnightblue" stroke="midnightblue" points="56.6,-72.73 46.04,-73.59 54.84,-79.5 56.6,-72.73"/>
</g>
<!-- Node11 -->
<g id="node11" class="node">
<title>Node11</title>
<g id="a_node11"><a xlink:title=" ">
<polygon fill="none" stroke="#bfbfbf" points="489,-56.5 489,-75.5 537,-75.5 537,-56.5 489,-56.5"/>
<text text-anchor="middle" x="513" y="-63.5" font-family="Helvetica,sans-Serif" font-size="10.00">stdint.h</text>
</a>
</g>
</g>
<!-- Node10&#45;&gt;Node11 -->
<g id="edge13" class="edge">
<title>Node10&#45;&gt;Node11</title>
<path fill="none" stroke="midnightblue" d="M262.12,-117.53C303.78,-110.57 399.44,-94.03 479,-76 479.1,-75.98 479.2,-75.95 479.3,-75.93"/>
<polygon fill="midnightblue" stroke="midnightblue" points="480.01,-79.36 488.91,-73.61 478.36,-72.56 480.01,-79.36"/>
</g>
<!-- Node12 -->
<g id="node12" class="node">
<title>Node12</title>
<g id="a_node12"><a xlink:title=" ">
<polygon fill="none" stroke="#bfbfbf" points="555.5,-56.5 555.5,-75.5 638.5,-75.5 638.5,-56.5 555.5,-56.5"/>
<text text-anchor="middle" x="597" y="-63.5" font-family="Helvetica,sans-Serif" font-size="10.00">cjson/cJSON.h</text>
</a>
</g>
</g>
<!-- Node10&#45;&gt;Node12 -->
<g id="edge14" class="edge">
<title>Node10&#45;&gt;Node12</title>
<path fill="none" stroke="midnightblue" d="M262.11,-118.09C310.26,-111.42 432.11,-94.29 545.07,-76.11"/>
<polygon fill="midnightblue" stroke="midnightblue" points="545.95,-79.51 555.27,-74.46 544.84,-72.6 545.95,-79.51"/>
</g>
<!-- Node13 -->
<g id="node13" class="node">
<title>Node13</title>
<g id="a_node13"><a xlink:title=" ">
<polygon fill="none" stroke="#bfbfbf" points="273.5,-56.5 273.5,-75.5 332.5,-75.5 332.5,-56.5 273.5,-56.5"/>
<text text-anchor="middle" x="303" y="-63.5" font-family="Helvetica,sans-Serif" font-size="10.00">sys/stat.h</text>
</a>
</g>
</g>
<!-- Node10&#45;&gt;Node13 -->
<g id="edge15" class="edge">
<title>Node10&#45;&gt;Node13</title>
<path fill="none" stroke="midnightblue" d="M250.96,-112.32C260.13,-104.34 273.94,-92.31 285.03,-82.65"/>
<polygon fill="midnightblue" stroke="midnightblue" points="287.62,-85.04 292.86,-75.83 283.02,-79.76 287.62,-85.04"/>
</g>
<!-- Node14 -->
<g id="node14" class="node">
<title>Node14</title>
<g id="a_node14"><a xlink:title=" ">
<polygon fill="none" stroke="#bfbfbf" points="350.5,-56.5 350.5,-75.5 415.5,-75.5 415.5,-56.5 350.5,-56.5"/>
<text text-anchor="middle" x="383" y="-63.5" font-family="Helvetica,sans-Serif" font-size="10.00">sys/types.h</text>
</a>
</g>
</g>
<!-- Node10&#45;&gt;Node14 -->
<g id="edge16" class="edge">
<title>Node10&#45;&gt;Node14</title>
<path fill="none" stroke="midnightblue" d="M262.26,-112.92C285.69,-104.01 323.64,-89.57 350.74,-79.27"/>
<polygon fill="midnightblue" stroke="midnightblue" points="352.08,-82.5 360.18,-75.68 349.59,-75.96 352.08,-82.5"/>
</g>
<!-- Node15 -->
<g id="node15" class="node">
<title>Node15</title>
<g id="a_node15"><a xlink:href="log_8h.html" target="_top" xlink:title=" ">
<polygon fill="none" stroke="black" points="433.5,-56.5 433.5,-75.5 470.5,-75.5 470.5,-56.5 433.5,-56.5"/>
<text text-anchor="middle" x="452" y="-63.5" font-family="Helvetica,sans-Serif" font-size="10.00">log.h</text>
</a>
</g>
</g>
<!-- Node10&#45;&gt;Node15 -->
<g id="edge18" class="edge">
<title>Node10&#45;&gt;Node15</title>
<path fill="none" stroke="midnightblue" d="M262.26,-116.28C294.83,-108.94 359.23,-94.01 423.49,-75.98"/>
<polygon fill="midnightblue" stroke="midnightblue" points="424.71,-79.28 433.38,-73.19 422.8,-72.54 424.71,-79.28"/>
</g>
<!-- Node16 -->
<g id="node16" class="node">
<title>Node16</title>
<g id="a_node16"><a xlink:title=" ">
<polygon fill="none" stroke="#bfbfbf" points="327.5,-0.5 327.5,-19.5 372.5,-19.5 372.5,-0.5 327.5,-0.5"/>
<text text-anchor="middle" x="350" y="-7.5" font-family="Helvetica,sans-Serif" font-size="10.00">stdio.h</text>
</a>
</g>
</g>
<!-- Node15&#45;&gt;Node16 -->
<g id="edge19" class="edge">
<title>Node15&#45;&gt;Node16</title>
<path fill="none" stroke="midnightblue" d="M435.61,-56.32C419.33,-47.7 394.13,-34.36 375.28,-24.39"/>
<polygon fill="midnightblue" stroke="midnightblue" points="376.82,-21.24 366.35,-19.65 373.55,-27.43 376.82,-21.24"/>
</g>
<!-- Node17 -->
<g id="node17" class="node">
<title>Node17</title>
<g id="a_node17"><a xlink:title=" ">
<polygon fill="none" stroke="#bfbfbf" points="390.5,-0.5 390.5,-19.5 441.5,-19.5 441.5,-0.5 390.5,-0.5"/>
<text text-anchor="middle" x="416" y="-7.5" font-family="Helvetica,sans-Serif" font-size="10.00">stdarg.h</text>
</a>
</g>
</g>
<!-- Node15&#45;&gt;Node17 -->
<g id="edge20" class="edge">
<title>Node15&#45;&gt;Node17</title>
<path fill="none" stroke="midnightblue" d="M446.06,-56.08C441.02,-48.53 433.66,-37.49 427.49,-28.23"/>
<polygon fill="midnightblue" stroke="midnightblue" points="430.29,-26.13 421.83,-19.75 424.47,-30.01 430.29,-26.13"/>
</g>
<!-- Node18 -->
<g id="node18" class="node">
<title>Node18</title>
<g id="a_node18"><a xlink:title=" ">
<polygon fill="none" stroke="#bfbfbf" points="460,-0.5 460,-19.5 516,-19.5 516,-0.5 460,-0.5"/>
<text text-anchor="middle" x="488" y="-7.5" font-family="Helvetica,sans-Serif" font-size="10.00">stdbool.h</text>
</a>
</g>
</g>
<!-- Node15&#45;&gt;Node18 -->
<g id="edge21" class="edge">
<title>Node15&#45;&gt;Node18</title>
<path fill="none" stroke="midnightblue" d="M457.94,-56.08C462.98,-48.53 470.34,-37.49 476.51,-28.23"/>
<polygon fill="midnightblue" stroke="midnightblue" points="479.53,-30.01 482.17,-19.75 473.71,-26.13 479.53,-30.01"/>
</g>
<!-- Node19 -->
<g id="node19" class="node">
<title>Node19</title>
<g id="a_node19"><a xlink:title=" ">
<polygon fill="none" stroke="#bfbfbf" points="534.5,-0.5 534.5,-19.5 577.5,-19.5 577.5,-0.5 534.5,-0.5"/>
<text text-anchor="middle" x="556" y="-7.5" font-family="Helvetica,sans-Serif" font-size="10.00">time.h</text>
</a>
</g>
</g>
<!-- Node15&#45;&gt;Node19 -->
<g id="edge22" class="edge">
<title>Node15&#45;&gt;Node19</title>
<path fill="none" stroke="midnightblue" d="M468.71,-56.32C485.31,-47.7 511,-34.36 530.22,-24.39"/>
<polygon fill="midnightblue" stroke="midnightblue" points="532.07,-27.37 539.33,-19.65 528.84,-21.16 532.07,-27.37"/>
</g>
</g>
</svg>
