<?xml version="1.0" encoding="UTF-8" standalone="no"?>
<!DOCTYPE svg PUBLIC "-//W3C//DTD SVG 1.1//EN"
 "http://www.w3.org/Graphics/SVG/1.1/DTD/svg11.dtd">
<!-- Generated by graphviz version 2.49.3 (20211027.1534)
 -->
<!-- Title: include/BOM/stations.h Pages: 1 -->
<svg width="601pt" height="274pt"
 viewBox="0.00 0.00 600.50 274.00" xmlns="http://www.w3.org/2000/svg" xmlns:xlink="http://www.w3.org/1999/xlink">
<g id="graph0" class="graph" transform="scale(1 1) rotate(0) translate(4 270)">
<title>include/BOM/stations.h</title>
<!-- Node1 -->
<g id="node1" class="node">
<title>Node1</title>
<g id="a_node1"><a xlink:title=" ">
<polygon fill="#bfbfbf" stroke="black" points="192.5,-246.5 192.5,-265.5 310.5,-265.5 310.5,-246.5 192.5,-246.5"/>
<text text-anchor="middle" x="251.5" y="-253.5" font-family="Helvetica,sans-Serif" font-size="10.00">include/BOM/stations.h</text>
</a>
</g>
</g>
<!-- Node2 -->
<g id="node2" class="node">
<title>Node2</title>
<g id="a_node2"><a xlink:href="historical__weather_8h.html" target="_top" xlink:title=" ">
<polygon fill="none" stroke="black" points="0,-123.5 0,-153.5 115,-153.5 115,-123.5 0,-123.5"/>
<text text-anchor="start" x="8" y="-141.5" font-family="Helvetica,sans-Serif" font-size="10.00">include/BOM/historical</text>
<text text-anchor="middle" x="57.5" y="-130.5" font-family="Helvetica,sans-Serif" font-size="10.00">_weather.h</text>
</a>
</g>
</g>
<!-- Node1&#45;&gt;Node2 -->
<g id="edge1" class="edge">
<title>Node1&#45;&gt;Node2</title>
<path fill="none" stroke="midnightblue" d="M207.23,-243.61C183.11,-236.21 153.39,-225.12 129.5,-210 104.96,-194.47 81.97,-169.44 68.84,-153.76"/>
<polygon fill="midnightblue" stroke="midnightblue" points="206.27,-246.97 216.85,-246.45 208.26,-240.26 206.27,-246.97"/>
</g>
<!-- Node3 -->
<g id="node3" class="node">
<title>Node3</title>
<g id="a_node3"><a xlink:href="main_8h.html" target="_top" xlink:title=" ">
<polygon fill="none" stroke="black" points="133,-62 133,-81 212,-81 212,-62 133,-62"/>
<text text-anchor="middle" x="172.5" y="-69" font-family="Helvetica,sans-Serif" font-size="10.00">include/main.h</text>
</a>
</g>
</g>
<!-- Node1&#45;&gt;Node3 -->
<g id="edge8" class="edge">
<title>Node1&#45;&gt;Node3</title>
<path fill="none" stroke="midnightblue" d="M226.21,-241.17C214.49,-233.49 201.44,-222.88 193.5,-210 167.27,-167.45 169.73,-103.81 171.63,-81.01"/>
<polygon fill="midnightblue" stroke="midnightblue" points="224.44,-244.2 234.8,-246.46 228.11,-238.24 224.44,-244.2"/>
</g>
<!-- Node6 -->
<g id="node6" class="node">
<title>Node6</title>
<g id="a_node6"><a xlink:href="harvest__areas_8h.html" target="_top" xlink:title=" ">
<polygon fill="none" stroke="black" points="473.5,-123.5 473.5,-153.5 583.5,-153.5 583.5,-123.5 473.5,-123.5"/>
<text text-anchor="start" x="481.5" y="-141.5" font-family="Helvetica,sans-Serif" font-size="10.00">include/FoodAuthority</text>
<text text-anchor="middle" x="528.5" y="-130.5" font-family="Helvetica,sans-Serif" font-size="10.00">/harvest_areas.h</text>
</a>
</g>
</g>
<!-- Node1&#45;&gt;Node6 -->
<g id="edge5" class="edge">
<title>Node1&#45;&gt;Node6</title>
<path fill="none" stroke="midnightblue" d="M270.09,-240.1C289.07,-225.53 319.87,-203.6 349.5,-190 371.51,-179.9 429.18,-164.3 473.17,-153.11"/>
<polygon fill="midnightblue" stroke="midnightblue" points="267.74,-237.5 262.01,-246.41 272.05,-243.01 267.74,-237.5"/>
</g>
<!-- Node8 -->
<g id="node8" class="node">
<title>Node8</title>
<g id="a_node8"><a xlink:href="transform_8h.html" target="_top" xlink:title=" ">
<polygon fill="none" stroke="black" points="202,-190.5 202,-209.5 301,-209.5 301,-190.5 202,-190.5"/>
<text text-anchor="middle" x="251.5" y="-197.5" font-family="Helvetica,sans-Serif" font-size="10.00">include/transform.h</text>
</a>
</g>
</g>
<!-- Node1&#45;&gt;Node8 -->
<g id="edge9" class="edge">
<title>Node1&#45;&gt;Node8</title>
<path fill="none" stroke="midnightblue" d="M251.5,-235.8C251.5,-226.91 251.5,-216.78 251.5,-209.75"/>
<polygon fill="midnightblue" stroke="midnightblue" points="248,-236.08 251.5,-246.08 255,-236.08 248,-236.08"/>
</g>
<!-- Node12 -->
<g id="node12" class="node">
<title>Node12</title>
<g id="a_node12"><a xlink:href="stations_8c.html" target="_top" xlink:title=" ">
<polygon fill="none" stroke="black" points="358,-190.5 358,-209.5 459,-209.5 459,-190.5 358,-190.5"/>
<text text-anchor="middle" x="408.5" y="-197.5" font-family="Helvetica,sans-Serif" font-size="10.00">src/BOM/stations.c</text>
</a>
</g>
</g>
<!-- Node1&#45;&gt;Node12 -->
<g id="edge17" class="edge">
<title>Node1&#45;&gt;Node12</title>
<path fill="none" stroke="midnightblue" d="M285.89,-243.17C315.45,-233 357.37,-218.59 383.74,-209.52"/>
<polygon fill="midnightblue" stroke="midnightblue" points="284.7,-239.88 276.38,-246.44 286.97,-246.5 284.7,-239.88"/>
</g>
<!-- Node2&#45;&gt;Node3 -->
<g id="edge2" class="edge">
<title>Node2&#45;&gt;Node3</title>
<path fill="none" stroke="midnightblue" d="M91.16,-118.47C113.12,-106.06 140.7,-90.47 157.45,-81.01"/>
<polygon fill="midnightblue" stroke="midnightblue" points="89.44,-115.43 82.45,-123.4 92.88,-121.52 89.44,-115.43"/>
</g>
<!-- Node5 -->
<g id="node5" class="node">
<title>Node5</title>
<g id="a_node5"><a xlink:href="historical__weather_8c.html" target="_top" xlink:title=" ">
<polygon fill="none" stroke="black" points="8.5,-56.5 8.5,-86.5 106.5,-86.5 106.5,-56.5 8.5,-56.5"/>
<text text-anchor="start" x="16.5" y="-74.5" font-family="Helvetica,sans-Serif" font-size="10.00">src/BOM/historical</text>
<text text-anchor="middle" x="57.5" y="-63.5" font-family="Helvetica,sans-Serif" font-size="10.00">_weather.c</text>
</a>
</g>
</g>
<!-- Node2&#45;&gt;Node5 -->
<g id="edge4" class="edge">
<title>Node2&#45;&gt;Node5</title>
<path fill="none" stroke="midnightblue" d="M57.5,-113.11C57.5,-104.15 57.5,-94.32 57.5,-86.58"/>
<polygon fill="midnightblue" stroke="midnightblue" points="54,-113.4 57.5,-123.4 61,-113.4 54,-113.4"/>
</g>
<!-- Node4 -->
<g id="node4" class="node">
<title>Node4</title>
<g id="a_node4"><a xlink:href="main_8c.html" target="_top" xlink:title=" ">
<polygon fill="none" stroke="black" points="141.5,-0.5 141.5,-19.5 203.5,-19.5 203.5,-0.5 141.5,-0.5"/>
<text text-anchor="middle" x="172.5" y="-7.5" font-family="Helvetica,sans-Serif" font-size="10.00">src/main.c</text>
</a>
</g>
</g>
<!-- Node3&#45;&gt;Node4 -->
<g id="edge3" class="edge">
<title>Node3&#45;&gt;Node4</title>
<path fill="none" stroke="midnightblue" d="M172.5,-51.82C172.5,-41 172.5,-27.9 172.5,-19.51"/>
<polygon fill="midnightblue" stroke="midnightblue" points="169,-51.98 172.5,-61.98 176,-51.98 169,-51.98"/>
</g>
<!-- Node6&#45;&gt;Node3 -->
<g id="edge6" class="edge">
<title>Node6&#45;&gt;Node3</title>
<path fill="none" stroke="midnightblue" d="M463.4,-122.89C355.41,-103.34 324.99,-109.86 221.5,-87 214.05,-85.35 206.08,-83.18 198.77,-81.01"/>
<polygon fill="midnightblue" stroke="midnightblue" points="462.93,-126.37 473.4,-124.74 464.2,-119.48 462.93,-126.37"/>
</g>
<!-- Node7 -->
<g id="node7" class="node">
<title>Node7</title>
<g id="a_node7"><a xlink:href="harvest__areas_8c.html" target="_top" xlink:title=" ">
<polygon fill="none" stroke="black" points="464.5,-56.5 464.5,-86.5 592.5,-86.5 592.5,-56.5 464.5,-56.5"/>
<text text-anchor="start" x="472.5" y="-74.5" font-family="Helvetica,sans-Serif" font-size="10.00">src/FoodAuthority/harvest</text>
<text text-anchor="middle" x="528.5" y="-63.5" font-family="Helvetica,sans-Serif" font-size="10.00">_areas.c</text>
</a>
</g>
</g>
<!-- Node6&#45;&gt;Node7 -->
<g id="edge7" class="edge">
<title>Node6&#45;&gt;Node7</title>
<path fill="none" stroke="midnightblue" d="M528.5,-113.11C528.5,-104.15 528.5,-94.32 528.5,-86.58"/>
<polygon fill="midnightblue" stroke="midnightblue" points="525,-113.4 528.5,-123.4 532,-113.4 525,-113.4"/>
</g>
<!-- Node8&#45;&gt;Node2 -->
<g id="edge10" class="edge">
<title>Node8&#45;&gt;Node2</title>
<path fill="none" stroke="midnightblue" d="M213.95,-187.48C182.32,-177.78 136.96,-163.87 103.22,-153.52"/>
<polygon fill="midnightblue" stroke="midnightblue" points="213.12,-190.89 223.7,-190.48 215.17,-184.2 213.12,-190.89"/>
</g>
<!-- Node8&#45;&gt;Node3 -->
<g id="edge15" class="edge">
<title>Node8&#45;&gt;Node3</title>
<path fill="none" stroke="midnightblue" d="M230.54,-184.08C220.6,-176.1 209.24,-165.56 201.5,-154 185.63,-130.29 177.34,-96.88 174.12,-81.23"/>
<polygon fill="midnightblue" stroke="midnightblue" points="228.71,-187.08 238.78,-190.38 232.96,-181.52 228.71,-187.08"/>
</g>
<!-- Node8&#45;&gt;Node6 -->
<g id="edge11" class="edge">
<title>Node8&#45;&gt;Node6</title>
<path fill="none" stroke="midnightblue" d="M302.75,-188.39C345.92,-179.4 409.3,-166.08 464.5,-154 467.39,-153.37 470.36,-152.71 473.35,-152.05"/>
<polygon fill="midnightblue" stroke="midnightblue" points="301.85,-185 292.77,-190.47 303.27,-191.86 301.85,-185"/>
</g>
<!-- Node9 -->
<g id="node9" class="node">
<title>Node9</title>
<g id="a_node9"><a xlink:href="timeseries_8h.html" target="_top" xlink:title=" ">
<polygon fill="none" stroke="black" points="210,-129 210,-148 355,-148 355,-129 210,-129"/>
<text text-anchor="middle" x="282.5" y="-136" font-family="Helvetica,sans-Serif" font-size="10.00">include/IBM_EIS/timeseries.h</text>
</a>
</g>
</g>
<!-- Node8&#45;&gt;Node9 -->
<g id="edge12" class="edge">
<title>Node8&#45;&gt;Node9</title>
<path fill="none" stroke="midnightblue" d="M260.7,-181.33C266.44,-170.33 273.56,-156.66 278.07,-148.01"/>
<polygon fill="midnightblue" stroke="midnightblue" points="257.46,-179.99 255.94,-190.48 263.67,-183.22 257.46,-179.99"/>
</g>
<!-- Node11 -->
<g id="node11" class="node">
<title>Node11</title>
<g id="a_node11"><a xlink:href="transform_8c.html" target="_top" xlink:title=" ">
<polygon fill="none" stroke="black" points="373.5,-129 373.5,-148 455.5,-148 455.5,-129 373.5,-129"/>
<text text-anchor="middle" x="414.5" y="-136" font-family="Helvetica,sans-Serif" font-size="10.00">src/transform.c</text>
</a>
</g>
</g>
<!-- Node8&#45;&gt;Node11 -->
<g id="edge16" class="edge">
<title>Node8&#45;&gt;Node11</title>
<path fill="none" stroke="midnightblue" d="M284.56,-186.93C316.24,-175.37 363.25,-158.21 391.19,-148.01"/>
<polygon fill="midnightblue" stroke="midnightblue" points="283.05,-183.76 274.85,-190.48 285.45,-190.33 283.05,-183.76"/>
</g>
<!-- Node9&#45;&gt;Node3 -->
<g id="edge13" class="edge">
<title>Node9&#45;&gt;Node3</title>
<path fill="none" stroke="midnightblue" d="M259,-123.62C237.21,-110.74 205.46,-91.98 187.1,-81.13"/>
<polygon fill="midnightblue" stroke="midnightblue" points="257.28,-126.66 267.66,-128.73 260.84,-120.63 257.28,-126.66"/>
</g>
<!-- Node10 -->
<g id="node10" class="node">
<title>Node10</title>
<g id="a_node10"><a xlink:href="timeseries_8c.html" target="_top" xlink:title=" ">
<polygon fill="none" stroke="black" points="230.5,-62 230.5,-81 358.5,-81 358.5,-62 230.5,-62"/>
<text text-anchor="middle" x="294.5" y="-69" font-family="Helvetica,sans-Serif" font-size="10.00">src/IBM_EIS/timeseries.c</text>
</a>
</g>
</g>
<!-- Node9&#45;&gt;Node10 -->
<g id="edge14" class="edge">
<title>Node9&#45;&gt;Node10</title>
<path fill="none" stroke="midnightblue" d="M286,-118.54C288.28,-106.17 291.15,-90.62 292.91,-81.13"/>
<polygon fill="midnightblue" stroke="midnightblue" points="282.49,-118.26 284.12,-128.73 289.38,-119.54 282.49,-118.26"/>
</g>
</g>
</svg>
