<?xml version="1.0" encoding="UTF-8" standalone="no"?>
<!DOCTYPE svg PUBLIC "-//W3C//DTD SVG 1.1//EN"
 "http://www.w3.org/Graphics/SVG/1.1/DTD/svg11.dtd">
<!-- Generated by graphviz version 2.43.0 (0)
 -->
<!-- Title: include/BOM/stations.h Pages: 1 -->
<svg width="645pt" height="269pt"
 viewBox="0.00 0.00 645.00 269.00" xmlns="http://www.w3.org/2000/svg" xmlns:xlink="http://www.w3.org/1999/xlink">
<g id="graph0" class="graph" transform="scale(1 1) rotate(0) translate(4 265)">
<title>include/BOM/stations.h</title>
<!-- Node1 -->
<g id="node1" class="node">
<title>Node1</title>
<g id="a_node1"><a xlink:title=" ">
<polygon fill="#999999" stroke="#666666" points="332.5,-261 203.5,-261 203.5,-242 332.5,-242 332.5,-261"/>
<text text-anchor="middle" x="268" y="-249" font-family="Helvetica,sans-Serif" font-size="10.00">include/BOM/stations.h</text>
</a>
</g>
</g>
<!-- Node2 -->
<g id="node2" class="node">
<title>Node2</title>
<g id="a_node2"><a xlink:href="historical__weather_8h.html" target="_top" xlink:title=" ">
<polygon fill="white" stroke="#666666" points="126,-151 0,-151 0,-121 126,-121 126,-151"/>
<text text-anchor="start" x="8" y="-139" font-family="Helvetica,sans-Serif" font-size="10.00">include/BOM/historical</text>
<text text-anchor="middle" x="63" y="-128" font-family="Helvetica,sans-Serif" font-size="10.00">_weather.h</text>
</a>
</g>
</g>
<!-- Node1&#45;&gt;Node2 -->
<g id="edge1" class="edge">
<title>Node1&#45;&gt;Node2</title>
<path fill="none" stroke="#63b8ff" d="M221.87,-239.26C196.63,-231.96 165.41,-220.98 140,-206 114.49,-190.96 89.87,-166.64 75.6,-151.26"/>
<polygon fill="#63b8ff" stroke="#63b8ff" points="221.01,-242.65 231.58,-241.98 222.89,-235.91 221.01,-242.65"/>
</g>
<!-- Node3 -->
<g id="node3" class="node">
<title>Node3</title>
<g id="a_node3"><a xlink:href="main_8h.html" target="_top" xlink:title=" ">
<polygon fill="white" stroke="#666666" points="229.5,-79.5 140.5,-79.5 140.5,-60.5 229.5,-60.5 229.5,-79.5"/>
<text text-anchor="middle" x="185" y="-67.5" font-family="Helvetica,sans-Serif" font-size="10.00">include/main.h</text>
</a>
</g>
</g>
<!-- Node1&#45;&gt;Node3 -->
<g id="edge8" class="edge">
<title>Node1&#45;&gt;Node3</title>
<path fill="none" stroke="#63b8ff" d="M239.02,-237.13C226.08,-229.73 211.8,-219.31 203,-206 176.15,-165.36 180.85,-102.71 183.72,-79.79"/>
<polygon fill="#63b8ff" stroke="#63b8ff" points="237.63,-240.36 248.1,-241.99 240.93,-234.19 237.63,-240.36"/>
</g>
<!-- Node6 -->
<g id="node6" class="node">
<title>Node6</title>
<g id="a_node6"><a xlink:href="harvest__areas_8h.html" target="_top" xlink:title=" ">
<polygon fill="white" stroke="#666666" points="627.5,-151 504.5,-151 504.5,-121 627.5,-121 627.5,-151"/>
<text text-anchor="start" x="512.5" y="-139" font-family="Helvetica,sans-Serif" font-size="10.00">include/FoodAuthority</text>
<text text-anchor="middle" x="566" y="-128" font-family="Helvetica,sans-Serif" font-size="10.00">/harvest_areas.h</text>
</a>
</g>
</g>
<!-- Node1&#45;&gt;Node6 -->
<g id="edge5" class="edge">
<title>Node1&#45;&gt;Node6</title>
<path fill="none" stroke="#63b8ff" d="M287.92,-235.85C308.17,-221.58 340.91,-200.15 372,-187 395.7,-176.97 456.84,-161.83 504.21,-150.83"/>
<polygon fill="#63b8ff" stroke="#63b8ff" points="285.64,-233.19 279.54,-241.86 289.71,-238.88 285.64,-233.19"/>
</g>
<!-- Node8 -->
<g id="node8" class="node">
<title>Node8</title>
<g id="a_node8"><a xlink:href="transform_8h.html" target="_top" xlink:title=" ">
<polygon fill="white" stroke="#666666" points="324,-206 212,-206 212,-187 324,-187 324,-206"/>
<text text-anchor="middle" x="268" y="-194" font-family="Helvetica,sans-Serif" font-size="10.00">include/transform.h</text>
</a>
</g>
</g>
<!-- Node1&#45;&gt;Node8 -->
<g id="edge9" class="edge">
<title>Node1&#45;&gt;Node8</title>
<path fill="none" stroke="#63b8ff" d="M268,-231.66C268,-222.93 268,-212.99 268,-206.09"/>
<polygon fill="#63b8ff" stroke="#63b8ff" points="264.5,-231.75 268,-241.75 271.5,-231.75 264.5,-231.75"/>
</g>
<!-- Node12 -->
<g id="node12" class="node">
<title>Node12</title>
<g id="a_node12"><a xlink:href="stations_8c.html" target="_top" xlink:title=" ">
<polygon fill="white" stroke="#666666" points="487.5,-206 380.5,-206 380.5,-187 487.5,-187 487.5,-206"/>
<text text-anchor="middle" x="434" y="-194" font-family="Helvetica,sans-Serif" font-size="10.00">src/BOM/stations.c</text>
</a>
</g>
</g>
<!-- Node1&#45;&gt;Node12 -->
<g id="edge17" class="edge">
<title>Node1&#45;&gt;Node12</title>
<path fill="none" stroke="#63b8ff" d="M304.25,-238.93C335.25,-229.03 379.17,-215.01 407.12,-206.08"/>
<polygon fill="#63b8ff" stroke="#63b8ff" points="303.13,-235.61 294.67,-241.98 305.26,-242.28 303.13,-235.61"/>
</g>
<!-- Node2&#45;&gt;Node3 -->
<g id="edge2" class="edge">
<title>Node2&#45;&gt;Node3</title>
<path fill="none" stroke="#63b8ff" d="M98.65,-116.3C121.83,-104.14 150.96,-88.86 168.76,-79.52"/>
<polygon fill="#63b8ff" stroke="#63b8ff" points="97,-113.21 89.77,-120.95 100.25,-119.41 97,-113.21"/>
</g>
<!-- Node5 -->
<g id="node5" class="node">
<title>Node5</title>
<g id="a_node5"><a xlink:href="historical__weather_8c.html" target="_top" xlink:title=" ">
<polygon fill="white" stroke="#666666" points="115.5,-85 10.5,-85 10.5,-55 115.5,-55 115.5,-85"/>
<text text-anchor="start" x="18.5" y="-73" font-family="Helvetica,sans-Serif" font-size="10.00">src/BOM/historical</text>
<text text-anchor="middle" x="63" y="-62" font-family="Helvetica,sans-Serif" font-size="10.00">_weather.c</text>
</a>
</g>
</g>
<!-- Node2&#45;&gt;Node5 -->
<g id="edge4" class="edge">
<title>Node2&#45;&gt;Node5</title>
<path fill="none" stroke="#63b8ff" d="M63,-110.54C63,-101.96 63,-92.61 63,-85.16"/>
<polygon fill="#63b8ff" stroke="#63b8ff" points="59.5,-110.8 63,-120.8 66.5,-110.8 59.5,-110.8"/>
</g>
<!-- Node4 -->
<g id="node4" class="node">
<title>Node4</title>
<g id="a_node4"><a xlink:href="main_8c.html" target="_top" xlink:title=" ">
<polygon fill="white" stroke="#666666" points="218.5,-19 151.5,-19 151.5,0 218.5,0 218.5,-19"/>
<text text-anchor="middle" x="185" y="-7" font-family="Helvetica,sans-Serif" font-size="10.00">src/main.c</text>
</a>
</g>
</g>
<!-- Node3&#45;&gt;Node4 -->
<g id="edge3" class="edge">
<title>Node3&#45;&gt;Node4</title>
<path fill="none" stroke="#63b8ff" d="M185,-50.16C185,-39.74 185,-27.3 185,-19.17"/>
<polygon fill="#63b8ff" stroke="#63b8ff" points="181.5,-50.37 185,-60.37 188.5,-50.37 181.5,-50.37"/>
</g>
<!-- Node6&#45;&gt;Node3 -->
<g id="edge6" class="edge">
<title>Node6&#45;&gt;Node3</title>
<path fill="none" stroke="#63b8ff" d="M494.6,-121.01C380,-102.16 348.6,-106.84 239,-85 231.31,-83.47 223.08,-81.5 215.42,-79.53"/>
<polygon fill="#63b8ff" stroke="#63b8ff" points="494.02,-124.46 504.46,-122.65 495.18,-117.55 494.02,-124.46"/>
</g>
<!-- Node7 -->
<g id="node7" class="node">
<title>Node7</title>
<g id="a_node7"><a xlink:href="harvest__areas_8c.html" target="_top" xlink:title=" ">
<polygon fill="white" stroke="#666666" points="637,-85 495,-85 495,-55 637,-55 637,-85"/>
<text text-anchor="start" x="503" y="-73" font-family="Helvetica,sans-Serif" font-size="10.00">src/FoodAuthority/harvest</text>
<text text-anchor="middle" x="566" y="-62" font-family="Helvetica,sans-Serif" font-size="10.00">_areas.c</text>
</a>
</g>
</g>
<!-- Node6&#45;&gt;Node7 -->
<g id="edge7" class="edge">
<title>Node6&#45;&gt;Node7</title>
<path fill="none" stroke="#63b8ff" d="M566,-110.54C566,-101.96 566,-92.61 566,-85.16"/>
<polygon fill="#63b8ff" stroke="#63b8ff" points="562.5,-110.8 566,-120.8 569.5,-110.8 562.5,-110.8"/>
</g>
<!-- Node8&#45;&gt;Node2 -->
<g id="edge10" class="edge">
<title>Node8&#45;&gt;Node2</title>
<path fill="none" stroke="#63b8ff" d="M228.4,-184.2C195.27,-174.75 147.86,-161.22 112.28,-151.06"/>
<polygon fill="#63b8ff" stroke="#63b8ff" points="227.61,-187.62 238.19,-186.99 229.54,-180.88 227.61,-187.62"/>
</g>
<!-- Node8&#45;&gt;Node3 -->
<g id="edge15" class="edge">
<title>Node8&#45;&gt;Node3</title>
<path fill="none" stroke="#63b8ff" d="M243.68,-181.3C232.35,-173.6 219.53,-163.17 211,-151 195.08,-128.27 188.47,-95.21 186.12,-79.68"/>
<polygon fill="#63b8ff" stroke="#63b8ff" points="242.03,-184.4 252.33,-186.86 245.82,-178.51 242.03,-184.4"/>
</g>
<!-- Node8&#45;&gt;Node6 -->
<g id="edge11" class="edge">
<title>Node8&#45;&gt;Node6</title>
<path fill="none" stroke="#63b8ff" d="M321.57,-185.02C367.57,-176.01 435.65,-162.67 495,-151 498.08,-150.39 501.24,-149.77 504.43,-149.15"/>
<polygon fill="#63b8ff" stroke="#63b8ff" points="320.66,-181.63 311.52,-186.98 322.01,-188.5 320.66,-181.63"/>
</g>
<!-- Node9 -->
<g id="node9" class="node">
<title>Node9</title>
<g id="a_node9"><a xlink:href="timeseries_8h.html" target="_top" xlink:title=" ">
<polygon fill="white" stroke="#666666" points="378,-145.5 220,-145.5 220,-126.5 378,-126.5 378,-145.5"/>
<text text-anchor="middle" x="299" y="-133.5" font-family="Helvetica,sans-Serif" font-size="10.00">include/IBM_EIS/timeseries.h</text>
</a>
</g>
</g>
<!-- Node8&#45;&gt;Node9 -->
<g id="edge12" class="edge">
<title>Node8&#45;&gt;Node9</title>
<path fill="none" stroke="#63b8ff" d="M277.28,-177.98C282.94,-167.31 289.91,-154.15 294.41,-145.67"/>
<polygon fill="#63b8ff" stroke="#63b8ff" points="274.16,-176.39 272.57,-186.87 280.35,-179.67 274.16,-176.39"/>
</g>
<!-- Node11 -->
<g id="node11" class="node">
<title>Node11</title>
<g id="a_node11"><a xlink:href="transform_8c.html" target="_top" xlink:title=" ">
<polygon fill="white" stroke="#666666" points="486,-145.5 396,-145.5 396,-126.5 486,-126.5 486,-145.5"/>
<text text-anchor="middle" x="441" y="-133.5" font-family="Helvetica,sans-Serif" font-size="10.00">src/transform.c</text>
</a>
</g>
</g>
<!-- Node8&#45;&gt;Node11 -->
<g id="edge16" class="edge">
<title>Node8&#45;&gt;Node11</title>
<path fill="none" stroke="#63b8ff" d="M302.98,-183.67C336.44,-172.36 386.08,-155.57 415.81,-145.52"/>
<polygon fill="#63b8ff" stroke="#63b8ff" points="301.51,-180.47 293.16,-186.99 303.75,-187.11 301.51,-180.47"/>
</g>
<!-- Node9&#45;&gt;Node3 -->
<g id="edge13" class="edge">
<title>Node9&#45;&gt;Node3</title>
<path fill="none" stroke="#63b8ff" d="M274.7,-121.36C252.26,-108.76 219.59,-90.42 200.5,-79.7"/>
<polygon fill="#63b8ff" stroke="#63b8ff" points="273.19,-124.53 283.63,-126.37 276.62,-118.42 273.19,-124.53"/>
</g>
<!-- Node10 -->
<g id="node10" class="node">
<title>Node10</title>
<g id="a_node10"><a xlink:href="timeseries_8c.html" target="_top" xlink:title=" ">
<polygon fill="white" stroke="#666666" points="384,-79.5 248,-79.5 248,-60.5 384,-60.5 384,-79.5"/>
<text text-anchor="middle" x="316" y="-67.5" font-family="Helvetica,sans-Serif" font-size="10.00">src/IBM_EIS/timeseries.c</text>
</a>
</g>
</g>
<!-- Node9&#45;&gt;Node10 -->
<g id="edge14" class="edge">
<title>Node9&#45;&gt;Node10</title>
<path fill="none" stroke="#63b8ff" d="M303.93,-116.45C307.12,-104.43 311.13,-89.32 313.63,-79.91"/>
<polygon fill="#63b8ff" stroke="#63b8ff" points="300.48,-115.81 301.29,-126.37 307.24,-117.6 300.48,-115.81"/>
</g>
</g>
</svg>
