<?xml version="1.0" encoding="UTF-8" standalone="no"?>
<!DOCTYPE svg PUBLIC "-//W3C//DTD SVG 1.1//EN"
 "http://www.w3.org/Graphics/SVG/1.1/DTD/svg11.dtd">
<!-- Generated by graphviz version 2.49.3 (20211027.1534)
 -->
<!-- Title: WW_Locations_TypeDef Pages: 1 -->
<svg width="132pt" height="237pt"
 viewBox="0.00 0.00 132.00 237.00" xmlns="http://www.w3.org/2000/svg" xmlns:xlink="http://www.w3.org/1999/xlink">
<g id="graph0" class="graph" transform="scale(1 1) rotate(0) translate(4 233)">
<title>WW_Locations_TypeDef</title>
<!-- Node1 -->
<g id="node1" class="node">
<title>Node1</title>
<g id="a_node1"><a xlink:title="Locations of Willy Weather stations.">
<polygon fill="#bfbfbf" stroke="black" points="0,-0.5 0,-57.5 124,-57.5 124,-0.5 0,-0.5"/>
<text text-anchor="middle" x="62" y="-45.5" font-family="Helvetica,sans-Serif" font-size="10.00">WW_Locations_TypeDef</text>
<polyline fill="none" stroke="black" points="0,-38.5 124,-38.5 "/>
<text text-anchor="start" x="8" y="-26.5" font-family="Helvetica,sans-Serif" font-size="10.00">+ count</text>
<polyline fill="none" stroke="black" points="0,-19.5 124,-19.5 "/>
<text text-anchor="middle" x="62" y="-7.5" font-family="Helvetica,sans-Serif" font-size="10.00"> </text>
</a>
</g>
</g>
<!-- Node2 -->
<g id="node2" class="node">
<title>Node2</title>
<g id="a_node2"><a xlink:href="struct_w_w___location___type_def.html" target="_top" xlink:title="Location data from Willy Weather request.">
<polygon fill="none" stroke="black" points="2.5,-105.5 2.5,-228.5 121.5,-228.5 121.5,-105.5 2.5,-105.5"/>
<text text-anchor="middle" x="62" y="-216.5" font-family="Helvetica,sans-Serif" font-size="10.00">WW_Location_TypeDef</text>
<polyline fill="none" stroke="black" points="2.5,-209.5 121.5,-209.5 "/>
<text text-anchor="start" x="10.5" y="-197.5" font-family="Helvetica,sans-Serif" font-size="10.00">+ id</text>
<text text-anchor="start" x="10.5" y="-186.5" font-family="Helvetica,sans-Serif" font-size="10.00">+ location</text>
<text text-anchor="start" x="10.5" y="-175.5" font-family="Helvetica,sans-Serif" font-size="10.00">+ region</text>
<text text-anchor="start" x="10.5" y="-164.5" font-family="Helvetica,sans-Serif" font-size="10.00">+ state</text>
<text text-anchor="start" x="10.5" y="-153.5" font-family="Helvetica,sans-Serif" font-size="10.00">+ postcode</text>
<text text-anchor="start" x="10.5" y="-142.5" font-family="Helvetica,sans-Serif" font-size="10.00">+ latitude</text>
<text text-anchor="start" x="10.5" y="-131.5" font-family="Helvetica,sans-Serif" font-size="10.00">+ longitude</text>
<polyline fill="none" stroke="black" points="2.5,-124.5 121.5,-124.5 "/>
<text text-anchor="middle" x="62" y="-112.5" font-family="Helvetica,sans-Serif" font-size="10.00"> </text>
</a>
</g>
</g>
<!-- Node2&#45;&gt;Node1 -->
<g id="edge1" class="edge">
<title>Node2&#45;&gt;Node1</title>
<path fill="none" stroke="#404040" d="M62,-105.16C62,-93.27 62,-81.07 62,-70.07"/>
<polygon fill="none" stroke="#404040" points="62,-69.78 58,-63.78 62,-57.78 66,-63.78 62,-69.78"/>
<text text-anchor="middle" x="86" y="-79" font-family="Helvetica,sans-Serif" font-size="10.00"> +locations</text>
</g>
</g>
</svg>
