<?xml version="1.0" encoding="UTF-8" standalone="no"?>
<!DOCTYPE svg PUBLIC "-//W3C//DTD SVG 1.1//EN"
 "http://www.w3.org/Graphics/SVG/1.1/DTD/svg11.dtd">
<!-- Generated by graphviz version 2.49.3 (20211027.1534)
 -->
<!-- Title: T_LocationsLookup_TypeDef Pages: 1 -->
<svg width="152pt" height="281pt"
 viewBox="0.00 0.00 152.00 281.00" xmlns="http://www.w3.org/2000/svg" xmlns:xlink="http://www.w3.org/1999/xlink">
<g id="graph0" class="graph" transform="scale(1 1) rotate(0) translate(4 277)">
<title>T_LocationsLookup_TypeDef</title>
<!-- Node1 -->
<g id="node1" class="node">
<title>Node1</title>
<g id="a_node1"><a xlink:title=" ">
<polygon fill="#bfbfbf" stroke="black" points="0,-0.5 0,-57.5 144,-57.5 144,-0.5 0,-0.5"/>
<text text-anchor="middle" x="72" y="-45.5" font-family="Helvetica,sans-Serif" font-size="10.00">T_LocationsLookup_TypeDef</text>
<polyline fill="none" stroke="black" points="0,-38.5 144,-38.5 "/>
<text text-anchor="start" x="8" y="-26.5" font-family="Helvetica,sans-Serif" font-size="10.00">+ count</text>
<polyline fill="none" stroke="black" points="0,-19.5 144,-19.5 "/>
<text text-anchor="middle" x="72" y="-7.5" font-family="Helvetica,sans-Serif" font-size="10.00"> </text>
</a>
</g>
</g>
<!-- Node2 -->
<g id="node2" class="node">
<title>Node2</title>
<g id="a_node2"><a xlink:href="struct_t___location_lookup___type_def.html" target="_top" xlink:title=" ">
<polygon fill="none" stroke="black" points="2.5,-105.5 2.5,-272.5 141.5,-272.5 141.5,-105.5 2.5,-105.5"/>
<text text-anchor="middle" x="72" y="-260.5" font-family="Helvetica,sans-Serif" font-size="10.00">T_LocationLookup_TypeDef</text>
<polyline fill="none" stroke="black" points="2.5,-253.5 141.5,-253.5 "/>
<text text-anchor="start" x="10.5" y="-241.5" font-family="Helvetica,sans-Serif" font-size="10.00">+ last_updated</text>
<text text-anchor="start" x="10.5" y="-230.5" font-family="Helvetica,sans-Serif" font-size="10.00">+ fa_program_name</text>
<text text-anchor="start" x="10.5" y="-219.5" font-family="Helvetica,sans-Serif" font-size="10.00">+ ww_location</text>
<text text-anchor="start" x="10.5" y="-208.5" font-family="Helvetica,sans-Serif" font-size="10.00">+ ww_location_id</text>
<text text-anchor="start" x="10.5" y="-197.5" font-family="Helvetica,sans-Serif" font-size="10.00">+ ww_latitude</text>
<text text-anchor="start" x="10.5" y="-186.5" font-family="Helvetica,sans-Serif" font-size="10.00">+ ww_longitude</text>
<text text-anchor="start" x="10.5" y="-175.5" font-family="Helvetica,sans-Serif" font-size="10.00">+ bom_location</text>
<text text-anchor="start" x="10.5" y="-164.5" font-family="Helvetica,sans-Serif" font-size="10.00">+ bom_location_id</text>
<text text-anchor="start" x="10.5" y="-153.5" font-family="Helvetica,sans-Serif" font-size="10.00">+ bom_latitude</text>
<text text-anchor="start" x="10.5" y="-142.5" font-family="Helvetica,sans-Serif" font-size="10.00">+ bom_longitude</text>
<text text-anchor="start" x="10.5" y="-131.5" font-family="Helvetica,sans-Serif" font-size="10.00">+ bom_distance</text>
<polyline fill="none" stroke="black" points="2.5,-124.5 141.5,-124.5 "/>
<text text-anchor="middle" x="72" y="-112.5" font-family="Helvetica,sans-Serif" font-size="10.00"> </text>
</a>
</g>
</g>
<!-- Node2&#45;&gt;Node1 -->
<g id="edge1" class="edge">
<title>Node2&#45;&gt;Node1</title>
<path fill="none" stroke="#404040" d="M72,-105.3C72,-92.96 72,-80.73 72,-69.84"/>
<polygon fill="none" stroke="#404040" points="72,-69.74 68,-63.74 72,-57.74 76,-63.74 72,-69.74"/>
<text text-anchor="middle" x="96" y="-79" font-family="Helvetica,sans-Serif" font-size="10.00"> +locations</text>
</g>
</g>
</svg>
