<?xml version="1.0" encoding="UTF-8" standalone="no"?>
<!DOCTYPE svg PUBLIC "-//W3C//DTD SVG 1.1//EN"
 "http://www.w3.org/Graphics/SVG/1.1/DTD/svg11.dtd">
<!-- Generated by graphviz version 2.43.0 (0)
 -->
<!-- Title: T_OutlookDataset_TypeDef Pages: 1 -->
<svg width="163pt" height="159pt"
 viewBox="0.00 0.00 163.00 159.00" xmlns="http://www.w3.org/2000/svg" xmlns:xlink="http://www.w3.org/1999/xlink">
<g id="graph0" class="graph" transform="scale(1 1) rotate(0) translate(4 155)">
<title>T_OutlookDataset_TypeDef</title>
<!-- Node1 -->
<g id="node1" class="node">
<title>Node1</title>
<g id="a_node1"><a xlink:title=" ">
<polygon fill="#999999" stroke="#666666" points="155,-41 0,-41 0,0 155,0 155,-41"/>
<text text-anchor="middle" x="77.5" y="-29" font-family="Helvetica,sans-Serif" font-size="10.00">{T_OutlookDataset_TypeDef</text>
<text text-anchor="start" x="8" y="-18" font-family="Helvetica,sans-Serif" font-size="10.00">|+ count</text>
<text text-anchor="middle" x="77.5" y="-7" font-family="Helvetica,sans-Serif" font-size="10.00">|}</text>
</a>
</g>
</g>
<!-- Node2 -->
<g id="node2" class="node">
<title>Node2</title>
<g id="a_node2"><a xlink:href="struct_t___outlook_data___type_def.html" target="_top" xlink:title=" ">
<polygon fill="white" stroke="#666666" points="147.5,-151 7.5,-151 7.5,-88 147.5,-88 147.5,-151"/>
<text text-anchor="middle" x="77.5" y="-139" font-family="Helvetica,sans-Serif" font-size="10.00">{T_OutlookData_TypeDef</text>
<text text-anchor="start" x="15.5" y="-128" font-family="Helvetica,sans-Serif" font-size="10.00">|+ time_processed</text>
<text text-anchor="start" x="15.5" y="-117" font-family="Helvetica,sans-Serif" font-size="10.00">+ data_type</text>
<text text-anchor="start" x="15.5" y="-106" font-family="Helvetica,sans-Serif" font-size="10.00">+ precipitaiton</text>
<text text-anchor="middle" x="77.5" y="-95" font-family="Helvetica,sans-Serif" font-size="10.00">|}</text>
</a>
</g>
</g>
<!-- Node2&#45;&gt;Node1 -->
<g id="edge1" class="edge">
<title>Node2&#45;&gt;Node1</title>
<path fill="none" stroke="#404040" d="M77.5,-87.81C77.5,-76.8 77.5,-64.37 77.5,-53.27"/>
<polygon fill="none" stroke="#404040" points="77.5,-53.01 73.5,-47.01 77.5,-41.01 81.5,-47.01 77.5,-53.01"/>
<text text-anchor="middle" x="94.5" y="-62" font-family="Helvetica,sans-Serif" font-size="10.00"> +data</text>
</g>
</g>
</svg>
