<?xml version="1.0" encoding="UTF-8" standalone="no"?>
<!DOCTYPE svg PUBLIC "-//W3C//DTD SVG 1.1//EN"
 "http://www.w3.org/Graphics/SVG/1.1/DTD/svg11.dtd">
<!-- Generated by graphviz version 2.49.3 (20211027.1534)
 -->
<!-- Title: Callback Pages: 1 -->
<svg width="67pt" height="248pt"
 viewBox="0.00 0.00 67.00 248.00" xmlns="http://www.w3.org/2000/svg" xmlns:xlink="http://www.w3.org/1999/xlink">
<g id="graph0" class="graph" transform="scale(1 1) rotate(0) translate(4 244)">
<title>Callback</title>
<!-- Node1 -->
<g id="node1" class="node">
<title>Node1</title>
<g id="a_node1"><a xlink:title=" ">
<polygon fill="#bfbfbf" stroke="black" points="2.5,-0.5 2.5,-68.5 56.5,-68.5 56.5,-0.5 2.5,-0.5"/>
<text text-anchor="middle" x="29.5" y="-56.5" font-family="Helvetica,sans-Serif" font-size="10.00">Callback</text>
<polyline fill="none" stroke="black" points="2.5,-49.5 56.5,-49.5 "/>
<text text-anchor="start" x="10.5" y="-37.5" font-family="Helvetica,sans-Serif" font-size="10.00">+ udata</text>
<text text-anchor="start" x="10.5" y="-26.5" font-family="Helvetica,sans-Serif" font-size="10.00">+ level</text>
<polyline fill="none" stroke="black" points="2.5,-19.5 56.5,-19.5 "/>
<text text-anchor="middle" x="29.5" y="-7.5" font-family="Helvetica,sans-Serif" font-size="10.00"> </text>
</a>
</g>
</g>
<!-- Node2 -->
<g id="node2" class="node">
<title>Node2</title>
<g id="a_node2"><a xlink:href="structlog___event.html" target="_top" xlink:title=" ">
<polygon fill="none" stroke="black" points="0,-116.5 0,-239.5 59,-239.5 59,-116.5 0,-116.5"/>
<text text-anchor="middle" x="29.5" y="-227.5" font-family="Helvetica,sans-Serif" font-size="10.00">log_Event</text>
<polyline fill="none" stroke="black" points="0,-220.5 59,-220.5 "/>
<text text-anchor="start" x="8" y="-208.5" font-family="Helvetica,sans-Serif" font-size="10.00">+ ap</text>
<text text-anchor="start" x="8" y="-197.5" font-family="Helvetica,sans-Serif" font-size="10.00">+ fmt</text>
<text text-anchor="start" x="8" y="-186.5" font-family="Helvetica,sans-Serif" font-size="10.00">+ file</text>
<text text-anchor="start" x="8" y="-175.5" font-family="Helvetica,sans-Serif" font-size="10.00">+ time</text>
<text text-anchor="start" x="8" y="-164.5" font-family="Helvetica,sans-Serif" font-size="10.00">+ udata</text>
<text text-anchor="start" x="8" y="-153.5" font-family="Helvetica,sans-Serif" font-size="10.00">+ line</text>
<text text-anchor="start" x="8" y="-142.5" font-family="Helvetica,sans-Serif" font-size="10.00">+ level</text>
<polyline fill="none" stroke="black" points="0,-135.5 59,-135.5 "/>
<text text-anchor="middle" x="29.5" y="-123.5" font-family="Helvetica,sans-Serif" font-size="10.00"> </text>
</a>
</g>
</g>
<!-- Node2&#45;&gt;Node1 -->
<g id="edge1" class="edge">
<title>Node2&#45;&gt;Node1</title>
<path fill="none" stroke="#404040" d="M29.5,-116.17C29.5,-104.31 29.5,-92.06 29.5,-80.81"/>
<polygon fill="none" stroke="#404040" points="29.5,-80.6 25.5,-74.6 29.5,-68.6 33.5,-74.6 29.5,-80.6"/>
<text text-anchor="middle" x="38" y="-90" font-family="Helvetica,sans-Serif" font-size="10.00"> +fn</text>
</g>
</g>
</svg>
