<?xml version="1.0" encoding="UTF-8" standalone="no"?>
<!DOCTYPE svg PUBLIC "-//W3C//DTD SVG 1.1//EN"
 "http://www.w3.org/Graphics/SVG/1.1/DTD/svg11.dtd">
<!-- Generated by graphviz version 2.49.3 (20211027.1534)
 -->
<!-- Title: Log_Callback Pages: 1 -->
<svg width="84pt" height="248pt"
 viewBox="0.00 0.00 84.00 248.00" xmlns="http://www.w3.org/2000/svg" xmlns:xlink="http://www.w3.org/1999/xlink">
<g id="graph0" class="graph" transform="scale(1 1) rotate(0) translate(4 244)">
<title>Log_Callback</title>
<!-- Node1 -->
<g id="node1" class="node">
<title>Node1</title>
<g id="a_node1"><a xlink:title=" ">
<polygon fill="#bfbfbf" stroke="black" points="0,-0.5 0,-68.5 76,-68.5 76,-0.5 0,-0.5"/>
<text text-anchor="middle" x="38" y="-56.5" font-family="Helvetica,sans-Serif" font-size="10.00">Log_Callback</text>
<polyline fill="none" stroke="black" points="0,-49.5 76,-49.5 "/>
<text text-anchor="start" x="8" y="-37.5" font-family="Helvetica,sans-Serif" font-size="10.00">+ udata</text>
<text text-anchor="start" x="8" y="-26.5" font-family="Helvetica,sans-Serif" font-size="10.00">+ level</text>
<polyline fill="none" stroke="black" points="0,-19.5 76,-19.5 "/>
<text text-anchor="middle" x="38" y="-7.5" font-family="Helvetica,sans-Serif" font-size="10.00"> </text>
</a>
</g>
</g>
<!-- Node2 -->
<g id="node2" class="node">
<title>Node2</title>
<g id="a_node2"><a xlink:href="struct_log___event.html" target="_top" xlink:title=" ">
<polygon fill="none" stroke="black" points="6.5,-116.5 6.5,-239.5 69.5,-239.5 69.5,-116.5 6.5,-116.5"/>
<text text-anchor="middle" x="38" y="-227.5" font-family="Helvetica,sans-Serif" font-size="10.00">Log_Event</text>
<polyline fill="none" stroke="black" points="6.5,-220.5 69.5,-220.5 "/>
<text text-anchor="start" x="14.5" y="-208.5" font-family="Helvetica,sans-Serif" font-size="10.00">+ ap</text>
<text text-anchor="start" x="14.5" y="-197.5" font-family="Helvetica,sans-Serif" font-size="10.00">+ fmt</text>
<text text-anchor="start" x="14.5" y="-186.5" font-family="Helvetica,sans-Serif" font-size="10.00">+ file</text>
<text text-anchor="start" x="14.5" y="-175.5" font-family="Helvetica,sans-Serif" font-size="10.00">+ time</text>
<text text-anchor="start" x="14.5" y="-164.5" font-family="Helvetica,sans-Serif" font-size="10.00">+ udata</text>
<text text-anchor="start" x="14.5" y="-153.5" font-family="Helvetica,sans-Serif" font-size="10.00">+ line</text>
<text text-anchor="start" x="14.5" y="-142.5" font-family="Helvetica,sans-Serif" font-size="10.00">+ level</text>
<polyline fill="none" stroke="black" points="6.5,-135.5 69.5,-135.5 "/>
<text text-anchor="middle" x="38" y="-123.5" font-family="Helvetica,sans-Serif" font-size="10.00"> </text>
</a>
</g>
</g>
<!-- Node2&#45;&gt;Node1 -->
<g id="edge1" class="edge">
<title>Node2&#45;&gt;Node1</title>
<path fill="none" stroke="#404040" d="M38,-116.17C38,-104.31 38,-92.06 38,-80.81"/>
<polygon fill="none" stroke="#404040" points="38,-80.6 34,-74.6 38,-68.6 42,-74.6 38,-80.6"/>
<text text-anchor="middle" x="46.5" y="-90" font-family="Helvetica,sans-Serif" font-size="10.00"> +fn</text>
</g>
</g>
</svg>
