<?xml version="1.0" encoding="UTF-8" standalone="no"?>
<!DOCTYPE svg PUBLIC "-//W3C//DTD SVG 1.1//EN"
 "http://www.w3.org/Graphics/SVG/1.1/DTD/svg11.dtd">
<!-- Generated by graphviz version 2.49.3 (20211027.1534)
 -->
<!-- Title: T_OutlookDataset_TypeDef Pages: 1 -->
<svg width="145pt" height="193pt"
 viewBox="0.00 0.00 145.00 193.00" xmlns="http://www.w3.org/2000/svg" xmlns:xlink="http://www.w3.org/1999/xlink">
<g id="graph0" class="graph" transform="scale(1 1) rotate(0) translate(4 189)">
<title>T_OutlookDataset_TypeDef</title>
<!-- Node1 -->
<g id="node1" class="node">
<title>Node1</title>
<g id="a_node1"><a xlink:title=" ">
<polygon fill="#bfbfbf" stroke="black" points="0,-0.5 0,-57.5 137,-57.5 137,-0.5 0,-0.5"/>
<text text-anchor="middle" x="68.5" y="-45.5" font-family="Helvetica,sans-Serif" font-size="10.00">T_OutlookDataset_TypeDef</text>
<polyline fill="none" stroke="black" points="0,-38.5 137,-38.5 "/>
<text text-anchor="start" x="8" y="-26.5" font-family="Helvetica,sans-Serif" font-size="10.00">+ count</text>
<polyline fill="none" stroke="black" points="0,-19.5 137,-19.5 "/>
<text text-anchor="middle" x="68.5" y="-7.5" font-family="Helvetica,sans-Serif" font-size="10.00"> </text>
</a>
</g>
</g>
<!-- Node2 -->
<g id="node2" class="node">
<title>Node2</title>
<g id="a_node2"><a xlink:href="struct_t___outlook_data___type_def.html" target="_top" xlink:title=" ">
<polygon fill="none" stroke="black" points="7,-105.5 7,-184.5 130,-184.5 130,-105.5 7,-105.5"/>
<text text-anchor="middle" x="68.5" y="-172.5" font-family="Helvetica,sans-Serif" font-size="10.00">T_OutlookData_TypeDef</text>
<polyline fill="none" stroke="black" points="7,-165.5 130,-165.5 "/>
<text text-anchor="start" x="15" y="-153.5" font-family="Helvetica,sans-Serif" font-size="10.00">+ time_processed</text>
<text text-anchor="start" x="15" y="-142.5" font-family="Helvetica,sans-Serif" font-size="10.00">+ data_type</text>
<text text-anchor="start" x="15" y="-131.5" font-family="Helvetica,sans-Serif" font-size="10.00">+ precipitaiton</text>
<polyline fill="none" stroke="black" points="7,-124.5 130,-124.5 "/>
<text text-anchor="middle" x="68.5" y="-112.5" font-family="Helvetica,sans-Serif" font-size="10.00"> </text>
</a>
</g>
</g>
<!-- Node2&#45;&gt;Node1 -->
<g id="edge1" class="edge">
<title>Node2&#45;&gt;Node1</title>
<path fill="none" stroke="#404040" d="M68.5,-105.4C68.5,-93.93 68.5,-81.33 68.5,-69.78"/>
<polygon fill="none" stroke="#404040" points="68.5,-69.75 64.5,-63.75 68.5,-57.75 72.5,-63.75 68.5,-69.75"/>
<text text-anchor="middle" x="82.5" y="-79" font-family="Helvetica,sans-Serif" font-size="10.00"> +data</text>
</g>
</g>
</svg>
