<?xml version="1.0" encoding="UTF-8" standalone="no"?>
<!DOCTYPE svg PUBLIC "-//W3C//DTD SVG 1.1//EN"
 "http://www.w3.org/Graphics/SVG/1.1/DTD/svg11.dtd">
<!-- Generated by graphviz version 2.43.0 (0)
 -->
<!-- Title: Log_Callback Pages: 1 -->
<svg width="95pt" height="214pt"
 viewBox="0.00 0.00 95.00 214.00" xmlns="http://www.w3.org/2000/svg" xmlns:xlink="http://www.w3.org/1999/xlink">
<g id="graph0" class="graph" transform="scale(1 1) rotate(0) translate(4 210)">
<title>Log_Callback</title>
<!-- Node1 -->
<g id="node1" class="node">
<title>Node1</title>
<g id="a_node1"><a xlink:title=" ">
<polygon fill="#999999" stroke="#666666" points="87,-52 0,-52 0,0 87,0 87,-52"/>
<text text-anchor="middle" x="43.5" y="-40" font-family="Helvetica,sans-Serif" font-size="10.00">{Log_Callback</text>
<text text-anchor="start" x="8" y="-29" font-family="Helvetica,sans-Serif" font-size="10.00">|+ udata</text>
<text text-anchor="start" x="8" y="-18" font-family="Helvetica,sans-Serif" font-size="10.00">+ level</text>
<text text-anchor="middle" x="43.5" y="-7" font-family="Helvetica,sans-Serif" font-size="10.00">|}</text>
</a>
</g>
</g>
<!-- Node2 -->
<g id="node2" class="node">
<title>Node2</title>
<g id="a_node2"><a xlink:href="struct_log___event.html" target="_top" xlink:title=" ">
<polygon fill="white" stroke="#666666" points="80,-206 7,-206 7,-99 80,-99 80,-206"/>
<text text-anchor="middle" x="43.5" y="-194" font-family="Helvetica,sans-Serif" font-size="10.00">{Log_Event</text>
<text text-anchor="start" x="15" y="-183" font-family="Helvetica,sans-Serif" font-size="10.00">|+ ap</text>
<text text-anchor="start" x="15" y="-172" font-family="Helvetica,sans-Serif" font-size="10.00">+ fmt</text>
<text text-anchor="start" x="15" y="-161" font-family="Helvetica,sans-Serif" font-size="10.00">+ file</text>
<text text-anchor="start" x="15" y="-150" font-family="Helvetica,sans-Serif" font-size="10.00">+ time</text>
<text text-anchor="start" x="15" y="-139" font-family="Helvetica,sans-Serif" font-size="10.00">+ udata</text>
<text text-anchor="start" x="15" y="-128" font-family="Helvetica,sans-Serif" font-size="10.00">+ line</text>
<text text-anchor="start" x="15" y="-117" font-family="Helvetica,sans-Serif" font-size="10.00">+ level</text>
<text text-anchor="middle" x="43.5" y="-106" font-family="Helvetica,sans-Serif" font-size="10.00">|}</text>
</a>
</g>
</g>
<!-- Node2&#45;&gt;Node1 -->
<g id="edge1" class="edge">
<title>Node2&#45;&gt;Node1</title>
<path fill="none" stroke="#404040" d="M43.5,-98.7C43.5,-87.08 43.5,-75.01 43.5,-64.15"/>
<polygon fill="none" stroke="#404040" points="43.5,-64.08 39.5,-58.08 43.5,-52.08 47.5,-58.08 43.5,-64.08"/>
<text text-anchor="middle" x="54.5" y="-73" font-family="Helvetica,sans-Serif" font-size="10.00"> +fn</text>
</g>
</g>
</svg>
