<?xml version="1.0" encoding="UTF-8" standalone="no"?>
<!DOCTYPE svg PUBLIC "-//W3C//DTD SVG 1.1//EN"
 "http://www.w3.org/Graphics/SVG/1.1/DTD/svg11.dtd">
<!-- Generated by graphviz version 2.49.3 (20211027.1534)
 -->
<!-- Title: src/WillyWeather/tide.c Pages: 1 -->
<svg width="708pt" height="252pt"
 viewBox="0.00 0.00 707.89 252.00" xmlns="http://www.w3.org/2000/svg" xmlns:xlink="http://www.w3.org/1999/xlink">
<g id="graph0" class="graph" transform="scale(1 1) rotate(0) translate(4 248)">
<title>src/WillyWeather/tide.c</title>
<!-- Node1 -->
<g id="node1" class="node">
<title>Node1</title>
<g id="a_node1"><a xlink:title=" ">
<polygon fill="#bfbfbf" stroke="black" points="233.39,-224.5 233.39,-243.5 349.39,-243.5 349.39,-224.5 233.39,-224.5"/>
<text text-anchor="middle" x="291.39" y="-231.5" font-family="Helvetica,sans-Serif" font-size="10.00">src/WillyWeather/tide.c</text>
</a>
</g>
</g>
<!-- Node2 -->
<g id="node2" class="node">
<title>Node2</title>
<g id="a_node2"><a xlink:href="tide_8h.html" target="_top" xlink:title=" ">
<polygon fill="none" stroke="black" points="241.89,-168.5 241.89,-187.5 340.89,-187.5 340.89,-168.5 241.89,-168.5"/>
<text text-anchor="middle" x="291.39" y="-175.5" font-family="Helvetica,sans-Serif" font-size="10.00">WillyWeather/tide.h</text>
</a>
</g>
</g>
<!-- Node1&#45;&gt;Node2 -->
<g id="edge1" class="edge">
<title>Node1&#45;&gt;Node2</title>
<path fill="none" stroke="midnightblue" d="M291.39,-224.08C291.39,-217.01 291.39,-206.86 291.39,-197.99"/>
<polygon fill="midnightblue" stroke="midnightblue" points="294.89,-197.75 291.39,-187.75 287.89,-197.75 294.89,-197.75"/>
</g>
<!-- Node3 -->
<g id="node3" class="node">
<title>Node3</title>
<g id="a_node3"><a xlink:title=" ">
<polygon fill="none" stroke="#bfbfbf" points="342.39,-0.5 342.39,-19.5 390.39,-19.5 390.39,-0.5 342.39,-0.5"/>
<text text-anchor="middle" x="366.39" y="-7.5" font-family="Helvetica,sans-Serif" font-size="10.00">string.h</text>
</a>
</g>
</g>
<!-- Node2&#45;&gt;Node3 -->
<g id="edge2" class="edge">
<title>Node2&#45;&gt;Node3</title>
<path fill="none" stroke="midnightblue" d="M341,-169.96C364.03,-163.93 389.37,-152.75 403.39,-132 425.63,-99.1 398.01,-52.32 379.85,-27.67"/>
<polygon fill="midnightblue" stroke="midnightblue" points="382.57,-25.46 373.71,-19.66 377.02,-29.72 382.57,-25.46"/>
</g>
<!-- Node4 -->
<g id="node4" class="node">
<title>Node4</title>
<g id="a_node4"><a xlink:title=" ">
<polygon fill="none" stroke="#bfbfbf" points="408.89,-0.5 408.89,-19.5 455.89,-19.5 455.89,-0.5 408.89,-0.5"/>
<text text-anchor="middle" x="432.39" y="-7.5" font-family="Helvetica,sans-Serif" font-size="10.00">stdlib.h</text>
</a>
</g>
</g>
<!-- Node2&#45;&gt;Node4 -->
<g id="edge3" class="edge">
<title>Node2&#45;&gt;Node4</title>
<path fill="none" stroke="midnightblue" d="M341.2,-175.08C383.79,-171.37 445.19,-160.92 490.39,-132 516.83,-115.09 523.3,-105.71 533.39,-76 536.25,-67.58 538.23,-63.46 533.39,-56 525.51,-43.86 491.89,-30.42 465.58,-21.41"/>
<polygon fill="midnightblue" stroke="midnightblue" points="466.52,-18.03 455.92,-18.19 464.3,-24.67 466.52,-18.03"/>
</g>
<!-- Node5 -->
<g id="node5" class="node">
<title>Node5</title>
<g id="a_node5"><a xlink:title=" ">
<polygon fill="none" stroke="#bfbfbf" points="34.39,-56.5 34.39,-75.5 80.39,-75.5 80.39,-56.5 34.39,-56.5"/>
<text text-anchor="middle" x="57.39" y="-63.5" font-family="Helvetica,sans-Serif" font-size="10.00">math.h</text>
</a>
</g>
</g>
<!-- Node2&#45;&gt;Node5 -->
<g id="edge4" class="edge">
<title>Node2&#45;&gt;Node5</title>
<path fill="none" stroke="midnightblue" d="M263.46,-168.37C238.15,-160.18 200.07,-146.92 168.39,-132 136.04,-116.76 100.74,-95.16 78.83,-81.11"/>
<polygon fill="midnightblue" stroke="midnightblue" points="80.6,-78.09 70.3,-75.59 76.8,-83.97 80.6,-78.09"/>
</g>
<!-- Node6 -->
<g id="node6" class="node">
<title>Node6</title>
<g id="a_node6"><a xlink:title=" ">
<polygon fill="none" stroke="#bfbfbf" points="176.89,-112.5 176.89,-131.5 219.89,-131.5 219.89,-112.5 176.89,-112.5"/>
<text text-anchor="middle" x="198.39" y="-119.5" font-family="Helvetica,sans-Serif" font-size="10.00">time.h</text>
</a>
</g>
</g>
<!-- Node2&#45;&gt;Node6 -->
<g id="edge5" class="edge">
<title>Node2&#45;&gt;Node6</title>
<path fill="none" stroke="midnightblue" d="M276.45,-168.32C261.81,-159.82 239.26,-146.73 222.16,-136.8"/>
<polygon fill="midnightblue" stroke="midnightblue" points="223.7,-133.65 213.3,-131.65 220.19,-139.7 223.7,-133.65"/>
</g>
<!-- Node7 -->
<g id="node7" class="node">
<title>Node7</title>
<g id="a_node7"><a xlink:title=" ">
<polygon fill="none" stroke="#bfbfbf" points="260.89,-0.5 260.89,-19.5 319.89,-19.5 319.89,-0.5 260.89,-0.5"/>
<text text-anchor="middle" x="290.39" y="-7.5" font-family="Helvetica,sans-Serif" font-size="10.00">curl/curl.h</text>
</a>
</g>
</g>
<!-- Node2&#45;&gt;Node7 -->
<g id="edge6" class="edge">
<title>Node2&#45;&gt;Node7</title>
<path fill="none" stroke="midnightblue" d="M241.66,-172.43C148.25,-161.99 -38.47,-131.22 25.39,-56 57.31,-18.4 195.85,-28.74 244.39,-20 246.46,-19.63 248.57,-19.24 250.71,-18.84"/>
<polygon fill="midnightblue" stroke="midnightblue" points="251.55,-22.25 260.72,-16.94 250.25,-15.37 251.55,-22.25"/>
</g>
<!-- Node8 -->
<g id="node8" class="node">
<title>Node8</title>
<g id="a_node8"><a xlink:title=" ">
<polygon fill="none" stroke="#bfbfbf" points="71.89,-0.5 71.89,-19.5 154.89,-19.5 154.89,-0.5 71.89,-0.5"/>
<text text-anchor="middle" x="113.39" y="-7.5" font-family="Helvetica,sans-Serif" font-size="10.00">cjson/cJSON.h</text>
</a>
</g>
</g>
<!-- Node2&#45;&gt;Node8 -->
<g id="edge7" class="edge">
<title>Node2&#45;&gt;Node8</title>
<path fill="none" stroke="midnightblue" d="M241.81,-175.17C173.11,-171.58 53.95,-161.22 23.39,-132 -1.32,-108.37 -7.28,-84.65 11.39,-56 22.83,-38.45 42.82,-27.7 62.1,-21.13"/>
<polygon fill="midnightblue" stroke="midnightblue" points="63.24,-24.44 71.76,-18.15 61.17,-17.75 63.24,-24.44"/>
</g>
<!-- Node9 -->
<g id="node9" class="node">
<title>Node9</title>
<g id="a_node9"><a xlink:href="_willy_weather_2authenticate_8h.html" target="_top" xlink:title=" ">
<polygon fill="none" stroke="black" points="174.89,-56.5 174.89,-75.5 311.89,-75.5 311.89,-56.5 174.89,-56.5"/>
<text text-anchor="middle" x="243.39" y="-63.5" font-family="Helvetica,sans-Serif" font-size="10.00">WillyWeather/authenticate.h</text>
</a>
</g>
</g>
<!-- Node2&#45;&gt;Node9 -->
<g id="edge8" class="edge">
<title>Node2&#45;&gt;Node9</title>
<path fill="none" stroke="midnightblue" d="M286.53,-168.17C281.67,-159.19 274.12,-144.82 268.39,-132 261.46,-116.47 254.6,-98.39 249.83,-85.25"/>
<polygon fill="midnightblue" stroke="midnightblue" points="253.01,-83.77 246.35,-75.53 246.42,-86.12 253.01,-83.77"/>
</g>
<!-- Node11 -->
<g id="node11" class="node">
<title>Node11</title>
<g id="a_node11"><a xlink:href="location_8h.html" target="_top" xlink:title=" ">
<polygon fill="none" stroke="black" points="276.89,-112.5 276.89,-131.5 393.89,-131.5 393.89,-112.5 276.89,-112.5"/>
<text text-anchor="middle" x="335.39" y="-119.5" font-family="Helvetica,sans-Serif" font-size="10.00">WillyWeather/location.h</text>
</a>
</g>
</g>
<!-- Node2&#45;&gt;Node11 -->
<g id="edge14" class="edge">
<title>Node2&#45;&gt;Node11</title>
<path fill="none" stroke="midnightblue" d="M298.66,-168.08C304.94,-160.38 314.18,-149.03 321.82,-139.65"/>
<polygon fill="midnightblue" stroke="midnightblue" points="324.66,-141.71 328.26,-131.75 319.23,-137.29 324.66,-141.71"/>
</g>
<!-- Node12 -->
<g id="node12" class="node">
<title>Node12</title>
<g id="a_node12"><a xlink:href="utils_8h.html" target="_top" xlink:title=" ">
<polygon fill="none" stroke="black" points="482.39,-56.5 482.39,-75.5 524.39,-75.5 524.39,-56.5 482.39,-56.5"/>
<text text-anchor="middle" x="503.39" y="-63.5" font-family="Helvetica,sans-Serif" font-size="10.00">utils.h</text>
</a>
</g>
</g>
<!-- Node2&#45;&gt;Node12 -->
<g id="edge31" class="edge">
<title>Node2&#45;&gt;Node12</title>
<path fill="none" stroke="midnightblue" d="M341.14,-174.99C379.47,-171.12 431.91,-160.49 468.39,-132 483.51,-120.19 492.92,-99.97 498.12,-85.22"/>
<polygon fill="midnightblue" stroke="midnightblue" points="501.47,-86.22 501.19,-75.63 494.81,-84.09 501.47,-86.22"/>
</g>
<!-- Node16 -->
<g id="node16" class="node">
<title>Node16</title>
<g id="a_node16"><a xlink:href="forecast_8h.html" target="_top" xlink:title=" ">
<polygon fill="none" stroke="black" points="580.89,-112.5 580.89,-131.5 699.89,-131.5 699.89,-112.5 580.89,-112.5"/>
<text text-anchor="middle" x="640.39" y="-119.5" font-family="Helvetica,sans-Serif" font-size="10.00">WillyWeather/forecast.h</text>
</a>
</g>
</g>
<!-- Node2&#45;&gt;Node16 -->
<g id="edge30" class="edge">
<title>Node2&#45;&gt;Node16</title>
<path fill="none" stroke="midnightblue" d="M341.03,-169.32C402.42,-159.82 507.13,-143.62 575.02,-133.12"/>
<polygon fill="midnightblue" stroke="midnightblue" points="575.83,-136.53 585.17,-131.54 574.76,-129.61 575.83,-136.53"/>
</g>
<!-- Node9&#45;&gt;Node3 -->
<g id="edge9" class="edge">
<title>Node9&#45;&gt;Node3</title>
<path fill="none" stroke="midnightblue" d="M262.88,-56.44C283.04,-47.6 314.72,-33.69 337.72,-23.59"/>
<polygon fill="midnightblue" stroke="midnightblue" points="339.24,-26.74 346.99,-19.52 336.43,-20.33 339.24,-26.74"/>
</g>
<!-- Node9&#45;&gt;Node4 -->
<g id="edge10" class="edge">
<title>Node9&#45;&gt;Node4</title>
<path fill="none" stroke="midnightblue" d="M273.34,-56.44C307.54,-46.67 363.35,-30.73 398.94,-20.56"/>
<polygon fill="midnightblue" stroke="midnightblue" points="400.2,-23.84 408.86,-17.73 398.28,-17.11 400.2,-23.84"/>
</g>
<!-- Node9&#45;&gt;Node7 -->
<g id="edge13" class="edge">
<title>Node9&#45;&gt;Node7</title>
<path fill="none" stroke="midnightblue" d="M251.15,-56.08C257.93,-48.3 267.94,-36.8 276.15,-27.37"/>
<polygon fill="midnightblue" stroke="midnightblue" points="278.85,-29.59 282.78,-19.75 273.57,-25 278.85,-29.59"/>
</g>
<!-- Node9&#45;&gt;Node8 -->
<g id="edge12" class="edge">
<title>Node9&#45;&gt;Node8</title>
<path fill="none" stroke="midnightblue" d="M222.79,-56.44C201.4,-47.56 167.71,-33.56 143.37,-23.45"/>
<polygon fill="midnightblue" stroke="midnightblue" points="144.47,-20.12 133.9,-19.52 141.79,-26.58 144.47,-20.12"/>
</g>
<!-- Node10 -->
<g id="node10" class="node">
<title>Node10</title>
<g id="a_node10"><a xlink:title=" ">
<polygon fill="none" stroke="#bfbfbf" points="189.89,-0.5 189.89,-19.5 234.89,-19.5 234.89,-0.5 189.89,-0.5"/>
<text text-anchor="middle" x="212.39" y="-7.5" font-family="Helvetica,sans-Serif" font-size="10.00">stdio.h</text>
</a>
</g>
</g>
<!-- Node9&#45;&gt;Node10 -->
<g id="edge11" class="edge">
<title>Node9&#45;&gt;Node10</title>
<path fill="none" stroke="midnightblue" d="M238.27,-56.08C233.99,-48.61 227.73,-37.72 222.45,-28.52"/>
<polygon fill="midnightblue" stroke="midnightblue" points="225.43,-26.68 217.42,-19.75 219.36,-30.17 225.43,-26.68"/>
</g>
<!-- Node11&#45;&gt;Node3 -->
<g id="edge15" class="edge">
<title>Node11&#45;&gt;Node3</title>
<path fill="none" stroke="midnightblue" d="M339.76,-112.25C344.05,-103.33 350.5,-89 354.39,-76 358.98,-60.7 362.12,-42.81 364.04,-29.68"/>
<polygon fill="midnightblue" stroke="midnightblue" points="367.54,-29.93 365.42,-19.55 360.6,-28.99 367.54,-29.93"/>
</g>
<!-- Node11&#45;&gt;Node4 -->
<g id="edge16" class="edge">
<title>Node11&#45;&gt;Node4</title>
<path fill="none" stroke="midnightblue" d="M343,-112.37C359.15,-94.05 397.08,-51.05 417.96,-27.36"/>
<polygon fill="midnightblue" stroke="midnightblue" points="420.83,-29.41 424.82,-19.59 415.58,-24.78 420.83,-29.41"/>
</g>
<!-- Node11&#45;&gt;Node5 -->
<g id="edge18" class="edge">
<title>Node11&#45;&gt;Node5</title>
<path fill="none" stroke="midnightblue" d="M285.39,-112.47C236.53,-103.96 160.14,-90.12 94.39,-76 93.12,-75.73 91.82,-75.44 90.52,-75.15"/>
<polygon fill="midnightblue" stroke="midnightblue" points="90.97,-71.66 80.44,-72.81 89.39,-78.48 90.97,-71.66"/>
</g>
<!-- Node11&#45;&gt;Node7 -->
<g id="edge20" class="edge">
<title>Node11&#45;&gt;Node7</title>
<path fill="none" stroke="midnightblue" d="M334.6,-112.26C333.21,-99.46 329.63,-75.08 321.39,-56 317.03,-45.89 310.25,-35.71 304.15,-27.58"/>
<polygon fill="midnightblue" stroke="midnightblue" points="306.87,-25.38 297.93,-19.68 301.36,-29.71 306.87,-25.38"/>
</g>
<!-- Node11&#45;&gt;Node8 -->
<g id="edge19" class="edge">
<title>Node11&#45;&gt;Node8</title>
<path fill="none" stroke="midnightblue" d="M276.88,-116.85C239.84,-111.79 192.49,-100.62 157.39,-76 140.53,-64.17 128.25,-43.66 121.01,-28.83"/>
<polygon fill="midnightblue" stroke="midnightblue" points="124.15,-27.29 116.81,-19.66 117.79,-30.21 124.15,-27.29"/>
</g>
<!-- Node11&#45;&gt;Node9 -->
<g id="edge21" class="edge">
<title>Node11&#45;&gt;Node9</title>
<path fill="none" stroke="midnightblue" d="M320.61,-112.32C306.13,-103.82 283.82,-90.73 266.9,-80.8"/>
<polygon fill="midnightblue" stroke="midnightblue" points="268.53,-77.7 258.14,-75.65 264.99,-83.74 268.53,-77.7"/>
</g>
<!-- Node11&#45;&gt;Node10 -->
<g id="edge17" class="edge">
<title>Node11&#45;&gt;Node10</title>
<path fill="none" stroke="midnightblue" d="M276.52,-113.02C233.33,-105.82 179.95,-93.63 166.39,-76 153.36,-59.04 172.87,-38.85 190.36,-25.52"/>
<polygon fill="midnightblue" stroke="midnightblue" points="192.55,-28.25 198.63,-19.57 188.47,-22.57 192.55,-28.25"/>
</g>
<!-- Node11&#45;&gt;Node12 -->
<g id="edge22" class="edge">
<title>Node11&#45;&gt;Node12</title>
<path fill="none" stroke="midnightblue" d="M362.01,-112.44C392.07,-102.78 440.9,-87.09 472.58,-76.9"/>
<polygon fill="midnightblue" stroke="midnightblue" points="473.77,-80.2 482.22,-73.81 471.63,-73.53 473.77,-80.2"/>
</g>
<!-- Node12&#45;&gt;Node3 -->
<g id="edge24" class="edge">
<title>Node12&#45;&gt;Node3</title>
<path fill="none" stroke="midnightblue" d="M482.29,-56.68C459.66,-47.76 423.49,-33.51 397.58,-23.29"/>
<polygon fill="midnightblue" stroke="midnightblue" points="398.79,-20.01 388.2,-19.6 396.22,-26.52 398.79,-20.01"/>
</g>
<!-- Node12&#45;&gt;Node4 -->
<g id="edge23" class="edge">
<title>Node12&#45;&gt;Node4</title>
<path fill="none" stroke="midnightblue" d="M491.99,-56.32C481.28,-48.18 465.05,-35.84 452.23,-26.09"/>
<polygon fill="midnightblue" stroke="midnightblue" points="454.09,-23.1 444.01,-19.83 449.85,-28.67 454.09,-23.1"/>
</g>
<!-- Node12&#45;&gt;Node7 -->
<g id="edge25" class="edge">
<title>Node12&#45;&gt;Node7</title>
<path fill="none" stroke="midnightblue" d="M482.19,-59.62C446.68,-50.62 374.65,-32.36 329.68,-20.96"/>
<polygon fill="midnightblue" stroke="midnightblue" points="330.52,-17.56 319.96,-18.5 328.8,-24.35 330.52,-17.56"/>
</g>
<!-- Node12&#45;&gt;Node8 -->
<g id="edge26" class="edge">
<title>Node12&#45;&gt;Node8</title>
<path fill="none" stroke="midnightblue" d="M482.15,-62.06C422.42,-53.79 251.77,-30.16 165.16,-18.17"/>
<polygon fill="midnightblue" stroke="midnightblue" points="165.42,-14.67 155.03,-16.77 164.46,-21.6 165.42,-14.67"/>
</g>
<!-- Node13 -->
<g id="node13" class="node">
<title>Node13</title>
<g id="a_node13"><a xlink:title=" ">
<polygon fill="none" stroke="#bfbfbf" points="473.89,-0.5 473.89,-19.5 532.89,-19.5 532.89,-0.5 473.89,-0.5"/>
<text text-anchor="middle" x="503.39" y="-7.5" font-family="Helvetica,sans-Serif" font-size="10.00">sys/stat.h</text>
</a>
</g>
</g>
<!-- Node12&#45;&gt;Node13 -->
<g id="edge27" class="edge">
<title>Node12&#45;&gt;Node13</title>
<path fill="none" stroke="midnightblue" d="M503.39,-56.08C503.39,-49.01 503.39,-38.86 503.39,-29.99"/>
<polygon fill="midnightblue" stroke="midnightblue" points="506.89,-29.75 503.39,-19.75 499.89,-29.75 506.89,-29.75"/>
</g>
<!-- Node14 -->
<g id="node14" class="node">
<title>Node14</title>
<g id="a_node14"><a xlink:title=" ">
<polygon fill="none" stroke="#bfbfbf" points="550.89,-0.5 550.89,-19.5 615.89,-19.5 615.89,-0.5 550.89,-0.5"/>
<text text-anchor="middle" x="583.39" y="-7.5" font-family="Helvetica,sans-Serif" font-size="10.00">sys/types.h</text>
</a>
</g>
</g>
<!-- Node12&#45;&gt;Node14 -->
<g id="edge28" class="edge">
<title>Node12&#45;&gt;Node14</title>
<path fill="none" stroke="midnightblue" d="M516.25,-56.32C528.61,-47.98 547.52,-35.21 562.13,-25.35"/>
<polygon fill="midnightblue" stroke="midnightblue" points="564.24,-28.15 570.57,-19.65 560.32,-22.35 564.24,-28.15"/>
</g>
<!-- Node15 -->
<g id="node15" class="node">
<title>Node15</title>
<g id="a_node15"><a xlink:title=" ">
<polygon fill="none" stroke="#bfbfbf" points="634.39,-0.5 634.39,-19.5 680.39,-19.5 680.39,-0.5 634.39,-0.5"/>
<text text-anchor="middle" x="657.39" y="-7.5" font-family="Helvetica,sans-Serif" font-size="10.00">errno.h</text>
</a>
</g>
</g>
<!-- Node12&#45;&gt;Node15 -->
<g id="edge29" class="edge">
<title>Node12&#45;&gt;Node15</title>
<path fill="none" stroke="midnightblue" d="M524.48,-57.6C550.31,-48.55 594.35,-33.1 624.61,-22.49"/>
<polygon fill="midnightblue" stroke="midnightblue" points="626.02,-25.71 634.3,-19.1 623.7,-19.1 626.02,-25.71"/>
</g>
</g>
</svg>
