<?xml version="1.0" encoding="UTF-8" standalone="no"?>
<!DOCTYPE svg PUBLIC "-//W3C//DTD SVG 1.1//EN"
 "http://www.w3.org/Graphics/SVG/1.1/DTD/svg11.dtd">
<!-- Generated by graphviz version 2.43.0 (0)
 -->
<!-- Title: include/WillyWeather/tide.h Pages: 1 -->
<svg width="244pt" height="148pt"
 viewBox="0.00 0.00 244.00 148.00" xmlns="http://www.w3.org/2000/svg" xmlns:xlink="http://www.w3.org/1999/xlink">
<g id="graph0" class="graph" transform="scale(1 1) rotate(0) translate(4 144)">
<title>include/WillyWeather/tide.h</title>
<!-- Node1 -->
<g id="node1" class="node">
<title>Node1</title>
<g id="a_node1"><a xlink:title=" ">
<polygon fill="#999999" stroke="#666666" points="167.5,-140 47.5,-140 47.5,-110 167.5,-110 167.5,-140"/>
<text text-anchor="start" x="55.5" y="-128" font-family="Helvetica,sans-Serif" font-size="10.00">include/WillyWeather</text>
<text text-anchor="middle" x="107.5" y="-117" font-family="Helvetica,sans-Serif" font-size="10.00">/tide.h</text>
</a>
</g>
</g>
<!-- Node2 -->
<g id="node2" class="node">
<title>Node2</title>
<g id="a_node2"><a xlink:href="main_8h.html" target="_top" xlink:title=" ">
<polygon fill="white" stroke="#666666" points="89,-74 0,-74 0,-55 89,-55 89,-74"/>
<text text-anchor="middle" x="44.5" y="-62" font-family="Helvetica,sans-Serif" font-size="10.00">include/main.h</text>
</a>
</g>
</g>
<!-- Node1&#45;&gt;Node2 -->
<g id="edge1" class="edge">
<title>Node1&#45;&gt;Node2</title>
<path fill="none" stroke="#63b8ff" d="M84.84,-102.96C74.2,-93.07 62.09,-81.83 53.94,-74.27"/>
<polygon fill="#63b8ff" stroke="#63b8ff" points="82.54,-105.6 92.25,-109.84 87.3,-100.47 82.54,-105.6"/>
</g>
<!-- Node4 -->
<g id="node4" class="node">
<title>Node4</title>
<g id="a_node4"><a xlink:href="tide_8c.html" target="_top" xlink:title=" ">
<polygon fill="white" stroke="#666666" points="236,-74 107,-74 107,-55 236,-55 236,-74"/>
<text text-anchor="middle" x="171.5" y="-62" font-family="Helvetica,sans-Serif" font-size="10.00">src/WillyWeather/tide.c</text>
</a>
</g>
</g>
<!-- Node1&#45;&gt;Node4 -->
<g id="edge3" class="edge">
<title>Node1&#45;&gt;Node4</title>
<path fill="none" stroke="#63b8ff" d="M130.52,-102.96C141.33,-93.07 153.63,-81.83 161.91,-74.27"/>
<polygon fill="#63b8ff" stroke="#63b8ff" points="128.01,-100.51 122.99,-109.84 132.74,-105.68 128.01,-100.51"/>
</g>
<!-- Node3 -->
<g id="node3" class="node">
<title>Node3</title>
<g id="a_node3"><a xlink:href="main_8c.html" target="_top" xlink:title=" ">
<polygon fill="white" stroke="#666666" points="78,-19 11,-19 11,0 78,0 78,-19"/>
<text text-anchor="middle" x="44.5" y="-7" font-family="Helvetica,sans-Serif" font-size="10.00">src/main.c</text>
</a>
</g>
</g>
<!-- Node2&#45;&gt;Node3 -->
<g id="edge2" class="edge">
<title>Node2&#45;&gt;Node3</title>
<path fill="none" stroke="#63b8ff" d="M44.5,-44.66C44.5,-35.93 44.5,-25.99 44.5,-19.09"/>
<polygon fill="#63b8ff" stroke="#63b8ff" points="41,-44.75 44.5,-54.75 48,-44.75 41,-44.75"/>
</g>
</g>
</svg>
