<?xml version="1.0" encoding="UTF-8" standalone="no"?>
<!DOCTYPE svg PUBLIC "-//W3C//DTD SVG 1.1//EN"
 "http://www.w3.org/Graphics/SVG/1.1/DTD/svg11.dtd">
<!-- Generated by graphviz version 2.49.3 (20211027.1534)
 -->
<!-- Title: src/WillyWeather/tide.c Pages: 1 -->
<svg width="636pt" height="252pt"
 viewBox="0.00 0.00 636.45 252.00" xmlns="http://www.w3.org/2000/svg" xmlns:xlink="http://www.w3.org/1999/xlink">
<g id="graph0" class="graph" transform="scale(1 1) rotate(0) translate(4 248)">
<title>src/WillyWeather/tide.c</title>
<!-- Node1 -->
<g id="node1" class="node">
<title>Node1</title>
<g id="a_node1"><a xlink:title=" ">
<polygon fill="#bfbfbf" stroke="black" points="183.95,-224.5 183.95,-243.5 299.95,-243.5 299.95,-224.5 183.95,-224.5"/>
<text text-anchor="middle" x="241.95" y="-231.5" font-family="Helvetica,sans-Serif" font-size="10.00">src/WillyWeather/tide.c</text>
</a>
</g>
</g>
<!-- Node2 -->
<g id="node2" class="node">
<title>Node2</title>
<g id="a_node2"><a xlink:href="tide_8h.html" target="_top" xlink:title=" ">
<polygon fill="none" stroke="black" points="192.45,-168.5 192.45,-187.5 291.45,-187.5 291.45,-168.5 192.45,-168.5"/>
<text text-anchor="middle" x="241.95" y="-175.5" font-family="Helvetica,sans-Serif" font-size="10.00">WillyWeather/tide.h</text>
</a>
</g>
</g>
<!-- Node1&#45;&gt;Node2 -->
<g id="edge1" class="edge">
<title>Node1&#45;&gt;Node2</title>
<path fill="none" stroke="midnightblue" d="M241.95,-224.08C241.95,-217.01 241.95,-206.86 241.95,-197.99"/>
<polygon fill="midnightblue" stroke="midnightblue" points="245.45,-197.75 241.95,-187.75 238.45,-197.75 245.45,-197.75"/>
</g>
<!-- Node3 -->
<g id="node3" class="node">
<title>Node3</title>
<g id="a_node3"><a xlink:title=" ">
<polygon fill="none" stroke="#bfbfbf" points="186.95,-0.5 186.95,-19.5 234.95,-19.5 234.95,-0.5 186.95,-0.5"/>
<text text-anchor="middle" x="210.95" y="-7.5" font-family="Helvetica,sans-Serif" font-size="10.00">string.h</text>
</a>
</g>
</g>
<!-- Node2&#45;&gt;Node3 -->
<g id="edge2" class="edge">
<title>Node2&#45;&gt;Node3</title>
<path fill="none" stroke="midnightblue" d="M192.22,-174.26C132.56,-169.8 37.8,-158.64 15.95,-132 -5.48,-105.89 -5.08,-82.43 15.95,-56 35.63,-31.25 125.93,-18.94 176.46,-13.9"/>
<polygon fill="midnightblue" stroke="midnightblue" points="176.98,-17.37 186.6,-12.93 176.31,-10.4 176.98,-17.37"/>
</g>
<!-- Node4 -->
<g id="node4" class="node">
<title>Node4</title>
<g id="a_node4"><a xlink:title=" ">
<polygon fill="none" stroke="#bfbfbf" points="472.45,-0.5 472.45,-19.5 519.45,-19.5 519.45,-0.5 472.45,-0.5"/>
<text text-anchor="middle" x="495.95" y="-7.5" font-family="Helvetica,sans-Serif" font-size="10.00">stdlib.h</text>
</a>
</g>
</g>
<!-- Node2&#45;&gt;Node4 -->
<g id="edge3" class="edge">
<title>Node2&#45;&gt;Node4</title>
<path fill="none" stroke="midnightblue" d="M291.6,-168.69C372.84,-153.93 528.21,-120.49 558.95,-76 572.68,-56.11 547.17,-36.66 524.61,-24.3"/>
<polygon fill="midnightblue" stroke="midnightblue" points="526.06,-21.1 515.57,-19.61 522.84,-27.32 526.06,-21.1"/>
</g>
<!-- Node5 -->
<g id="node5" class="node">
<title>Node5</title>
<g id="a_node5"><a xlink:title=" ">
<polygon fill="none" stroke="#bfbfbf" points="57.95,-56.5 57.95,-75.5 103.95,-75.5 103.95,-56.5 57.95,-56.5"/>
<text text-anchor="middle" x="80.95" y="-63.5" font-family="Helvetica,sans-Serif" font-size="10.00">math.h</text>
</a>
</g>
</g>
<!-- Node2&#45;&gt;Node5 -->
<g id="edge4" class="edge">
<title>Node2&#45;&gt;Node5</title>
<path fill="none" stroke="midnightblue" d="M195.86,-168.44C170.63,-161.89 140.09,-150.68 117.95,-132 103.25,-119.6 93.18,-99.8 87.29,-85.31"/>
<polygon fill="midnightblue" stroke="midnightblue" points="90.54,-84 83.75,-75.88 83.99,-86.47 90.54,-84"/>
</g>
<!-- Node6 -->
<g id="node6" class="node">
<title>Node6</title>
<g id="a_node6"><a xlink:title=" ">
<polygon fill="none" stroke="#bfbfbf" points="127.45,-112.5 127.45,-131.5 170.45,-131.5 170.45,-112.5 127.45,-112.5"/>
<text text-anchor="middle" x="148.95" y="-119.5" font-family="Helvetica,sans-Serif" font-size="10.00">time.h</text>
</a>
</g>
</g>
<!-- Node2&#45;&gt;Node6 -->
<g id="edge5" class="edge">
<title>Node2&#45;&gt;Node6</title>
<path fill="none" stroke="midnightblue" d="M227,-168.32C212.36,-159.82 189.81,-146.73 172.71,-136.8"/>
<polygon fill="midnightblue" stroke="midnightblue" points="174.26,-133.65 163.85,-131.65 170.74,-139.7 174.26,-133.65"/>
</g>
<!-- Node7 -->
<g id="node7" class="node">
<title>Node7</title>
<g id="a_node7"><a xlink:title=" ">
<polygon fill="none" stroke="#bfbfbf" points="569.45,-0.5 569.45,-19.5 628.45,-19.5 628.45,-0.5 569.45,-0.5"/>
<text text-anchor="middle" x="598.95" y="-7.5" font-family="Helvetica,sans-Serif" font-size="10.00">curl/curl.h</text>
</a>
</g>
</g>
<!-- Node2&#45;&gt;Node7 -->
<g id="edge6" class="edge">
<title>Node2&#45;&gt;Node7</title>
<path fill="none" stroke="midnightblue" d="M291.57,-173.73C343.32,-169.04 426.07,-157.9 492.95,-132 536.53,-115.12 554.32,-113.69 581.95,-76 591.75,-62.62 595.91,-44.05 597.67,-30.19"/>
<polygon fill="midnightblue" stroke="midnightblue" points="601.19,-30.15 598.65,-19.86 594.22,-29.48 601.19,-30.15"/>
</g>
<!-- Node8 -->
<g id="node8" class="node">
<title>Node8</title>
<g id="a_node8"><a xlink:title=" ">
<polygon fill="none" stroke="#bfbfbf" points="255.45,-0.5 255.45,-19.5 338.45,-19.5 338.45,-0.5 255.45,-0.5"/>
<text text-anchor="middle" x="296.95" y="-7.5" font-family="Helvetica,sans-Serif" font-size="10.00">cjson/cJSON.h</text>
</a>
</g>
</g>
<!-- Node2&#45;&gt;Node8 -->
<g id="edge7" class="edge">
<title>Node2&#45;&gt;Node8</title>
<path fill="none" stroke="midnightblue" d="M200.2,-168.46C130.09,-152.29 0.85,-113.6 48.95,-56 50.52,-54.11 172.68,-32.6 244.94,-20.01"/>
<polygon fill="midnightblue" stroke="midnightblue" points="245.96,-23.39 255.22,-18.23 244.76,-16.49 245.96,-23.39"/>
</g>
<!-- Node9 -->
<g id="node9" class="node">
<title>Node9</title>
<g id="a_node9"><a xlink:href="forecast_8h.html" target="_top" xlink:title=" ">
<polygon fill="none" stroke="black" points="122.45,-56.5 122.45,-75.5 181.45,-75.5 181.45,-56.5 122.45,-56.5"/>
<text text-anchor="middle" x="151.95" y="-63.5" font-family="Helvetica,sans-Serif" font-size="10.00">forecast.h</text>
</a>
</g>
</g>
<!-- Node2&#45;&gt;Node9 -->
<g id="edge8" class="edge">
<title>Node2&#45;&gt;Node9</title>
<path fill="none" stroke="midnightblue" d="M234.88,-168.37C219.9,-150.05 184.71,-107.05 165.33,-83.36"/>
<polygon fill="midnightblue" stroke="midnightblue" points="168.02,-81.11 158.97,-75.59 162.6,-85.55 168.02,-81.11"/>
</g>
<!-- Node10 -->
<g id="node10" class="node">
<title>Node10</title>
<g id="a_node10"><a xlink:href="_willy_weather_2authenticate_8h.html" target="_top" xlink:title=" ">
<polygon fill="none" stroke="black" points="314.45,-56.5 314.45,-75.5 451.45,-75.5 451.45,-56.5 314.45,-56.5"/>
<text text-anchor="middle" x="382.95" y="-63.5" font-family="Helvetica,sans-Serif" font-size="10.00">WillyWeather/authenticate.h</text>
</a>
</g>
</g>
<!-- Node2&#45;&gt;Node10 -->
<g id="edge9" class="edge">
<title>Node2&#45;&gt;Node10</title>
<path fill="none" stroke="midnightblue" d="M283.46,-168.45C306.63,-161.86 334.63,-150.61 353.95,-132 367,-119.43 374.61,-99.94 378.73,-85.57"/>
<polygon fill="midnightblue" stroke="midnightblue" points="382.15,-86.35 381.24,-75.79 375.37,-84.61 382.15,-86.35"/>
</g>
<!-- Node12 -->
<g id="node12" class="node">
<title>Node12</title>
<g id="a_node12"><a xlink:href="location_8h.html" target="_top" xlink:title=" ">
<polygon fill="none" stroke="black" points="227.45,-112.5 227.45,-131.5 344.45,-131.5 344.45,-112.5 227.45,-112.5"/>
<text text-anchor="middle" x="285.95" y="-119.5" font-family="Helvetica,sans-Serif" font-size="10.00">WillyWeather/location.h</text>
</a>
</g>
</g>
<!-- Node2&#45;&gt;Node12 -->
<g id="edge15" class="edge">
<title>Node2&#45;&gt;Node12</title>
<path fill="none" stroke="midnightblue" d="M249.21,-168.08C255.49,-160.38 264.73,-149.03 272.38,-139.65"/>
<polygon fill="midnightblue" stroke="midnightblue" points="275.21,-141.71 278.81,-131.75 269.78,-137.29 275.21,-141.71"/>
</g>
<!-- Node13 -->
<g id="node13" class="node">
<title>Node13</title>
<g id="a_node13"><a xlink:href="utils_8h.html" target="_top" xlink:title=" ">
<polygon fill="none" stroke="black" points="507.95,-56.5 507.95,-75.5 549.95,-75.5 549.95,-56.5 507.95,-56.5"/>
<text text-anchor="middle" x="528.95" y="-63.5" font-family="Helvetica,sans-Serif" font-size="10.00">utils.h</text>
</a>
</g>
</g>
<!-- Node2&#45;&gt;Node13 -->
<g id="edge29" class="edge">
<title>Node2&#45;&gt;Node13</title>
<path fill="none" stroke="midnightblue" d="M268.68,-168.48C295.49,-159.8 337.84,-145.71 373.95,-132 418.5,-115.09 469.29,-93.3 500.23,-79.74"/>
<polygon fill="midnightblue" stroke="midnightblue" points="501.8,-82.87 509.54,-75.64 498.98,-76.46 501.8,-82.87"/>
</g>
<!-- Node10&#45;&gt;Node3 -->
<g id="edge10" class="edge">
<title>Node10&#45;&gt;Node3</title>
<path fill="none" stroke="midnightblue" d="M355.69,-56.44C325.69,-47.02 277.42,-31.87 244.96,-21.68"/>
<polygon fill="midnightblue" stroke="midnightblue" points="245.61,-18.21 235.02,-18.56 243.51,-24.89 245.61,-18.21"/>
</g>
<!-- Node10&#45;&gt;Node4 -->
<g id="edge11" class="edge">
<title>Node10&#45;&gt;Node4</title>
<path fill="none" stroke="midnightblue" d="M400.85,-56.44C419.2,-47.68 447.95,-33.94 469.04,-23.86"/>
<polygon fill="midnightblue" stroke="midnightblue" points="470.61,-26.99 478.12,-19.52 467.59,-20.67 470.61,-26.99"/>
</g>
<!-- Node10&#45;&gt;Node7 -->
<g id="edge14" class="edge">
<title>Node10&#45;&gt;Node7</title>
<path fill="none" stroke="midnightblue" d="M417.17,-56.44C455.88,-46.77 518.82,-31.03 559.54,-20.85"/>
<polygon fill="midnightblue" stroke="midnightblue" points="560.54,-24.21 569.39,-18.39 558.84,-17.42 560.54,-24.21"/>
</g>
<!-- Node10&#45;&gt;Node8 -->
<g id="edge13" class="edge">
<title>Node10&#45;&gt;Node8</title>
<path fill="none" stroke="midnightblue" d="M369.13,-56.32C355.71,-47.9 335.12,-34.97 319.36,-25.07"/>
<polygon fill="midnightblue" stroke="midnightblue" points="321.06,-22.01 310.73,-19.65 317.34,-27.94 321.06,-22.01"/>
</g>
<!-- Node11 -->
<g id="node11" class="node">
<title>Node11</title>
<g id="a_node11"><a xlink:title=" ">
<polygon fill="none" stroke="#bfbfbf" points="357.45,-0.5 357.45,-19.5 402.45,-19.5 402.45,-0.5 357.45,-0.5"/>
<text text-anchor="middle" x="379.95" y="-7.5" font-family="Helvetica,sans-Serif" font-size="10.00">stdio.h</text>
</a>
</g>
</g>
<!-- Node10&#45;&gt;Node11 -->
<g id="edge12" class="edge">
<title>Node10&#45;&gt;Node11</title>
<path fill="none" stroke="midnightblue" d="M382.45,-56.08C382.06,-49.01 381.49,-38.86 381,-29.99"/>
<polygon fill="midnightblue" stroke="midnightblue" points="384.48,-29.54 380.43,-19.75 377.49,-29.93 384.48,-29.54"/>
</g>
<!-- Node12&#45;&gt;Node3 -->
<g id="edge16" class="edge">
<title>Node12&#45;&gt;Node3</title>
<path fill="none" stroke="midnightblue" d="M280.06,-112.37C267.68,-94.22 238.76,-51.8 222.53,-27.99"/>
<polygon fill="midnightblue" stroke="midnightblue" points="225.33,-25.88 216.8,-19.59 219.54,-29.83 225.33,-25.88"/>
</g>
<!-- Node12&#45;&gt;Node4 -->
<g id="edge17" class="edge">
<title>Node12&#45;&gt;Node4</title>
<path fill="none" stroke="midnightblue" d="M344.75,-117.74C381.45,-113.03 427.85,-101.91 460.95,-76 476.05,-64.17 485.46,-43.96 490.66,-29.2"/>
<polygon fill="midnightblue" stroke="midnightblue" points="494.01,-30.22 493.74,-19.63 487.35,-28.08 494.01,-30.22"/>
</g>
<!-- Node12&#45;&gt;Node5 -->
<g id="edge19" class="edge">
<title>Node12&#45;&gt;Node5</title>
<path fill="none" stroke="midnightblue" d="M252.41,-112.48C219.49,-104.08 167.62,-90.72 113.73,-76.17"/>
<polygon fill="midnightblue" stroke="midnightblue" points="114.57,-72.78 104,-73.54 112.74,-79.53 114.57,-72.78"/>
</g>
<!-- Node12&#45;&gt;Node7 -->
<g id="edge21" class="edge">
<title>Node12&#45;&gt;Node7</title>
<path fill="none" stroke="midnightblue" d="M344.67,-117.01C414.17,-111.32 524.8,-98.93 558.95,-76 575.41,-64.95 586.3,-44.6 592.5,-29.6"/>
<polygon fill="midnightblue" stroke="midnightblue" points="595.93,-30.43 596.2,-19.84 589.38,-27.95 595.93,-30.43"/>
</g>
<!-- Node12&#45;&gt;Node8 -->
<g id="edge20" class="edge">
<title>Node12&#45;&gt;Node8</title>
<path fill="none" stroke="midnightblue" d="M281.4,-112.11C275.57,-99.55 266.79,-75.89 271.95,-56 274.49,-46.18 279.7,-36.21 284.7,-28.17"/>
<polygon fill="midnightblue" stroke="midnightblue" points="287.69,-29.99 290.32,-19.73 281.86,-26.11 287.69,-29.99"/>
</g>
<!-- Node12&#45;&gt;Node9 -->
<g id="edge28" class="edge">
<title>Node12&#45;&gt;Node9</title>
<path fill="none" stroke="midnightblue" d="M264.71,-112.44C242.56,-103.52 207.63,-89.44 182.51,-79.32"/>
<polygon fill="midnightblue" stroke="midnightblue" points="183.66,-76.01 173.08,-75.52 181.05,-82.5 183.66,-76.01"/>
</g>
<!-- Node12&#45;&gt;Node10 -->
<g id="edge22" class="edge">
<title>Node12&#45;&gt;Node10</title>
<path fill="none" stroke="midnightblue" d="M301.53,-112.32C316.94,-103.74 340.76,-90.49 358.65,-80.52"/>
<polygon fill="midnightblue" stroke="midnightblue" points="360.36,-83.58 367.4,-75.65 356.96,-77.46 360.36,-83.58"/>
</g>
<!-- Node12&#45;&gt;Node11 -->
<g id="edge18" class="edge">
<title>Node12&#45;&gt;Node11</title>
<path fill="none" stroke="midnightblue" d="M286.68,-112.1C288.21,-98.66 292.75,-72.96 305.95,-56 316.78,-42.08 333.22,-31.47 347.86,-24.06"/>
<polygon fill="midnightblue" stroke="midnightblue" points="349.61,-27.1 357.14,-19.65 346.61,-20.78 349.61,-27.1"/>
</g>
<!-- Node12&#45;&gt;Node13 -->
<g id="edge23" class="edge">
<title>Node12&#45;&gt;Node13</title>
<path fill="none" stroke="midnightblue" d="M327.88,-112.42C369.97,-103.7 436.6,-89.57 493.95,-76 495.22,-75.7 496.51,-75.39 497.82,-75.07"/>
<polygon fill="midnightblue" stroke="midnightblue" points="499.02,-78.38 507.88,-72.56 497.33,-71.58 499.02,-78.38"/>
</g>
<!-- Node13&#45;&gt;Node3 -->
<g id="edge25" class="edge">
<title>Node13&#45;&gt;Node3</title>
<path fill="none" stroke="midnightblue" d="M507.61,-62.24C460.39,-55.99 343.61,-39.76 246.95,-20 246.35,-19.88 245.76,-19.75 245.16,-19.63"/>
<polygon fill="midnightblue" stroke="midnightblue" points="245.81,-16.19 235.28,-17.39 244.26,-23.01 245.81,-16.19"/>
</g>
<!-- Node13&#45;&gt;Node4 -->
<g id="edge24" class="edge">
<title>Node13&#45;&gt;Node4</title>
<path fill="none" stroke="midnightblue" d="M523.5,-56.08C518.93,-48.61 512.28,-37.72 506.65,-28.52"/>
<polygon fill="midnightblue" stroke="midnightblue" points="509.49,-26.46 501.29,-19.75 503.52,-30.11 509.49,-26.46"/>
</g>
<!-- Node13&#45;&gt;Node7 -->
<g id="edge26" class="edge">
<title>Node13&#45;&gt;Node7</title>
<path fill="none" stroke="midnightblue" d="M540.19,-56.32C550.74,-48.18 566.75,-35.84 579.39,-26.09"/>
<polygon fill="midnightblue" stroke="midnightblue" points="581.71,-28.71 587.49,-19.83 577.44,-23.17 581.71,-28.71"/>
</g>
<!-- Node13&#45;&gt;Node8 -->
<g id="edge27" class="edge">
<title>Node13&#45;&gt;Node8</title>
<path fill="none" stroke="midnightblue" d="M507.54,-60.02C470.49,-51.39 393.62,-33.5 343.71,-21.89"/>
<polygon fill="midnightblue" stroke="midnightblue" points="344.34,-18.44 333.8,-19.58 342.75,-25.25 344.34,-18.44"/>
</g>
</g>
</svg>
