<?xml version="1.0" encoding="UTF-8" standalone="no"?>
<!DOCTYPE svg PUBLIC "-//W3C//DTD SVG 1.1//EN"
 "http://www.w3.org/Graphics/SVG/1.1/DTD/svg11.dtd">
<!-- Generated by graphviz version 2.49.3 (20211027.1534)
 -->
<!-- Title: src/WillyWeather/tide.c Pages: 1 -->
<svg width="1010pt" height="420pt"
 viewBox="0.00 0.00 1010.00 420.00" xmlns="http://www.w3.org/2000/svg" xmlns:xlink="http://www.w3.org/1999/xlink">
<g id="graph0" class="graph" transform="scale(1 1) rotate(0) translate(4 416)">
<title>src/WillyWeather/tide.c</title>
<!-- Node1 -->
<g id="node1" class="node">
<title>Node1</title>
<g id="a_node1"><a xlink:title=" ">
<polygon fill="#bfbfbf" stroke="black" points="401.5,-392.5 401.5,-411.5 517.5,-411.5 517.5,-392.5 401.5,-392.5"/>
<text text-anchor="middle" x="459.5" y="-399.5" font-family="Helvetica,sans-Serif" font-size="10.00">src/WillyWeather/tide.c</text>
</a>
</g>
</g>
<!-- Node2 -->
<g id="node2" class="node">
<title>Node2</title>
<g id="a_node2"><a xlink:href="tide_8h.html" target="_top" xlink:title=" ">
<polygon fill="none" stroke="black" points="410,-336.5 410,-355.5 509,-355.5 509,-336.5 410,-336.5"/>
<text text-anchor="middle" x="459.5" y="-343.5" font-family="Helvetica,sans-Serif" font-size="10.00">WillyWeather/tide.h</text>
</a>
</g>
</g>
<!-- Node1&#45;&gt;Node2 -->
<g id="edge1" class="edge">
<title>Node1&#45;&gt;Node2</title>
<path fill="none" stroke="midnightblue" d="M459.5,-392.08C459.5,-385.01 459.5,-374.86 459.5,-365.99"/>
<polygon fill="midnightblue" stroke="midnightblue" points="463,-365.75 459.5,-355.75 456,-365.75 463,-365.75"/>
</g>
<!-- Node3 -->
<g id="node3" class="node">
<title>Node3</title>
<g id="a_node3"><a xlink:title=" ">
<polygon fill="none" stroke="#bfbfbf" points="98.5,-56.5 98.5,-75.5 146.5,-75.5 146.5,-56.5 98.5,-56.5"/>
<text text-anchor="middle" x="122.5" y="-63.5" font-family="Helvetica,sans-Serif" font-size="10.00">string.h</text>
</a>
</g>
</g>
<!-- Node2&#45;&gt;Node3 -->
<g id="edge2" class="edge">
<title>Node2&#45;&gt;Node3</title>
<path fill="none" stroke="midnightblue" d="M409.68,-345.74C324.81,-345.85 157.55,-340.73 118.5,-300 61.6,-240.64 97.57,-128.68 114.81,-85.05"/>
<polygon fill="midnightblue" stroke="midnightblue" points="118.08,-86.3 118.63,-75.72 111.6,-83.64 118.08,-86.3"/>
</g>
<!-- Node4 -->
<g id="node4" class="node">
<title>Node4</title>
<g id="a_node4"><a xlink:title=" ">
<polygon fill="none" stroke="#bfbfbf" points="456,-56.5 456,-75.5 503,-75.5 503,-56.5 456,-56.5"/>
<text text-anchor="middle" x="479.5" y="-63.5" font-family="Helvetica,sans-Serif" font-size="10.00">stdlib.h</text>
</a>
</g>
</g>
<!-- Node2&#45;&gt;Node4 -->
<g id="edge3" class="edge">
<title>Node2&#45;&gt;Node4</title>
<path fill="none" stroke="midnightblue" d="M409.96,-340.09C383.81,-334.69 353.83,-323.43 337.5,-300 332.42,-292.71 337.03,-288.88 337.5,-280 341.79,-199.73 343.63,-164.51 404.5,-112 418.93,-99.55 437.24,-88.49 452.15,-80.45"/>
<polygon fill="midnightblue" stroke="midnightblue" points="454.15,-83.36 461.39,-75.62 450.91,-77.16 454.15,-83.36"/>
</g>
<!-- Node5 -->
<g id="node5" class="node">
<title>Node5</title>
<g id="a_node5"><a xlink:title=" ">
<polygon fill="none" stroke="#bfbfbf" points="704.5,-224.5 704.5,-243.5 750.5,-243.5 750.5,-224.5 704.5,-224.5"/>
<text text-anchor="middle" x="727.5" y="-231.5" font-family="Helvetica,sans-Serif" font-size="10.00">math.h</text>
</a>
</g>
</g>
<!-- Node2&#45;&gt;Node5 -->
<g id="edge4" class="edge">
<title>Node2&#45;&gt;Node5</title>
<path fill="none" stroke="midnightblue" d="M480.53,-336.37C527.69,-317.01 642.07,-270.06 697.03,-247.51"/>
<polygon fill="midnightblue" stroke="midnightblue" points="698.65,-250.63 706.57,-243.59 695.99,-244.15 698.65,-250.63"/>
</g>
<!-- Node6 -->
<g id="node6" class="node">
<title>Node6</title>
<g id="a_node6"><a xlink:title=" ">
<polygon fill="none" stroke="#bfbfbf" points="791,-0.5 791,-19.5 834,-19.5 834,-0.5 791,-0.5"/>
<text text-anchor="middle" x="812.5" y="-7.5" font-family="Helvetica,sans-Serif" font-size="10.00">time.h</text>
</a>
</g>
</g>
<!-- Node2&#45;&gt;Node6 -->
<g id="edge5" class="edge">
<title>Node2&#45;&gt;Node6</title>
<path fill="none" stroke="midnightblue" d="M509.13,-341.64C615.22,-333.08 854.5,-305.92 854.5,-235 854.5,-235 854.5,-235 854.5,-121 854.5,-86.41 836.15,-49.49 823.71,-28.43"/>
<polygon fill="midnightblue" stroke="midnightblue" points="826.56,-26.38 818.34,-19.69 820.59,-30.04 826.56,-26.38"/>
</g>
<!-- Node7 -->
<g id="node7" class="node">
<title>Node7</title>
<g id="a_node7"><a xlink:title=" ">
<polygon fill="none" stroke="#bfbfbf" points="521,-56.5 521,-75.5 580,-75.5 580,-56.5 521,-56.5"/>
<text text-anchor="middle" x="550.5" y="-63.5" font-family="Helvetica,sans-Serif" font-size="10.00">curl/curl.h</text>
</a>
</g>
</g>
<!-- Node2&#45;&gt;Node7 -->
<g id="edge6" class="edge">
<title>Node2&#45;&gt;Node7</title>
<path fill="none" stroke="midnightblue" d="M509.03,-345C578.63,-341.97 703.16,-324.8 759.5,-244 812.94,-167.36 661.19,-104.09 587.77,-78.82"/>
<polygon fill="midnightblue" stroke="midnightblue" points="588.56,-75.39 577.96,-75.51 586.32,-82.02 588.56,-75.39"/>
</g>
<!-- Node8 -->
<g id="node8" class="node">
<title>Node8</title>
<g id="a_node8"><a xlink:title=" ">
<polygon fill="none" stroke="#bfbfbf" points="598,-56.5 598,-75.5 681,-75.5 681,-56.5 598,-56.5"/>
<text text-anchor="middle" x="639.5" y="-63.5" font-family="Helvetica,sans-Serif" font-size="10.00">cjson/cJSON.h</text>
</a>
</g>
</g>
<!-- Node2&#45;&gt;Node8 -->
<g id="edge7" class="edge">
<title>Node2&#45;&gt;Node8</title>
<path fill="none" stroke="midnightblue" d="M509.14,-340.18C607.23,-329.27 816.5,-298.56 816.5,-235 816.5,-235 816.5,-235 816.5,-177 816.5,-117.52 743.5,-89.07 691.26,-76.32"/>
<polygon fill="midnightblue" stroke="midnightblue" points="691.98,-72.9 681.45,-74.05 690.4,-79.72 691.98,-72.9"/>
</g>
<!-- Node9 -->
<g id="node9" class="node">
<title>Node9</title>
<g id="a_node9"><a xlink:href="log_8h.html" target="_top" xlink:title=" ">
<polygon fill="none" stroke="black" points="43,-56.5 43,-75.5 80,-75.5 80,-56.5 43,-56.5"/>
<text text-anchor="middle" x="61.5" y="-63.5" font-family="Helvetica,sans-Serif" font-size="10.00">log.h</text>
</a>
</g>
</g>
<!-- Node2&#45;&gt;Node9 -->
<g id="edge8" class="edge">
<title>Node2&#45;&gt;Node9</title>
<path fill="none" stroke="midnightblue" d="M409.92,-342.7C324.59,-338.11 153.99,-325.92 100.5,-300 63.45,-282.05 34.5,-276.17 34.5,-235 34.5,-235 34.5,-235 34.5,-177 34.5,-143.86 46.2,-106.68 54.2,-85.14"/>
<polygon fill="midnightblue" stroke="midnightblue" points="57.52,-86.25 57.86,-75.66 50.99,-83.73 57.52,-86.25"/>
</g>
<!-- Node13 -->
<g id="node13" class="node">
<title>Node13</title>
<g id="a_node13"><a xlink:href="_willy_weather_2authenticate_8h.html" target="_top" xlink:title=" ">
<polygon fill="none" stroke="black" points="435,-224.5 435,-243.5 572,-243.5 572,-224.5 435,-224.5"/>
<text text-anchor="middle" x="503.5" y="-231.5" font-family="Helvetica,sans-Serif" font-size="10.00">WillyWeather/authenticate.h</text>
</a>
</g>
</g>
<!-- Node2&#45;&gt;Node13 -->
<g id="edge13" class="edge">
<title>Node2&#45;&gt;Node13</title>
<path fill="none" stroke="midnightblue" d="M465.08,-336.33C470.6,-327.47 478.99,-313.19 484.5,-300 490.87,-284.74 495.98,-266.64 499.28,-253.41"/>
<polygon fill="midnightblue" stroke="midnightblue" points="502.7,-254.16 501.63,-243.62 495.9,-252.53 502.7,-254.16"/>
</g>
<!-- Node14 -->
<g id="node14" class="node">
<title>Node14</title>
<g id="a_node14"><a xlink:href="http_8h.html" target="_top" xlink:title=" ">
<polygon fill="none" stroke="black" points="367,-168.5 367,-187.5 408,-187.5 408,-168.5 367,-168.5"/>
<text text-anchor="middle" x="387.5" y="-175.5" font-family="Helvetica,sans-Serif" font-size="10.00">http.h</text>
</a>
</g>
</g>
<!-- Node2&#45;&gt;Node14 -->
<g id="edge46" class="edge">
<title>Node2&#45;&gt;Node14</title>
<path fill="none" stroke="midnightblue" d="M409.9,-337.49C387.5,-331.35 363.07,-320.21 349.5,-300 327.31,-266.95 355.42,-220.23 373.84,-195.63"/>
<polygon fill="midnightblue" stroke="midnightblue" points="376.69,-197.68 380.08,-187.64 371.17,-193.37 376.69,-197.68"/>
</g>
<!-- Node15 -->
<g id="node15" class="node">
<title>Node15</title>
<g id="a_node15"><a xlink:href="utils_8h.html" target="_top" xlink:title=" ">
<polygon fill="none" stroke="black" points="290.5,-112.5 290.5,-131.5 332.5,-131.5 332.5,-112.5 290.5,-112.5"/>
<text text-anchor="middle" x="311.5" y="-119.5" font-family="Helvetica,sans-Serif" font-size="10.00">utils.h</text>
</a>
</g>
</g>
<!-- Node2&#45;&gt;Node15 -->
<g id="edge47" class="edge">
<title>Node2&#45;&gt;Node15</title>
<path fill="none" stroke="midnightblue" d="M409.68,-345.71C327.61,-345.69 169.58,-340.27 134.5,-300 94.4,-253.97 123.67,-204.65 172.5,-168 204.62,-143.89 250.18,-132.39 280.27,-127.13"/>
<polygon fill="midnightblue" stroke="midnightblue" points="280.91,-130.57 290.22,-125.51 279.79,-123.66 280.91,-130.57"/>
</g>
<!-- Node20 -->
<g id="node20" class="node">
<title>Node20</title>
<g id="a_node20"><a xlink:href="location_8h.html" target="_top" xlink:title=" ">
<polygon fill="none" stroke="black" points="358,-280.5 358,-299.5 475,-299.5 475,-280.5 358,-280.5"/>
<text text-anchor="middle" x="416.5" y="-287.5" font-family="Helvetica,sans-Serif" font-size="10.00">WillyWeather/location.h</text>
</a>
</g>
</g>
<!-- Node2&#45;&gt;Node20 -->
<g id="edge34" class="edge">
<title>Node2&#45;&gt;Node20</title>
<path fill="none" stroke="midnightblue" d="M452.4,-336.08C446.26,-328.38 437.23,-317.03 429.76,-307.65"/>
<polygon fill="midnightblue" stroke="midnightblue" points="432.44,-305.39 423.47,-299.75 426.96,-309.75 432.44,-305.39"/>
</g>
<!-- Node21 -->
<g id="node21" class="node">
<title>Node21</title>
<g id="a_node21"><a xlink:href="forecast_8h.html" target="_top" xlink:title=" ">
<polygon fill="none" stroke="black" points="883,-280.5 883,-299.5 1002,-299.5 1002,-280.5 883,-280.5"/>
<text text-anchor="middle" x="942.5" y="-287.5" font-family="Helvetica,sans-Serif" font-size="10.00">WillyWeather/forecast.h</text>
</a>
</g>
</g>
<!-- Node2&#45;&gt;Node21 -->
<g id="edge45" class="edge">
<title>Node2&#45;&gt;Node21</title>
<path fill="none" stroke="midnightblue" d="M509.26,-339.71C586.28,-331.48 739,-315 868.5,-300 869.8,-299.85 871.12,-299.7 872.44,-299.54"/>
<polygon fill="midnightblue" stroke="midnightblue" points="873.21,-302.98 882.73,-298.33 872.39,-296.02 873.21,-302.98"/>
</g>
<!-- Node9&#45;&gt;Node6 -->
<g id="edge12" class="edge">
<title>Node9&#45;&gt;Node6</title>
<path fill="none" stroke="midnightblue" d="M80.01,-58.32C83.14,-57.4 86.39,-56.58 89.5,-56 374.87,-3.16 452.47,-46.26 741.5,-20 754.32,-18.83 768.4,-17.14 780.62,-15.53"/>
<polygon fill="midnightblue" stroke="midnightblue" points="781.35,-18.96 790.79,-14.16 780.41,-12.03 781.35,-18.96"/>
</g>
<!-- Node10 -->
<g id="node10" class="node">
<title>Node10</title>
<g id="a_node10"><a xlink:title=" ">
<polygon fill="none" stroke="#bfbfbf" points="687,-0.5 687,-19.5 732,-19.5 732,-0.5 687,-0.5"/>
<text text-anchor="middle" x="709.5" y="-7.5" font-family="Helvetica,sans-Serif" font-size="10.00">stdio.h</text>
</a>
</g>
</g>
<!-- Node9&#45;&gt;Node10 -->
<g id="edge9" class="edge">
<title>Node9&#45;&gt;Node10</title>
<path fill="none" stroke="midnightblue" d="M80.01,-58.37C83.15,-57.44 86.39,-56.6 89.5,-56 310.64,-13.07 583.35,-10.23 676.52,-10.65"/>
<polygon fill="midnightblue" stroke="midnightblue" points="676.7,-14.15 686.72,-10.71 676.74,-7.15 676.7,-14.15"/>
</g>
<!-- Node11 -->
<g id="node11" class="node">
<title>Node11</title>
<g id="a_node11"><a xlink:title=" ">
<polygon fill="none" stroke="#bfbfbf" points="0,-0.5 0,-19.5 51,-19.5 51,-0.5 0,-0.5"/>
<text text-anchor="middle" x="25.5" y="-7.5" font-family="Helvetica,sans-Serif" font-size="10.00">stdarg.h</text>
</a>
</g>
</g>
<!-- Node9&#45;&gt;Node11 -->
<g id="edge10" class="edge">
<title>Node9&#45;&gt;Node11</title>
<path fill="none" stroke="midnightblue" d="M55.56,-56.08C50.52,-48.53 43.16,-37.49 36.99,-28.23"/>
<polygon fill="midnightblue" stroke="midnightblue" points="39.79,-26.13 31.33,-19.75 33.97,-30.01 39.79,-26.13"/>
</g>
<!-- Node12 -->
<g id="node12" class="node">
<title>Node12</title>
<g id="a_node12"><a xlink:title=" ">
<polygon fill="none" stroke="#bfbfbf" points="69.5,-0.5 69.5,-19.5 125.5,-19.5 125.5,-0.5 69.5,-0.5"/>
<text text-anchor="middle" x="97.5" y="-7.5" font-family="Helvetica,sans-Serif" font-size="10.00">stdbool.h</text>
</a>
</g>
</g>
<!-- Node9&#45;&gt;Node12 -->
<g id="edge11" class="edge">
<title>Node9&#45;&gt;Node12</title>
<path fill="none" stroke="midnightblue" d="M67.44,-56.08C72.48,-48.53 79.84,-37.49 86.01,-28.23"/>
<polygon fill="midnightblue" stroke="midnightblue" points="89.03,-30.01 91.67,-19.75 83.21,-26.13 89.03,-30.01"/>
</g>
<!-- Node13&#45;&gt;Node3 -->
<g id="edge14" class="edge">
<title>Node13&#45;&gt;Node3</title>
<path fill="none" stroke="midnightblue" d="M471.68,-224.47C442.02,-216.2 396.73,-202.77 358.5,-188 351.64,-185.35 245.05,-135.36 238.5,-132 205.82,-115.25 168.96,-94.22 145.74,-80.69"/>
<polygon fill="midnightblue" stroke="midnightblue" points="147.36,-77.59 136.96,-75.56 143.83,-83.63 147.36,-77.59"/>
</g>
<!-- Node13&#45;&gt;Node4 -->
<g id="edge15" class="edge">
<title>Node13&#45;&gt;Node4</title>
<path fill="none" stroke="midnightblue" d="M502.21,-224.08C498.43,-197.95 487.34,-121.21 482.19,-85.58"/>
<polygon fill="midnightblue" stroke="midnightblue" points="485.63,-84.96 480.74,-75.57 478.71,-85.97 485.63,-84.96"/>
</g>
<!-- Node13&#45;&gt;Node7 -->
<g id="edge18" class="edge">
<title>Node13&#45;&gt;Node7</title>
<path fill="none" stroke="midnightblue" d="M506.03,-224.08C513.43,-197.95 535.15,-121.21 545.24,-85.58"/>
<polygon fill="midnightblue" stroke="midnightblue" points="548.72,-86.14 548.07,-75.57 541.98,-84.24 548.72,-86.14"/>
</g>
<!-- Node13&#45;&gt;Node8 -->
<g id="edge17" class="edge">
<title>Node13&#45;&gt;Node8</title>
<path fill="none" stroke="midnightblue" d="M510.81,-224.08C532.68,-197.38 597.83,-117.87 626.13,-83.32"/>
<polygon fill="midnightblue" stroke="midnightblue" points="628.85,-85.52 632.48,-75.57 623.44,-81.09 628.85,-85.52"/>
</g>
<!-- Node13&#45;&gt;Node9 -->
<g id="edge19" class="edge">
<title>Node13&#45;&gt;Node9</title>
<path fill="none" stroke="midnightblue" d="M455.31,-224.46C416.63,-216.92 361.25,-204.53 314.5,-188 226.83,-157 129.16,-104.91 85.2,-80.45"/>
<polygon fill="midnightblue" stroke="midnightblue" points="86.85,-77.36 76.42,-75.53 83.43,-83.47 86.85,-77.36"/>
</g>
<!-- Node13&#45;&gt;Node10 -->
<g id="edge16" class="edge">
<title>Node13&#45;&gt;Node10</title>
<path fill="none" stroke="midnightblue" d="M519.03,-224.45C554.96,-203.85 644.26,-147.82 690.5,-76 699.55,-61.94 704.41,-43.45 706.94,-29.78"/>
<polygon fill="midnightblue" stroke="midnightblue" points="710.44,-30.07 708.56,-19.64 703.52,-28.97 710.44,-30.07"/>
</g>
<!-- Node13&#45;&gt;Node14 -->
<g id="edge20" class="edge">
<title>Node13&#45;&gt;Node14</title>
<path fill="none" stroke="midnightblue" d="M485.12,-224.44C466.28,-215.68 436.77,-201.94 415.12,-191.86"/>
<polygon fill="midnightblue" stroke="midnightblue" points="416.34,-188.56 405.79,-187.52 413.38,-194.91 416.34,-188.56"/>
</g>
<!-- Node14&#45;&gt;Node3 -->
<g id="edge22" class="edge">
<title>Node14&#45;&gt;Node3</title>
<path fill="none" stroke="midnightblue" d="M366.69,-168.41C345.25,-159.51 310.91,-145.08 281.5,-132 262.24,-123.44 257.89,-120.26 238.5,-112 210.68,-100.15 178.59,-87.8 155.23,-79.04"/>
<polygon fill="midnightblue" stroke="midnightblue" points="156.38,-75.74 145.79,-75.52 153.94,-82.3 156.38,-75.74"/>
</g>
<!-- Node14&#45;&gt;Node4 -->
<g id="edge21" class="edge">
<title>Node14&#45;&gt;Node4</title>
<path fill="none" stroke="midnightblue" d="M390.82,-168.33C396.14,-155.18 407.5,-129.87 422.5,-112 432.35,-100.26 445.69,-89.53 456.99,-81.49"/>
<polygon fill="midnightblue" stroke="midnightblue" points="459.24,-84.2 465.51,-75.66 455.28,-78.42 459.24,-84.2"/>
</g>
<!-- Node14&#45;&gt;Node7 -->
<g id="edge23" class="edge">
<title>Node14&#45;&gt;Node7</title>
<path fill="none" stroke="midnightblue" d="M400.29,-168.37C428.26,-149.49 495.1,-104.38 529.4,-81.24"/>
<polygon fill="midnightblue" stroke="midnightblue" points="531.44,-84.09 537.77,-75.59 527.52,-78.28 531.44,-84.09"/>
</g>
<!-- Node14&#45;&gt;Node15 -->
<g id="edge24" class="edge">
<title>Node14&#45;&gt;Node15</title>
<path fill="none" stroke="midnightblue" d="M375.29,-168.32C363.72,-160.11 346.12,-147.6 332.34,-137.81"/>
<polygon fill="midnightblue" stroke="midnightblue" points="334.11,-134.77 323.93,-131.83 330.06,-140.48 334.11,-134.77"/>
</g>
<!-- Node15&#45;&gt;Node3 -->
<g id="edge26" class="edge">
<title>Node15&#45;&gt;Node3</title>
<path fill="none" stroke="midnightblue" d="M290.19,-114.91C257.66,-105.62 195.34,-87.81 156.51,-76.72"/>
<polygon fill="midnightblue" stroke="midnightblue" points="157.28,-73.3 146.7,-73.92 155.36,-80.03 157.28,-73.3"/>
</g>
<!-- Node15&#45;&gt;Node4 -->
<g id="edge25" class="edge">
<title>Node15&#45;&gt;Node4</title>
<path fill="none" stroke="midnightblue" d="M332.78,-114.16C361.34,-104.98 412.39,-88.57 446.11,-77.73"/>
<polygon fill="midnightblue" stroke="midnightblue" points="447.52,-80.96 455.97,-74.56 445.38,-74.29 447.52,-80.96"/>
</g>
<!-- Node15&#45;&gt;Node7 -->
<g id="edge27" class="edge">
<title>Node15&#45;&gt;Node7</title>
<path fill="none" stroke="midnightblue" d="M332.64,-116.36C367.65,-108.65 440.09,-92.62 510.69,-76.4"/>
<polygon fill="midnightblue" stroke="midnightblue" points="511.68,-79.76 520.64,-74.11 510.11,-72.94 511.68,-79.76"/>
</g>
<!-- Node15&#45;&gt;Node8 -->
<g id="edge29" class="edge">
<title>Node15&#45;&gt;Node8</title>
<path fill="none" stroke="midnightblue" d="M332.8,-117.68C377.88,-110.64 486.53,-93.5 587.69,-76.29"/>
<polygon fill="midnightblue" stroke="midnightblue" points="588.5,-79.7 597.77,-74.57 587.32,-72.8 588.5,-79.7"/>
</g>
<!-- Node15&#45;&gt;Node9 -->
<g id="edge33" class="edge">
<title>Node15&#45;&gt;Node9</title>
<path fill="none" stroke="midnightblue" d="M290.2,-117.49C252.07,-111.05 169.51,-96.31 90.24,-75.94"/>
<polygon fill="midnightblue" stroke="midnightblue" points="90.65,-72.43 80.09,-73.29 88.89,-79.2 90.65,-72.43"/>
</g>
<!-- Node16 -->
<g id="node16" class="node">
<title>Node16</title>
<g id="a_node16"><a xlink:title=" ">
<polygon fill="none" stroke="#bfbfbf" points="164.5,-56.5 164.5,-75.5 212.5,-75.5 212.5,-56.5 164.5,-56.5"/>
<text text-anchor="middle" x="188.5" y="-63.5" font-family="Helvetica,sans-Serif" font-size="10.00">stdint.h</text>
</a>
</g>
</g>
<!-- Node15&#45;&gt;Node16 -->
<g id="edge28" class="edge">
<title>Node15&#45;&gt;Node16</title>
<path fill="none" stroke="midnightblue" d="M292.01,-112.44C271.86,-103.6 240.18,-89.69 217.17,-79.59"/>
<polygon fill="midnightblue" stroke="midnightblue" points="218.46,-76.33 207.9,-75.52 215.65,-82.74 218.46,-76.33"/>
</g>
<!-- Node17 -->
<g id="node17" class="node">
<title>Node17</title>
<g id="a_node17"><a xlink:title=" ">
<polygon fill="none" stroke="#bfbfbf" points="231,-56.5 231,-75.5 290,-75.5 290,-56.5 231,-56.5"/>
<text text-anchor="middle" x="260.5" y="-63.5" font-family="Helvetica,sans-Serif" font-size="10.00">sys/stat.h</text>
</a>
</g>
</g>
<!-- Node15&#45;&gt;Node17 -->
<g id="edge30" class="edge">
<title>Node15&#45;&gt;Node17</title>
<path fill="none" stroke="midnightblue" d="M303.08,-112.08C295.65,-104.22 284.65,-92.57 275.69,-83.08"/>
<polygon fill="midnightblue" stroke="midnightblue" points="278.18,-80.62 268.76,-75.75 273.09,-85.42 278.18,-80.62"/>
</g>
<!-- Node18 -->
<g id="node18" class="node">
<title>Node18</title>
<g id="a_node18"><a xlink:title=" ">
<polygon fill="none" stroke="#bfbfbf" points="308,-56.5 308,-75.5 373,-75.5 373,-56.5 308,-56.5"/>
<text text-anchor="middle" x="340.5" y="-63.5" font-family="Helvetica,sans-Serif" font-size="10.00">sys/types.h</text>
</a>
</g>
</g>
<!-- Node15&#45;&gt;Node18 -->
<g id="edge31" class="edge">
<title>Node15&#45;&gt;Node18</title>
<path fill="none" stroke="midnightblue" d="M316.29,-112.08C320.26,-104.69 326.03,-93.95 330.93,-84.81"/>
<polygon fill="midnightblue" stroke="midnightblue" points="334.15,-86.22 335.8,-75.75 327.99,-82.91 334.15,-86.22"/>
</g>
<!-- Node19 -->
<g id="node19" class="node">
<title>Node19</title>
<g id="a_node19"><a xlink:title=" ">
<polygon fill="none" stroke="#bfbfbf" points="391.5,-56.5 391.5,-75.5 437.5,-75.5 437.5,-56.5 391.5,-56.5"/>
<text text-anchor="middle" x="414.5" y="-63.5" font-family="Helvetica,sans-Serif" font-size="10.00">errno.h</text>
</a>
</g>
</g>
<!-- Node15&#45;&gt;Node19 -->
<g id="edge32" class="edge">
<title>Node15&#45;&gt;Node19</title>
<path fill="none" stroke="midnightblue" d="M328.05,-112.32C344.49,-103.7 369.93,-90.36 388.97,-80.39"/>
<polygon fill="midnightblue" stroke="midnightblue" points="390.76,-83.4 397.99,-75.65 387.51,-77.2 390.76,-83.4"/>
</g>
<!-- Node20&#45;&gt;Node3 -->
<g id="edge35" class="edge">
<title>Node20&#45;&gt;Node3</title>
<path fill="none" stroke="midnightblue" d="M404.11,-280.43C370.71,-257.22 276.21,-190.96 200.5,-132 179.38,-115.55 155.86,-95.74 140.23,-82.35"/>
<polygon fill="midnightblue" stroke="midnightblue" points="142.29,-79.5 132.42,-75.63 137.72,-84.81 142.29,-79.5"/>
</g>
<!-- Node20&#45;&gt;Node4 -->
<g id="edge36" class="edge">
<title>Node20&#45;&gt;Node4</title>
<path fill="none" stroke="midnightblue" d="M417.33,-280.49C418.67,-267.99 421.63,-243.97 426.5,-224 439.01,-172.7 460.82,-114.25 472.17,-85.28"/>
<polygon fill="midnightblue" stroke="midnightblue" points="475.54,-86.28 475.97,-75.69 469.03,-83.7 475.54,-86.28"/>
</g>
<!-- Node20&#45;&gt;Node5 -->
<g id="edge38" class="edge">
<title>Node20&#45;&gt;Node5</title>
<path fill="none" stroke="midnightblue" d="M475.26,-280.67C530.91,-272.47 616.69,-259.02 690.5,-244 691.78,-243.74 693.07,-243.47 694.38,-243.19"/>
<polygon fill="midnightblue" stroke="midnightblue" points="695.49,-246.52 704.47,-240.89 693.94,-239.7 695.49,-246.52"/>
</g>
<!-- Node20&#45;&gt;Node7 -->
<g id="edge40" class="edge">
<title>Node20&#45;&gt;Node7</title>
<path fill="none" stroke="midnightblue" d="M475.29,-280.6C517.23,-273.27 568.43,-261.11 581.5,-244 618.21,-195.94 581.54,-119.16 561.58,-84.73"/>
<polygon fill="midnightblue" stroke="midnightblue" points="564.39,-82.61 556.24,-75.83 558.39,-86.21 564.39,-82.61"/>
</g>
<!-- Node20&#45;&gt;Node8 -->
<g id="edge39" class="edge">
<title>Node20&#45;&gt;Node8</title>
<path fill="none" stroke="midnightblue" d="M475.21,-281.46C522.25,-274.22 583.15,-261.76 600.5,-244 642.97,-200.54 643.56,-121.94 641.29,-85.93"/>
<polygon fill="midnightblue" stroke="midnightblue" points="644.76,-85.54 640.5,-75.84 637.79,-86.08 644.76,-85.54"/>
</g>
<!-- Node20&#45;&gt;Node9 -->
<g id="edge41" class="edge">
<title>Node20&#45;&gt;Node9</title>
<path fill="none" stroke="midnightblue" d="M397.09,-280.5C377.85,-271.89 347.69,-257.89 322.5,-244 240.66,-198.86 220.95,-185.77 144.5,-132 121.43,-115.77 96.05,-95.52 79.51,-81.98"/>
<polygon fill="midnightblue" stroke="midnightblue" points="81.66,-79.22 71.72,-75.56 77.21,-84.62 81.66,-79.22"/>
</g>
<!-- Node20&#45;&gt;Node10 -->
<g id="edge37" class="edge">
<title>Node20&#45;&gt;Node10</title>
<path fill="none" stroke="midnightblue" d="M475.08,-281.76C527.3,-274.31 598.88,-261.36 621.5,-244 688.21,-192.81 687.97,-157.54 708.5,-76 712.34,-60.76 712.3,-42.88 711.46,-29.73"/>
<polygon fill="midnightblue" stroke="midnightblue" points="714.93,-29.24 710.6,-19.58 707.96,-29.84 714.93,-29.24"/>
</g>
<!-- Node20&#45;&gt;Node13 -->
<g id="edge42" class="edge">
<title>Node20&#45;&gt;Node13</title>
<path fill="none" stroke="midnightblue" d="M430.48,-280.32C444.05,-271.9 464.88,-258.97 480.82,-249.07"/>
<polygon fill="midnightblue" stroke="midnightblue" points="482.91,-251.9 489.56,-243.65 479.21,-245.95 482.91,-251.9"/>
</g>
<!-- Node20&#45;&gt;Node14 -->
<g id="edge43" class="edge">
<title>Node20&#45;&gt;Node14</title>
<path fill="none" stroke="midnightblue" d="M410.58,-280.5C404.85,-271.78 396.46,-257.6 392.5,-244 388.09,-228.87 387,-210.97 386.92,-197.79"/>
<polygon fill="midnightblue" stroke="midnightblue" points="390.42,-197.66 387.05,-187.61 383.42,-197.57 390.42,-197.66"/>
</g>
<!-- Node20&#45;&gt;Node15 -->
<g id="edge44" class="edge">
<title>Node20&#45;&gt;Node15</title>
<path fill="none" stroke="midnightblue" d="M409.92,-280.17C403.31,-271.2 392.91,-256.83 384.5,-244 360.84,-207.92 335.23,-164.3 321.52,-140.54"/>
<polygon fill="midnightblue" stroke="midnightblue" points="324.43,-138.57 316.42,-131.65 318.36,-142.06 324.43,-138.57"/>
</g>
</g>
</svg>
