<?xml version="1.0" encoding="UTF-8" standalone="no"?>
<!DOCTYPE svg PUBLIC "-//W3C//DTD SVG 1.1//EN"
 "http://www.w3.org/Graphics/SVG/1.1/DTD/svg11.dtd">
<!-- Generated by graphviz version 2.49.3 (20211027.1534)
 -->
<!-- Title: src/WillyWeather/tide.c Pages: 1 -->
<svg width="964pt" height="420pt"
 viewBox="0.00 0.00 963.50 420.00" xmlns="http://www.w3.org/2000/svg" xmlns:xlink="http://www.w3.org/1999/xlink">
<g id="graph0" class="graph" transform="scale(1 1) rotate(0) translate(4 416)">
<title>src/WillyWeather/tide.c</title>
<!-- Node1 -->
<g id="node1" class="node">
<title>Node1</title>
<g id="a_node1"><a xlink:title=" ">
<polygon fill="#bfbfbf" stroke="black" points="578,-392.5 578,-411.5 694,-411.5 694,-392.5 578,-392.5"/>
<text text-anchor="middle" x="636" y="-399.5" font-family="Helvetica,sans-Serif" font-size="10.00">src/WillyWeather/tide.c</text>
</a>
</g>
</g>
<!-- Node2 -->
<g id="node2" class="node">
<title>Node2</title>
<g id="a_node2"><a xlink:href="tide_8h.html" target="_top" xlink:title=" ">
<polygon fill="none" stroke="black" points="586.5,-336.5 586.5,-355.5 685.5,-355.5 685.5,-336.5 586.5,-336.5"/>
<text text-anchor="middle" x="636" y="-343.5" font-family="Helvetica,sans-Serif" font-size="10.00">WillyWeather/tide.h</text>
</a>
</g>
</g>
<!-- Node1&#45;&gt;Node2 -->
<g id="edge1" class="edge">
<title>Node1&#45;&gt;Node2</title>
<path fill="none" stroke="midnightblue" d="M636,-392.08C636,-385.01 636,-374.86 636,-365.99"/>
<polygon fill="midnightblue" stroke="midnightblue" points="639.5,-365.75 636,-355.75 632.5,-365.75 639.5,-365.75"/>
</g>
<!-- Node3 -->
<g id="node3" class="node">
<title>Node3</title>
<g id="a_node3"><a xlink:title=" ">
<polygon fill="none" stroke="#bfbfbf" points="204,-56.5 204,-75.5 252,-75.5 252,-56.5 204,-56.5"/>
<text text-anchor="middle" x="228" y="-63.5" font-family="Helvetica,sans-Serif" font-size="10.00">string.h</text>
</a>
</g>
</g>
<!-- Node2&#45;&gt;Node3 -->
<g id="edge2" class="edge">
<title>Node2&#45;&gt;Node3</title>
<path fill="none" stroke="midnightblue" d="M586.36,-343.28C470.4,-338.03 187.65,-317.78 137,-244 103.06,-194.56 125.72,-157.32 165,-112 175.77,-99.58 190.63,-88.75 203.21,-80.84"/>
<polygon fill="midnightblue" stroke="midnightblue" points="205.13,-83.77 211.88,-75.6 201.51,-77.77 205.13,-83.77"/>
</g>
<!-- Node4 -->
<g id="node4" class="node">
<title>Node4</title>
<g id="a_node4"><a xlink:title=" ">
<polygon fill="none" stroke="#bfbfbf" points="90.5,-56.5 90.5,-75.5 137.5,-75.5 137.5,-56.5 90.5,-56.5"/>
<text text-anchor="middle" x="114" y="-63.5" font-family="Helvetica,sans-Serif" font-size="10.00">stdlib.h</text>
</a>
</g>
</g>
<!-- Node2&#45;&gt;Node4 -->
<g id="edge3" class="edge">
<title>Node2&#45;&gt;Node4</title>
<path fill="none" stroke="midnightblue" d="M586.24,-343.81C502.77,-340.98 329.67,-331.49 187,-300 101.08,-281.04 0,-322.99 0,-235 0,-235 0,-235 0,-177 0,-130.11 50.55,-96.89 84.33,-79.93"/>
<polygon fill="midnightblue" stroke="midnightblue" points="85.87,-83.07 93.36,-75.58 82.83,-76.77 85.87,-83.07"/>
</g>
<!-- Node5 -->
<g id="node5" class="node">
<title>Node5</title>
<g id="a_node5"><a xlink:title=" ">
<polygon fill="none" stroke="#bfbfbf" points="582,-224.5 582,-243.5 628,-243.5 628,-224.5 582,-224.5"/>
<text text-anchor="middle" x="605" y="-231.5" font-family="Helvetica,sans-Serif" font-size="10.00">math.h</text>
</a>
</g>
</g>
<!-- Node2&#45;&gt;Node5 -->
<g id="edge4" class="edge">
<title>Node2&#45;&gt;Node5</title>
<path fill="none" stroke="midnightblue" d="M633.57,-336.37C628.54,-318.54 616.92,-277.3 610.15,-253.27"/>
<polygon fill="midnightblue" stroke="midnightblue" points="613.5,-252.27 607.42,-243.59 606.77,-254.17 613.5,-252.27"/>
</g>
<!-- Node6 -->
<g id="node6" class="node">
<title>Node6</title>
<g id="a_node6"><a xlink:title=" ">
<polygon fill="none" stroke="#bfbfbf" points="763.5,-0.5 763.5,-19.5 806.5,-19.5 806.5,-0.5 763.5,-0.5"/>
<text text-anchor="middle" x="785" y="-7.5" font-family="Helvetica,sans-Serif" font-size="10.00">time.h</text>
</a>
</g>
</g>
<!-- Node2&#45;&gt;Node6 -->
<g id="edge5" class="edge">
<title>Node2&#45;&gt;Node6</title>
<path fill="none" stroke="midnightblue" d="M681.19,-336.5C732.15,-323.99 808,-295.26 808,-235 808,-235 808,-235 808,-121 808,-88.12 798.03,-50.86 791.22,-29.24"/>
<polygon fill="midnightblue" stroke="midnightblue" points="794.54,-28.12 788.1,-19.71 787.89,-30.3 794.54,-28.12"/>
</g>
<!-- Node7 -->
<g id="node7" class="node">
<title>Node7</title>
<g id="a_node7"><a xlink:title=" ">
<polygon fill="none" stroke="#bfbfbf" points="330.5,-56.5 330.5,-75.5 389.5,-75.5 389.5,-56.5 330.5,-56.5"/>
<text text-anchor="middle" x="360" y="-63.5" font-family="Helvetica,sans-Serif" font-size="10.00">curl/curl.h</text>
</a>
</g>
</g>
<!-- Node2&#45;&gt;Node7 -->
<g id="edge6" class="edge">
<title>Node2&#45;&gt;Node7</title>
<path fill="none" stroke="midnightblue" d="M638.87,-336.33C645.26,-315.34 658.47,-260.85 637,-224 636.77,-223.61 451.92,-119 384.35,-80.78"/>
<polygon fill="midnightblue" stroke="midnightblue" points="385.7,-77.52 375.27,-75.64 382.25,-83.61 385.7,-77.52"/>
</g>
<!-- Node8 -->
<g id="node8" class="node">
<title>Node8</title>
<g id="a_node8"><a xlink:title=" ">
<polygon fill="none" stroke="#bfbfbf" points="687.5,-56.5 687.5,-75.5 770.5,-75.5 770.5,-56.5 687.5,-56.5"/>
<text text-anchor="middle" x="729" y="-63.5" font-family="Helvetica,sans-Serif" font-size="10.00">cjson/cJSON.h</text>
</a>
</g>
</g>
<!-- Node2&#45;&gt;Node8 -->
<g id="edge7" class="edge">
<title>Node2&#45;&gt;Node8</title>
<path fill="none" stroke="midnightblue" d="M663.12,-336.47C702.27,-322.27 770,-289.78 770,-235 770,-235 770,-235 770,-177 770,-142.52 752.09,-105.56 739.94,-84.47"/>
<polygon fill="midnightblue" stroke="midnightblue" points="742.84,-82.49 734.7,-75.71 736.84,-86.09 742.84,-82.49"/>
</g>
<!-- Node9 -->
<g id="node9" class="node">
<title>Node9</title>
<g id="a_node9"><a xlink:href="log_8h.html" target="_top" xlink:title=" ">
<polygon fill="none" stroke="black" points="632.5,-56.5 632.5,-75.5 669.5,-75.5 669.5,-56.5 632.5,-56.5"/>
<text text-anchor="middle" x="651" y="-63.5" font-family="Helvetica,sans-Serif" font-size="10.00">log.h</text>
</a>
</g>
</g>
<!-- Node2&#45;&gt;Node9 -->
<g id="edge8" class="edge">
<title>Node2&#45;&gt;Node9</title>
<path fill="none" stroke="midnightblue" d="M651.85,-336.44C679.12,-320.43 732,-283.16 732,-235 732,-235 732,-235 732,-177 732,-136.45 695.86,-100.99 671.86,-81.91"/>
<polygon fill="midnightblue" stroke="midnightblue" points="673.73,-78.94 663.66,-75.65 669.48,-84.5 673.73,-78.94"/>
</g>
<!-- Node13 -->
<g id="node13" class="node">
<title>Node13</title>
<g id="a_node13"><a xlink:href="_willy_weather_2authenticate_8h.html" target="_top" xlink:title=" ">
<polygon fill="none" stroke="black" points="160.5,-224.5 160.5,-243.5 297.5,-243.5 297.5,-224.5 160.5,-224.5"/>
<text text-anchor="middle" x="229" y="-231.5" font-family="Helvetica,sans-Serif" font-size="10.00">WillyWeather/authenticate.h</text>
</a>
</g>
</g>
<!-- Node2&#45;&gt;Node13 -->
<g id="edge13" class="edge">
<title>Node2&#45;&gt;Node13</title>
<path fill="none" stroke="midnightblue" d="M586.22,-341.27C508.03,-334.88 360.36,-320.51 312,-300 285.31,-288.68 259.88,-266.48 244.36,-251.21"/>
<polygon fill="midnightblue" stroke="midnightblue" points="246.71,-248.6 237.19,-243.94 241.72,-253.52 246.71,-248.6"/>
</g>
<!-- Node14 -->
<g id="node14" class="node">
<title>Node14</title>
<g id="a_node14"><a xlink:href="http_8h.html" target="_top" xlink:title=" ">
<polygon fill="none" stroke="black" points="294.5,-168.5 294.5,-187.5 335.5,-187.5 335.5,-168.5 294.5,-168.5"/>
<text text-anchor="middle" x="315" y="-175.5" font-family="Helvetica,sans-Serif" font-size="10.00">http.h</text>
</a>
</g>
</g>
<!-- Node2&#45;&gt;Node14 -->
<g id="edge45" class="edge">
<title>Node2&#45;&gt;Node14</title>
<path fill="none" stroke="midnightblue" d="M586.23,-341.89C519.56,-336.82 405.81,-324.77 373,-300 339.49,-274.7 324.41,-225.04 318.43,-197.87"/>
<polygon fill="midnightblue" stroke="midnightblue" points="321.79,-196.85 316.39,-187.74 314.93,-198.23 321.79,-196.85"/>
</g>
<!-- Node15 -->
<g id="node15" class="node">
<title>Node15</title>
<g id="a_node15"><a xlink:href="utils_8h.html" target="_top" xlink:title=" ">
<polygon fill="none" stroke="black" points="484,-112.5 484,-131.5 526,-131.5 526,-112.5 484,-112.5"/>
<text text-anchor="middle" x="505" y="-119.5" font-family="Helvetica,sans-Serif" font-size="10.00">utils.h</text>
</a>
</g>
</g>
<!-- Node2&#45;&gt;Node15 -->
<g id="edge46" class="edge">
<title>Node2&#45;&gt;Node15</title>
<path fill="none" stroke="midnightblue" d="M645.29,-336.39C653.58,-328.02 665.14,-314.48 670,-300 680.74,-267.97 681.22,-255.86 670,-224 659.4,-193.88 650.87,-186.72 625,-168 598.07,-148.51 561.69,-136.44 536.08,-129.77"/>
<polygon fill="midnightblue" stroke="midnightblue" points="536.7,-126.32 526.15,-127.32 535.02,-133.12 536.7,-126.32"/>
</g>
<!-- Node19 -->
<g id="node19" class="node">
<title>Node19</title>
<g id="a_node19"><a xlink:href="location_8h.html" target="_top" xlink:title=" ">
<polygon fill="none" stroke="black" points="381.5,-280.5 381.5,-299.5 498.5,-299.5 498.5,-280.5 381.5,-280.5"/>
<text text-anchor="middle" x="440" y="-287.5" font-family="Helvetica,sans-Serif" font-size="10.00">WillyWeather/location.h</text>
</a>
</g>
</g>
<!-- Node2&#45;&gt;Node19 -->
<g id="edge33" class="edge">
<title>Node2&#45;&gt;Node19</title>
<path fill="none" stroke="midnightblue" d="M604.94,-336.44C571.4,-327.2 517.8,-312.44 480.86,-302.26"/>
<polygon fill="midnightblue" stroke="midnightblue" points="481.48,-298.8 470.91,-299.52 479.62,-305.55 481.48,-298.8"/>
</g>
<!-- Node20 -->
<g id="node20" class="node">
<title>Node20</title>
<g id="a_node20"><a xlink:href="forecast_8h.html" target="_top" xlink:title=" ">
<polygon fill="none" stroke="black" points="836.5,-280.5 836.5,-299.5 955.5,-299.5 955.5,-280.5 836.5,-280.5"/>
<text text-anchor="middle" x="896" y="-287.5" font-family="Helvetica,sans-Serif" font-size="10.00">WillyWeather/forecast.h</text>
</a>
</g>
</g>
<!-- Node2&#45;&gt;Node20 -->
<g id="edge44" class="edge">
<title>Node2&#45;&gt;Node20</title>
<path fill="none" stroke="midnightblue" d="M677.2,-336.44C722.65,-327 795.84,-311.8 844.91,-301.61"/>
<polygon fill="midnightblue" stroke="midnightblue" points="845.92,-304.98 854.99,-299.52 844.49,-298.12 845.92,-304.98"/>
</g>
<!-- Node9&#45;&gt;Node6 -->
<g id="edge12" class="edge">
<title>Node9&#45;&gt;Node6</title>
<path fill="none" stroke="midnightblue" d="M669.63,-57.49C691.57,-48.65 728.31,-33.84 754.44,-23.32"/>
<polygon fill="midnightblue" stroke="midnightblue" points="755.91,-26.5 763.88,-19.51 753.29,-20 755.91,-26.5"/>
</g>
<!-- Node10 -->
<g id="node10" class="node">
<title>Node10</title>
<g id="a_node10"><a xlink:title=" ">
<polygon fill="none" stroke="#bfbfbf" points="279.5,-0.5 279.5,-19.5 324.5,-19.5 324.5,-0.5 279.5,-0.5"/>
<text text-anchor="middle" x="302" y="-7.5" font-family="Helvetica,sans-Serif" font-size="10.00">stdio.h</text>
</a>
</g>
</g>
<!-- Node9&#45;&gt;Node10 -->
<g id="edge9" class="edge">
<title>Node9&#45;&gt;Node10</title>
<path fill="none" stroke="midnightblue" d="M632.24,-58.26C629.5,-57.42 626.69,-56.63 624,-56 519.75,-31.56 393.2,-18.63 334.63,-13.57"/>
<polygon fill="midnightblue" stroke="midnightblue" points="334.77,-10.07 324.51,-12.72 334.18,-17.05 334.77,-10.07"/>
</g>
<!-- Node11 -->
<g id="node11" class="node">
<title>Node11</title>
<g id="a_node11"><a xlink:title=" ">
<polygon fill="none" stroke="#bfbfbf" points="648.5,-0.5 648.5,-19.5 699.5,-19.5 699.5,-0.5 648.5,-0.5"/>
<text text-anchor="middle" x="674" y="-7.5" font-family="Helvetica,sans-Serif" font-size="10.00">stdarg.h</text>
</a>
</g>
</g>
<!-- Node9&#45;&gt;Node11 -->
<g id="edge10" class="edge">
<title>Node9&#45;&gt;Node11</title>
<path fill="none" stroke="midnightblue" d="M654.8,-56.08C657.91,-48.77 662.42,-38.18 666.29,-29.1"/>
<polygon fill="midnightblue" stroke="midnightblue" points="669.57,-30.32 670.27,-19.75 663.13,-27.58 669.57,-30.32"/>
</g>
<!-- Node12 -->
<g id="node12" class="node">
<title>Node12</title>
<g id="a_node12"><a xlink:title=" ">
<polygon fill="none" stroke="#bfbfbf" points="574,-0.5 574,-19.5 630,-19.5 630,-0.5 574,-0.5"/>
<text text-anchor="middle" x="602" y="-7.5" font-family="Helvetica,sans-Serif" font-size="10.00">stdbool.h</text>
</a>
</g>
</g>
<!-- Node9&#45;&gt;Node12 -->
<g id="edge11" class="edge">
<title>Node9&#45;&gt;Node12</title>
<path fill="none" stroke="midnightblue" d="M642.91,-56.08C635.84,-48.3 625.41,-36.8 616.85,-27.37"/>
<polygon fill="midnightblue" stroke="midnightblue" points="619.25,-24.8 609.94,-19.75 614.07,-29.51 619.25,-24.8"/>
</g>
<!-- Node13&#45;&gt;Node3 -->
<g id="edge14" class="edge">
<title>Node13&#45;&gt;Node3</title>
<path fill="none" stroke="midnightblue" d="M228.95,-224.08C228.79,-197.95 228.33,-121.21 228.11,-85.58"/>
<polygon fill="midnightblue" stroke="midnightblue" points="231.61,-85.55 228.05,-75.57 224.61,-85.59 231.61,-85.55"/>
</g>
<!-- Node13&#45;&gt;Node4 -->
<g id="edge15" class="edge">
<title>Node13&#45;&gt;Node4</title>
<path fill="none" stroke="midnightblue" d="M222.82,-224.08C204.48,-197.61 150.17,-119.21 125.92,-84.21"/>
<polygon fill="midnightblue" stroke="midnightblue" points="128.51,-81.8 119.94,-75.57 122.75,-85.78 128.51,-81.8"/>
</g>
<!-- Node13&#45;&gt;Node7 -->
<g id="edge18" class="edge">
<title>Node13&#45;&gt;Node7</title>
<path fill="none" stroke="midnightblue" d="M236.04,-224.08C257.02,-197.49 319.33,-118.54 346.77,-83.76"/>
<polygon fill="midnightblue" stroke="midnightblue" points="349.79,-85.59 353.24,-75.57 344.3,-81.25 349.79,-85.59"/>
</g>
<!-- Node13&#45;&gt;Node8 -->
<g id="edge17" class="edge">
<title>Node13&#45;&gt;Node8</title>
<path fill="none" stroke="midnightblue" d="M276.6,-224.44C317.27,-216.6 377.1,-203.83 428,-188 491.99,-168.1 505.82,-156.99 568,-132 613.5,-113.72 666.18,-92.42 698.55,-79.33"/>
<polygon fill="midnightblue" stroke="midnightblue" points="699.95,-82.53 707.91,-75.54 697.33,-76.05 699.95,-82.53"/>
</g>
<!-- Node13&#45;&gt;Node9 -->
<g id="edge19" class="edge">
<title>Node13&#45;&gt;Node9</title>
<path fill="none" stroke="midnightblue" d="M261.93,-224.38C318.84,-208.99 438.74,-174.38 535,-132 568.98,-117.04 606.05,-95.22 628.92,-81.06"/>
<polygon fill="midnightblue" stroke="midnightblue" points="630.89,-83.96 637.51,-75.69 627.18,-78.02 630.89,-83.96"/>
</g>
<!-- Node13&#45;&gt;Node10 -->
<g id="edge16" class="edge">
<title>Node13&#45;&gt;Node10</title>
<path fill="none" stroke="midnightblue" d="M211.58,-224.4C162.1,-198.89 27.66,-121.3 81,-56 104.39,-27.37 213.51,-16.49 269.17,-12.76"/>
<polygon fill="midnightblue" stroke="midnightblue" points="269.47,-16.24 279.23,-12.12 269.03,-9.26 269.47,-16.24"/>
</g>
<!-- Node13&#45;&gt;Node14 -->
<g id="edge20" class="edge">
<title>Node13&#45;&gt;Node14</title>
<path fill="none" stroke="midnightblue" d="M242.82,-224.32C256.23,-215.9 276.82,-202.97 292.59,-193.07"/>
<polygon fill="midnightblue" stroke="midnightblue" points="294.61,-195.94 301.22,-187.65 290.89,-190.01 294.61,-195.94"/>
</g>
<!-- Node14&#45;&gt;Node3 -->
<g id="edge22" class="edge">
<title>Node14&#45;&gt;Node3</title>
<path fill="none" stroke="midnightblue" d="M308.17,-168.37C293.75,-150.14 259.97,-107.43 241.19,-83.68"/>
<polygon fill="midnightblue" stroke="midnightblue" points="243.74,-81.26 234.8,-75.59 238.25,-85.61 243.74,-81.26"/>
</g>
<!-- Node14&#45;&gt;Node4 -->
<g id="edge21" class="edge">
<title>Node14&#45;&gt;Node4</title>
<path fill="none" stroke="midnightblue" d="M299.23,-168.37C264.37,-149.29 180.55,-103.42 138.68,-80.51"/>
<polygon fill="midnightblue" stroke="midnightblue" points="140.15,-77.32 129.7,-75.59 136.79,-83.46 140.15,-77.32"/>
</g>
<!-- Node14&#45;&gt;Node7 -->
<g id="edge23" class="edge">
<title>Node14&#45;&gt;Node7</title>
<path fill="none" stroke="midnightblue" d="M318.53,-168.37C325.86,-150.46 342.85,-108.92 352.66,-84.95"/>
<polygon fill="midnightblue" stroke="midnightblue" points="355.94,-86.17 356.49,-75.59 349.46,-83.52 355.94,-86.17"/>
</g>
<!-- Node14&#45;&gt;Node15 -->
<g id="edge24" class="edge">
<title>Node14&#45;&gt;Node15</title>
<path fill="none" stroke="midnightblue" d="M335.7,-171.12C369.07,-161.63 434.97,-142.9 473.98,-131.82"/>
<polygon fill="midnightblue" stroke="midnightblue" points="475.09,-135.14 483.75,-129.04 473.17,-128.41 475.09,-135.14"/>
</g>
<!-- Node15&#45;&gt;Node3 -->
<g id="edge26" class="edge">
<title>Node15&#45;&gt;Node3</title>
<path fill="none" stroke="midnightblue" d="M483.72,-116.85C436.02,-107.55 320.16,-84.97 262.2,-73.67"/>
<polygon fill="midnightblue" stroke="midnightblue" points="262.57,-70.17 252.08,-71.69 261.23,-77.04 262.57,-70.17"/>
</g>
<!-- Node15&#45;&gt;Node4 -->
<g id="edge25" class="edge">
<title>Node15&#45;&gt;Node4</title>
<path fill="none" stroke="midnightblue" d="M483.98,-118.1C419.89,-109.25 226.59,-82.55 147.89,-71.68"/>
<polygon fill="midnightblue" stroke="midnightblue" points="147.95,-68.16 137.57,-70.26 147,-75.09 147.95,-68.16"/>
</g>
<!-- Node15&#45;&gt;Node7 -->
<g id="edge27" class="edge">
<title>Node15&#45;&gt;Node7</title>
<path fill="none" stroke="midnightblue" d="M483.92,-113.15C459.99,-104.24 420.68,-89.6 392.75,-79.2"/>
<polygon fill="midnightblue" stroke="midnightblue" points="393.62,-75.79 383.03,-75.58 391.18,-82.35 393.62,-75.79"/>
</g>
<!-- Node15&#45;&gt;Node8 -->
<g id="edge28" class="edge">
<title>Node15&#45;&gt;Node8</title>
<path fill="none" stroke="midnightblue" d="M526.07,-115.92C561.97,-107.27 635.73,-89.49 683.74,-77.91"/>
<polygon fill="midnightblue" stroke="midnightblue" points="684.67,-81.29 693.57,-75.54 683.03,-74.48 684.67,-81.29"/>
</g>
<!-- Node15&#45;&gt;Node9 -->
<g id="edge32" class="edge">
<title>Node15&#45;&gt;Node9</title>
<path fill="none" stroke="midnightblue" d="M526.23,-113.15C551.59,-103.77 594.11,-88.04 622.36,-77.59"/>
<polygon fill="midnightblue" stroke="midnightblue" points="623.9,-80.75 632.07,-74 621.47,-74.19 623.9,-80.75"/>
</g>
<!-- Node16 -->
<g id="node16" class="node">
<title>Node16</title>
<g id="a_node16"><a xlink:title=" ">
<polygon fill="none" stroke="#bfbfbf" points="555.5,-56.5 555.5,-75.5 614.5,-75.5 614.5,-56.5 555.5,-56.5"/>
<text text-anchor="middle" x="585" y="-63.5" font-family="Helvetica,sans-Serif" font-size="10.00">sys/stat.h</text>
</a>
</g>
</g>
<!-- Node15&#45;&gt;Node16 -->
<g id="edge29" class="edge">
<title>Node15&#45;&gt;Node16</title>
<path fill="none" stroke="midnightblue" d="M517.85,-112.32C530.22,-103.98 549.13,-91.21 563.74,-81.35"/>
<polygon fill="midnightblue" stroke="midnightblue" points="565.85,-84.15 572.18,-75.65 561.93,-78.35 565.85,-84.15"/>
</g>
<!-- Node17 -->
<g id="node17" class="node">
<title>Node17</title>
<g id="a_node17"><a xlink:title=" ">
<polygon fill="none" stroke="#bfbfbf" points="407.5,-56.5 407.5,-75.5 472.5,-75.5 472.5,-56.5 407.5,-56.5"/>
<text text-anchor="middle" x="440" y="-63.5" font-family="Helvetica,sans-Serif" font-size="10.00">sys/types.h</text>
</a>
</g>
</g>
<!-- Node15&#45;&gt;Node17 -->
<g id="edge30" class="edge">
<title>Node15&#45;&gt;Node17</title>
<path fill="none" stroke="midnightblue" d="M494.56,-112.32C484.85,-104.26 470.18,-92.08 458.5,-82.37"/>
<polygon fill="midnightblue" stroke="midnightblue" points="460.56,-79.53 450.63,-75.83 456.09,-84.92 460.56,-79.53"/>
</g>
<!-- Node18 -->
<g id="node18" class="node">
<title>Node18</title>
<g id="a_node18"><a xlink:title=" ">
<polygon fill="none" stroke="#bfbfbf" points="491,-56.5 491,-75.5 537,-75.5 537,-56.5 491,-56.5"/>
<text text-anchor="middle" x="514" y="-63.5" font-family="Helvetica,sans-Serif" font-size="10.00">errno.h</text>
</a>
</g>
</g>
<!-- Node15&#45;&gt;Node18 -->
<g id="edge31" class="edge">
<title>Node15&#45;&gt;Node18</title>
<path fill="none" stroke="midnightblue" d="M506.49,-112.08C507.68,-104.93 509.39,-94.64 510.88,-85.69"/>
<polygon fill="midnightblue" stroke="midnightblue" points="514.35,-86.19 512.54,-75.75 507.45,-85.04 514.35,-86.19"/>
</g>
<!-- Node19&#45;&gt;Node3 -->
<g id="edge34" class="edge">
<title>Node19&#45;&gt;Node3</title>
<path fill="none" stroke="midnightblue" d="M381.49,-288.51C305.76,-286.48 180.06,-277.94 151,-244 108.02,-193.81 176.94,-115.92 210.87,-82.78"/>
<polygon fill="midnightblue" stroke="midnightblue" points="213.46,-85.15 218.28,-75.71 208.63,-80.08 213.46,-85.15"/>
</g>
<!-- Node19&#45;&gt;Node4 -->
<g id="edge35" class="edge">
<title>Node19&#45;&gt;Node4</title>
<path fill="none" stroke="midnightblue" d="M381.33,-288.4C302.95,-286.29 170.07,-277.68 137,-244 94.88,-201.11 103.39,-121.57 109.98,-85.57"/>
<polygon fill="midnightblue" stroke="midnightblue" points="113.47,-86 111.99,-75.51 106.6,-84.63 113.47,-86"/>
</g>
<!-- Node19&#45;&gt;Node5 -->
<g id="edge37" class="edge">
<title>Node19&#45;&gt;Node5</title>
<path fill="none" stroke="midnightblue" d="M466.14,-280.44C494.93,-271.02 541.23,-255.87 572.37,-245.68"/>
<polygon fill="midnightblue" stroke="midnightblue" points="573.49,-248.99 581.91,-242.56 571.31,-242.34 573.49,-248.99"/>
</g>
<!-- Node19&#45;&gt;Node7 -->
<g id="edge39" class="edge">
<title>Node19&#45;&gt;Node7</title>
<path fill="none" stroke="midnightblue" d="M439.31,-280.32C436.86,-253.57 426.9,-170.72 394,-112 388.45,-102.09 380.94,-91.92 374.4,-83.76"/>
<polygon fill="midnightblue" stroke="midnightblue" points="376.88,-81.27 367.81,-75.8 371.49,-85.74 376.88,-81.27"/>
</g>
<!-- Node19&#45;&gt;Node8 -->
<g id="edge38" class="edge">
<title>Node19&#45;&gt;Node8</title>
<path fill="none" stroke="midnightblue" d="M453.57,-280.35C467.26,-271.52 488.91,-257.25 507,-244 584.67,-187.1 673.07,-113.98 710.6,-82.52"/>
<polygon fill="midnightblue" stroke="midnightblue" points="713.21,-84.9 718.61,-75.79 708.7,-79.54 713.21,-84.9"/>
</g>
<!-- Node19&#45;&gt;Node9 -->
<g id="edge40" class="edge">
<title>Node19&#45;&gt;Node9</title>
<path fill="none" stroke="midnightblue" d="M448.27,-280.3C479.98,-246.94 594.05,-126.92 635.66,-83.13"/>
<polygon fill="midnightblue" stroke="midnightblue" points="638.2,-85.54 642.56,-75.88 633.13,-80.72 638.2,-85.54"/>
</g>
<!-- Node19&#45;&gt;Node10 -->
<g id="edge36" class="edge">
<title>Node19&#45;&gt;Node10</title>
<path fill="none" stroke="midnightblue" d="M434.37,-280.4C416.08,-252.16 357.41,-159.25 322,-76 315.5,-60.72 310.11,-42.61 306.56,-29.4"/>
<polygon fill="midnightblue" stroke="midnightblue" points="309.93,-28.42 304.04,-19.61 303.15,-30.17 309.93,-28.42"/>
</g>
<!-- Node19&#45;&gt;Node13 -->
<g id="edge41" class="edge">
<title>Node19&#45;&gt;Node13</title>
<path fill="none" stroke="midnightblue" d="M406.57,-280.44C370.14,-271.12 311.77,-256.18 271.97,-246"/>
<polygon fill="midnightblue" stroke="midnightblue" points="272.83,-242.61 262.28,-243.52 271.1,-249.39 272.83,-242.61"/>
</g>
<!-- Node19&#45;&gt;Node14 -->
<g id="edge42" class="edge">
<title>Node19&#45;&gt;Node14</title>
<path fill="none" stroke="midnightblue" d="M429.99,-280.41C419.5,-271.39 402.54,-256.76 388,-244 369.02,-227.34 347.44,-208.09 332.7,-194.89"/>
<polygon fill="midnightblue" stroke="midnightblue" points="334.66,-191.94 324.88,-187.88 329.99,-197.16 334.66,-191.94"/>
</g>
<!-- Node19&#45;&gt;Node15 -->
<g id="edge43" class="edge">
<title>Node19&#45;&gt;Node15</title>
<path fill="none" stroke="midnightblue" d="M443.49,-280.08C453.77,-253.83 484.03,-176.55 497.91,-141.12"/>
<polygon fill="midnightblue" stroke="midnightblue" points="501.26,-142.16 501.65,-131.57 494.74,-139.6 501.26,-142.16"/>
</g>
</g>
</svg>
