<?xml version="1.0" encoding="UTF-8" standalone="no"?>
<!DOCTYPE svg PUBLIC "-//W3C//DTD SVG 1.1//EN"
 "http://www.w3.org/Graphics/SVG/1.1/DTD/svg11.dtd">
<!-- Generated by graphviz version 2.49.3 (20211027.1534)
 -->
<!-- Title: include/WillyWeather/tide.h Pages: 1 -->
<svg width="973pt" height="263pt"
 viewBox="0.00 0.00 972.50 263.00" xmlns="http://www.w3.org/2000/svg" xmlns:xlink="http://www.w3.org/1999/xlink">
<g id="graph0" class="graph" transform="scale(1 1) rotate(0) translate(4 259)">
<title>include/WillyWeather/tide.h</title>
<!-- Node1 -->
<g id="node1" class="node">
<title>Node1</title>
<g id="a_node1"><a xlink:title=" ">
<polygon fill="#bfbfbf" stroke="black" points="499.5,-224.5 499.5,-254.5 606.5,-254.5 606.5,-224.5 499.5,-224.5"/>
<text text-anchor="start" x="507.5" y="-242.5" font-family="Helvetica,sans-Serif" font-size="10.00">include/WillyWeather</text>
<text text-anchor="middle" x="553" y="-231.5" font-family="Helvetica,sans-Serif" font-size="10.00">/tide.h</text>
</a>
</g>
</g>
<!-- Node2 -->
<g id="node2" class="node">
<title>Node2</title>
<g id="a_node2"><a xlink:title=" ">
<polygon fill="none" stroke="#bfbfbf" points="0,-56.5 0,-75.5 48,-75.5 48,-56.5 0,-56.5"/>
<text text-anchor="middle" x="24" y="-63.5" font-family="Helvetica,sans-Serif" font-size="10.00">string.h</text>
</a>
</g>
</g>
<!-- Node1&#45;&gt;Node2 -->
<g id="edge1" class="edge">
<title>Node1&#45;&gt;Node2</title>
<path fill="none" stroke="midnightblue" d="M499.29,-236.17C432.14,-231.97 314.42,-220.26 219,-188 170.01,-171.43 160.93,-159.3 117,-132 90.98,-115.83 62.24,-95.31 43.7,-81.7"/>
<polygon fill="midnightblue" stroke="midnightblue" points="45.6,-78.75 35.47,-75.62 41.44,-84.38 45.6,-78.75"/>
</g>
<!-- Node3 -->
<g id="node3" class="node">
<title>Node3</title>
<g id="a_node3"><a xlink:title=" ">
<polygon fill="none" stroke="#bfbfbf" points="291.5,-56.5 291.5,-75.5 338.5,-75.5 338.5,-56.5 291.5,-56.5"/>
<text text-anchor="middle" x="315" y="-63.5" font-family="Helvetica,sans-Serif" font-size="10.00">stdlib.h</text>
</a>
</g>
</g>
<!-- Node1&#45;&gt;Node3 -->
<g id="edge2" class="edge">
<title>Node1&#45;&gt;Node3</title>
<path fill="none" stroke="midnightblue" d="M499.3,-233.58C462.39,-227.81 414.09,-215.26 380,-188 346.43,-161.15 327.91,-112.13 319.89,-85.46"/>
<polygon fill="midnightblue" stroke="midnightblue" points="323.17,-84.2 317.08,-75.53 316.43,-86.11 323.17,-84.2"/>
</g>
<!-- Node4 -->
<g id="node4" class="node">
<title>Node4</title>
<g id="a_node4"><a xlink:title=" ">
<polygon fill="none" stroke="#bfbfbf" points="667,-112.5 667,-131.5 713,-131.5 713,-112.5 667,-112.5"/>
<text text-anchor="middle" x="690" y="-119.5" font-family="Helvetica,sans-Serif" font-size="10.00">math.h</text>
</a>
</g>
</g>
<!-- Node1&#45;&gt;Node4 -->
<g id="edge3" class="edge">
<title>Node1&#45;&gt;Node4</title>
<path fill="none" stroke="midnightblue" d="M569.8,-224.34C595.72,-202.49 645.24,-160.73 671.92,-138.24"/>
<polygon fill="midnightblue" stroke="midnightblue" points="674.33,-140.79 679.72,-131.67 669.82,-135.44 674.33,-140.79"/>
</g>
<!-- Node5 -->
<g id="node5" class="node">
<title>Node5</title>
<g id="a_node5"><a xlink:title=" ">
<polygon fill="none" stroke="#bfbfbf" points="639.5,-0.5 639.5,-19.5 682.5,-19.5 682.5,-0.5 639.5,-0.5"/>
<text text-anchor="middle" x="661" y="-7.5" font-family="Helvetica,sans-Serif" font-size="10.00">time.h</text>
</a>
</g>
</g>
<!-- Node1&#45;&gt;Node5 -->
<g id="edge4" class="edge">
<title>Node1&#45;&gt;Node5</title>
<path fill="none" stroke="midnightblue" d="M606.61,-233.81C665.18,-227.44 753.45,-213.77 774,-188 795.06,-161.59 787.8,-142.83 774,-112 756.04,-71.86 713.38,-41.09 685.92,-24.56"/>
<polygon fill="midnightblue" stroke="midnightblue" points="687.64,-21.51 677.24,-19.5 684.12,-27.56 687.64,-21.51"/>
</g>
<!-- Node6 -->
<g id="node6" class="node">
<title>Node6</title>
<g id="a_node6"><a xlink:title=" ">
<polygon fill="none" stroke="#bfbfbf" points="551.5,-56.5 551.5,-75.5 610.5,-75.5 610.5,-56.5 551.5,-56.5"/>
<text text-anchor="middle" x="581" y="-63.5" font-family="Helvetica,sans-Serif" font-size="10.00">curl/curl.h</text>
</a>
</g>
</g>
<!-- Node1&#45;&gt;Node6 -->
<g id="edge5" class="edge">
<title>Node1&#45;&gt;Node6</title>
<path fill="none" stroke="midnightblue" d="M606.92,-232.48C660.41,-225.26 736.92,-211.15 755,-188 775.79,-161.38 775.68,-138.71 755,-112 738.71,-90.96 666.86,-77.98 620.73,-71.66"/>
<polygon fill="midnightblue" stroke="midnightblue" points="621.12,-68.18 610.74,-70.34 620.2,-75.12 621.12,-68.18"/>
</g>
<!-- Node7 -->
<g id="node7" class="node">
<title>Node7</title>
<g id="a_node7"><a xlink:title=" ">
<polygon fill="none" stroke="#bfbfbf" points="450.5,-56.5 450.5,-75.5 533.5,-75.5 533.5,-56.5 450.5,-56.5"/>
<text text-anchor="middle" x="492" y="-63.5" font-family="Helvetica,sans-Serif" font-size="10.00">cjson/cJSON.h</text>
</a>
</g>
</g>
<!-- Node1&#45;&gt;Node7 -->
<g id="edge6" class="edge">
<title>Node1&#45;&gt;Node7</title>
<path fill="none" stroke="midnightblue" d="M602.05,-224.45C665.56,-203.85 763.46,-162.36 722,-112 719.14,-108.53 610.39,-88.36 543.47,-76.24"/>
<polygon fill="midnightblue" stroke="midnightblue" points="543.97,-72.77 533.51,-74.43 542.73,-79.66 543.97,-72.77"/>
</g>
<!-- Node8 -->
<g id="node8" class="node">
<title>Node8</title>
<g id="a_node8"><a xlink:href="log_8h.html" target="_top" xlink:title=" ">
<polygon fill="none" stroke="black" points="356.5,-56.5 356.5,-75.5 393.5,-75.5 393.5,-56.5 356.5,-56.5"/>
<text text-anchor="middle" x="375" y="-63.5" font-family="Helvetica,sans-Serif" font-size="10.00">log.h</text>
</a>
</g>
</g>
<!-- Node1&#45;&gt;Node8 -->
<g id="edge7" class="edge">
<title>Node1&#45;&gt;Node8</title>
<path fill="none" stroke="midnightblue" d="M499.26,-232.16C466.78,-225.82 426.5,-213.18 399,-188 370.53,-161.93 370.25,-112.59 372.58,-85.67"/>
<polygon fill="midnightblue" stroke="midnightblue" points="376.07,-85.95 373.67,-75.63 369.11,-85.2 376.07,-85.95"/>
</g>
<!-- Node12 -->
<g id="node12" class="node">
<title>Node12</title>
<g id="a_node12"><a xlink:href="_willy_weather_2authenticate_8h.html" target="_top" xlink:title=" ">
<polygon fill="none" stroke="black" points="397.5,-112.5 397.5,-131.5 534.5,-131.5 534.5,-112.5 397.5,-112.5"/>
<text text-anchor="middle" x="466" y="-119.5" font-family="Helvetica,sans-Serif" font-size="10.00">WillyWeather/authenticate.h</text>
</a>
</g>
</g>
<!-- Node1&#45;&gt;Node12 -->
<g id="edge12" class="edge">
<title>Node1&#45;&gt;Node12</title>
<path fill="none" stroke="midnightblue" d="M552.11,-224.26C550.54,-209.05 546.16,-184.86 534,-168 524.25,-154.47 509.07,-143.86 495.52,-136.36"/>
<polygon fill="midnightblue" stroke="midnightblue" points="496.98,-133.17 486.5,-131.65 493.75,-139.38 496.98,-133.17"/>
</g>
<!-- Node13 -->
<g id="node13" class="node">
<title>Node13</title>
<g id="a_node13"><a xlink:href="location_8h.html" target="_top" xlink:title=" ">
<polygon fill="none" stroke="black" points="407.5,-168.5 407.5,-187.5 524.5,-187.5 524.5,-168.5 407.5,-168.5"/>
<text text-anchor="middle" x="466" y="-175.5" font-family="Helvetica,sans-Serif" font-size="10.00">WillyWeather/location.h</text>
</a>
</g>
</g>
<!-- Node1&#45;&gt;Node13 -->
<g id="edge19" class="edge">
<title>Node1&#45;&gt;Node13</title>
<path fill="none" stroke="midnightblue" d="M532.38,-224.4C518.7,-215.04 500.79,-202.79 487.02,-193.38"/>
<polygon fill="midnightblue" stroke="midnightblue" points="488.89,-190.41 478.66,-187.66 484.94,-196.19 488.89,-190.41"/>
</g>
<!-- Node14 -->
<g id="node14" class="node">
<title>Node14</title>
<g id="a_node14"><a xlink:href="utils_8h.html" target="_top" xlink:title=" ">
<polygon fill="none" stroke="black" points="185,-112.5 185,-131.5 227,-131.5 227,-112.5 185,-112.5"/>
<text text-anchor="middle" x="206" y="-119.5" font-family="Helvetica,sans-Serif" font-size="10.00">utils.h</text>
</a>
</g>
</g>
<!-- Node1&#45;&gt;Node14 -->
<g id="edge38" class="edge">
<title>Node1&#45;&gt;Node14</title>
<path fill="none" stroke="midnightblue" d="M499.42,-235.5C421.44,-230.19 281.57,-216.88 241,-188 225.37,-176.87 216.05,-156.54 211.01,-141.57"/>
<polygon fill="midnightblue" stroke="midnightblue" points="214.31,-140.38 208.06,-131.82 207.61,-142.41 214.31,-140.38"/>
</g>
<!-- Node18 -->
<g id="node18" class="node">
<title>Node18</title>
<g id="a_node18"><a xlink:href="forecast_8h.html" target="_top" xlink:title=" ">
<polygon fill="none" stroke="black" points="845.5,-168.5 845.5,-187.5 964.5,-187.5 964.5,-168.5 845.5,-168.5"/>
<text text-anchor="middle" x="905" y="-175.5" font-family="Helvetica,sans-Serif" font-size="10.00">WillyWeather/forecast.h</text>
</a>
</g>
</g>
<!-- Node1&#45;&gt;Node18 -->
<g id="edge37" class="edge">
<title>Node1&#45;&gt;Node18</title>
<path fill="none" stroke="midnightblue" d="M606.84,-229.4C670.96,-218.56 777.75,-200.51 844.62,-189.21"/>
<polygon fill="midnightblue" stroke="midnightblue" points="845.31,-192.64 854.59,-187.52 844.14,-185.74 845.31,-192.64"/>
</g>
<!-- Node8&#45;&gt;Node5 -->
<g id="edge11" class="edge">
<title>Node8&#45;&gt;Node5</title>
<path fill="none" stroke="midnightblue" d="M393.77,-61.46C441.83,-52.38 569.78,-28.22 629.49,-16.95"/>
<polygon fill="midnightblue" stroke="midnightblue" points="630.3,-20.36 639.47,-15.06 629,-13.48 630.3,-20.36"/>
</g>
<!-- Node9 -->
<g id="node9" class="node">
<title>Node9</title>
<g id="a_node9"><a xlink:title=" ">
<polygon fill="none" stroke="#bfbfbf" points="421.5,-0.5 421.5,-19.5 466.5,-19.5 466.5,-0.5 421.5,-0.5"/>
<text text-anchor="middle" x="444" y="-7.5" font-family="Helvetica,sans-Serif" font-size="10.00">stdio.h</text>
</a>
</g>
</g>
<!-- Node8&#45;&gt;Node9 -->
<g id="edge8" class="edge">
<title>Node8&#45;&gt;Node9</title>
<path fill="none" stroke="midnightblue" d="M386.09,-56.32C396.49,-48.18 412.26,-35.84 424.72,-26.09"/>
<polygon fill="midnightblue" stroke="midnightblue" points="426.99,-28.75 432.71,-19.83 422.68,-23.24 426.99,-28.75"/>
</g>
<!-- Node10 -->
<g id="node10" class="node">
<title>Node10</title>
<g id="a_node10"><a xlink:title=" ">
<polygon fill="none" stroke="#bfbfbf" points="277.5,-0.5 277.5,-19.5 328.5,-19.5 328.5,-0.5 277.5,-0.5"/>
<text text-anchor="middle" x="303" y="-7.5" font-family="Helvetica,sans-Serif" font-size="10.00">stdarg.h</text>
</a>
</g>
</g>
<!-- Node8&#45;&gt;Node10 -->
<g id="edge9" class="edge">
<title>Node8&#45;&gt;Node10</title>
<path fill="none" stroke="midnightblue" d="M363.43,-56.32C352.58,-48.18 336.12,-35.84 323.12,-26.09"/>
<polygon fill="midnightblue" stroke="midnightblue" points="324.88,-23.03 314.78,-19.83 320.68,-28.63 324.88,-23.03"/>
</g>
<!-- Node11 -->
<g id="node11" class="node">
<title>Node11</title>
<g id="a_node11"><a xlink:title=" ">
<polygon fill="none" stroke="#bfbfbf" points="347,-0.5 347,-19.5 403,-19.5 403,-0.5 347,-0.5"/>
<text text-anchor="middle" x="375" y="-7.5" font-family="Helvetica,sans-Serif" font-size="10.00">stdbool.h</text>
</a>
</g>
</g>
<!-- Node8&#45;&gt;Node11 -->
<g id="edge10" class="edge">
<title>Node8&#45;&gt;Node11</title>
<path fill="none" stroke="midnightblue" d="M375,-56.08C375,-49.01 375,-38.86 375,-29.99"/>
<polygon fill="midnightblue" stroke="midnightblue" points="378.5,-29.75 375,-19.75 371.5,-29.75 378.5,-29.75"/>
</g>
<!-- Node12&#45;&gt;Node2 -->
<g id="edge13" class="edge">
<title>Node12&#45;&gt;Node2</title>
<path fill="none" stroke="midnightblue" d="M397.49,-116.76C318.01,-111.09 182.96,-99.2 58.16,-75.94"/>
<polygon fill="midnightblue" stroke="midnightblue" points="58.53,-72.45 48.05,-74.03 57.22,-79.33 58.53,-72.45"/>
</g>
<!-- Node12&#45;&gt;Node3 -->
<g id="edge14" class="edge">
<title>Node12&#45;&gt;Node3</title>
<path fill="none" stroke="midnightblue" d="M442.07,-112.44C416.78,-103.4 376.7,-89.06 348.32,-78.92"/>
<polygon fill="midnightblue" stroke="midnightblue" points="349.41,-75.59 338.81,-75.52 347.05,-82.18 349.41,-75.59"/>
</g>
<!-- Node12&#45;&gt;Node6 -->
<g id="edge17" class="edge">
<title>Node12&#45;&gt;Node6</title>
<path fill="none" stroke="midnightblue" d="M484.22,-112.44C502.9,-103.68 532.16,-89.94 553.62,-79.86"/>
<polygon fill="midnightblue" stroke="midnightblue" points="555.3,-82.93 562.86,-75.52 552.32,-76.6 555.3,-82.93"/>
</g>
<!-- Node12&#45;&gt;Node7 -->
<g id="edge16" class="edge">
<title>Node12&#45;&gt;Node7</title>
<path fill="none" stroke="midnightblue" d="M470.29,-112.08C473.85,-104.69 479.02,-93.95 483.42,-84.81"/>
<polygon fill="midnightblue" stroke="midnightblue" points="486.6,-86.28 487.79,-75.75 480.29,-83.24 486.6,-86.28"/>
</g>
<!-- Node12&#45;&gt;Node8 -->
<g id="edge18" class="edge">
<title>Node12&#45;&gt;Node8</title>
<path fill="none" stroke="midnightblue" d="M451.38,-112.32C437.05,-103.82 414.99,-90.73 398.25,-80.8"/>
<polygon fill="midnightblue" stroke="midnightblue" points="399.97,-77.75 389.58,-75.65 396.4,-83.77 399.97,-77.75"/>
</g>
<!-- Node12&#45;&gt;Node9 -->
<g id="edge15" class="edge">
<title>Node12&#45;&gt;Node9</title>
<path fill="none" stroke="midnightblue" d="M459.63,-112.23C453.74,-103.53 445.39,-89.57 442,-76 438.19,-60.75 439.11,-42.86 440.75,-29.72"/>
<polygon fill="midnightblue" stroke="midnightblue" points="444.25,-29.98 442.27,-19.57 437.33,-28.94 444.25,-29.98"/>
</g>
<!-- Node13&#45;&gt;Node2 -->
<g id="edge20" class="edge">
<title>Node13&#45;&gt;Node2</title>
<path fill="none" stroke="midnightblue" d="M407.3,-172.23C348.06,-166.42 254.37,-154.45 176,-132 129.89,-118.79 79.21,-95.13 49.58,-80.29"/>
<polygon fill="midnightblue" stroke="midnightblue" points="50.87,-77.02 40.37,-75.62 47.71,-83.27 50.87,-77.02"/>
</g>
<!-- Node13&#45;&gt;Node3 -->
<g id="edge21" class="edge">
<title>Node13&#45;&gt;Node3</title>
<path fill="none" stroke="midnightblue" d="M443,-168.39C423.77,-160.56 396.17,-147.84 375,-132 356.26,-117.98 338.57,-97.62 327.32,-83.44"/>
<polygon fill="midnightblue" stroke="midnightblue" points="330.08,-81.29 321.2,-75.52 324.55,-85.57 330.08,-81.29"/>
</g>
<!-- Node13&#45;&gt;Node4 -->
<g id="edge23" class="edge">
<title>Node13&#45;&gt;Node4</title>
<path fill="none" stroke="midnightblue" d="M501.51,-168.48C539.13,-159.45 600.26,-144.76 653,-132 654.27,-131.69 655.55,-131.38 656.86,-131.07"/>
<polygon fill="midnightblue" stroke="midnightblue" points="658.02,-134.39 666.91,-128.63 656.37,-127.58 658.02,-134.39"/>
</g>
<!-- Node13&#45;&gt;Node6 -->
<g id="edge25" class="edge">
<title>Node13&#45;&gt;Node6</title>
<path fill="none" stroke="midnightblue" d="M498.39,-168.36C518.36,-161.5 543.09,-150.02 559,-132 570.45,-119.03 575.99,-99.87 578.64,-85.7"/>
<polygon fill="midnightblue" stroke="midnightblue" points="582.12,-86.05 580.2,-75.63 575.21,-84.98 582.12,-86.05"/>
</g>
<!-- Node13&#45;&gt;Node7 -->
<g id="edge24" class="edge">
<title>Node13&#45;&gt;Node7</title>
<path fill="none" stroke="midnightblue" d="M495.12,-168.44C512.64,-161.62 533.52,-150.14 544,-132 554.93,-113.07 534.79,-93.82 516.48,-81.24"/>
<polygon fill="midnightblue" stroke="midnightblue" points="518.09,-78.1 507.79,-75.62 514.29,-83.99 518.09,-78.1"/>
</g>
<!-- Node13&#45;&gt;Node8 -->
<g id="edge26" class="edge">
<title>Node13&#45;&gt;Node8</title>
<path fill="none" stroke="midnightblue" d="M440.73,-168.47C423.55,-161.37 401.72,-149.55 389,-132 379.37,-118.71 376.12,-100.13 375.13,-86.24"/>
<polygon fill="midnightblue" stroke="midnightblue" points="378.61,-85.75 374.74,-75.89 371.62,-86.01 378.61,-85.75"/>
</g>
<!-- Node13&#45;&gt;Node9 -->
<g id="edge22" class="edge">
<title>Node13&#45;&gt;Node9</title>
<path fill="none" stroke="midnightblue" d="M495.42,-168.45C550.59,-150.94 660.56,-108.24 620,-56 602.59,-33.58 522.67,-20.44 476.74,-14.62"/>
<polygon fill="midnightblue" stroke="midnightblue" points="477.02,-11.13 466.67,-13.39 476.17,-18.07 477.02,-11.13"/>
</g>
<!-- Node13&#45;&gt;Node12 -->
<g id="edge27" class="edge">
<title>Node13&#45;&gt;Node12</title>
<path fill="none" stroke="midnightblue" d="M466,-168.08C466,-161.01 466,-150.86 466,-141.99"/>
<polygon fill="midnightblue" stroke="midnightblue" points="469.5,-141.75 466,-131.75 462.5,-141.75 469.5,-141.75"/>
</g>
<!-- Node13&#45;&gt;Node14 -->
<g id="edge28" class="edge">
<title>Node13&#45;&gt;Node14</title>
<path fill="none" stroke="midnightblue" d="M424.8,-168.44C372.62,-157.61 283.87,-139.17 237.04,-129.45"/>
<polygon fill="midnightblue" stroke="midnightblue" points="237.68,-126 227.17,-127.4 236.25,-132.86 237.68,-126"/>
</g>
<!-- Node14&#45;&gt;Node2 -->
<g id="edge30" class="edge">
<title>Node14&#45;&gt;Node2</title>
<path fill="none" stroke="midnightblue" d="M184.77,-114.7C153.65,-105.47 95.35,-88.17 58.16,-77.14"/>
<polygon fill="midnightblue" stroke="midnightblue" points="58.86,-73.69 48.27,-74.2 56.86,-80.4 58.86,-73.69"/>
</g>
<!-- Node14&#45;&gt;Node3 -->
<g id="edge29" class="edge">
<title>Node14&#45;&gt;Node3</title>
<path fill="none" stroke="midnightblue" d="M223.51,-112.32C241.07,-103.62 268.33,-90.12 288.53,-80.11"/>
<polygon fill="midnightblue" stroke="midnightblue" points="290.12,-83.23 297.53,-75.65 287.02,-76.96 290.12,-83.23"/>
</g>
<!-- Node14&#45;&gt;Node6 -->
<g id="edge31" class="edge">
<title>Node14&#45;&gt;Node6</title>
<path fill="none" stroke="midnightblue" d="M227.02,-118.93C278.79,-113.68 416.76,-98.74 541.12,-76.21"/>
<polygon fill="midnightblue" stroke="midnightblue" points="541.98,-79.6 551.19,-74.36 540.72,-72.72 541.98,-79.6"/>
</g>
<!-- Node14&#45;&gt;Node7 -->
<g id="edge32" class="edge">
<title>Node14&#45;&gt;Node7</title>
<path fill="none" stroke="midnightblue" d="M227.03,-117.03C271.66,-108.6 376.97,-88.72 440.57,-76.71"/>
<polygon fill="midnightblue" stroke="midnightblue" points="441.23,-80.15 450.41,-74.85 439.93,-73.27 441.23,-80.15"/>
</g>
<!-- Node14&#45;&gt;Node8 -->
<g id="edge36" class="edge">
<title>Node14&#45;&gt;Node8</title>
<path fill="none" stroke="midnightblue" d="M227.2,-114.39C253.25,-106.24 299.02,-91.86 346.83,-76.35"/>
<polygon fill="midnightblue" stroke="midnightblue" points="347.99,-79.65 356.42,-73.23 345.83,-73 347.99,-79.65"/>
</g>
<!-- Node15 -->
<g id="node15" class="node">
<title>Node15</title>
<g id="a_node15"><a xlink:title=" ">
<polygon fill="none" stroke="#bfbfbf" points="214.5,-56.5 214.5,-75.5 273.5,-75.5 273.5,-56.5 214.5,-56.5"/>
<text text-anchor="middle" x="244" y="-63.5" font-family="Helvetica,sans-Serif" font-size="10.00">sys/stat.h</text>
</a>
</g>
</g>
<!-- Node14&#45;&gt;Node15 -->
<g id="edge33" class="edge">
<title>Node14&#45;&gt;Node15</title>
<path fill="none" stroke="midnightblue" d="M212.27,-112.08C217.64,-104.46 225.52,-93.26 232.08,-83.94"/>
<polygon fill="midnightblue" stroke="midnightblue" points="234.95,-85.94 237.84,-75.75 229.22,-81.91 234.95,-85.94"/>
</g>
<!-- Node16 -->
<g id="node16" class="node">
<title>Node16</title>
<g id="a_node16"><a xlink:title=" ">
<polygon fill="none" stroke="#bfbfbf" points="66.5,-56.5 66.5,-75.5 131.5,-75.5 131.5,-56.5 66.5,-56.5"/>
<text text-anchor="middle" x="99" y="-63.5" font-family="Helvetica,sans-Serif" font-size="10.00">sys/types.h</text>
</a>
</g>
</g>
<!-- Node14&#45;&gt;Node16 -->
<g id="edge34" class="edge">
<title>Node14&#45;&gt;Node16</title>
<path fill="none" stroke="midnightblue" d="M188.81,-112.32C171.65,-103.66 145.05,-90.24 125.25,-80.25"/>
<polygon fill="midnightblue" stroke="midnightblue" points="126.65,-77.04 116.15,-75.65 123.5,-83.28 126.65,-77.04"/>
</g>
<!-- Node17 -->
<g id="node17" class="node">
<title>Node17</title>
<g id="a_node17"><a xlink:title=" ">
<polygon fill="none" stroke="#bfbfbf" points="150,-56.5 150,-75.5 196,-75.5 196,-56.5 150,-56.5"/>
<text text-anchor="middle" x="173" y="-63.5" font-family="Helvetica,sans-Serif" font-size="10.00">errno.h</text>
</a>
</g>
</g>
<!-- Node14&#45;&gt;Node17 -->
<g id="edge35" class="edge">
<title>Node14&#45;&gt;Node17</title>
<path fill="none" stroke="midnightblue" d="M200.55,-112.08C195.99,-104.61 189.33,-93.72 183.71,-84.52"/>
<polygon fill="midnightblue" stroke="midnightblue" points="186.55,-82.46 178.35,-75.75 180.58,-86.11 186.55,-82.46"/>
</g>
</g>
</svg>
