<?xml version="1.0" encoding="UTF-8" standalone="no"?>
<!DOCTYPE svg PUBLIC "-//W3C//DTD SVG 1.1//EN"
 "http://www.w3.org/Graphics/SVG/1.1/DTD/svg11.dtd">
<!-- Generated by graphviz version 2.49.3 (20211027.1534)
 -->
<!-- Title: src/WillyWeather/tide.c Pages: 1 -->
<svg width="1076pt" height="420pt"
 viewBox="0.00 0.00 1075.50 420.00" xmlns="http://www.w3.org/2000/svg" xmlns:xlink="http://www.w3.org/1999/xlink">
<g id="graph0" class="graph" transform="scale(1 1) rotate(0) translate(4 416)">
<title>src/WillyWeather/tide.c</title>
<!-- Node1 -->
<g id="node1" class="node">
<title>Node1</title>
<g id="a_node1"><a xlink:title=" ">
<polygon fill="#bfbfbf" stroke="black" points="511,-392.5 511,-411.5 627,-411.5 627,-392.5 511,-392.5"/>
<text text-anchor="middle" x="569" y="-399.5" font-family="Helvetica,sans-Serif" font-size="10.00">src/WillyWeather/tide.c</text>
</a>
</g>
</g>
<!-- Node2 -->
<g id="node2" class="node">
<title>Node2</title>
<g id="a_node2"><a xlink:href="tide_8h.html" target="_top" xlink:title=" ">
<polygon fill="none" stroke="black" points="519.5,-336.5 519.5,-355.5 618.5,-355.5 618.5,-336.5 519.5,-336.5"/>
<text text-anchor="middle" x="569" y="-343.5" font-family="Helvetica,sans-Serif" font-size="10.00">WillyWeather/tide.h</text>
</a>
</g>
</g>
<!-- Node1&#45;&gt;Node2 -->
<g id="edge1" class="edge">
<title>Node1&#45;&gt;Node2</title>
<path fill="none" stroke="midnightblue" d="M569,-392.08C569,-385.01 569,-374.86 569,-365.99"/>
<polygon fill="midnightblue" stroke="midnightblue" points="572.5,-365.75 569,-355.75 565.5,-365.75 572.5,-365.75"/>
</g>
<!-- Node3 -->
<g id="node3" class="node">
<title>Node3</title>
<g id="a_node3"><a xlink:title=" ">
<polygon fill="none" stroke="#bfbfbf" points="166,-56.5 166,-75.5 214,-75.5 214,-56.5 166,-56.5"/>
<text text-anchor="middle" x="190" y="-63.5" font-family="Helvetica,sans-Serif" font-size="10.00">string.h</text>
</a>
</g>
</g>
<!-- Node2&#45;&gt;Node3 -->
<g id="edge2" class="edge">
<title>Node2&#45;&gt;Node3</title>
<path fill="none" stroke="midnightblue" d="M519.47,-344.38C394.45,-341.47 76,-325.22 76,-235 76,-235 76,-235 76,-177 76,-130.11 126.55,-96.89 160.33,-79.93"/>
<polygon fill="midnightblue" stroke="midnightblue" points="161.87,-83.07 169.36,-75.58 158.83,-76.77 161.87,-83.07"/>
</g>
<!-- Node4 -->
<g id="node4" class="node">
<title>Node4</title>
<g id="a_node4"><a xlink:title=" ">
<polygon fill="none" stroke="#bfbfbf" points="90.5,-56.5 90.5,-75.5 137.5,-75.5 137.5,-56.5 90.5,-56.5"/>
<text text-anchor="middle" x="114" y="-63.5" font-family="Helvetica,sans-Serif" font-size="10.00">stdlib.h</text>
</a>
</g>
</g>
<!-- Node2&#45;&gt;Node4 -->
<g id="edge3" class="edge">
<title>Node2&#45;&gt;Node4</title>
<path fill="none" stroke="midnightblue" d="M519,-345.87C380.16,-346.94 0,-340.27 0,-235 0,-235 0,-235 0,-177 0,-130.11 50.55,-96.89 84.33,-79.93"/>
<polygon fill="midnightblue" stroke="midnightblue" points="85.87,-83.07 93.36,-75.58 82.83,-76.77 85.87,-83.07"/>
</g>
<!-- Node5 -->
<g id="node5" class="node">
<title>Node5</title>
<g id="a_node5"><a xlink:title=" ">
<polygon fill="none" stroke="#bfbfbf" points="834,-56.5 834,-75.5 880,-75.5 880,-56.5 834,-56.5"/>
<text text-anchor="middle" x="857" y="-63.5" font-family="Helvetica,sans-Serif" font-size="10.00">math.h</text>
</a>
</g>
</g>
<!-- Node2&#45;&gt;Node5 -->
<g id="edge4" class="edge">
<title>Node2&#45;&gt;Node5</title>
<path fill="none" stroke="midnightblue" d="M618.6,-338.07C706.85,-324.34 882,-290.15 882,-235 882,-235 882,-235 882,-177 882,-144 871.17,-106.77 863.76,-85.19"/>
<polygon fill="midnightblue" stroke="midnightblue" points="867.03,-83.93 860.37,-75.69 860.43,-86.28 867.03,-83.93"/>
</g>
<!-- Node6 -->
<g id="node6" class="node">
<title>Node6</title>
<g id="a_node6"><a xlink:title=" ">
<polygon fill="none" stroke="#bfbfbf" points="629.5,-0.5 629.5,-19.5 672.5,-19.5 672.5,-0.5 629.5,-0.5"/>
<text text-anchor="middle" x="651" y="-7.5" font-family="Helvetica,sans-Serif" font-size="10.00">time.h</text>
</a>
</g>
</g>
<!-- Node2&#45;&gt;Node6 -->
<g id="edge5" class="edge">
<title>Node2&#45;&gt;Node6</title>
<path fill="none" stroke="midnightblue" d="M618.69,-343.21C672.84,-339.74 761.09,-329.6 831,-300 876.11,-280.91 920,-283.98 920,-235 920,-235 920,-235 920,-121 920,-88.99 914.36,-75.53 889,-56 857.15,-31.47 740.14,-18.48 682.92,-13.48"/>
<polygon fill="midnightblue" stroke="midnightblue" points="682.91,-9.96 672.65,-12.61 682.32,-16.94 682.91,-9.96"/>
</g>
<!-- Node7 -->
<g id="node7" class="node">
<title>Node7</title>
<g id="a_node7"><a xlink:title=" ">
<polygon fill="none" stroke="#bfbfbf" points="617.5,-56.5 617.5,-75.5 676.5,-75.5 676.5,-56.5 617.5,-56.5"/>
<text text-anchor="middle" x="647" y="-63.5" font-family="Helvetica,sans-Serif" font-size="10.00">curl/curl.h</text>
</a>
</g>
</g>
<!-- Node2&#45;&gt;Node7 -->
<g id="edge6" class="edge">
<title>Node2&#45;&gt;Node7</title>
<path fill="none" stroke="midnightblue" d="M579.06,-336.44C588.15,-328.11 601.13,-314.59 608,-300 642.73,-226.21 647.04,-126.48 647.23,-85.63"/>
<polygon fill="midnightblue" stroke="midnightblue" points="650.73,-85.52 647.19,-75.53 643.73,-85.54 650.73,-85.52"/>
</g>
<!-- Node8 -->
<g id="node8" class="node">
<title>Node8</title>
<g id="a_node8"><a xlink:title=" ">
<polygon fill="none" stroke="#bfbfbf" points="694.5,-56.5 694.5,-75.5 777.5,-75.5 777.5,-56.5 694.5,-56.5"/>
<text text-anchor="middle" x="736" y="-63.5" font-family="Helvetica,sans-Serif" font-size="10.00">cjson/cJSON.h</text>
</a>
</g>
</g>
<!-- Node2&#45;&gt;Node8 -->
<g id="edge7" class="edge">
<title>Node2&#45;&gt;Node8</title>
<path fill="none" stroke="midnightblue" d="M582.91,-336.44C595.24,-328.29 613.08,-315.06 625,-300 680.63,-229.67 717.11,-126.92 730.39,-85.41"/>
<polygon fill="midnightblue" stroke="midnightblue" points="733.75,-86.4 733.39,-75.81 727.07,-84.31 733.75,-86.4"/>
</g>
<!-- Node9 -->
<g id="node9" class="node">
<title>Node9</title>
<g id="a_node9"><a xlink:href="log_8h.html" target="_top" xlink:title=" ">
<polygon fill="none" stroke="black" points="232.5,-56.5 232.5,-75.5 269.5,-75.5 269.5,-56.5 232.5,-56.5"/>
<text text-anchor="middle" x="251" y="-63.5" font-family="Helvetica,sans-Serif" font-size="10.00">log.h</text>
</a>
</g>
</g>
<!-- Node2&#45;&gt;Node9 -->
<g id="edge8" class="edge">
<title>Node2&#45;&gt;Node9</title>
<path fill="none" stroke="midnightblue" d="M519.42,-339.48C424.84,-327.56 228,-295.49 228,-235 228,-235 228,-235 228,-177 228,-144.12 237.97,-106.86 244.78,-85.24"/>
<polygon fill="midnightblue" stroke="midnightblue" points="248.11,-86.3 247.9,-75.71 241.46,-84.12 248.11,-86.3"/>
</g>
<!-- Node13 -->
<g id="node13" class="node">
<title>Node13</title>
<g id="a_node13"><a xlink:href="_willy_weather_2authenticate_8h.html" target="_top" xlink:title=" ">
<polygon fill="none" stroke="black" points="370.5,-224.5 370.5,-243.5 507.5,-243.5 507.5,-224.5 370.5,-224.5"/>
<text text-anchor="middle" x="439" y="-231.5" font-family="Helvetica,sans-Serif" font-size="10.00">WillyWeather/authenticate.h</text>
</a>
</g>
</g>
<!-- Node2&#45;&gt;Node13 -->
<g id="edge13" class="edge">
<title>Node2&#45;&gt;Node13</title>
<path fill="none" stroke="midnightblue" d="M524.92,-336.43C502.4,-329.94 476.19,-318.81 459,-300 447.44,-287.35 442.56,-268.14 440.5,-253.88"/>
<polygon fill="midnightblue" stroke="midnightblue" points="443.95,-253.28 439.38,-243.73 436.99,-254.05 443.95,-253.28"/>
</g>
<!-- Node14 -->
<g id="node14" class="node">
<title>Node14</title>
<g id="a_node14"><a xlink:href="http_8h.html" target="_top" xlink:title=" ">
<polygon fill="none" stroke="black" points="294.5,-168.5 294.5,-187.5 335.5,-187.5 335.5,-168.5 294.5,-168.5"/>
<text text-anchor="middle" x="315" y="-175.5" font-family="Helvetica,sans-Serif" font-size="10.00">http.h</text>
</a>
</g>
</g>
<!-- Node2&#45;&gt;Node14 -->
<g id="edge47" class="edge">
<title>Node2&#45;&gt;Node14</title>
<path fill="none" stroke="midnightblue" d="M519.23,-336.6C466.29,-325.03 383.86,-299.01 337,-244 325.78,-230.83 320.21,-211.69 317.49,-197.59"/>
<polygon fill="midnightblue" stroke="midnightblue" points="320.92,-196.88 315.87,-187.57 314.01,-198 320.92,-196.88"/>
</g>
<!-- Node15 -->
<g id="node15" class="node">
<title>Node15</title>
<g id="a_node15"><a xlink:href="utils_8h.html" target="_top" xlink:title=" ">
<polygon fill="none" stroke="black" points="468,-112.5 468,-131.5 510,-131.5 510,-112.5 468,-112.5"/>
<text text-anchor="middle" x="489" y="-119.5" font-family="Helvetica,sans-Serif" font-size="10.00">utils.h</text>
</a>
</g>
</g>
<!-- Node2&#45;&gt;Node15 -->
<g id="edge48" class="edge">
<title>Node2&#45;&gt;Node15</title>
<path fill="none" stroke="midnightblue" d="M576.29,-336.31C585.72,-323.97 600.25,-300.59 594,-280 576.38,-221.96 529.4,-165.82 504.69,-139.14"/>
<polygon fill="midnightblue" stroke="midnightblue" points="506.93,-136.42 497.52,-131.55 501.84,-141.22 506.93,-136.42"/>
</g>
<!-- Node20 -->
<g id="node20" class="node">
<title>Node20</title>
<g id="a_node20"><a xlink:href="location_8h.html" target="_top" xlink:title=" ">
<polygon fill="none" stroke="black" points="467.5,-280.5 467.5,-299.5 584.5,-299.5 584.5,-280.5 467.5,-280.5"/>
<text text-anchor="middle" x="526" y="-287.5" font-family="Helvetica,sans-Serif" font-size="10.00">WillyWeather/location.h</text>
</a>
</g>
</g>
<!-- Node2&#45;&gt;Node20 -->
<g id="edge35" class="edge">
<title>Node2&#45;&gt;Node20</title>
<path fill="none" stroke="midnightblue" d="M561.9,-336.08C555.76,-328.38 546.73,-317.03 539.26,-307.65"/>
<polygon fill="midnightblue" stroke="midnightblue" points="541.94,-305.39 532.97,-299.75 536.46,-309.75 541.94,-305.39"/>
</g>
<!-- Node21 -->
<g id="node21" class="node">
<title>Node21</title>
<g id="a_node21"><a xlink:href="forecast_8h.html" target="_top" xlink:title=" ">
<polygon fill="none" stroke="black" points="948.5,-280.5 948.5,-299.5 1067.5,-299.5 1067.5,-280.5 948.5,-280.5"/>
<text text-anchor="middle" x="1008" y="-287.5" font-family="Helvetica,sans-Serif" font-size="10.00">WillyWeather/forecast.h</text>
</a>
</g>
</g>
<!-- Node2&#45;&gt;Node21 -->
<g id="edge46" class="edge">
<title>Node2&#45;&gt;Node21</title>
<path fill="none" stroke="midnightblue" d="M618.51,-338.91C696.67,-329.3 848.93,-310.57 938.17,-299.59"/>
<polygon fill="midnightblue" stroke="midnightblue" points="938.7,-303.05 948.2,-298.36 937.85,-296.1 938.7,-303.05"/>
</g>
<!-- Node9&#45;&gt;Node6 -->
<g id="edge12" class="edge">
<title>Node9&#45;&gt;Node6</title>
<path fill="none" stroke="midnightblue" d="M269.78,-62.43C282.98,-60.63 301.07,-58.16 317,-56 427.8,-40.98 559.3,-23.31 618.85,-15.31"/>
<polygon fill="midnightblue" stroke="midnightblue" points="619.67,-18.74 629.11,-13.94 618.74,-11.8 619.67,-18.74"/>
</g>
<!-- Node10 -->
<g id="node10" class="node">
<title>Node10</title>
<g id="a_node10"><a xlink:title=" ">
<polygon fill="none" stroke="#bfbfbf" points="297.5,-0.5 297.5,-19.5 342.5,-19.5 342.5,-0.5 297.5,-0.5"/>
<text text-anchor="middle" x="320" y="-7.5" font-family="Helvetica,sans-Serif" font-size="10.00">stdio.h</text>
</a>
</g>
</g>
<!-- Node9&#45;&gt;Node10 -->
<g id="edge9" class="edge">
<title>Node9&#45;&gt;Node10</title>
<path fill="none" stroke="midnightblue" d="M262.09,-56.32C272.49,-48.18 288.26,-35.84 300.72,-26.09"/>
<polygon fill="midnightblue" stroke="midnightblue" points="302.99,-28.75 308.71,-19.83 298.68,-23.24 302.99,-28.75"/>
</g>
<!-- Node11 -->
<g id="node11" class="node">
<title>Node11</title>
<g id="a_node11"><a xlink:title=" ">
<polygon fill="none" stroke="#bfbfbf" points="153.5,-0.5 153.5,-19.5 204.5,-19.5 204.5,-0.5 153.5,-0.5"/>
<text text-anchor="middle" x="179" y="-7.5" font-family="Helvetica,sans-Serif" font-size="10.00">stdarg.h</text>
</a>
</g>
</g>
<!-- Node9&#45;&gt;Node11 -->
<g id="edge10" class="edge">
<title>Node9&#45;&gt;Node11</title>
<path fill="none" stroke="midnightblue" d="M239.43,-56.32C228.58,-48.18 212.12,-35.84 199.12,-26.09"/>
<polygon fill="midnightblue" stroke="midnightblue" points="200.88,-23.03 190.78,-19.83 196.68,-28.63 200.88,-23.03"/>
</g>
<!-- Node12 -->
<g id="node12" class="node">
<title>Node12</title>
<g id="a_node12"><a xlink:title=" ">
<polygon fill="none" stroke="#bfbfbf" points="223,-0.5 223,-19.5 279,-19.5 279,-0.5 223,-0.5"/>
<text text-anchor="middle" x="251" y="-7.5" font-family="Helvetica,sans-Serif" font-size="10.00">stdbool.h</text>
</a>
</g>
</g>
<!-- Node9&#45;&gt;Node12 -->
<g id="edge11" class="edge">
<title>Node9&#45;&gt;Node12</title>
<path fill="none" stroke="midnightblue" d="M251,-56.08C251,-49.01 251,-38.86 251,-29.99"/>
<polygon fill="midnightblue" stroke="midnightblue" points="254.5,-29.75 251,-19.75 247.5,-29.75 254.5,-29.75"/>
</g>
<!-- Node13&#45;&gt;Node3 -->
<g id="edge14" class="edge">
<title>Node13&#45;&gt;Node3</title>
<path fill="none" stroke="midnightblue" d="M427.55,-224.44C400.27,-204.15 329.05,-151.86 267,-112 249.74,-100.91 229.72,-89.25 214.42,-80.57"/>
<polygon fill="midnightblue" stroke="midnightblue" points="216,-77.45 205.57,-75.59 212.57,-83.55 216,-77.45"/>
</g>
<!-- Node13&#45;&gt;Node4 -->
<g id="edge15" class="edge">
<title>Node13&#45;&gt;Node4</title>
<path fill="none" stroke="midnightblue" d="M399.39,-224.46C367.68,-216.91 322.46,-204.53 285,-188 241.21,-168.68 232.02,-159.72 193,-132 171.01,-116.38 147.31,-96.42 131.66,-82.76"/>
<polygon fill="midnightblue" stroke="midnightblue" points="133.68,-79.87 123.86,-75.89 129.05,-85.13 133.68,-79.87"/>
</g>
<!-- Node13&#45;&gt;Node7 -->
<g id="edge18" class="edge">
<title>Node13&#45;&gt;Node7</title>
<path fill="none" stroke="midnightblue" d="M449.89,-224.31C483.52,-197.47 585.99,-115.69 628.36,-81.88"/>
<polygon fill="midnightblue" stroke="midnightblue" points="630.58,-84.58 636.22,-75.61 626.22,-79.11 630.58,-84.58"/>
</g>
<!-- Node13&#45;&gt;Node8 -->
<g id="edge17" class="edge">
<title>Node13&#45;&gt;Node8</title>
<path fill="none" stroke="midnightblue" d="M454.54,-224.39C470.85,-215.34 497.24,-200.7 520,-188 589.85,-149.03 672.28,-102.78 712.1,-80.43"/>
<polygon fill="midnightblue" stroke="midnightblue" points="713.82,-83.48 720.82,-75.53 710.39,-77.37 713.82,-83.48"/>
</g>
<!-- Node13&#45;&gt;Node9 -->
<g id="edge19" class="edge">
<title>Node13&#45;&gt;Node9</title>
<path fill="none" stroke="midnightblue" d="M437.01,-224.3C431.53,-202.29 414.19,-143.88 378,-112 370.35,-105.26 314.25,-86.84 279.22,-75.77"/>
<polygon fill="midnightblue" stroke="midnightblue" points="280.11,-72.38 269.52,-72.72 278.01,-79.06 280.11,-72.38"/>
</g>
<!-- Node13&#45;&gt;Node10 -->
<g id="edge16" class="edge">
<title>Node13&#45;&gt;Node10</title>
<path fill="none" stroke="midnightblue" d="M438.91,-224.28C438.18,-202.21 433.16,-143.68 401,-112 372.06,-83.5 339.36,-109.91 317,-76 308.07,-62.46 310.1,-43.65 313.61,-29.75"/>
<polygon fill="midnightblue" stroke="midnightblue" points="317.06,-30.43 316.56,-19.85 310.35,-28.44 317.06,-30.43"/>
</g>
<!-- Node13&#45;&gt;Node14 -->
<g id="edge20" class="edge">
<title>Node13&#45;&gt;Node14</title>
<path fill="none" stroke="midnightblue" d="M419.35,-224.44C399.04,-215.6 367.1,-201.69 343.9,-191.59"/>
<polygon fill="midnightblue" stroke="midnightblue" points="345.12,-188.3 334.56,-187.52 342.33,-194.72 345.12,-188.3"/>
</g>
<!-- Node14&#45;&gt;Node3 -->
<g id="edge22" class="edge">
<title>Node14&#45;&gt;Node3</title>
<path fill="none" stroke="midnightblue" d="M305.19,-168.37C284.11,-149.81 234.22,-105.91 207.54,-82.44"/>
<polygon fill="midnightblue" stroke="midnightblue" points="209.58,-79.57 199.76,-75.59 204.96,-84.83 209.58,-79.57"/>
</g>
<!-- Node14&#45;&gt;Node4 -->
<g id="edge21" class="edge">
<title>Node14&#45;&gt;Node4</title>
<path fill="none" stroke="midnightblue" d="M299.23,-168.37C264.37,-149.29 180.55,-103.42 138.68,-80.51"/>
<polygon fill="midnightblue" stroke="midnightblue" points="140.15,-77.32 129.7,-75.59 136.79,-83.46 140.15,-77.32"/>
</g>
<!-- Node14&#45;&gt;Node7 -->
<g id="edge23" class="edge">
<title>Node14&#45;&gt;Node7</title>
<path fill="none" stroke="midnightblue" d="M335.75,-174.2C373.17,-168.75 454.12,-155.21 519,-132 529.46,-128.26 587.4,-98.22 621.64,-80.31"/>
<polygon fill="midnightblue" stroke="midnightblue" points="623.37,-83.36 630.61,-75.62 620.13,-77.15 623.37,-83.36"/>
</g>
<!-- Node14&#45;&gt;Node15 -->
<g id="edge24" class="edge">
<title>Node14&#45;&gt;Node15</title>
<path fill="none" stroke="midnightblue" d="M335.64,-170.59C365.96,-161.19 422.74,-143.56 458.06,-132.6"/>
<polygon fill="midnightblue" stroke="midnightblue" points="459.33,-135.87 467.84,-129.57 457.25,-129.19 459.33,-135.87"/>
</g>
<!-- Node15&#45;&gt;Node3 -->
<g id="edge26" class="edge">
<title>Node15&#45;&gt;Node3</title>
<path fill="none" stroke="midnightblue" d="M467.83,-118.14C424.11,-112.09 320.52,-96.96 224,-76.04"/>
<polygon fill="midnightblue" stroke="midnightblue" points="224.6,-72.59 214.08,-73.86 223.1,-79.42 224.6,-72.59"/>
</g>
<!-- Node15&#45;&gt;Node4 -->
<g id="edge25" class="edge">
<title>Node15&#45;&gt;Node4</title>
<path fill="none" stroke="midnightblue" d="M467.94,-118.68C415.33,-112.76 273.94,-96.14 157,-76 153.94,-75.47 150.77,-74.89 147.6,-74.27"/>
<polygon fill="midnightblue" stroke="midnightblue" points="148.09,-70.8 137.6,-72.26 146.71,-77.66 148.09,-70.8"/>
</g>
<!-- Node15&#45;&gt;Node5 -->
<g id="edge33" class="edge">
<title>Node15&#45;&gt;Node5</title>
<path fill="none" stroke="midnightblue" d="M510.11,-117.9C571.24,-108.93 748.84,-82.87 823.41,-71.93"/>
<polygon fill="midnightblue" stroke="midnightblue" points="824.25,-75.34 833.64,-70.43 823.24,-68.42 824.25,-75.34"/>
</g>
<!-- Node15&#45;&gt;Node7 -->
<g id="edge27" class="edge">
<title>Node15&#45;&gt;Node7</title>
<path fill="none" stroke="midnightblue" d="M510.31,-113.72C536.45,-104.78 581.14,-89.51 612.27,-78.87"/>
<polygon fill="midnightblue" stroke="midnightblue" points="613.54,-82.14 621.87,-75.59 611.27,-75.51 613.54,-82.14"/>
</g>
<!-- Node15&#45;&gt;Node8 -->
<g id="edge29" class="edge">
<title>Node15&#45;&gt;Node8</title>
<path fill="none" stroke="midnightblue" d="M510.06,-116.4C548.97,-107.89 633.05,-89.51 686.95,-77.72"/>
<polygon fill="midnightblue" stroke="midnightblue" points="687.96,-81.09 696.98,-75.53 686.46,-74.25 687.96,-81.09"/>
</g>
<!-- Node15&#45;&gt;Node9 -->
<g id="edge34" class="edge">
<title>Node15&#45;&gt;Node9</title>
<path fill="none" stroke="midnightblue" d="M467.88,-116.21C425.06,-106.49 327.99,-84.47 279.58,-73.48"/>
<polygon fill="midnightblue" stroke="midnightblue" points="280.27,-70.05 269.74,-71.25 278.72,-76.88 280.27,-70.05"/>
</g>
<!-- Node16 -->
<g id="node16" class="node">
<title>Node16</title>
<g id="a_node16"><a xlink:title=" ">
<polygon fill="none" stroke="#bfbfbf" points="474,-56.5 474,-75.5 522,-75.5 522,-56.5 474,-56.5"/>
<text text-anchor="middle" x="498" y="-63.5" font-family="Helvetica,sans-Serif" font-size="10.00">stdint.h</text>
</a>
</g>
</g>
<!-- Node15&#45;&gt;Node16 -->
<g id="edge28" class="edge">
<title>Node15&#45;&gt;Node16</title>
<path fill="none" stroke="midnightblue" d="M490.49,-112.08C491.68,-104.93 493.39,-94.64 494.88,-85.69"/>
<polygon fill="midnightblue" stroke="midnightblue" points="498.35,-86.19 496.54,-75.75 491.45,-85.04 498.35,-86.19"/>
</g>
<!-- Node17 -->
<g id="node17" class="node">
<title>Node17</title>
<g id="a_node17"><a xlink:title=" ">
<polygon fill="none" stroke="#bfbfbf" points="540.5,-56.5 540.5,-75.5 599.5,-75.5 599.5,-56.5 540.5,-56.5"/>
<text text-anchor="middle" x="570" y="-63.5" font-family="Helvetica,sans-Serif" font-size="10.00">sys/stat.h</text>
</a>
</g>
</g>
<!-- Node15&#45;&gt;Node17 -->
<g id="edge30" class="edge">
<title>Node15&#45;&gt;Node17</title>
<path fill="none" stroke="midnightblue" d="M502.01,-112.32C514.53,-103.98 533.68,-91.21 548.47,-81.35"/>
<polygon fill="midnightblue" stroke="midnightblue" points="550.64,-84.11 557.02,-75.65 546.76,-78.29 550.64,-84.11"/>
</g>
<!-- Node18 -->
<g id="node18" class="node">
<title>Node18</title>
<g id="a_node18"><a xlink:title=" ">
<polygon fill="none" stroke="#bfbfbf" points="326.5,-56.5 326.5,-75.5 391.5,-75.5 391.5,-56.5 326.5,-56.5"/>
<text text-anchor="middle" x="359" y="-63.5" font-family="Helvetica,sans-Serif" font-size="10.00">sys/types.h</text>
</a>
</g>
</g>
<!-- Node15&#45;&gt;Node18 -->
<g id="edge31" class="edge">
<title>Node15&#45;&gt;Node18</title>
<path fill="none" stroke="midnightblue" d="M468.4,-112.44C447.01,-103.56 413.32,-89.56 388.98,-79.45"/>
<polygon fill="midnightblue" stroke="midnightblue" points="390.08,-76.12 379.5,-75.52 387.39,-82.58 390.08,-76.12"/>
</g>
<!-- Node19 -->
<g id="node19" class="node">
<title>Node19</title>
<g id="a_node19"><a xlink:title=" ">
<polygon fill="none" stroke="#bfbfbf" points="410,-56.5 410,-75.5 456,-75.5 456,-56.5 410,-56.5"/>
<text text-anchor="middle" x="433" y="-63.5" font-family="Helvetica,sans-Serif" font-size="10.00">errno.h</text>
</a>
</g>
</g>
<!-- Node15&#45;&gt;Node19 -->
<g id="edge32" class="edge">
<title>Node15&#45;&gt;Node19</title>
<path fill="none" stroke="midnightblue" d="M480,-112.32C471.81,-104.42 459.49,-92.55 449.53,-82.94"/>
<polygon fill="midnightblue" stroke="midnightblue" points="451.79,-80.26 442.16,-75.83 446.93,-85.29 451.79,-80.26"/>
</g>
<!-- Node20&#45;&gt;Node3 -->
<g id="edge36" class="edge">
<title>Node20&#45;&gt;Node3</title>
<path fill="none" stroke="midnightblue" d="M467.48,-287.6C420.78,-284.1 355.25,-273.68 306,-244 250.83,-210.75 246.05,-187.88 214,-132 205.58,-117.33 199.17,-99.16 195.1,-85.77"/>
<polygon fill="midnightblue" stroke="midnightblue" points="198.37,-84.46 192.24,-75.82 191.64,-86.4 198.37,-84.46"/>
</g>
<!-- Node20&#45;&gt;Node4 -->
<g id="edge37" class="edge">
<title>Node20&#45;&gt;Node4</title>
<path fill="none" stroke="midnightblue" d="M467.4,-283.63C415.7,-277.7 338.85,-265.92 275,-244 173.84,-209.27 117.3,-223.55 62,-132 50.65,-113.21 71.09,-93.82 89.58,-81.17"/>
<polygon fill="midnightblue" stroke="midnightblue" points="91.57,-84.05 98.09,-75.7 87.78,-78.17 91.57,-84.05"/>
</g>
<!-- Node20&#45;&gt;Node5 -->
<g id="edge39" class="edge">
<title>Node20&#45;&gt;Node5</title>
<path fill="none" stroke="midnightblue" d="M584.55,-283.31C628.93,-277.46 690.67,-265.96 741,-244 780.45,-226.79 794.8,-222.89 820,-188 842.64,-156.65 851.64,-111.2 855.05,-85.86"/>
<polygon fill="midnightblue" stroke="midnightblue" points="858.55,-86.11 856.26,-75.76 851.6,-85.28 858.55,-86.11"/>
</g>
<!-- Node20&#45;&gt;Node7 -->
<g id="edge41" class="edge">
<title>Node20&#45;&gt;Node7</title>
<path fill="none" stroke="midnightblue" d="M530.74,-280.3C548.7,-247.36 612.72,-129.9 637.3,-84.81"/>
<polygon fill="midnightblue" stroke="midnightblue" points="640.45,-86.34 642.16,-75.88 634.3,-82.99 640.45,-86.34"/>
</g>
<!-- Node20&#45;&gt;Node8 -->
<g id="edge40" class="edge">
<title>Node20&#45;&gt;Node8</title>
<path fill="none" stroke="midnightblue" d="M534.49,-280.43C543.39,-271.41 557.76,-256.78 570,-244 626.44,-185.06 692.5,-113.99 721.32,-82.88"/>
<polygon fill="midnightblue" stroke="midnightblue" points="723.89,-85.25 728.11,-75.53 718.75,-80.49 723.89,-85.25"/>
</g>
<!-- Node20&#45;&gt;Node9 -->
<g id="edge42" class="edge">
<title>Node20&#45;&gt;Node9</title>
<path fill="none" stroke="midnightblue" d="M467.32,-283.96C428.24,-278.53 376.91,-267.28 337,-244 307.66,-226.89 301.61,-217.62 285,-188 266.39,-154.81 257.35,-110.69 253.49,-85.93"/>
<polygon fill="midnightblue" stroke="midnightblue" points="256.91,-85.15 252.02,-75.75 249.98,-86.15 256.91,-85.15"/>
</g>
<!-- Node20&#45;&gt;Node10 -->
<g id="edge38" class="edge">
<title>Node20&#45;&gt;Node10</title>
<path fill="none" stroke="midnightblue" d="M550.7,-280.42C631.03,-251.31 874.8,-152.67 787,-56 757.87,-23.93 454.63,-14.09 352.99,-11.67"/>
<polygon fill="midnightblue" stroke="midnightblue" points="352.79,-8.17 342.71,-11.44 352.63,-15.17 352.79,-8.17"/>
</g>
<!-- Node20&#45;&gt;Node13 -->
<g id="edge43" class="edge">
<title>Node20&#45;&gt;Node13</title>
<path fill="none" stroke="midnightblue" d="M512.02,-280.32C498.45,-271.9 477.62,-258.97 461.68,-249.07"/>
<polygon fill="midnightblue" stroke="midnightblue" points="463.29,-245.95 452.94,-243.65 459.59,-251.9 463.29,-245.95"/>
</g>
<!-- Node20&#45;&gt;Node14 -->
<g id="edge44" class="edge">
<title>Node20&#45;&gt;Node14</title>
<path fill="none" stroke="midnightblue" d="M467.25,-282.91C433.71,-277.13 392.26,-265.88 361,-244 343.88,-232.02 330.94,-211.53 323.22,-196.76"/>
<polygon fill="midnightblue" stroke="midnightblue" points="326.27,-195.04 318.71,-187.62 319.99,-198.13 326.27,-195.04"/>
</g>
<!-- Node20&#45;&gt;Node15 -->
<g id="edge45" class="edge">
<title>Node20&#45;&gt;Node15</title>
<path fill="none" stroke="midnightblue" d="M525.15,-280.1C523.85,-267.53 521.11,-243.86 517,-224 510.93,-194.68 501.1,-161.33 494.85,-141.24"/>
<polygon fill="midnightblue" stroke="midnightblue" points="498.14,-140.03 491.79,-131.55 491.46,-142.14 498.14,-140.03"/>
</g>
</g>
</svg>
