<?xml version="1.0" encoding="UTF-8" standalone="no"?>
<!DOCTYPE svg PUBLIC "-//W3C//DTD SVG 1.1//EN"
 "http://www.w3.org/Graphics/SVG/1.1/DTD/svg11.dtd">
<!-- Generated by graphviz version 2.49.3 (20211027.1534)
 -->
<!-- Title: include/WillyWeather/tide.h Pages: 1 -->
<svg width="636pt" height="207pt"
 viewBox="0.00 0.00 636.31 207.00" xmlns="http://www.w3.org/2000/svg" xmlns:xlink="http://www.w3.org/1999/xlink">
<g id="graph0" class="graph" transform="scale(1 1) rotate(0) translate(4 203)">
<title>include/WillyWeather/tide.h</title>
<!-- Node1 -->
<g id="node1" class="node">
<title>Node1</title>
<g id="a_node1"><a xlink:title=" ">
<polygon fill="#bfbfbf" stroke="black" points="188.31,-168.5 188.31,-198.5 295.31,-198.5 295.31,-168.5 188.31,-168.5"/>
<text text-anchor="start" x="196.31" y="-186.5" font-family="Helvetica,sans-Serif" font-size="10.00">include/WillyWeather</text>
<text text-anchor="middle" x="241.81" y="-175.5" font-family="Helvetica,sans-Serif" font-size="10.00">/tide.h</text>
</a>
</g>
</g>
<!-- Node2 -->
<g id="node2" class="node">
<title>Node2</title>
<g id="a_node2"><a xlink:title=" ">
<polygon fill="none" stroke="#bfbfbf" points="186.81,-0.5 186.81,-19.5 234.81,-19.5 234.81,-0.5 186.81,-0.5"/>
<text text-anchor="middle" x="210.81" y="-7.5" font-family="Helvetica,sans-Serif" font-size="10.00">string.h</text>
</a>
</g>
</g>
<!-- Node1&#45;&gt;Node2 -->
<g id="edge1" class="edge">
<title>Node1&#45;&gt;Node2</title>
<path fill="none" stroke="midnightblue" d="M188.08,-178.1C128.2,-171.95 36.99,-158.43 15.81,-132 -5.31,-105.64 -5.22,-82.43 15.81,-56 35.5,-31.25 125.8,-18.94 176.33,-13.9"/>
<polygon fill="midnightblue" stroke="midnightblue" points="176.84,-17.37 186.46,-12.93 176.18,-10.4 176.84,-17.37"/>
</g>
<!-- Node3 -->
<g id="node3" class="node">
<title>Node3</title>
<g id="a_node3"><a xlink:title=" ">
<polygon fill="none" stroke="#bfbfbf" points="472.31,-0.5 472.31,-19.5 519.31,-19.5 519.31,-0.5 472.31,-0.5"/>
<text text-anchor="middle" x="495.81" y="-7.5" font-family="Helvetica,sans-Serif" font-size="10.00">stdlib.h</text>
</a>
</g>
</g>
<!-- Node1&#45;&gt;Node3 -->
<g id="edge2" class="edge">
<title>Node1&#45;&gt;Node3</title>
<path fill="none" stroke="midnightblue" d="M295.49,-182.56C369.4,-179.35 499.99,-161.15 558.81,-76 572.55,-56.11 547.04,-36.66 524.48,-24.3"/>
<polygon fill="midnightblue" stroke="midnightblue" points="525.93,-21.1 515.44,-19.61 522.7,-27.32 525.93,-21.1"/>
</g>
<!-- Node4 -->
<g id="node4" class="node">
<title>Node4</title>
<g id="a_node4"><a xlink:title=" ">
<polygon fill="none" stroke="#bfbfbf" points="57.81,-56.5 57.81,-75.5 103.81,-75.5 103.81,-56.5 57.81,-56.5"/>
<text text-anchor="middle" x="80.81" y="-63.5" font-family="Helvetica,sans-Serif" font-size="10.00">math.h</text>
</a>
</g>
</g>
<!-- Node1&#45;&gt;Node4 -->
<g id="edge3" class="edge">
<title>Node1&#45;&gt;Node4</title>
<path fill="none" stroke="midnightblue" d="M188.07,-169.25C164.5,-161.4 137.73,-149.47 117.81,-132 103.36,-119.32 93.25,-99.57 87.29,-85.16"/>
<polygon fill="midnightblue" stroke="midnightblue" points="90.54,-83.87 83.68,-75.79 84.01,-86.38 90.54,-83.87"/>
</g>
<!-- Node5 -->
<g id="node5" class="node">
<title>Node5</title>
<g id="a_node5"><a xlink:title=" ">
<polygon fill="none" stroke="#bfbfbf" points="127.31,-112.5 127.31,-131.5 170.31,-131.5 170.31,-112.5 127.31,-112.5"/>
<text text-anchor="middle" x="148.81" y="-119.5" font-family="Helvetica,sans-Serif" font-size="10.00">time.h</text>
</a>
</g>
</g>
<!-- Node1&#45;&gt;Node5 -->
<g id="edge4" class="edge">
<title>Node1&#45;&gt;Node5</title>
<path fill="none" stroke="midnightblue" d="M219.77,-168.4C205,-158.95 185.63,-146.56 170.86,-137.11"/>
<polygon fill="midnightblue" stroke="midnightblue" points="172.65,-134.1 162.34,-131.66 168.88,-140 172.65,-134.1"/>
</g>
<!-- Node6 -->
<g id="node6" class="node">
<title>Node6</title>
<g id="a_node6"><a xlink:title=" ">
<polygon fill="none" stroke="#bfbfbf" points="569.31,-0.5 569.31,-19.5 628.31,-19.5 628.31,-0.5 569.31,-0.5"/>
<text text-anchor="middle" x="598.81" y="-7.5" font-family="Helvetica,sans-Serif" font-size="10.00">curl/curl.h</text>
</a>
</g>
</g>
<!-- Node1&#45;&gt;Node6 -->
<g id="edge5" class="edge">
<title>Node1&#45;&gt;Node6</title>
<path fill="none" stroke="midnightblue" d="M295.39,-182.23C354.64,-179.9 451.42,-169.89 524.81,-132 556.37,-115.71 564.01,-106.73 581.81,-76 590.12,-61.65 594.45,-43.19 596.65,-29.61"/>
<polygon fill="midnightblue" stroke="midnightblue" points="600.14,-29.93 598.04,-19.55 593.2,-28.98 600.14,-29.93"/>
</g>
<!-- Node7 -->
<g id="node7" class="node">
<title>Node7</title>
<g id="a_node7"><a xlink:title=" ">
<polygon fill="none" stroke="#bfbfbf" points="255.31,-0.5 255.31,-19.5 338.31,-19.5 338.31,-0.5 255.31,-0.5"/>
<text text-anchor="middle" x="296.81" y="-7.5" font-family="Helvetica,sans-Serif" font-size="10.00">cjson/cJSON.h</text>
</a>
</g>
</g>
<!-- Node1&#45;&gt;Node7 -->
<g id="edge6" class="edge">
<title>Node1&#45;&gt;Node7</title>
<path fill="none" stroke="midnightblue" d="M188.06,-170.15C116.15,-151.19 2.72,-111.2 48.81,-56 50.39,-54.11 172.55,-32.6 244.8,-20.01"/>
<polygon fill="midnightblue" stroke="midnightblue" points="245.83,-23.39 255.08,-18.23 244.63,-16.49 245.83,-23.39"/>
</g>
<!-- Node8 -->
<g id="node8" class="node">
<title>Node8</title>
<g id="a_node8"><a xlink:href="forecast_8h.html" target="_top" xlink:title=" ">
<polygon fill="none" stroke="black" points="122.31,-56.5 122.31,-75.5 181.31,-75.5 181.31,-56.5 122.31,-56.5"/>
<text text-anchor="middle" x="151.81" y="-63.5" font-family="Helvetica,sans-Serif" font-size="10.00">forecast.h</text>
</a>
</g>
</g>
<!-- Node1&#45;&gt;Node8 -->
<g id="edge7" class="edge">
<title>Node1&#45;&gt;Node8</title>
<path fill="none" stroke="midnightblue" d="M230.78,-168.34C214.12,-146.96 182.61,-106.53 164.85,-83.73"/>
<polygon fill="midnightblue" stroke="midnightblue" points="167.47,-81.41 158.57,-75.67 161.95,-85.71 167.47,-81.41"/>
</g>
<!-- Node9 -->
<g id="node9" class="node">
<title>Node9</title>
<g id="a_node9"><a xlink:href="_willy_weather_2authenticate_8h.html" target="_top" xlink:title=" ">
<polygon fill="none" stroke="black" points="314.31,-56.5 314.31,-75.5 451.31,-75.5 451.31,-56.5 314.31,-56.5"/>
<text text-anchor="middle" x="382.81" y="-63.5" font-family="Helvetica,sans-Serif" font-size="10.00">WillyWeather/authenticate.h</text>
</a>
</g>
</g>
<!-- Node1&#45;&gt;Node9 -->
<g id="edge8" class="edge">
<title>Node1&#45;&gt;Node9</title>
<path fill="none" stroke="midnightblue" d="M292.82,-168.39C313.83,-160.5 337.1,-148.77 353.81,-132 366.6,-119.16 374.25,-99.71 378.46,-85.43"/>
<polygon fill="midnightblue" stroke="midnightblue" points="381.85,-86.27 381.03,-75.71 375.09,-84.48 381.85,-86.27"/>
</g>
<!-- Node11 -->
<g id="node11" class="node">
<title>Node11</title>
<g id="a_node11"><a xlink:href="location_8h.html" target="_top" xlink:title=" ">
<polygon fill="none" stroke="black" points="227.31,-112.5 227.31,-131.5 344.31,-131.5 344.31,-112.5 227.31,-112.5"/>
<text text-anchor="middle" x="285.81" y="-119.5" font-family="Helvetica,sans-Serif" font-size="10.00">WillyWeather/location.h</text>
</a>
</g>
</g>
<!-- Node1&#45;&gt;Node11 -->
<g id="edge14" class="edge">
<title>Node1&#45;&gt;Node11</title>
<path fill="none" stroke="midnightblue" d="M252.24,-168.4C258.57,-159.84 266.68,-148.87 273.35,-139.86"/>
<polygon fill="midnightblue" stroke="midnightblue" points="276.28,-141.78 279.41,-131.66 270.65,-137.62 276.28,-141.78"/>
</g>
<!-- Node12 -->
<g id="node12" class="node">
<title>Node12</title>
<g id="a_node12"><a xlink:href="utils_8h.html" target="_top" xlink:title=" ">
<polygon fill="none" stroke="black" points="507.81,-56.5 507.81,-75.5 549.81,-75.5 549.81,-56.5 507.81,-56.5"/>
<text text-anchor="middle" x="528.81" y="-63.5" font-family="Helvetica,sans-Serif" font-size="10.00">utils.h</text>
</a>
</g>
</g>
<!-- Node1&#45;&gt;Node12 -->
<g id="edge28" class="edge">
<title>Node1&#45;&gt;Node12</title>
<path fill="none" stroke="midnightblue" d="M279.49,-168.45C305.96,-158.49 342.15,-144.69 373.81,-132 417.8,-114.37 468.37,-92.94 499.45,-79.64"/>
<polygon fill="midnightblue" stroke="midnightblue" points="501.02,-82.77 508.83,-75.62 498.26,-76.34 501.02,-82.77"/>
</g>
<!-- Node9&#45;&gt;Node2 -->
<g id="edge9" class="edge">
<title>Node9&#45;&gt;Node2</title>
<path fill="none" stroke="midnightblue" d="M355.56,-56.44C325.56,-47.02 277.28,-31.87 244.82,-21.68"/>
<polygon fill="midnightblue" stroke="midnightblue" points="245.47,-18.21 234.89,-18.56 243.38,-24.89 245.47,-18.21"/>
</g>
<!-- Node9&#45;&gt;Node3 -->
<g id="edge10" class="edge">
<title>Node9&#45;&gt;Node3</title>
<path fill="none" stroke="midnightblue" d="M400.72,-56.44C419.07,-47.68 447.82,-33.94 468.91,-23.86"/>
<polygon fill="midnightblue" stroke="midnightblue" points="470.48,-26.99 477.99,-19.52 467.46,-20.67 470.48,-26.99"/>
</g>
<!-- Node9&#45;&gt;Node6 -->
<g id="edge13" class="edge">
<title>Node9&#45;&gt;Node6</title>
<path fill="none" stroke="midnightblue" d="M417.04,-56.44C455.75,-46.77 518.68,-31.03 559.41,-20.85"/>
<polygon fill="midnightblue" stroke="midnightblue" points="560.41,-24.21 569.26,-18.39 558.71,-17.42 560.41,-24.21"/>
</g>
<!-- Node9&#45;&gt;Node7 -->
<g id="edge12" class="edge">
<title>Node9&#45;&gt;Node7</title>
<path fill="none" stroke="midnightblue" d="M368.99,-56.32C355.58,-47.9 334.99,-34.97 319.23,-25.07"/>
<polygon fill="midnightblue" stroke="midnightblue" points="320.92,-22.01 310.59,-19.65 317.2,-27.94 320.92,-22.01"/>
</g>
<!-- Node10 -->
<g id="node10" class="node">
<title>Node10</title>
<g id="a_node10"><a xlink:title=" ">
<polygon fill="none" stroke="#bfbfbf" points="357.31,-0.5 357.31,-19.5 402.31,-19.5 402.31,-0.5 357.31,-0.5"/>
<text text-anchor="middle" x="379.81" y="-7.5" font-family="Helvetica,sans-Serif" font-size="10.00">stdio.h</text>
</a>
</g>
</g>
<!-- Node9&#45;&gt;Node10 -->
<g id="edge11" class="edge">
<title>Node9&#45;&gt;Node10</title>
<path fill="none" stroke="midnightblue" d="M382.32,-56.08C381.92,-49.01 381.36,-38.86 380.87,-29.99"/>
<polygon fill="midnightblue" stroke="midnightblue" points="384.35,-29.54 380.3,-19.75 377.36,-29.93 384.35,-29.54"/>
</g>
<!-- Node11&#45;&gt;Node2 -->
<g id="edge15" class="edge">
<title>Node11&#45;&gt;Node2</title>
<path fill="none" stroke="midnightblue" d="M279.93,-112.37C267.55,-94.22 238.63,-51.8 222.4,-27.99"/>
<polygon fill="midnightblue" stroke="midnightblue" points="225.19,-25.88 216.67,-19.59 219.41,-29.83 225.19,-25.88"/>
</g>
<!-- Node11&#45;&gt;Node3 -->
<g id="edge16" class="edge">
<title>Node11&#45;&gt;Node3</title>
<path fill="none" stroke="midnightblue" d="M344.61,-117.74C381.32,-113.03 427.71,-101.91 460.81,-76 475.92,-64.17 485.32,-43.96 490.53,-29.2"/>
<polygon fill="midnightblue" stroke="midnightblue" points="493.88,-30.22 493.6,-19.63 487.22,-28.08 493.88,-30.22"/>
</g>
<!-- Node11&#45;&gt;Node4 -->
<g id="edge18" class="edge">
<title>Node11&#45;&gt;Node4</title>
<path fill="none" stroke="midnightblue" d="M252.27,-112.48C219.36,-104.08 167.49,-90.72 113.59,-76.17"/>
<polygon fill="midnightblue" stroke="midnightblue" points="114.44,-72.78 103.87,-73.54 112.61,-79.53 114.44,-72.78"/>
</g>
<!-- Node11&#45;&gt;Node6 -->
<g id="edge20" class="edge">
<title>Node11&#45;&gt;Node6</title>
<path fill="none" stroke="midnightblue" d="M344.53,-117.01C414.04,-111.32 524.66,-98.93 558.81,-76 575.28,-64.95 586.16,-44.6 592.36,-29.6"/>
<polygon fill="midnightblue" stroke="midnightblue" points="595.79,-30.43 596.06,-19.84 589.25,-27.95 595.79,-30.43"/>
</g>
<!-- Node11&#45;&gt;Node7 -->
<g id="edge19" class="edge">
<title>Node11&#45;&gt;Node7</title>
<path fill="none" stroke="midnightblue" d="M281.27,-112.11C275.44,-99.55 266.66,-75.89 271.81,-56 274.36,-46.18 279.56,-36.21 284.57,-28.17"/>
<polygon fill="midnightblue" stroke="midnightblue" points="287.56,-29.99 290.18,-19.73 281.73,-26.11 287.56,-29.99"/>
</g>
<!-- Node11&#45;&gt;Node8 -->
<g id="edge27" class="edge">
<title>Node11&#45;&gt;Node8</title>
<path fill="none" stroke="midnightblue" d="M264.58,-112.44C242.43,-103.52 207.49,-89.44 182.38,-79.32"/>
<polygon fill="midnightblue" stroke="midnightblue" points="183.53,-76.01 172.94,-75.52 180.91,-82.5 183.53,-76.01"/>
</g>
<!-- Node11&#45;&gt;Node9 -->
<g id="edge21" class="edge">
<title>Node11&#45;&gt;Node9</title>
<path fill="none" stroke="midnightblue" d="M301.4,-112.32C316.81,-103.74 340.62,-90.49 358.52,-80.52"/>
<polygon fill="midnightblue" stroke="midnightblue" points="360.23,-83.58 367.27,-75.65 356.83,-77.46 360.23,-83.58"/>
</g>
<!-- Node11&#45;&gt;Node10 -->
<g id="edge17" class="edge">
<title>Node11&#45;&gt;Node10</title>
<path fill="none" stroke="midnightblue" d="M286.55,-112.1C288.07,-98.66 292.61,-72.96 305.81,-56 316.65,-42.08 333.09,-31.47 347.73,-24.06"/>
<polygon fill="midnightblue" stroke="midnightblue" points="349.48,-27.1 357.01,-19.65 346.47,-20.78 349.48,-27.1"/>
</g>
<!-- Node11&#45;&gt;Node12 -->
<g id="edge22" class="edge">
<title>Node11&#45;&gt;Node12</title>
<path fill="none" stroke="midnightblue" d="M327.75,-112.42C369.84,-103.7 436.47,-89.57 493.81,-76 495.08,-75.7 496.38,-75.39 497.69,-75.07"/>
<polygon fill="midnightblue" stroke="midnightblue" points="498.89,-78.38 507.74,-72.56 497.19,-71.58 498.89,-78.38"/>
</g>
<!-- Node12&#45;&gt;Node2 -->
<g id="edge24" class="edge">
<title>Node12&#45;&gt;Node2</title>
<path fill="none" stroke="midnightblue" d="M507.47,-62.24C460.26,-55.99 343.47,-39.76 246.81,-20 246.22,-19.88 245.62,-19.75 245.02,-19.63"/>
<polygon fill="midnightblue" stroke="midnightblue" points="245.67,-16.19 235.15,-17.39 244.12,-23.01 245.67,-16.19"/>
</g>
<!-- Node12&#45;&gt;Node3 -->
<g id="edge23" class="edge">
<title>Node12&#45;&gt;Node3</title>
<path fill="none" stroke="midnightblue" d="M523.36,-56.08C518.8,-48.61 512.14,-37.72 506.52,-28.52"/>
<polygon fill="midnightblue" stroke="midnightblue" points="509.36,-26.46 501.16,-19.75 503.39,-30.11 509.36,-26.46"/>
</g>
<!-- Node12&#45;&gt;Node6 -->
<g id="edge25" class="edge">
<title>Node12&#45;&gt;Node6</title>
<path fill="none" stroke="midnightblue" d="M540.06,-56.32C550.61,-48.18 566.61,-35.84 579.25,-26.09"/>
<polygon fill="midnightblue" stroke="midnightblue" points="581.58,-28.71 587.36,-19.83 577.3,-23.17 581.58,-28.71"/>
</g>
<!-- Node12&#45;&gt;Node7 -->
<g id="edge26" class="edge">
<title>Node12&#45;&gt;Node7</title>
<path fill="none" stroke="midnightblue" d="M507.4,-60.02C470.36,-51.39 393.49,-33.5 343.58,-21.89"/>
<polygon fill="midnightblue" stroke="midnightblue" points="344.2,-18.44 333.67,-19.58 342.61,-25.25 344.2,-18.44"/>
</g>
</g>
</svg>
