<?xml version="1.0" encoding="UTF-8" standalone="no"?>
<!DOCTYPE svg PUBLIC "-//W3C//DTD SVG 1.1//EN"
 "http://www.w3.org/Graphics/SVG/1.1/DTD/svg11.dtd">
<!-- Generated by graphviz version 2.43.0 (0)
 -->
<!-- Title: src/WillyWeather/tide.c Pages: 1 -->
<svg width="1157pt" height="412pt"
 viewBox="0.00 0.00 1157.00 412.00" xmlns="http://www.w3.org/2000/svg" xmlns:xlink="http://www.w3.org/1999/xlink">
<g id="graph0" class="graph" transform="scale(1 1) rotate(0) translate(4 408)">
<title>src/WillyWeather/tide.c</title>
<!-- Node1 -->
<g id="node1" class="node">
<title>Node1</title>
<g id="a_node1"><a xlink:title=" ">
<polygon fill="#999999" stroke="#666666" points="661.5,-404 532.5,-404 532.5,-385 661.5,-385 661.5,-404"/>
<text text-anchor="middle" x="597" y="-392" font-family="Helvetica,sans-Serif" font-size="10.00">src/WillyWeather/tide.c</text>
</a>
</g>
</g>
<!-- Node2 -->
<g id="node2" class="node">
<title>Node2</title>
<g id="a_node2"><a xlink:href="tide_8h.html" target="_top" xlink:title=" ">
<polygon fill="white" stroke="#666666" points="653.5,-349 540.5,-349 540.5,-330 653.5,-330 653.5,-349"/>
<text text-anchor="middle" x="597" y="-337" font-family="Helvetica,sans-Serif" font-size="10.00">WillyWeather/tide.h</text>
</a>
</g>
</g>
<!-- Node1&#45;&gt;Node2 -->
<g id="edge1" class="edge">
<title>Node1&#45;&gt;Node2</title>
<path fill="none" stroke="#63b8ff" d="M597,-384.75C597,-377.8 597,-367.85 597,-359.13"/>
<polygon fill="#63b8ff" stroke="#63b8ff" points="600.5,-359.09 597,-349.09 593.5,-359.09 600.5,-359.09"/>
</g>
<!-- Node3 -->
<g id="node3" class="node">
<title>Node3</title>
<g id="a_node3"><a xlink:title=" ">
<polygon fill="#e0e0e0" stroke="#999999" points="174.5,-74 121.5,-74 121.5,-55 174.5,-55 174.5,-74"/>
<text text-anchor="middle" x="148" y="-62" font-family="Helvetica,sans-Serif" font-size="10.00">string.h</text>
</a>
</g>
</g>
<!-- Node2&#45;&gt;Node3 -->
<g id="edge2" class="edge">
<title>Node2&#45;&gt;Node3</title>
<path fill="none" stroke="#63b8ff" d="M540.47,-334.66C467.22,-328.88 344.23,-316.18 305,-294 222.03,-247.09 213.62,-212.69 168,-129 160.3,-114.87 155.06,-97.33 151.88,-84.27"/>
<polygon fill="#63b8ff" stroke="#63b8ff" points="155.21,-83.13 149.61,-74.14 148.38,-84.66 155.21,-83.13"/>
</g>
<!-- Node4 -->
<g id="node4" class="node">
<title>Node4</title>
<g id="a_node4"><a xlink:title=" ">
<polygon fill="#e0e0e0" stroke="#999999" points="102.5,-74 49.5,-74 49.5,-55 102.5,-55 102.5,-74"/>
<text text-anchor="middle" x="76" y="-62" font-family="Helvetica,sans-Serif" font-size="10.00">stdlib.h</text>
</a>
</g>
</g>
<!-- Node2&#45;&gt;Node4 -->
<g id="edge3" class="edge">
<title>Node2&#45;&gt;Node4</title>
<path fill="none" stroke="#63b8ff" d="M540.3,-334.18C391.28,-322.07 0,-285.07 0,-230.5 0,-230.5 0,-230.5 0,-173.5 0,-134.47 33.61,-99.58 56.13,-80.6"/>
<polygon fill="#63b8ff" stroke="#63b8ff" points="58.56,-83.14 64.12,-74.12 54.15,-77.7 58.56,-83.14"/>
</g>
<!-- Node5 -->
<g id="node5" class="node">
<title>Node5</title>
<g id="a_node5"><a xlink:title=" ">
<polygon fill="#e0e0e0" stroke="#999999" points="958.5,-74 907.5,-74 907.5,-55 958.5,-55 958.5,-74"/>
<text text-anchor="middle" x="933" y="-62" font-family="Helvetica,sans-Serif" font-size="10.00">math.h</text>
</a>
</g>
</g>
<!-- Node2&#45;&gt;Node5 -->
<g id="edge4" class="edge">
<title>Node2&#45;&gt;Node5</title>
<path fill="none" stroke="#63b8ff" d="M653.55,-332.95C753.06,-321.62 949,-291.55 949,-230.5 949,-230.5 949,-230.5 949,-173.5 949,-141.85 942.19,-105.54 937.46,-84.11"/>
<polygon fill="#63b8ff" stroke="#63b8ff" points="940.81,-83.08 935.16,-74.12 933.99,-84.65 940.81,-83.08"/>
</g>
<!-- Node6 -->
<g id="node6" class="node">
<title>Node6</title>
<g id="a_node6"><a xlink:title=" ">
<polygon fill="#e0e0e0" stroke="#999999" points="694,-19 646,-19 646,0 694,0 694,-19"/>
<text text-anchor="middle" x="670" y="-7" font-family="Helvetica,sans-Serif" font-size="10.00">time.h</text>
</a>
</g>
</g>
<!-- Node2&#45;&gt;Node6 -->
<g id="edge5" class="edge">
<title>Node2&#45;&gt;Node6</title>
<path fill="none" stroke="#63b8ff" d="M653.71,-334.63C761.87,-325.67 987,-298.82 987,-230.5 987,-230.5 987,-230.5 987,-118.5 987,-89.04 990.26,-74.29 968,-55 929.09,-21.27 773.75,-13.1 704.1,-11.13"/>
<polygon fill="#63b8ff" stroke="#63b8ff" points="704.16,-7.63 694.08,-10.87 703.98,-14.63 704.16,-7.63"/>
</g>
<!-- Node7 -->
<g id="node7" class="node">
<title>Node7</title>
<g id="a_node7"><a xlink:title=" ">
<polygon fill="#e0e0e0" stroke="#999999" points="749.5,-74 684.5,-74 684.5,-55 749.5,-55 749.5,-74"/>
<text text-anchor="middle" x="717" y="-62" font-family="Helvetica,sans-Serif" font-size="10.00">curl/curl.h</text>
</a>
</g>
</g>
<!-- Node2&#45;&gt;Node7 -->
<g id="edge6" class="edge">
<title>Node2&#45;&gt;Node7</title>
<path fill="none" stroke="#63b8ff" d="M653.51,-332.18C712.65,-322.05 797,-296.1 797,-230.5 797,-230.5 797,-230.5 797,-173.5 797,-133.81 761.68,-99.18 737.97,-80.41"/>
<polygon fill="#63b8ff" stroke="#63b8ff" points="739.93,-77.5 729.85,-74.23 735.69,-83.07 739.93,-77.5"/>
</g>
<!-- Node8 -->
<g id="node8" class="node">
<title>Node8</title>
<g id="a_node8"><a xlink:title=" ">
<polygon fill="#e0e0e0" stroke="#999999" points="850.5,-74 767.5,-74 767.5,-55 850.5,-55 850.5,-74"/>
<text text-anchor="middle" x="809" y="-62" font-family="Helvetica,sans-Serif" font-size="10.00">cjson/cJSON.h</text>
</a>
</g>
</g>
<!-- Node2&#45;&gt;Node8 -->
<g id="edge7" class="edge">
<title>Node2&#45;&gt;Node8</title>
<path fill="none" stroke="#63b8ff" d="M653.7,-336.73C724.1,-331.16 835,-309.79 835,-230.5 835,-230.5 835,-230.5 835,-173.5 835,-141.15 823.83,-104.82 816.14,-83.62"/>
<polygon fill="#63b8ff" stroke="#63b8ff" points="819.32,-82.13 812.51,-74.01 812.77,-84.6 819.32,-82.13"/>
</g>
<!-- Node9 -->
<g id="node9" class="node">
<title>Node9</title>
<g id="a_node9"><a xlink:href="log_8h.html" target="_top" xlink:title=" ">
<polygon fill="white" stroke="#666666" points="233.5,-74 192.5,-74 192.5,-55 233.5,-55 233.5,-74"/>
<text text-anchor="middle" x="213" y="-62" font-family="Helvetica,sans-Serif" font-size="10.00">log.h</text>
</a>
</g>
</g>
<!-- Node2&#45;&gt;Node9 -->
<g id="edge8" class="edge">
<title>Node2&#45;&gt;Node9</title>
<path fill="none" stroke="#63b8ff" d="M540.28,-337.68C485.72,-334.9 402.13,-325.27 337,-294 253.55,-253.94 224.22,-131.41 215.86,-84.26"/>
<polygon fill="#63b8ff" stroke="#63b8ff" points="219.29,-83.52 214.2,-74.23 212.38,-84.66 219.29,-83.52"/>
</g>
<!-- Node13 -->
<g id="node13" class="node">
<title>Node13</title>
<g id="a_node13"><a xlink:href="_willy_weather_2authenticate_8h.html" target="_top" xlink:title=" ">
<polygon fill="white" stroke="#666666" points="447.5,-239 292.5,-239 292.5,-220 447.5,-220 447.5,-239"/>
<text text-anchor="middle" x="370" y="-227" font-family="Helvetica,sans-Serif" font-size="10.00">WillyWeather/authenticate.h</text>
</a>
</g>
</g>
<!-- Node2&#45;&gt;Node13 -->
<g id="edge13" class="edge">
<title>Node2&#45;&gt;Node13</title>
<path fill="none" stroke="#63b8ff" d="M568.75,-329.92C543.61,-321.89 506.11,-308.91 475,-294 444.54,-279.41 411.54,-258.53 390.82,-244.76"/>
<polygon fill="#63b8ff" stroke="#63b8ff" points="392.74,-241.82 382.48,-239.15 388.83,-247.63 392.74,-241.82"/>
</g>
<!-- Node14 -->
<g id="node14" class="node">
<title>Node14</title>
<g id="a_node14"><a xlink:href="http_8h.html" target="_top" xlink:title=" ">
<polygon fill="white" stroke="#666666" points="392.5,-184 347.5,-184 347.5,-165 392.5,-165 392.5,-184"/>
<text text-anchor="middle" x="370" y="-172" font-family="Helvetica,sans-Serif" font-size="10.00">http.h</text>
</a>
</g>
</g>
<!-- Node2&#45;&gt;Node14 -->
<g id="edge48" class="edge">
<title>Node2&#45;&gt;Node14</title>
<path fill="none" stroke="#63b8ff" d="M546.29,-329.99C465.54,-315.28 313.68,-282.44 283,-239 265.28,-213.92 306.1,-194.88 337.64,-184.46"/>
<polygon fill="#63b8ff" stroke="#63b8ff" points="338.98,-187.71 347.47,-181.38 336.88,-181.03 338.98,-187.71"/>
</g>
<!-- Node15 -->
<g id="node15" class="node">
<title>Node15</title>
<g id="a_node15"><a xlink:href="utils_8h.html" target="_top" xlink:title=" ">
<polygon fill="white" stroke="#666666" points="538.5,-129 491.5,-129 491.5,-110 538.5,-110 538.5,-129"/>
<text text-anchor="middle" x="515" y="-117" font-family="Helvetica,sans-Serif" font-size="10.00">utils.h</text>
</a>
</g>
</g>
<!-- Node2&#45;&gt;Node15 -->
<g id="edge49" class="edge">
<title>Node2&#45;&gt;Node15</title>
<path fill="none" stroke="#63b8ff" d="M605.64,-329.72C616.38,-317.7 632.54,-295.3 626,-275 607.29,-216.88 557.71,-162.13 531.61,-136.19"/>
<polygon fill="#63b8ff" stroke="#63b8ff" points="533.93,-133.56 524.32,-129.1 529.05,-138.58 533.93,-133.56"/>
</g>
<!-- Node21 -->
<g id="node21" class="node">
<title>Node21</title>
<g id="a_node21"><a xlink:href="location_8h.html" target="_top" xlink:title=" ">
<polygon fill="white" stroke="#666666" points="616.5,-294 483.5,-294 483.5,-275 616.5,-275 616.5,-294"/>
<text text-anchor="middle" x="550" y="-282" font-family="Helvetica,sans-Serif" font-size="10.00">WillyWeather/location.h</text>
</a>
</g>
</g>
<!-- Node2&#45;&gt;Node21 -->
<g id="edge36" class="edge">
<title>Node2&#45;&gt;Node21</title>
<path fill="none" stroke="#63b8ff" d="M589.24,-329.75C582.53,-322.18 572.66,-311.05 564.49,-301.84"/>
<polygon fill="#63b8ff" stroke="#63b8ff" points="566.87,-299.25 557.62,-294.09 561.63,-303.89 566.87,-299.25"/>
</g>
<!-- Node22 -->
<g id="node22" class="node">
<title>Node22</title>
<g id="a_node22"><a xlink:href="forecast_8h.html" target="_top" xlink:title=" ">
<polygon fill="white" stroke="#666666" points="1149,-294 1015,-294 1015,-275 1149,-275 1149,-294"/>
<text text-anchor="middle" x="1082" y="-282" font-family="Helvetica,sans-Serif" font-size="10.00">WillyWeather/forecast.h</text>
</a>
</g>
</g>
<!-- Node2&#45;&gt;Node22 -->
<g id="edge47" class="edge">
<title>Node2&#45;&gt;Node22</title>
<path fill="none" stroke="#63b8ff" d="M653.58,-332.32C740.47,-322.82 906.92,-304.63 1004.8,-293.94"/>
<polygon fill="#63b8ff" stroke="#63b8ff" points="1005.37,-297.4 1014.93,-292.83 1004.61,-290.44 1005.37,-297.4"/>
</g>
<!-- Node9&#45;&gt;Node6 -->
<g id="edge12" class="edge">
<title>Node9&#45;&gt;Node6</title>
<path fill="none" stroke="#63b8ff" d="M233.53,-60.88C247.01,-59.17 265.05,-56.91 281,-55 412.02,-39.32 568,-21.83 635.76,-14.29"/>
<polygon fill="#63b8ff" stroke="#63b8ff" points="636.31,-17.76 645.86,-13.17 635.54,-10.8 636.31,-17.76"/>
</g>
<!-- Node10 -->
<g id="node10" class="node">
<title>Node10</title>
<g id="a_node10"><a xlink:title=" ">
<polygon fill="#e0e0e0" stroke="#999999" points="312,-19 262,-19 262,0 312,0 312,-19"/>
<text text-anchor="middle" x="287" y="-7" font-family="Helvetica,sans-Serif" font-size="10.00">stdio.h</text>
</a>
</g>
</g>
<!-- Node9&#45;&gt;Node10 -->
<g id="edge9" class="edge">
<title>Node9&#45;&gt;Node10</title>
<path fill="none" stroke="#63b8ff" d="M224.89,-54.98C236.15,-46.92 253.29,-34.65 266.71,-25.03"/>
<polygon fill="#63b8ff" stroke="#63b8ff" points="268.8,-27.84 274.89,-19.17 264.73,-22.15 268.8,-27.84"/>
</g>
<!-- Node11 -->
<g id="node11" class="node">
<title>Node11</title>
<g id="a_node11"><a xlink:title=" ">
<polygon fill="#e0e0e0" stroke="#999999" points="164,-19 108,-19 108,0 164,0 164,-19"/>
<text text-anchor="middle" x="136" y="-7" font-family="Helvetica,sans-Serif" font-size="10.00">stdarg.h</text>
</a>
</g>
</g>
<!-- Node9&#45;&gt;Node11 -->
<g id="edge10" class="edge">
<title>Node9&#45;&gt;Node11</title>
<path fill="none" stroke="#63b8ff" d="M200.63,-54.98C188.91,-46.92 171.08,-34.65 157.11,-25.03"/>
<polygon fill="#63b8ff" stroke="#63b8ff" points="158.82,-21.96 148.6,-19.17 154.85,-27.72 158.82,-21.96"/>
</g>
<!-- Node12 -->
<g id="node12" class="node">
<title>Node12</title>
<g id="a_node12"><a xlink:title=" ">
<polygon fill="#e0e0e0" stroke="#999999" points="244,-19 182,-19 182,0 244,0 244,-19"/>
<text text-anchor="middle" x="213" y="-7" font-family="Helvetica,sans-Serif" font-size="10.00">stdbool.h</text>
</a>
</g>
</g>
<!-- Node9&#45;&gt;Node12 -->
<g id="edge11" class="edge">
<title>Node9&#45;&gt;Node12</title>
<path fill="none" stroke="#63b8ff" d="M213,-54.75C213,-47.8 213,-37.85 213,-29.13"/>
<polygon fill="#63b8ff" stroke="#63b8ff" points="216.5,-29.09 213,-19.09 209.5,-29.09 216.5,-29.09"/>
</g>
<!-- Node13&#45;&gt;Node3 -->
<g id="edge14" class="edge">
<title>Node13&#45;&gt;Node3</title>
<path fill="none" stroke="#63b8ff" d="M358.38,-219.97C322.5,-193.62 213.17,-113.35 167.93,-80.13"/>
<polygon fill="#63b8ff" stroke="#63b8ff" points="169.91,-77.24 159.78,-74.15 165.77,-82.89 169.91,-77.24"/>
</g>
<!-- Node13&#45;&gt;Node4 -->
<g id="edge15" class="edge">
<title>Node13&#45;&gt;Node4</title>
<path fill="none" stroke="#63b8ff" d="M352.76,-219.84C335.32,-211.01 307.63,-196.84 284,-184 216.33,-147.24 137.65,-101.61 99.35,-79.21"/>
<polygon fill="#63b8ff" stroke="#63b8ff" points="100.91,-76.07 90.51,-74.04 97.37,-82.11 100.91,-76.07"/>
</g>
<!-- Node13&#45;&gt;Node7 -->
<g id="edge18" class="edge">
<title>Node13&#45;&gt;Node7</title>
<path fill="none" stroke="#63b8ff" d="M388.54,-219.88C425.53,-202.67 511.17,-162.8 583,-129 619.93,-111.62 662.51,-91.42 689.58,-78.55"/>
<polygon fill="#63b8ff" stroke="#63b8ff" points="691.28,-81.61 698.81,-74.16 688.27,-75.29 691.28,-81.61"/>
</g>
<!-- Node13&#45;&gt;Node8 -->
<g id="edge17" class="edge">
<title>Node13&#45;&gt;Node8</title>
<path fill="none" stroke="#63b8ff" d="M395.79,-219.88C421.89,-211.09 463.38,-196.95 499,-184 601.68,-146.68 722.32,-99.63 777.99,-77.74"/>
<polygon fill="#63b8ff" stroke="#63b8ff" points="779.27,-81 787.29,-74.08 776.71,-74.49 779.27,-81"/>
</g>
<!-- Node13&#45;&gt;Node9 -->
<g id="edge19" class="edge">
<title>Node13&#45;&gt;Node9</title>
<path fill="none" stroke="#63b8ff" d="M364,-219.85C347.21,-195.77 299.68,-128.48 280,-110 267.26,-98.04 250.97,-87.14 237.64,-79.12"/>
<polygon fill="#63b8ff" stroke="#63b8ff" points="239.37,-76.08 228.97,-74.05 235.83,-82.12 239.37,-76.08"/>
</g>
<!-- Node13&#45;&gt;Node10 -->
<g id="edge16" class="edge">
<title>Node13&#45;&gt;Node10</title>
<path fill="none" stroke="#63b8ff" d="M379.84,-219.88C392.51,-207.68 411.81,-184.66 402,-165 371.95,-104.8 311.05,-134.2 281,-74 274.05,-60.07 276.54,-42.28 280.2,-29.08"/>
<polygon fill="#63b8ff" stroke="#63b8ff" points="283.64,-29.84 283.37,-19.25 276.97,-27.69 283.64,-29.84"/>
</g>
<!-- Node13&#45;&gt;Node14 -->
<g id="edge20" class="edge">
<title>Node13&#45;&gt;Node14</title>
<path fill="none" stroke="#63b8ff" d="M370,-219.75C370,-212.8 370,-202.85 370,-194.13"/>
<polygon fill="#63b8ff" stroke="#63b8ff" points="373.5,-194.09 370,-184.09 366.5,-194.09 373.5,-194.09"/>
</g>
<!-- Node14&#45;&gt;Node3 -->
<g id="edge22" class="edge">
<title>Node14&#45;&gt;Node3</title>
<path fill="none" stroke="#63b8ff" d="M359.83,-164.82C343.79,-151.48 311.2,-125.84 280,-110 249.22,-94.37 211.72,-82.33 184.56,-74.74"/>
<polygon fill="#63b8ff" stroke="#63b8ff" points="185.27,-71.31 174.7,-72.05 183.43,-78.06 185.27,-71.31"/>
</g>
<!-- Node14&#45;&gt;Node4 -->
<g id="edge21" class="edge">
<title>Node14&#45;&gt;Node4</title>
<path fill="none" stroke="#63b8ff" d="M347.42,-165.2C295.83,-146.26 169.17,-99.72 108.9,-77.58"/>
<polygon fill="#63b8ff" stroke="#63b8ff" points="110.07,-74.29 99.47,-74.12 107.65,-80.86 110.07,-74.29"/>
</g>
<!-- Node14&#45;&gt;Node7 -->
<g id="edge23" class="edge">
<title>Node14&#45;&gt;Node7</title>
<path fill="none" stroke="#63b8ff" d="M392.56,-169.15C426.7,-162.29 493.31,-147.76 548,-129 567.76,-122.22 571.58,-117.71 591,-110 621.08,-98.06 655.78,-85.92 681.15,-77.35"/>
<polygon fill="#63b8ff" stroke="#63b8ff" points="682.36,-80.63 690.72,-74.13 680.13,-74 682.36,-80.63"/>
</g>
<!-- Node14&#45;&gt;Node15 -->
<g id="edge24" class="edge">
<title>Node14&#45;&gt;Node15</title>
<path fill="none" stroke="#63b8ff" d="M392.66,-165.22C416.63,-156.45 454.71,-142.54 482.02,-132.56"/>
<polygon fill="#63b8ff" stroke="#63b8ff" points="483.35,-135.79 491.54,-129.07 480.95,-129.22 483.35,-135.79"/>
</g>
<!-- Node15&#45;&gt;Node3 -->
<g id="edge26" class="edge">
<title>Node15&#45;&gt;Node3</title>
<path fill="none" stroke="#63b8ff" d="M491.11,-116.17C437.84,-110.78 305.12,-96.35 184.81,-74.18"/>
<polygon fill="#63b8ff" stroke="#63b8ff" points="185.16,-70.68 174.69,-72.29 183.88,-77.56 185.16,-70.68"/>
</g>
<!-- Node15&#45;&gt;Node4 -->
<g id="edge25" class="edge">
<title>Node15&#45;&gt;Node4</title>
<path fill="none" stroke="#63b8ff" d="M491.24,-116.89C430.17,-112.55 262.65,-99.28 112.95,-73.94"/>
<polygon fill="#63b8ff" stroke="#63b8ff" points="113.11,-70.42 102.66,-72.18 111.93,-77.32 113.11,-70.42"/>
</g>
<!-- Node15&#45;&gt;Node5 -->
<g id="edge33" class="edge">
<title>Node15&#45;&gt;Node5</title>
<path fill="none" stroke="#63b8ff" d="M538.67,-115.5C608.56,-106.64 814.33,-80.55 897.51,-70"/>
<polygon fill="#63b8ff" stroke="#63b8ff" points="898.01,-73.47 907.49,-68.73 897.13,-66.52 898.01,-73.47"/>
</g>
<!-- Node15&#45;&gt;Node7 -->
<g id="edge27" class="edge">
<title>Node15&#45;&gt;Node7</title>
<path fill="none" stroke="#63b8ff" d="M538.57,-112.32C571.93,-103.56 633.46,-87.42 674.81,-76.57"/>
<polygon fill="#63b8ff" stroke="#63b8ff" points="675.82,-79.92 684.6,-74 674.04,-73.15 675.82,-79.92"/>
</g>
<!-- Node15&#45;&gt;Node8 -->
<g id="edge29" class="edge">
<title>Node15&#45;&gt;Node8</title>
<path fill="none" stroke="#63b8ff" d="M538.56,-114.25C585.84,-105.73 693.22,-86.37 757.54,-74.78"/>
<polygon fill="#63b8ff" stroke="#63b8ff" points="758.26,-78.2 767.48,-72.99 757.02,-71.31 758.26,-78.2"/>
</g>
<!-- Node15&#45;&gt;Node9 -->
<g id="edge34" class="edge">
<title>Node15&#45;&gt;Node9</title>
<path fill="none" stroke="#63b8ff" d="M491.32,-113C486.59,-111.96 481.64,-110.91 477,-110 392.86,-93.51 292.9,-77.68 243.61,-70.12"/>
<polygon fill="#63b8ff" stroke="#63b8ff" points="244.02,-66.64 233.61,-68.59 242.96,-73.56 244.02,-66.64"/>
</g>
<!-- Node16 -->
<g id="node16" class="node">
<title>Node16</title>
<g id="a_node16"><a xlink:title=" ">
<polygon fill="#e0e0e0" stroke="#999999" points="343.5,-74 290.5,-74 290.5,-55 343.5,-55 343.5,-74"/>
<text text-anchor="middle" x="317" y="-62" font-family="Helvetica,sans-Serif" font-size="10.00">stdint.h</text>
</a>
</g>
</g>
<!-- Node15&#45;&gt;Node16 -->
<g id="edge28" class="edge">
<title>Node15&#45;&gt;Node16</title>
<path fill="none" stroke="#63b8ff" d="M491.12,-112.11C456.89,-102.94 393.59,-86 353.48,-75.26"/>
<polygon fill="#63b8ff" stroke="#63b8ff" points="354.38,-71.88 343.81,-72.68 352.57,-78.64 354.38,-71.88"/>
</g>
<!-- Node17 -->
<g id="node17" class="node">
<title>Node17</title>
<g id="a_node17"><a xlink:title=" ">
<polygon fill="#e0e0e0" stroke="#999999" points="426,-74 362,-74 362,-55 426,-55 426,-74"/>
<text text-anchor="middle" x="394" y="-62" font-family="Helvetica,sans-Serif" font-size="10.00">sys/stat.h</text>
</a>
</g>
</g>
<!-- Node15&#45;&gt;Node17 -->
<g id="edge30" class="edge">
<title>Node15&#45;&gt;Node17</title>
<path fill="none" stroke="#63b8ff" d="M495.56,-109.98C476.01,-101.42 445.62,-88.11 423.18,-78.28"/>
<polygon fill="#63b8ff" stroke="#63b8ff" points="424.36,-74.98 413.79,-74.17 421.55,-81.39 424.36,-74.98"/>
</g>
<!-- Node18 -->
<g id="node18" class="node">
<title>Node18</title>
<g id="a_node18"><a xlink:title=" ">
<polygon fill="#e0e0e0" stroke="#999999" points="516,-74 444,-74 444,-55 516,-55 516,-74"/>
<text text-anchor="middle" x="480" y="-62" font-family="Helvetica,sans-Serif" font-size="10.00">sys/types.h</text>
</a>
</g>
</g>
<!-- Node15&#45;&gt;Node18 -->
<g id="edge31" class="edge">
<title>Node15&#45;&gt;Node18</title>
<path fill="none" stroke="#63b8ff" d="M509.22,-109.75C504.38,-102.42 497.32,-91.73 491.36,-82.7"/>
<polygon fill="#63b8ff" stroke="#63b8ff" points="494.1,-80.5 485.67,-74.09 488.26,-84.36 494.1,-80.5"/>
</g>
<!-- Node19 -->
<g id="node19" class="node">
<title>Node19</title>
<g id="a_node19"><a xlink:title=" ">
<polygon fill="#e0e0e0" stroke="#999999" points="585.5,-74 534.5,-74 534.5,-55 585.5,-55 585.5,-74"/>
<text text-anchor="middle" x="560" y="-62" font-family="Helvetica,sans-Serif" font-size="10.00">errno.h</text>
</a>
</g>
</g>
<!-- Node15&#45;&gt;Node19 -->
<g id="edge32" class="edge">
<title>Node15&#45;&gt;Node19</title>
<path fill="none" stroke="#63b8ff" d="M522.43,-109.75C528.85,-102.18 538.31,-91.05 546.12,-81.84"/>
<polygon fill="#63b8ff" stroke="#63b8ff" points="548.9,-83.98 552.71,-74.09 543.57,-79.45 548.9,-83.98"/>
</g>
<!-- Node20 -->
<g id="node20" class="node">
<title>Node20</title>
<g id="a_node20"><a xlink:title=" ">
<polygon fill="#e0e0e0" stroke="#999999" points="666.5,-74 603.5,-74 603.5,-55 666.5,-55 666.5,-74"/>
<text text-anchor="middle" x="635" y="-62" font-family="Helvetica,sans-Serif" font-size="10.00">libpq&#45;fe.h</text>
</a>
</g>
</g>
<!-- Node15&#45;&gt;Node20 -->
<g id="edge35" class="edge">
<title>Node15&#45;&gt;Node20</title>
<path fill="none" stroke="#63b8ff" d="M534.28,-109.98C553.67,-101.42 583.81,-88.11 606.07,-78.28"/>
<polygon fill="#63b8ff" stroke="#63b8ff" points="607.64,-81.41 615.37,-74.17 604.81,-75.01 607.64,-81.41"/>
</g>
<!-- Node21&#45;&gt;Node3 -->
<g id="edge37" class="edge">
<title>Node21&#45;&gt;Node3</title>
<path fill="none" stroke="#63b8ff" d="M483.23,-277.94C415.45,-271.32 315.95,-258.63 283,-239 218.84,-200.77 173.89,-119.61 156.27,-83.49"/>
<polygon fill="#63b8ff" stroke="#63b8ff" points="159.3,-81.73 151.85,-74.19 152.98,-84.73 159.3,-81.73"/>
</g>
<!-- Node21&#45;&gt;Node4 -->
<g id="edge38" class="edge">
<title>Node21&#45;&gt;Node4</title>
<path fill="none" stroke="#63b8ff" d="M483.21,-278.18C408.85,-271.44 293.99,-258.31 255,-239 178.45,-201.1 113.54,-118.51 87.82,-82.67"/>
<polygon fill="#63b8ff" stroke="#63b8ff" points="90.51,-80.41 81.89,-74.25 84.79,-84.44 90.51,-80.41"/>
</g>
<!-- Node21&#45;&gt;Node5 -->
<g id="edge40" class="edge">
<title>Node21&#45;&gt;Node5</title>
<path fill="none" stroke="#63b8ff" d="M616.75,-283.04C693.32,-278.72 817.25,-259.51 887,-184 913.49,-155.32 925.34,-109.69 930.13,-84.23"/>
<polygon fill="#63b8ff" stroke="#63b8ff" points="933.63,-84.53 931.86,-74.09 926.73,-83.36 933.63,-84.53"/>
</g>
<!-- Node21&#45;&gt;Node7 -->
<g id="edge42" class="edge">
<title>Node21&#45;&gt;Node7</title>
<path fill="none" stroke="#63b8ff" d="M556.55,-274.95C581.43,-242.47 670.43,-126.29 704.03,-82.43"/>
<polygon fill="#63b8ff" stroke="#63b8ff" points="707.01,-84.29 710.32,-74.22 701.46,-80.03 707.01,-84.29"/>
</g>
<!-- Node21&#45;&gt;Node8 -->
<g id="edge41" class="edge">
<title>Node21&#45;&gt;Node8</title>
<path fill="none" stroke="#63b8ff" d="M561.25,-274.75C572.63,-265.86 590.67,-251.64 606,-239 675.26,-181.92 755.86,-111.95 791.04,-81.23"/>
<polygon fill="#63b8ff" stroke="#63b8ff" points="793.74,-83.51 798.97,-74.29 789.14,-78.24 793.74,-83.51"/>
</g>
<!-- Node21&#45;&gt;Node9 -->
<g id="edge43" class="edge">
<title>Node21&#45;&gt;Node9</title>
<path fill="none" stroke="#63b8ff" d="M542.06,-274.75C530.25,-261.99 507.09,-237.84 485,-220 404.83,-155.24 294.05,-101.59 242.1,-78.17"/>
<polygon fill="#63b8ff" stroke="#63b8ff" points="243.37,-74.9 232.81,-74.02 240.51,-81.29 243.37,-74.9"/>
</g>
<!-- Node21&#45;&gt;Node10 -->
<g id="edge39" class="edge">
<title>Node21&#45;&gt;Node10</title>
<path fill="none" stroke="#63b8ff" d="M582.17,-274.98C679.19,-247.88 956.5,-159.28 860,-55 841.66,-35.18 444.64,-17.06 322.46,-11.94"/>
<polygon fill="#63b8ff" stroke="#63b8ff" points="322.3,-8.43 312.17,-11.51 322.01,-15.42 322.3,-8.43"/>
</g>
<!-- Node21&#45;&gt;Node13 -->
<g id="edge44" class="edge">
<title>Node21&#45;&gt;Node13</title>
<path fill="none" stroke="#63b8ff" d="M521.08,-274.98C490.73,-266.05 442.83,-251.94 409.12,-242.02"/>
<polygon fill="#63b8ff" stroke="#63b8ff" points="409.73,-238.55 399.15,-239.08 407.75,-245.26 409.73,-238.55"/>
</g>
<!-- Node21&#45;&gt;Node14 -->
<g id="edge45" class="edge">
<title>Node21&#45;&gt;Node14</title>
<path fill="none" stroke="#63b8ff" d="M538.56,-275C521.32,-262.33 487.42,-238.07 457,-220 437.55,-208.45 414.77,-196.86 397.39,-188.41"/>
<polygon fill="#63b8ff" stroke="#63b8ff" points="398.88,-185.24 388.35,-184.05 395.85,-191.55 398.88,-185.24"/>
</g>
<!-- Node21&#45;&gt;Node15 -->
<g id="edge46" class="edge">
<title>Node21&#45;&gt;Node15</title>
<path fill="none" stroke="#63b8ff" d="M548.12,-274.74C542.63,-249.2 526.58,-174.43 519.02,-139.23"/>
<polygon fill="#63b8ff" stroke="#63b8ff" points="522.41,-138.35 516.89,-129.31 515.57,-139.82 522.41,-138.35"/>
</g>
</g>
</svg>
