<?xml version="1.0" encoding="UTF-8" standalone="no"?>
<!DOCTYPE svg PUBLIC "-//W3C//DTD SVG 1.1//EN"
 "http://www.w3.org/Graphics/SVG/1.1/DTD/svg11.dtd">
<!-- Generated by graphviz version 2.49.3 (20211027.1534)
 -->
<!-- Title: include/WillyWeather/tide.h Pages: 1 -->
<svg width="708pt" height="207pt"
 viewBox="0.00 0.00 708.10 207.00" xmlns="http://www.w3.org/2000/svg" xmlns:xlink="http://www.w3.org/1999/xlink">
<g id="graph0" class="graph" transform="scale(1 1) rotate(0) translate(4 203)">
<title>include/WillyWeather/tide.h</title>
<!-- Node1 -->
<g id="node1" class="node">
<title>Node1</title>
<g id="a_node1"><a xlink:title=" ">
<polygon fill="#bfbfbf" stroke="black" points="238.1,-168.5 238.1,-198.5 345.1,-198.5 345.1,-168.5 238.1,-168.5"/>
<text text-anchor="start" x="246.1" y="-186.5" font-family="Helvetica,sans-Serif" font-size="10.00">include/WillyWeather</text>
<text text-anchor="middle" x="291.6" y="-175.5" font-family="Helvetica,sans-Serif" font-size="10.00">/tide.h</text>
</a>
</g>
</g>
<!-- Node2 -->
<g id="node2" class="node">
<title>Node2</title>
<g id="a_node2"><a xlink:title=" ">
<polygon fill="none" stroke="#bfbfbf" points="342.6,-0.5 342.6,-19.5 390.6,-19.5 390.6,-0.5 342.6,-0.5"/>
<text text-anchor="middle" x="366.6" y="-7.5" font-family="Helvetica,sans-Serif" font-size="10.00">string.h</text>
</a>
</g>
</g>
<!-- Node1&#45;&gt;Node2 -->
<g id="edge1" class="edge">
<title>Node1&#45;&gt;Node2</title>
<path fill="none" stroke="midnightblue" d="M345.16,-171.78C367.17,-164.46 390.52,-152.24 403.6,-132 425.15,-98.64 397.81,-52.05 379.88,-27.55"/>
<polygon fill="midnightblue" stroke="midnightblue" points="382.66,-25.42 373.81,-19.6 377.1,-29.67 382.66,-25.42"/>
</g>
<!-- Node3 -->
<g id="node3" class="node">
<title>Node3</title>
<g id="a_node3"><a xlink:title=" ">
<polygon fill="none" stroke="#bfbfbf" points="409.1,-0.5 409.1,-19.5 456.1,-19.5 456.1,-0.5 409.1,-0.5"/>
<text text-anchor="middle" x="432.6" y="-7.5" font-family="Helvetica,sans-Serif" font-size="10.00">stdlib.h</text>
</a>
</g>
</g>
<!-- Node1&#45;&gt;Node3 -->
<g id="edge2" class="edge">
<title>Node1&#45;&gt;Node3</title>
<path fill="none" stroke="midnightblue" d="M345.3,-179.68C408.57,-172.94 508.32,-150.43 533.6,-76 536.46,-67.58 538.44,-63.46 533.6,-56 525.72,-43.86 492.1,-30.42 465.79,-21.41"/>
<polygon fill="midnightblue" stroke="midnightblue" points="466.72,-18.03 456.13,-18.19 464.51,-24.67 466.72,-18.03"/>
</g>
<!-- Node4 -->
<g id="node4" class="node">
<title>Node4</title>
<g id="a_node4"><a xlink:title=" ">
<polygon fill="none" stroke="#bfbfbf" points="34.6,-56.5 34.6,-75.5 80.6,-75.5 80.6,-56.5 34.6,-56.5"/>
<text text-anchor="middle" x="57.6" y="-63.5" font-family="Helvetica,sans-Serif" font-size="10.00">math.h</text>
</a>
</g>
</g>
<!-- Node1&#45;&gt;Node4 -->
<g id="edge3" class="edge">
<title>Node1&#45;&gt;Node4</title>
<path fill="none" stroke="midnightblue" d="M253.59,-168.48C228.97,-159.01 196.43,-145.77 168.6,-132 136.73,-116.22 101.56,-94.92 79.52,-81.07"/>
<polygon fill="midnightblue" stroke="midnightblue" points="81.25,-78.03 70.93,-75.63 77.51,-83.94 81.25,-78.03"/>
</g>
<!-- Node5 -->
<g id="node5" class="node">
<title>Node5</title>
<g id="a_node5"><a xlink:title=" ">
<polygon fill="none" stroke="#bfbfbf" points="177.1,-112.5 177.1,-131.5 220.1,-131.5 220.1,-112.5 177.1,-112.5"/>
<text text-anchor="middle" x="198.6" y="-119.5" font-family="Helvetica,sans-Serif" font-size="10.00">time.h</text>
</a>
</g>
</g>
<!-- Node1&#45;&gt;Node5 -->
<g id="edge4" class="edge">
<title>Node1&#45;&gt;Node5</title>
<path fill="none" stroke="midnightblue" d="M269.56,-168.4C254.79,-158.95 235.42,-146.56 220.65,-137.11"/>
<polygon fill="midnightblue" stroke="midnightblue" points="222.44,-134.1 212.13,-131.66 218.67,-140 222.44,-134.1"/>
</g>
<!-- Node6 -->
<g id="node6" class="node">
<title>Node6</title>
<g id="a_node6"><a xlink:title=" ">
<polygon fill="none" stroke="#bfbfbf" points="261.1,-0.5 261.1,-19.5 320.1,-19.5 320.1,-0.5 261.1,-0.5"/>
<text text-anchor="middle" x="290.6" y="-7.5" font-family="Helvetica,sans-Serif" font-size="10.00">curl/curl.h</text>
</a>
</g>
</g>
<!-- Node1&#45;&gt;Node6 -->
<g id="edge5" class="edge">
<title>Node1&#45;&gt;Node6</title>
<path fill="none" stroke="midnightblue" d="M237.75,-176.72C142.98,-164.49 -37.86,-130.75 25.6,-56 57.52,-18.4 196.06,-28.74 244.6,-20 246.67,-19.63 248.78,-19.24 250.92,-18.84"/>
<polygon fill="midnightblue" stroke="midnightblue" points="251.76,-22.25 260.93,-16.94 250.46,-15.37 251.76,-22.25"/>
</g>
<!-- Node7 -->
<g id="node7" class="node">
<title>Node7</title>
<g id="a_node7"><a xlink:title=" ">
<polygon fill="none" stroke="#bfbfbf" points="72.1,-0.5 72.1,-19.5 155.1,-19.5 155.1,-0.5 72.1,-0.5"/>
<text text-anchor="middle" x="113.6" y="-7.5" font-family="Helvetica,sans-Serif" font-size="10.00">cjson/cJSON.h</text>
</a>
</g>
</g>
<!-- Node1&#45;&gt;Node7 -->
<g id="edge6" class="edge">
<title>Node1&#45;&gt;Node7</title>
<path fill="none" stroke="midnightblue" d="M237.91,-179.41C168.3,-174.27 52.29,-161.44 22.6,-132 -1.63,-107.97 -7.03,-84.59 11.6,-56 23.04,-38.45 43.03,-27.7 62.31,-21.13"/>
<polygon fill="midnightblue" stroke="midnightblue" points="63.45,-24.44 71.97,-18.15 61.38,-17.75 63.45,-24.44"/>
</g>
<!-- Node8 -->
<g id="node8" class="node">
<title>Node8</title>
<g id="a_node8"><a xlink:href="_willy_weather_2authenticate_8h.html" target="_top" xlink:title=" ">
<polygon fill="none" stroke="black" points="175.1,-56.5 175.1,-75.5 312.1,-75.5 312.1,-56.5 175.1,-56.5"/>
<text text-anchor="middle" x="243.6" y="-63.5" font-family="Helvetica,sans-Serif" font-size="10.00">WillyWeather/authenticate.h</text>
</a>
</g>
</g>
<!-- Node1&#45;&gt;Node8 -->
<g id="edge7" class="edge">
<title>Node1&#45;&gt;Node8</title>
<path fill="none" stroke="midnightblue" d="M284.93,-168.45C280.21,-158.37 273.82,-144.44 268.6,-132 262.1,-116.5 255.28,-98.66 250.41,-85.59"/>
<polygon fill="midnightblue" stroke="midnightblue" points="253.58,-84.07 246.83,-75.9 247.01,-86.49 253.58,-84.07"/>
</g>
<!-- Node10 -->
<g id="node10" class="node">
<title>Node10</title>
<g id="a_node10"><a xlink:href="location_8h.html" target="_top" xlink:title=" ">
<polygon fill="none" stroke="black" points="277.1,-112.5 277.1,-131.5 394.1,-131.5 394.1,-112.5 277.1,-112.5"/>
<text text-anchor="middle" x="335.6" y="-119.5" font-family="Helvetica,sans-Serif" font-size="10.00">WillyWeather/location.h</text>
</a>
</g>
</g>
<!-- Node1&#45;&gt;Node10 -->
<g id="edge13" class="edge">
<title>Node1&#45;&gt;Node10</title>
<path fill="none" stroke="midnightblue" d="M302.03,-168.4C308.36,-159.84 316.47,-148.87 323.14,-139.86"/>
<polygon fill="midnightblue" stroke="midnightblue" points="326.07,-141.78 329.2,-131.66 320.44,-137.62 326.07,-141.78"/>
</g>
<!-- Node11 -->
<g id="node11" class="node">
<title>Node11</title>
<g id="a_node11"><a xlink:href="utils_8h.html" target="_top" xlink:title=" ">
<polygon fill="none" stroke="black" points="482.6,-56.5 482.6,-75.5 524.6,-75.5 524.6,-56.5 482.6,-56.5"/>
<text text-anchor="middle" x="503.6" y="-63.5" font-family="Helvetica,sans-Serif" font-size="10.00">utils.h</text>
</a>
</g>
</g>
<!-- Node1&#45;&gt;Node11 -->
<g id="edge30" class="edge">
<title>Node1&#45;&gt;Node11</title>
<path fill="none" stroke="midnightblue" d="M345.41,-178.18C383.36,-172.69 433.49,-160.24 468.6,-132 483.55,-119.98 492.98,-99.79 498.24,-85.1"/>
<polygon fill="midnightblue" stroke="midnightblue" points="501.58,-86.16 501.35,-75.57 494.92,-83.99 501.58,-86.16"/>
</g>
<!-- Node15 -->
<g id="node15" class="node">
<title>Node15</title>
<g id="a_node15"><a xlink:href="forecast_8h.html" target="_top" xlink:title=" ">
<polygon fill="none" stroke="black" points="581.1,-112.5 581.1,-131.5 700.1,-131.5 700.1,-112.5 581.1,-112.5"/>
<text text-anchor="middle" x="640.6" y="-119.5" font-family="Helvetica,sans-Serif" font-size="10.00">WillyWeather/forecast.h</text>
</a>
</g>
</g>
<!-- Node1&#45;&gt;Node15 -->
<g id="edge29" class="edge">
<title>Node1&#45;&gt;Node15</title>
<path fill="none" stroke="midnightblue" d="M345.37,-173.33C409.02,-162.48 514.72,-144.46 580.87,-133.18"/>
<polygon fill="midnightblue" stroke="midnightblue" points="581.47,-136.63 590.73,-131.5 580.29,-129.73 581.47,-136.63"/>
</g>
<!-- Node8&#45;&gt;Node2 -->
<g id="edge8" class="edge">
<title>Node8&#45;&gt;Node2</title>
<path fill="none" stroke="midnightblue" d="M263.09,-56.44C283.24,-47.6 314.92,-33.69 337.93,-23.59"/>
<polygon fill="midnightblue" stroke="midnightblue" points="339.45,-26.74 347.2,-19.52 336.64,-20.33 339.45,-26.74"/>
</g>
<!-- Node8&#45;&gt;Node3 -->
<g id="edge9" class="edge">
<title>Node8&#45;&gt;Node3</title>
<path fill="none" stroke="midnightblue" d="M273.55,-56.44C307.75,-46.67 363.56,-30.73 399.15,-20.56"/>
<polygon fill="midnightblue" stroke="midnightblue" points="400.41,-23.84 409.06,-17.73 398.49,-17.11 400.41,-23.84"/>
</g>
<!-- Node8&#45;&gt;Node6 -->
<g id="edge12" class="edge">
<title>Node8&#45;&gt;Node6</title>
<path fill="none" stroke="midnightblue" d="M251.36,-56.08C258.14,-48.3 268.15,-36.8 276.36,-27.37"/>
<polygon fill="midnightblue" stroke="midnightblue" points="279.06,-29.59 282.99,-19.75 273.78,-25 279.06,-29.59"/>
</g>
<!-- Node8&#45;&gt;Node7 -->
<g id="edge11" class="edge">
<title>Node8&#45;&gt;Node7</title>
<path fill="none" stroke="midnightblue" d="M223,-56.44C201.61,-47.56 167.92,-33.56 143.58,-23.45"/>
<polygon fill="midnightblue" stroke="midnightblue" points="144.68,-20.12 134.1,-19.52 142,-26.58 144.68,-20.12"/>
</g>
<!-- Node9 -->
<g id="node9" class="node">
<title>Node9</title>
<g id="a_node9"><a xlink:title=" ">
<polygon fill="none" stroke="#bfbfbf" points="190.1,-0.5 190.1,-19.5 235.1,-19.5 235.1,-0.5 190.1,-0.5"/>
<text text-anchor="middle" x="212.6" y="-7.5" font-family="Helvetica,sans-Serif" font-size="10.00">stdio.h</text>
</a>
</g>
</g>
<!-- Node8&#45;&gt;Node9 -->
<g id="edge10" class="edge">
<title>Node8&#45;&gt;Node9</title>
<path fill="none" stroke="midnightblue" d="M238.48,-56.08C234.19,-48.61 227.94,-37.72 222.66,-28.52"/>
<polygon fill="midnightblue" stroke="midnightblue" points="225.64,-26.68 217.63,-19.75 219.57,-30.17 225.64,-26.68"/>
</g>
<!-- Node10&#45;&gt;Node2 -->
<g id="edge14" class="edge">
<title>Node10&#45;&gt;Node2</title>
<path fill="none" stroke="midnightblue" d="M339.97,-112.25C344.26,-103.33 350.71,-89 354.6,-76 359.19,-60.7 362.33,-42.81 364.25,-29.68"/>
<polygon fill="midnightblue" stroke="midnightblue" points="367.75,-29.93 365.62,-19.55 360.81,-28.99 367.75,-29.93"/>
</g>
<!-- Node10&#45;&gt;Node3 -->
<g id="edge15" class="edge">
<title>Node10&#45;&gt;Node3</title>
<path fill="none" stroke="midnightblue" d="M343.21,-112.37C359.36,-94.05 397.29,-51.05 418.17,-27.36"/>
<polygon fill="midnightblue" stroke="midnightblue" points="421.04,-29.41 425.03,-19.59 415.79,-24.78 421.04,-29.41"/>
</g>
<!-- Node10&#45;&gt;Node4 -->
<g id="edge17" class="edge">
<title>Node10&#45;&gt;Node4</title>
<path fill="none" stroke="midnightblue" d="M285.6,-112.47C236.74,-103.96 160.35,-90.12 94.6,-76 93.33,-75.73 92.03,-75.44 90.73,-75.15"/>
<polygon fill="midnightblue" stroke="midnightblue" points="91.18,-71.66 80.65,-72.81 89.6,-78.48 91.18,-71.66"/>
</g>
<!-- Node10&#45;&gt;Node6 -->
<g id="edge19" class="edge">
<title>Node10&#45;&gt;Node6</title>
<path fill="none" stroke="midnightblue" d="M334.81,-112.26C333.41,-99.46 329.84,-75.08 321.6,-56 317.24,-45.89 310.46,-35.71 304.36,-27.58"/>
<polygon fill="midnightblue" stroke="midnightblue" points="307.07,-25.38 298.14,-19.68 301.57,-29.71 307.07,-25.38"/>
</g>
<!-- Node10&#45;&gt;Node7 -->
<g id="edge18" class="edge">
<title>Node10&#45;&gt;Node7</title>
<path fill="none" stroke="midnightblue" d="M277.09,-116.85C240.05,-111.79 192.7,-100.62 157.6,-76 140.74,-64.17 128.45,-43.66 121.22,-28.83"/>
<polygon fill="midnightblue" stroke="midnightblue" points="124.36,-27.29 117.02,-19.66 118,-30.21 124.36,-27.29"/>
</g>
<!-- Node10&#45;&gt;Node8 -->
<g id="edge20" class="edge">
<title>Node10&#45;&gt;Node8</title>
<path fill="none" stroke="midnightblue" d="M320.82,-112.32C306.33,-103.82 284.03,-90.73 267.11,-80.8"/>
<polygon fill="midnightblue" stroke="midnightblue" points="268.74,-77.7 258.35,-75.65 265.2,-83.74 268.74,-77.7"/>
</g>
<!-- Node10&#45;&gt;Node9 -->
<g id="edge16" class="edge">
<title>Node10&#45;&gt;Node9</title>
<path fill="none" stroke="midnightblue" d="M276.73,-113.02C233.54,-105.82 180.15,-93.63 166.6,-76 153.57,-59.04 173.08,-38.85 190.57,-25.52"/>
<polygon fill="midnightblue" stroke="midnightblue" points="192.76,-28.25 198.84,-19.57 188.68,-22.57 192.76,-28.25"/>
</g>
<!-- Node10&#45;&gt;Node11 -->
<g id="edge21" class="edge">
<title>Node10&#45;&gt;Node11</title>
<path fill="none" stroke="midnightblue" d="M362.22,-112.44C392.28,-102.78 441.11,-87.09 472.79,-76.9"/>
<polygon fill="midnightblue" stroke="midnightblue" points="473.98,-80.2 482.43,-73.81 471.83,-73.53 473.98,-80.2"/>
</g>
<!-- Node11&#45;&gt;Node2 -->
<g id="edge23" class="edge">
<title>Node11&#45;&gt;Node2</title>
<path fill="none" stroke="midnightblue" d="M482.5,-56.68C459.87,-47.76 423.7,-33.51 397.79,-23.29"/>
<polygon fill="midnightblue" stroke="midnightblue" points="399,-20.01 388.41,-19.6 396.43,-26.52 399,-20.01"/>
</g>
<!-- Node11&#45;&gt;Node3 -->
<g id="edge22" class="edge">
<title>Node11&#45;&gt;Node3</title>
<path fill="none" stroke="midnightblue" d="M492.19,-56.32C481.49,-48.18 465.26,-35.84 452.44,-26.09"/>
<polygon fill="midnightblue" stroke="midnightblue" points="454.3,-23.1 444.22,-19.83 450.06,-28.67 454.3,-23.1"/>
</g>
<!-- Node11&#45;&gt;Node6 -->
<g id="edge24" class="edge">
<title>Node11&#45;&gt;Node6</title>
<path fill="none" stroke="midnightblue" d="M482.4,-59.62C446.89,-50.62 374.86,-32.36 329.89,-20.96"/>
<polygon fill="midnightblue" stroke="midnightblue" points="330.73,-17.56 320.17,-18.5 329.01,-24.35 330.73,-17.56"/>
</g>
<!-- Node11&#45;&gt;Node7 -->
<g id="edge25" class="edge">
<title>Node11&#45;&gt;Node7</title>
<path fill="none" stroke="midnightblue" d="M482.36,-62.06C422.63,-53.79 251.98,-30.16 165.37,-18.17"/>
<polygon fill="midnightblue" stroke="midnightblue" points="165.63,-14.67 155.24,-16.77 164.67,-21.6 165.63,-14.67"/>
</g>
<!-- Node12 -->
<g id="node12" class="node">
<title>Node12</title>
<g id="a_node12"><a xlink:title=" ">
<polygon fill="none" stroke="#bfbfbf" points="474.1,-0.5 474.1,-19.5 533.1,-19.5 533.1,-0.5 474.1,-0.5"/>
<text text-anchor="middle" x="503.6" y="-7.5" font-family="Helvetica,sans-Serif" font-size="10.00">sys/stat.h</text>
</a>
</g>
</g>
<!-- Node11&#45;&gt;Node12 -->
<g id="edge26" class="edge">
<title>Node11&#45;&gt;Node12</title>
<path fill="none" stroke="midnightblue" d="M503.6,-56.08C503.6,-49.01 503.6,-38.86 503.6,-29.99"/>
<polygon fill="midnightblue" stroke="midnightblue" points="507.1,-29.75 503.6,-19.75 500.1,-29.75 507.1,-29.75"/>
</g>
<!-- Node13 -->
<g id="node13" class="node">
<title>Node13</title>
<g id="a_node13"><a xlink:title=" ">
<polygon fill="none" stroke="#bfbfbf" points="551.1,-0.5 551.1,-19.5 616.1,-19.5 616.1,-0.5 551.1,-0.5"/>
<text text-anchor="middle" x="583.6" y="-7.5" font-family="Helvetica,sans-Serif" font-size="10.00">sys/types.h</text>
</a>
</g>
</g>
<!-- Node11&#45;&gt;Node13 -->
<g id="edge27" class="edge">
<title>Node11&#45;&gt;Node13</title>
<path fill="none" stroke="midnightblue" d="M516.46,-56.32C528.82,-47.98 547.73,-35.21 562.34,-25.35"/>
<polygon fill="midnightblue" stroke="midnightblue" points="564.45,-28.15 570.78,-19.65 560.53,-22.35 564.45,-28.15"/>
</g>
<!-- Node14 -->
<g id="node14" class="node">
<title>Node14</title>
<g id="a_node14"><a xlink:title=" ">
<polygon fill="none" stroke="#bfbfbf" points="634.6,-0.5 634.6,-19.5 680.6,-19.5 680.6,-0.5 634.6,-0.5"/>
<text text-anchor="middle" x="657.6" y="-7.5" font-family="Helvetica,sans-Serif" font-size="10.00">errno.h</text>
</a>
</g>
</g>
<!-- Node11&#45;&gt;Node14 -->
<g id="edge28" class="edge">
<title>Node11&#45;&gt;Node14</title>
<path fill="none" stroke="midnightblue" d="M524.69,-57.6C550.52,-48.55 594.56,-33.1 624.82,-22.49"/>
<polygon fill="midnightblue" stroke="midnightblue" points="626.23,-25.71 634.51,-19.1 623.91,-19.1 626.23,-25.71"/>
</g>
</g>
</svg>
