<?xml version="1.0" encoding="UTF-8" standalone="no"?>
<!DOCTYPE svg PUBLIC "-//W3C//DTD SVG 1.1//EN"
 "http://www.w3.org/Graphics/SVG/1.1/DTD/svg11.dtd">
<!-- Generated by graphviz version 2.49.3 (20211027.1534)
 -->
<!-- Title: include/IBM_EIS/timeseries.h Pages: 1 -->
<svg width="722pt" height="308pt"
 viewBox="0.00 0.00 721.50 308.00" xmlns="http://www.w3.org/2000/svg" xmlns:xlink="http://www.w3.org/1999/xlink">
<g id="graph0" class="graph" transform="scale(1 1) rotate(0) translate(4 304)">
<title>include/IBM_EIS/timeseries.h</title>
<!-- Node1 -->
<g id="node1" class="node">
<title>Node1</title>
<g id="a_node1"><a xlink:title=" ">
<polygon fill="#bfbfbf" stroke="black" points="418,-280.5 418,-299.5 563,-299.5 563,-280.5 418,-280.5"/>
<text text-anchor="middle" x="490.5" y="-287.5" font-family="Helvetica,sans-Serif" font-size="10.00">include/IBM_EIS/timeseries.h</text>
</a>
</g>
</g>
<!-- Node2 -->
<g id="node2" class="node">
<title>Node2</title>
<g id="a_node2"><a xlink:title=" ">
<polygon fill="none" stroke="#bfbfbf" points="0,-56.5 0,-75.5 59,-75.5 59,-56.5 0,-56.5"/>
<text text-anchor="middle" x="29.5" y="-63.5" font-family="Helvetica,sans-Serif" font-size="10.00">curl/curl.h</text>
</a>
</g>
</g>
<!-- Node1&#45;&gt;Node2 -->
<g id="edge1" class="edge">
<title>Node1&#45;&gt;Node2</title>
<path fill="none" stroke="midnightblue" d="M438.8,-280.46C399.78,-273.15 345.31,-261.07 299.5,-244 201.48,-207.47 175.41,-195.78 92.5,-132 73.73,-117.56 55.22,-97.59 43.18,-83.61"/>
<polygon fill="midnightblue" stroke="midnightblue" points="45.69,-81.16 36.57,-75.78 40.34,-85.68 45.69,-81.16"/>
</g>
<!-- Node3 -->
<g id="node3" class="node">
<title>Node3</title>
<g id="a_node3"><a xlink:title=" ">
<polygon fill="none" stroke="#bfbfbf" points="528,-56.5 528,-75.5 611,-75.5 611,-56.5 528,-56.5"/>
<text text-anchor="middle" x="569.5" y="-63.5" font-family="Helvetica,sans-Serif" font-size="10.00">cjson/cJSON.h</text>
</a>
</g>
</g>
<!-- Node1&#45;&gt;Node3 -->
<g id="edge2" class="edge">
<title>Node1&#45;&gt;Node3</title>
<path fill="none" stroke="midnightblue" d="M496.31,-280.35C502.05,-271.52 510.78,-257.25 516.5,-244 540.49,-188.41 557.92,-118.58 565.42,-85.72"/>
<polygon fill="midnightblue" stroke="midnightblue" points="568.88,-86.25 567.65,-75.72 562.05,-84.72 568.88,-86.25"/>
</g>
<!-- Node4 -->
<g id="node4" class="node">
<title>Node4</title>
<g id="a_node4"><a xlink:title=" ">
<polygon fill="none" stroke="#bfbfbf" points="667.5,-224.5 667.5,-243.5 713.5,-243.5 713.5,-224.5 667.5,-224.5"/>
<text text-anchor="middle" x="690.5" y="-231.5" font-family="Helvetica,sans-Serif" font-size="10.00">math.h</text>
</a>
</g>
</g>
<!-- Node1&#45;&gt;Node4 -->
<g id="edge3" class="edge">
<title>Node1&#45;&gt;Node4</title>
<path fill="none" stroke="midnightblue" d="M522.19,-280.44C559.14,-270.47 619.92,-254.06 657.45,-243.92"/>
<polygon fill="midnightblue" stroke="midnightblue" points="658.63,-247.23 667.38,-241.24 656.81,-240.47 658.63,-247.23"/>
</g>
<!-- Node5 -->
<g id="node5" class="node">
<title>Node5</title>
<g id="a_node5"><a xlink:title=" ">
<polygon fill="none" stroke="#bfbfbf" points="529,-0.5 529,-19.5 572,-19.5 572,-0.5 529,-0.5"/>
<text text-anchor="middle" x="550.5" y="-7.5" font-family="Helvetica,sans-Serif" font-size="10.00">time.h</text>
</a>
</g>
</g>
<!-- Node1&#45;&gt;Node5 -->
<g id="edge4" class="edge">
<title>Node1&#45;&gt;Node5</title>
<path fill="none" stroke="midnightblue" d="M523.94,-280.41C567.87,-266.88 639.5,-236.07 639.5,-179 639.5,-179 639.5,-179 639.5,-121 639.5,-90.9 638.52,-80.11 620.5,-56 610.31,-42.37 594.67,-31.75 580.76,-24.26"/>
<polygon fill="midnightblue" stroke="midnightblue" points="582,-20.97 571.49,-19.58 578.84,-27.21 582,-20.97"/>
</g>
<!-- Node6 -->
<g id="node6" class="node">
<title>Node6</title>
<g id="a_node6"><a xlink:href="log_8h.html" target="_top" xlink:title=" ">
<polygon fill="none" stroke="black" points="434,-56.5 434,-75.5 471,-75.5 471,-56.5 434,-56.5"/>
<text text-anchor="middle" x="452.5" y="-63.5" font-family="Helvetica,sans-Serif" font-size="10.00">log.h</text>
</a>
</g>
</g>
<!-- Node1&#45;&gt;Node6 -->
<g id="edge5" class="edge">
<title>Node1&#45;&gt;Node6</title>
<path fill="none" stroke="midnightblue" d="M494.04,-280.2C498.61,-267.72 505.64,-244.18 502.5,-224 494.44,-172.12 472.23,-113.92 460.31,-85.14"/>
<polygon fill="midnightblue" stroke="midnightblue" points="463.41,-83.48 456.29,-75.62 456.96,-86.2 463.41,-83.48"/>
</g>
<!-- Node10 -->
<g id="node10" class="node">
<title>Node10</title>
<g id="a_node10"><a xlink:href="_i_b_m___e_i_s_2authenticate_8h.html" target="_top" xlink:title=" ">
<polygon fill="none" stroke="black" points="374,-224.5 374,-243.5 493,-243.5 493,-224.5 374,-224.5"/>
<text text-anchor="middle" x="433.5" y="-231.5" font-family="Helvetica,sans-Serif" font-size="10.00">IBM_EIS/authenticate.h</text>
</a>
</g>
</g>
<!-- Node1&#45;&gt;Node10 -->
<g id="edge10" class="edge">
<title>Node1&#45;&gt;Node10</title>
<path fill="none" stroke="midnightblue" d="M481.34,-280.32C473,-272.42 460.47,-260.55 450.32,-250.94"/>
<polygon fill="midnightblue" stroke="midnightblue" points="452.49,-248.17 442.82,-243.83 447.68,-253.25 452.49,-248.17"/>
</g>
<!-- Node11 -->
<g id="node11" class="node">
<title>Node11</title>
<g id="a_node11"><a xlink:href="http_8h.html" target="_top" xlink:title=" ">
<polygon fill="none" stroke="black" points="256,-168.5 256,-187.5 297,-187.5 297,-168.5 256,-168.5"/>
<text text-anchor="middle" x="276.5" y="-175.5" font-family="Helvetica,sans-Serif" font-size="10.00">http.h</text>
</a>
</g>
</g>
<!-- Node1&#45;&gt;Node11 -->
<g id="edge29" class="edge">
<title>Node1&#45;&gt;Node11</title>
<path fill="none" stroke="midnightblue" d="M420.79,-280.43C389.62,-274.08 353.64,-263.07 325.5,-244 307.82,-232.02 293.94,-211.53 285.53,-196.76"/>
<polygon fill="midnightblue" stroke="midnightblue" points="288.43,-194.76 280.61,-187.61 282.27,-198.08 288.43,-194.76"/>
</g>
<!-- Node14 -->
<g id="node14" class="node">
<title>Node14</title>
<g id="a_node14"><a xlink:href="utils_8h.html" target="_top" xlink:title=" ">
<polygon fill="none" stroke="black" points="294.5,-112.5 294.5,-131.5 336.5,-131.5 336.5,-112.5 294.5,-112.5"/>
<text text-anchor="middle" x="315.5" y="-119.5" font-family="Helvetica,sans-Serif" font-size="10.00">utils.h</text>
</a>
</g>
</g>
<!-- Node1&#45;&gt;Node14 -->
<g id="edge30" class="edge">
<title>Node1&#45;&gt;Node14</title>
<path fill="none" stroke="midnightblue" d="M438.79,-280.5C414,-274.1 385.44,-263.03 365.5,-244 336.14,-215.97 323.41,-168.17 318.4,-141.82"/>
<polygon fill="midnightblue" stroke="midnightblue" points="321.8,-140.92 316.65,-131.66 314.9,-142.11 321.8,-140.92"/>
</g>
<!-- Node6&#45;&gt;Node5 -->
<g id="edge9" class="edge">
<title>Node6&#45;&gt;Node5</title>
<path fill="none" stroke="midnightblue" d="M468.25,-56.32C483.82,-47.74 507.88,-34.49 525.96,-24.52"/>
<polygon fill="midnightblue" stroke="midnightblue" points="527.72,-27.55 534.79,-19.65 524.35,-21.42 527.72,-27.55"/>
</g>
<!-- Node7 -->
<g id="node7" class="node">
<title>Node7</title>
<g id="a_node7"><a xlink:title=" ">
<polygon fill="none" stroke="#bfbfbf" points="397,-0.5 397,-19.5 442,-19.5 442,-0.5 397,-0.5"/>
<text text-anchor="middle" x="419.5" y="-7.5" font-family="Helvetica,sans-Serif" font-size="10.00">stdio.h</text>
</a>
</g>
</g>
<!-- Node6&#45;&gt;Node7 -->
<g id="edge6" class="edge">
<title>Node6&#45;&gt;Node7</title>
<path fill="none" stroke="midnightblue" d="M447.05,-56.08C442.49,-48.61 435.83,-37.72 430.21,-28.52"/>
<polygon fill="midnightblue" stroke="midnightblue" points="433.05,-26.46 424.85,-19.75 427.08,-30.11 433.05,-26.46"/>
</g>
<!-- Node8 -->
<g id="node8" class="node">
<title>Node8</title>
<g id="a_node8"><a xlink:title=" ">
<polygon fill="none" stroke="#bfbfbf" points="460,-0.5 460,-19.5 511,-19.5 511,-0.5 460,-0.5"/>
<text text-anchor="middle" x="485.5" y="-7.5" font-family="Helvetica,sans-Serif" font-size="10.00">stdarg.h</text>
</a>
</g>
</g>
<!-- Node6&#45;&gt;Node8 -->
<g id="edge7" class="edge">
<title>Node6&#45;&gt;Node8</title>
<path fill="none" stroke="midnightblue" d="M457.95,-56.08C462.51,-48.61 469.17,-37.72 474.79,-28.52"/>
<polygon fill="midnightblue" stroke="midnightblue" points="477.92,-30.11 480.15,-19.75 471.95,-26.46 477.92,-30.11"/>
</g>
<!-- Node9 -->
<g id="node9" class="node">
<title>Node9</title>
<g id="a_node9"><a xlink:title=" ">
<polygon fill="none" stroke="#bfbfbf" points="322.5,-0.5 322.5,-19.5 378.5,-19.5 378.5,-0.5 322.5,-0.5"/>
<text text-anchor="middle" x="350.5" y="-7.5" font-family="Helvetica,sans-Serif" font-size="10.00">stdbool.h</text>
</a>
</g>
</g>
<!-- Node6&#45;&gt;Node9 -->
<g id="edge8" class="edge">
<title>Node6&#45;&gt;Node9</title>
<path fill="none" stroke="midnightblue" d="M436.11,-56.32C419.83,-47.7 394.63,-34.36 375.78,-24.39"/>
<polygon fill="midnightblue" stroke="midnightblue" points="377.32,-21.24 366.85,-19.65 374.05,-27.43 377.32,-21.24"/>
</g>
<!-- Node10&#45;&gt;Node2 -->
<g id="edge11" class="edge">
<title>Node10&#45;&gt;Node2</title>
<path fill="none" stroke="midnightblue" d="M387.28,-224.49C349.19,-216.84 294.06,-204.31 247.5,-188 191.96,-168.54 178.83,-160.79 127.5,-132 99.52,-116.31 68.97,-95.39 49.55,-81.58"/>
<polygon fill="midnightblue" stroke="midnightblue" points="51.37,-78.58 41.21,-75.6 47.29,-84.27 51.37,-78.58"/>
</g>
<!-- Node10&#45;&gt;Node3 -->
<g id="edge12" class="edge">
<title>Node10&#45;&gt;Node3</title>
<path fill="none" stroke="midnightblue" d="M444.98,-224.43C456.04,-215.88 472.89,-202.03 485.5,-188 515.85,-154.23 544.5,-109.11 559.22,-84.62"/>
<polygon fill="midnightblue" stroke="midnightblue" points="562.38,-86.14 564.47,-75.75 556.36,-82.57 562.38,-86.14"/>
</g>
<!-- Node10&#45;&gt;Node5 -->
<g id="edge13" class="edge">
<title>Node10&#45;&gt;Node5</title>
<path fill="none" stroke="midnightblue" d="M437.58,-224.16C452.02,-192.94 500.83,-88.02 519.5,-56 525.11,-46.37 532.1,-36.1 538.03,-27.81"/>
<polygon fill="midnightblue" stroke="midnightblue" points="540.87,-29.85 543.92,-19.71 535.2,-25.74 540.87,-29.85"/>
</g>
<!-- Node10&#45;&gt;Node6 -->
<g id="edge14" class="edge">
<title>Node10&#45;&gt;Node6</title>
<path fill="none" stroke="midnightblue" d="M434.52,-224.08C437.51,-197.95 446.3,-121.21 450.37,-85.58"/>
<polygon fill="midnightblue" stroke="midnightblue" points="453.86,-85.9 451.52,-75.57 446.9,-85.11 453.86,-85.9"/>
</g>
<!-- Node10&#45;&gt;Node11 -->
<g id="edge15" class="edge">
<title>Node10&#45;&gt;Node11</title>
<path fill="none" stroke="midnightblue" d="M408.62,-224.44C381.09,-214.97 336.69,-199.7 307.06,-189.51"/>
<polygon fill="midnightblue" stroke="midnightblue" points="307.84,-186.08 297.25,-186.14 305.57,-192.7 307.84,-186.08"/>
</g>
<!-- Node10&#45;&gt;Node14 -->
<g id="edge28" class="edge">
<title>Node10&#45;&gt;Node14</title>
<path fill="none" stroke="midnightblue" d="M424.24,-224.37C404.34,-205.81 357.24,-161.91 332.06,-138.44"/>
<polygon fill="midnightblue" stroke="midnightblue" points="334.42,-135.85 324.72,-131.59 329.64,-140.97 334.42,-135.85"/>
</g>
<!-- Node11&#45;&gt;Node2 -->
<g id="edge18" class="edge">
<title>Node11&#45;&gt;Node2</title>
<path fill="none" stroke="midnightblue" d="M257.12,-168.37C213.83,-149.09 109.11,-102.45 58.22,-79.79"/>
<polygon fill="midnightblue" stroke="midnightblue" points="59.35,-76.46 48.79,-75.59 56.5,-82.86 59.35,-76.46"/>
</g>
<!-- Node12 -->
<g id="node12" class="node">
<title>Node12</title>
<g id="a_node12"><a xlink:title=" ">
<polygon fill="none" stroke="#bfbfbf" points="77,-56.5 77,-75.5 124,-75.5 124,-56.5 77,-56.5"/>
<text text-anchor="middle" x="100.5" y="-63.5" font-family="Helvetica,sans-Serif" font-size="10.00">stdlib.h</text>
</a>
</g>
</g>
<!-- Node11&#45;&gt;Node12 -->
<g id="edge16" class="edge">
<title>Node11&#45;&gt;Node12</title>
<path fill="none" stroke="midnightblue" d="M265.34,-168.29C248.51,-155.32 215.39,-130.47 185.5,-112 166.74,-100.41 144.71,-88.8 127.78,-80.27"/>
<polygon fill="midnightblue" stroke="midnightblue" points="128.98,-76.96 118.47,-75.64 125.86,-83.23 128.98,-76.96"/>
</g>
<!-- Node13 -->
<g id="node13" class="node">
<title>Node13</title>
<g id="a_node13"><a xlink:title=" ">
<polygon fill="none" stroke="#bfbfbf" points="142.5,-56.5 142.5,-75.5 190.5,-75.5 190.5,-56.5 142.5,-56.5"/>
<text text-anchor="middle" x="166.5" y="-63.5" font-family="Helvetica,sans-Serif" font-size="10.00">string.h</text>
</a>
</g>
</g>
<!-- Node11&#45;&gt;Node13 -->
<g id="edge17" class="edge">
<title>Node11&#45;&gt;Node13</title>
<path fill="none" stroke="midnightblue" d="M272.31,-168.2C265.67,-154.9 251.7,-129.38 234.5,-112 222.12,-99.49 205.73,-88.52 192.14,-80.54"/>
<polygon fill="midnightblue" stroke="midnightblue" points="193.7,-77.4 183.27,-75.51 190.25,-83.49 193.7,-77.4"/>
</g>
<!-- Node11&#45;&gt;Node14 -->
<g id="edge19" class="edge">
<title>Node11&#45;&gt;Node14</title>
<path fill="none" stroke="midnightblue" d="M282.94,-168.08C288.45,-160.46 296.53,-149.26 303.26,-139.94"/>
<polygon fill="midnightblue" stroke="midnightblue" points="306.16,-141.91 309.18,-131.75 300.49,-137.81 306.16,-141.91"/>
</g>
<!-- Node14&#45;&gt;Node2 -->
<g id="edge22" class="edge">
<title>Node14&#45;&gt;Node2</title>
<path fill="none" stroke="midnightblue" d="M294.19,-117.53C252.75,-110.69 158.19,-94.67 69.31,-76.3"/>
<polygon fill="midnightblue" stroke="midnightblue" points="69.84,-72.84 59.34,-74.22 68.41,-79.69 69.84,-72.84"/>
</g>
<!-- Node14&#45;&gt;Node3 -->
<g id="edge23" class="edge">
<title>Node14&#45;&gt;Node3</title>
<path fill="none" stroke="midnightblue" d="M336.72,-116.49C376.57,-108.02 463.57,-89.52 519.2,-77.69"/>
<polygon fill="midnightblue" stroke="midnightblue" points="520.15,-81.07 529.2,-75.57 518.69,-74.22 520.15,-81.07"/>
</g>
<!-- Node14&#45;&gt;Node6 -->
<g id="edge27" class="edge">
<title>Node14&#45;&gt;Node6</title>
<path fill="none" stroke="midnightblue" d="M336.61,-112.68C360.17,-103.39 398.4,-88.32 424.46,-78.05"/>
<polygon fill="midnightblue" stroke="midnightblue" points="425.77,-81.3 433.79,-74.37 423.21,-74.78 425.77,-81.3"/>
</g>
<!-- Node14&#45;&gt;Node12 -->
<g id="edge20" class="edge">
<title>Node14&#45;&gt;Node12</title>
<path fill="none" stroke="midnightblue" d="M294.44,-115.97C262.16,-108.21 198.26,-92.72 134.15,-76.12"/>
<polygon fill="midnightblue" stroke="midnightblue" points="134.83,-72.68 124.27,-73.56 133.07,-79.46 134.83,-72.68"/>
</g>
<!-- Node14&#45;&gt;Node13 -->
<g id="edge21" class="edge">
<title>Node14&#45;&gt;Node13</title>
<path fill="none" stroke="midnightblue" d="M294.47,-113.38C269.85,-104.46 228.79,-89.57 199.82,-79.08"/>
<polygon fill="midnightblue" stroke="midnightblue" points="200.72,-75.68 190.13,-75.56 198.34,-82.26 200.72,-75.68"/>
</g>
<!-- Node15 -->
<g id="node15" class="node">
<title>Node15</title>
<g id="a_node15"><a xlink:title=" ">
<polygon fill="none" stroke="#bfbfbf" points="357,-56.5 357,-75.5 416,-75.5 416,-56.5 357,-56.5"/>
<text text-anchor="middle" x="386.5" y="-63.5" font-family="Helvetica,sans-Serif" font-size="10.00">sys/stat.h</text>
</a>
</g>
</g>
<!-- Node14&#45;&gt;Node15 -->
<g id="edge24" class="edge">
<title>Node14&#45;&gt;Node15</title>
<path fill="none" stroke="midnightblue" d="M326.91,-112.32C337.61,-104.18 353.84,-91.84 366.66,-82.09"/>
<polygon fill="midnightblue" stroke="midnightblue" points="369.04,-84.67 374.89,-75.83 364.81,-79.1 369.04,-84.67"/>
</g>
<!-- Node16 -->
<g id="node16" class="node">
<title>Node16</title>
<g id="a_node16"><a xlink:title=" ">
<polygon fill="none" stroke="#bfbfbf" points="209,-56.5 209,-75.5 274,-75.5 274,-56.5 209,-56.5"/>
<text text-anchor="middle" x="241.5" y="-63.5" font-family="Helvetica,sans-Serif" font-size="10.00">sys/types.h</text>
</a>
</g>
</g>
<!-- Node14&#45;&gt;Node16 -->
<g id="edge25" class="edge">
<title>Node14&#45;&gt;Node16</title>
<path fill="none" stroke="midnightblue" d="M303.61,-112.32C292.35,-104.11 275.21,-91.6 261.79,-81.81"/>
<polygon fill="midnightblue" stroke="midnightblue" points="263.75,-78.9 253.61,-75.83 259.62,-84.56 263.75,-78.9"/>
</g>
<!-- Node17 -->
<g id="node17" class="node">
<title>Node17</title>
<g id="a_node17"><a xlink:title=" ">
<polygon fill="none" stroke="#bfbfbf" points="292.5,-56.5 292.5,-75.5 338.5,-75.5 338.5,-56.5 292.5,-56.5"/>
<text text-anchor="middle" x="315.5" y="-63.5" font-family="Helvetica,sans-Serif" font-size="10.00">errno.h</text>
</a>
</g>
</g>
<!-- Node14&#45;&gt;Node17 -->
<g id="edge26" class="edge">
<title>Node14&#45;&gt;Node17</title>
<path fill="none" stroke="midnightblue" d="M315.5,-112.08C315.5,-105.01 315.5,-94.86 315.5,-85.99"/>
<polygon fill="midnightblue" stroke="midnightblue" points="319,-85.75 315.5,-75.75 312,-85.75 319,-85.75"/>
</g>
</g>
</svg>
