<?xml version="1.0" encoding="UTF-8" standalone="no"?>
<!DOCTYPE svg PUBLIC "-//W3C//DTD SVG 1.1//EN"
 "http://www.w3.org/Graphics/SVG/1.1/DTD/svg11.dtd">
<!-- Generated by graphviz version 2.49.3 (20211027.1534)
 -->
<!-- Title: src/IBM_EIS/timeseries.c Pages: 1 -->
<svg width="695pt" height="308pt"
 viewBox="0.00 0.00 695.38 308.00" xmlns="http://www.w3.org/2000/svg" xmlns:xlink="http://www.w3.org/1999/xlink">
<g id="graph0" class="graph" transform="scale(1 1) rotate(0) translate(4 304)">
<title>src/IBM_EIS/timeseries.c</title>
<!-- Node1 -->
<g id="node1" class="node">
<title>Node1</title>
<g id="a_node1"><a xlink:title=" ">
<polygon fill="#bfbfbf" stroke="black" points="397.38,-280.5 397.38,-299.5 525.38,-299.5 525.38,-280.5 397.38,-280.5"/>
<text text-anchor="middle" x="461.38" y="-287.5" font-family="Helvetica,sans-Serif" font-size="10.00">src/IBM_EIS/timeseries.c</text>
</a>
</g>
</g>
<!-- Node2 -->
<g id="node2" class="node">
<title>Node2</title>
<g id="a_node2"><a xlink:href="timeseries_8h.html" target="_top" xlink:title=" ">
<polygon fill="none" stroke="black" points="405.88,-224.5 405.88,-243.5 516.88,-243.5 516.88,-224.5 405.88,-224.5"/>
<text text-anchor="middle" x="461.38" y="-231.5" font-family="Helvetica,sans-Serif" font-size="10.00">IBM_EIS/timeseries.h</text>
</a>
</g>
</g>
<!-- Node1&#45;&gt;Node2 -->
<g id="edge1" class="edge">
<title>Node1&#45;&gt;Node2</title>
<path fill="none" stroke="midnightblue" d="M461.38,-280.08C461.38,-273.01 461.38,-262.86 461.38,-253.99"/>
<polygon fill="midnightblue" stroke="midnightblue" points="464.88,-253.75 461.38,-243.75 457.88,-253.75 464.88,-253.75"/>
</g>
<!-- Node3 -->
<g id="node3" class="node">
<title>Node3</title>
<g id="a_node3"><a xlink:title=" ">
<polygon fill="none" stroke="#bfbfbf" points="583.88,-56.5 583.88,-75.5 642.88,-75.5 642.88,-56.5 583.88,-56.5"/>
<text text-anchor="middle" x="613.38" y="-63.5" font-family="Helvetica,sans-Serif" font-size="10.00">curl/curl.h</text>
</a>
</g>
</g>
<!-- Node2&#45;&gt;Node3 -->
<g id="edge2" class="edge">
<title>Node2&#45;&gt;Node3</title>
<path fill="none" stroke="midnightblue" d="M487.14,-224.41C505.94,-217.1 531.06,-205.06 548.38,-188 578.72,-158.14 598.35,-111.09 607.46,-85.34"/>
<polygon fill="midnightblue" stroke="midnightblue" points="610.82,-86.32 610.72,-75.72 604.2,-84.07 610.82,-86.32"/>
</g>
<!-- Node4 -->
<g id="node4" class="node">
<title>Node4</title>
<g id="a_node4"><a xlink:title=" ">
<polygon fill="none" stroke="#bfbfbf" points="31.88,-56.5 31.88,-75.5 114.88,-75.5 114.88,-56.5 31.88,-56.5"/>
<text text-anchor="middle" x="73.38" y="-63.5" font-family="Helvetica,sans-Serif" font-size="10.00">cjson/cJSON.h</text>
</a>
</g>
</g>
<!-- Node2&#45;&gt;Node4 -->
<g id="edge3" class="edge">
<title>Node2&#45;&gt;Node4</title>
<path fill="none" stroke="midnightblue" d="M441.34,-224.42C377.48,-197.1 178.57,-112 102.96,-79.65"/>
<polygon fill="midnightblue" stroke="midnightblue" points="104.11,-76.34 93.54,-75.62 101.36,-82.78 104.11,-76.34"/>
</g>
<!-- Node5 -->
<g id="node5" class="node">
<title>Node5</title>
<g id="a_node5"><a xlink:title=" ">
<polygon fill="none" stroke="#bfbfbf" points="641.38,-168.5 641.38,-187.5 687.38,-187.5 687.38,-168.5 641.38,-168.5"/>
<text text-anchor="middle" x="664.38" y="-175.5" font-family="Helvetica,sans-Serif" font-size="10.00">math.h</text>
</a>
</g>
</g>
<!-- Node2&#45;&gt;Node5 -->
<g id="edge4" class="edge">
<title>Node2&#45;&gt;Node5</title>
<path fill="none" stroke="midnightblue" d="M493.55,-224.44C531.16,-214.44 593.09,-197.97 631.15,-187.84"/>
<polygon fill="midnightblue" stroke="midnightblue" points="632.45,-191.12 641.21,-185.16 630.65,-184.35 632.45,-191.12"/>
</g>
<!-- Node6 -->
<g id="node6" class="node">
<title>Node6</title>
<g id="a_node6"><a xlink:title=" ">
<polygon fill="none" stroke="#bfbfbf" points="430.88,-0.5 430.88,-19.5 473.88,-19.5 473.88,-0.5 430.88,-0.5"/>
<text text-anchor="middle" x="452.38" y="-7.5" font-family="Helvetica,sans-Serif" font-size="10.00">time.h</text>
</a>
</g>
</g>
<!-- Node2&#45;&gt;Node6 -->
<g id="edge5" class="edge">
<title>Node2&#45;&gt;Node6</title>
<path fill="none" stroke="midnightblue" d="M405.75,-229.85C264.11,-219.93 -91.19,-182.08 22.38,-56 48.96,-26.5 325.37,-15.02 420.46,-11.93"/>
<polygon fill="midnightblue" stroke="midnightblue" points="420.74,-15.42 430.62,-11.61 420.52,-8.43 420.74,-15.42"/>
</g>
<!-- Node7 -->
<g id="node7" class="node">
<title>Node7</title>
<g id="a_node7"><a xlink:href="log_8h.html" target="_top" xlink:title=" ">
<polygon fill="none" stroke="black" points="528.88,-56.5 528.88,-75.5 565.88,-75.5 565.88,-56.5 528.88,-56.5"/>
<text text-anchor="middle" x="547.38" y="-63.5" font-family="Helvetica,sans-Serif" font-size="10.00">log.h</text>
</a>
</g>
</g>
<!-- Node2&#45;&gt;Node7 -->
<g id="edge6" class="edge">
<title>Node2&#45;&gt;Node7</title>
<path fill="none" stroke="midnightblue" d="M483.77,-224.37C499.45,-217.11 519.49,-205.14 530.38,-188 550.42,-156.48 550.94,-111.1 549.31,-85.82"/>
<polygon fill="midnightblue" stroke="midnightblue" points="552.79,-85.41 548.47,-75.74 545.81,-85.99 552.79,-85.41"/>
</g>
<!-- Node11 -->
<g id="node11" class="node">
<title>Node11</title>
<g id="a_node11"><a xlink:href="_i_b_m___e_i_s_2authenticate_8h.html" target="_top" xlink:title=" ">
<polygon fill="none" stroke="black" points="401.88,-168.5 401.88,-187.5 520.88,-187.5 520.88,-168.5 401.88,-168.5"/>
<text text-anchor="middle" x="461.38" y="-175.5" font-family="Helvetica,sans-Serif" font-size="10.00">IBM_EIS/authenticate.h</text>
</a>
</g>
</g>
<!-- Node2&#45;&gt;Node11 -->
<g id="edge11" class="edge">
<title>Node2&#45;&gt;Node11</title>
<path fill="none" stroke="midnightblue" d="M461.38,-224.08C461.38,-217.01 461.38,-206.86 461.38,-197.99"/>
<polygon fill="midnightblue" stroke="midnightblue" points="464.88,-197.75 461.38,-187.75 457.88,-197.75 464.88,-197.75"/>
</g>
<!-- Node12 -->
<g id="node12" class="node">
<title>Node12</title>
<g id="a_node12"><a xlink:href="utils_8h.html" target="_top" xlink:title=" ">
<polygon fill="none" stroke="black" points="350.38,-112.5 350.38,-131.5 392.38,-131.5 392.38,-112.5 350.38,-112.5"/>
<text text-anchor="middle" x="371.38" y="-119.5" font-family="Helvetica,sans-Serif" font-size="10.00">utils.h</text>
</a>
</g>
</g>
<!-- Node2&#45;&gt;Node12 -->
<g id="edge25" class="edge">
<title>Node2&#45;&gt;Node12</title>
<path fill="none" stroke="midnightblue" d="M441.14,-224.4C425.73,-216.89 405.07,-204.59 392.38,-188 382.04,-174.47 376.69,-155.66 373.99,-141.76"/>
<polygon fill="midnightblue" stroke="midnightblue" points="377.44,-141.15 372.35,-131.86 370.53,-142.29 377.44,-141.15"/>
</g>
<!-- Node7&#45;&gt;Node6 -->
<g id="edge10" class="edge">
<title>Node7&#45;&gt;Node6</title>
<path fill="none" stroke="midnightblue" d="M532.12,-56.32C517.16,-47.82 494.13,-34.73 476.66,-24.8"/>
<polygon fill="midnightblue" stroke="midnightblue" points="478.03,-21.55 467.61,-19.65 474.57,-27.64 478.03,-21.55"/>
</g>
<!-- Node8 -->
<g id="node8" class="node">
<title>Node8</title>
<g id="a_node8"><a xlink:title=" ">
<polygon fill="none" stroke="#bfbfbf" points="491.88,-0.5 491.88,-19.5 536.88,-19.5 536.88,-0.5 491.88,-0.5"/>
<text text-anchor="middle" x="514.38" y="-7.5" font-family="Helvetica,sans-Serif" font-size="10.00">stdio.h</text>
</a>
</g>
</g>
<!-- Node7&#45;&gt;Node8 -->
<g id="edge7" class="edge">
<title>Node7&#45;&gt;Node8</title>
<path fill="none" stroke="midnightblue" d="M541.94,-56.08C537.37,-48.61 530.72,-37.72 525.09,-28.52"/>
<polygon fill="midnightblue" stroke="midnightblue" points="527.93,-26.46 519.73,-19.75 521.96,-30.11 527.93,-26.46"/>
</g>
<!-- Node9 -->
<g id="node9" class="node">
<title>Node9</title>
<g id="a_node9"><a xlink:title=" ">
<polygon fill="none" stroke="#bfbfbf" points="554.88,-0.5 554.88,-19.5 605.88,-19.5 605.88,-0.5 554.88,-0.5"/>
<text text-anchor="middle" x="580.38" y="-7.5" font-family="Helvetica,sans-Serif" font-size="10.00">stdarg.h</text>
</a>
</g>
</g>
<!-- Node7&#45;&gt;Node9 -->
<g id="edge8" class="edge">
<title>Node7&#45;&gt;Node9</title>
<path fill="none" stroke="midnightblue" d="M552.83,-56.08C557.4,-48.61 564.05,-37.72 569.68,-28.52"/>
<polygon fill="midnightblue" stroke="midnightblue" points="572.81,-30.11 575.04,-19.75 566.84,-26.46 572.81,-30.11"/>
</g>
<!-- Node10 -->
<g id="node10" class="node">
<title>Node10</title>
<g id="a_node10"><a xlink:title=" ">
<polygon fill="none" stroke="#bfbfbf" points="624.38,-0.5 624.38,-19.5 680.38,-19.5 680.38,-0.5 624.38,-0.5"/>
<text text-anchor="middle" x="652.38" y="-7.5" font-family="Helvetica,sans-Serif" font-size="10.00">stdbool.h</text>
</a>
</g>
</g>
<!-- Node7&#45;&gt;Node10 -->
<g id="edge9" class="edge">
<title>Node7&#45;&gt;Node10</title>
<path fill="none" stroke="midnightblue" d="M564.25,-56.32C581.09,-47.66 607.19,-34.24 626.62,-24.25"/>
<polygon fill="midnightblue" stroke="midnightblue" points="628.26,-27.34 635.56,-19.65 625.06,-21.12 628.26,-27.34"/>
</g>
<!-- Node11&#45;&gt;Node3 -->
<g id="edge12" class="edge">
<title>Node11&#45;&gt;Node3</title>
<path fill="none" stroke="midnightblue" d="M473.31,-168.37C499.28,-149.57 561.2,-104.77 593.3,-81.53"/>
<polygon fill="midnightblue" stroke="midnightblue" points="595.46,-84.29 601.51,-75.59 591.36,-78.62 595.46,-84.29"/>
</g>
<!-- Node11&#45;&gt;Node4 -->
<g id="edge13" class="edge">
<title>Node11&#45;&gt;Node4</title>
<path fill="none" stroke="midnightblue" d="M431.26,-168.46C361.99,-148.82 191.37,-100.45 113.41,-78.35"/>
<polygon fill="midnightblue" stroke="midnightblue" points="114.06,-74.89 103.49,-75.53 112.15,-81.63 114.06,-74.89"/>
</g>
<!-- Node11&#45;&gt;Node6 -->
<g id="edge14" class="edge">
<title>Node11&#45;&gt;Node6</title>
<path fill="none" stroke="midnightblue" d="M465.26,-168.34C473.72,-148.25 492.13,-97.1 480.38,-56 477.48,-45.84 471.55,-35.75 465.89,-27.7"/>
<polygon fill="midnightblue" stroke="midnightblue" points="468.6,-25.48 459.8,-19.59 463.01,-29.69 468.6,-25.48"/>
</g>
<!-- Node11&#45;&gt;Node7 -->
<g id="edge15" class="edge">
<title>Node11&#45;&gt;Node7</title>
<path fill="none" stroke="midnightblue" d="M468.13,-168.37C482.39,-150.14 515.78,-107.43 534.35,-83.68"/>
<polygon fill="midnightblue" stroke="midnightblue" points="537.27,-85.63 540.67,-75.59 531.75,-81.31 537.27,-85.63"/>
</g>
<!-- Node11&#45;&gt;Node12 -->
<g id="edge16" class="edge">
<title>Node11&#45;&gt;Node12</title>
<path fill="none" stroke="midnightblue" d="M446.92,-168.32C432.89,-159.9 411.34,-146.97 394.84,-137.07"/>
<polygon fill="midnightblue" stroke="midnightblue" points="396.18,-133.8 385.81,-131.65 392.58,-139.8 396.18,-133.8"/>
</g>
<!-- Node12&#45;&gt;Node3 -->
<g id="edge19" class="edge">
<title>Node12&#45;&gt;Node3</title>
<path fill="none" stroke="midnightblue" d="M392.55,-116.44C427.97,-108.8 501.72,-92.77 573.42,-76.43"/>
<polygon fill="midnightblue" stroke="midnightblue" points="574.55,-79.76 583.52,-74.12 573,-72.93 574.55,-79.76"/>
</g>
<!-- Node12&#45;&gt;Node4 -->
<g id="edge20" class="edge">
<title>Node12&#45;&gt;Node4</title>
<path fill="none" stroke="midnightblue" d="M349.95,-117.12C303.34,-108.67 191.59,-88.42 125.29,-76.41"/>
<polygon fill="midnightblue" stroke="midnightblue" points="125.52,-72.89 115.06,-74.55 124.27,-79.78 125.52,-72.89"/>
</g>
<!-- Node12&#45;&gt;Node7 -->
<g id="edge24" class="edge">
<title>Node12&#45;&gt;Node7</title>
<path fill="none" stroke="midnightblue" d="M392.61,-114.49C424.24,-104.78 483.76,-86.52 519.06,-75.69"/>
<polygon fill="midnightblue" stroke="midnightblue" points="520.22,-79 528.76,-72.72 518.17,-72.3 520.22,-79"/>
</g>
<!-- Node13 -->
<g id="node13" class="node">
<title>Node13</title>
<g id="a_node13"><a xlink:title=" ">
<polygon fill="none" stroke="#bfbfbf" points="280.88,-56.5 280.88,-75.5 327.88,-75.5 327.88,-56.5 280.88,-56.5"/>
<text text-anchor="middle" x="304.38" y="-63.5" font-family="Helvetica,sans-Serif" font-size="10.00">stdlib.h</text>
</a>
</g>
</g>
<!-- Node12&#45;&gt;Node13 -->
<g id="edge17" class="edge">
<title>Node12&#45;&gt;Node13</title>
<path fill="none" stroke="midnightblue" d="M360.62,-112.32C350.62,-104.26 335.5,-92.08 323.45,-82.37"/>
<polygon fill="midnightblue" stroke="midnightblue" points="325.33,-79.38 315.35,-75.83 320.93,-84.83 325.33,-79.38"/>
</g>
<!-- Node14 -->
<g id="node14" class="node">
<title>Node14</title>
<g id="a_node14"><a xlink:title=" ">
<polygon fill="none" stroke="#bfbfbf" points="346.38,-56.5 346.38,-75.5 394.38,-75.5 394.38,-56.5 346.38,-56.5"/>
<text text-anchor="middle" x="370.38" y="-63.5" font-family="Helvetica,sans-Serif" font-size="10.00">string.h</text>
</a>
</g>
</g>
<!-- Node12&#45;&gt;Node14 -->
<g id="edge18" class="edge">
<title>Node12&#45;&gt;Node14</title>
<path fill="none" stroke="midnightblue" d="M371.22,-112.08C371.09,-105.01 370.9,-94.86 370.74,-85.99"/>
<polygon fill="midnightblue" stroke="midnightblue" points="374.23,-85.68 370.55,-75.75 367.23,-85.81 374.23,-85.68"/>
</g>
<!-- Node15 -->
<g id="node15" class="node">
<title>Node15</title>
<g id="a_node15"><a xlink:title=" ">
<polygon fill="none" stroke="#bfbfbf" points="412.88,-56.5 412.88,-75.5 471.88,-75.5 471.88,-56.5 412.88,-56.5"/>
<text text-anchor="middle" x="442.38" y="-63.5" font-family="Helvetica,sans-Serif" font-size="10.00">sys/stat.h</text>
</a>
</g>
</g>
<!-- Node12&#45;&gt;Node15 -->
<g id="edge21" class="edge">
<title>Node12&#45;&gt;Node15</title>
<path fill="none" stroke="midnightblue" d="M382.79,-112.32C393.49,-104.18 409.73,-91.84 422.55,-82.09"/>
<polygon fill="midnightblue" stroke="midnightblue" points="424.93,-84.67 430.77,-75.83 420.69,-79.1 424.93,-84.67"/>
</g>
<!-- Node16 -->
<g id="node16" class="node">
<title>Node16</title>
<g id="a_node16"><a xlink:title=" ">
<polygon fill="none" stroke="#bfbfbf" points="132.88,-56.5 132.88,-75.5 197.88,-75.5 197.88,-56.5 132.88,-56.5"/>
<text text-anchor="middle" x="165.38" y="-63.5" font-family="Helvetica,sans-Serif" font-size="10.00">sys/types.h</text>
</a>
</g>
</g>
<!-- Node12&#45;&gt;Node16 -->
<g id="edge22" class="edge">
<title>Node12&#45;&gt;Node16</title>
<path fill="none" stroke="midnightblue" d="M350.11,-115.42C316.64,-106.65 251.02,-89.45 207.69,-78.09"/>
<polygon fill="midnightblue" stroke="midnightblue" points="208.55,-74.7 197.99,-75.55 206.78,-81.47 208.55,-74.7"/>
</g>
<!-- Node17 -->
<g id="node17" class="node">
<title>Node17</title>
<g id="a_node17"><a xlink:title=" ">
<polygon fill="none" stroke="#bfbfbf" points="216.38,-56.5 216.38,-75.5 262.38,-75.5 262.38,-56.5 216.38,-56.5"/>
<text text-anchor="middle" x="239.38" y="-63.5" font-family="Helvetica,sans-Serif" font-size="10.00">errno.h</text>
</a>
</g>
</g>
<!-- Node12&#45;&gt;Node17 -->
<g id="edge23" class="edge">
<title>Node12&#45;&gt;Node17</title>
<path fill="none" stroke="midnightblue" d="M350.47,-112.44C328.65,-103.52 294.23,-89.44 269.49,-79.32"/>
<polygon fill="midnightblue" stroke="midnightblue" points="270.78,-76.06 260.2,-75.52 268.13,-82.54 270.78,-76.06"/>
</g>
</g>
</svg>
