<?xml version="1.0" encoding="UTF-8" standalone="no"?>
<!DOCTYPE svg PUBLIC "-//W3C//DTD SVG 1.1//EN"
 "http://www.w3.org/Graphics/SVG/1.1/DTD/svg11.dtd">
<!-- Generated by graphviz version 2.49.3 (20211027.1534)
 -->
<!-- Title: src/IBM_EIS/timeseries.c Pages: 1 -->
<svg width="300pt" height="196pt"
 viewBox="0.00 0.00 299.50 196.00" xmlns="http://www.w3.org/2000/svg" xmlns:xlink="http://www.w3.org/1999/xlink">
<g id="graph0" class="graph" transform="scale(1 1) rotate(0) translate(4 192)">
<title>src/IBM_EIS/timeseries.c</title>
<!-- Node1 -->
<g id="node1" class="node">
<title>Node1</title>
<g id="a_node1"><a xlink:title=" ">
<polygon fill="#bfbfbf" stroke="black" points="78.5,-168.5 78.5,-187.5 206.5,-187.5 206.5,-168.5 78.5,-168.5"/>
<text text-anchor="middle" x="142.5" y="-175.5" font-family="Helvetica,sans-Serif" font-size="10.00">src/IBM_EIS/timeseries.c</text>
</a>
</g>
</g>
<!-- Node2 -->
<g id="node2" class="node">
<title>Node2</title>
<g id="a_node2"><a xlink:href="timeseries_8h.html" target="_top" xlink:title=" ">
<polygon fill="none" stroke="black" points="87,-112.5 87,-131.5 198,-131.5 198,-112.5 87,-112.5"/>
<text text-anchor="middle" x="142.5" y="-119.5" font-family="Helvetica,sans-Serif" font-size="10.00">IBM_EIS/timeseries.h</text>
</a>
</g>
</g>
<!-- Node1&#45;&gt;Node2 -->
<g id="edge1" class="edge">
<title>Node1&#45;&gt;Node2</title>
<path fill="none" stroke="midnightblue" d="M142.5,-168.08C142.5,-161.01 142.5,-150.86 142.5,-141.99"/>
<polygon fill="midnightblue" stroke="midnightblue" points="146,-141.75 142.5,-131.75 139,-141.75 146,-141.75"/>
</g>
<!-- Node3 -->
<g id="node3" class="node">
<title>Node3</title>
<g id="a_node3"><a xlink:title=" ">
<polygon fill="none" stroke="#bfbfbf" points="0,-0.5 0,-19.5 59,-19.5 59,-0.5 0,-0.5"/>
<text text-anchor="middle" x="29.5" y="-7.5" font-family="Helvetica,sans-Serif" font-size="10.00">curl/curl.h</text>
</a>
</g>
</g>
<!-- Node2&#45;&gt;Node3 -->
<g id="edge2" class="edge">
<title>Node2&#45;&gt;Node3</title>
<path fill="none" stroke="midnightblue" d="M133.63,-112.37C114.65,-93.89 69.86,-50.29 45.67,-26.74"/>
<polygon fill="midnightblue" stroke="midnightblue" points="47.93,-24.06 38.33,-19.59 43.05,-29.07 47.93,-24.06"/>
</g>
<!-- Node4 -->
<g id="node4" class="node">
<title>Node4</title>
<g id="a_node4"><a xlink:title=" ">
<polygon fill="none" stroke="#bfbfbf" points="77,-0.5 77,-19.5 160,-19.5 160,-0.5 77,-0.5"/>
<text text-anchor="middle" x="118.5" y="-7.5" font-family="Helvetica,sans-Serif" font-size="10.00">cjson/cJSON.h</text>
</a>
</g>
</g>
<!-- Node2&#45;&gt;Node4 -->
<g id="edge3" class="edge">
<title>Node2&#45;&gt;Node4</title>
<path fill="none" stroke="midnightblue" d="M134.29,-112.18C126.96,-103.66 116.74,-90.02 112.5,-76 107.88,-60.75 110.15,-42.64 113.13,-29.41"/>
<polygon fill="midnightblue" stroke="midnightblue" points="116.54,-30.18 115.66,-19.62 109.77,-28.43 116.54,-30.18"/>
</g>
<!-- Node5 -->
<g id="node5" class="node">
<title>Node5</title>
<g id="a_node5"><a xlink:title=" ">
<polygon fill="none" stroke="#bfbfbf" points="181.5,-56.5 181.5,-75.5 227.5,-75.5 227.5,-56.5 181.5,-56.5"/>
<text text-anchor="middle" x="204.5" y="-63.5" font-family="Helvetica,sans-Serif" font-size="10.00">math.h</text>
</a>
</g>
</g>
<!-- Node2&#45;&gt;Node5 -->
<g id="edge4" class="edge">
<title>Node2&#45;&gt;Node5</title>
<path fill="none" stroke="midnightblue" d="M152.46,-112.32C161.63,-104.34 175.44,-92.31 186.53,-82.65"/>
<polygon fill="midnightblue" stroke="midnightblue" points="189.12,-85.04 194.36,-75.83 184.52,-79.76 189.12,-85.04"/>
</g>
<!-- Node6 -->
<g id="node6" class="node">
<title>Node6</title>
<g id="a_node6"><a xlink:title=" ">
<polygon fill="none" stroke="#bfbfbf" points="246,-56.5 246,-75.5 289,-75.5 289,-56.5 246,-56.5"/>
<text text-anchor="middle" x="267.5" y="-63.5" font-family="Helvetica,sans-Serif" font-size="10.00">time.h</text>
</a>
</g>
</g>
<!-- Node2&#45;&gt;Node6 -->
<g id="edge5" class="edge">
<title>Node2&#45;&gt;Node6</title>
<path fill="none" stroke="midnightblue" d="M162.31,-112.44C182.79,-103.6 214.98,-89.69 238.36,-79.59"/>
<polygon fill="midnightblue" stroke="midnightblue" points="239.99,-82.7 247.79,-75.52 237.22,-76.27 239.99,-82.7"/>
</g>
<!-- Node7 -->
<g id="node7" class="node">
<title>Node7</title>
<g id="a_node7"><a xlink:href="utils_8h.html" target="_top" xlink:title=" ">
<polygon fill="none" stroke="black" points="121.5,-56.5 121.5,-75.5 163.5,-75.5 163.5,-56.5 121.5,-56.5"/>
<text text-anchor="middle" x="142.5" y="-63.5" font-family="Helvetica,sans-Serif" font-size="10.00">utils.h</text>
</a>
</g>
</g>
<!-- Node2&#45;&gt;Node7 -->
<g id="edge6" class="edge">
<title>Node2&#45;&gt;Node7</title>
<path fill="none" stroke="midnightblue" d="M142.5,-112.08C142.5,-105.01 142.5,-94.86 142.5,-85.99"/>
<polygon fill="midnightblue" stroke="midnightblue" points="146,-85.75 142.5,-75.75 139,-85.75 146,-85.75"/>
</g>
<!-- Node7&#45;&gt;Node3 -->
<g id="edge9" class="edge">
<title>Node7&#45;&gt;Node3</title>
<path fill="none" stroke="midnightblue" d="M124.59,-56.44C106.25,-47.68 77.49,-33.94 56.41,-23.86"/>
<polygon fill="midnightblue" stroke="midnightblue" points="57.85,-20.67 47.32,-19.52 54.83,-26.99 57.85,-20.67"/>
</g>
<!-- Node7&#45;&gt;Node4 -->
<g id="edge10" class="edge">
<title>Node7&#45;&gt;Node4</title>
<path fill="none" stroke="midnightblue" d="M138.54,-56.08C135.29,-48.77 130.58,-38.18 126.55,-29.1"/>
<polygon fill="midnightblue" stroke="midnightblue" points="129.65,-27.47 122.39,-19.75 123.25,-30.31 129.65,-27.47"/>
</g>
<!-- Node8 -->
<g id="node8" class="node">
<title>Node8</title>
<g id="a_node8"><a xlink:title=" ">
<polygon fill="none" stroke="#bfbfbf" points="178,-0.5 178,-19.5 225,-19.5 225,-0.5 178,-0.5"/>
<text text-anchor="middle" x="201.5" y="-7.5" font-family="Helvetica,sans-Serif" font-size="10.00">stdlib.h</text>
</a>
</g>
</g>
<!-- Node7&#45;&gt;Node8 -->
<g id="edge7" class="edge">
<title>Node7&#45;&gt;Node8</title>
<path fill="none" stroke="midnightblue" d="M151.98,-56.32C160.7,-48.34 173.84,-36.31 184.4,-26.65"/>
<polygon fill="midnightblue" stroke="midnightblue" points="186.83,-29.17 191.85,-19.83 182.11,-24 186.83,-29.17"/>
</g>
<!-- Node9 -->
<g id="node9" class="node">
<title>Node9</title>
<g id="a_node9"><a xlink:title=" ">
<polygon fill="none" stroke="#bfbfbf" points="243.5,-0.5 243.5,-19.5 291.5,-19.5 291.5,-0.5 243.5,-0.5"/>
<text text-anchor="middle" x="267.5" y="-7.5" font-family="Helvetica,sans-Serif" font-size="10.00">string.h</text>
</a>
</g>
</g>
<!-- Node7&#45;&gt;Node9 -->
<g id="edge8" class="edge">
<title>Node7&#45;&gt;Node9</title>
<path fill="none" stroke="midnightblue" d="M162.31,-56.44C182.79,-47.6 214.98,-33.69 238.36,-23.59"/>
<polygon fill="midnightblue" stroke="midnightblue" points="239.99,-26.7 247.79,-19.52 237.22,-20.27 239.99,-26.7"/>
</g>
</g>
</svg>
