<?xml version="1.0" encoding="UTF-8" standalone="no"?>
<!DOCTYPE svg PUBLIC "-//W3C//DTD SVG 1.1//EN"
 "http://www.w3.org/Graphics/SVG/1.1/DTD/svg11.dtd">
<!-- Generated by graphviz version 2.49.3 (20211027.1534)
 -->
<!-- Title: include/IBM_EIS/timeseries.h Pages: 1 -->
<svg width="525pt" height="140pt"
 viewBox="0.00 0.00 525.00 140.00" xmlns="http://www.w3.org/2000/svg" xmlns:xlink="http://www.w3.org/1999/xlink">
<g id="graph0" class="graph" transform="scale(1 1) rotate(0) translate(4 136)">
<title>include/IBM_EIS/timeseries.h</title>
<!-- Node1 -->
<g id="node1" class="node">
<title>Node1</title>
<g id="a_node1"><a xlink:title=" ">
<polygon fill="#bfbfbf" stroke="black" points="130,-112.5 130,-131.5 275,-131.5 275,-112.5 130,-112.5"/>
<text text-anchor="middle" x="202.5" y="-119.5" font-family="Helvetica,sans-Serif" font-size="10.00">include/IBM_EIS/timeseries.h</text>
</a>
</g>
</g>
<!-- Node2 -->
<g id="node2" class="node">
<title>Node2</title>
<g id="a_node2"><a xlink:title=" ">
<polygon fill="none" stroke="#bfbfbf" points="0,-0.5 0,-19.5 59,-19.5 59,-0.5 0,-0.5"/>
<text text-anchor="middle" x="29.5" y="-7.5" font-family="Helvetica,sans-Serif" font-size="10.00">curl/curl.h</text>
</a>
</g>
</g>
<!-- Node1&#45;&gt;Node2 -->
<g id="edge1" class="edge">
<title>Node1&#45;&gt;Node2</title>
<path fill="none" stroke="midnightblue" d="M188.92,-112.37C159.24,-93.49 88.3,-48.38 51.89,-25.24"/>
<polygon fill="midnightblue" stroke="midnightblue" points="53.33,-22 43.01,-19.59 49.57,-27.91 53.33,-22"/>
</g>
<!-- Node3 -->
<g id="node3" class="node">
<title>Node3</title>
<g id="a_node3"><a xlink:title=" ">
<polygon fill="none" stroke="#bfbfbf" points="77,-0.5 77,-19.5 160,-19.5 160,-0.5 77,-0.5"/>
<text text-anchor="middle" x="118.5" y="-7.5" font-family="Helvetica,sans-Serif" font-size="10.00">cjson/cJSON.h</text>
</a>
</g>
</g>
<!-- Node1&#45;&gt;Node3 -->
<g id="edge2" class="edge">
<title>Node1&#45;&gt;Node3</title>
<path fill="none" stroke="midnightblue" d="M195.91,-112.37C181.98,-94.14 149.37,-51.43 131.23,-27.68"/>
<polygon fill="midnightblue" stroke="midnightblue" points="133.91,-25.41 125.06,-19.59 128.35,-29.66 133.91,-25.41"/>
</g>
<!-- Node4 -->
<g id="node4" class="node">
<title>Node4</title>
<g id="a_node4"><a xlink:title=" ">
<polygon fill="none" stroke="#bfbfbf" points="241.5,-56.5 241.5,-75.5 287.5,-75.5 287.5,-56.5 241.5,-56.5"/>
<text text-anchor="middle" x="264.5" y="-63.5" font-family="Helvetica,sans-Serif" font-size="10.00">math.h</text>
</a>
</g>
</g>
<!-- Node1&#45;&gt;Node4 -->
<g id="edge3" class="edge">
<title>Node1&#45;&gt;Node4</title>
<path fill="none" stroke="midnightblue" d="M212.46,-112.32C221.63,-104.34 235.44,-92.31 246.53,-82.65"/>
<polygon fill="midnightblue" stroke="midnightblue" points="249.12,-85.04 254.36,-75.83 244.52,-79.76 249.12,-85.04"/>
</g>
<!-- Node5 -->
<g id="node5" class="node">
<title>Node5</title>
<g id="a_node5"><a xlink:title=" ">
<polygon fill="none" stroke="#bfbfbf" points="306,-56.5 306,-75.5 349,-75.5 349,-56.5 306,-56.5"/>
<text text-anchor="middle" x="327.5" y="-63.5" font-family="Helvetica,sans-Serif" font-size="10.00">time.h</text>
</a>
</g>
</g>
<!-- Node1&#45;&gt;Node5 -->
<g id="edge4" class="edge">
<title>Node1&#45;&gt;Node5</title>
<path fill="none" stroke="midnightblue" d="M222.31,-112.44C242.79,-103.6 274.98,-89.69 298.36,-79.59"/>
<polygon fill="midnightblue" stroke="midnightblue" points="299.99,-82.7 307.79,-75.52 297.22,-76.27 299.99,-82.7"/>
</g>
<!-- Node6 -->
<g id="node6" class="node">
<title>Node6</title>
<g id="a_node6"><a xlink:href="utils_8h.html" target="_top" xlink:title=" ">
<polygon fill="none" stroke="black" points="181.5,-56.5 181.5,-75.5 223.5,-75.5 223.5,-56.5 181.5,-56.5"/>
<text text-anchor="middle" x="202.5" y="-63.5" font-family="Helvetica,sans-Serif" font-size="10.00">utils.h</text>
</a>
</g>
</g>
<!-- Node1&#45;&gt;Node6 -->
<g id="edge5" class="edge">
<title>Node1&#45;&gt;Node6</title>
<path fill="none" stroke="midnightblue" d="M202.5,-112.08C202.5,-105.01 202.5,-94.86 202.5,-85.99"/>
<polygon fill="midnightblue" stroke="midnightblue" points="206,-85.75 202.5,-75.75 199,-85.75 206,-85.75"/>
</g>
<!-- Node6&#45;&gt;Node2 -->
<g id="edge8" class="edge">
<title>Node6&#45;&gt;Node2</title>
<path fill="none" stroke="midnightblue" d="M181.29,-58.38C152.79,-49.48 101.7,-33.54 66.72,-22.62"/>
<polygon fill="midnightblue" stroke="midnightblue" points="67.47,-19.18 56.88,-19.55 65.38,-25.87 67.47,-19.18"/>
</g>
<!-- Node6&#45;&gt;Node3 -->
<g id="edge9" class="edge">
<title>Node6&#45;&gt;Node3</title>
<path fill="none" stroke="midnightblue" d="M189,-56.32C175.9,-47.9 155.79,-34.97 140.39,-25.07"/>
<polygon fill="midnightblue" stroke="midnightblue" points="142.27,-22.12 131.96,-19.65 138.48,-28.01 142.27,-22.12"/>
</g>
<!-- Node7 -->
<g id="node7" class="node">
<title>Node7</title>
<g id="a_node7"><a xlink:title=" ">
<polygon fill="none" stroke="#bfbfbf" points="470,-0.5 470,-19.5 517,-19.5 517,-0.5 470,-0.5"/>
<text text-anchor="middle" x="493.5" y="-7.5" font-family="Helvetica,sans-Serif" font-size="10.00">stdlib.h</text>
</a>
</g>
</g>
<!-- Node6&#45;&gt;Node7 -->
<g id="edge6" class="edge">
<title>Node6&#45;&gt;Node7</title>
<path fill="none" stroke="midnightblue" d="M223.71,-58.25C226.65,-57.43 229.64,-56.65 232.5,-56 329.4,-33.92 358.4,-41.04 459.74,-19.93"/>
<polygon fill="midnightblue" stroke="midnightblue" points="460.73,-23.3 469.78,-17.8 459.27,-16.46 460.73,-23.3"/>
</g>
<!-- Node8 -->
<g id="node8" class="node">
<title>Node8</title>
<g id="a_node8"><a xlink:title=" ">
<polygon fill="none" stroke="#bfbfbf" points="178.5,-0.5 178.5,-19.5 226.5,-19.5 226.5,-0.5 178.5,-0.5"/>
<text text-anchor="middle" x="202.5" y="-7.5" font-family="Helvetica,sans-Serif" font-size="10.00">string.h</text>
</a>
</g>
</g>
<!-- Node6&#45;&gt;Node8 -->
<g id="edge7" class="edge">
<title>Node6&#45;&gt;Node8</title>
<path fill="none" stroke="midnightblue" d="M202.5,-56.08C202.5,-49.01 202.5,-38.86 202.5,-29.99"/>
<polygon fill="midnightblue" stroke="midnightblue" points="206,-29.75 202.5,-19.75 199,-29.75 206,-29.75"/>
</g>
<!-- Node9 -->
<g id="node9" class="node">
<title>Node9</title>
<g id="a_node9"><a xlink:title=" ">
<polygon fill="none" stroke="#bfbfbf" points="245,-0.5 245,-19.5 304,-19.5 304,-0.5 245,-0.5"/>
<text text-anchor="middle" x="274.5" y="-7.5" font-family="Helvetica,sans-Serif" font-size="10.00">sys/stat.h</text>
</a>
</g>
</g>
<!-- Node6&#45;&gt;Node9 -->
<g id="edge10" class="edge">
<title>Node6&#45;&gt;Node9</title>
<path fill="none" stroke="midnightblue" d="M214.07,-56.32C224.92,-48.18 241.38,-35.84 254.38,-26.09"/>
<polygon fill="midnightblue" stroke="midnightblue" points="256.82,-28.63 262.72,-19.83 252.62,-23.03 256.82,-28.63"/>
</g>
<!-- Node10 -->
<g id="node10" class="node">
<title>Node10</title>
<g id="a_node10"><a xlink:title=" ">
<polygon fill="none" stroke="#bfbfbf" points="322,-0.5 322,-19.5 387,-19.5 387,-0.5 322,-0.5"/>
<text text-anchor="middle" x="354.5" y="-7.5" font-family="Helvetica,sans-Serif" font-size="10.00">sys/types.h</text>
</a>
</g>
</g>
<!-- Node6&#45;&gt;Node10 -->
<g id="edge11" class="edge">
<title>Node6&#45;&gt;Node10</title>
<path fill="none" stroke="midnightblue" d="M223.63,-57.49C248.85,-48.53 291.3,-33.45 321,-22.9"/>
<polygon fill="midnightblue" stroke="midnightblue" points="322.29,-26.16 330.54,-19.51 319.95,-19.56 322.29,-26.16"/>
</g>
<!-- Node11 -->
<g id="node11" class="node">
<title>Node11</title>
<g id="a_node11"><a xlink:title=" ">
<polygon fill="none" stroke="#bfbfbf" points="405.5,-0.5 405.5,-19.5 451.5,-19.5 451.5,-0.5 405.5,-0.5"/>
<text text-anchor="middle" x="428.5" y="-7.5" font-family="Helvetica,sans-Serif" font-size="10.00">errno.h</text>
</a>
</g>
</g>
<!-- Node6&#45;&gt;Node11 -->
<g id="edge12" class="edge">
<title>Node6&#45;&gt;Node11</title>
<path fill="none" stroke="midnightblue" d="M223.75,-58.41C226.68,-57.56 229.66,-56.74 232.5,-56 301.77,-38.03 322.43,-38.07 395.76,-20.06"/>
<polygon fill="midnightblue" stroke="midnightblue" points="396.61,-23.46 405.47,-17.65 394.92,-16.67 396.61,-23.46"/>
</g>
</g>
</svg>
