<?xml version="1.0" encoding="UTF-8" standalone="no"?>
<!DOCTYPE svg PUBLIC "-//W3C//DTD SVG 1.1//EN"
 "http://www.w3.org/Graphics/SVG/1.1/DTD/svg11.dtd">
<!-- Generated by graphviz version 2.49.3 (20211027.1534)
 -->
<!-- Title: include/IBM_EIS/timeseries.h Pages: 1 -->
<svg width="567pt" height="196pt"
 viewBox="0.00 0.00 566.93 196.00" xmlns="http://www.w3.org/2000/svg" xmlns:xlink="http://www.w3.org/1999/xlink">
<g id="graph0" class="graph" transform="scale(1 1) rotate(0) translate(4 192)">
<title>include/IBM_EIS/timeseries.h</title>
<!-- Node1 -->
<g id="node1" class="node">
<title>Node1</title>
<g id="a_node1"><a xlink:title=" ">
<polygon fill="#bfbfbf" stroke="black" points="36.93,-168.5 36.93,-187.5 181.93,-187.5 181.93,-168.5 36.93,-168.5"/>
<text text-anchor="middle" x="109.43" y="-175.5" font-family="Helvetica,sans-Serif" font-size="10.00">include/IBM_EIS/timeseries.h</text>
</a>
</g>
</g>
<!-- Node2 -->
<g id="node2" class="node">
<title>Node2</title>
<g id="a_node2"><a xlink:title=" ">
<polygon fill="none" stroke="#bfbfbf" points="41.93,-0.5 41.93,-19.5 100.93,-19.5 100.93,-0.5 41.93,-0.5"/>
<text text-anchor="middle" x="71.43" y="-7.5" font-family="Helvetica,sans-Serif" font-size="10.00">curl/curl.h</text>
</a>
</g>
</g>
<!-- Node1&#45;&gt;Node2 -->
<g id="edge1" class="edge">
<title>Node1&#45;&gt;Node2</title>
<path fill="none" stroke="midnightblue" d="M77.43,-168.44C57.77,-161.62 33.55,-150.14 18.43,-132 1.85,-112.12 6.02,-101.63 2.43,-76 1.19,-67.2 -1.81,-63.82 2.43,-56 10.17,-41.7 24.66,-31.22 38.37,-23.99"/>
<polygon fill="midnightblue" stroke="midnightblue" points="40.16,-27.01 47.64,-19.5 37.11,-20.71 40.16,-27.01"/>
</g>
<!-- Node3 -->
<g id="node3" class="node">
<title>Node3</title>
<g id="a_node3"><a xlink:title=" ">
<polygon fill="none" stroke="#bfbfbf" points="118.93,-0.5 118.93,-19.5 201.93,-19.5 201.93,-0.5 118.93,-0.5"/>
<text text-anchor="middle" x="160.43" y="-7.5" font-family="Helvetica,sans-Serif" font-size="10.00">cjson/cJSON.h</text>
</a>
</g>
</g>
<!-- Node1&#45;&gt;Node3 -->
<g id="edge2" class="edge">
<title>Node1&#45;&gt;Node3</title>
<path fill="none" stroke="midnightblue" d="M171.85,-168.45C193.75,-162.12 216.18,-151.11 229.43,-132 254.64,-95.61 208.51,-49.39 180.18,-26.01"/>
<polygon fill="midnightblue" stroke="midnightblue" points="182.05,-23.03 172.05,-19.52 177.68,-28.5 182.05,-23.03"/>
</g>
<!-- Node4 -->
<g id="node4" class="node">
<title>Node4</title>
<g id="a_node4"><a xlink:title=" ">
<polygon fill="none" stroke="#bfbfbf" points="36.43,-112.5 36.43,-131.5 82.43,-131.5 82.43,-112.5 36.43,-112.5"/>
<text text-anchor="middle" x="59.43" y="-119.5" font-family="Helvetica,sans-Serif" font-size="10.00">math.h</text>
</a>
</g>
</g>
<!-- Node1&#45;&gt;Node4 -->
<g id="edge3" class="edge">
<title>Node1&#45;&gt;Node4</title>
<path fill="none" stroke="midnightblue" d="M101.17,-168.08C93.96,-160.3 83.32,-148.8 74.58,-139.37"/>
<polygon fill="midnightblue" stroke="midnightblue" points="76.89,-136.71 67.53,-131.75 71.75,-141.47 76.89,-136.71"/>
</g>
<!-- Node5 -->
<g id="node5" class="node">
<title>Node5</title>
<g id="a_node5"><a xlink:title=" ">
<polygon fill="none" stroke="#bfbfbf" points="11.93,-56.5 11.93,-75.5 54.93,-75.5 54.93,-56.5 11.93,-56.5"/>
<text text-anchor="middle" x="33.43" y="-63.5" font-family="Helvetica,sans-Serif" font-size="10.00">time.h</text>
</a>
</g>
</g>
<!-- Node1&#45;&gt;Node5 -->
<g id="edge4" class="edge">
<title>Node1&#45;&gt;Node5</title>
<path fill="none" stroke="midnightblue" d="M77.62,-168.38C59.48,-161.66 38.26,-150.31 27.43,-132 19.14,-117.99 22.03,-99.25 26.18,-85.49"/>
<polygon fill="midnightblue" stroke="midnightblue" points="29.6,-86.3 29.58,-75.7 22.99,-84 29.6,-86.3"/>
</g>
<!-- Node6 -->
<g id="node6" class="node">
<title>Node6</title>
<g id="a_node6"><a xlink:href="_i_b_m___e_i_s_2authenticate_8h.html" target="_top" xlink:title=" ">
<polygon fill="none" stroke="black" points="100.93,-112.5 100.93,-131.5 219.93,-131.5 219.93,-112.5 100.93,-112.5"/>
<text text-anchor="middle" x="160.43" y="-119.5" font-family="Helvetica,sans-Serif" font-size="10.00">IBM_EIS/authenticate.h</text>
</a>
</g>
</g>
<!-- Node1&#45;&gt;Node6 -->
<g id="edge5" class="edge">
<title>Node1&#45;&gt;Node6</title>
<path fill="none" stroke="midnightblue" d="M117.85,-168.08C125.27,-160.22 136.28,-148.57 145.24,-139.08"/>
<polygon fill="midnightblue" stroke="midnightblue" points="147.84,-141.42 152.16,-131.75 142.75,-136.62 147.84,-141.42"/>
</g>
<!-- Node7 -->
<g id="node7" class="node">
<title>Node7</title>
<g id="a_node7"><a xlink:href="utils_8h.html" target="_top" xlink:title=" ">
<polygon fill="none" stroke="black" points="276.43,-56.5 276.43,-75.5 318.43,-75.5 318.43,-56.5 276.43,-56.5"/>
<text text-anchor="middle" x="297.43" y="-63.5" font-family="Helvetica,sans-Serif" font-size="10.00">utils.h</text>
</a>
</g>
</g>
<!-- Node1&#45;&gt;Node7 -->
<g id="edge17" class="edge">
<title>Node1&#45;&gt;Node7</title>
<path fill="none" stroke="midnightblue" d="M179.26,-168.42C207.48,-162.09 238.88,-151.1 262.43,-132 277.32,-119.92 286.77,-99.74 292.04,-85.07"/>
<polygon fill="midnightblue" stroke="midnightblue" points="295.37,-86.15 295.16,-75.55 288.72,-83.97 295.37,-86.15"/>
</g>
<!-- Node6&#45;&gt;Node2 -->
<g id="edge6" class="edge">
<title>Node6&#45;&gt;Node2</title>
<path fill="none" stroke="midnightblue" d="M153.44,-112.37C138.69,-94.14 104.13,-51.43 84.92,-27.68"/>
<polygon fill="midnightblue" stroke="midnightblue" points="87.39,-25.16 78.38,-19.59 81.95,-29.57 87.39,-25.16"/>
</g>
<!-- Node6&#45;&gt;Node3 -->
<g id="edge7" class="edge">
<title>Node6&#45;&gt;Node3</title>
<path fill="none" stroke="midnightblue" d="M160.43,-112.37C160.43,-94.62 160.43,-53.67 160.43,-29.6"/>
<polygon fill="midnightblue" stroke="midnightblue" points="163.93,-29.59 160.43,-19.59 156.93,-29.59 163.93,-29.59"/>
</g>
<!-- Node6&#45;&gt;Node5 -->
<g id="edge8" class="edge">
<title>Node6&#45;&gt;Node5</title>
<path fill="none" stroke="midnightblue" d="M140.3,-112.44C119.4,-103.56 86.49,-89.56 62.71,-79.45"/>
<polygon fill="midnightblue" stroke="midnightblue" points="64.03,-76.21 53.45,-75.52 61.29,-82.65 64.03,-76.21"/>
</g>
<!-- Node6&#45;&gt;Node7 -->
<g id="edge9" class="edge">
<title>Node6&#45;&gt;Node7</title>
<path fill="none" stroke="midnightblue" d="M182.13,-112.44C204.91,-103.46 240.92,-89.27 266.63,-79.14"/>
<polygon fill="midnightblue" stroke="midnightblue" points="268.25,-82.26 276.27,-75.34 265.68,-75.75 268.25,-82.26"/>
</g>
<!-- Node7&#45;&gt;Node2 -->
<g id="edge12" class="edge">
<title>Node7&#45;&gt;Node2</title>
<path fill="none" stroke="midnightblue" d="M276.16,-59.92C238.31,-50.88 158.71,-31.85 110.67,-20.38"/>
<polygon fill="midnightblue" stroke="midnightblue" points="111.47,-16.97 100.93,-18.05 109.84,-23.78 111.47,-16.97"/>
</g>
<!-- Node7&#45;&gt;Node3 -->
<g id="edge13" class="edge">
<title>Node7&#45;&gt;Node3</title>
<path fill="none" stroke="midnightblue" d="M276.32,-56.68C253.69,-47.76 217.53,-33.51 191.61,-23.29"/>
<polygon fill="midnightblue" stroke="midnightblue" points="192.82,-20.01 182.23,-19.6 190.25,-26.52 192.82,-20.01"/>
</g>
<!-- Node8 -->
<g id="node8" class="node">
<title>Node8</title>
<g id="a_node8"><a xlink:title=" ">
<polygon fill="none" stroke="#bfbfbf" points="511.93,-0.5 511.93,-19.5 558.93,-19.5 558.93,-0.5 511.93,-0.5"/>
<text text-anchor="middle" x="535.43" y="-7.5" font-family="Helvetica,sans-Serif" font-size="10.00">stdlib.h</text>
</a>
</g>
</g>
<!-- Node7&#45;&gt;Node8 -->
<g id="edge10" class="edge">
<title>Node7&#45;&gt;Node8</title>
<path fill="none" stroke="midnightblue" d="M318.46,-60.75C354.08,-53.46 428.77,-37.87 501.84,-20.05"/>
<polygon fill="midnightblue" stroke="midnightblue" points="502.79,-23.42 511.67,-17.63 501.12,-16.62 502.79,-23.42"/>
</g>
<!-- Node9 -->
<g id="node9" class="node">
<title>Node9</title>
<g id="a_node9"><a xlink:title=" ">
<polygon fill="none" stroke="#bfbfbf" points="220.43,-0.5 220.43,-19.5 268.43,-19.5 268.43,-0.5 220.43,-0.5"/>
<text text-anchor="middle" x="244.43" y="-7.5" font-family="Helvetica,sans-Serif" font-size="10.00">string.h</text>
</a>
</g>
</g>
<!-- Node7&#45;&gt;Node9 -->
<g id="edge11" class="edge">
<title>Node7&#45;&gt;Node9</title>
<path fill="none" stroke="midnightblue" d="M288.67,-56.08C280.96,-48.22 269.52,-36.57 260.21,-27.08"/>
<polygon fill="midnightblue" stroke="midnightblue" points="262.52,-24.44 253.01,-19.75 257.52,-29.34 262.52,-24.44"/>
</g>
<!-- Node10 -->
<g id="node10" class="node">
<title>Node10</title>
<g id="a_node10"><a xlink:title=" ">
<polygon fill="none" stroke="#bfbfbf" points="286.93,-0.5 286.93,-19.5 345.93,-19.5 345.93,-0.5 286.93,-0.5"/>
<text text-anchor="middle" x="316.43" y="-7.5" font-family="Helvetica,sans-Serif" font-size="10.00">sys/stat.h</text>
</a>
</g>
</g>
<!-- Node7&#45;&gt;Node10 -->
<g id="edge14" class="edge">
<title>Node7&#45;&gt;Node10</title>
<path fill="none" stroke="midnightblue" d="M300.56,-56.08C303.11,-48.85 306.78,-38.41 309.95,-29.4"/>
<polygon fill="midnightblue" stroke="midnightblue" points="313.33,-30.35 313.35,-19.75 306.73,-28.02 313.33,-30.35"/>
</g>
<!-- Node11 -->
<g id="node11" class="node">
<title>Node11</title>
<g id="a_node11"><a xlink:title=" ">
<polygon fill="none" stroke="#bfbfbf" points="363.93,-0.5 363.93,-19.5 428.93,-19.5 428.93,-0.5 363.93,-0.5"/>
<text text-anchor="middle" x="396.43" y="-7.5" font-family="Helvetica,sans-Serif" font-size="10.00">sys/types.h</text>
</a>
</g>
</g>
<!-- Node7&#45;&gt;Node11 -->
<g id="edge15" class="edge">
<title>Node7&#45;&gt;Node11</title>
<path fill="none" stroke="midnightblue" d="M313.33,-56.32C329.06,-47.74 353.37,-34.49 371.63,-24.52"/>
<polygon fill="midnightblue" stroke="midnightblue" points="373.46,-27.52 380.56,-19.65 370.1,-21.37 373.46,-27.52"/>
</g>
<!-- Node12 -->
<g id="node12" class="node">
<title>Node12</title>
<g id="a_node12"><a xlink:title=" ">
<polygon fill="none" stroke="#bfbfbf" points="447.43,-0.5 447.43,-19.5 493.43,-19.5 493.43,-0.5 447.43,-0.5"/>
<text text-anchor="middle" x="470.43" y="-7.5" font-family="Helvetica,sans-Serif" font-size="10.00">errno.h</text>
</a>
</g>
</g>
<!-- Node7&#45;&gt;Node12 -->
<g id="edge16" class="edge">
<title>Node7&#45;&gt;Node12</title>
<path fill="none" stroke="midnightblue" d="M318.64,-58.38C348.37,-49.1 402.69,-32.14 437.64,-21.23"/>
<polygon fill="midnightblue" stroke="midnightblue" points="438.88,-24.51 447.39,-18.19 436.8,-17.83 438.88,-24.51"/>
</g>
</g>
</svg>
