<?xml version="1.0" encoding="UTF-8" standalone="no"?>
<!DOCTYPE svg PUBLIC "-//W3C//DTD SVG 1.1//EN"
 "http://www.w3.org/Graphics/SVG/1.1/DTD/svg11.dtd">
<!-- Generated by graphviz version 2.49.3 (20211027.1534)
 -->
<!-- Title: include/IBM_EIS/timeseries.h Pages: 1 -->
<svg width="695pt" height="252pt"
 viewBox="0.00 0.00 695.46 252.00" xmlns="http://www.w3.org/2000/svg" xmlns:xlink="http://www.w3.org/1999/xlink">
<g id="graph0" class="graph" transform="scale(1 1) rotate(0) translate(4 248)">
<title>include/IBM_EIS/timeseries.h</title>
<!-- Node1 -->
<g id="node1" class="node">
<title>Node1</title>
<g id="a_node1"><a xlink:title=" ">
<polygon fill="#bfbfbf" stroke="black" points="388.96,-224.5 388.96,-243.5 533.96,-243.5 533.96,-224.5 388.96,-224.5"/>
<text text-anchor="middle" x="461.46" y="-231.5" font-family="Helvetica,sans-Serif" font-size="10.00">include/IBM_EIS/timeseries.h</text>
</a>
</g>
</g>
<!-- Node2 -->
<g id="node2" class="node">
<title>Node2</title>
<g id="a_node2"><a xlink:title=" ">
<polygon fill="none" stroke="#bfbfbf" points="583.96,-56.5 583.96,-75.5 642.96,-75.5 642.96,-56.5 583.96,-56.5"/>
<text text-anchor="middle" x="613.46" y="-63.5" font-family="Helvetica,sans-Serif" font-size="10.00">curl/curl.h</text>
</a>
</g>
</g>
<!-- Node1&#45;&gt;Node2 -->
<g id="edge1" class="edge">
<title>Node1&#45;&gt;Node2</title>
<path fill="none" stroke="midnightblue" d="M487.22,-224.41C506.02,-217.1 531.13,-205.06 548.46,-188 578.79,-158.14 598.43,-111.09 607.54,-85.34"/>
<polygon fill="midnightblue" stroke="midnightblue" points="610.9,-86.32 610.8,-75.72 604.27,-84.07 610.9,-86.32"/>
</g>
<!-- Node3 -->
<g id="node3" class="node">
<title>Node3</title>
<g id="a_node3"><a xlink:title=" ">
<polygon fill="none" stroke="#bfbfbf" points="31.96,-56.5 31.96,-75.5 114.96,-75.5 114.96,-56.5 31.96,-56.5"/>
<text text-anchor="middle" x="73.46" y="-63.5" font-family="Helvetica,sans-Serif" font-size="10.00">cjson/cJSON.h</text>
</a>
</g>
</g>
<!-- Node1&#45;&gt;Node3 -->
<g id="edge2" class="edge">
<title>Node1&#45;&gt;Node3</title>
<path fill="none" stroke="midnightblue" d="M441.42,-224.42C377.56,-197.1 178.65,-112 103.03,-79.65"/>
<polygon fill="midnightblue" stroke="midnightblue" points="104.19,-76.34 93.62,-75.62 101.44,-82.78 104.19,-76.34"/>
</g>
<!-- Node4 -->
<g id="node4" class="node">
<title>Node4</title>
<g id="a_node4"><a xlink:title=" ">
<polygon fill="none" stroke="#bfbfbf" points="641.46,-168.5 641.46,-187.5 687.46,-187.5 687.46,-168.5 641.46,-168.5"/>
<text text-anchor="middle" x="664.46" y="-175.5" font-family="Helvetica,sans-Serif" font-size="10.00">math.h</text>
</a>
</g>
</g>
<!-- Node1&#45;&gt;Node4 -->
<g id="edge3" class="edge">
<title>Node1&#45;&gt;Node4</title>
<path fill="none" stroke="midnightblue" d="M493.63,-224.44C531.23,-214.44 593.16,-197.97 631.22,-187.84"/>
<polygon fill="midnightblue" stroke="midnightblue" points="632.52,-191.12 641.29,-185.16 630.72,-184.35 632.52,-191.12"/>
</g>
<!-- Node5 -->
<g id="node5" class="node">
<title>Node5</title>
<g id="a_node5"><a xlink:title=" ">
<polygon fill="none" stroke="#bfbfbf" points="430.96,-0.5 430.96,-19.5 473.96,-19.5 473.96,-0.5 430.96,-0.5"/>
<text text-anchor="middle" x="452.46" y="-7.5" font-family="Helvetica,sans-Serif" font-size="10.00">time.h</text>
</a>
</g>
</g>
<!-- Node1&#45;&gt;Node5 -->
<g id="edge4" class="edge">
<title>Node1&#45;&gt;Node5</title>
<path fill="none" stroke="midnightblue" d="M388.73,-228.59C237.77,-216.91 -86.78,-177.27 22.46,-56 49.04,-26.5 325.45,-15.02 420.54,-11.93"/>
<polygon fill="midnightblue" stroke="midnightblue" points="420.81,-15.42 430.7,-11.61 420.59,-8.43 420.81,-15.42"/>
</g>
<!-- Node6 -->
<g id="node6" class="node">
<title>Node6</title>
<g id="a_node6"><a xlink:href="log_8h.html" target="_top" xlink:title=" ">
<polygon fill="none" stroke="black" points="528.96,-56.5 528.96,-75.5 565.96,-75.5 565.96,-56.5 528.96,-56.5"/>
<text text-anchor="middle" x="547.46" y="-63.5" font-family="Helvetica,sans-Serif" font-size="10.00">log.h</text>
</a>
</g>
</g>
<!-- Node1&#45;&gt;Node6 -->
<g id="edge5" class="edge">
<title>Node1&#45;&gt;Node6</title>
<path fill="none" stroke="midnightblue" d="M483.84,-224.37C499.53,-217.11 519.57,-205.14 530.46,-188 550.5,-156.48 551.02,-111.1 549.39,-85.82"/>
<polygon fill="midnightblue" stroke="midnightblue" points="552.86,-85.41 548.55,-75.74 545.89,-85.99 552.86,-85.41"/>
</g>
<!-- Node10 -->
<g id="node10" class="node">
<title>Node10</title>
<g id="a_node10"><a xlink:href="_i_b_m___e_i_s_2authenticate_8h.html" target="_top" xlink:title=" ">
<polygon fill="none" stroke="black" points="401.96,-168.5 401.96,-187.5 520.96,-187.5 520.96,-168.5 401.96,-168.5"/>
<text text-anchor="middle" x="461.46" y="-175.5" font-family="Helvetica,sans-Serif" font-size="10.00">IBM_EIS/authenticate.h</text>
</a>
</g>
</g>
<!-- Node1&#45;&gt;Node10 -->
<g id="edge10" class="edge">
<title>Node1&#45;&gt;Node10</title>
<path fill="none" stroke="midnightblue" d="M461.46,-224.08C461.46,-217.01 461.46,-206.86 461.46,-197.99"/>
<polygon fill="midnightblue" stroke="midnightblue" points="464.96,-197.75 461.46,-187.75 457.96,-197.75 464.96,-197.75"/>
</g>
<!-- Node11 -->
<g id="node11" class="node">
<title>Node11</title>
<g id="a_node11"><a xlink:href="utils_8h.html" target="_top" xlink:title=" ">
<polygon fill="none" stroke="black" points="350.46,-112.5 350.46,-131.5 392.46,-131.5 392.46,-112.5 350.46,-112.5"/>
<text text-anchor="middle" x="371.46" y="-119.5" font-family="Helvetica,sans-Serif" font-size="10.00">utils.h</text>
</a>
</g>
</g>
<!-- Node1&#45;&gt;Node11 -->
<g id="edge24" class="edge">
<title>Node1&#45;&gt;Node11</title>
<path fill="none" stroke="midnightblue" d="M441.22,-224.4C425.8,-216.89 405.14,-204.59 392.46,-188 382.12,-174.47 376.77,-155.66 374.07,-141.76"/>
<polygon fill="midnightblue" stroke="midnightblue" points="377.52,-141.15 372.43,-131.86 370.61,-142.29 377.52,-141.15"/>
</g>
<!-- Node6&#45;&gt;Node5 -->
<g id="edge9" class="edge">
<title>Node6&#45;&gt;Node5</title>
<path fill="none" stroke="midnightblue" d="M532.2,-56.32C517.24,-47.82 494.21,-34.73 476.74,-24.8"/>
<polygon fill="midnightblue" stroke="midnightblue" points="478.11,-21.55 467.69,-19.65 474.65,-27.64 478.11,-21.55"/>
</g>
<!-- Node7 -->
<g id="node7" class="node">
<title>Node7</title>
<g id="a_node7"><a xlink:title=" ">
<polygon fill="none" stroke="#bfbfbf" points="491.96,-0.5 491.96,-19.5 536.96,-19.5 536.96,-0.5 491.96,-0.5"/>
<text text-anchor="middle" x="514.46" y="-7.5" font-family="Helvetica,sans-Serif" font-size="10.00">stdio.h</text>
</a>
</g>
</g>
<!-- Node6&#45;&gt;Node7 -->
<g id="edge6" class="edge">
<title>Node6&#45;&gt;Node7</title>
<path fill="none" stroke="midnightblue" d="M542.01,-56.08C537.45,-48.61 530.79,-37.72 525.17,-28.52"/>
<polygon fill="midnightblue" stroke="midnightblue" points="528.01,-26.46 519.81,-19.75 522.04,-30.11 528.01,-26.46"/>
</g>
<!-- Node8 -->
<g id="node8" class="node">
<title>Node8</title>
<g id="a_node8"><a xlink:title=" ">
<polygon fill="none" stroke="#bfbfbf" points="554.96,-0.5 554.96,-19.5 605.96,-19.5 605.96,-0.5 554.96,-0.5"/>
<text text-anchor="middle" x="580.46" y="-7.5" font-family="Helvetica,sans-Serif" font-size="10.00">stdarg.h</text>
</a>
</g>
</g>
<!-- Node6&#45;&gt;Node8 -->
<g id="edge7" class="edge">
<title>Node6&#45;&gt;Node8</title>
<path fill="none" stroke="midnightblue" d="M552.91,-56.08C557.48,-48.61 564.13,-37.72 569.76,-28.52"/>
<polygon fill="midnightblue" stroke="midnightblue" points="572.89,-30.11 575.11,-19.75 566.91,-26.46 572.89,-30.11"/>
</g>
<!-- Node9 -->
<g id="node9" class="node">
<title>Node9</title>
<g id="a_node9"><a xlink:title=" ">
<polygon fill="none" stroke="#bfbfbf" points="624.46,-0.5 624.46,-19.5 680.46,-19.5 680.46,-0.5 624.46,-0.5"/>
<text text-anchor="middle" x="652.46" y="-7.5" font-family="Helvetica,sans-Serif" font-size="10.00">stdbool.h</text>
</a>
</g>
</g>
<!-- Node6&#45;&gt;Node9 -->
<g id="edge8" class="edge">
<title>Node6&#45;&gt;Node9</title>
<path fill="none" stroke="midnightblue" d="M564.33,-56.32C581.17,-47.66 607.27,-34.24 626.7,-24.25"/>
<polygon fill="midnightblue" stroke="midnightblue" points="628.34,-27.34 635.63,-19.65 625.14,-21.12 628.34,-27.34"/>
</g>
<!-- Node10&#45;&gt;Node2 -->
<g id="edge11" class="edge">
<title>Node10&#45;&gt;Node2</title>
<path fill="none" stroke="midnightblue" d="M473.39,-168.37C499.36,-149.57 561.27,-104.77 593.38,-81.53"/>
<polygon fill="midnightblue" stroke="midnightblue" points="595.54,-84.29 601.59,-75.59 591.44,-78.62 595.54,-84.29"/>
</g>
<!-- Node10&#45;&gt;Node3 -->
<g id="edge12" class="edge">
<title>Node10&#45;&gt;Node3</title>
<path fill="none" stroke="midnightblue" d="M431.34,-168.46C362.07,-148.82 191.45,-100.45 113.49,-78.35"/>
<polygon fill="midnightblue" stroke="midnightblue" points="114.14,-74.89 103.57,-75.53 112.23,-81.63 114.14,-74.89"/>
</g>
<!-- Node10&#45;&gt;Node5 -->
<g id="edge13" class="edge">
<title>Node10&#45;&gt;Node5</title>
<path fill="none" stroke="midnightblue" d="M465.34,-168.34C473.79,-148.25 492.2,-97.1 480.46,-56 477.56,-45.84 471.63,-35.75 465.97,-27.7"/>
<polygon fill="midnightblue" stroke="midnightblue" points="468.68,-25.48 459.87,-19.59 463.09,-29.69 468.68,-25.48"/>
</g>
<!-- Node10&#45;&gt;Node6 -->
<g id="edge14" class="edge">
<title>Node10&#45;&gt;Node6</title>
<path fill="none" stroke="midnightblue" d="M468.21,-168.37C482.47,-150.14 515.86,-107.43 534.43,-83.68"/>
<polygon fill="midnightblue" stroke="midnightblue" points="537.34,-85.63 540.75,-75.59 531.83,-81.31 537.34,-85.63"/>
</g>
<!-- Node10&#45;&gt;Node11 -->
<g id="edge15" class="edge">
<title>Node10&#45;&gt;Node11</title>
<path fill="none" stroke="midnightblue" d="M447,-168.32C432.96,-159.9 411.41,-146.97 394.92,-137.07"/>
<polygon fill="midnightblue" stroke="midnightblue" points="396.26,-133.8 385.89,-131.65 392.66,-139.8 396.26,-133.8"/>
</g>
<!-- Node11&#45;&gt;Node2 -->
<g id="edge18" class="edge">
<title>Node11&#45;&gt;Node2</title>
<path fill="none" stroke="midnightblue" d="M392.63,-116.44C428.05,-108.8 501.8,-92.77 573.5,-76.43"/>
<polygon fill="midnightblue" stroke="midnightblue" points="574.63,-79.76 583.6,-74.12 573.07,-72.93 574.63,-79.76"/>
</g>
<!-- Node11&#45;&gt;Node3 -->
<g id="edge19" class="edge">
<title>Node11&#45;&gt;Node3</title>
<path fill="none" stroke="midnightblue" d="M350.03,-117.12C303.41,-108.67 191.67,-88.42 125.37,-76.41"/>
<polygon fill="midnightblue" stroke="midnightblue" points="125.6,-72.89 115.13,-74.55 124.35,-79.78 125.6,-72.89"/>
</g>
<!-- Node11&#45;&gt;Node6 -->
<g id="edge23" class="edge">
<title>Node11&#45;&gt;Node6</title>
<path fill="none" stroke="midnightblue" d="M392.69,-114.49C424.31,-104.78 483.84,-86.52 519.14,-75.69"/>
<polygon fill="midnightblue" stroke="midnightblue" points="520.3,-79 528.83,-72.72 518.25,-72.3 520.3,-79"/>
</g>
<!-- Node12 -->
<g id="node12" class="node">
<title>Node12</title>
<g id="a_node12"><a xlink:title=" ">
<polygon fill="none" stroke="#bfbfbf" points="280.96,-56.5 280.96,-75.5 327.96,-75.5 327.96,-56.5 280.96,-56.5"/>
<text text-anchor="middle" x="304.46" y="-63.5" font-family="Helvetica,sans-Serif" font-size="10.00">stdlib.h</text>
</a>
</g>
</g>
<!-- Node11&#45;&gt;Node12 -->
<g id="edge16" class="edge">
<title>Node11&#45;&gt;Node12</title>
<path fill="none" stroke="midnightblue" d="M360.7,-112.32C350.7,-104.26 335.58,-92.08 323.53,-82.37"/>
<polygon fill="midnightblue" stroke="midnightblue" points="325.4,-79.38 315.42,-75.83 321.01,-84.83 325.4,-79.38"/>
</g>
<!-- Node13 -->
<g id="node13" class="node">
<title>Node13</title>
<g id="a_node13"><a xlink:title=" ">
<polygon fill="none" stroke="#bfbfbf" points="346.46,-56.5 346.46,-75.5 394.46,-75.5 394.46,-56.5 346.46,-56.5"/>
<text text-anchor="middle" x="370.46" y="-63.5" font-family="Helvetica,sans-Serif" font-size="10.00">string.h</text>
</a>
</g>
</g>
<!-- Node11&#45;&gt;Node13 -->
<g id="edge17" class="edge">
<title>Node11&#45;&gt;Node13</title>
<path fill="none" stroke="midnightblue" d="M371.3,-112.08C371.17,-105.01 370.98,-94.86 370.81,-85.99"/>
<polygon fill="midnightblue" stroke="midnightblue" points="374.31,-85.68 370.62,-75.75 367.31,-85.81 374.31,-85.68"/>
</g>
<!-- Node14 -->
<g id="node14" class="node">
<title>Node14</title>
<g id="a_node14"><a xlink:title=" ">
<polygon fill="none" stroke="#bfbfbf" points="412.96,-56.5 412.96,-75.5 471.96,-75.5 471.96,-56.5 412.96,-56.5"/>
<text text-anchor="middle" x="442.46" y="-63.5" font-family="Helvetica,sans-Serif" font-size="10.00">sys/stat.h</text>
</a>
</g>
</g>
<!-- Node11&#45;&gt;Node14 -->
<g id="edge20" class="edge">
<title>Node11&#45;&gt;Node14</title>
<path fill="none" stroke="midnightblue" d="M382.87,-112.32C393.57,-104.18 409.8,-91.84 422.62,-82.09"/>
<polygon fill="midnightblue" stroke="midnightblue" points="425.01,-84.67 430.85,-75.83 420.77,-79.1 425.01,-84.67"/>
</g>
<!-- Node15 -->
<g id="node15" class="node">
<title>Node15</title>
<g id="a_node15"><a xlink:title=" ">
<polygon fill="none" stroke="#bfbfbf" points="132.96,-56.5 132.96,-75.5 197.96,-75.5 197.96,-56.5 132.96,-56.5"/>
<text text-anchor="middle" x="165.46" y="-63.5" font-family="Helvetica,sans-Serif" font-size="10.00">sys/types.h</text>
</a>
</g>
</g>
<!-- Node11&#45;&gt;Node15 -->
<g id="edge21" class="edge">
<title>Node11&#45;&gt;Node15</title>
<path fill="none" stroke="midnightblue" d="M350.19,-115.42C316.72,-106.65 251.1,-89.45 207.76,-78.09"/>
<polygon fill="midnightblue" stroke="midnightblue" points="208.63,-74.7 198.07,-75.55 206.86,-81.47 208.63,-74.7"/>
</g>
<!-- Node16 -->
<g id="node16" class="node">
<title>Node16</title>
<g id="a_node16"><a xlink:title=" ">
<polygon fill="none" stroke="#bfbfbf" points="216.46,-56.5 216.46,-75.5 262.46,-75.5 262.46,-56.5 216.46,-56.5"/>
<text text-anchor="middle" x="239.46" y="-63.5" font-family="Helvetica,sans-Serif" font-size="10.00">errno.h</text>
</a>
</g>
</g>
<!-- Node11&#45;&gt;Node16 -->
<g id="edge22" class="edge">
<title>Node11&#45;&gt;Node16</title>
<path fill="none" stroke="midnightblue" d="M350.55,-112.44C328.73,-103.52 294.31,-89.44 269.57,-79.32"/>
<polygon fill="midnightblue" stroke="midnightblue" points="270.86,-76.06 260.28,-75.52 268.21,-82.54 270.86,-76.06"/>
</g>
</g>
</svg>
