<?xml version="1.0" encoding="UTF-8" standalone="no"?>
<!DOCTYPE svg PUBLIC "-//W3C//DTD SVG 1.1//EN"
 "http://www.w3.org/Graphics/SVG/1.1/DTD/svg11.dtd">
<!-- Generated by graphviz version 2.49.3 (20211027.1534)
 -->
<!-- Title: src/IBM_EIS/timeseries.c Pages: 1 -->
<svg width="778pt" height="364pt"
 viewBox="0.00 0.00 777.80 364.00" xmlns="http://www.w3.org/2000/svg" xmlns:xlink="http://www.w3.org/1999/xlink">
<g id="graph0" class="graph" transform="scale(1 1) rotate(0) translate(4 360)">
<title>src/IBM_EIS/timeseries.c</title>
<!-- Node1 -->
<g id="node1" class="node">
<title>Node1</title>
<g id="a_node1"><a xlink:title=" ">
<polygon fill="#bfbfbf" stroke="black" points="491.5,-336.5 491.5,-355.5 619.5,-355.5 619.5,-336.5 491.5,-336.5"/>
<text text-anchor="middle" x="555.5" y="-343.5" font-family="Helvetica,sans-Serif" font-size="10.00">src/IBM_EIS/timeseries.c</text>
</a>
</g>
</g>
<!-- Node2 -->
<g id="node2" class="node">
<title>Node2</title>
<g id="a_node2"><a xlink:href="timeseries_8h.html" target="_top" xlink:title=" ">
<polygon fill="none" stroke="black" points="500,-280.5 500,-299.5 611,-299.5 611,-280.5 500,-280.5"/>
<text text-anchor="middle" x="555.5" y="-287.5" font-family="Helvetica,sans-Serif" font-size="10.00">IBM_EIS/timeseries.h</text>
</a>
</g>
</g>
<!-- Node1&#45;&gt;Node2 -->
<g id="edge1" class="edge">
<title>Node1&#45;&gt;Node2</title>
<path fill="none" stroke="midnightblue" d="M555.5,-336.08C555.5,-329.01 555.5,-318.86 555.5,-309.99"/>
<polygon fill="midnightblue" stroke="midnightblue" points="559,-309.75 555.5,-299.75 552,-309.75 559,-309.75"/>
</g>
<!-- Node3 -->
<g id="node3" class="node">
<title>Node3</title>
<g id="a_node3"><a xlink:title=" ">
<polygon fill="none" stroke="#bfbfbf" points="0,-56.5 0,-75.5 59,-75.5 59,-56.5 0,-56.5"/>
<text text-anchor="middle" x="29.5" y="-63.5" font-family="Helvetica,sans-Serif" font-size="10.00">curl/curl.h</text>
</a>
</g>
</g>
<!-- Node2&#45;&gt;Node3 -->
<g id="edge2" class="edge">
<title>Node2&#45;&gt;Node3</title>
<path fill="none" stroke="midnightblue" d="M505.14,-280.49C465.05,-273 407.86,-260.67 359.5,-244 248.6,-205.77 221.76,-191.23 120.5,-132 94.29,-116.67 66.14,-95.81 48.2,-81.9"/>
<polygon fill="midnightblue" stroke="midnightblue" points="50.3,-79.1 40.27,-75.68 45.98,-84.61 50.3,-79.1"/>
</g>
<!-- Node4 -->
<g id="node4" class="node">
<title>Node4</title>
<g id="a_node4"><a xlink:title=" ">
<polygon fill="none" stroke="#bfbfbf" points="658,-56.5 658,-75.5 741,-75.5 741,-56.5 658,-56.5"/>
<text text-anchor="middle" x="699.5" y="-63.5" font-family="Helvetica,sans-Serif" font-size="10.00">cjson/cJSON.h</text>
</a>
</g>
</g>
<!-- Node2&#45;&gt;Node4 -->
<g id="edge3" class="edge">
<title>Node2&#45;&gt;Node4</title>
<path fill="none" stroke="midnightblue" d="M585.81,-280.46C605.13,-273.56 629.29,-261.98 644.5,-244 684.26,-196.98 695.31,-121.35 698.36,-86.16"/>
<polygon fill="midnightblue" stroke="midnightblue" points="701.87,-86.1 699.11,-75.87 694.89,-85.59 701.87,-86.1"/>
</g>
<!-- Node5 -->
<g id="node5" class="node">
<title>Node5</title>
<g id="a_node5"><a xlink:title=" ">
<polygon fill="none" stroke="#bfbfbf" points="555.5,-56.5 555.5,-75.5 601.5,-75.5 601.5,-56.5 555.5,-56.5"/>
<text text-anchor="middle" x="578.5" y="-63.5" font-family="Helvetica,sans-Serif" font-size="10.00">math.h</text>
</a>
</g>
</g>
<!-- Node2&#45;&gt;Node5 -->
<g id="edge4" class="edge">
<title>Node2&#45;&gt;Node5</title>
<path fill="none" stroke="midnightblue" d="M580.66,-280.38C596.92,-273.34 616.79,-261.65 626.5,-244 654.78,-192.6 649.82,-165.83 626.5,-112 621.23,-99.84 610.88,-89.46 601.14,-81.74"/>
<polygon fill="midnightblue" stroke="midnightblue" points="603,-78.77 592.87,-75.67 598.86,-84.41 603,-78.77"/>
</g>
<!-- Node6 -->
<g id="node6" class="node">
<title>Node6</title>
<g id="a_node6"><a xlink:title=" ">
<polygon fill="none" stroke="#bfbfbf" points="618,-0.5 618,-19.5 661,-19.5 661,-0.5 618,-0.5"/>
<text text-anchor="middle" x="639.5" y="-7.5" font-family="Helvetica,sans-Serif" font-size="10.00">time.h</text>
</a>
</g>
</g>
<!-- Node2&#45;&gt;Node6 -->
<g id="edge5" class="edge">
<title>Node2&#45;&gt;Node6</title>
<path fill="none" stroke="midnightblue" d="M611.17,-284.22C674.57,-275.37 769.5,-250.22 769.5,-179 769.5,-179 769.5,-179 769.5,-121 769.5,-90.9 770.68,-78.33 750.5,-56 729.88,-33.19 696.04,-21.72 671.14,-16.09"/>
<polygon fill="midnightblue" stroke="midnightblue" points="671.58,-12.61 661.08,-14.03 670.17,-19.47 671.58,-12.61"/>
</g>
<!-- Node7 -->
<g id="node7" class="node">
<title>Node7</title>
<g id="a_node7"><a xlink:href="log_8h.html" target="_top" xlink:title=" ">
<polygon fill="none" stroke="black" points="500,-56.5 500,-75.5 537,-75.5 537,-56.5 500,-56.5"/>
<text text-anchor="middle" x="518.5" y="-63.5" font-family="Helvetica,sans-Serif" font-size="10.00">log.h</text>
</a>
</g>
</g>
<!-- Node2&#45;&gt;Node7 -->
<g id="edge6" class="edge">
<title>Node2&#45;&gt;Node7</title>
<path fill="none" stroke="midnightblue" d="M559.02,-280.2C563.57,-267.73 570.58,-244.19 567.5,-224 559.6,-172.19 537.84,-113.96 526.15,-85.16"/>
<polygon fill="midnightblue" stroke="midnightblue" points="529.27,-83.54 522.22,-75.63 522.8,-86.21 529.27,-83.54"/>
</g>
<!-- Node11 -->
<g id="node11" class="node">
<title>Node11</title>
<g id="a_node11"><a xlink:href="_i_b_m___e_i_s_2authenticate_8h.html" target="_top" xlink:title=" ">
<polygon fill="none" stroke="black" points="439,-224.5 439,-243.5 558,-243.5 558,-224.5 439,-224.5"/>
<text text-anchor="middle" x="498.5" y="-231.5" font-family="Helvetica,sans-Serif" font-size="10.00">IBM_EIS/authenticate.h</text>
</a>
</g>
</g>
<!-- Node2&#45;&gt;Node11 -->
<g id="edge11" class="edge">
<title>Node2&#45;&gt;Node11</title>
<path fill="none" stroke="midnightblue" d="M546.34,-280.32C538,-272.42 525.47,-260.55 515.32,-250.94"/>
<polygon fill="midnightblue" stroke="midnightblue" points="517.49,-248.17 507.82,-243.83 512.68,-253.25 517.49,-248.17"/>
</g>
<!-- Node12 -->
<g id="node12" class="node">
<title>Node12</title>
<g id="a_node12"><a xlink:href="http_8h.html" target="_top" xlink:title=" ">
<polygon fill="none" stroke="black" points="320,-168.5 320,-187.5 361,-187.5 361,-168.5 320,-168.5"/>
<text text-anchor="middle" x="340.5" y="-175.5" font-family="Helvetica,sans-Serif" font-size="10.00">http.h</text>
</a>
</g>
</g>
<!-- Node2&#45;&gt;Node12 -->
<g id="edge32" class="edge">
<title>Node2&#45;&gt;Node12</title>
<path fill="none" stroke="midnightblue" d="M499.65,-284.9C463.4,-279.88 416.71,-268.72 382.5,-244 366.2,-232.22 354.6,-212 347.78,-197.23"/>
<polygon fill="midnightblue" stroke="midnightblue" points="350.83,-195.44 343.66,-187.64 344.39,-198.21 350.83,-195.44"/>
</g>
<!-- Node15 -->
<g id="node15" class="node">
<title>Node15</title>
<g id="a_node15"><a xlink:href="utils_8h.html" target="_top" xlink:title=" ">
<polygon fill="none" stroke="black" points="371.5,-112.5 371.5,-131.5 413.5,-131.5 413.5,-112.5 371.5,-112.5"/>
<text text-anchor="middle" x="392.5" y="-119.5" font-family="Helvetica,sans-Serif" font-size="10.00">utils.h</text>
</a>
</g>
</g>
<!-- Node2&#45;&gt;Node15 -->
<g id="edge33" class="edge">
<title>Node2&#45;&gt;Node15</title>
<path fill="none" stroke="midnightblue" d="M499.91,-280.42C475.72,-274.07 448.78,-263.06 430.5,-244 403.28,-215.63 395.54,-167.96 393.35,-141.72"/>
<polygon fill="midnightblue" stroke="midnightblue" points="396.84,-141.37 392.7,-131.62 389.85,-141.82 396.84,-141.37"/>
</g>
<!-- Node7&#45;&gt;Node6 -->
<g id="edge10" class="edge">
<title>Node7&#45;&gt;Node6</title>
<path fill="none" stroke="midnightblue" d="M537.14,-56.68C556.86,-47.88 588.22,-33.88 611.04,-23.7"/>
<polygon fill="midnightblue" stroke="midnightblue" points="612.53,-26.87 620.24,-19.6 609.68,-20.48 612.53,-26.87"/>
</g>
<!-- Node8 -->
<g id="node8" class="node">
<title>Node8</title>
<g id="a_node8"><a xlink:title=" ">
<polygon fill="none" stroke="#bfbfbf" points="486,-0.5 486,-19.5 531,-19.5 531,-0.5 486,-0.5"/>
<text text-anchor="middle" x="508.5" y="-7.5" font-family="Helvetica,sans-Serif" font-size="10.00">stdio.h</text>
</a>
</g>
</g>
<!-- Node7&#45;&gt;Node8 -->
<g id="edge7" class="edge">
<title>Node7&#45;&gt;Node8</title>
<path fill="none" stroke="midnightblue" d="M516.85,-56.08C515.52,-48.93 513.62,-38.64 511.96,-29.69"/>
<polygon fill="midnightblue" stroke="midnightblue" points="515.38,-28.95 510.12,-19.75 508.5,-30.22 515.38,-28.95"/>
</g>
<!-- Node9 -->
<g id="node9" class="node">
<title>Node9</title>
<g id="a_node9"><a xlink:title=" ">
<polygon fill="none" stroke="#bfbfbf" points="549,-0.5 549,-19.5 600,-19.5 600,-0.5 549,-0.5"/>
<text text-anchor="middle" x="574.5" y="-7.5" font-family="Helvetica,sans-Serif" font-size="10.00">stdarg.h</text>
</a>
</g>
</g>
<!-- Node7&#45;&gt;Node9 -->
<g id="edge8" class="edge">
<title>Node7&#45;&gt;Node9</title>
<path fill="none" stroke="midnightblue" d="M527.5,-56.32C535.69,-48.42 548.01,-36.55 557.97,-26.94"/>
<polygon fill="midnightblue" stroke="midnightblue" points="560.57,-29.29 565.34,-19.83 555.71,-24.26 560.57,-29.29"/>
</g>
<!-- Node10 -->
<g id="node10" class="node">
<title>Node10</title>
<g id="a_node10"><a xlink:title=" ">
<polygon fill="none" stroke="#bfbfbf" points="411.5,-0.5 411.5,-19.5 467.5,-19.5 467.5,-0.5 411.5,-0.5"/>
<text text-anchor="middle" x="439.5" y="-7.5" font-family="Helvetica,sans-Serif" font-size="10.00">stdbool.h</text>
</a>
</g>
</g>
<!-- Node7&#45;&gt;Node10 -->
<g id="edge9" class="edge">
<title>Node7&#45;&gt;Node10</title>
<path fill="none" stroke="midnightblue" d="M505.81,-56.32C493.6,-47.98 474.92,-35.21 460.5,-25.35"/>
<polygon fill="midnightblue" stroke="midnightblue" points="462.39,-22.41 452.16,-19.65 458.44,-28.19 462.39,-22.41"/>
</g>
<!-- Node11&#45;&gt;Node3 -->
<g id="edge12" class="edge">
<title>Node11&#45;&gt;Node3</title>
<path fill="none" stroke="midnightblue" d="M455.71,-224.45C417.51,-216.41 360.24,-203.33 311.5,-188 246.39,-167.52 231.22,-158.91 168.5,-132 128.86,-114.99 83.76,-93.5 55.96,-79.99"/>
<polygon fill="midnightblue" stroke="midnightblue" points="57.41,-76.81 46.89,-75.57 54.35,-83.1 57.41,-76.81"/>
</g>
<!-- Node11&#45;&gt;Node4 -->
<g id="edge13" class="edge">
<title>Node11&#45;&gt;Node4</title>
<path fill="none" stroke="midnightblue" d="M509.02,-224.31C541.45,-197.53 640.13,-116.03 681.23,-82.09"/>
<polygon fill="midnightblue" stroke="midnightblue" points="683.6,-84.67 689.08,-75.61 679.14,-79.27 683.6,-84.67"/>
</g>
<!-- Node11&#45;&gt;Node6 -->
<g id="edge14" class="edge">
<title>Node11&#45;&gt;Node6</title>
<path fill="none" stroke="midnightblue" d="M505.73,-224.22C524.6,-201.05 576.25,-135.87 610.5,-76 619.22,-60.77 627.19,-42.43 632.56,-29.12"/>
<polygon fill="midnightblue" stroke="midnightblue" points="635.87,-30.27 636.27,-19.68 629.35,-27.7 635.87,-30.27"/>
</g>
<!-- Node11&#45;&gt;Node7 -->
<g id="edge15" class="edge">
<title>Node11&#45;&gt;Node7</title>
<path fill="none" stroke="midnightblue" d="M499.58,-224.08C502.72,-197.95 511.97,-121.21 516.26,-85.58"/>
<polygon fill="midnightblue" stroke="midnightblue" points="519.75,-85.92 517.47,-75.57 512.8,-85.08 519.75,-85.92"/>
</g>
<!-- Node11&#45;&gt;Node12 -->
<g id="edge16" class="edge">
<title>Node11&#45;&gt;Node12</title>
<path fill="none" stroke="midnightblue" d="M473.46,-224.44C445.63,-214.93 400.69,-199.57 370.87,-189.38"/>
<polygon fill="midnightblue" stroke="midnightblue" points="371.98,-186.06 361.38,-186.14 369.71,-192.68 371.98,-186.06"/>
</g>
<!-- Node11&#45;&gt;Node15 -->
<g id="edge31" class="edge">
<title>Node11&#45;&gt;Node15</title>
<path fill="none" stroke="midnightblue" d="M490.18,-224.37C472.46,-205.97 430.73,-162.67 407.97,-139.05"/>
<polygon fill="midnightblue" stroke="midnightblue" points="410.24,-136.36 400.78,-131.59 405.2,-141.22 410.24,-136.36"/>
</g>
<!-- Node12&#45;&gt;Node3 -->
<g id="edge19" class="edge">
<title>Node12&#45;&gt;Node3</title>
<path fill="none" stroke="midnightblue" d="M319.97,-168.87C287.83,-156.24 223.63,-131.33 168.5,-112 134.39,-100.04 95.19,-87.45 67.13,-78.64"/>
<polygon fill="midnightblue" stroke="midnightblue" points="67.91,-75.22 57.32,-75.57 65.82,-81.9 67.91,-75.22"/>
</g>
<!-- Node13 -->
<g id="node13" class="node">
<title>Node13</title>
<g id="a_node13"><a xlink:title=" ">
<polygon fill="none" stroke="#bfbfbf" points="77,-56.5 77,-75.5 124,-75.5 124,-56.5 77,-56.5"/>
<text text-anchor="middle" x="100.5" y="-63.5" font-family="Helvetica,sans-Serif" font-size="10.00">stdlib.h</text>
</a>
</g>
</g>
<!-- Node12&#45;&gt;Node13 -->
<g id="edge17" class="edge">
<title>Node12&#45;&gt;Node13</title>
<path fill="none" stroke="midnightblue" d="M330.44,-168.47C313.91,-154.84 279.52,-128.03 246.5,-112 236.24,-107.02 173.84,-88.41 134.01,-76.74"/>
<polygon fill="midnightblue" stroke="midnightblue" points="134.75,-73.31 124.17,-73.86 132.79,-80.03 134.75,-73.31"/>
</g>
<!-- Node14 -->
<g id="node14" class="node">
<title>Node14</title>
<g id="a_node14"><a xlink:title=" ">
<polygon fill="none" stroke="#bfbfbf" points="142.5,-56.5 142.5,-75.5 190.5,-75.5 190.5,-56.5 142.5,-56.5"/>
<text text-anchor="middle" x="166.5" y="-63.5" font-family="Helvetica,sans-Serif" font-size="10.00">string.h</text>
</a>
</g>
</g>
<!-- Node12&#45;&gt;Node14 -->
<g id="edge18" class="edge">
<title>Node12&#45;&gt;Node14</title>
<path fill="none" stroke="midnightblue" d="M337.9,-168.05C333.39,-154.08 322.8,-127.11 304.5,-112 296.27,-105.21 238.53,-87.71 200.39,-76.64"/>
<polygon fill="midnightblue" stroke="midnightblue" points="201.26,-73.25 190.68,-73.84 199.32,-79.97 201.26,-73.25"/>
</g>
<!-- Node12&#45;&gt;Node15 -->
<g id="edge20" class="edge">
<title>Node12&#45;&gt;Node15</title>
<path fill="none" stroke="midnightblue" d="M349.09,-168.08C356.66,-160.22 367.88,-148.57 377.01,-139.08"/>
<polygon fill="midnightblue" stroke="midnightblue" points="379.66,-141.38 384.07,-131.75 374.62,-136.53 379.66,-141.38"/>
</g>
<!-- Node15&#45;&gt;Node3 -->
<g id="edge23" class="edge">
<title>Node15&#45;&gt;Node3</title>
<path fill="none" stroke="midnightblue" d="M371.48,-118.79C321.02,-113.34 188.93,-98.19 69.37,-76.21"/>
<polygon fill="midnightblue" stroke="midnightblue" points="69.79,-72.73 59.31,-74.34 68.51,-79.61 69.79,-72.73"/>
</g>
<!-- Node15&#45;&gt;Node4 -->
<g id="edge25" class="edge">
<title>Node15&#45;&gt;Node4</title>
<path fill="none" stroke="midnightblue" d="M413.6,-117.29C461.41,-108.88 579.13,-88.17 647.68,-76.12"/>
<polygon fill="midnightblue" stroke="midnightblue" points="648.59,-79.51 657.83,-74.33 647.37,-72.62 648.59,-79.51"/>
</g>
<!-- Node15&#45;&gt;Node5 -->
<g id="edge29" class="edge">
<title>Node15&#45;&gt;Node5</title>
<path fill="none" stroke="midnightblue" d="M413.84,-114.81C446.02,-105.46 507.26,-87.68 545.31,-76.64"/>
<polygon fill="midnightblue" stroke="midnightblue" points="546.75,-79.86 555.38,-73.71 544.8,-73.14 546.75,-79.86"/>
</g>
<!-- Node15&#45;&gt;Node7 -->
<g id="edge30" class="edge">
<title>Node15&#45;&gt;Node7</title>
<path fill="none" stroke="midnightblue" d="M412.47,-112.44C433.47,-103.44 466.71,-89.2 490.37,-79.06"/>
<polygon fill="midnightblue" stroke="midnightblue" points="492.05,-82.14 499.86,-74.99 489.29,-75.71 492.05,-82.14"/>
</g>
<!-- Node15&#45;&gt;Node13 -->
<g id="edge21" class="edge">
<title>Node15&#45;&gt;Node13</title>
<path fill="none" stroke="midnightblue" d="M371.22,-118C328.31,-111.79 228.19,-96.58 134.18,-75.97"/>
<polygon fill="midnightblue" stroke="midnightblue" points="134.75,-72.51 124.23,-73.76 133.23,-79.34 134.75,-72.51"/>
</g>
<!-- Node15&#45;&gt;Node14 -->
<g id="edge22" class="edge">
<title>Node15&#45;&gt;Node14</title>
<path fill="none" stroke="midnightblue" d="M371.38,-116.18C331.55,-107.07 245.89,-87.41 200.47,-76.16"/>
<polygon fill="midnightblue" stroke="midnightblue" points="201.17,-72.73 190.62,-73.69 199.47,-79.52 201.17,-72.73"/>
</g>
<!-- Node16 -->
<g id="node16" class="node">
<title>Node16</title>
<g id="a_node16"><a xlink:title=" ">
<polygon fill="none" stroke="#bfbfbf" points="433.5,-56.5 433.5,-75.5 481.5,-75.5 481.5,-56.5 433.5,-56.5"/>
<text text-anchor="middle" x="457.5" y="-63.5" font-family="Helvetica,sans-Serif" font-size="10.00">stdint.h</text>
</a>
</g>
</g>
<!-- Node15&#45;&gt;Node16 -->
<g id="edge24" class="edge">
<title>Node15&#45;&gt;Node16</title>
<path fill="none" stroke="midnightblue" d="M402.94,-112.32C412.65,-104.26 427.32,-92.08 439,-82.37"/>
<polygon fill="midnightblue" stroke="midnightblue" points="441.41,-84.92 446.87,-75.83 436.94,-79.53 441.41,-84.92"/>
</g>
<!-- Node17 -->
<g id="node17" class="node">
<title>Node17</title>
<g id="a_node17"><a xlink:title=" ">
<polygon fill="none" stroke="#bfbfbf" points="209,-56.5 209,-75.5 268,-75.5 268,-56.5 209,-56.5"/>
<text text-anchor="middle" x="238.5" y="-63.5" font-family="Helvetica,sans-Serif" font-size="10.00">sys/stat.h</text>
</a>
</g>
</g>
<!-- Node15&#45;&gt;Node17 -->
<g id="edge26" class="edge">
<title>Node15&#45;&gt;Node17</title>
<path fill="none" stroke="midnightblue" d="M371.41,-113.6C345.95,-104.68 302.8,-89.55 272.59,-78.95"/>
<polygon fill="midnightblue" stroke="midnightblue" points="273.48,-75.56 262.89,-75.55 271.16,-82.16 273.48,-75.56"/>
</g>
<!-- Node18 -->
<g id="node18" class="node">
<title>Node18</title>
<g id="a_node18"><a xlink:title=" ">
<polygon fill="none" stroke="#bfbfbf" points="286,-56.5 286,-75.5 351,-75.5 351,-56.5 286,-56.5"/>
<text text-anchor="middle" x="318.5" y="-63.5" font-family="Helvetica,sans-Serif" font-size="10.00">sys/types.h</text>
</a>
</g>
</g>
<!-- Node15&#45;&gt;Node18 -->
<g id="edge27" class="edge">
<title>Node15&#45;&gt;Node18</title>
<path fill="none" stroke="midnightblue" d="M380.61,-112.32C369.35,-104.11 352.21,-91.6 338.79,-81.81"/>
<polygon fill="midnightblue" stroke="midnightblue" points="340.75,-78.9 330.61,-75.83 336.62,-84.56 340.75,-78.9"/>
</g>
<!-- Node19 -->
<g id="node19" class="node">
<title>Node19</title>
<g id="a_node19"><a xlink:title=" ">
<polygon fill="none" stroke="#bfbfbf" points="369.5,-56.5 369.5,-75.5 415.5,-75.5 415.5,-56.5 369.5,-56.5"/>
<text text-anchor="middle" x="392.5" y="-63.5" font-family="Helvetica,sans-Serif" font-size="10.00">errno.h</text>
</a>
</g>
</g>
<!-- Node15&#45;&gt;Node19 -->
<g id="edge28" class="edge">
<title>Node15&#45;&gt;Node19</title>
<path fill="none" stroke="midnightblue" d="M392.5,-112.08C392.5,-105.01 392.5,-94.86 392.5,-85.99"/>
<polygon fill="midnightblue" stroke="midnightblue" points="396,-85.75 392.5,-75.75 389,-85.75 396,-85.75"/>
</g>
</g>
</svg>
