<?xml version="1.0" encoding="UTF-8" standalone="no"?>
<!DOCTYPE svg PUBLIC "-//W3C//DTD SVG 1.1//EN"
 "http://www.w3.org/Graphics/SVG/1.1/DTD/svg11.dtd">
<!-- Generated by graphviz version 2.49.3 (20211027.1534)
 -->
<!-- Title: include/IBM_EIS/timeseries.h Pages: 1 -->
<svg width="787pt" height="308pt"
 viewBox="0.00 0.00 786.50 308.00" xmlns="http://www.w3.org/2000/svg" xmlns:xlink="http://www.w3.org/1999/xlink">
<g id="graph0" class="graph" transform="scale(1 1) rotate(0) translate(4 304)">
<title>include/IBM_EIS/timeseries.h</title>
<!-- Node1 -->
<g id="node1" class="node">
<title>Node1</title>
<g id="a_node1"><a xlink:title=" ">
<polygon fill="#bfbfbf" stroke="black" points="437,-280.5 437,-299.5 582,-299.5 582,-280.5 437,-280.5"/>
<text text-anchor="middle" x="509.5" y="-287.5" font-family="Helvetica,sans-Serif" font-size="10.00">include/IBM_EIS/timeseries.h</text>
</a>
</g>
</g>
<!-- Node2 -->
<g id="node2" class="node">
<title>Node2</title>
<g id="a_node2"><a xlink:title=" ">
<polygon fill="none" stroke="#bfbfbf" points="0,-56.5 0,-75.5 59,-75.5 59,-56.5 0,-56.5"/>
<text text-anchor="middle" x="29.5" y="-63.5" font-family="Helvetica,sans-Serif" font-size="10.00">curl/curl.h</text>
</a>
</g>
</g>
<!-- Node1&#45;&gt;Node2 -->
<g id="edge1" class="edge">
<title>Node1&#45;&gt;Node2</title>
<path fill="none" stroke="midnightblue" d="M449.22,-280.48C404.04,-273.21 341.04,-261.19 287.5,-244 229.54,-225.4 215.45,-218.03 162.5,-188 124.75,-166.59 114.29,-161.54 82.5,-132 66.73,-117.34 51.49,-97.93 41.44,-84.15"/>
<polygon fill="midnightblue" stroke="midnightblue" points="44.02,-81.74 35.36,-75.63 38.32,-85.8 44.02,-81.74"/>
</g>
<!-- Node3 -->
<g id="node3" class="node">
<title>Node3</title>
<g id="a_node3"><a xlink:title=" ">
<polygon fill="none" stroke="#bfbfbf" points="555,-56.5 555,-75.5 638,-75.5 638,-56.5 555,-56.5"/>
<text text-anchor="middle" x="596.5" y="-63.5" font-family="Helvetica,sans-Serif" font-size="10.00">cjson/cJSON.h</text>
</a>
</g>
</g>
<!-- Node1&#45;&gt;Node3 -->
<g id="edge2" class="edge">
<title>Node1&#45;&gt;Node3</title>
<path fill="none" stroke="midnightblue" d="M515.2,-280.3C520.85,-271.43 529.51,-257.13 535.5,-244 560.96,-188.18 582.04,-118.46 591.35,-85.67"/>
<polygon fill="midnightblue" stroke="midnightblue" points="594.82,-86.27 594.15,-75.7 588.08,-84.39 594.82,-86.27"/>
</g>
<!-- Node4 -->
<g id="node4" class="node">
<title>Node4</title>
<g id="a_node4"><a xlink:title=" ">
<polygon fill="none" stroke="#bfbfbf" points="732.5,-224.5 732.5,-243.5 778.5,-243.5 778.5,-224.5 732.5,-224.5"/>
<text text-anchor="middle" x="755.5" y="-231.5" font-family="Helvetica,sans-Serif" font-size="10.00">math.h</text>
</a>
</g>
</g>
<!-- Node1&#45;&gt;Node4 -->
<g id="edge3" class="edge">
<title>Node1&#45;&gt;Node4</title>
<path fill="none" stroke="midnightblue" d="M550.81,-280.44C593.03,-271.62 660.43,-257.31 718.5,-244 719.77,-243.71 721.06,-243.41 722.37,-243.11"/>
<polygon fill="midnightblue" stroke="midnightblue" points="723.51,-246.43 732.43,-240.71 721.89,-239.62 723.51,-246.43"/>
</g>
<!-- Node5 -->
<g id="node5" class="node">
<title>Node5</title>
<g id="a_node5"><a xlink:title=" ">
<polygon fill="none" stroke="#bfbfbf" points="645,-0.5 645,-19.5 688,-19.5 688,-0.5 645,-0.5"/>
<text text-anchor="middle" x="666.5" y="-7.5" font-family="Helvetica,sans-Serif" font-size="10.00">time.h</text>
</a>
</g>
</g>
<!-- Node1&#45;&gt;Node5 -->
<g id="edge4" class="edge">
<title>Node1&#45;&gt;Node5</title>
<path fill="none" stroke="midnightblue" d="M570.93,-280.49C628.09,-268.7 704.5,-241.29 704.5,-179 704.5,-179 704.5,-179 704.5,-121 704.5,-86.81 687.9,-49.76 676.64,-28.57"/>
<polygon fill="midnightblue" stroke="midnightblue" points="679.68,-26.83 671.78,-19.77 673.55,-30.22 679.68,-26.83"/>
</g>
<!-- Node6 -->
<g id="node6" class="node">
<title>Node6</title>
<g id="a_node6"><a xlink:href="log_8h.html" target="_top" xlink:title=" ">
<polygon fill="none" stroke="black" points="500,-56.5 500,-75.5 537,-75.5 537,-56.5 500,-56.5"/>
<text text-anchor="middle" x="518.5" y="-63.5" font-family="Helvetica,sans-Serif" font-size="10.00">log.h</text>
</a>
</g>
</g>
<!-- Node1&#45;&gt;Node6 -->
<g id="edge5" class="edge">
<title>Node1&#45;&gt;Node6</title>
<path fill="none" stroke="midnightblue" d="M512.59,-280.17C515.55,-271.2 519.82,-256.83 521.5,-244 529,-186.73 523.87,-118.16 520.62,-85.75"/>
<polygon fill="midnightblue" stroke="midnightblue" points="524.07,-85.1 519.53,-75.52 517.11,-85.84 524.07,-85.1"/>
</g>
<!-- Node10 -->
<g id="node10" class="node">
<title>Node10</title>
<g id="a_node10"><a xlink:href="_i_b_m___e_i_s_2authenticate_8h.html" target="_top" xlink:title=" ">
<polygon fill="none" stroke="black" points="393,-224.5 393,-243.5 512,-243.5 512,-224.5 393,-224.5"/>
<text text-anchor="middle" x="452.5" y="-231.5" font-family="Helvetica,sans-Serif" font-size="10.00">IBM_EIS/authenticate.h</text>
</a>
</g>
</g>
<!-- Node1&#45;&gt;Node10 -->
<g id="edge10" class="edge">
<title>Node1&#45;&gt;Node10</title>
<path fill="none" stroke="midnightblue" d="M500.34,-280.32C492,-272.42 479.47,-260.55 469.32,-250.94"/>
<polygon fill="midnightblue" stroke="midnightblue" points="471.49,-248.17 461.82,-243.83 466.68,-253.25 471.49,-248.17"/>
</g>
<!-- Node11 -->
<g id="node11" class="node">
<title>Node11</title>
<g id="a_node11"><a xlink:href="http_8h.html" target="_top" xlink:title=" ">
<polygon fill="none" stroke="black" points="219,-168.5 219,-187.5 260,-187.5 260,-168.5 219,-168.5"/>
<text text-anchor="middle" x="239.5" y="-175.5" font-family="Helvetica,sans-Serif" font-size="10.00">http.h</text>
</a>
</g>
</g>
<!-- Node1&#45;&gt;Node11 -->
<g id="edge30" class="edge">
<title>Node1&#45;&gt;Node11</title>
<path fill="none" stroke="midnightblue" d="M447.35,-280.49C410.37,-273.84 363.27,-262.53 324.5,-244 297.95,-231.31 271.72,-209.44 255.57,-194.61"/>
<polygon fill="midnightblue" stroke="midnightblue" points="257.78,-191.88 248.1,-187.58 252.98,-196.98 257.78,-191.88"/>
</g>
<!-- Node14 -->
<g id="node14" class="node">
<title>Node14</title>
<g id="a_node14"><a xlink:href="utils_8h.html" target="_top" xlink:title=" ">
<polygon fill="none" stroke="black" points="300.5,-112.5 300.5,-131.5 342.5,-131.5 342.5,-112.5 300.5,-112.5"/>
<text text-anchor="middle" x="321.5" y="-119.5" font-family="Helvetica,sans-Serif" font-size="10.00">utils.h</text>
</a>
</g>
</g>
<!-- Node1&#45;&gt;Node14 -->
<g id="edge31" class="edge">
<title>Node1&#45;&gt;Node14</title>
<path fill="none" stroke="midnightblue" d="M461.25,-280.46C436.04,-273.96 406.04,-262.82 384.5,-244 352.51,-216.05 334.42,-167.86 326.46,-141.52"/>
<polygon fill="midnightblue" stroke="midnightblue" points="329.76,-140.35 323.65,-131.69 323.03,-142.27 329.76,-140.35"/>
</g>
<!-- Node6&#45;&gt;Node5 -->
<g id="edge9" class="edge">
<title>Node6&#45;&gt;Node5</title>
<path fill="none" stroke="midnightblue" d="M537.24,-58.16C561.84,-49.19 605.37,-33.3 635.05,-22.47"/>
<polygon fill="midnightblue" stroke="midnightblue" points="636.35,-25.73 644.54,-19.01 633.95,-19.15 636.35,-25.73"/>
</g>
<!-- Node7 -->
<g id="node7" class="node">
<title>Node7</title>
<g id="a_node7"><a xlink:title=" ">
<polygon fill="none" stroke="#bfbfbf" points="430,-0.5 430,-19.5 475,-19.5 475,-0.5 430,-0.5"/>
<text text-anchor="middle" x="452.5" y="-7.5" font-family="Helvetica,sans-Serif" font-size="10.00">stdio.h</text>
</a>
</g>
</g>
<!-- Node6&#45;&gt;Node7 -->
<g id="edge6" class="edge">
<title>Node6&#45;&gt;Node7</title>
<path fill="none" stroke="midnightblue" d="M507.9,-56.32C498.04,-48.26 483.15,-36.08 471.28,-26.37"/>
<polygon fill="midnightblue" stroke="midnightblue" points="473.25,-23.46 463.3,-19.83 468.82,-28.88 473.25,-23.46"/>
</g>
<!-- Node8 -->
<g id="node8" class="node">
<title>Node8</title>
<g id="a_node8"><a xlink:title=" ">
<polygon fill="none" stroke="#bfbfbf" points="493,-0.5 493,-19.5 544,-19.5 544,-0.5 493,-0.5"/>
<text text-anchor="middle" x="518.5" y="-7.5" font-family="Helvetica,sans-Serif" font-size="10.00">stdarg.h</text>
</a>
</g>
</g>
<!-- Node6&#45;&gt;Node8 -->
<g id="edge7" class="edge">
<title>Node6&#45;&gt;Node8</title>
<path fill="none" stroke="midnightblue" d="M518.5,-56.08C518.5,-49.01 518.5,-38.86 518.5,-29.99"/>
<polygon fill="midnightblue" stroke="midnightblue" points="522,-29.75 518.5,-19.75 515,-29.75 522,-29.75"/>
</g>
<!-- Node9 -->
<g id="node9" class="node">
<title>Node9</title>
<g id="a_node9"><a xlink:title=" ">
<polygon fill="none" stroke="#bfbfbf" points="562.5,-0.5 562.5,-19.5 618.5,-19.5 618.5,-0.5 562.5,-0.5"/>
<text text-anchor="middle" x="590.5" y="-7.5" font-family="Helvetica,sans-Serif" font-size="10.00">stdbool.h</text>
</a>
</g>
</g>
<!-- Node6&#45;&gt;Node9 -->
<g id="edge8" class="edge">
<title>Node6&#45;&gt;Node9</title>
<path fill="none" stroke="midnightblue" d="M530.07,-56.32C540.92,-48.18 557.38,-35.84 570.38,-26.09"/>
<polygon fill="midnightblue" stroke="midnightblue" points="572.82,-28.63 578.72,-19.83 568.62,-23.03 572.82,-28.63"/>
</g>
<!-- Node10&#45;&gt;Node2 -->
<g id="edge11" class="edge">
<title>Node10&#45;&gt;Node2</title>
<path fill="none" stroke="midnightblue" d="M392.82,-227.67C342.69,-221.85 269.78,-210.23 209.5,-188 162.8,-170.77 153.75,-159.86 112.5,-132 89.12,-116.21 63.81,-95.87 47.36,-82.19"/>
<polygon fill="midnightblue" stroke="midnightblue" points="49.54,-79.44 39.63,-75.69 45.04,-84.8 49.54,-79.44"/>
</g>
<!-- Node10&#45;&gt;Node3 -->
<g id="edge12" class="edge">
<title>Node10&#45;&gt;Node3</title>
<path fill="none" stroke="midnightblue" d="M460.24,-224.08C483.4,-197.38 552.38,-117.87 582.34,-83.32"/>
<polygon fill="midnightblue" stroke="midnightblue" points="585.16,-85.42 589.07,-75.57 579.87,-80.83 585.16,-85.42"/>
</g>
<!-- Node10&#45;&gt;Node5 -->
<g id="edge13" class="edge">
<title>Node10&#45;&gt;Node5</title>
<path fill="none" stroke="midnightblue" d="M468.99,-224.48C506.68,-204.16 599.53,-149.01 647.5,-76 656.68,-62.03 661.52,-43.53 664.02,-29.83"/>
<polygon fill="midnightblue" stroke="midnightblue" points="667.52,-30.09 665.6,-19.67 660.6,-29.01 667.52,-30.09"/>
</g>
<!-- Node10&#45;&gt;Node6 -->
<g id="edge14" class="edge">
<title>Node10&#45;&gt;Node6</title>
<path fill="none" stroke="midnightblue" d="M455.65,-224.13C460.13,-211.57 468.68,-187.93 476.5,-168 487.96,-138.78 502.13,-105.19 510.74,-85.05"/>
<polygon fill="midnightblue" stroke="midnightblue" points="514.06,-86.17 514.79,-75.6 507.63,-83.41 514.06,-86.17"/>
</g>
<!-- Node10&#45;&gt;Node11 -->
<g id="edge15" class="edge">
<title>Node10&#45;&gt;Node11</title>
<path fill="none" stroke="midnightblue" d="M418.75,-224.44C377.83,-214.07 309.46,-196.74 270.04,-186.74"/>
<polygon fill="midnightblue" stroke="midnightblue" points="270.76,-183.32 260.21,-184.25 269.04,-190.1 270.76,-183.32"/>
</g>
<!-- Node10&#45;&gt;Node14 -->
<g id="edge29" class="edge">
<title>Node10&#45;&gt;Node14</title>
<path fill="none" stroke="midnightblue" d="M442.22,-224.37C420.03,-205.73 367.39,-161.53 339.52,-138.13"/>
<polygon fill="midnightblue" stroke="midnightblue" points="341.64,-135.34 331.73,-131.59 337.14,-140.7 341.64,-135.34"/>
</g>
<!-- Node11&#45;&gt;Node2 -->
<g id="edge18" class="edge">
<title>Node11&#45;&gt;Node2</title>
<path fill="none" stroke="midnightblue" d="M223.02,-168.37C186.53,-149.25 98.66,-103.23 55.01,-80.36"/>
<polygon fill="midnightblue" stroke="midnightblue" points="56.38,-77.13 45.9,-75.59 53.14,-83.33 56.38,-77.13"/>
</g>
<!-- Node12 -->
<g id="node12" class="node">
<title>Node12</title>
<g id="a_node12"><a xlink:title=" ">
<polygon fill="none" stroke="#bfbfbf" points="77,-56.5 77,-75.5 124,-75.5 124,-56.5 77,-56.5"/>
<text text-anchor="middle" x="100.5" y="-63.5" font-family="Helvetica,sans-Serif" font-size="10.00">stdlib.h</text>
</a>
</g>
</g>
<!-- Node11&#45;&gt;Node12 -->
<g id="edge16" class="edge">
<title>Node11&#45;&gt;Node12</title>
<path fill="none" stroke="midnightblue" d="M229.72,-168.35C215.29,-155.66 187.29,-131.42 162.5,-112 149.02,-101.44 133.42,-90.12 121.24,-81.48"/>
<polygon fill="midnightblue" stroke="midnightblue" points="123.24,-78.61 113.05,-75.7 119.2,-84.33 123.24,-78.61"/>
</g>
<!-- Node13 -->
<g id="node13" class="node">
<title>Node13</title>
<g id="a_node13"><a xlink:title=" ">
<polygon fill="none" stroke="#bfbfbf" points="142.5,-56.5 142.5,-75.5 190.5,-75.5 190.5,-56.5 142.5,-56.5"/>
<text text-anchor="middle" x="166.5" y="-63.5" font-family="Helvetica,sans-Serif" font-size="10.00">string.h</text>
</a>
</g>
</g>
<!-- Node11&#45;&gt;Node13 -->
<g id="edge17" class="edge">
<title>Node11&#45;&gt;Node13</title>
<path fill="none" stroke="midnightblue" d="M235.89,-168.19C230.43,-155.31 219.33,-130.82 206.5,-112 199.52,-101.76 190.44,-91.36 182.69,-83.14"/>
<polygon fill="midnightblue" stroke="midnightblue" points="184.98,-80.48 175.51,-75.73 179.95,-85.35 184.98,-80.48"/>
</g>
<!-- Node11&#45;&gt;Node14 -->
<g id="edge19" class="edge">
<title>Node11&#45;&gt;Node14</title>
<path fill="none" stroke="midnightblue" d="M252.67,-168.32C265.35,-159.98 284.73,-147.21 299.71,-137.35"/>
<polygon fill="midnightblue" stroke="midnightblue" points="301.93,-140.08 308.36,-131.65 298.08,-134.23 301.93,-140.08"/>
</g>
<!-- Node14&#45;&gt;Node2 -->
<g id="edge22" class="edge">
<title>Node14&#45;&gt;Node2</title>
<path fill="none" stroke="midnightblue" d="M300.35,-117.67C258.22,-110.96 160.64,-94.96 69.29,-76.29"/>
<polygon fill="midnightblue" stroke="midnightblue" points="69.84,-72.83 59.33,-74.24 68.42,-79.68 69.84,-72.83"/>
</g>
<!-- Node14&#45;&gt;Node3 -->
<g id="edge24" class="edge">
<title>Node14&#45;&gt;Node3</title>
<path fill="none" stroke="midnightblue" d="M342.62,-116.85C385.42,-108.45 483.49,-89.19 544.44,-77.22"/>
<polygon fill="midnightblue" stroke="midnightblue" points="545.49,-80.58 554.63,-75.22 544.14,-73.71 545.49,-80.58"/>
</g>
<!-- Node14&#45;&gt;Node6 -->
<g id="edge28" class="edge">
<title>Node14&#45;&gt;Node6</title>
<path fill="none" stroke="midnightblue" d="M342.67,-115.73C373.08,-108.08 431.08,-93.21 490.02,-76.03"/>
<polygon fill="midnightblue" stroke="midnightblue" points="491.25,-79.31 499.86,-73.14 489.28,-72.59 491.25,-79.31"/>
</g>
<!-- Node14&#45;&gt;Node12 -->
<g id="edge20" class="edge">
<title>Node14&#45;&gt;Node12</title>
<path fill="none" stroke="midnightblue" d="M300.3,-116.15C267.06,-108.51 200.44,-92.98 134.06,-76.08"/>
<polygon fill="midnightblue" stroke="midnightblue" points="134.82,-72.66 124.27,-73.58 133.09,-79.45 134.82,-72.66"/>
</g>
<!-- Node14&#45;&gt;Node13 -->
<g id="edge21" class="edge">
<title>Node14&#45;&gt;Node13</title>
<path fill="none" stroke="midnightblue" d="M300.27,-113.6C274.5,-104.63 230.71,-89.37 200.28,-78.77"/>
<polygon fill="midnightblue" stroke="midnightblue" points="201.12,-75.35 190.52,-75.37 198.81,-81.96 201.12,-75.35"/>
</g>
<!-- Node15 -->
<g id="node15" class="node">
<title>Node15</title>
<g id="a_node15"><a xlink:title=" ">
<polygon fill="none" stroke="#bfbfbf" points="208.5,-56.5 208.5,-75.5 256.5,-75.5 256.5,-56.5 208.5,-56.5"/>
<text text-anchor="middle" x="232.5" y="-63.5" font-family="Helvetica,sans-Serif" font-size="10.00">stdint.h</text>
</a>
</g>
</g>
<!-- Node14&#45;&gt;Node15 -->
<g id="edge23" class="edge">
<title>Node14&#45;&gt;Node15</title>
<path fill="none" stroke="midnightblue" d="M307.2,-112.32C293.32,-103.9 272.01,-90.97 255.7,-81.07"/>
<polygon fill="midnightblue" stroke="midnightblue" points="257.13,-77.85 246.76,-75.65 253.5,-83.83 257.13,-77.85"/>
</g>
<!-- Node16 -->
<g id="node16" class="node">
<title>Node16</title>
<g id="a_node16"><a xlink:title=" ">
<polygon fill="none" stroke="#bfbfbf" points="275,-56.5 275,-75.5 334,-75.5 334,-56.5 275,-56.5"/>
<text text-anchor="middle" x="304.5" y="-63.5" font-family="Helvetica,sans-Serif" font-size="10.00">sys/stat.h</text>
</a>
</g>
</g>
<!-- Node14&#45;&gt;Node16 -->
<g id="edge25" class="edge">
<title>Node14&#45;&gt;Node16</title>
<path fill="none" stroke="midnightblue" d="M318.69,-112.08C316.42,-104.85 313.13,-94.41 310.29,-85.4"/>
<polygon fill="midnightblue" stroke="midnightblue" points="313.6,-84.24 307.25,-75.75 306.92,-86.34 313.6,-84.24"/>
</g>
<!-- Node17 -->
<g id="node17" class="node">
<title>Node17</title>
<g id="a_node17"><a xlink:title=" ">
<polygon fill="none" stroke="#bfbfbf" points="352,-56.5 352,-75.5 417,-75.5 417,-56.5 352,-56.5"/>
<text text-anchor="middle" x="384.5" y="-63.5" font-family="Helvetica,sans-Serif" font-size="10.00">sys/types.h</text>
</a>
</g>
</g>
<!-- Node14&#45;&gt;Node17 -->
<g id="edge26" class="edge">
<title>Node14&#45;&gt;Node17</title>
<path fill="none" stroke="midnightblue" d="M331.62,-112.32C341.03,-104.26 355.24,-92.08 366.57,-82.37"/>
<polygon fill="midnightblue" stroke="midnightblue" points="368.88,-85 374.19,-75.83 364.32,-79.68 368.88,-85"/>
</g>
<!-- Node18 -->
<g id="node18" class="node">
<title>Node18</title>
<g id="a_node18"><a xlink:title=" ">
<polygon fill="none" stroke="#bfbfbf" points="435.5,-56.5 435.5,-75.5 481.5,-75.5 481.5,-56.5 435.5,-56.5"/>
<text text-anchor="middle" x="458.5" y="-63.5" font-family="Helvetica,sans-Serif" font-size="10.00">errno.h</text>
</a>
</g>
</g>
<!-- Node14&#45;&gt;Node18 -->
<g id="edge27" class="edge">
<title>Node14&#45;&gt;Node18</title>
<path fill="none" stroke="midnightblue" d="M342.61,-112.68C365.23,-103.76 401.4,-89.51 427.31,-79.29"/>
<polygon fill="midnightblue" stroke="midnightblue" points="428.67,-82.52 436.69,-75.6 426.1,-76.01 428.67,-82.52"/>
</g>
</g>
</svg>
