<?xml version="1.0" encoding="UTF-8" standalone="no"?>
<!DOCTYPE svg PUBLIC "-//W3C//DTD SVG 1.1//EN"
 "http://www.w3.org/Graphics/SVG/1.1/DTD/svg11.dtd">
<!-- Generated by graphviz version 2.43.0 (0)
 -->
<!-- Title: src/IBM_EIS/timeseries.c Pages: 1 -->
<svg width="1622pt" height="478pt"
 viewBox="0.00 0.00 1621.50 478.00" xmlns="http://www.w3.org/2000/svg" xmlns:xlink="http://www.w3.org/1999/xlink">
<g id="graph0" class="graph" transform="scale(1 1) rotate(0) translate(4 474)">
<title>src/IBM_EIS/timeseries.c</title>
<!-- Node1 -->
<g id="node1" class="node">
<title>Node1</title>
<g id="a_node1"><a xlink:title=" ">
<polygon fill="#999999" stroke="#666666" points="573,-470 437,-470 437,-451 573,-451 573,-470"/>
<text text-anchor="middle" x="505" y="-458" font-family="Helvetica,sans-Serif" font-size="10.00">src/IBM_EIS/timeseries.c</text>
</a>
</g>
</g>
<!-- Node2 -->
<g id="node2" class="node">
<title>Node2</title>
<g id="a_node2"><a xlink:href="timeseries_8h.html" target="_top" xlink:title=" ">
<polygon fill="white" stroke="#666666" points="564.5,-415 445.5,-415 445.5,-396 564.5,-396 564.5,-415"/>
<text text-anchor="middle" x="505" y="-403" font-family="Helvetica,sans-Serif" font-size="10.00">IBM_EIS/timeseries.h</text>
</a>
</g>
</g>
<!-- Node1&#45;&gt;Node2 -->
<g id="edge1" class="edge">
<title>Node1&#45;&gt;Node2</title>
<path fill="none" stroke="#63b8ff" d="M505,-450.75C505,-443.8 505,-433.85 505,-425.13"/>
<polygon fill="#63b8ff" stroke="#63b8ff" points="508.5,-425.09 505,-415.09 501.5,-425.09 508.5,-425.09"/>
</g>
<!-- Node3 -->
<g id="node3" class="node">
<title>Node3</title>
<g id="a_node3"><a xlink:title=" ">
<polygon fill="#e0e0e0" stroke="#999999" points="731.5,-74 666.5,-74 666.5,-55 731.5,-55 731.5,-74"/>
<text text-anchor="middle" x="699" y="-62" font-family="Helvetica,sans-Serif" font-size="10.00">curl/curl.h</text>
</a>
</g>
</g>
<!-- Node2&#45;&gt;Node3 -->
<g id="edge2" class="edge">
<title>Node2&#45;&gt;Node3</title>
<path fill="none" stroke="#63b8ff" d="M496.22,-395.62C470.25,-368.23 397.8,-283.12 434,-220 481.93,-136.42 594.48,-93.81 656.37,-76"/>
<polygon fill="#63b8ff" stroke="#63b8ff" points="657.52,-79.32 666.21,-73.26 655.64,-72.57 657.52,-79.32"/>
</g>
<!-- Node4 -->
<g id="node4" class="node">
<title>Node4</title>
<g id="a_node4"><a xlink:title=" ">
<polygon fill="#e0e0e0" stroke="#999999" points="544.5,-74 461.5,-74 461.5,-55 544.5,-55 544.5,-74"/>
<text text-anchor="middle" x="503" y="-62" font-family="Helvetica,sans-Serif" font-size="10.00">cjson/cJSON.h</text>
</a>
</g>
</g>
<!-- Node2&#45;&gt;Node4 -->
<g id="edge3" class="edge">
<title>Node2&#45;&gt;Node4</title>
<path fill="none" stroke="#63b8ff" d="M445.12,-398.62C344.41,-387.07 152,-357.06 152,-296.5 152,-296.5 152,-296.5 152,-173.5 152,-111.61 353.84,-81.48 451.4,-70.53"/>
<polygon fill="#63b8ff" stroke="#63b8ff" points="451.8,-74.01 461.36,-69.44 451.04,-67.05 451.8,-74.01"/>
</g>
<!-- Node5 -->
<g id="node5" class="node">
<title>Node5</title>
<g id="a_node5"><a xlink:title=" ">
<polygon fill="#e0e0e0" stroke="#999999" points="1414.5,-74 1363.5,-74 1363.5,-55 1414.5,-55 1414.5,-74"/>
<text text-anchor="middle" x="1389" y="-62" font-family="Helvetica,sans-Serif" font-size="10.00">math.h</text>
</a>
</g>
</g>
<!-- Node2&#45;&gt;Node5 -->
<g id="edge4" class="edge">
<title>Node2&#45;&gt;Node5</title>
<path fill="none" stroke="#63b8ff" d="M564.65,-402.46C738.02,-395.79 1238.92,-371.16 1387,-305 1423.77,-288.57 1440.88,-285.96 1459,-250 1476,-216.26 1468.27,-201.86 1460,-165 1454.08,-138.62 1449.63,-132.06 1434,-110 1426.41,-99.29 1416.11,-88.89 1407.28,-80.84"/>
<polygon fill="#63b8ff" stroke="#63b8ff" points="1409.52,-78.15 1399.7,-74.16 1404.89,-83.4 1409.52,-78.15"/>
</g>
<!-- Node6 -->
<g id="node6" class="node">
<title>Node6</title>
<g id="a_node6"><a xlink:title=" ">
<polygon fill="#e0e0e0" stroke="#999999" points="100,-19 52,-19 52,0 100,0 100,-19"/>
<text text-anchor="middle" x="76" y="-7" font-family="Helvetica,sans-Serif" font-size="10.00">time.h</text>
</a>
</g>
</g>
<!-- Node2&#45;&gt;Node6 -->
<g id="edge5" class="edge">
<title>Node2&#45;&gt;Node6</title>
<path fill="none" stroke="#63b8ff" d="M445.09,-404.16C311.32,-401.8 0,-386.6 0,-296.5 0,-296.5 0,-296.5 0,-118.5 0,-79.47 33.61,-44.58 56.13,-25.6"/>
<polygon fill="#63b8ff" stroke="#63b8ff" points="58.56,-28.14 64.12,-19.12 54.15,-22.7 58.56,-28.14"/>
</g>
<!-- Node7 -->
<g id="node7" class="node">
<title>Node7</title>
<g id="a_node7"><a xlink:title=" ">
<polygon fill="#e0e0e0" stroke="#999999" points="1613.5,-74 1550.5,-74 1550.5,-55 1613.5,-55 1613.5,-74"/>
<text text-anchor="middle" x="1582" y="-62" font-family="Helvetica,sans-Serif" font-size="10.00">libpq&#45;fe.h</text>
</a>
</g>
</g>
<!-- Node2&#45;&gt;Node7 -->
<g id="edge6" class="edge">
<title>Node2&#45;&gt;Node7</title>
<path fill="none" stroke="#63b8ff" d="M564.54,-404.92C792.63,-405.75 1598,-401.26 1598,-296.5 1598,-296.5 1598,-296.5 1598,-173.5 1598,-141.85 1591.19,-105.54 1586.46,-84.11"/>
<polygon fill="#63b8ff" stroke="#63b8ff" points="1589.81,-83.08 1584.16,-74.12 1582.99,-84.65 1589.81,-83.08"/>
</g>
<!-- Node8 -->
<g id="node8" class="node">
<title>Node8</title>
<g id="a_node8"><a xlink:href="log_8h.html" target="_top" xlink:title=" ">
<polygon fill="white" stroke="#666666" points="286.5,-74 245.5,-74 245.5,-55 286.5,-55 286.5,-74"/>
<text text-anchor="middle" x="266" y="-62" font-family="Helvetica,sans-Serif" font-size="10.00">log.h</text>
</a>
</g>
</g>
<!-- Node2&#45;&gt;Node8 -->
<g id="edge7" class="edge">
<title>Node2&#45;&gt;Node8</title>
<path fill="none" stroke="#63b8ff" d="M445.35,-401.89C327.47,-395.09 76,-371.77 76,-296.5 76,-296.5 76,-296.5 76,-173.5 76,-101.11 181.52,-76.64 235.29,-68.86"/>
<polygon fill="#63b8ff" stroke="#63b8ff" points="235.86,-72.32 245.3,-67.52 234.93,-65.38 235.86,-72.32"/>
</g>
<!-- Node12 -->
<g id="node12" class="node">
<title>Node12</title>
<g id="a_node12"><a xlink:href="_i_b_m___e_i_s_2authenticate_8h.html" target="_top" xlink:title=" ">
<polygon fill="white" stroke="#666666" points="385.5,-244.5 256.5,-244.5 256.5,-225.5 385.5,-225.5 385.5,-244.5"/>
<text text-anchor="middle" x="321" y="-232.5" font-family="Helvetica,sans-Serif" font-size="10.00">IBM_EIS/authenticate.h</text>
</a>
</g>
</g>
<!-- Node2&#45;&gt;Node12 -->
<g id="edge12" class="edge">
<title>Node2&#45;&gt;Node12</title>
<path fill="none" stroke="#63b8ff" d="M471.45,-395.95C449.32,-389.03 420.71,-377.52 400,-360 364.73,-330.16 339.85,-280.54 328.29,-254.02"/>
<polygon fill="#63b8ff" stroke="#63b8ff" points="331.51,-252.64 324.4,-244.78 325.06,-255.35 331.51,-252.64"/>
</g>
<!-- Node13 -->
<g id="node13" class="node">
<title>Node13</title>
<g id="a_node13"><a xlink:href="http_8h.html" target="_top" xlink:title=" ">
<polygon fill="white" stroke="#666666" points="795.5,-184 750.5,-184 750.5,-165 795.5,-165 795.5,-184"/>
<text text-anchor="middle" x="773" y="-172" font-family="Helvetica,sans-Serif" font-size="10.00">http.h</text>
</a>
</g>
</g>
<!-- Node2&#45;&gt;Node13 -->
<g id="edge75" class="edge">
<title>Node2&#45;&gt;Node13</title>
<path fill="none" stroke="#63b8ff" d="M515.18,-395.8C555.39,-361.44 703.51,-234.87 755.12,-190.77"/>
<polygon fill="#63b8ff" stroke="#63b8ff" points="757.48,-193.36 762.81,-184.21 752.93,-188.04 757.48,-193.36"/>
</g>
<!-- Node16 -->
<g id="node16" class="node">
<title>Node16</title>
<g id="a_node16"><a xlink:href="utils_8h.html" target="_top" xlink:title=" ">
<polygon fill="white" stroke="#666666" points="975.5,-129 928.5,-129 928.5,-110 975.5,-110 975.5,-129"/>
<text text-anchor="middle" x="952" y="-117" font-family="Helvetica,sans-Serif" font-size="10.00">utils.h</text>
</a>
</g>
</g>
<!-- Node2&#45;&gt;Node16 -->
<g id="edge76" class="edge">
<title>Node2&#45;&gt;Node16</title>
<path fill="none" stroke="#63b8ff" d="M564.65,-403.24C691.39,-398.93 976,-379.97 976,-296.5 976,-296.5 976,-296.5 976,-234 976,-199.89 965.49,-161.23 958.38,-138.97"/>
<polygon fill="#63b8ff" stroke="#63b8ff" points="961.61,-137.58 955.14,-129.2 954.97,-139.79 961.61,-137.58"/>
</g>
<!-- Node21 -->
<g id="node21" class="node">
<title>Node21</title>
<g id="a_node21"><a xlink:href="transform_8h.html" target="_top" xlink:title=" ">
<polygon fill="white" stroke="#666666" points="1089,-360 1015,-360 1015,-341 1089,-341 1089,-360"/>
<text text-anchor="middle" x="1052" y="-348" font-family="Helvetica,sans-Serif" font-size="10.00">transform.h</text>
</a>
</g>
</g>
<!-- Node2&#45;&gt;Node21 -->
<g id="edge34" class="edge">
<title>Node2&#45;&gt;Node21</title>
<path fill="none" stroke="#63b8ff" d="M564.82,-399.88C656.47,-392.6 837.11,-377.49 990,-360 994.81,-359.45 999.82,-358.83 1004.82,-358.19"/>
<polygon fill="#63b8ff" stroke="#63b8ff" points="1005.53,-361.63 1014.99,-356.85 1004.62,-354.69 1005.53,-361.63"/>
</g>
<!-- Node8&#45;&gt;Node6 -->
<g id="edge11" class="edge">
<title>Node8&#45;&gt;Node6</title>
<path fill="none" stroke="#63b8ff" d="M245.3,-57.73C212.75,-48.64 149.23,-30.93 109.92,-19.96"/>
<polygon fill="#63b8ff" stroke="#63b8ff" points="110.82,-16.58 100.24,-17.26 108.94,-23.32 110.82,-16.58"/>
</g>
<!-- Node9 -->
<g id="node9" class="node">
<title>Node9</title>
<g id="a_node9"><a xlink:title=" ">
<polygon fill="#e0e0e0" stroke="#999999" points="1265,-19 1215,-19 1215,0 1265,0 1265,-19"/>
<text text-anchor="middle" x="1240" y="-7" font-family="Helvetica,sans-Serif" font-size="10.00">stdio.h</text>
</a>
</g>
</g>
<!-- Node8&#45;&gt;Node9 -->
<g id="edge8" class="edge">
<title>Node8&#45;&gt;Node9</title>
<path fill="none" stroke="#63b8ff" d="M286.79,-62.37C410.23,-55.65 1046.65,-21.02 1204.53,-12.43"/>
<polygon fill="#63b8ff" stroke="#63b8ff" points="1204.85,-15.92 1214.64,-11.88 1204.47,-8.93 1204.85,-15.92"/>
</g>
<!-- Node10 -->
<g id="node10" class="node">
<title>Node10</title>
<g id="a_node10"><a xlink:title=" ">
<polygon fill="#e0e0e0" stroke="#999999" points="333,-19 277,-19 277,0 333,0 333,-19"/>
<text text-anchor="middle" x="305" y="-7" font-family="Helvetica,sans-Serif" font-size="10.00">stdarg.h</text>
</a>
</g>
</g>
<!-- Node8&#45;&gt;Node10 -->
<g id="edge9" class="edge">
<title>Node8&#45;&gt;Node10</title>
<path fill="none" stroke="#63b8ff" d="M272.44,-54.75C277.89,-47.34 285.86,-36.5 292.56,-27.41"/>
<polygon fill="#63b8ff" stroke="#63b8ff" points="295.57,-29.22 298.68,-19.09 289.93,-25.07 295.57,-29.22"/>
</g>
<!-- Node11 -->
<g id="node11" class="node">
<title>Node11</title>
<g id="a_node11"><a xlink:title=" ">
<polygon fill="#e0e0e0" stroke="#999999" points="259,-19 197,-19 197,0 259,0 259,-19"/>
<text text-anchor="middle" x="228" y="-7" font-family="Helvetica,sans-Serif" font-size="10.00">stdbool.h</text>
</a>
</g>
</g>
<!-- Node8&#45;&gt;Node11 -->
<g id="edge10" class="edge">
<title>Node8&#45;&gt;Node11</title>
<path fill="none" stroke="#63b8ff" d="M259.73,-54.75C254.41,-47.34 246.64,-36.5 240.12,-27.41"/>
<polygon fill="#63b8ff" stroke="#63b8ff" points="242.83,-25.18 234.16,-19.09 237.14,-29.26 242.83,-25.18"/>
</g>
<!-- Node12&#45;&gt;Node3 -->
<g id="edge13" class="edge">
<title>Node12&#45;&gt;Node3</title>
<path fill="none" stroke="#63b8ff" d="M323.96,-225.23C332.32,-201.94 358.51,-138.39 404,-110 445.3,-84.22 585.04,-72.31 656.36,-67.79"/>
<polygon fill="#63b8ff" stroke="#63b8ff" points="656.6,-71.29 666.37,-67.18 656.17,-64.3 656.6,-71.29"/>
</g>
<!-- Node12&#45;&gt;Node4 -->
<g id="edge14" class="edge">
<title>Node12&#45;&gt;Node4</title>
<path fill="none" stroke="#63b8ff" d="M320.52,-225.19C320.08,-211.76 320.43,-185.56 328,-165 338.27,-137.12 342.17,-127.75 366,-110 391.01,-91.38 424.16,-80.34 451.58,-73.91"/>
<polygon fill="#63b8ff" stroke="#63b8ff" points="452.39,-77.32 461.4,-71.75 450.88,-70.48 452.39,-77.32"/>
</g>
<!-- Node12&#45;&gt;Node6 -->
<g id="edge15" class="edge">
<title>Node12&#45;&gt;Node6</title>
<path fill="none" stroke="#63b8ff" d="M256.23,-227.49C198.78,-220.31 120.82,-206.67 100,-184 60.45,-140.94 66.77,-64.69 72.37,-29.4"/>
<polygon fill="#63b8ff" stroke="#63b8ff" points="75.89,-29.56 74.17,-19.11 69,-28.35 75.89,-29.56"/>
</g>
<!-- Node12&#45;&gt;Node8 -->
<g id="edge16" class="edge">
<title>Node12&#45;&gt;Node8</title>
<path fill="none" stroke="#63b8ff" d="M314.26,-225.3C307.16,-215.71 296.17,-199.57 290,-184 276.64,-150.29 270.38,-108.12 267.72,-84.26"/>
<polygon fill="#63b8ff" stroke="#63b8ff" points="271.19,-83.72 266.69,-74.13 264.22,-84.43 271.19,-83.72"/>
</g>
<!-- Node12&#45;&gt;Node13 -->
<g id="edge17" class="edge">
<title>Node12&#45;&gt;Node13</title>
<path fill="none" stroke="#63b8ff" d="M385.76,-225.62C483.71,-212.94 665.98,-189.35 740.24,-179.74"/>
<polygon fill="#63b8ff" stroke="#63b8ff" points="740.92,-183.18 750.39,-178.43 740.02,-176.24 740.92,-183.18"/>
</g>
<!-- Node12&#45;&gt;Node16 -->
<g id="edge33" class="edge">
<title>Node12&#45;&gt;Node16</title>
<path fill="none" stroke="#63b8ff" d="M361.71,-225.5C427.03,-211.96 559.34,-185.02 672,-165 760.64,-149.25 865.54,-133.29 918.23,-125.46"/>
<polygon fill="#63b8ff" stroke="#63b8ff" points="918.97,-128.89 928.35,-123.96 917.95,-121.96 918.97,-128.89"/>
</g>
<!-- Node13&#45;&gt;Node3 -->
<g id="edge20" class="edge">
<title>Node13&#45;&gt;Node3</title>
<path fill="none" stroke="#63b8ff" d="M766.94,-164.66C754.69,-146.77 726.75,-106 710.78,-82.69"/>
<polygon fill="#63b8ff" stroke="#63b8ff" points="713.47,-80.43 704.93,-74.16 707.7,-84.39 713.47,-80.43"/>
</g>
<!-- Node14 -->
<g id="node14" class="node">
<title>Node14</title>
<g id="a_node14"><a xlink:title=" ">
<polygon fill="#e0e0e0" stroke="#999999" points="1255.5,-74 1202.5,-74 1202.5,-55 1255.5,-55 1255.5,-74"/>
<text text-anchor="middle" x="1229" y="-62" font-family="Helvetica,sans-Serif" font-size="10.00">stdlib.h</text>
</a>
</g>
</g>
<!-- Node13&#45;&gt;Node14 -->
<g id="edge18" class="edge">
<title>Node13&#45;&gt;Node14</title>
<path fill="none" stroke="#63b8ff" d="M795.67,-169.11C834.54,-161.5 916.35,-145.13 985,-129 1059.04,-111.61 1144.97,-88.57 1192.55,-75.57"/>
<polygon fill="#63b8ff" stroke="#63b8ff" points="1193.67,-78.89 1202.39,-72.87 1191.82,-72.14 1193.67,-78.89"/>
</g>
<!-- Node15 -->
<g id="node15" class="node">
<title>Node15</title>
<g id="a_node15"><a xlink:title=" ">
<polygon fill="#e0e0e0" stroke="#999999" points="830.5,-74 777.5,-74 777.5,-55 830.5,-55 830.5,-74"/>
<text text-anchor="middle" x="804" y="-62" font-family="Helvetica,sans-Serif" font-size="10.00">string.h</text>
</a>
</g>
</g>
<!-- Node13&#45;&gt;Node15 -->
<g id="edge19" class="edge">
<title>Node13&#45;&gt;Node15</title>
<path fill="none" stroke="#63b8ff" d="M775.54,-164.66C780.58,-147.09 791.96,-107.45 798.7,-83.95"/>
<polygon fill="#63b8ff" stroke="#63b8ff" points="802.12,-84.74 801.51,-74.16 795.39,-82.8 802.12,-84.74"/>
</g>
<!-- Node13&#45;&gt;Node16 -->
<g id="edge21" class="edge">
<title>Node13&#45;&gt;Node16</title>
<path fill="none" stroke="#63b8ff" d="M795.67,-166.79C826.67,-157.61 882.51,-141.08 918.38,-130.45"/>
<polygon fill="#63b8ff" stroke="#63b8ff" points="919.78,-133.69 928.38,-127.49 917.8,-126.98 919.78,-133.69"/>
</g>
<!-- Node16&#45;&gt;Node3 -->
<g id="edge24" class="edge">
<title>Node16&#45;&gt;Node3</title>
<path fill="none" stroke="#63b8ff" d="M928.2,-113.51C885.44,-104.56 795.1,-85.63 741.49,-74.4"/>
<polygon fill="#63b8ff" stroke="#63b8ff" points="742.11,-70.96 731.61,-72.33 740.68,-77.81 742.11,-70.96"/>
</g>
<!-- Node16&#45;&gt;Node4 -->
<g id="edge26" class="edge">
<title>Node16&#45;&gt;Node4</title>
<path fill="none" stroke="#63b8ff" d="M928.49,-115.73C858.85,-107.5 652.44,-83.14 555.02,-71.64"/>
<polygon fill="#63b8ff" stroke="#63b8ff" points="555.15,-68.13 544.81,-70.44 554.33,-75.08 555.15,-68.13"/>
</g>
<!-- Node16&#45;&gt;Node5 -->
<g id="edge30" class="edge">
<title>Node16&#45;&gt;Node5</title>
<path fill="none" stroke="#63b8ff" d="M975.81,-115.61C1048.3,-106.82 1266.66,-80.34 1353.16,-69.85"/>
<polygon fill="#63b8ff" stroke="#63b8ff" points="1353.76,-73.3 1363.27,-68.62 1352.92,-66.35 1353.76,-73.3"/>
</g>
<!-- Node16&#45;&gt;Node7 -->
<g id="edge32" class="edge">
<title>Node16&#45;&gt;Node7</title>
<path fill="none" stroke="#63b8ff" d="M975.55,-116.52C1069.64,-108.6 1419.38,-79.18 1540.44,-69"/>
<polygon fill="#63b8ff" stroke="#63b8ff" points="1540.76,-72.48 1550.43,-68.16 1540.17,-65.51 1540.76,-72.48"/>
</g>
<!-- Node16&#45;&gt;Node8 -->
<g id="edge31" class="edge">
<title>Node16&#45;&gt;Node8</title>
<path fill="none" stroke="#63b8ff" d="M928.39,-116.68C825.12,-108.7 413.21,-76.87 296.79,-67.88"/>
<polygon fill="#63b8ff" stroke="#63b8ff" points="297.01,-64.39 286.77,-67.1 296.47,-71.36 297.01,-64.39"/>
</g>
<!-- Node16&#45;&gt;Node14 -->
<g id="edge22" class="edge">
<title>Node16&#45;&gt;Node14</title>
<path fill="none" stroke="#63b8ff" d="M975.62,-113.98C1023.9,-104.74 1134.21,-83.64 1192.06,-72.57"/>
<polygon fill="#63b8ff" stroke="#63b8ff" points="1193.06,-75.94 1202.22,-70.62 1191.74,-69.07 1193.06,-75.94"/>
</g>
<!-- Node16&#45;&gt;Node15 -->
<g id="edge23" class="edge">
<title>Node16&#45;&gt;Node15</title>
<path fill="none" stroke="#63b8ff" d="M928.22,-109.98C903.77,-101.23 865.47,-87.51 837.85,-77.62"/>
<polygon fill="#63b8ff" stroke="#63b8ff" points="838.81,-74.25 828.21,-74.17 836.45,-80.84 838.81,-74.25"/>
</g>
<!-- Node17 -->
<g id="node17" class="node">
<title>Node17</title>
<g id="a_node17"><a xlink:title=" ">
<polygon fill="#e0e0e0" stroke="#999999" points="901.5,-74 848.5,-74 848.5,-55 901.5,-55 901.5,-74"/>
<text text-anchor="middle" x="875" y="-62" font-family="Helvetica,sans-Serif" font-size="10.00">stdint.h</text>
</a>
</g>
</g>
<!-- Node16&#45;&gt;Node17 -->
<g id="edge25" class="edge">
<title>Node16&#45;&gt;Node17</title>
<path fill="none" stroke="#63b8ff" d="M939.63,-109.98C927.91,-101.92 910.08,-89.65 896.11,-80.03"/>
<polygon fill="#63b8ff" stroke="#63b8ff" points="897.82,-76.96 887.6,-74.17 893.85,-82.72 897.82,-76.96"/>
</g>
<!-- Node18 -->
<g id="node18" class="node">
<title>Node18</title>
<g id="a_node18"><a xlink:title=" ">
<polygon fill="#e0e0e0" stroke="#999999" points="984,-74 920,-74 920,-55 984,-55 984,-74"/>
<text text-anchor="middle" x="952" y="-62" font-family="Helvetica,sans-Serif" font-size="10.00">sys/stat.h</text>
</a>
</g>
</g>
<!-- Node16&#45;&gt;Node18 -->
<g id="edge27" class="edge">
<title>Node16&#45;&gt;Node18</title>
<path fill="none" stroke="#63b8ff" d="M952,-109.75C952,-102.8 952,-92.85 952,-84.13"/>
<polygon fill="#63b8ff" stroke="#63b8ff" points="955.5,-84.09 952,-74.09 948.5,-84.09 955.5,-84.09"/>
</g>
<!-- Node19 -->
<g id="node19" class="node">
<title>Node19</title>
<g id="a_node19"><a xlink:title=" ">
<polygon fill="#e0e0e0" stroke="#999999" points="1074,-74 1002,-74 1002,-55 1074,-55 1074,-74"/>
<text text-anchor="middle" x="1038" y="-62" font-family="Helvetica,sans-Serif" font-size="10.00">sys/types.h</text>
</a>
</g>
</g>
<!-- Node16&#45;&gt;Node19 -->
<g id="edge28" class="edge">
<title>Node16&#45;&gt;Node19</title>
<path fill="none" stroke="#63b8ff" d="M965.82,-109.98C979.15,-101.77 999.58,-89.18 1015.31,-79.49"/>
<polygon fill="#63b8ff" stroke="#63b8ff" points="1017.25,-82.4 1023.93,-74.17 1013.58,-76.44 1017.25,-82.4"/>
</g>
<!-- Node20 -->
<g id="node20" class="node">
<title>Node20</title>
<g id="a_node20"><a xlink:title=" ">
<polygon fill="#e0e0e0" stroke="#999999" points="1143.5,-74 1092.5,-74 1092.5,-55 1143.5,-55 1143.5,-74"/>
<text text-anchor="middle" x="1118" y="-62" font-family="Helvetica,sans-Serif" font-size="10.00">errno.h</text>
</a>
</g>
</g>
<!-- Node16&#45;&gt;Node20 -->
<g id="edge29" class="edge">
<title>Node16&#45;&gt;Node20</title>
<path fill="none" stroke="#63b8ff" d="M975.78,-110.91C1003.69,-102 1050.24,-87.13 1082.44,-76.85"/>
<polygon fill="#63b8ff" stroke="#63b8ff" points="1083.89,-80.06 1092.35,-73.69 1081.76,-73.4 1083.89,-80.06"/>
</g>
<!-- Node21&#45;&gt;Node7 -->
<g id="edge35" class="edge">
<title>Node21&#45;&gt;Node7</title>
<path fill="none" stroke="#63b8ff" d="M1089.24,-349.2C1183.06,-347.92 1426.77,-341.1 1498,-305 1534.77,-286.36 1560,-277.23 1560,-236 1560,-236 1560,-236 1560,-173.5 1560,-141.4 1569.45,-104.99 1575.96,-83.71"/>
<polygon fill="#63b8ff" stroke="#63b8ff" points="1579.33,-84.65 1579.03,-74.06 1572.66,-82.53 1579.33,-84.65"/>
</g>
<!-- Node21&#45;&gt;Node8 -->
<g id="edge38" class="edge">
<title>Node21&#45;&gt;Node8</title>
<path fill="none" stroke="#63b8ff" d="M1014.86,-347.77C861.34,-340.27 281.88,-308.24 227,-250 184.28,-204.66 209.14,-167.13 234,-110 238.41,-99.88 245.39,-89.79 251.71,-81.78"/>
<polygon fill="#63b8ff" stroke="#63b8ff" points="254.47,-83.94 258.16,-74.01 249.08,-79.47 254.47,-83.94"/>
</g>
<!-- Node21&#45;&gt;Node9 -->
<g id="edge36" class="edge">
<title>Node21&#45;&gt;Node9</title>
<path fill="none" stroke="#63b8ff" d="M1089.25,-346.98C1164.87,-341.46 1333.73,-327.03 1387,-305 1463.83,-273.22 1522,-258.64 1522,-175.5 1522,-175.5 1522,-175.5 1522,-118.5 1522,-66.18 1350.55,-29.79 1275.02,-16.3"/>
<polygon fill="#63b8ff" stroke="#63b8ff" points="1275.48,-12.82 1265.03,-14.54 1274.27,-19.72 1275.48,-12.82"/>
</g>
<!-- Node21&#45;&gt;Node14 -->
<g id="edge37" class="edge">
<title>Node21&#45;&gt;Node14</title>
<path fill="none" stroke="#63b8ff" d="M1089.07,-346.77C1187.15,-338.55 1446,-309.85 1446,-236 1446,-236 1446,-236 1446,-173.5 1446,-93.94 1327.64,-72.99 1265.75,-67.47"/>
<polygon fill="#63b8ff" stroke="#63b8ff" points="1265.86,-63.97 1255.61,-66.66 1265.3,-70.95 1265.86,-63.97"/>
</g>
<!-- Node21&#45;&gt;Node16 -->
<g id="edge74" class="edge">
<title>Node21&#45;&gt;Node16</title>
<path fill="none" stroke="#63b8ff" d="M1048.6,-340.96C1038.05,-314.57 1004.7,-232.03 974,-165 969.96,-156.19 965.22,-146.52 961.18,-138.46"/>
<polygon fill="#63b8ff" stroke="#63b8ff" points="964.18,-136.63 956.54,-129.29 957.93,-139.79 964.18,-136.63"/>
</g>
<!-- Node22 -->
<g id="node22" class="node">
<title>Node22</title>
<g id="a_node22"><a xlink:href="stations_8h.html" target="_top" xlink:title=" ">
<polygon fill="white" stroke="#666666" points="1379.5,-244.5 1288.5,-244.5 1288.5,-225.5 1379.5,-225.5 1379.5,-244.5"/>
<text text-anchor="middle" x="1334" y="-232.5" font-family="Helvetica,sans-Serif" font-size="10.00">BOM/stations.h</text>
</a>
</g>
</g>
<!-- Node21&#45;&gt;Node22 -->
<g id="edge39" class="edge">
<title>Node21&#45;&gt;Node22</title>
<path fill="none" stroke="#63b8ff" d="M1073.2,-340.97C1122.6,-321.09 1245.57,-271.59 1303.23,-248.38"/>
<polygon fill="#63b8ff" stroke="#63b8ff" points="1304.59,-251.61 1312.56,-244.63 1301.97,-245.12 1304.59,-251.61"/>
</g>
<!-- Node25 -->
<g id="node25" class="node">
<title>Node25</title>
<g id="a_node25"><a xlink:href="harvest__area_8h.html" target="_top" xlink:title=" ">
<polygon fill="white" stroke="#666666" points="567.5,-250 442.5,-250 442.5,-220 567.5,-220 567.5,-250"/>
<text text-anchor="start" x="450.5" y="-238" font-family="Helvetica,sans-Serif" font-size="10.00">FoodAuthority/harvest</text>
<text text-anchor="middle" x="505" y="-227" font-family="Helvetica,sans-Serif" font-size="10.00">_area.h</text>
</a>
</g>
</g>
<!-- Node21&#45;&gt;Node25 -->
<g id="edge49" class="edge">
<title>Node21&#45;&gt;Node25</title>
<path fill="none" stroke="#63b8ff" d="M1014.81,-343.32C966.54,-335.18 879.77,-320.12 806,-305 725.4,-288.48 633.27,-266.97 572.4,-252.39"/>
<polygon fill="#63b8ff" stroke="#63b8ff" points="573.07,-248.95 562.53,-250.02 571.44,-255.76 573.07,-248.95"/>
</g>
<!-- Node26 -->
<g id="node26" class="node">
<title>Node26</title>
<g id="a_node26"><a xlink:href="location_8h.html" target="_top" xlink:title=" ">
<polygon fill="white" stroke="#666666" points="947.5,-305 814.5,-305 814.5,-286 947.5,-286 947.5,-305"/>
<text text-anchor="middle" x="881" y="-293" font-family="Helvetica,sans-Serif" font-size="10.00">WillyWeather/location.h</text>
</a>
</g>
</g>
<!-- Node21&#45;&gt;Node26 -->
<g id="edge56" class="edge">
<title>Node21&#45;&gt;Node26</title>
<path fill="none" stroke="#63b8ff" d="M1024.53,-340.98C995.82,-332.09 950.58,-318.07 918.58,-308.15"/>
<polygon fill="#63b8ff" stroke="#63b8ff" points="919.28,-304.7 908.69,-305.08 917.2,-311.39 919.28,-304.7"/>
</g>
<!-- Node22&#45;&gt;Node5 -->
<g id="edge40" class="edge">
<title>Node22&#45;&gt;Node5</title>
<path fill="none" stroke="#63b8ff" d="M1337.06,-225.16C1340.5,-215.19 1346.23,-198.45 1351,-184 1362.7,-148.58 1375.9,-107.04 1383.26,-83.74"/>
<polygon fill="#63b8ff" stroke="#63b8ff" points="1386.62,-84.73 1386.29,-74.14 1379.94,-82.63 1386.62,-84.73"/>
</g>
<!-- Node22&#45;&gt;Node16 -->
<g id="edge48" class="edge">
<title>Node22&#45;&gt;Node16</title>
<path fill="none" stroke="#63b8ff" d="M1288.47,-226.61C1242.51,-218.52 1169.83,-203.98 1109,-184 1089.15,-177.48 1085.29,-173.02 1066,-165 1038.66,-153.63 1007.3,-141.45 984.4,-132.71"/>
<polygon fill="#63b8ff" stroke="#63b8ff" points="985.42,-129.36 974.83,-129.07 982.93,-135.9 985.42,-129.36"/>
</g>
<!-- Node23 -->
<g id="node23" class="node">
<title>Node23</title>
<g id="a_node23"><a xlink:title=" ">
<polygon fill="#e0e0e0" stroke="#999999" points="1341.5,-184 1288.5,-184 1288.5,-165 1341.5,-165 1341.5,-184"/>
<text text-anchor="middle" x="1315" y="-172" font-family="Helvetica,sans-Serif" font-size="10.00">ctype.h</text>
</a>
</g>
</g>
<!-- Node22&#45;&gt;Node23 -->
<g id="edge41" class="edge">
<title>Node22&#45;&gt;Node23</title>
<path fill="none" stroke="#63b8ff" d="M1331.2,-225.37C1328.5,-217.07 1324.35,-204.28 1320.92,-193.72"/>
<polygon fill="#63b8ff" stroke="#63b8ff" points="1324.23,-192.6 1317.82,-184.17 1317.58,-194.76 1324.23,-192.6"/>
</g>
<!-- Node24 -->
<g id="node24" class="node">
<title>Node24</title>
<g id="a_node24"><a xlink:href="ftp_8h.html" target="_top" xlink:title=" ">
<polygon fill="white" stroke="#666666" points="1156,-184 1118,-184 1118,-165 1156,-165 1156,-184"/>
<text text-anchor="middle" x="1137" y="-172" font-family="Helvetica,sans-Serif" font-size="10.00">ftp.h</text>
</a>
</g>
</g>
<!-- Node22&#45;&gt;Node24 -->
<g id="edge42" class="edge">
<title>Node22&#45;&gt;Node24</title>
<path fill="none" stroke="#63b8ff" d="M1305.35,-225.49C1268.09,-214.43 1203.35,-195.2 1165.95,-184.1"/>
<polygon fill="#63b8ff" stroke="#63b8ff" points="1166.75,-180.68 1156.16,-181.19 1164.75,-187.39 1166.75,-180.68"/>
</g>
<!-- Node24&#45;&gt;Node3 -->
<g id="edge45" class="edge">
<title>Node24&#45;&gt;Node3</title>
<path fill="none" stroke="#63b8ff" d="M1117.64,-167.35C1093.76,-159.53 1052.12,-145.07 1018,-129 1002.69,-121.79 1000.96,-115.62 985,-110 962.48,-102.07 815.76,-81.39 741.67,-71.26"/>
<polygon fill="#63b8ff" stroke="#63b8ff" points="742.1,-67.78 731.71,-69.9 741.15,-74.72 742.1,-67.78"/>
</g>
<!-- Node24&#45;&gt;Node14 -->
<g id="edge43" class="edge">
<title>Node24&#45;&gt;Node14</title>
<path fill="none" stroke="#63b8ff" d="M1144.53,-164.66C1159.9,-146.61 1195.12,-105.28 1214.88,-82.08"/>
<polygon fill="#63b8ff" stroke="#63b8ff" points="1217.8,-84.04 1221.62,-74.16 1212.48,-79.5 1217.8,-84.04"/>
</g>
<!-- Node24&#45;&gt;Node15 -->
<g id="edge44" class="edge">
<title>Node24&#45;&gt;Node15</title>
<path fill="none" stroke="#63b8ff" d="M1124.03,-164.94C1102.76,-151.29 1058.77,-124.65 1018,-110 945.01,-83.78 920.74,-90.66 840.75,-74.05"/>
<polygon fill="#63b8ff" stroke="#63b8ff" points="841.23,-70.58 830.71,-71.91 839.76,-77.42 841.23,-70.58"/>
</g>
<!-- Node24&#45;&gt;Node16 -->
<g id="edge47" class="edge">
<title>Node24&#45;&gt;Node16</title>
<path fill="none" stroke="#63b8ff" d="M1117.9,-168.03C1086.63,-159.07 1024.12,-141.16 985.4,-130.07"/>
<polygon fill="#63b8ff" stroke="#63b8ff" points="986.2,-126.66 975.62,-127.27 984.27,-133.39 986.2,-126.66"/>
</g>
<!-- Node24&#45;&gt;Node20 -->
<g id="edge46" class="edge">
<title>Node24&#45;&gt;Node20</title>
<path fill="none" stroke="#63b8ff" d="M1135.45,-164.66C1132.37,-147.17 1125.44,-107.8 1121.3,-84.27"/>
<polygon fill="#63b8ff" stroke="#63b8ff" points="1124.7,-83.4 1119.52,-74.16 1117.81,-84.61 1124.7,-83.4"/>
</g>
<!-- Node25&#45;&gt;Node3 -->
<g id="edge50" class="edge">
<title>Node25&#45;&gt;Node3</title>
<path fill="none" stroke="#63b8ff" d="M521.21,-219.92C557.27,-188.6 643.92,-113.34 681.32,-80.85"/>
<polygon fill="#63b8ff" stroke="#63b8ff" points="683.67,-83.45 688.92,-74.25 679.08,-78.17 683.67,-83.45"/>
</g>
<!-- Node25&#45;&gt;Node4 -->
<g id="edge51" class="edge">
<title>Node25&#45;&gt;Node4</title>
<path fill="none" stroke="#63b8ff" d="M504.83,-219.92C504.47,-189.65 503.63,-118.35 503.22,-84.27"/>
<polygon fill="#63b8ff" stroke="#63b8ff" points="506.72,-84.21 503.1,-74.25 499.72,-84.3 506.72,-84.21"/>
</g>
<!-- Node25&#45;&gt;Node6 -->
<g id="edge52" class="edge">
<title>Node25&#45;&gt;Node6</title>
<path fill="none" stroke="#63b8ff" d="M476.77,-219.9C456.93,-209.95 429.79,-196.26 406,-184 291.75,-125.12 156.18,-53.19 101.12,-23.88"/>
<polygon fill="#63b8ff" stroke="#63b8ff" points="102.56,-20.69 92.09,-19.08 99.27,-26.87 102.56,-20.69"/>
</g>
<!-- Node25&#45;&gt;Node8 -->
<g id="edge53" class="edge">
<title>Node25&#45;&gt;Node8</title>
<path fill="none" stroke="#63b8ff" d="M485.03,-219.92C440.22,-188.33 332,-112.03 286.59,-80.02"/>
<polygon fill="#63b8ff" stroke="#63b8ff" points="288.33,-76.96 278.15,-74.06 284.3,-82.69 288.33,-76.96"/>
</g>
<!-- Node25&#45;&gt;Node13 -->
<g id="edge54" class="edge">
<title>Node25&#45;&gt;Node13</title>
<path fill="none" stroke="#63b8ff" d="M567.83,-220.28C621.86,-208.49 697.63,-191.95 740.35,-182.63"/>
<polygon fill="#63b8ff" stroke="#63b8ff" points="741.19,-186.03 750.21,-180.47 739.7,-179.19 741.19,-186.03"/>
</g>
<!-- Node25&#45;&gt;Node16 -->
<g id="edge55" class="edge">
<title>Node25&#45;&gt;Node16</title>
<path fill="none" stroke="#63b8ff" d="M549.72,-219.9C597.17,-205.19 674.46,-181.96 742,-165 803.81,-149.48 876.75,-134.84 918.37,-126.82"/>
<polygon fill="#63b8ff" stroke="#63b8ff" points="919.08,-130.25 928.25,-124.93 917.77,-123.38 919.08,-130.25"/>
</g>
<!-- Node26&#45;&gt;Node3 -->
<g id="edge62" class="edge">
<title>Node26&#45;&gt;Node3</title>
<path fill="none" stroke="#63b8ff" d="M814.39,-290.02C785.12,-284.59 752.77,-273.26 732,-250 689.96,-202.91 692.69,-121.23 696.47,-84.43"/>
<polygon fill="#63b8ff" stroke="#63b8ff" points="699.99,-84.51 697.68,-74.17 693.04,-83.69 699.99,-84.51"/>
</g>
<!-- Node26&#45;&gt;Node4 -->
<g id="edge61" class="edge">
<title>Node26&#45;&gt;Node4</title>
<path fill="none" stroke="#63b8ff" d="M819.49,-285.93C785.46,-279.42 743.26,-268.35 709,-250 624.73,-204.86 546.92,-118.31 516.51,-82.09"/>
<polygon fill="#63b8ff" stroke="#63b8ff" points="518.9,-79.49 509.82,-74.02 513.51,-83.95 518.9,-79.49"/>
</g>
<!-- Node26&#45;&gt;Node5 -->
<g id="edge60" class="edge">
<title>Node26&#45;&gt;Node5</title>
<path fill="none" stroke="#63b8ff" d="M947.56,-293.57C1078.56,-291.04 1359.75,-281.92 1389,-250 1431.34,-203.79 1408.95,-120.42 1396.05,-83.7"/>
<polygon fill="#63b8ff" stroke="#63b8ff" points="1399.32,-82.45 1392.58,-74.27 1392.75,-84.87 1399.32,-82.45"/>
</g>
<!-- Node26&#45;&gt;Node8 -->
<g id="edge63" class="edge">
<title>Node26&#45;&gt;Node8</title>
<path fill="none" stroke="#63b8ff" d="M814.31,-294.83C659.51,-294.89 286.01,-290.77 248,-250 204.87,-203.74 238.57,-119.77 256.55,-83.26"/>
<polygon fill="#63b8ff" stroke="#63b8ff" points="259.7,-84.78 261.13,-74.29 253.47,-81.6 259.7,-84.78"/>
</g>
<!-- Node26&#45;&gt;Node9 -->
<g id="edge59" class="edge">
<title>Node26&#45;&gt;Node9</title>
<path fill="none" stroke="#63b8ff" d="M947.7,-290.8C1022.81,-282.96 1143.32,-258.71 1212,-184 1248.73,-144.05 1254.32,-127.21 1265,-74 1266.66,-65.72 1267.14,-63.17 1265,-55 1262.45,-45.26 1257.25,-35.41 1252.24,-27.46"/>
<polygon fill="#63b8ff" stroke="#63b8ff" points="1255.11,-25.46 1246.63,-19.12 1249.31,-29.37 1255.11,-25.46"/>
</g>
<!-- Node26&#45;&gt;Node13 -->
<g id="edge72" class="edge">
<title>Node26&#45;&gt;Node13</title>
<path fill="none" stroke="#63b8ff" d="M814.42,-289.86C787.43,-284.31 758.73,-272.92 742,-250 728.92,-232.08 743.89,-207.81 757.21,-191.92"/>
<polygon fill="#63b8ff" stroke="#63b8ff" points="759.83,-194.24 763.87,-184.44 754.6,-189.58 759.83,-194.24"/>
</g>
<!-- Node26&#45;&gt;Node14 -->
<g id="edge58" class="edge">
<title>Node26&#45;&gt;Node14</title>
<path fill="none" stroke="#63b8ff" d="M932.68,-285.98C997.76,-273.13 1110.45,-243.68 1188,-184 1211.55,-165.88 1216.49,-157.15 1226,-129 1230.86,-114.61 1231.36,-97.33 1230.79,-84.43"/>
<polygon fill="#63b8ff" stroke="#63b8ff" points="1234.28,-84.14 1230.09,-74.41 1227.29,-84.63 1234.28,-84.14"/>
</g>
<!-- Node26&#45;&gt;Node15 -->
<g id="edge57" class="edge">
<title>Node26&#45;&gt;Node15</title>
<path fill="none" stroke="#63b8ff" d="M890.61,-285.69C898.87,-277.41 910.2,-264.18 915,-250 919.27,-237.37 918.34,-232.91 915,-220 901,-165.88 888.93,-153.65 854,-110 845.24,-99.05 833.63,-88.54 823.8,-80.48"/>
<polygon fill="#63b8ff" stroke="#63b8ff" points="825.75,-77.56 815.74,-74.09 821.4,-83.04 825.75,-77.56"/>
</g>
<!-- Node26&#45;&gt;Node16 -->
<g id="edge73" class="edge">
<title>Node26&#45;&gt;Node16</title>
<path fill="none" stroke="#63b8ff" d="M903.95,-285.89C919.35,-278.79 938.5,-267.08 948,-250 967.62,-214.74 961.71,-165.31 956.41,-138.88"/>
<polygon fill="#63b8ff" stroke="#63b8ff" points="959.82,-138.09 954.26,-129.07 952.98,-139.59 959.82,-138.09"/>
</g>
<!-- Node27 -->
<g id="node27" class="node">
<title>Node27</title>
<g id="a_node27"><a xlink:href="_willy_weather_2authenticate_8h.html" target="_top" xlink:title=" ">
<polygon fill="white" stroke="#666666" points="905.5,-244.5 750.5,-244.5 750.5,-225.5 905.5,-225.5 905.5,-244.5"/>
<text text-anchor="middle" x="828" y="-232.5" font-family="Helvetica,sans-Serif" font-size="10.00">WillyWeather/authenticate.h</text>
</a>
</g>
</g>
<!-- Node26&#45;&gt;Node27 -->
<g id="edge64" class="edge">
<title>Node26&#45;&gt;Node27</title>
<path fill="none" stroke="#63b8ff" d="M873.18,-285.87C865.19,-277.05 852.61,-263.16 842.74,-252.27"/>
<polygon fill="#63b8ff" stroke="#63b8ff" points="845.16,-249.73 835.85,-244.67 839.97,-254.43 845.16,-249.73"/>
</g>
<!-- Node27&#45;&gt;Node3 -->
<g id="edge69" class="edge">
<title>Node27&#45;&gt;Node3</title>
<path fill="none" stroke="#63b8ff" d="M826.46,-225.39C823.75,-211.76 817.21,-184.76 805,-165 782.76,-129.02 744.21,-97.5 720.24,-80.03"/>
<polygon fill="#63b8ff" stroke="#63b8ff" points="722,-76.99 711.83,-74.04 717.94,-82.69 722,-76.99"/>
</g>
<!-- Node27&#45;&gt;Node4 -->
<g id="edge68" class="edge">
<title>Node27&#45;&gt;Node4</title>
<path fill="none" stroke="#63b8ff" d="M811.44,-225.41C758.41,-197.92 592.56,-111.93 528.55,-78.75"/>
<polygon fill="#63b8ff" stroke="#63b8ff" points="530.02,-75.57 519.53,-74.07 526.8,-81.78 530.02,-75.57"/>
</g>
<!-- Node27&#45;&gt;Node8 -->
<g id="edge70" class="edge">
<title>Node27&#45;&gt;Node8</title>
<path fill="none" stroke="#63b8ff" d="M799.36,-225.41C703.55,-196.69 394.75,-104.1 296.39,-74.61"/>
<polygon fill="#63b8ff" stroke="#63b8ff" points="297.34,-71.24 286.76,-71.72 295.33,-77.95 297.34,-71.24"/>
</g>
<!-- Node27&#45;&gt;Node9 -->
<g id="edge67" class="edge">
<title>Node27&#45;&gt;Node9</title>
<path fill="none" stroke="#63b8ff" d="M848.42,-225.42C900.64,-203.19 1042.68,-140.73 1153,-74 1177.66,-59.08 1204.16,-39.11 1221.35,-25.58"/>
<polygon fill="#63b8ff" stroke="#63b8ff" points="1223.79,-28.11 1229.43,-19.15 1219.43,-22.63 1223.79,-28.11"/>
</g>
<!-- Node27&#45;&gt;Node13 -->
<g id="edge71" class="edge">
<title>Node27&#45;&gt;Node13</title>
<path fill="none" stroke="#63b8ff" d="M819.88,-225.37C811.6,-216.55 798.53,-202.66 788.3,-191.77"/>
<polygon fill="#63b8ff" stroke="#63b8ff" points="790.55,-189.06 781.15,-184.17 785.45,-193.85 790.55,-189.06"/>
</g>
<!-- Node27&#45;&gt;Node14 -->
<g id="edge66" class="edge">
<title>Node27&#45;&gt;Node14</title>
<path fill="none" stroke="#63b8ff" d="M905.51,-230.22C991.59,-224.7 1123.87,-211.87 1165,-184 1200.04,-160.25 1217.53,-110.82 1224.77,-83.92"/>
<polygon fill="#63b8ff" stroke="#63b8ff" points="1228.17,-84.75 1227.19,-74.2 1221.37,-83.06 1228.17,-84.75"/>
</g>
<!-- Node27&#45;&gt;Node15 -->
<g id="edge65" class="edge">
<title>Node27&#45;&gt;Node15</title>
<path fill="none" stroke="#63b8ff" d="M831.01,-225.29C837.67,-204.64 851.98,-151.33 838,-110 834.44,-99.47 827.28,-89.48 820.45,-81.63"/>
<polygon fill="#63b8ff" stroke="#63b8ff" points="822.99,-79.23 813.61,-74.31 817.87,-84.01 822.99,-79.23"/>
</g>
</g>
</svg>
