<?xml version="1.0" encoding="UTF-8" standalone="no"?>
<!DOCTYPE svg PUBLIC "-//W3C//DTD SVG 1.1//EN"
 "http://www.w3.org/Graphics/SVG/1.1/DTD/svg11.dtd">
<!-- Generated by graphviz version 2.49.3 (20211027.1534)
 -->
<!-- Title: include/IBM_EIS/timeseries.h Pages: 1 -->
<svg width="1518pt" height="431pt"
 viewBox="0.00 0.00 1518.00 431.00" xmlns="http://www.w3.org/2000/svg" xmlns:xlink="http://www.w3.org/1999/xlink">
<g id="graph0" class="graph" transform="scale(1 1) rotate(0) translate(4 427)">
<title>include/IBM_EIS/timeseries.h</title>
<!-- Node1 -->
<g id="node1" class="node">
<title>Node1</title>
<g id="a_node1"><a xlink:title=" ">
<polygon fill="#bfbfbf" stroke="black" points="375.5,-403.5 375.5,-422.5 520.5,-422.5 520.5,-403.5 375.5,-403.5"/>
<text text-anchor="middle" x="448" y="-410.5" font-family="Helvetica,sans-Serif" font-size="10.00">include/IBM_EIS/timeseries.h</text>
</a>
</g>
</g>
<!-- Node2 -->
<g id="node2" class="node">
<title>Node2</title>
<g id="a_node2"><a xlink:title=" ">
<polygon fill="none" stroke="#bfbfbf" points="427.5,-56.5 427.5,-75.5 486.5,-75.5 486.5,-56.5 427.5,-56.5"/>
<text text-anchor="middle" x="457" y="-63.5" font-family="Helvetica,sans-Serif" font-size="10.00">curl/curl.h</text>
</a>
</g>
</g>
<!-- Node1&#45;&gt;Node2 -->
<g id="edge1" class="edge">
<title>Node1&#45;&gt;Node2</title>
<path fill="none" stroke="midnightblue" d="M394.74,-403.44C309.52,-388.23 152,-353.19 152,-302 152,-302 152,-302 152,-238.5 152,-118.05 334.95,-81.3 417.46,-70.86"/>
<polygon fill="midnightblue" stroke="midnightblue" points="417.97,-74.32 427.48,-69.65 417.13,-67.37 417.97,-74.32"/>
</g>
<!-- Node3 -->
<g id="node3" class="node">
<title>Node3</title>
<g id="a_node3"><a xlink:title=" ">
<polygon fill="none" stroke="#bfbfbf" points="153.5,-56.5 153.5,-75.5 236.5,-75.5 236.5,-56.5 153.5,-56.5"/>
<text text-anchor="middle" x="195" y="-63.5" font-family="Helvetica,sans-Serif" font-size="10.00">cjson/cJSON.h</text>
</a>
</g>
</g>
<!-- Node1&#45;&gt;Node3 -->
<g id="edge2" class="edge">
<title>Node1&#45;&gt;Node3</title>
<path fill="none" stroke="midnightblue" d="M375.17,-407.39C257.36,-397.91 38,-371 38,-302 38,-302 38,-302 38,-177 38,-122.74 101.68,-92.98 147.93,-78.52"/>
<polygon fill="midnightblue" stroke="midnightblue" points="149.21,-81.79 157.79,-75.58 147.21,-75.08 149.21,-81.79"/>
</g>
<!-- Node4 -->
<g id="node4" class="node">
<title>Node4</title>
<g id="a_node4"><a xlink:title=" ">
<polygon fill="none" stroke="#bfbfbf" points="1297,-56.5 1297,-75.5 1343,-75.5 1343,-56.5 1297,-56.5"/>
<text text-anchor="middle" x="1320" y="-63.5" font-family="Helvetica,sans-Serif" font-size="10.00">math.h</text>
</a>
</g>
</g>
<!-- Node1&#45;&gt;Node4 -->
<g id="edge3" class="edge">
<title>Node1&#45;&gt;Node4</title>
<path fill="none" stroke="midnightblue" d="M520.58,-412.11C760.06,-411.51 1510,-401.69 1510,-302 1510,-302 1510,-302 1510,-238.5 1510,-154.83 1407.22,-101.47 1352.85,-79.09"/>
<polygon fill="midnightblue" stroke="midnightblue" points="1353.88,-75.73 1343.3,-75.27 1351.28,-82.23 1353.88,-75.73"/>
</g>
<!-- Node5 -->
<g id="node5" class="node">
<title>Node5</title>
<g id="a_node5"><a xlink:title=" ">
<polygon fill="none" stroke="#bfbfbf" points="170.5,-0.5 170.5,-19.5 213.5,-19.5 213.5,-0.5 170.5,-0.5"/>
<text text-anchor="middle" x="192" y="-7.5" font-family="Helvetica,sans-Serif" font-size="10.00">time.h</text>
</a>
</g>
</g>
<!-- Node1&#45;&gt;Node5 -->
<g id="edge4" class="edge">
<title>Node1&#45;&gt;Node5</title>
<path fill="none" stroke="midnightblue" d="M375.31,-408.12C282.86,-402.34 128.97,-389.64 77,-367 35.94,-349.11 0,-346.79 0,-302 0,-302 0,-302 0,-121 0,-48.07 105.59,-22.81 160.16,-14.63"/>
<polygon fill="midnightblue" stroke="midnightblue" points="160.93,-18.06 170.35,-13.21 159.96,-11.12 160.93,-18.06"/>
</g>
<!-- Node6 -->
<g id="node6" class="node">
<title>Node6</title>
<g id="a_node6"><a xlink:title=" ">
<polygon fill="none" stroke="#bfbfbf" points="1388,-291.5 1388,-310.5 1444,-310.5 1444,-291.5 1388,-291.5"/>
<text text-anchor="middle" x="1416" y="-298.5" font-family="Helvetica,sans-Serif" font-size="10.00">libpq&#45;fe.h</text>
</a>
</g>
</g>
<!-- Node1&#45;&gt;Node6 -->
<g id="edge5" class="edge">
<title>Node1&#45;&gt;Node6</title>
<path fill="none" stroke="midnightblue" d="M520.54,-410.11C685.38,-405.45 1084.01,-391.89 1216,-367 1278.08,-355.29 1347.61,-329.72 1386.16,-314.37"/>
<polygon fill="midnightblue" stroke="midnightblue" points="1387.76,-317.5 1395.72,-310.51 1385.14,-311 1387.76,-317.5"/>
</g>
<!-- Node7 -->
<g id="node7" class="node">
<title>Node7</title>
<g id="a_node7"><a xlink:href="log_8h.html" target="_top" xlink:title=" ">
<polygon fill="none" stroke="black" points="1035.5,-56.5 1035.5,-75.5 1072.5,-75.5 1072.5,-56.5 1035.5,-56.5"/>
<text text-anchor="middle" x="1054" y="-63.5" font-family="Helvetica,sans-Serif" font-size="10.00">log.h</text>
</a>
</g>
</g>
<!-- Node1&#45;&gt;Node7 -->
<g id="edge6" class="edge">
<title>Node1&#45;&gt;Node7</title>
<path fill="none" stroke="midnightblue" d="M520.65,-410.26C693.68,-405.75 1126.33,-392.24 1269,-367 1353.17,-352.11 1402.11,-379.68 1453,-311 1558.97,-167.98 1190.86,-90.98 1082.9,-71.81"/>
<polygon fill="midnightblue" stroke="midnightblue" points="1083.18,-68.3 1072.73,-70.03 1081.98,-75.2 1083.18,-68.3"/>
</g>
<!-- Node11 -->
<g id="node11" class="node">
<title>Node11</title>
<g id="a_node11"><a xlink:href="_i_b_m___e_i_s_2authenticate_8h.html" target="_top" xlink:title=" ">
<polygon fill="none" stroke="black" points="216.5,-230 216.5,-249 335.5,-249 335.5,-230 216.5,-230"/>
<text text-anchor="middle" x="276" y="-237" font-family="Helvetica,sans-Serif" font-size="10.00">IBM_EIS/authenticate.h</text>
</a>
</g>
</g>
<!-- Node1&#45;&gt;Node11 -->
<g id="edge11" class="edge">
<title>Node1&#45;&gt;Node11</title>
<path fill="none" stroke="midnightblue" d="M417.84,-403.49C396.91,-396.4 369.43,-384.6 350,-367 315.86,-336.07 292.99,-285.62 282.53,-258.73"/>
<polygon fill="midnightblue" stroke="midnightblue" points="285.7,-257.2 278.92,-249.07 279.15,-259.66 285.7,-257.2"/>
</g>
<!-- Node12 -->
<g id="node12" class="node">
<title>Node12</title>
<g id="a_node12"><a xlink:href="http_8h.html" target="_top" xlink:title=" ">
<polygon fill="none" stroke="black" points="598.5,-168.5 598.5,-187.5 639.5,-187.5 639.5,-168.5 598.5,-168.5"/>
<text text-anchor="middle" x="619" y="-175.5" font-family="Helvetica,sans-Serif" font-size="10.00">http.h</text>
</a>
</g>
</g>
<!-- Node1&#45;&gt;Node12 -->
<g id="edge73" class="edge">
<title>Node1&#45;&gt;Node12</title>
<path fill="none" stroke="midnightblue" d="M454.29,-403.43C479.37,-369.26 572.54,-242.31 606.5,-196.03"/>
<polygon fill="midnightblue" stroke="midnightblue" points="609.38,-198.03 612.47,-187.9 603.73,-193.89 609.38,-198.03"/>
</g>
<!-- Node15 -->
<g id="node15" class="node">
<title>Node15</title>
<g id="a_node15"><a xlink:href="utils_8h.html" target="_top" xlink:title=" ">
<polygon fill="none" stroke="black" points="566,-112.5 566,-131.5 608,-131.5 608,-112.5 566,-112.5"/>
<text text-anchor="middle" x="587" y="-119.5" font-family="Helvetica,sans-Serif" font-size="10.00">utils.h</text>
</a>
</g>
</g>
<!-- Node1&#45;&gt;Node15 -->
<g id="edge74" class="edge">
<title>Node1&#45;&gt;Node15</title>
<path fill="none" stroke="midnightblue" d="M439.83,-403.16C414.97,-375.14 344.2,-286.5 383,-224 421.08,-162.66 508.69,-137.43 555.76,-128.01"/>
<polygon fill="midnightblue" stroke="midnightblue" points="556.52,-131.43 565.7,-126.14 555.22,-124.55 556.52,-131.43"/>
</g>
<!-- Node20 -->
<g id="node20" class="node">
<title>Node20</title>
<g id="a_node20"><a xlink:href="transform_8h.html" target="_top" xlink:title=" ">
<polygon fill="none" stroke="black" points="1141.5,-347.5 1141.5,-366.5 1206.5,-366.5 1206.5,-347.5 1141.5,-347.5"/>
<text text-anchor="middle" x="1174" y="-354.5" font-family="Helvetica,sans-Serif" font-size="10.00">transform.h</text>
</a>
</g>
</g>
<!-- Node1&#45;&gt;Node20 -->
<g id="edge32" class="edge">
<title>Node1&#45;&gt;Node20</title>
<path fill="none" stroke="midnightblue" d="M520.6,-406.6C670.67,-395.44 1011.04,-370.12 1131.1,-361.19"/>
<polygon fill="midnightblue" stroke="midnightblue" points="1131.64,-364.66 1141.35,-360.43 1131.12,-357.68 1131.64,-364.66"/>
</g>
<!-- Node7&#45;&gt;Node5 -->
<g id="edge10" class="edge">
<title>Node7&#45;&gt;Node5</title>
<path fill="none" stroke="midnightblue" d="M1035.21,-63.14C1015.13,-61.18 982.33,-58.11 954,-56 670.96,-34.91 328.18,-17.61 223.71,-12.52"/>
<polygon fill="midnightblue" stroke="midnightblue" points="223.69,-9.02 213.53,-12.03 223.35,-16.01 223.69,-9.02"/>
</g>
<!-- Node8 -->
<g id="node8" class="node">
<title>Node8</title>
<g id="a_node8"><a xlink:title=" ">
<polygon fill="none" stroke="#bfbfbf" points="1297.5,-0.5 1297.5,-19.5 1342.5,-19.5 1342.5,-0.5 1297.5,-0.5"/>
<text text-anchor="middle" x="1320" y="-7.5" font-family="Helvetica,sans-Serif" font-size="10.00">stdio.h</text>
</a>
</g>
</g>
<!-- Node7&#45;&gt;Node8 -->
<g id="edge7" class="edge">
<title>Node7&#45;&gt;Node8</title>
<path fill="none" stroke="midnightblue" d="M1072.7,-61.2C1117.46,-52.12 1231.16,-29.04 1287.43,-17.61"/>
<polygon fill="midnightblue" stroke="midnightblue" points="1288.14,-21.04 1297.24,-15.62 1286.75,-14.18 1288.14,-21.04"/>
</g>
<!-- Node9 -->
<g id="node9" class="node">
<title>Node9</title>
<g id="a_node9"><a xlink:title=" ">
<polygon fill="none" stroke="#bfbfbf" points="1064.5,-0.5 1064.5,-19.5 1115.5,-19.5 1115.5,-0.5 1064.5,-0.5"/>
<text text-anchor="middle" x="1090" y="-7.5" font-family="Helvetica,sans-Serif" font-size="10.00">stdarg.h</text>
</a>
</g>
</g>
<!-- Node7&#45;&gt;Node9 -->
<g id="edge8" class="edge">
<title>Node7&#45;&gt;Node9</title>
<path fill="none" stroke="midnightblue" d="M1059.94,-56.08C1064.98,-48.53 1072.34,-37.49 1078.51,-28.23"/>
<polygon fill="midnightblue" stroke="midnightblue" points="1081.53,-30.01 1084.17,-19.75 1075.71,-26.13 1081.53,-30.01"/>
</g>
<!-- Node10 -->
<g id="node10" class="node">
<title>Node10</title>
<g id="a_node10"><a xlink:title=" ">
<polygon fill="none" stroke="#bfbfbf" points="990,-0.5 990,-19.5 1046,-19.5 1046,-0.5 990,-0.5"/>
<text text-anchor="middle" x="1018" y="-7.5" font-family="Helvetica,sans-Serif" font-size="10.00">stdbool.h</text>
</a>
</g>
</g>
<!-- Node7&#45;&gt;Node10 -->
<g id="edge9" class="edge">
<title>Node7&#45;&gt;Node10</title>
<path fill="none" stroke="midnightblue" d="M1048.06,-56.08C1043.02,-48.53 1035.66,-37.49 1029.49,-28.23"/>
<polygon fill="midnightblue" stroke="midnightblue" points="1032.29,-26.13 1023.83,-19.75 1026.47,-30.01 1032.29,-26.13"/>
</g>
<!-- Node11&#45;&gt;Node2 -->
<g id="edge12" class="edge">
<title>Node11&#45;&gt;Node2</title>
<path fill="none" stroke="midnightblue" d="M281.55,-229.69C290.55,-215.76 309.31,-188.15 329,-168 362.8,-133.4 408.5,-100 435.16,-81.6"/>
<polygon fill="midnightblue" stroke="midnightblue" points="437.45,-84.27 443.74,-75.75 433.51,-78.49 437.45,-84.27"/>
</g>
<!-- Node11&#45;&gt;Node3 -->
<g id="edge13" class="edge">
<title>Node11&#45;&gt;Node3</title>
<path fill="none" stroke="midnightblue" d="M259.95,-230C245.45,-221.42 224.79,-206.78 214,-188 195.43,-155.69 193.38,-110.91 193.94,-85.88"/>
<polygon fill="midnightblue" stroke="midnightblue" points="197.45,-85.73 194.34,-75.6 190.45,-85.45 197.45,-85.73"/>
</g>
<!-- Node11&#45;&gt;Node5 -->
<g id="edge14" class="edge">
<title>Node11&#45;&gt;Node5</title>
<path fill="none" stroke="midnightblue" d="M258.62,-229.89C242.36,-221.13 218.19,-206.28 202,-188 164.83,-146.04 157.27,-130.46 144,-76 141.9,-67.36 140.47,-64.16 144,-56 149.27,-43.84 159.62,-33.46 169.36,-25.74"/>
<polygon fill="midnightblue" stroke="midnightblue" points="171.64,-28.41 177.63,-19.67 167.5,-22.77 171.64,-28.41"/>
</g>
<!-- Node11&#45;&gt;Node7 -->
<g id="edge15" class="edge">
<title>Node11&#45;&gt;Node7</title>
<path fill="none" stroke="midnightblue" d="M333.67,-229.99C349.63,-227.83 366.96,-225.65 383,-224 496.02,-212.37 786.57,-227.76 893,-188 954.45,-165.05 1012.29,-110.76 1038.82,-83.39"/>
<polygon fill="midnightblue" stroke="midnightblue" points="1041.66,-85.48 1046.01,-75.82 1036.59,-80.65 1041.66,-85.48"/>
</g>
<!-- Node11&#45;&gt;Node12 -->
<g id="edge16" class="edge">
<title>Node11&#45;&gt;Node12</title>
<path fill="none" stroke="midnightblue" d="M325.14,-229.98C397.14,-217.49 529.16,-194.58 588.59,-184.27"/>
<polygon fill="midnightblue" stroke="midnightblue" points="589.23,-187.72 598.48,-182.56 588.03,-180.82 589.23,-187.72"/>
</g>
<!-- Node11&#45;&gt;Node15 -->
<g id="edge31" class="edge">
<title>Node11&#45;&gt;Node15</title>
<path fill="none" stroke="midnightblue" d="M284.51,-229.53C299.47,-214.33 332.12,-183.65 366,-168 429.38,-138.73 511.68,-128.4 555.8,-124.83"/>
<polygon fill="midnightblue" stroke="midnightblue" points="556.19,-128.31 565.9,-124.08 555.67,-121.33 556.19,-128.31"/>
</g>
<!-- Node12&#45;&gt;Node2 -->
<g id="edge19" class="edge">
<title>Node12&#45;&gt;Node2</title>
<path fill="none" stroke="midnightblue" d="M598.31,-169.49C578.33,-161.72 547.7,-148.43 524,-132 503.52,-117.8 483.46,-97.2 470.71,-83.01"/>
<polygon fill="midnightblue" stroke="midnightblue" points="473.34,-80.7 464.1,-75.5 468.08,-85.32 473.34,-80.7"/>
</g>
<!-- Node13 -->
<g id="node13" class="node">
<title>Node13</title>
<g id="a_node13"><a xlink:title=" ">
<polygon fill="none" stroke="#bfbfbf" points="897.5,-56.5 897.5,-75.5 944.5,-75.5 944.5,-56.5 897.5,-56.5"/>
<text text-anchor="middle" x="921" y="-63.5" font-family="Helvetica,sans-Serif" font-size="10.00">stdlib.h</text>
</a>
</g>
</g>
<!-- Node12&#45;&gt;Node13 -->
<g id="edge17" class="edge">
<title>Node12&#45;&gt;Node13</title>
<path fill="none" stroke="midnightblue" d="M639.76,-169.44C691.26,-150.68 825.26,-101.87 887.87,-79.07"/>
<polygon fill="midnightblue" stroke="midnightblue" points="889.43,-82.22 897.63,-75.51 887.04,-75.65 889.43,-82.22"/>
</g>
<!-- Node14 -->
<g id="node14" class="node">
<title>Node14</title>
<g id="a_node14"><a xlink:title=" ">
<polygon fill="none" stroke="#bfbfbf" points="731,-56.5 731,-75.5 779,-75.5 779,-56.5 731,-56.5"/>
<text text-anchor="middle" x="755" y="-63.5" font-family="Helvetica,sans-Serif" font-size="10.00">string.h</text>
</a>
</g>
</g>
<!-- Node12&#45;&gt;Node14 -->
<g id="edge18" class="edge">
<title>Node12&#45;&gt;Node14</title>
<path fill="none" stroke="midnightblue" d="M629.42,-168.31C644.49,-155.78 673.25,-131.95 698,-112 710.55,-101.89 724.78,-90.65 735.88,-81.94"/>
<polygon fill="midnightblue" stroke="midnightblue" points="738.31,-84.48 744.02,-75.56 733.99,-78.97 738.31,-84.48"/>
</g>
<!-- Node12&#45;&gt;Node15 -->
<g id="edge20" class="edge">
<title>Node12&#45;&gt;Node15</title>
<path fill="none" stroke="midnightblue" d="M613.72,-168.08C609.29,-160.61 602.84,-149.72 597.38,-140.52"/>
<polygon fill="midnightblue" stroke="midnightblue" points="600.29,-138.57 592.19,-131.75 594.27,-142.14 600.29,-138.57"/>
</g>
<!-- Node15&#45;&gt;Node2 -->
<g id="edge23" class="edge">
<title>Node15&#45;&gt;Node2</title>
<path fill="none" stroke="midnightblue" d="M566.4,-112.44C545.01,-103.56 511.32,-89.56 486.98,-79.45"/>
<polygon fill="midnightblue" stroke="midnightblue" points="488.08,-76.12 477.5,-75.52 485.39,-82.58 488.08,-76.12"/>
</g>
<!-- Node15&#45;&gt;Node3 -->
<g id="edge25" class="edge">
<title>Node15&#45;&gt;Node3</title>
<path fill="none" stroke="midnightblue" d="M565.92,-118.1C506.04,-109.85 333.58,-86.09 246.54,-74.1"/>
<polygon fill="midnightblue" stroke="midnightblue" points="247,-70.63 236.62,-72.73 246.05,-77.57 247,-70.63"/>
</g>
<!-- Node15&#45;&gt;Node4 -->
<g id="edge29" class="edge">
<title>Node15&#45;&gt;Node4</title>
<path fill="none" stroke="midnightblue" d="M608.15,-119.44C711.13,-111.86 1160.28,-78.77 1286.75,-69.45"/>
<polygon fill="midnightblue" stroke="midnightblue" points="1287.25,-72.92 1296.97,-68.7 1286.74,-65.94 1287.25,-72.92"/>
</g>
<!-- Node15&#45;&gt;Node7 -->
<g id="edge30" class="edge">
<title>Node15&#45;&gt;Node7</title>
<path fill="none" stroke="midnightblue" d="M608.28,-118.54C683.83,-109.8 939.22,-80.27 1025.36,-70.31"/>
<polygon fill="midnightblue" stroke="midnightblue" points="1025.92,-73.77 1035.46,-69.14 1025.12,-66.82 1025.92,-73.77"/>
</g>
<!-- Node15&#45;&gt;Node13 -->
<g id="edge21" class="edge">
<title>Node15&#45;&gt;Node13</title>
<path fill="none" stroke="midnightblue" d="M608.16,-118.07C656.12,-111.35 776.71,-94.03 877,-76 880.4,-75.39 883.95,-74.72 887.48,-74.03"/>
<polygon fill="midnightblue" stroke="midnightblue" points="888.17,-77.46 897.29,-72.07 886.8,-70.6 888.17,-77.46"/>
</g>
<!-- Node15&#45;&gt;Node14 -->
<g id="edge22" class="edge">
<title>Node15&#45;&gt;Node14</title>
<path fill="none" stroke="midnightblue" d="M608.28,-114.16C636.68,-105.03 687.32,-88.75 721.04,-77.92"/>
<polygon fill="midnightblue" stroke="midnightblue" points="722.47,-81.13 730.91,-74.74 720.32,-74.47 722.47,-81.13"/>
</g>
<!-- Node16 -->
<g id="node16" class="node">
<title>Node16</title>
<g id="a_node16"><a xlink:title=" ">
<polygon fill="none" stroke="#bfbfbf" points="665,-56.5 665,-75.5 713,-75.5 713,-56.5 665,-56.5"/>
<text text-anchor="middle" x="689" y="-63.5" font-family="Helvetica,sans-Serif" font-size="10.00">stdint.h</text>
</a>
</g>
</g>
<!-- Node15&#45;&gt;Node16 -->
<g id="edge24" class="edge">
<title>Node15&#45;&gt;Node16</title>
<path fill="none" stroke="midnightblue" d="M603.39,-112.32C619.67,-103.7 644.87,-90.36 663.72,-80.39"/>
<polygon fill="midnightblue" stroke="midnightblue" points="665.45,-83.43 672.65,-75.65 662.18,-77.24 665.45,-83.43"/>
</g>
<!-- Node17 -->
<g id="node17" class="node">
<title>Node17</title>
<g id="a_node17"><a xlink:title=" ">
<polygon fill="none" stroke="#bfbfbf" points="504.5,-56.5 504.5,-75.5 563.5,-75.5 563.5,-56.5 504.5,-56.5"/>
<text text-anchor="middle" x="534" y="-63.5" font-family="Helvetica,sans-Serif" font-size="10.00">sys/stat.h</text>
</a>
</g>
</g>
<!-- Node15&#45;&gt;Node17 -->
<g id="edge26" class="edge">
<title>Node15&#45;&gt;Node17</title>
<path fill="none" stroke="midnightblue" d="M578.25,-112.08C570.53,-104.22 559.1,-92.57 549.78,-83.08"/>
<polygon fill="midnightblue" stroke="midnightblue" points="552.09,-80.44 542.59,-75.75 547.1,-85.34 552.09,-80.44"/>
</g>
<!-- Node18 -->
<g id="node18" class="node">
<title>Node18</title>
<g id="a_node18"><a xlink:title=" ">
<polygon fill="none" stroke="#bfbfbf" points="581.5,-56.5 581.5,-75.5 646.5,-75.5 646.5,-56.5 581.5,-56.5"/>
<text text-anchor="middle" x="614" y="-63.5" font-family="Helvetica,sans-Serif" font-size="10.00">sys/types.h</text>
</a>
</g>
</g>
<!-- Node15&#45;&gt;Node18 -->
<g id="edge27" class="edge">
<title>Node15&#45;&gt;Node18</title>
<path fill="none" stroke="midnightblue" d="M591.46,-112.08C595.15,-104.69 600.52,-93.95 605.09,-84.81"/>
<polygon fill="midnightblue" stroke="midnightblue" points="608.28,-86.26 609.62,-75.75 602.02,-83.13 608.28,-86.26"/>
</g>
<!-- Node19 -->
<g id="node19" class="node">
<title>Node19</title>
<g id="a_node19"><a xlink:title=" ">
<polygon fill="none" stroke="#bfbfbf" points="822,-56.5 822,-75.5 868,-75.5 868,-56.5 822,-56.5"/>
<text text-anchor="middle" x="845" y="-63.5" font-family="Helvetica,sans-Serif" font-size="10.00">errno.h</text>
</a>
</g>
</g>
<!-- Node15&#45;&gt;Node19 -->
<g id="edge28" class="edge">
<title>Node15&#45;&gt;Node19</title>
<path fill="none" stroke="midnightblue" d="M608.11,-116.58C652.91,-107.21 757.75,-85.26 811.67,-73.98"/>
<polygon fill="midnightblue" stroke="midnightblue" points="812.68,-77.34 821.75,-71.87 811.24,-70.49 812.68,-77.34"/>
</g>
<!-- Node20&#45;&gt;Node6 -->
<g id="edge33" class="edge">
<title>Node20&#45;&gt;Node6</title>
<path fill="none" stroke="midnightblue" d="M1206.64,-348.72C1251.11,-338.79 1330.6,-321.06 1377.79,-310.53"/>
<polygon fill="midnightblue" stroke="midnightblue" points="1378.64,-313.92 1387.64,-308.33 1377.11,-307.09 1378.64,-313.92"/>
</g>
<!-- Node20&#45;&gt;Node7 -->
<g id="edge36" class="edge">
<title>Node20&#45;&gt;Node7</title>
<path fill="none" stroke="midnightblue" d="M1180.86,-347.16C1201.69,-319.16 1260.71,-230.56 1225,-168 1194.26,-114.15 1122.32,-86.11 1082.23,-74.2"/>
<polygon fill="midnightblue" stroke="midnightblue" points="1083.11,-70.81 1072.54,-71.45 1081.2,-77.54 1083.11,-70.81"/>
</g>
<!-- Node20&#45;&gt;Node8 -->
<g id="edge34" class="edge">
<title>Node20&#45;&gt;Node8</title>
<path fill="none" stroke="midnightblue" d="M1188.56,-347.36C1202.1,-338.97 1222.47,-325.41 1238,-311 1289.85,-262.88 1306.15,-250.65 1339,-188 1366.81,-134.97 1389.22,-111.2 1366,-56 1360.97,-44.05 1351.06,-33.69 1341.71,-25.93"/>
<polygon fill="midnightblue" stroke="midnightblue" points="1343.84,-23.15 1333.79,-19.81 1339.56,-28.69 1343.84,-23.15"/>
</g>
<!-- Node20&#45;&gt;Node13 -->
<g id="edge35" class="edge">
<title>Node20&#45;&gt;Node13</title>
<path fill="none" stroke="midnightblue" d="M1188.52,-347.34C1200.17,-339.48 1215.75,-326.73 1223,-311 1230.92,-293.81 1231.01,-176.33 1225,-168 1192.59,-123.08 1026.55,-86.91 954.47,-73.08"/>
<polygon fill="midnightblue" stroke="midnightblue" points="955.02,-69.62 944.54,-71.2 953.71,-76.5 955.02,-69.62"/>
</g>
<!-- Node20&#45;&gt;Node15 -->
<g id="edge72" class="edge">
<title>Node20&#45;&gt;Node15</title>
<path fill="none" stroke="midnightblue" d="M1141.26,-353.54C1037.58,-345.18 718.56,-315.02 637,-255 607.7,-233.44 601.75,-222.42 590,-188 584.92,-173.12 584.48,-155.2 585.13,-141.95"/>
<polygon fill="midnightblue" stroke="midnightblue" points="588.64,-141.93 585.9,-131.7 581.66,-141.41 588.64,-141.93"/>
</g>
<!-- Node21 -->
<g id="node21" class="node">
<title>Node21</title>
<g id="a_node21"><a xlink:href="stations_8h.html" target="_top" xlink:title=" ">
<polygon fill="none" stroke="black" points="1132,-230 1132,-249 1216,-249 1216,-230 1132,-230"/>
<text text-anchor="middle" x="1174" y="-237" font-family="Helvetica,sans-Serif" font-size="10.00">BOM/stations.h</text>
</a>
</g>
</g>
<!-- Node20&#45;&gt;Node21 -->
<g id="edge37" class="edge">
<title>Node20&#45;&gt;Node21</title>
<path fill="none" stroke="midnightblue" d="M1174,-347.32C1174,-328.76 1174,-284.84 1174,-259.47"/>
<polygon fill="midnightblue" stroke="midnightblue" points="1177.5,-259.28 1174,-249.28 1170.5,-259.28 1177.5,-259.28"/>
</g>
<!-- Node24 -->
<g id="node24" class="node">
<title>Node24</title>
<g id="a_node24"><a xlink:href="harvest__area_8h.html" target="_top" xlink:title=" ">
<polygon fill="none" stroke="black" points="392,-224.5 392,-254.5 504,-254.5 504,-224.5 392,-224.5"/>
<text text-anchor="start" x="400" y="-242.5" font-family="Helvetica,sans-Serif" font-size="10.00">FoodAuthority/harvest</text>
<text text-anchor="middle" x="448" y="-231.5" font-family="Helvetica,sans-Serif" font-size="10.00">_area.h</text>
</a>
</g>
</g>
<!-- Node20&#45;&gt;Node24 -->
<g id="edge47" class="edge">
<title>Node20&#45;&gt;Node24</title>
<path fill="none" stroke="midnightblue" d="M1141.13,-355.76C1029.52,-354.63 665.95,-348.11 556,-311 524.11,-300.24 492.44,-277.81 471.73,-261.13"/>
<polygon fill="midnightblue" stroke="midnightblue" points="473.76,-258.27 463.81,-254.61 469.3,-263.67 473.76,-258.27"/>
</g>
<!-- Node25 -->
<g id="node25" class="node">
<title>Node25</title>
<g id="a_node25"><a xlink:href="location_8h.html" target="_top" xlink:title=" ">
<polygon fill="none" stroke="black" points="820.5,-291.5 820.5,-310.5 937.5,-310.5 937.5,-291.5 820.5,-291.5"/>
<text text-anchor="middle" x="879" y="-298.5" font-family="Helvetica,sans-Serif" font-size="10.00">WillyWeather/location.h</text>
</a>
</g>
</g>
<!-- Node20&#45;&gt;Node25 -->
<g id="edge54" class="edge">
<title>Node20&#45;&gt;Node25</title>
<path fill="none" stroke="midnightblue" d="M1141.3,-350.01C1091.64,-340.92 996.53,-323.51 935.51,-312.34"/>
<polygon fill="midnightblue" stroke="midnightblue" points="936.12,-308.9 925.65,-310.54 934.86,-315.78 936.12,-308.9"/>
</g>
<!-- Node21&#45;&gt;Node4 -->
<g id="edge38" class="edge">
<title>Node21&#45;&gt;Node4</title>
<path fill="none" stroke="midnightblue" d="M1183.38,-229.89C1193.88,-220.09 1211.24,-203.44 1225,-188 1256.69,-152.44 1290.33,-107.71 1307.82,-83.84"/>
<polygon fill="midnightblue" stroke="midnightblue" points="1310.83,-85.65 1313.89,-75.5 1305.18,-81.53 1310.83,-85.65"/>
</g>
<!-- Node21&#45;&gt;Node15 -->
<g id="edge46" class="edge">
<title>Node21&#45;&gt;Node15</title>
<path fill="none" stroke="midnightblue" d="M1131.85,-233.49C1068.27,-225.63 944.18,-209.08 840,-188 741.11,-167.99 717.56,-157.72 620,-132 619.41,-131.84 618.81,-131.69 618.21,-131.53"/>
<polygon fill="midnightblue" stroke="midnightblue" points="618.85,-128.08 608.29,-128.86 617.04,-134.84 618.85,-128.08"/>
</g>
<!-- Node22 -->
<g id="node22" class="node">
<title>Node22</title>
<g id="a_node22"><a xlink:title=" ">
<polygon fill="none" stroke="#bfbfbf" points="1168.5,-168.5 1168.5,-187.5 1215.5,-187.5 1215.5,-168.5 1168.5,-168.5"/>
<text text-anchor="middle" x="1192" y="-175.5" font-family="Helvetica,sans-Serif" font-size="10.00">ctype.h</text>
</a>
</g>
</g>
<!-- Node21&#45;&gt;Node22 -->
<g id="edge39" class="edge">
<title>Node21&#45;&gt;Node22</title>
<path fill="none" stroke="midnightblue" d="M1176.58,-229.98C1179.15,-221.49 1183.17,-208.2 1186.46,-197.32"/>
<polygon fill="midnightblue" stroke="midnightblue" points="1189.88,-198.09 1189.43,-187.51 1183.18,-196.07 1189.88,-198.09"/>
</g>
<!-- Node23 -->
<g id="node23" class="node">
<title>Node23</title>
<g id="a_node23"><a xlink:href="ftp_8h.html" target="_top" xlink:title=" ">
<polygon fill="none" stroke="black" points="848.5,-168.5 848.5,-187.5 883.5,-187.5 883.5,-168.5 848.5,-168.5"/>
<text text-anchor="middle" x="866" y="-175.5" font-family="Helvetica,sans-Serif" font-size="10.00">ftp.h</text>
</a>
</g>
</g>
<!-- Node21&#45;&gt;Node23 -->
<g id="edge40" class="edge">
<title>Node21&#45;&gt;Node23</title>
<path fill="none" stroke="midnightblue" d="M1131.82,-230.35C1067.72,-217.97 947.55,-194.75 893.53,-184.32"/>
<polygon fill="midnightblue" stroke="midnightblue" points="894.13,-180.87 883.65,-182.41 892.8,-187.74 894.13,-180.87"/>
</g>
<!-- Node23&#45;&gt;Node2 -->
<g id="edge43" class="edge">
<title>Node23&#45;&gt;Node2</title>
<path fill="none" stroke="midnightblue" d="M848.43,-172.27C787.32,-155.84 583.09,-100.91 496.43,-77.6"/>
<polygon fill="midnightblue" stroke="midnightblue" points="497.27,-74.21 486.7,-74.99 495.45,-80.97 497.27,-74.21"/>
</g>
<!-- Node23&#45;&gt;Node13 -->
<g id="edge41" class="edge">
<title>Node23&#45;&gt;Node13</title>
<path fill="none" stroke="midnightblue" d="M870.32,-168.37C879.31,-150.38 900.22,-108.55 912.19,-84.63"/>
<polygon fill="midnightblue" stroke="midnightblue" points="915.36,-86.1 916.7,-75.59 909.1,-82.97 915.36,-86.1"/>
</g>
<!-- Node23&#45;&gt;Node14 -->
<g id="edge42" class="edge">
<title>Node23&#45;&gt;Node14</title>
<path fill="none" stroke="midnightblue" d="M857.39,-168.09C845.17,-155.49 822.07,-131.79 802,-112 791.92,-102.06 780.45,-91.07 771.36,-82.44"/>
<polygon fill="midnightblue" stroke="midnightblue" points="773.75,-79.88 764.09,-75.55 768.94,-84.97 773.75,-79.88"/>
</g>
<!-- Node23&#45;&gt;Node15 -->
<g id="edge45" class="edge">
<title>Node23&#45;&gt;Node15</title>
<path fill="none" stroke="midnightblue" d="M848.12,-173.54C801.7,-164.56 676.87,-140.39 618.23,-129.05"/>
<polygon fill="midnightblue" stroke="midnightblue" points="618.57,-125.55 608.09,-127.08 617.24,-132.42 618.57,-125.55"/>
</g>
<!-- Node23&#45;&gt;Node19 -->
<g id="edge44" class="edge">
<title>Node23&#45;&gt;Node19</title>
<path fill="none" stroke="midnightblue" d="M864.35,-168.37C860.96,-150.62 853.15,-109.67 848.55,-85.6"/>
<polygon fill="midnightblue" stroke="midnightblue" points="851.95,-84.76 846.64,-75.59 845.08,-86.07 851.95,-84.76"/>
</g>
<!-- Node24&#45;&gt;Node2 -->
<g id="edge48" class="edge">
<title>Node24&#45;&gt;Node2</title>
<path fill="none" stroke="midnightblue" d="M445.87,-224.39C444.46,-214.29 442.73,-200.34 442,-188 440,-154.18 442.87,-145.49 448,-112 449.34,-103.23 451.22,-93.57 452.92,-85.46"/>
<polygon fill="midnightblue" stroke="midnightblue" points="456.36,-86.1 455.04,-75.59 449.51,-84.62 456.36,-86.1"/>
</g>
<!-- Node24&#45;&gt;Node3 -->
<g id="edge49" class="edge">
<title>Node24&#45;&gt;Node3</title>
<path fill="none" stroke="midnightblue" d="M407.59,-224.47C383.72,-215.46 353.31,-202.71 328,-188 292.64,-167.46 285.2,-159.57 255,-132 238.09,-116.57 220.53,-97.07 208.81,-83.47"/>
<polygon fill="midnightblue" stroke="midnightblue" points="211.47,-81.2 202.33,-75.86 206.15,-85.74 211.47,-81.2"/>
</g>
<!-- Node24&#45;&gt;Node5 -->
<g id="edge50" class="edge">
<title>Node24&#45;&gt;Node5</title>
<path fill="none" stroke="midnightblue" d="M432.6,-224.38C398.87,-193.53 315.84,-117.9 245,-56 233.5,-45.95 220.41,-34.84 210.12,-26.17"/>
<polygon fill="midnightblue" stroke="midnightblue" points="212.14,-23.29 202.23,-19.54 207.64,-28.65 212.14,-23.29"/>
</g>
<!-- Node24&#45;&gt;Node7 -->
<g id="edge51" class="edge">
<title>Node24&#45;&gt;Node7</title>
<path fill="none" stroke="midnightblue" d="M504.23,-235.56C629.72,-228.65 924.67,-210.23 964,-188 1005.84,-164.36 1033.95,-112.41 1046.51,-84.91"/>
<polygon fill="midnightblue" stroke="midnightblue" points="1049.75,-86.24 1050.56,-75.67 1043.34,-83.42 1049.75,-86.24"/>
</g>
<!-- Node24&#45;&gt;Node12 -->
<g id="edge52" class="edge">
<title>Node24&#45;&gt;Node12</title>
<path fill="none" stroke="midnightblue" d="M488.52,-224.4C519.31,-213.69 560.97,-199.19 588.86,-189.49"/>
<polygon fill="midnightblue" stroke="midnightblue" points="590.17,-192.74 598.46,-186.15 587.87,-186.13 590.17,-192.74"/>
</g>
<!-- Node24&#45;&gt;Node15 -->
<g id="edge53" class="edge">
<title>Node24&#45;&gt;Node15</title>
<path fill="none" stroke="midnightblue" d="M465.04,-224.34C491.34,-202.49 541.59,-160.73 568.65,-138.24"/>
<polygon fill="midnightblue" stroke="midnightblue" points="571.11,-140.75 576.57,-131.67 566.64,-135.37 571.11,-140.75"/>
</g>
<!-- Node25&#45;&gt;Node2 -->
<g id="edge60" class="edge">
<title>Node25&#45;&gt;Node2</title>
<path fill="none" stroke="midnightblue" d="M820.33,-297.74C769.58,-293.81 695.38,-283.24 637,-255 562.14,-218.78 549.38,-195.77 496,-132 483.75,-117.36 472.86,-98.45 465.73,-84.8"/>
<polygon fill="midnightblue" stroke="midnightblue" points="468.68,-82.89 461.04,-75.55 462.44,-86.05 468.68,-82.89"/>
</g>
<!-- Node25&#45;&gt;Node3 -->
<g id="edge59" class="edge">
<title>Node25&#45;&gt;Node3</title>
<path fill="none" stroke="midnightblue" d="M820.26,-300.24C664.75,-300.3 251.18,-296.5 207,-255 160.14,-210.98 178.17,-123.7 189.07,-85.56"/>
<polygon fill="midnightblue" stroke="midnightblue" points="192.48,-86.38 192.02,-75.79 185.78,-84.35 192.48,-86.38"/>
</g>
<!-- Node25&#45;&gt;Node4 -->
<g id="edge58" class="edge">
<title>Node25&#45;&gt;Node4</title>
<path fill="none" stroke="midnightblue" d="M937.59,-298.67C1023.77,-295.67 1179.43,-286.01 1225,-255 1284.71,-214.36 1308.83,-124.53 1316.74,-85.6"/>
<polygon fill="midnightblue" stroke="midnightblue" points="1320.2,-86.13 1318.63,-75.65 1313.32,-84.82 1320.2,-86.13"/>
</g>
<!-- Node25&#45;&gt;Node7 -->
<g id="edge61" class="edge">
<title>Node25&#45;&gt;Node7</title>
<path fill="none" stroke="midnightblue" d="M896.86,-291.4C913.23,-283.13 937.77,-269.75 957,-255 990.41,-229.37 998.67,-221.64 1024,-188 1041.11,-165.28 1047.88,-159.54 1055,-132 1057.22,-123.39 1055.1,-120.89 1055,-112 1054.9,-103.4 1054.71,-93.87 1054.51,-85.8"/>
<polygon fill="midnightblue" stroke="midnightblue" points="1058.01,-85.53 1054.25,-75.63 1051.01,-85.71 1058.01,-85.53"/>
</g>
<!-- Node25&#45;&gt;Node8 -->
<g id="edge57" class="edge">
<title>Node25&#45;&gt;Node8</title>
<path fill="none" stroke="midnightblue" d="M937.56,-298.78C1029.38,-295.92 1202.11,-286.41 1254,-255 1331.59,-208.04 1332.44,-164.56 1352,-76 1353.92,-67.32 1354.7,-64.47 1352,-56 1348.66,-45.54 1341.9,-35.43 1335.45,-27.45"/>
<polygon fill="midnightblue" stroke="midnightblue" points="1337.94,-24.98 1328.75,-19.71 1332.65,-29.56 1337.94,-24.98"/>
</g>
<!-- Node25&#45;&gt;Node12 -->
<g id="edge70" class="edge">
<title>Node25&#45;&gt;Node12</title>
<path fill="none" stroke="midnightblue" d="M820.32,-298.99C775.68,-295.63 714.54,-285.21 670,-255 648.89,-240.69 634.21,-214.45 626.18,-196.86"/>
<polygon fill="midnightblue" stroke="midnightblue" points="629.4,-195.47 622.23,-187.66 622.96,-198.23 629.4,-195.47"/>
</g>
<!-- Node25&#45;&gt;Node13 -->
<g id="edge56" class="edge">
<title>Node25&#45;&gt;Node13</title>
<path fill="none" stroke="midnightblue" d="M908.12,-291.44C925.64,-284.62 946.52,-273.14 957,-255 989.37,-198.95 951.65,-119.36 931.75,-84.5"/>
<polygon fill="midnightblue" stroke="midnightblue" points="934.56,-82.38 926.46,-75.55 928.53,-85.94 934.56,-82.38"/>
</g>
<!-- Node25&#45;&gt;Node14 -->
<g id="edge55" class="edge">
<title>Node25&#45;&gt;Node14</title>
<path fill="none" stroke="midnightblue" d="M854.27,-291.49C837.13,-284.34 815.1,-272.47 802,-255 763.02,-203.03 756.11,-122.49 755.06,-86.06"/>
<polygon fill="midnightblue" stroke="midnightblue" points="758.56,-85.81 754.89,-75.87 751.56,-85.93 758.56,-85.81"/>
</g>
<!-- Node25&#45;&gt;Node15 -->
<g id="edge71" class="edge">
<title>Node25&#45;&gt;Node15</title>
<path fill="none" stroke="midnightblue" d="M852.6,-291.37C829.57,-283.36 795.61,-270.38 768,-255 710.76,-223.12 701.96,-206.58 649,-168 634.99,-157.79 619.17,-146.31 607.02,-137.5"/>
<polygon fill="midnightblue" stroke="midnightblue" points="609.05,-134.65 598.89,-131.61 604.94,-140.32 609.05,-134.65"/>
</g>
<!-- Node26 -->
<g id="node26" class="node">
<title>Node26</title>
<g id="a_node26"><a xlink:href="_willy_weather_2authenticate_8h.html" target="_top" xlink:title=" ">
<polygon fill="none" stroke="black" points="810.5,-230 810.5,-249 947.5,-249 947.5,-230 810.5,-230"/>
<text text-anchor="middle" x="879" y="-237" font-family="Helvetica,sans-Serif" font-size="10.00">WillyWeather/authenticate.h</text>
</a>
</g>
</g>
<!-- Node25&#45;&gt;Node26 -->
<g id="edge62" class="edge">
<title>Node25&#45;&gt;Node26</title>
<path fill="none" stroke="midnightblue" d="M879,-291.48C879,-283.08 879,-269.98 879,-259.16"/>
<polygon fill="midnightblue" stroke="midnightblue" points="882.5,-259.01 879,-249.01 875.5,-259.01 882.5,-259.01"/>
</g>
<!-- Node26&#45;&gt;Node2 -->
<g id="edge67" class="edge">
<title>Node26&#45;&gt;Node2</title>
<path fill="none" stroke="midnightblue" d="M849.98,-229.95C781.36,-209.56 610.8,-157.85 557,-132 548.83,-128.07 505.01,-99.08 478.16,-81.17"/>
<polygon fill="midnightblue" stroke="midnightblue" points="480.04,-78.21 469.78,-75.57 476.15,-84.03 480.04,-78.21"/>
</g>
<!-- Node26&#45;&gt;Node3 -->
<g id="edge66" class="edge">
<title>Node26&#45;&gt;Node3</title>
<path fill="none" stroke="midnightblue" d="M817.09,-229.96C758.26,-221.31 667.52,-206.57 590,-188 454.33,-155.5 296.78,-102.53 228.93,-78.96"/>
<polygon fill="midnightblue" stroke="midnightblue" points="229.8,-75.56 219.21,-75.57 227.5,-82.17 229.8,-75.56"/>
</g>
<!-- Node26&#45;&gt;Node7 -->
<g id="edge68" class="edge">
<title>Node26&#45;&gt;Node7</title>
<path fill="none" stroke="midnightblue" d="M918.71,-229.94C944.98,-222.56 978.74,-209.6 1002,-188 1032.05,-160.09 1045.52,-111.89 1050.89,-85.53"/>
<polygon fill="midnightblue" stroke="midnightblue" points="1054.33,-86.17 1052.72,-75.7 1047.45,-84.89 1054.33,-86.17"/>
</g>
<!-- Node26&#45;&gt;Node8 -->
<g id="edge65" class="edge">
<title>Node26&#45;&gt;Node8</title>
<path fill="none" stroke="midnightblue" d="M909.14,-229.97C938.96,-221.08 985.6,-205.94 1024,-188 1132.58,-137.28 1252.32,-57.67 1299.39,-25.35"/>
<polygon fill="midnightblue" stroke="midnightblue" points="1301.57,-28.1 1307.81,-19.54 1297.59,-22.34 1301.57,-28.1"/>
</g>
<!-- Node26&#45;&gt;Node12 -->
<g id="edge69" class="edge">
<title>Node26&#45;&gt;Node12</title>
<path fill="none" stroke="midnightblue" d="M841.75,-229.98C789.95,-218.12 697.14,-196.88 649.32,-185.94"/>
<polygon fill="midnightblue" stroke="midnightblue" points="650.09,-182.52 639.56,-183.7 648.53,-189.35 650.09,-182.52"/>
</g>
<!-- Node26&#45;&gt;Node13 -->
<g id="edge64" class="edge">
<title>Node26&#45;&gt;Node13</title>
<path fill="none" stroke="midnightblue" d="M881.44,-229.94C884.29,-219.91 889.1,-202.78 893,-188 899.54,-163.19 901.19,-156.99 907,-132 910.6,-116.52 914.38,-98.89 917.1,-85.9"/>
<polygon fill="midnightblue" stroke="midnightblue" points="920.58,-86.36 919.19,-75.85 913.73,-84.93 920.58,-86.36"/>
</g>
<!-- Node26&#45;&gt;Node14 -->
<g id="edge63" class="edge">
<title>Node26&#45;&gt;Node14</title>
<path fill="none" stroke="midnightblue" d="M871.97,-229.65C864.07,-219.64 850.91,-202.8 840,-188 813.1,-151.49 782.85,-107.75 766.68,-84.14"/>
<polygon fill="midnightblue" stroke="midnightblue" points="769.38,-81.88 760.85,-75.6 763.6,-85.83 769.38,-81.88"/>
</g>
</g>
</svg>
