<?xml version="1.0" encoding="UTF-8" standalone="no"?>
<!DOCTYPE svg PUBLIC "-//W3C//DTD SVG 1.1//EN"
 "http://www.w3.org/Graphics/SVG/1.1/DTD/svg11.dtd">
<!-- Generated by graphviz version 2.43.0 (0)
 -->
<!-- Title: src/transform.c Pages: 1 -->
<svg width="1265pt" height="423pt"
 viewBox="0.00 0.00 1264.50 423.00" xmlns="http://www.w3.org/2000/svg" xmlns:xlink="http://www.w3.org/1999/xlink">
<g id="graph0" class="graph" transform="scale(1 1) rotate(0) translate(4 419)">
<title>src/transform.c</title>
<!-- Node1 -->
<g id="node1" class="node">
<title>Node1</title>
<g id="a_node1"><a xlink:title=" ">
<polygon fill="#999999" stroke="#666666" points="569.5,-415 479.5,-415 479.5,-396 569.5,-396 569.5,-415"/>
<text text-anchor="middle" x="524.5" y="-403" font-family="Helvetica,sans-Serif" font-size="10.00">src/transform.c</text>
</a>
</g>
</g>
<!-- Node2 -->
<g id="node2" class="node">
<title>Node2</title>
<g id="a_node2"><a xlink:href="transform_8h.html" target="_top" xlink:title=" ">
<polygon fill="white" stroke="#666666" points="561.5,-360 487.5,-360 487.5,-341 561.5,-341 561.5,-360"/>
<text text-anchor="middle" x="524.5" y="-348" font-family="Helvetica,sans-Serif" font-size="10.00">transform.h</text>
</a>
</g>
</g>
<!-- Node1&#45;&gt;Node2 -->
<g id="edge1" class="edge">
<title>Node1&#45;&gt;Node2</title>
<path fill="none" stroke="#63b8ff" d="M524.5,-395.75C524.5,-388.8 524.5,-378.85 524.5,-370.13"/>
<polygon fill="#63b8ff" stroke="#63b8ff" points="528,-370.09 524.5,-360.09 521,-370.09 528,-370.09"/>
</g>
<!-- Node3 -->
<g id="node3" class="node">
<title>Node3</title>
<g id="a_node3"><a xlink:title=" ">
<polygon fill="#e0e0e0" stroke="#999999" points="63,-74 0,-74 0,-55 63,-55 63,-74"/>
<text text-anchor="middle" x="31.5" y="-62" font-family="Helvetica,sans-Serif" font-size="10.00">libpq&#45;fe.h</text>
</a>
</g>
</g>
<!-- Node2&#45;&gt;Node3 -->
<g id="edge2" class="edge">
<title>Node2&#45;&gt;Node3</title>
<path fill="none" stroke="#63b8ff" d="M487.22,-348.93C371.87,-346.18 28.5,-330.08 28.5,-236 28.5,-236 28.5,-236 28.5,-173.5 28.5,-142.18 29.78,-105.77 30.66,-84.23"/>
<polygon fill="#63b8ff" stroke="#63b8ff" points="34.16,-84.32 31.1,-74.18 27.17,-84.02 34.16,-84.32"/>
</g>
<!-- Node4 -->
<g id="node4" class="node">
<title>Node4</title>
<g id="a_node4"><a xlink:title=" ">
<polygon fill="#e0e0e0" stroke="#999999" points="1224.5,-19 1174.5,-19 1174.5,0 1224.5,0 1224.5,-19"/>
<text text-anchor="middle" x="1199.5" y="-7" font-family="Helvetica,sans-Serif" font-size="10.00">stdio.h</text>
</a>
</g>
</g>
<!-- Node2&#45;&gt;Node4 -->
<g id="edge3" class="edge">
<title>Node2&#45;&gt;Node4</title>
<path fill="none" stroke="#63b8ff" d="M561.55,-347.71C710.36,-340.05 1256.5,-307.09 1256.5,-236 1256.5,-236 1256.5,-236 1256.5,-118.5 1256.5,-82.51 1231.44,-46.76 1214.55,-26.76"/>
<polygon fill="#63b8ff" stroke="#63b8ff" points="1217.14,-24.4 1207.91,-19.2 1211.88,-29.02 1217.14,-24.4"/>
</g>
<!-- Node5 -->
<g id="node5" class="node">
<title>Node5</title>
<g id="a_node5"><a xlink:title=" ">
<polygon fill="#e0e0e0" stroke="#999999" points="523,-74 470,-74 470,-55 523,-55 523,-74"/>
<text text-anchor="middle" x="496.5" y="-62" font-family="Helvetica,sans-Serif" font-size="10.00">stdlib.h</text>
</a>
</g>
</g>
<!-- Node2&#45;&gt;Node5 -->
<g id="edge4" class="edge">
<title>Node2&#45;&gt;Node5</title>
<path fill="none" stroke="#63b8ff" d="M522.38,-340.75C515.4,-311.19 493.28,-212.25 489.5,-129 489.12,-120.56 488.84,-118.42 489.5,-110 490.16,-101.52 491.53,-92.22 492.87,-84.32"/>
<polygon fill="#63b8ff" stroke="#63b8ff" points="496.35,-84.78 494.7,-74.32 489.46,-83.53 496.35,-84.78"/>
</g>
<!-- Node6 -->
<g id="node6" class="node">
<title>Node6</title>
<g id="a_node6"><a xlink:href="log_8h.html" target="_top" xlink:title=" ">
<polygon fill="white" stroke="#666666" points="1087,-74 1046,-74 1046,-55 1087,-55 1087,-74"/>
<text text-anchor="middle" x="1066.5" y="-62" font-family="Helvetica,sans-Serif" font-size="10.00">log.h</text>
</a>
</g>
</g>
<!-- Node2&#45;&gt;Node6 -->
<g id="edge5" class="edge">
<title>Node2&#45;&gt;Node6</title>
<path fill="none" stroke="#63b8ff" d="M561.86,-345.83C662.36,-335.33 935.74,-302.53 1007.5,-250 1056.26,-214.31 1059.02,-188.51 1069.5,-129 1072.11,-114.19 1071.09,-97.15 1069.57,-84.45"/>
<polygon fill="#63b8ff" stroke="#63b8ff" points="1072.98,-83.61 1068.12,-74.2 1066.05,-84.6 1072.98,-83.61"/>
</g>
<!-- Node10 -->
<g id="node10" class="node">
<title>Node10</title>
<g id="a_node10"><a xlink:href="stations_8h.html" target="_top" xlink:title=" ">
<polygon fill="white" stroke="#666666" points="205,-244.5 114,-244.5 114,-225.5 205,-225.5 205,-244.5"/>
<text text-anchor="middle" x="159.5" y="-232.5" font-family="Helvetica,sans-Serif" font-size="10.00">BOM/stations.h</text>
</a>
</g>
</g>
<!-- Node2&#45;&gt;Node10 -->
<g id="edge10" class="edge">
<title>Node2&#45;&gt;Node10</title>
<path fill="none" stroke="#63b8ff" d="M487.24,-347.29C416.33,-342.58 264.99,-329.85 219.5,-305 197.58,-293.03 179.94,-269.71 169.6,-253.51"/>
<polygon fill="#63b8ff" stroke="#63b8ff" points="172.31,-251.24 164.13,-244.51 166.33,-254.87 172.31,-251.24"/>
</g>
<!-- Node17 -->
<g id="node17" class="node">
<title>Node17</title>
<g id="a_node17"><a xlink:href="utils_8h.html" target="_top" xlink:title=" ">
<polygon fill="white" stroke="#666666" points="316,-129 269,-129 269,-110 316,-110 316,-129"/>
<text text-anchor="middle" x="292.5" y="-117" font-family="Helvetica,sans-Serif" font-size="10.00">utils.h</text>
</a>
</g>
</g>
<!-- Node2&#45;&gt;Node17 -->
<g id="edge60" class="edge">
<title>Node2&#45;&gt;Node17</title>
<path fill="none" stroke="#63b8ff" d="M489.94,-340.94C465.71,-333.87 433.34,-322.17 408.5,-305 400.27,-299.31 303.23,-185.57 302.5,-184 295.96,-169.91 293.58,-152.36 292.76,-139.29"/>
<polygon fill="#63b8ff" stroke="#63b8ff" points="296.26,-139.01 292.39,-129.15 289.26,-139.27 296.26,-139.01"/>
</g>
<!-- Node22 -->
<g id="node22" class="node">
<title>Node22</title>
<g id="a_node22"><a xlink:href="harvest__area_8h.html" target="_top" xlink:title=" ">
<polygon fill="white" stroke="#666666" points="696,-250 571,-250 571,-220 696,-220 696,-250"/>
<text text-anchor="start" x="579" y="-238" font-family="Helvetica,sans-Serif" font-size="10.00">FoodAuthority/harvest</text>
<text text-anchor="middle" x="633.5" y="-227" font-family="Helvetica,sans-Serif" font-size="10.00">_area.h</text>
</a>
</g>
</g>
<!-- Node2&#45;&gt;Node22 -->
<g id="edge31" class="edge">
<title>Node2&#45;&gt;Node22</title>
<path fill="none" stroke="#63b8ff" d="M532.69,-340.97C549.56,-323.4 588.63,-282.72 612.87,-257.48"/>
<polygon fill="#63b8ff" stroke="#63b8ff" points="615.48,-259.82 619.88,-250.18 610.43,-254.97 615.48,-259.82"/>
</g>
<!-- Node24 -->
<g id="node24" class="node">
<title>Node24</title>
<g id="a_node24"><a xlink:href="location_8h.html" target="_top" xlink:title=" ">
<polygon fill="white" stroke="#666666" points="791,-305 658,-305 658,-286 791,-286 791,-305"/>
<text text-anchor="middle" x="724.5" y="-293" font-family="Helvetica,sans-Serif" font-size="10.00">WillyWeather/location.h</text>
</a>
</g>
</g>
<!-- Node2&#45;&gt;Node24 -->
<g id="edge42" class="edge">
<title>Node2&#45;&gt;Node24</title>
<path fill="none" stroke="#63b8ff" d="M556.63,-340.98C590.65,-331.97 644.5,-317.7 682,-307.76"/>
<polygon fill="#63b8ff" stroke="#63b8ff" points="683.34,-311.03 692.11,-305.08 681.55,-304.26 683.34,-311.03"/>
</g>
<!-- Node6&#45;&gt;Node4 -->
<g id="edge6" class="edge">
<title>Node6&#45;&gt;Node4</title>
<path fill="none" stroke="#63b8ff" d="M1087.28,-55.22C1109.08,-46.53 1143.59,-32.78 1168.58,-22.82"/>
<polygon fill="#63b8ff" stroke="#63b8ff" points="1169.99,-26.03 1177.98,-19.07 1167.4,-19.52 1169.99,-26.03"/>
</g>
<!-- Node7 -->
<g id="node7" class="node">
<title>Node7</title>
<g id="a_node7"><a xlink:title=" ">
<polygon fill="#e0e0e0" stroke="#999999" points="1056.5,-19 1000.5,-19 1000.5,0 1056.5,0 1056.5,-19"/>
<text text-anchor="middle" x="1028.5" y="-7" font-family="Helvetica,sans-Serif" font-size="10.00">stdarg.h</text>
</a>
</g>
</g>
<!-- Node6&#45;&gt;Node7 -->
<g id="edge7" class="edge">
<title>Node6&#45;&gt;Node7</title>
<path fill="none" stroke="#63b8ff" d="M1060.23,-54.75C1054.91,-47.34 1047.14,-36.5 1040.62,-27.41"/>
<polygon fill="#63b8ff" stroke="#63b8ff" points="1043.33,-25.18 1034.66,-19.09 1037.64,-29.26 1043.33,-25.18"/>
</g>
<!-- Node8 -->
<g id="node8" class="node">
<title>Node8</title>
<g id="a_node8"><a xlink:title=" ">
<polygon fill="#e0e0e0" stroke="#999999" points="1136.5,-19 1074.5,-19 1074.5,0 1136.5,0 1136.5,-19"/>
<text text-anchor="middle" x="1105.5" y="-7" font-family="Helvetica,sans-Serif" font-size="10.00">stdbool.h</text>
</a>
</g>
</g>
<!-- Node6&#45;&gt;Node8 -->
<g id="edge8" class="edge">
<title>Node6&#45;&gt;Node8</title>
<path fill="none" stroke="#63b8ff" d="M1072.94,-54.75C1078.39,-47.34 1086.36,-36.5 1093.06,-27.41"/>
<polygon fill="#63b8ff" stroke="#63b8ff" points="1096.07,-29.22 1099.18,-19.09 1090.43,-25.07 1096.07,-29.22"/>
</g>
<!-- Node9 -->
<g id="node9" class="node">
<title>Node9</title>
<g id="a_node9"><a xlink:title=" ">
<polygon fill="#e0e0e0" stroke="#999999" points="884.5,-19 836.5,-19 836.5,0 884.5,0 884.5,-19"/>
<text text-anchor="middle" x="860.5" y="-7" font-family="Helvetica,sans-Serif" font-size="10.00">time.h</text>
</a>
</g>
</g>
<!-- Node6&#45;&gt;Node9 -->
<g id="edge9" class="edge">
<title>Node6&#45;&gt;Node9</title>
<path fill="none" stroke="#63b8ff" d="M1045.99,-58.22C1010.57,-49.11 937.57,-30.33 894.47,-19.24"/>
<polygon fill="#63b8ff" stroke="#63b8ff" points="895.27,-15.83 884.71,-16.73 893.52,-22.61 895.27,-15.83"/>
</g>
<!-- Node11 -->
<g id="node11" class="node">
<title>Node11</title>
<g id="a_node11"><a xlink:title=" ">
<polygon fill="#e0e0e0" stroke="#999999" points="138,-74 87,-74 87,-55 138,-55 138,-74"/>
<text text-anchor="middle" x="112.5" y="-62" font-family="Helvetica,sans-Serif" font-size="10.00">math.h</text>
</a>
</g>
</g>
<!-- Node10&#45;&gt;Node11 -->
<g id="edge11" class="edge">
<title>Node10&#45;&gt;Node11</title>
<path fill="none" stroke="#63b8ff" d="M157.1,-225.41C149.81,-199.28 127.78,-120.29 117.67,-84.04"/>
<polygon fill="#63b8ff" stroke="#63b8ff" points="121.01,-82.96 114.95,-74.27 114.26,-84.85 121.01,-82.96"/>
</g>
<!-- Node12 -->
<g id="node12" class="node">
<title>Node12</title>
<g id="a_node12"><a xlink:title=" ">
<polygon fill="#e0e0e0" stroke="#999999" points="110,-184 57,-184 57,-165 110,-165 110,-184"/>
<text text-anchor="middle" x="83.5" y="-172" font-family="Helvetica,sans-Serif" font-size="10.00">ctype.h</text>
</a>
</g>
</g>
<!-- Node10&#45;&gt;Node12 -->
<g id="edge12" class="edge">
<title>Node10&#45;&gt;Node12</title>
<path fill="none" stroke="#63b8ff" d="M148.29,-225.37C136.39,-216.21 117.36,-201.56 102.99,-190.51"/>
<polygon fill="#63b8ff" stroke="#63b8ff" points="104.82,-187.49 94.76,-184.17 100.55,-193.04 104.82,-187.49"/>
</g>
<!-- Node13 -->
<g id="node13" class="node">
<title>Node13</title>
<g id="a_node13"><a xlink:href="ftp_8h.html" target="_top" xlink:title=" ">
<polygon fill="white" stroke="#666666" points="394.5,-184 356.5,-184 356.5,-165 394.5,-165 394.5,-184"/>
<text text-anchor="middle" x="375.5" y="-172" font-family="Helvetica,sans-Serif" font-size="10.00">ftp.h</text>
</a>
</g>
</g>
<!-- Node10&#45;&gt;Node13 -->
<g id="edge13" class="edge">
<title>Node10&#45;&gt;Node13</title>
<path fill="none" stroke="#63b8ff" d="M190.91,-225.49C232.67,-214.18 305.92,-194.35 346.45,-183.37"/>
<polygon fill="#63b8ff" stroke="#63b8ff" points="347.51,-186.71 356.25,-180.71 345.68,-179.95 347.51,-186.71"/>
</g>
<!-- Node10&#45;&gt;Node17 -->
<g id="edge30" class="edge">
<title>Node10&#45;&gt;Node17</title>
<path fill="none" stroke="#63b8ff" d="M169.15,-225.41C183.96,-212.27 213.23,-186.44 238.5,-165 250.08,-155.18 263.23,-144.34 273.65,-135.81"/>
<polygon fill="#63b8ff" stroke="#63b8ff" points="276.13,-138.31 281.67,-129.28 271.7,-132.88 276.13,-138.31"/>
</g>
<!-- Node13&#45;&gt;Node5 -->
<g id="edge14" class="edge">
<title>Node13&#45;&gt;Node5</title>
<path fill="none" stroke="#63b8ff" d="M371.15,-164.77C365.28,-151.61 356.8,-126.45 368.5,-110 374.05,-102.2 424.25,-86.34 460.1,-75.82"/>
<polygon fill="#63b8ff" stroke="#63b8ff" points="461.16,-79.15 469.78,-73 459.2,-72.43 461.16,-79.15"/>
</g>
<!-- Node14 -->
<g id="node14" class="node">
<title>Node14</title>
<g id="a_node14"><a xlink:title=" ">
<polygon fill="#e0e0e0" stroke="#999999" points="677,-74 624,-74 624,-55 677,-55 677,-74"/>
<text text-anchor="middle" x="650.5" y="-62" font-family="Helvetica,sans-Serif" font-size="10.00">string.h</text>
</a>
</g>
</g>
<!-- Node13&#45;&gt;Node14 -->
<g id="edge15" class="edge">
<title>Node13&#45;&gt;Node14</title>
<path fill="none" stroke="#63b8ff" d="M394.84,-165.91C441.66,-147.52 561.5,-100.45 618.91,-77.91"/>
<polygon fill="#63b8ff" stroke="#63b8ff" points="620.52,-81.04 628.55,-74.12 617.96,-74.52 620.52,-81.04"/>
</g>
<!-- Node15 -->
<g id="node15" class="node">
<title>Node15</title>
<g id="a_node15"><a xlink:title=" ">
<polygon fill="#e0e0e0" stroke="#999999" points="606,-74 541,-74 541,-55 606,-55 606,-74"/>
<text text-anchor="middle" x="573.5" y="-62" font-family="Helvetica,sans-Serif" font-size="10.00">curl/curl.h</text>
</a>
</g>
</g>
<!-- Node13&#45;&gt;Node15 -->
<g id="edge16" class="edge">
<title>Node13&#45;&gt;Node15</title>
<path fill="none" stroke="#63b8ff" d="M391.37,-164.84C425.85,-146.04 507.81,-101.33 548.99,-78.87"/>
<polygon fill="#63b8ff" stroke="#63b8ff" points="550.73,-81.91 557.83,-74.05 547.38,-75.76 550.73,-81.91"/>
</g>
<!-- Node16 -->
<g id="node16" class="node">
<title>Node16</title>
<g id="a_node16"><a xlink:title=" ">
<polygon fill="#e0e0e0" stroke="#999999" points="207,-74 156,-74 156,-55 207,-55 207,-74"/>
<text text-anchor="middle" x="181.5" y="-62" font-family="Helvetica,sans-Serif" font-size="10.00">errno.h</text>
</a>
</g>
</g>
<!-- Node13&#45;&gt;Node16 -->
<g id="edge17" class="edge">
<title>Node13&#45;&gt;Node16</title>
<path fill="none" stroke="#63b8ff" d="M356.18,-168.15C332.45,-161.13 291.42,-147.48 259.5,-129 236.29,-115.56 212.86,-95.4 197.83,-81.41"/>
<polygon fill="#63b8ff" stroke="#63b8ff" points="200.05,-78.7 190.39,-74.36 195.24,-83.78 200.05,-78.7"/>
</g>
<!-- Node13&#45;&gt;Node17 -->
<g id="edge18" class="edge">
<title>Node13&#45;&gt;Node17</title>
<path fill="none" stroke="#63b8ff" d="M362.16,-164.98C349.41,-156.84 329.95,-144.41 314.83,-134.76"/>
<polygon fill="#63b8ff" stroke="#63b8ff" points="316.39,-131.6 306.08,-129.17 312.62,-137.5 316.39,-131.6"/>
</g>
<!-- Node17&#45;&gt;Node3 -->
<g id="edge29" class="edge">
<title>Node17&#45;&gt;Node3</title>
<path fill="none" stroke="#63b8ff" d="M268.88,-113.7C224.58,-104.71 128.51,-85.2 73.13,-73.95"/>
<polygon fill="#63b8ff" stroke="#63b8ff" points="73.78,-70.51 63.28,-71.95 72.39,-77.37 73.78,-70.51"/>
</g>
<!-- Node17&#45;&gt;Node5 -->
<g id="edge19" class="edge">
<title>Node17&#45;&gt;Node5</title>
<path fill="none" stroke="#63b8ff" d="M316.3,-112.32C351.74,-103.11 418.66,-85.72 460.22,-74.93"/>
<polygon fill="#63b8ff" stroke="#63b8ff" points="461.16,-78.3 469.95,-72.4 459.4,-71.52 461.16,-78.3"/>
</g>
<!-- Node17&#45;&gt;Node6 -->
<g id="edge28" class="edge">
<title>Node17&#45;&gt;Node6</title>
<path fill="none" stroke="#63b8ff" d="M316.09,-116.88C428.34,-109.2 908.31,-76.33 1035.48,-67.62"/>
<polygon fill="#63b8ff" stroke="#63b8ff" points="1035.94,-71.1 1045.68,-66.93 1035.46,-64.12 1035.94,-71.1"/>
</g>
<!-- Node17&#45;&gt;Node11 -->
<g id="edge27" class="edge">
<title>Node17&#45;&gt;Node11</title>
<path fill="none" stroke="#63b8ff" d="M268.97,-111.57C238.18,-102.51 183.94,-86.53 148.1,-75.98"/>
<polygon fill="#63b8ff" stroke="#63b8ff" points="148.65,-72.5 138.07,-73.03 146.68,-79.21 148.65,-72.5"/>
</g>
<!-- Node17&#45;&gt;Node14 -->
<g id="edge20" class="edge">
<title>Node17&#45;&gt;Node14</title>
<path fill="none" stroke="#63b8ff" d="M316.14,-116.07C368.23,-110.55 496.97,-95.94 613.97,-74.13"/>
<polygon fill="#63b8ff" stroke="#63b8ff" points="614.63,-77.57 623.81,-72.28 613.33,-70.69 614.63,-77.57"/>
</g>
<!-- Node17&#45;&gt;Node15 -->
<g id="edge21" class="edge">
<title>Node17&#45;&gt;Node15</title>
<path fill="none" stroke="#63b8ff" d="M316.04,-114.31C357.43,-106.89 446.18,-90.84 530.81,-74.3"/>
<polygon fill="#63b8ff" stroke="#63b8ff" points="531.7,-77.69 540.84,-72.34 530.35,-70.82 531.7,-77.69"/>
</g>
<!-- Node17&#45;&gt;Node16 -->
<g id="edge26" class="edge">
<title>Node17&#45;&gt;Node16</title>
<path fill="none" stroke="#63b8ff" d="M274.67,-109.98C256.89,-101.5 229.35,-88.35 208.82,-78.54"/>
<polygon fill="#63b8ff" stroke="#63b8ff" points="210.19,-75.32 199.66,-74.17 207.17,-81.64 210.19,-75.32"/>
</g>
<!-- Node18 -->
<g id="node18" class="node">
<title>Node18</title>
<g id="a_node18"><a xlink:title=" ">
<polygon fill="#e0e0e0" stroke="#999999" points="369,-74 316,-74 316,-55 369,-55 369,-74"/>
<text text-anchor="middle" x="342.5" y="-62" font-family="Helvetica,sans-Serif" font-size="10.00">stdint.h</text>
</a>
</g>
</g>
<!-- Node17&#45;&gt;Node18 -->
<g id="edge22" class="edge">
<title>Node17&#45;&gt;Node18</title>
<path fill="none" stroke="#63b8ff" d="M300.76,-109.75C307.96,-102.11 318.61,-90.82 327.35,-81.56"/>
<polygon fill="#63b8ff" stroke="#63b8ff" points="330.08,-83.76 334.4,-74.09 324.99,-78.96 330.08,-83.76"/>
</g>
<!-- Node19 -->
<g id="node19" class="node">
<title>Node19</title>
<g id="a_node19"><a xlink:title=" ">
<polygon fill="#e0e0e0" stroke="#999999" points="915,-74 832,-74 832,-55 915,-55 915,-74"/>
<text text-anchor="middle" x="873.5" y="-62" font-family="Helvetica,sans-Serif" font-size="10.00">cjson/cJSON.h</text>
</a>
</g>
</g>
<!-- Node17&#45;&gt;Node19 -->
<g id="edge23" class="edge">
<title>Node17&#45;&gt;Node19</title>
<path fill="none" stroke="#63b8ff" d="M316.36,-116.32C402.78,-108.44 700.68,-81.27 821.74,-70.22"/>
<polygon fill="#63b8ff" stroke="#63b8ff" points="822.22,-73.69 831.86,-69.3 821.59,-66.72 822.22,-73.69"/>
</g>
<!-- Node20 -->
<g id="node20" class="node">
<title>Node20</title>
<g id="a_node20"><a xlink:title=" ">
<polygon fill="#e0e0e0" stroke="#999999" points="451.5,-74 387.5,-74 387.5,-55 451.5,-55 451.5,-74"/>
<text text-anchor="middle" x="419.5" y="-62" font-family="Helvetica,sans-Serif" font-size="10.00">sys/stat.h</text>
</a>
</g>
</g>
<!-- Node17&#45;&gt;Node20 -->
<g id="edge24" class="edge">
<title>Node17&#45;&gt;Node20</title>
<path fill="none" stroke="#63b8ff" d="M312.9,-109.98C333.52,-101.38 365.61,-87.99 389.19,-78.15"/>
<polygon fill="#63b8ff" stroke="#63b8ff" points="390.84,-81.25 398.72,-74.17 388.15,-74.79 390.84,-81.25"/>
</g>
<!-- Node21 -->
<g id="node21" class="node">
<title>Node21</title>
<g id="a_node21"><a xlink:title=" ">
<polygon fill="#e0e0e0" stroke="#999999" points="297.5,-74 225.5,-74 225.5,-55 297.5,-55 297.5,-74"/>
<text text-anchor="middle" x="261.5" y="-62" font-family="Helvetica,sans-Serif" font-size="10.00">sys/types.h</text>
</a>
</g>
</g>
<!-- Node17&#45;&gt;Node21 -->
<g id="edge25" class="edge">
<title>Node17&#45;&gt;Node21</title>
<path fill="none" stroke="#63b8ff" d="M287.38,-109.75C283.14,-102.49 276.97,-91.95 271.72,-82.98"/>
<polygon fill="#63b8ff" stroke="#63b8ff" points="274.59,-80.95 266.52,-74.09 268.55,-84.49 274.59,-80.95"/>
</g>
<!-- Node22&#45;&gt;Node6 -->
<g id="edge35" class="edge">
<title>Node22&#45;&gt;Node6</title>
<path fill="none" stroke="#63b8ff" d="M687.05,-220C720.35,-210.82 763.83,-197.96 801.5,-184 891.06,-150.81 993.25,-101.82 1040.29,-78.61"/>
<polygon fill="#63b8ff" stroke="#63b8ff" points="1042.06,-81.64 1049.46,-74.06 1038.95,-75.37 1042.06,-81.64"/>
</g>
<!-- Node22&#45;&gt;Node9 -->
<g id="edge34" class="edge">
<title>Node22&#45;&gt;Node9</title>
<path fill="none" stroke="#63b8ff" d="M648.05,-219.68C688.49,-179.85 802.11,-67.99 844.39,-26.37"/>
<polygon fill="#63b8ff" stroke="#63b8ff" points="846.96,-28.74 851.63,-19.23 842.05,-23.75 846.96,-28.74"/>
</g>
<!-- Node22&#45;&gt;Node15 -->
<g id="edge32" class="edge">
<title>Node22&#45;&gt;Node15</title>
<path fill="none" stroke="#63b8ff" d="M628.49,-219.92C617.66,-189.52 592.1,-117.73 580.03,-83.83"/>
<polygon fill="#63b8ff" stroke="#63b8ff" points="583.27,-82.5 576.62,-74.25 576.67,-84.85 583.27,-82.5"/>
</g>
<!-- Node22&#45;&gt;Node17 -->
<g id="edge41" class="edge">
<title>Node22&#45;&gt;Node17</title>
<path fill="none" stroke="#63b8ff" d="M570.98,-228.01C498.67,-220.23 384.79,-205.1 347.5,-184 328.13,-173.04 312.32,-152.59 302.69,-137.85"/>
<polygon fill="#63b8ff" stroke="#63b8ff" points="305.54,-135.8 297.29,-129.15 299.59,-139.49 305.54,-135.8"/>
</g>
<!-- Node22&#45;&gt;Node19 -->
<g id="edge33" class="edge">
<title>Node22&#45;&gt;Node19</title>
<path fill="none" stroke="#63b8ff" d="M696.14,-220.16C722.52,-212.36 752.58,-200.74 776.5,-184 815.92,-156.41 848.08,-108.61 863.55,-82.96"/>
<polygon fill="#63b8ff" stroke="#63b8ff" points="866.75,-84.41 868.8,-74.01 860.72,-80.86 866.75,-84.41"/>
</g>
<!-- Node23 -->
<g id="node23" class="node">
<title>Node23</title>
<g id="a_node23"><a xlink:href="http_8h.html" target="_top" xlink:title=" ">
<polygon fill="white" stroke="#666666" points="565,-184 520,-184 520,-165 565,-165 565,-184"/>
<text text-anchor="middle" x="542.5" y="-172" font-family="Helvetica,sans-Serif" font-size="10.00">http.h</text>
</a>
</g>
</g>
<!-- Node22&#45;&gt;Node23 -->
<g id="edge36" class="edge">
<title>Node22&#45;&gt;Node23</title>
<path fill="none" stroke="#63b8ff" d="M611.47,-219.84C597.23,-210.68 578.77,-198.82 564.53,-189.66"/>
<polygon fill="#63b8ff" stroke="#63b8ff" points="566.17,-186.56 555.87,-184.09 562.39,-192.45 566.17,-186.56"/>
</g>
<!-- Node23&#45;&gt;Node5 -->
<g id="edge37" class="edge">
<title>Node23&#45;&gt;Node5</title>
<path fill="none" stroke="#63b8ff" d="M538.74,-164.66C531.22,-147.01 514.21,-107.09 504.22,-83.64"/>
<polygon fill="#63b8ff" stroke="#63b8ff" points="507.33,-81.99 500.19,-74.16 500.89,-84.73 507.33,-81.99"/>
</g>
<!-- Node23&#45;&gt;Node14 -->
<g id="edge38" class="edge">
<title>Node23&#45;&gt;Node14</title>
<path fill="none" stroke="#63b8ff" d="M565.06,-166.09C583.25,-159.09 608.39,-146.97 624.5,-129 635.92,-116.26 642.71,-97.83 646.47,-84.11"/>
<polygon fill="#63b8ff" stroke="#63b8ff" points="649.89,-84.85 648.87,-74.3 643.09,-83.19 649.89,-84.85"/>
</g>
<!-- Node23&#45;&gt;Node15 -->
<g id="edge39" class="edge">
<title>Node23&#45;&gt;Node15</title>
<path fill="none" stroke="#63b8ff" d="M545.04,-164.66C550.08,-147.09 561.46,-107.45 568.2,-83.95"/>
<polygon fill="#63b8ff" stroke="#63b8ff" points="571.62,-84.74 571.01,-74.16 564.89,-82.8 571.62,-84.74"/>
</g>
<!-- Node23&#45;&gt;Node17 -->
<g id="edge40" class="edge">
<title>Node23&#45;&gt;Node17</title>
<path fill="none" stroke="#63b8ff" d="M519.87,-168.7C475.79,-159.36 378.21,-138.67 326.38,-127.68"/>
<polygon fill="#63b8ff" stroke="#63b8ff" points="326.86,-124.21 316.35,-125.56 325.41,-131.05 326.86,-124.21"/>
</g>
<!-- Node24&#45;&gt;Node4 -->
<g id="edge45" class="edge">
<title>Node24&#45;&gt;Node4</title>
<path fill="none" stroke="#63b8ff" d="M791.27,-289.57C863.07,-283.31 971.74,-270.74 1007.5,-250 1102.02,-195.19 1168.29,-74.55 1190.94,-28.68"/>
<polygon fill="#63b8ff" stroke="#63b8ff" points="1194.23,-29.92 1195.43,-19.39 1187.93,-26.87 1194.23,-29.92"/>
</g>
<!-- Node24&#45;&gt;Node5 -->
<g id="edge44" class="edge">
<title>Node24&#45;&gt;Node5</title>
<path fill="none" stroke="#63b8ff" d="M657.67,-292.02C620.22,-287.49 574.72,-276.37 542.5,-250 492.49,-209.08 492.06,-122.86 494.63,-84.55"/>
<polygon fill="#63b8ff" stroke="#63b8ff" points="498.15,-84.55 495.48,-74.3 491.17,-83.98 498.15,-84.55"/>
</g>
<!-- Node24&#45;&gt;Node6 -->
<g id="edge49" class="edge">
<title>Node24&#45;&gt;Node6</title>
<path fill="none" stroke="#63b8ff" d="M791.27,-289.86C856.97,-284.09 951.53,-272.18 980.5,-250 1035.43,-207.95 1056.64,-122.33 1063.58,-84.36"/>
<polygon fill="#63b8ff" stroke="#63b8ff" points="1067.08,-84.65 1065.3,-74.21 1060.18,-83.48 1067.08,-84.65"/>
</g>
<!-- Node24&#45;&gt;Node11 -->
<g id="edge46" class="edge">
<title>Node24&#45;&gt;Node11</title>
<path fill="none" stroke="#63b8ff" d="M657.8,-290.49C567.66,-284.36 412.16,-271.12 359.5,-250 259.28,-209.8 163.62,-118.38 127.58,-81.43"/>
<polygon fill="#63b8ff" stroke="#63b8ff" points="129.9,-78.8 120.45,-74.03 124.86,-83.66 129.9,-78.8"/>
</g>
<!-- Node24&#45;&gt;Node14 -->
<g id="edge43" class="edge">
<title>Node24&#45;&gt;Node14</title>
<path fill="none" stroke="#63b8ff" d="M791,-290.13C848.51,-284.8 925.35,-273.41 944.5,-250 952.94,-239.68 948.35,-232.77 944.5,-220 927.56,-163.82 920.2,-142.73 871.5,-110 815.3,-72.22 734.11,-65.18 687.39,-64.59"/>
<polygon fill="#63b8ff" stroke="#63b8ff" points="687.14,-61.09 677.13,-64.56 687.12,-68.09 687.14,-61.09"/>
</g>
<!-- Node24&#45;&gt;Node15 -->
<g id="edge48" class="edge">
<title>Node24&#45;&gt;Node15</title>
<path fill="none" stroke="#63b8ff" d="M723.58,-285.78C721.78,-271.38 716.93,-242.04 705.5,-220 675.35,-161.85 619.5,-106.78 591.09,-80.91"/>
<polygon fill="#63b8ff" stroke="#63b8ff" points="593.31,-78.2 583.53,-74.13 588.63,-83.41 593.31,-78.2"/>
</g>
<!-- Node24&#45;&gt;Node17 -->
<g id="edge59" class="edge">
<title>Node24&#45;&gt;Node17</title>
<path fill="none" stroke="#63b8ff" d="M657.93,-289.86C600.71,-284.47 516.58,-273.15 446.5,-250 386.1,-230.05 362.71,-230.68 319.5,-184 307.81,-171.37 300.74,-152.93 296.79,-139.17"/>
<polygon fill="#63b8ff" stroke="#63b8ff" points="300.14,-138.15 294.25,-129.34 293.36,-139.9 300.14,-138.15"/>
</g>
<!-- Node24&#45;&gt;Node19 -->
<g id="edge47" class="edge">
<title>Node24&#45;&gt;Node19</title>
<path fill="none" stroke="#63b8ff" d="M791.07,-291.19C853.16,-286.54 939.31,-275.56 960.5,-250 1005.47,-195.76 928,-114.39 891.23,-80.82"/>
<polygon fill="#63b8ff" stroke="#63b8ff" points="893.45,-78.11 883.66,-74.06 888.79,-83.33 893.45,-78.11"/>
</g>
<!-- Node24&#45;&gt;Node23 -->
<g id="edge58" class="edge">
<title>Node24&#45;&gt;Node23</title>
<path fill="none" stroke="#63b8ff" d="M657.62,-291.31C624.93,-286.34 587.38,-275.03 562.5,-250 547.92,-235.34 543.65,-211.27 542.56,-194.47"/>
<polygon fill="#63b8ff" stroke="#63b8ff" points="546.05,-194.08 542.23,-184.2 539.06,-194.31 546.05,-194.08"/>
</g>
<!-- Node25 -->
<g id="node25" class="node">
<title>Node25</title>
<g id="a_node25"><a xlink:href="_willy_weather_2authenticate_8h.html" target="_top" xlink:title=" ">
<polygon fill="white" stroke="#666666" points="935,-244.5 780,-244.5 780,-225.5 935,-225.5 935,-244.5"/>
<text text-anchor="middle" x="857.5" y="-232.5" font-family="Helvetica,sans-Serif" font-size="10.00">WillyWeather/authenticate.h</text>
</a>
</g>
</g>
<!-- Node24&#45;&gt;Node25 -->
<g id="edge50" class="edge">
<title>Node24&#45;&gt;Node25</title>
<path fill="none" stroke="#63b8ff" d="M743.84,-285.99C766.2,-276.16 803.21,-259.88 828.9,-248.58"/>
<polygon fill="#63b8ff" stroke="#63b8ff" points="830.39,-251.75 838.14,-244.52 827.57,-245.34 830.39,-251.75"/>
</g>
<!-- Node25&#45;&gt;Node4 -->
<g id="edge53" class="edge">
<title>Node25&#45;&gt;Node4</title>
<path fill="none" stroke="#63b8ff" d="M873.11,-225.5C890.69,-215.82 919.99,-199.35 944.5,-184 1033.89,-128.01 1136.7,-55.46 1179.35,-24.98"/>
<polygon fill="#63b8ff" stroke="#63b8ff" points="1181.42,-27.81 1187.51,-19.14 1177.34,-22.12 1181.42,-27.81"/>
</g>
<!-- Node25&#45;&gt;Node5 -->
<g id="edge52" class="edge">
<title>Node25&#45;&gt;Node5</title>
<path fill="none" stroke="#63b8ff" d="M839.1,-225.41C779.96,-197.81 594.46,-111.22 524.01,-78.34"/>
<polygon fill="#63b8ff" stroke="#63b8ff" points="525.4,-75.13 514.86,-74.07 522.44,-81.47 525.4,-75.13"/>
</g>
<!-- Node25&#45;&gt;Node6 -->
<g id="edge56" class="edge">
<title>Node25&#45;&gt;Node6</title>
<path fill="none" stroke="#63b8ff" d="M868.15,-225.41C901.69,-198.37 1005.42,-114.74 1047.99,-80.43"/>
<polygon fill="#63b8ff" stroke="#63b8ff" points="1050.28,-83.07 1055.87,-74.07 1045.89,-77.62 1050.28,-83.07"/>
</g>
<!-- Node25&#45;&gt;Node14 -->
<g id="edge51" class="edge">
<title>Node25&#45;&gt;Node14</title>
<path fill="none" stroke="#63b8ff" d="M860.36,-225.23C867,-203.01 880.86,-143.86 852.5,-110 831.69,-85.14 739.74,-73.21 687.36,-68.34"/>
<polygon fill="#63b8ff" stroke="#63b8ff" points="687.41,-64.83 677.14,-67.43 686.79,-71.8 687.41,-64.83"/>
</g>
<!-- Node25&#45;&gt;Node15 -->
<g id="edge55" class="edge">
<title>Node25&#45;&gt;Node15</title>
<path fill="none" stroke="#63b8ff" d="M851.71,-225.24C836.21,-202.53 791.39,-141.32 738.5,-110 717.92,-97.81 657.83,-83.33 616.15,-74.27"/>
<polygon fill="#63b8ff" stroke="#63b8ff" points="616.76,-70.82 606.25,-72.15 615.29,-77.67 616.76,-70.82"/>
</g>
<!-- Node25&#45;&gt;Node19 -->
<g id="edge54" class="edge">
<title>Node25&#45;&gt;Node19</title>
<path fill="none" stroke="#63b8ff" d="M865.62,-225.25C873.73,-215.87 885.65,-200.14 890.5,-184 899.96,-152.5 896.47,-142.34 890.5,-110 888.83,-100.95 885.4,-91.36 882.06,-83.41"/>
<polygon fill="#63b8ff" stroke="#63b8ff" points="885.16,-81.78 877.87,-74.09 878.77,-84.65 885.16,-81.78"/>
</g>
<!-- Node25&#45;&gt;Node23 -->
<g id="edge57" class="edge">
<title>Node25&#45;&gt;Node23</title>
<path fill="none" stroke="#63b8ff" d="M811.7,-225.49C747.42,-213.56 631.99,-192.12 575.49,-181.63"/>
<polygon fill="#63b8ff" stroke="#63b8ff" points="575.79,-178.12 565.32,-179.74 574.52,-185.01 575.79,-178.12"/>
</g>
</g>
</svg>
