<?xml version="1.0" encoding="UTF-8" standalone="no"?>
<!DOCTYPE svg PUBLIC "-//W3C//DTD SVG 1.1//EN"
 "http://www.w3.org/Graphics/SVG/1.1/DTD/svg11.dtd">
<!-- Generated by graphviz version 2.49.3 (20211027.1534)
 -->
<!-- Title: include/transform.h Pages: 1 -->
<svg width="468pt" height="218pt"
 viewBox="0.00 0.00 468.00 218.00" xmlns="http://www.w3.org/2000/svg" xmlns:xlink="http://www.w3.org/1999/xlink">
<g id="graph0" class="graph" transform="scale(1 1) rotate(0) translate(4 214)">
<title>include/transform.h</title>
<!-- Node1 -->
<g id="node1" class="node">
<title>Node1</title>
<g id="a_node1"><a xlink:title=" ">
<polygon fill="#bfbfbf" stroke="black" points="186.5,-190.5 186.5,-209.5 285.5,-209.5 285.5,-190.5 186.5,-190.5"/>
<text text-anchor="middle" x="236" y="-197.5" font-family="Helvetica,sans-Serif" font-size="10.00">include/transform.h</text>
</a>
</g>
</g>
<!-- Node2 -->
<g id="node2" class="node">
<title>Node2</title>
<g id="a_node2"><a xlink:href="harvest__areas_8h.html" target="_top" xlink:title=" ">
<polygon fill="none" stroke="black" points="48,-123.5 48,-153.5 158,-153.5 158,-123.5 48,-123.5"/>
<text text-anchor="start" x="56" y="-141.5" font-family="Helvetica,sans-Serif" font-size="10.00">include/FoodAuthority</text>
<text text-anchor="middle" x="103" y="-130.5" font-family="Helvetica,sans-Serif" font-size="10.00">/harvest_areas.h</text>
</a>
</g>
</g>
<!-- Node1&#45;&gt;Node2 -->
<g id="edge1" class="edge">
<title>Node1&#45;&gt;Node2</title>
<path fill="none" stroke="midnightblue" d="M207.68,-186.33C186.16,-176.7 156.58,-163.47 134.35,-153.52"/>
<polygon fill="midnightblue" stroke="midnightblue" points="206.39,-189.59 216.94,-190.48 209.25,-183.2 206.39,-189.59"/>
</g>
<!-- Node3 -->
<g id="node3" class="node">
<title>Node3</title>
<g id="a_node3"><a xlink:href="main_8h.html" target="_top" xlink:title=" ">
<polygon fill="none" stroke="black" points="146.5,-62 146.5,-81 225.5,-81 225.5,-62 146.5,-62"/>
<text text-anchor="middle" x="186" y="-69" font-family="Helvetica,sans-Serif" font-size="10.00">include/main.h</text>
</a>
</g>
</g>
<!-- Node1&#45;&gt;Node3 -->
<g id="edge8" class="edge">
<title>Node1&#45;&gt;Node3</title>
<path fill="none" stroke="midnightblue" d="M222.32,-182.38C216.23,-174.25 209.45,-164.07 205,-154 193.96,-129.02 188.89,-96.77 186.97,-81.41"/>
<polygon fill="midnightblue" stroke="midnightblue" points="219.59,-184.57 228.51,-190.29 225.11,-180.26 219.59,-184.57"/>
</g>
<!-- Node6 -->
<g id="node6" class="node">
<title>Node6</title>
<g id="a_node6"><a xlink:href="timeseries_8h.html" target="_top" xlink:title=" ">
<polygon fill="none" stroke="black" points="214.5,-129 214.5,-148 359.5,-148 359.5,-129 214.5,-129"/>
<text text-anchor="middle" x="287" y="-136" font-family="Helvetica,sans-Serif" font-size="10.00">include/IBM_EIS/timeseries.h</text>
</a>
</g>
</g>
<!-- Node1&#45;&gt;Node6 -->
<g id="edge5" class="edge">
<title>Node1&#45;&gt;Node6</title>
<path fill="none" stroke="midnightblue" d="M250,-182.67C259.61,-171.45 271.99,-157.02 279.71,-148.01"/>
<polygon fill="midnightblue" stroke="midnightblue" points="247.16,-180.6 243.31,-190.48 252.47,-185.16 247.16,-180.6"/>
</g>
<!-- Node8 -->
<g id="node8" class="node">
<title>Node8</title>
<g id="a_node8"><a xlink:href="transform_8c.html" target="_top" xlink:title=" ">
<polygon fill="none" stroke="black" points="378,-129 378,-148 460,-148 460,-129 378,-129"/>
<text text-anchor="middle" x="419" y="-136" font-family="Helvetica,sans-Serif" font-size="10.00">src/transform.c</text>
</a>
</g>
</g>
<!-- Node1&#45;&gt;Node8 -->
<g id="edge9" class="edge">
<title>Node1&#45;&gt;Node8</title>
<path fill="none" stroke="midnightblue" d="M271.74,-187.38C307.31,-175.82 361.05,-158.34 392.83,-148.01"/>
<polygon fill="midnightblue" stroke="midnightblue" points="270.65,-184.05 262.22,-190.48 272.81,-190.71 270.65,-184.05"/>
</g>
<!-- Node2&#45;&gt;Node3 -->
<g id="edge2" class="edge">
<title>Node2&#45;&gt;Node3</title>
<path fill="none" stroke="midnightblue" d="M129.17,-117.01C144.58,-104.94 163.26,-90.3 174.9,-81.19"/>
<polygon fill="midnightblue" stroke="midnightblue" points="126.72,-114.47 121.01,-123.4 131.04,-119.99 126.72,-114.47"/>
</g>
<!-- Node5 -->
<g id="node5" class="node">
<title>Node5</title>
<g id="a_node5"><a xlink:href="harvest__areas_8c.html" target="_top" xlink:title=" ">
<polygon fill="none" stroke="black" points="0,-56.5 0,-86.5 128,-86.5 128,-56.5 0,-56.5"/>
<text text-anchor="start" x="8" y="-74.5" font-family="Helvetica,sans-Serif" font-size="10.00">src/FoodAuthority/harvest</text>
<text text-anchor="middle" x="64" y="-63.5" font-family="Helvetica,sans-Serif" font-size="10.00">_areas.c</text>
</a>
</g>
</g>
<!-- Node2&#45;&gt;Node5 -->
<g id="edge4" class="edge">
<title>Node2&#45;&gt;Node5</title>
<path fill="none" stroke="midnightblue" d="M89.25,-114.58C83.64,-105.24 77.35,-94.75 72.45,-86.58"/>
<polygon fill="midnightblue" stroke="midnightblue" points="86.39,-116.62 94.54,-123.4 92.39,-113.02 86.39,-116.62"/>
</g>
<!-- Node4 -->
<g id="node4" class="node">
<title>Node4</title>
<g id="a_node4"><a xlink:href="main_8c.html" target="_top" xlink:title=" ">
<polygon fill="none" stroke="black" points="155,-0.5 155,-19.5 217,-19.5 217,-0.5 155,-0.5"/>
<text text-anchor="middle" x="186" y="-7.5" font-family="Helvetica,sans-Serif" font-size="10.00">src/main.c</text>
</a>
</g>
</g>
<!-- Node3&#45;&gt;Node4 -->
<g id="edge3" class="edge">
<title>Node3&#45;&gt;Node4</title>
<path fill="none" stroke="midnightblue" d="M186,-51.82C186,-41 186,-27.9 186,-19.51"/>
<polygon fill="midnightblue" stroke="midnightblue" points="182.5,-51.98 186,-61.98 189.5,-51.98 182.5,-51.98"/>
</g>
<!-- Node6&#45;&gt;Node3 -->
<g id="edge6" class="edge">
<title>Node6&#45;&gt;Node3</title>
<path fill="none" stroke="midnightblue" d="M264.89,-123.27C244.89,-110.4 216.11,-91.88 199.41,-81.13"/>
<polygon fill="midnightblue" stroke="midnightblue" points="263.08,-126.27 273.38,-128.73 266.86,-120.38 263.08,-126.27"/>
</g>
<!-- Node7 -->
<g id="node7" class="node">
<title>Node7</title>
<g id="a_node7"><a xlink:href="timeseries_8c.html" target="_top" xlink:title=" ">
<polygon fill="none" stroke="black" points="244,-62 244,-81 372,-81 372,-62 244,-62"/>
<text text-anchor="middle" x="308" y="-69" font-family="Helvetica,sans-Serif" font-size="10.00">src/IBM_EIS/timeseries.c</text>
</a>
</g>
</g>
<!-- Node6&#45;&gt;Node7 -->
<g id="edge7" class="edge">
<title>Node6&#45;&gt;Node7</title>
<path fill="none" stroke="midnightblue" d="M293,-118.91C297.02,-106.49 302.11,-90.72 305.21,-81.13"/>
<polygon fill="midnightblue" stroke="midnightblue" points="289.58,-118.14 289.83,-128.73 296.24,-120.29 289.58,-118.14"/>
</g>
</g>
</svg>
