<?xml version="1.0" encoding="UTF-8" standalone="no"?>
<!DOCTYPE svg PUBLIC "-//W3C//DTD SVG 1.1//EN"
 "http://www.w3.org/Graphics/SVG/1.1/DTD/svg11.dtd">
<!-- Generated by graphviz version 2.49.3 (20211027.1534)
 -->
<!-- Title: include/transform.h Pages: 1 -->
<svg width="1314pt" height="375pt"
 viewBox="0.00 0.00 1314.00 375.00" xmlns="http://www.w3.org/2000/svg" xmlns:xlink="http://www.w3.org/1999/xlink">
<g id="graph0" class="graph" transform="scale(1 1) rotate(0) translate(4 371)">
<title>include/transform.h</title>
<!-- Node1 -->
<g id="node1" class="node">
<title>Node1</title>
<g id="a_node1"><a xlink:title=" ">
<polygon fill="#bfbfbf" stroke="black" points="343.5,-347.5 343.5,-366.5 442.5,-366.5 442.5,-347.5 343.5,-347.5"/>
<text text-anchor="middle" x="393" y="-354.5" font-family="Helvetica,sans-Serif" font-size="10.00">include/transform.h</text>
</a>
</g>
</g>
<!-- Node2 -->
<g id="node2" class="node">
<title>Node2</title>
<g id="a_node2"><a xlink:title=" ">
<polygon fill="none" stroke="#bfbfbf" points="0,-291.5 0,-310.5 56,-310.5 56,-291.5 0,-291.5"/>
<text text-anchor="middle" x="28" y="-298.5" font-family="Helvetica,sans-Serif" font-size="10.00">libpq&#45;fe.h</text>
</a>
</g>
</g>
<!-- Node1&#45;&gt;Node2 -->
<g id="edge1" class="edge">
<title>Node1&#45;&gt;Node2</title>
<path fill="none" stroke="midnightblue" d="M343.3,-350.21C279.73,-342.55 166.32,-328.01 70,-311 68.76,-310.78 67.5,-310.55 66.23,-310.32"/>
<polygon fill="midnightblue" stroke="midnightblue" points="66.9,-306.88 56.41,-308.38 65.55,-313.75 66.9,-306.88"/>
</g>
<!-- Node3 -->
<g id="node3" class="node">
<title>Node3</title>
<g id="a_node3"><a xlink:title=" ">
<polygon fill="none" stroke="#bfbfbf" points="1207.5,-0.5 1207.5,-19.5 1252.5,-19.5 1252.5,-0.5 1207.5,-0.5"/>
<text text-anchor="middle" x="1230" y="-7.5" font-family="Helvetica,sans-Serif" font-size="10.00">stdio.h</text>
</a>
</g>
</g>
<!-- Node1&#45;&gt;Node3 -->
<g id="edge2" class="edge">
<title>Node1&#45;&gt;Node3</title>
<path fill="none" stroke="midnightblue" d="M442.74,-354.99C633.26,-350.46 1306,-328.27 1306,-240.5 1306,-240.5 1306,-240.5 1306,-121 1306,-81.28 1272.04,-45.5 1249.52,-26.15"/>
<polygon fill="midnightblue" stroke="midnightblue" points="1251.48,-23.24 1241.54,-19.57 1247.02,-28.63 1251.48,-23.24"/>
</g>
<!-- Node4 -->
<g id="node4" class="node">
<title>Node4</title>
<g id="a_node4"><a xlink:title=" ">
<polygon fill="none" stroke="#bfbfbf" points="1035.5,-56.5 1035.5,-75.5 1082.5,-75.5 1082.5,-56.5 1035.5,-56.5"/>
<text text-anchor="middle" x="1059" y="-63.5" font-family="Helvetica,sans-Serif" font-size="10.00">stdlib.h</text>
</a>
</g>
</g>
<!-- Node1&#45;&gt;Node4 -->
<g id="edge3" class="edge">
<title>Node1&#45;&gt;Node4</title>
<path fill="none" stroke="midnightblue" d="M442.54,-354.42C622.35,-348.02 1230,-320.49 1230,-240.5 1230,-240.5 1230,-240.5 1230,-177 1230,-112.41 1142.63,-83.95 1092.8,-72.98"/>
<polygon fill="midnightblue" stroke="midnightblue" points="1093.28,-69.5 1082.78,-70.89 1091.85,-76.36 1093.28,-69.5"/>
</g>
<!-- Node5 -->
<g id="node5" class="node">
<title>Node5</title>
<g id="a_node5"><a xlink:href="log_8h.html" target="_top" xlink:title=" ">
<polygon fill="none" stroke="black" points="327.5,-56.5 327.5,-75.5 364.5,-75.5 364.5,-56.5 327.5,-56.5"/>
<text text-anchor="middle" x="346" y="-63.5" font-family="Helvetica,sans-Serif" font-size="10.00">log.h</text>
</a>
</g>
</g>
<!-- Node1&#45;&gt;Node5 -->
<g id="edge4" class="edge">
<title>Node1&#45;&gt;Node5</title>
<path fill="none" stroke="midnightblue" d="M343.35,-348.02C256.01,-332.57 84,-295.19 84,-240.5 84,-240.5 84,-240.5 84,-177 84,-76.79 248.96,-66.35 317.09,-66.31"/>
<polygon fill="midnightblue" stroke="midnightblue" points="317.13,-69.82 327.16,-66.39 317.18,-62.82 317.13,-69.82"/>
</g>
<!-- Node9 -->
<g id="node9" class="node">
<title>Node9</title>
<g id="a_node9"><a xlink:href="stations_8h.html" target="_top" xlink:title=" ">
<polygon fill="none" stroke="black" points="190,-230 190,-249 274,-249 274,-230 190,-230"/>
<text text-anchor="middle" x="232" y="-237" font-family="Helvetica,sans-Serif" font-size="10.00">BOM/stations.h</text>
</a>
</g>
</g>
<!-- Node1&#45;&gt;Node9 -->
<g id="edge9" class="edge">
<title>Node1&#45;&gt;Node9</title>
<path fill="none" stroke="midnightblue" d="M379.51,-347.24C365.88,-338.31 344.28,-323.98 326,-311 299.72,-292.34 270.08,-269.86 251.23,-255.39"/>
<polygon fill="midnightblue" stroke="midnightblue" points="253.2,-252.49 243.15,-249.16 248.93,-258.03 253.2,-252.49"/>
</g>
<!-- Node16 -->
<g id="node16" class="node">
<title>Node16</title>
<g id="a_node16"><a xlink:href="utils_8h.html" target="_top" xlink:title=" ">
<polygon fill="none" stroke="black" points="514,-112.5 514,-131.5 556,-131.5 556,-112.5 514,-112.5"/>
<text text-anchor="middle" x="535" y="-119.5" font-family="Helvetica,sans-Serif" font-size="10.00">utils.h</text>
</a>
</g>
</g>
<!-- Node1&#45;&gt;Node16 -->
<g id="edge58" class="edge">
<title>Node1&#45;&gt;Node16</title>
<path fill="none" stroke="midnightblue" d="M389.09,-347.31C379.76,-325.18 358.58,-265.51 381,-224 407.04,-175.78 467.24,-146.86 504.18,-133.01"/>
<polygon fill="midnightblue" stroke="midnightblue" points="505.72,-136.17 513.94,-129.49 503.35,-129.59 505.72,-136.17"/>
</g>
<!-- Node21 -->
<g id="node21" class="node">
<title>Node21</title>
<g id="a_node21"><a xlink:href="harvest__area_8h.html" target="_top" xlink:title=" ">
<polygon fill="none" stroke="black" points="390,-224.5 390,-254.5 502,-254.5 502,-224.5 390,-224.5"/>
<text text-anchor="start" x="398" y="-242.5" font-family="Helvetica,sans-Serif" font-size="10.00">FoodAuthority/harvest</text>
<text text-anchor="middle" x="446" y="-231.5" font-family="Helvetica,sans-Serif" font-size="10.00">_area.h</text>
</a>
</g>
</g>
<!-- Node1&#45;&gt;Node21 -->
<g id="edge29" class="edge">
<title>Node1&#45;&gt;Node21</title>
<path fill="none" stroke="midnightblue" d="M396.98,-347.32C405.02,-329.81 423.4,-289.75 435.23,-263.97"/>
<polygon fill="midnightblue" stroke="midnightblue" points="438.57,-265.09 439.55,-254.55 432.2,-262.17 438.57,-265.09"/>
</g>
<!-- Node23 -->
<g id="node23" class="node">
<title>Node23</title>
<g id="a_node23"><a xlink:href="location_8h.html" target="_top" xlink:title=" ">
<polygon fill="none" stroke="black" points="715.5,-291.5 715.5,-310.5 832.5,-310.5 832.5,-291.5 715.5,-291.5"/>
<text text-anchor="middle" x="774" y="-298.5" font-family="Helvetica,sans-Serif" font-size="10.00">WillyWeather/location.h</text>
</a>
</g>
</g>
<!-- Node1&#45;&gt;Node23 -->
<g id="edge40" class="edge">
<title>Node1&#45;&gt;Node23</title>
<path fill="none" stroke="midnightblue" d="M442.81,-348.94C509.99,-339.42 629.9,-322.42 705.52,-311.71"/>
<polygon fill="midnightblue" stroke="midnightblue" points="706.02,-315.17 715.43,-310.3 705.04,-308.24 706.02,-315.17"/>
</g>
<!-- Node5&#45;&gt;Node3 -->
<g id="edge5" class="edge">
<title>Node5&#45;&gt;Node3</title>
<path fill="none" stroke="midnightblue" d="M364.5,-58.31C367.64,-57.4 370.89,-56.57 374,-56 536.28,-26.18 1059.67,-14.26 1196.84,-11.6"/>
<polygon fill="midnightblue" stroke="midnightblue" points="1197.19,-15.09 1207.12,-11.4 1197.05,-8.09 1197.19,-15.09"/>
</g>
<!-- Node6 -->
<g id="node6" class="node">
<title>Node6</title>
<g id="a_node6"><a xlink:title=" ">
<polygon fill="none" stroke="#bfbfbf" points="329.5,-0.5 329.5,-19.5 380.5,-19.5 380.5,-0.5 329.5,-0.5"/>
<text text-anchor="middle" x="355" y="-7.5" font-family="Helvetica,sans-Serif" font-size="10.00">stdarg.h</text>
</a>
</g>
</g>
<!-- Node5&#45;&gt;Node6 -->
<g id="edge6" class="edge">
<title>Node5&#45;&gt;Node6</title>
<path fill="none" stroke="midnightblue" d="M347.49,-56.08C348.68,-48.93 350.39,-38.64 351.88,-29.69"/>
<polygon fill="midnightblue" stroke="midnightblue" points="355.35,-30.19 353.54,-19.75 348.45,-29.04 355.35,-30.19"/>
</g>
<!-- Node7 -->
<g id="node7" class="node">
<title>Node7</title>
<g id="a_node7"><a xlink:title=" ">
<polygon fill="none" stroke="#bfbfbf" points="399,-0.5 399,-19.5 455,-19.5 455,-0.5 399,-0.5"/>
<text text-anchor="middle" x="427" y="-7.5" font-family="Helvetica,sans-Serif" font-size="10.00">stdbool.h</text>
</a>
</g>
</g>
<!-- Node5&#45;&gt;Node7 -->
<g id="edge7" class="edge">
<title>Node5&#45;&gt;Node7</title>
<path fill="none" stroke="midnightblue" d="M359.01,-56.32C371.53,-47.98 390.68,-35.21 405.47,-25.35"/>
<polygon fill="midnightblue" stroke="midnightblue" points="407.64,-28.11 414.02,-19.65 403.76,-22.29 407.64,-28.11"/>
</g>
<!-- Node8 -->
<g id="node8" class="node">
<title>Node8</title>
<g id="a_node8"><a xlink:title=" ">
<polygon fill="none" stroke="#bfbfbf" points="268.5,-0.5 268.5,-19.5 311.5,-19.5 311.5,-0.5 268.5,-0.5"/>
<text text-anchor="middle" x="290" y="-7.5" font-family="Helvetica,sans-Serif" font-size="10.00">time.h</text>
</a>
</g>
</g>
<!-- Node5&#45;&gt;Node8 -->
<g id="edge8" class="edge">
<title>Node5&#45;&gt;Node8</title>
<path fill="none" stroke="midnightblue" d="M337,-56.32C328.81,-48.42 316.49,-36.55 306.53,-26.94"/>
<polygon fill="midnightblue" stroke="midnightblue" points="308.79,-24.26 299.16,-19.83 303.93,-29.29 308.79,-24.26"/>
</g>
<!-- Node10 -->
<g id="node10" class="node">
<title>Node10</title>
<g id="a_node10"><a xlink:title=" ">
<polygon fill="none" stroke="#bfbfbf" points="383,-56.5 383,-75.5 429,-75.5 429,-56.5 383,-56.5"/>
<text text-anchor="middle" x="406" y="-63.5" font-family="Helvetica,sans-Serif" font-size="10.00">math.h</text>
</a>
</g>
</g>
<!-- Node9&#45;&gt;Node10 -->
<g id="edge10" class="edge">
<title>Node9&#45;&gt;Node10</title>
<path fill="none" stroke="midnightblue" d="M238.06,-229.82C247.84,-216.07 268.04,-188.71 288,-168 320.17,-134.63 362.34,-100.54 386.57,-81.74"/>
<polygon fill="midnightblue" stroke="midnightblue" points="388.85,-84.4 394.64,-75.53 384.58,-78.86 388.85,-84.4"/>
</g>
<!-- Node11 -->
<g id="node11" class="node">
<title>Node11</title>
<g id="a_node11"><a xlink:title=" ">
<polygon fill="none" stroke="#bfbfbf" points="150.5,-168.5 150.5,-187.5 197.5,-187.5 197.5,-168.5 150.5,-168.5"/>
<text text-anchor="middle" x="174" y="-175.5" font-family="Helvetica,sans-Serif" font-size="10.00">ctype.h</text>
</a>
</g>
</g>
<!-- Node9&#45;&gt;Node11 -->
<g id="edge11" class="edge">
<title>Node9&#45;&gt;Node11</title>
<path fill="none" stroke="midnightblue" d="M223.69,-229.98C214.82,-220.87 200.55,-206.24 189.58,-194.98"/>
<polygon fill="midnightblue" stroke="midnightblue" points="191.78,-192.23 182.29,-187.51 186.77,-197.11 191.78,-192.23"/>
</g>
<!-- Node12 -->
<g id="node12" class="node">
<title>Node12</title>
<g id="a_node12"><a xlink:href="ftp_8h.html" target="_top" xlink:title=" ">
<polygon fill="none" stroke="black" points="558.5,-168.5 558.5,-187.5 593.5,-187.5 593.5,-168.5 558.5,-168.5"/>
<text text-anchor="middle" x="576" y="-175.5" font-family="Helvetica,sans-Serif" font-size="10.00">ftp.h</text>
</a>
</g>
</g>
<!-- Node9&#45;&gt;Node12 -->
<g id="edge12" class="edge">
<title>Node9&#45;&gt;Node12</title>
<path fill="none" stroke="midnightblue" d="M274.18,-231.2C345.6,-218.85 488.43,-194.15 548.44,-183.77"/>
<polygon fill="midnightblue" stroke="midnightblue" points="549.06,-187.21 558.32,-182.06 547.87,-180.31 549.06,-187.21"/>
</g>
<!-- Node9&#45;&gt;Node16 -->
<g id="edge28" class="edge">
<title>Node9&#45;&gt;Node16</title>
<path fill="none" stroke="midnightblue" d="M240.99,-229.59C256.77,-214.47 291.11,-183.91 326,-168 385.34,-140.94 461.68,-129.83 503.73,-125.52"/>
<polygon fill="midnightblue" stroke="midnightblue" points="504.28,-128.98 513.9,-124.54 503.61,-122.01 504.28,-128.98"/>
</g>
<!-- Node12&#45;&gt;Node4 -->
<g id="edge13" class="edge">
<title>Node12&#45;&gt;Node4</title>
<path fill="none" stroke="midnightblue" d="M593.76,-172.95C665.04,-156.72 930.99,-96.15 1025.45,-74.64"/>
<polygon fill="midnightblue" stroke="midnightblue" points="1026.36,-78.02 1035.33,-72.39 1024.8,-71.2 1026.36,-78.02"/>
</g>
<!-- Node13 -->
<g id="node13" class="node">
<title>Node13</title>
<g id="a_node13"><a xlink:title=" ">
<polygon fill="none" stroke="#bfbfbf" points="916,-56.5 916,-75.5 964,-75.5 964,-56.5 916,-56.5"/>
<text text-anchor="middle" x="940" y="-63.5" font-family="Helvetica,sans-Serif" font-size="10.00">string.h</text>
</a>
</g>
</g>
<!-- Node12&#45;&gt;Node13 -->
<g id="edge14" class="edge">
<title>Node12&#45;&gt;Node13</title>
<path fill="none" stroke="midnightblue" d="M593.56,-171.69C650.39,-154.52 830.02,-100.24 905.77,-77.34"/>
<polygon fill="midnightblue" stroke="midnightblue" points="907.19,-80.57 915.75,-74.33 905.17,-73.87 907.19,-80.57"/>
</g>
<!-- Node14 -->
<g id="node14" class="node">
<title>Node14</title>
<g id="a_node14"><a xlink:title=" ">
<polygon fill="none" stroke="#bfbfbf" points="838.5,-56.5 838.5,-75.5 897.5,-75.5 897.5,-56.5 838.5,-56.5"/>
<text text-anchor="middle" x="868" y="-63.5" font-family="Helvetica,sans-Serif" font-size="10.00">curl/curl.h</text>
</a>
</g>
</g>
<!-- Node12&#45;&gt;Node14 -->
<g id="edge15" class="edge">
<title>Node12&#45;&gt;Node14</title>
<path fill="none" stroke="midnightblue" d="M587.68,-168.33C606.84,-154.5 646.57,-127.42 684,-112 687.39,-110.6 775.51,-89.28 828.55,-76.49"/>
<polygon fill="midnightblue" stroke="midnightblue" points="829.43,-79.88 838.34,-74.13 827.79,-73.07 829.43,-79.88"/>
</g>
<!-- Node15 -->
<g id="node15" class="node">
<title>Node15</title>
<g id="a_node15"><a xlink:title=" ">
<polygon fill="none" stroke="#bfbfbf" points="447,-56.5 447,-75.5 493,-75.5 493,-56.5 447,-56.5"/>
<text text-anchor="middle" x="470" y="-63.5" font-family="Helvetica,sans-Serif" font-size="10.00">errno.h</text>
</a>
</g>
</g>
<!-- Node12&#45;&gt;Node15 -->
<g id="edge16" class="edge">
<title>Node12&#45;&gt;Node15</title>
<path fill="none" stroke="midnightblue" d="M558.46,-169.09C542.9,-161.39 520.32,-148.45 505,-132 492.33,-118.4 482.78,-99.35 476.89,-85.38"/>
<polygon fill="midnightblue" stroke="midnightblue" points="480.05,-83.87 473.1,-75.88 473.55,-86.46 480.05,-83.87"/>
</g>
<!-- Node12&#45;&gt;Node16 -->
<g id="edge17" class="edge">
<title>Node12&#45;&gt;Node16</title>
<path fill="none" stroke="midnightblue" d="M569.23,-168.08C563.44,-160.46 554.94,-149.26 547.86,-139.94"/>
<polygon fill="midnightblue" stroke="midnightblue" points="550.48,-137.6 541.64,-131.75 544.9,-141.83 550.48,-137.6"/>
</g>
<!-- Node16&#45;&gt;Node4 -->
<g id="edge18" class="edge">
<title>Node16&#45;&gt;Node4</title>
<path fill="none" stroke="midnightblue" d="M556.42,-118.81C619.97,-112.33 812.95,-92.6 973,-76 990.11,-74.23 1009.13,-72.24 1024.92,-70.58"/>
<polygon fill="midnightblue" stroke="midnightblue" points="1025.69,-74.02 1035.27,-69.5 1024.96,-67.06 1025.69,-74.02"/>
</g>
<!-- Node16&#45;&gt;Node5 -->
<g id="edge27" class="edge">
<title>Node16&#45;&gt;Node5</title>
<path fill="none" stroke="midnightblue" d="M513.83,-115.36C484.66,-107.53 430.27,-92.72 374.36,-76.02"/>
<polygon fill="midnightblue" stroke="midnightblue" points="375.23,-72.63 364.64,-73.1 373.22,-79.33 375.23,-72.63"/>
</g>
<!-- Node16&#45;&gt;Node10 -->
<g id="edge26" class="edge">
<title>Node16&#45;&gt;Node10</title>
<path fill="none" stroke="midnightblue" d="M514.56,-112.44C493.33,-103.56 459.9,-89.56 435.75,-79.45"/>
<polygon fill="midnightblue" stroke="midnightblue" points="436.92,-76.15 426.34,-75.52 434.22,-82.61 436.92,-76.15"/>
</g>
<!-- Node16&#45;&gt;Node13 -->
<g id="edge19" class="edge">
<title>Node16&#45;&gt;Node13</title>
<path fill="none" stroke="midnightblue" d="M556.14,-119.53C611.85,-115.42 767.33,-102.5 905.99,-75.93"/>
<polygon fill="midnightblue" stroke="midnightblue" points="906.8,-79.34 915.95,-74 905.46,-72.47 906.8,-79.34"/>
</g>
<!-- Node16&#45;&gt;Node14 -->
<g id="edge20" class="edge">
<title>Node16&#45;&gt;Node14</title>
<path fill="none" stroke="midnightblue" d="M556.21,-118.37C603.36,-112.38 720.64,-96.8 828.14,-76.24"/>
<polygon fill="midnightblue" stroke="midnightblue" points="829.02,-79.64 838.18,-74.3 827.7,-72.77 829.02,-79.64"/>
</g>
<!-- Node16&#45;&gt;Node15 -->
<g id="edge25" class="edge">
<title>Node16&#45;&gt;Node15</title>
<path fill="none" stroke="midnightblue" d="M524.56,-112.32C514.85,-104.26 500.18,-92.08 488.5,-82.37"/>
<polygon fill="midnightblue" stroke="midnightblue" points="490.56,-79.53 480.63,-75.83 486.09,-84.92 490.56,-79.53"/>
</g>
<!-- Node17 -->
<g id="node17" class="node">
<title>Node17</title>
<g id="a_node17"><a xlink:title=" ">
<polygon fill="none" stroke="#bfbfbf" points="511,-56.5 511,-75.5 559,-75.5 559,-56.5 511,-56.5"/>
<text text-anchor="middle" x="535" y="-63.5" font-family="Helvetica,sans-Serif" font-size="10.00">stdint.h</text>
</a>
</g>
</g>
<!-- Node16&#45;&gt;Node17 -->
<g id="edge21" class="edge">
<title>Node16&#45;&gt;Node17</title>
<path fill="none" stroke="midnightblue" d="M535,-112.08C535,-105.01 535,-94.86 535,-85.99"/>
<polygon fill="midnightblue" stroke="midnightblue" points="538.5,-85.75 535,-75.75 531.5,-85.75 538.5,-85.75"/>
</g>
<!-- Node18 -->
<g id="node18" class="node">
<title>Node18</title>
<g id="a_node18"><a xlink:title=" ">
<polygon fill="none" stroke="#bfbfbf" points="737.5,-56.5 737.5,-75.5 820.5,-75.5 820.5,-56.5 737.5,-56.5"/>
<text text-anchor="middle" x="779" y="-63.5" font-family="Helvetica,sans-Serif" font-size="10.00">cjson/cJSON.h</text>
</a>
</g>
</g>
<!-- Node16&#45;&gt;Node18 -->
<g id="edge22" class="edge">
<title>Node16&#45;&gt;Node18</title>
<path fill="none" stroke="midnightblue" d="M556.07,-115.44C560.65,-114.27 565.48,-113.07 570,-112 623.51,-99.37 685.07,-86.29 727.45,-77.51"/>
<polygon fill="midnightblue" stroke="midnightblue" points="728.17,-80.93 737.25,-75.48 726.75,-74.08 728.17,-80.93"/>
</g>
<!-- Node19 -->
<g id="node19" class="node">
<title>Node19</title>
<g id="a_node19"><a xlink:title=" ">
<polygon fill="none" stroke="#bfbfbf" points="577.5,-56.5 577.5,-75.5 636.5,-75.5 636.5,-56.5 577.5,-56.5"/>
<text text-anchor="middle" x="607" y="-63.5" font-family="Helvetica,sans-Serif" font-size="10.00">sys/stat.h</text>
</a>
</g>
</g>
<!-- Node16&#45;&gt;Node19 -->
<g id="edge23" class="edge">
<title>Node16&#45;&gt;Node19</title>
<path fill="none" stroke="midnightblue" d="M546.57,-112.32C557.42,-104.18 573.88,-91.84 586.88,-82.09"/>
<polygon fill="midnightblue" stroke="midnightblue" points="589.32,-84.63 595.22,-75.83 585.12,-79.03 589.32,-84.63"/>
</g>
<!-- Node20 -->
<g id="node20" class="node">
<title>Node20</title>
<g id="a_node20"><a xlink:title=" ">
<polygon fill="none" stroke="#bfbfbf" points="654.5,-56.5 654.5,-75.5 719.5,-75.5 719.5,-56.5 654.5,-56.5"/>
<text text-anchor="middle" x="687" y="-63.5" font-family="Helvetica,sans-Serif" font-size="10.00">sys/types.h</text>
</a>
</g>
</g>
<!-- Node16&#45;&gt;Node20 -->
<g id="edge24" class="edge">
<title>Node16&#45;&gt;Node20</title>
<path fill="none" stroke="midnightblue" d="M556.13,-113.49C581.35,-104.53 623.8,-89.45 653.5,-78.9"/>
<polygon fill="midnightblue" stroke="midnightblue" points="654.79,-82.16 663.04,-75.51 652.45,-75.56 654.79,-82.16"/>
</g>
<!-- Node21&#45;&gt;Node5 -->
<g id="edge33" class="edge">
<title>Node21&#45;&gt;Node5</title>
<path fill="none" stroke="midnightblue" d="M437.82,-224.47C419.65,-193.3 375.98,-118.41 356.13,-84.37"/>
<polygon fill="midnightblue" stroke="midnightblue" points="359.05,-82.44 350.99,-75.56 353,-85.96 359.05,-82.44"/>
</g>
<!-- Node21&#45;&gt;Node8 -->
<g id="edge32" class="edge">
<title>Node21&#45;&gt;Node8</title>
<path fill="none" stroke="midnightblue" d="M432.66,-224.24C407.78,-197.09 353.68,-135.36 319,-76 310.15,-60.85 302.19,-42.5 296.86,-29.17"/>
<polygon fill="midnightblue" stroke="midnightblue" points="300.07,-27.76 293.18,-19.71 293.55,-30.3 300.07,-27.76"/>
</g>
<!-- Node21&#45;&gt;Node14 -->
<g id="edge30" class="edge">
<title>Node21&#45;&gt;Node14</title>
<path fill="none" stroke="midnightblue" d="M502.29,-225.44C536.88,-216.62 581.74,-203.72 620,-188 685.49,-161.09 696.13,-142.54 760,-112 785.11,-99.99 814.28,-87.95 835.97,-79.35"/>
<polygon fill="midnightblue" stroke="midnightblue" points="837.34,-82.57 845.37,-75.65 834.78,-76.05 837.34,-82.57"/>
</g>
<!-- Node21&#45;&gt;Node16 -->
<g id="edge39" class="edge">
<title>Node21&#45;&gt;Node16</title>
<path fill="none" stroke="midnightblue" d="M456.91,-224.34C473.39,-202.96 504.54,-162.53 522.11,-139.73"/>
<polygon fill="midnightblue" stroke="midnightblue" points="524.99,-141.73 528.32,-131.67 519.44,-137.45 524.99,-141.73"/>
</g>
<!-- Node21&#45;&gt;Node18 -->
<g id="edge31" class="edge">
<title>Node21&#45;&gt;Node18</title>
<path fill="none" stroke="midnightblue" d="M502.13,-235.74C536.86,-230.85 579.22,-218.47 603,-188 623.83,-161.31 586.46,-138.12 608,-112 615.77,-102.58 679.99,-87.47 727.46,-77.4"/>
<polygon fill="midnightblue" stroke="midnightblue" points="728.24,-80.81 737.3,-75.33 726.8,-73.96 728.24,-80.81"/>
</g>
<!-- Node22 -->
<g id="node22" class="node">
<title>Node22</title>
<g id="a_node22"><a xlink:href="http_8h.html" target="_top" xlink:title=" ">
<polygon fill="none" stroke="black" points="802.5,-168.5 802.5,-187.5 843.5,-187.5 843.5,-168.5 802.5,-168.5"/>
<text text-anchor="middle" x="823" y="-175.5" font-family="Helvetica,sans-Serif" font-size="10.00">http.h</text>
</a>
</g>
</g>
<!-- Node21&#45;&gt;Node22 -->
<g id="edge34" class="edge">
<title>Node21&#45;&gt;Node22</title>
<path fill="none" stroke="midnightblue" d="M502.03,-229.66C582.7,-216.93 728.8,-193.87 792.23,-183.86"/>
<polygon fill="midnightblue" stroke="midnightblue" points="793.05,-187.27 802.38,-182.25 791.96,-180.36 793.05,-187.27"/>
</g>
<!-- Node22&#45;&gt;Node4 -->
<g id="edge35" class="edge">
<title>Node22&#45;&gt;Node4</title>
<path fill="none" stroke="midnightblue" d="M841.52,-168.37C882.79,-149.13 982.52,-102.65 1031.26,-79.93"/>
<polygon fill="midnightblue" stroke="midnightblue" points="1032.98,-82.99 1040.57,-75.59 1030.03,-76.64 1032.98,-82.99"/>
</g>
<!-- Node22&#45;&gt;Node13 -->
<g id="edge36" class="edge">
<title>Node22&#45;&gt;Node13</title>
<path fill="none" stroke="midnightblue" d="M832.18,-168.37C851.83,-149.89 898.21,-106.29 923.25,-82.74"/>
<polygon fill="midnightblue" stroke="midnightblue" points="925.97,-84.99 930.86,-75.59 921.18,-79.89 925.97,-84.99"/>
</g>
<!-- Node22&#45;&gt;Node14 -->
<g id="edge37" class="edge">
<title>Node22&#45;&gt;Node14</title>
<path fill="none" stroke="midnightblue" d="M826.53,-168.37C833.86,-150.46 850.85,-108.92 860.66,-84.95"/>
<polygon fill="midnightblue" stroke="midnightblue" points="863.94,-86.17 864.49,-75.59 857.46,-83.52 863.94,-86.17"/>
</g>
<!-- Node22&#45;&gt;Node16 -->
<g id="edge38" class="edge">
<title>Node22&#45;&gt;Node16</title>
<path fill="none" stroke="midnightblue" d="M802.29,-173.12C752.4,-163.76 625.35,-139.94 566.19,-128.85"/>
<polygon fill="midnightblue" stroke="midnightblue" points="566.78,-125.4 556.3,-126.99 565.49,-132.28 566.78,-125.4"/>
</g>
<!-- Node23&#45;&gt;Node3 -->
<g id="edge43" class="edge">
<title>Node23&#45;&gt;Node3</title>
<path fill="none" stroke="midnightblue" d="M832.61,-297.93C963.46,-291.72 1268,-267.74 1268,-179 1268,-179 1268,-179 1268,-121 1268,-86.81 1251.4,-49.76 1240.14,-28.57"/>
<polygon fill="midnightblue" stroke="midnightblue" points="1243.18,-26.83 1235.28,-19.77 1237.05,-30.22 1243.18,-26.83"/>
</g>
<!-- Node23&#45;&gt;Node4 -->
<g id="edge42" class="edge">
<title>Node23&#45;&gt;Node4</title>
<path fill="none" stroke="midnightblue" d="M832.77,-297.84C901.34,-294.02 1008.82,-283.53 1036,-255 1080.4,-208.4 1070.35,-123.14 1063.16,-85.59"/>
<polygon fill="midnightblue" stroke="midnightblue" points="1066.53,-84.65 1061.08,-75.57 1059.68,-86.07 1066.53,-84.65"/>
</g>
<!-- Node23&#45;&gt;Node5 -->
<g id="edge47" class="edge">
<title>Node23&#45;&gt;Node5</title>
<path fill="none" stroke="midnightblue" d="M715.3,-298.59C574.47,-294.79 225.69,-282.66 181,-255 144.81,-232.6 118.52,-204.14 141,-168 179.98,-105.34 270.55,-80.41 317.15,-71.47"/>
<polygon fill="midnightblue" stroke="midnightblue" points="317.98,-74.88 327.2,-69.66 316.74,-67.99 317.98,-74.88"/>
</g>
<!-- Node23&#45;&gt;Node10 -->
<g id="edge44" class="edge">
<title>Node23&#45;&gt;Node10</title>
<path fill="none" stroke="midnightblue" d="M715.49,-297.52C611.4,-292.51 402.86,-279.5 381,-255 337.93,-206.71 375.72,-121.77 395.6,-84.91"/>
<polygon fill="midnightblue" stroke="midnightblue" points="398.84,-86.29 400.66,-75.86 392.73,-82.88 398.84,-86.29"/>
</g>
<!-- Node23&#45;&gt;Node13 -->
<g id="edge41" class="edge">
<title>Node23&#45;&gt;Node13</title>
<path fill="none" stroke="midnightblue" d="M832.61,-297.4C896.37,-293.19 992.26,-282.38 1015,-255 1035.99,-229.73 1042.93,-193.64 995,-112 987.61,-99.41 975.29,-88.84 964.19,-81.12"/>
<polygon fill="midnightblue" stroke="midnightblue" points="965.95,-78.08 955.66,-75.55 962.12,-83.95 965.95,-78.08"/>
</g>
<!-- Node23&#45;&gt;Node14 -->
<g id="edge46" class="edge">
<title>Node23&#45;&gt;Node14</title>
<path fill="none" stroke="midnightblue" d="M773.91,-291.28C773.97,-269.58 775.96,-211.71 794,-168 807.87,-134.39 835.2,-101.59 852.49,-82.88"/>
<polygon fill="midnightblue" stroke="midnightblue" points="855.09,-85.22 859.42,-75.55 850.01,-80.41 855.09,-85.22"/>
</g>
<!-- Node23&#45;&gt;Node16 -->
<g id="edge57" class="edge">
<title>Node23&#45;&gt;Node16</title>
<path fill="none" stroke="midnightblue" d="M729.62,-291.42C677.08,-278.71 591.5,-249.43 550,-188 540.78,-174.35 537.18,-155.82 535.79,-142.03"/>
<polygon fill="midnightblue" stroke="midnightblue" points="539.26,-141.51 535.08,-131.78 532.28,-141.99 539.26,-141.51"/>
</g>
<!-- Node23&#45;&gt;Node18 -->
<g id="edge45" class="edge">
<title>Node23&#45;&gt;Node18</title>
<path fill="none" stroke="midnightblue" d="M770.4,-291.22C766.94,-282.28 761.97,-267.94 760,-255 750.45,-192.17 747.39,-174.29 760,-112 761.89,-102.65 765.79,-92.83 769.57,-84.75"/>
<polygon fill="midnightblue" stroke="midnightblue" points="772.79,-86.14 774.12,-75.63 766.53,-83.01 772.79,-86.14"/>
</g>
<!-- Node23&#45;&gt;Node22 -->
<g id="edge56" class="edge">
<title>Node23&#45;&gt;Node22</title>
<path fill="none" stroke="midnightblue" d="M777.52,-291.3C785.47,-271.68 804.92,-223.64 815.63,-197.19"/>
<polygon fill="midnightblue" stroke="midnightblue" points="819,-198.21 819.51,-187.62 812.51,-195.58 819,-198.21"/>
</g>
<!-- Node24 -->
<g id="node24" class="node">
<title>Node24</title>
<g id="a_node24"><a xlink:href="_willy_weather_2authenticate_8h.html" target="_top" xlink:title=" ">
<polygon fill="none" stroke="black" points="868.5,-230 868.5,-249 1005.5,-249 1005.5,-230 868.5,-230"/>
<text text-anchor="middle" x="937" y="-237" font-family="Helvetica,sans-Serif" font-size="10.00">WillyWeather/authenticate.h</text>
</a>
</g>
</g>
<!-- Node23&#45;&gt;Node24 -->
<g id="edge48" class="edge">
<title>Node23&#45;&gt;Node24</title>
<path fill="none" stroke="midnightblue" d="M797.35,-291.48C825.31,-281.27 872.33,-264.11 903.99,-252.55"/>
<polygon fill="midnightblue" stroke="midnightblue" points="905.5,-255.73 913.69,-249.01 903.1,-249.15 905.5,-255.73"/>
</g>
<!-- Node24&#45;&gt;Node3 -->
<g id="edge51" class="edge">
<title>Node24&#45;&gt;Node3</title>
<path fill="none" stroke="midnightblue" d="M951.42,-229.85C967.32,-220.15 993.52,-203.72 1015,-188 1091.58,-131.97 1177.11,-57.82 1212.85,-26.26"/>
<polygon fill="midnightblue" stroke="midnightblue" points="1215.29,-28.78 1220.46,-19.53 1210.65,-23.53 1215.29,-28.78"/>
</g>
<!-- Node24&#45;&gt;Node4 -->
<g id="edge50" class="edge">
<title>Node24&#45;&gt;Node4</title>
<path fill="none" stroke="midnightblue" d="M949.28,-229.93C961.9,-220.67 981.56,-204.95 995,-188 1021.11,-155.07 1041.69,-109.9 1051.92,-85.11"/>
<polygon fill="midnightblue" stroke="midnightblue" points="1055.28,-86.13 1055.76,-75.55 1048.78,-83.52 1055.28,-86.13"/>
</g>
<!-- Node24&#45;&gt;Node5 -->
<g id="edge54" class="edge">
<title>Node24&#45;&gt;Node5</title>
<path fill="none" stroke="midnightblue" d="M868.33,-237.84C789.45,-235.21 657.11,-225 550,-188 476.04,-162.46 399.48,-108.17 364.93,-81.88"/>
<polygon fill="midnightblue" stroke="midnightblue" points="366.76,-78.87 356.71,-75.54 362.49,-84.42 366.76,-78.87"/>
</g>
<!-- Node24&#45;&gt;Node13 -->
<g id="edge49" class="edge">
<title>Node24&#45;&gt;Node13</title>
<path fill="none" stroke="midnightblue" d="M947.42,-229.71C957.45,-220.5 971.96,-205.03 978,-188 989.3,-156.17 989.6,-143.72 978,-112 973.94,-100.91 965.81,-90.67 958.11,-82.76"/>
<polygon fill="midnightblue" stroke="midnightblue" points="960.36,-80.07 950.71,-75.7 955.53,-85.14 960.36,-80.07"/>
</g>
<!-- Node24&#45;&gt;Node14 -->
<g id="edge53" class="edge">
<title>Node24&#45;&gt;Node14</title>
<path fill="none" stroke="midnightblue" d="M933.48,-229.76C922.69,-202.92 889.85,-121.32 875.2,-84.89"/>
<polygon fill="midnightblue" stroke="midnightblue" points="878.41,-83.49 871.43,-75.52 871.91,-86.1 878.41,-83.49"/>
</g>
<!-- Node24&#45;&gt;Node18 -->
<g id="edge52" class="edge">
<title>Node24&#45;&gt;Node18</title>
<path fill="none" stroke="midnightblue" d="M928.95,-229.76C903.8,-202.46 826.45,-118.5 793.79,-83.05"/>
<polygon fill="midnightblue" stroke="midnightblue" points="796.2,-80.5 786.85,-75.52 791.05,-85.25 796.2,-80.5"/>
</g>
<!-- Node24&#45;&gt;Node22 -->
<g id="edge55" class="edge">
<title>Node24&#45;&gt;Node22</title>
<path fill="none" stroke="midnightblue" d="M920.67,-229.98C901.79,-220.12 870.49,-203.79 848.42,-192.27"/>
<polygon fill="midnightblue" stroke="midnightblue" points="849.79,-189.03 839.3,-187.51 846.55,-195.24 849.79,-189.03"/>
</g>
</g>
</svg>
