<?xml version="1.0" encoding="UTF-8" standalone="no"?>
<!DOCTYPE svg PUBLIC "-//W3C//DTD SVG 1.1//EN"
 "http://www.w3.org/Graphics/SVG/1.1/DTD/svg11.dtd">
<!-- Generated by graphviz version 2.49.3 (20211027.1534)
 -->
<!-- Title: include/transform.h Pages: 1 -->
<svg width="601pt" height="218pt"
 viewBox="0.00 0.00 601.00 218.00" xmlns="http://www.w3.org/2000/svg" xmlns:xlink="http://www.w3.org/1999/xlink">
<g id="graph0" class="graph" transform="scale(1 1) rotate(0) translate(4 214)">
<title>include/transform.h</title>
<!-- Node1 -->
<g id="node1" class="node">
<title>Node1</title>
<g id="a_node1"><a xlink:title=" ">
<polygon fill="#bfbfbf" stroke="black" points="237.5,-190.5 237.5,-209.5 336.5,-209.5 336.5,-190.5 237.5,-190.5"/>
<text text-anchor="middle" x="287" y="-197.5" font-family="Helvetica,sans-Serif" font-size="10.00">include/transform.h</text>
</a>
</g>
</g>
<!-- Node2 -->
<g id="node2" class="node">
<title>Node2</title>
<g id="a_node2"><a xlink:href="historical__weather_8h.html" target="_top" xlink:title=" ">
<polygon fill="none" stroke="black" points="377.5,-123.5 377.5,-153.5 492.5,-153.5 492.5,-123.5 377.5,-123.5"/>
<text text-anchor="start" x="385.5" y="-141.5" font-family="Helvetica,sans-Serif" font-size="10.00">include/BOM/historical</text>
<text text-anchor="middle" x="435" y="-130.5" font-family="Helvetica,sans-Serif" font-size="10.00">_weather.h</text>
</a>
</g>
</g>
<!-- Node1&#45;&gt;Node2 -->
<g id="edge1" class="edge">
<title>Node1&#45;&gt;Node2</title>
<path fill="none" stroke="midnightblue" d="M317.55,-186.72C341.57,-177.06 375.05,-163.6 400.12,-153.52"/>
<polygon fill="midnightblue" stroke="midnightblue" points="316.18,-183.5 308.2,-190.48 318.79,-189.99 316.18,-183.5"/>
</g>
<!-- Node3 -->
<g id="node3" class="node">
<title>Node3</title>
<g id="a_node3"><a xlink:href="main_8h.html" target="_top" xlink:title=" ">
<polygon fill="none" stroke="black" points="146.5,-62 146.5,-81 225.5,-81 225.5,-62 146.5,-62"/>
<text text-anchor="middle" x="186" y="-69" font-family="Helvetica,sans-Serif" font-size="10.00">include/main.h</text>
</a>
</g>
</g>
<!-- Node1&#45;&gt;Node3 -->
<g id="edge11" class="edge">
<title>Node1&#45;&gt;Node3</title>
<path fill="none" stroke="midnightblue" d="M249.4,-186.33C233.51,-179.18 216.13,-168.68 205,-154 188.14,-131.78 185.88,-97.04 185.81,-81.07"/>
<polygon fill="midnightblue" stroke="midnightblue" points="248.46,-189.73 259.03,-190.36 251.15,-183.27 248.46,-189.73"/>
</g>
<!-- Node6 -->
<g id="node6" class="node">
<title>Node6</title>
<g id="a_node6"><a xlink:href="harvest__areas_8h.html" target="_top" xlink:title=" ">
<polygon fill="none" stroke="black" points="48,-123.5 48,-153.5 158,-153.5 158,-123.5 48,-123.5"/>
<text text-anchor="start" x="56" y="-141.5" font-family="Helvetica,sans-Serif" font-size="10.00">include/FoodAuthority</text>
<text text-anchor="middle" x="103" y="-130.5" font-family="Helvetica,sans-Serif" font-size="10.00">/harvest_areas.h</text>
</a>
</g>
</g>
<!-- Node1&#45;&gt;Node6 -->
<g id="edge5" class="edge">
<title>Node1&#45;&gt;Node6</title>
<path fill="none" stroke="midnightblue" d="M250.99,-187.36C221.01,-177.66 178.23,-163.83 146.37,-153.52"/>
<polygon fill="midnightblue" stroke="midnightblue" points="250.05,-190.73 260.64,-190.48 252.2,-184.07 250.05,-190.73"/>
</g>
<!-- Node8 -->
<g id="node8" class="node">
<title>Node8</title>
<g id="a_node8"><a xlink:href="timeseries_8h.html" target="_top" xlink:title=" ">
<polygon fill="none" stroke="black" points="214.5,-129 214.5,-148 359.5,-148 359.5,-129 214.5,-129"/>
<text text-anchor="middle" x="287" y="-136" font-family="Helvetica,sans-Serif" font-size="10.00">include/IBM_EIS/timeseries.h</text>
</a>
</g>
</g>
<!-- Node1&#45;&gt;Node8 -->
<g id="edge8" class="edge">
<title>Node1&#45;&gt;Node8</title>
<path fill="none" stroke="midnightblue" d="M287,-180.32C287,-169.5 287,-156.4 287,-148.01"/>
<polygon fill="midnightblue" stroke="midnightblue" points="283.5,-180.48 287,-190.48 290.5,-180.48 283.5,-180.48"/>
</g>
<!-- Node10 -->
<g id="node10" class="node">
<title>Node10</title>
<g id="a_node10"><a xlink:href="transform_8c.html" target="_top" xlink:title=" ">
<polygon fill="none" stroke="black" points="511,-129 511,-148 593,-148 593,-129 511,-129"/>
<text text-anchor="middle" x="552" y="-136" font-family="Helvetica,sans-Serif" font-size="10.00">src/transform.c</text>
</a>
</g>
</g>
<!-- Node1&#45;&gt;Node10 -->
<g id="edge12" class="edge">
<title>Node1&#45;&gt;Node10</title>
<path fill="none" stroke="midnightblue" d="M342.78,-188.53C386.33,-180.07 448.28,-167.39 502,-154 509.19,-152.21 516.91,-150.08 524.07,-148.01"/>
<polygon fill="midnightblue" stroke="midnightblue" points="342.1,-185.1 332.95,-190.43 343.43,-191.97 342.1,-185.1"/>
</g>
<!-- Node2&#45;&gt;Node3 -->
<g id="edge2" class="edge">
<title>Node2&#45;&gt;Node3</title>
<path fill="none" stroke="midnightblue" d="M366.95,-121.04C328.18,-111.48 278.75,-98.99 235,-87 228.24,-85.15 220.99,-83.06 214.19,-81.05"/>
<polygon fill="midnightblue" stroke="midnightblue" points="366.53,-124.54 377.07,-123.53 368.2,-117.74 366.53,-124.54"/>
</g>
<!-- Node5 -->
<g id="node5" class="node">
<title>Node5</title>
<g id="a_node5"><a xlink:href="historical__weather_8c.html" target="_top" xlink:title=" ">
<polygon fill="none" stroke="black" points="390,-56.5 390,-86.5 488,-86.5 488,-56.5 390,-56.5"/>
<text text-anchor="start" x="398" y="-74.5" font-family="Helvetica,sans-Serif" font-size="10.00">src/BOM/historical</text>
<text text-anchor="middle" x="439" y="-63.5" font-family="Helvetica,sans-Serif" font-size="10.00">_weather.c</text>
</a>
</g>
</g>
<!-- Node2&#45;&gt;Node5 -->
<g id="edge4" class="edge">
<title>Node2&#45;&gt;Node5</title>
<path fill="none" stroke="midnightblue" d="M436.48,-113.4C437.04,-104.37 437.65,-94.41 438.13,-86.58"/>
<polygon fill="midnightblue" stroke="midnightblue" points="432.99,-113.2 435.87,-123.4 439.98,-113.63 432.99,-113.2"/>
</g>
<!-- Node4 -->
<g id="node4" class="node">
<title>Node4</title>
<g id="a_node4"><a xlink:href="main_8c.html" target="_top" xlink:title=" ">
<polygon fill="none" stroke="black" points="155,-0.5 155,-19.5 217,-19.5 217,-0.5 155,-0.5"/>
<text text-anchor="middle" x="186" y="-7.5" font-family="Helvetica,sans-Serif" font-size="10.00">src/main.c</text>
</a>
</g>
</g>
<!-- Node3&#45;&gt;Node4 -->
<g id="edge3" class="edge">
<title>Node3&#45;&gt;Node4</title>
<path fill="none" stroke="midnightblue" d="M186,-51.82C186,-41 186,-27.9 186,-19.51"/>
<polygon fill="midnightblue" stroke="midnightblue" points="182.5,-51.98 186,-61.98 189.5,-51.98 182.5,-51.98"/>
</g>
<!-- Node6&#45;&gt;Node3 -->
<g id="edge6" class="edge">
<title>Node6&#45;&gt;Node3</title>
<path fill="none" stroke="midnightblue" d="M129.17,-117.01C144.58,-104.94 163.26,-90.3 174.9,-81.19"/>
<polygon fill="midnightblue" stroke="midnightblue" points="126.72,-114.47 121.01,-123.4 131.04,-119.99 126.72,-114.47"/>
</g>
<!-- Node7 -->
<g id="node7" class="node">
<title>Node7</title>
<g id="a_node7"><a xlink:href="harvest__areas_8c.html" target="_top" xlink:title=" ">
<polygon fill="none" stroke="black" points="0,-56.5 0,-86.5 128,-86.5 128,-56.5 0,-56.5"/>
<text text-anchor="start" x="8" y="-74.5" font-family="Helvetica,sans-Serif" font-size="10.00">src/FoodAuthority/harvest</text>
<text text-anchor="middle" x="64" y="-63.5" font-family="Helvetica,sans-Serif" font-size="10.00">_areas.c</text>
</a>
</g>
</g>
<!-- Node6&#45;&gt;Node7 -->
<g id="edge7" class="edge">
<title>Node6&#45;&gt;Node7</title>
<path fill="none" stroke="midnightblue" d="M89.25,-114.58C83.64,-105.24 77.35,-94.75 72.45,-86.58"/>
<polygon fill="midnightblue" stroke="midnightblue" points="86.39,-116.62 94.54,-123.4 92.39,-113.02 86.39,-116.62"/>
</g>
<!-- Node8&#45;&gt;Node3 -->
<g id="edge9" class="edge">
<title>Node8&#45;&gt;Node3</title>
<path fill="none" stroke="midnightblue" d="M264.89,-123.27C244.89,-110.4 216.11,-91.88 199.41,-81.13"/>
<polygon fill="midnightblue" stroke="midnightblue" points="263.08,-126.27 273.38,-128.73 266.86,-120.38 263.08,-126.27"/>
</g>
<!-- Node9 -->
<g id="node9" class="node">
<title>Node9</title>
<g id="a_node9"><a xlink:href="timeseries_8c.html" target="_top" xlink:title=" ">
<polygon fill="none" stroke="black" points="244,-62 244,-81 372,-81 372,-62 244,-62"/>
<text text-anchor="middle" x="308" y="-69" font-family="Helvetica,sans-Serif" font-size="10.00">src/IBM_EIS/timeseries.c</text>
</a>
</g>
</g>
<!-- Node8&#45;&gt;Node9 -->
<g id="edge10" class="edge">
<title>Node8&#45;&gt;Node9</title>
<path fill="none" stroke="midnightblue" d="M293,-118.91C297.02,-106.49 302.11,-90.72 305.21,-81.13"/>
<polygon fill="midnightblue" stroke="midnightblue" points="289.58,-118.14 289.83,-128.73 296.24,-120.29 289.58,-118.14"/>
</g>
</g>
</svg>
