<?xml version="1.0" encoding="UTF-8" standalone="no"?>
<!DOCTYPE svg PUBLIC "-//W3C//DTD SVG 1.1//EN"
 "http://www.w3.org/Graphics/SVG/1.1/DTD/svg11.dtd">
<!-- Generated by graphviz version 2.43.0 (0)
 -->
<!-- Title: include/transform.h Pages: 1 -->
<svg width="651pt" height="214pt"
 viewBox="0.00 0.00 651.00 214.00" xmlns="http://www.w3.org/2000/svg" xmlns:xlink="http://www.w3.org/1999/xlink">
<g id="graph0" class="graph" transform="scale(1 1) rotate(0) translate(4 210)">
<title>include/transform.h</title>
<!-- Node1 -->
<g id="node1" class="node">
<title>Node1</title>
<g id="a_node1"><a xlink:title=" ">
<polygon fill="#999999" stroke="#666666" points="368,-206 256,-206 256,-187 368,-187 368,-206"/>
<text text-anchor="middle" x="312" y="-194" font-family="Helvetica,sans-Serif" font-size="10.00">include/transform.h</text>
</a>
</g>
</g>
<!-- Node2 -->
<g id="node2" class="node">
<title>Node2</title>
<g id="a_node2"><a xlink:href="historical__weather_8h.html" target="_top" xlink:title=" ">
<polygon fill="white" stroke="#666666" points="535,-151 409,-151 409,-121 535,-121 535,-151"/>
<text text-anchor="start" x="417" y="-139" font-family="Helvetica,sans-Serif" font-size="10.00">include/BOM/historical</text>
<text text-anchor="middle" x="472" y="-128" font-family="Helvetica,sans-Serif" font-size="10.00">_weather.h</text>
</a>
</g>
</g>
<!-- Node1&#45;&gt;Node2 -->
<g id="edge1" class="edge">
<title>Node1&#45;&gt;Node2</title>
<path fill="none" stroke="#63b8ff" d="M344.94,-183.46C370.67,-174.05 406.48,-160.95 433.53,-151.06"/>
<polygon fill="#63b8ff" stroke="#63b8ff" points="343.46,-180.27 335.27,-186.99 345.86,-186.85 343.46,-180.27"/>
</g>
<!-- Node3 -->
<g id="node3" class="node">
<title>Node3</title>
<g id="a_node3"><a xlink:href="main_8h.html" target="_top" xlink:title=" ">
<polygon fill="white" stroke="#666666" points="249.5,-79.5 160.5,-79.5 160.5,-60.5 249.5,-60.5 249.5,-79.5"/>
<text text-anchor="middle" x="205" y="-67.5" font-family="Helvetica,sans-Serif" font-size="10.00">include/main.h</text>
</a>
</g>
</g>
<!-- Node1&#45;&gt;Node3 -->
<g id="edge11" class="edge">
<title>Node1&#45;&gt;Node3</title>
<path fill="none" stroke="#63b8ff" d="M270.69,-183.24C253.94,-176.3 235.79,-165.94 224,-151 207.11,-129.59 204.85,-95.6 204.79,-79.71"/>
<polygon fill="#63b8ff" stroke="#63b8ff" points="269.75,-186.62 280.34,-186.93 272.26,-180.09 269.75,-186.62"/>
</g>
<!-- Node6 -->
<g id="node6" class="node">
<title>Node6</title>
<g id="a_node6"><a xlink:href="harvest__areas_8h.html" target="_top" xlink:title=" ">
<polygon fill="white" stroke="#666666" points="176.5,-151 53.5,-151 53.5,-121 176.5,-121 176.5,-151"/>
<text text-anchor="start" x="61.5" y="-139" font-family="Helvetica,sans-Serif" font-size="10.00">include/FoodAuthority</text>
<text text-anchor="middle" x="115" y="-128" font-family="Helvetica,sans-Serif" font-size="10.00">/harvest_areas.h</text>
</a>
</g>
</g>
<!-- Node1&#45;&gt;Node6 -->
<g id="edge5" class="edge">
<title>Node1&#45;&gt;Node6</title>
<path fill="none" stroke="#63b8ff" d="M273.53,-184.08C241.72,-174.63 196.4,-161.17 162.36,-151.06"/>
<polygon fill="#63b8ff" stroke="#63b8ff" points="272.77,-187.5 283.35,-186.99 274.76,-180.79 272.77,-187.5"/>
</g>
<!-- Node8 -->
<g id="node8" class="node">
<title>Node8</title>
<g id="a_node8"><a xlink:href="timeseries_8h.html" target="_top" xlink:title=" ">
<polygon fill="white" stroke="#666666" points="391,-145.5 233,-145.5 233,-126.5 391,-126.5 391,-145.5"/>
<text text-anchor="middle" x="312" y="-133.5" font-family="Helvetica,sans-Serif" font-size="10.00">include/IBM_EIS/timeseries.h</text>
</a>
</g>
</g>
<!-- Node1&#45;&gt;Node8 -->
<g id="edge8" class="edge">
<title>Node1&#45;&gt;Node8</title>
<path fill="none" stroke="#63b8ff" d="M312,-176.66C312,-166.24 312,-153.8 312,-145.67"/>
<polygon fill="#63b8ff" stroke="#63b8ff" points="308.5,-176.87 312,-186.87 315.5,-176.87 308.5,-176.87"/>
</g>
<!-- Node10 -->
<g id="node10" class="node">
<title>Node10</title>
<g id="a_node10"><a xlink:href="transform_8c.html" target="_top" xlink:title=" ">
<polygon fill="white" stroke="#666666" points="643,-145.5 553,-145.5 553,-126.5 643,-126.5 643,-145.5"/>
<text text-anchor="middle" x="598" y="-133.5" font-family="Helvetica,sans-Serif" font-size="10.00">src/transform.c</text>
</a>
</g>
</g>
<!-- Node1&#45;&gt;Node10 -->
<g id="edge12" class="edge">
<title>Node1&#45;&gt;Node10</title>
<path fill="none" stroke="#63b8ff" d="M371.53,-185.17C418.52,-176.75 485.67,-164.14 544,-151 551.28,-149.36 559.06,-147.44 566.39,-145.56"/>
<polygon fill="#63b8ff" stroke="#63b8ff" points="370.75,-181.75 361.52,-186.95 371.98,-188.64 370.75,-181.75"/>
</g>
<!-- Node2&#45;&gt;Node3 -->
<g id="edge2" class="edge">
<title>Node2&#45;&gt;Node3</title>
<path fill="none" stroke="#63b8ff" d="M400.4,-118.63C359.03,-109.06 306.01,-96.61 259,-85 252.04,-83.28 244.59,-81.39 237.52,-79.56"/>
<polygon fill="#63b8ff" stroke="#63b8ff" points="399.86,-122.09 410.39,-120.93 401.44,-115.27 399.86,-122.09"/>
</g>
<!-- Node5 -->
<g id="node5" class="node">
<title>Node5</title>
<g id="a_node5"><a xlink:href="historical__weather_8c.html" target="_top" xlink:title=" ">
<polygon fill="white" stroke="#666666" points="527.5,-85 422.5,-85 422.5,-55 527.5,-55 527.5,-85"/>
<text text-anchor="start" x="430.5" y="-73" font-family="Helvetica,sans-Serif" font-size="10.00">src/BOM/historical</text>
<text text-anchor="middle" x="475" y="-62" font-family="Helvetica,sans-Serif" font-size="10.00">_weather.c</text>
</a>
</g>
</g>
<!-- Node2&#45;&gt;Node5 -->
<g id="edge4" class="edge">
<title>Node2&#45;&gt;Node5</title>
<path fill="none" stroke="#63b8ff" d="M473.15,-110.54C473.55,-101.96 473.99,-92.61 474.34,-85.16"/>
<polygon fill="#63b8ff" stroke="#63b8ff" points="469.64,-110.64 472.67,-120.8 476.63,-110.97 469.64,-110.64"/>
</g>
<!-- Node4 -->
<g id="node4" class="node">
<title>Node4</title>
<g id="a_node4"><a xlink:href="main_8c.html" target="_top" xlink:title=" ">
<polygon fill="white" stroke="#666666" points="238.5,-19 171.5,-19 171.5,0 238.5,0 238.5,-19"/>
<text text-anchor="middle" x="205" y="-7" font-family="Helvetica,sans-Serif" font-size="10.00">src/main.c</text>
</a>
</g>
</g>
<!-- Node3&#45;&gt;Node4 -->
<g id="edge3" class="edge">
<title>Node3&#45;&gt;Node4</title>
<path fill="none" stroke="#63b8ff" d="M205,-50.16C205,-39.74 205,-27.3 205,-19.17"/>
<polygon fill="#63b8ff" stroke="#63b8ff" points="201.5,-50.37 205,-60.37 208.5,-50.37 201.5,-50.37"/>
</g>
<!-- Node6&#45;&gt;Node3 -->
<g id="edge6" class="edge">
<title>Node6&#45;&gt;Node3</title>
<path fill="none" stroke="#63b8ff" d="M143.3,-114.87C159.96,-103.03 180.18,-88.65 192.82,-79.66"/>
<polygon fill="#63b8ff" stroke="#63b8ff" points="141.1,-112.15 134.97,-120.8 145.15,-117.85 141.1,-112.15"/>
</g>
<!-- Node7 -->
<g id="node7" class="node">
<title>Node7</title>
<g id="a_node7"><a xlink:href="harvest__areas_8c.html" target="_top" xlink:title=" ">
<polygon fill="white" stroke="#666666" points="142,-85 0,-85 0,-55 142,-55 142,-85"/>
<text text-anchor="start" x="8" y="-73" font-family="Helvetica,sans-Serif" font-size="10.00">src/FoodAuthority/harvest</text>
<text text-anchor="middle" x="71" y="-62" font-family="Helvetica,sans-Serif" font-size="10.00">_areas.c</text>
</a>
</g>
</g>
<!-- Node6&#45;&gt;Node7 -->
<g id="edge7" class="edge">
<title>Node6&#45;&gt;Node7</title>
<path fill="none" stroke="#63b8ff" d="M99.55,-112.53C93.29,-103.43 86.26,-93.19 80.74,-85.16"/>
<polygon fill="#63b8ff" stroke="#63b8ff" points="96.69,-114.54 105.23,-120.8 102.45,-110.57 96.69,-114.54"/>
</g>
<!-- Node8&#45;&gt;Node3 -->
<g id="edge9" class="edge">
<title>Node8&#45;&gt;Node3</title>
<path fill="none" stroke="#63b8ff" d="M288.91,-121.19C267.85,-108.59 237.39,-90.37 219.54,-79.7"/>
<polygon fill="#63b8ff" stroke="#63b8ff" points="287.19,-124.24 297.57,-126.37 290.78,-118.23 287.19,-124.24"/>
</g>
<!-- Node9 -->
<g id="node9" class="node">
<title>Node9</title>
<g id="a_node9"><a xlink:href="timeseries_8c.html" target="_top" xlink:title=" ">
<polygon fill="white" stroke="#666666" points="404,-79.5 268,-79.5 268,-60.5 404,-60.5 404,-79.5"/>
<text text-anchor="middle" x="336" y="-67.5" font-family="Helvetica,sans-Serif" font-size="10.00">src/IBM_EIS/timeseries.c</text>
</a>
</g>
</g>
<!-- Node8&#45;&gt;Node9 -->
<g id="edge10" class="edge">
<title>Node8&#45;&gt;Node9</title>
<path fill="none" stroke="#63b8ff" d="M318.82,-116.82C323.35,-104.74 329.1,-89.41 332.66,-79.91"/>
<polygon fill="#63b8ff" stroke="#63b8ff" points="315.47,-115.78 315.24,-126.37 322.03,-118.23 315.47,-115.78"/>
</g>
</g>
</svg>
