<?xml version="1.0" encoding="UTF-8" standalone="no"?>
<!DOCTYPE svg PUBLIC "-//W3C//DTD SVG 1.1//EN"
 "http://www.w3.org/Graphics/SVG/1.1/DTD/svg11.dtd">
<!-- Generated by graphviz version 2.43.0 (0)
 -->
<!-- Title: include/ubidots.h Pages: 1 -->
<svg width="316pt" height="140pt"
 viewBox="0.00 0.00 316.00 140.00" xmlns="http://www.w3.org/2000/svg" xmlns:xlink="http://www.w3.org/1999/xlink">
<g id="graph0" class="graph" transform="scale(1 1) rotate(0) translate(4 136)">
<title>include/ubidots.h</title>
<!-- Node1 -->
<g id="node1" class="node">
<title>Node1</title>
<g id="a_node1"><a xlink:title=" ">
<polygon fill="#bfbfbf" stroke="black" points="79.5,-112.5 79.5,-131.5 179.5,-131.5 179.5,-112.5 79.5,-112.5"/>
<text text-anchor="middle" x="129.5" y="-119.5" font-family="Helvetica,sans-Serif" font-size="10.00">include/ubidots.h</text>
</a>
</g>
</g>
<!-- Node2 -->
<g id="node2" class="node">
<title>Node2</title>
<g id="a_node2"><a xlink:title=" ">
<polygon fill="none" stroke="#bfbfbf" points="0,-0.5 0,-19.5 53,-19.5 53,-0.5 0,-0.5"/>
<text text-anchor="middle" x="26.5" y="-7.5" font-family="Helvetica,sans-Serif" font-size="10.00">string.h</text>
</a>
</g>
</g>
<!-- Node1&#45;&gt;Node2 -->
<g id="edge1" class="edge">
<title>Node1&#45;&gt;Node2</title>
<path fill="none" stroke="midnightblue" d="M121.42,-112.37C104.19,-93.97 63.65,-50.67 41.53,-27.05"/>
<polygon fill="midnightblue" stroke="midnightblue" points="43.93,-24.5 34.54,-19.59 38.82,-29.28 43.93,-24.5"/>
</g>
<!-- Node3 -->
<g id="node3" class="node">
<title>Node3</title>
<g id="a_node3"><a xlink:title=" ">
<polygon fill="none" stroke="#bfbfbf" points="71,-0.5 71,-19.5 136,-19.5 136,-0.5 71,-0.5"/>
<text text-anchor="middle" x="103.5" y="-7.5" font-family="Helvetica,sans-Serif" font-size="10.00">curl/curl.h</text>
</a>
</g>
</g>
<!-- Node1&#45;&gt;Node3 -->
<g id="edge2" class="edge">
<title>Node1&#45;&gt;Node3</title>
<path fill="none" stroke="midnightblue" d="M127.46,-112.37C123.26,-94.62 113.58,-53.67 107.9,-29.6"/>
<polygon fill="midnightblue" stroke="midnightblue" points="111.24,-28.52 105.53,-19.59 104.42,-30.13 111.24,-28.52"/>
</g>
<!-- Node4 -->
<g id="node4" class="node">
<title>Node4</title>
<g id="a_node4"><a xlink:title=" ">
<polygon fill="none" stroke="#bfbfbf" points="225,-0.5 225,-19.5 308,-19.5 308,-0.5 225,-0.5"/>
<text text-anchor="middle" x="266.5" y="-7.5" font-family="Helvetica,sans-Serif" font-size="10.00">cjson/cJSON.h</text>
</a>
</g>
</g>
<!-- Node1&#45;&gt;Node4 -->
<g id="edge3" class="edge">
<title>Node1&#45;&gt;Node4</title>
<path fill="none" stroke="midnightblue" d="M141.37,-112.18C153.37,-103.22 172.38,-88.85 188.5,-76 209.43,-59.31 232.98,-39.54 248.67,-26.23"/>
<polygon fill="midnightblue" stroke="midnightblue" points="251.17,-28.7 256.52,-19.55 246.63,-23.37 251.17,-28.7"/>
</g>
<!-- Node5 -->
<g id="node5" class="node">
<title>Node5</title>
<g id="a_node5"><a xlink:href="utils_8h.html" target="_top" xlink:title=" ">
<polygon fill="none" stroke="black" points="132,-56.5 132,-75.5 179,-75.5 179,-56.5 132,-56.5"/>
<text text-anchor="middle" x="155.5" y="-63.5" font-family="Helvetica,sans-Serif" font-size="10.00">utils.h</text>
</a>
</g>
</g>
<!-- Node1&#45;&gt;Node5 -->
<g id="edge4" class="edge">
<title>Node1&#45;&gt;Node5</title>
<path fill="none" stroke="midnightblue" d="M133.79,-112.08C137.35,-104.69 142.52,-93.95 146.92,-84.81"/>
<polygon fill="midnightblue" stroke="midnightblue" points="150.1,-86.28 151.29,-75.75 143.79,-83.24 150.1,-86.28"/>
</g>
<!-- Node5&#45;&gt;Node2 -->
<g id="edge6" class="edge">
<title>Node5&#45;&gt;Node2</title>
<path fill="none" stroke="midnightblue" d="M135.06,-56.44C113.83,-47.56 80.4,-33.56 56.25,-23.45"/>
<polygon fill="midnightblue" stroke="midnightblue" points="57.42,-20.15 46.84,-19.52 54.72,-26.61 57.42,-20.15"/>
</g>
<!-- Node5&#45;&gt;Node3 -->
<g id="edge7" class="edge">
<title>Node5&#45;&gt;Node3</title>
<path fill="none" stroke="midnightblue" d="M146.91,-56.08C139.34,-48.22 128.12,-36.57 118.99,-27.08"/>
<polygon fill="midnightblue" stroke="midnightblue" points="121.38,-24.53 111.93,-19.75 116.34,-29.38 121.38,-24.53"/>
</g>
<!-- Node5&#45;&gt;Node4 -->
<g id="edge8" class="edge">
<title>Node5&#45;&gt;Node4</title>
<path fill="none" stroke="midnightblue" d="M173.33,-56.32C191.22,-47.62 218.98,-34.12 239.55,-24.11"/>
<polygon fill="midnightblue" stroke="midnightblue" points="241.25,-27.18 248.71,-19.65 238.19,-20.88 241.25,-27.18"/>
</g>
<!-- Node6 -->
<g id="node6" class="node">
<title>Node6</title>
<g id="a_node6"><a xlink:title=" ">
<polygon fill="none" stroke="#bfbfbf" points="154,-0.5 154,-19.5 207,-19.5 207,-0.5 154,-0.5"/>
<text text-anchor="middle" x="180.5" y="-7.5" font-family="Helvetica,sans-Serif" font-size="10.00">stdlib.h</text>
</a>
</g>
</g>
<!-- Node5&#45;&gt;Node6 -->
<g id="edge5" class="edge">
<title>Node5&#45;&gt;Node6</title>
<path fill="none" stroke="midnightblue" d="M159.63,-56.08C163.01,-48.77 167.92,-38.18 172.12,-29.1"/>
<polygon fill="midnightblue" stroke="midnightblue" points="175.42,-30.3 176.45,-19.75 169.07,-27.36 175.42,-30.3"/>
</g>
</g>
</svg>
