<?xml version="1.0" encoding="UTF-8" standalone="no"?>
<!DOCTYPE svg PUBLIC "-//W3C//DTD SVG 1.1//EN"
 "http://www.w3.org/Graphics/SVG/1.1/DTD/svg11.dtd">
<!-- Generated by graphviz version 2.43.0 (0)
 -->
<!-- Title: include/ubidots.h Pages: 1 -->
<svg width="194pt" height="140pt"
 viewBox="0.00 0.00 193.50 140.00" xmlns="http://www.w3.org/2000/svg" xmlns:xlink="http://www.w3.org/1999/xlink">
<g id="graph0" class="graph" transform="scale(1 1) rotate(0) translate(4 136)">
<title>include/ubidots.h</title>
<!-- Node1 -->
<g id="node1" class="node">
<title>Node1</title>
<g id="a_node1"><a xlink:title=" ">
<polygon fill="#bfbfbf" stroke="black" points="45.5,-112.5 45.5,-131.5 145.5,-131.5 145.5,-112.5 45.5,-112.5"/>
<text text-anchor="middle" x="95.5" y="-119.5" font-family="Helvetica,sans-Serif" font-size="10.00">include/ubidots.h</text>
</a>
</g>
</g>
<!-- Node2 -->
<g id="node2" class="node">
<title>Node2</title>
<g id="a_node2"><a xlink:href="main_8h.html" target="_top" xlink:title=" ">
<polygon fill="none" stroke="black" points="0,-56.5 0,-75.5 89,-75.5 89,-56.5 0,-56.5"/>
<text text-anchor="middle" x="44.5" y="-63.5" font-family="Helvetica,sans-Serif" font-size="10.00">include/main.h</text>
</a>
</g>
</g>
<!-- Node1&#45;&gt;Node2 -->
<g id="edge1" class="edge">
<title>Node1&#45;&gt;Node2</title>
<path fill="none" stroke="midnightblue" d="M80.12,-104.72C71.13,-95.2 60.14,-83.56 52.76,-75.75"/>
<polygon fill="midnightblue" stroke="midnightblue" points="77.67,-107.22 87.08,-112.08 82.76,-102.41 77.67,-107.22"/>
</g>
<!-- Node4 -->
<g id="node4" class="node">
<title>Node4</title>
<g id="a_node4"><a xlink:href="ubidots_8c.html" target="_top" xlink:title=" ">
<polygon fill="none" stroke="black" points="107.5,-56.5 107.5,-75.5 185.5,-75.5 185.5,-56.5 107.5,-56.5"/>
<text text-anchor="middle" x="146.5" y="-63.5" font-family="Helvetica,sans-Serif" font-size="10.00">src/ubidots.c</text>
</a>
</g>
</g>
<!-- Node1&#45;&gt;Node4 -->
<g id="edge3" class="edge">
<title>Node1&#45;&gt;Node4</title>
<path fill="none" stroke="midnightblue" d="M110.88,-104.72C119.87,-95.2 130.86,-83.56 138.24,-75.75"/>
<polygon fill="midnightblue" stroke="midnightblue" points="108.24,-102.41 103.92,-112.08 113.33,-107.22 108.24,-102.41"/>
</g>
<!-- Node3 -->
<g id="node3" class="node">
<title>Node3</title>
<g id="a_node3"><a xlink:href="main_8c.html" target="_top" xlink:title=" ">
<polygon fill="none" stroke="black" points="11,-0.5 11,-19.5 78,-19.5 78,-0.5 11,-0.5"/>
<text text-anchor="middle" x="44.5" y="-7.5" font-family="Helvetica,sans-Serif" font-size="10.00">src/main.c</text>
</a>
</g>
</g>
<!-- Node2&#45;&gt;Node3 -->
<g id="edge2" class="edge">
<title>Node2&#45;&gt;Node3</title>
<path fill="none" stroke="midnightblue" d="M44.5,-45.8C44.5,-36.91 44.5,-26.78 44.5,-19.75"/>
<polygon fill="midnightblue" stroke="midnightblue" points="41,-46.08 44.5,-56.08 48,-46.08 41,-46.08"/>
</g>
</g>
</svg>
