<?xml version="1.0" encoding="UTF-8" standalone="no"?>
<!DOCTYPE svg PUBLIC "-//W3C//DTD SVG 1.1//EN"
 "http://www.w3.org/Graphics/SVG/1.1/DTD/svg11.dtd">
<!-- Generated by graphviz version 2.49.3 (20211027.1534)
 -->
<!-- Title: src/Ubidots/ubidots.c Pages: 1 -->
<svg width="525pt" height="196pt"
 viewBox="0.00 0.00 524.50 196.00" xmlns="http://www.w3.org/2000/svg" xmlns:xlink="http://www.w3.org/1999/xlink">
<g id="graph0" class="graph" transform="scale(1 1) rotate(0) translate(4 192)">
<title>src/Ubidots/ubidots.c</title>
<!-- Node1 -->
<g id="node1" class="node">
<title>Node1</title>
<g id="a_node1"><a xlink:title=" ">
<polygon fill="#bfbfbf" stroke="black" points="61.5,-168.5 61.5,-187.5 170.5,-187.5 170.5,-168.5 61.5,-168.5"/>
<text text-anchor="middle" x="116" y="-175.5" font-family="Helvetica,sans-Serif" font-size="10.00">src/Ubidots/ubidots.c</text>
</a>
</g>
</g>
<!-- Node2 -->
<g id="node2" class="node">
<title>Node2</title>
<g id="a_node2"><a xlink:href="ubidots_8h.html" target="_top" xlink:title=" ">
<polygon fill="none" stroke="black" points="70,-112.5 70,-131.5 162,-131.5 162,-112.5 70,-112.5"/>
<text text-anchor="middle" x="116" y="-119.5" font-family="Helvetica,sans-Serif" font-size="10.00">Ubidots/ubidots.h</text>
</a>
</g>
</g>
<!-- Node1&#45;&gt;Node2 -->
<g id="edge1" class="edge">
<title>Node1&#45;&gt;Node2</title>
<path fill="none" stroke="midnightblue" d="M116,-168.08C116,-161.01 116,-150.86 116,-141.99"/>
<polygon fill="midnightblue" stroke="midnightblue" points="119.5,-141.75 116,-131.75 112.5,-141.75 119.5,-141.75"/>
</g>
<!-- Node3 -->
<g id="node3" class="node">
<title>Node3</title>
<g id="a_node3"><a xlink:title=" ">
<polygon fill="none" stroke="#bfbfbf" points="0,-0.5 0,-19.5 48,-19.5 48,-0.5 0,-0.5"/>
<text text-anchor="middle" x="24" y="-7.5" font-family="Helvetica,sans-Serif" font-size="10.00">string.h</text>
</a>
</g>
</g>
<!-- Node2&#45;&gt;Node3 -->
<g id="edge2" class="edge">
<title>Node2&#45;&gt;Node3</title>
<path fill="none" stroke="midnightblue" d="M108.78,-112.37C93.46,-94.05 57.5,-51.05 37.68,-27.36"/>
<polygon fill="midnightblue" stroke="midnightblue" points="40.29,-25.02 31.19,-19.59 34.92,-29.51 40.29,-25.02"/>
</g>
<!-- Node4 -->
<g id="node4" class="node">
<title>Node4</title>
<g id="a_node4"><a xlink:title=" ">
<polygon fill="none" stroke="#bfbfbf" points="66.5,-0.5 66.5,-19.5 125.5,-19.5 125.5,-0.5 66.5,-0.5"/>
<text text-anchor="middle" x="96" y="-7.5" font-family="Helvetica,sans-Serif" font-size="10.00">curl/curl.h</text>
</a>
</g>
</g>
<!-- Node2&#45;&gt;Node4 -->
<g id="edge3" class="edge">
<title>Node2&#45;&gt;Node4</title>
<path fill="none" stroke="midnightblue" d="M114.43,-112.37C111.2,-94.62 103.76,-53.67 99.38,-29.6"/>
<polygon fill="midnightblue" stroke="midnightblue" points="102.79,-28.8 97.56,-19.59 95.91,-30.06 102.79,-28.8"/>
</g>
<!-- Node5 -->
<g id="node5" class="node">
<title>Node5</title>
<g id="a_node5"><a xlink:title=" ">
<polygon fill="none" stroke="#bfbfbf" points="143.5,-0.5 143.5,-19.5 226.5,-19.5 226.5,-0.5 143.5,-0.5"/>
<text text-anchor="middle" x="185" y="-7.5" font-family="Helvetica,sans-Serif" font-size="10.00">cjson/cJSON.h</text>
</a>
</g>
</g>
<!-- Node2&#45;&gt;Node5 -->
<g id="edge4" class="edge">
<title>Node2&#45;&gt;Node5</title>
<path fill="none" stroke="midnightblue" d="M121.41,-112.37C132.75,-94.3 159.17,-52.18 174.14,-28.31"/>
<polygon fill="midnightblue" stroke="midnightblue" points="177.26,-29.92 179.61,-19.59 171.33,-26.2 177.26,-29.92"/>
</g>
<!-- Node6 -->
<g id="node6" class="node">
<title>Node6</title>
<g id="a_node6"><a xlink:href="utils_8h.html" target="_top" xlink:title=" ">
<polygon fill="none" stroke="black" points="189,-56.5 189,-75.5 231,-75.5 231,-56.5 189,-56.5"/>
<text text-anchor="middle" x="210" y="-63.5" font-family="Helvetica,sans-Serif" font-size="10.00">utils.h</text>
</a>
</g>
</g>
<!-- Node2&#45;&gt;Node6 -->
<g id="edge5" class="edge">
<title>Node2&#45;&gt;Node6</title>
<path fill="none" stroke="midnightblue" d="M131.1,-112.32C145.9,-103.82 168.69,-90.73 185.98,-80.8"/>
<polygon fill="midnightblue" stroke="midnightblue" points="188.01,-83.67 194.93,-75.65 184.52,-77.6 188.01,-83.67"/>
</g>
<!-- Node6&#45;&gt;Node3 -->
<g id="edge7" class="edge">
<title>Node6&#45;&gt;Node3</title>
<path fill="none" stroke="midnightblue" d="M188.66,-58.81C156.6,-49.5 95.71,-31.82 57.64,-20.77"/>
<polygon fill="midnightblue" stroke="midnightblue" points="58.59,-17.4 48.01,-17.97 56.64,-24.12 58.59,-17.4"/>
</g>
<!-- Node6&#45;&gt;Node4 -->
<g id="edge8" class="edge">
<title>Node6&#45;&gt;Node4</title>
<path fill="none" stroke="midnightblue" d="M191.94,-56.44C173.43,-47.68 144.42,-33.94 123.14,-23.86"/>
<polygon fill="midnightblue" stroke="midnightblue" points="124.51,-20.63 113.98,-19.52 121.52,-26.96 124.51,-20.63"/>
</g>
<!-- Node6&#45;&gt;Node5 -->
<g id="edge9" class="edge">
<title>Node6&#45;&gt;Node5</title>
<path fill="none" stroke="midnightblue" d="M205.87,-56.08C202.49,-48.77 197.58,-38.18 193.38,-29.1"/>
<polygon fill="midnightblue" stroke="midnightblue" points="196.43,-27.36 189.05,-19.75 190.08,-30.3 196.43,-27.36"/>
</g>
<!-- Node7 -->
<g id="node7" class="node">
<title>Node7</title>
<g id="a_node7"><a xlink:title=" ">
<polygon fill="none" stroke="#bfbfbf" points="469.5,-0.5 469.5,-19.5 516.5,-19.5 516.5,-0.5 469.5,-0.5"/>
<text text-anchor="middle" x="493" y="-7.5" font-family="Helvetica,sans-Serif" font-size="10.00">stdlib.h</text>
</a>
</g>
</g>
<!-- Node6&#45;&gt;Node7 -->
<g id="edge6" class="edge">
<title>Node6&#45;&gt;Node7</title>
<path fill="none" stroke="midnightblue" d="M231.2,-61.83C272.93,-55.46 368.84,-40.13 459.4,-19.96"/>
<polygon fill="midnightblue" stroke="midnightblue" points="460.28,-23.35 469.27,-17.74 458.75,-16.52 460.28,-23.35"/>
</g>
<!-- Node8 -->
<g id="node8" class="node">
<title>Node8</title>
<g id="a_node8"><a xlink:title=" ">
<polygon fill="none" stroke="#bfbfbf" points="244.5,-0.5 244.5,-19.5 303.5,-19.5 303.5,-0.5 244.5,-0.5"/>
<text text-anchor="middle" x="274" y="-7.5" font-family="Helvetica,sans-Serif" font-size="10.00">sys/stat.h</text>
</a>
</g>
</g>
<!-- Node6&#45;&gt;Node8 -->
<g id="edge10" class="edge">
<title>Node6&#45;&gt;Node8</title>
<path fill="none" stroke="midnightblue" d="M220.28,-56.32C229.84,-48.26 244.28,-36.08 255.78,-26.37"/>
<polygon fill="midnightblue" stroke="midnightblue" points="258.14,-28.96 263.53,-19.83 253.63,-23.61 258.14,-28.96"/>
</g>
<!-- Node9 -->
<g id="node9" class="node">
<title>Node9</title>
<g id="a_node9"><a xlink:title=" ">
<polygon fill="none" stroke="#bfbfbf" points="321.5,-0.5 321.5,-19.5 386.5,-19.5 386.5,-0.5 321.5,-0.5"/>
<text text-anchor="middle" x="354" y="-7.5" font-family="Helvetica,sans-Serif" font-size="10.00">sys/types.h</text>
</a>
</g>
</g>
<!-- Node6&#45;&gt;Node9 -->
<g id="edge11" class="edge">
<title>Node6&#45;&gt;Node9</title>
<path fill="none" stroke="midnightblue" d="M231.25,-57.03C255.08,-48.1 294,-33.5 321.62,-23.14"/>
<polygon fill="midnightblue" stroke="midnightblue" points="323.1,-26.32 331.24,-19.54 320.65,-19.77 323.1,-26.32"/>
</g>
<!-- Node10 -->
<g id="node10" class="node">
<title>Node10</title>
<g id="a_node10"><a xlink:title=" ">
<polygon fill="none" stroke="#bfbfbf" points="405,-0.5 405,-19.5 451,-19.5 451,-0.5 405,-0.5"/>
<text text-anchor="middle" x="428" y="-7.5" font-family="Helvetica,sans-Serif" font-size="10.00">errno.h</text>
</a>
</g>
</g>
<!-- Node6&#45;&gt;Node10 -->
<g id="edge12" class="edge">
<title>Node6&#45;&gt;Node10</title>
<path fill="none" stroke="midnightblue" d="M231.26,-60.12C264.19,-52.52 329.72,-37.15 394.92,-20.21"/>
<polygon fill="midnightblue" stroke="midnightblue" points="396.16,-23.5 404.96,-17.59 394.4,-16.73 396.16,-23.5"/>
</g>
</g>
</svg>
