<?xml version="1.0" encoding="UTF-8" standalone="no"?>
<!DOCTYPE svg PUBLIC "-//W3C//DTD SVG 1.1//EN"
 "http://www.w3.org/Graphics/SVG/1.1/DTD/svg11.dtd">
<!-- Generated by graphviz version 2.49.3 (20211027.1534)
 -->
<!-- Title: include/utils.h Pages: 1 -->
<svg width="1910pt" height="408pt"
 viewBox="0.00 0.00 1910.00 408.00" xmlns="http://www.w3.org/2000/svg" xmlns:xlink="http://www.w3.org/1999/xlink">
<g id="graph0" class="graph" transform="scale(1 1) rotate(0) translate(4 404)">
<title>include/utils.h</title>
<!-- Node1 -->
<g id="node1" class="node">
<title>Node1</title>
<g id="a_node1"><a xlink:title=" ">
<polygon fill="#bfbfbf" stroke="black" points="944.5,-380.5 944.5,-399.5 1020.5,-399.5 1020.5,-380.5 944.5,-380.5"/>
<text text-anchor="middle" x="982.5" y="-387.5" font-family="Helvetica,sans-Serif" font-size="10.00">include/utils.h</text>
</a>
</g>
</g>
<!-- Node2 -->
<g id="node2" class="node">
<title>Node2</title>
<g id="a_node2"><a xlink:href="stations_8h.html" target="_top" xlink:title=" ">
<polygon fill="none" stroke="black" points="84.5,-196 84.5,-215 202.5,-215 202.5,-196 84.5,-196"/>
<text text-anchor="middle" x="143.5" y="-203" font-family="Helvetica,sans-Serif" font-size="10.00">include/BOM/stations.h</text>
</a>
</g>
</g>
<!-- Node1&#45;&gt;Node2 -->
<g id="edge1" class="edge">
<title>Node1&#45;&gt;Node2</title>
<path fill="none" stroke="midnightblue" d="M934.08,-389.07C796.99,-388.75 408.43,-384.23 288.5,-344 245.61,-329.61 236.31,-319.15 203.5,-288 179.16,-264.9 157.74,-230.9 148.43,-215.13"/>
<polygon fill="midnightblue" stroke="midnightblue" points="934.26,-392.57 944.27,-389.08 934.27,-385.57 934.26,-392.57"/>
</g>
<!-- Node7 -->
<g id="node7" class="node">
<title>Node7</title>
<g id="a_node7"><a xlink:href="harvest__areas_8h.html" target="_top" xlink:title=" ">
<polygon fill="none" stroke="black" points="375.5,-123.5 375.5,-153.5 485.5,-153.5 485.5,-123.5 375.5,-123.5"/>
<text text-anchor="start" x="383.5" y="-141.5" font-family="Helvetica,sans-Serif" font-size="10.00">include/FoodAuthority</text>
<text text-anchor="middle" x="430.5" y="-130.5" font-family="Helvetica,sans-Serif" font-size="10.00">/harvest_areas.h</text>
</a>
</g>
</g>
<!-- Node1&#45;&gt;Node7 -->
<g id="edge15" class="edge">
<title>Node1&#45;&gt;Node7</title>
<path fill="none" stroke="midnightblue" d="M934.28,-389.6C836.82,-388.79 612.01,-376.61 451.5,-288 415.18,-267.95 402.09,-259.45 386.5,-221 381.32,-208.23 381.67,-202.9 386.5,-190 391.8,-175.84 403.07,-163.04 412.87,-153.87"/>
<polygon fill="midnightblue" stroke="midnightblue" points="934.4,-393.1 944.42,-389.64 934.43,-386.1 934.4,-393.1"/>
</g>
<!-- Node10 -->
<g id="node10" class="node">
<title>Node10</title>
<g id="a_node10"><a xlink:href="harvest__area_8h.html" target="_top" xlink:title=" ">
<polygon fill="none" stroke="black" points="460.5,-257.5 460.5,-287.5 570.5,-287.5 570.5,-257.5 460.5,-257.5"/>
<text text-anchor="start" x="468.5" y="-275.5" font-family="Helvetica,sans-Serif" font-size="10.00">include/FoodAuthority</text>
<text text-anchor="middle" x="515.5" y="-264.5" font-family="Helvetica,sans-Serif" font-size="10.00">/harvest_area.h</text>
</a>
</g>
</g>
<!-- Node1&#45;&gt;Node10 -->
<g id="edge11" class="edge">
<title>Node1&#45;&gt;Node10</title>
<path fill="none" stroke="midnightblue" d="M937.84,-377.95C852.05,-356.74 664.44,-310.34 570.87,-287.19"/>
<polygon fill="midnightblue" stroke="midnightblue" points="937.23,-381.41 947.78,-380.41 938.91,-374.61 937.23,-381.41"/>
</g>
<!-- Node12 -->
<g id="node12" class="node">
<title>Node12</title>
<g id="a_node12"><a xlink:href="_i_b_m___e_i_s_2authenticate_8h.html" target="_top" xlink:title=" ">
<polygon fill="none" stroke="black" points="735,-263 735,-282 888,-282 888,-263 735,-263"/>
<text text-anchor="middle" x="811.5" y="-270" font-family="Helvetica,sans-Serif" font-size="10.00">include/IBM_EIS/authenticate.h</text>
</a>
</g>
</g>
<!-- Node1&#45;&gt;Node12 -->
<g id="edge16" class="edge">
<title>Node1&#45;&gt;Node12</title>
<path fill="none" stroke="midnightblue" d="M956.29,-375.51C940.39,-367.03 919.87,-355.53 902.5,-344 871.69,-323.56 837.89,-295.85 821.51,-282.04"/>
<polygon fill="midnightblue" stroke="midnightblue" points="955.05,-378.82 965.53,-380.38 958.31,-372.63 955.05,-378.82"/>
</g>
<!-- Node13 -->
<g id="node13" class="node">
<title>Node13</title>
<g id="a_node13"><a xlink:href="timeseries_8h.html" target="_top" xlink:title=" ">
<polygon fill="none" stroke="black" points="819,-196 819,-215 964,-215 964,-196 819,-196"/>
<text text-anchor="middle" x="891.5" y="-203" font-family="Helvetica,sans-Serif" font-size="10.00">include/IBM_EIS/timeseries.h</text>
</a>
</g>
</g>
<!-- Node1&#45;&gt;Node13 -->
<g id="edge22" class="edge">
<title>Node1&#45;&gt;Node13</title>
<path fill="none" stroke="midnightblue" d="M973.63,-371.21C954.49,-332.83 909.93,-243.45 895.85,-215.21"/>
<polygon fill="midnightblue" stroke="midnightblue" points="970.52,-372.81 978.11,-380.2 976.78,-369.69 970.52,-372.81"/>
</g>
<!-- Node16 -->
<g id="node16" class="node">
<title>Node16</title>
<g id="a_node16"><a xlink:href="devices_8h.html" target="_top" xlink:title=" ">
<polygon fill="none" stroke="black" points="1170.5,-196 1170.5,-215 1298.5,-215 1298.5,-196 1170.5,-196"/>
<text text-anchor="middle" x="1234.5" y="-203" font-family="Helvetica,sans-Serif" font-size="10.00">include/Ubidots/devices.h</text>
</a>
</g>
</g>
<!-- Node1&#45;&gt;Node16 -->
<g id="edge23" class="edge">
<title>Node1&#45;&gt;Node16</title>
<path fill="none" stroke="midnightblue" d="M1030.98,-388.03C1097.74,-383.76 1215.88,-365.03 1270.5,-288 1287.5,-264.03 1259.43,-230.74 1243.83,-215.18"/>
<polygon fill="midnightblue" stroke="midnightblue" points="1030.52,-384.55 1020.73,-388.6 1030.9,-391.54 1030.52,-384.55"/>
</g>
<!-- Node18 -->
<g id="node18" class="node">
<title>Node18</title>
<g id="a_node18"><a xlink:href="location_8h.html" target="_top" xlink:title=" ">
<polygon fill="none" stroke="black" points="1603,-190.5 1603,-220.5 1710,-220.5 1710,-190.5 1603,-190.5"/>
<text text-anchor="start" x="1611" y="-208.5" font-family="Helvetica,sans-Serif" font-size="10.00">include/WillyWeather</text>
<text text-anchor="middle" x="1656.5" y="-197.5" font-family="Helvetica,sans-Serif" font-size="10.00">/location.h</text>
</a>
</g>
</g>
<!-- Node1&#45;&gt;Node18 -->
<g id="edge26" class="edge">
<title>Node1&#45;&gt;Node18</title>
<path fill="none" stroke="midnightblue" d="M1030.83,-387.15C1162.99,-381.21 1526.7,-358.68 1619.5,-288 1641.26,-271.43 1650.59,-239.12 1654.29,-220.55"/>
<polygon fill="midnightblue" stroke="midnightblue" points="1030.45,-383.67 1020.62,-387.6 1030.76,-390.66 1030.45,-383.67"/>
</g>
<!-- Node19 -->
<g id="node19" class="node">
<title>Node19</title>
<g id="a_node19"><a xlink:href="precipitation_8h.html" target="_top" xlink:title=" ">
<polygon fill="none" stroke="black" points="1751,-123.5 1751,-153.5 1858,-153.5 1858,-123.5 1751,-123.5"/>
<text text-anchor="start" x="1759" y="-141.5" font-family="Helvetica,sans-Serif" font-size="10.00">include/WillyWeather</text>
<text text-anchor="middle" x="1804.5" y="-130.5" font-family="Helvetica,sans-Serif" font-size="10.00">/precipitation.h</text>
</a>
</g>
</g>
<!-- Node1&#45;&gt;Node19 -->
<g id="edge35" class="edge">
<title>Node1&#45;&gt;Node19</title>
<path fill="none" stroke="midnightblue" d="M1030.78,-387.18C1151.1,-382.34 1461.88,-367.85 1562.5,-344 1626.51,-328.83 1646.23,-326.59 1699.5,-288 1731.16,-265.06 1733.83,-252.85 1756.5,-221 1772.59,-198.39 1788.36,-170.11 1797.21,-153.51"/>
<polygon fill="midnightblue" stroke="midnightblue" points="1030.6,-383.69 1020.75,-387.58 1030.88,-390.68 1030.6,-383.69"/>
</g>
<!-- Node21 -->
<g id="node21" class="node">
<title>Node21</title>
<g id="a_node21"><a xlink:href="tide_8h.html" target="_top" xlink:title=" ">
<polygon fill="none" stroke="black" points="1473,-123.5 1473,-153.5 1580,-153.5 1580,-123.5 1473,-123.5"/>
<text text-anchor="start" x="1481" y="-141.5" font-family="Helvetica,sans-Serif" font-size="10.00">include/WillyWeather</text>
<text text-anchor="middle" x="1526.5" y="-130.5" font-family="Helvetica,sans-Serif" font-size="10.00">/tide.h</text>
</a>
</g>
</g>
<!-- Node1&#45;&gt;Node21 -->
<g id="edge36" class="edge">
<title>Node1&#45;&gt;Node21</title>
<path fill="none" stroke="midnightblue" d="M1030.76,-389.59C1123.91,-389.69 1334.37,-384.87 1505.5,-344 1612.2,-318.52 1674.68,-321.13 1719.5,-221 1725.13,-208.42 1727.92,-200.91 1719.5,-190 1715.12,-184.33 1635.74,-164.88 1580.16,-151.84"/>
<polygon fill="midnightblue" stroke="midnightblue" points="1030.54,-386.09 1020.53,-389.56 1030.52,-393.09 1030.54,-386.09"/>
</g>
<!-- Node24 -->
<g id="node24" class="node">
<title>Node24</title>
<g id="a_node24"><a xlink:href="ftp_8h.html" target="_top" xlink:title=" ">
<polygon fill="none" stroke="black" points="212,-263 212,-282 281,-282 281,-263 212,-263"/>
<text text-anchor="middle" x="246.5" y="-270" font-family="Helvetica,sans-Serif" font-size="10.00">include/ftp.h</text>
</a>
</g>
</g>
<!-- Node1&#45;&gt;Node24 -->
<g id="edge37" class="edge">
<title>Node1&#45;&gt;Node24</title>
<path fill="none" stroke="midnightblue" d="M934.24,-387.52C791.88,-382.9 380.15,-367.63 324.5,-344 292.41,-330.37 264.79,-297.84 252.83,-282.19"/>
<polygon fill="midnightblue" stroke="midnightblue" points="934.31,-391.02 944.41,-387.85 934.53,-384.03 934.31,-391.02"/>
</g>
<!-- Node26 -->
<g id="node26" class="node">
<title>Node26</title>
<g id="a_node26"><a xlink:href="http_8h.html" target="_top" xlink:title=" ">
<polygon fill="none" stroke="black" points="1012.5,-324.5 1012.5,-343.5 1086.5,-343.5 1086.5,-324.5 1012.5,-324.5"/>
<text text-anchor="middle" x="1049.5" y="-331.5" font-family="Helvetica,sans-Serif" font-size="10.00">include/http.h</text>
</a>
</g>
</g>
<!-- Node1&#45;&gt;Node26 -->
<g id="edge42" class="edge">
<title>Node1&#45;&gt;Node26</title>
<path fill="none" stroke="midnightblue" d="M1001.33,-373.82C1013.34,-364.15 1028.47,-351.95 1038.54,-343.83"/>
<polygon fill="midnightblue" stroke="midnightblue" points="998.85,-371.32 993.26,-380.32 1003.25,-376.77 998.85,-371.32"/>
</g>
<!-- Node32 -->
<g id="node32" class="node">
<title>Node32</title>
<g id="a_node32"><a xlink:href="utils_8c.html" target="_top" xlink:title=" ">
<polygon fill="none" stroke="black" points="1843,-324.5 1843,-343.5 1902,-343.5 1902,-324.5 1843,-324.5"/>
<text text-anchor="middle" x="1872.5" y="-331.5" font-family="Helvetica,sans-Serif" font-size="10.00">src/utils.c</text>
</a>
</g>
</g>
<!-- Node1&#45;&gt;Node32 -->
<g id="edge61" class="edge">
<title>Node1&#45;&gt;Node32</title>
<path fill="none" stroke="midnightblue" d="M1031.01,-388.94C1160.86,-388.22 1526.96,-382.64 1828.5,-344 1833.14,-343.41 1838.02,-342.6 1842.78,-341.7"/>
<polygon fill="midnightblue" stroke="midnightblue" points="1030.61,-385.44 1020.63,-388.98 1030.64,-392.44 1030.61,-385.44"/>
</g>
<!-- Node3 -->
<g id="node3" class="node">
<title>Node3</title>
<g id="a_node3"><a xlink:href="historical__weather_8h.html" target="_top" xlink:title=" ">
<polygon fill="none" stroke="black" points="0,-123.5 0,-153.5 115,-153.5 115,-123.5 0,-123.5"/>
<text text-anchor="start" x="8" y="-141.5" font-family="Helvetica,sans-Serif" font-size="10.00">include/BOM/historical</text>
<text text-anchor="middle" x="57.5" y="-130.5" font-family="Helvetica,sans-Serif" font-size="10.00">_weather.h</text>
</a>
</g>
</g>
<!-- Node2&#45;&gt;Node3 -->
<g id="edge2" class="edge">
<title>Node2&#45;&gt;Node3</title>
<path fill="none" stroke="midnightblue" d="M123.71,-189.54C109.4,-178.73 90.18,-164.2 76.14,-153.59"/>
<polygon fill="midnightblue" stroke="midnightblue" points="121.81,-192.5 131.9,-195.73 126.03,-186.91 121.81,-192.5"/>
</g>
<!-- Node4 -->
<g id="node4" class="node">
<title>Node4</title>
<g id="a_node4"><a xlink:href="main_8h.html" target="_top" xlink:title=" ">
<polygon fill="none" stroke="black" points="823,-62 823,-81 902,-81 902,-62 823,-62"/>
<text text-anchor="middle" x="862.5" y="-69" font-family="Helvetica,sans-Serif" font-size="10.00">include/main.h</text>
</a>
</g>
</g>
<!-- Node2&#45;&gt;Node4 -->
<g id="edge9" class="edge">
<title>Node2&#45;&gt;Node4</title>
<path fill="none" stroke="midnightblue" d="M171.85,-191.65C192.22,-182.06 220.11,-168.21 243.5,-154 263.63,-141.76 264.42,-131.21 286.5,-123 385.29,-86.26 709.6,-75.81 822.96,-73.25"/>
<polygon fill="midnightblue" stroke="midnightblue" points="170.37,-188.48 162.78,-195.87 173.32,-194.82 170.37,-188.48"/>
</g>
<!-- Node2&#45;&gt;Node7 -->
<g id="edge6" class="edge">
<title>Node2&#45;&gt;Node7</title>
<path fill="none" stroke="midnightblue" d="M191.36,-193.66C242.08,-182.17 322.06,-164.06 375.38,-151.98"/>
<polygon fill="midnightblue" stroke="midnightblue" points="190.3,-190.31 181.32,-195.94 191.84,-197.14 190.3,-190.31"/>
</g>
<!-- Node9 -->
<g id="node9" class="node">
<title>Node9</title>
<g id="a_node9"><a xlink:href="stations_8c.html" target="_top" xlink:title=" ">
<polygon fill="none" stroke="black" points="133,-129 133,-148 234,-148 234,-129 133,-129"/>
<text text-anchor="middle" x="183.5" y="-136" font-family="Helvetica,sans-Serif" font-size="10.00">src/BOM/stations.c</text>
</a>
</g>
</g>
<!-- Node2&#45;&gt;Node9 -->
<g id="edge10" class="edge">
<title>Node2&#45;&gt;Node9</title>
<path fill="none" stroke="midnightblue" d="M154.25,-187.03C161.99,-174.45 172.11,-158.01 178.19,-148.13"/>
<polygon fill="midnightblue" stroke="midnightblue" points="151.15,-185.38 148.89,-195.73 157.12,-189.05 151.15,-185.38"/>
</g>
<!-- Node3&#45;&gt;Node4 -->
<g id="edge3" class="edge">
<title>Node3&#45;&gt;Node4</title>
<path fill="none" stroke="midnightblue" d="M125.23,-122.93C279.63,-102.38 692.56,-80.9 822.7,-74.44"/>
<polygon fill="midnightblue" stroke="midnightblue" points="124.43,-119.5 115,-124.34 125.39,-126.44 124.43,-119.5"/>
</g>
<!-- Node6 -->
<g id="node6" class="node">
<title>Node6</title>
<g id="a_node6"><a xlink:href="historical__weather_8c.html" target="_top" xlink:title=" ">
<polygon fill="none" stroke="black" points="8.5,-56.5 8.5,-86.5 106.5,-86.5 106.5,-56.5 8.5,-56.5"/>
<text text-anchor="start" x="16.5" y="-74.5" font-family="Helvetica,sans-Serif" font-size="10.00">src/BOM/historical</text>
<text text-anchor="middle" x="57.5" y="-63.5" font-family="Helvetica,sans-Serif" font-size="10.00">_weather.c</text>
</a>
</g>
</g>
<!-- Node3&#45;&gt;Node6 -->
<g id="edge5" class="edge">
<title>Node3&#45;&gt;Node6</title>
<path fill="none" stroke="midnightblue" d="M57.5,-113.11C57.5,-104.15 57.5,-94.32 57.5,-86.58"/>
<polygon fill="midnightblue" stroke="midnightblue" points="54,-113.4 57.5,-123.4 61,-113.4 54,-113.4"/>
</g>
<!-- Node5 -->
<g id="node5" class="node">
<title>Node5</title>
<g id="a_node5"><a xlink:href="main_8c.html" target="_top" xlink:title=" ">
<polygon fill="none" stroke="black" points="831.5,-0.5 831.5,-19.5 893.5,-19.5 893.5,-0.5 831.5,-0.5"/>
<text text-anchor="middle" x="862.5" y="-7.5" font-family="Helvetica,sans-Serif" font-size="10.00">src/main.c</text>
</a>
</g>
</g>
<!-- Node4&#45;&gt;Node5 -->
<g id="edge4" class="edge">
<title>Node4&#45;&gt;Node5</title>
<path fill="none" stroke="midnightblue" d="M862.5,-51.82C862.5,-41 862.5,-27.9 862.5,-19.51"/>
<polygon fill="midnightblue" stroke="midnightblue" points="859,-51.98 862.5,-61.98 866,-51.98 859,-51.98"/>
</g>
<!-- Node7&#45;&gt;Node4 -->
<g id="edge7" class="edge">
<title>Node7&#45;&gt;Node4</title>
<path fill="none" stroke="midnightblue" d="M495.55,-127.71C586.27,-114.06 748.06,-89.72 822.72,-78.48"/>
<polygon fill="midnightblue" stroke="midnightblue" points="495.02,-124.25 485.65,-129.2 496.06,-131.17 495.02,-124.25"/>
</g>
<!-- Node8 -->
<g id="node8" class="node">
<title>Node8</title>
<g id="a_node8"><a xlink:href="harvest__areas_8c.html" target="_top" xlink:title=" ">
<polygon fill="none" stroke="black" points="366.5,-56.5 366.5,-86.5 494.5,-86.5 494.5,-56.5 366.5,-56.5"/>
<text text-anchor="start" x="374.5" y="-74.5" font-family="Helvetica,sans-Serif" font-size="10.00">src/FoodAuthority/harvest</text>
<text text-anchor="middle" x="430.5" y="-63.5" font-family="Helvetica,sans-Serif" font-size="10.00">_areas.c</text>
</a>
</g>
</g>
<!-- Node7&#45;&gt;Node8 -->
<g id="edge8" class="edge">
<title>Node7&#45;&gt;Node8</title>
<path fill="none" stroke="midnightblue" d="M430.5,-113.11C430.5,-104.15 430.5,-94.32 430.5,-86.58"/>
<polygon fill="midnightblue" stroke="midnightblue" points="427,-113.4 430.5,-123.4 434,-113.4 427,-113.4"/>
</g>
<!-- Node10&#45;&gt;Node4 -->
<g id="edge13" class="edge">
<title>Node10&#45;&gt;Node4</title>
<path fill="none" stroke="midnightblue" d="M538.55,-250.55C558.52,-233.05 588.65,-208.11 617.5,-190 695.4,-141.09 796.78,-98.51 840.67,-81"/>
<polygon fill="midnightblue" stroke="midnightblue" points="536.07,-248.08 530.91,-257.33 540.72,-253.31 536.07,-248.08"/>
</g>
<!-- Node10&#45;&gt;Node7 -->
<g id="edge12" class="edge">
<title>Node10&#45;&gt;Node7</title>
<path fill="none" stroke="midnightblue" d="M450.7,-259.3C429.48,-251.9 408.13,-240.02 395.5,-221 381.02,-199.19 401.2,-170.41 416.4,-153.53"/>
<polygon fill="midnightblue" stroke="midnightblue" points="449.82,-262.69 460.41,-262.4 451.95,-256.02 449.82,-262.69"/>
</g>
<!-- Node11 -->
<g id="node11" class="node">
<title>Node11</title>
<g id="a_node11"><a xlink:href="harvest__area_8c.html" target="_top" xlink:title=" ">
<polygon fill="none" stroke="black" points="404.5,-190.5 404.5,-220.5 532.5,-220.5 532.5,-190.5 404.5,-190.5"/>
<text text-anchor="start" x="412.5" y="-208.5" font-family="Helvetica,sans-Serif" font-size="10.00">src/FoodAuthority/harvest</text>
<text text-anchor="middle" x="468.5" y="-197.5" font-family="Helvetica,sans-Serif" font-size="10.00">_area.c</text>
</a>
</g>
</g>
<!-- Node10&#45;&gt;Node11 -->
<g id="edge14" class="edge">
<title>Node10&#45;&gt;Node11</title>
<path fill="none" stroke="midnightblue" d="M499.34,-249.16C492.49,-239.68 484.71,-228.92 478.68,-220.58"/>
<polygon fill="midnightblue" stroke="midnightblue" points="496.61,-251.34 505.3,-257.4 502.28,-247.24 496.61,-251.34"/>
</g>
<!-- Node12&#45;&gt;Node4 -->
<g id="edge20" class="edge">
<title>Node12&#45;&gt;Node4</title>
<path fill="none" stroke="midnightblue" d="M802.25,-253.54C788.63,-224.4 767.08,-165.76 789.5,-123 800.09,-102.8 822.83,-89.08 840.14,-81.09"/>
<polygon fill="midnightblue" stroke="midnightblue" points="799.27,-255.42 806.82,-262.86 805.56,-252.34 799.27,-255.42"/>
</g>
<!-- Node12&#45;&gt;Node13 -->
<g id="edge17" class="edge">
<title>Node12&#45;&gt;Node13</title>
<path fill="none" stroke="midnightblue" d="M830.31,-256.21C846.08,-243.41 868.01,-225.59 880.88,-215.13"/>
<polygon fill="midnightblue" stroke="midnightblue" points="827.84,-253.71 822.29,-262.73 832.26,-259.14 827.84,-253.71"/>
</g>
<!-- Node15 -->
<g id="node15" class="node">
<title>Node15</title>
<g id="a_node15"><a xlink:href="_i_b_m___e_i_s_2authenticate_8c.html" target="_top" xlink:title=" ">
<polygon fill="none" stroke="black" points="626.5,-196 626.5,-215 762.5,-215 762.5,-196 626.5,-196"/>
<text text-anchor="middle" x="694.5" y="-203" font-family="Helvetica,sans-Serif" font-size="10.00">src/IBM_EIS/authenticate.c</text>
</a>
</g>
</g>
<!-- Node12&#45;&gt;Node15 -->
<g id="edge21" class="edge">
<title>Node12&#45;&gt;Node15</title>
<path fill="none" stroke="midnightblue" d="M786.82,-257.79C763.63,-244.9 729.64,-226.02 710.03,-215.13"/>
<polygon fill="midnightblue" stroke="midnightblue" points="785.28,-260.94 795.72,-262.73 788.68,-254.82 785.28,-260.94"/>
</g>
<!-- Node13&#45;&gt;Node4 -->
<g id="edge18" class="edge">
<title>Node13&#45;&gt;Node4</title>
<path fill="none" stroke="midnightblue" d="M909.97,-188.8C926.87,-172.44 947.56,-146.01 935.5,-123 924.91,-102.8 902.17,-89.08 884.86,-81.09"/>
<polygon fill="midnightblue" stroke="midnightblue" points="907.15,-186.64 902.13,-195.97 911.88,-191.8 907.15,-186.64"/>
</g>
<!-- Node14 -->
<g id="node14" class="node">
<title>Node14</title>
<g id="a_node14"><a xlink:href="timeseries_8c.html" target="_top" xlink:title=" ">
<polygon fill="none" stroke="black" points="798.5,-129 798.5,-148 926.5,-148 926.5,-129 798.5,-129"/>
<text text-anchor="middle" x="862.5" y="-136" font-family="Helvetica,sans-Serif" font-size="10.00">src/IBM_EIS/timeseries.c</text>
</a>
</g>
</g>
<!-- Node13&#45;&gt;Node14 -->
<g id="edge19" class="edge">
<title>Node13&#45;&gt;Node14</title>
<path fill="none" stroke="midnightblue" d="M883.38,-186.29C877.81,-173.81 870.67,-157.81 866.35,-148.13"/>
<polygon fill="midnightblue" stroke="midnightblue" points="880.32,-188.03 887.59,-195.73 886.71,-185.18 880.32,-188.03"/>
</g>
<!-- Node16&#45;&gt;Node4 -->
<g id="edge24" class="edge">
<title>Node16&#45;&gt;Node4</title>
<path fill="none" stroke="midnightblue" d="M1201.13,-192.5C1156.72,-176.55 1075.76,-147.52 1006.5,-123 964.54,-108.14 915.64,-91.04 886.98,-81.03"/>
<polygon fill="midnightblue" stroke="midnightblue" points="1199.96,-195.8 1210.55,-195.89 1202.33,-189.21 1199.96,-195.8"/>
</g>
<!-- Node17 -->
<g id="node17" class="node">
<title>Node17</title>
<g id="a_node17"><a xlink:href="devices_8c.html" target="_top" xlink:title=" ">
<polygon fill="none" stroke="black" points="1179,-129 1179,-148 1290,-148 1290,-129 1179,-129"/>
<text text-anchor="middle" x="1234.5" y="-136" font-family="Helvetica,sans-Serif" font-size="10.00">src/Ubidots/devices.c</text>
</a>
</g>
</g>
<!-- Node16&#45;&gt;Node17 -->
<g id="edge25" class="edge">
<title>Node16&#45;&gt;Node17</title>
<path fill="none" stroke="midnightblue" d="M1234.5,-185.54C1234.5,-173.17 1234.5,-157.62 1234.5,-148.13"/>
<polygon fill="midnightblue" stroke="midnightblue" points="1231,-185.73 1234.5,-195.73 1238,-185.73 1231,-185.73"/>
</g>
<!-- Node18&#45;&gt;Node7 -->
<g id="edge27" class="edge">
<title>Node18&#45;&gt;Node7</title>
<path fill="none" stroke="midnightblue" d="M1592.55,-197.05C1568.98,-194.51 1542.05,-191.85 1517.5,-190 1414.36,-182.23 692.19,-150.8 485.59,-141.87"/>
<polygon fill="midnightblue" stroke="midnightblue" points="1592.45,-200.56 1602.77,-198.17 1593.21,-193.6 1592.45,-200.56"/>
</g>
<!-- Node18&#45;&gt;Node19 -->
<g id="edge28" class="edge">
<title>Node18&#45;&gt;Node19</title>
<path fill="none" stroke="midnightblue" d="M1698.01,-186.27C1721.58,-175.92 1750.64,-163.15 1772.45,-153.58"/>
<polygon fill="midnightblue" stroke="midnightblue" points="1696.36,-183.17 1688.61,-190.4 1699.18,-189.58 1696.36,-183.17"/>
</g>
<!-- Node18&#45;&gt;Node21 -->
<g id="edge31" class="edge">
<title>Node18&#45;&gt;Node21</title>
<path fill="none" stroke="midnightblue" d="M1619.21,-185.85C1598.65,-175.58 1573.55,-163.03 1554.65,-153.58"/>
<polygon fill="midnightblue" stroke="midnightblue" points="1617.78,-189.05 1628.29,-190.4 1620.91,-182.79 1617.78,-189.05"/>
</g>
<!-- Node23 -->
<g id="node23" class="node">
<title>Node23</title>
<g id="a_node23"><a xlink:href="location_8c.html" target="_top" xlink:title=" ">
<polygon fill="none" stroke="black" points="1598.5,-129 1598.5,-148 1732.5,-148 1732.5,-129 1598.5,-129"/>
<text text-anchor="middle" x="1665.5" y="-136" font-family="Helvetica,sans-Serif" font-size="10.00">src/WillyWeather/location.c</text>
</a>
</g>
</g>
<!-- Node18&#45;&gt;Node23 -->
<g id="edge34" class="edge">
<title>Node18&#45;&gt;Node23</title>
<path fill="none" stroke="midnightblue" d="M1659.86,-180.25C1661.41,-169.02 1663.16,-156.38 1664.3,-148.19"/>
<polygon fill="midnightblue" stroke="midnightblue" points="1656.36,-180.01 1658.45,-190.4 1663.29,-180.97 1656.36,-180.01"/>
</g>
<!-- Node19&#45;&gt;Node4 -->
<g id="edge29" class="edge">
<title>Node19&#45;&gt;Node4</title>
<path fill="none" stroke="midnightblue" d="M1740.8,-123.09C1411.9,-77 1025.29,-72.6 902.16,-72.4"/>
<polygon fill="midnightblue" stroke="midnightblue" points="1740.61,-126.6 1751,-124.54 1741.59,-119.67 1740.61,-126.6"/>
</g>
<!-- Node20 -->
<g id="node20" class="node">
<title>Node20</title>
<g id="a_node20"><a xlink:href="precipitation_8c.html" target="_top" xlink:title=" ">
<polygon fill="none" stroke="black" points="1728.5,-62 1728.5,-81 1880.5,-81 1880.5,-62 1728.5,-62"/>
<text text-anchor="middle" x="1804.5" y="-69" font-family="Helvetica,sans-Serif" font-size="10.00">src/WillyWeather/precipitation.c</text>
</a>
</g>
</g>
<!-- Node19&#45;&gt;Node20 -->
<g id="edge30" class="edge">
<title>Node19&#45;&gt;Node20</title>
<path fill="none" stroke="midnightblue" d="M1804.5,-113.25C1804.5,-102.02 1804.5,-89.38 1804.5,-81.19"/>
<polygon fill="midnightblue" stroke="midnightblue" points="1801,-113.4 1804.5,-123.4 1808,-113.4 1801,-113.4"/>
</g>
<!-- Node21&#45;&gt;Node4 -->
<g id="edge32" class="edge">
<title>Node21&#45;&gt;Node4</title>
<path fill="none" stroke="midnightblue" d="M1462.48,-131.23C1326.74,-117.95 1013.38,-87.27 902.37,-76.4"/>
<polygon fill="midnightblue" stroke="midnightblue" points="1462.43,-134.74 1472.72,-132.24 1463.11,-127.78 1462.43,-134.74"/>
</g>
<!-- Node22 -->
<g id="node22" class="node">
<title>Node22</title>
<g id="a_node22"><a xlink:href="tide_8c.html" target="_top" xlink:title=" ">
<polygon fill="none" stroke="black" points="1468.5,-62 1468.5,-81 1584.5,-81 1584.5,-62 1468.5,-62"/>
<text text-anchor="middle" x="1526.5" y="-69" font-family="Helvetica,sans-Serif" font-size="10.00">src/WillyWeather/tide.c</text>
</a>
</g>
</g>
<!-- Node21&#45;&gt;Node22 -->
<g id="edge33" class="edge">
<title>Node21&#45;&gt;Node22</title>
<path fill="none" stroke="midnightblue" d="M1526.5,-113.25C1526.5,-102.02 1526.5,-89.38 1526.5,-81.19"/>
<polygon fill="midnightblue" stroke="midnightblue" points="1523,-113.4 1526.5,-123.4 1530,-113.4 1523,-113.4"/>
</g>
<!-- Node24&#45;&gt;Node2 -->
<g id="edge39" class="edge">
<title>Node24&#45;&gt;Node2</title>
<path fill="none" stroke="midnightblue" d="M223.95,-257.27C203.56,-244.4 174.21,-225.88 157.17,-215.13"/>
<polygon fill="midnightblue" stroke="midnightblue" points="222.28,-260.36 232.61,-262.73 226.02,-254.44 222.28,-260.36"/>
</g>
<!-- Node24&#45;&gt;Node3 -->
<g id="edge38" class="edge">
<title>Node24&#45;&gt;Node3</title>
<path fill="none" stroke="midnightblue" d="M201.99,-270.43C163.12,-267.02 107.96,-255.81 75.5,-221 58.3,-202.56 56.17,-171.54 56.56,-153.55"/>
<polygon fill="midnightblue" stroke="midnightblue" points="201.77,-273.92 212,-271.16 202.28,-266.94 201.77,-273.92"/>
</g>
<!-- Node24&#45;&gt;Node4 -->
<g id="edge40" class="edge">
<title>Node24&#45;&gt;Node4</title>
<path fill="none" stroke="midnightblue" d="M259.1,-254.45C286.85,-217.13 351.92,-130.89 366.5,-123 445.09,-80.44 719.62,-73.68 822.85,-72.66"/>
<polygon fill="midnightblue" stroke="midnightblue" points="256.05,-252.69 252.91,-262.81 261.67,-256.86 256.05,-252.69"/>
</g>
<!-- Node25 -->
<g id="node25" class="node">
<title>Node25</title>
<g id="a_node25"><a xlink:href="ftp_8c.html" target="_top" xlink:title=" ">
<polygon fill="none" stroke="black" points="220.5,-196 220.5,-215 272.5,-215 272.5,-196 220.5,-196"/>
<text text-anchor="middle" x="246.5" y="-203" font-family="Helvetica,sans-Serif" font-size="10.00">src/ftp.c</text>
</a>
</g>
</g>
<!-- Node24&#45;&gt;Node25 -->
<g id="edge41" class="edge">
<title>Node24&#45;&gt;Node25</title>
<path fill="none" stroke="midnightblue" d="M246.5,-252.54C246.5,-240.17 246.5,-224.62 246.5,-215.13"/>
<polygon fill="midnightblue" stroke="midnightblue" points="243,-252.73 246.5,-262.73 250,-252.73 243,-252.73"/>
</g>
<!-- Node26&#45;&gt;Node4 -->
<g id="edge59" class="edge">
<title>Node26&#45;&gt;Node4</title>
<path fill="none" stroke="midnightblue" d="M1034.13,-316.98C1026.87,-308.79 1018.49,-298.38 1012.5,-288 973.32,-220.16 1001.24,-182.68 950.5,-123 933.5,-103 906.48,-89.18 886.86,-81.11"/>
<polygon fill="midnightblue" stroke="midnightblue" points="1031.56,-319.35 1040.9,-324.35 1036.71,-314.62 1031.56,-319.35"/>
</g>
<!-- Node26&#45;&gt;Node7 -->
<g id="edge44" class="edge">
<title>Node26&#45;&gt;Node7</title>
<path fill="none" stroke="midnightblue" d="M1002.05,-331.53C938.05,-328.4 821.16,-318.61 726.5,-288 637.97,-259.37 625,-231.06 541.5,-190 515.28,-177.11 485.08,-163.44 462.8,-153.58"/>
<polygon fill="midnightblue" stroke="midnightblue" points="1002.09,-335.04 1012.24,-331.99 1002.41,-328.04 1002.09,-335.04"/>
</g>
<!-- Node26&#45;&gt;Node10 -->
<g id="edge43" class="edge">
<title>Node26&#45;&gt;Node10</title>
<path fill="none" stroke="midnightblue" d="M1002.23,-330.16C917.94,-324.71 736.31,-311.22 584.5,-288 580.02,-287.32 575.4,-286.53 570.76,-285.68"/>
<polygon fill="midnightblue" stroke="midnightblue" points="1002.05,-333.66 1012.26,-330.8 1002.5,-326.67 1002.05,-333.66"/>
</g>
<!-- Node26&#45;&gt;Node12 -->
<g id="edge45" class="edge">
<title>Node26&#45;&gt;Node12</title>
<path fill="none" stroke="midnightblue" d="M1005.66,-322.04C959.46,-310.49 887.66,-292.54 845.54,-282.01"/>
<polygon fill="midnightblue" stroke="midnightblue" points="1004.85,-325.45 1015.4,-324.48 1006.55,-318.65 1004.85,-325.45"/>
</g>
<!-- Node26&#45;&gt;Node13 -->
<g id="edge46" class="edge">
<title>Node26&#45;&gt;Node13</title>
<path fill="none" stroke="midnightblue" d="M1025.61,-319.39C1011.47,-310.97 993.46,-299.58 978.5,-288 947.41,-263.93 914.54,-230.69 899.67,-215.16"/>
<polygon fill="midnightblue" stroke="midnightblue" points="1023.87,-322.43 1034.27,-324.47 1027.41,-316.39 1023.87,-322.43"/>
</g>
<!-- Node26&#45;&gt;Node16 -->
<g id="edge50" class="edge">
<title>Node26&#45;&gt;Node16</title>
<path fill="none" stroke="midnightblue" d="M1096.97,-329.27C1150.99,-323.93 1234.24,-311.97 1253.5,-288 1270.97,-266.25 1251.55,-231.28 1240.74,-215.16"/>
<polygon fill="midnightblue" stroke="midnightblue" points="1096.54,-325.8 1086.92,-330.22 1097.2,-332.77 1096.54,-325.8"/>
</g>
<!-- Node26&#45;&gt;Node18 -->
<g id="edge56" class="edge">
<title>Node26&#45;&gt;Node18</title>
<path fill="none" stroke="midnightblue" d="M1096.86,-333.65C1212.03,-334.52 1503.56,-332.15 1588.5,-288 1617.44,-272.96 1638.87,-239.75 1649.34,-220.7"/>
<polygon fill="midnightblue" stroke="midnightblue" points="1096.63,-330.15 1086.6,-333.56 1096.57,-337.15 1096.63,-330.15"/>
</g>
<!-- Node26&#45;&gt;Node19 -->
<g id="edge57" class="edge">
<title>Node26&#45;&gt;Node19</title>
<path fill="none" stroke="midnightblue" d="M1096.8,-332.33C1215.51,-330.17 1523.36,-321.42 1619.5,-288 1697.3,-260.95 1766.45,-185.53 1792.98,-153.83"/>
<polygon fill="midnightblue" stroke="midnightblue" points="1096.52,-328.84 1086.58,-332.51 1096.64,-335.84 1096.52,-328.84"/>
</g>
<!-- Node26&#45;&gt;Node21 -->
<g id="edge58" class="edge">
<title>Node26&#45;&gt;Node21</title>
<path fill="none" stroke="midnightblue" d="M1096.89,-333.36C1197.6,-333.32 1429.04,-328.66 1494.5,-288 1524.35,-269.46 1526.79,-254.78 1536.5,-221 1543.12,-197.98 1536.74,-170.08 1531.58,-153.61"/>
<polygon fill="midnightblue" stroke="midnightblue" points="1096.71,-329.86 1086.71,-333.35 1096.7,-336.86 1096.71,-329.86"/>
</g>
<!-- Node27 -->
<g id="node27" class="node">
<title>Node27</title>
<g id="a_node27"><a xlink:href="_ubidots_2authenticate_8h.html" target="_top" xlink:title=" ">
<polygon fill="none" stroke="black" points="1096.5,-263 1096.5,-282 1244.5,-282 1244.5,-263 1096.5,-263"/>
<text text-anchor="middle" x="1170.5" y="-270" font-family="Helvetica,sans-Serif" font-size="10.00">include/Ubidots/authenticate.h</text>
</a>
</g>
</g>
<!-- Node26&#45;&gt;Node27 -->
<g id="edge47" class="edge">
<title>Node26&#45;&gt;Node27</title>
<path fill="none" stroke="midnightblue" d="M1075.89,-320.02C1099.36,-308.48 1132.99,-291.94 1153.2,-282.01"/>
<polygon fill="midnightblue" stroke="midnightblue" points="1074.27,-316.92 1066.84,-324.48 1077.35,-323.2 1074.27,-316.92"/>
</g>
<!-- Node29 -->
<g id="node29" class="node">
<title>Node29</title>
<g id="a_node29"><a xlink:href="_willy_weather_2authenticate_8h.html" target="_top" xlink:title=" ">
<polygon fill="none" stroke="black" points="1378,-257.5 1378,-287.5 1485,-287.5 1485,-257.5 1378,-257.5"/>
<text text-anchor="start" x="1386" y="-275.5" font-family="Helvetica,sans-Serif" font-size="10.00">include/WillyWeather</text>
<text text-anchor="middle" x="1431.5" y="-264.5" font-family="Helvetica,sans-Serif" font-size="10.00">/authenticate.h</text>
</a>
</g>
</g>
<!-- Node26&#45;&gt;Node29 -->
<g id="edge51" class="edge">
<title>Node26&#45;&gt;Node29</title>
<path fill="none" stroke="midnightblue" d="M1096.88,-325.62C1168.28,-314.5 1303.03,-293.51 1377.91,-281.85"/>
<polygon fill="midnightblue" stroke="midnightblue" points="1096.17,-322.19 1086.82,-327.19 1097.24,-329.11 1096.17,-322.19"/>
</g>
<!-- Node31 -->
<g id="node31" class="node">
<title>Node31</title>
<g id="a_node31"><a xlink:href="http_8c.html" target="_top" xlink:title=" ">
<polygon fill="none" stroke="black" points="1021,-263 1021,-282 1078,-282 1078,-263 1021,-263"/>
<text text-anchor="middle" x="1049.5" y="-270" font-family="Helvetica,sans-Serif" font-size="10.00">src/http.c</text>
</a>
</g>
</g>
<!-- Node26&#45;&gt;Node31 -->
<g id="edge60" class="edge">
<title>Node26&#45;&gt;Node31</title>
<path fill="none" stroke="midnightblue" d="M1049.5,-314.32C1049.5,-303.5 1049.5,-290.4 1049.5,-282.01"/>
<polygon fill="midnightblue" stroke="midnightblue" points="1046,-314.48 1049.5,-324.48 1053,-314.48 1046,-314.48"/>
</g>
<!-- Node27&#45;&gt;Node16 -->
<g id="edge48" class="edge">
<title>Node27&#45;&gt;Node16</title>
<path fill="none" stroke="midnightblue" d="M1186.26,-255.5C1198.81,-242.75 1215.9,-225.39 1226.01,-215.13"/>
<polygon fill="midnightblue" stroke="midnightblue" points="1183.65,-253.15 1179.13,-262.73 1188.64,-258.06 1183.65,-253.15"/>
</g>
<!-- Node28 -->
<g id="node28" class="node">
<title>Node28</title>
<g id="a_node28"><a xlink:href="_ubidots_2authenticate_8c.html" target="_top" xlink:title=" ">
<polygon fill="none" stroke="black" points="1021,-196 1021,-215 1152,-215 1152,-196 1021,-196"/>
<text text-anchor="middle" x="1086.5" y="-203" font-family="Helvetica,sans-Serif" font-size="10.00">src/Ubidots/authenticate.c</text>
</a>
</g>
</g>
<!-- Node27&#45;&gt;Node28 -->
<g id="edge49" class="edge">
<title>Node27&#45;&gt;Node28</title>
<path fill="none" stroke="midnightblue" d="M1151.2,-256.57C1134.62,-243.74 1111.29,-225.69 1097.65,-215.13"/>
<polygon fill="midnightblue" stroke="midnightblue" points="1149.12,-259.38 1159.17,-262.73 1153.4,-253.85 1149.12,-259.38"/>
</g>
<!-- Node29&#45;&gt;Node4 -->
<g id="edge54" class="edge">
<title>Node29&#45;&gt;Node4</title>
<path fill="none" stroke="midnightblue" d="M1389,-252.65C1374.17,-244.53 1358.3,-233.9 1346.5,-221 1313.89,-185.36 1338.83,-151.04 1299.5,-123 1236.22,-77.89 997.41,-72.59 902.11,-72.31"/>
<polygon fill="midnightblue" stroke="midnightblue" points="1387.57,-255.85 1398.05,-257.39 1390.81,-249.65 1387.57,-255.85"/>
</g>
<!-- Node29&#45;&gt;Node18 -->
<g id="edge52" class="edge">
<title>Node29&#45;&gt;Node18</title>
<path fill="none" stroke="midnightblue" d="M1490.07,-254.58C1526.61,-244.02 1573.1,-230.59 1607.65,-220.61"/>
<polygon fill="midnightblue" stroke="midnightblue" points="1488.68,-251.34 1480.04,-257.48 1490.62,-258.06 1488.68,-251.34"/>
</g>
<!-- Node29&#45;&gt;Node21 -->
<g id="edge53" class="edge">
<title>Node29&#45;&gt;Node21</title>
<path fill="none" stroke="midnightblue" d="M1480.82,-252.72C1494.85,-244.99 1508.7,-234.59 1517.5,-221 1530.74,-200.57 1530.31,-171.07 1528.56,-153.73"/>
<polygon fill="midnightblue" stroke="midnightblue" points="1478.93,-249.75 1471.62,-257.41 1482.12,-255.98 1478.93,-249.75"/>
</g>
<!-- Node30 -->
<g id="node30" class="node">
<title>Node30</title>
<g id="a_node30"><a xlink:href="_willy_weather_2authenticate_8c.html" target="_top" xlink:title=" ">
<polygon fill="none" stroke="black" points="1355,-196 1355,-215 1508,-215 1508,-196 1355,-196"/>
<text text-anchor="middle" x="1431.5" y="-203" font-family="Helvetica,sans-Serif" font-size="10.00">src/WillyWeather/authenticate.c</text>
</a>
</g>
</g>
<!-- Node29&#45;&gt;Node30 -->
<g id="edge55" class="edge">
<title>Node29&#45;&gt;Node30</title>
<path fill="none" stroke="midnightblue" d="M1431.5,-247.25C1431.5,-236.02 1431.5,-223.38 1431.5,-215.19"/>
<polygon fill="midnightblue" stroke="midnightblue" points="1428,-247.4 1431.5,-257.4 1435,-247.4 1428,-247.4"/>
</g>
</g>
</svg>
