<?xml version="1.0" encoding="UTF-8" standalone="no"?>
<!DOCTYPE svg PUBLIC "-//W3C//DTD SVG 1.1//EN"
 "http://www.w3.org/Graphics/SVG/1.1/DTD/svg11.dtd">
<!-- Generated by graphviz version 2.49.3 (20211027.1534)
 -->
<!-- Title: include/utils.h Pages: 1 -->
<svg width="437pt" height="196pt"
 viewBox="0.00 0.00 436.50 196.00" xmlns="http://www.w3.org/2000/svg" xmlns:xlink="http://www.w3.org/1999/xlink">
<g id="graph0" class="graph" transform="scale(1 1) rotate(0) translate(4 192)">
<title>include/utils.h</title>
<!-- Node1 -->
<g id="node1" class="node">
<title>Node1</title>
<g id="a_node1"><a xlink:title=" ">
<polygon fill="#bfbfbf" stroke="black" points="204,-168.5 204,-187.5 280,-187.5 280,-168.5 204,-168.5"/>
<text text-anchor="middle" x="242" y="-175.5" font-family="Helvetica,sans-Serif" font-size="10.00">include/utils.h</text>
</a>
</g>
</g>
<!-- Node2 -->
<g id="node2" class="node">
<title>Node2</title>
<g id="a_node2"><a xlink:href="ibm__ems_8h.html" target="_top" xlink:title=" ">
<polygon fill="none" stroke="black" points="253,-112.5 253,-131.5 351,-131.5 351,-112.5 253,-112.5"/>
<text text-anchor="middle" x="302" y="-119.5" font-family="Helvetica,sans-Serif" font-size="10.00">include/ibm_ems.h</text>
</a>
</g>
</g>
<!-- Node1&#45;&gt;Node2 -->
<g id="edge1" class="edge">
<title>Node1&#45;&gt;Node2</title>
<path fill="none" stroke="midnightblue" d="M259.18,-161.54C269.88,-151.91 283.26,-139.87 292.18,-131.83"/>
<polygon fill="midnightblue" stroke="midnightblue" points="256.73,-159.03 251.64,-168.32 261.41,-164.24 256.73,-159.03"/>
</g>
<!-- Node6 -->
<g id="node6" class="node">
<title>Node6</title>
<g id="a_node6"><a xlink:href="ubidots_8h.html" target="_top" xlink:title=" ">
<polygon fill="none" stroke="black" points="22.5,-112.5 22.5,-131.5 111.5,-131.5 111.5,-112.5 22.5,-112.5"/>
<text text-anchor="middle" x="67" y="-119.5" font-family="Helvetica,sans-Serif" font-size="10.00">include/ubidots.h</text>
</a>
</g>
</g>
<!-- Node1&#45;&gt;Node6 -->
<g id="edge5" class="edge">
<title>Node1&#45;&gt;Node6</title>
<path fill="none" stroke="midnightblue" d="M204.53,-165.44C171.53,-155.26 124.24,-140.66 94.6,-131.52"/>
<polygon fill="midnightblue" stroke="midnightblue" points="203.68,-168.84 214.27,-168.44 205.75,-162.15 203.68,-168.84"/>
</g>
<!-- Node8 -->
<g id="node8" class="node">
<title>Node8</title>
<g id="a_node8"><a xlink:href="w__weather_8h.html" target="_top" xlink:title=" ">
<polygon fill="none" stroke="black" points="129.5,-112.5 129.5,-131.5 234.5,-131.5 234.5,-112.5 129.5,-112.5"/>
<text text-anchor="middle" x="182" y="-119.5" font-family="Helvetica,sans-Serif" font-size="10.00">include/w_weather.h</text>
</a>
</g>
</g>
<!-- Node1&#45;&gt;Node8 -->
<g id="edge8" class="edge">
<title>Node1&#45;&gt;Node8</title>
<path fill="none" stroke="midnightblue" d="M224.82,-161.54C214.12,-151.91 200.74,-139.87 191.82,-131.83"/>
<polygon fill="midnightblue" stroke="midnightblue" points="222.59,-164.24 232.36,-168.32 227.27,-159.03 222.59,-164.24"/>
</g>
<!-- Node10 -->
<g id="node10" class="node">
<title>Node10</title>
<g id="a_node10"><a xlink:href="utils_8c.html" target="_top" xlink:title=" ">
<polygon fill="none" stroke="black" points="369.5,-112.5 369.5,-131.5 428.5,-131.5 428.5,-112.5 369.5,-112.5"/>
<text text-anchor="middle" x="399" y="-119.5" font-family="Helvetica,sans-Serif" font-size="10.00">src/utils.c</text>
</a>
</g>
</g>
<!-- Node1&#45;&gt;Node10 -->
<g id="edge11" class="edge">
<title>Node1&#45;&gt;Node10</title>
<path fill="none" stroke="midnightblue" d="M276.39,-165.17C305.95,-155 347.87,-140.59 374.24,-131.52"/>
<polygon fill="midnightblue" stroke="midnightblue" points="275.2,-161.88 266.88,-168.44 277.47,-168.5 275.2,-161.88"/>
</g>
<!-- Node3 -->
<g id="node3" class="node">
<title>Node3</title>
<g id="a_node3"><a xlink:href="main_8h.html" target="_top" xlink:title=" ">
<polygon fill="none" stroke="black" points="90.5,-56.5 90.5,-75.5 169.5,-75.5 169.5,-56.5 90.5,-56.5"/>
<text text-anchor="middle" x="130" y="-63.5" font-family="Helvetica,sans-Serif" font-size="10.00">include/main.h</text>
</a>
</g>
</g>
<!-- Node2&#45;&gt;Node3 -->
<g id="edge2" class="edge">
<title>Node2&#45;&gt;Node3</title>
<path fill="none" stroke="midnightblue" d="M265.17,-109.44C232.74,-99.26 186.26,-84.66 157.13,-75.52"/>
<polygon fill="midnightblue" stroke="midnightblue" points="264.16,-112.79 274.75,-112.44 266.25,-106.11 264.16,-112.79"/>
</g>
<!-- Node5 -->
<g id="node5" class="node">
<title>Node5</title>
<g id="a_node5"><a xlink:href="ibm__ems_8c.html" target="_top" xlink:title=" ">
<polygon fill="none" stroke="black" points="293,-56.5 293,-75.5 373,-75.5 373,-56.5 293,-56.5"/>
<text text-anchor="middle" x="333" y="-63.5" font-family="Helvetica,sans-Serif" font-size="10.00">src/ibm_ems.c</text>
</a>
</g>
</g>
<!-- Node2&#45;&gt;Node5 -->
<g id="edge4" class="edge">
<title>Node2&#45;&gt;Node5</title>
<path fill="none" stroke="midnightblue" d="M312.18,-103.27C317.47,-94.05 323.72,-83.17 327.98,-75.75"/>
<polygon fill="midnightblue" stroke="midnightblue" points="309.06,-101.67 307.12,-112.08 315.13,-105.15 309.06,-101.67"/>
</g>
<!-- Node4 -->
<g id="node4" class="node">
<title>Node4</title>
<g id="a_node4"><a xlink:href="main_8c.html" target="_top" xlink:title=" ">
<polygon fill="none" stroke="black" points="99,-0.5 99,-19.5 161,-19.5 161,-0.5 99,-0.5"/>
<text text-anchor="middle" x="130" y="-7.5" font-family="Helvetica,sans-Serif" font-size="10.00">src/main.c</text>
</a>
</g>
</g>
<!-- Node3&#45;&gt;Node4 -->
<g id="edge3" class="edge">
<title>Node3&#45;&gt;Node4</title>
<path fill="none" stroke="midnightblue" d="M130,-45.8C130,-36.91 130,-26.78 130,-19.75"/>
<polygon fill="midnightblue" stroke="midnightblue" points="126.5,-46.08 130,-56.08 133.5,-46.08 126.5,-46.08"/>
</g>
<!-- Node6&#45;&gt;Node3 -->
<g id="edge6" class="edge">
<title>Node6&#45;&gt;Node3</title>
<path fill="none" stroke="midnightblue" d="M85.04,-105.54C96.27,-95.91 110.32,-83.87 119.69,-75.83"/>
<polygon fill="midnightblue" stroke="midnightblue" points="82.44,-103.16 77.12,-112.32 86.99,-108.47 82.44,-103.16"/>
</g>
<!-- Node7 -->
<g id="node7" class="node">
<title>Node7</title>
<g id="a_node7"><a xlink:href="ubidots_8c.html" target="_top" xlink:title=" ">
<polygon fill="none" stroke="black" points="0,-56.5 0,-75.5 72,-75.5 72,-56.5 0,-56.5"/>
<text text-anchor="middle" x="36" y="-63.5" font-family="Helvetica,sans-Serif" font-size="10.00">src/ubidots.c</text>
</a>
</g>
</g>
<!-- Node6&#45;&gt;Node7 -->
<g id="edge7" class="edge">
<title>Node6&#45;&gt;Node7</title>
<path fill="none" stroke="midnightblue" d="M56.82,-103.27C51.53,-94.05 45.28,-83.17 41.02,-75.75"/>
<polygon fill="midnightblue" stroke="midnightblue" points="53.87,-105.15 61.88,-112.08 59.94,-101.67 53.87,-105.15"/>
</g>
<!-- Node8&#45;&gt;Node3 -->
<g id="edge9" class="edge">
<title>Node8&#45;&gt;Node3</title>
<path fill="none" stroke="midnightblue" d="M166.32,-104.72C157.16,-95.2 145.95,-83.56 138.43,-75.75"/>
<polygon fill="midnightblue" stroke="midnightblue" points="163.96,-107.31 173.41,-112.08 169,-102.45 163.96,-107.31"/>
</g>
<!-- Node9 -->
<g id="node9" class="node">
<title>Node9</title>
<g id="a_node9"><a xlink:href="w__weather_8c.html" target="_top" xlink:title=" ">
<polygon fill="none" stroke="black" points="187,-56.5 187,-75.5 275,-75.5 275,-56.5 187,-56.5"/>
<text text-anchor="middle" x="231" y="-63.5" font-family="Helvetica,sans-Serif" font-size="10.00">src/w_weather.c</text>
</a>
</g>
</g>
<!-- Node8&#45;&gt;Node9 -->
<g id="edge10" class="edge">
<title>Node8&#45;&gt;Node9</title>
<path fill="none" stroke="midnightblue" d="M197.03,-104.43C205.62,-94.97 216.04,-83.48 223.06,-75.75"/>
<polygon fill="midnightblue" stroke="midnightblue" points="194.22,-102.33 190.09,-112.08 199.4,-107.03 194.22,-102.33"/>
</g>
</g>
</svg>
