<?xml version="1.0" encoding="UTF-8" standalone="no"?>
<!DOCTYPE svg PUBLIC "-//W3C//DTD SVG 1.1//EN"
 "http://www.w3.org/Graphics/SVG/1.1/DTD/svg11.dtd">
<!-- Generated by graphviz version 2.49.3 (20211027.1534)
 -->
<!-- Title: include/utils.h Pages: 1 -->
<svg width="1825pt" height="475pt"
 viewBox="0.00 0.00 1825.00 475.00" xmlns="http://www.w3.org/2000/svg" xmlns:xlink="http://www.w3.org/1999/xlink">
<g id="graph0" class="graph" transform="scale(1 1) rotate(0) translate(4 471)">
<title>include/utils.h</title>
<!-- Node1 -->
<g id="node1" class="node">
<title>Node1</title>
<g id="a_node1"><a xlink:title=" ">
<polygon fill="#bfbfbf" stroke="black" points="681.5,-447.5 681.5,-466.5 757.5,-466.5 757.5,-447.5 681.5,-447.5"/>
<text text-anchor="middle" x="719.5" y="-454.5" font-family="Helvetica,sans-Serif" font-size="10.00">include/utils.h</text>
</a>
</g>
</g>
<!-- Node2 -->
<g id="node2" class="node">
<title>Node2</title>
<g id="a_node2"><a xlink:href="stations_8h.html" target="_top" xlink:title=" ">
<polygon fill="none" stroke="black" points="269.5,-263 269.5,-282 387.5,-282 387.5,-263 269.5,-263"/>
<text text-anchor="middle" x="328.5" y="-270" font-family="Helvetica,sans-Serif" font-size="10.00">include/BOM/stations.h</text>
</a>
</g>
</g>
<!-- Node1&#45;&gt;Node2 -->
<g id="edge1" class="edge">
<title>Node1&#45;&gt;Node2</title>
<path fill="none" stroke="midnightblue" d="M670.88,-456.7C615.92,-455.52 525.27,-447.47 457.5,-411 396.97,-378.43 348.94,-306.77 333.64,-282.07"/>
<polygon fill="midnightblue" stroke="midnightblue" points="671,-460.21 681.05,-456.85 671.1,-453.21 671,-460.21"/>
</g>
<!-- Node7 -->
<g id="node7" class="node">
<title>Node7</title>
<g id="a_node7"><a xlink:href="harvest__areas_8h.html" target="_top" xlink:title=" ">
<polygon fill="none" stroke="black" points="675.5,-123.5 675.5,-153.5 785.5,-153.5 785.5,-123.5 675.5,-123.5"/>
<text text-anchor="start" x="683.5" y="-141.5" font-family="Helvetica,sans-Serif" font-size="10.00">include/FoodAuthority</text>
<text text-anchor="middle" x="730.5" y="-130.5" font-family="Helvetica,sans-Serif" font-size="10.00">/harvest_areas.h</text>
</a>
</g>
</g>
<!-- Node1&#45;&gt;Node7 -->
<g id="edge24" class="edge">
<title>Node1&#45;&gt;Node7</title>
<path fill="none" stroke="midnightblue" d="M671.26,-445.2C625.86,-432.21 560.38,-405.53 529.5,-355 506.79,-317.83 506.78,-294.76 528.5,-257 531.02,-252.61 652.29,-183.71 705.69,-153.5"/>
<polygon fill="midnightblue" stroke="midnightblue" points="670.62,-448.65 681.19,-447.91 672.47,-441.9 670.62,-448.65"/>
</g>
<!-- Node9 -->
<g id="node9" class="node">
<title>Node9</title>
<g id="a_node9"><a xlink:href="transform_8h.html" target="_top" xlink:title=" ">
<polygon fill="none" stroke="black" points="444,-196 444,-215 543,-215 543,-196 444,-196"/>
<text text-anchor="middle" x="493.5" y="-203" font-family="Helvetica,sans-Serif" font-size="10.00">include/transform.h</text>
</a>
</g>
</g>
<!-- Node1&#45;&gt;Node9 -->
<g id="edge69" class="edge">
<title>Node1&#45;&gt;Node9</title>
<path fill="none" stroke="midnightblue" d="M671.14,-453.22C612.09,-448.71 517.38,-437.45 495.5,-411 446.39,-351.64 479.1,-245.97 490.21,-215.16"/>
<polygon fill="midnightblue" stroke="midnightblue" points="671.13,-456.73 681.36,-453.96 671.64,-449.75 671.13,-456.73"/>
</g>
<!-- Node10 -->
<g id="node10" class="node">
<title>Node10</title>
<g id="a_node10"><a xlink:href="timeseries_8h.html" target="_top" xlink:title=" ">
<polygon fill="none" stroke="black" points="374,-129 374,-148 519,-148 519,-129 374,-129"/>
<text text-anchor="middle" x="446.5" y="-136" font-family="Helvetica,sans-Serif" font-size="10.00">include/IBM_EIS/timeseries.h</text>
</a>
</g>
</g>
<!-- Node1&#45;&gt;Node10 -->
<g id="edge29" class="edge">
<title>Node1&#45;&gt;Node10</title>
<path fill="none" stroke="midnightblue" d="M670.99,-455.04C545.43,-451.26 219.5,-432.57 219.5,-340.5 219.5,-340.5 219.5,-340.5 219.5,-271.5 219.5,-234.2 213.11,-216.36 239.5,-190 259.29,-170.23 327.96,-156.19 380.83,-148.02"/>
<polygon fill="midnightblue" stroke="midnightblue" points="671,-458.54 681.1,-455.33 671.2,-451.55 671,-458.54"/>
</g>
<!-- Node14 -->
<g id="node14" class="node">
<title>Node14</title>
<g id="a_node14"><a xlink:href="harvest__area_8h.html" target="_top" xlink:title=" ">
<polygon fill="none" stroke="black" points="729.5,-257.5 729.5,-287.5 839.5,-287.5 839.5,-257.5 729.5,-257.5"/>
<text text-anchor="start" x="737.5" y="-275.5" font-family="Helvetica,sans-Serif" font-size="10.00">include/FoodAuthority</text>
<text text-anchor="middle" x="784.5" y="-264.5" font-family="Helvetica,sans-Serif" font-size="10.00">/harvest_area.h</text>
</a>
</g>
</g>
<!-- Node1&#45;&gt;Node14 -->
<g id="edge19" class="edge">
<title>Node1&#45;&gt;Node14</title>
<path fill="none" stroke="midnightblue" d="M720.01,-437.06C721.36,-410.61 726.21,-361.61 743.5,-324 749.82,-310.25 760.76,-297.06 769.75,-287.61"/>
<polygon fill="midnightblue" stroke="midnightblue" points="716.51,-437.09 719.61,-447.22 723.5,-437.36 716.51,-437.09"/>
</g>
<!-- Node16 -->
<g id="node16" class="node">
<title>Node16</title>
<g id="a_node16"><a xlink:href="_i_b_m___e_i_s_2authenticate_8h.html" target="_top" xlink:title=" ">
<polygon fill="none" stroke="black" points="538,-330 538,-349 691,-349 691,-330 538,-330"/>
<text text-anchor="middle" x="614.5" y="-337" font-family="Helvetica,sans-Serif" font-size="10.00">include/IBM_EIS/authenticate.h</text>
</a>
</g>
</g>
<!-- Node1&#45;&gt;Node16 -->
<g id="edge25" class="edge">
<title>Node1&#45;&gt;Node16</title>
<path fill="none" stroke="midnightblue" d="M704.79,-439.82C682.29,-415.06 640.05,-368.61 622.48,-349.28"/>
<polygon fill="midnightblue" stroke="midnightblue" points="702.29,-442.27 711.61,-447.32 707.47,-437.56 702.29,-442.27"/>
</g>
<!-- Node18 -->
<g id="node18" class="node">
<title>Node18</title>
<g id="a_node18"><a xlink:href="devices_8h.html" target="_top" xlink:title=" ">
<polygon fill="none" stroke="black" points="1423.5,-263 1423.5,-282 1551.5,-282 1551.5,-263 1423.5,-263"/>
<text text-anchor="middle" x="1487.5" y="-270" font-family="Helvetica,sans-Serif" font-size="10.00">include/Ubidots/devices.h</text>
</a>
</g>
</g>
<!-- Node1&#45;&gt;Node18 -->
<g id="edge30" class="edge">
<title>Node1&#45;&gt;Node18</title>
<path fill="none" stroke="midnightblue" d="M767.68,-453.95C939.79,-446.14 1516.86,-415.58 1570.5,-355 1595.47,-326.8 1540.01,-296.43 1508.05,-282.02"/>
<polygon fill="midnightblue" stroke="midnightblue" points="767.48,-450.46 757.65,-454.4 767.8,-457.45 767.48,-450.46"/>
</g>
<!-- Node20 -->
<g id="node20" class="node">
<title>Node20</title>
<g id="a_node20"><a xlink:href="location_8h.html" target="_top" xlink:title=" ">
<polygon fill="none" stroke="black" points="1012,-257.5 1012,-287.5 1119,-287.5 1119,-257.5 1012,-257.5"/>
<text text-anchor="start" x="1020" y="-275.5" font-family="Helvetica,sans-Serif" font-size="10.00">include/WillyWeather</text>
<text text-anchor="middle" x="1065.5" y="-264.5" font-family="Helvetica,sans-Serif" font-size="10.00">/location.h</text>
</a>
</g>
</g>
<!-- Node1&#45;&gt;Node20 -->
<g id="edge33" class="edge">
<title>Node1&#45;&gt;Node20</title>
<path fill="none" stroke="midnightblue" d="M744.64,-442.74C807.98,-409.33 973.67,-321.94 1038.72,-287.62"/>
<polygon fill="midnightblue" stroke="midnightblue" points="742.94,-439.68 735.72,-447.44 746.2,-445.87 742.94,-439.68"/>
</g>
<!-- Node21 -->
<g id="node21" class="node">
<title>Node21</title>
<g id="a_node21"><a xlink:href="precipitation_8h.html" target="_top" xlink:title=" ">
<polygon fill="none" stroke="black" points="974,-190.5 974,-220.5 1081,-220.5 1081,-190.5 974,-190.5"/>
<text text-anchor="start" x="982" y="-208.5" font-family="Helvetica,sans-Serif" font-size="10.00">include/WillyWeather</text>
<text text-anchor="middle" x="1027.5" y="-197.5" font-family="Helvetica,sans-Serif" font-size="10.00">/precipitation.h</text>
</a>
</g>
</g>
<!-- Node1&#45;&gt;Node21 -->
<g id="edge43" class="edge">
<title>Node1&#45;&gt;Node21</title>
<path fill="none" stroke="midnightblue" d="M738.01,-441.01C793.26,-396.25 956.48,-264.03 1010.17,-220.54"/>
<polygon fill="midnightblue" stroke="midnightblue" points="735.67,-438.4 730.1,-447.41 740.08,-443.84 735.67,-438.4"/>
</g>
<!-- Node23 -->
<g id="node23" class="node">
<title>Node23</title>
<g id="a_node23"><a xlink:href="tide_8h.html" target="_top" xlink:title=" ">
<polygon fill="none" stroke="black" points="1335,-190.5 1335,-220.5 1442,-220.5 1442,-190.5 1335,-190.5"/>
<text text-anchor="start" x="1343" y="-208.5" font-family="Helvetica,sans-Serif" font-size="10.00">include/WillyWeather</text>
<text text-anchor="middle" x="1388.5" y="-197.5" font-family="Helvetica,sans-Serif" font-size="10.00">/tide.h</text>
</a>
</g>
</g>
<!-- Node1&#45;&gt;Node23 -->
<g id="edge44" class="edge">
<title>Node1&#45;&gt;Node23</title>
<path fill="none" stroke="midnightblue" d="M767.94,-456.77C953.38,-458.47 1612.64,-452.74 1710.5,-288 1717.54,-276.15 1719.46,-267.47 1710.5,-257 1701.83,-246.87 1531.35,-224.28 1442.05,-213.07"/>
<polygon fill="midnightblue" stroke="midnightblue" points="767.72,-453.27 757.69,-456.66 767.65,-460.26 767.72,-453.27"/>
</g>
<!-- Node26 -->
<g id="node26" class="node">
<title>Node26</title>
<g id="a_node26"><a xlink:href="ftp_8h.html" target="_top" xlink:title=" ">
<polygon fill="none" stroke="black" points="109,-330 109,-349 178,-349 178,-330 109,-330"/>
<text text-anchor="middle" x="143.5" y="-337" font-family="Helvetica,sans-Serif" font-size="10.00">include/ftp.h</text>
</a>
</g>
</g>
<!-- Node1&#45;&gt;Node26 -->
<g id="edge45" class="edge">
<title>Node1&#45;&gt;Node26</title>
<path fill="none" stroke="midnightblue" d="M670.89,-456.29C558.89,-456.24 286.13,-451.79 205.5,-411 177.87,-397.02 157.1,-364.96 148.23,-349.35"/>
<polygon fill="midnightblue" stroke="midnightblue" points="671.21,-459.79 681.21,-456.28 671.21,-452.79 671.21,-459.79"/>
</g>
<!-- Node28 -->
<g id="node28" class="node">
<title>Node28</title>
<g id="a_node28"><a xlink:href="http_8h.html" target="_top" xlink:title=" ">
<polygon fill="none" stroke="black" points="1028.5,-391.5 1028.5,-410.5 1102.5,-410.5 1102.5,-391.5 1028.5,-391.5"/>
<text text-anchor="middle" x="1065.5" y="-398.5" font-family="Helvetica,sans-Serif" font-size="10.00">include/http.h</text>
</a>
</g>
</g>
<!-- Node1&#45;&gt;Node28 -->
<g id="edge50" class="edge">
<title>Node1&#45;&gt;Node28</title>
<path fill="none" stroke="midnightblue" d="M767.81,-448.46C837.7,-437.55 965.52,-417.6 1028.47,-407.78"/>
<polygon fill="midnightblue" stroke="midnightblue" points="766.86,-445.07 757.52,-450.07 767.94,-451.98 766.86,-445.07"/>
</g>
<!-- Node34 -->
<g id="node34" class="node">
<title>Node34</title>
<g id="a_node34"><a xlink:href="utils_8c.html" target="_top" xlink:title=" ">
<polygon fill="none" stroke="black" points="1758,-391.5 1758,-410.5 1817,-410.5 1817,-391.5 1758,-391.5"/>
<text text-anchor="middle" x="1787.5" y="-398.5" font-family="Helvetica,sans-Serif" font-size="10.00">src/utils.c</text>
</a>
</g>
</g>
<!-- Node1&#45;&gt;Node34 -->
<g id="edge70" class="edge">
<title>Node1&#45;&gt;Node34</title>
<path fill="none" stroke="midnightblue" d="M767.86,-456.58C915.02,-457.75 1370.1,-457.1 1743.5,-411 1748.14,-410.43 1753.03,-409.63 1757.78,-408.74"/>
<polygon fill="midnightblue" stroke="midnightblue" points="767.83,-453.07 757.8,-456.49 767.77,-460.07 767.83,-453.07"/>
</g>
<!-- Node3 -->
<g id="node3" class="node">
<title>Node3</title>
<g id="a_node3"><a xlink:href="historical__weather_8h.html" target="_top" xlink:title=" ">
<polygon fill="none" stroke="black" points="0,-123.5 0,-153.5 115,-153.5 115,-123.5 0,-123.5"/>
<text text-anchor="start" x="8" y="-141.5" font-family="Helvetica,sans-Serif" font-size="10.00">include/BOM/historical</text>
<text text-anchor="middle" x="57.5" y="-130.5" font-family="Helvetica,sans-Serif" font-size="10.00">_weather.h</text>
</a>
</g>
</g>
<!-- Node2&#45;&gt;Node3 -->
<g id="edge2" class="edge">
<title>Node2&#45;&gt;Node3</title>
<path fill="none" stroke="midnightblue" d="M301.59,-258.39C250.34,-233.43 139.14,-179.27 86.39,-153.57"/>
<polygon fill="midnightblue" stroke="midnightblue" points="300.2,-261.61 310.72,-262.84 303.26,-255.31 300.2,-261.61"/>
</g>
<!-- Node4 -->
<g id="node4" class="node">
<title>Node4</title>
<g id="a_node4"><a xlink:href="main_8h.html" target="_top" xlink:title=" ">
<polygon fill="none" stroke="black" points="793,-62 793,-81 872,-81 872,-62 793,-62"/>
<text text-anchor="middle" x="832.5" y="-69" font-family="Helvetica,sans-Serif" font-size="10.00">include/main.h</text>
</a>
</g>
</g>
<!-- Node2&#45;&gt;Node4 -->
<g id="edge9" class="edge">
<title>Node2&#45;&gt;Node4</title>
<path fill="none" stroke="midnightblue" d="M341.34,-254.46C347.68,-245.09 354.75,-232.97 358.5,-221 371.56,-179.33 334.85,-154.1 365.5,-123 398.22,-89.8 737.69,-95.66 783.5,-87 791.35,-85.52 799.73,-83.28 807.31,-81.01"/>
<polygon fill="midnightblue" stroke="midnightblue" points="338.35,-252.63 335.4,-262.8 344.05,-256.69 338.35,-252.63"/>
</g>
<!-- Node2&#45;&gt;Node7 -->
<g id="edge6" class="edge">
<title>Node2&#45;&gt;Node7</title>
<path fill="none" stroke="midnightblue" d="M397.69,-263.25C443.17,-256.08 503.16,-243.22 552.5,-221 573.98,-211.32 574.73,-201.11 595.5,-190 623.63,-174.95 657.23,-162.36 683.87,-153.52"/>
<polygon fill="midnightblue" stroke="midnightblue" points="397,-259.81 387.64,-264.78 398.05,-266.73 397,-259.81"/>
</g>
<!-- Node2&#45;&gt;Node9 -->
<g id="edge10" class="edge">
<title>Node2&#45;&gt;Node9</title>
<path fill="none" stroke="midnightblue" d="M359.97,-259.1C392.73,-246.2 443.17,-226.33 471.76,-215.06"/>
<polygon fill="midnightblue" stroke="midnightblue" points="358.43,-255.95 350.41,-262.87 361,-262.46 358.43,-255.95"/>
</g>
<!-- Node13 -->
<g id="node13" class="node">
<title>Node13</title>
<g id="a_node13"><a xlink:href="stations_8c.html" target="_top" xlink:title=" ">
<polygon fill="none" stroke="black" points="248,-196 248,-215 349,-215 349,-196 248,-196"/>
<text text-anchor="middle" x="298.5" y="-203" font-family="Helvetica,sans-Serif" font-size="10.00">src/BOM/stations.c</text>
</a>
</g>
</g>
<!-- Node2&#45;&gt;Node13 -->
<g id="edge18" class="edge">
<title>Node2&#45;&gt;Node13</title>
<path fill="none" stroke="midnightblue" d="M320.1,-253.29C314.33,-240.81 306.95,-224.81 302.48,-215.13"/>
<polygon fill="midnightblue" stroke="midnightblue" points="317.09,-255.12 324.45,-262.73 323.44,-252.19 317.09,-255.12"/>
</g>
<!-- Node3&#45;&gt;Node4 -->
<g id="edge3" class="edge">
<title>Node3&#45;&gt;Node4</title>
<path fill="none" stroke="midnightblue" d="M125.07,-123.6C126.56,-123.39 128.04,-123.19 129.5,-123 418.27,-86.17 496.66,-136.64 783.5,-87 791.54,-85.61 800.13,-83.34 807.84,-81.01"/>
<polygon fill="midnightblue" stroke="midnightblue" points="124.5,-120.14 115.15,-125.13 125.57,-127.06 124.5,-120.14"/>
</g>
<!-- Node6 -->
<g id="node6" class="node">
<title>Node6</title>
<g id="a_node6"><a xlink:href="historical__weather_8c.html" target="_top" xlink:title=" ">
<polygon fill="none" stroke="black" points="8.5,-56.5 8.5,-86.5 106.5,-86.5 106.5,-56.5 8.5,-56.5"/>
<text text-anchor="start" x="16.5" y="-74.5" font-family="Helvetica,sans-Serif" font-size="10.00">src/BOM/historical</text>
<text text-anchor="middle" x="57.5" y="-63.5" font-family="Helvetica,sans-Serif" font-size="10.00">_weather.c</text>
</a>
</g>
</g>
<!-- Node3&#45;&gt;Node6 -->
<g id="edge5" class="edge">
<title>Node3&#45;&gt;Node6</title>
<path fill="none" stroke="midnightblue" d="M57.5,-113.11C57.5,-104.15 57.5,-94.32 57.5,-86.58"/>
<polygon fill="midnightblue" stroke="midnightblue" points="54,-113.4 57.5,-123.4 61,-113.4 54,-113.4"/>
</g>
<!-- Node5 -->
<g id="node5" class="node">
<title>Node5</title>
<g id="a_node5"><a xlink:href="main_8c.html" target="_top" xlink:title=" ">
<polygon fill="none" stroke="black" points="801.5,-0.5 801.5,-19.5 863.5,-19.5 863.5,-0.5 801.5,-0.5"/>
<text text-anchor="middle" x="832.5" y="-7.5" font-family="Helvetica,sans-Serif" font-size="10.00">src/main.c</text>
</a>
</g>
</g>
<!-- Node4&#45;&gt;Node5 -->
<g id="edge4" class="edge">
<title>Node4&#45;&gt;Node5</title>
<path fill="none" stroke="midnightblue" d="M832.5,-51.82C832.5,-41 832.5,-27.9 832.5,-19.51"/>
<polygon fill="midnightblue" stroke="midnightblue" points="829,-51.98 832.5,-61.98 836,-51.98 829,-51.98"/>
</g>
<!-- Node7&#45;&gt;Node4 -->
<g id="edge7" class="edge">
<title>Node7&#45;&gt;Node4</title>
<path fill="none" stroke="midnightblue" d="M761.14,-117.97C780.48,-105.65 804.5,-90.35 819.15,-81.01"/>
<polygon fill="midnightblue" stroke="midnightblue" points="759.18,-115.07 752.63,-123.4 762.95,-120.97 759.18,-115.07"/>
</g>
<!-- Node8 -->
<g id="node8" class="node">
<title>Node8</title>
<g id="a_node8"><a xlink:href="harvest__areas_8c.html" target="_top" xlink:title=" ">
<polygon fill="none" stroke="black" points="646.5,-56.5 646.5,-86.5 774.5,-86.5 774.5,-56.5 646.5,-56.5"/>
<text text-anchor="start" x="654.5" y="-74.5" font-family="Helvetica,sans-Serif" font-size="10.00">src/FoodAuthority/harvest</text>
<text text-anchor="middle" x="710.5" y="-63.5" font-family="Helvetica,sans-Serif" font-size="10.00">_areas.c</text>
</a>
</g>
</g>
<!-- Node7&#45;&gt;Node8 -->
<g id="edge8" class="edge">
<title>Node7&#45;&gt;Node8</title>
<path fill="none" stroke="midnightblue" d="M723.18,-113.7C720.37,-104.59 717.27,-94.49 714.83,-86.58"/>
<polygon fill="midnightblue" stroke="midnightblue" points="719.87,-114.87 726.16,-123.4 726.56,-112.81 719.87,-114.87"/>
</g>
<!-- Node9&#45;&gt;Node3 -->
<g id="edge11" class="edge">
<title>Node9&#45;&gt;Node3</title>
<path fill="none" stroke="midnightblue" d="M433.78,-195.6C349.89,-183.09 198.18,-160.47 115.33,-148.12"/>
<polygon fill="midnightblue" stroke="midnightblue" points="433.5,-199.09 443.91,-197.11 434.54,-192.17 433.5,-199.09"/>
</g>
<!-- Node9&#45;&gt;Node4 -->
<g id="edge16" class="edge">
<title>Node9&#45;&gt;Node4</title>
<path fill="none" stroke="midnightblue" d="M534.53,-193C562.11,-184.36 598.73,-171.09 628.5,-154 647.4,-143.15 647.27,-133.25 666.5,-123 669.62,-121.34 757.22,-95.02 803.87,-81.06"/>
<polygon fill="midnightblue" stroke="midnightblue" points="533.34,-189.7 524.8,-195.97 535.39,-196.4 533.34,-189.7"/>
</g>
<!-- Node9&#45;&gt;Node7 -->
<g id="edge12" class="edge">
<title>Node9&#45;&gt;Node7</title>
<path fill="none" stroke="midnightblue" d="M534.71,-193.2C574.88,-182.18 636.09,-165.39 679.35,-153.53"/>
<polygon fill="midnightblue" stroke="midnightblue" points="533.69,-189.85 524.97,-195.87 535.54,-196.6 533.69,-189.85"/>
</g>
<!-- Node9&#45;&gt;Node10 -->
<g id="edge13" class="edge">
<title>Node9&#45;&gt;Node10</title>
<path fill="none" stroke="midnightblue" d="M481.14,-187.4C472.01,-174.77 459.95,-158.1 452.74,-148.13"/>
<polygon fill="midnightblue" stroke="midnightblue" points="478.47,-189.68 487.16,-195.73 484.14,-185.58 478.47,-189.68"/>
</g>
<!-- Node12 -->
<g id="node12" class="node">
<title>Node12</title>
<g id="a_node12"><a xlink:href="transform_8c.html" target="_top" xlink:title=" ">
<polygon fill="none" stroke="black" points="537.5,-129 537.5,-148 619.5,-148 619.5,-129 537.5,-129"/>
<text text-anchor="middle" x="578.5" y="-136" font-family="Helvetica,sans-Serif" font-size="10.00">src/transform.c</text>
</a>
</g>
</g>
<!-- Node9&#45;&gt;Node12 -->
<g id="edge17" class="edge">
<title>Node9&#45;&gt;Node12</title>
<path fill="none" stroke="midnightblue" d="M513.03,-189.57C529.8,-176.74 553.41,-158.69 567.22,-148.13"/>
<polygon fill="midnightblue" stroke="midnightblue" points="510.78,-186.88 504.96,-195.73 515.03,-192.44 510.78,-186.88"/>
</g>
<!-- Node10&#45;&gt;Node4 -->
<g id="edge14" class="edge">
<title>Node10&#45;&gt;Node4</title>
<path fill="none" stroke="midnightblue" d="M503.14,-127.22C511.63,-125.76 520.29,-124.3 528.5,-123 641.54,-105.03 671.65,-111.3 783.5,-87 790.96,-85.38 798.93,-83.21 806.24,-81.05"/>
<polygon fill="midnightblue" stroke="midnightblue" points="502.54,-123.77 493.29,-128.94 503.74,-130.67 502.54,-123.77"/>
</g>
<!-- Node11 -->
<g id="node11" class="node">
<title>Node11</title>
<g id="a_node11"><a xlink:href="timeseries_8c.html" target="_top" xlink:title=" ">
<polygon fill="none" stroke="black" points="382.5,-62 382.5,-81 510.5,-81 510.5,-62 382.5,-62"/>
<text text-anchor="middle" x="446.5" y="-69" font-family="Helvetica,sans-Serif" font-size="10.00">src/IBM_EIS/timeseries.c</text>
</a>
</g>
</g>
<!-- Node10&#45;&gt;Node11 -->
<g id="edge15" class="edge">
<title>Node10&#45;&gt;Node11</title>
<path fill="none" stroke="midnightblue" d="M446.5,-118.54C446.5,-106.17 446.5,-90.62 446.5,-81.13"/>
<polygon fill="midnightblue" stroke="midnightblue" points="443,-118.73 446.5,-128.73 450,-118.73 443,-118.73"/>
</g>
<!-- Node14&#45;&gt;Node4 -->
<g id="edge21" class="edge">
<title>Node14&#45;&gt;Node4</title>
<path fill="none" stroke="midnightblue" d="M822,-251.83C833.28,-243.88 844.29,-233.58 850.5,-221 874.42,-172.57 847.59,-104.81 836.68,-81.1"/>
<polygon fill="midnightblue" stroke="midnightblue" points="819.87,-249.05 813.41,-257.45 823.7,-254.91 819.87,-249.05"/>
</g>
<!-- Node14&#45;&gt;Node7 -->
<g id="edge20" class="edge">
<title>Node14&#45;&gt;Node7</title>
<path fill="none" stroke="midnightblue" d="M737.66,-252.53C724.57,-244.8 711.91,-234.44 704.5,-221 692.38,-199.02 707.59,-170.54 719.33,-153.72"/>
<polygon fill="midnightblue" stroke="midnightblue" points="736.27,-255.76 746.73,-257.47 739.62,-249.61 736.27,-255.76"/>
</g>
<!-- Node14&#45;&gt;Node9 -->
<g id="edge22" class="edge">
<title>Node14&#45;&gt;Node9</title>
<path fill="none" stroke="midnightblue" d="M719.66,-257.02C661.92,-244.12 579.41,-225.69 531.66,-215.02"/>
<polygon fill="midnightblue" stroke="midnightblue" points="718.9,-260.43 729.42,-259.2 720.43,-253.6 718.9,-260.43"/>
</g>
<!-- Node15 -->
<g id="node15" class="node">
<title>Node15</title>
<g id="a_node15"><a xlink:href="harvest__area_8c.html" target="_top" xlink:title=" ">
<polygon fill="none" stroke="black" points="713.5,-190.5 713.5,-220.5 841.5,-220.5 841.5,-190.5 713.5,-190.5"/>
<text text-anchor="start" x="721.5" y="-208.5" font-family="Helvetica,sans-Serif" font-size="10.00">src/FoodAuthority/harvest</text>
<text text-anchor="middle" x="777.5" y="-197.5" font-family="Helvetica,sans-Serif" font-size="10.00">_area.c</text>
</a>
</g>
</g>
<!-- Node14&#45;&gt;Node15 -->
<g id="edge23" class="edge">
<title>Node14&#45;&gt;Node15</title>
<path fill="none" stroke="midnightblue" d="M781.9,-247.4C780.93,-238.37 779.86,-228.41 779.02,-220.58"/>
<polygon fill="midnightblue" stroke="midnightblue" points="778.43,-247.83 782.98,-257.4 785.39,-247.08 778.43,-247.83"/>
</g>
<!-- Node16&#45;&gt;Node4 -->
<g id="edge27" class="edge">
<title>Node16&#45;&gt;Node4</title>
<path fill="none" stroke="midnightblue" d="M641.37,-324.74C655.68,-316.08 672.38,-303.57 682.5,-288 706.83,-250.57 675.55,-223.98 704.5,-190 732.44,-157.2 763.2,-183.6 794.5,-154 816.28,-133.4 826.76,-97.86 830.65,-81.37"/>
<polygon fill="midnightblue" stroke="midnightblue" points="639.34,-321.87 632.4,-329.88 642.82,-327.95 639.34,-321.87"/>
</g>
<!-- Node16&#45;&gt;Node10 -->
<g id="edge26" class="edge">
<title>Node16&#45;&gt;Node10</title>
<path fill="none" stroke="midnightblue" d="M576.69,-326.48C533.23,-310.34 464.19,-277.02 435.5,-221 423.14,-196.85 435.18,-163.66 442.22,-148.14"/>
<polygon fill="midnightblue" stroke="midnightblue" points="575.76,-329.86 586.35,-329.94 578.12,-323.27 575.76,-329.86"/>
</g>
<!-- Node17 -->
<g id="node17" class="node">
<title>Node17</title>
<g id="a_node17"><a xlink:href="_i_b_m___e_i_s_2authenticate_8c.html" target="_top" xlink:title=" ">
<polygon fill="none" stroke="black" points="537.5,-263 537.5,-282 673.5,-282 673.5,-263 537.5,-263"/>
<text text-anchor="middle" x="605.5" y="-270" font-family="Helvetica,sans-Serif" font-size="10.00">src/IBM_EIS/authenticate.c</text>
</a>
</g>
</g>
<!-- Node16&#45;&gt;Node17 -->
<g id="edge28" class="edge">
<title>Node16&#45;&gt;Node17</title>
<path fill="none" stroke="midnightblue" d="M611.87,-319.54C610.16,-307.17 608.01,-291.62 606.69,-282.13"/>
<polygon fill="midnightblue" stroke="midnightblue" points="608.45,-320.31 613.29,-329.73 615.38,-319.35 608.45,-320.31"/>
</g>
<!-- Node18&#45;&gt;Node4 -->
<g id="edge31" class="edge">
<title>Node18&#45;&gt;Node4</title>
<path fill="none" stroke="midnightblue" d="M1491.68,-252.73C1497.54,-220.94 1503.86,-156.7 1468.5,-123 1425.35,-81.88 1005.13,-74.21 872.44,-72.81"/>
<polygon fill="midnightblue" stroke="midnightblue" points="1488.19,-252.36 1489.63,-262.85 1495.05,-253.75 1488.19,-252.36"/>
</g>
<!-- Node19 -->
<g id="node19" class="node">
<title>Node19</title>
<g id="a_node19"><a xlink:href="devices_8c.html" target="_top" xlink:title=" ">
<polygon fill="none" stroke="black" points="1516,-196 1516,-215 1627,-215 1627,-196 1516,-196"/>
<text text-anchor="middle" x="1571.5" y="-203" font-family="Helvetica,sans-Serif" font-size="10.00">src/Ubidots/devices.c</text>
</a>
</g>
</g>
<!-- Node18&#45;&gt;Node19 -->
<g id="edge32" class="edge">
<title>Node18&#45;&gt;Node19</title>
<path fill="none" stroke="midnightblue" d="M1506.8,-256.57C1523.38,-243.74 1546.71,-225.69 1560.35,-215.13"/>
<polygon fill="midnightblue" stroke="midnightblue" points="1504.6,-253.85 1498.83,-262.73 1508.88,-259.38 1504.6,-253.85"/>
</g>
<!-- Node20&#45;&gt;Node7 -->
<g id="edge34" class="edge">
<title>Node20&#45;&gt;Node7</title>
<path fill="none" stroke="midnightblue" d="M1082.93,-248.8C1094.37,-230.96 1104.81,-206.45 1090.5,-190 1051.68,-145.35 876.6,-139.02 785.69,-138.82"/>
<polygon fill="midnightblue" stroke="midnightblue" points="1079.76,-247.22 1076.98,-257.45 1085.53,-251.19 1079.76,-247.22"/>
</g>
<!-- Node20&#45;&gt;Node9 -->
<g id="edge41" class="edge">
<title>Node20&#45;&gt;Node9</title>
<path fill="none" stroke="midnightblue" d="M1001.89,-264.27C886.94,-251.21 646.94,-223.94 543.12,-212.14"/>
<polygon fill="midnightblue" stroke="midnightblue" points="1001.61,-267.76 1011.94,-265.41 1002.4,-260.81 1001.61,-267.76"/>
</g>
<!-- Node20&#45;&gt;Node21 -->
<g id="edge35" class="edge">
<title>Node20&#45;&gt;Node21</title>
<path fill="none" stroke="midnightblue" d="M1052.1,-248.58C1046.64,-239.24 1040.51,-228.75 1035.73,-220.58"/>
<polygon fill="midnightblue" stroke="midnightblue" points="1049.19,-250.53 1057.25,-257.4 1055.23,-247 1049.19,-250.53"/>
</g>
<!-- Node20&#45;&gt;Node23 -->
<g id="edge38" class="edge">
<title>Node20&#45;&gt;Node23</title>
<path fill="none" stroke="midnightblue" d="M1129.33,-258.66C1189.43,-246.56 1278.44,-228.65 1334.94,-217.28"/>
<polygon fill="midnightblue" stroke="midnightblue" points="1128.31,-255.29 1119.2,-260.69 1129.69,-262.15 1128.31,-255.29"/>
</g>
<!-- Node25 -->
<g id="node25" class="node">
<title>Node25</title>
<g id="a_node25"><a xlink:href="location_8c.html" target="_top" xlink:title=" ">
<polygon fill="none" stroke="black" points="1137.5,-196 1137.5,-215 1271.5,-215 1271.5,-196 1137.5,-196"/>
<text text-anchor="middle" x="1204.5" y="-203" font-family="Helvetica,sans-Serif" font-size="10.00">src/WillyWeather/location.c</text>
</a>
</g>
</g>
<!-- Node20&#45;&gt;Node25 -->
<g id="edge42" class="edge">
<title>Node20&#45;&gt;Node25</title>
<path fill="none" stroke="midnightblue" d="M1104.78,-253.13C1131.53,-240.62 1165.71,-224.64 1186.31,-215.01"/>
<polygon fill="midnightblue" stroke="midnightblue" points="1103.24,-249.99 1095.66,-257.4 1106.2,-256.33 1103.24,-249.99"/>
</g>
<!-- Node21&#45;&gt;Node4 -->
<g id="edge36" class="edge">
<title>Node21&#45;&gt;Node4</title>
<path fill="none" stroke="midnightblue" d="M1013.03,-181.52C1000.69,-163.51 981.48,-138.93 959.5,-123 931.25,-102.54 893.57,-88.92 866.6,-81.04"/>
<polygon fill="midnightblue" stroke="midnightblue" points="1010.38,-183.86 1018.83,-190.25 1016.21,-179.99 1010.38,-183.86"/>
</g>
<!-- Node22 -->
<g id="node22" class="node">
<title>Node22</title>
<g id="a_node22"><a xlink:href="precipitation_8c.html" target="_top" xlink:title=" ">
<polygon fill="none" stroke="black" points="1011.5,-129 1011.5,-148 1163.5,-148 1163.5,-129 1011.5,-129"/>
<text text-anchor="middle" x="1087.5" y="-136" font-family="Helvetica,sans-Serif" font-size="10.00">src/WillyWeather/precipitation.c</text>
</a>
</g>
</g>
<!-- Node21&#45;&gt;Node22 -->
<g id="edge37" class="edge">
<title>Node21&#45;&gt;Node22</title>
<path fill="none" stroke="midnightblue" d="M1047.35,-183C1058.3,-171.13 1071.3,-157.05 1079.47,-148.19"/>
<polygon fill="midnightblue" stroke="midnightblue" points="1044.73,-180.67 1040.52,-190.4 1049.87,-185.42 1044.73,-180.67"/>
</g>
<!-- Node23&#45;&gt;Node4 -->
<g id="edge39" class="edge">
<title>Node23&#45;&gt;Node4</title>
<path fill="none" stroke="midnightblue" d="M1366.52,-183.4C1343.41,-161.7 1308.12,-130.11 1291.5,-123 1216.32,-90.84 969.49,-77.87 872.31,-73.92"/>
<polygon fill="midnightblue" stroke="midnightblue" points="1364.18,-186 1373.85,-190.33 1368.99,-180.92 1364.18,-186"/>
</g>
<!-- Node24 -->
<g id="node24" class="node">
<title>Node24</title>
<g id="a_node24"><a xlink:href="tide_8c.html" target="_top" xlink:title=" ">
<polygon fill="none" stroke="black" points="1343.5,-129 1343.5,-148 1459.5,-148 1459.5,-129 1343.5,-129"/>
<text text-anchor="middle" x="1401.5" y="-136" font-family="Helvetica,sans-Serif" font-size="10.00">src/WillyWeather/tide.c</text>
</a>
</g>
</g>
<!-- Node23&#45;&gt;Node24 -->
<g id="edge40" class="edge">
<title>Node23&#45;&gt;Node24</title>
<path fill="none" stroke="midnightblue" d="M1393.35,-180.25C1395.6,-169.02 1398.12,-156.38 1399.76,-148.19"/>
<polygon fill="midnightblue" stroke="midnightblue" points="1389.85,-179.9 1391.32,-190.4 1396.71,-181.28 1389.85,-179.9"/>
</g>
<!-- Node26&#45;&gt;Node2 -->
<g id="edge47" class="edge">
<title>Node26&#45;&gt;Node2</title>
<path fill="none" stroke="midnightblue" d="M177.84,-326.44C214.54,-313.54 271.79,-293.42 304.13,-282.06"/>
<polygon fill="midnightblue" stroke="midnightblue" points="176.34,-323.25 168.07,-329.87 178.66,-329.86 176.34,-323.25"/>
</g>
<!-- Node26&#45;&gt;Node3 -->
<g id="edge46" class="edge">
<title>Node26&#45;&gt;Node3</title>
<path fill="none" stroke="midnightblue" d="M103.16,-326.16C84.91,-318.34 65.08,-306.17 54.5,-288 29.33,-244.77 44.03,-181.78 52.63,-153.8"/>
<polygon fill="midnightblue" stroke="midnightblue" points="101.92,-329.44 112.51,-329.87 104.5,-322.93 101.92,-329.44"/>
</g>
<!-- Node26&#45;&gt;Node4 -->
<g id="edge48" class="edge">
<title>Node26&#45;&gt;Node4</title>
<path fill="none" stroke="midnightblue" d="M146.79,-319.78C153.07,-289.05 169.51,-227.56 205.5,-190 254.06,-139.32 280.68,-141.07 348.5,-123 535.96,-73.06 592.82,-122.71 783.5,-87 791.35,-85.53 799.73,-83.3 807.31,-81.03"/>
<polygon fill="midnightblue" stroke="midnightblue" points="143.28,-319.46 144.85,-329.94 150.16,-320.77 143.28,-319.46"/>
</g>
<!-- Node27 -->
<g id="node27" class="node">
<title>Node27</title>
<g id="a_node27"><a xlink:href="ftp_8c.html" target="_top" xlink:title=" ">
<polygon fill="none" stroke="black" points="63.5,-263 63.5,-282 115.5,-282 115.5,-263 63.5,-263"/>
<text text-anchor="middle" x="89.5" y="-270" font-family="Helvetica,sans-Serif" font-size="10.00">src/ftp.c</text>
</a>
</g>
</g>
<!-- Node26&#45;&gt;Node27 -->
<g id="edge49" class="edge">
<title>Node26&#45;&gt;Node27</title>
<path fill="none" stroke="midnightblue" d="M129.6,-321.77C119.07,-309.1 105.04,-292.2 96.67,-282.13"/>
<polygon fill="midnightblue" stroke="midnightblue" points="127.13,-324.28 136.22,-329.73 132.52,-319.81 127.13,-324.28"/>
</g>
<!-- Node28&#45;&gt;Node4 -->
<g id="edge67" class="edge">
<title>Node28&#45;&gt;Node4</title>
<path fill="none" stroke="midnightblue" d="M1112.75,-400.52C1203.06,-400.48 1405.83,-395.4 1570.5,-355 1662.52,-332.42 1767.5,-368.25 1767.5,-273.5 1767.5,-273.5 1767.5,-273.5 1767.5,-204.5 1767.5,-112.59 1050.04,-80.41 872.08,-73.85"/>
<polygon fill="midnightblue" stroke="midnightblue" points="1112.57,-397.02 1102.56,-400.5 1112.56,-404.02 1112.57,-397.02"/>
</g>
<!-- Node28&#45;&gt;Node7 -->
<g id="edge52" class="edge">
<title>Node28&#45;&gt;Node7</title>
<path fill="none" stroke="midnightblue" d="M1046.3,-384.87C1036.13,-376.5 1023.68,-365.66 1013.5,-355 949.02,-287.48 959.96,-243.57 883.5,-190 854.41,-169.62 816.52,-157.03 785.73,-149.52"/>
<polygon fill="midnightblue" stroke="midnightblue" points="1044.22,-387.7 1054.2,-391.26 1048.63,-382.25 1044.22,-387.7"/>
</g>
<!-- Node28&#45;&gt;Node10 -->
<g id="edge54" class="edge">
<title>Node28&#45;&gt;Node10</title>
<path fill="none" stroke="midnightblue" d="M1035.76,-387.18C1019.37,-379.28 999.22,-368.16 983.5,-355 965.45,-339.88 871.14,-201.33 850.5,-190 787.38,-155.36 599.76,-164.27 528.5,-154 516.62,-152.29 503.83,-150.16 491.96,-148.07"/>
<polygon fill="midnightblue" stroke="midnightblue" points="1034.38,-390.39 1044.92,-391.44 1037.33,-384.05 1034.38,-390.39"/>
</g>
<!-- Node28&#45;&gt;Node14 -->
<g id="edge51" class="edge">
<title>Node28&#45;&gt;Node14</title>
<path fill="none" stroke="midnightblue" d="M1018.28,-398.06C974.05,-394.41 907.47,-384.06 857.5,-355 828.76,-338.29 805.2,-306.34 793.17,-287.8"/>
<polygon fill="midnightblue" stroke="midnightblue" points="1018.23,-401.57 1028.46,-398.82 1018.75,-394.59 1018.23,-401.57"/>
</g>
<!-- Node28&#45;&gt;Node16 -->
<g id="edge53" class="edge">
<title>Node28&#45;&gt;Node16</title>
<path fill="none" stroke="midnightblue" d="M1018.27,-393.77C937.03,-383.05 770.77,-361.12 678.96,-349"/>
<polygon fill="midnightblue" stroke="midnightblue" points="1017.84,-397.24 1028.21,-395.08 1018.75,-390.3 1017.84,-397.24"/>
</g>
<!-- Node28&#45;&gt;Node18 -->
<g id="edge58" class="edge">
<title>Node28&#45;&gt;Node18</title>
<path fill="none" stroke="midnightblue" d="M1112.92,-395.98C1158.66,-390.8 1229.06,-379.38 1285.5,-355 1307.46,-345.51 1308.08,-334.65 1329.5,-324 1368.69,-304.51 1417.04,-290.36 1449.86,-282.08"/>
<polygon fill="midnightblue" stroke="midnightblue" points="1112.27,-392.53 1102.7,-397.07 1113.02,-399.49 1112.27,-392.53"/>
</g>
<!-- Node28&#45;&gt;Node20 -->
<g id="edge64" class="edge">
<title>Node28&#45;&gt;Node20</title>
<path fill="none" stroke="midnightblue" d="M1065.5,-381.11C1065.5,-355.63 1065.5,-310.81 1065.5,-287.89"/>
<polygon fill="midnightblue" stroke="midnightblue" points="1062,-381.31 1065.5,-391.31 1069,-381.31 1062,-381.31"/>
</g>
<!-- Node28&#45;&gt;Node21 -->
<g id="edge65" class="edge">
<title>Node28&#45;&gt;Node21</title>
<path fill="none" stroke="midnightblue" d="M1052.61,-383.23C1037.4,-362.29 1012.99,-324.74 1003.5,-288 1000.05,-274.66 1000.47,-270.44 1003.5,-257 1006.4,-244.12 1013,-230.67 1018.54,-220.9"/>
<polygon fill="midnightblue" stroke="midnightblue" points="1049.89,-385.45 1058.67,-391.38 1055.51,-381.27 1049.89,-385.45"/>
</g>
<!-- Node28&#45;&gt;Node23 -->
<g id="edge66" class="edge">
<title>Node28&#45;&gt;Node23</title>
<path fill="none" stroke="midnightblue" d="M1105.62,-388.62C1134.91,-380.05 1175.46,-367.65 1210.5,-355 1244.43,-342.75 1252.06,-337.52 1285.5,-324 1325.82,-307.69 1349.49,-322.09 1376.5,-288 1391.87,-268.61 1391.94,-238.21 1390.38,-220.53"/>
<polygon fill="midnightblue" stroke="midnightblue" points="1104.38,-385.33 1095.76,-391.48 1106.34,-392.05 1104.38,-385.33"/>
</g>
<!-- Node29 -->
<g id="node29" class="node">
<title>Node29</title>
<g id="a_node29"><a xlink:href="_ubidots_2authenticate_8h.html" target="_top" xlink:title=" ">
<polygon fill="none" stroke="black" points="1413.5,-330 1413.5,-349 1561.5,-349 1561.5,-330 1413.5,-330"/>
<text text-anchor="middle" x="1487.5" y="-337" font-family="Helvetica,sans-Serif" font-size="10.00">include/Ubidots/authenticate.h</text>
</a>
</g>
</g>
<!-- Node28&#45;&gt;Node29 -->
<g id="edge55" class="edge">
<title>Node28&#45;&gt;Node29</title>
<path fill="none" stroke="midnightblue" d="M1112.72,-394.35C1178.3,-386.37 1300.62,-370.96 1404.5,-355 1416.21,-353.2 1428.82,-351.09 1440.59,-349.04"/>
<polygon fill="midnightblue" stroke="midnightblue" points="1112.2,-390.89 1102.69,-395.57 1113.04,-397.84 1112.2,-390.89"/>
</g>
<!-- Node31 -->
<g id="node31" class="node">
<title>Node31</title>
<g id="a_node31"><a xlink:href="_willy_weather_2authenticate_8h.html" target="_top" xlink:title=" ">
<polygon fill="none" stroke="black" points="1094,-324.5 1094,-354.5 1201,-354.5 1201,-324.5 1094,-324.5"/>
<text text-anchor="start" x="1102" y="-342.5" font-family="Helvetica,sans-Serif" font-size="10.00">include/WillyWeather</text>
<text text-anchor="middle" x="1147.5" y="-331.5" font-family="Helvetica,sans-Serif" font-size="10.00">/authenticate.h</text>
</a>
</g>
</g>
<!-- Node28&#45;&gt;Node31 -->
<g id="edge59" class="edge">
<title>Node28&#45;&gt;Node31</title>
<path fill="none" stroke="midnightblue" d="M1085.53,-385.47C1098.51,-376.05 1115.33,-363.84 1128.17,-354.52"/>
<polygon fill="midnightblue" stroke="midnightblue" points="1083.29,-382.77 1077.25,-391.48 1087.4,-388.43 1083.29,-382.77"/>
</g>
<!-- Node33 -->
<g id="node33" class="node">
<title>Node33</title>
<g id="a_node33"><a xlink:href="http_8c.html" target="_top" xlink:title=" ">
<polygon fill="none" stroke="black" points="1338,-330 1338,-349 1395,-349 1395,-330 1338,-330"/>
<text text-anchor="middle" x="1366.5" y="-337" font-family="Helvetica,sans-Serif" font-size="10.00">src/http.c</text>
</a>
</g>
</g>
<!-- Node28&#45;&gt;Node33 -->
<g id="edge68" class="edge">
<title>Node28&#45;&gt;Node33</title>
<path fill="none" stroke="midnightblue" d="M1112.56,-393.99C1164.63,-386.84 1250.79,-373.49 1323.5,-355 1329.91,-353.37 1336.75,-351.25 1343.04,-349.13"/>
<polygon fill="midnightblue" stroke="midnightblue" points="1112.06,-390.53 1102.62,-395.34 1113,-397.46 1112.06,-390.53"/>
</g>
<!-- Node29&#45;&gt;Node18 -->
<g id="edge56" class="edge">
<title>Node29&#45;&gt;Node18</title>
<path fill="none" stroke="midnightblue" d="M1487.5,-319.54C1487.5,-307.17 1487.5,-291.62 1487.5,-282.13"/>
<polygon fill="midnightblue" stroke="midnightblue" points="1484,-319.73 1487.5,-329.73 1491,-319.73 1484,-319.73"/>
</g>
<!-- Node30 -->
<g id="node30" class="node">
<title>Node30</title>
<g id="a_node30"><a xlink:href="_ubidots_2authenticate_8c.html" target="_top" xlink:title=" ">
<polygon fill="none" stroke="black" points="1570,-263 1570,-282 1701,-282 1701,-263 1570,-263"/>
<text text-anchor="middle" x="1635.5" y="-270" font-family="Helvetica,sans-Serif" font-size="10.00">src/Ubidots/authenticate.c</text>
</a>
</g>
</g>
<!-- Node29&#45;&gt;Node30 -->
<g id="edge57" class="edge">
<title>Node29&#45;&gt;Node30</title>
<path fill="none" stroke="midnightblue" d="M1516.46,-325.78C1545.77,-312.91 1590.29,-293.35 1615.77,-282.17"/>
<polygon fill="midnightblue" stroke="midnightblue" points="1514.9,-322.64 1507.15,-329.87 1517.72,-329.05 1514.9,-322.64"/>
</g>
<!-- Node31&#45;&gt;Node4 -->
<g id="edge62" class="edge">
<title>Node31&#45;&gt;Node4</title>
<path fill="none" stroke="midnightblue" d="M1149.08,-314.4C1151.5,-296.39 1157.53,-272.33 1172.5,-257 1207.84,-220.79 1250.92,-262.05 1280.5,-221 1288.56,-209.82 1287.2,-202.04 1280.5,-190 1253.03,-140.64 1225.54,-142.44 1172.5,-123 1068.57,-84.9 936.73,-75.5 872.01,-73.21"/>
<polygon fill="midnightblue" stroke="midnightblue" points="1145.59,-314.13 1148.01,-324.44 1152.55,-314.87 1145.59,-314.13"/>
</g>
<!-- Node31&#45;&gt;Node20 -->
<g id="edge60" class="edge">
<title>Node31&#45;&gt;Node20</title>
<path fill="none" stroke="midnightblue" d="M1121.85,-318.17C1109.31,-308.23 1094.53,-296.51 1083.26,-287.58"/>
<polygon fill="midnightblue" stroke="midnightblue" points="1119.7,-320.93 1129.71,-324.4 1124.04,-315.44 1119.7,-320.93"/>
</g>
<!-- Node31&#45;&gt;Node23 -->
<g id="edge61" class="edge">
<title>Node31&#45;&gt;Node23</title>
<path fill="none" stroke="midnightblue" d="M1158.31,-315.47C1168.13,-297.02 1184.3,-271.84 1205.5,-257 1226.36,-242.4 1288.69,-227.03 1334.85,-217.13"/>
<polygon fill="midnightblue" stroke="midnightblue" points="1155.18,-313.92 1153.77,-324.42 1161.42,-317.09 1155.18,-313.92"/>
</g>
<!-- Node32 -->
<g id="node32" class="node">
<title>Node32</title>
<g id="a_node32"><a xlink:href="_willy_weather_2authenticate_8c.html" target="_top" xlink:title=" ">
<polygon fill="none" stroke="black" points="1214,-263 1214,-282 1367,-282 1367,-263 1214,-263"/>
<text text-anchor="middle" x="1290.5" y="-270" font-family="Helvetica,sans-Serif" font-size="10.00">src/WillyWeather/authenticate.c</text>
</a>
</g>
</g>
<!-- Node31&#45;&gt;Node32 -->
<g id="edge63" class="edge">
<title>Node31&#45;&gt;Node32</title>
<path fill="none" stroke="midnightblue" d="M1187.91,-320.13C1215.43,-307.62 1250.59,-291.64 1271.78,-282.01"/>
<polygon fill="midnightblue" stroke="midnightblue" points="1186.18,-317.07 1178.53,-324.4 1189.08,-323.44 1186.18,-317.07"/>
</g>
</g>
</svg>
