<?xml version="1.0" encoding="UTF-8" standalone="no"?>
<!DOCTYPE svg PUBLIC "-//W3C//DTD SVG 1.1//EN"
 "http://www.w3.org/Graphics/SVG/1.1/DTD/svg11.dtd">
<!-- Generated by graphviz version 2.49.3 (20211027.1534)
 -->
<!-- Title: include/utils.h Pages: 1 -->
<svg width="826pt" height="218pt"
 viewBox="0.00 0.00 826.00 218.00" xmlns="http://www.w3.org/2000/svg" xmlns:xlink="http://www.w3.org/1999/xlink">
<g id="graph0" class="graph" transform="scale(1 1) rotate(0) translate(4 214)">
<title>include/utils.h</title>
<!-- Node1 -->
<g id="node1" class="node">
<title>Node1</title>
<g id="a_node1"><a xlink:title=" ">
<polygon fill="#bfbfbf" stroke="black" points="452.5,-190.5 452.5,-209.5 528.5,-209.5 528.5,-190.5 452.5,-190.5"/>
<text text-anchor="middle" x="490.5" y="-197.5" font-family="Helvetica,sans-Serif" font-size="10.00">include/utils.h</text>
</a>
</g>
</g>
<!-- Node2 -->
<g id="node2" class="node">
<title>Node2</title>
<g id="a_node2"><a xlink:href="food__auth_8h.html" target="_top" xlink:title=" ">
<polygon fill="none" stroke="black" points="630.5,-123.5 630.5,-153.5 740.5,-153.5 740.5,-123.5 630.5,-123.5"/>
<text text-anchor="start" x="638.5" y="-141.5" font-family="Helvetica,sans-Serif" font-size="10.00">include/FoodAuthority</text>
<text text-anchor="middle" x="685.5" y="-130.5" font-family="Helvetica,sans-Serif" font-size="10.00">/food_auth.h</text>
</a>
</g>
</g>
<!-- Node1&#45;&gt;Node2 -->
<g id="edge1" class="edge">
<title>Node1&#45;&gt;Node2</title>
<path fill="none" stroke="midnightblue" d="M528.24,-187.48C560.04,-177.78 605.63,-163.87 639.54,-153.52"/>
<polygon fill="midnightblue" stroke="midnightblue" points="526.98,-184.21 518.44,-190.48 529.02,-190.9 526.98,-184.21"/>
</g>
<!-- Node6 -->
<g id="node6" class="node">
<title>Node6</title>
<g id="a_node6"><a xlink:href="authenticate_8h.html" target="_top" xlink:title=" ">
<polygon fill="none" stroke="black" points="16.5,-129 16.5,-148 174.5,-148 174.5,-129 16.5,-129"/>
<text text-anchor="middle" x="95.5" y="-136" font-family="Helvetica,sans-Serif" font-size="10.00">include/IBM_EMS/authenticate.h</text>
</a>
</g>
</g>
<!-- Node1&#45;&gt;Node6 -->
<g id="edge5" class="edge">
<title>Node1&#45;&gt;Node6</title>
<path fill="none" stroke="midnightblue" d="M442.15,-192.18C381.63,-183.59 274.82,-168.22 183.5,-154 171.41,-152.12 158.41,-150.02 146.2,-148.01"/>
<polygon fill="midnightblue" stroke="midnightblue" points="441.79,-195.67 452.18,-193.61 442.77,-188.74 441.79,-195.67"/>
</g>
<!-- Node8 -->
<g id="node8" class="node">
<title>Node8</title>
<g id="a_node8"><a xlink:href="timeseries_8h.html" target="_top" xlink:title=" ">
<polygon fill="none" stroke="black" points="192.5,-129 192.5,-148 342.5,-148 342.5,-129 192.5,-129"/>
<text text-anchor="middle" x="267.5" y="-136" font-family="Helvetica,sans-Serif" font-size="10.00">include/IBM_EMS/timeseries.h</text>
</a>
</g>
</g>
<!-- Node1&#45;&gt;Node8 -->
<g id="edge8" class="edge">
<title>Node1&#45;&gt;Node8</title>
<path fill="none" stroke="midnightblue" d="M448.88,-187.9C405.57,-176.34 338.69,-158.5 299.39,-148.01"/>
<polygon fill="midnightblue" stroke="midnightblue" points="447.99,-191.28 458.55,-190.48 449.79,-184.52 447.99,-191.28"/>
</g>
<!-- Node10 -->
<g id="node10" class="node">
<title>Node10</title>
<g id="a_node10"><a xlink:href="ubidots_8h.html" target="_top" xlink:title=" ">
<polygon fill="none" stroke="black" points="360.5,-129 360.5,-148 486.5,-148 486.5,-129 360.5,-129"/>
<text text-anchor="middle" x="423.5" y="-136" font-family="Helvetica,sans-Serif" font-size="10.00">include/Ubidots/ubidots.h</text>
</a>
</g>
</g>
<!-- Node1&#45;&gt;Node10 -->
<g id="edge11" class="edge">
<title>Node1&#45;&gt;Node10</title>
<path fill="none" stroke="midnightblue" d="M473.21,-183.65C460.44,-172.31 443.52,-157.28 433.08,-148.01"/>
<polygon fill="midnightblue" stroke="midnightblue" points="471.1,-186.45 480.9,-190.48 475.75,-181.22 471.1,-186.45"/>
</g>
<!-- Node12 -->
<g id="node12" class="node">
<title>Node12</title>
<g id="a_node12"><a xlink:href="w__weather_8h.html" target="_top" xlink:title=" ">
<polygon fill="none" stroke="black" points="505,-123.5 505,-153.5 612,-153.5 612,-123.5 505,-123.5"/>
<text text-anchor="start" x="513" y="-141.5" font-family="Helvetica,sans-Serif" font-size="10.00">include/WillyWeather</text>
<text text-anchor="middle" x="558.5" y="-130.5" font-family="Helvetica,sans-Serif" font-size="10.00">/w_weather.h</text>
</a>
</g>
</g>
<!-- Node1&#45;&gt;Node12 -->
<g id="edge14" class="edge">
<title>Node1&#45;&gt;Node12</title>
<path fill="none" stroke="midnightblue" d="M508.05,-183.65C518.68,-174.35 532.13,-162.57 542.47,-153.52"/>
<polygon fill="midnightblue" stroke="midnightblue" points="505.46,-181.26 500.24,-190.48 510.07,-186.52 505.46,-181.26"/>
</g>
<!-- Node14 -->
<g id="node14" class="node">
<title>Node14</title>
<g id="a_node14"><a xlink:href="utils_8c.html" target="_top" xlink:title=" ">
<polygon fill="none" stroke="black" points="759,-129 759,-148 818,-148 818,-129 759,-129"/>
<text text-anchor="middle" x="788.5" y="-136" font-family="Helvetica,sans-Serif" font-size="10.00">src/utils.c</text>
</a>
</g>
</g>
<!-- Node1&#45;&gt;Node14 -->
<g id="edge17" class="edge">
<title>Node1&#45;&gt;Node14</title>
<path fill="none" stroke="midnightblue" d="M538.75,-193.32C591.21,-186.52 677.22,-173.54 749.5,-154 755.5,-152.38 761.87,-150.21 767.68,-148.05"/>
<polygon fill="midnightblue" stroke="midnightblue" points="538.2,-189.86 528.72,-194.59 539.09,-196.8 538.2,-189.86"/>
</g>
<!-- Node3 -->
<g id="node3" class="node">
<title>Node3</title>
<g id="a_node3"><a xlink:href="main_8h.html" target="_top" xlink:title=" ">
<polygon fill="none" stroke="black" points="310,-62 310,-81 389,-81 389,-62 310,-62"/>
<text text-anchor="middle" x="349.5" y="-69" font-family="Helvetica,sans-Serif" font-size="10.00">include/main.h</text>
</a>
</g>
</g>
<!-- Node2&#45;&gt;Node3 -->
<g id="edge2" class="edge">
<title>Node2&#45;&gt;Node3</title>
<path fill="none" stroke="midnightblue" d="M620.55,-122.9C521.21,-104.21 493.33,-108.59 398.5,-87 391.15,-85.33 383.28,-83.16 376.04,-81.02"/>
<polygon fill="midnightblue" stroke="midnightblue" points="619.91,-126.34 630.39,-124.78 621.22,-119.47 619.91,-126.34"/>
</g>
<!-- Node5 -->
<g id="node5" class="node">
<title>Node5</title>
<g id="a_node5"><a xlink:href="food__auth_8c.html" target="_top" xlink:title=" ">
<polygon fill="none" stroke="black" points="653,-56.5 653,-86.5 768,-86.5 768,-56.5 653,-56.5"/>
<text text-anchor="start" x="661" y="-74.5" font-family="Helvetica,sans-Serif" font-size="10.00">src/FoodAuthority/food</text>
<text text-anchor="middle" x="710.5" y="-63.5" font-family="Helvetica,sans-Serif" font-size="10.00">_auth.c</text>
</a>
</g>
</g>
<!-- Node2&#45;&gt;Node5 -->
<g id="edge4" class="edge">
<title>Node2&#45;&gt;Node5</title>
<path fill="none" stroke="midnightblue" d="M694.54,-113.99C698.08,-104.8 702.01,-94.58 705.09,-86.58"/>
<polygon fill="midnightblue" stroke="midnightblue" points="691.25,-112.81 690.92,-123.4 697.78,-115.32 691.25,-112.81"/>
</g>
<!-- Node4 -->
<g id="node4" class="node">
<title>Node4</title>
<g id="a_node4"><a xlink:href="main_8c.html" target="_top" xlink:title=" ">
<polygon fill="none" stroke="black" points="318.5,-0.5 318.5,-19.5 380.5,-19.5 380.5,-0.5 318.5,-0.5"/>
<text text-anchor="middle" x="349.5" y="-7.5" font-family="Helvetica,sans-Serif" font-size="10.00">src/main.c</text>
</a>
</g>
</g>
<!-- Node3&#45;&gt;Node4 -->
<g id="edge3" class="edge">
<title>Node3&#45;&gt;Node4</title>
<path fill="none" stroke="midnightblue" d="M349.5,-51.82C349.5,-41 349.5,-27.9 349.5,-19.51"/>
<polygon fill="midnightblue" stroke="midnightblue" points="346,-51.98 349.5,-61.98 353,-51.98 346,-51.98"/>
</g>
<!-- Node6&#45;&gt;Node3 -->
<g id="edge6" class="edge">
<title>Node6&#45;&gt;Node3</title>
<path fill="none" stroke="midnightblue" d="M142.15,-126.66C183.81,-116.82 246.41,-101.66 300.5,-87 307.35,-85.14 314.7,-83.03 321.58,-81"/>
<polygon fill="midnightblue" stroke="midnightblue" points="141.22,-123.28 132.29,-128.98 142.83,-130.09 141.22,-123.28"/>
</g>
<!-- Node7 -->
<g id="node7" class="node">
<title>Node7</title>
<g id="a_node7"><a xlink:href="authenticate_8c.html" target="_top" xlink:title=" ">
<polygon fill="none" stroke="black" points="0,-62 0,-81 141,-81 141,-62 0,-62"/>
<text text-anchor="middle" x="70.5" y="-69" font-family="Helvetica,sans-Serif" font-size="10.00">src/IBM_EMS/authenticate.c</text>
</a>
</g>
</g>
<!-- Node6&#45;&gt;Node7 -->
<g id="edge7" class="edge">
<title>Node6&#45;&gt;Node7</title>
<path fill="none" stroke="midnightblue" d="M88.5,-119.29C83.7,-106.81 77.54,-90.81 73.82,-81.13"/>
<polygon fill="midnightblue" stroke="midnightblue" points="85.27,-120.66 92.13,-128.73 91.81,-118.14 85.27,-120.66"/>
</g>
<!-- Node8&#45;&gt;Node3 -->
<g id="edge9" class="edge">
<title>Node8&#45;&gt;Node3</title>
<path fill="none" stroke="midnightblue" d="M286.78,-122.21C302.94,-109.41 325.42,-91.59 338.62,-81.13"/>
<polygon fill="midnightblue" stroke="midnightblue" points="284.22,-119.78 278.56,-128.73 288.57,-125.26 284.22,-119.78"/>
</g>
<!-- Node9 -->
<g id="node9" class="node">
<title>Node9</title>
<g id="a_node9"><a xlink:href="timeseries_8c.html" target="_top" xlink:title=" ">
<polygon fill="none" stroke="black" points="159,-62 159,-81 292,-81 292,-62 159,-62"/>
<text text-anchor="middle" x="225.5" y="-69" font-family="Helvetica,sans-Serif" font-size="10.00">src/IBM_EMS/timeseries.c</text>
</a>
</g>
</g>
<!-- Node8&#45;&gt;Node9 -->
<g id="edge10" class="edge">
<title>Node8&#45;&gt;Node9</title>
<path fill="none" stroke="midnightblue" d="M256.21,-120.03C248.08,-107.45 237.46,-91.01 231.07,-81.13"/>
<polygon fill="midnightblue" stroke="midnightblue" points="253.47,-122.23 261.84,-128.73 259.35,-118.44 253.47,-122.23"/>
</g>
<!-- Node10&#45;&gt;Node3 -->
<g id="edge12" class="edge">
<title>Node10&#45;&gt;Node3</title>
<path fill="none" stroke="midnightblue" d="M405.69,-121.86C391.14,-109.08 371.12,-91.49 359.32,-81.13"/>
<polygon fill="midnightblue" stroke="midnightblue" points="403.7,-124.76 413.52,-128.73 408.32,-119.5 403.7,-124.76"/>
</g>
<!-- Node11 -->
<g id="node11" class="node">
<title>Node11</title>
<g id="a_node11"><a xlink:href="ubidots_8c.html" target="_top" xlink:title=" ">
<polygon fill="none" stroke="black" points="407,-62 407,-81 516,-81 516,-62 407,-62"/>
<text text-anchor="middle" x="461.5" y="-69" font-family="Helvetica,sans-Serif" font-size="10.00">src/Ubidots/ubidots.c</text>
</a>
</g>
</g>
<!-- Node10&#45;&gt;Node11 -->
<g id="edge13" class="edge">
<title>Node10&#45;&gt;Node11</title>
<path fill="none" stroke="midnightblue" d="M433.71,-120.03C441.07,-107.45 450.68,-91.01 456.46,-81.13"/>
<polygon fill="midnightblue" stroke="midnightblue" points="430.65,-118.33 428.62,-128.73 436.69,-121.87 430.65,-118.33"/>
</g>
<!-- Node12&#45;&gt;Node3 -->
<g id="edge15" class="edge">
<title>Node12&#45;&gt;Node3</title>
<path fill="none" stroke="midnightblue" d="M503.61,-120.43C462.86,-107.75 408.99,-91 376.92,-81.03"/>
<polygon fill="midnightblue" stroke="midnightblue" points="502.82,-123.85 513.41,-123.48 504.9,-117.16 502.82,-123.85"/>
</g>
<!-- Node13 -->
<g id="node13" class="node">
<title>Node13</title>
<g id="a_node13"><a xlink:href="w__weather_8c.html" target="_top" xlink:title=" ">
<polygon fill="none" stroke="black" points="534.5,-56.5 534.5,-86.5 634.5,-86.5 634.5,-56.5 534.5,-56.5"/>
<text text-anchor="start" x="542.5" y="-74.5" font-family="Helvetica,sans-Serif" font-size="10.00">src/WillyWeather/w</text>
<text text-anchor="middle" x="584.5" y="-63.5" font-family="Helvetica,sans-Serif" font-size="10.00">_weather.c</text>
</a>
</g>
</g>
<!-- Node12&#45;&gt;Node13 -->
<g id="edge16" class="edge">
<title>Node12&#45;&gt;Node13</title>
<path fill="none" stroke="midnightblue" d="M567.9,-113.99C571.58,-104.8 575.67,-94.58 578.87,-86.58"/>
<polygon fill="midnightblue" stroke="midnightblue" points="564.61,-112.81 564.14,-123.4 571.11,-115.41 564.61,-112.81"/>
</g>
</g>
</svg>
