<?xml version="1.0" encoding="UTF-8" standalone="no"?>
<!DOCTYPE svg PUBLIC "-//W3C//DTD SVG 1.1//EN"
 "http://www.w3.org/Graphics/SVG/1.1/DTD/svg11.dtd">
<!-- Generated by graphviz version 2.49.3 (20211027.1534)
 -->
<!-- Title: include/utils.h Pages: 1 -->
<svg width="1747pt" height="475pt"
 viewBox="0.00 0.00 1746.50 475.00" xmlns="http://www.w3.org/2000/svg" xmlns:xlink="http://www.w3.org/1999/xlink">
<g id="graph0" class="graph" transform="scale(1 1) rotate(0) translate(4 471)">
<title>include/utils.h</title>
<!-- Node1 -->
<g id="node1" class="node">
<title>Node1</title>
<g id="a_node1"><a xlink:title=" ">
<polygon fill="#bfbfbf" stroke="black" points="671,-447.5 671,-466.5 747,-466.5 747,-447.5 671,-447.5"/>
<text text-anchor="middle" x="709" y="-454.5" font-family="Helvetica,sans-Serif" font-size="10.00">include/utils.h</text>
</a>
</g>
</g>
<!-- Node2 -->
<g id="node2" class="node">
<title>Node2</title>
<g id="a_node2"><a xlink:href="stations_8h.html" target="_top" xlink:title=" ">
<polygon fill="none" stroke="black" points="174,-263 174,-282 292,-282 292,-263 174,-263"/>
<text text-anchor="middle" x="233" y="-270" font-family="Helvetica,sans-Serif" font-size="10.00">include/BOM/stations.h</text>
</a>
</g>
</g>
<!-- Node1&#45;&gt;Node2 -->
<g id="edge1" class="edge">
<title>Node1&#45;&gt;Node2</title>
<path fill="none" stroke="midnightblue" d="M660.81,-450.08C560.86,-436.98 335.35,-402.85 276,-355 251.84,-335.52 239.6,-298.76 235.09,-282.1"/>
<polygon fill="midnightblue" stroke="midnightblue" points="660.57,-453.58 670.94,-451.4 661.47,-446.64 660.57,-453.58"/>
</g>
<!-- Node7 -->
<g id="node7" class="node">
<title>Node7</title>
<g id="a_node7"><a xlink:href="harvest__areas_8h.html" target="_top" xlink:title=" ">
<polygon fill="none" stroke="black" points="1260,-123.5 1260,-153.5 1370,-153.5 1370,-123.5 1260,-123.5"/>
<text text-anchor="start" x="1268" y="-141.5" font-family="Helvetica,sans-Serif" font-size="10.00">include/FoodAuthority</text>
<text text-anchor="middle" x="1315" y="-130.5" font-family="Helvetica,sans-Serif" font-size="10.00">/harvest_areas.h</text>
</a>
</g>
</g>
<!-- Node1&#45;&gt;Node7 -->
<g id="edge23" class="edge">
<title>Node1&#45;&gt;Node7</title>
<path fill="none" stroke="midnightblue" d="M757.18,-455.22C949.38,-451.46 1651,-431.51 1651,-340.5 1651,-340.5 1651,-340.5 1651,-271.5 1651,-221.05 1616.33,-214.07 1572,-190 1554.47,-180.48 1440.19,-160.28 1370.05,-148.52"/>
<polygon fill="midnightblue" stroke="midnightblue" points="757.03,-451.72 747.09,-455.41 757.16,-458.72 757.03,-451.72"/>
</g>
<!-- Node9 -->
<g id="node9" class="node">
<title>Node9</title>
<g id="a_node9"><a xlink:href="transform_8h.html" target="_top" xlink:title=" ">
<polygon fill="none" stroke="black" points="539.5,-196 539.5,-215 638.5,-215 638.5,-196 539.5,-196"/>
<text text-anchor="middle" x="589" y="-203" font-family="Helvetica,sans-Serif" font-size="10.00">include/transform.h</text>
</a>
</g>
</g>
<!-- Node1&#45;&gt;Node9 -->
<g id="edge68" class="edge">
<title>Node1&#45;&gt;Node9</title>
<path fill="none" stroke="midnightblue" d="M696.18,-439.19C674.55,-410.02 630.84,-347.44 607,-288 596.86,-262.72 591.9,-230.61 589.99,-215.34"/>
<polygon fill="midnightblue" stroke="midnightblue" points="693.57,-441.55 702.37,-447.44 699.17,-437.34 693.57,-441.55"/>
</g>
<!-- Node10 -->
<g id="node10" class="node">
<title>Node10</title>
<g id="a_node10"><a xlink:href="timeseries_8h.html" target="_top" xlink:title=" ">
<polygon fill="none" stroke="black" points="50.5,-129 50.5,-148 195.5,-148 195.5,-129 50.5,-129"/>
<text text-anchor="middle" x="123" y="-136" font-family="Helvetica,sans-Serif" font-size="10.00">include/IBM_EIS/timeseries.h</text>
</a>
</g>
</g>
<!-- Node1&#45;&gt;Node10 -->
<g id="edge28" class="edge">
<title>Node1&#45;&gt;Node10</title>
<path fill="none" stroke="midnightblue" d="M660.88,-453.26C501.36,-443.53 0,-407.62 0,-340.5 0,-340.5 0,-340.5 0,-271.5 0,-210.42 71.37,-165.8 105.38,-148.01"/>
<polygon fill="midnightblue" stroke="midnightblue" points="660.69,-456.75 670.88,-453.86 661.11,-449.76 660.69,-456.75"/>
</g>
<!-- Node14 -->
<g id="node14" class="node">
<title>Node14</title>
<g id="a_node14"><a xlink:href="harvest__area_8h.html" target="_top" xlink:title=" ">
<polygon fill="none" stroke="black" points="616,-257.5 616,-287.5 726,-287.5 726,-257.5 616,-257.5"/>
<text text-anchor="start" x="624" y="-275.5" font-family="Helvetica,sans-Serif" font-size="10.00">include/FoodAuthority</text>
<text text-anchor="middle" x="671" y="-264.5" font-family="Helvetica,sans-Serif" font-size="10.00">/harvest_area.h</text>
</a>
</g>
</g>
<!-- Node1&#45;&gt;Node14 -->
<g id="edge18" class="edge">
<title>Node1&#45;&gt;Node14</title>
<path fill="none" stroke="midnightblue" d="M702.78,-437.9C700.14,-429.75 697.17,-419.96 695,-411 684.24,-366.48 676.29,-312.75 672.86,-287.68"/>
<polygon fill="midnightblue" stroke="midnightblue" points="699.49,-439.09 705.98,-447.47 706.13,-436.87 699.49,-439.09"/>
</g>
<!-- Node16 -->
<g id="node16" class="node">
<title>Node16</title>
<g id="a_node16"><a xlink:href="_i_b_m___e_i_s_2authenticate_8h.html" target="_top" xlink:title=" ">
<polygon fill="none" stroke="black" points="406.5,-330 406.5,-349 559.5,-349 559.5,-330 406.5,-330"/>
<text text-anchor="middle" x="483" y="-337" font-family="Helvetica,sans-Serif" font-size="10.00">include/IBM_EIS/authenticate.h</text>
</a>
</g>
</g>
<!-- Node1&#45;&gt;Node16 -->
<g id="edge24" class="edge">
<title>Node1&#45;&gt;Node16</title>
<path fill="none" stroke="midnightblue" d="M662.78,-444.77C635.95,-437.25 602.02,-425.96 574,-411 540.86,-393.3 507.32,-363.58 491.84,-349.03"/>
<polygon fill="midnightblue" stroke="midnightblue" points="662.12,-448.22 672.69,-447.47 663.96,-441.47 662.12,-448.22"/>
</g>
<!-- Node18 -->
<g id="node18" class="node">
<title>Node18</title>
<g id="a_node18"><a xlink:href="devices_8h.html" target="_top" xlink:title=" ">
<polygon fill="none" stroke="black" points="744,-263 744,-282 872,-282 872,-263 744,-263"/>
<text text-anchor="middle" x="808" y="-270" font-family="Helvetica,sans-Serif" font-size="10.00">include/Ubidots/devices.h</text>
</a>
</g>
</g>
<!-- Node1&#45;&gt;Node18 -->
<g id="edge29" class="edge">
<title>Node1&#45;&gt;Node18</title>
<path fill="none" stroke="midnightblue" d="M716.12,-438.06C726.7,-412.14 747.83,-363.04 771,-324 780.21,-308.49 793.03,-291.86 800.91,-282.08"/>
<polygon fill="midnightblue" stroke="midnightblue" points="712.86,-436.79 712.37,-447.37 719.36,-439.4 712.86,-436.79"/>
</g>
<!-- Node20 -->
<g id="node20" class="node">
<title>Node20</title>
<g id="a_node20"><a xlink:href="location_8h.html" target="_top" xlink:title=" ">
<polygon fill="none" stroke="black" points="1363.5,-257.5 1363.5,-287.5 1470.5,-287.5 1470.5,-257.5 1363.5,-257.5"/>
<text text-anchor="start" x="1371.5" y="-275.5" font-family="Helvetica,sans-Serif" font-size="10.00">include/WillyWeather</text>
<text text-anchor="middle" x="1417" y="-264.5" font-family="Helvetica,sans-Serif" font-size="10.00">/location.h</text>
</a>
</g>
</g>
<!-- Node1&#45;&gt;Node20 -->
<g id="edge32" class="edge">
<title>Node1&#45;&gt;Node20</title>
<path fill="none" stroke="midnightblue" d="M757.26,-456.01C860.97,-454.29 1110.77,-440.78 1297,-355 1336.8,-336.67 1377.93,-305.6 1400.2,-287.59"/>
<polygon fill="midnightblue" stroke="midnightblue" points="757.05,-452.51 747.1,-456.14 757.15,-459.51 757.05,-452.51"/>
</g>
<!-- Node21 -->
<g id="node21" class="node">
<title>Node21</title>
<g id="a_node21"><a xlink:href="precipitation_8h.html" target="_top" xlink:title=" ">
<polygon fill="none" stroke="black" points="1439.5,-190.5 1439.5,-220.5 1546.5,-220.5 1546.5,-190.5 1439.5,-190.5"/>
<text text-anchor="start" x="1447.5" y="-208.5" font-family="Helvetica,sans-Serif" font-size="10.00">include/WillyWeather</text>
<text text-anchor="middle" x="1493" y="-197.5" font-family="Helvetica,sans-Serif" font-size="10.00">/precipitation.h</text>
</a>
</g>
</g>
<!-- Node1&#45;&gt;Node21 -->
<g id="edge42" class="edge">
<title>Node1&#45;&gt;Node21</title>
<path fill="none" stroke="midnightblue" d="M757.53,-456.77C871.69,-456.91 1164.22,-447.43 1385,-355 1439.56,-332.16 1470.52,-339.29 1500,-288 1512.1,-266.95 1504.91,-237.65 1498.8,-220.52"/>
<polygon fill="midnightblue" stroke="midnightblue" points="757.39,-453.27 747.37,-456.73 757.36,-460.27 757.39,-453.27"/>
</g>
<!-- Node23 -->
<g id="node23" class="node">
<title>Node23</title>
<g id="a_node23"><a xlink:href="tide_8h.html" target="_top" xlink:title=" ">
<polygon fill="none" stroke="black" points="1123.5,-190.5 1123.5,-220.5 1230.5,-220.5 1230.5,-190.5 1123.5,-190.5"/>
<text text-anchor="start" x="1131.5" y="-208.5" font-family="Helvetica,sans-Serif" font-size="10.00">include/WillyWeather</text>
<text text-anchor="middle" x="1177" y="-197.5" font-family="Helvetica,sans-Serif" font-size="10.00">/tide.h</text>
</a>
</g>
</g>
<!-- Node1&#45;&gt;Node23 -->
<g id="edge43" class="edge">
<title>Node1&#45;&gt;Node23</title>
<path fill="none" stroke="midnightblue" d="M724.18,-440.22C748.51,-415.08 798.01,-364.63 842,-324 850.39,-316.25 909.72,-261.99 920,-257 938.05,-248.24 1053.37,-227.55 1123.26,-215.55"/>
<polygon fill="midnightblue" stroke="midnightblue" points="721.63,-437.82 717.2,-447.45 726.66,-442.68 721.63,-437.82"/>
</g>
<!-- Node26 -->
<g id="node26" class="node">
<title>Node26</title>
<g id="a_node26"><a xlink:href="ftp_8h.html" target="_top" xlink:title=" ">
<polygon fill="none" stroke="black" points="285.5,-330 285.5,-349 354.5,-349 354.5,-330 285.5,-330"/>
<text text-anchor="middle" x="320" y="-337" font-family="Helvetica,sans-Serif" font-size="10.00">include/ftp.h</text>
</a>
</g>
</g>
<!-- Node1&#45;&gt;Node26 -->
<g id="edge44" class="edge">
<title>Node1&#45;&gt;Node26</title>
<path fill="none" stroke="midnightblue" d="M665.33,-444.9C631.33,-436.12 583.01,-423.32 541,-411 469.7,-390.09 386.38,-362.7 345.4,-349.03"/>
<polygon fill="midnightblue" stroke="midnightblue" points="664.84,-448.39 675.4,-447.5 666.59,-441.61 664.84,-448.39"/>
</g>
<!-- Node28 -->
<g id="node28" class="node">
<title>Node28</title>
<g id="a_node28"><a xlink:href="http_8h.html" target="_top" xlink:title=" ">
<polygon fill="none" stroke="black" points="1009,-391.5 1009,-410.5 1083,-410.5 1083,-391.5 1009,-391.5"/>
<text text-anchor="middle" x="1046" y="-398.5" font-family="Helvetica,sans-Serif" font-size="10.00">include/http.h</text>
</a>
</g>
</g>
<!-- Node1&#45;&gt;Node28 -->
<g id="edge49" class="edge">
<title>Node1&#45;&gt;Node28</title>
<path fill="none" stroke="midnightblue" d="M757.01,-448.31C824.91,-437.43 947.53,-417.78 1008.91,-407.94"/>
<polygon fill="midnightblue" stroke="midnightblue" points="756.32,-444.87 747,-449.91 757.43,-451.78 756.32,-444.87"/>
</g>
<!-- Node34 -->
<g id="node34" class="node">
<title>Node34</title>
<g id="a_node34"><a xlink:href="utils_8c.html" target="_top" xlink:title=" ">
<polygon fill="none" stroke="black" points="1679.5,-391.5 1679.5,-410.5 1738.5,-410.5 1738.5,-391.5 1679.5,-391.5"/>
<text text-anchor="middle" x="1709" y="-398.5" font-family="Helvetica,sans-Serif" font-size="10.00">src/utils.c</text>
</a>
</g>
</g>
<!-- Node1&#45;&gt;Node34 -->
<g id="edge69" class="edge">
<title>Node1&#45;&gt;Node34</title>
<path fill="none" stroke="midnightblue" d="M757.47,-456.36C898.27,-456.83 1319.18,-454.24 1665,-411 1669.64,-410.42 1674.53,-409.62 1679.28,-408.73"/>
<polygon fill="midnightblue" stroke="midnightblue" points="757.45,-452.86 747.43,-456.32 757.42,-459.86 757.45,-452.86"/>
</g>
<!-- Node3 -->
<g id="node3" class="node">
<title>Node3</title>
<g id="a_node3"><a xlink:href="historical__weather_8h.html" target="_top" xlink:title=" ">
<polygon fill="none" stroke="black" points="309.5,-190.5 309.5,-220.5 424.5,-220.5 424.5,-190.5 309.5,-190.5"/>
<text text-anchor="start" x="317.5" y="-208.5" font-family="Helvetica,sans-Serif" font-size="10.00">include/BOM/historical</text>
<text text-anchor="middle" x="367" y="-197.5" font-family="Helvetica,sans-Serif" font-size="10.00">_weather.h</text>
</a>
</g>
</g>
<!-- Node2&#45;&gt;Node3 -->
<g id="edge2" class="edge">
<title>Node2&#45;&gt;Node3</title>
<path fill="none" stroke="midnightblue" d="M259.85,-258.47C282.51,-247.49 314.86,-231.79 338.08,-220.53"/>
<polygon fill="midnightblue" stroke="midnightblue" points="258.26,-255.35 250.79,-262.87 261.32,-261.65 258.26,-255.35"/>
</g>
<!-- Node4 -->
<g id="node4" class="node">
<title>Node4</title>
<g id="a_node4"><a xlink:href="main_8h.html" target="_top" xlink:title=" ">
<polygon fill="none" stroke="black" points="647.5,-62 647.5,-81 726.5,-81 726.5,-62 647.5,-62"/>
<text text-anchor="middle" x="687" y="-69" font-family="Helvetica,sans-Serif" font-size="10.00">include/main.h</text>
</a>
</g>
</g>
<!-- Node2&#45;&gt;Node4 -->
<g id="edge9" class="edge">
<title>Node2&#45;&gt;Node4</title>
<path fill="none" stroke="midnightblue" d="M243.52,-253.84C249.03,-244.28 255.71,-232.16 261,-221 281.07,-178.64 262.99,-151.78 300,-123 353.49,-81.41 559.61,-73.98 647.22,-72.72"/>
<polygon fill="midnightblue" stroke="midnightblue" points="240.34,-252.34 238.31,-262.74 246.38,-255.88 240.34,-252.34"/>
</g>
<!-- Node2&#45;&gt;Node7 -->
<g id="edge6" class="edge">
<title>Node2&#45;&gt;Node7</title>
<path fill="none" stroke="midnightblue" d="M302.14,-264.23C325.86,-261.82 352.58,-259.19 377,-257 579.04,-238.84 635.22,-270.27 832,-221 865.4,-212.64 869.7,-198.76 903,-190 1053.37,-150.42 1097.57,-179.22 1251,-154 1253.92,-153.52 1256.91,-152.99 1259.92,-152.42"/>
<polygon fill="midnightblue" stroke="midnightblue" points="301.77,-260.75 292.17,-265.25 302.48,-267.72 301.77,-260.75"/>
</g>
<!-- Node2&#45;&gt;Node9 -->
<g id="edge10" class="edge">
<title>Node2&#45;&gt;Node9</title>
<path fill="none" stroke="midnightblue" d="M289.87,-261.12C359.84,-248.34 477.31,-226.89 542.27,-215.03"/>
<polygon fill="midnightblue" stroke="midnightblue" points="289.12,-257.7 279.91,-262.94 290.37,-264.58 289.12,-257.7"/>
</g>
<!-- Node13 -->
<g id="node13" class="node">
<title>Node13</title>
<g id="a_node13"><a xlink:href="stations_8c.html" target="_top" xlink:title=" ">
<polygon fill="none" stroke="black" points="151.5,-196 151.5,-215 252.5,-215 252.5,-196 151.5,-196"/>
<text text-anchor="middle" x="202" y="-203" font-family="Helvetica,sans-Serif" font-size="10.00">src/BOM/stations.c</text>
</a>
</g>
</g>
<!-- Node2&#45;&gt;Node13 -->
<g id="edge17" class="edge">
<title>Node2&#45;&gt;Node13</title>
<path fill="none" stroke="midnightblue" d="M224.49,-253.66C218.51,-241.13 210.78,-224.91 206.11,-215.13"/>
<polygon fill="midnightblue" stroke="midnightblue" points="221.36,-255.21 228.82,-262.73 227.67,-252.2 221.36,-255.21"/>
</g>
<!-- Node3&#45;&gt;Node4 -->
<g id="edge3" class="edge">
<title>Node3&#45;&gt;Node4</title>
<path fill="none" stroke="midnightblue" d="M388.55,-183.1C410.52,-161.71 443.53,-130.89 459,-123 520.22,-91.79 600.33,-79.77 647.47,-75.21"/>
<polygon fill="midnightblue" stroke="midnightblue" points="385.97,-180.72 381.28,-190.22 390.87,-185.72 385.97,-180.72"/>
</g>
<!-- Node6 -->
<g id="node6" class="node">
<title>Node6</title>
<g id="a_node6"><a xlink:href="historical__weather_8c.html" target="_top" xlink:title=" ">
<polygon fill="none" stroke="black" points="309,-123.5 309,-153.5 407,-153.5 407,-123.5 309,-123.5"/>
<text text-anchor="start" x="317" y="-141.5" font-family="Helvetica,sans-Serif" font-size="10.00">src/BOM/historical</text>
<text text-anchor="middle" x="358" y="-130.5" font-family="Helvetica,sans-Serif" font-size="10.00">_weather.c</text>
</a>
</g>
</g>
<!-- Node3&#45;&gt;Node6 -->
<g id="edge5" class="edge">
<title>Node3&#45;&gt;Node6</title>
<path fill="none" stroke="midnightblue" d="M363.66,-180.4C362.41,-171.37 361.03,-161.41 359.95,-153.58"/>
<polygon fill="midnightblue" stroke="midnightblue" points="360.21,-180.97 365.05,-190.4 367.14,-180.01 360.21,-180.97"/>
</g>
<!-- Node5 -->
<g id="node5" class="node">
<title>Node5</title>
<g id="a_node5"><a xlink:href="main_8c.html" target="_top" xlink:title=" ">
<polygon fill="none" stroke="black" points="656,-0.5 656,-19.5 718,-19.5 718,-0.5 656,-0.5"/>
<text text-anchor="middle" x="687" y="-7.5" font-family="Helvetica,sans-Serif" font-size="10.00">src/main.c</text>
</a>
</g>
</g>
<!-- Node4&#45;&gt;Node5 -->
<g id="edge4" class="edge">
<title>Node4&#45;&gt;Node5</title>
<path fill="none" stroke="midnightblue" d="M687,-51.82C687,-41 687,-27.9 687,-19.51"/>
<polygon fill="midnightblue" stroke="midnightblue" points="683.5,-51.98 687,-61.98 690.5,-51.98 683.5,-51.98"/>
</g>
<!-- Node7&#45;&gt;Node4 -->
<g id="edge7" class="edge">
<title>Node7&#45;&gt;Node4</title>
<path fill="none" stroke="midnightblue" d="M1250.03,-122.99C1047.97,-91.81 817.36,-78.57 726.54,-74.22"/>
<polygon fill="midnightblue" stroke="midnightblue" points="1249.51,-126.45 1259.93,-124.53 1250.59,-119.53 1249.51,-126.45"/>
</g>
<!-- Node8 -->
<g id="node8" class="node">
<title>Node8</title>
<g id="a_node8"><a xlink:href="harvest__areas_8c.html" target="_top" xlink:title=" ">
<polygon fill="none" stroke="black" points="1251,-56.5 1251,-86.5 1379,-86.5 1379,-56.5 1251,-56.5"/>
<text text-anchor="start" x="1259" y="-74.5" font-family="Helvetica,sans-Serif" font-size="10.00">src/FoodAuthority/harvest</text>
<text text-anchor="middle" x="1315" y="-63.5" font-family="Helvetica,sans-Serif" font-size="10.00">_areas.c</text>
</a>
</g>
</g>
<!-- Node7&#45;&gt;Node8 -->
<g id="edge8" class="edge">
<title>Node7&#45;&gt;Node8</title>
<path fill="none" stroke="midnightblue" d="M1315,-113.11C1315,-104.15 1315,-94.32 1315,-86.58"/>
<polygon fill="midnightblue" stroke="midnightblue" points="1311.5,-113.4 1315,-123.4 1318.5,-113.4 1311.5,-113.4"/>
</g>
<!-- Node9&#45;&gt;Node4 -->
<g id="edge15" class="edge">
<title>Node9&#45;&gt;Node4</title>
<path fill="none" stroke="midnightblue" d="M602.9,-188C610.98,-178.24 621.27,-165.58 630,-154 649.54,-128.08 671.12,-96.28 681.21,-81.21"/>
<polygon fill="midnightblue" stroke="midnightblue" points="600.18,-185.79 596.45,-195.71 605.55,-190.28 600.18,-185.79"/>
</g>
<!-- Node9&#45;&gt;Node7 -->
<g id="edge11" class="edge">
<title>Node9&#45;&gt;Node7</title>
<path fill="none" stroke="midnightblue" d="M648.87,-194.74C661.13,-192.97 673.96,-191.28 686,-190 936.21,-163.38 1001.96,-189.91 1251,-154 1253.93,-153.58 1256.93,-153.09 1259.95,-152.56"/>
<polygon fill="midnightblue" stroke="midnightblue" points="648.12,-191.31 638.74,-196.24 649.15,-198.24 648.12,-191.31"/>
</g>
<!-- Node9&#45;&gt;Node10 -->
<g id="edge12" class="edge">
<title>Node9&#45;&gt;Node10</title>
<path fill="none" stroke="midnightblue" d="M529.2,-196.16C440.27,-183.75 274.02,-160.56 184.25,-148.04"/>
<polygon fill="midnightblue" stroke="midnightblue" points="528.74,-199.63 539.13,-197.54 529.71,-192.7 528.74,-199.63"/>
</g>
<!-- Node12 -->
<g id="node12" class="node">
<title>Node12</title>
<g id="a_node12"><a xlink:href="transform_8c.html" target="_top" xlink:title=" ">
<polygon fill="none" stroke="black" points="539,-129 539,-148 621,-148 621,-129 539,-129"/>
<text text-anchor="middle" x="580" y="-136" font-family="Helvetica,sans-Serif" font-size="10.00">src/transform.c</text>
</a>
</g>
</g>
<!-- Node9&#45;&gt;Node12 -->
<g id="edge16" class="edge">
<title>Node9&#45;&gt;Node12</title>
<path fill="none" stroke="midnightblue" d="M586.37,-185.54C584.66,-173.17 582.51,-157.62 581.19,-148.13"/>
<polygon fill="midnightblue" stroke="midnightblue" points="582.95,-186.31 587.79,-195.73 589.88,-185.35 582.95,-186.31"/>
</g>
<!-- Node10&#45;&gt;Node4 -->
<g id="edge13" class="edge">
<title>Node10&#45;&gt;Node4</title>
<path fill="none" stroke="midnightblue" d="M205.72,-127.97C328.94,-113.77 555.99,-87.6 647.37,-77.07"/>
<polygon fill="midnightblue" stroke="midnightblue" points="205.11,-124.51 195.58,-129.14 205.91,-131.47 205.11,-124.51"/>
</g>
<!-- Node11 -->
<g id="node11" class="node">
<title>Node11</title>
<g id="a_node11"><a xlink:href="timeseries_8c.html" target="_top" xlink:title=" ">
<polygon fill="none" stroke="black" points="59,-62 59,-81 187,-81 187,-62 59,-62"/>
<text text-anchor="middle" x="123" y="-69" font-family="Helvetica,sans-Serif" font-size="10.00">src/IBM_EIS/timeseries.c</text>
</a>
</g>
</g>
<!-- Node10&#45;&gt;Node11 -->
<g id="edge14" class="edge">
<title>Node10&#45;&gt;Node11</title>
<path fill="none" stroke="midnightblue" d="M123,-118.54C123,-106.17 123,-90.62 123,-81.13"/>
<polygon fill="midnightblue" stroke="midnightblue" points="119.5,-118.73 123,-128.73 126.5,-118.73 119.5,-118.73"/>
</g>
<!-- Node14&#45;&gt;Node4 -->
<g id="edge20" class="edge">
<title>Node14&#45;&gt;Node4</title>
<path fill="none" stroke="midnightblue" d="M672.97,-246.96C676.55,-202.43 683.96,-110.25 686.29,-81.36"/>
<polygon fill="midnightblue" stroke="midnightblue" points="669.46,-246.94 672.15,-257.19 676.44,-247.5 669.46,-246.94"/>
</g>
<!-- Node14&#45;&gt;Node7 -->
<g id="edge19" class="edge">
<title>Node14&#45;&gt;Node7</title>
<path fill="none" stroke="midnightblue" d="M736.12,-256.84C811.58,-241.4 835.91,-250.35 903,-221 924.92,-211.41 924.66,-198.56 947,-190 1074.05,-141.33 1116.91,-177.06 1251,-154 1253.92,-153.5 1256.91,-152.95 1259.92,-152.37"/>
<polygon fill="midnightblue" stroke="midnightblue" points="735.2,-253.46 726.15,-258.96 736.66,-260.31 735.2,-253.46"/>
</g>
<!-- Node14&#45;&gt;Node9 -->
<g id="edge21" class="edge">
<title>Node14&#45;&gt;Node9</title>
<path fill="none" stroke="midnightblue" d="M645.15,-251.01C629.93,-238.94 611.46,-224.3 599.97,-215.19"/>
<polygon fill="midnightblue" stroke="midnightblue" points="643.2,-253.93 653.21,-257.4 647.54,-248.44 643.2,-253.93"/>
</g>
<!-- Node15 -->
<g id="node15" class="node">
<title>Node15</title>
<g id="a_node15"><a xlink:href="harvest__area_8c.html" target="_top" xlink:title=" ">
<polygon fill="none" stroke="black" points="695,-190.5 695,-220.5 823,-220.5 823,-190.5 695,-190.5"/>
<text text-anchor="start" x="703" y="-208.5" font-family="Helvetica,sans-Serif" font-size="10.00">src/FoodAuthority/harvest</text>
<text text-anchor="middle" x="759" y="-197.5" font-family="Helvetica,sans-Serif" font-size="10.00">_area.c</text>
</a>
</g>
</g>
<!-- Node14&#45;&gt;Node15 -->
<g id="edge22" class="edge">
<title>Node14&#45;&gt;Node15</title>
<path fill="none" stroke="midnightblue" d="M698.14,-251.45C711.68,-241.45 727.73,-229.6 739.94,-220.58"/>
<polygon fill="midnightblue" stroke="midnightblue" points="696.06,-248.64 690.09,-257.4 700.22,-254.27 696.06,-248.64"/>
</g>
<!-- Node16&#45;&gt;Node4 -->
<g id="edge26" class="edge">
<title>Node16&#45;&gt;Node4</title>
<path fill="none" stroke="midnightblue" d="M503.52,-323.32C513.88,-314.35 525.41,-302 531,-288 544.6,-253.95 508.4,-152.63 530,-123 556.64,-86.44 610.2,-75.77 647.31,-72.96"/>
<polygon fill="midnightblue" stroke="midnightblue" points="501.15,-320.74 495.6,-329.77 505.57,-326.17 501.15,-320.74"/>
</g>
<!-- Node16&#45;&gt;Node10 -->
<g id="edge25" class="edge">
<title>Node16&#45;&gt;Node10</title>
<path fill="none" stroke="midnightblue" d="M408.47,-328.63C317.44,-316.28 174.29,-295.81 165,-288 121.72,-251.63 121.25,-174.33 122.42,-148.28"/>
<polygon fill="midnightblue" stroke="midnightblue" points="408.1,-332.11 418.48,-329.98 409.04,-325.17 408.1,-332.11"/>
</g>
<!-- Node17 -->
<g id="node17" class="node">
<title>Node17</title>
<g id="a_node17"><a xlink:href="_i_b_m___e_i_s_2authenticate_8c.html" target="_top" xlink:title=" ">
<polygon fill="none" stroke="black" points="386,-263 386,-282 522,-282 522,-263 386,-263"/>
<text text-anchor="middle" x="454" y="-270" font-family="Helvetica,sans-Serif" font-size="10.00">src/IBM_EIS/authenticate.c</text>
</a>
</g>
</g>
<!-- Node16&#45;&gt;Node17 -->
<g id="edge27" class="edge">
<title>Node16&#45;&gt;Node17</title>
<path fill="none" stroke="midnightblue" d="M474.88,-320.29C469.31,-307.81 462.17,-291.81 457.85,-282.13"/>
<polygon fill="midnightblue" stroke="midnightblue" points="471.82,-322.03 479.09,-329.73 478.21,-319.18 471.82,-322.03"/>
</g>
<!-- Node18&#45;&gt;Node4 -->
<g id="edge30" class="edge">
<title>Node18&#45;&gt;Node4</title>
<path fill="none" stroke="midnightblue" d="M820.43,-253.79C830.66,-236.87 841.98,-210.92 832,-190 805.65,-134.72 739.17,-97.02 706.18,-81.07"/>
<polygon fill="midnightblue" stroke="midnightblue" points="817.22,-252.31 814.71,-262.6 823.09,-256.12 817.22,-252.31"/>
</g>
<!-- Node19 -->
<g id="node19" class="node">
<title>Node19</title>
<g id="a_node19"><a xlink:href="devices_8c.html" target="_top" xlink:title=" ">
<polygon fill="none" stroke="black" points="955.5,-196 955.5,-215 1066.5,-215 1066.5,-196 955.5,-196"/>
<text text-anchor="middle" x="1011" y="-203" font-family="Helvetica,sans-Serif" font-size="10.00">src/Ubidots/devices.c</text>
</a>
</g>
</g>
<!-- Node18&#45;&gt;Node19 -->
<g id="edge31" class="edge">
<title>Node18&#45;&gt;Node19</title>
<path fill="none" stroke="midnightblue" d="M844.65,-259.77C884.87,-246.89 948.47,-226.52 984.25,-215.06"/>
<polygon fill="midnightblue" stroke="midnightblue" points="843.41,-256.49 834.96,-262.87 845.55,-263.15 843.41,-256.49"/>
</g>
<!-- Node20&#45;&gt;Node7 -->
<g id="edge33" class="edge">
<title>Node20&#45;&gt;Node7</title>
<path fill="none" stroke="midnightblue" d="M1414.02,-247.26C1410.89,-229.92 1404.58,-206.76 1392,-190 1380.29,-174.4 1362.25,-162.2 1346.58,-153.7"/>
<polygon fill="midnightblue" stroke="midnightblue" points="1410.58,-247.87 1415.59,-257.21 1417.49,-246.78 1410.58,-247.87"/>
</g>
<!-- Node20&#45;&gt;Node9 -->
<g id="edge40" class="edge">
<title>Node20&#45;&gt;Node9</title>
<path fill="none" stroke="midnightblue" d="M1353.21,-256.91C1058.44,-215.74 978.92,-250.71 686,-221 670.58,-219.44 653.87,-217.15 638.73,-214.86"/>
<polygon fill="midnightblue" stroke="midnightblue" points="1352.95,-260.41 1363.34,-258.34 1353.93,-253.48 1352.95,-260.41"/>
</g>
<!-- Node20&#45;&gt;Node21 -->
<g id="edge34" class="edge">
<title>Node20&#45;&gt;Node21</title>
<path fill="none" stroke="midnightblue" d="M1441.11,-250.88C1452.66,-241.01 1466.19,-229.43 1476.54,-220.58"/>
<polygon fill="midnightblue" stroke="midnightblue" points="1438.82,-248.24 1433.49,-257.4 1443.37,-253.56 1438.82,-248.24"/>
</g>
<!-- Node20&#45;&gt;Node23 -->
<g id="edge37" class="edge">
<title>Node20&#45;&gt;Node23</title>
<path fill="none" stroke="midnightblue" d="M1355.52,-254.85C1316.39,-244.25 1266.27,-230.68 1229.1,-220.61"/>
<polygon fill="midnightblue" stroke="midnightblue" points="1354.65,-258.24 1365.22,-257.48 1356.48,-251.48 1354.65,-258.24"/>
</g>
<!-- Node25 -->
<g id="node25" class="node">
<title>Node25</title>
<g id="a_node25"><a xlink:href="location_8c.html" target="_top" xlink:title=" ">
<polygon fill="none" stroke="black" points="1249,-196 1249,-215 1383,-215 1383,-196 1249,-196"/>
<text text-anchor="middle" x="1316" y="-203" font-family="Helvetica,sans-Serif" font-size="10.00">src/WillyWeather/location.c</text>
</a>
</g>
</g>
<!-- Node20&#45;&gt;Node25 -->
<g id="edge41" class="edge">
<title>Node20&#45;&gt;Node25</title>
<path fill="none" stroke="midnightblue" d="M1386.66,-251.97C1367.51,-239.65 1343.73,-224.35 1329.22,-215.01"/>
<polygon fill="midnightblue" stroke="midnightblue" points="1384.78,-254.93 1395.08,-257.4 1388.57,-249.04 1384.78,-254.93"/>
</g>
<!-- Node21&#45;&gt;Node4 -->
<g id="edge35" class="edge">
<title>Node21&#45;&gt;Node4</title>
<path fill="none" stroke="midnightblue" d="M1461.91,-184.83C1447.96,-175.75 1431.43,-164.64 1417,-154 1399.46,-141.06 1399.25,-131.06 1379,-123 1259.1,-75.31 855.2,-72.07 726.64,-72.29"/>
<polygon fill="midnightblue" stroke="midnightblue" points="1460.36,-187.99 1470.66,-190.47 1464.16,-182.11 1460.36,-187.99"/>
</g>
<!-- Node22 -->
<g id="node22" class="node">
<title>Node22</title>
<g id="a_node22"><a xlink:href="precipitation_8c.html" target="_top" xlink:title=" ">
<polygon fill="none" stroke="black" points="1426,-129 1426,-148 1578,-148 1578,-129 1426,-129"/>
<text text-anchor="middle" x="1502" y="-136" font-family="Helvetica,sans-Serif" font-size="10.00">src/WillyWeather/precipitation.c</text>
</a>
</g>
</g>
<!-- Node21&#45;&gt;Node22 -->
<g id="edge36" class="edge">
<title>Node21&#45;&gt;Node22</title>
<path fill="none" stroke="midnightblue" d="M1496.36,-180.25C1497.91,-169.02 1499.66,-156.38 1500.8,-148.19"/>
<polygon fill="midnightblue" stroke="midnightblue" points="1492.86,-180.01 1494.95,-190.4 1499.79,-180.97 1492.86,-180.01"/>
</g>
<!-- Node23&#45;&gt;Node4 -->
<g id="edge38" class="edge">
<title>Node23&#45;&gt;Node4</title>
<path fill="none" stroke="midnightblue" d="M1152.61,-184.08C1125.06,-161.18 1082.89,-126.75 1074,-123 1011.89,-96.77 812.49,-80.81 726.78,-75"/>
<polygon fill="midnightblue" stroke="midnightblue" points="1150.38,-186.77 1160.3,-190.48 1154.86,-181.39 1150.38,-186.77"/>
</g>
<!-- Node24 -->
<g id="node24" class="node">
<title>Node24</title>
<g id="a_node24"><a xlink:href="tide_8c.html" target="_top" xlink:title=" ">
<polygon fill="none" stroke="black" points="1126,-129 1126,-148 1242,-148 1242,-129 1126,-129"/>
<text text-anchor="middle" x="1184" y="-136" font-family="Helvetica,sans-Serif" font-size="10.00">src/WillyWeather/tide.c</text>
</a>
</g>
</g>
<!-- Node23&#45;&gt;Node24 -->
<g id="edge39" class="edge">
<title>Node23&#45;&gt;Node24</title>
<path fill="none" stroke="midnightblue" d="M1179.61,-180.25C1180.82,-169.02 1182.18,-156.38 1183.06,-148.19"/>
<polygon fill="midnightblue" stroke="midnightblue" points="1176.11,-180.08 1178.52,-190.4 1183.07,-180.83 1176.11,-180.08"/>
</g>
<!-- Node26&#45;&gt;Node2 -->
<g id="edge46" class="edge">
<title>Node26&#45;&gt;Node2</title>
<path fill="none" stroke="midnightblue" d="M300.01,-323.57C282.84,-310.74 258.68,-292.69 244.55,-282.13"/>
<polygon fill="midnightblue" stroke="midnightblue" points="298.16,-326.55 308.27,-329.73 302.35,-320.94 298.16,-326.55"/>
</g>
<!-- Node26&#45;&gt;Node3 -->
<g id="edge45" class="edge">
<title>Node26&#45;&gt;Node3</title>
<path fill="none" stroke="midnightblue" d="M324.72,-319.72C329.11,-303.05 336.13,-278.11 344,-257 348.64,-244.54 354.97,-230.84 359.81,-220.86"/>
<polygon fill="midnightblue" stroke="midnightblue" points="321.23,-319.25 322.13,-329.8 328.01,-320.99 321.23,-319.25"/>
</g>
<!-- Node26&#45;&gt;Node4 -->
<g id="edge47" class="edge">
<title>Node26&#45;&gt;Node4</title>
<path fill="none" stroke="midnightblue" d="M329.7,-320.68C339.87,-303.09 357.13,-276.11 377,-257 398.33,-236.49 410.58,-240.31 433,-221 476.91,-183.19 470.25,-154.33 519,-123 558.58,-97.56 611.58,-84.43 647.38,-78.02"/>
<polygon fill="midnightblue" stroke="midnightblue" points="326.41,-319.39 324.56,-329.83 332.51,-322.82 326.41,-319.39"/>
</g>
<!-- Node27 -->
<g id="node27" class="node">
<title>Node27</title>
<g id="a_node27"><a xlink:href="ftp_8c.html" target="_top" xlink:title=" ">
<polygon fill="none" stroke="black" points="66,-263 66,-282 118,-282 118,-263 66,-263"/>
<text text-anchor="middle" x="92" y="-270" font-family="Helvetica,sans-Serif" font-size="10.00">src/ftp.c</text>
</a>
</g>
</g>
<!-- Node26&#45;&gt;Node27 -->
<g id="edge48" class="edge">
<title>Node26&#45;&gt;Node27</title>
<path fill="none" stroke="midnightblue" d="M275.63,-327.72C237.34,-318.15 180.68,-303.33 132,-288 126.36,-286.22 120.34,-284.14 114.73,-282.12"/>
<polygon fill="midnightblue" stroke="midnightblue" points="274.89,-331.14 285.44,-330.16 276.58,-324.35 274.89,-331.14"/>
</g>
<!-- Node28&#45;&gt;Node4 -->
<g id="edge66" class="edge">
<title>Node28&#45;&gt;Node4</title>
<path fill="none" stroke="midnightblue" d="M1093.34,-399.49C1229.58,-396.77 1613,-379.66 1613,-273.5 1613,-273.5 1613,-273.5 1613,-204.5 1613,-166.48 1617.06,-146.28 1587,-123 1552.53,-96.3 895.92,-77.81 726.58,-73.48"/>
<polygon fill="midnightblue" stroke="midnightblue" points="1093.14,-396 1083.2,-399.68 1093.26,-402.99 1093.14,-396"/>
</g>
<!-- Node28&#45;&gt;Node7 -->
<g id="edge51" class="edge">
<title>Node28&#45;&gt;Node7</title>
<path fill="none" stroke="midnightblue" d="M1093.41,-399.54C1160.21,-397.61 1285.03,-389.22 1385,-355 1476.35,-323.73 1523.06,-311.76 1556,-221 1560.7,-208.05 1564.69,-200.69 1556,-190 1544.29,-175.59 1437.46,-157.48 1370.02,-147.33"/>
<polygon fill="midnightblue" stroke="midnightblue" points="1093.11,-396.05 1083.2,-399.8 1093.29,-403.05 1093.11,-396.05"/>
</g>
<!-- Node28&#45;&gt;Node10 -->
<g id="edge53" class="edge">
<title>Node28&#45;&gt;Node10</title>
<path fill="none" stroke="midnightblue" d="M998.35,-398.7C852.87,-394.51 415.83,-380.1 276,-355 175.82,-337.01 117.54,-369.83 57,-288 22.1,-240.82 87.48,-172.28 113.23,-148.23"/>
<polygon fill="midnightblue" stroke="midnightblue" points="998.62,-402.21 1008.72,-399 998.82,-395.21 998.62,-402.21"/>
</g>
<!-- Node28&#45;&gt;Node14 -->
<g id="edge50" class="edge">
<title>Node28&#45;&gt;Node14</title>
<path fill="none" stroke="midnightblue" d="M998.8,-395.22C951.46,-389.41 877.01,-377.45 816,-355 768.57,-337.55 718.23,-305.87 691.12,-287.57"/>
<polygon fill="midnightblue" stroke="midnightblue" points="998.43,-398.7 1008.77,-396.41 999.25,-391.75 998.43,-398.7"/>
</g>
<!-- Node28&#45;&gt;Node16 -->
<g id="edge52" class="edge">
<title>Node28&#45;&gt;Node16</title>
<path fill="none" stroke="midnightblue" d="M998.49,-394.98C901.12,-384.69 678.15,-361.12 559.9,-348.63"/>
<polygon fill="midnightblue" stroke="midnightblue" points="998.31,-398.48 1008.62,-396.05 999.05,-391.52 998.31,-398.48"/>
</g>
<!-- Node28&#45;&gt;Node18 -->
<g id="edge57" class="edge">
<title>Node28&#45;&gt;Node18</title>
<path fill="none" stroke="midnightblue" d="M998.81,-394.66C946.19,-387.86 865.41,-374.57 842,-355 819.18,-335.92 811.42,-298.96 809,-282.17"/>
<polygon fill="midnightblue" stroke="midnightblue" points="998.57,-398.16 1008.93,-395.94 999.44,-391.22 998.57,-398.16"/>
</g>
<!-- Node28&#45;&gt;Node20 -->
<g id="edge63" class="edge">
<title>Node28&#45;&gt;Node20</title>
<path fill="none" stroke="midnightblue" d="M1093.29,-392.64C1134.78,-385.44 1196.37,-372.93 1248,-355 1301.54,-336.4 1360.37,-305.44 1392.57,-287.51"/>
<polygon fill="midnightblue" stroke="midnightblue" points="1092.47,-389.23 1083.2,-394.36 1093.64,-396.13 1092.47,-389.23"/>
</g>
<!-- Node28&#45;&gt;Node21 -->
<g id="edge64" class="edge">
<title>Node28&#45;&gt;Node21</title>
<path fill="none" stroke="midnightblue" d="M1093.03,-394.78C1194.88,-382.43 1430.68,-347.88 1480,-288 1495.76,-268.87 1496.16,-238.37 1494.76,-220.61"/>
<polygon fill="midnightblue" stroke="midnightblue" points="1092.54,-391.31 1083.02,-395.97 1093.37,-398.26 1092.54,-391.31"/>
</g>
<!-- Node28&#45;&gt;Node23 -->
<g id="edge65" class="edge">
<title>Node28&#45;&gt;Node23</title>
<path fill="none" stroke="midnightblue" d="M1060.65,-383.79C1067.97,-375.42 1076.77,-364.91 1084,-355 1118.43,-307.82 1153.53,-247.88 1168.92,-220.86"/>
<polygon fill="midnightblue" stroke="midnightblue" points="1057.97,-381.53 1053.95,-391.34 1063.21,-386.18 1057.97,-381.53"/>
</g>
<!-- Node29 -->
<g id="node29" class="node">
<title>Node29</title>
<g id="a_node29"><a xlink:href="_ubidots_2authenticate_8h.html" target="_top" xlink:title=" ">
<polygon fill="none" stroke="black" points="851,-330 851,-349 999,-349 999,-330 851,-330"/>
<text text-anchor="middle" x="925" y="-337" font-family="Helvetica,sans-Serif" font-size="10.00">include/Ubidots/authenticate.h</text>
</a>
</g>
</g>
<!-- Node28&#45;&gt;Node29 -->
<g id="edge54" class="edge">
<title>Node28&#45;&gt;Node29</title>
<path fill="none" stroke="midnightblue" d="M1019.61,-387.02C996.14,-375.48 962.51,-358.94 942.3,-349.01"/>
<polygon fill="midnightblue" stroke="midnightblue" points="1018.15,-390.2 1028.66,-391.48 1021.23,-383.92 1018.15,-390.2"/>
</g>
<!-- Node31 -->
<g id="node31" class="node">
<title>Node31</title>
<g id="a_node31"><a xlink:href="_willy_weather_2authenticate_8h.html" target="_top" xlink:title=" ">
<polygon fill="none" stroke="black" points="1131.5,-324.5 1131.5,-354.5 1238.5,-354.5 1238.5,-324.5 1131.5,-324.5"/>
<text text-anchor="start" x="1139.5" y="-342.5" font-family="Helvetica,sans-Serif" font-size="10.00">include/WillyWeather</text>
<text text-anchor="middle" x="1185" y="-331.5" font-family="Helvetica,sans-Serif" font-size="10.00">/authenticate.h</text>
</a>
</g>
</g>
<!-- Node28&#45;&gt;Node31 -->
<g id="edge58" class="edge">
<title>Node28&#45;&gt;Node31</title>
<path fill="none" stroke="midnightblue" d="M1075.29,-387.46C1097.81,-377.82 1128.9,-364.51 1152.24,-354.52"/>
<polygon fill="midnightblue" stroke="midnightblue" points="1073.73,-384.32 1065.92,-391.48 1076.49,-390.76 1073.73,-384.32"/>
</g>
<!-- Node33 -->
<g id="node33" class="node">
<title>Node33</title>
<g id="a_node33"><a xlink:href="http_8c.html" target="_top" xlink:title=" ">
<polygon fill="none" stroke="black" points="1017.5,-330 1017.5,-349 1074.5,-349 1074.5,-330 1017.5,-330"/>
<text text-anchor="middle" x="1046" y="-337" font-family="Helvetica,sans-Serif" font-size="10.00">src/http.c</text>
</a>
</g>
</g>
<!-- Node28&#45;&gt;Node33 -->
<g id="edge67" class="edge">
<title>Node28&#45;&gt;Node33</title>
<path fill="none" stroke="midnightblue" d="M1046,-381.32C1046,-370.5 1046,-357.4 1046,-349.01"/>
<polygon fill="midnightblue" stroke="midnightblue" points="1042.5,-381.48 1046,-391.48 1049.5,-381.48 1042.5,-381.48"/>
</g>
<!-- Node29&#45;&gt;Node18 -->
<g id="edge55" class="edge">
<title>Node29&#45;&gt;Node18</title>
<path fill="none" stroke="midnightblue" d="M900.32,-324.79C877.13,-311.9 843.14,-293.02 823.53,-282.13"/>
<polygon fill="midnightblue" stroke="midnightblue" points="898.78,-327.94 909.22,-329.73 902.18,-321.82 898.78,-327.94"/>
</g>
<!-- Node30 -->
<g id="node30" class="node">
<title>Node30</title>
<g id="a_node30"><a xlink:href="_ubidots_2authenticate_8c.html" target="_top" xlink:title=" ">
<polygon fill="none" stroke="black" points="928.5,-263 928.5,-282 1059.5,-282 1059.5,-263 928.5,-263"/>
<text text-anchor="middle" x="994" y="-270" font-family="Helvetica,sans-Serif" font-size="10.00">src/Ubidots/authenticate.c</text>
</a>
</g>
</g>
<!-- Node29&#45;&gt;Node30 -->
<g id="edge56" class="edge">
<title>Node29&#45;&gt;Node30</title>
<path fill="none" stroke="midnightblue" d="M941.61,-322.86C955.17,-310.08 973.84,-292.49 984.84,-282.13"/>
<polygon fill="midnightblue" stroke="midnightblue" points="939.18,-320.33 934.31,-329.73 943.98,-325.42 939.18,-320.33"/>
</g>
<!-- Node31&#45;&gt;Node4 -->
<g id="edge61" class="edge">
<title>Node31&#45;&gt;Node4</title>
<path fill="none" stroke="midnightblue" d="M1173.9,-314.99C1157.23,-282.17 1122.62,-222.96 1076,-190 965.26,-111.69 801.46,-84.73 726.75,-76.16"/>
<polygon fill="midnightblue" stroke="midnightblue" points="1170.92,-316.86 1178.5,-324.27 1177.2,-313.75 1170.92,-316.86"/>
</g>
<!-- Node31&#45;&gt;Node20 -->
<g id="edge59" class="edge">
<title>Node31&#45;&gt;Node20</title>
<path fill="none" stroke="midnightblue" d="M1244.91,-321.71C1282.66,-311.14 1330.86,-297.63 1366.63,-287.61"/>
<polygon fill="midnightblue" stroke="midnightblue" points="1243.74,-318.41 1235.05,-324.48 1245.63,-325.15 1243.74,-318.41"/>
</g>
<!-- Node31&#45;&gt;Node23 -->
<g id="edge60" class="edge">
<title>Node31&#45;&gt;Node23</title>
<path fill="none" stroke="midnightblue" d="M1183.54,-314.39C1181.87,-286.9 1179.21,-242.89 1177.85,-220.52"/>
<polygon fill="midnightblue" stroke="midnightblue" points="1180.05,-314.6 1184.14,-324.37 1187.03,-314.18 1180.05,-314.6"/>
</g>
<!-- Node32 -->
<g id="node32" class="node">
<title>Node32</title>
<g id="a_node32"><a xlink:href="_willy_weather_2authenticate_8c.html" target="_top" xlink:title=" ">
<polygon fill="none" stroke="black" points="1192.5,-263 1192.5,-282 1345.5,-282 1345.5,-263 1192.5,-263"/>
<text text-anchor="middle" x="1269" y="-270" font-family="Helvetica,sans-Serif" font-size="10.00">src/WillyWeather/authenticate.c</text>
</a>
</g>
</g>
<!-- Node31&#45;&gt;Node32 -->
<g id="edge62" class="edge">
<title>Node31&#45;&gt;Node32</title>
<path fill="none" stroke="midnightblue" d="M1211.48,-318.01C1227.08,-305.94 1245.99,-291.3 1257.76,-282.19"/>
<polygon fill="midnightblue" stroke="midnightblue" points="1208.99,-315.51 1203.23,-324.4 1213.28,-321.04 1208.99,-315.51"/>
</g>
</g>
</svg>
