<?xml version="1.0" encoding="UTF-8" standalone="no"?>
<!DOCTYPE svg PUBLIC "-//W3C//DTD SVG 1.1//EN"
 "http://www.w3.org/Graphics/SVG/1.1/DTD/svg11.dtd">
<!-- Generated by graphviz version 2.49.3 (20211027.1534)
 -->
<!-- Title: include/utils.h Pages: 1 -->
<svg width="872pt" height="218pt"
 viewBox="0.00 0.00 872.00 218.00" xmlns="http://www.w3.org/2000/svg" xmlns:xlink="http://www.w3.org/1999/xlink">
<g id="graph0" class="graph" transform="scale(1 1) rotate(0) translate(4 214)">
<title>include/utils.h</title>
<!-- Node1 -->
<g id="node1" class="node">
<title>Node1</title>
<g id="a_node1"><a xlink:title=" ">
<polygon fill="#bfbfbf" stroke="black" points="454.5,-190.5 454.5,-209.5 530.5,-209.5 530.5,-190.5 454.5,-190.5"/>
<text text-anchor="middle" x="492.5" y="-197.5" font-family="Helvetica,sans-Serif" font-size="10.00">include/utils.h</text>
</a>
</g>
</g>
<!-- Node2 -->
<g id="node2" class="node">
<title>Node2</title>
<g id="a_node2"><a xlink:href="food__auth_8h.html" target="_top" xlink:title=" ">
<polygon fill="none" stroke="black" points="501.5,-123.5 501.5,-153.5 611.5,-153.5 611.5,-123.5 501.5,-123.5"/>
<text text-anchor="start" x="509.5" y="-141.5" font-family="Helvetica,sans-Serif" font-size="10.00">include/FoodAuthority</text>
<text text-anchor="middle" x="556.5" y="-130.5" font-family="Helvetica,sans-Serif" font-size="10.00">/food_auth.h</text>
</a>
</g>
</g>
<!-- Node1&#45;&gt;Node2 -->
<g id="edge1" class="edge">
<title>Node1&#45;&gt;Node2</title>
<path fill="none" stroke="midnightblue" d="M509.02,-183.65C519.02,-174.35 531.68,-162.57 541.42,-153.52"/>
<polygon fill="midnightblue" stroke="midnightblue" points="506.61,-181.1 501.67,-190.48 511.38,-186.23 506.61,-181.1"/>
</g>
<!-- Node6 -->
<g id="node6" class="node">
<title>Node6</title>
<g id="a_node6"><a xlink:href="authenticate_8h.html" target="_top" xlink:title=" ">
<polygon fill="none" stroke="black" points="55.5,-129 55.5,-148 213.5,-148 213.5,-129 55.5,-129"/>
<text text-anchor="middle" x="134.5" y="-136" font-family="Helvetica,sans-Serif" font-size="10.00">include/IBM_EMS/authenticate.h</text>
</a>
</g>
</g>
<!-- Node1&#45;&gt;Node6 -->
<g id="edge5" class="edge">
<title>Node1&#45;&gt;Node6</title>
<path fill="none" stroke="midnightblue" d="M444.24,-190.98C376.77,-179.76 254.77,-159.49 185.73,-148.02"/>
<polygon fill="midnightblue" stroke="midnightblue" points="443.75,-194.45 454.19,-192.63 444.9,-187.54 443.75,-194.45"/>
</g>
<!-- Node8 -->
<g id="node8" class="node">
<title>Node8</title>
<g id="a_node8"><a xlink:href="precipitation_8h.html" target="_top" xlink:title=" ">
<polygon fill="none" stroke="black" points="629.5,-129 629.5,-148 787.5,-148 787.5,-129 629.5,-129"/>
<text text-anchor="middle" x="708.5" y="-136" font-family="Helvetica,sans-Serif" font-size="10.00">include/IBM_EMS/precipitation.h</text>
</a>
</g>
</g>
<!-- Node1&#45;&gt;Node8 -->
<g id="edge8" class="edge">
<title>Node1&#45;&gt;Node8</title>
<path fill="none" stroke="midnightblue" d="M533.34,-187.75C575.31,-176.19 639.7,-158.45 677.61,-148.01"/>
<polygon fill="midnightblue" stroke="midnightblue" points="532.16,-184.44 523.45,-190.48 534.02,-191.19 532.16,-184.44"/>
</g>
<!-- Node10 -->
<g id="node10" class="node">
<title>Node10</title>
<g id="a_node10"><a xlink:href="ubidots_8h.html" target="_top" xlink:title=" ">
<polygon fill="none" stroke="black" points="231.5,-129 231.5,-148 357.5,-148 357.5,-129 231.5,-129"/>
<text text-anchor="middle" x="294.5" y="-136" font-family="Helvetica,sans-Serif" font-size="10.00">include/Ubidots/ubidots.h</text>
</a>
</g>
</g>
<!-- Node1&#45;&gt;Node10 -->
<g id="edge10" class="edge">
<title>Node1&#45;&gt;Node10</title>
<path fill="none" stroke="midnightblue" d="M454.33,-187.53C415.84,-175.96 357.34,-158.38 322.82,-148.01"/>
<polygon fill="midnightblue" stroke="midnightblue" points="453.55,-190.95 464.13,-190.48 455.56,-184.25 453.55,-190.95"/>
</g>
<!-- Node12 -->
<g id="node12" class="node">
<title>Node12</title>
<g id="a_node12"><a xlink:href="w__weather_8h.html" target="_top" xlink:title=" ">
<polygon fill="none" stroke="black" points="376,-123.5 376,-153.5 483,-153.5 483,-123.5 376,-123.5"/>
<text text-anchor="start" x="384" y="-141.5" font-family="Helvetica,sans-Serif" font-size="10.00">include/WillyWeather</text>
<text text-anchor="middle" x="429.5" y="-130.5" font-family="Helvetica,sans-Serif" font-size="10.00">/w_weather.h</text>
</a>
</g>
</g>
<!-- Node1&#45;&gt;Node12 -->
<g id="edge13" class="edge">
<title>Node1&#45;&gt;Node12</title>
<path fill="none" stroke="midnightblue" d="M475.95,-183.37C466.15,-174.11 453.83,-162.48 444.35,-153.52"/>
<polygon fill="midnightblue" stroke="midnightblue" points="473.8,-186.15 483.47,-190.48 478.61,-181.06 473.8,-186.15"/>
</g>
<!-- Node14 -->
<g id="node14" class="node">
<title>Node14</title>
<g id="a_node14"><a xlink:href="utils_8c.html" target="_top" xlink:title=" ">
<polygon fill="none" stroke="black" points="805,-129 805,-148 864,-148 864,-129 805,-129"/>
<text text-anchor="middle" x="834.5" y="-136" font-family="Helvetica,sans-Serif" font-size="10.00">src/utils.c</text>
</a>
</g>
</g>
<!-- Node1&#45;&gt;Node14 -->
<g id="edge16" class="edge">
<title>Node1&#45;&gt;Node14</title>
<path fill="none" stroke="midnightblue" d="M540.99,-195.1C601.53,-189.49 707.94,-177.16 796.5,-154 802.51,-152.43 808.88,-150.22 814.65,-148.01"/>
<polygon fill="midnightblue" stroke="midnightblue" points="540.59,-191.62 530.95,-196.01 541.22,-198.59 540.59,-191.62"/>
</g>
<!-- Node3 -->
<g id="node3" class="node">
<title>Node3</title>
<g id="a_node3"><a xlink:href="main_8h.html" target="_top" xlink:title=" ">
<polygon fill="none" stroke="black" points="286,-62 286,-81 365,-81 365,-62 286,-62"/>
<text text-anchor="middle" x="325.5" y="-69" font-family="Helvetica,sans-Serif" font-size="10.00">include/main.h</text>
</a>
</g>
</g>
<!-- Node2&#45;&gt;Node3 -->
<g id="edge2" class="edge">
<title>Node2&#45;&gt;Node3</title>
<path fill="none" stroke="midnightblue" d="M495.35,-120.81C460,-111.1 414.69,-98.52 374.5,-87 367.85,-85.09 360.7,-83 353.98,-81.02"/>
<polygon fill="midnightblue" stroke="midnightblue" points="494.48,-124.2 505.05,-123.48 496.33,-117.45 494.48,-124.2"/>
</g>
<!-- Node5 -->
<g id="node5" class="node">
<title>Node5</title>
<g id="a_node5"><a xlink:href="food__auth_8c.html" target="_top" xlink:title=" ">
<polygon fill="none" stroke="black" points="502,-56.5 502,-86.5 617,-86.5 617,-56.5 502,-56.5"/>
<text text-anchor="start" x="510" y="-74.5" font-family="Helvetica,sans-Serif" font-size="10.00">src/FoodAuthority/food</text>
<text text-anchor="middle" x="559.5" y="-63.5" font-family="Helvetica,sans-Serif" font-size="10.00">_auth.c</text>
</a>
</g>
</g>
<!-- Node2&#45;&gt;Node5 -->
<g id="edge4" class="edge">
<title>Node2&#45;&gt;Node5</title>
<path fill="none" stroke="midnightblue" d="M557.61,-113.4C558.03,-104.37 558.49,-94.41 558.85,-86.58"/>
<polygon fill="midnightblue" stroke="midnightblue" points="554.12,-113.25 557.15,-123.4 561.11,-113.57 554.12,-113.25"/>
</g>
<!-- Node4 -->
<g id="node4" class="node">
<title>Node4</title>
<g id="a_node4"><a xlink:href="main_8c.html" target="_top" xlink:title=" ">
<polygon fill="none" stroke="black" points="294.5,-0.5 294.5,-19.5 356.5,-19.5 356.5,-0.5 294.5,-0.5"/>
<text text-anchor="middle" x="325.5" y="-7.5" font-family="Helvetica,sans-Serif" font-size="10.00">src/main.c</text>
</a>
</g>
</g>
<!-- Node3&#45;&gt;Node4 -->
<g id="edge3" class="edge">
<title>Node3&#45;&gt;Node4</title>
<path fill="none" stroke="midnightblue" d="M325.5,-51.82C325.5,-41 325.5,-27.9 325.5,-19.51"/>
<polygon fill="midnightblue" stroke="midnightblue" points="322,-51.98 325.5,-61.98 329,-51.98 322,-51.98"/>
</g>
<!-- Node6&#45;&gt;Node3 -->
<g id="edge6" class="edge">
<title>Node6&#45;&gt;Node3</title>
<path fill="none" stroke="midnightblue" d="M169.46,-125.6C207.33,-112.71 266.81,-92.47 300.34,-81.06"/>
<polygon fill="midnightblue" stroke="midnightblue" points="168.2,-122.33 159.86,-128.87 170.46,-128.96 168.2,-122.33"/>
</g>
<!-- Node7 -->
<g id="node7" class="node">
<title>Node7</title>
<g id="a_node7"><a xlink:href="authenticate_8c.html" target="_top" xlink:title=" ">
<polygon fill="none" stroke="black" points="0,-62 0,-81 141,-81 141,-62 0,-62"/>
<text text-anchor="middle" x="70.5" y="-69" font-family="Helvetica,sans-Serif" font-size="10.00">src/IBM_EMS/authenticate.c</text>
</a>
</g>
</g>
<!-- Node6&#45;&gt;Node7 -->
<g id="edge7" class="edge">
<title>Node6&#45;&gt;Node7</title>
<path fill="none" stroke="midnightblue" d="M118.74,-121.5C106.19,-108.75 89.1,-91.39 78.99,-81.13"/>
<polygon fill="midnightblue" stroke="midnightblue" points="116.36,-124.06 125.87,-128.73 121.35,-119.15 116.36,-124.06"/>
</g>
<!-- Node9 -->
<g id="node9" class="node">
<title>Node9</title>
<g id="a_node9"><a xlink:href="precipitation_8c.html" target="_top" xlink:title=" ">
<polygon fill="none" stroke="black" points="638.5,-62 638.5,-81 778.5,-81 778.5,-62 638.5,-62"/>
<text text-anchor="middle" x="708.5" y="-69" font-family="Helvetica,sans-Serif" font-size="10.00">src/IBM_EMS/precipitation.c</text>
</a>
</g>
</g>
<!-- Node8&#45;&gt;Node9 -->
<g id="edge9" class="edge">
<title>Node8&#45;&gt;Node9</title>
<path fill="none" stroke="midnightblue" d="M708.5,-118.54C708.5,-106.17 708.5,-90.62 708.5,-81.13"/>
<polygon fill="midnightblue" stroke="midnightblue" points="705,-118.73 708.5,-128.73 712,-118.73 705,-118.73"/>
</g>
<!-- Node10&#45;&gt;Node3 -->
<g id="edge11" class="edge">
<title>Node10&#45;&gt;Node3</title>
<path fill="none" stroke="midnightblue" d="M303.01,-119.66C308.99,-107.13 316.72,-90.91 321.39,-81.13"/>
<polygon fill="midnightblue" stroke="midnightblue" points="299.83,-118.2 298.68,-128.73 306.14,-121.21 299.83,-118.2"/>
</g>
<!-- Node11 -->
<g id="node11" class="node">
<title>Node11</title>
<g id="a_node11"><a xlink:href="ubidots_8c.html" target="_top" xlink:title=" ">
<polygon fill="none" stroke="black" points="159,-62 159,-81 268,-81 268,-62 159,-62"/>
<text text-anchor="middle" x="213.5" y="-69" font-family="Helvetica,sans-Serif" font-size="10.00">src/Ubidots/ubidots.c</text>
</a>
</g>
</g>
<!-- Node10&#45;&gt;Node11 -->
<g id="edge12" class="edge">
<title>Node10&#45;&gt;Node11</title>
<path fill="none" stroke="midnightblue" d="M275.45,-122.21C259.49,-109.41 237.29,-91.59 224.25,-81.13"/>
<polygon fill="midnightblue" stroke="midnightblue" points="273.59,-125.2 283.58,-128.73 277.97,-119.75 273.59,-125.2"/>
</g>
<!-- Node12&#45;&gt;Node3 -->
<g id="edge14" class="edge">
<title>Node12&#45;&gt;Node3</title>
<path fill="none" stroke="midnightblue" d="M398.26,-117.97C378.54,-105.65 354.05,-90.35 339.11,-81.01"/>
<polygon fill="midnightblue" stroke="midnightblue" points="396.6,-121.06 406.93,-123.4 400.31,-115.13 396.6,-121.06"/>
</g>
<!-- Node13 -->
<g id="node13" class="node">
<title>Node13</title>
<g id="a_node13"><a xlink:href="w__weather_8c.html" target="_top" xlink:title=" ">
<polygon fill="none" stroke="black" points="383.5,-56.5 383.5,-86.5 483.5,-86.5 483.5,-56.5 383.5,-56.5"/>
<text text-anchor="start" x="391.5" y="-74.5" font-family="Helvetica,sans-Serif" font-size="10.00">src/WillyWeather/w</text>
<text text-anchor="middle" x="433.5" y="-63.5" font-family="Helvetica,sans-Serif" font-size="10.00">_weather.c</text>
</a>
</g>
</g>
<!-- Node12&#45;&gt;Node13 -->
<g id="edge15" class="edge">
<title>Node12&#45;&gt;Node13</title>
<path fill="none" stroke="midnightblue" d="M430.98,-113.4C431.54,-104.37 432.15,-94.41 432.63,-86.58"/>
<polygon fill="midnightblue" stroke="midnightblue" points="427.49,-113.2 430.37,-123.4 434.48,-113.63 427.49,-113.2"/>
</g>
</g>
</svg>
