<?xml version="1.0" encoding="UTF-8" standalone="no"?>
<!DOCTYPE svg PUBLIC "-//W3C//DTD SVG 1.1//EN"
 "http://www.w3.org/Graphics/SVG/1.1/DTD/svg11.dtd">
<!-- Generated by graphviz version 2.49.3 (20211027.1534)
 -->
<!-- Title: include/utils.h Pages: 1 -->
<svg width="962pt" height="274pt"
 viewBox="0.00 0.00 961.50 274.00" xmlns="http://www.w3.org/2000/svg" xmlns:xlink="http://www.w3.org/1999/xlink">
<g id="graph0" class="graph" transform="scale(1 1) rotate(0) translate(4 270)">
<title>include/utils.h</title>
<!-- Node1 -->
<g id="node1" class="node">
<title>Node1</title>
<g id="a_node1"><a xlink:title=" ">
<polygon fill="#bfbfbf" stroke="black" points="540.5,-246.5 540.5,-265.5 616.5,-265.5 616.5,-246.5 540.5,-246.5"/>
<text text-anchor="middle" x="578.5" y="-253.5" font-family="Helvetica,sans-Serif" font-size="10.00">include/utils.h</text>
</a>
</g>
</g>
<!-- Node2 -->
<g id="node2" class="node">
<title>Node2</title>
<g id="a_node2"><a xlink:href="food__auth_8h.html" target="_top" xlink:title=" ">
<polygon fill="none" stroke="black" points="88.5,-179.5 88.5,-209.5 198.5,-209.5 198.5,-179.5 88.5,-179.5"/>
<text text-anchor="start" x="96.5" y="-197.5" font-family="Helvetica,sans-Serif" font-size="10.00">include/FoodAuthority</text>
<text text-anchor="middle" x="143.5" y="-186.5" font-family="Helvetica,sans-Serif" font-size="10.00">/food_auth.h</text>
</a>
</g>
</g>
<!-- Node1&#45;&gt;Node2 -->
<g id="edge1" class="edge">
<title>Node1&#45;&gt;Node2</title>
<path fill="none" stroke="midnightblue" d="M530.3,-248.41C448.85,-237.27 284.5,-214.79 198.62,-203.04"/>
<polygon fill="midnightblue" stroke="midnightblue" points="529.9,-251.88 540.28,-249.77 530.84,-244.95 529.9,-251.88"/>
</g>
<!-- Node6 -->
<g id="node6" class="node">
<title>Node6</title>
<g id="a_node6"><a xlink:href="_i_b_m___e_i_s_2authenticate_8h.html" target="_top" xlink:title=" ">
<polygon fill="none" stroke="black" points="338,-185 338,-204 491,-204 491,-185 338,-185"/>
<text text-anchor="middle" x="414.5" y="-192" font-family="Helvetica,sans-Serif" font-size="10.00">include/IBM_EIS/authenticate.h</text>
</a>
</g>
</g>
<!-- Node1&#45;&gt;Node6 -->
<g id="edge5" class="edge">
<title>Node1&#45;&gt;Node6</title>
<path fill="none" stroke="midnightblue" d="M545.24,-242.93C513.36,-231.37 466.07,-214.21 437.95,-204.01"/>
<polygon fill="midnightblue" stroke="midnightblue" points="544.41,-246.35 555,-246.48 546.8,-239.77 544.41,-246.35"/>
</g>
<!-- Node7 -->
<g id="node7" class="node">
<title>Node7</title>
<g id="a_node7"><a xlink:href="timeseries_8h.html" target="_top" xlink:title=" ">
<polygon fill="none" stroke="black" points="172,-118 172,-137 317,-137 317,-118 172,-118"/>
<text text-anchor="middle" x="244.5" y="-125" font-family="Helvetica,sans-Serif" font-size="10.00">include/IBM_EIS/timeseries.h</text>
</a>
</g>
</g>
<!-- Node1&#45;&gt;Node7 -->
<g id="edge11" class="edge">
<title>Node1&#45;&gt;Node7</title>
<path fill="none" stroke="midnightblue" d="M530.28,-254.56C477.9,-252.26 393.05,-243.13 328.5,-210 293.25,-191.91 262.96,-154.09 250.53,-137.1"/>
<polygon fill="midnightblue" stroke="midnightblue" points="530.19,-258.06 540.31,-254.93 530.45,-251.06 530.19,-258.06"/>
</g>
<!-- Node10 -->
<g id="node10" class="node">
<title>Node10</title>
<g id="a_node10"><a xlink:href="ubidots_8h.html" target="_top" xlink:title=" ">
<polygon fill="none" stroke="black" points="515.5,-185 515.5,-204 641.5,-204 641.5,-185 515.5,-185"/>
<text text-anchor="middle" x="578.5" y="-192" font-family="Helvetica,sans-Serif" font-size="10.00">include/Ubidots/ubidots.h</text>
</a>
</g>
</g>
<!-- Node1&#45;&gt;Node10 -->
<g id="edge12" class="edge">
<title>Node1&#45;&gt;Node10</title>
<path fill="none" stroke="midnightblue" d="M578.5,-236.32C578.5,-225.5 578.5,-212.4 578.5,-204.01"/>
<polygon fill="midnightblue" stroke="midnightblue" points="575,-236.48 578.5,-246.48 582,-236.48 575,-236.48"/>
</g>
<!-- Node12 -->
<g id="node12" class="node">
<title>Node12</title>
<g id="a_node12"><a xlink:href="location_8h.html" target="_top" xlink:title=" ">
<polygon fill="none" stroke="black" points="698,-179.5 698,-209.5 805,-209.5 805,-179.5 698,-179.5"/>
<text text-anchor="start" x="706" y="-197.5" font-family="Helvetica,sans-Serif" font-size="10.00">include/WillyWeather</text>
<text text-anchor="middle" x="751.5" y="-186.5" font-family="Helvetica,sans-Serif" font-size="10.00">/location.h</text>
</a>
</g>
</g>
<!-- Node1&#45;&gt;Node12 -->
<g id="edge15" class="edge">
<title>Node1&#45;&gt;Node12</title>
<path fill="none" stroke="midnightblue" d="M613.09,-243.1C641.24,-233.42 681.03,-219.74 710.73,-209.52"/>
<polygon fill="midnightblue" stroke="midnightblue" points="611.6,-239.91 603.29,-246.48 613.88,-246.53 611.6,-239.91"/>
</g>
<!-- Node13 -->
<g id="node13" class="node">
<title>Node13</title>
<g id="a_node13"><a xlink:href="tide_8h.html" target="_top" xlink:title=" ">
<polygon fill="none" stroke="black" points="694,-112.5 694,-142.5 801,-142.5 801,-112.5 694,-112.5"/>
<text text-anchor="start" x="702" y="-130.5" font-family="Helvetica,sans-Serif" font-size="10.00">include/WillyWeather</text>
<text text-anchor="middle" x="747.5" y="-119.5" font-family="Helvetica,sans-Serif" font-size="10.00">/tide.h</text>
</a>
</g>
</g>
<!-- Node1&#45;&gt;Node13 -->
<g id="edge20" class="edge">
<title>Node1&#45;&gt;Node13</title>
<path fill="none" stroke="midnightblue" d="M602.25,-241.3C616.56,-232.77 634.95,-221.31 650.5,-210 666.51,-198.36 707.96,-162.8 731.16,-142.71"/>
<polygon fill="midnightblue" stroke="midnightblue" points="600.35,-238.36 593.51,-246.45 603.91,-244.39 600.35,-238.36"/>
</g>
<!-- Node16 -->
<g id="node16" class="node">
<title>Node16</title>
<g id="a_node16"><a xlink:href="utils_8c.html" target="_top" xlink:title=" ">
<polygon fill="none" stroke="black" points="823,-185 823,-204 882,-204 882,-185 823,-185"/>
<text text-anchor="middle" x="852.5" y="-192" font-family="Helvetica,sans-Serif" font-size="10.00">src/utils.c</text>
</a>
</g>
</g>
<!-- Node1&#45;&gt;Node16 -->
<g id="edge21" class="edge">
<title>Node1&#45;&gt;Node16</title>
<path fill="none" stroke="midnightblue" d="M626.89,-248.15C674.79,-240.81 749.95,-227.76 813.5,-210 819.34,-208.37 825.55,-206.24 831.26,-204.13"/>
<polygon fill="midnightblue" stroke="midnightblue" points="626.17,-244.72 616.8,-249.67 627.21,-251.64 626.17,-244.72"/>
</g>
<!-- Node3 -->
<g id="node3" class="node">
<title>Node3</title>
<g id="a_node3"><a xlink:href="main_8h.html" target="_top" xlink:title=" ">
<polygon fill="none" stroke="black" points="460,-56.5 460,-75.5 539,-75.5 539,-56.5 460,-56.5"/>
<text text-anchor="middle" x="499.5" y="-63.5" font-family="Helvetica,sans-Serif" font-size="10.00">include/main.h</text>
</a>
</g>
</g>
<!-- Node2&#45;&gt;Node3 -->
<g id="edge2" class="edge">
<title>Node2&#45;&gt;Node3</title>
<path fill="none" stroke="midnightblue" d="M142.31,-169.3C142.81,-150.86 146.77,-126.29 162.5,-112 184.21,-92.28 375.34,-76.06 459.73,-69.79"/>
<polygon fill="midnightblue" stroke="midnightblue" points="138.81,-169.33 142.35,-179.32 145.81,-169.3 138.81,-169.33"/>
</g>
<!-- Node5 -->
<g id="node5" class="node">
<title>Node5</title>
<g id="a_node5"><a xlink:href="food__auth_8c.html" target="_top" xlink:title=" ">
<polygon fill="none" stroke="black" points="0,-112.5 0,-142.5 115,-142.5 115,-112.5 0,-112.5"/>
<text text-anchor="start" x="8" y="-130.5" font-family="Helvetica,sans-Serif" font-size="10.00">src/FoodAuthority/food</text>
<text text-anchor="middle" x="57.5" y="-119.5" font-family="Helvetica,sans-Serif" font-size="10.00">_auth.c</text>
</a>
</g>
</g>
<!-- Node2&#45;&gt;Node5 -->
<g id="edge4" class="edge">
<title>Node2&#45;&gt;Node5</title>
<path fill="none" stroke="midnightblue" d="M116.6,-173.17C103.45,-163.23 87.95,-151.51 76.12,-142.58"/>
<polygon fill="midnightblue" stroke="midnightblue" points="114.75,-176.16 124.84,-179.4 118.97,-170.57 114.75,-176.16"/>
</g>
<!-- Node4 -->
<g id="node4" class="node">
<title>Node4</title>
<g id="a_node4"><a xlink:href="main_8c.html" target="_top" xlink:title=" ">
<polygon fill="none" stroke="black" points="468.5,-0.5 468.5,-19.5 530.5,-19.5 530.5,-0.5 468.5,-0.5"/>
<text text-anchor="middle" x="499.5" y="-7.5" font-family="Helvetica,sans-Serif" font-size="10.00">src/main.c</text>
</a>
</g>
</g>
<!-- Node3&#45;&gt;Node4 -->
<g id="edge3" class="edge">
<title>Node3&#45;&gt;Node4</title>
<path fill="none" stroke="midnightblue" d="M499.5,-45.8C499.5,-36.91 499.5,-26.78 499.5,-19.75"/>
<polygon fill="midnightblue" stroke="midnightblue" points="496,-46.08 499.5,-56.08 503,-46.08 496,-46.08"/>
</g>
<!-- Node6&#45;&gt;Node3 -->
<g id="edge9" class="edge">
<title>Node6&#45;&gt;Node3</title>
<path fill="none" stroke="midnightblue" d="M440.17,-179.65C454.08,-170.89 470.43,-158.33 480.5,-143 494.54,-121.63 498.21,-90.66 499.16,-75.72"/>
<polygon fill="midnightblue" stroke="midnightblue" points="438.27,-176.71 431.48,-184.85 441.86,-182.72 438.27,-176.71"/>
</g>
<!-- Node6&#45;&gt;Node7 -->
<g id="edge6" class="edge">
<title>Node6&#45;&gt;Node7</title>
<path fill="none" stroke="midnightblue" d="M382.52,-181.27C348.78,-168.37 296.48,-148.38 266.9,-137.06"/>
<polygon fill="midnightblue" stroke="midnightblue" points="381.33,-184.57 391.93,-184.87 383.83,-178.03 381.33,-184.57"/>
</g>
<!-- Node9 -->
<g id="node9" class="node">
<title>Node9</title>
<g id="a_node9"><a xlink:href="_i_b_m___e_i_s_2authenticate_8c.html" target="_top" xlink:title=" ">
<polygon fill="none" stroke="black" points="335.5,-118 335.5,-137 471.5,-137 471.5,-118 335.5,-118"/>
<text text-anchor="middle" x="403.5" y="-125" font-family="Helvetica,sans-Serif" font-size="10.00">src/IBM_EIS/authenticate.c</text>
</a>
</g>
</g>
<!-- Node6&#45;&gt;Node9 -->
<g id="edge10" class="edge">
<title>Node6&#45;&gt;Node9</title>
<path fill="none" stroke="midnightblue" d="M411.29,-174.54C409.2,-162.17 406.57,-146.62 404.96,-137.13"/>
<polygon fill="midnightblue" stroke="midnightblue" points="407.9,-175.46 413.02,-184.73 414.8,-174.29 407.9,-175.46"/>
</g>
<!-- Node7&#45;&gt;Node3 -->
<g id="edge7" class="edge">
<title>Node7&#45;&gt;Node3</title>
<path fill="none" stroke="midnightblue" d="M290.85,-115.69C340.33,-104.14 417.71,-86.08 463.03,-75.51"/>
<polygon fill="midnightblue" stroke="midnightblue" points="289.98,-112.29 281.04,-117.98 291.57,-119.11 289.98,-112.29"/>
</g>
<!-- Node8 -->
<g id="node8" class="node">
<title>Node8</title>
<g id="a_node8"><a xlink:href="timeseries_8c.html" target="_top" xlink:title=" ">
<polygon fill="none" stroke="black" points="180.5,-56.5 180.5,-75.5 308.5,-75.5 308.5,-56.5 180.5,-56.5"/>
<text text-anchor="middle" x="244.5" y="-63.5" font-family="Helvetica,sans-Serif" font-size="10.00">src/IBM_EIS/timeseries.c</text>
</a>
</g>
</g>
<!-- Node7&#45;&gt;Node8 -->
<g id="edge8" class="edge">
<title>Node7&#45;&gt;Node8</title>
<path fill="none" stroke="midnightblue" d="M244.5,-107.82C244.5,-97 244.5,-83.9 244.5,-75.51"/>
<polygon fill="midnightblue" stroke="midnightblue" points="241,-107.98 244.5,-117.98 248,-107.98 241,-107.98"/>
</g>
<!-- Node10&#45;&gt;Node3 -->
<g id="edge13" class="edge">
<title>Node10&#45;&gt;Node3</title>
<path fill="none" stroke="midnightblue" d="M607.19,-179.93C621.5,-171.49 637.45,-159.15 645.5,-143 651.65,-130.67 653.68,-123.08 645.5,-112 621.24,-79.14 573.33,-69.53 539.01,-67.09"/>
<polygon fill="midnightblue" stroke="midnightblue" points="605.19,-177.03 598.12,-184.92 608.57,-183.17 605.19,-177.03"/>
</g>
<!-- Node11 -->
<g id="node11" class="node">
<title>Node11</title>
<g id="a_node11"><a xlink:href="ubidots_8c.html" target="_top" xlink:title=" ">
<polygon fill="none" stroke="black" points="528,-118 528,-137 637,-137 637,-118 528,-118"/>
<text text-anchor="middle" x="582.5" y="-125" font-family="Helvetica,sans-Serif" font-size="10.00">src/Ubidots/ubidots.c</text>
</a>
</g>
</g>
<!-- Node10&#45;&gt;Node11 -->
<g id="edge14" class="edge">
<title>Node10&#45;&gt;Node11</title>
<path fill="none" stroke="midnightblue" d="M579.67,-174.54C580.43,-162.17 581.38,-146.62 581.97,-137.13"/>
<polygon fill="midnightblue" stroke="midnightblue" points="576.16,-174.54 579.04,-184.73 583.15,-174.97 576.16,-174.54"/>
</g>
<!-- Node12&#45;&gt;Node13 -->
<g id="edge16" class="edge">
<title>Node12&#45;&gt;Node13</title>
<path fill="none" stroke="midnightblue" d="M750.02,-169.4C749.46,-160.37 748.85,-150.41 748.37,-142.58"/>
<polygon fill="midnightblue" stroke="midnightblue" points="746.52,-169.63 750.63,-179.4 753.51,-169.2 746.52,-169.63"/>
</g>
<!-- Node15 -->
<g id="node15" class="node">
<title>Node15</title>
<g id="a_node15"><a xlink:href="location_8c.html" target="_top" xlink:title=" ">
<polygon fill="none" stroke="black" points="819.5,-118 819.5,-137 953.5,-137 953.5,-118 819.5,-118"/>
<text text-anchor="middle" x="886.5" y="-125" font-family="Helvetica,sans-Serif" font-size="10.00">src/WillyWeather/location.c</text>
</a>
</g>
</g>
<!-- Node12&#45;&gt;Node15 -->
<g id="edge19" class="edge">
<title>Node12&#45;&gt;Node15</title>
<path fill="none" stroke="midnightblue" d="M789.99,-174.97C815.92,-162.48 848.91,-146.6 868.83,-137.01"/>
<polygon fill="midnightblue" stroke="midnightblue" points="788.28,-171.9 780.79,-179.4 791.32,-178.21 788.28,-171.9"/>
</g>
<!-- Node13&#45;&gt;Node3 -->
<g id="edge17" class="edge">
<title>Node13&#45;&gt;Node3</title>
<path fill="none" stroke="midnightblue" d="M684.14,-111.3C636.78,-99.94 573.76,-84.82 534.94,-75.5"/>
<polygon fill="midnightblue" stroke="midnightblue" points="683.45,-114.73 693.99,-113.66 685.09,-107.93 683.45,-114.73"/>
</g>
<!-- Node14 -->
<g id="node14" class="node">
<title>Node14</title>
<g id="a_node14"><a xlink:href="tide_8c.html" target="_top" xlink:title=" ">
<polygon fill="none" stroke="black" points="689.5,-56.5 689.5,-75.5 805.5,-75.5 805.5,-56.5 689.5,-56.5"/>
<text text-anchor="middle" x="747.5" y="-63.5" font-family="Helvetica,sans-Serif" font-size="10.00">src/WillyWeather/tide.c</text>
</a>
</g>
</g>
<!-- Node13&#45;&gt;Node14 -->
<g id="edge18" class="edge">
<title>Node13&#45;&gt;Node14</title>
<path fill="none" stroke="midnightblue" d="M747.5,-102.29C747.5,-92.86 747.5,-82.65 747.5,-75.66"/>
<polygon fill="midnightblue" stroke="midnightblue" points="744,-102.4 747.5,-112.4 751,-102.4 744,-102.4"/>
</g>
</g>
</svg>
