<?xml version="1.0" encoding="UTF-8" standalone="no"?>
<!DOCTYPE svg PUBLIC "-//W3C//DTD SVG 1.1//EN"
 "http://www.w3.org/Graphics/SVG/1.1/DTD/svg11.dtd">
<!-- Generated by graphviz version 2.49.3 (20211027.1534)
 -->
<!-- Title: include/utils.h Pages: 1 -->
<svg width="958pt" height="274pt"
 viewBox="0.00 0.00 958.16 274.00" xmlns="http://www.w3.org/2000/svg" xmlns:xlink="http://www.w3.org/1999/xlink">
<g id="graph0" class="graph" transform="scale(1 1) rotate(0) translate(4 270)">
<title>include/utils.h</title>
<!-- Node1 -->
<g id="node1" class="node">
<title>Node1</title>
<g id="a_node1"><a xlink:title=" ">
<polygon fill="#bfbfbf" stroke="black" points="535.16,-246.5 535.16,-265.5 611.16,-265.5 611.16,-246.5 535.16,-246.5"/>
<text text-anchor="middle" x="573.16" y="-253.5" font-family="Helvetica,sans-Serif" font-size="10.00">include/utils.h</text>
</a>
</g>
</g>
<!-- Node2 -->
<g id="node2" class="node">
<title>Node2</title>
<g id="a_node2"><a xlink:href="food__auth_8h.html" target="_top" xlink:title=" ">
<polygon fill="none" stroke="black" points="18.16,-179.5 18.16,-209.5 128.16,-209.5 128.16,-179.5 18.16,-179.5"/>
<text text-anchor="start" x="26.16" y="-197.5" font-family="Helvetica,sans-Serif" font-size="10.00">include/FoodAuthority</text>
<text text-anchor="middle" x="73.16" y="-186.5" font-family="Helvetica,sans-Serif" font-size="10.00">/food_auth.h</text>
</a>
</g>
</g>
<!-- Node1&#45;&gt;Node2 -->
<g id="edge1" class="edge">
<title>Node1&#45;&gt;Node2</title>
<path fill="none" stroke="midnightblue" d="M524.68,-250.34C448.31,-242.85 295.38,-227.21 166.16,-210 153.85,-208.36 140.65,-206.42 128.18,-204.49"/>
<polygon fill="midnightblue" stroke="midnightblue" points="524.64,-253.86 534.93,-251.35 525.32,-246.89 524.64,-253.86"/>
</g>
<!-- Node6 -->
<g id="node6" class="node">
<title>Node6</title>
<g id="a_node6"><a xlink:href="_i_b_m___e_i_s_2authenticate_8h.html" target="_top" xlink:title=" ">
<polygon fill="none" stroke="black" points="175.66,-185 175.66,-204 328.66,-204 328.66,-185 175.66,-185"/>
<text text-anchor="middle" x="252.16" y="-192" font-family="Helvetica,sans-Serif" font-size="10.00">include/IBM_EIS/authenticate.h</text>
</a>
</g>
</g>
<!-- Node1&#45;&gt;Node6 -->
<g id="edge5" class="edge">
<title>Node1&#45;&gt;Node6</title>
<path fill="none" stroke="midnightblue" d="M524.89,-246.05C463.56,-234.68 358.46,-215.2 298.21,-204.04"/>
<polygon fill="midnightblue" stroke="midnightblue" points="524.6,-249.56 535.07,-247.94 525.88,-242.68 524.6,-249.56"/>
</g>
<!-- Node8 -->
<g id="node8" class="node">
<title>Node8</title>
<g id="a_node8"><a xlink:href="timeseries_8h.html" target="_top" xlink:title=" ">
<polygon fill="none" stroke="black" points="346.66,-185 346.66,-204 491.66,-204 491.66,-185 346.66,-185"/>
<text text-anchor="middle" x="419.16" y="-192" font-family="Helvetica,sans-Serif" font-size="10.00">include/IBM_EIS/timeseries.h</text>
</a>
</g>
</g>
<!-- Node1&#45;&gt;Node8 -->
<g id="edge8" class="edge">
<title>Node1&#45;&gt;Node8</title>
<path fill="none" stroke="midnightblue" d="M541.54,-242.78C511.61,-231.22 467.47,-214.16 441.18,-204.01"/>
<polygon fill="midnightblue" stroke="midnightblue" points="540.5,-246.14 551.09,-246.48 543.03,-239.61 540.5,-246.14"/>
</g>
<!-- Node10 -->
<g id="node10" class="node">
<title>Node10</title>
<g id="a_node10"><a xlink:href="ubidots_8h.html" target="_top" xlink:title=" ">
<polygon fill="none" stroke="black" points="510.16,-185 510.16,-204 636.16,-204 636.16,-185 510.16,-185"/>
<text text-anchor="middle" x="573.16" y="-192" font-family="Helvetica,sans-Serif" font-size="10.00">include/Ubidots/ubidots.h</text>
</a>
</g>
</g>
<!-- Node1&#45;&gt;Node10 -->
<g id="edge11" class="edge">
<title>Node1&#45;&gt;Node10</title>
<path fill="none" stroke="midnightblue" d="M573.16,-236.32C573.16,-225.5 573.16,-212.4 573.16,-204.01"/>
<polygon fill="midnightblue" stroke="midnightblue" points="569.66,-236.48 573.16,-246.48 576.66,-236.48 569.66,-236.48"/>
</g>
<!-- Node12 -->
<g id="node12" class="node">
<title>Node12</title>
<g id="a_node12"><a xlink:href="location_8h.html" target="_top" xlink:title=" ">
<polygon fill="none" stroke="black" points="692.66,-179.5 692.66,-209.5 799.66,-209.5 799.66,-179.5 692.66,-179.5"/>
<text text-anchor="start" x="700.66" y="-197.5" font-family="Helvetica,sans-Serif" font-size="10.00">include/WillyWeather</text>
<text text-anchor="middle" x="746.16" y="-186.5" font-family="Helvetica,sans-Serif" font-size="10.00">/location.h</text>
</a>
</g>
</g>
<!-- Node1&#45;&gt;Node12 -->
<g id="edge14" class="edge">
<title>Node1&#45;&gt;Node12</title>
<path fill="none" stroke="midnightblue" d="M607.75,-243.1C635.9,-233.42 675.69,-219.74 705.39,-209.52"/>
<polygon fill="midnightblue" stroke="midnightblue" points="606.26,-239.91 597.94,-246.48 608.54,-246.53 606.26,-239.91"/>
</g>
<!-- Node13 -->
<g id="node13" class="node">
<title>Node13</title>
<g id="a_node13"><a xlink:href="tide_8h.html" target="_top" xlink:title=" ">
<polygon fill="none" stroke="black" points="690.66,-112.5 690.66,-142.5 797.66,-142.5 797.66,-112.5 690.66,-112.5"/>
<text text-anchor="start" x="698.66" y="-130.5" font-family="Helvetica,sans-Serif" font-size="10.00">include/WillyWeather</text>
<text text-anchor="middle" x="744.16" y="-119.5" font-family="Helvetica,sans-Serif" font-size="10.00">/tide.h</text>
</a>
</g>
</g>
<!-- Node1&#45;&gt;Node13 -->
<g id="edge19" class="edge">
<title>Node1&#45;&gt;Node13</title>
<path fill="none" stroke="midnightblue" d="M596.87,-241.25C611.16,-232.7 629.55,-221.23 645.16,-210 661.42,-198.3 703.76,-162.76 727.46,-142.69"/>
<polygon fill="midnightblue" stroke="midnightblue" points="594.97,-238.3 588.14,-246.41 598.53,-244.33 594.97,-238.3"/>
</g>
<!-- Node16 -->
<g id="node16" class="node">
<title>Node16</title>
<g id="a_node16"><a xlink:href="forecast_8c.html" target="_top" xlink:title=" ">
<polygon fill="none" stroke="black" points="818.16,-185 818.16,-204 894.16,-204 894.16,-185 818.16,-185"/>
<text text-anchor="middle" x="856.16" y="-192" font-family="Helvetica,sans-Serif" font-size="10.00">src/forecast.c</text>
</a>
</g>
</g>
<!-- Node1&#45;&gt;Node16 -->
<g id="edge20" class="edge">
<title>Node1&#45;&gt;Node16</title>
<path fill="none" stroke="midnightblue" d="M621.32,-247.29C669.05,-239.29 744.09,-225.77 808.16,-210 815.17,-208.27 822.69,-206.14 829.64,-204.05"/>
<polygon fill="midnightblue" stroke="midnightblue" points="620.57,-243.87 611.27,-248.96 621.71,-250.77 620.57,-243.87"/>
</g>
<!-- Node3 -->
<g id="node3" class="node">
<title>Node3</title>
<g id="a_node3"><a xlink:href="main_8h.html" target="_top" xlink:title=" ">
<polygon fill="none" stroke="black" points="311.66,-56.5 311.66,-75.5 390.66,-75.5 390.66,-56.5 311.66,-56.5"/>
<text text-anchor="middle" x="351.16" y="-63.5" font-family="Helvetica,sans-Serif" font-size="10.00">include/main.h</text>
</a>
</g>
</g>
<!-- Node2&#45;&gt;Node3 -->
<g id="edge2" class="edge">
<title>Node2&#45;&gt;Node3</title>
<path fill="none" stroke="midnightblue" d="M39.02,-173.87C14.25,-157.17 -12,-132.68 6.16,-112 26.06,-89.33 224.95,-74.64 311.39,-69.28"/>
<polygon fill="midnightblue" stroke="midnightblue" points="37.35,-176.95 47.65,-179.43 41.14,-171.07 37.35,-176.95"/>
</g>
<!-- Node5 -->
<g id="node5" class="node">
<title>Node5</title>
<g id="a_node5"><a xlink:href="food__auth_8c.html" target="_top" xlink:title=" ">
<polygon fill="none" stroke="black" points="15.66,-112.5 15.66,-142.5 130.66,-142.5 130.66,-112.5 15.66,-112.5"/>
<text text-anchor="start" x="23.66" y="-130.5" font-family="Helvetica,sans-Serif" font-size="10.00">src/FoodAuthority/food</text>
<text text-anchor="middle" x="73.16" y="-119.5" font-family="Helvetica,sans-Serif" font-size="10.00">_auth.c</text>
</a>
</g>
</g>
<!-- Node2&#45;&gt;Node5 -->
<g id="edge4" class="edge">
<title>Node2&#45;&gt;Node5</title>
<path fill="none" stroke="midnightblue" d="M73.16,-169.11C73.16,-160.15 73.16,-150.32 73.16,-142.58"/>
<polygon fill="midnightblue" stroke="midnightblue" points="69.66,-169.4 73.16,-179.4 76.66,-169.4 69.66,-169.4"/>
</g>
<!-- Node4 -->
<g id="node4" class="node">
<title>Node4</title>
<g id="a_node4"><a xlink:href="main_8c.html" target="_top" xlink:title=" ">
<polygon fill="none" stroke="black" points="320.16,-0.5 320.16,-19.5 382.16,-19.5 382.16,-0.5 320.16,-0.5"/>
<text text-anchor="middle" x="351.16" y="-7.5" font-family="Helvetica,sans-Serif" font-size="10.00">src/main.c</text>
</a>
</g>
</g>
<!-- Node3&#45;&gt;Node4 -->
<g id="edge3" class="edge">
<title>Node3&#45;&gt;Node4</title>
<path fill="none" stroke="midnightblue" d="M351.16,-45.8C351.16,-36.91 351.16,-26.78 351.16,-19.75"/>
<polygon fill="midnightblue" stroke="midnightblue" points="347.66,-46.08 351.16,-56.08 354.66,-46.08 347.66,-46.08"/>
</g>
<!-- Node6&#45;&gt;Node3 -->
<g id="edge6" class="edge">
<title>Node6&#45;&gt;Node3</title>
<path fill="none" stroke="midnightblue" d="M220.5,-180.61C204.73,-172.38 187.15,-160.01 178.16,-143 171.72,-130.82 169.73,-122.9 178.16,-112 194.34,-91.07 265.71,-78.06 311.57,-71.7"/>
<polygon fill="midnightblue" stroke="midnightblue" points="218.98,-183.76 229.5,-184.99 222.04,-177.47 218.98,-183.76"/>
</g>
<!-- Node7 -->
<g id="node7" class="node">
<title>Node7</title>
<g id="a_node7"><a xlink:href="_i_b_m___e_i_s_2authenticate_8c.html" target="_top" xlink:title=" ">
<polygon fill="none" stroke="black" points="187.16,-118 187.16,-137 323.16,-137 323.16,-118 187.16,-118"/>
<text text-anchor="middle" x="255.16" y="-125" font-family="Helvetica,sans-Serif" font-size="10.00">src/IBM_EIS/authenticate.c</text>
</a>
</g>
</g>
<!-- Node6&#45;&gt;Node7 -->
<g id="edge7" class="edge">
<title>Node6&#45;&gt;Node7</title>
<path fill="none" stroke="midnightblue" d="M253.03,-174.54C253.6,-162.17 254.32,-146.62 254.76,-137.13"/>
<polygon fill="midnightblue" stroke="midnightblue" points="249.53,-174.58 252.56,-184.73 256.52,-174.91 249.53,-174.58"/>
</g>
<!-- Node8&#45;&gt;Node3 -->
<g id="edge9" class="edge">
<title>Node8&#45;&gt;Node3</title>
<path fill="none" stroke="midnightblue" d="M399.93,-178.12C389.68,-168.94 377.66,-156.48 370.16,-143 357.73,-120.66 353.31,-90.14 351.84,-75.51"/>
<polygon fill="midnightblue" stroke="midnightblue" points="397.79,-180.89 407.66,-184.73 402.34,-175.57 397.79,-180.89"/>
</g>
<!-- Node9 -->
<g id="node9" class="node">
<title>Node9</title>
<g id="a_node9"><a xlink:href="timeseries_8c.html" target="_top" xlink:title=" ">
<polygon fill="none" stroke="black" points="379.16,-118 379.16,-137 507.16,-137 507.16,-118 379.16,-118"/>
<text text-anchor="middle" x="443.16" y="-125" font-family="Helvetica,sans-Serif" font-size="10.00">src/IBM_EIS/timeseries.c</text>
</a>
</g>
</g>
<!-- Node8&#45;&gt;Node9 -->
<g id="edge10" class="edge">
<title>Node8&#45;&gt;Node9</title>
<path fill="none" stroke="midnightblue" d="M425.88,-175.29C430.49,-162.81 436.4,-146.81 439.97,-137.13"/>
<polygon fill="midnightblue" stroke="midnightblue" points="422.58,-174.14 422.39,-184.73 429.14,-176.57 422.58,-174.14"/>
</g>
<!-- Node10&#45;&gt;Node3 -->
<g id="edge12" class="edge">
<title>Node10&#45;&gt;Node3</title>
<path fill="none" stroke="midnightblue" d="M565.28,-175.7C556.13,-157.05 539.27,-128.27 516.16,-112 478.65,-85.59 426.31,-74.67 390.71,-70.16"/>
<polygon fill="midnightblue" stroke="midnightblue" points="562.16,-177.29 569.57,-184.87 568.51,-174.33 562.16,-177.29"/>
</g>
<!-- Node11 -->
<g id="node11" class="node">
<title>Node11</title>
<g id="a_node11"><a xlink:href="ubidots_8c.html" target="_top" xlink:title=" ">
<polygon fill="none" stroke="black" points="563.66,-118 563.66,-137 672.66,-137 672.66,-118 563.66,-118"/>
<text text-anchor="middle" x="618.16" y="-125" font-family="Helvetica,sans-Serif" font-size="10.00">src/Ubidots/ubidots.c</text>
</a>
</g>
</g>
<!-- Node10&#45;&gt;Node11 -->
<g id="edge13" class="edge">
<title>Node10&#45;&gt;Node11</title>
<path fill="none" stroke="midnightblue" d="M584.99,-176.4C593.74,-163.77 605.28,-147.1 612.19,-137.13"/>
<polygon fill="midnightblue" stroke="midnightblue" points="582.04,-174.52 579.23,-184.73 587.8,-178.5 582.04,-174.52"/>
</g>
<!-- Node12&#45;&gt;Node13 -->
<g id="edge15" class="edge">
<title>Node12&#45;&gt;Node13</title>
<path fill="none" stroke="midnightblue" d="M745.41,-169.11C745.13,-160.15 744.83,-150.32 744.59,-142.58"/>
<polygon fill="midnightblue" stroke="midnightblue" points="741.92,-169.51 745.72,-179.4 748.91,-169.29 741.92,-169.51"/>
</g>
<!-- Node15 -->
<g id="node15" class="node">
<title>Node15</title>
<g id="a_node15"><a xlink:href="location_8c.html" target="_top" xlink:title=" ">
<polygon fill="none" stroke="black" points="816.16,-118 816.16,-137 950.16,-137 950.16,-118 816.16,-118"/>
<text text-anchor="middle" x="883.16" y="-125" font-family="Helvetica,sans-Serif" font-size="10.00">src/WillyWeather/location.c</text>
</a>
</g>
</g>
<!-- Node12&#45;&gt;Node15 -->
<g id="edge18" class="edge">
<title>Node12&#45;&gt;Node15</title>
<path fill="none" stroke="midnightblue" d="M785.22,-174.97C811.54,-162.48 845.01,-146.6 865.23,-137.01"/>
<polygon fill="midnightblue" stroke="midnightblue" points="783.42,-171.95 775.89,-179.4 786.42,-178.27 783.42,-171.95"/>
</g>
<!-- Node13&#45;&gt;Node3 -->
<g id="edge16" class="edge">
<title>Node13&#45;&gt;Node3</title>
<path fill="none" stroke="midnightblue" d="M680.59,-112.01C569.71,-92.08 451.01,-77.91 390.71,-71.22"/>
<polygon fill="midnightblue" stroke="midnightblue" points="680.15,-115.48 690.61,-113.83 681.4,-108.6 680.15,-115.48"/>
</g>
<!-- Node14 -->
<g id="node14" class="node">
<title>Node14</title>
<g id="a_node14"><a xlink:href="tide_8c.html" target="_top" xlink:title=" ">
<polygon fill="none" stroke="black" points="686.16,-56.5 686.16,-75.5 802.16,-75.5 802.16,-56.5 686.16,-56.5"/>
<text text-anchor="middle" x="744.16" y="-63.5" font-family="Helvetica,sans-Serif" font-size="10.00">src/WillyWeather/tide.c</text>
</a>
</g>
</g>
<!-- Node13&#45;&gt;Node14 -->
<g id="edge17" class="edge">
<title>Node13&#45;&gt;Node14</title>
<path fill="none" stroke="midnightblue" d="M744.16,-102.29C744.16,-92.86 744.16,-82.65 744.16,-75.66"/>
<polygon fill="midnightblue" stroke="midnightblue" points="740.66,-102.4 744.16,-112.4 747.66,-102.4 740.66,-102.4"/>
</g>
</g>
</svg>
