<?xml version="1.0" encoding="UTF-8" standalone="no"?>
<!DOCTYPE svg PUBLIC "-//W3C//DTD SVG 1.1//EN"
 "http://www.w3.org/Graphics/SVG/1.1/DTD/svg11.dtd">
<!-- Generated by graphviz version 2.49.3 (20211027.1534)
 -->
<!-- Title: include/utils.h Pages: 1 -->
<svg width="1763pt" height="408pt"
 viewBox="0.00 0.00 1763.00 408.00" xmlns="http://www.w3.org/2000/svg" xmlns:xlink="http://www.w3.org/1999/xlink">
<g id="graph0" class="graph" transform="scale(1 1) rotate(0) translate(4 404)">
<title>include/utils.h</title>
<!-- Node1 -->
<g id="node1" class="node">
<title>Node1</title>
<g id="a_node1"><a xlink:title=" ">
<polygon fill="#bfbfbf" stroke="black" points="932.5,-380.5 932.5,-399.5 1008.5,-399.5 1008.5,-380.5 932.5,-380.5"/>
<text text-anchor="middle" x="970.5" y="-387.5" font-family="Helvetica,sans-Serif" font-size="10.00">include/utils.h</text>
</a>
</g>
</g>
<!-- Node2 -->
<g id="node2" class="node">
<title>Node2</title>
<g id="a_node2"><a xlink:href="stations_8h.html" target="_top" xlink:title=" ">
<polygon fill="none" stroke="black" points="167.5,-196 167.5,-215 285.5,-215 285.5,-196 167.5,-196"/>
<text text-anchor="middle" x="226.5" y="-203" font-family="Helvetica,sans-Serif" font-size="10.00">include/BOM/stations.h</text>
</a>
</g>
</g>
<!-- Node1&#45;&gt;Node2 -->
<g id="edge1" class="edge">
<title>Node1&#45;&gt;Node2</title>
<path fill="none" stroke="midnightblue" d="M922.17,-389.08C839.9,-388.12 668.02,-381.31 528.5,-344 469.69,-328.27 458.93,-313.18 403.5,-288 345.44,-261.63 276.92,-229.91 244.82,-215.01"/>
<polygon fill="midnightblue" stroke="midnightblue" points="922.19,-392.58 932.22,-389.17 922.25,-385.58 922.19,-392.58"/>
</g>
<!-- Node8 -->
<g id="node8" class="node">
<title>Node8</title>
<g id="a_node8"><a xlink:href="harvest__area_8h.html" target="_top" xlink:title=" ">
<polygon fill="none" stroke="black" points="412.5,-257.5 412.5,-287.5 522.5,-287.5 522.5,-257.5 412.5,-257.5"/>
<text text-anchor="start" x="420.5" y="-275.5" font-family="Helvetica,sans-Serif" font-size="10.00">include/FoodAuthority</text>
<text text-anchor="middle" x="467.5" y="-264.5" font-family="Helvetica,sans-Serif" font-size="10.00">/harvest_area.h</text>
</a>
</g>
</g>
<!-- Node1&#45;&gt;Node8 -->
<g id="edge8" class="edge">
<title>Node1&#45;&gt;Node8</title>
<path fill="none" stroke="midnightblue" d="M922.3,-386.62C829.91,-381.58 631.35,-368.23 567.5,-344 533.74,-331.19 500.72,-304.3 482.34,-287.69"/>
<polygon fill="midnightblue" stroke="midnightblue" points="922.33,-390.13 932.5,-387.17 922.7,-383.14 922.33,-390.13"/>
</g>
<!-- Node10 -->
<g id="node10" class="node">
<title>Node10</title>
<g id="a_node10"><a xlink:href="_i_b_m___e_i_s_2authenticate_8h.html" target="_top" xlink:title=" ">
<polygon fill="none" stroke="black" points="672,-263 672,-282 825,-282 825,-263 672,-263"/>
<text text-anchor="middle" x="748.5" y="-270" font-family="Helvetica,sans-Serif" font-size="10.00">include/IBM_EIS/authenticate.h</text>
</a>
</g>
</g>
<!-- Node1&#45;&gt;Node10 -->
<g id="edge11" class="edge">
<title>Node1&#45;&gt;Node10</title>
<path fill="none" stroke="midnightblue" d="M944.77,-375.62C898.73,-351.66 803.47,-302.1 765.08,-282.12"/>
<polygon fill="midnightblue" stroke="midnightblue" points="943.33,-378.81 953.81,-380.32 946.56,-372.6 943.33,-378.81"/>
</g>
<!-- Node11 -->
<g id="node11" class="node">
<title>Node11</title>
<g id="a_node11"><a xlink:href="timeseries_8h.html" target="_top" xlink:title=" ">
<polygon fill="none" stroke="black" points="488,-196 488,-215 633,-215 633,-196 488,-196"/>
<text text-anchor="middle" x="560.5" y="-203" font-family="Helvetica,sans-Serif" font-size="10.00">include/IBM_EIS/timeseries.h</text>
</a>
</g>
</g>
<!-- Node1&#45;&gt;Node11 -->
<g id="edge17" class="edge">
<title>Node1&#45;&gt;Node11</title>
<path fill="none" stroke="midnightblue" d="M922.37,-386.5C848.36,-380.43 705.23,-359.57 610.5,-288 584.81,-268.59 569.34,-231.79 563.36,-215.11"/>
<polygon fill="midnightblue" stroke="midnightblue" points="922.11,-389.99 932.35,-387.27 922.64,-383.01 922.11,-389.99"/>
</g>
<!-- Node14 -->
<g id="node14" class="node">
<title>Node14</title>
<g id="a_node14"><a xlink:href="devices_8h.html" target="_top" xlink:title=" ">
<polygon fill="none" stroke="black" points="1031.5,-196 1031.5,-215 1159.5,-215 1159.5,-196 1031.5,-196"/>
<text text-anchor="middle" x="1095.5" y="-203" font-family="Helvetica,sans-Serif" font-size="10.00">include/Ubidots/devices.h</text>
</a>
</g>
</g>
<!-- Node1&#45;&gt;Node14 -->
<g id="edge18" class="edge">
<title>Node1&#45;&gt;Node14</title>
<path fill="none" stroke="midnightblue" d="M1009.6,-377.08C1048.64,-362.85 1106.48,-334.89 1132.5,-288 1146.68,-262.46 1120.08,-230.48 1104.95,-215.29"/>
<polygon fill="midnightblue" stroke="midnightblue" points="1008.39,-373.8 1000.11,-380.41 1010.7,-380.4 1008.39,-373.8"/>
</g>
<!-- Node16 -->
<g id="node16" class="node">
<title>Node16</title>
<g id="a_node16"><a xlink:href="location_8h.html" target="_top" xlink:title=" ">
<polygon fill="none" stroke="black" points="1426,-190.5 1426,-220.5 1533,-220.5 1533,-190.5 1426,-190.5"/>
<text text-anchor="start" x="1434" y="-208.5" font-family="Helvetica,sans-Serif" font-size="10.00">include/WillyWeather</text>
<text text-anchor="middle" x="1479.5" y="-197.5" font-family="Helvetica,sans-Serif" font-size="10.00">/location.h</text>
</a>
</g>
</g>
<!-- Node1&#45;&gt;Node16 -->
<g id="edge21" class="edge">
<title>Node1&#45;&gt;Node16</title>
<path fill="none" stroke="midnightblue" d="M1018.75,-386.1C1101.22,-379.37 1272.51,-357.47 1397.5,-288 1428.2,-270.94 1455.25,-239.12 1469.29,-220.69"/>
<polygon fill="midnightblue" stroke="midnightblue" points="1018.36,-382.62 1008.66,-386.89 1018.91,-389.6 1018.36,-382.62"/>
</g>
<!-- Node17 -->
<g id="node17" class="node">
<title>Node17</title>
<g id="a_node17"><a xlink:href="tide_8h.html" target="_top" xlink:title=" ">
<polygon fill="none" stroke="black" points="1464,-123.5 1464,-153.5 1571,-153.5 1571,-123.5 1464,-123.5"/>
<text text-anchor="start" x="1472" y="-141.5" font-family="Helvetica,sans-Serif" font-size="10.00">include/WillyWeather</text>
<text text-anchor="middle" x="1517.5" y="-130.5" font-family="Helvetica,sans-Serif" font-size="10.00">/tide.h</text>
</a>
</g>
</g>
<!-- Node1&#45;&gt;Node17 -->
<g id="edge26" class="edge">
<title>Node1&#45;&gt;Node17</title>
<path fill="none" stroke="midnightblue" d="M1018.94,-388.71C1162.76,-387.42 1580.24,-380.54 1628.5,-344 1660.13,-320.05 1664.67,-293.23 1648.5,-257 1627.08,-209.02 1575.31,-172.47 1543.64,-153.65"/>
<polygon fill="midnightblue" stroke="midnightblue" points="1018.64,-385.21 1008.67,-388.79 1018.7,-392.21 1018.64,-385.21"/>
</g>
<!-- Node20 -->
<g id="node20" class="node">
<title>Node20</title>
<g id="a_node20"><a xlink:href="ftp_8h.html" target="_top" xlink:title=" ">
<polygon fill="none" stroke="black" points="105,-263 105,-282 174,-282 174,-263 105,-263"/>
<text text-anchor="middle" x="139.5" y="-270" font-family="Helvetica,sans-Serif" font-size="10.00">include/ftp.h</text>
</a>
</g>
</g>
<!-- Node1&#45;&gt;Node20 -->
<g id="edge27" class="edge">
<title>Node1&#45;&gt;Node20</title>
<path fill="none" stroke="midnightblue" d="M922.16,-387.82C789.65,-384.24 422.75,-372.02 305.5,-344 247.33,-330.1 183.56,-297.7 154.92,-282.14"/>
<polygon fill="midnightblue" stroke="midnightblue" points="922.31,-391.32 932.4,-388.09 922.5,-384.32 922.31,-391.32"/>
</g>
<!-- Node22 -->
<g id="node22" class="node">
<title>Node22</title>
<g id="a_node22"><a xlink:href="http_8h.html" target="_top" xlink:title=" ">
<polygon fill="none" stroke="black" points="933.5,-324.5 933.5,-343.5 1007.5,-343.5 1007.5,-324.5 933.5,-324.5"/>
<text text-anchor="middle" x="970.5" y="-331.5" font-family="Helvetica,sans-Serif" font-size="10.00">include/http.h</text>
</a>
</g>
</g>
<!-- Node1&#45;&gt;Node22 -->
<g id="edge32" class="edge">
<title>Node1&#45;&gt;Node22</title>
<path fill="none" stroke="midnightblue" d="M970.5,-369.8C970.5,-360.91 970.5,-350.78 970.5,-343.75"/>
<polygon fill="midnightblue" stroke="midnightblue" points="967,-370.08 970.5,-380.08 974,-370.08 967,-370.08"/>
</g>
<!-- Node28 -->
<g id="node28" class="node">
<title>Node28</title>
<g id="a_node28"><a xlink:href="severity__index_8h.html" target="_top" xlink:title=" ">
<polygon fill="none" stroke="black" points="1500,-324.5 1500,-343.5 1619,-343.5 1619,-324.5 1500,-324.5"/>
<text text-anchor="middle" x="1559.5" y="-331.5" font-family="Helvetica,sans-Serif" font-size="10.00">include/severity_index.h</text>
</a>
</g>
</g>
<!-- Node1&#45;&gt;Node28 -->
<g id="edge49" class="edge">
<title>Node1&#45;&gt;Node28</title>
<path fill="none" stroke="midnightblue" d="M1018.7,-385.34C1109.91,-378.28 1314.03,-361.91 1485.5,-344 1490.13,-343.52 1494.93,-342.99 1499.75,-342.44"/>
<polygon fill="midnightblue" stroke="midnightblue" points="1018.36,-381.85 1008.66,-386.11 1018.9,-388.83 1018.36,-381.85"/>
</g>
<!-- Node30 -->
<g id="node30" class="node">
<title>Node30</title>
<g id="a_node30"><a xlink:href="utils_8c.html" target="_top" xlink:title=" ">
<polygon fill="none" stroke="black" points="1696,-324.5 1696,-343.5 1755,-343.5 1755,-324.5 1696,-324.5"/>
<text text-anchor="middle" x="1725.5" y="-331.5" font-family="Helvetica,sans-Serif" font-size="10.00">src/utils.c</text>
</a>
</g>
</g>
<!-- Node1&#45;&gt;Node30 -->
<g id="edge52" class="edge">
<title>Node1&#45;&gt;Node30</title>
<path fill="none" stroke="midnightblue" d="M1019.1,-388.24C1134.5,-385.94 1433.91,-376.99 1681.5,-344 1686.14,-343.38 1691.02,-342.56 1695.77,-341.66"/>
<polygon fill="midnightblue" stroke="midnightblue" points="1018.76,-384.75 1008.83,-388.44 1018.9,-391.75 1018.76,-384.75"/>
</g>
<!-- Node3 -->
<g id="node3" class="node">
<title>Node3</title>
<g id="a_node3"><a xlink:href="historical__weather_8h.html" target="_top" xlink:title=" ">
<polygon fill="none" stroke="black" points="0,-123.5 0,-153.5 115,-153.5 115,-123.5 0,-123.5"/>
<text text-anchor="start" x="8" y="-141.5" font-family="Helvetica,sans-Serif" font-size="10.00">include/BOM/historical</text>
<text text-anchor="middle" x="57.5" y="-130.5" font-family="Helvetica,sans-Serif" font-size="10.00">_weather.h</text>
</a>
</g>
</g>
<!-- Node2&#45;&gt;Node3 -->
<g id="edge2" class="edge">
<title>Node2&#45;&gt;Node3</title>
<path fill="none" stroke="midnightblue" d="M194.53,-192.2C165.89,-181.19 123.91,-165.04 93.97,-153.53"/>
<polygon fill="midnightblue" stroke="midnightblue" points="193.47,-195.55 204.06,-195.87 195.98,-189.01 193.47,-195.55"/>
</g>
<!-- Node4 -->
<g id="node4" class="node">
<title>Node4</title>
<g id="a_node4"><a xlink:href="main_8h.html" target="_top" xlink:title=" ">
<polygon fill="none" stroke="black" points="776,-62 776,-81 855,-81 855,-62 776,-62"/>
<text text-anchor="middle" x="815.5" y="-69" font-family="Helvetica,sans-Serif" font-size="10.00">include/main.h</text>
</a>
</g>
</g>
<!-- Node2&#45;&gt;Node4 -->
<g id="edge6" class="edge">
<title>Node2&#45;&gt;Node4</title>
<path fill="none" stroke="midnightblue" d="M254.43,-191.82C295.46,-173.73 374.8,-140.75 445.5,-123 563.56,-93.36 707.46,-80.03 775.8,-75.03"/>
<polygon fill="midnightblue" stroke="midnightblue" points="252.81,-188.71 245.09,-195.98 255.65,-195.11 252.81,-188.71"/>
</g>
<!-- Node7 -->
<g id="node7" class="node">
<title>Node7</title>
<g id="a_node7"><a xlink:href="stations_8c.html" target="_top" xlink:title=" ">
<polygon fill="none" stroke="black" points="176,-129 176,-148 277,-148 277,-129 176,-129"/>
<text text-anchor="middle" x="226.5" y="-136" font-family="Helvetica,sans-Serif" font-size="10.00">src/BOM/stations.c</text>
</a>
</g>
</g>
<!-- Node2&#45;&gt;Node7 -->
<g id="edge7" class="edge">
<title>Node2&#45;&gt;Node7</title>
<path fill="none" stroke="midnightblue" d="M226.5,-185.54C226.5,-173.17 226.5,-157.62 226.5,-148.13"/>
<polygon fill="midnightblue" stroke="midnightblue" points="223,-185.73 226.5,-195.73 230,-185.73 223,-185.73"/>
</g>
<!-- Node3&#45;&gt;Node4 -->
<g id="edge3" class="edge">
<title>Node3&#45;&gt;Node4</title>
<path fill="none" stroke="midnightblue" d="M125.08,-123.63C126.56,-123.41 128.04,-123.2 129.5,-123 373.82,-89.54 670.34,-77.2 775.88,-73.68"/>
<polygon fill="midnightblue" stroke="midnightblue" points="124.48,-120.18 115.16,-125.23 125.59,-127.1 124.48,-120.18"/>
</g>
<!-- Node6 -->
<g id="node6" class="node">
<title>Node6</title>
<g id="a_node6"><a xlink:href="historical__weather_8c.html" target="_top" xlink:title=" ">
<polygon fill="none" stroke="black" points="8.5,-56.5 8.5,-86.5 106.5,-86.5 106.5,-56.5 8.5,-56.5"/>
<text text-anchor="start" x="16.5" y="-74.5" font-family="Helvetica,sans-Serif" font-size="10.00">src/BOM/historical</text>
<text text-anchor="middle" x="57.5" y="-63.5" font-family="Helvetica,sans-Serif" font-size="10.00">_weather.c</text>
</a>
</g>
</g>
<!-- Node3&#45;&gt;Node6 -->
<g id="edge5" class="edge">
<title>Node3&#45;&gt;Node6</title>
<path fill="none" stroke="midnightblue" d="M57.5,-113.11C57.5,-104.15 57.5,-94.32 57.5,-86.58"/>
<polygon fill="midnightblue" stroke="midnightblue" points="54,-113.4 57.5,-123.4 61,-113.4 54,-113.4"/>
</g>
<!-- Node5 -->
<g id="node5" class="node">
<title>Node5</title>
<g id="a_node5"><a xlink:href="main_8c.html" target="_top" xlink:title=" ">
<polygon fill="none" stroke="black" points="784.5,-0.5 784.5,-19.5 846.5,-19.5 846.5,-0.5 784.5,-0.5"/>
<text text-anchor="middle" x="815.5" y="-7.5" font-family="Helvetica,sans-Serif" font-size="10.00">src/main.c</text>
</a>
</g>
</g>
<!-- Node4&#45;&gt;Node5 -->
<g id="edge4" class="edge">
<title>Node4&#45;&gt;Node5</title>
<path fill="none" stroke="midnightblue" d="M815.5,-51.82C815.5,-41 815.5,-27.9 815.5,-19.51"/>
<polygon fill="midnightblue" stroke="midnightblue" points="812,-51.98 815.5,-61.98 819,-51.98 812,-51.98"/>
</g>
<!-- Node8&#45;&gt;Node4 -->
<g id="edge9" class="edge">
<title>Node8&#45;&gt;Node4</title>
<path fill="none" stroke="midnightblue" d="M462.82,-247.19C458.03,-214.27 455.25,-155.86 487.5,-123 526.95,-82.8 697.43,-74.55 775.81,-72.89"/>
<polygon fill="midnightblue" stroke="midnightblue" points="459.41,-248 464.48,-257.3 466.32,-246.87 459.41,-248"/>
</g>
<!-- Node9 -->
<g id="node9" class="node">
<title>Node9</title>
<g id="a_node9"><a xlink:href="harvest__area_8c.html" target="_top" xlink:title=" ">
<polygon fill="none" stroke="black" points="303.5,-190.5 303.5,-220.5 431.5,-220.5 431.5,-190.5 303.5,-190.5"/>
<text text-anchor="start" x="311.5" y="-208.5" font-family="Helvetica,sans-Serif" font-size="10.00">src/FoodAuthority/harvest</text>
<text text-anchor="middle" x="367.5" y="-197.5" font-family="Helvetica,sans-Serif" font-size="10.00">_area.c</text>
</a>
</g>
</g>
<!-- Node8&#45;&gt;Node9 -->
<g id="edge10" class="edge">
<title>Node8&#45;&gt;Node9</title>
<path fill="none" stroke="midnightblue" d="M437.09,-251.73C421.62,-241.68 403.17,-229.68 389.16,-220.58"/>
<polygon fill="midnightblue" stroke="midnightblue" points="435.51,-254.88 445.8,-257.4 439.32,-249.01 435.51,-254.88"/>
</g>
<!-- Node10&#45;&gt;Node4 -->
<g id="edge15" class="edge">
<title>Node10&#45;&gt;Node4</title>
<path fill="none" stroke="midnightblue" d="M767.94,-256.36C778.18,-247.26 789.95,-234.79 796.5,-221 819.71,-172.17 817.74,-104.66 816.19,-81.05"/>
<polygon fill="midnightblue" stroke="midnightblue" points="765.58,-253.78 760.18,-262.9 770.09,-259.13 765.58,-253.78"/>
</g>
<!-- Node10&#45;&gt;Node11 -->
<g id="edge12" class="edge">
<title>Node10&#45;&gt;Node11</title>
<path fill="none" stroke="midnightblue" d="M713.61,-259.44C676.31,-246.54 618.13,-226.42 585.27,-215.06"/>
<polygon fill="midnightblue" stroke="midnightblue" points="712.94,-262.91 723.54,-262.87 715.23,-256.29 712.94,-262.91"/>
</g>
<!-- Node13 -->
<g id="node13" class="node">
<title>Node13</title>
<g id="a_node13"><a xlink:href="_i_b_m___e_i_s_2authenticate_8c.html" target="_top" xlink:title=" ">
<polygon fill="none" stroke="black" points="651.5,-196 651.5,-215 787.5,-215 787.5,-196 651.5,-196"/>
<text text-anchor="middle" x="719.5" y="-203" font-family="Helvetica,sans-Serif" font-size="10.00">src/IBM_EIS/authenticate.c</text>
</a>
</g>
</g>
<!-- Node10&#45;&gt;Node13 -->
<g id="edge16" class="edge">
<title>Node10&#45;&gt;Node13</title>
<path fill="none" stroke="midnightblue" d="M740.38,-253.29C734.81,-240.81 727.67,-224.81 723.35,-215.13"/>
<polygon fill="midnightblue" stroke="midnightblue" points="737.32,-255.03 744.59,-262.73 743.71,-252.18 737.32,-255.03"/>
</g>
<!-- Node11&#45;&gt;Node4 -->
<g id="edge13" class="edge">
<title>Node11&#45;&gt;Node4</title>
<path fill="none" stroke="midnightblue" d="M586.2,-191.2C638.44,-164.16 755.74,-103.43 799.04,-81.02"/>
<polygon fill="midnightblue" stroke="midnightblue" points="584.5,-188.13 577.23,-195.84 587.72,-194.35 584.5,-188.13"/>
</g>
<!-- Node12 -->
<g id="node12" class="node">
<title>Node12</title>
<g id="a_node12"><a xlink:href="timeseries_8c.html" target="_top" xlink:title=" ">
<polygon fill="none" stroke="black" points="496.5,-129 496.5,-148 624.5,-148 624.5,-129 496.5,-129"/>
<text text-anchor="middle" x="560.5" y="-136" font-family="Helvetica,sans-Serif" font-size="10.00">src/IBM_EIS/timeseries.c</text>
</a>
</g>
</g>
<!-- Node11&#45;&gt;Node12 -->
<g id="edge14" class="edge">
<title>Node11&#45;&gt;Node12</title>
<path fill="none" stroke="midnightblue" d="M560.5,-185.54C560.5,-173.17 560.5,-157.62 560.5,-148.13"/>
<polygon fill="midnightblue" stroke="midnightblue" points="557,-185.73 560.5,-195.73 564,-185.73 557,-185.73"/>
</g>
<!-- Node14&#45;&gt;Node4 -->
<g id="edge19" class="edge">
<title>Node14&#45;&gt;Node4</title>
<path fill="none" stroke="midnightblue" d="M1096.3,-185.72C1096,-167.12 1092.45,-139.14 1075.5,-123 1044.37,-93.35 919.98,-80.07 855.2,-75.07"/>
<polygon fill="midnightblue" stroke="midnightblue" points="1092.79,-185.85 1096.15,-195.9 1099.79,-185.96 1092.79,-185.85"/>
</g>
<!-- Node15 -->
<g id="node15" class="node">
<title>Node15</title>
<g id="a_node15"><a xlink:href="devices_8c.html" target="_top" xlink:title=" ">
<polygon fill="none" stroke="black" points="956,-129 956,-148 1067,-148 1067,-129 956,-129"/>
<text text-anchor="middle" x="1011.5" y="-136" font-family="Helvetica,sans-Serif" font-size="10.00">src/Ubidots/devices.c</text>
</a>
</g>
</g>
<!-- Node14&#45;&gt;Node15 -->
<g id="edge20" class="edge">
<title>Node14&#45;&gt;Node15</title>
<path fill="none" stroke="midnightblue" d="M1076.2,-189.57C1059.62,-176.74 1036.29,-158.69 1022.65,-148.13"/>
<polygon fill="midnightblue" stroke="midnightblue" points="1074.12,-192.38 1084.17,-195.73 1078.4,-186.85 1074.12,-192.38"/>
</g>
<!-- Node16&#45;&gt;Node17 -->
<g id="edge22" class="edge">
<title>Node16&#45;&gt;Node17</title>
<path fill="none" stroke="midnightblue" d="M1492.9,-181.58C1498.36,-172.24 1504.49,-161.75 1509.27,-153.58"/>
<polygon fill="midnightblue" stroke="midnightblue" points="1489.77,-180 1487.75,-190.4 1495.81,-183.53 1489.77,-180"/>
</g>
<!-- Node19 -->
<g id="node19" class="node">
<title>Node19</title>
<g id="a_node19"><a xlink:href="location_8c.html" target="_top" xlink:title=" ">
<polygon fill="none" stroke="black" points="1311.5,-129 1311.5,-148 1445.5,-148 1445.5,-129 1311.5,-129"/>
<text text-anchor="middle" x="1378.5" y="-136" font-family="Helvetica,sans-Serif" font-size="10.00">src/WillyWeather/location.c</text>
</a>
</g>
</g>
<!-- Node16&#45;&gt;Node19 -->
<g id="edge25" class="edge">
<title>Node16&#45;&gt;Node19</title>
<path fill="none" stroke="midnightblue" d="M1449.16,-184.97C1430.01,-172.65 1406.23,-157.35 1391.72,-148.01"/>
<polygon fill="midnightblue" stroke="midnightblue" points="1447.28,-187.93 1457.58,-190.4 1451.07,-182.04 1447.28,-187.93"/>
</g>
<!-- Node17&#45;&gt;Node4 -->
<g id="edge23" class="edge">
<title>Node17&#45;&gt;Node4</title>
<path fill="none" stroke="midnightblue" d="M1454.01,-123.1C1221.86,-88.09 954.81,-76.82 855.37,-73.61"/>
<polygon fill="midnightblue" stroke="midnightblue" points="1453.57,-126.57 1463.99,-124.62 1454.63,-119.65 1453.57,-126.57"/>
</g>
<!-- Node18 -->
<g id="node18" class="node">
<title>Node18</title>
<g id="a_node18"><a xlink:href="tide_8c.html" target="_top" xlink:title=" ">
<polygon fill="none" stroke="black" points="1459.5,-62 1459.5,-81 1575.5,-81 1575.5,-62 1459.5,-62"/>
<text text-anchor="middle" x="1517.5" y="-69" font-family="Helvetica,sans-Serif" font-size="10.00">src/WillyWeather/tide.c</text>
</a>
</g>
</g>
<!-- Node17&#45;&gt;Node18 -->
<g id="edge24" class="edge">
<title>Node17&#45;&gt;Node18</title>
<path fill="none" stroke="midnightblue" d="M1517.5,-113.25C1517.5,-102.02 1517.5,-89.38 1517.5,-81.19"/>
<polygon fill="midnightblue" stroke="midnightblue" points="1514,-113.4 1517.5,-123.4 1521,-113.4 1514,-113.4"/>
</g>
<!-- Node20&#45;&gt;Node2 -->
<g id="edge29" class="edge">
<title>Node20&#45;&gt;Node2</title>
<path fill="none" stroke="midnightblue" d="M159.49,-256.57C176.66,-243.74 200.82,-225.69 214.95,-215.13"/>
<polygon fill="midnightblue" stroke="midnightblue" points="157.15,-253.94 151.23,-262.73 161.34,-259.55 157.15,-253.94"/>
</g>
<!-- Node20&#45;&gt;Node3 -->
<g id="edge28" class="edge">
<title>Node20&#45;&gt;Node3</title>
<path fill="none" stroke="midnightblue" d="M128.81,-254.3C112.47,-227.98 81.56,-178.23 66.37,-153.78"/>
<polygon fill="midnightblue" stroke="midnightblue" points="125.87,-256.19 134.12,-262.84 131.82,-252.5 125.87,-256.19"/>
</g>
<!-- Node20&#45;&gt;Node4 -->
<g id="edge30" class="edge">
<title>Node20&#45;&gt;Node4</title>
<path fill="none" stroke="midnightblue" d="M136.46,-252.58C132.51,-220.57 129.95,-156 166.5,-123 211.75,-82.15 641.69,-74.29 775.77,-72.82"/>
<polygon fill="midnightblue" stroke="midnightblue" points="133.03,-253.37 137.91,-262.78 139.97,-252.39 133.03,-253.37"/>
</g>
<!-- Node21 -->
<g id="node21" class="node">
<title>Node21</title>
<g id="a_node21"><a xlink:href="ftp_8c.html" target="_top" xlink:title=" ">
<polygon fill="none" stroke="black" points="21.5,-196 21.5,-215 73.5,-215 73.5,-196 21.5,-196"/>
<text text-anchor="middle" x="47.5" y="-203" font-family="Helvetica,sans-Serif" font-size="10.00">src/ftp.c</text>
</a>
</g>
</g>
<!-- Node20&#45;&gt;Node21 -->
<g id="edge31" class="edge">
<title>Node20&#45;&gt;Node21</title>
<path fill="none" stroke="midnightblue" d="M118.86,-256.92C100.68,-244.07 74.79,-225.78 59.71,-215.13"/>
<polygon fill="midnightblue" stroke="midnightblue" points="116.91,-259.82 127.09,-262.73 120.94,-254.1 116.91,-259.82"/>
</g>
<!-- Node22&#45;&gt;Node4 -->
<g id="edge47" class="edge">
<title>Node22&#45;&gt;Node4</title>
<path fill="none" stroke="midnightblue" d="M924.02,-321.19C905.58,-314.32 885.67,-303.8 872.5,-288 824.05,-229.87 850.61,-195.95 830.5,-123 826.42,-108.19 821.23,-91.07 818.15,-81.05"/>
<polygon fill="midnightblue" stroke="midnightblue" points="922.9,-324.51 933.49,-324.46 925.18,-317.89 922.9,-324.51"/>
</g>
<!-- Node22&#45;&gt;Node8 -->
<g id="edge33" class="edge">
<title>Node22&#45;&gt;Node8</title>
<path fill="none" stroke="midnightblue" d="M923.09,-327.39C829.62,-316.34 622.05,-291.78 522.65,-280.02"/>
<polygon fill="midnightblue" stroke="midnightblue" points="922.76,-330.88 933.1,-328.58 923.58,-323.93 922.76,-330.88"/>
</g>
<!-- Node22&#45;&gt;Node10 -->
<g id="edge34" class="edge">
<title>Node22&#45;&gt;Node10</title>
<path fill="none" stroke="midnightblue" d="M928.8,-321.82C885.67,-310.26 819.29,-292.47 780.25,-282.01"/>
<polygon fill="midnightblue" stroke="midnightblue" points="928.13,-325.27 938.69,-324.48 929.94,-318.51 928.13,-325.27"/>
</g>
<!-- Node22&#45;&gt;Node11 -->
<g id="edge35" class="edge">
<title>Node22&#45;&gt;Node11</title>
<path fill="none" stroke="midnightblue" d="M922.93,-333.64C860.57,-332.81 748.95,-325.54 662.5,-288 621.96,-270.4 584,-232.32 568.21,-215.18"/>
<polygon fill="midnightblue" stroke="midnightblue" points="923.22,-337.14 933.25,-333.72 923.27,-330.14 923.22,-337.14"/>
</g>
<!-- Node22&#45;&gt;Node14 -->
<g id="edge39" class="edge">
<title>Node22&#45;&gt;Node14</title>
<path fill="none" stroke="midnightblue" d="M1017.86,-331.98C1050.77,-328.48 1092.52,-317.9 1114.5,-288 1131.02,-265.53 1112.07,-230.92 1101.57,-215.02"/>
<polygon fill="midnightblue" stroke="midnightblue" points="1017.18,-328.53 1007.52,-332.88 1017.79,-335.5 1017.18,-328.53"/>
</g>
<!-- Node22&#45;&gt;Node16 -->
<g id="edge45" class="edge">
<title>Node22&#45;&gt;Node16</title>
<path fill="none" stroke="midnightblue" d="M1017.61,-330.18C1106.06,-324.44 1293.56,-310.05 1354.5,-288 1397.62,-272.4 1440.87,-239.41 1463.45,-220.54"/>
<polygon fill="midnightblue" stroke="midnightblue" points="1017.34,-326.69 1007.59,-330.82 1017.79,-333.68 1017.34,-326.69"/>
</g>
<!-- Node22&#45;&gt;Node17 -->
<g id="edge46" class="edge">
<title>Node22&#45;&gt;Node17</title>
<path fill="none" stroke="midnightblue" d="M1017.74,-333.06C1097.49,-332.06 1263.27,-325.19 1397.5,-288 1431.51,-278.58 1522.52,-250.76 1541.5,-221 1554.98,-199.86 1539.97,-170.86 1528.37,-153.76"/>
<polygon fill="midnightblue" stroke="midnightblue" points="1017.49,-329.57 1007.53,-333.16 1017.56,-336.56 1017.49,-329.57"/>
</g>
<!-- Node23 -->
<g id="node23" class="node">
<title>Node23</title>
<g id="a_node23"><a xlink:href="_ubidots_2authenticate_8h.html" target="_top" xlink:title=" ">
<polygon fill="none" stroke="black" points="957.5,-263 957.5,-282 1105.5,-282 1105.5,-263 957.5,-263"/>
<text text-anchor="middle" x="1031.5" y="-270" font-family="Helvetica,sans-Serif" font-size="10.00">include/Ubidots/authenticate.h</text>
</a>
</g>
</g>
<!-- Node22&#45;&gt;Node23 -->
<g id="edge36" class="edge">
<title>Node22&#45;&gt;Node23</title>
<path fill="none" stroke="midnightblue" d="M986.57,-317.32C998.16,-306.02 1013.36,-291.19 1022.78,-282.01"/>
<polygon fill="midnightblue" stroke="midnightblue" points="983.95,-314.99 979.24,-324.48 988.84,-320 983.95,-314.99"/>
</g>
<!-- Node25 -->
<g id="node25" class="node">
<title>Node25</title>
<g id="a_node25"><a xlink:href="_willy_weather_2authenticate_8h.html" target="_top" xlink:title=" ">
<polygon fill="none" stroke="black" points="1239,-257.5 1239,-287.5 1346,-287.5 1346,-257.5 1239,-257.5"/>
<text text-anchor="start" x="1247" y="-275.5" font-family="Helvetica,sans-Serif" font-size="10.00">include/WillyWeather</text>
<text text-anchor="middle" x="1292.5" y="-264.5" font-family="Helvetica,sans-Serif" font-size="10.00">/authenticate.h</text>
</a>
</g>
</g>
<!-- Node22&#45;&gt;Node25 -->
<g id="edge40" class="edge">
<title>Node22&#45;&gt;Node25</title>
<path fill="none" stroke="midnightblue" d="M1017.9,-324.24C1076.8,-313.36 1177.05,-294.83 1238.75,-283.43"/>
<polygon fill="midnightblue" stroke="midnightblue" points="1016.95,-320.86 1007.75,-326.12 1018.22,-327.74 1016.95,-320.86"/>
</g>
<!-- Node27 -->
<g id="node27" class="node">
<title>Node27</title>
<g id="a_node27"><a xlink:href="http_8c.html" target="_top" xlink:title=" ">
<polygon fill="none" stroke="black" points="882,-263 882,-282 939,-282 939,-263 882,-263"/>
<text text-anchor="middle" x="910.5" y="-270" font-family="Helvetica,sans-Serif" font-size="10.00">src/http.c</text>
</a>
</g>
</g>
<!-- Node22&#45;&gt;Node27 -->
<g id="edge48" class="edge">
<title>Node22&#45;&gt;Node27</title>
<path fill="none" stroke="midnightblue" d="M954.69,-317.32C943.29,-306.02 928.34,-291.19 919.08,-282.01"/>
<polygon fill="midnightblue" stroke="midnightblue" points="952.34,-319.92 961.9,-324.48 957.27,-314.95 952.34,-319.92"/>
</g>
<!-- Node23&#45;&gt;Node14 -->
<g id="edge37" class="edge">
<title>Node23&#45;&gt;Node14</title>
<path fill="none" stroke="midnightblue" d="M1047.26,-255.5C1059.81,-242.75 1076.9,-225.39 1087.01,-215.13"/>
<polygon fill="midnightblue" stroke="midnightblue" points="1044.65,-253.15 1040.13,-262.73 1049.64,-258.06 1044.65,-253.15"/>
</g>
<!-- Node24 -->
<g id="node24" class="node">
<title>Node24</title>
<g id="a_node24"><a xlink:href="_ubidots_2authenticate_8c.html" target="_top" xlink:title=" ">
<polygon fill="none" stroke="black" points="882,-196 882,-215 1013,-215 1013,-196 882,-196"/>
<text text-anchor="middle" x="947.5" y="-203" font-family="Helvetica,sans-Serif" font-size="10.00">src/Ubidots/authenticate.c</text>
</a>
</g>
</g>
<!-- Node23&#45;&gt;Node24 -->
<g id="edge38" class="edge">
<title>Node23&#45;&gt;Node24</title>
<path fill="none" stroke="midnightblue" d="M1012.2,-256.57C995.62,-243.74 972.29,-225.69 958.65,-215.13"/>
<polygon fill="midnightblue" stroke="midnightblue" points="1010.12,-259.38 1020.17,-262.73 1014.4,-253.85 1010.12,-259.38"/>
</g>
<!-- Node25&#45;&gt;Node4 -->
<g id="edge43" class="edge">
<title>Node25&#45;&gt;Node4</title>
<path fill="none" stroke="midnightblue" d="M1256.32,-252.45C1240.54,-243.59 1222.13,-232.49 1206.5,-221 1154.28,-182.61 1156.67,-151.59 1098.5,-123 1018.32,-83.6 911.91,-74.61 855.15,-72.76"/>
<polygon fill="midnightblue" stroke="midnightblue" points="1254.81,-255.61 1265.26,-257.39 1258.2,-249.49 1254.81,-255.61"/>
</g>
<!-- Node25&#45;&gt;Node16 -->
<g id="edge41" class="edge">
<title>Node25&#45;&gt;Node16</title>
<path fill="none" stroke="midnightblue" d="M1342.58,-254.09C1372.77,-243.6 1410.72,-230.41 1439,-220.58"/>
<polygon fill="midnightblue" stroke="midnightblue" points="1341.37,-250.81 1333.08,-257.4 1343.67,-257.42 1341.37,-250.81"/>
</g>
<!-- Node25&#45;&gt;Node17 -->
<g id="edge42" class="edge">
<title>Node25&#45;&gt;Node17</title>
<path fill="none" stroke="midnightblue" d="M1327.21,-252.31C1342.88,-243.28 1361.44,-232.08 1377.5,-221 1395.73,-208.43 1397.83,-201.9 1416.5,-190 1438.48,-175.98 1464.89,-162.9 1485.18,-153.56"/>
<polygon fill="midnightblue" stroke="midnightblue" points="1325.31,-249.36 1318.35,-257.35 1328.77,-255.44 1325.31,-249.36"/>
</g>
<!-- Node26 -->
<g id="node26" class="node">
<title>Node26</title>
<g id="a_node26"><a xlink:href="_willy_weather_2authenticate_8c.html" target="_top" xlink:title=" ">
<polygon fill="none" stroke="black" points="1216,-196 1216,-215 1369,-215 1369,-196 1216,-196"/>
<text text-anchor="middle" x="1292.5" y="-203" font-family="Helvetica,sans-Serif" font-size="10.00">src/WillyWeather/authenticate.c</text>
</a>
</g>
</g>
<!-- Node25&#45;&gt;Node26 -->
<g id="edge44" class="edge">
<title>Node25&#45;&gt;Node26</title>
<path fill="none" stroke="midnightblue" d="M1292.5,-247.25C1292.5,-236.02 1292.5,-223.38 1292.5,-215.19"/>
<polygon fill="midnightblue" stroke="midnightblue" points="1289,-247.4 1292.5,-257.4 1296,-247.4 1289,-247.4"/>
</g>
<!-- Node28&#45;&gt;Node4 -->
<g id="edge50" class="edge">
<title>Node28&#45;&gt;Node4</title>
<path fill="none" stroke="midnightblue" d="M1544.52,-316.47C1538.28,-308.48 1531.73,-298.38 1528.5,-288 1524.41,-274.84 1523.81,-269.95 1528.5,-257 1535.59,-237.42 1548.53,-239.29 1558.5,-221 1579.83,-181.89 1609.94,-155.52 1579.5,-123 1529.71,-69.81 1004.81,-70.69 855.13,-72.03"/>
<polygon fill="midnightblue" stroke="midnightblue" points="1541.92,-318.81 1551.02,-324.23 1547.29,-314.32 1541.92,-318.81"/>
</g>
<!-- Node29 -->
<g id="node29" class="node">
<title>Node29</title>
<g id="a_node29"><a xlink:href="severity__index_8c.html" target="_top" xlink:title=" ">
<polygon fill="none" stroke="black" points="1537.5,-263 1537.5,-282 1639.5,-282 1639.5,-263 1537.5,-263"/>
<text text-anchor="middle" x="1588.5" y="-270" font-family="Helvetica,sans-Serif" font-size="10.00">src/severity_index.c</text>
</a>
</g>
</g>
<!-- Node28&#45;&gt;Node29 -->
<g id="edge51" class="edge">
<title>Node28&#45;&gt;Node29</title>
<path fill="none" stroke="midnightblue" d="M1568.11,-315.33C1573.47,-304.33 1580.13,-290.66 1584.35,-282.01"/>
<polygon fill="midnightblue" stroke="midnightblue" points="1564.89,-313.95 1563.65,-324.48 1571.18,-317.02 1564.89,-313.95"/>
</g>
</g>
</svg>
