<?xml version="1.0" encoding="UTF-8" standalone="no"?>
<!DOCTYPE svg PUBLIC "-//W3C//DTD SVG 1.1//EN"
 "http://www.w3.org/Graphics/SVG/1.1/DTD/svg11.dtd">
<!-- Generated by graphviz version 2.49.3 (20211027.1534)
 -->
<!-- Title: include/utils.h Pages: 1 -->
<svg width="964pt" height="274pt"
 viewBox="0.00 0.00 963.50 274.00" xmlns="http://www.w3.org/2000/svg" xmlns:xlink="http://www.w3.org/1999/xlink">
<g id="graph0" class="graph" transform="scale(1 1) rotate(0) translate(4 270)">
<title>include/utils.h</title>
<!-- Node1 -->
<g id="node1" class="node">
<title>Node1</title>
<g id="a_node1"><a xlink:title=" ">
<polygon fill="#bfbfbf" stroke="black" points="541.5,-246.5 541.5,-265.5 617.5,-265.5 617.5,-246.5 541.5,-246.5"/>
<text text-anchor="middle" x="579.5" y="-253.5" font-family="Helvetica,sans-Serif" font-size="10.00">include/utils.h</text>
</a>
</g>
</g>
<!-- Node2 -->
<g id="node2" class="node">
<title>Node2</title>
<g id="a_node2"><a xlink:href="food__auth_8h.html" target="_top" xlink:title=" ">
<polygon fill="none" stroke="black" points="88.5,-179.5 88.5,-209.5 198.5,-209.5 198.5,-179.5 88.5,-179.5"/>
<text text-anchor="start" x="96.5" y="-197.5" font-family="Helvetica,sans-Serif" font-size="10.00">include/FoodAuthority</text>
<text text-anchor="middle" x="143.5" y="-186.5" font-family="Helvetica,sans-Serif" font-size="10.00">/food_auth.h</text>
</a>
</g>
</g>
<!-- Node1&#45;&gt;Node2 -->
<g id="edge1" class="edge">
<title>Node1&#45;&gt;Node2</title>
<path fill="none" stroke="midnightblue" d="M531.18,-248.41C449.55,-237.27 284.83,-214.79 198.74,-203.04"/>
<polygon fill="midnightblue" stroke="midnightblue" points="530.81,-251.89 541.19,-249.77 531.76,-244.95 530.81,-251.89"/>
</g>
<!-- Node6 -->
<g id="node6" class="node">
<title>Node6</title>
<g id="a_node6"><a xlink:href="_i_b_m___e_i_s_2authenticate_8h.html" target="_top" xlink:title=" ">
<polygon fill="none" stroke="black" points="338,-185 338,-204 491,-204 491,-185 338,-185"/>
<text text-anchor="middle" x="414.5" y="-192" font-family="Helvetica,sans-Serif" font-size="10.00">include/IBM_EIS/authenticate.h</text>
</a>
</g>
</g>
<!-- Node1&#45;&gt;Node6 -->
<g id="edge5" class="edge">
<title>Node1&#45;&gt;Node6</title>
<path fill="none" stroke="midnightblue" d="M546.45,-243.08C514.38,-231.52 466.5,-214.25 438.1,-204.01"/>
<polygon fill="midnightblue" stroke="midnightblue" points="545.27,-246.38 555.86,-246.48 547.64,-239.79 545.27,-246.38"/>
</g>
<!-- Node7 -->
<g id="node7" class="node">
<title>Node7</title>
<g id="a_node7"><a xlink:href="timeseries_8h.html" target="_top" xlink:title=" ">
<polygon fill="none" stroke="black" points="172,-118 172,-137 317,-137 317,-118 172,-118"/>
<text text-anchor="middle" x="244.5" y="-125" font-family="Helvetica,sans-Serif" font-size="10.00">include/IBM_EIS/timeseries.h</text>
</a>
</g>
</g>
<!-- Node1&#45;&gt;Node7 -->
<g id="edge11" class="edge">
<title>Node1&#45;&gt;Node7</title>
<path fill="none" stroke="midnightblue" d="M531.09,-254.6C478.5,-252.34 393.31,-243.24 328.5,-210 293.24,-191.92 262.96,-154.1 250.53,-137.1"/>
<polygon fill="midnightblue" stroke="midnightblue" points="531.04,-258.1 541.16,-254.97 531.29,-251.11 531.04,-258.1"/>
</g>
<!-- Node10 -->
<g id="node10" class="node">
<title>Node10</title>
<g id="a_node10"><a xlink:href="devices_8h.html" target="_top" xlink:title=" ">
<polygon fill="none" stroke="black" points="515.5,-185 515.5,-204 643.5,-204 643.5,-185 515.5,-185"/>
<text text-anchor="middle" x="579.5" y="-192" font-family="Helvetica,sans-Serif" font-size="10.00">include/Ubidots/devices.h</text>
</a>
</g>
</g>
<!-- Node1&#45;&gt;Node10 -->
<g id="edge12" class="edge">
<title>Node1&#45;&gt;Node10</title>
<path fill="none" stroke="midnightblue" d="M579.5,-236.32C579.5,-225.5 579.5,-212.4 579.5,-204.01"/>
<polygon fill="midnightblue" stroke="midnightblue" points="576,-236.48 579.5,-246.48 583,-236.48 576,-236.48"/>
</g>
<!-- Node12 -->
<g id="node12" class="node">
<title>Node12</title>
<g id="a_node12"><a xlink:href="location_8h.html" target="_top" xlink:title=" ">
<polygon fill="none" stroke="black" points="700,-179.5 700,-209.5 807,-209.5 807,-179.5 700,-179.5"/>
<text text-anchor="start" x="708" y="-197.5" font-family="Helvetica,sans-Serif" font-size="10.00">include/WillyWeather</text>
<text text-anchor="middle" x="753.5" y="-186.5" font-family="Helvetica,sans-Serif" font-size="10.00">/location.h</text>
</a>
</g>
</g>
<!-- Node1&#45;&gt;Node12 -->
<g id="edge15" class="edge">
<title>Node1&#45;&gt;Node12</title>
<path fill="none" stroke="midnightblue" d="M613.92,-243.23C642.25,-233.54 682.49,-219.78 712.49,-209.52"/>
<polygon fill="midnightblue" stroke="midnightblue" points="612.76,-239.93 604.43,-246.48 615.02,-246.55 612.76,-239.93"/>
</g>
<!-- Node13 -->
<g id="node13" class="node">
<title>Node13</title>
<g id="a_node13"><a xlink:href="tide_8h.html" target="_top" xlink:title=" ">
<polygon fill="none" stroke="black" points="696,-112.5 696,-142.5 803,-142.5 803,-112.5 696,-112.5"/>
<text text-anchor="start" x="704" y="-130.5" font-family="Helvetica,sans-Serif" font-size="10.00">include/WillyWeather</text>
<text text-anchor="middle" x="749.5" y="-119.5" font-family="Helvetica,sans-Serif" font-size="10.00">/tide.h</text>
</a>
</g>
</g>
<!-- Node1&#45;&gt;Node13 -->
<g id="edge20" class="edge">
<title>Node1&#45;&gt;Node13</title>
<path fill="none" stroke="midnightblue" d="M603.6,-241.35C618.11,-232.84 636.76,-221.37 652.5,-210 668.55,-198.41 709.98,-162.82 733.17,-142.72"/>
<polygon fill="midnightblue" stroke="midnightblue" points="601.63,-238.44 594.73,-246.48 605.14,-244.5 601.63,-238.44"/>
</g>
<!-- Node16 -->
<g id="node16" class="node">
<title>Node16</title>
<g id="a_node16"><a xlink:href="utils_8c.html" target="_top" xlink:title=" ">
<polygon fill="none" stroke="black" points="825,-185 825,-204 884,-204 884,-185 825,-185"/>
<text text-anchor="middle" x="854.5" y="-192" font-family="Helvetica,sans-Serif" font-size="10.00">src/utils.c</text>
</a>
</g>
</g>
<!-- Node1&#45;&gt;Node16 -->
<g id="edge21" class="edge">
<title>Node1&#45;&gt;Node16</title>
<path fill="none" stroke="midnightblue" d="M627.68,-248.24C675.76,-240.92 751.5,-227.86 815.5,-210 821.34,-208.37 827.55,-206.25 833.26,-204.13"/>
<polygon fill="midnightblue" stroke="midnightblue" points="626.93,-244.81 617.55,-249.75 627.96,-251.73 626.93,-244.81"/>
</g>
<!-- Node3 -->
<g id="node3" class="node">
<title>Node3</title>
<g id="a_node3"><a xlink:href="main_8h.html" target="_top" xlink:title=" ">
<polygon fill="none" stroke="black" points="460,-56.5 460,-75.5 539,-75.5 539,-56.5 460,-56.5"/>
<text text-anchor="middle" x="499.5" y="-63.5" font-family="Helvetica,sans-Serif" font-size="10.00">include/main.h</text>
</a>
</g>
</g>
<!-- Node2&#45;&gt;Node3 -->
<g id="edge2" class="edge">
<title>Node2&#45;&gt;Node3</title>
<path fill="none" stroke="midnightblue" d="M142.31,-169.3C142.81,-150.86 146.77,-126.29 162.5,-112 184.21,-92.28 375.34,-76.06 459.73,-69.79"/>
<polygon fill="midnightblue" stroke="midnightblue" points="138.81,-169.33 142.35,-179.32 145.81,-169.3 138.81,-169.33"/>
</g>
<!-- Node5 -->
<g id="node5" class="node">
<title>Node5</title>
<g id="a_node5"><a xlink:href="food__auth_8c.html" target="_top" xlink:title=" ">
<polygon fill="none" stroke="black" points="0,-112.5 0,-142.5 115,-142.5 115,-112.5 0,-112.5"/>
<text text-anchor="start" x="8" y="-130.5" font-family="Helvetica,sans-Serif" font-size="10.00">src/FoodAuthority/food</text>
<text text-anchor="middle" x="57.5" y="-119.5" font-family="Helvetica,sans-Serif" font-size="10.00">_auth.c</text>
</a>
</g>
</g>
<!-- Node2&#45;&gt;Node5 -->
<g id="edge4" class="edge">
<title>Node2&#45;&gt;Node5</title>
<path fill="none" stroke="midnightblue" d="M116.6,-173.17C103.45,-163.23 87.95,-151.51 76.12,-142.58"/>
<polygon fill="midnightblue" stroke="midnightblue" points="114.75,-176.16 124.84,-179.4 118.97,-170.57 114.75,-176.16"/>
</g>
<!-- Node4 -->
<g id="node4" class="node">
<title>Node4</title>
<g id="a_node4"><a xlink:href="main_8c.html" target="_top" xlink:title=" ">
<polygon fill="none" stroke="black" points="468.5,-0.5 468.5,-19.5 530.5,-19.5 530.5,-0.5 468.5,-0.5"/>
<text text-anchor="middle" x="499.5" y="-7.5" font-family="Helvetica,sans-Serif" font-size="10.00">src/main.c</text>
</a>
</g>
</g>
<!-- Node3&#45;&gt;Node4 -->
<g id="edge3" class="edge">
<title>Node3&#45;&gt;Node4</title>
<path fill="none" stroke="midnightblue" d="M499.5,-45.8C499.5,-36.91 499.5,-26.78 499.5,-19.75"/>
<polygon fill="midnightblue" stroke="midnightblue" points="496,-46.08 499.5,-56.08 503,-46.08 496,-46.08"/>
</g>
<!-- Node6&#45;&gt;Node3 -->
<g id="edge9" class="edge">
<title>Node6&#45;&gt;Node3</title>
<path fill="none" stroke="midnightblue" d="M440.17,-179.65C454.08,-170.89 470.43,-158.33 480.5,-143 494.54,-121.63 498.21,-90.66 499.16,-75.72"/>
<polygon fill="midnightblue" stroke="midnightblue" points="438.27,-176.71 431.48,-184.85 441.86,-182.72 438.27,-176.71"/>
</g>
<!-- Node6&#45;&gt;Node7 -->
<g id="edge6" class="edge">
<title>Node6&#45;&gt;Node7</title>
<path fill="none" stroke="midnightblue" d="M382.52,-181.27C348.78,-168.37 296.48,-148.38 266.9,-137.06"/>
<polygon fill="midnightblue" stroke="midnightblue" points="381.33,-184.57 391.93,-184.87 383.83,-178.03 381.33,-184.57"/>
</g>
<!-- Node9 -->
<g id="node9" class="node">
<title>Node9</title>
<g id="a_node9"><a xlink:href="_i_b_m___e_i_s_2authenticate_8c.html" target="_top" xlink:title=" ">
<polygon fill="none" stroke="black" points="335.5,-118 335.5,-137 471.5,-137 471.5,-118 335.5,-118"/>
<text text-anchor="middle" x="403.5" y="-125" font-family="Helvetica,sans-Serif" font-size="10.00">src/IBM_EIS/authenticate.c</text>
</a>
</g>
</g>
<!-- Node6&#45;&gt;Node9 -->
<g id="edge10" class="edge">
<title>Node6&#45;&gt;Node9</title>
<path fill="none" stroke="midnightblue" d="M411.29,-174.54C409.2,-162.17 406.57,-146.62 404.96,-137.13"/>
<polygon fill="midnightblue" stroke="midnightblue" points="407.9,-175.46 413.02,-184.73 414.8,-174.29 407.9,-175.46"/>
</g>
<!-- Node7&#45;&gt;Node3 -->
<g id="edge7" class="edge">
<title>Node7&#45;&gt;Node3</title>
<path fill="none" stroke="midnightblue" d="M290.85,-115.69C340.33,-104.14 417.71,-86.08 463.03,-75.51"/>
<polygon fill="midnightblue" stroke="midnightblue" points="289.98,-112.29 281.04,-117.98 291.57,-119.11 289.98,-112.29"/>
</g>
<!-- Node8 -->
<g id="node8" class="node">
<title>Node8</title>
<g id="a_node8"><a xlink:href="timeseries_8c.html" target="_top" xlink:title=" ">
<polygon fill="none" stroke="black" points="180.5,-56.5 180.5,-75.5 308.5,-75.5 308.5,-56.5 180.5,-56.5"/>
<text text-anchor="middle" x="244.5" y="-63.5" font-family="Helvetica,sans-Serif" font-size="10.00">src/IBM_EIS/timeseries.c</text>
</a>
</g>
</g>
<!-- Node7&#45;&gt;Node8 -->
<g id="edge8" class="edge">
<title>Node7&#45;&gt;Node8</title>
<path fill="none" stroke="midnightblue" d="M244.5,-107.82C244.5,-97 244.5,-83.9 244.5,-75.51"/>
<polygon fill="midnightblue" stroke="midnightblue" points="241,-107.98 244.5,-117.98 248,-107.98 241,-107.98"/>
</g>
<!-- Node10&#45;&gt;Node3 -->
<g id="edge13" class="edge">
<title>Node10&#45;&gt;Node3</title>
<path fill="none" stroke="midnightblue" d="M608.61,-180.03C623.13,-171.62 639.32,-159.27 647.5,-143 653.69,-130.69 655.7,-123.07 647.5,-112 622.79,-78.67 574,-69.18 539.2,-66.89"/>
<polygon fill="midnightblue" stroke="midnightblue" points="606.54,-177.17 599.4,-184.99 609.86,-183.33 606.54,-177.17"/>
</g>
<!-- Node11 -->
<g id="node11" class="node">
<title>Node11</title>
<g id="a_node11"><a xlink:href="devices_8c.html" target="_top" xlink:title=" ">
<polygon fill="none" stroke="black" points="528,-118 528,-137 639,-137 639,-118 528,-118"/>
<text text-anchor="middle" x="583.5" y="-125" font-family="Helvetica,sans-Serif" font-size="10.00">src/Ubidots/devices.c</text>
</a>
</g>
</g>
<!-- Node10&#45;&gt;Node11 -->
<g id="edge14" class="edge">
<title>Node10&#45;&gt;Node11</title>
<path fill="none" stroke="midnightblue" d="M580.67,-174.54C581.43,-162.17 582.38,-146.62 582.97,-137.13"/>
<polygon fill="midnightblue" stroke="midnightblue" points="577.16,-174.54 580.04,-184.73 584.15,-174.97 577.16,-174.54"/>
</g>
<!-- Node12&#45;&gt;Node13 -->
<g id="edge16" class="edge">
<title>Node12&#45;&gt;Node13</title>
<path fill="none" stroke="midnightblue" d="M752.02,-169.4C751.46,-160.37 750.85,-150.41 750.37,-142.58"/>
<polygon fill="midnightblue" stroke="midnightblue" points="748.52,-169.63 752.63,-179.4 755.51,-169.2 748.52,-169.63"/>
</g>
<!-- Node15 -->
<g id="node15" class="node">
<title>Node15</title>
<g id="a_node15"><a xlink:href="location_8c.html" target="_top" xlink:title=" ">
<polygon fill="none" stroke="black" points="821.5,-118 821.5,-137 955.5,-137 955.5,-118 821.5,-118"/>
<text text-anchor="middle" x="888.5" y="-125" font-family="Helvetica,sans-Serif" font-size="10.00">src/WillyWeather/location.c</text>
</a>
</g>
</g>
<!-- Node12&#45;&gt;Node15 -->
<g id="edge19" class="edge">
<title>Node12&#45;&gt;Node15</title>
<path fill="none" stroke="midnightblue" d="M791.99,-174.97C817.92,-162.48 850.91,-146.6 870.83,-137.01"/>
<polygon fill="midnightblue" stroke="midnightblue" points="790.28,-171.9 782.79,-179.4 793.32,-178.21 790.28,-171.9"/>
</g>
<!-- Node13&#45;&gt;Node3 -->
<g id="edge17" class="edge">
<title>Node13&#45;&gt;Node3</title>
<path fill="none" stroke="midnightblue" d="M685.94,-111.37C638.2,-100.01 574.54,-84.86 535.32,-75.53"/>
<polygon fill="midnightblue" stroke="midnightblue" points="685.33,-114.83 695.87,-113.74 686.95,-108.02 685.33,-114.83"/>
</g>
<!-- Node14 -->
<g id="node14" class="node">
<title>Node14</title>
<g id="a_node14"><a xlink:href="tide_8c.html" target="_top" xlink:title=" ">
<polygon fill="none" stroke="black" points="691.5,-56.5 691.5,-75.5 807.5,-75.5 807.5,-56.5 691.5,-56.5"/>
<text text-anchor="middle" x="749.5" y="-63.5" font-family="Helvetica,sans-Serif" font-size="10.00">src/WillyWeather/tide.c</text>
</a>
</g>
</g>
<!-- Node13&#45;&gt;Node14 -->
<g id="edge18" class="edge">
<title>Node13&#45;&gt;Node14</title>
<path fill="none" stroke="midnightblue" d="M749.5,-102.29C749.5,-92.86 749.5,-82.65 749.5,-75.66"/>
<polygon fill="midnightblue" stroke="midnightblue" points="746,-102.4 749.5,-112.4 753,-102.4 746,-102.4"/>
</g>
</g>
</svg>
