<?xml version="1.0" encoding="UTF-8" standalone="no"?>
<!DOCTYPE svg PUBLIC "-//W3C//DTD SVG 1.1//EN"
 "http://www.w3.org/Graphics/SVG/1.1/DTD/svg11.dtd">
<!-- Generated by graphviz version 2.43.0 (0)
 -->
<!-- Title: include/utils.h Pages: 1 -->
<svg width="1928pt" height="467pt"
 viewBox="0.00 0.00 1927.50 467.00" xmlns="http://www.w3.org/2000/svg" xmlns:xlink="http://www.w3.org/1999/xlink">
<g id="graph0" class="graph" transform="scale(1 1) rotate(0) translate(4 463)">
<title>include/utils.h</title>
<!-- Node1 -->
<g id="node1" class="node">
<title>Node1</title>
<g id="a_node1"><a xlink:title=" ">
<polygon fill="#999999" stroke="#666666" points="802.5,-459 717.5,-459 717.5,-440 802.5,-440 802.5,-459"/>
<text text-anchor="middle" x="760" y="-447" font-family="Helvetica,sans-Serif" font-size="10.00">include/utils.h</text>
</a>
</g>
</g>
<!-- Node2 -->
<g id="node2" class="node">
<title>Node2</title>
<g id="a_node2"><a xlink:href="stations_8h.html" target="_top" xlink:title=" ">
<polygon fill="white" stroke="#666666" points="403.5,-277.5 274.5,-277.5 274.5,-258.5 403.5,-258.5 403.5,-277.5"/>
<text text-anchor="middle" x="339" y="-265.5" font-family="Helvetica,sans-Serif" font-size="10.00">include/BOM/stations.h</text>
</a>
</g>
</g>
<!-- Node1&#45;&gt;Node2 -->
<g id="edge1" class="edge">
<title>Node1&#45;&gt;Node2</title>
<path fill="none" stroke="#63b8ff" d="M707.27,-444.01C637.08,-437.39 517.24,-423.62 478,-404 415.11,-372.56 362.26,-302.47 344.98,-277.8"/>
<polygon fill="#63b8ff" stroke="#63b8ff" points="706.97,-447.5 717.25,-444.94 707.62,-440.53 706.97,-447.5"/>
</g>
<!-- Node7 -->
<g id="node7" class="node">
<title>Node7</title>
<g id="a_node7"><a xlink:href="harvest__areas_8h.html" target="_top" xlink:title=" ">
<polygon fill="white" stroke="#666666" points="832.5,-151 709.5,-151 709.5,-121 832.5,-121 832.5,-151"/>
<text text-anchor="start" x="717.5" y="-139" font-family="Helvetica,sans-Serif" font-size="10.00">include/FoodAuthority</text>
<text text-anchor="middle" x="771" y="-128" font-family="Helvetica,sans-Serif" font-size="10.00">/harvest_areas.h</text>
</a>
</g>
</g>
<!-- Node1&#45;&gt;Node7 -->
<g id="edge24" class="edge">
<title>Node1&#45;&gt;Node7</title>
<path fill="none" stroke="#63b8ff" d="M707.43,-437.64C660.01,-424.91 592.45,-398.88 557,-349 532.2,-314.1 526.82,-289.62 549,-253 550.4,-250.68 684.44,-181.53 743.54,-151.12"/>
<polygon fill="#63b8ff" stroke="#63b8ff" points="706.66,-441.06 717.22,-440.16 708.41,-434.28 706.66,-441.06"/>
</g>
<!-- Node9 -->
<g id="node9" class="node">
<title>Node9</title>
<g id="a_node9"><a xlink:href="transform_8h.html" target="_top" xlink:title=" ">
<polygon fill="white" stroke="#666666" points="572,-211.5 460,-211.5 460,-192.5 572,-192.5 572,-211.5"/>
<text text-anchor="middle" x="516" y="-199.5" font-family="Helvetica,sans-Serif" font-size="10.00">include/transform.h</text>
</a>
</g>
</g>
<!-- Node1&#45;&gt;Node9 -->
<g id="edge69" class="edge">
<title>Node1&#45;&gt;Node9</title>
<path fill="none" stroke="#63b8ff" d="M707.07,-446.51C642.75,-442.85 539.84,-432.58 516,-404 467.5,-345.85 501.22,-241.86 512.62,-211.52"/>
<polygon fill="#63b8ff" stroke="#63b8ff" points="707.26,-450.03 717.43,-447.06 707.63,-443.04 707.26,-450.03"/>
</g>
<!-- Node10 -->
<g id="node10" class="node">
<title>Node10</title>
<g id="a_node10"><a xlink:href="timeseries_8h.html" target="_top" xlink:title=" ">
<polygon fill="white" stroke="#666666" points="545,-145.5 387,-145.5 387,-126.5 545,-126.5 545,-145.5"/>
<text text-anchor="middle" x="466" y="-133.5" font-family="Helvetica,sans-Serif" font-size="10.00">include/IBM_EIS/timeseries.h</text>
</a>
</g>
</g>
<!-- Node1&#45;&gt;Node10 -->
<g id="edge29" class="edge">
<title>Node1&#45;&gt;Node10</title>
<path fill="none" stroke="#63b8ff" d="M707.02,-448.29C572.81,-446.34 230,-431.87 230,-335 230,-335 230,-335 230,-267 230,-230.35 223.86,-212.69 250,-187 270.32,-167.04 339.34,-153.44 393.95,-145.53"/>
<polygon fill="#63b8ff" stroke="#63b8ff" points="707.03,-451.79 717.08,-448.42 707.12,-444.79 707.03,-451.79"/>
</g>
<!-- Node14 -->
<g id="node14" class="node">
<title>Node14</title>
<g id="a_node14"><a xlink:href="harvest__area_8h.html" target="_top" xlink:title=" ">
<polygon fill="white" stroke="#666666" points="883.5,-283 760.5,-283 760.5,-253 883.5,-253 883.5,-283"/>
<text text-anchor="start" x="768.5" y="-271" font-family="Helvetica,sans-Serif" font-size="10.00">include/FoodAuthority</text>
<text text-anchor="middle" x="822" y="-260" font-family="Helvetica,sans-Serif" font-size="10.00">/harvest_area.h</text>
</a>
</g>
</g>
<!-- Node1&#45;&gt;Node14 -->
<g id="edge19" class="edge">
<title>Node1&#45;&gt;Node14</title>
<path fill="none" stroke="#63b8ff" d="M760.77,-429.65C762.43,-403.7 767.63,-355.99 784,-319 789.91,-305.64 800.05,-292.57 808.36,-283.14"/>
<polygon fill="#63b8ff" stroke="#63b8ff" points="757.26,-429.75 760.23,-439.92 764.25,-430.12 757.26,-429.75"/>
</g>
<!-- Node16 -->
<g id="node16" class="node">
<title>Node16</title>
<g id="a_node16"><a xlink:href="_i_b_m___e_i_s_2authenticate_8h.html" target="_top" xlink:title=" ">
<polygon fill="white" stroke="#666666" points="732.5,-343.5 565.5,-343.5 565.5,-324.5 732.5,-324.5 732.5,-343.5"/>
<text text-anchor="middle" x="649" y="-331.5" font-family="Helvetica,sans-Serif" font-size="10.00">include/IBM_EIS/authenticate.h</text>
</a>
</g>
</g>
<!-- Node1&#45;&gt;Node16 -->
<g id="edge25" class="edge">
<title>Node1&#45;&gt;Node16</title>
<path fill="none" stroke="#63b8ff" d="M744.45,-432.6C720.66,-408.27 676.01,-362.62 657.44,-343.63"/>
<polygon fill="#63b8ff" stroke="#63b8ff" points="742.16,-435.27 751.66,-439.97 747.17,-430.37 742.16,-435.27"/>
</g>
<!-- Node18 -->
<g id="node18" class="node">
<title>Node18</title>
<g id="a_node18"><a xlink:href="devices_8h.html" target="_top" xlink:title=" ">
<polygon fill="white" stroke="#666666" points="1638,-277.5 1496,-277.5 1496,-258.5 1638,-258.5 1638,-277.5"/>
<text text-anchor="middle" x="1567" y="-265.5" font-family="Helvetica,sans-Serif" font-size="10.00">include/Ubidots/devices.h</text>
</a>
</g>
</g>
<!-- Node1&#45;&gt;Node18 -->
<g id="edge30" class="edge">
<title>Node1&#45;&gt;Node18</title>
<path fill="none" stroke="#63b8ff" d="M812.81,-446.68C996.91,-439.78 1602.25,-412.42 1659,-349 1684.97,-319.98 1626.08,-291.35 1590.9,-277.54"/>
<polygon fill="#63b8ff" stroke="#63b8ff" points="812.44,-443.19 802.57,-447.05 812.7,-450.18 812.44,-443.19"/>
</g>
<!-- Node20 -->
<g id="node20" class="node">
<title>Node20</title>
<g id="a_node20"><a xlink:href="location_8h.html" target="_top" xlink:title=" ">
<polygon fill="white" stroke="#666666" points="1174,-283 1054,-283 1054,-253 1174,-253 1174,-283"/>
<text text-anchor="start" x="1062" y="-271" font-family="Helvetica,sans-Serif" font-size="10.00">include/WillyWeather</text>
<text text-anchor="middle" x="1114" y="-260" font-family="Helvetica,sans-Serif" font-size="10.00">/location.h</text>
</a>
</g>
</g>
<!-- Node1&#45;&gt;Node20 -->
<g id="edge33" class="edge">
<title>Node1&#45;&gt;Node20</title>
<path fill="none" stroke="#63b8ff" d="M786.25,-435.19C851.31,-402.2 1019.56,-316.89 1086.21,-283.09"/>
<polygon fill="#63b8ff" stroke="#63b8ff" points="784.41,-432.2 777.07,-439.84 787.58,-438.44 784.41,-432.2"/>
</g>
<!-- Node21 -->
<g id="node21" class="node">
<title>Node21</title>
<g id="a_node21"><a xlink:href="precipitation_8h.html" target="_top" xlink:title=" ">
<polygon fill="white" stroke="#666666" points="1136,-217 1016,-217 1016,-187 1136,-187 1136,-217"/>
<text text-anchor="start" x="1024" y="-205" font-family="Helvetica,sans-Serif" font-size="10.00">include/WillyWeather</text>
<text text-anchor="middle" x="1076" y="-194" font-family="Helvetica,sans-Serif" font-size="10.00">/precipitation.h</text>
</a>
</g>
</g>
<!-- Node1&#45;&gt;Node21 -->
<g id="edge43" class="edge">
<title>Node1&#45;&gt;Node21</title>
<path fill="none" stroke="#63b8ff" d="M779.42,-433.41C836.4,-389.14 1002.6,-260.02 1057.88,-217.08"/>
<polygon fill="#63b8ff" stroke="#63b8ff" points="777,-430.86 771.25,-439.76 781.29,-436.39 777,-430.86"/>
</g>
<!-- Node23 -->
<g id="node23" class="node">
<title>Node23</title>
<g id="a_node23"><a xlink:href="tide_8h.html" target="_top" xlink:title=" ">
<polygon fill="white" stroke="#666666" points="1522,-217 1402,-217 1402,-187 1522,-187 1522,-217"/>
<text text-anchor="start" x="1410" y="-205" font-family="Helvetica,sans-Serif" font-size="10.00">include/WillyWeather</text>
<text text-anchor="middle" x="1462" y="-194" font-family="Helvetica,sans-Serif" font-size="10.00">/tide.h</text>
</a>
</g>
</g>
<!-- Node1&#45;&gt;Node23 -->
<g id="edge44" class="edge">
<title>Node1&#45;&gt;Node23</title>
<path fill="none" stroke="#63b8ff" d="M812.91,-447.12C960.47,-442.98 1374.46,-429.39 1508,-404 1585.18,-389.32 1603.29,-378.76 1676,-349 1737.07,-324 1774.22,-339.08 1809,-283 1816.03,-271.67 1817.73,-263.08 1809,-253 1799.68,-242.25 1618.82,-220.52 1522.01,-209.6"/>
<polygon fill="#63b8ff" stroke="#63b8ff" points="812.65,-443.62 802.75,-447.4 812.85,-450.62 812.65,-443.62"/>
</g>
<!-- Node26 -->
<g id="node26" class="node">
<title>Node26</title>
<g id="a_node26"><a xlink:href="ftp_8h.html" target="_top" xlink:title=" ">
<polygon fill="white" stroke="#666666" points="192.5,-343.5 115.5,-343.5 115.5,-324.5 192.5,-324.5 192.5,-343.5"/>
<text text-anchor="middle" x="154" y="-331.5" font-family="Helvetica,sans-Serif" font-size="10.00">include/ftp.h</text>
</a>
</g>
</g>
<!-- Node1&#45;&gt;Node26 -->
<g id="edge45" class="edge">
<title>Node1&#45;&gt;Node26</title>
<path fill="none" stroke="#63b8ff" d="M707.16,-449.08C587.84,-449.6 301.3,-446.28 216,-404 188.58,-390.41 167.71,-358.98 158.77,-343.68"/>
<polygon fill="#63b8ff" stroke="#63b8ff" points="707.52,-452.58 717.5,-449.02 707.48,-445.58 707.52,-452.58"/>
</g>
<!-- Node28 -->
<g id="node28" class="node">
<title>Node28</title>
<g id="a_node28"><a xlink:href="http_8h.html" target="_top" xlink:title=" ">
<polygon fill="white" stroke="#666666" points="1155.5,-404 1072.5,-404 1072.5,-385 1155.5,-385 1155.5,-404"/>
<text text-anchor="middle" x="1114" y="-392" font-family="Helvetica,sans-Serif" font-size="10.00">include/http.h</text>
</a>
</g>
</g>
<!-- Node1&#45;&gt;Node28 -->
<g id="edge50" class="edge">
<title>Node1&#45;&gt;Node28</title>
<path fill="none" stroke="#63b8ff" d="M812.74,-440.6C883.47,-430.02 1007.62,-411.43 1072.25,-401.75"/>
<polygon fill="#63b8ff" stroke="#63b8ff" points="812.07,-437.16 802.7,-442.11 813.11,-444.09 812.07,-437.16"/>
</g>
<!-- Node34 -->
<g id="node34" class="node">
<title>Node34</title>
<g id="a_node34"><a xlink:href="utils_8c.html" target="_top" xlink:title=" ">
<polygon fill="white" stroke="#666666" points="1919.5,-404 1856.5,-404 1856.5,-385 1919.5,-385 1919.5,-404"/>
<text text-anchor="middle" x="1888" y="-392" font-family="Helvetica,sans-Serif" font-size="10.00">src/utils.c</text>
</a>
</g>
</g>
<!-- Node1&#45;&gt;Node34 -->
<g id="edge70" class="edge">
<title>Node1&#45;&gt;Node34</title>
<path fill="none" stroke="#63b8ff" d="M813.04,-448.97C970.47,-449.8 1448.65,-448.21 1842,-404 1846.68,-403.47 1851.6,-402.75 1856.41,-401.94"/>
<polygon fill="#63b8ff" stroke="#63b8ff" points="812.72,-445.47 802.7,-448.91 812.68,-452.47 812.72,-445.47"/>
</g>
<!-- Node3 -->
<g id="node3" class="node">
<title>Node3</title>
<g id="a_node3"><a xlink:href="historical__weather_8h.html" target="_top" xlink:title=" ">
<polygon fill="white" stroke="#666666" points="126,-151 0,-151 0,-121 126,-121 126,-151"/>
<text text-anchor="start" x="8" y="-139" font-family="Helvetica,sans-Serif" font-size="10.00">include/BOM/historical</text>
<text text-anchor="middle" x="63" y="-128" font-family="Helvetica,sans-Serif" font-size="10.00">_weather.h</text>
</a>
</g>
</g>
<!-- Node2&#45;&gt;Node3 -->
<g id="edge2" class="edge">
<title>Node2&#45;&gt;Node3</title>
<path fill="none" stroke="#63b8ff" d="M311.62,-254.1C259.58,-229.59 146.78,-176.46 92.86,-151.07"/>
<polygon fill="#63b8ff" stroke="#63b8ff" points="310.35,-257.38 320.89,-258.47 313.34,-251.04 310.35,-257.38"/>
</g>
<!-- Node4 -->
<g id="node4" class="node">
<title>Node4</title>
<g id="a_node4"><a xlink:href="main_8h.html" target="_top" xlink:title=" ">
<polygon fill="white" stroke="#666666" points="927.5,-79.5 838.5,-79.5 838.5,-60.5 927.5,-60.5 927.5,-79.5"/>
<text text-anchor="middle" x="883" y="-67.5" font-family="Helvetica,sans-Serif" font-size="10.00">include/main.h</text>
</a>
</g>
</g>
<!-- Node2&#45;&gt;Node4 -->
<g id="edge9" class="edge">
<title>Node2&#45;&gt;Node4</title>
<path fill="none" stroke="#63b8ff" d="M354.43,-250.85C362.15,-241.69 370.73,-229.56 375,-217 388.74,-176.58 348.55,-151.91 378,-121 412.68,-84.6 779.43,-93.34 829,-85 837.12,-83.63 845.8,-81.63 853.77,-79.57"/>
<polygon fill="#63b8ff" stroke="#63b8ff" points="351.78,-248.57 347.74,-258.36 357.01,-253.22 351.78,-248.57"/>
</g>
<!-- Node2&#45;&gt;Node7 -->
<g id="edge6" class="edge">
<title>Node2&#45;&gt;Node7</title>
<path fill="none" stroke="#63b8ff" d="M413.47,-259.53C462.57,-252.72 527.45,-240.05 581,-217 602.4,-207.79 603.21,-197.52 624,-187 653.94,-171.85 689.53,-159.61 718.19,-151.03"/>
<polygon fill="#63b8ff" stroke="#63b8ff" points="413,-256.06 403.55,-260.86 413.93,-263 413,-256.06"/>
</g>
<!-- Node2&#45;&gt;Node9 -->
<g id="edge10" class="edge">
<title>Node2&#45;&gt;Node9</title>
<path fill="none" stroke="#63b8ff" d="M372.63,-254.84C407.6,-242.2 461.44,-222.73 492.23,-211.6"/>
<polygon fill="#63b8ff" stroke="#63b8ff" points="371.08,-251.68 362.87,-258.37 373.47,-258.26 371.08,-251.68"/>
</g>
<!-- Node13 -->
<g id="node13" class="node">
<title>Node13</title>
<g id="a_node13"><a xlink:href="stations_8c.html" target="_top" xlink:title=" ">
<polygon fill="white" stroke="#666666" points="365.5,-211.5 258.5,-211.5 258.5,-192.5 365.5,-192.5 365.5,-211.5"/>
<text text-anchor="middle" x="312" y="-199.5" font-family="Helvetica,sans-Serif" font-size="10.00">src/BOM/stations.c</text>
</a>
</g>
</g>
<!-- Node2&#45;&gt;Node13 -->
<g id="edge18" class="edge">
<title>Node2&#45;&gt;Node13</title>
<path fill="none" stroke="#63b8ff" d="M331.33,-248.82C326.23,-236.74 319.77,-221.41 315.76,-211.91"/>
<polygon fill="#63b8ff" stroke="#63b8ff" points="328.25,-250.52 335.36,-258.37 334.7,-247.79 328.25,-250.52"/>
</g>
<!-- Node3&#45;&gt;Node4 -->
<g id="edge3" class="edge">
<title>Node3&#45;&gt;Node4</title>
<path fill="none" stroke="#63b8ff" d="M136.64,-121.41C137.76,-121.27 138.89,-121.13 140,-121 444.58,-85.5 525.94,-131.71 829,-85 837.33,-83.72 846.23,-81.69 854.36,-79.57"/>
<polygon fill="#63b8ff" stroke="#63b8ff" points="135.78,-117.99 126.35,-122.82 136.74,-124.93 135.78,-117.99"/>
</g>
<!-- Node6 -->
<g id="node6" class="node">
<title>Node6</title>
<g id="a_node6"><a xlink:href="historical__weather_8c.html" target="_top" xlink:title=" ">
<polygon fill="white" stroke="#666666" points="115.5,-85 10.5,-85 10.5,-55 115.5,-55 115.5,-85"/>
<text text-anchor="start" x="18.5" y="-73" font-family="Helvetica,sans-Serif" font-size="10.00">src/BOM/historical</text>
<text text-anchor="middle" x="63" y="-62" font-family="Helvetica,sans-Serif" font-size="10.00">_weather.c</text>
</a>
</g>
</g>
<!-- Node3&#45;&gt;Node6 -->
<g id="edge5" class="edge">
<title>Node3&#45;&gt;Node6</title>
<path fill="none" stroke="#63b8ff" d="M63,-110.54C63,-101.96 63,-92.61 63,-85.16"/>
<polygon fill="#63b8ff" stroke="#63b8ff" points="59.5,-110.8 63,-120.8 66.5,-110.8 59.5,-110.8"/>
</g>
<!-- Node5 -->
<g id="node5" class="node">
<title>Node5</title>
<g id="a_node5"><a xlink:href="main_8c.html" target="_top" xlink:title=" ">
<polygon fill="white" stroke="#666666" points="916.5,-19 849.5,-19 849.5,0 916.5,0 916.5,-19"/>
<text text-anchor="middle" x="883" y="-7" font-family="Helvetica,sans-Serif" font-size="10.00">src/main.c</text>
</a>
</g>
</g>
<!-- Node4&#45;&gt;Node5 -->
<g id="edge4" class="edge">
<title>Node4&#45;&gt;Node5</title>
<path fill="none" stroke="#63b8ff" d="M883,-50.16C883,-39.74 883,-27.3 883,-19.17"/>
<polygon fill="#63b8ff" stroke="#63b8ff" points="879.5,-50.37 883,-60.37 886.5,-50.37 879.5,-50.37"/>
</g>
<!-- Node7&#45;&gt;Node4 -->
<g id="edge7" class="edge">
<title>Node7&#45;&gt;Node4</title>
<path fill="none" stroke="#63b8ff" d="M804.3,-115.97C825.48,-103.87 851.89,-88.78 868.09,-79.52"/>
<polygon fill="#63b8ff" stroke="#63b8ff" points="802.52,-112.95 795.58,-120.95 806,-119.03 802.52,-112.95"/>
</g>
<!-- Node8 -->
<g id="node8" class="node">
<title>Node8</title>
<g id="a_node8"><a xlink:href="harvest__areas_8c.html" target="_top" xlink:title=" ">
<polygon fill="white" stroke="#666666" points="820,-85 678,-85 678,-55 820,-55 820,-85"/>
<text text-anchor="start" x="686" y="-73" font-family="Helvetica,sans-Serif" font-size="10.00">src/FoodAuthority/harvest</text>
<text text-anchor="middle" x="749" y="-62" font-family="Helvetica,sans-Serif" font-size="10.00">_areas.c</text>
</a>
</g>
</g>
<!-- Node7&#45;&gt;Node8 -->
<g id="edge8" class="edge">
<title>Node7&#45;&gt;Node8</title>
<path fill="none" stroke="#63b8ff" d="M762.79,-111.11C759.79,-102.38 756.49,-92.78 753.87,-85.16"/>
<polygon fill="#63b8ff" stroke="#63b8ff" points="759.56,-112.48 766.12,-120.8 766.18,-110.2 759.56,-112.48"/>
</g>
<!-- Node9&#45;&gt;Node3 -->
<g id="edge11" class="edge">
<title>Node9&#45;&gt;Node3</title>
<path fill="none" stroke="#63b8ff" d="M450,-191.67C363.14,-179.4 211.54,-157.99 126.14,-145.92"/>
<polygon fill="#63b8ff" stroke="#63b8ff" points="449.61,-195.15 460,-193.09 450.59,-188.22 449.61,-195.15"/>
</g>
<!-- Node9&#45;&gt;Node4 -->
<g id="edge16" class="edge">
<title>Node9&#45;&gt;Node4</title>
<path fill="none" stroke="#63b8ff" d="M560.64,-189.81C590.38,-181.38 629.77,-168.31 662,-151 681.27,-140.65 681.42,-130.75 701,-121 707.8,-117.61 800.31,-92.88 850.74,-79.52"/>
<polygon fill="#63b8ff" stroke="#63b8ff" points="559.65,-186.45 550.95,-192.49 561.52,-193.2 559.65,-186.45"/>
</g>
<!-- Node9&#45;&gt;Node7 -->
<g id="edge12" class="edge">
<title>Node9&#45;&gt;Node7</title>
<path fill="none" stroke="#63b8ff" d="M560,-189.96C602.96,-179.17 668.5,-162.73 715.12,-151.02"/>
<polygon fill="#63b8ff" stroke="#63b8ff" points="558.97,-186.61 550.13,-192.44 560.68,-193.4 558.97,-186.61"/>
</g>
<!-- Node9&#45;&gt;Node10 -->
<g id="edge13" class="edge">
<title>Node9&#45;&gt;Node10</title>
<path fill="none" stroke="#63b8ff" d="M502.93,-184.27C493.34,-171.99 480.69,-155.8 472.96,-145.91"/>
<polygon fill="#63b8ff" stroke="#63b8ff" points="500.34,-186.64 509.26,-192.37 505.86,-182.33 500.34,-186.64"/>
</g>
<!-- Node12 -->
<g id="node12" class="node">
<title>Node12</title>
<g id="a_node12"><a xlink:href="transform_8c.html" target="_top" xlink:title=" ">
<polygon fill="white" stroke="#666666" points="653,-145.5 563,-145.5 563,-126.5 653,-126.5 653,-145.5"/>
<text text-anchor="middle" x="608" y="-133.5" font-family="Helvetica,sans-Serif" font-size="10.00">src/transform.c</text>
</a>
</g>
</g>
<!-- Node9&#45;&gt;Node12 -->
<g id="edge17" class="edge">
<title>Node9&#45;&gt;Node12</title>
<path fill="none" stroke="#63b8ff" d="M537.08,-186.33C555.13,-173.78 580.5,-156.13 595.5,-145.7"/>
<polygon fill="#63b8ff" stroke="#63b8ff" points="534.62,-183.78 528.41,-192.37 538.62,-189.53 534.62,-183.78"/>
</g>
<!-- Node10&#45;&gt;Node4 -->
<g id="edge14" class="edge">
<title>Node10&#45;&gt;Node4</title>
<path fill="none" stroke="#63b8ff" d="M528.17,-124.89C536.84,-123.54 545.64,-122.21 554,-121 675.99,-103.31 708,-108.51 829,-85 836.8,-83.49 845.14,-81.5 852.88,-79.51"/>
<polygon fill="#63b8ff" stroke="#63b8ff" points="527.42,-121.47 518.08,-126.47 528.5,-128.38 527.42,-121.47"/>
</g>
<!-- Node11 -->
<g id="node11" class="node">
<title>Node11</title>
<g id="a_node11"><a xlink:href="timeseries_8c.html" target="_top" xlink:title=" ">
<polygon fill="white" stroke="#666666" points="534,-79.5 398,-79.5 398,-60.5 534,-60.5 534,-79.5"/>
<text text-anchor="middle" x="466" y="-67.5" font-family="Helvetica,sans-Serif" font-size="10.00">src/IBM_EIS/timeseries.c</text>
</a>
</g>
</g>
<!-- Node10&#45;&gt;Node11 -->
<g id="edge15" class="edge">
<title>Node10&#45;&gt;Node11</title>
<path fill="none" stroke="#63b8ff" d="M466,-116.08C466,-104.13 466,-89.22 466,-79.91"/>
<polygon fill="#63b8ff" stroke="#63b8ff" points="462.5,-116.37 466,-126.37 469.5,-116.37 462.5,-116.37"/>
</g>
<!-- Node14&#45;&gt;Node4 -->
<g id="edge21" class="edge">
<title>Node14&#45;&gt;Node4</title>
<path fill="none" stroke="#63b8ff" d="M863.11,-247.62C874.94,-239.87 886.41,-229.71 893,-217 917.34,-170.09 895.53,-103.03 886.49,-79.53"/>
<polygon fill="#63b8ff" stroke="#63b8ff" points="861.24,-244.66 854.51,-252.84 864.87,-250.65 861.24,-244.66"/>
</g>
<!-- Node14&#45;&gt;Node7 -->
<g id="edge20" class="edge">
<title>Node14&#45;&gt;Node7</title>
<path fill="none" stroke="#63b8ff" d="M768.16,-248.41C754.27,-240.9 741,-230.68 733,-217 720.03,-194.84 740.15,-167.55 755.71,-151.25"/>
<polygon fill="#63b8ff" stroke="#63b8ff" points="766.8,-251.65 777.32,-252.97 769.92,-245.38 766.8,-251.65"/>
</g>
<!-- Node14&#45;&gt;Node9 -->
<g id="edge22" class="edge">
<title>Node14&#45;&gt;Node9</title>
<path fill="none" stroke="#63b8ff" d="M750.62,-252.07C690.42,-239.48 606.38,-221.9 556.93,-211.56"/>
<polygon fill="#63b8ff" stroke="#63b8ff" points="749.94,-255.5 760.44,-254.13 751.37,-248.65 749.94,-255.5"/>
</g>
<!-- Node15 -->
<g id="node15" class="node">
<title>Node15</title>
<g id="a_node15"><a xlink:href="harvest__area_8c.html" target="_top" xlink:title=" ">
<polygon fill="white" stroke="#666666" points="884,-217 742,-217 742,-187 884,-187 884,-217"/>
<text text-anchor="start" x="750" y="-205" font-family="Helvetica,sans-Serif" font-size="10.00">src/FoodAuthority/harvest</text>
<text text-anchor="middle" x="813" y="-194" font-family="Helvetica,sans-Serif" font-size="10.00">_area.c</text>
</a>
</g>
</g>
<!-- Node14&#45;&gt;Node15 -->
<g id="edge23" class="edge">
<title>Node14&#45;&gt;Node15</title>
<path fill="none" stroke="#63b8ff" d="M818.6,-242.83C817.38,-234.17 816.05,-224.7 814.99,-217.16"/>
<polygon fill="#63b8ff" stroke="#63b8ff" points="815.14,-243.38 820,-252.8 822.08,-242.41 815.14,-243.38"/>
</g>
<!-- Node16&#45;&gt;Node4 -->
<g id="edge27" class="edge">
<title>Node16&#45;&gt;Node4</title>
<path fill="none" stroke="#63b8ff" d="M674.51,-319.07C687.98,-310.42 703.62,-298.08 713,-283 736.02,-245.99 703.98,-219.52 733,-187 766.97,-148.93 803.25,-184.18 842,-151 864.76,-131.51 876.44,-96.26 880.86,-79.85"/>
<polygon fill="#63b8ff" stroke="#63b8ff" points="672.37,-316.28 665.63,-324.46 676,-322.26 672.37,-316.28"/>
</g>
<!-- Node16&#45;&gt;Node10 -->
<g id="edge26" class="edge">
<title>Node16&#45;&gt;Node10</title>
<path fill="none" stroke="#63b8ff" d="M603.65,-321.51C555.43,-306.54 481.93,-275.12 451,-217 438.52,-193.55 452.46,-161.4 460.75,-145.97"/>
<polygon fill="#63b8ff" stroke="#63b8ff" points="602.95,-324.96 613.54,-324.46 604.95,-318.25 602.95,-324.96"/>
</g>
<!-- Node17 -->
<g id="node17" class="node">
<title>Node17</title>
<g id="a_node17"><a xlink:href="_i_b_m___e_i_s_2authenticate_8c.html" target="_top" xlink:title=" ">
<polygon fill="white" stroke="#666666" points="704,-277.5 558,-277.5 558,-258.5 704,-258.5 704,-277.5"/>
<text text-anchor="middle" x="631" y="-265.5" font-family="Helvetica,sans-Serif" font-size="10.00">src/IBM_EIS/authenticate.c</text>
</a>
</g>
</g>
<!-- Node16&#45;&gt;Node17 -->
<g id="edge28" class="edge">
<title>Node16&#45;&gt;Node17</title>
<path fill="none" stroke="#63b8ff" d="M643.78,-314.45C640.4,-302.43 636.15,-287.32 633.5,-277.91"/>
<polygon fill="#63b8ff" stroke="#63b8ff" points="640.5,-315.69 646.57,-324.37 647.23,-313.79 640.5,-315.69"/>
</g>
<!-- Node18&#45;&gt;Node4 -->
<g id="edge31" class="edge">
<title>Node18&#45;&gt;Node4</title>
<path fill="none" stroke="#63b8ff" d="M1571.08,-248.52C1576.79,-217.24 1582.88,-154.03 1548,-121 1503.08,-78.46 1069.56,-72.1 927.69,-71.16"/>
<polygon fill="#63b8ff" stroke="#63b8ff" points="1567.62,-248 1569.08,-258.49 1574.48,-249.38 1567.62,-248"/>
</g>
<!-- Node19 -->
<g id="node19" class="node">
<title>Node19</title>
<g id="a_node19"><a xlink:href="devices_8c.html" target="_top" xlink:title=" ">
<polygon fill="white" stroke="#666666" points="1715,-211.5 1595,-211.5 1595,-192.5 1715,-192.5 1715,-211.5"/>
<text text-anchor="middle" x="1655" y="-199.5" font-family="Helvetica,sans-Serif" font-size="10.00">src/Ubidots/devices.c</text>
</a>
</g>
</g>
<!-- Node18&#45;&gt;Node19 -->
<g id="edge32" class="edge">
<title>Node18&#45;&gt;Node19</title>
<path fill="none" stroke="#63b8ff" d="M1587.17,-252.33C1604.43,-239.78 1628.69,-222.13 1643.04,-211.7"/>
<polygon fill="#63b8ff" stroke="#63b8ff" points="1584.9,-249.66 1578.87,-258.37 1589.01,-255.32 1584.9,-249.66"/>
</g>
<!-- Node20&#45;&gt;Node7 -->
<g id="edge34" class="edge">
<title>Node20&#45;&gt;Node7</title>
<path fill="none" stroke="#63b8ff" d="M1133.93,-244.79C1147.07,-227.39 1159.42,-203.47 1145,-187 1124.78,-163.89 933.55,-147.81 832.66,-140.86"/>
<polygon fill="#63b8ff" stroke="#63b8ff" points="1131.07,-242.75 1127.53,-252.74 1136.53,-247.14 1131.07,-242.75"/>
</g>
<!-- Node20&#45;&gt;Node9 -->
<g id="edge41" class="edge">
<title>Node20&#45;&gt;Node9</title>
<path fill="none" stroke="#63b8ff" d="M1043.75,-259.48C923.74,-246.64 681.63,-220.73 572.09,-209"/>
<polygon fill="#63b8ff" stroke="#63b8ff" points="1043.61,-262.99 1053.92,-260.57 1044.35,-256.03 1043.61,-262.99"/>
</g>
<!-- Node20&#45;&gt;Node21 -->
<g id="edge35" class="edge">
<title>Node20&#45;&gt;Node21</title>
<path fill="none" stroke="#63b8ff" d="M1100.32,-243.96C1095,-235 1089.08,-225.03 1084.41,-217.16"/>
<polygon fill="#63b8ff" stroke="#63b8ff" points="1097.45,-245.98 1105.57,-252.8 1103.47,-242.41 1097.45,-245.98"/>
</g>
<!-- Node20&#45;&gt;Node23 -->
<g id="edge38" class="edge">
<title>Node20&#45;&gt;Node23</title>
<path fill="none" stroke="#63b8ff" d="M1184.21,-254.09C1248.11,-242.34 1341.42,-225.17 1401.94,-214.05"/>
<polygon fill="#63b8ff" stroke="#63b8ff" points="1183.42,-250.67 1174.22,-255.93 1184.69,-257.56 1183.42,-250.67"/>
</g>
<!-- Node25 -->
<g id="node25" class="node">
<title>Node25</title>
<g id="a_node25"><a xlink:href="location_8c.html" target="_top" xlink:title=" ">
<polygon fill="white" stroke="#666666" points="1340.5,-211.5 1191.5,-211.5 1191.5,-192.5 1340.5,-192.5 1340.5,-211.5"/>
<text text-anchor="middle" x="1266" y="-199.5" font-family="Helvetica,sans-Serif" font-size="10.00">src/WillyWeather/location.c</text>
</a>
</g>
</g>
<!-- Node20&#45;&gt;Node25 -->
<g id="edge42" class="edge">
<title>Node20&#45;&gt;Node25</title>
<path fill="none" stroke="#63b8ff" d="M1156.89,-248.94C1186.01,-236.68 1223.19,-221.02 1245.77,-211.52"/>
<polygon fill="#63b8ff" stroke="#63b8ff" points="1155.22,-245.85 1147.36,-252.95 1157.93,-252.3 1155.22,-245.85"/>
</g>
<!-- Node21&#45;&gt;Node4 -->
<g id="edge36" class="edge">
<title>Node21&#45;&gt;Node4</title>
<path fill="none" stroke="#63b8ff" d="M1059.79,-178.81C1046.03,-161.23 1024.91,-137.04 1002,-121 974.29,-101.59 937.86,-87.68 912.65,-79.54"/>
<polygon fill="#63b8ff" stroke="#63b8ff" points="1057.08,-181.02 1065.94,-186.84 1062.64,-176.77 1057.08,-181.02"/>
</g>
<!-- Node22 -->
<g id="node22" class="node">
<title>Node22</title>
<g id="a_node22"><a xlink:href="precipitation_8c.html" target="_top" xlink:title=" ">
<polygon fill="white" stroke="#666666" points="1226,-145.5 1054,-145.5 1054,-126.5 1226,-126.5 1226,-145.5"/>
<text text-anchor="middle" x="1140" y="-133.5" font-family="Helvetica,sans-Serif" font-size="10.00">src/WillyWeather/precipitation.c</text>
</a>
</g>
</g>
<!-- Node21&#45;&gt;Node22 -->
<g id="edge37" class="edge">
<title>Node21&#45;&gt;Node22</title>
<path fill="none" stroke="#63b8ff" d="M1097.4,-179.6C1108.9,-168.1 1122.48,-154.52 1131.16,-145.84"/>
<polygon fill="#63b8ff" stroke="#63b8ff" points="1094.8,-177.25 1090.2,-186.8 1099.75,-182.2 1094.8,-177.25"/>
</g>
<!-- Node23&#45;&gt;Node4 -->
<g id="edge39" class="edge">
<title>Node23&#45;&gt;Node4</title>
<path fill="none" stroke="#63b8ff" d="M1436.67,-180.55C1408.56,-158.05 1365.97,-124.56 1357,-121 1279.52,-90.22 1030.35,-76.92 927.77,-72.65"/>
<polygon fill="#63b8ff" stroke="#63b8ff" points="1434.53,-183.33 1444.52,-186.86 1438.92,-177.87 1434.53,-183.33"/>
</g>
<!-- Node24 -->
<g id="node24" class="node">
<title>Node24</title>
<g id="a_node24"><a xlink:href="tide_8c.html" target="_top" xlink:title=" ">
<polygon fill="white" stroke="#666666" points="1538.5,-145.5 1409.5,-145.5 1409.5,-126.5 1538.5,-126.5 1538.5,-145.5"/>
<text text-anchor="middle" x="1474" y="-133.5" font-family="Helvetica,sans-Serif" font-size="10.00">src/WillyWeather/tide.c</text>
</a>
</g>
</g>
<!-- Node23&#45;&gt;Node24 -->
<g id="edge40" class="edge">
<title>Node23&#45;&gt;Node24</title>
<path fill="none" stroke="#63b8ff" d="M1466.51,-176.94C1468.55,-166.06 1470.84,-153.86 1472.34,-145.84"/>
<polygon fill="#63b8ff" stroke="#63b8ff" points="1463.07,-176.32 1464.66,-186.8 1469.95,-177.61 1463.07,-176.32"/>
</g>
<!-- Node26&#45;&gt;Node2 -->
<g id="edge47" class="edge">
<title>Node26&#45;&gt;Node2</title>
<path fill="none" stroke="#63b8ff" d="M188.68,-321C225.22,-308.36 281.84,-288.78 314.15,-277.6"/>
<polygon fill="#63b8ff" stroke="#63b8ff" points="187.26,-317.79 178.95,-324.37 189.54,-324.41 187.26,-317.79"/>
</g>
<!-- Node26&#45;&gt;Node3 -->
<g id="edge46" class="edge">
<title>Node26&#45;&gt;Node3</title>
<path fill="none" stroke="#63b8ff" d="M110.68,-320.83C91.96,-313.19 71.89,-301.22 61,-283 35.77,-240.79 49.93,-178.71 58.27,-151.11"/>
<polygon fill="#63b8ff" stroke="#63b8ff" points="109.69,-324.2 120.29,-324.45 112.16,-317.65 109.69,-324.2"/>
</g>
<!-- Node26&#45;&gt;Node4 -->
<g id="edge48" class="edge">
<title>Node26&#45;&gt;Node4</title>
<path fill="none" stroke="#63b8ff" d="M157.41,-314.11C163.81,-283.67 180.33,-223.5 216,-187 265.77,-136.07 293.02,-138.67 362,-121 563.66,-69.35 623.67,-119.26 829,-85 837.22,-83.63 846.01,-81.6 854.06,-79.51"/>
<polygon fill="#63b8ff" stroke="#63b8ff" points="153.92,-313.72 155.43,-324.21 160.79,-315.06 153.92,-313.72"/>
</g>
<!-- Node27 -->
<g id="node27" class="node">
<title>Node27</title>
<g id="a_node27"><a xlink:href="ftp_8c.html" target="_top" xlink:title=" ">
<polygon fill="white" stroke="#666666" points="125.5,-277.5 70.5,-277.5 70.5,-258.5 125.5,-258.5 125.5,-277.5"/>
<text text-anchor="middle" x="98" y="-265.5" font-family="Helvetica,sans-Serif" font-size="10.00">src/ftp.c</text>
</a>
</g>
</g>
<!-- Node26&#45;&gt;Node27 -->
<g id="edge49" class="edge">
<title>Node26&#45;&gt;Node27</title>
<path fill="none" stroke="#63b8ff" d="M139.67,-316.62C128.89,-304.31 114.53,-287.89 105.79,-277.91"/>
<polygon fill="#63b8ff" stroke="#63b8ff" points="137.23,-319.15 146.45,-324.37 142.5,-314.54 137.23,-319.15"/>
</g>
<!-- Node28&#45;&gt;Node4 -->
<g id="edge67" class="edge">
<title>Node28&#45;&gt;Node4</title>
<path fill="none" stroke="#63b8ff" d="M1165.84,-394.18C1263.59,-394.38 1481.32,-389.69 1659,-349 1755.14,-326.98 1866,-367.63 1866,-269 1866,-269 1866,-269 1866,-201 1866,-105.03 1120.1,-77.61 927.79,-72.14"/>
<polygon fill="#63b8ff" stroke="#63b8ff" points="1165.65,-390.68 1155.64,-394.14 1165.62,-397.68 1165.65,-390.68"/>
</g>
<!-- Node28&#45;&gt;Node7 -->
<g id="edge52" class="edge">
<title>Node28&#45;&gt;Node7</title>
<path fill="none" stroke="#63b8ff" d="M1092.36,-378.81C1081,-370.63 1067.17,-359.93 1056,-349 990.01,-284.44 1002.02,-239.38 926,-187 898.29,-167.91 862.85,-155.76 832.85,-148.23"/>
<polygon fill="#63b8ff" stroke="#63b8ff" points="1090.65,-381.88 1100.84,-384.77 1094.68,-376.16 1090.65,-381.88"/>
</g>
<!-- Node28&#45;&gt;Node10 -->
<g id="edge54" class="edge">
<title>Node28&#45;&gt;Node10</title>
<path fill="none" stroke="#63b8ff" d="M1081.52,-380.96C1064.03,-373.29 1042.68,-362.37 1026,-349 989.66,-319.86 934,-209.11 893,-187 826.32,-151.04 629.1,-160.95 554,-151 541.88,-149.39 528.87,-147.45 516.66,-145.52"/>
<polygon fill="#63b8ff" stroke="#63b8ff" points="1080.21,-384.21 1090.78,-384.88 1082.94,-377.76 1080.21,-384.21"/>
</g>
<!-- Node28&#45;&gt;Node14 -->
<g id="edge51" class="edge">
<title>Node28&#45;&gt;Node14</title>
<path fill="none" stroke="#63b8ff" d="M1062.46,-391.53C1016.71,-387.84 949.34,-377.52 898,-349 868.69,-332.72 843.94,-301.31 831.21,-283.07"/>
<polygon fill="#63b8ff" stroke="#63b8ff" points="1062.23,-395.02 1072.46,-392.26 1062.74,-388.04 1062.23,-395.02"/>
</g>
<!-- Node28&#45;&gt;Node16 -->
<g id="edge53" class="edge">
<title>Node28&#45;&gt;Node16</title>
<path fill="none" stroke="#63b8ff" d="M1062.2,-386.98C977.77,-376.36 810.5,-355.32 716.74,-343.52"/>
<polygon fill="#63b8ff" stroke="#63b8ff" points="1061.97,-390.48 1072.33,-388.26 1062.84,-383.54 1061.97,-390.48"/>
</g>
<!-- Node28&#45;&gt;Node18 -->
<g id="edge58" class="edge">
<title>Node28&#45;&gt;Node18</title>
<path fill="none" stroke="#63b8ff" d="M1165.65,-390.16C1215.11,-385.52 1291.02,-374.57 1352,-349 1373.49,-339.99 1373.98,-329.05 1395,-319 1436.66,-299.08 1487.87,-285.44 1523.52,-277.51"/>
<polygon fill="#63b8ff" stroke="#63b8ff" points="1165.17,-386.69 1155.51,-391.06 1165.78,-393.66 1165.17,-386.69"/>
</g>
<!-- Node28&#45;&gt;Node20 -->
<g id="edge64" class="edge">
<title>Node28&#45;&gt;Node20</title>
<path fill="none" stroke="#63b8ff" d="M1114,-374.91C1114,-349.83 1114,-305.72 1114,-283.16"/>
<polygon fill="#63b8ff" stroke="#63b8ff" points="1110.5,-374.94 1114,-384.94 1117.5,-374.94 1110.5,-374.94"/>
</g>
<!-- Node28&#45;&gt;Node21 -->
<g id="edge65" class="edge">
<title>Node28&#45;&gt;Node21</title>
<path fill="none" stroke="#63b8ff" d="M1099.64,-377.21C1082.74,-356.83 1055.63,-320.1 1045,-283 1041.33,-270.18 1041.35,-265.82 1045,-253 1048.75,-239.84 1057.07,-226.76 1064.14,-217.28"/>
<polygon fill="#63b8ff" stroke="#63b8ff" points="1097.04,-379.54 1106.18,-384.89 1102.37,-375.01 1097.04,-379.54"/>
</g>
<!-- Node28&#45;&gt;Node23 -->
<g id="edge66" class="edge">
<title>Node28&#45;&gt;Node23</title>
<path fill="none" stroke="#63b8ff" d="M1156.84,-382.34C1188.56,-373.83 1232.73,-361.5 1271,-349 1271.16,-348.95 1448.9,-283.13 1449,-283 1464.38,-264.31 1464.96,-234.62 1463.69,-217.15"/>
<polygon fill="#63b8ff" stroke="#63b8ff" points="1155.77,-379 1147,-384.96 1157.57,-385.77 1155.77,-379"/>
</g>
<!-- Node29 -->
<g id="node29" class="node">
<title>Node29</title>
<g id="a_node29"><a xlink:href="_ubidots_2authenticate_8h.html" target="_top" xlink:title=" ">
<polygon fill="white" stroke="#666666" points="1650,-343.5 1484,-343.5 1484,-324.5 1650,-324.5 1650,-343.5"/>
<text text-anchor="middle" x="1567" y="-331.5" font-family="Helvetica,sans-Serif" font-size="10.00">include/Ubidots/authenticate.h</text>
</a>
</g>
</g>
<!-- Node28&#45;&gt;Node29 -->
<g id="edge55" class="edge">
<title>Node28&#45;&gt;Node29</title>
<path fill="none" stroke="#63b8ff" d="M1166.08,-387.55C1236.31,-379.42 1365.22,-364.12 1475,-349 1487.16,-347.33 1500.21,-345.41 1512.55,-343.55"/>
<polygon fill="#63b8ff" stroke="#63b8ff" points="1165.27,-384.12 1155.74,-388.74 1166.08,-391.07 1165.27,-384.12"/>
</g>
<!-- Node31 -->
<g id="node31" class="node">
<title>Node31</title>
<g id="a_node31"><a xlink:href="_willy_weather_2authenticate_8h.html" target="_top" xlink:title=" ">
<polygon fill="white" stroke="#666666" points="1262,-349 1142,-349 1142,-319 1262,-319 1262,-349"/>
<text text-anchor="start" x="1150" y="-337" font-family="Helvetica,sans-Serif" font-size="10.00">include/WillyWeather</text>
<text text-anchor="middle" x="1202" y="-326" font-family="Helvetica,sans-Serif" font-size="10.00">/authenticate.h</text>
</a>
</g>
</g>
<!-- Node28&#45;&gt;Node31 -->
<g id="edge59" class="edge">
<title>Node28&#45;&gt;Node31</title>
<path fill="none" stroke="#63b8ff" d="M1135.37,-379.29C1149.16,-370.13 1167.01,-358.26 1180.77,-349.11"/>
<polygon fill="#63b8ff" stroke="#63b8ff" points="1133.37,-376.42 1126.98,-384.87 1137.25,-382.25 1133.37,-376.42"/>
</g>
<!-- Node33 -->
<g id="node33" class="node">
<title>Node33</title>
<g id="a_node33"><a xlink:href="http_8c.html" target="_top" xlink:title=" ">
<polygon fill="white" stroke="#666666" points="1466,-343.5 1404,-343.5 1404,-324.5 1466,-324.5 1466,-343.5"/>
<text text-anchor="middle" x="1435" y="-331.5" font-family="Helvetica,sans-Serif" font-size="10.00">src/http.c</text>
</a>
</g>
</g>
<!-- Node28&#45;&gt;Node33 -->
<g id="edge68" class="edge">
<title>Node28&#45;&gt;Node33</title>
<path fill="none" stroke="#63b8ff" d="M1165.49,-387.42C1221.25,-380.32 1312.6,-367.18 1390,-349 1396.37,-347.5 1403.16,-345.57 1409.47,-343.63"/>
<polygon fill="#63b8ff" stroke="#63b8ff" points="1164.99,-383.95 1155.51,-388.67 1165.87,-390.9 1164.99,-383.95"/>
</g>
<!-- Node29&#45;&gt;Node18 -->
<g id="edge56" class="edge">
<title>Node29&#45;&gt;Node18</title>
<path fill="none" stroke="#63b8ff" d="M1567,-314.08C1567,-302.13 1567,-287.22 1567,-277.91"/>
<polygon fill="#63b8ff" stroke="#63b8ff" points="1563.5,-314.37 1567,-324.37 1570.5,-314.37 1563.5,-314.37"/>
</g>
<!-- Node30 -->
<g id="node30" class="node">
<title>Node30</title>
<g id="a_node30"><a xlink:href="_ubidots_2authenticate_8c.html" target="_top" xlink:title=" ">
<polygon fill="white" stroke="#666666" points="1800,-277.5 1656,-277.5 1656,-258.5 1800,-258.5 1800,-277.5"/>
<text text-anchor="middle" x="1728" y="-265.5" font-family="Helvetica,sans-Serif" font-size="10.00">src/Ubidots/authenticate.c</text>
</a>
</g>
</g>
<!-- Node29&#45;&gt;Node30 -->
<g id="edge57" class="edge">
<title>Node29&#45;&gt;Node30</title>
<path fill="none" stroke="#63b8ff" d="M1598.42,-320.51C1630.24,-307.86 1678.61,-288.63 1706.37,-277.6"/>
<polygon fill="#63b8ff" stroke="#63b8ff" points="1596.71,-317.42 1588.71,-324.37 1599.3,-323.93 1596.71,-317.42"/>
</g>
<!-- Node31&#45;&gt;Node4 -->
<g id="edge62" class="edge">
<title>Node31&#45;&gt;Node4</title>
<path fill="none" stroke="#63b8ff" d="M1203.28,-308.63C1205.49,-290.93 1211.25,-267.62 1226,-253 1266.76,-212.6 1315.54,-262.89 1350,-217 1358.01,-206.34 1356.68,-198.54 1350,-187 1320.47,-136 1290.73,-140.16 1235,-121 1128.76,-84.48 995.67,-74.62 927.6,-71.96"/>
<polygon fill="#63b8ff" stroke="#63b8ff" points="1199.78,-308.51 1202.31,-318.79 1206.74,-309.17 1199.78,-308.51"/>
</g>
<!-- Node31&#45;&gt;Node20 -->
<g id="edge60" class="edge">
<title>Node31&#45;&gt;Node20</title>
<path fill="none" stroke="#63b8ff" d="M1174.16,-312.75C1160.93,-303.13 1145.43,-291.86 1133.48,-283.16"/>
<polygon fill="#63b8ff" stroke="#63b8ff" points="1172.32,-315.75 1182.47,-318.8 1176.44,-310.08 1172.32,-315.75"/>
</g>
<!-- Node31&#45;&gt;Node23 -->
<g id="edge61" class="edge">
<title>Node31&#45;&gt;Node23</title>
<path fill="none" stroke="#63b8ff" d="M1212.96,-309.43C1222.59,-291.31 1238.29,-267.07 1259,-253 1270.94,-244.89 1346.35,-227.57 1401.79,-215.6"/>
<polygon fill="#63b8ff" stroke="#63b8ff" points="1209.63,-308.26 1208.24,-318.77 1215.88,-311.42 1209.63,-308.26"/>
</g>
<!-- Node32 -->
<g id="node32" class="node">
<title>Node32</title>
<g id="a_node32"><a xlink:href="_willy_weather_2authenticate_8c.html" target="_top" xlink:title=" ">
<polygon fill="white" stroke="#666666" points="1440,-277.5 1268,-277.5 1268,-258.5 1440,-258.5 1440,-277.5"/>
<text text-anchor="middle" x="1354" y="-265.5" font-family="Helvetica,sans-Serif" font-size="10.00">src/WillyWeather/authenticate.c</text>
</a>
</g>
</g>
<!-- Node31&#45;&gt;Node32 -->
<g id="edge63" class="edge">
<title>Node31&#45;&gt;Node32</title>
<path fill="none" stroke="#63b8ff" d="M1244.89,-314.94C1274.01,-302.68 1311.19,-287.02 1333.77,-277.52"/>
<polygon fill="#63b8ff" stroke="#63b8ff" points="1243.22,-311.85 1235.36,-318.95 1245.93,-318.3 1243.22,-311.85"/>
</g>
</g>
</svg>
