<?xml version="1.0" encoding="UTF-8" standalone="no"?>
<!DOCTYPE svg PUBLIC "-//W3C//DTD SVG 1.1//EN"
 "http://www.w3.org/Graphics/SVG/1.1/DTD/svg11.dtd">
<!-- Generated by graphviz version 2.43.0 (0)
 -->
<!-- Title: src/utils.c Pages: 1 -->
<svg width="872pt" height="192pt"
 viewBox="0.00 0.00 871.50 192.00" xmlns="http://www.w3.org/2000/svg" xmlns:xlink="http://www.w3.org/1999/xlink">
<g id="graph0" class="graph" transform="scale(1 1) rotate(0) translate(4 188)">
<title>src/utils.c</title>
<!-- Node1 -->
<g id="node1" class="node">
<title>Node1</title>
<g id="a_node1"><a xlink:title=" ">
<polygon fill="#999999" stroke="#666666" points="461,-184 398,-184 398,-165 461,-165 461,-184"/>
<text text-anchor="middle" x="429.5" y="-172" font-family="Helvetica,sans-Serif" font-size="10.00">src/utils.c</text>
</a>
</g>
</g>
<!-- Node2 -->
<g id="node2" class="node">
<title>Node2</title>
<g id="a_node2"><a xlink:href="utils_8h.html" target="_top" xlink:title=" ">
<polygon fill="white" stroke="#666666" points="453,-129 406,-129 406,-110 453,-110 453,-129"/>
<text text-anchor="middle" x="429.5" y="-117" font-family="Helvetica,sans-Serif" font-size="10.00">utils.h</text>
</a>
</g>
</g>
<!-- Node1&#45;&gt;Node2 -->
<g id="edge1" class="edge">
<title>Node1&#45;&gt;Node2</title>
<path fill="none" stroke="#63b8ff" d="M429.5,-164.75C429.5,-157.8 429.5,-147.85 429.5,-139.13"/>
<polygon fill="#63b8ff" stroke="#63b8ff" points="433,-139.09 429.5,-129.09 426,-139.09 433,-139.09"/>
</g>
<!-- Node3 -->
<g id="node3" class="node">
<title>Node3</title>
<g id="a_node3"><a xlink:title=" ">
<polygon fill="#e0e0e0" stroke="#999999" points="53,-74 0,-74 0,-55 53,-55 53,-74"/>
<text text-anchor="middle" x="26.5" y="-62" font-family="Helvetica,sans-Serif" font-size="10.00">stdlib.h</text>
</a>
</g>
</g>
<!-- Node2&#45;&gt;Node3 -->
<g id="edge2" class="edge">
<title>Node2&#45;&gt;Node3</title>
<path fill="none" stroke="#63b8ff" d="M405.68,-116.6C348.33,-111.82 197.95,-98.05 63.26,-74.14"/>
<polygon fill="#63b8ff" stroke="#63b8ff" points="63.65,-70.65 53.18,-72.32 62.41,-77.54 63.65,-70.65"/>
</g>
<!-- Node4 -->
<g id="node4" class="node">
<title>Node4</title>
<g id="a_node4"><a xlink:title=" ">
<polygon fill="#e0e0e0" stroke="#999999" points="124,-74 71,-74 71,-55 124,-55 124,-74"/>
<text text-anchor="middle" x="97.5" y="-62" font-family="Helvetica,sans-Serif" font-size="10.00">string.h</text>
</a>
</g>
</g>
<!-- Node2&#45;&gt;Node4 -->
<g id="edge3" class="edge">
<title>Node2&#45;&gt;Node4</title>
<path fill="none" stroke="#63b8ff" d="M405.89,-115.69C356.98,-109.72 240.87,-94.74 134.16,-74.19"/>
<polygon fill="#63b8ff" stroke="#63b8ff" points="134.68,-70.72 124.2,-72.24 133.34,-77.59 134.68,-70.72"/>
</g>
<!-- Node5 -->
<g id="node5" class="node">
<title>Node5</title>
<g id="a_node5"><a xlink:title=" ">
<polygon fill="#e0e0e0" stroke="#999999" points="207,-74 142,-74 142,-55 207,-55 207,-74"/>
<text text-anchor="middle" x="174.5" y="-62" font-family="Helvetica,sans-Serif" font-size="10.00">curl/curl.h</text>
</a>
</g>
</g>
<!-- Node2&#45;&gt;Node5 -->
<g id="edge4" class="edge">
<title>Node2&#45;&gt;Node5</title>
<path fill="none" stroke="#63b8ff" d="M405.97,-113.61C362.99,-104.68 271.27,-85.61 217.07,-74.35"/>
<polygon fill="#63b8ff" stroke="#63b8ff" points="217.59,-70.88 207.09,-72.27 216.17,-77.73 217.59,-70.88"/>
</g>
<!-- Node6 -->
<g id="node6" class="node">
<title>Node6</title>
<g id="a_node6"><a xlink:title=" ">
<polygon fill="#e0e0e0" stroke="#999999" points="278,-74 225,-74 225,-55 278,-55 278,-74"/>
<text text-anchor="middle" x="251.5" y="-62" font-family="Helvetica,sans-Serif" font-size="10.00">stdint.h</text>
</a>
</g>
</g>
<!-- Node2&#45;&gt;Node6 -->
<g id="edge5" class="edge">
<title>Node2&#45;&gt;Node6</title>
<path fill="none" stroke="#63b8ff" d="M405.86,-111.46C375.74,-102.49 323.34,-86.89 288.05,-76.38"/>
<polygon fill="#63b8ff" stroke="#63b8ff" points="288.72,-72.93 278.14,-73.43 286.73,-79.64 288.72,-72.93"/>
</g>
<!-- Node7 -->
<g id="node7" class="node">
<title>Node7</title>
<g id="a_node7"><a xlink:title=" ">
<polygon fill="#e0e0e0" stroke="#999999" points="379,-74 296,-74 296,-55 379,-55 379,-74"/>
<text text-anchor="middle" x="337.5" y="-62" font-family="Helvetica,sans-Serif" font-size="10.00">cjson/cJSON.h</text>
</a>
</g>
</g>
<!-- Node2&#45;&gt;Node7 -->
<g id="edge6" class="edge">
<title>Node2&#45;&gt;Node7</title>
<path fill="none" stroke="#63b8ff" d="M414.72,-109.98C400.32,-101.69 378.19,-88.94 361.31,-79.22"/>
<polygon fill="#63b8ff" stroke="#63b8ff" points="362.96,-76.13 352.55,-74.17 359.47,-82.19 362.96,-76.13"/>
</g>
<!-- Node8 -->
<g id="node8" class="node">
<title>Node8</title>
<g id="a_node8"><a xlink:title=" ">
<polygon fill="#e0e0e0" stroke="#999999" points="461.5,-74 397.5,-74 397.5,-55 461.5,-55 461.5,-74"/>
<text text-anchor="middle" x="429.5" y="-62" font-family="Helvetica,sans-Serif" font-size="10.00">sys/stat.h</text>
</a>
</g>
</g>
<!-- Node2&#45;&gt;Node8 -->
<g id="edge7" class="edge">
<title>Node2&#45;&gt;Node8</title>
<path fill="none" stroke="#63b8ff" d="M429.5,-109.75C429.5,-102.8 429.5,-92.85 429.5,-84.13"/>
<polygon fill="#63b8ff" stroke="#63b8ff" points="433,-84.09 429.5,-74.09 426,-84.09 433,-84.09"/>
</g>
<!-- Node9 -->
<g id="node9" class="node">
<title>Node9</title>
<g id="a_node9"><a xlink:title=" ">
<polygon fill="#e0e0e0" stroke="#999999" points="551.5,-74 479.5,-74 479.5,-55 551.5,-55 551.5,-74"/>
<text text-anchor="middle" x="515.5" y="-62" font-family="Helvetica,sans-Serif" font-size="10.00">sys/types.h</text>
</a>
</g>
</g>
<!-- Node2&#45;&gt;Node9 -->
<g id="edge8" class="edge">
<title>Node2&#45;&gt;Node9</title>
<path fill="none" stroke="#63b8ff" d="M443.32,-109.98C456.65,-101.77 477.08,-89.18 492.81,-79.49"/>
<polygon fill="#63b8ff" stroke="#63b8ff" points="494.75,-82.4 501.43,-74.17 491.08,-76.44 494.75,-82.4"/>
</g>
<!-- Node10 -->
<g id="node10" class="node">
<title>Node10</title>
<g id="a_node10"><a xlink:title=" ">
<polygon fill="#e0e0e0" stroke="#999999" points="621,-74 570,-74 570,-55 621,-55 621,-74"/>
<text text-anchor="middle" x="595.5" y="-62" font-family="Helvetica,sans-Serif" font-size="10.00">errno.h</text>
</a>
</g>
</g>
<!-- Node2&#45;&gt;Node10 -->
<g id="edge9" class="edge">
<title>Node2&#45;&gt;Node10</title>
<path fill="none" stroke="#63b8ff" d="M453.28,-110.91C481.19,-102 527.74,-87.13 559.94,-76.85"/>
<polygon fill="#63b8ff" stroke="#63b8ff" points="561.39,-80.06 569.85,-73.69 559.26,-73.4 561.39,-80.06"/>
</g>
<!-- Node11 -->
<g id="node11" class="node">
<title>Node11</title>
<g id="a_node11"><a xlink:title=" ">
<polygon fill="#e0e0e0" stroke="#999999" points="690,-74 639,-74 639,-55 690,-55 690,-74"/>
<text text-anchor="middle" x="664.5" y="-62" font-family="Helvetica,sans-Serif" font-size="10.00">math.h</text>
</a>
</g>
</g>
<!-- Node2&#45;&gt;Node11 -->
<g id="edge10" class="edge">
<title>Node2&#45;&gt;Node11</title>
<path fill="none" stroke="#63b8ff" d="M453.24,-113.37C489.05,-105.61 559.24,-90.25 629.06,-74.07"/>
<polygon fill="#63b8ff" stroke="#63b8ff" points="629.95,-77.45 638.9,-71.78 628.37,-70.63 629.95,-77.45"/>
</g>
<!-- Node12 -->
<g id="node12" class="node">
<title>Node12</title>
<g id="a_node12"><a xlink:href="log_8h.html" target="_top" xlink:title=" ">
<polygon fill="white" stroke="#666666" points="749,-74 708,-74 708,-55 749,-55 749,-74"/>
<text text-anchor="middle" x="728.5" y="-62" font-family="Helvetica,sans-Serif" font-size="10.00">log.h</text>
</a>
</g>
</g>
<!-- Node2&#45;&gt;Node12 -->
<g id="edge11" class="edge">
<title>Node2&#45;&gt;Node12</title>
<path fill="none" stroke="#63b8ff" d="M453.16,-115.59C498.79,-109.76 602.24,-95.53 698.14,-74.08"/>
<polygon fill="#63b8ff" stroke="#63b8ff" points="699.01,-77.47 707.99,-71.85 697.46,-70.65 699.01,-77.47"/>
</g>
<!-- Node17 -->
<g id="node17" class="node">
<title>Node17</title>
<g id="a_node17"><a xlink:title=" ">
<polygon fill="#e0e0e0" stroke="#999999" points="830,-74 767,-74 767,-55 830,-55 830,-74"/>
<text text-anchor="middle" x="798.5" y="-62" font-family="Helvetica,sans-Serif" font-size="10.00">libpq&#45;fe.h</text>
</a>
</g>
</g>
<!-- Node2&#45;&gt;Node17 -->
<g id="edge16" class="edge">
<title>Node2&#45;&gt;Node17</title>
<path fill="none" stroke="#63b8ff" d="M453.13,-115.92C505.84,-110.03 637.19,-94.64 756.62,-74.22"/>
<polygon fill="#63b8ff" stroke="#63b8ff" points="757.41,-77.64 766.66,-72.49 756.22,-70.74 757.41,-77.64"/>
</g>
<!-- Node13 -->
<g id="node13" class="node">
<title>Node13</title>
<g id="a_node13"><a xlink:title=" ">
<polygon fill="#e0e0e0" stroke="#999999" points="643.5,-19 593.5,-19 593.5,0 643.5,0 643.5,-19"/>
<text text-anchor="middle" x="618.5" y="-7" font-family="Helvetica,sans-Serif" font-size="10.00">stdio.h</text>
</a>
</g>
</g>
<!-- Node12&#45;&gt;Node13 -->
<g id="edge12" class="edge">
<title>Node12&#45;&gt;Node13</title>
<path fill="none" stroke="#63b8ff" d="M710.83,-54.98C693.21,-46.5 665.92,-33.35 645.57,-23.54"/>
<polygon fill="#63b8ff" stroke="#63b8ff" points="647.02,-20.36 636.49,-19.17 643.98,-26.66 647.02,-20.36"/>
</g>
<!-- Node14 -->
<g id="node14" class="node">
<title>Node14</title>
<g id="a_node14"><a xlink:title=" ">
<polygon fill="#e0e0e0" stroke="#999999" points="717.5,-19 661.5,-19 661.5,0 717.5,0 717.5,-19"/>
<text text-anchor="middle" x="689.5" y="-7" font-family="Helvetica,sans-Serif" font-size="10.00">stdarg.h</text>
</a>
</g>
</g>
<!-- Node12&#45;&gt;Node14 -->
<g id="edge13" class="edge">
<title>Node12&#45;&gt;Node14</title>
<path fill="none" stroke="#63b8ff" d="M722.06,-54.75C716.61,-47.34 708.64,-36.5 701.94,-27.41"/>
<polygon fill="#63b8ff" stroke="#63b8ff" points="704.57,-25.07 695.82,-19.09 698.93,-29.22 704.57,-25.07"/>
</g>
<!-- Node15 -->
<g id="node15" class="node">
<title>Node15</title>
<g id="a_node15"><a xlink:title=" ">
<polygon fill="#e0e0e0" stroke="#999999" points="797.5,-19 735.5,-19 735.5,0 797.5,0 797.5,-19"/>
<text text-anchor="middle" x="766.5" y="-7" font-family="Helvetica,sans-Serif" font-size="10.00">stdbool.h</text>
</a>
</g>
</g>
<!-- Node12&#45;&gt;Node15 -->
<g id="edge14" class="edge">
<title>Node12&#45;&gt;Node15</title>
<path fill="none" stroke="#63b8ff" d="M734.77,-54.75C740.09,-47.34 747.86,-36.5 754.38,-27.41"/>
<polygon fill="#63b8ff" stroke="#63b8ff" points="757.36,-29.26 760.34,-19.09 751.67,-25.18 757.36,-29.26"/>
</g>
<!-- Node16 -->
<g id="node16" class="node">
<title>Node16</title>
<g id="a_node16"><a xlink:title=" ">
<polygon fill="#e0e0e0" stroke="#999999" points="863.5,-19 815.5,-19 815.5,0 863.5,0 863.5,-19"/>
<text text-anchor="middle" x="839.5" y="-7" font-family="Helvetica,sans-Serif" font-size="10.00">time.h</text>
</a>
</g>
</g>
<!-- Node12&#45;&gt;Node16 -->
<g id="edge15" class="edge">
<title>Node12&#45;&gt;Node16</title>
<path fill="none" stroke="#63b8ff" d="M746.33,-54.98C764.11,-46.5 791.65,-33.35 812.18,-23.54"/>
<polygon fill="#63b8ff" stroke="#63b8ff" points="813.83,-26.64 821.34,-19.17 810.81,-20.32 813.83,-26.64"/>
</g>
</g>
</svg>
