<?xml version="1.0" encoding="UTF-8" standalone="no"?>
<!DOCTYPE svg PUBLIC "-//W3C//DTD SVG 1.1//EN"
 "http://www.w3.org/Graphics/SVG/1.1/DTD/svg11.dtd">
<!-- Generated by graphviz version 2.49.3 (20211027.1534)
 -->
<!-- Title: include/utils.h Pages: 1 -->
<svg width="687pt" height="140pt"
 viewBox="0.00 0.00 687.00 140.00" xmlns="http://www.w3.org/2000/svg" xmlns:xlink="http://www.w3.org/1999/xlink">
<g id="graph0" class="graph" transform="scale(1 1) rotate(0) translate(4 136)">
<title>include/utils.h</title>
<!-- Node1 -->
<g id="node1" class="node">
<title>Node1</title>
<g id="a_node1"><a xlink:title=" ">
<polygon fill="#bfbfbf" stroke="black" points="256.5,-112.5 256.5,-131.5 332.5,-131.5 332.5,-112.5 256.5,-112.5"/>
<text text-anchor="middle" x="294.5" y="-119.5" font-family="Helvetica,sans-Serif" font-size="10.00">include/utils.h</text>
</a>
</g>
</g>
<!-- Node2 -->
<g id="node2" class="node">
<title>Node2</title>
<g id="a_node2"><a xlink:title=" ">
<polygon fill="none" stroke="#bfbfbf" points="0,-56.5 0,-75.5 47,-75.5 47,-56.5 0,-56.5"/>
<text text-anchor="middle" x="23.5" y="-63.5" font-family="Helvetica,sans-Serif" font-size="10.00">stdlib.h</text>
</a>
</g>
</g>
<!-- Node1&#45;&gt;Node2 -->
<g id="edge1" class="edge">
<title>Node1&#45;&gt;Node2</title>
<path fill="none" stroke="midnightblue" d="M256.38,-114.75C211.16,-107.13 133.29,-93.34 57.01,-75.96"/>
<polygon fill="midnightblue" stroke="midnightblue" points="57.77,-72.55 47.24,-73.72 56.2,-79.37 57.77,-72.55"/>
</g>
<!-- Node3 -->
<g id="node3" class="node">
<title>Node3</title>
<g id="a_node3"><a xlink:title=" ">
<polygon fill="none" stroke="#bfbfbf" points="65.5,-56.5 65.5,-75.5 113.5,-75.5 113.5,-56.5 65.5,-56.5"/>
<text text-anchor="middle" x="89.5" y="-63.5" font-family="Helvetica,sans-Serif" font-size="10.00">string.h</text>
</a>
</g>
</g>
<!-- Node1&#45;&gt;Node3 -->
<g id="edge2" class="edge">
<title>Node1&#45;&gt;Node3</title>
<path fill="none" stroke="midnightblue" d="M261.5,-112.47C228.82,-104.01 177.09,-90.54 123.34,-76.21"/>
<polygon fill="midnightblue" stroke="midnightblue" points="124.21,-72.81 113.64,-73.62 122.4,-79.58 124.21,-72.81"/>
</g>
<!-- Node4 -->
<g id="node4" class="node">
<title>Node4</title>
<g id="a_node4"><a xlink:title=" ">
<polygon fill="none" stroke="#bfbfbf" points="132,-56.5 132,-75.5 191,-75.5 191,-56.5 132,-56.5"/>
<text text-anchor="middle" x="161.5" y="-63.5" font-family="Helvetica,sans-Serif" font-size="10.00">curl/curl.h</text>
</a>
</g>
</g>
<!-- Node1&#45;&gt;Node4 -->
<g id="edge3" class="edge">
<title>Node1&#45;&gt;Node4</title>
<path fill="none" stroke="midnightblue" d="M273.43,-112.44C251.44,-103.52 216.77,-89.44 191.84,-79.32"/>
<polygon fill="midnightblue" stroke="midnightblue" points="193.06,-76.04 182.48,-75.52 190.42,-82.52 193.06,-76.04"/>
</g>
<!-- Node5 -->
<g id="node5" class="node">
<title>Node5</title>
<g id="a_node5"><a xlink:title=" ">
<polygon fill="none" stroke="#bfbfbf" points="209,-56.5 209,-75.5 292,-75.5 292,-56.5 209,-56.5"/>
<text text-anchor="middle" x="250.5" y="-63.5" font-family="Helvetica,sans-Serif" font-size="10.00">cjson/cJSON.h</text>
</a>
</g>
</g>
<!-- Node1&#45;&gt;Node5 -->
<g id="edge4" class="edge">
<title>Node1&#45;&gt;Node5</title>
<path fill="none" stroke="midnightblue" d="M287.23,-112.08C280.96,-104.38 271.71,-93.03 264.07,-83.65"/>
<polygon fill="midnightblue" stroke="midnightblue" points="266.66,-81.29 257.63,-75.75 261.23,-85.71 266.66,-81.29"/>
</g>
<!-- Node6 -->
<g id="node6" class="node">
<title>Node6</title>
<g id="a_node6"><a xlink:title=" ">
<polygon fill="none" stroke="#bfbfbf" points="310,-56.5 310,-75.5 369,-75.5 369,-56.5 310,-56.5"/>
<text text-anchor="middle" x="339.5" y="-63.5" font-family="Helvetica,sans-Serif" font-size="10.00">sys/stat.h</text>
</a>
</g>
</g>
<!-- Node1&#45;&gt;Node6 -->
<g id="edge5" class="edge">
<title>Node1&#45;&gt;Node6</title>
<path fill="none" stroke="midnightblue" d="M301.93,-112.08C308.35,-104.38 317.81,-93.03 325.62,-83.65"/>
<polygon fill="midnightblue" stroke="midnightblue" points="328.49,-85.67 332.21,-75.75 323.12,-81.19 328.49,-85.67"/>
</g>
<!-- Node7 -->
<g id="node7" class="node">
<title>Node7</title>
<g id="a_node7"><a xlink:title=" ">
<polygon fill="none" stroke="#bfbfbf" points="387,-56.5 387,-75.5 452,-75.5 452,-56.5 387,-56.5"/>
<text text-anchor="middle" x="419.5" y="-63.5" font-family="Helvetica,sans-Serif" font-size="10.00">sys/types.h</text>
</a>
</g>
</g>
<!-- Node1&#45;&gt;Node7 -->
<g id="edge6" class="edge">
<title>Node1&#45;&gt;Node7</title>
<path fill="none" stroke="midnightblue" d="M314.31,-112.44C334.79,-103.6 366.98,-89.69 390.36,-79.59"/>
<polygon fill="midnightblue" stroke="midnightblue" points="391.99,-82.7 399.79,-75.52 389.22,-76.27 391.99,-82.7"/>
</g>
<!-- Node8 -->
<g id="node8" class="node">
<title>Node8</title>
<g id="a_node8"><a xlink:title=" ">
<polygon fill="none" stroke="#bfbfbf" points="470.5,-56.5 470.5,-75.5 516.5,-75.5 516.5,-56.5 470.5,-56.5"/>
<text text-anchor="middle" x="493.5" y="-63.5" font-family="Helvetica,sans-Serif" font-size="10.00">errno.h</text>
</a>
</g>
</g>
<!-- Node1&#45;&gt;Node8 -->
<g id="edge7" class="edge">
<title>Node1&#45;&gt;Node8</title>
<path fill="none" stroke="midnightblue" d="M326.02,-112.47C359.41,-103.43 413.68,-88.73 460.5,-76 460.6,-75.97 460.7,-75.95 460.8,-75.92"/>
<polygon fill="midnightblue" stroke="midnightblue" points="461.69,-79.3 470.42,-73.3 459.85,-72.55 461.69,-79.3"/>
</g>
<!-- Node9 -->
<g id="node9" class="node">
<title>Node9</title>
<g id="a_node9"><a xlink:href="log_8h.html" target="_top" xlink:title=" ">
<polygon fill="none" stroke="black" points="535,-56.5 535,-75.5 572,-75.5 572,-56.5 535,-56.5"/>
<text text-anchor="middle" x="553.5" y="-63.5" font-family="Helvetica,sans-Serif" font-size="10.00">log.h</text>
</a>
</g>
</g>
<!-- Node1&#45;&gt;Node9 -->
<g id="edge8" class="edge">
<title>Node1&#45;&gt;Node9</title>
<path fill="none" stroke="midnightblue" d="M332.82,-114.97C376.93,-107.71 451.66,-94.45 525.04,-75.85"/>
<polygon fill="midnightblue" stroke="midnightblue" points="526.1,-79.19 534.91,-73.31 524.36,-72.41 526.1,-79.19"/>
</g>
<!-- Node10 -->
<g id="node10" class="node">
<title>Node10</title>
<g id="a_node10"><a xlink:title=" ">
<polygon fill="none" stroke="#bfbfbf" points="429,-0.5 429,-19.5 474,-19.5 474,-0.5 429,-0.5"/>
<text text-anchor="middle" x="451.5" y="-7.5" font-family="Helvetica,sans-Serif" font-size="10.00">stdio.h</text>
</a>
</g>
</g>
<!-- Node9&#45;&gt;Node10 -->
<g id="edge9" class="edge">
<title>Node9&#45;&gt;Node10</title>
<path fill="none" stroke="midnightblue" d="M537.11,-56.32C520.83,-47.7 495.63,-34.36 476.78,-24.39"/>
<polygon fill="midnightblue" stroke="midnightblue" points="478.32,-21.24 467.85,-19.65 475.05,-27.43 478.32,-21.24"/>
</g>
<!-- Node11 -->
<g id="node11" class="node">
<title>Node11</title>
<g id="a_node11"><a xlink:title=" ">
<polygon fill="none" stroke="#bfbfbf" points="492,-0.5 492,-19.5 543,-19.5 543,-0.5 492,-0.5"/>
<text text-anchor="middle" x="517.5" y="-7.5" font-family="Helvetica,sans-Serif" font-size="10.00">stdarg.h</text>
</a>
</g>
</g>
<!-- Node9&#45;&gt;Node11 -->
<g id="edge10" class="edge">
<title>Node9&#45;&gt;Node11</title>
<path fill="none" stroke="midnightblue" d="M547.56,-56.08C542.52,-48.53 535.16,-37.49 528.99,-28.23"/>
<polygon fill="midnightblue" stroke="midnightblue" points="531.79,-26.13 523.33,-19.75 525.97,-30.01 531.79,-26.13"/>
</g>
<!-- Node12 -->
<g id="node12" class="node">
<title>Node12</title>
<g id="a_node12"><a xlink:title=" ">
<polygon fill="none" stroke="#bfbfbf" points="561.5,-0.5 561.5,-19.5 617.5,-19.5 617.5,-0.5 561.5,-0.5"/>
<text text-anchor="middle" x="589.5" y="-7.5" font-family="Helvetica,sans-Serif" font-size="10.00">stdbool.h</text>
</a>
</g>
</g>
<!-- Node9&#45;&gt;Node12 -->
<g id="edge11" class="edge">
<title>Node9&#45;&gt;Node12</title>
<path fill="none" stroke="midnightblue" d="M559.44,-56.08C564.48,-48.53 571.84,-37.49 578.01,-28.23"/>
<polygon fill="midnightblue" stroke="midnightblue" points="581.03,-30.01 583.67,-19.75 575.21,-26.13 581.03,-30.01"/>
</g>
<!-- Node13 -->
<g id="node13" class="node">
<title>Node13</title>
<g id="a_node13"><a xlink:title=" ">
<polygon fill="none" stroke="#bfbfbf" points="636,-0.5 636,-19.5 679,-19.5 679,-0.5 636,-0.5"/>
<text text-anchor="middle" x="657.5" y="-7.5" font-family="Helvetica,sans-Serif" font-size="10.00">time.h</text>
</a>
</g>
</g>
<!-- Node9&#45;&gt;Node13 -->
<g id="edge12" class="edge">
<title>Node9&#45;&gt;Node13</title>
<path fill="none" stroke="midnightblue" d="M570.21,-56.32C586.81,-47.7 612.5,-34.36 631.72,-24.39"/>
<polygon fill="midnightblue" stroke="midnightblue" points="633.57,-27.37 640.83,-19.65 630.34,-21.16 633.57,-27.37"/>
</g>
</g>
</svg>
