<?xml version="1.0" encoding="UTF-8" standalone="no"?>
<!DOCTYPE svg PUBLIC "-//W3C//DTD SVG 1.1//EN"
 "http://www.w3.org/Graphics/SVG/1.1/DTD/svg11.dtd">
<!-- Generated by graphviz version 2.43.0 (0)
 -->
<!-- Title: include/utils.h Pages: 1 -->
<svg width="472pt" height="196pt"
 viewBox="0.00 0.00 471.50 196.00" xmlns="http://www.w3.org/2000/svg" xmlns:xlink="http://www.w3.org/1999/xlink">
<g id="graph0" class="graph" transform="scale(1 1) rotate(0) translate(4 192)">
<title>include/utils.h</title>
<!-- Node1 -->
<g id="node1" class="node">
<title>Node1</title>
<g id="a_node1"><a xlink:title=" ">
<polygon fill="#bfbfbf" stroke="black" points="219.5,-168.5 219.5,-187.5 304.5,-187.5 304.5,-168.5 219.5,-168.5"/>
<text text-anchor="middle" x="262" y="-175.5" font-family="Helvetica,sans-Serif" font-size="10.00">include/utils.h</text>
</a>
</g>
</g>
<!-- Node2 -->
<g id="node2" class="node">
<title>Node2</title>
<g id="a_node2"><a xlink:href="ibm__ems_8h.html" target="_top" xlink:title=" ">
<polygon fill="none" stroke="black" points="273.5,-112.5 273.5,-131.5 382.5,-131.5 382.5,-112.5 273.5,-112.5"/>
<text text-anchor="middle" x="328" y="-119.5" font-family="Helvetica,sans-Serif" font-size="10.00">include/ibm_ems.h</text>
</a>
</g>
</g>
<!-- Node1&#45;&gt;Node2 -->
<g id="edge1" class="edge">
<title>Node1&#45;&gt;Node2</title>
<path fill="none" stroke="midnightblue" d="M280.55,-161.82C292.38,-152.15 307.29,-139.95 317.2,-131.83"/>
<polygon fill="midnightblue" stroke="midnightblue" points="278.13,-159.28 272.6,-168.32 282.56,-164.7 278.13,-159.28"/>
</g>
<!-- Node6 -->
<g id="node6" class="node">
<title>Node6</title>
<g id="a_node6"><a xlink:href="ubidots_8h.html" target="_top" xlink:title=" ">
<polygon fill="none" stroke="black" points="21,-112.5 21,-131.5 121,-131.5 121,-112.5 21,-112.5"/>
<text text-anchor="middle" x="71" y="-119.5" font-family="Helvetica,sans-Serif" font-size="10.00">include/ubidots.h</text>
</a>
</g>
</g>
<!-- Node1&#45;&gt;Node6 -->
<g id="edge5" class="edge">
<title>Node1&#45;&gt;Node6</title>
<path fill="none" stroke="midnightblue" d="M222.03,-165.7C185.98,-155.51 133.76,-140.74 101.12,-131.52"/>
<polygon fill="midnightblue" stroke="midnightblue" points="221.16,-169.09 231.74,-168.44 223.06,-162.35 221.16,-169.09"/>
</g>
<!-- Node8 -->
<g id="node8" class="node">
<title>Node8</title>
<g id="a_node8"><a xlink:href="w__weather_8h.html" target="_top" xlink:title=" ">
<polygon fill="none" stroke="black" points="139,-112.5 139,-131.5 255,-131.5 255,-112.5 139,-112.5"/>
<text text-anchor="middle" x="197" y="-119.5" font-family="Helvetica,sans-Serif" font-size="10.00">include/w_weather.h</text>
</a>
</g>
</g>
<!-- Node1&#45;&gt;Node8 -->
<g id="edge8" class="edge">
<title>Node1&#45;&gt;Node8</title>
<path fill="none" stroke="midnightblue" d="M243.73,-161.82C232.08,-152.15 217.4,-139.95 207.63,-131.83"/>
<polygon fill="midnightblue" stroke="midnightblue" points="241.63,-164.63 251.56,-168.32 246.1,-159.24 241.63,-164.63"/>
</g>
<!-- Node10 -->
<g id="node10" class="node">
<title>Node10</title>
<g id="a_node10"><a xlink:href="utils_8c.html" target="_top" xlink:title=" ">
<polygon fill="none" stroke="black" points="400.5,-112.5 400.5,-131.5 463.5,-131.5 463.5,-112.5 400.5,-112.5"/>
<text text-anchor="middle" x="432" y="-119.5" font-family="Helvetica,sans-Serif" font-size="10.00">src/utils.c</text>
</a>
</g>
</g>
<!-- Node1&#45;&gt;Node10 -->
<g id="edge11" class="edge">
<title>Node1&#45;&gt;Node10</title>
<path fill="none" stroke="midnightblue" d="M298.82,-165.3C330.85,-155.13 376.52,-140.62 405.19,-131.52"/>
<polygon fill="midnightblue" stroke="midnightblue" points="297.41,-162.08 288.94,-168.44 299.53,-168.75 297.41,-162.08"/>
</g>
<!-- Node3 -->
<g id="node3" class="node">
<title>Node3</title>
<g id="a_node3"><a xlink:href="main_8h.html" target="_top" xlink:title=" ">
<polygon fill="none" stroke="black" points="96.5,-56.5 96.5,-75.5 185.5,-75.5 185.5,-56.5 96.5,-56.5"/>
<text text-anchor="middle" x="141" y="-63.5" font-family="Helvetica,sans-Serif" font-size="10.00">include/main.h</text>
</a>
</g>
</g>
<!-- Node2&#45;&gt;Node3 -->
<g id="edge2" class="edge">
<title>Node2&#45;&gt;Node3</title>
<path fill="none" stroke="midnightblue" d="M288.41,-109.57C253.13,-99.38 202.31,-84.7 170.49,-75.52"/>
<polygon fill="midnightblue" stroke="midnightblue" points="287.79,-113.03 298.37,-112.44 289.73,-106.31 287.79,-113.03"/>
</g>
<!-- Node5 -->
<g id="node5" class="node">
<title>Node5</title>
<g id="a_node5"><a xlink:href="ibm__ems_8c.html" target="_top" xlink:title=" ">
<polygon fill="none" stroke="black" points="316.5,-56.5 316.5,-75.5 403.5,-75.5 403.5,-56.5 316.5,-56.5"/>
<text text-anchor="middle" x="360" y="-63.5" font-family="Helvetica,sans-Serif" font-size="10.00">src/ibm_ems.c</text>
</a>
</g>
</g>
<!-- Node2&#45;&gt;Node5 -->
<g id="edge4" class="edge">
<title>Node2&#45;&gt;Node5</title>
<path fill="none" stroke="midnightblue" d="M338.5,-103.27C343.97,-94.05 350.42,-83.17 354.81,-75.75"/>
<polygon fill="midnightblue" stroke="midnightblue" points="335.37,-101.7 333.28,-112.08 341.39,-105.26 335.37,-101.7"/>
</g>
<!-- Node4 -->
<g id="node4" class="node">
<title>Node4</title>
<g id="a_node4"><a xlink:href="main_8c.html" target="_top" xlink:title=" ">
<polygon fill="none" stroke="black" points="107.5,-0.5 107.5,-19.5 174.5,-19.5 174.5,-0.5 107.5,-0.5"/>
<text text-anchor="middle" x="141" y="-7.5" font-family="Helvetica,sans-Serif" font-size="10.00">src/main.c</text>
</a>
</g>
</g>
<!-- Node3&#45;&gt;Node4 -->
<g id="edge3" class="edge">
<title>Node3&#45;&gt;Node4</title>
<path fill="none" stroke="midnightblue" d="M141,-45.8C141,-36.91 141,-26.78 141,-19.75"/>
<polygon fill="midnightblue" stroke="midnightblue" points="137.5,-46.08 141,-56.08 144.5,-46.08 137.5,-46.08"/>
</g>
<!-- Node6&#45;&gt;Node3 -->
<g id="edge6" class="edge">
<title>Node6&#45;&gt;Node3</title>
<path fill="none" stroke="midnightblue" d="M90.31,-106.1C102.91,-96.38 118.93,-84.03 129.55,-75.83"/>
<polygon fill="midnightblue" stroke="midnightblue" points="88.03,-103.44 82.25,-112.32 92.3,-108.99 88.03,-103.44"/>
</g>
<!-- Node7 -->
<g id="node7" class="node">
<title>Node7</title>
<g id="a_node7"><a xlink:href="ubidots_8c.html" target="_top" xlink:title=" ">
<polygon fill="none" stroke="black" points="0,-56.5 0,-75.5 78,-75.5 78,-56.5 0,-56.5"/>
<text text-anchor="middle" x="39" y="-63.5" font-family="Helvetica,sans-Serif" font-size="10.00">src/ubidots.c</text>
</a>
</g>
</g>
<!-- Node6&#45;&gt;Node7 -->
<g id="edge7" class="edge">
<title>Node6&#45;&gt;Node7</title>
<path fill="none" stroke="midnightblue" d="M60.5,-103.27C55.03,-94.05 48.58,-83.17 44.19,-75.75"/>
<polygon fill="midnightblue" stroke="midnightblue" points="57.61,-105.26 65.72,-112.08 63.63,-101.7 57.61,-105.26"/>
</g>
<!-- Node8&#45;&gt;Node3 -->
<g id="edge9" class="edge">
<title>Node8&#45;&gt;Node3</title>
<path fill="none" stroke="midnightblue" d="M180.67,-105.25C170.74,-95.67 158.41,-83.79 150.16,-75.83"/>
<polygon fill="midnightblue" stroke="midnightblue" points="178.37,-107.9 188,-112.32 183.23,-102.86 178.37,-107.9"/>
</g>
<!-- Node9 -->
<g id="node9" class="node">
<title>Node9</title>
<g id="a_node9"><a xlink:href="w__weather_8c.html" target="_top" xlink:title=" ">
<polygon fill="none" stroke="black" points="203.5,-56.5 203.5,-75.5 298.5,-75.5 298.5,-56.5 203.5,-56.5"/>
<text text-anchor="middle" x="251" y="-63.5" font-family="Helvetica,sans-Serif" font-size="10.00">src/w_weather.c</text>
</a>
</g>
</g>
<!-- Node8&#45;&gt;Node9 -->
<g id="edge10" class="edge">
<title>Node8&#45;&gt;Node9</title>
<path fill="none" stroke="midnightblue" d="M213,-105C222.57,-95.43 234.36,-83.64 242.25,-75.75"/>
<polygon fill="midnightblue" stroke="midnightblue" points="210.51,-102.54 205.92,-112.08 215.46,-107.49 210.51,-102.54"/>
</g>
</g>
</svg>
