<?xml version="1.0" encoding="UTF-8" standalone="no"?>
<!DOCTYPE svg PUBLIC "-//W3C//DTD SVG 1.1//EN"
 "http://www.w3.org/Graphics/SVG/1.1/DTD/svg11.dtd">
<!-- Generated by graphviz version 2.49.3 (20211027.1534)
 -->
<!-- Title: include/utils.h Pages: 1 -->
<svg width="1137pt" height="274pt"
 viewBox="0.00 0.00 1137.00 274.00" xmlns="http://www.w3.org/2000/svg" xmlns:xlink="http://www.w3.org/1999/xlink">
<g id="graph0" class="graph" transform="scale(1 1) rotate(0) translate(4 270)">
<title>include/utils.h</title>
<!-- Node1 -->
<g id="node1" class="node">
<title>Node1</title>
<g id="a_node1"><a xlink:title=" ">
<polygon fill="#bfbfbf" stroke="black" points="658,-246.5 658,-265.5 734,-265.5 734,-246.5 658,-246.5"/>
<text text-anchor="middle" x="696" y="-253.5" font-family="Helvetica,sans-Serif" font-size="10.00">include/utils.h</text>
</a>
</g>
</g>
<!-- Node2 -->
<g id="node2" class="node">
<title>Node2</title>
<g id="a_node2"><a xlink:href="harvest__area_8h.html" target="_top" xlink:title=" ">
<polygon fill="none" stroke="black" points="101,-179.5 101,-209.5 211,-209.5 211,-179.5 101,-179.5"/>
<text text-anchor="start" x="109" y="-197.5" font-family="Helvetica,sans-Serif" font-size="10.00">include/FoodAuthority</text>
<text text-anchor="middle" x="156" y="-186.5" font-family="Helvetica,sans-Serif" font-size="10.00">/harvest_area.h</text>
</a>
</g>
</g>
<!-- Node1&#45;&gt;Node2 -->
<g id="edge1" class="edge">
<title>Node1&#45;&gt;Node2</title>
<path fill="none" stroke="midnightblue" d="M647.43,-249.65C546.94,-238.58 316.79,-213.22 211.02,-201.56"/>
<polygon fill="midnightblue" stroke="midnightblue" points="647.27,-253.15 657.6,-250.77 648.04,-246.19 647.27,-253.15"/>
</g>
<!-- Node6 -->
<g id="node6" class="node">
<title>Node6</title>
<g id="a_node6"><a xlink:href="_i_b_m___e_i_s_2authenticate_8h.html" target="_top" xlink:title=" ">
<polygon fill="none" stroke="black" points="364.5,-185 364.5,-204 517.5,-204 517.5,-185 364.5,-185"/>
<text text-anchor="middle" x="441" y="-192" font-family="Helvetica,sans-Serif" font-size="10.00">include/IBM_EIS/authenticate.h</text>
</a>
</g>
</g>
<!-- Node1&#45;&gt;Node6 -->
<g id="edge5" class="edge">
<title>Node1&#45;&gt;Node6</title>
<path fill="none" stroke="midnightblue" d="M649.65,-244.19C600.17,-232.64 522.79,-214.58 477.47,-204.01"/>
<polygon fill="midnightblue" stroke="midnightblue" points="648.93,-247.61 659.46,-246.48 650.52,-240.79 648.93,-247.61"/>
</g>
<!-- Node7 -->
<g id="node7" class="node">
<title>Node7</title>
<g id="a_node7"><a xlink:href="timeseries_8h.html" target="_top" xlink:title=" ">
<polygon fill="none" stroke="black" points="184.5,-118 184.5,-137 329.5,-137 329.5,-118 184.5,-118"/>
<text text-anchor="middle" x="257" y="-125" font-family="Helvetica,sans-Serif" font-size="10.00">include/IBM_EIS/timeseries.h</text>
</a>
</g>
</g>
<!-- Node1&#45;&gt;Node7 -->
<g id="edge11" class="edge">
<title>Node1&#45;&gt;Node7</title>
<path fill="none" stroke="midnightblue" d="M647.25,-251.91C565.91,-246.2 406.37,-232.48 355,-210 315.47,-192.7 279.3,-154.47 264.31,-137.23"/>
<polygon fill="midnightblue" stroke="midnightblue" points="647.5,-255.43 657.72,-252.63 647.98,-248.45 647.5,-255.43"/>
</g>
<!-- Node10 -->
<g id="node10" class="node">
<title>Node10</title>
<g id="a_node10"><a xlink:href="devices_8h.html" target="_top" xlink:title=" ">
<polygon fill="none" stroke="black" points="561,-185 561,-204 689,-204 689,-185 561,-185"/>
<text text-anchor="middle" x="625" y="-192" font-family="Helvetica,sans-Serif" font-size="10.00">include/Ubidots/devices.h</text>
</a>
</g>
</g>
<!-- Node1&#45;&gt;Node10 -->
<g id="edge12" class="edge">
<title>Node1&#45;&gt;Node10</title>
<path fill="none" stroke="midnightblue" d="M678.07,-239.97C664.49,-228.59 646.32,-213.37 635.15,-204.01"/>
<polygon fill="midnightblue" stroke="midnightblue" points="675.91,-242.73 685.83,-246.48 680.41,-237.37 675.91,-242.73"/>
</g>
<!-- Node12 -->
<g id="node12" class="node">
<title>Node12</title>
<g id="a_node12"><a xlink:href="location_8h.html" target="_top" xlink:title=" ">
<polygon fill="none" stroke="black" points="865.5,-179.5 865.5,-209.5 972.5,-209.5 972.5,-179.5 865.5,-179.5"/>
<text text-anchor="start" x="873.5" y="-197.5" font-family="Helvetica,sans-Serif" font-size="10.00">include/WillyWeather</text>
<text text-anchor="middle" x="919" y="-186.5" font-family="Helvetica,sans-Serif" font-size="10.00">/location.h</text>
</a>
</g>
</g>
<!-- Node1&#45;&gt;Node12 -->
<g id="edge15" class="edge">
<title>Node1&#45;&gt;Node12</title>
<path fill="none" stroke="midnightblue" d="M737.76,-243.86C774.17,-234.14 827.16,-220.01 866.44,-209.52"/>
<polygon fill="midnightblue" stroke="midnightblue" points="736.71,-240.52 727.95,-246.48 738.51,-247.28 736.71,-240.52"/>
</g>
<!-- Node13 -->
<g id="node13" class="node">
<title>Node13</title>
<g id="a_node13"><a xlink:href="tide_8h.html" target="_top" xlink:title=" ">
<polygon fill="none" stroke="black" points="1017.5,-112.5 1017.5,-142.5 1124.5,-142.5 1124.5,-112.5 1017.5,-112.5"/>
<text text-anchor="start" x="1025.5" y="-130.5" font-family="Helvetica,sans-Serif" font-size="10.00">include/WillyWeather</text>
<text text-anchor="middle" x="1071" y="-119.5" font-family="Helvetica,sans-Serif" font-size="10.00">/tide.h</text>
</a>
</g>
</g>
<!-- Node1&#45;&gt;Node13 -->
<g id="edge20" class="edge">
<title>Node1&#45;&gt;Node13</title>
<path fill="none" stroke="midnightblue" d="M744.3,-255.74C803.27,-254.82 904.67,-247.23 982,-210 999.27,-201.68 1037.33,-163.61 1057.63,-142.57"/>
<polygon fill="midnightblue" stroke="midnightblue" points="744.12,-252.24 734.15,-255.84 744.19,-259.24 744.12,-252.24"/>
</g>
<!-- Node16 -->
<g id="node16" class="node">
<title>Node16</title>
<g id="a_node16"><a xlink:href="severity__index_8h.html" target="_top" xlink:title=" ">
<polygon fill="none" stroke="black" points="707.5,-185 707.5,-204 826.5,-204 826.5,-185 707.5,-185"/>
<text text-anchor="middle" x="767" y="-192" font-family="Helvetica,sans-Serif" font-size="10.00">include/severity_index.h</text>
</a>
</g>
</g>
<!-- Node1&#45;&gt;Node16 -->
<g id="edge21" class="edge">
<title>Node1&#45;&gt;Node16</title>
<path fill="none" stroke="midnightblue" d="M713.93,-239.97C727.51,-228.59 745.68,-213.37 756.85,-204.01"/>
<polygon fill="midnightblue" stroke="midnightblue" points="711.59,-237.37 706.17,-246.48 716.09,-242.73 711.59,-237.37"/>
</g>
<!-- Node18 -->
<g id="node18" class="node">
<title>Node18</title>
<g id="a_node18"><a xlink:href="utils_8c.html" target="_top" xlink:title=" ">
<polygon fill="none" stroke="black" points="1029.5,-185 1029.5,-204 1088.5,-204 1088.5,-185 1029.5,-185"/>
<text text-anchor="middle" x="1059" y="-192" font-family="Helvetica,sans-Serif" font-size="10.00">src/utils.c</text>
</a>
</g>
</g>
<!-- Node1&#45;&gt;Node18 -->
<g id="edge24" class="edge">
<title>Node1&#45;&gt;Node18</title>
<path fill="none" stroke="midnightblue" d="M744.24,-250.9C807.15,-244.93 920.32,-232.09 1015,-210 1021.74,-208.43 1028.91,-206.28 1035.47,-204.11"/>
<polygon fill="midnightblue" stroke="midnightblue" points="743.85,-247.42 734.22,-251.83 744.5,-254.39 743.85,-247.42"/>
</g>
<!-- Node3 -->
<g id="node3" class="node">
<title>Node3</title>
<g id="a_node3"><a xlink:href="main_8h.html" target="_top" xlink:title=" ">
<polygon fill="none" stroke="black" points="491.5,-56.5 491.5,-75.5 570.5,-75.5 570.5,-56.5 491.5,-56.5"/>
<text text-anchor="middle" x="531" y="-63.5" font-family="Helvetica,sans-Serif" font-size="10.00">include/main.h</text>
</a>
</g>
</g>
<!-- Node2&#45;&gt;Node3 -->
<g id="edge2" class="edge">
<title>Node2&#45;&gt;Node3</title>
<path fill="none" stroke="midnightblue" d="M154.78,-169.27C155.27,-150.81 159.22,-126.23 175,-112 198.19,-91.09 403.43,-75.33 491.33,-69.48"/>
<polygon fill="midnightblue" stroke="midnightblue" points="151.28,-169.32 154.83,-179.3 158.28,-169.28 151.28,-169.32"/>
</g>
<!-- Node5 -->
<g id="node5" class="node">
<title>Node5</title>
<g id="a_node5"><a xlink:href="harvest__area_8c.html" target="_top" xlink:title=" ">
<polygon fill="none" stroke="black" points="0,-112.5 0,-142.5 128,-142.5 128,-112.5 0,-112.5"/>
<text text-anchor="start" x="8" y="-130.5" font-family="Helvetica,sans-Serif" font-size="10.00">src/FoodAuthority/harvest</text>
<text text-anchor="middle" x="64" y="-119.5" font-family="Helvetica,sans-Serif" font-size="10.00">_area.c</text>
</a>
</g>
</g>
<!-- Node2&#45;&gt;Node5 -->
<g id="edge4" class="edge">
<title>Node2&#45;&gt;Node5</title>
<path fill="none" stroke="midnightblue" d="M127.62,-173.45C113.47,-163.45 96.69,-151.6 83.92,-142.58"/>
<polygon fill="midnightblue" stroke="midnightblue" points="125.85,-176.48 136.04,-179.4 129.89,-170.77 125.85,-176.48"/>
</g>
<!-- Node4 -->
<g id="node4" class="node">
<title>Node4</title>
<g id="a_node4"><a xlink:href="main_8c.html" target="_top" xlink:title=" ">
<polygon fill="none" stroke="black" points="500,-0.5 500,-19.5 562,-19.5 562,-0.5 500,-0.5"/>
<text text-anchor="middle" x="531" y="-7.5" font-family="Helvetica,sans-Serif" font-size="10.00">src/main.c</text>
</a>
</g>
</g>
<!-- Node3&#45;&gt;Node4 -->
<g id="edge3" class="edge">
<title>Node3&#45;&gt;Node4</title>
<path fill="none" stroke="midnightblue" d="M531,-45.8C531,-36.91 531,-26.78 531,-19.75"/>
<polygon fill="midnightblue" stroke="midnightblue" points="527.5,-46.08 531,-56.08 534.5,-46.08 527.5,-46.08"/>
</g>
<!-- Node6&#45;&gt;Node3 -->
<g id="edge9" class="edge">
<title>Node6&#45;&gt;Node3</title>
<path fill="none" stroke="midnightblue" d="M459.91,-177.96C470.52,-168.59 483.5,-155.98 493,-143 509.38,-120.62 522.2,-90.12 527.85,-75.5"/>
<polygon fill="midnightblue" stroke="midnightblue" points="457.33,-175.56 452.01,-184.73 461.88,-180.88 457.33,-175.56"/>
</g>
<!-- Node6&#45;&gt;Node7 -->
<g id="edge6" class="edge">
<title>Node6&#45;&gt;Node7</title>
<path fill="none" stroke="midnightblue" d="M406.85,-181.44C370.35,-168.54 313.4,-148.42 281.24,-137.06"/>
<polygon fill="midnightblue" stroke="midnightblue" points="405.97,-184.84 416.57,-184.87 408.3,-178.24 405.97,-184.84"/>
</g>
<!-- Node9 -->
<g id="node9" class="node">
<title>Node9</title>
<g id="a_node9"><a xlink:href="_i_b_m___e_i_s_2authenticate_8c.html" target="_top" xlink:title=" ">
<polygon fill="none" stroke="black" points="348,-118 348,-137 484,-137 484,-118 348,-118"/>
<text text-anchor="middle" x="416" y="-125" font-family="Helvetica,sans-Serif" font-size="10.00">src/IBM_EIS/authenticate.c</text>
</a>
</g>
</g>
<!-- Node6&#45;&gt;Node9 -->
<g id="edge10" class="edge">
<title>Node6&#45;&gt;Node9</title>
<path fill="none" stroke="midnightblue" d="M434,-175.29C429.2,-162.81 423.04,-146.81 419.32,-137.13"/>
<polygon fill="midnightblue" stroke="midnightblue" points="430.77,-176.66 437.63,-184.73 437.31,-174.14 430.77,-176.66"/>
</g>
<!-- Node7&#45;&gt;Node3 -->
<g id="edge7" class="edge">
<title>Node7&#45;&gt;Node3</title>
<path fill="none" stroke="midnightblue" d="M306.13,-115.83C359.27,-104.29 442.92,-86.13 491.82,-75.51"/>
<polygon fill="midnightblue" stroke="midnightblue" points="305.29,-112.43 296.26,-117.98 306.77,-119.27 305.29,-112.43"/>
</g>
<!-- Node8 -->
<g id="node8" class="node">
<title>Node8</title>
<g id="a_node8"><a xlink:href="timeseries_8c.html" target="_top" xlink:title=" ">
<polygon fill="none" stroke="black" points="193,-56.5 193,-75.5 321,-75.5 321,-56.5 193,-56.5"/>
<text text-anchor="middle" x="257" y="-63.5" font-family="Helvetica,sans-Serif" font-size="10.00">src/IBM_EIS/timeseries.c</text>
</a>
</g>
</g>
<!-- Node7&#45;&gt;Node8 -->
<g id="edge8" class="edge">
<title>Node7&#45;&gt;Node8</title>
<path fill="none" stroke="midnightblue" d="M257,-107.82C257,-97 257,-83.9 257,-75.51"/>
<polygon fill="midnightblue" stroke="midnightblue" points="253.5,-107.98 257,-117.98 260.5,-107.98 253.5,-107.98"/>
</g>
<!-- Node10&#45;&gt;Node3 -->
<g id="edge13" class="edge">
<title>Node10&#45;&gt;Node3</title>
<path fill="none" stroke="midnightblue" d="M604.9,-178.49C593.39,-169.18 579.23,-156.45 569,-143 552.21,-120.93 539.59,-90.29 534.06,-75.57"/>
<polygon fill="midnightblue" stroke="midnightblue" points="603.06,-181.49 613.09,-184.9 607.37,-175.98 603.06,-181.49"/>
</g>
<!-- Node11 -->
<g id="node11" class="node">
<title>Node11</title>
<g id="a_node11"><a xlink:href="devices_8c.html" target="_top" xlink:title=" ">
<polygon fill="none" stroke="black" points="578.5,-118 578.5,-137 689.5,-137 689.5,-118 578.5,-118"/>
<text text-anchor="middle" x="634" y="-125" font-family="Helvetica,sans-Serif" font-size="10.00">src/Ubidots/devices.c</text>
</a>
</g>
</g>
<!-- Node10&#45;&gt;Node11 -->
<g id="edge14" class="edge">
<title>Node10&#45;&gt;Node11</title>
<path fill="none" stroke="midnightblue" d="M627.63,-174.54C629.34,-162.17 631.49,-146.62 632.81,-137.13"/>
<polygon fill="midnightblue" stroke="midnightblue" points="624.12,-174.35 626.21,-184.73 631.05,-175.31 624.12,-174.35"/>
</g>
<!-- Node12&#45;&gt;Node13 -->
<g id="edge16" class="edge">
<title>Node12&#45;&gt;Node13</title>
<path fill="none" stroke="midnightblue" d="M961.31,-175.41C985.58,-165.03 1015.59,-152.2 1038.08,-142.58"/>
<polygon fill="midnightblue" stroke="midnightblue" points="959.8,-172.25 951.98,-179.4 962.55,-178.68 959.8,-172.25"/>
</g>
<!-- Node15 -->
<g id="node15" class="node">
<title>Node15</title>
<g id="a_node15"><a xlink:href="location_8c.html" target="_top" xlink:title=" ">
<polygon fill="none" stroke="black" points="865,-118 865,-137 999,-137 999,-118 865,-118"/>
<text text-anchor="middle" x="932" y="-125" font-family="Helvetica,sans-Serif" font-size="10.00">src/WillyWeather/location.c</text>
</a>
</g>
</g>
<!-- Node12&#45;&gt;Node15 -->
<g id="edge19" class="edge">
<title>Node12&#45;&gt;Node15</title>
<path fill="none" stroke="midnightblue" d="M923.85,-169.25C926.1,-158.02 928.62,-145.38 930.26,-137.19"/>
<polygon fill="midnightblue" stroke="midnightblue" points="920.35,-168.9 921.82,-179.4 927.21,-170.28 920.35,-168.9"/>
</g>
<!-- Node13&#45;&gt;Node3 -->
<g id="edge17" class="edge">
<title>Node13&#45;&gt;Node3</title>
<path fill="none" stroke="midnightblue" d="M1007.47,-112.07C839.51,-85.52 651.34,-73.35 570.8,-68.97"/>
<polygon fill="midnightblue" stroke="midnightblue" points="1007.05,-115.55 1017.48,-113.67 1008.16,-108.64 1007.05,-115.55"/>
</g>
<!-- Node14 -->
<g id="node14" class="node">
<title>Node14</title>
<g id="a_node14"><a xlink:href="tide_8c.html" target="_top" xlink:title=" ">
<polygon fill="none" stroke="black" points="1013,-56.5 1013,-75.5 1129,-75.5 1129,-56.5 1013,-56.5"/>
<text text-anchor="middle" x="1071" y="-63.5" font-family="Helvetica,sans-Serif" font-size="10.00">src/WillyWeather/tide.c</text>
</a>
</g>
</g>
<!-- Node13&#45;&gt;Node14 -->
<g id="edge18" class="edge">
<title>Node13&#45;&gt;Node14</title>
<path fill="none" stroke="midnightblue" d="M1071,-102.29C1071,-92.86 1071,-82.65 1071,-75.66"/>
<polygon fill="midnightblue" stroke="midnightblue" points="1067.5,-102.4 1071,-112.4 1074.5,-102.4 1067.5,-102.4"/>
</g>
<!-- Node16&#45;&gt;Node3 -->
<g id="edge22" class="edge">
<title>Node16&#45;&gt;Node3</title>
<path fill="none" stroke="midnightblue" d="M787.5,-178.7C808.66,-161.66 836.2,-133.27 818,-112 786.65,-75.35 641.96,-68.35 570.78,-67.15"/>
<polygon fill="midnightblue" stroke="midnightblue" points="785.31,-175.97 779.53,-184.85 789.59,-181.51 785.31,-175.97"/>
</g>
<!-- Node17 -->
<g id="node17" class="node">
<title>Node17</title>
<g id="a_node17"><a xlink:href="severity__index_8c.html" target="_top" xlink:title=" ">
<polygon fill="none" stroke="black" points="707,-118 707,-137 809,-137 809,-118 707,-118"/>
<text text-anchor="middle" x="758" y="-125" font-family="Helvetica,sans-Serif" font-size="10.00">src/severity_index.c</text>
</a>
</g>
</g>
<!-- Node16&#45;&gt;Node17 -->
<g id="edge23" class="edge">
<title>Node16&#45;&gt;Node17</title>
<path fill="none" stroke="midnightblue" d="M764.37,-174.54C762.66,-162.17 760.51,-146.62 759.19,-137.13"/>
<polygon fill="midnightblue" stroke="midnightblue" points="760.95,-175.31 765.79,-184.73 767.88,-174.35 760.95,-175.31"/>
</g>
</g>
</svg>
