<?xml version="1.0" encoding="UTF-8" standalone="no"?>
<!DOCTYPE svg PUBLIC "-//W3C//DTD SVG 1.1//EN"
 "http://www.w3.org/Graphics/SVG/1.1/DTD/svg11.dtd">
<!-- Generated by graphviz version 2.49.3 (20211027.1534)
 -->
<!-- Title: include/utils.h Pages: 1 -->
<svg width="1963pt" height="408pt"
 viewBox="0.00 0.00 1963.00 408.00" xmlns="http://www.w3.org/2000/svg" xmlns:xlink="http://www.w3.org/1999/xlink">
<g id="graph0" class="graph" transform="scale(1 1) rotate(0) translate(4 404)">
<title>include/utils.h</title>
<!-- Node1 -->
<g id="node1" class="node">
<title>Node1</title>
<g id="a_node1"><a xlink:title=" ">
<polygon fill="#bfbfbf" stroke="black" points="915.5,-380.5 915.5,-399.5 991.5,-399.5 991.5,-380.5 915.5,-380.5"/>
<text text-anchor="middle" x="953.5" y="-387.5" font-family="Helvetica,sans-Serif" font-size="10.00">include/utils.h</text>
</a>
</g>
</g>
<!-- Node2 -->
<g id="node2" class="node">
<title>Node2</title>
<g id="a_node2"><a xlink:href="stations_8h.html" target="_top" xlink:title=" ">
<polygon fill="none" stroke="black" points="171.5,-196 171.5,-215 289.5,-215 289.5,-196 171.5,-196"/>
<text text-anchor="middle" x="230.5" y="-203" font-family="Helvetica,sans-Serif" font-size="10.00">include/BOM/stations.h</text>
</a>
</g>
</g>
<!-- Node1&#45;&gt;Node2 -->
<g id="edge1" class="edge">
<title>Node1&#45;&gt;Node2</title>
<path fill="none" stroke="midnightblue" d="M904.84,-389.43C770.66,-390.03 397.81,-387.62 284.5,-344 246.99,-329.56 231.03,-324.16 213.5,-288 201.52,-263.29 216.69,-230.36 225.3,-215.03"/>
<polygon fill="midnightblue" stroke="midnightblue" points="905.23,-392.93 915.21,-389.37 905.19,-385.93 905.23,-392.93"/>
</g>
<!-- Node8 -->
<g id="node8" class="node">
<title>Node8</title>
<g id="a_node8"><a xlink:href="harvest__area_8h.html" target="_top" xlink:title=" ">
<polygon fill="none" stroke="black" points="551.5,-257.5 551.5,-287.5 661.5,-287.5 661.5,-257.5 551.5,-257.5"/>
<text text-anchor="start" x="559.5" y="-275.5" font-family="Helvetica,sans-Serif" font-size="10.00">include/FoodAuthority</text>
<text text-anchor="middle" x="606.5" y="-264.5" font-family="Helvetica,sans-Serif" font-size="10.00">/harvest_area.h</text>
</a>
</g>
</g>
<!-- Node1&#45;&gt;Node8 -->
<g id="edge8" class="edge">
<title>Node1&#45;&gt;Node8</title>
<path fill="none" stroke="midnightblue" d="M905.02,-389.47C848.31,-388.17 752.95,-380.1 680.5,-344 653.66,-330.63 630.01,-304.19 617.03,-287.76"/>
<polygon fill="midnightblue" stroke="midnightblue" points="905.09,-392.98 915.15,-389.64 905.21,-385.98 905.09,-392.98"/>
</g>
<!-- Node9 -->
<g id="node9" class="node">
<title>Node9</title>
<g id="a_node9"><a xlink:href="harvest__areas_8h.html" target="_top" xlink:title=" ">
<polygon fill="none" stroke="black" points="551.5,-190.5 551.5,-220.5 661.5,-220.5 661.5,-190.5 551.5,-190.5"/>
<text text-anchor="start" x="559.5" y="-208.5" font-family="Helvetica,sans-Serif" font-size="10.00">include/FoodAuthority</text>
<text text-anchor="middle" x="606.5" y="-197.5" font-family="Helvetica,sans-Serif" font-size="10.00">/harvest_areas.h</text>
</a>
</g>
</g>
<!-- Node1&#45;&gt;Node9 -->
<g id="edge14" class="edge">
<title>Node1&#45;&gt;Node9</title>
<path fill="none" stroke="midnightblue" d="M915.77,-377.3C866.22,-361.1 777.45,-329.11 708.5,-288 689.78,-276.84 687.5,-270.64 670.5,-257 655.04,-244.6 637.35,-230.66 624.49,-220.57"/>
<polygon fill="midnightblue" stroke="midnightblue" points="914.84,-380.68 925.43,-380.43 916.99,-374.02 914.84,-380.68"/>
</g>
<!-- Node12 -->
<g id="node12" class="node">
<title>Node12</title>
<g id="a_node12"><a xlink:href="_i_b_m___e_i_s_2authenticate_8h.html" target="_top" xlink:title=" ">
<polygon fill="none" stroke="black" points="772,-263 772,-282 925,-282 925,-263 772,-263"/>
<text text-anchor="middle" x="848.5" y="-270" font-family="Helvetica,sans-Serif" font-size="10.00">include/IBM_EIS/authenticate.h</text>
</a>
</g>
</g>
<!-- Node1&#45;&gt;Node12 -->
<g id="edge15" class="edge">
<title>Node1&#45;&gt;Node12</title>
<path fill="none" stroke="midnightblue" d="M938.79,-372.82C916.29,-348.06 874.05,-301.61 856.48,-282.28"/>
<polygon fill="midnightblue" stroke="midnightblue" points="936.29,-375.27 945.61,-380.32 941.47,-370.56 936.29,-375.27"/>
</g>
<!-- Node13 -->
<g id="node13" class="node">
<title>Node13</title>
<g id="a_node13"><a xlink:href="timeseries_8h.html" target="_top" xlink:title=" ">
<polygon fill="none" stroke="black" points="872,-196 872,-215 1017,-215 1017,-196 872,-196"/>
<text text-anchor="middle" x="944.5" y="-203" font-family="Helvetica,sans-Serif" font-size="10.00">include/IBM_EIS/timeseries.h</text>
</a>
</g>
</g>
<!-- Node1&#45;&gt;Node13 -->
<g id="edge21" class="edge">
<title>Node1&#45;&gt;Node13</title>
<path fill="none" stroke="midnightblue" d="M952.55,-369.72C950.62,-330.56 946.3,-243.09 944.93,-215.21"/>
<polygon fill="midnightblue" stroke="midnightblue" points="949.08,-370.38 953.07,-380.2 956.07,-370.04 949.08,-370.38"/>
</g>
<!-- Node16 -->
<g id="node16" class="node">
<title>Node16</title>
<g id="a_node16"><a xlink:href="devices_8h.html" target="_top" xlink:title=" ">
<polygon fill="none" stroke="black" points="1223.5,-196 1223.5,-215 1351.5,-215 1351.5,-196 1223.5,-196"/>
<text text-anchor="middle" x="1287.5" y="-203" font-family="Helvetica,sans-Serif" font-size="10.00">include/Ubidots/devices.h</text>
</a>
</g>
</g>
<!-- Node1&#45;&gt;Node16 -->
<g id="edge22" class="edge">
<title>Node1&#45;&gt;Node16</title>
<path fill="none" stroke="midnightblue" d="M1001.6,-384.23C1097.2,-373.6 1305.29,-344.36 1344.5,-288 1363.04,-261.35 1323.61,-229.89 1301.35,-215.06"/>
<polygon fill="midnightblue" stroke="midnightblue" points="1001.17,-380.75 991.61,-385.32 1001.93,-387.71 1001.17,-380.75"/>
</g>
<!-- Node18 -->
<g id="node18" class="node">
<title>Node18</title>
<g id="a_node18"><a xlink:href="location_8h.html" target="_top" xlink:title=" ">
<polygon fill="none" stroke="black" points="1694,-190.5 1694,-220.5 1801,-220.5 1801,-190.5 1694,-190.5"/>
<text text-anchor="start" x="1702" y="-208.5" font-family="Helvetica,sans-Serif" font-size="10.00">include/WillyWeather</text>
<text text-anchor="middle" x="1747.5" y="-197.5" font-family="Helvetica,sans-Serif" font-size="10.00">/location.h</text>
</a>
</g>
</g>
<!-- Node1&#45;&gt;Node18 -->
<g id="edge25" class="edge">
<title>Node1&#45;&gt;Node18</title>
<path fill="none" stroke="midnightblue" d="M1002.04,-388.78C1155.5,-387.69 1623.34,-381.33 1679.5,-344 1722.97,-315.1 1739.74,-249.85 1745.21,-220.86"/>
<polygon fill="midnightblue" stroke="midnightblue" points="1001.95,-385.28 991.97,-388.84 1002,-392.28 1001.95,-385.28"/>
</g>
<!-- Node19 -->
<g id="node19" class="node">
<title>Node19</title>
<g id="a_node19"><a xlink:href="precipitation_8h.html" target="_top" xlink:title=" ">
<polygon fill="none" stroke="black" points="1795,-123.5 1795,-153.5 1902,-153.5 1902,-123.5 1795,-123.5"/>
<text text-anchor="start" x="1803" y="-141.5" font-family="Helvetica,sans-Serif" font-size="10.00">include/WillyWeather</text>
<text text-anchor="middle" x="1848.5" y="-130.5" font-family="Helvetica,sans-Serif" font-size="10.00">/precipitation.h</text>
</a>
</g>
</g>
<!-- Node1&#45;&gt;Node19 -->
<g id="edge33" class="edge">
<title>Node1&#45;&gt;Node19</title>
<path fill="none" stroke="midnightblue" d="M1002.09,-388C1158.01,-384.52 1639.39,-371.63 1703.5,-344 1776.84,-312.39 1796.67,-291.33 1834.5,-221 1846.06,-199.51 1848.44,-170.62 1848.74,-153.64"/>
<polygon fill="midnightblue" stroke="midnightblue" points="1001.78,-384.5 991.86,-388.22 1001.94,-391.5 1001.78,-384.5"/>
</g>
<!-- Node21 -->
<g id="node21" class="node">
<title>Node21</title>
<g id="a_node21"><a xlink:href="tide_8h.html" target="_top" xlink:title=" ">
<polygon fill="none" stroke="black" points="1517,-123.5 1517,-153.5 1624,-153.5 1624,-123.5 1517,-123.5"/>
<text text-anchor="start" x="1525" y="-141.5" font-family="Helvetica,sans-Serif" font-size="10.00">include/WillyWeather</text>
<text text-anchor="middle" x="1570.5" y="-130.5" font-family="Helvetica,sans-Serif" font-size="10.00">/tide.h</text>
</a>
</g>
</g>
<!-- Node1&#45;&gt;Node21 -->
<g id="edge34" class="edge">
<title>Node1&#45;&gt;Node21</title>
<path fill="none" stroke="midnightblue" d="M1001.63,-386.69C1132.41,-379.59 1490.85,-354.4 1585.5,-288 1623.88,-261.08 1643.16,-233 1624.5,-190 1618.01,-175.05 1604.67,-162.5 1592.87,-153.65"/>
<polygon fill="midnightblue" stroke="midnightblue" points="1001.32,-383.2 991.52,-387.23 1001.69,-390.19 1001.32,-383.2"/>
</g>
<!-- Node24 -->
<g id="node24" class="node">
<title>Node24</title>
<g id="a_node24"><a xlink:href="ftp_8h.html" target="_top" xlink:title=" ">
<polygon fill="none" stroke="black" points="97,-263 97,-282 166,-282 166,-263 97,-263"/>
<text text-anchor="middle" x="131.5" y="-270" font-family="Helvetica,sans-Serif" font-size="10.00">include/ftp.h</text>
</a>
</g>
</g>
<!-- Node1&#45;&gt;Node24 -->
<g id="edge35" class="edge">
<title>Node1&#45;&gt;Node24</title>
<path fill="none" stroke="midnightblue" d="M904.81,-388.62C745.05,-387.04 243.48,-379.29 180.5,-344 155.79,-330.16 140.77,-298.03 134.66,-282.38"/>
<polygon fill="midnightblue" stroke="midnightblue" points="905.23,-392.13 915.27,-388.72 905.3,-385.13 905.23,-392.13"/>
</g>
<!-- Node26 -->
<g id="node26" class="node">
<title>Node26</title>
<g id="a_node26"><a xlink:href="http_8h.html" target="_top" xlink:title=" ">
<polygon fill="none" stroke="black" points="1110.5,-324.5 1110.5,-343.5 1184.5,-343.5 1184.5,-324.5 1110.5,-324.5"/>
<text text-anchor="middle" x="1147.5" y="-331.5" font-family="Helvetica,sans-Serif" font-size="10.00">include/http.h</text>
</a>
</g>
</g>
<!-- Node1&#45;&gt;Node26 -->
<g id="edge40" class="edge">
<title>Node1&#45;&gt;Node26</title>
<path fill="none" stroke="midnightblue" d="M994.1,-377.7C1030.72,-367.51 1083.76,-352.74 1116.9,-343.52"/>
<polygon fill="midnightblue" stroke="midnightblue" points="992.94,-374.39 984.24,-380.44 994.81,-381.13 992.94,-374.39"/>
</g>
<!-- Node32 -->
<g id="node32" class="node">
<title>Node32</title>
<g id="a_node32"><a xlink:href="severity__index_8h.html" target="_top" xlink:title=" ">
<polygon fill="none" stroke="black" points="293,-324.5 293,-343.5 412,-343.5 412,-324.5 293,-324.5"/>
<text text-anchor="middle" x="352.5" y="-331.5" font-family="Helvetica,sans-Serif" font-size="10.00">include/severity_index.h</text>
</a>
</g>
</g>
<!-- Node1&#45;&gt;Node32 -->
<g id="edge59" class="edge">
<title>Node1&#45;&gt;Node32</title>
<path fill="none" stroke="midnightblue" d="M905.41,-384.68C796.53,-374.9 531.38,-351.07 412.22,-340.37"/>
<polygon fill="midnightblue" stroke="midnightblue" points="905.18,-388.17 915.45,-385.58 905.8,-381.2 905.18,-388.17"/>
</g>
<!-- Node34 -->
<g id="node34" class="node">
<title>Node34</title>
<g id="a_node34"><a xlink:href="utils_8c.html" target="_top" xlink:title=" ">
<polygon fill="none" stroke="black" points="1896,-324.5 1896,-343.5 1955,-343.5 1955,-324.5 1896,-324.5"/>
<text text-anchor="middle" x="1925.5" y="-331.5" font-family="Helvetica,sans-Serif" font-size="10.00">src/utils.c</text>
</a>
</g>
</g>
<!-- Node1&#45;&gt;Node34 -->
<g id="edge62" class="edge">
<title>Node1&#45;&gt;Node34</title>
<path fill="none" stroke="midnightblue" d="M1001.92,-389.26C1139.94,-389.44 1546.93,-386.08 1881.5,-344 1886.14,-343.42 1891.02,-342.61 1895.78,-341.72"/>
<polygon fill="midnightblue" stroke="midnightblue" points="1001.7,-385.76 991.69,-389.24 1001.68,-392.76 1001.7,-385.76"/>
</g>
<!-- Node3 -->
<g id="node3" class="node">
<title>Node3</title>
<g id="a_node3"><a xlink:href="historical__weather_8h.html" target="_top" xlink:title=" ">
<polygon fill="none" stroke="black" points="0,-123.5 0,-153.5 115,-153.5 115,-123.5 0,-123.5"/>
<text text-anchor="start" x="8" y="-141.5" font-family="Helvetica,sans-Serif" font-size="10.00">include/BOM/historical</text>
<text text-anchor="middle" x="57.5" y="-130.5" font-family="Helvetica,sans-Serif" font-size="10.00">_weather.h</text>
</a>
</g>
</g>
<!-- Node2&#45;&gt;Node3 -->
<g id="edge2" class="edge">
<title>Node2&#45;&gt;Node3</title>
<path fill="none" stroke="midnightblue" d="M198.15,-192.35C168.83,-181.33 125.62,-165.09 94.84,-153.53"/>
<polygon fill="midnightblue" stroke="midnightblue" points="196.93,-195.63 207.53,-195.87 199.4,-189.07 196.93,-195.63"/>
</g>
<!-- Node4 -->
<g id="node4" class="node">
<title>Node4</title>
<g id="a_node4"><a xlink:href="main_8h.html" target="_top" xlink:title=" ">
<polygon fill="none" stroke="black" points="784,-62 784,-81 863,-81 863,-62 784,-62"/>
<text text-anchor="middle" x="823.5" y="-69" font-family="Helvetica,sans-Serif" font-size="10.00">include/main.h</text>
</a>
</g>
</g>
<!-- Node2&#45;&gt;Node4 -->
<g id="edge6" class="edge">
<title>Node2&#45;&gt;Node4</title>
<path fill="none" stroke="midnightblue" d="M246.59,-188.58C268.68,-167.1 307.71,-130.63 325.5,-123 407.87,-87.68 680.76,-76.49 783.72,-73.48"/>
<polygon fill="midnightblue" stroke="midnightblue" points="243.98,-186.24 239.28,-195.74 248.87,-191.24 243.98,-186.24"/>
</g>
<!-- Node7 -->
<g id="node7" class="node">
<title>Node7</title>
<g id="a_node7"><a xlink:href="stations_8c.html" target="_top" xlink:title=" ">
<polygon fill="none" stroke="black" points="172,-129 172,-148 273,-148 273,-129 172,-129"/>
<text text-anchor="middle" x="222.5" y="-136" font-family="Helvetica,sans-Serif" font-size="10.00">src/BOM/stations.c</text>
</a>
</g>
</g>
<!-- Node2&#45;&gt;Node7 -->
<g id="edge7" class="edge">
<title>Node2&#45;&gt;Node7</title>
<path fill="none" stroke="midnightblue" d="M228.17,-185.54C226.64,-173.17 224.73,-157.62 223.56,-148.13"/>
<polygon fill="midnightblue" stroke="midnightblue" points="224.73,-186.24 229.42,-195.73 231.67,-185.38 224.73,-186.24"/>
</g>
<!-- Node3&#45;&gt;Node4 -->
<g id="edge3" class="edge">
<title>Node3&#45;&gt;Node4</title>
<path fill="none" stroke="midnightblue" d="M125.08,-123.63C126.56,-123.41 128.04,-123.2 129.5,-123 376.97,-89.21 677.38,-77.06 783.8,-73.64"/>
<polygon fill="midnightblue" stroke="midnightblue" points="124.48,-120.18 115.16,-125.22 125.59,-127.09 124.48,-120.18"/>
</g>
<!-- Node6 -->
<g id="node6" class="node">
<title>Node6</title>
<g id="a_node6"><a xlink:href="historical__weather_8c.html" target="_top" xlink:title=" ">
<polygon fill="none" stroke="black" points="8.5,-56.5 8.5,-86.5 106.5,-86.5 106.5,-56.5 8.5,-56.5"/>
<text text-anchor="start" x="16.5" y="-74.5" font-family="Helvetica,sans-Serif" font-size="10.00">src/BOM/historical</text>
<text text-anchor="middle" x="57.5" y="-63.5" font-family="Helvetica,sans-Serif" font-size="10.00">_weather.c</text>
</a>
</g>
</g>
<!-- Node3&#45;&gt;Node6 -->
<g id="edge5" class="edge">
<title>Node3&#45;&gt;Node6</title>
<path fill="none" stroke="midnightblue" d="M57.5,-113.11C57.5,-104.15 57.5,-94.32 57.5,-86.58"/>
<polygon fill="midnightblue" stroke="midnightblue" points="54,-113.4 57.5,-123.4 61,-113.4 54,-113.4"/>
</g>
<!-- Node5 -->
<g id="node5" class="node">
<title>Node5</title>
<g id="a_node5"><a xlink:href="main_8c.html" target="_top" xlink:title=" ">
<polygon fill="none" stroke="black" points="792.5,-0.5 792.5,-19.5 854.5,-19.5 854.5,-0.5 792.5,-0.5"/>
<text text-anchor="middle" x="823.5" y="-7.5" font-family="Helvetica,sans-Serif" font-size="10.00">src/main.c</text>
</a>
</g>
</g>
<!-- Node4&#45;&gt;Node5 -->
<g id="edge4" class="edge">
<title>Node4&#45;&gt;Node5</title>
<path fill="none" stroke="midnightblue" d="M823.5,-51.82C823.5,-41 823.5,-27.9 823.5,-19.51"/>
<polygon fill="midnightblue" stroke="midnightblue" points="820,-51.98 823.5,-61.98 827,-51.98 820,-51.98"/>
</g>
<!-- Node8&#45;&gt;Node4 -->
<g id="edge12" class="edge">
<title>Node8&#45;&gt;Node4</title>
<path fill="none" stroke="midnightblue" d="M570.38,-251.8C559.35,-243.81 548.55,-233.48 542.5,-221 523.5,-181.81 514.56,-156.41 542.5,-123 572.83,-86.74 713.97,-76.48 783.95,-73.6"/>
<polygon fill="midnightblue" stroke="midnightblue" points="568.52,-254.78 578.78,-257.46 572.43,-248.97 568.52,-254.78"/>
</g>
<!-- Node8&#45;&gt;Node9 -->
<g id="edge9" class="edge">
<title>Node8&#45;&gt;Node9</title>
<path fill="none" stroke="midnightblue" d="M606.5,-247.11C606.5,-238.15 606.5,-228.32 606.5,-220.58"/>
<polygon fill="midnightblue" stroke="midnightblue" points="603,-247.4 606.5,-257.4 610,-247.4 603,-247.4"/>
</g>
<!-- Node11 -->
<g id="node11" class="node">
<title>Node11</title>
<g id="a_node11"><a xlink:href="harvest__area_8c.html" target="_top" xlink:title=" ">
<polygon fill="none" stroke="black" points="367.5,-190.5 367.5,-220.5 495.5,-220.5 495.5,-190.5 367.5,-190.5"/>
<text text-anchor="start" x="375.5" y="-208.5" font-family="Helvetica,sans-Serif" font-size="10.00">src/FoodAuthority/harvest</text>
<text text-anchor="middle" x="431.5" y="-197.5" font-family="Helvetica,sans-Serif" font-size="10.00">_area.c</text>
</a>
</g>
</g>
<!-- Node8&#45;&gt;Node11 -->
<g id="edge13" class="edge">
<title>Node8&#45;&gt;Node11</title>
<path fill="none" stroke="midnightblue" d="M558.9,-253.82C530.77,-243.37 495.64,-230.32 469.4,-220.58"/>
<polygon fill="midnightblue" stroke="midnightblue" points="557.93,-257.2 568.53,-257.4 560.37,-250.63 557.93,-257.2"/>
</g>
<!-- Node9&#45;&gt;Node4 -->
<g id="edge10" class="edge">
<title>Node9&#45;&gt;Node4</title>
<path fill="none" stroke="midnightblue" d="M638.46,-185.06C686.41,-155.89 775.01,-102 809.37,-81.1"/>
<polygon fill="midnightblue" stroke="midnightblue" points="636.45,-182.19 629.72,-190.37 640.09,-188.17 636.45,-182.19"/>
</g>
<!-- Node10 -->
<g id="node10" class="node">
<title>Node10</title>
<g id="a_node10"><a xlink:href="harvest__areas_8c.html" target="_top" xlink:title=" ">
<polygon fill="none" stroke="black" points="551.5,-123.5 551.5,-153.5 679.5,-153.5 679.5,-123.5 551.5,-123.5"/>
<text text-anchor="start" x="559.5" y="-141.5" font-family="Helvetica,sans-Serif" font-size="10.00">src/FoodAuthority/harvest</text>
<text text-anchor="middle" x="615.5" y="-130.5" font-family="Helvetica,sans-Serif" font-size="10.00">_areas.c</text>
</a>
</g>
</g>
<!-- Node9&#45;&gt;Node10 -->
<g id="edge11" class="edge">
<title>Node9&#45;&gt;Node10</title>
<path fill="none" stroke="midnightblue" d="M609.84,-180.4C611.09,-171.37 612.47,-161.41 613.55,-153.58"/>
<polygon fill="midnightblue" stroke="midnightblue" points="606.36,-180.01 608.45,-190.4 613.29,-180.97 606.36,-180.01"/>
</g>
<!-- Node12&#45;&gt;Node4 -->
<g id="edge19" class="edge">
<title>Node12&#45;&gt;Node4</title>
<path fill="none" stroke="midnightblue" d="M846.15,-252.8C840.9,-211.01 828.38,-111.33 824.6,-81.24"/>
<polygon fill="midnightblue" stroke="midnightblue" points="842.71,-253.46 847.43,-262.95 849.65,-252.59 842.71,-253.46"/>
</g>
<!-- Node12&#45;&gt;Node13 -->
<g id="edge16" class="edge">
<title>Node12&#45;&gt;Node13</title>
<path fill="none" stroke="midnightblue" d="M869.78,-257.09C888.77,-244.24 915.95,-225.83 931.76,-215.13"/>
<polygon fill="midnightblue" stroke="midnightblue" points="867.77,-254.23 861.45,-262.73 871.69,-260.03 867.77,-254.23"/>
</g>
<!-- Node15 -->
<g id="node15" class="node">
<title>Node15</title>
<g id="a_node15"><a xlink:href="_i_b_m___e_i_s_2authenticate_8c.html" target="_top" xlink:title=" ">
<polygon fill="none" stroke="black" points="679.5,-196 679.5,-215 815.5,-215 815.5,-196 679.5,-196"/>
<text text-anchor="middle" x="747.5" y="-203" font-family="Helvetica,sans-Serif" font-size="10.00">src/IBM_EIS/authenticate.c</text>
</a>
</g>
</g>
<!-- Node12&#45;&gt;Node15 -->
<g id="edge20" class="edge">
<title>Node12&#45;&gt;Node15</title>
<path fill="none" stroke="midnightblue" d="M826.39,-257.27C806.39,-244.4 777.61,-225.88 760.91,-215.13"/>
<polygon fill="midnightblue" stroke="midnightblue" points="824.58,-260.27 834.88,-262.73 828.36,-254.38 824.58,-260.27"/>
</g>
<!-- Node13&#45;&gt;Node4 -->
<g id="edge17" class="edge">
<title>Node13&#45;&gt;Node4</title>
<path fill="none" stroke="midnightblue" d="M963.29,-188.94C981.5,-171.94 1004.26,-144.3 988.5,-123 959.91,-84.34 902.31,-74.31 863.32,-72.2"/>
<polygon fill="midnightblue" stroke="midnightblue" points="960.55,-186.69 955.39,-195.94 965.19,-191.93 960.55,-186.69"/>
</g>
<!-- Node14 -->
<g id="node14" class="node">
<title>Node14</title>
<g id="a_node14"><a xlink:href="timeseries_8c.html" target="_top" xlink:title=" ">
<polygon fill="none" stroke="black" points="851.5,-129 851.5,-148 979.5,-148 979.5,-129 851.5,-129"/>
<text text-anchor="middle" x="915.5" y="-136" font-family="Helvetica,sans-Serif" font-size="10.00">src/IBM_EIS/timeseries.c</text>
</a>
</g>
</g>
<!-- Node13&#45;&gt;Node14 -->
<g id="edge18" class="edge">
<title>Node13&#45;&gt;Node14</title>
<path fill="none" stroke="midnightblue" d="M936.38,-186.29C930.81,-173.81 923.67,-157.81 919.35,-148.13"/>
<polygon fill="midnightblue" stroke="midnightblue" points="933.32,-188.03 940.59,-195.73 939.71,-185.18 933.32,-188.03"/>
</g>
<!-- Node16&#45;&gt;Node4 -->
<g id="edge23" class="edge">
<title>Node16&#45;&gt;Node4</title>
<path fill="none" stroke="midnightblue" d="M1288.81,-185.73C1289,-166.92 1286.02,-138.59 1268.5,-123 1238.48,-96.28 966.7,-79.78 863.24,-74.42"/>
<polygon fill="midnightblue" stroke="midnightblue" points="1285.31,-185.64 1288.4,-195.77 1292.3,-185.92 1285.31,-185.64"/>
</g>
<!-- Node17 -->
<g id="node17" class="node">
<title>Node17</title>
<g id="a_node17"><a xlink:href="devices_8c.html" target="_top" xlink:title=" ">
<polygon fill="none" stroke="black" points="1148,-129 1148,-148 1259,-148 1259,-129 1148,-129"/>
<text text-anchor="middle" x="1203.5" y="-136" font-family="Helvetica,sans-Serif" font-size="10.00">src/Ubidots/devices.c</text>
</a>
</g>
</g>
<!-- Node16&#45;&gt;Node17 -->
<g id="edge24" class="edge">
<title>Node16&#45;&gt;Node17</title>
<path fill="none" stroke="midnightblue" d="M1268.2,-189.57C1251.62,-176.74 1228.29,-158.69 1214.65,-148.13"/>
<polygon fill="midnightblue" stroke="midnightblue" points="1266.12,-192.38 1276.17,-195.73 1270.4,-186.85 1266.12,-192.38"/>
</g>
<!-- Node18&#45;&gt;Node19 -->
<g id="edge26" class="edge">
<title>Node18&#45;&gt;Node19</title>
<path fill="none" stroke="midnightblue" d="M1778.21,-184.73C1793.84,-174.68 1812.47,-162.68 1826.63,-153.58"/>
<polygon fill="midnightblue" stroke="midnightblue" points="1775.93,-182.04 1769.42,-190.4 1779.72,-187.93 1775.93,-182.04"/>
</g>
<!-- Node18&#45;&gt;Node21 -->
<g id="edge29" class="edge">
<title>Node18&#45;&gt;Node21</title>
<path fill="none" stroke="midnightblue" d="M1699.35,-186.82C1670.9,-176.37 1635.37,-163.32 1608.83,-153.58"/>
<polygon fill="midnightblue" stroke="midnightblue" points="1698.5,-190.23 1709.09,-190.4 1700.91,-183.66 1698.5,-190.23"/>
</g>
<!-- Node23 -->
<g id="node23" class="node">
<title>Node23</title>
<g id="a_node23"><a xlink:href="location_8c.html" target="_top" xlink:title=" ">
<polygon fill="none" stroke="black" points="1642.5,-129 1642.5,-148 1776.5,-148 1776.5,-129 1642.5,-129"/>
<text text-anchor="middle" x="1709.5" y="-136" font-family="Helvetica,sans-Serif" font-size="10.00">src/WillyWeather/location.c</text>
</a>
</g>
</g>
<!-- Node18&#45;&gt;Node23 -->
<g id="edge32" class="edge">
<title>Node18&#45;&gt;Node23</title>
<path fill="none" stroke="midnightblue" d="M1734.13,-181.63C1727.37,-170.07 1719.56,-156.71 1714.58,-148.19"/>
<polygon fill="midnightblue" stroke="midnightblue" points="1731.19,-183.53 1739.25,-190.4 1737.23,-180 1731.19,-183.53"/>
</g>
<!-- Node19&#45;&gt;Node4 -->
<g id="edge27" class="edge">
<title>Node19&#45;&gt;Node4</title>
<path fill="none" stroke="midnightblue" d="M1784.5,-123.05C1422.19,-73.14 993.71,-71.4 863.14,-72.12"/>
<polygon fill="midnightblue" stroke="midnightblue" points="1784.27,-126.55 1794.66,-124.46 1785.24,-119.61 1784.27,-126.55"/>
</g>
<!-- Node20 -->
<g id="node20" class="node">
<title>Node20</title>
<g id="a_node20"><a xlink:href="precipitation_8c.html" target="_top" xlink:title=" ">
<polygon fill="none" stroke="black" points="1772.5,-62 1772.5,-81 1924.5,-81 1924.5,-62 1772.5,-62"/>
<text text-anchor="middle" x="1848.5" y="-69" font-family="Helvetica,sans-Serif" font-size="10.00">src/WillyWeather/precipitation.c</text>
</a>
</g>
</g>
<!-- Node19&#45;&gt;Node20 -->
<g id="edge28" class="edge">
<title>Node19&#45;&gt;Node20</title>
<path fill="none" stroke="midnightblue" d="M1848.5,-113.25C1848.5,-102.02 1848.5,-89.38 1848.5,-81.19"/>
<polygon fill="midnightblue" stroke="midnightblue" points="1845,-113.4 1848.5,-123.4 1852,-113.4 1845,-113.4"/>
</g>
<!-- Node21&#45;&gt;Node4 -->
<g id="edge30" class="edge">
<title>Node21&#45;&gt;Node4</title>
<path fill="none" stroke="midnightblue" d="M1506.51,-130.54C1482.94,-128.05 1456.02,-125.3 1431.5,-123 1217.16,-102.92 959.92,-82.89 863,-75.49"/>
<polygon fill="midnightblue" stroke="midnightblue" points="1506.42,-134.05 1516.73,-131.62 1507.15,-127.09 1506.42,-134.05"/>
</g>
<!-- Node22 -->
<g id="node22" class="node">
<title>Node22</title>
<g id="a_node22"><a xlink:href="tide_8c.html" target="_top" xlink:title=" ">
<polygon fill="none" stroke="black" points="1512.5,-62 1512.5,-81 1628.5,-81 1628.5,-62 1512.5,-62"/>
<text text-anchor="middle" x="1570.5" y="-69" font-family="Helvetica,sans-Serif" font-size="10.00">src/WillyWeather/tide.c</text>
</a>
</g>
</g>
<!-- Node21&#45;&gt;Node22 -->
<g id="edge31" class="edge">
<title>Node21&#45;&gt;Node22</title>
<path fill="none" stroke="midnightblue" d="M1570.5,-113.25C1570.5,-102.02 1570.5,-89.38 1570.5,-81.19"/>
<polygon fill="midnightblue" stroke="midnightblue" points="1567,-113.4 1570.5,-123.4 1574,-113.4 1567,-113.4"/>
</g>
<!-- Node24&#45;&gt;Node2 -->
<g id="edge37" class="edge">
<title>Node24&#45;&gt;Node2</title>
<path fill="none" stroke="midnightblue" d="M153.44,-257.09C173.03,-244.24 201.06,-225.83 217.36,-215.13"/>
<polygon fill="midnightblue" stroke="midnightblue" points="151.29,-254.32 144.85,-262.73 155.13,-260.17 151.29,-254.32"/>
</g>
<!-- Node24&#45;&gt;Node3 -->
<g id="edge36" class="edge">
<title>Node24&#45;&gt;Node3</title>
<path fill="none" stroke="midnightblue" d="M97.93,-258.59C81.7,-250.44 63.77,-238.17 54.5,-221 43.06,-199.82 48.14,-170.83 52.84,-153.74"/>
<polygon fill="midnightblue" stroke="midnightblue" points="96.67,-261.86 107.21,-262.92 99.63,-255.52 96.67,-261.86"/>
</g>
<!-- Node24&#45;&gt;Node4 -->
<g id="edge38" class="edge">
<title>Node24&#45;&gt;Node4</title>
<path fill="none" stroke="midnightblue" d="M129.02,-252.51C126.02,-220.39 125.31,-155.66 162.5,-123 209.2,-81.99 647.67,-74.23 783.55,-72.81"/>
<polygon fill="midnightblue" stroke="midnightblue" points="125.58,-253.2 130.17,-262.75 132.53,-252.42 125.58,-253.2"/>
</g>
<!-- Node25 -->
<g id="node25" class="node">
<title>Node25</title>
<g id="a_node25"><a xlink:href="ftp_8c.html" target="_top" xlink:title=" ">
<polygon fill="none" stroke="black" points="63.5,-196 63.5,-215 115.5,-215 115.5,-196 63.5,-196"/>
<text text-anchor="middle" x="89.5" y="-203" font-family="Helvetica,sans-Serif" font-size="10.00">src/ftp.c</text>
</a>
</g>
</g>
<!-- Node24&#45;&gt;Node25 -->
<g id="edge39" class="edge">
<title>Node24&#45;&gt;Node25</title>
<path fill="none" stroke="midnightblue" d="M120.21,-254.03C112.08,-241.45 101.46,-225.01 95.07,-215.13"/>
<polygon fill="midnightblue" stroke="midnightblue" points="117.47,-256.23 125.84,-262.73 123.35,-252.44 117.47,-256.23"/>
</g>
<!-- Node26&#45;&gt;Node4 -->
<g id="edge57" class="edge">
<title>Node26&#45;&gt;Node4</title>
<path fill="none" stroke="midnightblue" d="M1111.75,-320.46C1095.44,-313.18 1077.02,-302.53 1064.5,-288 1013.56,-228.89 1061.75,-176.02 1004.5,-123 965.72,-87.09 903.54,-76.41 863.11,-73.4"/>
<polygon fill="midnightblue" stroke="midnightblue" points="1110.47,-323.72 1121.05,-324.36 1113.18,-317.26 1110.47,-323.72"/>
</g>
<!-- Node26&#45;&gt;Node8 -->
<g id="edge41" class="edge">
<title>Node26&#45;&gt;Node8</title>
<path fill="none" stroke="midnightblue" d="M1100.37,-328.33C1021.78,-320.49 859.01,-303.93 721.5,-288 702.01,-285.74 680.68,-283.1 661.75,-280.7"/>
<polygon fill="midnightblue" stroke="midnightblue" points="1100.14,-331.83 1110.43,-329.34 1100.83,-324.86 1100.14,-331.83"/>
</g>
<!-- Node26&#45;&gt;Node9 -->
<g id="edge42" class="edge">
<title>Node26&#45;&gt;Node9</title>
<path fill="none" stroke="midnightblue" d="M1100.12,-333.39C1026.33,-332.7 880.29,-326.05 763.5,-288 736.82,-279.31 733.3,-270.12 708.5,-257 684.4,-244.25 656.64,-230.57 636.17,-220.67"/>
<polygon fill="midnightblue" stroke="midnightblue" points="1100.45,-336.89 1110.48,-333.45 1100.5,-329.89 1100.45,-336.89"/>
</g>
<!-- Node26&#45;&gt;Node12 -->
<g id="edge43" class="edge">
<title>Node26&#45;&gt;Node12</title>
<path fill="none" stroke="midnightblue" d="M1100.34,-323.62C1042.99,-312.2 947,-293.1 891.56,-282.07"/>
<polygon fill="midnightblue" stroke="midnightblue" points="1099.75,-327.07 1110.24,-325.58 1101.11,-320.2 1099.75,-327.07"/>
</g>
<!-- Node26&#45;&gt;Node13 -->
<g id="edge44" class="edge">
<title>Node26&#45;&gt;Node13</title>
<path fill="none" stroke="midnightblue" d="M1106.37,-321.32C1083.34,-313.75 1054.68,-302.58 1031.5,-288 997.86,-266.84 965.74,-231.58 951.79,-215.27"/>
<polygon fill="midnightblue" stroke="midnightblue" points="1105.6,-324.74 1116.19,-324.44 1107.72,-318.07 1105.6,-324.74"/>
</g>
<!-- Node26&#45;&gt;Node16 -->
<g id="edge48" class="edge">
<title>Node26&#45;&gt;Node16</title>
<path fill="none" stroke="midnightblue" d="M1178.96,-320.19C1195.48,-312.46 1215.37,-301.5 1230.5,-288 1255.23,-265.93 1274.93,-231.12 1283.23,-215.1"/>
<polygon fill="midnightblue" stroke="midnightblue" points="1177.38,-317.06 1169.69,-324.36 1180.24,-323.45 1177.38,-317.06"/>
</g>
<!-- Node26&#45;&gt;Node18 -->
<g id="edge54" class="edge">
<title>Node26&#45;&gt;Node18</title>
<path fill="none" stroke="midnightblue" d="M1195.14,-333.69C1276.77,-333.65 1447.87,-328.21 1585.5,-288 1638.99,-272.37 1695.96,-239.39 1726.02,-220.53"/>
<polygon fill="midnightblue" stroke="midnightblue" points="1194.71,-330.19 1184.7,-333.67 1194.69,-337.19 1194.71,-330.19"/>
</g>
<!-- Node26&#45;&gt;Node19 -->
<g id="edge55" class="edge">
<title>Node26&#45;&gt;Node19</title>
<path fill="none" stroke="midnightblue" d="M1194.98,-332.9C1283.02,-331.78 1477.04,-324.9 1635.5,-288 1716.61,-269.11 1749.57,-277.77 1810.5,-221 1830.37,-202.48 1840.79,-171.49 1845.42,-153.53"/>
<polygon fill="midnightblue" stroke="midnightblue" points="1194.74,-329.4 1184.78,-333.01 1194.82,-336.4 1194.74,-329.4"/>
</g>
<!-- Node26&#45;&gt;Node21 -->
<g id="edge56" class="edge">
<title>Node26&#45;&gt;Node21</title>
<path fill="none" stroke="midnightblue" d="M1194.84,-329.92C1236.58,-325.47 1297.86,-314.59 1344.5,-288 1396.67,-258.26 1387.51,-223.27 1437.5,-190 1461.87,-173.78 1492.17,-161.76 1517.7,-153.52"/>
<polygon fill="midnightblue" stroke="midnightblue" points="1194.28,-326.46 1184.67,-330.92 1194.96,-333.42 1194.28,-326.46"/>
</g>
<!-- Node27 -->
<g id="node27" class="node">
<title>Node27</title>
<g id="a_node27"><a xlink:href="_ubidots_2authenticate_8h.html" target="_top" xlink:title=" ">
<polygon fill="none" stroke="black" points="1073.5,-263 1073.5,-282 1221.5,-282 1221.5,-263 1073.5,-263"/>
<text text-anchor="middle" x="1147.5" y="-270" font-family="Helvetica,sans-Serif" font-size="10.00">include/Ubidots/authenticate.h</text>
</a>
</g>
</g>
<!-- Node26&#45;&gt;Node27 -->
<g id="edge45" class="edge">
<title>Node26&#45;&gt;Node27</title>
<path fill="none" stroke="midnightblue" d="M1147.5,-314.32C1147.5,-303.5 1147.5,-290.4 1147.5,-282.01"/>
<polygon fill="midnightblue" stroke="midnightblue" points="1144,-314.48 1147.5,-324.48 1151,-314.48 1144,-314.48"/>
</g>
<!-- Node29 -->
<g id="node29" class="node">
<title>Node29</title>
<g id="a_node29"><a xlink:href="_willy_weather_2authenticate_8h.html" target="_top" xlink:title=" ">
<polygon fill="none" stroke="black" points="1469,-257.5 1469,-287.5 1576,-287.5 1576,-257.5 1469,-257.5"/>
<text text-anchor="start" x="1477" y="-275.5" font-family="Helvetica,sans-Serif" font-size="10.00">include/WillyWeather</text>
<text text-anchor="middle" x="1522.5" y="-264.5" font-family="Helvetica,sans-Serif" font-size="10.00">/authenticate.h</text>
</a>
</g>
</g>
<!-- Node26&#45;&gt;Node29 -->
<g id="edge49" class="edge">
<title>Node26&#45;&gt;Node29</title>
<path fill="none" stroke="midnightblue" d="M1195.12,-325.44C1265.15,-314.33 1395.52,-293.65 1468.84,-282.01"/>
<polygon fill="midnightblue" stroke="midnightblue" points="1194.16,-322.05 1184.83,-327.08 1195.25,-328.97 1194.16,-322.05"/>
</g>
<!-- Node31 -->
<g id="node31" class="node">
<title>Node31</title>
<g id="a_node31"><a xlink:href="http_8c.html" target="_top" xlink:title=" ">
<polygon fill="none" stroke="black" points="1278,-263 1278,-282 1335,-282 1335,-263 1278,-263"/>
<text text-anchor="middle" x="1306.5" y="-270" font-family="Helvetica,sans-Serif" font-size="10.00">src/http.c</text>
</a>
</g>
</g>
<!-- Node26&#45;&gt;Node31 -->
<g id="edge58" class="edge">
<title>Node26&#45;&gt;Node31</title>
<path fill="none" stroke="midnightblue" d="M1179.75,-320.93C1210.65,-309.37 1256.51,-292.21 1283.76,-282.01"/>
<polygon fill="midnightblue" stroke="midnightblue" points="1178.42,-317.69 1170.28,-324.48 1180.87,-324.25 1178.42,-317.69"/>
</g>
<!-- Node27&#45;&gt;Node16 -->
<g id="edge46" class="edge">
<title>Node27&#45;&gt;Node16</title>
<path fill="none" stroke="midnightblue" d="M1175.26,-258.61C1202.99,-245.74 1244.84,-226.31 1268.83,-215.17"/>
<polygon fill="midnightblue" stroke="midnightblue" points="1173.69,-255.48 1166.09,-262.87 1176.63,-261.83 1173.69,-255.48"/>
</g>
<!-- Node28 -->
<g id="node28" class="node">
<title>Node28</title>
<g id="a_node28"><a xlink:href="_ubidots_2authenticate_8c.html" target="_top" xlink:title=" ">
<polygon fill="none" stroke="black" points="1074,-196 1074,-215 1205,-215 1205,-196 1074,-196"/>
<text text-anchor="middle" x="1139.5" y="-203" font-family="Helvetica,sans-Serif" font-size="10.00">src/Ubidots/authenticate.c</text>
</a>
</g>
</g>
<!-- Node27&#45;&gt;Node28 -->
<g id="edge47" class="edge">
<title>Node27&#45;&gt;Node28</title>
<path fill="none" stroke="midnightblue" d="M1145.17,-252.54C1143.64,-240.17 1141.73,-224.62 1140.56,-215.13"/>
<polygon fill="midnightblue" stroke="midnightblue" points="1141.73,-253.24 1146.42,-262.73 1148.67,-252.38 1141.73,-253.24"/>
</g>
<!-- Node29&#45;&gt;Node4 -->
<g id="edge52" class="edge">
<title>Node29&#45;&gt;Node4</title>
<path fill="none" stroke="midnightblue" d="M1489.24,-252.28C1473.44,-243.01 1454.38,-231.63 1437.5,-221 1371.06,-179.15 1364.32,-149.77 1290.5,-123 1212.11,-94.58 960.96,-79.34 863.08,-74.36"/>
<polygon fill="midnightblue" stroke="midnightblue" points="1487.72,-255.44 1498.12,-257.46 1491.25,-249.4 1487.72,-255.44"/>
</g>
<!-- Node29&#45;&gt;Node18 -->
<g id="edge50" class="edge">
<title>Node29&#45;&gt;Node18</title>
<path fill="none" stroke="midnightblue" d="M1581.07,-254.58C1617.61,-244.02 1664.1,-230.59 1698.65,-220.61"/>
<polygon fill="midnightblue" stroke="midnightblue" points="1579.68,-251.34 1571.04,-257.48 1581.62,-258.06 1579.68,-251.34"/>
</g>
<!-- Node29&#45;&gt;Node21 -->
<g id="edge51" class="edge">
<title>Node29&#45;&gt;Node21</title>
<path fill="none" stroke="midnightblue" d="M1573.85,-252.66C1587.53,-245.02 1600.67,-234.68 1608.5,-221 1621.53,-198.24 1601.09,-170.25 1585.5,-153.7"/>
<polygon fill="midnightblue" stroke="midnightblue" points="1572.12,-249.61 1564.83,-257.3 1575.32,-255.84 1572.12,-249.61"/>
</g>
<!-- Node30 -->
<g id="node30" class="node">
<title>Node30</title>
<g id="a_node30"><a xlink:href="_willy_weather_2authenticate_8c.html" target="_top" xlink:title=" ">
<polygon fill="none" stroke="black" points="1446,-196 1446,-215 1599,-215 1599,-196 1446,-196"/>
<text text-anchor="middle" x="1522.5" y="-203" font-family="Helvetica,sans-Serif" font-size="10.00">src/WillyWeather/authenticate.c</text>
</a>
</g>
</g>
<!-- Node29&#45;&gt;Node30 -->
<g id="edge53" class="edge">
<title>Node29&#45;&gt;Node30</title>
<path fill="none" stroke="midnightblue" d="M1522.5,-247.25C1522.5,-236.02 1522.5,-223.38 1522.5,-215.19"/>
<polygon fill="midnightblue" stroke="midnightblue" points="1519,-247.4 1522.5,-257.4 1526,-247.4 1519,-247.4"/>
</g>
<!-- Node32&#45;&gt;Node4 -->
<g id="edge60" class="edge">
<title>Node32&#45;&gt;Node4</title>
<path fill="none" stroke="midnightblue" d="M347.48,-314.52C340.68,-285.21 332.19,-227.53 358.5,-190 407.91,-119.51 680.8,-86.24 783.98,-76.05"/>
<polygon fill="midnightblue" stroke="midnightblue" points="344.09,-315.42 349.92,-324.27 350.88,-313.72 344.09,-315.42"/>
</g>
<!-- Node33 -->
<g id="node33" class="node">
<title>Node33</title>
<g id="a_node33"><a xlink:href="severity__index_8c.html" target="_top" xlink:title=" ">
<polygon fill="none" stroke="black" points="222.5,-263 222.5,-282 324.5,-282 324.5,-263 222.5,-263"/>
<text text-anchor="middle" x="273.5" y="-270" font-family="Helvetica,sans-Serif" font-size="10.00">src/severity_index.c</text>
</a>
</g>
</g>
<!-- Node32&#45;&gt;Node33 -->
<g id="edge61" class="edge">
<title>Node32&#45;&gt;Node33</title>
<path fill="none" stroke="midnightblue" d="M332.97,-318.29C317.82,-306.88 297.34,-291.46 284.8,-282.01"/>
<polygon fill="midnightblue" stroke="midnightblue" points="331.09,-321.25 341.18,-324.48 335.3,-315.66 331.09,-321.25"/>
</g>
</g>
</svg>
