<?xml version="1.0" encoding="UTF-8" standalone="no"?>
<!DOCTYPE svg PUBLIC "-//W3C//DTD SVG 1.1//EN"
 "http://www.w3.org/Graphics/SVG/1.1/DTD/svg11.dtd">
<!-- Generated by graphviz version 2.49.3 (20211027.1534)
 -->
<!-- Title: include/utils.h Pages: 1 -->
<svg width="1923pt" height="408pt"
 viewBox="0.00 0.00 1923.00 408.00" xmlns="http://www.w3.org/2000/svg" xmlns:xlink="http://www.w3.org/1999/xlink">
<g id="graph0" class="graph" transform="scale(1 1) rotate(0) translate(4 404)">
<title>include/utils.h</title>
<!-- Node1 -->
<g id="node1" class="node">
<title>Node1</title>
<g id="a_node1"><a xlink:title=" ">
<polygon fill="#bfbfbf" stroke="black" points="919.5,-380.5 919.5,-399.5 995.5,-399.5 995.5,-380.5 919.5,-380.5"/>
<text text-anchor="middle" x="957.5" y="-387.5" font-family="Helvetica,sans-Serif" font-size="10.00">include/utils.h</text>
</a>
</g>
</g>
<!-- Node2 -->
<g id="node2" class="node">
<title>Node2</title>
<g id="a_node2"><a xlink:href="stations_8h.html" target="_top" xlink:title=" ">
<polygon fill="none" stroke="black" points="46.5,-196 46.5,-215 164.5,-215 164.5,-196 46.5,-196"/>
<text text-anchor="middle" x="105.5" y="-203" font-family="Helvetica,sans-Serif" font-size="10.00">include/BOM/stations.h</text>
</a>
</g>
</g>
<!-- Node1&#45;&gt;Node2 -->
<g id="edge1" class="edge">
<title>Node1&#45;&gt;Node2</title>
<path fill="none" stroke="midnightblue" d="M909.07,-387.46C782.96,-383.15 446.75,-369.53 338.5,-344 274.88,-329 258.41,-321.87 202.5,-288 166.38,-266.12 129.88,-231.22 113.88,-215.13"/>
<polygon fill="midnightblue" stroke="midnightblue" points="909.08,-390.97 919.19,-387.81 909.32,-383.97 909.08,-390.97"/>
</g>
<!-- Node8 -->
<g id="node8" class="node">
<title>Node8</title>
<g id="a_node8"><a xlink:href="harvest__area_8h.html" target="_top" xlink:title=" ">
<polygon fill="none" stroke="black" points="557.5,-257.5 557.5,-287.5 667.5,-287.5 667.5,-257.5 557.5,-257.5"/>
<text text-anchor="start" x="565.5" y="-275.5" font-family="Helvetica,sans-Serif" font-size="10.00">include/FoodAuthority</text>
<text text-anchor="middle" x="612.5" y="-264.5" font-family="Helvetica,sans-Serif" font-size="10.00">/harvest_area.h</text>
</a>
</g>
</g>
<!-- Node1&#45;&gt;Node8 -->
<g id="edge8" class="edge">
<title>Node1&#45;&gt;Node8</title>
<path fill="none" stroke="midnightblue" d="M909.18,-387.07C856.97,-383.49 772.29,-373.24 705.5,-344 674.13,-330.27 643.65,-303.94 626.55,-287.63"/>
<polygon fill="midnightblue" stroke="midnightblue" points="908.98,-390.57 919.18,-387.7 909.42,-383.58 908.98,-390.57"/>
</g>
<!-- Node9 -->
<g id="node9" class="node">
<title>Node9</title>
<g id="a_node9"><a xlink:href="harvest__areas_8h.html" target="_top" xlink:title=" ">
<polygon fill="none" stroke="black" points="328.5,-190.5 328.5,-220.5 438.5,-220.5 438.5,-190.5 328.5,-190.5"/>
<text text-anchor="start" x="336.5" y="-208.5" font-family="Helvetica,sans-Serif" font-size="10.00">include/FoodAuthority</text>
<text text-anchor="middle" x="383.5" y="-197.5" font-family="Helvetica,sans-Serif" font-size="10.00">/harvest_areas.h</text>
</a>
</g>
</g>
<!-- Node1&#45;&gt;Node9 -->
<g id="edge14" class="edge">
<title>Node1&#45;&gt;Node9</title>
<path fill="none" stroke="midnightblue" d="M909.15,-388.64C817.42,-385.97 614.33,-370.37 469.5,-288 438.39,-270.31 409.84,-239.01 394.74,-220.78"/>
<polygon fill="midnightblue" stroke="midnightblue" points="909.17,-392.14 919.25,-388.9 909.35,-385.14 909.17,-392.14"/>
</g>
<!-- Node12 -->
<g id="node12" class="node">
<title>Node12</title>
<g id="a_node12"><a xlink:href="_i_b_m___e_i_s_2authenticate_8h.html" target="_top" xlink:title=" ">
<polygon fill="none" stroke="black" points="803,-263 803,-282 956,-282 956,-263 803,-263"/>
<text text-anchor="middle" x="879.5" y="-270" font-family="Helvetica,sans-Serif" font-size="10.00">include/IBM_EIS/authenticate.h</text>
</a>
</g>
</g>
<!-- Node1&#45;&gt;Node12 -->
<g id="edge15" class="edge">
<title>Node1&#45;&gt;Node12</title>
<path fill="none" stroke="midnightblue" d="M945.91,-371.84C929.04,-346.86 898.31,-301.36 885.43,-282.28"/>
<polygon fill="midnightblue" stroke="midnightblue" points="943.14,-373.99 951.64,-380.32 948.94,-370.07 943.14,-373.99"/>
</g>
<!-- Node13 -->
<g id="node13" class="node">
<title>Node13</title>
<g id="a_node13"><a xlink:href="timeseries_8h.html" target="_top" xlink:title=" ">
<polygon fill="none" stroke="black" points="641,-196 641,-215 786,-215 786,-196 641,-196"/>
<text text-anchor="middle" x="713.5" y="-203" font-family="Helvetica,sans-Serif" font-size="10.00">include/IBM_EIS/timeseries.h</text>
</a>
</g>
</g>
<!-- Node1&#45;&gt;Node13 -->
<g id="edge21" class="edge">
<title>Node1&#45;&gt;Node13</title>
<path fill="none" stroke="midnightblue" d="M914.59,-377.57C868.7,-363.39 796.34,-335.14 750.5,-288 729.7,-266.61 719.29,-231.46 715.38,-215.22"/>
<polygon fill="midnightblue" stroke="midnightblue" points="913.66,-380.95 924.25,-380.47 915.67,-374.24 913.66,-380.95"/>
</g>
<!-- Node16 -->
<g id="node16" class="node">
<title>Node16</title>
<g id="a_node16"><a xlink:href="devices_8h.html" target="_top" xlink:title=" ">
<polygon fill="none" stroke="black" points="996.5,-196 996.5,-215 1124.5,-215 1124.5,-196 996.5,-196"/>
<text text-anchor="middle" x="1060.5" y="-203" font-family="Helvetica,sans-Serif" font-size="10.00">include/Ubidots/devices.h</text>
</a>
</g>
</g>
<!-- Node1&#45;&gt;Node16 -->
<g id="edge22" class="edge">
<title>Node1&#45;&gt;Node16</title>
<path fill="none" stroke="midnightblue" d="M967.54,-371.21C989.2,-332.83 1039.64,-243.45 1055.58,-215.21"/>
<polygon fill="midnightblue" stroke="midnightblue" points="964.33,-369.77 962.47,-380.2 970.43,-373.21 964.33,-369.77"/>
</g>
<!-- Node18 -->
<g id="node18" class="node">
<title>Node18</title>
<g id="a_node18"><a xlink:href="location_8h.html" target="_top" xlink:title=" ">
<polygon fill="none" stroke="black" points="1616,-190.5 1616,-220.5 1723,-220.5 1723,-190.5 1616,-190.5"/>
<text text-anchor="start" x="1624" y="-208.5" font-family="Helvetica,sans-Serif" font-size="10.00">include/WillyWeather</text>
<text text-anchor="middle" x="1669.5" y="-197.5" font-family="Helvetica,sans-Serif" font-size="10.00">/location.h</text>
</a>
</g>
</g>
<!-- Node1&#45;&gt;Node18 -->
<g id="edge25" class="edge">
<title>Node1&#45;&gt;Node18</title>
<path fill="none" stroke="midnightblue" d="M1005.88,-389.4C1112.73,-388.54 1374.93,-376.75 1570.5,-288 1606.18,-271.81 1639.59,-239.36 1656.99,-220.66"/>
<polygon fill="midnightblue" stroke="midnightblue" points="1005.71,-385.9 995.73,-389.45 1005.74,-392.9 1005.71,-385.9"/>
</g>
<!-- Node19 -->
<g id="node19" class="node">
<title>Node19</title>
<g id="a_node19"><a xlink:href="precipitation_8h.html" target="_top" xlink:title=" ">
<polygon fill="none" stroke="black" points="1736,-123.5 1736,-153.5 1843,-153.5 1843,-123.5 1736,-123.5"/>
<text text-anchor="start" x="1744" y="-141.5" font-family="Helvetica,sans-Serif" font-size="10.00">include/WillyWeather</text>
<text text-anchor="middle" x="1789.5" y="-130.5" font-family="Helvetica,sans-Serif" font-size="10.00">/precipitation.h</text>
</a>
</g>
</g>
<!-- Node1&#45;&gt;Node19 -->
<g id="edge33" class="edge">
<title>Node1&#45;&gt;Node19</title>
<path fill="none" stroke="midnightblue" d="M1005.87,-389.01C1101.7,-388.16 1322.03,-381.83 1502.5,-344 1577.47,-328.28 1597.38,-323.04 1665.5,-288 1711.12,-264.53 1728.36,-261.78 1759.5,-221 1775.15,-200.51 1783.28,-171.03 1786.95,-153.71"/>
<polygon fill="midnightblue" stroke="midnightblue" points="1005.6,-385.51 995.63,-389.09 1005.65,-392.51 1005.6,-385.51"/>
</g>
<!-- Node21 -->
<g id="node21" class="node">
<title>Node21</title>
<g id="a_node21"><a xlink:href="tide_8h.html" target="_top" xlink:title=" ">
<polygon fill="none" stroke="black" points="1369,-123.5 1369,-153.5 1476,-153.5 1476,-123.5 1369,-123.5"/>
<text text-anchor="start" x="1377" y="-141.5" font-family="Helvetica,sans-Serif" font-size="10.00">include/WillyWeather</text>
<text text-anchor="middle" x="1422.5" y="-130.5" font-family="Helvetica,sans-Serif" font-size="10.00">/tide.h</text>
</a>
</g>
</g>
<!-- Node1&#45;&gt;Node21 -->
<g id="edge34" class="edge">
<title>Node1&#45;&gt;Node21</title>
<path fill="none" stroke="midnightblue" d="M1005.76,-388.73C1095.18,-387.33 1292.17,-380.01 1453.5,-344 1524.58,-328.13 1541.01,-317.72 1607.5,-288 1665.04,-262.27 1700.13,-275.08 1732.5,-221 1739.58,-209.18 1741.42,-200.5 1732.5,-190 1716.1,-170.71 1560.29,-152.83 1476.01,-144.46"/>
<polygon fill="midnightblue" stroke="midnightblue" points="1005.61,-385.23 995.66,-388.87 1005.71,-392.23 1005.61,-385.23"/>
</g>
<!-- Node24 -->
<g id="node24" class="node">
<title>Node24</title>
<g id="a_node24"><a xlink:href="ftp_8h.html" target="_top" xlink:title=" ">
<polygon fill="none" stroke="black" points="212,-263 212,-282 281,-282 281,-263 212,-263"/>
<text text-anchor="middle" x="246.5" y="-270" font-family="Helvetica,sans-Serif" font-size="10.00">include/ftp.h</text>
</a>
</g>
</g>
<!-- Node1&#45;&gt;Node24 -->
<g id="edge35" class="edge">
<title>Node1&#45;&gt;Node24</title>
<path fill="none" stroke="midnightblue" d="M909.39,-387.28C792.35,-382.76 495.33,-369.1 399.5,-344 345.46,-329.85 286.89,-297.57 260.63,-282.09"/>
<polygon fill="midnightblue" stroke="midnightblue" points="909.36,-390.78 919.49,-387.67 909.63,-383.79 909.36,-390.78"/>
</g>
<!-- Node26 -->
<g id="node26" class="node">
<title>Node26</title>
<g id="a_node26"><a xlink:href="http_8h.html" target="_top" xlink:title=" ">
<polygon fill="none" stroke="black" points="1042.5,-324.5 1042.5,-343.5 1116.5,-343.5 1116.5,-324.5 1042.5,-324.5"/>
<text text-anchor="middle" x="1079.5" y="-331.5" font-family="Helvetica,sans-Serif" font-size="10.00">include/http.h</text>
</a>
</g>
</g>
<!-- Node1&#45;&gt;Node26 -->
<g id="edge40" class="edge">
<title>Node1&#45;&gt;Node26</title>
<path fill="none" stroke="midnightblue" d="M986.04,-376.37C1008.89,-366.26 1040.31,-352.35 1060.26,-343.52"/>
<polygon fill="midnightblue" stroke="midnightblue" points="984.56,-373.2 976.83,-380.44 987.39,-379.6 984.56,-373.2"/>
</g>
<!-- Node32 -->
<g id="node32" class="node">
<title>Node32</title>
<g id="a_node32"><a xlink:href="utils_8c.html" target="_top" xlink:title=" ">
<polygon fill="none" stroke="black" points="1856,-324.5 1856,-343.5 1915,-343.5 1915,-324.5 1856,-324.5"/>
<text text-anchor="middle" x="1885.5" y="-331.5" font-family="Helvetica,sans-Serif" font-size="10.00">src/utils.c</text>
</a>
</g>
</g>
<!-- Node1&#45;&gt;Node32 -->
<g id="edge59" class="edge">
<title>Node1&#45;&gt;Node32</title>
<path fill="none" stroke="midnightblue" d="M1005.89,-389.09C1139.49,-388.8 1524.61,-384.24 1841.5,-344 1846.14,-343.41 1851.02,-342.6 1855.78,-341.71"/>
<polygon fill="midnightblue" stroke="midnightblue" points="1005.59,-385.59 995.59,-389.11 1005.6,-392.59 1005.59,-385.59"/>
</g>
<!-- Node3 -->
<g id="node3" class="node">
<title>Node3</title>
<g id="a_node3"><a xlink:href="historical__weather_8h.html" target="_top" xlink:title=" ">
<polygon fill="none" stroke="black" points="119,-123.5 119,-153.5 234,-153.5 234,-123.5 119,-123.5"/>
<text text-anchor="start" x="127" y="-141.5" font-family="Helvetica,sans-Serif" font-size="10.00">include/BOM/historical</text>
<text text-anchor="middle" x="176.5" y="-130.5" font-family="Helvetica,sans-Serif" font-size="10.00">_weather.h</text>
</a>
</g>
</g>
<!-- Node2&#45;&gt;Node3 -->
<g id="edge2" class="edge">
<title>Node2&#45;&gt;Node3</title>
<path fill="none" stroke="midnightblue" d="M122.51,-188.93C134.25,-178.18 149.74,-164 161.11,-153.59"/>
<polygon fill="midnightblue" stroke="midnightblue" points="120.09,-186.4 115.08,-195.73 124.81,-191.56 120.09,-186.4"/>
</g>
<!-- Node4 -->
<g id="node4" class="node">
<title>Node4</title>
<g id="a_node4"><a xlink:href="main_8h.html" target="_top" xlink:title=" ">
<polygon fill="none" stroke="black" points="879,-62 879,-81 958,-81 958,-62 879,-62"/>
<text text-anchor="middle" x="918.5" y="-69" font-family="Helvetica,sans-Serif" font-size="10.00">include/main.h</text>
</a>
</g>
</g>
<!-- Node2&#45;&gt;Node4 -->
<g id="edge6" class="edge">
<title>Node2&#45;&gt;Node4</title>
<path fill="none" stroke="midnightblue" d="M145.14,-192.92C173.14,-184.02 211.12,-170.48 242.5,-154 263.68,-142.88 264,-131.13 286.5,-123 396.23,-83.35 757.64,-74.74 878.63,-72.95"/>
<polygon fill="midnightblue" stroke="midnightblue" points="143.82,-189.67 135.31,-195.98 145.9,-196.35 143.82,-189.67"/>
</g>
<!-- Node7 -->
<g id="node7" class="node">
<title>Node7</title>
<g id="a_node7"><a xlink:href="stations_8c.html" target="_top" xlink:title=" ">
<polygon fill="none" stroke="black" points="0,-129 0,-148 101,-148 101,-129 0,-129"/>
<text text-anchor="middle" x="50.5" y="-136" font-family="Helvetica,sans-Serif" font-size="10.00">src/BOM/stations.c</text>
</a>
</g>
</g>
<!-- Node2&#45;&gt;Node7 -->
<g id="edge7" class="edge">
<title>Node2&#45;&gt;Node7</title>
<path fill="none" stroke="midnightblue" d="M91.34,-187.77C80.62,-175.1 66.32,-158.2 57.8,-148.13"/>
<polygon fill="midnightblue" stroke="midnightblue" points="88.95,-190.36 98.08,-195.73 94.29,-185.84 88.95,-190.36"/>
</g>
<!-- Node3&#45;&gt;Node4 -->
<g id="edge3" class="edge">
<title>Node3&#45;&gt;Node4</title>
<path fill="none" stroke="midnightblue" d="M244.08,-123.64C245.56,-123.41 247.04,-123.2 248.5,-123 486.26,-90.23 774.63,-77.51 878.67,-73.79"/>
<polygon fill="midnightblue" stroke="midnightblue" points="243.48,-120.19 234.16,-125.24 244.59,-127.1 243.48,-120.19"/>
</g>
<!-- Node6 -->
<g id="node6" class="node">
<title>Node6</title>
<g id="a_node6"><a xlink:href="historical__weather_8c.html" target="_top" xlink:title=" ">
<polygon fill="none" stroke="black" points="127.5,-56.5 127.5,-86.5 225.5,-86.5 225.5,-56.5 127.5,-56.5"/>
<text text-anchor="start" x="135.5" y="-74.5" font-family="Helvetica,sans-Serif" font-size="10.00">src/BOM/historical</text>
<text text-anchor="middle" x="176.5" y="-63.5" font-family="Helvetica,sans-Serif" font-size="10.00">_weather.c</text>
</a>
</g>
</g>
<!-- Node3&#45;&gt;Node6 -->
<g id="edge5" class="edge">
<title>Node3&#45;&gt;Node6</title>
<path fill="none" stroke="midnightblue" d="M176.5,-113.11C176.5,-104.15 176.5,-94.32 176.5,-86.58"/>
<polygon fill="midnightblue" stroke="midnightblue" points="173,-113.4 176.5,-123.4 180,-113.4 173,-113.4"/>
</g>
<!-- Node5 -->
<g id="node5" class="node">
<title>Node5</title>
<g id="a_node5"><a xlink:href="main_8c.html" target="_top" xlink:title=" ">
<polygon fill="none" stroke="black" points="887.5,-0.5 887.5,-19.5 949.5,-19.5 949.5,-0.5 887.5,-0.5"/>
<text text-anchor="middle" x="918.5" y="-7.5" font-family="Helvetica,sans-Serif" font-size="10.00">src/main.c</text>
</a>
</g>
</g>
<!-- Node4&#45;&gt;Node5 -->
<g id="edge4" class="edge">
<title>Node4&#45;&gt;Node5</title>
<path fill="none" stroke="midnightblue" d="M918.5,-51.82C918.5,-41 918.5,-27.9 918.5,-19.51"/>
<polygon fill="midnightblue" stroke="midnightblue" points="915,-51.98 918.5,-61.98 922,-51.98 915,-51.98"/>
</g>
<!-- Node8&#45;&gt;Node4 -->
<g id="edge12" class="edge">
<title>Node8&#45;&gt;Node4</title>
<path fill="none" stroke="midnightblue" d="M609.44,-247.15C606.78,-214.18 607.56,-155.72 640.5,-123 673.52,-90.2 810.32,-78.28 878.92,-74.31"/>
<polygon fill="midnightblue" stroke="midnightblue" points="605.98,-247.67 610.43,-257.28 612.94,-246.98 605.98,-247.67"/>
</g>
<!-- Node8&#45;&gt;Node9 -->
<g id="edge9" class="edge">
<title>Node8&#45;&gt;Node9</title>
<path fill="none" stroke="midnightblue" d="M553.36,-254.71C516.1,-244.14 468.53,-230.63 433.21,-220.61"/>
<polygon fill="midnightblue" stroke="midnightblue" points="552.52,-258.11 563.09,-257.48 554.43,-251.38 552.52,-258.11"/>
</g>
<!-- Node11 -->
<g id="node11" class="node">
<title>Node11</title>
<g id="a_node11"><a xlink:href="harvest__area_8c.html" target="_top" xlink:title=" ">
<polygon fill="none" stroke="black" points="456.5,-190.5 456.5,-220.5 584.5,-220.5 584.5,-190.5 456.5,-190.5"/>
<text text-anchor="start" x="464.5" y="-208.5" font-family="Helvetica,sans-Serif" font-size="10.00">src/FoodAuthority/harvest</text>
<text text-anchor="middle" x="520.5" y="-197.5" font-family="Helvetica,sans-Serif" font-size="10.00">_area.c</text>
</a>
</g>
</g>
<!-- Node8&#45;&gt;Node11 -->
<g id="edge13" class="edge">
<title>Node8&#45;&gt;Node11</title>
<path fill="none" stroke="midnightblue" d="M584.12,-251.45C569.97,-241.45 553.19,-229.6 540.42,-220.58"/>
<polygon fill="midnightblue" stroke="midnightblue" points="582.35,-254.48 592.54,-257.4 586.39,-248.77 582.35,-254.48"/>
</g>
<!-- Node9&#45;&gt;Node4 -->
<g id="edge10" class="edge">
<title>Node9&#45;&gt;Node4</title>
<path fill="none" stroke="midnightblue" d="M423.71,-186.39C466.3,-167.9 535.91,-139.61 598.5,-123 697.44,-96.74 817.44,-82.29 878.54,-76.14"/>
<polygon fill="midnightblue" stroke="midnightblue" points="422.29,-183.2 414.53,-190.41 425.09,-189.61 422.29,-183.2"/>
</g>
<!-- Node10 -->
<g id="node10" class="node">
<title>Node10</title>
<g id="a_node10"><a xlink:href="harvest__areas_8c.html" target="_top" xlink:title=" ">
<polygon fill="none" stroke="black" points="328.5,-123.5 328.5,-153.5 456.5,-153.5 456.5,-123.5 328.5,-123.5"/>
<text text-anchor="start" x="336.5" y="-141.5" font-family="Helvetica,sans-Serif" font-size="10.00">src/FoodAuthority/harvest</text>
<text text-anchor="middle" x="392.5" y="-130.5" font-family="Helvetica,sans-Serif" font-size="10.00">_areas.c</text>
</a>
</g>
</g>
<!-- Node9&#45;&gt;Node10 -->
<g id="edge11" class="edge">
<title>Node9&#45;&gt;Node10</title>
<path fill="none" stroke="midnightblue" d="M386.84,-180.4C388.09,-171.37 389.47,-161.41 390.55,-153.58"/>
<polygon fill="midnightblue" stroke="midnightblue" points="383.36,-180.01 385.45,-190.4 390.29,-180.97 383.36,-180.01"/>
</g>
<!-- Node12&#45;&gt;Node4 -->
<g id="edge19" class="edge">
<title>Node12&#45;&gt;Node4</title>
<path fill="none" stroke="midnightblue" d="M909.31,-258.31C924.29,-249.95 941.02,-237.57 949.5,-221 974.45,-172.23 938.39,-104.68 923.99,-81.06"/>
<polygon fill="midnightblue" stroke="midnightblue" points="907.56,-255.27 900.3,-262.99 910.79,-261.48 907.56,-255.27"/>
</g>
<!-- Node12&#45;&gt;Node13 -->
<g id="edge16" class="edge">
<title>Node12&#45;&gt;Node13</title>
<path fill="none" stroke="midnightblue" d="M847.84,-259.1C814.88,-246.2 764.14,-226.33 735.37,-215.06"/>
<polygon fill="midnightblue" stroke="midnightblue" points="846.87,-262.48 857.46,-262.87 849.42,-255.96 846.87,-262.48"/>
</g>
<!-- Node15 -->
<g id="node15" class="node">
<title>Node15</title>
<g id="a_node15"><a xlink:href="_i_b_m___e_i_s_2authenticate_8c.html" target="_top" xlink:title=" ">
<polygon fill="none" stroke="black" points="804.5,-196 804.5,-215 940.5,-215 940.5,-196 804.5,-196"/>
<text text-anchor="middle" x="872.5" y="-203" font-family="Helvetica,sans-Serif" font-size="10.00">src/IBM_EIS/authenticate.c</text>
</a>
</g>
</g>
<!-- Node12&#45;&gt;Node15 -->
<g id="edge20" class="edge">
<title>Node12&#45;&gt;Node15</title>
<path fill="none" stroke="midnightblue" d="M877.46,-252.54C876.13,-240.17 874.45,-224.62 873.43,-215.13"/>
<polygon fill="midnightblue" stroke="midnightblue" points="874.01,-253.17 878.56,-262.73 880.97,-252.42 874.01,-253.17"/>
</g>
<!-- Node13&#45;&gt;Node4 -->
<g id="edge17" class="edge">
<title>Node13&#45;&gt;Node4</title>
<path fill="none" stroke="midnightblue" d="M735.48,-190.35C778.1,-162.9 870.82,-103.2 905.27,-81.02"/>
<polygon fill="midnightblue" stroke="midnightblue" points="733.46,-187.48 726.95,-195.84 737.25,-193.37 733.46,-187.48"/>
</g>
<!-- Node14 -->
<g id="node14" class="node">
<title>Node14</title>
<g id="a_node14"><a xlink:href="timeseries_8c.html" target="_top" xlink:title=" ">
<polygon fill="none" stroke="black" points="649.5,-129 649.5,-148 777.5,-148 777.5,-129 649.5,-129"/>
<text text-anchor="middle" x="713.5" y="-136" font-family="Helvetica,sans-Serif" font-size="10.00">src/IBM_EIS/timeseries.c</text>
</a>
</g>
</g>
<!-- Node13&#45;&gt;Node14 -->
<g id="edge18" class="edge">
<title>Node13&#45;&gt;Node14</title>
<path fill="none" stroke="midnightblue" d="M713.5,-185.54C713.5,-173.17 713.5,-157.62 713.5,-148.13"/>
<polygon fill="midnightblue" stroke="midnightblue" points="710,-185.73 713.5,-195.73 717,-185.73 710,-185.73"/>
</g>
<!-- Node16&#45;&gt;Node4 -->
<g id="edge23" class="edge">
<title>Node16&#45;&gt;Node4</title>
<path fill="none" stroke="midnightblue" d="M1082.56,-190.22C1105.34,-173.7 1135.27,-145.84 1117.5,-123 1098.13,-98.1 1010.42,-83.49 958.12,-76.85"/>
<polygon fill="midnightblue" stroke="midnightblue" points="1080.5,-187.39 1074.29,-195.97 1084.5,-193.14 1080.5,-187.39"/>
</g>
<!-- Node17 -->
<g id="node17" class="node">
<title>Node17</title>
<g id="a_node17"><a xlink:href="devices_8c.html" target="_top" xlink:title=" ">
<polygon fill="none" stroke="black" points="997,-129 997,-148 1108,-148 1108,-129 997,-129"/>
<text text-anchor="middle" x="1052.5" y="-136" font-family="Helvetica,sans-Serif" font-size="10.00">src/Ubidots/devices.c</text>
</a>
</g>
</g>
<!-- Node16&#45;&gt;Node17 -->
<g id="edge24" class="edge">
<title>Node16&#45;&gt;Node17</title>
<path fill="none" stroke="midnightblue" d="M1058.17,-185.54C1056.64,-173.17 1054.73,-157.62 1053.56,-148.13"/>
<polygon fill="midnightblue" stroke="midnightblue" points="1054.73,-186.24 1059.42,-195.73 1061.67,-185.38 1054.73,-186.24"/>
</g>
<!-- Node18&#45;&gt;Node19 -->
<g id="edge26" class="edge">
<title>Node18&#45;&gt;Node19</title>
<path fill="none" stroke="midnightblue" d="M1704.44,-185.57C1723.32,-175.35 1746.23,-162.94 1763.51,-153.58"/>
<polygon fill="midnightblue" stroke="midnightblue" points="1702.66,-182.56 1695.54,-190.4 1706,-188.71 1702.66,-182.56"/>
</g>
<!-- Node18&#45;&gt;Node21 -->
<g id="edge29" class="edge">
<title>Node18&#45;&gt;Node21</title>
<path fill="none" stroke="midnightblue" d="M1606.49,-187.92C1566.18,-177.31 1514.46,-163.7 1476.12,-153.61"/>
<polygon fill="midnightblue" stroke="midnightblue" points="1605.65,-191.32 1616.21,-190.48 1607.43,-184.55 1605.65,-191.32"/>
</g>
<!-- Node23 -->
<g id="node23" class="node">
<title>Node23</title>
<g id="a_node23"><a xlink:href="location_8c.html" target="_top" xlink:title=" ">
<polygon fill="none" stroke="black" points="1583.5,-129 1583.5,-148 1717.5,-148 1717.5,-129 1583.5,-129"/>
<text text-anchor="middle" x="1650.5" y="-136" font-family="Helvetica,sans-Serif" font-size="10.00">src/WillyWeather/location.c</text>
</a>
</g>
</g>
<!-- Node18&#45;&gt;Node23 -->
<g id="edge32" class="edge">
<title>Node18&#45;&gt;Node23</title>
<path fill="none" stroke="midnightblue" d="M1662.51,-180.6C1659.2,-169.28 1655.46,-156.46 1653.04,-148.19"/>
<polygon fill="midnightblue" stroke="midnightblue" points="1659.21,-181.78 1665.38,-190.4 1665.93,-179.82 1659.21,-181.78"/>
</g>
<!-- Node19&#45;&gt;Node4 -->
<g id="edge27" class="edge">
<title>Node19&#45;&gt;Node4</title>
<path fill="none" stroke="midnightblue" d="M1725.98,-123.15C1556.47,-100.21 1096.04,-79.87 958.05,-74.11"/>
<polygon fill="midnightblue" stroke="midnightblue" points="1725.61,-126.63 1736,-124.56 1726.58,-119.7 1725.61,-126.63"/>
</g>
<!-- Node20 -->
<g id="node20" class="node">
<title>Node20</title>
<g id="a_node20"><a xlink:href="precipitation_8c.html" target="_top" xlink:title=" ">
<polygon fill="none" stroke="black" points="1713.5,-62 1713.5,-81 1865.5,-81 1865.5,-62 1713.5,-62"/>
<text text-anchor="middle" x="1789.5" y="-69" font-family="Helvetica,sans-Serif" font-size="10.00">src/WillyWeather/precipitation.c</text>
</a>
</g>
</g>
<!-- Node19&#45;&gt;Node20 -->
<g id="edge28" class="edge">
<title>Node19&#45;&gt;Node20</title>
<path fill="none" stroke="midnightblue" d="M1789.5,-113.25C1789.5,-102.02 1789.5,-89.38 1789.5,-81.19"/>
<polygon fill="midnightblue" stroke="midnightblue" points="1786,-113.4 1789.5,-123.4 1793,-113.4 1786,-113.4"/>
</g>
<!-- Node21&#45;&gt;Node4 -->
<g id="edge30" class="edge">
<title>Node21&#45;&gt;Node4</title>
<path fill="none" stroke="midnightblue" d="M1358.9,-123.74C1357.42,-123.49 1355.95,-123.24 1354.5,-123 1209.19,-99.15 1034.81,-82.53 958.05,-75.82"/>
<polygon fill="midnightblue" stroke="midnightblue" points="1358.3,-127.19 1368.77,-125.55 1359.56,-120.31 1358.3,-127.19"/>
</g>
<!-- Node22 -->
<g id="node22" class="node">
<title>Node22</title>
<g id="a_node22"><a xlink:href="tide_8c.html" target="_top" xlink:title=" ">
<polygon fill="none" stroke="black" points="1364.5,-62 1364.5,-81 1480.5,-81 1480.5,-62 1364.5,-62"/>
<text text-anchor="middle" x="1422.5" y="-69" font-family="Helvetica,sans-Serif" font-size="10.00">src/WillyWeather/tide.c</text>
</a>
</g>
</g>
<!-- Node21&#45;&gt;Node22 -->
<g id="edge31" class="edge">
<title>Node21&#45;&gt;Node22</title>
<path fill="none" stroke="midnightblue" d="M1422.5,-113.25C1422.5,-102.02 1422.5,-89.38 1422.5,-81.19"/>
<polygon fill="midnightblue" stroke="midnightblue" points="1419,-113.4 1422.5,-123.4 1426,-113.4 1419,-113.4"/>
</g>
<!-- Node24&#45;&gt;Node2 -->
<g id="edge37" class="edge">
<title>Node24&#45;&gt;Node2</title>
<path fill="none" stroke="midnightblue" d="M218.54,-258.61C190.62,-245.74 148.46,-226.31 124.3,-215.17"/>
<polygon fill="midnightblue" stroke="midnightblue" points="217.23,-261.86 227.78,-262.87 220.16,-255.5 217.23,-261.86"/>
</g>
<!-- Node24&#45;&gt;Node3 -->
<g id="edge36" class="edge">
<title>Node24&#45;&gt;Node3</title>
<path fill="none" stroke="midnightblue" d="M233.59,-254.71C226.57,-245.13 218,-232.74 211.5,-221 198.96,-198.37 187.81,-170.34 181.62,-153.75"/>
<polygon fill="midnightblue" stroke="midnightblue" points="230.94,-257.01 239.75,-262.91 236.54,-252.81 230.94,-257.01"/>
</g>
<!-- Node24&#45;&gt;Node4 -->
<g id="edge38" class="edge">
<title>Node24&#45;&gt;Node4</title>
<path fill="none" stroke="midnightblue" d="M259.57,-254.8C266.65,-245.25 275.21,-232.85 281.5,-221 303.4,-179.74 282.1,-150.99 319.5,-123 364.15,-89.58 751.84,-76.76 878.59,-73.44"/>
<polygon fill="midnightblue" stroke="midnightblue" points="256.63,-252.89 253.36,-262.96 262.2,-257.12 256.63,-252.89"/>
</g>
<!-- Node25 -->
<g id="node25" class="node">
<title>Node25</title>
<g id="a_node25"><a xlink:href="ftp_8c.html" target="_top" xlink:title=" ">
<polygon fill="none" stroke="black" points="220.5,-196 220.5,-215 272.5,-215 272.5,-196 220.5,-196"/>
<text text-anchor="middle" x="246.5" y="-203" font-family="Helvetica,sans-Serif" font-size="10.00">src/ftp.c</text>
</a>
</g>
</g>
<!-- Node24&#45;&gt;Node25 -->
<g id="edge39" class="edge">
<title>Node24&#45;&gt;Node25</title>
<path fill="none" stroke="midnightblue" d="M246.5,-252.54C246.5,-240.17 246.5,-224.62 246.5,-215.13"/>
<polygon fill="midnightblue" stroke="midnightblue" points="243,-252.73 246.5,-262.73 250,-252.73 243,-252.73"/>
</g>
<!-- Node26&#45;&gt;Node4 -->
<g id="edge57" class="edge">
<title>Node26&#45;&gt;Node4</title>
<path fill="none" stroke="midnightblue" d="M1126.97,-329.27C1180.99,-323.93 1264.24,-311.97 1283.5,-288 1310.78,-254.05 1307.2,-226.54 1283.5,-190 1247.28,-134.15 1044.87,-93.85 958.06,-78.89"/>
<polygon fill="midnightblue" stroke="midnightblue" points="1126.54,-325.8 1116.92,-330.22 1127.2,-332.77 1126.54,-325.8"/>
</g>
<!-- Node26&#45;&gt;Node8 -->
<g id="edge41" class="edge">
<title>Node26&#45;&gt;Node8</title>
<path fill="none" stroke="midnightblue" d="M1032.36,-326.99C945.38,-315.91 760.11,-292.31 667.53,-280.51"/>
<polygon fill="midnightblue" stroke="midnightblue" points="1032.1,-330.49 1042.46,-328.28 1032.99,-323.55 1032.1,-330.49"/>
</g>
<!-- Node26&#45;&gt;Node9 -->
<g id="edge42" class="edge">
<title>Node26&#45;&gt;Node9</title>
<path fill="none" stroke="midnightblue" d="M1032.14,-331.25C919.61,-326.72 638.92,-313.19 548.5,-288 494.02,-272.83 436,-239.67 405.38,-220.66"/>
<polygon fill="midnightblue" stroke="midnightblue" points="1032.04,-334.75 1042.17,-331.64 1032.32,-327.75 1032.04,-334.75"/>
</g>
<!-- Node26&#45;&gt;Node12 -->
<g id="edge43" class="edge">
<title>Node26&#45;&gt;Node12</title>
<path fill="none" stroke="midnightblue" d="M1040.94,-321.53C1002.07,-309.96 942.98,-292.38 908.1,-282.01"/>
<polygon fill="midnightblue" stroke="midnightblue" points="1040.26,-324.98 1050.84,-324.48 1042.26,-318.27 1040.26,-324.98"/>
</g>
<!-- Node26&#45;&gt;Node13 -->
<g id="edge44" class="edge">
<title>Node26&#45;&gt;Node13</title>
<path fill="none" stroke="midnightblue" d="M1032.17,-329.11C962.22,-322.76 835.12,-308.76 794.5,-288 759.86,-270.29 731,-232.27 719.21,-215.16"/>
<polygon fill="midnightblue" stroke="midnightblue" points="1032.2,-332.63 1042.47,-330.03 1032.82,-325.65 1032.2,-332.63"/>
</g>
<!-- Node26&#45;&gt;Node16 -->
<g id="edge48" class="edge">
<title>Node26&#45;&gt;Node16</title>
<path fill="none" stroke="midnightblue" d="M1061.86,-317.15C1054.36,-309.23 1046.44,-299 1042.5,-288 1033.31,-262.35 1047.33,-230.42 1055.42,-215.27"/>
<polygon fill="midnightblue" stroke="midnightblue" points="1059.48,-319.72 1069.06,-324.24 1064.39,-314.73 1059.48,-319.72"/>
</g>
<!-- Node26&#45;&gt;Node18 -->
<g id="edge54" class="edge">
<title>Node26&#45;&gt;Node18</title>
<path fill="none" stroke="midnightblue" d="M1126.65,-330.64C1225.31,-325.32 1450.43,-311.01 1523.5,-288 1572.51,-272.57 1623.54,-239.51 1650.37,-220.58"/>
<polygon fill="midnightblue" stroke="midnightblue" points="1126.46,-327.15 1116.66,-331.18 1126.83,-334.14 1126.46,-327.15"/>
</g>
<!-- Node26&#45;&gt;Node19 -->
<g id="edge55" class="edge">
<title>Node26&#45;&gt;Node19</title>
<path fill="none" stroke="midnightblue" d="M1127.04,-333.34C1215.62,-332.96 1411.37,-327.24 1570.5,-288 1646.15,-269.35 1671.74,-269.77 1732.5,-221 1755.8,-202.3 1773.64,-171.66 1782.76,-153.75"/>
<polygon fill="midnightblue" stroke="midnightblue" points="1126.77,-329.84 1116.77,-333.37 1126.78,-336.84 1126.77,-329.84"/>
</g>
<!-- Node26&#45;&gt;Node21 -->
<g id="edge56" class="edge">
<title>Node26&#45;&gt;Node21</title>
<path fill="none" stroke="midnightblue" d="M1126.52,-328.25C1186.35,-321.51 1285.65,-307.74 1316.5,-288 1369.33,-254.2 1403.85,-183.85 1416.78,-153.71"/>
<polygon fill="midnightblue" stroke="midnightblue" points="1126.1,-324.78 1116.55,-329.35 1126.87,-331.74 1126.1,-324.78"/>
</g>
<!-- Node27 -->
<g id="node27" class="node">
<title>Node27</title>
<g id="a_node27"><a xlink:href="_ubidots_2authenticate_8h.html" target="_top" xlink:title=" ">
<polygon fill="none" stroke="black" points="1126.5,-263 1126.5,-282 1274.5,-282 1274.5,-263 1126.5,-263"/>
<text text-anchor="middle" x="1200.5" y="-270" font-family="Helvetica,sans-Serif" font-size="10.00">include/Ubidots/authenticate.h</text>
</a>
</g>
</g>
<!-- Node26&#45;&gt;Node27 -->
<g id="edge45" class="edge">
<title>Node26&#45;&gt;Node27</title>
<path fill="none" stroke="midnightblue" d="M1105.89,-320.02C1129.36,-308.48 1162.99,-291.94 1183.2,-282.01"/>
<polygon fill="midnightblue" stroke="midnightblue" points="1104.27,-316.92 1096.84,-324.48 1107.35,-323.2 1104.27,-316.92"/>
</g>
<!-- Node29 -->
<g id="node29" class="node">
<title>Node29</title>
<g id="a_node29"><a xlink:href="_willy_weather_2authenticate_8h.html" target="_top" xlink:title=" ">
<polygon fill="none" stroke="black" points="1407,-257.5 1407,-287.5 1514,-287.5 1514,-257.5 1407,-257.5"/>
<text text-anchor="start" x="1415" y="-275.5" font-family="Helvetica,sans-Serif" font-size="10.00">include/WillyWeather</text>
<text text-anchor="middle" x="1460.5" y="-264.5" font-family="Helvetica,sans-Serif" font-size="10.00">/authenticate.h</text>
</a>
</g>
</g>
<!-- Node26&#45;&gt;Node29 -->
<g id="edge49" class="edge">
<title>Node26&#45;&gt;Node29</title>
<path fill="none" stroke="midnightblue" d="M1126.89,-327.2C1188.34,-319.44 1298.75,-304.72 1392.5,-288 1397.13,-287.17 1401.94,-286.26 1406.74,-285.31"/>
<polygon fill="midnightblue" stroke="midnightblue" points="1126.22,-323.75 1116.73,-328.47 1127.09,-330.7 1126.22,-323.75"/>
</g>
<!-- Node31 -->
<g id="node31" class="node">
<title>Node31</title>
<g id="a_node31"><a xlink:href="http_8c.html" target="_top" xlink:title=" ">
<polygon fill="none" stroke="black" points="1051,-263 1051,-282 1108,-282 1108,-263 1051,-263"/>
<text text-anchor="middle" x="1079.5" y="-270" font-family="Helvetica,sans-Serif" font-size="10.00">src/http.c</text>
</a>
</g>
</g>
<!-- Node26&#45;&gt;Node31 -->
<g id="edge58" class="edge">
<title>Node26&#45;&gt;Node31</title>
<path fill="none" stroke="midnightblue" d="M1079.5,-314.32C1079.5,-303.5 1079.5,-290.4 1079.5,-282.01"/>
<polygon fill="midnightblue" stroke="midnightblue" points="1076,-314.48 1079.5,-324.48 1083,-314.48 1076,-314.48"/>
</g>
<!-- Node27&#45;&gt;Node16 -->
<g id="edge46" class="edge">
<title>Node27&#45;&gt;Node16</title>
<path fill="none" stroke="midnightblue" d="M1172.74,-258.61C1145.01,-245.74 1103.16,-226.31 1079.17,-215.17"/>
<polygon fill="midnightblue" stroke="midnightblue" points="1171.37,-261.83 1181.91,-262.87 1174.31,-255.48 1171.37,-261.83"/>
</g>
<!-- Node28 -->
<g id="node28" class="node">
<title>Node28</title>
<g id="a_node28"><a xlink:href="_ubidots_2authenticate_8c.html" target="_top" xlink:title=" ">
<polygon fill="none" stroke="black" points="1143,-196 1143,-215 1274,-215 1274,-196 1143,-196"/>
<text text-anchor="middle" x="1208.5" y="-203" font-family="Helvetica,sans-Serif" font-size="10.00">src/Ubidots/authenticate.c</text>
</a>
</g>
</g>
<!-- Node27&#45;&gt;Node28 -->
<g id="edge47" class="edge">
<title>Node27&#45;&gt;Node28</title>
<path fill="none" stroke="midnightblue" d="M1202.83,-252.54C1204.36,-240.17 1206.27,-224.62 1207.44,-215.13"/>
<polygon fill="midnightblue" stroke="midnightblue" points="1199.33,-252.38 1201.58,-262.73 1206.27,-253.24 1199.33,-252.38"/>
</g>
<!-- Node29&#45;&gt;Node4 -->
<g id="edge52" class="edge">
<title>Node29&#45;&gt;Node4</title>
<path fill="none" stroke="midnightblue" d="M1442.41,-249.54C1411.01,-212.03 1346.89,-138.19 1316.5,-123 1254.12,-91.82 1045.8,-78.52 958.03,-74.21"/>
<polygon fill="midnightblue" stroke="midnightblue" points="1439.85,-251.94 1448.94,-257.39 1445.23,-247.46 1439.85,-251.94"/>
</g>
<!-- Node29&#45;&gt;Node18 -->
<g id="edge50" class="edge">
<title>Node29&#45;&gt;Node18</title>
<path fill="none" stroke="midnightblue" d="M1515.34,-254.44C1549.22,-243.91 1592.17,-230.55 1624.13,-220.61"/>
<polygon fill="midnightblue" stroke="midnightblue" points="1514.1,-251.16 1505.59,-257.48 1516.18,-257.85 1514.1,-251.16"/>
</g>
<!-- Node29&#45;&gt;Node21 -->
<g id="edge51" class="edge">
<title>Node29&#45;&gt;Node21</title>
<path fill="none" stroke="midnightblue" d="M1447.79,-248.2C1443.67,-239.83 1439.41,-230.18 1436.5,-221 1429.21,-198.01 1425.46,-170.09 1423.74,-153.62"/>
<polygon fill="midnightblue" stroke="midnightblue" points="1444.8,-250.04 1452.48,-257.34 1451.03,-246.85 1444.8,-250.04"/>
</g>
<!-- Node30 -->
<g id="node30" class="node">
<title>Node30</title>
<g id="a_node30"><a xlink:href="_willy_weather_2authenticate_8c.html" target="_top" xlink:title=" ">
<polygon fill="none" stroke="black" points="1445,-196 1445,-215 1598,-215 1598,-196 1445,-196"/>
<text text-anchor="middle" x="1521.5" y="-203" font-family="Helvetica,sans-Serif" font-size="10.00">src/WillyWeather/authenticate.c</text>
</a>
</g>
</g>
<!-- Node29&#45;&gt;Node30 -->
<g id="edge53" class="edge">
<title>Node29&#45;&gt;Node30</title>
<path fill="none" stroke="midnightblue" d="M1480.68,-250C1491.81,-238.13 1505.03,-224.05 1513.34,-215.19"/>
<polygon fill="midnightblue" stroke="midnightblue" points="1478.03,-247.71 1473.74,-257.4 1483.13,-252.5 1478.03,-247.71"/>
</g>
</g>
</svg>
