<?xml version="1.0" encoding="UTF-8" standalone="no"?>
<!DOCTYPE svg PUBLIC "-//W3C//DTD SVG 1.1//EN"
 "http://www.w3.org/Graphics/SVG/1.1/DTD/svg11.dtd">
<!-- Generated by graphviz version 2.49.3 (20211027.1534)
 -->
<!-- Title: include/utils.h Pages: 1 -->
<svg width="1843pt" height="408pt"
 viewBox="0.00 0.00 1843.00 408.00" xmlns="http://www.w3.org/2000/svg" xmlns:xlink="http://www.w3.org/1999/xlink">
<g id="graph0" class="graph" transform="scale(1 1) rotate(0) translate(4 404)">
<title>include/utils.h</title>
<!-- Node1 -->
<g id="node1" class="node">
<title>Node1</title>
<g id="a_node1"><a xlink:title=" ">
<polygon fill="#bfbfbf" stroke="black" points="1000.5,-380.5 1000.5,-399.5 1076.5,-399.5 1076.5,-380.5 1000.5,-380.5"/>
<text text-anchor="middle" x="1038.5" y="-387.5" font-family="Helvetica,sans-Serif" font-size="10.00">include/utils.h</text>
</a>
</g>
</g>
<!-- Node2 -->
<g id="node2" class="node">
<title>Node2</title>
<g id="a_node2"><a xlink:href="stations_8h.html" target="_top" xlink:title=" ">
<polygon fill="none" stroke="black" points="46.5,-196 46.5,-215 164.5,-215 164.5,-196 46.5,-196"/>
<text text-anchor="middle" x="105.5" y="-203" font-family="Helvetica,sans-Serif" font-size="10.00">include/BOM/stations.h</text>
</a>
</g>
</g>
<!-- Node1&#45;&gt;Node2 -->
<g id="edge1" class="edge">
<title>Node1&#45;&gt;Node2</title>
<path fill="none" stroke="midnightblue" d="M989.87,-387.36C833.03,-381.42 342.66,-357.59 202.5,-288 164.28,-269.02 128.28,-232 113.09,-215.19"/>
<polygon fill="midnightblue" stroke="midnightblue" points="990.02,-390.87 1000.14,-387.74 990.28,-383.87 990.02,-390.87"/>
</g>
<!-- Node8 -->
<g id="node8" class="node">
<title>Node8</title>
<g id="a_node8"><a xlink:href="harvest__area_8h.html" target="_top" xlink:title=" ">
<polygon fill="none" stroke="black" points="438.5,-257.5 438.5,-287.5 548.5,-287.5 548.5,-257.5 438.5,-257.5"/>
<text text-anchor="start" x="446.5" y="-275.5" font-family="Helvetica,sans-Serif" font-size="10.00">include/FoodAuthority</text>
<text text-anchor="middle" x="493.5" y="-264.5" font-family="Helvetica,sans-Serif" font-size="10.00">/harvest_area.h</text>
</a>
</g>
</g>
<!-- Node1&#45;&gt;Node8 -->
<g id="edge8" class="edge">
<title>Node1&#45;&gt;Node8</title>
<path fill="none" stroke="midnightblue" d="M990.11,-386.93C891.64,-382.25 671.27,-369.23 600.5,-344 564.88,-331.3 529.38,-304.38 509.55,-287.72"/>
<polygon fill="midnightblue" stroke="midnightblue" points="990.22,-390.44 1000.38,-387.41 990.55,-383.45 990.22,-390.44"/>
</g>
<!-- Node10 -->
<g id="node10" class="node">
<title>Node10</title>
<g id="a_node10"><a xlink:href="_i_b_m___e_i_s_2authenticate_8h.html" target="_top" xlink:title=" ">
<polygon fill="none" stroke="black" points="736,-263 736,-282 889,-282 889,-263 736,-263"/>
<text text-anchor="middle" x="812.5" y="-270" font-family="Helvetica,sans-Serif" font-size="10.00">include/IBM_EIS/authenticate.h</text>
</a>
</g>
</g>
<!-- Node1&#45;&gt;Node10 -->
<g id="edge11" class="edge">
<title>Node1&#45;&gt;Node10</title>
<path fill="none" stroke="midnightblue" d="M992.28,-377.77C965.45,-370.25 931.52,-358.96 903.5,-344 870.36,-326.3 836.82,-296.58 821.34,-282.03"/>
<polygon fill="midnightblue" stroke="midnightblue" points="991.62,-381.22 1002.19,-380.47 993.46,-374.47 991.62,-381.22"/>
</g>
<!-- Node11 -->
<g id="node11" class="node">
<title>Node11</title>
<g id="a_node11"><a xlink:href="timeseries_8h.html" target="_top" xlink:title=" ">
<polygon fill="none" stroke="black" points="513,-196 513,-215 658,-215 658,-196 513,-196"/>
<text text-anchor="middle" x="585.5" y="-203" font-family="Helvetica,sans-Serif" font-size="10.00">include/IBM_EIS/timeseries.h</text>
</a>
</g>
</g>
<!-- Node1&#45;&gt;Node11 -->
<g id="edge17" class="edge">
<title>Node1&#45;&gt;Node11</title>
<path fill="none" stroke="midnightblue" d="M990.16,-385.06C914.41,-377.01 765.35,-353.52 658.5,-288 627.09,-268.74 601.36,-231.87 590.74,-215.14"/>
<polygon fill="midnightblue" stroke="midnightblue" points="990.05,-388.56 1000.36,-386.09 990.76,-381.6 990.05,-388.56"/>
</g>
<!-- Node14 -->
<g id="node14" class="node">
<title>Node14</title>
<g id="a_node14"><a xlink:href="devices_8h.html" target="_top" xlink:title=" ">
<polygon fill="none" stroke="black" points="868.5,-196 868.5,-215 996.5,-215 996.5,-196 868.5,-196"/>
<text text-anchor="middle" x="932.5" y="-203" font-family="Helvetica,sans-Serif" font-size="10.00">include/Ubidots/devices.h</text>
</a>
</g>
</g>
<!-- Node1&#45;&gt;Node14 -->
<g id="edge18" class="edge">
<title>Node1&#45;&gt;Node14</title>
<path fill="none" stroke="midnightblue" d="M1019.75,-373.6C998.92,-355.4 965.94,-323.13 948.5,-288 936.32,-263.46 933.4,-230.45 932.71,-215.07"/>
<polygon fill="midnightblue" stroke="midnightblue" points="1017.72,-376.47 1027.6,-380.29 1022.26,-371.14 1017.72,-376.47"/>
</g>
<!-- Node16 -->
<g id="node16" class="node">
<title>Node16</title>
<g id="a_node16"><a xlink:href="location_8h.html" target="_top" xlink:title=" ">
<polygon fill="none" stroke="black" points="1488,-190.5 1488,-220.5 1595,-220.5 1595,-190.5 1488,-190.5"/>
<text text-anchor="start" x="1496" y="-208.5" font-family="Helvetica,sans-Serif" font-size="10.00">include/WillyWeather</text>
<text text-anchor="middle" x="1541.5" y="-197.5" font-family="Helvetica,sans-Serif" font-size="10.00">/location.h</text>
</a>
</g>
</g>
<!-- Node1&#45;&gt;Node16 -->
<g id="edge21" class="edge">
<title>Node1&#45;&gt;Node16</title>
<path fill="none" stroke="midnightblue" d="M1086.99,-388.87C1219.3,-387.38 1581.39,-375.24 1652.5,-288 1676.21,-258.91 1629.09,-234.84 1589.1,-220.59"/>
<polygon fill="midnightblue" stroke="midnightblue" points="1086.73,-385.37 1076.76,-388.97 1086.79,-392.37 1086.73,-385.37"/>
</g>
<!-- Node17 -->
<g id="node17" class="node">
<title>Node17</title>
<g id="a_node17"><a xlink:href="precipitation_8h.html" target="_top" xlink:title=" ">
<polygon fill="none" stroke="black" points="1457,-123.5 1457,-153.5 1564,-153.5 1564,-123.5 1457,-123.5"/>
<text text-anchor="start" x="1465" y="-141.5" font-family="Helvetica,sans-Serif" font-size="10.00">include/WillyWeather</text>
<text text-anchor="middle" x="1510.5" y="-130.5" font-family="Helvetica,sans-Serif" font-size="10.00">/precipitation.h</text>
</a>
</g>
</g>
<!-- Node1&#45;&gt;Node17 -->
<g id="edge29" class="edge">
<title>Node1&#45;&gt;Node17</title>
<path fill="none" stroke="midnightblue" d="M1087.13,-387.95C1202.62,-384.97 1490.54,-374.62 1581.5,-344 1625.44,-329.21 1647.19,-328.64 1669.5,-288 1702.94,-227.08 1606.17,-177.02 1549.09,-153.67"/>
<polygon fill="midnightblue" stroke="midnightblue" points="1086.74,-384.46 1076.83,-388.2 1086.91,-391.45 1086.74,-384.46"/>
</g>
<!-- Node19 -->
<g id="node19" class="node">
<title>Node19</title>
<g id="a_node19"><a xlink:href="tide_8h.html" target="_top" xlink:title=" ">
<polygon fill="none" stroke="black" points="1589,-123.5 1589,-153.5 1696,-153.5 1696,-123.5 1589,-123.5"/>
<text text-anchor="start" x="1597" y="-141.5" font-family="Helvetica,sans-Serif" font-size="10.00">include/WillyWeather</text>
<text text-anchor="middle" x="1642.5" y="-130.5" font-family="Helvetica,sans-Serif" font-size="10.00">/tide.h</text>
</a>
</g>
</g>
<!-- Node1&#45;&gt;Node19 -->
<g id="edge30" class="edge">
<title>Node1&#45;&gt;Node19</title>
<path fill="none" stroke="midnightblue" d="M1086.88,-389.16C1208.9,-388.96 1526.28,-384.44 1622.5,-344 1657.34,-329.36 1670.88,-322.42 1686.5,-288 1707.83,-240.99 1672.42,-180.96 1653.37,-153.89"/>
<polygon fill="midnightblue" stroke="midnightblue" points="1086.72,-385.66 1076.72,-389.17 1086.72,-392.66 1086.72,-385.66"/>
</g>
<!-- Node22 -->
<g id="node22" class="node">
<title>Node22</title>
<g id="a_node22"><a xlink:href="ftp_8h.html" target="_top" xlink:title=" ">
<polygon fill="none" stroke="black" points="212,-263 212,-282 281,-282 281,-263 212,-263"/>
<text text-anchor="middle" x="246.5" y="-270" font-family="Helvetica,sans-Serif" font-size="10.00">include/ftp.h</text>
</a>
</g>
</g>
<!-- Node1&#45;&gt;Node22 -->
<g id="edge31" class="edge">
<title>Node1&#45;&gt;Node22</title>
<path fill="none" stroke="midnightblue" d="M990.39,-386.59C903.36,-381.78 714.21,-369.18 556.5,-344 453.49,-327.55 333.61,-296.96 277.92,-282.08"/>
<polygon fill="midnightblue" stroke="midnightblue" points="990.31,-390.09 1000.48,-387.14 990.69,-383.1 990.31,-390.09"/>
</g>
<!-- Node24 -->
<g id="node24" class="node">
<title>Node24</title>
<g id="a_node24"><a xlink:href="http_8h.html" target="_top" xlink:title=" ">
<polygon fill="none" stroke="black" points="1071.5,-324.5 1071.5,-343.5 1145.5,-343.5 1145.5,-324.5 1071.5,-324.5"/>
<text text-anchor="middle" x="1108.5" y="-331.5" font-family="Helvetica,sans-Serif" font-size="10.00">include/http.h</text>
</a>
</g>
</g>
<!-- Node1&#45;&gt;Node24 -->
<g id="edge36" class="edge">
<title>Node1&#45;&gt;Node24</title>
<path fill="none" stroke="midnightblue" d="M1057.81,-374.1C1070.41,-364.38 1086.43,-352.03 1097.05,-343.83"/>
<polygon fill="midnightblue" stroke="midnightblue" points="1055.53,-371.44 1049.75,-380.32 1059.8,-376.99 1055.53,-371.44"/>
</g>
<!-- Node30 -->
<g id="node30" class="node">
<title>Node30</title>
<g id="a_node30"><a xlink:href="severity__index_8h.html" target="_top" xlink:title=" ">
<polygon fill="none" stroke="black" points="1252,-324.5 1252,-343.5 1371,-343.5 1371,-324.5 1252,-324.5"/>
<text text-anchor="middle" x="1311.5" y="-331.5" font-family="Helvetica,sans-Serif" font-size="10.00">include/severity_index.h</text>
</a>
</g>
</g>
<!-- Node1&#45;&gt;Node30 -->
<g id="edge54" class="edge">
<title>Node1&#45;&gt;Node30</title>
<path fill="none" stroke="midnightblue" d="M1086.61,-379.48C1137.97,-369.32 1218.63,-353.37 1268.11,-343.58"/>
<polygon fill="midnightblue" stroke="midnightblue" points="1085.88,-376.06 1076.75,-381.43 1087.24,-382.93 1085.88,-376.06"/>
</g>
<!-- Node32 -->
<g id="node32" class="node">
<title>Node32</title>
<g id="a_node32"><a xlink:href="utils_8c.html" target="_top" xlink:title=" ">
<polygon fill="none" stroke="black" points="1776,-324.5 1776,-343.5 1835,-343.5 1835,-324.5 1776,-324.5"/>
<text text-anchor="middle" x="1805.5" y="-331.5" font-family="Helvetica,sans-Serif" font-size="10.00">src/utils.c</text>
</a>
</g>
</g>
<!-- Node1&#45;&gt;Node32 -->
<g id="edge57" class="edge">
<title>Node1&#45;&gt;Node32</title>
<path fill="none" stroke="midnightblue" d="M1086.72,-388.32C1203.19,-386.17 1508.88,-377.53 1761.5,-344 1766.14,-343.38 1771.02,-342.56 1775.77,-341.67"/>
<polygon fill="midnightblue" stroke="midnightblue" points="1086.64,-384.82 1076.7,-388.5 1086.76,-391.82 1086.64,-384.82"/>
</g>
<!-- Node3 -->
<g id="node3" class="node">
<title>Node3</title>
<g id="a_node3"><a xlink:href="historical__weather_8h.html" target="_top" xlink:title=" ">
<polygon fill="none" stroke="black" points="119,-123.5 119,-153.5 234,-153.5 234,-123.5 119,-123.5"/>
<text text-anchor="start" x="127" y="-141.5" font-family="Helvetica,sans-Serif" font-size="10.00">include/BOM/historical</text>
<text text-anchor="middle" x="176.5" y="-130.5" font-family="Helvetica,sans-Serif" font-size="10.00">_weather.h</text>
</a>
</g>
</g>
<!-- Node2&#45;&gt;Node3 -->
<g id="edge2" class="edge">
<title>Node2&#45;&gt;Node3</title>
<path fill="none" stroke="midnightblue" d="M122.51,-188.93C134.25,-178.18 149.74,-164 161.11,-153.59"/>
<polygon fill="midnightblue" stroke="midnightblue" points="120.09,-186.4 115.08,-195.73 124.81,-191.56 120.09,-186.4"/>
</g>
<!-- Node4 -->
<g id="node4" class="node">
<title>Node4</title>
<g id="a_node4"><a xlink:href="main_8h.html" target="_top" xlink:title=" ">
<polygon fill="none" stroke="black" points="820,-62 820,-81 899,-81 899,-62 820,-62"/>
<text text-anchor="middle" x="859.5" y="-69" font-family="Helvetica,sans-Serif" font-size="10.00">include/main.h</text>
</a>
</g>
</g>
<!-- Node2&#45;&gt;Node4 -->
<g id="edge6" class="edge">
<title>Node2&#45;&gt;Node4</title>
<path fill="none" stroke="midnightblue" d="M145.14,-192.92C173.14,-184.02 211.12,-170.48 242.5,-154 263.68,-142.88 264.04,-131.22 286.5,-123 384.85,-87 706.7,-76.09 819.78,-73.32"/>
<polygon fill="midnightblue" stroke="midnightblue" points="143.82,-189.67 135.31,-195.98 145.9,-196.35 143.82,-189.67"/>
</g>
<!-- Node7 -->
<g id="node7" class="node">
<title>Node7</title>
<g id="a_node7"><a xlink:href="stations_8c.html" target="_top" xlink:title=" ">
<polygon fill="none" stroke="black" points="0,-129 0,-148 101,-148 101,-129 0,-129"/>
<text text-anchor="middle" x="50.5" y="-136" font-family="Helvetica,sans-Serif" font-size="10.00">src/BOM/stations.c</text>
</a>
</g>
</g>
<!-- Node2&#45;&gt;Node7 -->
<g id="edge7" class="edge">
<title>Node2&#45;&gt;Node7</title>
<path fill="none" stroke="midnightblue" d="M91.34,-187.77C80.62,-175.1 66.32,-158.2 57.8,-148.13"/>
<polygon fill="midnightblue" stroke="midnightblue" points="88.95,-190.36 98.08,-195.73 94.29,-185.84 88.95,-190.36"/>
</g>
<!-- Node3&#45;&gt;Node4 -->
<g id="edge3" class="edge">
<title>Node3&#45;&gt;Node4</title>
<path fill="none" stroke="midnightblue" d="M244.08,-123.65C245.57,-123.42 247.04,-123.21 248.5,-123 462.7,-92.68 721.92,-78.67 819.65,-74.19"/>
<polygon fill="midnightblue" stroke="midnightblue" points="243.47,-120.2 234.17,-125.27 244.6,-127.11 243.47,-120.2"/>
</g>
<!-- Node6 -->
<g id="node6" class="node">
<title>Node6</title>
<g id="a_node6"><a xlink:href="historical__weather_8c.html" target="_top" xlink:title=" ">
<polygon fill="none" stroke="black" points="127.5,-56.5 127.5,-86.5 225.5,-86.5 225.5,-56.5 127.5,-56.5"/>
<text text-anchor="start" x="135.5" y="-74.5" font-family="Helvetica,sans-Serif" font-size="10.00">src/BOM/historical</text>
<text text-anchor="middle" x="176.5" y="-63.5" font-family="Helvetica,sans-Serif" font-size="10.00">_weather.c</text>
</a>
</g>
</g>
<!-- Node3&#45;&gt;Node6 -->
<g id="edge5" class="edge">
<title>Node3&#45;&gt;Node6</title>
<path fill="none" stroke="midnightblue" d="M176.5,-113.11C176.5,-104.15 176.5,-94.32 176.5,-86.58"/>
<polygon fill="midnightblue" stroke="midnightblue" points="173,-113.4 176.5,-123.4 180,-113.4 173,-113.4"/>
</g>
<!-- Node5 -->
<g id="node5" class="node">
<title>Node5</title>
<g id="a_node5"><a xlink:href="main_8c.html" target="_top" xlink:title=" ">
<polygon fill="none" stroke="black" points="828.5,-0.5 828.5,-19.5 890.5,-19.5 890.5,-0.5 828.5,-0.5"/>
<text text-anchor="middle" x="859.5" y="-7.5" font-family="Helvetica,sans-Serif" font-size="10.00">src/main.c</text>
</a>
</g>
</g>
<!-- Node4&#45;&gt;Node5 -->
<g id="edge4" class="edge">
<title>Node4&#45;&gt;Node5</title>
<path fill="none" stroke="midnightblue" d="M859.5,-51.82C859.5,-41 859.5,-27.9 859.5,-19.51"/>
<polygon fill="midnightblue" stroke="midnightblue" points="856,-51.98 859.5,-61.98 863,-51.98 856,-51.98"/>
</g>
<!-- Node8&#45;&gt;Node4 -->
<g id="edge9" class="edge">
<title>Node8&#45;&gt;Node4</title>
<path fill="none" stroke="midnightblue" d="M488.57,-247.14C483.45,-214.17 480.15,-155.71 512.5,-123 554.72,-80.31 737.89,-73.43 819.73,-72.51"/>
<polygon fill="midnightblue" stroke="midnightblue" points="485.17,-248.02 490.32,-257.27 492.06,-246.82 485.17,-248.02"/>
</g>
<!-- Node9 -->
<g id="node9" class="node">
<title>Node9</title>
<g id="a_node9"><a xlink:href="harvest__area_8c.html" target="_top" xlink:title=" ">
<polygon fill="none" stroke="black" points="328.5,-190.5 328.5,-220.5 456.5,-220.5 456.5,-190.5 328.5,-190.5"/>
<text text-anchor="start" x="336.5" y="-208.5" font-family="Helvetica,sans-Serif" font-size="10.00">src/FoodAuthority/harvest</text>
<text text-anchor="middle" x="392.5" y="-197.5" font-family="Helvetica,sans-Serif" font-size="10.00">_area.c</text>
</a>
</g>
</g>
<!-- Node8&#45;&gt;Node9 -->
<g id="edge10" class="edge">
<title>Node8&#45;&gt;Node9</title>
<path fill="none" stroke="midnightblue" d="M462.79,-251.73C447.16,-241.68 428.53,-229.68 414.37,-220.58"/>
<polygon fill="midnightblue" stroke="midnightblue" points="461.28,-254.93 471.58,-257.4 465.07,-249.04 461.28,-254.93"/>
</g>
<!-- Node10&#45;&gt;Node4 -->
<g id="edge15" class="edge">
<title>Node10&#45;&gt;Node4</title>
<path fill="none" stroke="midnightblue" d="M816.85,-253.07C826.69,-211.43 850.31,-111.39 857.44,-81.24"/>
<polygon fill="midnightblue" stroke="midnightblue" points="813.41,-252.41 814.52,-262.95 820.22,-254.02 813.41,-252.41"/>
</g>
<!-- Node10&#45;&gt;Node11 -->
<g id="edge12" class="edge">
<title>Node10&#45;&gt;Node11</title>
<path fill="none" stroke="midnightblue" d="M772.66,-260.09C727.75,-247.23 655.76,-226.62 615.41,-215.06"/>
<polygon fill="midnightblue" stroke="midnightblue" points="771.78,-263.48 782.36,-262.87 773.71,-256.75 771.78,-263.48"/>
</g>
<!-- Node13 -->
<g id="node13" class="node">
<title>Node13</title>
<g id="a_node13"><a xlink:href="_i_b_m___e_i_s_2authenticate_8c.html" target="_top" xlink:title=" ">
<polygon fill="none" stroke="black" points="676.5,-196 676.5,-215 812.5,-215 812.5,-196 676.5,-196"/>
<text text-anchor="middle" x="744.5" y="-203" font-family="Helvetica,sans-Serif" font-size="10.00">src/IBM_EIS/authenticate.c</text>
</a>
</g>
</g>
<!-- Node10&#45;&gt;Node13 -->
<g id="edge16" class="edge">
<title>Node10&#45;&gt;Node13</title>
<path fill="none" stroke="midnightblue" d="M795.76,-255.5C782.42,-242.75 764.27,-225.39 753.53,-215.13"/>
<polygon fill="midnightblue" stroke="midnightblue" points="793.68,-258.35 803.33,-262.73 798.52,-253.29 793.68,-258.35"/>
</g>
<!-- Node11&#45;&gt;Node4 -->
<g id="edge13" class="edge">
<title>Node11&#45;&gt;Node4</title>
<path fill="none" stroke="midnightblue" d="M612.76,-191.37C668.72,-164.41 795.19,-103.48 841.81,-81.02"/>
<polygon fill="midnightblue" stroke="midnightblue" points="610.97,-188.35 603.48,-195.84 614.01,-194.65 610.97,-188.35"/>
</g>
<!-- Node12 -->
<g id="node12" class="node">
<title>Node12</title>
<g id="a_node12"><a xlink:href="timeseries_8c.html" target="_top" xlink:title=" ">
<polygon fill="none" stroke="black" points="521.5,-129 521.5,-148 649.5,-148 649.5,-129 521.5,-129"/>
<text text-anchor="middle" x="585.5" y="-136" font-family="Helvetica,sans-Serif" font-size="10.00">src/IBM_EIS/timeseries.c</text>
</a>
</g>
</g>
<!-- Node11&#45;&gt;Node12 -->
<g id="edge14" class="edge">
<title>Node11&#45;&gt;Node12</title>
<path fill="none" stroke="midnightblue" d="M585.5,-185.54C585.5,-173.17 585.5,-157.62 585.5,-148.13"/>
<polygon fill="midnightblue" stroke="midnightblue" points="582,-185.73 585.5,-195.73 589,-185.73 582,-185.73"/>
</g>
<!-- Node14&#45;&gt;Node4 -->
<g id="edge19" class="edge">
<title>Node14&#45;&gt;Node4</title>
<path fill="none" stroke="midnightblue" d="M919.73,-187.63C912.75,-178.03 904.18,-165.64 897.5,-154 882.89,-128.55 869.24,-96.52 863.03,-81.31"/>
<polygon fill="midnightblue" stroke="midnightblue" points="917.07,-189.91 925.83,-195.86 922.69,-185.74 917.07,-189.91"/>
</g>
<!-- Node15 -->
<g id="node15" class="node">
<title>Node15</title>
<g id="a_node15"><a xlink:href="devices_8c.html" target="_top" xlink:title=" ">
<polygon fill="none" stroke="black" points="907,-129 907,-148 1018,-148 1018,-129 907,-129"/>
<text text-anchor="middle" x="962.5" y="-136" font-family="Helvetica,sans-Serif" font-size="10.00">src/Ubidots/devices.c</text>
</a>
</g>
</g>
<!-- Node14&#45;&gt;Node15 -->
<g id="edge20" class="edge">
<title>Node14&#45;&gt;Node15</title>
<path fill="none" stroke="midnightblue" d="M940.9,-186.29C946.67,-173.81 954.05,-157.81 958.52,-148.13"/>
<polygon fill="midnightblue" stroke="midnightblue" points="937.56,-185.19 936.55,-195.73 943.91,-188.12 937.56,-185.19"/>
</g>
<!-- Node16&#45;&gt;Node17 -->
<g id="edge22" class="edge">
<title>Node16&#45;&gt;Node17</title>
<path fill="none" stroke="midnightblue" d="M1530.43,-181.28C1526.01,-172.02 1521.07,-161.66 1517.21,-153.58"/>
<polygon fill="midnightblue" stroke="midnightblue" points="1527.31,-182.88 1534.77,-190.4 1533.63,-179.86 1527.31,-182.88"/>
</g>
<!-- Node16&#45;&gt;Node19 -->
<g id="edge25" class="edge">
<title>Node16&#45;&gt;Node19</title>
<path fill="none" stroke="midnightblue" d="M1572.21,-184.73C1587.84,-174.68 1606.47,-162.68 1620.63,-153.58"/>
<polygon fill="midnightblue" stroke="midnightblue" points="1569.93,-182.04 1563.42,-190.4 1573.72,-187.93 1569.93,-182.04"/>
</g>
<!-- Node21 -->
<g id="node21" class="node">
<title>Node21</title>
<g id="a_node21"><a xlink:href="location_8c.html" target="_top" xlink:title=" ">
<polygon fill="none" stroke="black" points="1304.5,-129 1304.5,-148 1438.5,-148 1438.5,-129 1304.5,-129"/>
<text text-anchor="middle" x="1371.5" y="-136" font-family="Helvetica,sans-Serif" font-size="10.00">src/WillyWeather/location.c</text>
</a>
</g>
</g>
<!-- Node16&#45;&gt;Node21 -->
<g id="edge28" class="edge">
<title>Node16&#45;&gt;Node21</title>
<path fill="none" stroke="midnightblue" d="M1495.17,-186.78C1462.2,-174.18 1419.38,-157.81 1393.75,-148.01"/>
<polygon fill="midnightblue" stroke="midnightblue" points="1494.02,-190.09 1504.61,-190.4 1496.52,-183.56 1494.02,-190.09"/>
</g>
<!-- Node17&#45;&gt;Node4 -->
<g id="edge23" class="edge">
<title>Node17&#45;&gt;Node4</title>
<path fill="none" stroke="midnightblue" d="M1446.92,-123.07C1235.07,-90.42 993.04,-77.9 899.31,-73.99"/>
<polygon fill="midnightblue" stroke="midnightblue" points="1446.56,-126.56 1456.98,-124.64 1447.64,-119.64 1446.56,-126.56"/>
</g>
<!-- Node18 -->
<g id="node18" class="node">
<title>Node18</title>
<g id="a_node18"><a xlink:href="precipitation_8c.html" target="_top" xlink:title=" ">
<polygon fill="none" stroke="black" points="1424.5,-62 1424.5,-81 1576.5,-81 1576.5,-62 1424.5,-62"/>
<text text-anchor="middle" x="1500.5" y="-69" font-family="Helvetica,sans-Serif" font-size="10.00">src/WillyWeather/precipitation.c</text>
</a>
</g>
</g>
<!-- Node17&#45;&gt;Node18 -->
<g id="edge24" class="edge">
<title>Node17&#45;&gt;Node18</title>
<path fill="none" stroke="midnightblue" d="M1506.77,-113.25C1505.04,-102.02 1503.1,-89.38 1501.84,-81.19"/>
<polygon fill="midnightblue" stroke="midnightblue" points="1503.35,-114.04 1508.33,-123.4 1510.27,-112.98 1503.35,-114.04"/>
</g>
<!-- Node19&#45;&gt;Node4 -->
<g id="edge26" class="edge">
<title>Node19&#45;&gt;Node4</title>
<path fill="none" stroke="midnightblue" d="M1578.68,-123.77C1576.94,-123.5 1575.21,-123.24 1573.5,-123 1318.13,-87.31 1007.65,-76.3 899.17,-73.41"/>
<polygon fill="midnightblue" stroke="midnightblue" points="1578.32,-127.25 1588.76,-125.47 1579.48,-120.35 1578.32,-127.25"/>
</g>
<!-- Node20 -->
<g id="node20" class="node">
<title>Node20</title>
<g id="a_node20"><a xlink:href="tide_8c.html" target="_top" xlink:title=" ">
<polygon fill="none" stroke="black" points="1594.5,-62 1594.5,-81 1710.5,-81 1710.5,-62 1594.5,-62"/>
<text text-anchor="middle" x="1652.5" y="-69" font-family="Helvetica,sans-Serif" font-size="10.00">src/WillyWeather/tide.c</text>
</a>
</g>
</g>
<!-- Node19&#45;&gt;Node20 -->
<g id="edge27" class="edge">
<title>Node19&#45;&gt;Node20</title>
<path fill="none" stroke="midnightblue" d="M1646.23,-113.25C1647.96,-102.02 1649.9,-89.38 1651.16,-81.19"/>
<polygon fill="midnightblue" stroke="midnightblue" points="1642.73,-112.98 1644.67,-123.4 1649.65,-114.04 1642.73,-112.98"/>
</g>
<!-- Node22&#45;&gt;Node2 -->
<g id="edge33" class="edge">
<title>Node22&#45;&gt;Node2</title>
<path fill="none" stroke="midnightblue" d="M218.54,-258.61C190.62,-245.74 148.46,-226.31 124.3,-215.17"/>
<polygon fill="midnightblue" stroke="midnightblue" points="217.23,-261.86 227.78,-262.87 220.16,-255.5 217.23,-261.86"/>
</g>
<!-- Node22&#45;&gt;Node3 -->
<g id="edge32" class="edge">
<title>Node22&#45;&gt;Node3</title>
<path fill="none" stroke="midnightblue" d="M233.59,-254.71C226.57,-245.13 218,-232.74 211.5,-221 198.96,-198.37 187.81,-170.34 181.62,-153.75"/>
<polygon fill="midnightblue" stroke="midnightblue" points="230.94,-257.01 239.75,-262.91 236.54,-252.81 230.94,-257.01"/>
</g>
<!-- Node22&#45;&gt;Node4 -->
<g id="edge34" class="edge">
<title>Node22&#45;&gt;Node4</title>
<path fill="none" stroke="midnightblue" d="M258.22,-254.22C271.3,-236.06 294.01,-207.74 319.5,-190 386.16,-143.62 410.93,-143.53 489.5,-123 607.27,-92.23 751.31,-79.43 819.74,-74.79"/>
<polygon fill="midnightblue" stroke="midnightblue" points="255.17,-252.47 252.29,-262.67 260.9,-256.49 255.17,-252.47"/>
</g>
<!-- Node23 -->
<g id="node23" class="node">
<title>Node23</title>
<g id="a_node23"><a xlink:href="ftp_8c.html" target="_top" xlink:title=" ">
<polygon fill="none" stroke="black" points="220.5,-196 220.5,-215 272.5,-215 272.5,-196 220.5,-196"/>
<text text-anchor="middle" x="246.5" y="-203" font-family="Helvetica,sans-Serif" font-size="10.00">src/ftp.c</text>
</a>
</g>
</g>
<!-- Node22&#45;&gt;Node23 -->
<g id="edge35" class="edge">
<title>Node22&#45;&gt;Node23</title>
<path fill="none" stroke="midnightblue" d="M246.5,-252.54C246.5,-240.17 246.5,-224.62 246.5,-215.13"/>
<polygon fill="midnightblue" stroke="midnightblue" points="243,-252.73 246.5,-262.73 250,-252.73 243,-252.73"/>
</g>
<!-- Node24&#45;&gt;Node4 -->
<g id="edge52" class="edge">
<title>Node24&#45;&gt;Node4</title>
<path fill="none" stroke="midnightblue" d="M1122.3,-316.43C1143.65,-288.66 1179.72,-231.67 1154.5,-190 1100.76,-101.22 966.54,-79.47 899.26,-74.18"/>
<polygon fill="midnightblue" stroke="midnightblue" points="1119.48,-314.36 1115.98,-324.36 1124.95,-318.72 1119.48,-314.36"/>
</g>
<!-- Node24&#45;&gt;Node8 -->
<g id="edge37" class="edge">
<title>Node24&#45;&gt;Node8</title>
<path fill="none" stroke="midnightblue" d="M1061.44,-328.45C949.54,-317.62 668.03,-290.39 548.53,-278.82"/>
<polygon fill="midnightblue" stroke="midnightblue" points="1061.12,-331.93 1071.41,-329.41 1061.8,-324.97 1061.12,-331.93"/>
</g>
<!-- Node24&#45;&gt;Node10 -->
<g id="edge38" class="edge">
<title>Node24&#45;&gt;Node10</title>
<path fill="none" stroke="midnightblue" d="M1061.5,-323.55C1004.65,-312.13 909.8,-293.06 855.03,-282.05"/>
<polygon fill="midnightblue" stroke="midnightblue" points="1060.82,-326.99 1071.31,-325.52 1062.2,-320.12 1060.82,-326.99"/>
</g>
<!-- Node24&#45;&gt;Node11 -->
<g id="edge39" class="edge">
<title>Node24&#45;&gt;Node11</title>
<path fill="none" stroke="midnightblue" d="M1061.03,-333.5C987.47,-332.95 842.32,-326.47 726.5,-288 674.18,-270.62 619.75,-232.43 596.79,-215.22"/>
<polygon fill="midnightblue" stroke="midnightblue" points="1061.34,-337.01 1071.36,-333.55 1061.37,-330.01 1061.34,-337.01"/>
</g>
<!-- Node24&#45;&gt;Node14 -->
<g id="edge43" class="edge">
<title>Node24&#45;&gt;Node14</title>
<path fill="none" stroke="midnightblue" d="M1061.54,-326.32C1033.6,-320.3 998.96,-309 974.5,-288 951.19,-267.99 939.16,-231.83 934.64,-215.24"/>
<polygon fill="midnightblue" stroke="midnightblue" points="1061,-329.78 1071.49,-328.31 1062.37,-322.92 1061,-329.78"/>
</g>
<!-- Node24&#45;&gt;Node16 -->
<g id="edge49" class="edge">
<title>Node24&#45;&gt;Node16</title>
<path fill="none" stroke="midnightblue" d="M1155.73,-328.55C1244.54,-319.94 1429.91,-300.73 1456.5,-288 1489.14,-272.37 1517.28,-239.4 1531.54,-220.53"/>
<polygon fill="midnightblue" stroke="midnightblue" points="1155.27,-325.08 1145.65,-329.52 1155.94,-332.05 1155.27,-325.08"/>
</g>
<!-- Node24&#45;&gt;Node17 -->
<g id="edge50" class="edge">
<title>Node24&#45;&gt;Node17</title>
<path fill="none" stroke="midnightblue" d="M1129.57,-318.62C1142.34,-309.85 1158.92,-298.37 1173.5,-288 1233.61,-245.22 1240.67,-221.27 1307.5,-190 1314.39,-186.78 1399.17,-166.15 1456.96,-152.28"/>
<polygon fill="midnightblue" stroke="midnightblue" points="1127.3,-315.93 1121.03,-324.47 1131.26,-321.7 1127.3,-315.93"/>
</g>
<!-- Node24&#45;&gt;Node19 -->
<g id="edge51" class="edge">
<title>Node24&#45;&gt;Node19</title>
<path fill="none" stroke="midnightblue" d="M1156.03,-328.78C1251.49,-320.1 1460.01,-300.06 1490.5,-288 1512.08,-279.47 1512.09,-268.03 1532.5,-257 1572.95,-235.13 1600.34,-256.56 1629.5,-221 1645.22,-201.83 1645.63,-171.35 1644.24,-153.6"/>
<polygon fill="midnightblue" stroke="midnightblue" points="1155.43,-325.32 1145.79,-329.7 1156.07,-332.29 1155.43,-325.32"/>
</g>
<!-- Node25 -->
<g id="node25" class="node">
<title>Node25</title>
<g id="a_node25"><a xlink:href="_ubidots_2authenticate_8h.html" target="_top" xlink:title=" ">
<polygon fill="none" stroke="black" points="983.5,-263 983.5,-282 1131.5,-282 1131.5,-263 983.5,-263"/>
<text text-anchor="middle" x="1057.5" y="-270" font-family="Helvetica,sans-Serif" font-size="10.00">include/Ubidots/authenticate.h</text>
</a>
</g>
</g>
<!-- Node24&#45;&gt;Node25 -->
<g id="edge40" class="edge">
<title>Node24&#45;&gt;Node25</title>
<path fill="none" stroke="midnightblue" d="M1094.5,-316.67C1084.89,-305.45 1072.51,-291.02 1064.79,-282.01"/>
<polygon fill="midnightblue" stroke="midnightblue" points="1092.03,-319.16 1101.19,-324.48 1097.34,-314.6 1092.03,-319.16"/>
</g>
<!-- Node27 -->
<g id="node27" class="node">
<title>Node27</title>
<g id="a_node27"><a xlink:href="_willy_weather_2authenticate_8h.html" target="_top" xlink:title=" ">
<polygon fill="none" stroke="black" points="1340,-257.5 1340,-287.5 1447,-287.5 1447,-257.5 1340,-257.5"/>
<text text-anchor="start" x="1348" y="-275.5" font-family="Helvetica,sans-Serif" font-size="10.00">include/WillyWeather</text>
<text text-anchor="middle" x="1393.5" y="-264.5" font-family="Helvetica,sans-Serif" font-size="10.00">/authenticate.h</text>
</a>
</g>
</g>
<!-- Node24&#45;&gt;Node27 -->
<g id="edge44" class="edge">
<title>Node24&#45;&gt;Node27</title>
<path fill="none" stroke="midnightblue" d="M1155.8,-323.12C1206.53,-312.53 1286.92,-295.75 1339.94,-284.68"/>
<polygon fill="midnightblue" stroke="midnightblue" points="1154.83,-319.75 1145.76,-325.22 1156.26,-326.6 1154.83,-319.75"/>
</g>
<!-- Node29 -->
<g id="node29" class="node">
<title>Node29</title>
<g id="a_node29"><a xlink:href="http_8c.html" target="_top" xlink:title=" ">
<polygon fill="none" stroke="black" points="1226,-263 1226,-282 1283,-282 1283,-263 1226,-263"/>
<text text-anchor="middle" x="1254.5" y="-270" font-family="Helvetica,sans-Serif" font-size="10.00">src/http.c</text>
</a>
</g>
</g>
<!-- Node24&#45;&gt;Node29 -->
<g id="edge53" class="edge">
<title>Node24&#45;&gt;Node29</title>
<path fill="none" stroke="midnightblue" d="M1138.85,-320.63C1167.21,-309.07 1208.81,-292.12 1233.62,-282.01"/>
<polygon fill="midnightblue" stroke="midnightblue" points="1137.36,-317.46 1129.42,-324.48 1140,-323.94 1137.36,-317.46"/>
</g>
<!-- Node25&#45;&gt;Node14 -->
<g id="edge41" class="edge">
<title>Node25&#45;&gt;Node14</title>
<path fill="none" stroke="midnightblue" d="M1031.74,-258.1C1006.98,-245.23 970.31,-226.16 949.17,-215.17"/>
<polygon fill="midnightblue" stroke="midnightblue" points="1030.41,-261.36 1040.9,-262.87 1033.64,-255.15 1030.41,-261.36"/>
</g>
<!-- Node26 -->
<g id="node26" class="node">
<title>Node26</title>
<g id="a_node26"><a xlink:href="_ubidots_2authenticate_8c.html" target="_top" xlink:title=" ">
<polygon fill="none" stroke="black" points="1015,-196 1015,-215 1146,-215 1146,-196 1015,-196"/>
<text text-anchor="middle" x="1080.5" y="-203" font-family="Helvetica,sans-Serif" font-size="10.00">src/Ubidots/authenticate.c</text>
</a>
</g>
</g>
<!-- Node25&#45;&gt;Node26 -->
<g id="edge42" class="edge">
<title>Node25&#45;&gt;Node26</title>
<path fill="none" stroke="midnightblue" d="M1063.94,-253.29C1068.36,-240.81 1074.02,-224.81 1077.45,-215.13"/>
<polygon fill="midnightblue" stroke="midnightblue" points="1060.64,-252.14 1060.6,-262.73 1067.24,-254.47 1060.64,-252.14"/>
</g>
<!-- Node27&#45;&gt;Node4 -->
<g id="edge47" class="edge">
<title>Node27&#45;&gt;Node4</title>
<path fill="none" stroke="midnightblue" d="M1355.07,-252.7C1339.48,-244.14 1321.82,-233.2 1307.5,-221 1264.48,-184.36 1275.86,-150.51 1226.5,-123 1170.95,-92.04 982.23,-78.78 899.23,-74.35"/>
<polygon fill="midnightblue" stroke="midnightblue" points="1353.49,-255.82 1363.96,-257.45 1356.79,-249.65 1353.49,-255.82"/>
</g>
<!-- Node27&#45;&gt;Node16 -->
<g id="edge45" class="edge">
<title>Node27&#45;&gt;Node16</title>
<path fill="none" stroke="midnightblue" d="M1435.01,-253.27C1458.58,-242.92 1487.64,-230.15 1509.45,-220.58"/>
<polygon fill="midnightblue" stroke="midnightblue" points="1433.36,-250.17 1425.61,-257.4 1436.18,-256.58 1433.36,-250.17"/>
</g>
<!-- Node27&#45;&gt;Node19 -->
<g id="edge46" class="edge">
<title>Node27&#45;&gt;Node19</title>
<path fill="none" stroke="midnightblue" d="M1457.51,-262.43C1511.05,-253.73 1582.16,-239.24 1604.5,-221 1625.66,-203.72 1635.65,-171.98 1639.85,-153.62"/>
<polygon fill="midnightblue" stroke="midnightblue" points="1456.72,-259.01 1447.39,-264.04 1457.82,-265.92 1456.72,-259.01"/>
</g>
<!-- Node28 -->
<g id="node28" class="node">
<title>Node28</title>
<g id="a_node28"><a xlink:href="_willy_weather_2authenticate_8c.html" target="_top" xlink:title=" ">
<polygon fill="none" stroke="black" points="1317,-196 1317,-215 1470,-215 1470,-196 1317,-196"/>
<text text-anchor="middle" x="1393.5" y="-203" font-family="Helvetica,sans-Serif" font-size="10.00">src/WillyWeather/authenticate.c</text>
</a>
</g>
</g>
<!-- Node27&#45;&gt;Node28 -->
<g id="edge48" class="edge">
<title>Node27&#45;&gt;Node28</title>
<path fill="none" stroke="midnightblue" d="M1393.5,-247.25C1393.5,-236.02 1393.5,-223.38 1393.5,-215.19"/>
<polygon fill="midnightblue" stroke="midnightblue" points="1390,-247.4 1393.5,-257.4 1397,-247.4 1390,-247.4"/>
</g>
<!-- Node30&#45;&gt;Node4 -->
<g id="edge55" class="edge">
<title>Node30&#45;&gt;Node4</title>
<path fill="none" stroke="midnightblue" d="M1309.93,-313.89C1307.82,-297.61 1302.91,-274.2 1291.5,-257 1237.52,-175.67 1206.43,-163.23 1117.5,-123 1044.93,-90.18 951.42,-78.64 899.23,-74.62"/>
<polygon fill="midnightblue" stroke="midnightblue" points="1306.49,-314.71 1311.02,-324.29 1313.46,-313.97 1306.49,-314.71"/>
</g>
<!-- Node31 -->
<g id="node31" class="node">
<title>Node31</title>
<g id="a_node31"><a xlink:href="severity__index_8c.html" target="_top" xlink:title=" ">
<polygon fill="none" stroke="black" points="1541.5,-263 1541.5,-282 1643.5,-282 1643.5,-263 1541.5,-263"/>
<text text-anchor="middle" x="1592.5" y="-270" font-family="Helvetica,sans-Serif" font-size="10.00">src/severity_index.c</text>
</a>
</g>
</g>
<!-- Node30&#45;&gt;Node31 -->
<g id="edge56" class="edge">
<title>Node30&#45;&gt;Node31</title>
<path fill="none" stroke="midnightblue" d="M1363.19,-322.44C1406.98,-313.45 1471.4,-300.1 1527.5,-288 1536.32,-286.1 1545.79,-284.01 1554.71,-282.02"/>
<polygon fill="midnightblue" stroke="midnightblue" points="1362.44,-319.02 1353.35,-324.46 1363.85,-325.88 1362.44,-319.02"/>
</g>
</g>
</svg>
