<?xml version="1.0" encoding="UTF-8" standalone="no"?>
<!DOCTYPE svg PUBLIC "-//W3C//DTD SVG 1.1//EN"
 "http://www.w3.org/Graphics/SVG/1.1/DTD/svg11.dtd">
<!-- Generated by graphviz version 2.49.3 (20211027.1534)
 -->
<!-- Title: include/utils.h Pages: 1 -->
<svg width="817pt" height="218pt"
 viewBox="0.00 0.00 816.50 218.00" xmlns="http://www.w3.org/2000/svg" xmlns:xlink="http://www.w3.org/1999/xlink">
<g id="graph0" class="graph" transform="scale(1 1) rotate(0) translate(4 214)">
<title>include/utils.h</title>
<!-- Node1 -->
<g id="node1" class="node">
<title>Node1</title>
<g id="a_node1"><a xlink:title=" ">
<polygon fill="#bfbfbf" stroke="black" points="443,-190.5 443,-209.5 519,-209.5 519,-190.5 443,-190.5"/>
<text text-anchor="middle" x="481" y="-197.5" font-family="Helvetica,sans-Serif" font-size="10.00">include/utils.h</text>
</a>
</g>
</g>
<!-- Node2 -->
<g id="node2" class="node">
<title>Node2</title>
<g id="a_node2"><a xlink:href="food__auth_8h.html" target="_top" xlink:title=" ">
<polygon fill="none" stroke="black" points="621,-123.5 621,-153.5 731,-153.5 731,-123.5 621,-123.5"/>
<text text-anchor="start" x="629" y="-141.5" font-family="Helvetica,sans-Serif" font-size="10.00">include/FoodAuthority</text>
<text text-anchor="middle" x="676" y="-130.5" font-family="Helvetica,sans-Serif" font-size="10.00">/food_auth.h</text>
</a>
</g>
</g>
<!-- Node1&#45;&gt;Node2 -->
<g id="edge1" class="edge">
<title>Node1&#45;&gt;Node2</title>
<path fill="none" stroke="midnightblue" d="M518.74,-187.48C550.54,-177.78 596.13,-163.87 630.04,-153.52"/>
<polygon fill="midnightblue" stroke="midnightblue" points="517.48,-184.21 508.94,-190.48 519.52,-190.9 517.48,-184.21"/>
</g>
<!-- Node6 -->
<g id="node6" class="node">
<title>Node6</title>
<g id="a_node6"><a xlink:href="authenticate_8h.html" target="_top" xlink:title=" ">
<polygon fill="none" stroke="black" points="16.5,-129 16.5,-148 169.5,-148 169.5,-129 16.5,-129"/>
<text text-anchor="middle" x="93" y="-136" font-family="Helvetica,sans-Serif" font-size="10.00">include/IBM_EIS/authenticate.h</text>
</a>
</g>
</g>
<!-- Node1&#45;&gt;Node6 -->
<g id="edge5" class="edge">
<title>Node1&#45;&gt;Node6</title>
<path fill="none" stroke="midnightblue" d="M432.78,-192.16C372.95,-183.61 267.86,-168.34 178,-154 166.32,-152.14 153.76,-150.04 141.96,-148.04"/>
<polygon fill="midnightblue" stroke="midnightblue" points="432.3,-195.63 442.69,-193.58 433.29,-188.7 432.3,-195.63"/>
</g>
<!-- Node8 -->
<g id="node8" class="node">
<title>Node8</title>
<g id="a_node8"><a xlink:href="timeseries_8h.html" target="_top" xlink:title=" ">
<polygon fill="none" stroke="black" points="187.5,-129 187.5,-148 332.5,-148 332.5,-129 187.5,-129"/>
<text text-anchor="middle" x="260" y="-136" font-family="Helvetica,sans-Serif" font-size="10.00">include/IBM_EIS/timeseries.h</text>
</a>
</g>
</g>
<!-- Node1&#45;&gt;Node8 -->
<g id="edge8" class="edge">
<title>Node1&#45;&gt;Node8</title>
<path fill="none" stroke="midnightblue" d="M439.48,-187.82C396.55,-176.26 330.47,-158.47 291.61,-148.01"/>
<polygon fill="midnightblue" stroke="midnightblue" points="438.77,-191.25 449.34,-190.48 440.59,-184.5 438.77,-191.25"/>
</g>
<!-- Node10 -->
<g id="node10" class="node">
<title>Node10</title>
<g id="a_node10"><a xlink:href="ubidots_8h.html" target="_top" xlink:title=" ">
<polygon fill="none" stroke="black" points="351,-129 351,-148 477,-148 477,-129 351,-129"/>
<text text-anchor="middle" x="414" y="-136" font-family="Helvetica,sans-Serif" font-size="10.00">include/Ubidots/ubidots.h</text>
</a>
</g>
</g>
<!-- Node1&#45;&gt;Node10 -->
<g id="edge11" class="edge">
<title>Node1&#45;&gt;Node10</title>
<path fill="none" stroke="midnightblue" d="M463.71,-183.65C450.94,-172.31 434.02,-157.28 423.58,-148.01"/>
<polygon fill="midnightblue" stroke="midnightblue" points="461.6,-186.45 471.4,-190.48 466.25,-181.22 461.6,-186.45"/>
</g>
<!-- Node12 -->
<g id="node12" class="node">
<title>Node12</title>
<g id="a_node12"><a xlink:href="w__weather_8h.html" target="_top" xlink:title=" ">
<polygon fill="none" stroke="black" points="495.5,-123.5 495.5,-153.5 602.5,-153.5 602.5,-123.5 495.5,-123.5"/>
<text text-anchor="start" x="503.5" y="-141.5" font-family="Helvetica,sans-Serif" font-size="10.00">include/WillyWeather</text>
<text text-anchor="middle" x="549" y="-130.5" font-family="Helvetica,sans-Serif" font-size="10.00">/w_weather.h</text>
</a>
</g>
</g>
<!-- Node1&#45;&gt;Node12 -->
<g id="edge14" class="edge">
<title>Node1&#45;&gt;Node12</title>
<path fill="none" stroke="midnightblue" d="M498.55,-183.65C509.18,-174.35 522.63,-162.57 532.97,-153.52"/>
<polygon fill="midnightblue" stroke="midnightblue" points="495.96,-181.26 490.74,-190.48 500.57,-186.52 495.96,-181.26"/>
</g>
<!-- Node14 -->
<g id="node14" class="node">
<title>Node14</title>
<g id="a_node14"><a xlink:href="utils_8c.html" target="_top" xlink:title=" ">
<polygon fill="none" stroke="black" points="749.5,-129 749.5,-148 808.5,-148 808.5,-129 749.5,-129"/>
<text text-anchor="middle" x="779" y="-136" font-family="Helvetica,sans-Serif" font-size="10.00">src/utils.c</text>
</a>
</g>
</g>
<!-- Node1&#45;&gt;Node14 -->
<g id="edge17" class="edge">
<title>Node1&#45;&gt;Node14</title>
<path fill="none" stroke="midnightblue" d="M529.25,-193.32C581.71,-186.52 667.72,-173.54 740,-154 746,-152.38 752.37,-150.21 758.18,-148.05"/>
<polygon fill="midnightblue" stroke="midnightblue" points="528.7,-189.86 519.22,-194.59 529.59,-196.8 528.7,-189.86"/>
</g>
<!-- Node3 -->
<g id="node3" class="node">
<title>Node3</title>
<g id="a_node3"><a xlink:href="main_8h.html" target="_top" xlink:title=" ">
<polygon fill="none" stroke="black" points="300.5,-62 300.5,-81 379.5,-81 379.5,-62 300.5,-62"/>
<text text-anchor="middle" x="340" y="-69" font-family="Helvetica,sans-Serif" font-size="10.00">include/main.h</text>
</a>
</g>
</g>
<!-- Node2&#45;&gt;Node3 -->
<g id="edge2" class="edge">
<title>Node2&#45;&gt;Node3</title>
<path fill="none" stroke="midnightblue" d="M611.05,-122.9C511.71,-104.21 483.83,-108.59 389,-87 381.65,-85.33 373.78,-83.16 366.54,-81.02"/>
<polygon fill="midnightblue" stroke="midnightblue" points="610.41,-126.34 620.89,-124.78 611.72,-119.47 610.41,-126.34"/>
</g>
<!-- Node5 -->
<g id="node5" class="node">
<title>Node5</title>
<g id="a_node5"><a xlink:href="food__auth_8c.html" target="_top" xlink:title=" ">
<polygon fill="none" stroke="black" points="643.5,-56.5 643.5,-86.5 758.5,-86.5 758.5,-56.5 643.5,-56.5"/>
<text text-anchor="start" x="651.5" y="-74.5" font-family="Helvetica,sans-Serif" font-size="10.00">src/FoodAuthority/food</text>
<text text-anchor="middle" x="701" y="-63.5" font-family="Helvetica,sans-Serif" font-size="10.00">_auth.c</text>
</a>
</g>
</g>
<!-- Node2&#45;&gt;Node5 -->
<g id="edge4" class="edge">
<title>Node2&#45;&gt;Node5</title>
<path fill="none" stroke="midnightblue" d="M685.04,-113.99C688.58,-104.8 692.51,-94.58 695.59,-86.58"/>
<polygon fill="midnightblue" stroke="midnightblue" points="681.75,-112.81 681.42,-123.4 688.28,-115.32 681.75,-112.81"/>
</g>
<!-- Node4 -->
<g id="node4" class="node">
<title>Node4</title>
<g id="a_node4"><a xlink:href="main_8c.html" target="_top" xlink:title=" ">
<polygon fill="none" stroke="black" points="309,-0.5 309,-19.5 371,-19.5 371,-0.5 309,-0.5"/>
<text text-anchor="middle" x="340" y="-7.5" font-family="Helvetica,sans-Serif" font-size="10.00">src/main.c</text>
</a>
</g>
</g>
<!-- Node3&#45;&gt;Node4 -->
<g id="edge3" class="edge">
<title>Node3&#45;&gt;Node4</title>
<path fill="none" stroke="midnightblue" d="M340,-51.82C340,-41 340,-27.9 340,-19.51"/>
<polygon fill="midnightblue" stroke="midnightblue" points="336.5,-51.98 340,-61.98 343.5,-51.98 336.5,-51.98"/>
</g>
<!-- Node6&#45;&gt;Node3 -->
<g id="edge6" class="edge">
<title>Node6&#45;&gt;Node3</title>
<path fill="none" stroke="midnightblue" d="M137.93,-126.56C178.14,-116.64 238.66,-101.41 291,-87 297.76,-85.14 305.01,-83.05 311.81,-81.04"/>
<polygon fill="midnightblue" stroke="midnightblue" points="137.03,-123.17 128.16,-128.96 138.7,-129.97 137.03,-123.17"/>
</g>
<!-- Node7 -->
<g id="node7" class="node">
<title>Node7</title>
<g id="a_node7"><a xlink:href="authenticate_8c.html" target="_top" xlink:title=" ">
<polygon fill="none" stroke="black" points="0,-62 0,-81 136,-81 136,-62 0,-62"/>
<text text-anchor="middle" x="68" y="-69" font-family="Helvetica,sans-Serif" font-size="10.00">src/IBM_EIS/authenticate.c</text>
</a>
</g>
</g>
<!-- Node6&#45;&gt;Node7 -->
<g id="edge7" class="edge">
<title>Node6&#45;&gt;Node7</title>
<path fill="none" stroke="midnightblue" d="M86,-119.29C81.2,-106.81 75.04,-90.81 71.32,-81.13"/>
<polygon fill="midnightblue" stroke="midnightblue" points="82.77,-120.66 89.63,-128.73 89.31,-118.14 82.77,-120.66"/>
</g>
<!-- Node8&#45;&gt;Node3 -->
<g id="edge9" class="edge">
<title>Node8&#45;&gt;Node3</title>
<path fill="none" stroke="midnightblue" d="M278.81,-122.21C294.58,-109.41 316.51,-91.59 329.38,-81.13"/>
<polygon fill="midnightblue" stroke="midnightblue" points="276.34,-119.71 270.79,-128.73 280.76,-125.14 276.34,-119.71"/>
</g>
<!-- Node9 -->
<g id="node9" class="node">
<title>Node9</title>
<g id="a_node9"><a xlink:href="timeseries_8c.html" target="_top" xlink:title=" ">
<polygon fill="none" stroke="black" points="154,-62 154,-81 282,-81 282,-62 154,-62"/>
<text text-anchor="middle" x="218" y="-69" font-family="Helvetica,sans-Serif" font-size="10.00">src/IBM_EIS/timeseries.c</text>
</a>
</g>
</g>
<!-- Node8&#45;&gt;Node9 -->
<g id="edge10" class="edge">
<title>Node8&#45;&gt;Node9</title>
<path fill="none" stroke="midnightblue" d="M248.71,-120.03C240.58,-107.45 229.96,-91.01 223.57,-81.13"/>
<polygon fill="midnightblue" stroke="midnightblue" points="245.97,-122.23 254.34,-128.73 251.85,-118.44 245.97,-122.23"/>
</g>
<!-- Node10&#45;&gt;Node3 -->
<g id="edge12" class="edge">
<title>Node10&#45;&gt;Node3</title>
<path fill="none" stroke="midnightblue" d="M396.19,-121.86C381.64,-109.08 361.62,-91.49 349.82,-81.13"/>
<polygon fill="midnightblue" stroke="midnightblue" points="394.2,-124.76 404.02,-128.73 398.82,-119.5 394.2,-124.76"/>
</g>
<!-- Node11 -->
<g id="node11" class="node">
<title>Node11</title>
<g id="a_node11"><a xlink:href="ubidots_8c.html" target="_top" xlink:title=" ">
<polygon fill="none" stroke="black" points="397.5,-62 397.5,-81 506.5,-81 506.5,-62 397.5,-62"/>
<text text-anchor="middle" x="452" y="-69" font-family="Helvetica,sans-Serif" font-size="10.00">src/Ubidots/ubidots.c</text>
</a>
</g>
</g>
<!-- Node10&#45;&gt;Node11 -->
<g id="edge13" class="edge">
<title>Node10&#45;&gt;Node11</title>
<path fill="none" stroke="midnightblue" d="M424.21,-120.03C431.57,-107.45 441.18,-91.01 446.96,-81.13"/>
<polygon fill="midnightblue" stroke="midnightblue" points="421.15,-118.33 419.12,-128.73 427.19,-121.87 421.15,-118.33"/>
</g>
<!-- Node12&#45;&gt;Node3 -->
<g id="edge15" class="edge">
<title>Node12&#45;&gt;Node3</title>
<path fill="none" stroke="midnightblue" d="M494.11,-120.43C453.36,-107.75 399.49,-91 367.42,-81.03"/>
<polygon fill="midnightblue" stroke="midnightblue" points="493.32,-123.85 503.91,-123.48 495.4,-117.16 493.32,-123.85"/>
</g>
<!-- Node13 -->
<g id="node13" class="node">
<title>Node13</title>
<g id="a_node13"><a xlink:href="w__weather_8c.html" target="_top" xlink:title=" ">
<polygon fill="none" stroke="black" points="525,-56.5 525,-86.5 625,-86.5 625,-56.5 525,-56.5"/>
<text text-anchor="start" x="533" y="-74.5" font-family="Helvetica,sans-Serif" font-size="10.00">src/WillyWeather/w</text>
<text text-anchor="middle" x="575" y="-63.5" font-family="Helvetica,sans-Serif" font-size="10.00">_weather.c</text>
</a>
</g>
</g>
<!-- Node12&#45;&gt;Node13 -->
<g id="edge16" class="edge">
<title>Node12&#45;&gt;Node13</title>
<path fill="none" stroke="midnightblue" d="M558.4,-113.99C562.08,-104.8 566.17,-94.58 569.37,-86.58"/>
<polygon fill="midnightblue" stroke="midnightblue" points="555.11,-112.81 554.64,-123.4 561.61,-115.41 555.11,-112.81"/>
</g>
</g>
</svg>
