<?xml version="1.0" encoding="UTF-8" standalone="no"?>
<!DOCTYPE svg PUBLIC "-//W3C//DTD SVG 1.1//EN"
 "http://www.w3.org/Graphics/SVG/1.1/DTD/svg11.dtd">
<!-- Generated by graphviz version 2.49.3 (20211027.1534)
 -->
<!-- Title: include/utils.h Pages: 1 -->
<svg width="976pt" height="274pt"
 viewBox="0.00 0.00 976.00 274.00" xmlns="http://www.w3.org/2000/svg" xmlns:xlink="http://www.w3.org/1999/xlink">
<g id="graph0" class="graph" transform="scale(1 1) rotate(0) translate(4 270)">
<title>include/utils.h</title>
<!-- Node1 -->
<g id="node1" class="node">
<title>Node1</title>
<g id="a_node1"><a xlink:title=" ">
<polygon fill="#bfbfbf" stroke="black" points="554,-246.5 554,-265.5 630,-265.5 630,-246.5 554,-246.5"/>
<text text-anchor="middle" x="592" y="-253.5" font-family="Helvetica,sans-Serif" font-size="10.00">include/utils.h</text>
</a>
</g>
</g>
<!-- Node2 -->
<g id="node2" class="node">
<title>Node2</title>
<g id="a_node2"><a xlink:href="harvest__area_8h.html" target="_top" xlink:title=" ">
<polygon fill="none" stroke="black" points="101,-179.5 101,-209.5 211,-209.5 211,-179.5 101,-179.5"/>
<text text-anchor="start" x="109" y="-197.5" font-family="Helvetica,sans-Serif" font-size="10.00">include/FoodAuthority</text>
<text text-anchor="middle" x="156" y="-186.5" font-family="Helvetica,sans-Serif" font-size="10.00">/harvest_area.h</text>
</a>
</g>
</g>
<!-- Node1&#45;&gt;Node2 -->
<g id="edge1" class="edge">
<title>Node1&#45;&gt;Node2</title>
<path fill="none" stroke="midnightblue" d="M543.68,-248.41C462.05,-237.27 297.33,-214.79 211.24,-203.04"/>
<polygon fill="midnightblue" stroke="midnightblue" points="543.31,-251.89 553.69,-249.77 544.26,-244.95 543.31,-251.89"/>
</g>
<!-- Node6 -->
<g id="node6" class="node">
<title>Node6</title>
<g id="a_node6"><a xlink:href="_i_b_m___e_i_s_2authenticate_8h.html" target="_top" xlink:title=" ">
<polygon fill="none" stroke="black" points="350.5,-185 350.5,-204 503.5,-204 503.5,-185 350.5,-185"/>
<text text-anchor="middle" x="427" y="-192" font-family="Helvetica,sans-Serif" font-size="10.00">include/IBM_EIS/authenticate.h</text>
</a>
</g>
</g>
<!-- Node1&#45;&gt;Node6 -->
<g id="edge5" class="edge">
<title>Node1&#45;&gt;Node6</title>
<path fill="none" stroke="midnightblue" d="M558.95,-243.08C526.88,-231.52 479,-214.25 450.6,-204.01"/>
<polygon fill="midnightblue" stroke="midnightblue" points="557.77,-246.38 568.36,-246.48 560.14,-239.79 557.77,-246.38"/>
</g>
<!-- Node7 -->
<g id="node7" class="node">
<title>Node7</title>
<g id="a_node7"><a xlink:href="timeseries_8h.html" target="_top" xlink:title=" ">
<polygon fill="none" stroke="black" points="184.5,-118 184.5,-137 329.5,-137 329.5,-118 184.5,-118"/>
<text text-anchor="middle" x="257" y="-125" font-family="Helvetica,sans-Serif" font-size="10.00">include/IBM_EIS/timeseries.h</text>
</a>
</g>
</g>
<!-- Node1&#45;&gt;Node7 -->
<g id="edge11" class="edge">
<title>Node1&#45;&gt;Node7</title>
<path fill="none" stroke="midnightblue" d="M543.59,-254.6C491,-252.34 405.81,-243.24 341,-210 305.74,-191.92 275.46,-154.1 263.03,-137.1"/>
<polygon fill="midnightblue" stroke="midnightblue" points="543.54,-258.1 553.66,-254.97 543.79,-251.11 543.54,-258.1"/>
</g>
<!-- Node10 -->
<g id="node10" class="node">
<title>Node10</title>
<g id="a_node10"><a xlink:href="devices_8h.html" target="_top" xlink:title=" ">
<polygon fill="none" stroke="black" points="528,-185 528,-204 656,-204 656,-185 528,-185"/>
<text text-anchor="middle" x="592" y="-192" font-family="Helvetica,sans-Serif" font-size="10.00">include/Ubidots/devices.h</text>
</a>
</g>
</g>
<!-- Node1&#45;&gt;Node10 -->
<g id="edge12" class="edge">
<title>Node1&#45;&gt;Node10</title>
<path fill="none" stroke="midnightblue" d="M592,-236.32C592,-225.5 592,-212.4 592,-204.01"/>
<polygon fill="midnightblue" stroke="midnightblue" points="588.5,-236.48 592,-246.48 595.5,-236.48 588.5,-236.48"/>
</g>
<!-- Node12 -->
<g id="node12" class="node">
<title>Node12</title>
<g id="a_node12"><a xlink:href="location_8h.html" target="_top" xlink:title=" ">
<polygon fill="none" stroke="black" points="712.5,-179.5 712.5,-209.5 819.5,-209.5 819.5,-179.5 712.5,-179.5"/>
<text text-anchor="start" x="720.5" y="-197.5" font-family="Helvetica,sans-Serif" font-size="10.00">include/WillyWeather</text>
<text text-anchor="middle" x="766" y="-186.5" font-family="Helvetica,sans-Serif" font-size="10.00">/location.h</text>
</a>
</g>
</g>
<!-- Node1&#45;&gt;Node12 -->
<g id="edge15" class="edge">
<title>Node1&#45;&gt;Node12</title>
<path fill="none" stroke="midnightblue" d="M626.42,-243.23C654.75,-233.54 694.99,-219.78 724.99,-209.52"/>
<polygon fill="midnightblue" stroke="midnightblue" points="625.26,-239.93 616.93,-246.48 627.52,-246.55 625.26,-239.93"/>
</g>
<!-- Node13 -->
<g id="node13" class="node">
<title>Node13</title>
<g id="a_node13"><a xlink:href="tide_8h.html" target="_top" xlink:title=" ">
<polygon fill="none" stroke="black" points="708.5,-112.5 708.5,-142.5 815.5,-142.5 815.5,-112.5 708.5,-112.5"/>
<text text-anchor="start" x="716.5" y="-130.5" font-family="Helvetica,sans-Serif" font-size="10.00">include/WillyWeather</text>
<text text-anchor="middle" x="762" y="-119.5" font-family="Helvetica,sans-Serif" font-size="10.00">/tide.h</text>
</a>
</g>
</g>
<!-- Node1&#45;&gt;Node13 -->
<g id="edge20" class="edge">
<title>Node1&#45;&gt;Node13</title>
<path fill="none" stroke="midnightblue" d="M616.1,-241.35C630.61,-232.84 649.26,-221.37 665,-210 681.05,-198.41 722.48,-162.82 745.67,-142.72"/>
<polygon fill="midnightblue" stroke="midnightblue" points="614.13,-238.44 607.23,-246.48 617.64,-244.5 614.13,-238.44"/>
</g>
<!-- Node16 -->
<g id="node16" class="node">
<title>Node16</title>
<g id="a_node16"><a xlink:href="utils_8c.html" target="_top" xlink:title=" ">
<polygon fill="none" stroke="black" points="837.5,-185 837.5,-204 896.5,-204 896.5,-185 837.5,-185"/>
<text text-anchor="middle" x="867" y="-192" font-family="Helvetica,sans-Serif" font-size="10.00">src/utils.c</text>
</a>
</g>
</g>
<!-- Node1&#45;&gt;Node16 -->
<g id="edge21" class="edge">
<title>Node1&#45;&gt;Node16</title>
<path fill="none" stroke="midnightblue" d="M640.18,-248.24C688.26,-240.92 764,-227.86 828,-210 833.84,-208.37 840.05,-206.25 845.76,-204.13"/>
<polygon fill="midnightblue" stroke="midnightblue" points="639.43,-244.81 630.05,-249.75 640.46,-251.73 639.43,-244.81"/>
</g>
<!-- Node3 -->
<g id="node3" class="node">
<title>Node3</title>
<g id="a_node3"><a xlink:href="main_8h.html" target="_top" xlink:title=" ">
<polygon fill="none" stroke="black" points="472.5,-56.5 472.5,-75.5 551.5,-75.5 551.5,-56.5 472.5,-56.5"/>
<text text-anchor="middle" x="512" y="-63.5" font-family="Helvetica,sans-Serif" font-size="10.00">include/main.h</text>
</a>
</g>
</g>
<!-- Node2&#45;&gt;Node3 -->
<g id="edge2" class="edge">
<title>Node2&#45;&gt;Node3</title>
<path fill="none" stroke="midnightblue" d="M154.81,-169.3C155.31,-150.86 159.27,-126.29 175,-112 196.71,-92.28 387.84,-76.06 472.23,-69.79"/>
<polygon fill="midnightblue" stroke="midnightblue" points="151.31,-169.33 154.85,-179.32 158.31,-169.3 151.31,-169.33"/>
</g>
<!-- Node5 -->
<g id="node5" class="node">
<title>Node5</title>
<g id="a_node5"><a xlink:href="harvest__area_8c.html" target="_top" xlink:title=" ">
<polygon fill="none" stroke="black" points="0,-112.5 0,-142.5 128,-142.5 128,-112.5 0,-112.5"/>
<text text-anchor="start" x="8" y="-130.5" font-family="Helvetica,sans-Serif" font-size="10.00">src/FoodAuthority/harvest</text>
<text text-anchor="middle" x="64" y="-119.5" font-family="Helvetica,sans-Serif" font-size="10.00">_area.c</text>
</a>
</g>
</g>
<!-- Node2&#45;&gt;Node5 -->
<g id="edge4" class="edge">
<title>Node2&#45;&gt;Node5</title>
<path fill="none" stroke="midnightblue" d="M127.62,-173.45C113.47,-163.45 96.69,-151.6 83.92,-142.58"/>
<polygon fill="midnightblue" stroke="midnightblue" points="125.85,-176.48 136.04,-179.4 129.89,-170.77 125.85,-176.48"/>
</g>
<!-- Node4 -->
<g id="node4" class="node">
<title>Node4</title>
<g id="a_node4"><a xlink:href="main_8c.html" target="_top" xlink:title=" ">
<polygon fill="none" stroke="black" points="481,-0.5 481,-19.5 543,-19.5 543,-0.5 481,-0.5"/>
<text text-anchor="middle" x="512" y="-7.5" font-family="Helvetica,sans-Serif" font-size="10.00">src/main.c</text>
</a>
</g>
</g>
<!-- Node3&#45;&gt;Node4 -->
<g id="edge3" class="edge">
<title>Node3&#45;&gt;Node4</title>
<path fill="none" stroke="midnightblue" d="M512,-45.8C512,-36.91 512,-26.78 512,-19.75"/>
<polygon fill="midnightblue" stroke="midnightblue" points="508.5,-46.08 512,-56.08 515.5,-46.08 508.5,-46.08"/>
</g>
<!-- Node6&#45;&gt;Node3 -->
<g id="edge9" class="edge">
<title>Node6&#45;&gt;Node3</title>
<path fill="none" stroke="midnightblue" d="M452.67,-179.65C466.58,-170.89 482.93,-158.33 493,-143 507.04,-121.63 510.71,-90.66 511.66,-75.72"/>
<polygon fill="midnightblue" stroke="midnightblue" points="450.77,-176.71 443.98,-184.85 454.36,-182.72 450.77,-176.71"/>
</g>
<!-- Node6&#45;&gt;Node7 -->
<g id="edge6" class="edge">
<title>Node6&#45;&gt;Node7</title>
<path fill="none" stroke="midnightblue" d="M395.02,-181.27C361.28,-168.37 308.98,-148.38 279.4,-137.06"/>
<polygon fill="midnightblue" stroke="midnightblue" points="393.83,-184.57 404.43,-184.87 396.33,-178.03 393.83,-184.57"/>
</g>
<!-- Node9 -->
<g id="node9" class="node">
<title>Node9</title>
<g id="a_node9"><a xlink:href="_i_b_m___e_i_s_2authenticate_8c.html" target="_top" xlink:title=" ">
<polygon fill="none" stroke="black" points="348,-118 348,-137 484,-137 484,-118 348,-118"/>
<text text-anchor="middle" x="416" y="-125" font-family="Helvetica,sans-Serif" font-size="10.00">src/IBM_EIS/authenticate.c</text>
</a>
</g>
</g>
<!-- Node6&#45;&gt;Node9 -->
<g id="edge10" class="edge">
<title>Node6&#45;&gt;Node9</title>
<path fill="none" stroke="midnightblue" d="M423.79,-174.54C421.7,-162.17 419.07,-146.62 417.46,-137.13"/>
<polygon fill="midnightblue" stroke="midnightblue" points="420.4,-175.46 425.52,-184.73 427.3,-174.29 420.4,-175.46"/>
</g>
<!-- Node7&#45;&gt;Node3 -->
<g id="edge7" class="edge">
<title>Node7&#45;&gt;Node3</title>
<path fill="none" stroke="midnightblue" d="M303.35,-115.69C352.83,-104.14 430.21,-86.08 475.53,-75.51"/>
<polygon fill="midnightblue" stroke="midnightblue" points="302.48,-112.29 293.54,-117.98 304.07,-119.11 302.48,-112.29"/>
</g>
<!-- Node8 -->
<g id="node8" class="node">
<title>Node8</title>
<g id="a_node8"><a xlink:href="timeseries_8c.html" target="_top" xlink:title=" ">
<polygon fill="none" stroke="black" points="193,-56.5 193,-75.5 321,-75.5 321,-56.5 193,-56.5"/>
<text text-anchor="middle" x="257" y="-63.5" font-family="Helvetica,sans-Serif" font-size="10.00">src/IBM_EIS/timeseries.c</text>
</a>
</g>
</g>
<!-- Node7&#45;&gt;Node8 -->
<g id="edge8" class="edge">
<title>Node7&#45;&gt;Node8</title>
<path fill="none" stroke="midnightblue" d="M257,-107.82C257,-97 257,-83.9 257,-75.51"/>
<polygon fill="midnightblue" stroke="midnightblue" points="253.5,-107.98 257,-117.98 260.5,-107.98 253.5,-107.98"/>
</g>
<!-- Node10&#45;&gt;Node3 -->
<g id="edge13" class="edge">
<title>Node10&#45;&gt;Node3</title>
<path fill="none" stroke="midnightblue" d="M621.11,-180.03C635.63,-171.62 651.82,-159.27 660,-143 666.19,-130.69 668.2,-123.07 660,-112 635.29,-78.67 586.5,-69.18 551.7,-66.89"/>
<polygon fill="midnightblue" stroke="midnightblue" points="619.04,-177.17 611.9,-184.99 622.36,-183.33 619.04,-177.17"/>
</g>
<!-- Node11 -->
<g id="node11" class="node">
<title>Node11</title>
<g id="a_node11"><a xlink:href="devices_8c.html" target="_top" xlink:title=" ">
<polygon fill="none" stroke="black" points="540.5,-118 540.5,-137 651.5,-137 651.5,-118 540.5,-118"/>
<text text-anchor="middle" x="596" y="-125" font-family="Helvetica,sans-Serif" font-size="10.00">src/Ubidots/devices.c</text>
</a>
</g>
</g>
<!-- Node10&#45;&gt;Node11 -->
<g id="edge14" class="edge">
<title>Node10&#45;&gt;Node11</title>
<path fill="none" stroke="midnightblue" d="M593.17,-174.54C593.93,-162.17 594.88,-146.62 595.47,-137.13"/>
<polygon fill="midnightblue" stroke="midnightblue" points="589.66,-174.54 592.54,-184.73 596.65,-174.97 589.66,-174.54"/>
</g>
<!-- Node12&#45;&gt;Node13 -->
<g id="edge16" class="edge">
<title>Node12&#45;&gt;Node13</title>
<path fill="none" stroke="midnightblue" d="M764.52,-169.4C763.96,-160.37 763.35,-150.41 762.87,-142.58"/>
<polygon fill="midnightblue" stroke="midnightblue" points="761.02,-169.63 765.13,-179.4 768.01,-169.2 761.02,-169.63"/>
</g>
<!-- Node15 -->
<g id="node15" class="node">
<title>Node15</title>
<g id="a_node15"><a xlink:href="location_8c.html" target="_top" xlink:title=" ">
<polygon fill="none" stroke="black" points="834,-118 834,-137 968,-137 968,-118 834,-118"/>
<text text-anchor="middle" x="901" y="-125" font-family="Helvetica,sans-Serif" font-size="10.00">src/WillyWeather/location.c</text>
</a>
</g>
</g>
<!-- Node12&#45;&gt;Node15 -->
<g id="edge19" class="edge">
<title>Node12&#45;&gt;Node15</title>
<path fill="none" stroke="midnightblue" d="M804.49,-174.97C830.42,-162.48 863.41,-146.6 883.33,-137.01"/>
<polygon fill="midnightblue" stroke="midnightblue" points="802.78,-171.9 795.29,-179.4 805.82,-178.21 802.78,-171.9"/>
</g>
<!-- Node13&#45;&gt;Node3 -->
<g id="edge17" class="edge">
<title>Node13&#45;&gt;Node3</title>
<path fill="none" stroke="midnightblue" d="M698.44,-111.37C650.7,-100.01 587.04,-84.86 547.82,-75.53"/>
<polygon fill="midnightblue" stroke="midnightblue" points="697.83,-114.83 708.37,-113.74 699.45,-108.02 697.83,-114.83"/>
</g>
<!-- Node14 -->
<g id="node14" class="node">
<title>Node14</title>
<g id="a_node14"><a xlink:href="tide_8c.html" target="_top" xlink:title=" ">
<polygon fill="none" stroke="black" points="704,-56.5 704,-75.5 820,-75.5 820,-56.5 704,-56.5"/>
<text text-anchor="middle" x="762" y="-63.5" font-family="Helvetica,sans-Serif" font-size="10.00">src/WillyWeather/tide.c</text>
</a>
</g>
</g>
<!-- Node13&#45;&gt;Node14 -->
<g id="edge18" class="edge">
<title>Node13&#45;&gt;Node14</title>
<path fill="none" stroke="midnightblue" d="M762,-102.29C762,-92.86 762,-82.65 762,-75.66"/>
<polygon fill="midnightblue" stroke="midnightblue" points="758.5,-102.4 762,-112.4 765.5,-102.4 758.5,-102.4"/>
</g>
</g>
</svg>
