<?xml version="1.0" encoding="UTF-8" standalone="no"?>
<!DOCTYPE svg PUBLIC "-//W3C//DTD SVG 1.1//EN"
 "http://www.w3.org/Graphics/SVG/1.1/DTD/svg11.dtd">
<!-- Generated by graphviz version 2.49.3 (20211027.1534)
 -->
<!-- Title: include/utils.h Pages: 1 -->
<svg width="546pt" height="196pt"
 viewBox="0.00 0.00 545.50 196.00" xmlns="http://www.w3.org/2000/svg" xmlns:xlink="http://www.w3.org/1999/xlink">
<g id="graph0" class="graph" transform="scale(1 1) rotate(0) translate(4 192)">
<title>include/utils.h</title>
<!-- Node1 -->
<g id="node1" class="node">
<title>Node1</title>
<g id="a_node1"><a xlink:title=" ">
<polygon fill="#bfbfbf" stroke="black" points="251,-168.5 251,-187.5 327,-187.5 327,-168.5 251,-168.5"/>
<text text-anchor="middle" x="289" y="-175.5" font-family="Helvetica,sans-Serif" font-size="10.00">include/utils.h</text>
</a>
</g>
</g>
<!-- Node2 -->
<g id="node2" class="node">
<title>Node2</title>
<g id="a_node2"><a xlink:href="food__auth_8h.html" target="_top" xlink:title=" ">
<polygon fill="none" stroke="black" points="359.5,-112.5 359.5,-131.5 460.5,-131.5 460.5,-112.5 359.5,-112.5"/>
<text text-anchor="middle" x="410" y="-119.5" font-family="Helvetica,sans-Serif" font-size="10.00">include/food_auth.h</text>
</a>
</g>
</g>
<!-- Node1&#45;&gt;Node2 -->
<g id="edge1" class="edge">
<title>Node1&#45;&gt;Node2</title>
<path fill="none" stroke="midnightblue" d="M317.31,-164.37C339.97,-154.26 371.13,-140.35 390.92,-131.52"/>
<polygon fill="midnightblue" stroke="midnightblue" points="315.88,-161.17 308.17,-168.44 318.73,-167.56 315.88,-161.17"/>
</g>
<!-- Node6 -->
<g id="node6" class="node">
<title>Node6</title>
<g id="a_node6"><a xlink:href="ibm__ems_8h.html" target="_top" xlink:title=" ">
<polygon fill="none" stroke="black" points="14,-112.5 14,-131.5 112,-131.5 112,-112.5 14,-112.5"/>
<text text-anchor="middle" x="63" y="-119.5" font-family="Helvetica,sans-Serif" font-size="10.00">include/ibm_ems.h</text>
</a>
</g>
</g>
<!-- Node1&#45;&gt;Node6 -->
<g id="edge5" class="edge">
<title>Node1&#45;&gt;Node6</title>
<path fill="none" stroke="midnightblue" d="M243.33,-166.09C200.64,-155.89 137.75,-140.86 98.64,-131.52"/>
<polygon fill="midnightblue" stroke="midnightblue" points="242.65,-169.52 253.19,-168.44 244.28,-162.72 242.65,-169.52"/>
</g>
<!-- Node8 -->
<g id="node8" class="node">
<title>Node8</title>
<g id="a_node8"><a xlink:href="ubidots_8h.html" target="_top" xlink:title=" ">
<polygon fill="none" stroke="black" points="129.5,-112.5 129.5,-131.5 218.5,-131.5 218.5,-112.5 129.5,-112.5"/>
<text text-anchor="middle" x="174" y="-119.5" font-family="Helvetica,sans-Serif" font-size="10.00">include/ubidots.h</text>
</a>
</g>
</g>
<!-- Node1&#45;&gt;Node8 -->
<g id="edge8" class="edge">
<title>Node1&#45;&gt;Node8</title>
<path fill="none" stroke="midnightblue" d="M261.52,-164.1C240.03,-154.01 210.78,-140.27 192.14,-131.52"/>
<polygon fill="midnightblue" stroke="midnightblue" points="260.24,-167.36 270.78,-168.44 263.21,-161.02 260.24,-167.36"/>
</g>
<!-- Node10 -->
<g id="node10" class="node">
<title>Node10</title>
<g id="a_node10"><a xlink:href="w__weather_8h.html" target="_top" xlink:title=" ">
<polygon fill="none" stroke="black" points="236.5,-112.5 236.5,-131.5 341.5,-131.5 341.5,-112.5 236.5,-112.5"/>
<text text-anchor="middle" x="289" y="-119.5" font-family="Helvetica,sans-Serif" font-size="10.00">include/w_weather.h</text>
</a>
</g>
</g>
<!-- Node1&#45;&gt;Node10 -->
<g id="edge11" class="edge">
<title>Node1&#45;&gt;Node10</title>
<path fill="none" stroke="midnightblue" d="M289,-157.8C289,-148.91 289,-138.78 289,-131.75"/>
<polygon fill="midnightblue" stroke="midnightblue" points="285.5,-158.08 289,-168.08 292.5,-158.08 285.5,-158.08"/>
</g>
<!-- Node12 -->
<g id="node12" class="node">
<title>Node12</title>
<g id="a_node12"><a xlink:href="utils_8c.html" target="_top" xlink:title=" ">
<polygon fill="none" stroke="black" points="478.5,-112.5 478.5,-131.5 537.5,-131.5 537.5,-112.5 478.5,-112.5"/>
<text text-anchor="middle" x="508" y="-119.5" font-family="Helvetica,sans-Serif" font-size="10.00">src/utils.c</text>
</a>
</g>
</g>
<!-- Node1&#45;&gt;Node12 -->
<g id="edge14" class="edge">
<title>Node1&#45;&gt;Node12</title>
<path fill="none" stroke="midnightblue" d="M333.66,-165.99C376.87,-155.33 441.14,-139.49 478.38,-130.3"/>
<polygon fill="midnightblue" stroke="midnightblue" points="332.57,-162.65 323.7,-168.44 334.25,-169.45 332.57,-162.65"/>
</g>
<!-- Node3 -->
<g id="node3" class="node">
<title>Node3</title>
<g id="a_node3"><a xlink:href="main_8h.html" target="_top" xlink:title=" ">
<polygon fill="none" stroke="black" points="188.5,-56.5 188.5,-75.5 267.5,-75.5 267.5,-56.5 188.5,-56.5"/>
<text text-anchor="middle" x="228" y="-63.5" font-family="Helvetica,sans-Serif" font-size="10.00">include/main.h</text>
</a>
</g>
</g>
<!-- Node2&#45;&gt;Node3 -->
<g id="edge2" class="edge">
<title>Node2&#45;&gt;Node3</title>
<path fill="none" stroke="midnightblue" d="M371.47,-109.57C337.14,-99.38 287.67,-84.7 256.7,-75.52"/>
<polygon fill="midnightblue" stroke="midnightblue" points="370.58,-112.95 381.16,-112.44 372.57,-106.24 370.58,-112.95"/>
</g>
<!-- Node5 -->
<g id="node5" class="node">
<title>Node5</title>
<g id="a_node5"><a xlink:href="food__auth_8c.html" target="_top" xlink:title=" ">
<polygon fill="none" stroke="black" points="391.5,-56.5 391.5,-75.5 474.5,-75.5 474.5,-56.5 391.5,-56.5"/>
<text text-anchor="middle" x="433" y="-63.5" font-family="Helvetica,sans-Serif" font-size="10.00">src/food_auth.c</text>
</a>
</g>
</g>
<!-- Node2&#45;&gt;Node5 -->
<g id="edge4" class="edge">
<title>Node2&#45;&gt;Node5</title>
<path fill="none" stroke="midnightblue" d="M417.8,-102.69C421.68,-93.59 426.18,-83.01 429.27,-75.75"/>
<polygon fill="midnightblue" stroke="midnightblue" points="414.5,-101.51 413.8,-112.08 420.94,-104.25 414.5,-101.51"/>
</g>
<!-- Node4 -->
<g id="node4" class="node">
<title>Node4</title>
<g id="a_node4"><a xlink:href="main_8c.html" target="_top" xlink:title=" ">
<polygon fill="none" stroke="black" points="197,-0.5 197,-19.5 259,-19.5 259,-0.5 197,-0.5"/>
<text text-anchor="middle" x="228" y="-7.5" font-family="Helvetica,sans-Serif" font-size="10.00">src/main.c</text>
</a>
</g>
</g>
<!-- Node3&#45;&gt;Node4 -->
<g id="edge3" class="edge">
<title>Node3&#45;&gt;Node4</title>
<path fill="none" stroke="midnightblue" d="M228,-45.8C228,-36.91 228,-26.78 228,-19.75"/>
<polygon fill="midnightblue" stroke="midnightblue" points="224.5,-46.08 228,-56.08 231.5,-46.08 224.5,-46.08"/>
</g>
<!-- Node6&#45;&gt;Node3 -->
<g id="edge6" class="edge">
<title>Node6&#45;&gt;Node3</title>
<path fill="none" stroke="midnightblue" d="M98.74,-109.3C129.83,-99.13 174.15,-84.62 201.98,-75.52"/>
<polygon fill="midnightblue" stroke="midnightblue" points="97.56,-106.01 89.14,-112.44 99.74,-112.66 97.56,-106.01"/>
</g>
<!-- Node7 -->
<g id="node7" class="node">
<title>Node7</title>
<g id="a_node7"><a xlink:href="ibm__ems_8c.html" target="_top" xlink:title=" ">
<polygon fill="none" stroke="black" points="0,-56.5 0,-75.5 80,-75.5 80,-56.5 0,-56.5"/>
<text text-anchor="middle" x="40" y="-63.5" font-family="Helvetica,sans-Serif" font-size="10.00">src/ibm_ems.c</text>
</a>
</g>
</g>
<!-- Node6&#45;&gt;Node7 -->
<g id="edge7" class="edge">
<title>Node6&#45;&gt;Node7</title>
<path fill="none" stroke="midnightblue" d="M55.2,-102.69C51.32,-93.59 46.82,-83.01 43.73,-75.75"/>
<polygon fill="midnightblue" stroke="midnightblue" points="52.06,-104.25 59.2,-112.08 58.5,-101.51 52.06,-104.25"/>
</g>
<!-- Node8&#45;&gt;Node3 -->
<g id="edge9" class="edge">
<title>Node8&#45;&gt;Node3</title>
<path fill="none" stroke="midnightblue" d="M190,-105C199.57,-95.43 211.36,-83.64 219.25,-75.75"/>
<polygon fill="midnightblue" stroke="midnightblue" points="187.51,-102.54 182.92,-112.08 192.46,-107.49 187.51,-102.54"/>
</g>
<!-- Node9 -->
<g id="node9" class="node">
<title>Node9</title>
<g id="a_node9"><a xlink:href="ubidots_8c.html" target="_top" xlink:title=" ">
<polygon fill="none" stroke="black" points="98,-56.5 98,-75.5 170,-75.5 170,-56.5 98,-56.5"/>
<text text-anchor="middle" x="134" y="-63.5" font-family="Helvetica,sans-Serif" font-size="10.00">src/ubidots.c</text>
</a>
</g>
</g>
<!-- Node8&#45;&gt;Node9 -->
<g id="edge10" class="edge">
<title>Node8&#45;&gt;Node9</title>
<path fill="none" stroke="midnightblue" d="M161.3,-103.86C154.37,-94.5 146.09,-83.33 140.48,-75.75"/>
<polygon fill="midnightblue" stroke="midnightblue" points="158.63,-106.13 167.39,-112.08 164.25,-101.96 158.63,-106.13"/>
</g>
<!-- Node10&#45;&gt;Node3 -->
<g id="edge12" class="edge">
<title>Node10&#45;&gt;Node3</title>
<path fill="none" stroke="midnightblue" d="M271.53,-105.54C260.66,-95.91 247.06,-83.87 237.98,-75.83"/>
<polygon fill="midnightblue" stroke="midnightblue" points="269.39,-108.32 279.2,-112.32 274.03,-103.07 269.39,-108.32"/>
</g>
<!-- Node11 -->
<g id="node11" class="node">
<title>Node11</title>
<g id="a_node11"><a xlink:href="w__weather_8c.html" target="_top" xlink:title=" ">
<polygon fill="none" stroke="black" points="285,-56.5 285,-75.5 373,-75.5 373,-56.5 285,-56.5"/>
<text text-anchor="middle" x="329" y="-63.5" font-family="Helvetica,sans-Serif" font-size="10.00">src/w_weather.c</text>
</a>
</g>
</g>
<!-- Node10&#45;&gt;Node11 -->
<g id="edge13" class="edge">
<title>Node10&#45;&gt;Node11</title>
<path fill="none" stroke="midnightblue" d="M301.7,-103.86C308.63,-94.5 316.91,-83.33 322.52,-75.75"/>
<polygon fill="midnightblue" stroke="midnightblue" points="298.75,-101.96 295.61,-112.08 304.37,-106.13 298.75,-101.96"/>
</g>
</g>
</svg>
