<?xml version="1.0" encoding="UTF-8" standalone="no"?>
<!DOCTYPE svg PUBLIC "-//W3C//DTD SVG 1.1//EN"
 "http://www.w3.org/Graphics/SVG/1.1/DTD/svg11.dtd">
<!-- Generated by graphviz version 2.43.0 (0)
 -->
<!-- Title: include/utils.h Pages: 1 -->
<svg width="872pt" height="137pt"
 viewBox="0.00 0.00 871.50 137.00" xmlns="http://www.w3.org/2000/svg" xmlns:xlink="http://www.w3.org/1999/xlink">
<g id="graph0" class="graph" transform="scale(1 1) rotate(0) translate(4 133)">
<title>include/utils.h</title>
<!-- Node1 -->
<g id="node1" class="node">
<title>Node1</title>
<g id="a_node1"><a xlink:title=" ">
<polygon fill="#999999" stroke="#666666" points="472,-129 387,-129 387,-110 472,-110 472,-129"/>
<text text-anchor="middle" x="429.5" y="-117" font-family="Helvetica,sans-Serif" font-size="10.00">include/utils.h</text>
</a>
</g>
</g>
<!-- Node2 -->
<g id="node2" class="node">
<title>Node2</title>
<g id="a_node2"><a xlink:title=" ">
<polygon fill="#e0e0e0" stroke="#999999" points="53,-74 0,-74 0,-55 53,-55 53,-74"/>
<text text-anchor="middle" x="26.5" y="-62" font-family="Helvetica,sans-Serif" font-size="10.00">stdlib.h</text>
</a>
</g>
</g>
<!-- Node1&#45;&gt;Node2 -->
<g id="edge1" class="edge">
<title>Node1&#45;&gt;Node2</title>
<path fill="none" stroke="#63b8ff" d="M386.76,-114.98C319.72,-109.1 185.64,-95.89 63.11,-74.11"/>
<polygon fill="#63b8ff" stroke="#63b8ff" points="63.65,-70.65 53.18,-72.32 62.4,-77.54 63.65,-70.65"/>
</g>
<!-- Node3 -->
<g id="node3" class="node">
<title>Node3</title>
<g id="a_node3"><a xlink:title=" ">
<polygon fill="#e0e0e0" stroke="#999999" points="124,-74 71,-74 71,-55 124,-55 124,-74"/>
<text text-anchor="middle" x="97.5" y="-62" font-family="Helvetica,sans-Serif" font-size="10.00">string.h</text>
</a>
</g>
</g>
<!-- Node1&#45;&gt;Node3 -->
<g id="edge2" class="edge">
<title>Node1&#45;&gt;Node3</title>
<path fill="none" stroke="#63b8ff" d="M387,-113.35C331.08,-106.3 229.58,-92.59 134.02,-74.16"/>
<polygon fill="#63b8ff" stroke="#63b8ff" points="134.68,-70.72 124.2,-72.24 133.34,-77.59 134.68,-70.72"/>
</g>
<!-- Node4 -->
<g id="node4" class="node">
<title>Node4</title>
<g id="a_node4"><a xlink:title=" ">
<polygon fill="#e0e0e0" stroke="#999999" points="207,-74 142,-74 142,-55 207,-55 207,-74"/>
<text text-anchor="middle" x="174.5" y="-62" font-family="Helvetica,sans-Serif" font-size="10.00">curl/curl.h</text>
</a>
</g>
</g>
<!-- Node1&#45;&gt;Node4 -->
<g id="edge3" class="edge">
<title>Node1&#45;&gt;Node4</title>
<path fill="none" stroke="#63b8ff" d="M388.53,-109.98C341.57,-100.23 264.97,-84.3 217.27,-74.39"/>
<polygon fill="#63b8ff" stroke="#63b8ff" points="217.76,-70.92 207.26,-72.31 216.34,-77.77 217.76,-70.92"/>
</g>
<!-- Node5 -->
<g id="node5" class="node">
<title>Node5</title>
<g id="a_node5"><a xlink:title=" ">
<polygon fill="#e0e0e0" stroke="#999999" points="278,-74 225,-74 225,-55 278,-55 278,-74"/>
<text text-anchor="middle" x="251.5" y="-62" font-family="Helvetica,sans-Serif" font-size="10.00">stdint.h</text>
</a>
</g>
</g>
<!-- Node1&#45;&gt;Node5 -->
<g id="edge4" class="edge">
<title>Node1&#45;&gt;Node5</title>
<path fill="none" stroke="#63b8ff" d="M400.9,-109.98C370.26,-100.86 321.55,-86.36 288.13,-76.41"/>
<polygon fill="#63b8ff" stroke="#63b8ff" points="288.86,-72.97 278.28,-73.47 286.87,-79.68 288.86,-72.97"/>
</g>
<!-- Node6 -->
<g id="node6" class="node">
<title>Node6</title>
<g id="a_node6"><a xlink:title=" ">
<polygon fill="#e0e0e0" stroke="#999999" points="379,-74 296,-74 296,-55 379,-55 379,-74"/>
<text text-anchor="middle" x="337.5" y="-62" font-family="Helvetica,sans-Serif" font-size="10.00">cjson/cJSON.h</text>
</a>
</g>
</g>
<!-- Node1&#45;&gt;Node6 -->
<g id="edge5" class="edge">
<title>Node1&#45;&gt;Node6</title>
<path fill="none" stroke="#63b8ff" d="M414.72,-109.98C400.32,-101.69 378.19,-88.94 361.31,-79.22"/>
<polygon fill="#63b8ff" stroke="#63b8ff" points="362.96,-76.13 352.55,-74.17 359.47,-82.19 362.96,-76.13"/>
</g>
<!-- Node7 -->
<g id="node7" class="node">
<title>Node7</title>
<g id="a_node7"><a xlink:title=" ">
<polygon fill="#e0e0e0" stroke="#999999" points="461.5,-74 397.5,-74 397.5,-55 461.5,-55 461.5,-74"/>
<text text-anchor="middle" x="429.5" y="-62" font-family="Helvetica,sans-Serif" font-size="10.00">sys/stat.h</text>
</a>
</g>
</g>
<!-- Node1&#45;&gt;Node7 -->
<g id="edge6" class="edge">
<title>Node1&#45;&gt;Node7</title>
<path fill="none" stroke="#63b8ff" d="M429.5,-109.75C429.5,-102.8 429.5,-92.85 429.5,-84.13"/>
<polygon fill="#63b8ff" stroke="#63b8ff" points="433,-84.09 429.5,-74.09 426,-84.09 433,-84.09"/>
</g>
<!-- Node8 -->
<g id="node8" class="node">
<title>Node8</title>
<g id="a_node8"><a xlink:title=" ">
<polygon fill="#e0e0e0" stroke="#999999" points="551.5,-74 479.5,-74 479.5,-55 551.5,-55 551.5,-74"/>
<text text-anchor="middle" x="515.5" y="-62" font-family="Helvetica,sans-Serif" font-size="10.00">sys/types.h</text>
</a>
</g>
</g>
<!-- Node1&#45;&gt;Node8 -->
<g id="edge7" class="edge">
<title>Node1&#45;&gt;Node8</title>
<path fill="none" stroke="#63b8ff" d="M443.32,-109.98C456.65,-101.77 477.08,-89.18 492.81,-79.49"/>
<polygon fill="#63b8ff" stroke="#63b8ff" points="494.75,-82.4 501.43,-74.17 491.08,-76.44 494.75,-82.4"/>
</g>
<!-- Node9 -->
<g id="node9" class="node">
<title>Node9</title>
<g id="a_node9"><a xlink:title=" ">
<polygon fill="#e0e0e0" stroke="#999999" points="621,-74 570,-74 570,-55 621,-55 621,-74"/>
<text text-anchor="middle" x="595.5" y="-62" font-family="Helvetica,sans-Serif" font-size="10.00">errno.h</text>
</a>
</g>
</g>
<!-- Node1&#45;&gt;Node9 -->
<g id="edge8" class="edge">
<title>Node1&#45;&gt;Node9</title>
<path fill="none" stroke="#63b8ff" d="M456.17,-109.98C484.45,-100.95 529.26,-86.65 560.4,-76.71"/>
<polygon fill="#63b8ff" stroke="#63b8ff" points="561.52,-80.02 569.99,-73.65 559.4,-73.35 561.52,-80.02"/>
</g>
<!-- Node10 -->
<g id="node10" class="node">
<title>Node10</title>
<g id="a_node10"><a xlink:title=" ">
<polygon fill="#e0e0e0" stroke="#999999" points="690,-74 639,-74 639,-55 690,-55 690,-74"/>
<text text-anchor="middle" x="664.5" y="-62" font-family="Helvetica,sans-Serif" font-size="10.00">math.h</text>
</a>
</g>
</g>
<!-- Node1&#45;&gt;Node10 -->
<g id="edge9" class="edge">
<title>Node1&#45;&gt;Node10</title>
<path fill="none" stroke="#63b8ff" d="M469.02,-109.94C507.35,-101.59 567.41,-88.37 629,-74.08"/>
<polygon fill="#63b8ff" stroke="#63b8ff" points="629.95,-77.45 638.9,-71.78 628.37,-70.63 629.95,-77.45"/>
</g>
<!-- Node11 -->
<g id="node11" class="node">
<title>Node11</title>
<g id="a_node11"><a xlink:href="log_8h.html" target="_top" xlink:title=" ">
<polygon fill="white" stroke="#666666" points="749,-74 708,-74 708,-55 749,-55 749,-74"/>
<text text-anchor="middle" x="728.5" y="-62" font-family="Helvetica,sans-Serif" font-size="10.00">log.h</text>
</a>
</g>
</g>
<!-- Node1&#45;&gt;Node11 -->
<g id="edge10" class="edge">
<title>Node1&#45;&gt;Node11</title>
<path fill="none" stroke="#63b8ff" d="M472.37,-113.08C523.9,-106.2 613.13,-93.13 698.17,-74.08"/>
<polygon fill="#63b8ff" stroke="#63b8ff" points="699.01,-77.48 707.99,-71.85 697.46,-70.65 699.01,-77.48"/>
</g>
<!-- Node16 -->
<g id="node16" class="node">
<title>Node16</title>
<g id="a_node16"><a xlink:title=" ">
<polygon fill="#e0e0e0" stroke="#999999" points="830,-74 767,-74 767,-55 830,-55 830,-74"/>
<text text-anchor="middle" x="798.5" y="-62" font-family="Helvetica,sans-Serif" font-size="10.00">libpq&#45;fe.h</text>
</a>
</g>
</g>
<!-- Node1&#45;&gt;Node16 -->
<g id="edge15" class="edge">
<title>Node1&#45;&gt;Node16</title>
<path fill="none" stroke="#63b8ff" d="M472.25,-113.76C533.25,-106.76 649,-92.64 756.61,-74.23"/>
<polygon fill="#63b8ff" stroke="#63b8ff" points="757.41,-77.64 766.66,-72.49 756.22,-70.74 757.41,-77.64"/>
</g>
<!-- Node12 -->
<g id="node12" class="node">
<title>Node12</title>
<g id="a_node12"><a xlink:title=" ">
<polygon fill="#e0e0e0" stroke="#999999" points="643.5,-19 593.5,-19 593.5,0 643.5,0 643.5,-19"/>
<text text-anchor="middle" x="618.5" y="-7" font-family="Helvetica,sans-Serif" font-size="10.00">stdio.h</text>
</a>
</g>
</g>
<!-- Node11&#45;&gt;Node12 -->
<g id="edge11" class="edge">
<title>Node11&#45;&gt;Node12</title>
<path fill="none" stroke="#63b8ff" d="M710.83,-54.98C693.21,-46.5 665.92,-33.35 645.57,-23.54"/>
<polygon fill="#63b8ff" stroke="#63b8ff" points="647.02,-20.36 636.49,-19.17 643.98,-26.66 647.02,-20.36"/>
</g>
<!-- Node13 -->
<g id="node13" class="node">
<title>Node13</title>
<g id="a_node13"><a xlink:title=" ">
<polygon fill="#e0e0e0" stroke="#999999" points="717.5,-19 661.5,-19 661.5,0 717.5,0 717.5,-19"/>
<text text-anchor="middle" x="689.5" y="-7" font-family="Helvetica,sans-Serif" font-size="10.00">stdarg.h</text>
</a>
</g>
</g>
<!-- Node11&#45;&gt;Node13 -->
<g id="edge12" class="edge">
<title>Node11&#45;&gt;Node13</title>
<path fill="none" stroke="#63b8ff" d="M722.06,-54.75C716.61,-47.34 708.64,-36.5 701.94,-27.41"/>
<polygon fill="#63b8ff" stroke="#63b8ff" points="704.57,-25.07 695.82,-19.09 698.93,-29.22 704.57,-25.07"/>
</g>
<!-- Node14 -->
<g id="node14" class="node">
<title>Node14</title>
<g id="a_node14"><a xlink:title=" ">
<polygon fill="#e0e0e0" stroke="#999999" points="797.5,-19 735.5,-19 735.5,0 797.5,0 797.5,-19"/>
<text text-anchor="middle" x="766.5" y="-7" font-family="Helvetica,sans-Serif" font-size="10.00">stdbool.h</text>
</a>
</g>
</g>
<!-- Node11&#45;&gt;Node14 -->
<g id="edge13" class="edge">
<title>Node11&#45;&gt;Node14</title>
<path fill="none" stroke="#63b8ff" d="M734.77,-54.75C740.09,-47.34 747.86,-36.5 754.38,-27.41"/>
<polygon fill="#63b8ff" stroke="#63b8ff" points="757.36,-29.26 760.34,-19.09 751.67,-25.18 757.36,-29.26"/>
</g>
<!-- Node15 -->
<g id="node15" class="node">
<title>Node15</title>
<g id="a_node15"><a xlink:title=" ">
<polygon fill="#e0e0e0" stroke="#999999" points="863.5,-19 815.5,-19 815.5,0 863.5,0 863.5,-19"/>
<text text-anchor="middle" x="839.5" y="-7" font-family="Helvetica,sans-Serif" font-size="10.00">time.h</text>
</a>
</g>
</g>
<!-- Node11&#45;&gt;Node15 -->
<g id="edge14" class="edge">
<title>Node11&#45;&gt;Node15</title>
<path fill="none" stroke="#63b8ff" d="M746.33,-54.98C764.11,-46.5 791.65,-33.35 812.18,-23.54"/>
<polygon fill="#63b8ff" stroke="#63b8ff" points="813.83,-26.64 821.34,-19.17 810.81,-20.32 813.83,-26.64"/>
</g>
</g>
</svg>
