<?xml version="1.0" encoding="UTF-8" standalone="no"?>
<!DOCTYPE svg PUBLIC "-//W3C//DTD SVG 1.1//EN"
 "http://www.w3.org/Graphics/SVG/1.1/DTD/svg11.dtd">
<!-- Generated by graphviz version 2.49.3 (20211027.1534)
 -->
<!-- Title: include/WillyWeather/w_weather.h Pages: 1 -->
<svg width="300pt" height="151pt"
 viewBox="0.00 0.00 299.50 151.00" xmlns="http://www.w3.org/2000/svg" xmlns:xlink="http://www.w3.org/1999/xlink">
<g id="graph0" class="graph" transform="scale(1 1) rotate(0) translate(4 147)">
<title>include/WillyWeather/w_weather.h</title>
<!-- Node1 -->
<g id="node1" class="node">
<title>Node1</title>
<g id="a_node1"><a xlink:title=" ">
<polygon fill="#bfbfbf" stroke="black" points="95.5,-112.5 95.5,-142.5 202.5,-142.5 202.5,-112.5 95.5,-112.5"/>
<text text-anchor="start" x="103.5" y="-130.5" font-family="Helvetica,sans-Serif" font-size="10.00">include/WillyWeather</text>
<text text-anchor="middle" x="149" y="-119.5" font-family="Helvetica,sans-Serif" font-size="10.00">/w_weather.h</text>
</a>
</g>
</g>
<!-- Node2 -->
<g id="node2" class="node">
<title>Node2</title>
<g id="a_node2"><a xlink:title=" ">
<polygon fill="none" stroke="#bfbfbf" points="0,-0.5 0,-19.5 48,-19.5 48,-0.5 0,-0.5"/>
<text text-anchor="middle" x="24" y="-7.5" font-family="Helvetica,sans-Serif" font-size="10.00">string.h</text>
</a>
</g>
</g>
<!-- Node1&#45;&gt;Node2 -->
<g id="edge1" class="edge">
<title>Node1&#45;&gt;Node2</title>
<path fill="none" stroke="midnightblue" d="M129.99,-112.32C117.2,-102.53 100.15,-88.98 86,-76 68.87,-60.28 50.67,-40.83 38.45,-27.32"/>
<polygon fill="midnightblue" stroke="midnightblue" points="40.96,-24.88 31.68,-19.77 35.75,-29.55 40.96,-24.88"/>
</g>
<!-- Node3 -->
<g id="node3" class="node">
<title>Node3</title>
<g id="a_node3"><a xlink:title=" ">
<polygon fill="none" stroke="#bfbfbf" points="66.5,-0.5 66.5,-19.5 113.5,-19.5 113.5,-0.5 66.5,-0.5"/>
<text text-anchor="middle" x="90" y="-7.5" font-family="Helvetica,sans-Serif" font-size="10.00">stdlib.h</text>
</a>
</g>
</g>
<!-- Node1&#45;&gt;Node3 -->
<g id="edge2" class="edge">
<title>Node1&#45;&gt;Node3</title>
<path fill="none" stroke="midnightblue" d="M127.34,-112.36C115.61,-103.43 102.11,-90.81 95,-76 88.11,-61.65 87.28,-43.45 87.93,-29.97"/>
<polygon fill="midnightblue" stroke="midnightblue" points="91.43,-30.17 88.73,-19.93 84.45,-29.62 91.43,-30.17"/>
</g>
<!-- Node4 -->
<g id="node4" class="node">
<title>Node4</title>
<g id="a_node4"><a xlink:title=" ">
<polygon fill="none" stroke="#bfbfbf" points="240,-56.5 240,-75.5 286,-75.5 286,-56.5 240,-56.5"/>
<text text-anchor="middle" x="263" y="-63.5" font-family="Helvetica,sans-Serif" font-size="10.00">math.h</text>
</a>
</g>
</g>
<!-- Node1&#45;&gt;Node4 -->
<g id="edge3" class="edge">
<title>Node1&#45;&gt;Node4</title>
<path fill="none" stroke="midnightblue" d="M176.02,-112.4C194.63,-102.68 219.21,-89.86 237.49,-80.31"/>
<polygon fill="midnightblue" stroke="midnightblue" points="239.17,-83.39 246.41,-75.66 235.93,-77.18 239.17,-83.39"/>
</g>
<!-- Node5 -->
<g id="node5" class="node">
<title>Node5</title>
<g id="a_node5"><a xlink:title=" ">
<polygon fill="none" stroke="#bfbfbf" points="131.5,-0.5 131.5,-19.5 190.5,-19.5 190.5,-0.5 131.5,-0.5"/>
<text text-anchor="middle" x="161" y="-7.5" font-family="Helvetica,sans-Serif" font-size="10.00">curl/curl.h</text>
</a>
</g>
</g>
<!-- Node1&#45;&gt;Node5 -->
<g id="edge4" class="edge">
<title>Node1&#45;&gt;Node5</title>
<path fill="none" stroke="midnightblue" d="M150.78,-112.36C152.03,-102.24 153.7,-88.29 155,-76 156.64,-60.48 158.25,-42.86 159.39,-29.88"/>
<polygon fill="midnightblue" stroke="midnightblue" points="162.88,-30.1 160.26,-19.84 155.91,-29.5 162.88,-30.1"/>
</g>
<!-- Node6 -->
<g id="node6" class="node">
<title>Node6</title>
<g id="a_node6"><a xlink:title=" ">
<polygon fill="none" stroke="#bfbfbf" points="208.5,-0.5 208.5,-19.5 291.5,-19.5 291.5,-0.5 208.5,-0.5"/>
<text text-anchor="middle" x="250" y="-7.5" font-family="Helvetica,sans-Serif" font-size="10.00">cjson/cJSON.h</text>
</a>
</g>
</g>
<!-- Node1&#45;&gt;Node6 -->
<g id="edge5" class="edge">
<title>Node1&#45;&gt;Node6</title>
<path fill="none" stroke="midnightblue" d="M161.38,-112.34C180.16,-90.86 215.75,-50.17 235.63,-27.43"/>
<polygon fill="midnightblue" stroke="midnightblue" points="238.47,-29.5 242.42,-19.67 233.2,-24.89 238.47,-29.5"/>
</g>
<!-- Node7 -->
<g id="node7" class="node">
<title>Node7</title>
<g id="a_node7"><a xlink:href="utils_8h.html" target="_top" xlink:title=" ">
<polygon fill="none" stroke="black" points="104,-56.5 104,-75.5 146,-75.5 146,-56.5 104,-56.5"/>
<text text-anchor="middle" x="125" y="-63.5" font-family="Helvetica,sans-Serif" font-size="10.00">utils.h</text>
</a>
</g>
</g>
<!-- Node1&#45;&gt;Node7 -->
<g id="edge6" class="edge">
<title>Node1&#45;&gt;Node7</title>
<path fill="none" stroke="midnightblue" d="M143.31,-112.4C140,-104.2 135.8,-93.78 132.26,-84.99"/>
<polygon fill="midnightblue" stroke="midnightblue" points="135.48,-83.62 128.49,-75.66 128.99,-86.24 135.48,-83.62"/>
</g>
<!-- Node7&#45;&gt;Node2 -->
<g id="edge8" class="edge">
<title>Node7&#45;&gt;Node2</title>
<path fill="none" stroke="midnightblue" d="M108.77,-56.32C92.65,-47.7 67.7,-34.36 49.04,-24.39"/>
<polygon fill="midnightblue" stroke="midnightblue" points="50.66,-21.28 40.19,-19.65 47.36,-27.46 50.66,-21.28"/>
</g>
<!-- Node7&#45;&gt;Node3 -->
<g id="edge7" class="edge">
<title>Node7&#45;&gt;Node3</title>
<path fill="none" stroke="midnightblue" d="M119.22,-56.08C114.33,-48.53 107.17,-37.49 101.17,-28.23"/>
<polygon fill="midnightblue" stroke="midnightblue" points="104.05,-26.24 95.67,-19.75 98.17,-30.05 104.05,-26.24"/>
</g>
<!-- Node7&#45;&gt;Node5 -->
<g id="edge9" class="edge">
<title>Node7&#45;&gt;Node5</title>
<path fill="none" stroke="midnightblue" d="M130.94,-56.08C135.98,-48.53 143.34,-37.49 149.51,-28.23"/>
<polygon fill="midnightblue" stroke="midnightblue" points="152.53,-30.01 155.17,-19.75 146.71,-26.13 152.53,-30.01"/>
</g>
<!-- Node7&#45;&gt;Node6 -->
<g id="edge10" class="edge">
<title>Node7&#45;&gt;Node6</title>
<path fill="none" stroke="midnightblue" d="M144.81,-56.44C165.29,-47.6 197.48,-33.69 220.86,-23.59"/>
<polygon fill="midnightblue" stroke="midnightblue" points="222.49,-26.7 230.29,-19.52 219.72,-20.27 222.49,-26.7"/>
</g>
</g>
</svg>
