<?xml version="1.0" encoding="UTF-8" standalone="no"?>
<!DOCTYPE svg PUBLIC "-//W3C//DTD SVG 1.1//EN"
 "http://www.w3.org/Graphics/SVG/1.1/DTD/svg11.dtd">
<!-- Generated by graphviz version 2.43.0 (0)
 -->
<!-- Title: src/w_weather.c Pages: 1 -->
<svg width="316pt" height="196pt"
 viewBox="0.00 0.00 316.00 196.00" xmlns="http://www.w3.org/2000/svg" xmlns:xlink="http://www.w3.org/1999/xlink">
<g id="graph0" class="graph" transform="scale(1 1) rotate(0) translate(4 192)">
<title>src/w_weather.c</title>
<!-- Node1 -->
<g id="node1" class="node">
<title>Node1</title>
<g id="a_node1"><a xlink:title=" ">
<polygon fill="#bfbfbf" stroke="black" points="46,-168.5 46,-187.5 141,-187.5 141,-168.5 46,-168.5"/>
<text text-anchor="middle" x="93.5" y="-175.5" font-family="Helvetica,sans-Serif" font-size="10.00">src/w_weather.c</text>
</a>
</g>
</g>
<!-- Node2 -->
<g id="node2" class="node">
<title>Node2</title>
<g id="a_node2"><a xlink:href="w__weather_8h.html" target="_top" xlink:title=" ">
<polygon fill="none" stroke="black" points="54.5,-112.5 54.5,-131.5 132.5,-131.5 132.5,-112.5 54.5,-112.5"/>
<text text-anchor="middle" x="93.5" y="-119.5" font-family="Helvetica,sans-Serif" font-size="10.00">w_weather.h</text>
</a>
</g>
</g>
<!-- Node1&#45;&gt;Node2 -->
<g id="edge1" class="edge">
<title>Node1&#45;&gt;Node2</title>
<path fill="none" stroke="midnightblue" d="M93.5,-168.08C93.5,-161.01 93.5,-150.86 93.5,-141.99"/>
<polygon fill="midnightblue" stroke="midnightblue" points="97,-141.75 93.5,-131.75 90,-141.75 97,-141.75"/>
</g>
<!-- Node3 -->
<g id="node3" class="node">
<title>Node3</title>
<g id="a_node3"><a xlink:title=" ">
<polygon fill="none" stroke="#bfbfbf" points="0,-0.5 0,-19.5 53,-19.5 53,-0.5 0,-0.5"/>
<text text-anchor="middle" x="26.5" y="-7.5" font-family="Helvetica,sans-Serif" font-size="10.00">string.h</text>
</a>
</g>
</g>
<!-- Node2&#45;&gt;Node3 -->
<g id="edge2" class="edge">
<title>Node2&#45;&gt;Node3</title>
<path fill="none" stroke="midnightblue" d="M88.24,-112.37C77.23,-94.3 51.58,-52.18 37.04,-28.31"/>
<polygon fill="midnightblue" stroke="midnightblue" points="39.92,-26.31 31.73,-19.59 33.95,-29.95 39.92,-26.31"/>
</g>
<!-- Node4 -->
<g id="node4" class="node">
<title>Node4</title>
<g id="a_node4"><a xlink:title=" ">
<polygon fill="none" stroke="#bfbfbf" points="71,-0.5 71,-19.5 136,-19.5 136,-0.5 71,-0.5"/>
<text text-anchor="middle" x="103.5" y="-7.5" font-family="Helvetica,sans-Serif" font-size="10.00">curl/curl.h</text>
</a>
</g>
</g>
<!-- Node2&#45;&gt;Node4 -->
<g id="edge3" class="edge">
<title>Node2&#45;&gt;Node4</title>
<path fill="none" stroke="midnightblue" d="M94.28,-112.37C95.9,-94.62 99.62,-53.67 101.81,-29.6"/>
<polygon fill="midnightblue" stroke="midnightblue" points="105.3,-29.87 102.72,-19.59 98.33,-29.23 105.3,-29.87"/>
</g>
<!-- Node5 -->
<g id="node5" class="node">
<title>Node5</title>
<g id="a_node5"><a xlink:href="utils_8h.html" target="_top" xlink:title=" ">
<polygon fill="none" stroke="black" points="122,-56.5 122,-75.5 169,-75.5 169,-56.5 122,-56.5"/>
<text text-anchor="middle" x="145.5" y="-63.5" font-family="Helvetica,sans-Serif" font-size="10.00">utils.h</text>
</a>
</g>
</g>
<!-- Node2&#45;&gt;Node5 -->
<g id="edge4" class="edge">
<title>Node2&#45;&gt;Node5</title>
<path fill="none" stroke="midnightblue" d="M102.09,-112.08C109.66,-104.22 120.88,-92.57 130.01,-83.08"/>
<polygon fill="midnightblue" stroke="midnightblue" points="132.66,-85.38 137.07,-75.75 127.62,-80.53 132.66,-85.38"/>
</g>
<!-- Node5&#45;&gt;Node3 -->
<g id="edge6" class="edge">
<title>Node5&#45;&gt;Node3</title>
<path fill="none" stroke="midnightblue" d="M126.64,-56.44C107.23,-47.64 76.77,-33.81 54.54,-23.72"/>
<polygon fill="midnightblue" stroke="midnightblue" points="55.82,-20.46 45.27,-19.52 52.93,-26.84 55.82,-20.46"/>
</g>
<!-- Node5&#45;&gt;Node4 -->
<g id="edge7" class="edge">
<title>Node5&#45;&gt;Node4</title>
<path fill="none" stroke="midnightblue" d="M138.56,-56.08C132.57,-48.38 123.75,-37.03 116.45,-27.65"/>
<polygon fill="midnightblue" stroke="midnightblue" points="119.21,-25.5 110.31,-19.75 113.68,-29.79 119.21,-25.5"/>
</g>
<!-- Node6 -->
<g id="node6" class="node">
<title>Node6</title>
<g id="a_node6"><a xlink:title=" ">
<polygon fill="none" stroke="#bfbfbf" points="154,-0.5 154,-19.5 207,-19.5 207,-0.5 154,-0.5"/>
<text text-anchor="middle" x="180.5" y="-7.5" font-family="Helvetica,sans-Serif" font-size="10.00">stdlib.h</text>
</a>
</g>
</g>
<!-- Node5&#45;&gt;Node6 -->
<g id="edge5" class="edge">
<title>Node5&#45;&gt;Node6</title>
<path fill="none" stroke="midnightblue" d="M151.28,-56.08C156.17,-48.53 163.33,-37.49 169.33,-28.23"/>
<polygon fill="midnightblue" stroke="midnightblue" points="172.33,-30.05 174.83,-19.75 166.45,-26.24 172.33,-30.05"/>
</g>
<!-- Node7 -->
<g id="node7" class="node">
<title>Node7</title>
<g id="a_node7"><a xlink:title=" ">
<polygon fill="none" stroke="#bfbfbf" points="225,-0.5 225,-19.5 308,-19.5 308,-0.5 225,-0.5"/>
<text text-anchor="middle" x="266.5" y="-7.5" font-family="Helvetica,sans-Serif" font-size="10.00">cjson/cJSON.h</text>
</a>
</g>
</g>
<!-- Node5&#45;&gt;Node7 -->
<g id="edge8" class="edge">
<title>Node5&#45;&gt;Node7</title>
<path fill="none" stroke="midnightblue" d="M164.67,-56.44C184.41,-47.64 215.39,-33.81 237.99,-23.72"/>
<polygon fill="midnightblue" stroke="midnightblue" points="239.71,-26.79 247.42,-19.52 236.86,-20.4 239.71,-26.79"/>
</g>
</g>
</svg>
