<?xml version="1.0" encoding="UTF-8" standalone="no"?>
<!DOCTYPE svg PUBLIC "-//W3C//DTD SVG 1.1//EN"
 "http://www.w3.org/Graphics/SVG/1.1/DTD/svg11.dtd">
<!-- Generated by graphviz version 2.49.3 (20211027.1534)
 -->
<!-- Title: src/WillyWeather/w_weather.c Pages: 1 -->
<svg width="300pt" height="207pt"
 viewBox="0.00 0.00 299.50 207.00" xmlns="http://www.w3.org/2000/svg" xmlns:xlink="http://www.w3.org/1999/xlink">
<g id="graph0" class="graph" transform="scale(1 1) rotate(0) translate(4 203)">
<title>src/WillyWeather/w_weather.c</title>
<!-- Node1 -->
<g id="node1" class="node">
<title>Node1</title>
<g id="a_node1"><a xlink:title=" ">
<polygon fill="#bfbfbf" stroke="black" points="99,-168.5 99,-198.5 199,-198.5 199,-168.5 99,-168.5"/>
<text text-anchor="start" x="107" y="-186.5" font-family="Helvetica,sans-Serif" font-size="10.00">src/WillyWeather/w</text>
<text text-anchor="middle" x="149" y="-175.5" font-family="Helvetica,sans-Serif" font-size="10.00">_weather.c</text>
</a>
</g>
</g>
<!-- Node2 -->
<g id="node2" class="node">
<title>Node2</title>
<g id="a_node2"><a xlink:href="w__weather_8h.html" target="_top" xlink:title=" ">
<polygon fill="none" stroke="black" points="83.5,-112.5 83.5,-131.5 214.5,-131.5 214.5,-112.5 83.5,-112.5"/>
<text text-anchor="middle" x="149" y="-119.5" font-family="Helvetica,sans-Serif" font-size="10.00">WillyWeather/w_weather.h</text>
</a>
</g>
</g>
<!-- Node1&#45;&gt;Node2 -->
<g id="edge1" class="edge">
<title>Node1&#45;&gt;Node2</title>
<path fill="none" stroke="midnightblue" d="M149,-168.4C149,-160.47 149,-150.46 149,-141.86"/>
<polygon fill="midnightblue" stroke="midnightblue" points="152.5,-141.66 149,-131.66 145.5,-141.66 152.5,-141.66"/>
</g>
<!-- Node3 -->
<g id="node3" class="node">
<title>Node3</title>
<g id="a_node3"><a xlink:title=" ">
<polygon fill="none" stroke="#bfbfbf" points="0,-0.5 0,-19.5 48,-19.5 48,-0.5 0,-0.5"/>
<text text-anchor="middle" x="24" y="-7.5" font-family="Helvetica,sans-Serif" font-size="10.00">string.h</text>
</a>
</g>
</g>
<!-- Node2&#45;&gt;Node3 -->
<g id="edge2" class="edge">
<title>Node2&#45;&gt;Node3</title>
<path fill="none" stroke="midnightblue" d="M135.42,-112.38C122.28,-103.8 102.04,-89.92 86,-76 68.44,-60.77 50.31,-41.23 38.23,-27.58"/>
<polygon fill="midnightblue" stroke="midnightblue" points="40.76,-25.15 31.54,-19.92 35.48,-29.76 40.76,-25.15"/>
</g>
<!-- Node4 -->
<g id="node4" class="node">
<title>Node4</title>
<g id="a_node4"><a xlink:title=" ">
<polygon fill="none" stroke="#bfbfbf" points="66.5,-0.5 66.5,-19.5 113.5,-19.5 113.5,-0.5 66.5,-0.5"/>
<text text-anchor="middle" x="90" y="-7.5" font-family="Helvetica,sans-Serif" font-size="10.00">stdlib.h</text>
</a>
</g>
</g>
<!-- Node2&#45;&gt;Node4 -->
<g id="edge3" class="edge">
<title>Node2&#45;&gt;Node4</title>
<path fill="none" stroke="midnightblue" d="M132.96,-112.46C120.26,-104.75 103.34,-92.16 95,-76 87.62,-61.7 86.9,-43.23 87.71,-29.64"/>
<polygon fill="midnightblue" stroke="midnightblue" points="91.21,-29.85 88.64,-19.57 84.24,-29.2 91.21,-29.85"/>
</g>
<!-- Node5 -->
<g id="node5" class="node">
<title>Node5</title>
<g id="a_node5"><a xlink:title=" ">
<polygon fill="none" stroke="#bfbfbf" points="240,-56.5 240,-75.5 286,-75.5 286,-56.5 240,-56.5"/>
<text text-anchor="middle" x="263" y="-63.5" font-family="Helvetica,sans-Serif" font-size="10.00">math.h</text>
</a>
</g>
</g>
<!-- Node2&#45;&gt;Node5 -->
<g id="edge4" class="edge">
<title>Node2&#45;&gt;Node5</title>
<path fill="none" stroke="midnightblue" d="M167.06,-112.44C185.57,-103.68 214.58,-89.94 235.86,-79.86"/>
<polygon fill="midnightblue" stroke="midnightblue" points="237.48,-82.96 245.02,-75.52 234.49,-76.63 237.48,-82.96"/>
</g>
<!-- Node6 -->
<g id="node6" class="node">
<title>Node6</title>
<g id="a_node6"><a xlink:title=" ">
<polygon fill="none" stroke="#bfbfbf" points="131.5,-0.5 131.5,-19.5 190.5,-19.5 190.5,-0.5 131.5,-0.5"/>
<text text-anchor="middle" x="161" y="-7.5" font-family="Helvetica,sans-Serif" font-size="10.00">curl/curl.h</text>
</a>
</g>
</g>
<!-- Node2&#45;&gt;Node6 -->
<g id="edge5" class="edge">
<title>Node2&#45;&gt;Node6</title>
<path fill="none" stroke="midnightblue" d="M150.25,-112.39C151.55,-103.34 153.57,-88.69 155,-76 156.75,-60.5 158.35,-42.87 159.46,-29.89"/>
<polygon fill="midnightblue" stroke="midnightblue" points="162.95,-30.1 160.3,-19.84 155.98,-29.52 162.95,-30.1"/>
</g>
<!-- Node7 -->
<g id="node7" class="node">
<title>Node7</title>
<g id="a_node7"><a xlink:title=" ">
<polygon fill="none" stroke="#bfbfbf" points="208.5,-0.5 208.5,-19.5 291.5,-19.5 291.5,-0.5 208.5,-0.5"/>
<text text-anchor="middle" x="250" y="-7.5" font-family="Helvetica,sans-Serif" font-size="10.00">cjson/cJSON.h</text>
</a>
</g>
</g>
<!-- Node2&#45;&gt;Node7 -->
<g id="edge6" class="edge">
<title>Node2&#45;&gt;Node7</title>
<path fill="none" stroke="midnightblue" d="M156.93,-112.37C173.81,-93.97 213.57,-50.67 235.26,-27.05"/>
<polygon fill="midnightblue" stroke="midnightblue" points="237.93,-29.32 242.11,-19.59 232.77,-24.59 237.93,-29.32"/>
</g>
<!-- Node8 -->
<g id="node8" class="node">
<title>Node8</title>
<g id="a_node8"><a xlink:href="utils_8h.html" target="_top" xlink:title=" ">
<polygon fill="none" stroke="black" points="104,-56.5 104,-75.5 146,-75.5 146,-56.5 104,-56.5"/>
<text text-anchor="middle" x="125" y="-63.5" font-family="Helvetica,sans-Serif" font-size="10.00">utils.h</text>
</a>
</g>
</g>
<!-- Node2&#45;&gt;Node8 -->
<g id="edge7" class="edge">
<title>Node2&#45;&gt;Node8</title>
<path fill="none" stroke="midnightblue" d="M145.04,-112.08C141.79,-104.77 137.08,-94.18 133.05,-85.1"/>
<polygon fill="midnightblue" stroke="midnightblue" points="136.15,-83.47 128.89,-75.75 129.75,-86.31 136.15,-83.47"/>
</g>
<!-- Node8&#45;&gt;Node3 -->
<g id="edge9" class="edge">
<title>Node8&#45;&gt;Node3</title>
<path fill="none" stroke="midnightblue" d="M108.77,-56.32C92.65,-47.7 67.7,-34.36 49.04,-24.39"/>
<polygon fill="midnightblue" stroke="midnightblue" points="50.66,-21.28 40.19,-19.65 47.36,-27.46 50.66,-21.28"/>
</g>
<!-- Node8&#45;&gt;Node4 -->
<g id="edge8" class="edge">
<title>Node8&#45;&gt;Node4</title>
<path fill="none" stroke="midnightblue" d="M119.22,-56.08C114.33,-48.53 107.17,-37.49 101.17,-28.23"/>
<polygon fill="midnightblue" stroke="midnightblue" points="104.05,-26.24 95.67,-19.75 98.17,-30.05 104.05,-26.24"/>
</g>
<!-- Node8&#45;&gt;Node6 -->
<g id="edge10" class="edge">
<title>Node8&#45;&gt;Node6</title>
<path fill="none" stroke="midnightblue" d="M130.94,-56.08C135.98,-48.53 143.34,-37.49 149.51,-28.23"/>
<polygon fill="midnightblue" stroke="midnightblue" points="152.53,-30.01 155.17,-19.75 146.71,-26.13 152.53,-30.01"/>
</g>
<!-- Node8&#45;&gt;Node7 -->
<g id="edge11" class="edge">
<title>Node8&#45;&gt;Node7</title>
<path fill="none" stroke="midnightblue" d="M144.81,-56.44C165.29,-47.6 197.48,-33.69 220.86,-23.59"/>
<polygon fill="midnightblue" stroke="midnightblue" points="222.49,-26.7 230.29,-19.52 219.72,-20.27 222.49,-26.7"/>
</g>
</g>
</svg>
