<?xml version="1.0" encoding="UTF-8" standalone="no"?>
<!DOCTYPE svg PUBLIC "-//W3C//DTD SVG 1.1//EN"
 "http://www.w3.org/Graphics/SVG/1.1/DTD/svg11.dtd">
<!-- Generated by graphviz version 2.49.3 (20211027.1534)
 -->
<!-- Title: include/WillyWeather/w_weather.h Pages: 1 -->
<svg width="300pt" height="151pt"
 viewBox="0.00 0.00 299.50 151.00" xmlns="http://www.w3.org/2000/svg" xmlns:xlink="http://www.w3.org/1999/xlink">
<g id="graph0" class="graph" transform="scale(1 1) rotate(0) translate(4 147)">
<title>include/WillyWeather/w_weather.h</title>
<!-- Node1 -->
<g id="node1" class="node">
<title>Node1</title>
<g id="a_node1"><a xlink:title=" ">
<polygon fill="#bfbfbf" stroke="black" points="33.5,-112.5 33.5,-142.5 140.5,-142.5 140.5,-112.5 33.5,-112.5"/>
<text text-anchor="start" x="41.5" y="-130.5" font-family="Helvetica,sans-Serif" font-size="10.00">include/WillyWeather</text>
<text text-anchor="middle" x="87" y="-119.5" font-family="Helvetica,sans-Serif" font-size="10.00">/w_weather.h</text>
</a>
</g>
</g>
<!-- Node2 -->
<g id="node2" class="node">
<title>Node2</title>
<g id="a_node2"><a xlink:title=" ">
<polygon fill="none" stroke="#bfbfbf" points="0,-0.5 0,-19.5 48,-19.5 48,-0.5 0,-0.5"/>
<text text-anchor="middle" x="24" y="-7.5" font-family="Helvetica,sans-Serif" font-size="10.00">string.h</text>
</a>
</g>
</g>
<!-- Node1&#45;&gt;Node2 -->
<g id="edge1" class="edge">
<title>Node1&#45;&gt;Node2</title>
<path fill="none" stroke="midnightblue" d="M79.27,-112.34C67.77,-91.24 46.15,-51.6 33.63,-28.65"/>
<polygon fill="midnightblue" stroke="midnightblue" points="36.59,-26.77 28.73,-19.67 30.44,-30.12 36.59,-26.77"/>
</g>
<!-- Node3 -->
<g id="node3" class="node">
<title>Node3</title>
<g id="a_node3"><a xlink:title=" ">
<polygon fill="none" stroke="#bfbfbf" points="66.5,-0.5 66.5,-19.5 125.5,-19.5 125.5,-0.5 66.5,-0.5"/>
<text text-anchor="middle" x="96" y="-7.5" font-family="Helvetica,sans-Serif" font-size="10.00">curl/curl.h</text>
</a>
</g>
</g>
<!-- Node1&#45;&gt;Node3 -->
<g id="edge2" class="edge">
<title>Node1&#45;&gt;Node3</title>
<path fill="none" stroke="midnightblue" d="M88.1,-112.34C89.72,-91.62 92.73,-53.02 94.53,-29.9"/>
<polygon fill="midnightblue" stroke="midnightblue" points="98.04,-29.91 95.32,-19.67 91.06,-29.37 98.04,-29.91"/>
</g>
<!-- Node4 -->
<g id="node4" class="node">
<title>Node4</title>
<g id="a_node4"><a xlink:href="utils_8h.html" target="_top" xlink:title=" ">
<polygon fill="none" stroke="black" points="115,-56.5 115,-75.5 157,-75.5 157,-56.5 115,-56.5"/>
<text text-anchor="middle" x="136" y="-63.5" font-family="Helvetica,sans-Serif" font-size="10.00">utils.h</text>
</a>
</g>
</g>
<!-- Node1&#45;&gt;Node4 -->
<g id="edge3" class="edge">
<title>Node1&#45;&gt;Node4</title>
<path fill="none" stroke="midnightblue" d="M98.61,-112.4C105.73,-103.75 114.88,-92.64 122.35,-83.58"/>
<polygon fill="midnightblue" stroke="midnightblue" points="125.21,-85.6 128.87,-75.66 119.81,-81.15 125.21,-85.6"/>
</g>
<!-- Node4&#45;&gt;Node2 -->
<g id="edge5" class="edge">
<title>Node4&#45;&gt;Node2</title>
<path fill="none" stroke="midnightblue" d="M118.01,-56.32C99.96,-47.62 71.95,-34.12 51.2,-24.11"/>
<polygon fill="midnightblue" stroke="midnightblue" points="52.48,-20.84 41.95,-19.65 49.44,-27.15 52.48,-20.84"/>
</g>
<!-- Node4&#45;&gt;Node3 -->
<g id="edge6" class="edge">
<title>Node4&#45;&gt;Node3</title>
<path fill="none" stroke="midnightblue" d="M129.39,-56.08C123.74,-48.46 115.46,-37.26 108.55,-27.94"/>
<polygon fill="midnightblue" stroke="midnightblue" points="111.25,-25.7 102.48,-19.75 105.62,-29.87 111.25,-25.7"/>
</g>
<!-- Node5 -->
<g id="node5" class="node">
<title>Node5</title>
<g id="a_node5"><a xlink:title=" ">
<polygon fill="none" stroke="#bfbfbf" points="143.5,-0.5 143.5,-19.5 190.5,-19.5 190.5,-0.5 143.5,-0.5"/>
<text text-anchor="middle" x="167" y="-7.5" font-family="Helvetica,sans-Serif" font-size="10.00">stdlib.h</text>
</a>
</g>
</g>
<!-- Node4&#45;&gt;Node5 -->
<g id="edge4" class="edge">
<title>Node4&#45;&gt;Node5</title>
<path fill="none" stroke="midnightblue" d="M141.12,-56.08C145.41,-48.61 151.66,-37.72 156.94,-28.52"/>
<polygon fill="midnightblue" stroke="midnightblue" points="160.03,-30.17 161.98,-19.75 153.96,-26.68 160.03,-30.17"/>
</g>
<!-- Node6 -->
<g id="node6" class="node">
<title>Node6</title>
<g id="a_node6"><a xlink:title=" ">
<polygon fill="none" stroke="#bfbfbf" points="208.5,-0.5 208.5,-19.5 291.5,-19.5 291.5,-0.5 208.5,-0.5"/>
<text text-anchor="middle" x="250" y="-7.5" font-family="Helvetica,sans-Serif" font-size="10.00">cjson/cJSON.h</text>
</a>
</g>
</g>
<!-- Node4&#45;&gt;Node6 -->
<g id="edge7" class="edge">
<title>Node4&#45;&gt;Node6</title>
<path fill="none" stroke="midnightblue" d="M154.06,-56.44C172.57,-47.68 201.58,-33.94 222.86,-23.86"/>
<polygon fill="midnightblue" stroke="midnightblue" points="224.48,-26.96 232.02,-19.52 221.49,-20.63 224.48,-26.96"/>
</g>
</g>
</svg>
