<?xml version="1.0" encoding="UTF-8" standalone="no"?>
<!DOCTYPE svg PUBLIC "-//W3C//DTD SVG 1.1//EN"
 "http://www.w3.org/Graphics/SVG/1.1/DTD/svg11.dtd">
<!-- Generated by graphviz version 2.49.3 (20211027.1534)
 -->
<!-- Title: src/WillyWeather/w_weather.c Pages: 1 -->
<svg width="300pt" height="207pt"
 viewBox="0.00 0.00 299.50 207.00" xmlns="http://www.w3.org/2000/svg" xmlns:xlink="http://www.w3.org/1999/xlink">
<g id="graph0" class="graph" transform="scale(1 1) rotate(0) translate(4 203)">
<title>src/WillyWeather/w_weather.c</title>
<!-- Node1 -->
<g id="node1" class="node">
<title>Node1</title>
<g id="a_node1"><a xlink:title=" ">
<polygon fill="#bfbfbf" stroke="black" points="75,-168.5 75,-198.5 175,-198.5 175,-168.5 75,-168.5"/>
<text text-anchor="start" x="83" y="-186.5" font-family="Helvetica,sans-Serif" font-size="10.00">src/WillyWeather/w</text>
<text text-anchor="middle" x="125" y="-175.5" font-family="Helvetica,sans-Serif" font-size="10.00">_weather.c</text>
</a>
</g>
</g>
<!-- Node2 -->
<g id="node2" class="node">
<title>Node2</title>
<g id="a_node2"><a xlink:href="w__weather_8h.html" target="_top" xlink:title=" ">
<polygon fill="none" stroke="black" points="59.5,-112.5 59.5,-131.5 190.5,-131.5 190.5,-112.5 59.5,-112.5"/>
<text text-anchor="middle" x="125" y="-119.5" font-family="Helvetica,sans-Serif" font-size="10.00">WillyWeather/w_weather.h</text>
</a>
</g>
</g>
<!-- Node1&#45;&gt;Node2 -->
<g id="edge1" class="edge">
<title>Node1&#45;&gt;Node2</title>
<path fill="none" stroke="midnightblue" d="M125,-168.4C125,-160.47 125,-150.46 125,-141.86"/>
<polygon fill="midnightblue" stroke="midnightblue" points="128.5,-141.66 125,-131.66 121.5,-141.66 128.5,-141.66"/>
</g>
<!-- Node3 -->
<g id="node3" class="node">
<title>Node3</title>
<g id="a_node3"><a xlink:title=" ">
<polygon fill="none" stroke="#bfbfbf" points="0,-0.5 0,-19.5 48,-19.5 48,-0.5 0,-0.5"/>
<text text-anchor="middle" x="24" y="-7.5" font-family="Helvetica,sans-Serif" font-size="10.00">string.h</text>
</a>
</g>
</g>
<!-- Node2&#45;&gt;Node3 -->
<g id="edge2" class="edge">
<title>Node2&#45;&gt;Node3</title>
<path fill="none" stroke="midnightblue" d="M117.07,-112.37C100.19,-93.97 60.43,-50.67 38.74,-27.05"/>
<polygon fill="midnightblue" stroke="midnightblue" points="41.23,-24.59 31.89,-19.59 36.07,-29.32 41.23,-24.59"/>
</g>
<!-- Node4 -->
<g id="node4" class="node">
<title>Node4</title>
<g id="a_node4"><a xlink:title=" ">
<polygon fill="none" stroke="#bfbfbf" points="66.5,-0.5 66.5,-19.5 113.5,-19.5 113.5,-0.5 66.5,-0.5"/>
<text text-anchor="middle" x="90" y="-7.5" font-family="Helvetica,sans-Serif" font-size="10.00">stdlib.h</text>
</a>
</g>
</g>
<!-- Node2&#45;&gt;Node4 -->
<g id="edge3" class="edge">
<title>Node2&#45;&gt;Node4</title>
<path fill="none" stroke="midnightblue" d="M117.31,-112.43C110.13,-103.88 99.84,-90.02 95,-76 89.86,-61.11 88.83,-43.19 88.96,-29.94"/>
<polygon fill="midnightblue" stroke="midnightblue" points="92.47,-29.8 89.3,-19.69 85.47,-29.57 92.47,-29.8"/>
</g>
<!-- Node5 -->
<g id="node5" class="node">
<title>Node5</title>
<g id="a_node5"><a xlink:title=" ">
<polygon fill="none" stroke="#bfbfbf" points="131.5,-0.5 131.5,-19.5 190.5,-19.5 190.5,-0.5 131.5,-0.5"/>
<text text-anchor="middle" x="161" y="-7.5" font-family="Helvetica,sans-Serif" font-size="10.00">curl/curl.h</text>
</a>
</g>
</g>
<!-- Node2&#45;&gt;Node5 -->
<g id="edge4" class="edge">
<title>Node2&#45;&gt;Node5</title>
<path fill="none" stroke="midnightblue" d="M132.65,-112.41C139.78,-103.85 150.05,-89.99 155,-76 160.26,-61.13 161.58,-43.21 161.68,-29.95"/>
<polygon fill="midnightblue" stroke="midnightblue" points="165.17,-29.65 161.53,-19.7 158.18,-29.75 165.17,-29.65"/>
</g>
<!-- Node6 -->
<g id="node6" class="node">
<title>Node6</title>
<g id="a_node6"><a xlink:title=" ">
<polygon fill="none" stroke="#bfbfbf" points="208.5,-0.5 208.5,-19.5 291.5,-19.5 291.5,-0.5 208.5,-0.5"/>
<text text-anchor="middle" x="250" y="-7.5" font-family="Helvetica,sans-Serif" font-size="10.00">cjson/cJSON.h</text>
</a>
</g>
</g>
<!-- Node2&#45;&gt;Node6 -->
<g id="edge5" class="edge">
<title>Node2&#45;&gt;Node6</title>
<path fill="none" stroke="midnightblue" d="M134.81,-112.37C155.89,-93.81 205.78,-49.91 232.46,-26.44"/>
<polygon fill="midnightblue" stroke="midnightblue" points="235.04,-28.83 240.24,-19.59 230.42,-23.57 235.04,-28.83"/>
</g>
<!-- Node7 -->
<g id="node7" class="node">
<title>Node7</title>
<g id="a_node7"><a xlink:href="utils_8h.html" target="_top" xlink:title=" ">
<polygon fill="none" stroke="black" points="104,-56.5 104,-75.5 146,-75.5 146,-56.5 104,-56.5"/>
<text text-anchor="middle" x="125" y="-63.5" font-family="Helvetica,sans-Serif" font-size="10.00">utils.h</text>
</a>
</g>
</g>
<!-- Node2&#45;&gt;Node7 -->
<g id="edge6" class="edge">
<title>Node2&#45;&gt;Node7</title>
<path fill="none" stroke="midnightblue" d="M125,-112.08C125,-105.01 125,-94.86 125,-85.99"/>
<polygon fill="midnightblue" stroke="midnightblue" points="128.5,-85.75 125,-75.75 121.5,-85.75 128.5,-85.75"/>
</g>
<!-- Node7&#45;&gt;Node3 -->
<g id="edge8" class="edge">
<title>Node7&#45;&gt;Node3</title>
<path fill="none" stroke="midnightblue" d="M108.77,-56.32C92.65,-47.7 67.7,-34.36 49.04,-24.39"/>
<polygon fill="midnightblue" stroke="midnightblue" points="50.66,-21.28 40.19,-19.65 47.36,-27.46 50.66,-21.28"/>
</g>
<!-- Node7&#45;&gt;Node4 -->
<g id="edge7" class="edge">
<title>Node7&#45;&gt;Node4</title>
<path fill="none" stroke="midnightblue" d="M119.22,-56.08C114.33,-48.53 107.17,-37.49 101.17,-28.23"/>
<polygon fill="midnightblue" stroke="midnightblue" points="104.05,-26.24 95.67,-19.75 98.17,-30.05 104.05,-26.24"/>
</g>
<!-- Node7&#45;&gt;Node5 -->
<g id="edge9" class="edge">
<title>Node7&#45;&gt;Node5</title>
<path fill="none" stroke="midnightblue" d="M130.94,-56.08C135.98,-48.53 143.34,-37.49 149.51,-28.23"/>
<polygon fill="midnightblue" stroke="midnightblue" points="152.53,-30.01 155.17,-19.75 146.71,-26.13 152.53,-30.01"/>
</g>
<!-- Node7&#45;&gt;Node6 -->
<g id="edge10" class="edge">
<title>Node7&#45;&gt;Node6</title>
<path fill="none" stroke="midnightblue" d="M144.81,-56.44C165.29,-47.6 197.48,-33.69 220.86,-23.59"/>
<polygon fill="midnightblue" stroke="midnightblue" points="222.49,-26.7 230.29,-19.52 219.72,-20.27 222.49,-26.7"/>
</g>
</g>
</svg>
